<?xml version="1.0" encoding="utf-8" standalone="no"?>
<!DOCTYPE svg PUBLIC "-//W3C//DTD SVG 1.1//EN"
  "http://www.w3.org/Graphics/SVG/1.1/DTD/svg11.dtd">
<svg xmlns:xlink="http://www.w3.org/1999/xlink" width="921.6pt" height="410.4pt" viewBox="0 0 921.6 410.4" xmlns="http://www.w3.org/2000/svg" version="1.1">
 <metadata>
  <rdf:RDF xmlns:dc="http://purl.org/dc/elements/1.1/" xmlns:cc="http://creativecommons.org/ns#" xmlns:rdf="http://www.w3.org/1999/02/22-rdf-syntax-ns#">
   <cc:Work>
    <dc:type rdf:resource="http://purl.org/dc/dcmitype/StillImage"/>
    <dc:date>2023-04-17T18:33:11.463138</dc:date>
    <dc:format>image/svg+xml</dc:format>
    <dc:creator>
     <cc:Agent>
      <dc:title>Matplotlib v3.5.3, https://matplotlib.org/</dc:title>
     </cc:Agent>
    </dc:creator>
   </cc:Work>
  </rdf:RDF>
 </metadata>
 <defs>
  <style type="text/css">*{stroke-linejoin: round; stroke-linecap: butt}</style>
 </defs>
 <g id="figure_1">
  <g id="patch_1">
   <path d="M 0 410.4 
L 921.6 410.4 
L 921.6 0 
L 0 0 
L 0 410.4 
z
" style="fill: none"/>
  </g>
  <g id="axes_1">
   <g id="patch_2">
    <path d="M 92.974375 331.120625 
L 876.84375 331.120625 
L 876.84375 23.76 
L 92.974375 23.76 
z
" style="fill: #ffffff"/>
   </g>
   <g id="matplotlib.axis_1">
    <g id="xtick_1">
     <g id="line2d_1">
      <path d="M 92.974375 331.120625 
L 92.974375 23.76 
" clip-path="url(#pd001223071)" style="fill: none; stroke: #b0b0b0; stroke-width: 0.8; stroke-linecap: square"/>
     </g>
     <g id="line2d_2">
      <defs>
       <path id="mbd75e1a712" d="M 0 0 
L 0 3.5 
" style="stroke: #000000; stroke-width: 0.8"/>
      </defs>
      <g>
       <use xlink:href="#mbd75e1a712" x="92.974375" y="331.120625" style="stroke: #000000; stroke-width: 0.8"/>
      </g>
     </g>
     <g id="text_1">
      <!-- 0 -->
      <g transform="translate(85.975625 354.837188)scale(0.22 -0.22)">
       <defs>
        <path id="DejaVuSans-30" d="M 2034 4250 
Q 1547 4250 1301 3770 
Q 1056 3291 1056 2328 
Q 1056 1369 1301 889 
Q 1547 409 2034 409 
Q 2525 409 2770 889 
Q 3016 1369 3016 2328 
Q 3016 3291 2770 3770 
Q 2525 4250 2034 4250 
z
M 2034 4750 
Q 2819 4750 3233 4129 
Q 3647 3509 3647 2328 
Q 3647 1150 3233 529 
Q 2819 -91 2034 -91 
Q 1250 -91 836 529 
Q 422 1150 422 2328 
Q 422 3509 836 4129 
Q 1250 4750 2034 4750 
z
" transform="scale(0.015625)"/>
       </defs>
       <use xlink:href="#DejaVuSans-30"/>
      </g>
     </g>
    </g>
    <g id="xtick_2">
     <g id="line2d_3">
      <path d="M 249.74825 331.120625 
L 249.74825 23.76 
" clip-path="url(#pd001223071)" style="fill: none; stroke: #b0b0b0; stroke-width: 0.8; stroke-linecap: square"/>
     </g>
     <g id="line2d_4">
      <g>
       <use xlink:href="#mbd75e1a712" x="249.74825" y="331.120625" style="stroke: #000000; stroke-width: 0.8"/>
      </g>
     </g>
     <g id="text_2">
      <!-- 20 -->
      <g transform="translate(235.75075 354.837188)scale(0.22 -0.22)">
       <defs>
        <path id="DejaVuSans-32" d="M 1228 531 
L 3431 531 
L 3431 0 
L 469 0 
L 469 531 
Q 828 903 1448 1529 
Q 2069 2156 2228 2338 
Q 2531 2678 2651 2914 
Q 2772 3150 2772 3378 
Q 2772 3750 2511 3984 
Q 2250 4219 1831 4219 
Q 1534 4219 1204 4116 
Q 875 4013 500 3803 
L 500 4441 
Q 881 4594 1212 4672 
Q 1544 4750 1819 4750 
Q 2544 4750 2975 4387 
Q 3406 4025 3406 3419 
Q 3406 3131 3298 2873 
Q 3191 2616 2906 2266 
Q 2828 2175 2409 1742 
Q 1991 1309 1228 531 
z
" transform="scale(0.015625)"/>
       </defs>
       <use xlink:href="#DejaVuSans-32"/>
       <use xlink:href="#DejaVuSans-30" x="63.623047"/>
      </g>
     </g>
    </g>
    <g id="xtick_3">
     <g id="line2d_5">
      <path d="M 406.522125 331.120625 
L 406.522125 23.76 
" clip-path="url(#pd001223071)" style="fill: none; stroke: #b0b0b0; stroke-width: 0.8; stroke-linecap: square"/>
     </g>
     <g id="line2d_6">
      <g>
       <use xlink:href="#mbd75e1a712" x="406.522125" y="331.120625" style="stroke: #000000; stroke-width: 0.8"/>
      </g>
     </g>
     <g id="text_3">
      <!-- 40 -->
      <g transform="translate(392.524625 354.837188)scale(0.22 -0.22)">
       <defs>
        <path id="DejaVuSans-34" d="M 2419 4116 
L 825 1625 
L 2419 1625 
L 2419 4116 
z
M 2253 4666 
L 3047 4666 
L 3047 1625 
L 3713 1625 
L 3713 1100 
L 3047 1100 
L 3047 0 
L 2419 0 
L 2419 1100 
L 313 1100 
L 313 1709 
L 2253 4666 
z
" transform="scale(0.015625)"/>
       </defs>
       <use xlink:href="#DejaVuSans-34"/>
       <use xlink:href="#DejaVuSans-30" x="63.623047"/>
      </g>
     </g>
    </g>
    <g id="xtick_4">
     <g id="line2d_7">
      <path d="M 563.296 331.120625 
L 563.296 23.76 
" clip-path="url(#pd001223071)" style="fill: none; stroke: #b0b0b0; stroke-width: 0.8; stroke-linecap: square"/>
     </g>
     <g id="line2d_8">
      <g>
       <use xlink:href="#mbd75e1a712" x="563.296" y="331.120625" style="stroke: #000000; stroke-width: 0.8"/>
      </g>
     </g>
     <g id="text_4">
      <!-- 60 -->
      <g transform="translate(549.2985 354.837188)scale(0.22 -0.22)">
       <defs>
        <path id="DejaVuSans-36" d="M 2113 2584 
Q 1688 2584 1439 2293 
Q 1191 2003 1191 1497 
Q 1191 994 1439 701 
Q 1688 409 2113 409 
Q 2538 409 2786 701 
Q 3034 994 3034 1497 
Q 3034 2003 2786 2293 
Q 2538 2584 2113 2584 
z
M 3366 4563 
L 3366 3988 
Q 3128 4100 2886 4159 
Q 2644 4219 2406 4219 
Q 1781 4219 1451 3797 
Q 1122 3375 1075 2522 
Q 1259 2794 1537 2939 
Q 1816 3084 2150 3084 
Q 2853 3084 3261 2657 
Q 3669 2231 3669 1497 
Q 3669 778 3244 343 
Q 2819 -91 2113 -91 
Q 1303 -91 875 529 
Q 447 1150 447 2328 
Q 447 3434 972 4092 
Q 1497 4750 2381 4750 
Q 2619 4750 2861 4703 
Q 3103 4656 3366 4563 
z
" transform="scale(0.015625)"/>
       </defs>
       <use xlink:href="#DejaVuSans-36"/>
       <use xlink:href="#DejaVuSans-30" x="63.623047"/>
      </g>
     </g>
    </g>
    <g id="xtick_5">
     <g id="line2d_9">
      <path d="M 720.069875 331.120625 
L 720.069875 23.76 
" clip-path="url(#pd001223071)" style="fill: none; stroke: #b0b0b0; stroke-width: 0.8; stroke-linecap: square"/>
     </g>
     <g id="line2d_10">
      <g>
       <use xlink:href="#mbd75e1a712" x="720.069875" y="331.120625" style="stroke: #000000; stroke-width: 0.8"/>
      </g>
     </g>
     <g id="text_5">
      <!-- 80 -->
      <g transform="translate(706.072375 354.837188)scale(0.22 -0.22)">
       <defs>
        <path id="DejaVuSans-38" d="M 2034 2216 
Q 1584 2216 1326 1975 
Q 1069 1734 1069 1313 
Q 1069 891 1326 650 
Q 1584 409 2034 409 
Q 2484 409 2743 651 
Q 3003 894 3003 1313 
Q 3003 1734 2745 1975 
Q 2488 2216 2034 2216 
z
M 1403 2484 
Q 997 2584 770 2862 
Q 544 3141 544 3541 
Q 544 4100 942 4425 
Q 1341 4750 2034 4750 
Q 2731 4750 3128 4425 
Q 3525 4100 3525 3541 
Q 3525 3141 3298 2862 
Q 3072 2584 2669 2484 
Q 3125 2378 3379 2068 
Q 3634 1759 3634 1313 
Q 3634 634 3220 271 
Q 2806 -91 2034 -91 
Q 1263 -91 848 271 
Q 434 634 434 1313 
Q 434 1759 690 2068 
Q 947 2378 1403 2484 
z
M 1172 3481 
Q 1172 3119 1398 2916 
Q 1625 2713 2034 2713 
Q 2441 2713 2670 2916 
Q 2900 3119 2900 3481 
Q 2900 3844 2670 4047 
Q 2441 4250 2034 4250 
Q 1625 4250 1398 4047 
Q 1172 3844 1172 3481 
z
" transform="scale(0.015625)"/>
       </defs>
       <use xlink:href="#DejaVuSans-38"/>
       <use xlink:href="#DejaVuSans-30" x="63.623047"/>
      </g>
     </g>
    </g>
    <g id="xtick_6">
     <g id="line2d_11">
      <path d="M 876.84375 331.120625 
L 876.84375 23.76 
" clip-path="url(#pd001223071)" style="fill: none; stroke: #b0b0b0; stroke-width: 0.8; stroke-linecap: square"/>
     </g>
     <g id="line2d_12">
      <g>
       <use xlink:href="#mbd75e1a712" x="876.84375" y="331.120625" style="stroke: #000000; stroke-width: 0.8"/>
      </g>
     </g>
     <g id="text_6">
      <!-- 100 -->
      <g transform="translate(855.8475 354.837188)scale(0.22 -0.22)">
       <defs>
        <path id="DejaVuSans-31" d="M 794 531 
L 1825 531 
L 1825 4091 
L 703 3866 
L 703 4441 
L 1819 4666 
L 2450 4666 
L 2450 531 
L 3481 531 
L 3481 0 
L 794 0 
L 794 531 
z
" transform="scale(0.015625)"/>
       </defs>
       <use xlink:href="#DejaVuSans-31"/>
       <use xlink:href="#DejaVuSans-30" x="63.623047"/>
       <use xlink:href="#DejaVuSans-30" x="127.246094"/>
      </g>
     </g>
    </g>
    <g id="text_7">
     <!-- RTT (ms) -->
     <g transform="translate(431.874687 381.64875)scale(0.24 -0.24)">
      <defs>
       <path id="DejaVuSans-52" d="M 2841 2188 
Q 3044 2119 3236 1894 
Q 3428 1669 3622 1275 
L 4263 0 
L 3584 0 
L 2988 1197 
Q 2756 1666 2539 1819 
Q 2322 1972 1947 1972 
L 1259 1972 
L 1259 0 
L 628 0 
L 628 4666 
L 2053 4666 
Q 2853 4666 3247 4331 
Q 3641 3997 3641 3322 
Q 3641 2881 3436 2590 
Q 3231 2300 2841 2188 
z
M 1259 4147 
L 1259 2491 
L 2053 2491 
Q 2509 2491 2742 2702 
Q 2975 2913 2975 3322 
Q 2975 3731 2742 3939 
Q 2509 4147 2053 4147 
L 1259 4147 
z
" transform="scale(0.015625)"/>
       <path id="DejaVuSans-54" d="M -19 4666 
L 3928 4666 
L 3928 4134 
L 2272 4134 
L 2272 0 
L 1638 0 
L 1638 4134 
L -19 4134 
L -19 4666 
z
" transform="scale(0.015625)"/>
       <path id="DejaVuSans-20" transform="scale(0.015625)"/>
       <path id="DejaVuSans-28" d="M 1984 4856 
Q 1566 4138 1362 3434 
Q 1159 2731 1159 2009 
Q 1159 1288 1364 580 
Q 1569 -128 1984 -844 
L 1484 -844 
Q 1016 -109 783 600 
Q 550 1309 550 2009 
Q 550 2706 781 3412 
Q 1013 4119 1484 4856 
L 1984 4856 
z
" transform="scale(0.015625)"/>
       <path id="DejaVuSans-6d" d="M 3328 2828 
Q 3544 3216 3844 3400 
Q 4144 3584 4550 3584 
Q 5097 3584 5394 3201 
Q 5691 2819 5691 2113 
L 5691 0 
L 5113 0 
L 5113 2094 
Q 5113 2597 4934 2840 
Q 4756 3084 4391 3084 
Q 3944 3084 3684 2787 
Q 3425 2491 3425 1978 
L 3425 0 
L 2847 0 
L 2847 2094 
Q 2847 2600 2669 2842 
Q 2491 3084 2119 3084 
Q 1678 3084 1418 2786 
Q 1159 2488 1159 1978 
L 1159 0 
L 581 0 
L 581 3500 
L 1159 3500 
L 1159 2956 
Q 1356 3278 1631 3431 
Q 1906 3584 2284 3584 
Q 2666 3584 2933 3390 
Q 3200 3197 3328 2828 
z
" transform="scale(0.015625)"/>
       <path id="DejaVuSans-73" d="M 2834 3397 
L 2834 2853 
Q 2591 2978 2328 3040 
Q 2066 3103 1784 3103 
Q 1356 3103 1142 2972 
Q 928 2841 928 2578 
Q 928 2378 1081 2264 
Q 1234 2150 1697 2047 
L 1894 2003 
Q 2506 1872 2764 1633 
Q 3022 1394 3022 966 
Q 3022 478 2636 193 
Q 2250 -91 1575 -91 
Q 1294 -91 989 -36 
Q 684 19 347 128 
L 347 722 
Q 666 556 975 473 
Q 1284 391 1588 391 
Q 1994 391 2212 530 
Q 2431 669 2431 922 
Q 2431 1156 2273 1281 
Q 2116 1406 1581 1522 
L 1381 1569 
Q 847 1681 609 1914 
Q 372 2147 372 2553 
Q 372 3047 722 3315 
Q 1072 3584 1716 3584 
Q 2034 3584 2315 3537 
Q 2597 3491 2834 3397 
z
" transform="scale(0.015625)"/>
       <path id="DejaVuSans-29" d="M 513 4856 
L 1013 4856 
Q 1481 4119 1714 3412 
Q 1947 2706 1947 2009 
Q 1947 1309 1714 600 
Q 1481 -109 1013 -844 
L 513 -844 
Q 928 -128 1133 580 
Q 1338 1288 1338 2009 
Q 1338 2731 1133 3434 
Q 928 4138 513 4856 
z
" transform="scale(0.015625)"/>
      </defs>
      <use xlink:href="#DejaVuSans-52"/>
      <use xlink:href="#DejaVuSans-54" x="62.232422"/>
      <use xlink:href="#DejaVuSans-54" x="121.566406"/>
      <use xlink:href="#DejaVuSans-20" x="182.650391"/>
      <use xlink:href="#DejaVuSans-28" x="214.4375"/>
      <use xlink:href="#DejaVuSans-6d" x="253.451172"/>
      <use xlink:href="#DejaVuSans-73" x="350.863281"/>
      <use xlink:href="#DejaVuSans-29" x="402.962891"/>
     </g>
    </g>
   </g>
   <g id="matplotlib.axis_2">
    <g id="ytick_1">
     <g id="line2d_13">
      <path d="M 92.974375 317.149688 
L 876.84375 317.149688 
" clip-path="url(#pd001223071)" style="fill: none; stroke: #b0b0b0; stroke-width: 0.8; stroke-linecap: square"/>
     </g>
     <g id="line2d_14">
      <defs>
       <path id="m286c965386" d="M 0 0 
L -3.5 0 
" style="stroke: #000000; stroke-width: 0.8"/>
      </defs>
      <g>
       <use xlink:href="#m286c965386" x="92.974375" y="317.149688" style="stroke: #000000; stroke-width: 0.8"/>
      </g>
     </g>
     <g id="text_8">
      <!-- 0.0 -->
      <g transform="translate(50.9875 325.507969)scale(0.22 -0.22)">
       <defs>
        <path id="DejaVuSans-2e" d="M 684 794 
L 1344 794 
L 1344 0 
L 684 0 
L 684 794 
z
" transform="scale(0.015625)"/>
       </defs>
       <use xlink:href="#DejaVuSans-30"/>
       <use xlink:href="#DejaVuSans-2e" x="63.623047"/>
       <use xlink:href="#DejaVuSans-30" x="95.410156"/>
      </g>
     </g>
    </g>
    <g id="ytick_2">
     <g id="line2d_15">
      <path d="M 92.974375 261.265938 
L 876.84375 261.265938 
" clip-path="url(#pd001223071)" style="fill: none; stroke: #b0b0b0; stroke-width: 0.8; stroke-linecap: square"/>
     </g>
     <g id="line2d_16">
      <g>
       <use xlink:href="#m286c965386" x="92.974375" y="261.265938" style="stroke: #000000; stroke-width: 0.8"/>
      </g>
     </g>
     <g id="text_9">
      <!-- 0.2 -->
      <g transform="translate(50.9875 269.624219)scale(0.22 -0.22)">
       <use xlink:href="#DejaVuSans-30"/>
       <use xlink:href="#DejaVuSans-2e" x="63.623047"/>
       <use xlink:href="#DejaVuSans-32" x="95.410156"/>
      </g>
     </g>
    </g>
    <g id="ytick_3">
     <g id="line2d_17">
      <path d="M 92.974375 205.382188 
L 876.84375 205.382188 
" clip-path="url(#pd001223071)" style="fill: none; stroke: #b0b0b0; stroke-width: 0.8; stroke-linecap: square"/>
     </g>
     <g id="line2d_18">
      <g>
       <use xlink:href="#m286c965386" x="92.974375" y="205.382188" style="stroke: #000000; stroke-width: 0.8"/>
      </g>
     </g>
     <g id="text_10">
      <!-- 0.4 -->
      <g transform="translate(50.9875 213.740469)scale(0.22 -0.22)">
       <use xlink:href="#DejaVuSans-30"/>
       <use xlink:href="#DejaVuSans-2e" x="63.623047"/>
       <use xlink:href="#DejaVuSans-34" x="95.410156"/>
      </g>
     </g>
    </g>
    <g id="ytick_4">
     <g id="line2d_19">
      <path d="M 92.974375 149.498438 
L 876.84375 149.498438 
" clip-path="url(#pd001223071)" style="fill: none; stroke: #b0b0b0; stroke-width: 0.8; stroke-linecap: square"/>
     </g>
     <g id="line2d_20">
      <g>
       <use xlink:href="#m286c965386" x="92.974375" y="149.498438" style="stroke: #000000; stroke-width: 0.8"/>
      </g>
     </g>
     <g id="text_11">
      <!-- 0.6 -->
      <g transform="translate(50.9875 157.856719)scale(0.22 -0.22)">
       <use xlink:href="#DejaVuSans-30"/>
       <use xlink:href="#DejaVuSans-2e" x="63.623047"/>
       <use xlink:href="#DejaVuSans-36" x="95.410156"/>
      </g>
     </g>
    </g>
    <g id="ytick_5">
     <g id="line2d_21">
      <path d="M 92.974375 93.614688 
L 876.84375 93.614688 
" clip-path="url(#pd001223071)" style="fill: none; stroke: #b0b0b0; stroke-width: 0.8; stroke-linecap: square"/>
     </g>
     <g id="line2d_22">
      <g>
       <use xlink:href="#m286c965386" x="92.974375" y="93.614688" style="stroke: #000000; stroke-width: 0.8"/>
      </g>
     </g>
     <g id="text_12">
      <!-- 0.8 -->
      <g transform="translate(50.9875 101.972969)scale(0.22 -0.22)">
       <use xlink:href="#DejaVuSans-30"/>
       <use xlink:href="#DejaVuSans-2e" x="63.623047"/>
       <use xlink:href="#DejaVuSans-38" x="95.410156"/>
      </g>
     </g>
    </g>
    <g id="ytick_6">
     <g id="line2d_23">
      <path d="M 92.974375 37.730937 
L 876.84375 37.730937 
" clip-path="url(#pd001223071)" style="fill: none; stroke: #b0b0b0; stroke-width: 0.8; stroke-linecap: square"/>
     </g>
     <g id="line2d_24">
      <g>
       <use xlink:href="#m286c965386" x="92.974375" y="37.730937" style="stroke: #000000; stroke-width: 0.8"/>
      </g>
     </g>
     <g id="text_13">
      <!-- 1.0 -->
      <g transform="translate(50.9875 46.089219)scale(0.22 -0.22)">
       <use xlink:href="#DejaVuSans-31"/>
       <use xlink:href="#DejaVuSans-2e" x="63.623047"/>
       <use xlink:href="#DejaVuSans-30" x="95.410156"/>
      </g>
     </g>
    </g>
    <g id="text_14">
     <!-- Likelihood of occurrence -->
     <g transform="translate(41.99625 323.628438)rotate(-90)scale(0.24 -0.24)">
      <defs>
       <path id="DejaVuSans-4c" d="M 628 4666 
L 1259 4666 
L 1259 531 
L 3531 531 
L 3531 0 
L 628 0 
L 628 4666 
z
" transform="scale(0.015625)"/>
       <path id="DejaVuSans-69" d="M 603 3500 
L 1178 3500 
L 1178 0 
L 603 0 
L 603 3500 
z
M 603 4863 
L 1178 4863 
L 1178 4134 
L 603 4134 
L 603 4863 
z
" transform="scale(0.015625)"/>
       <path id="DejaVuSans-6b" d="M 581 4863 
L 1159 4863 
L 1159 1991 
L 2875 3500 
L 3609 3500 
L 1753 1863 
L 3688 0 
L 2938 0 
L 1159 1709 
L 1159 0 
L 581 0 
L 581 4863 
z
" transform="scale(0.015625)"/>
       <path id="DejaVuSans-65" d="M 3597 1894 
L 3597 1613 
L 953 1613 
Q 991 1019 1311 708 
Q 1631 397 2203 397 
Q 2534 397 2845 478 
Q 3156 559 3463 722 
L 3463 178 
Q 3153 47 2828 -22 
Q 2503 -91 2169 -91 
Q 1331 -91 842 396 
Q 353 884 353 1716 
Q 353 2575 817 3079 
Q 1281 3584 2069 3584 
Q 2775 3584 3186 3129 
Q 3597 2675 3597 1894 
z
M 3022 2063 
Q 3016 2534 2758 2815 
Q 2500 3097 2075 3097 
Q 1594 3097 1305 2825 
Q 1016 2553 972 2059 
L 3022 2063 
z
" transform="scale(0.015625)"/>
       <path id="DejaVuSans-6c" d="M 603 4863 
L 1178 4863 
L 1178 0 
L 603 0 
L 603 4863 
z
" transform="scale(0.015625)"/>
       <path id="DejaVuSans-68" d="M 3513 2113 
L 3513 0 
L 2938 0 
L 2938 2094 
Q 2938 2591 2744 2837 
Q 2550 3084 2163 3084 
Q 1697 3084 1428 2787 
Q 1159 2491 1159 1978 
L 1159 0 
L 581 0 
L 581 4863 
L 1159 4863 
L 1159 2956 
Q 1366 3272 1645 3428 
Q 1925 3584 2291 3584 
Q 2894 3584 3203 3211 
Q 3513 2838 3513 2113 
z
" transform="scale(0.015625)"/>
       <path id="DejaVuSans-6f" d="M 1959 3097 
Q 1497 3097 1228 2736 
Q 959 2375 959 1747 
Q 959 1119 1226 758 
Q 1494 397 1959 397 
Q 2419 397 2687 759 
Q 2956 1122 2956 1747 
Q 2956 2369 2687 2733 
Q 2419 3097 1959 3097 
z
M 1959 3584 
Q 2709 3584 3137 3096 
Q 3566 2609 3566 1747 
Q 3566 888 3137 398 
Q 2709 -91 1959 -91 
Q 1206 -91 779 398 
Q 353 888 353 1747 
Q 353 2609 779 3096 
Q 1206 3584 1959 3584 
z
" transform="scale(0.015625)"/>
       <path id="DejaVuSans-64" d="M 2906 2969 
L 2906 4863 
L 3481 4863 
L 3481 0 
L 2906 0 
L 2906 525 
Q 2725 213 2448 61 
Q 2172 -91 1784 -91 
Q 1150 -91 751 415 
Q 353 922 353 1747 
Q 353 2572 751 3078 
Q 1150 3584 1784 3584 
Q 2172 3584 2448 3432 
Q 2725 3281 2906 2969 
z
M 947 1747 
Q 947 1113 1208 752 
Q 1469 391 1925 391 
Q 2381 391 2643 752 
Q 2906 1113 2906 1747 
Q 2906 2381 2643 2742 
Q 2381 3103 1925 3103 
Q 1469 3103 1208 2742 
Q 947 2381 947 1747 
z
" transform="scale(0.015625)"/>
       <path id="DejaVuSans-66" d="M 2375 4863 
L 2375 4384 
L 1825 4384 
Q 1516 4384 1395 4259 
Q 1275 4134 1275 3809 
L 1275 3500 
L 2222 3500 
L 2222 3053 
L 1275 3053 
L 1275 0 
L 697 0 
L 697 3053 
L 147 3053 
L 147 3500 
L 697 3500 
L 697 3744 
Q 697 4328 969 4595 
Q 1241 4863 1831 4863 
L 2375 4863 
z
" transform="scale(0.015625)"/>
       <path id="DejaVuSans-63" d="M 3122 3366 
L 3122 2828 
Q 2878 2963 2633 3030 
Q 2388 3097 2138 3097 
Q 1578 3097 1268 2742 
Q 959 2388 959 1747 
Q 959 1106 1268 751 
Q 1578 397 2138 397 
Q 2388 397 2633 464 
Q 2878 531 3122 666 
L 3122 134 
Q 2881 22 2623 -34 
Q 2366 -91 2075 -91 
Q 1284 -91 818 406 
Q 353 903 353 1747 
Q 353 2603 823 3093 
Q 1294 3584 2113 3584 
Q 2378 3584 2631 3529 
Q 2884 3475 3122 3366 
z
" transform="scale(0.015625)"/>
       <path id="DejaVuSans-75" d="M 544 1381 
L 544 3500 
L 1119 3500 
L 1119 1403 
Q 1119 906 1312 657 
Q 1506 409 1894 409 
Q 2359 409 2629 706 
Q 2900 1003 2900 1516 
L 2900 3500 
L 3475 3500 
L 3475 0 
L 2900 0 
L 2900 538 
Q 2691 219 2414 64 
Q 2138 -91 1772 -91 
Q 1169 -91 856 284 
Q 544 659 544 1381 
z
M 1991 3584 
L 1991 3584 
z
" transform="scale(0.015625)"/>
       <path id="DejaVuSans-72" d="M 2631 2963 
Q 2534 3019 2420 3045 
Q 2306 3072 2169 3072 
Q 1681 3072 1420 2755 
Q 1159 2438 1159 1844 
L 1159 0 
L 581 0 
L 581 3500 
L 1159 3500 
L 1159 2956 
Q 1341 3275 1631 3429 
Q 1922 3584 2338 3584 
Q 2397 3584 2469 3576 
Q 2541 3569 2628 3553 
L 2631 2963 
z
" transform="scale(0.015625)"/>
       <path id="DejaVuSans-6e" d="M 3513 2113 
L 3513 0 
L 2938 0 
L 2938 2094 
Q 2938 2591 2744 2837 
Q 2550 3084 2163 3084 
Q 1697 3084 1428 2787 
Q 1159 2491 1159 1978 
L 1159 0 
L 581 0 
L 581 3500 
L 1159 3500 
L 1159 2956 
Q 1366 3272 1645 3428 
Q 1925 3584 2291 3584 
Q 2894 3584 3203 3211 
Q 3513 2838 3513 2113 
z
" transform="scale(0.015625)"/>
      </defs>
      <use xlink:href="#DejaVuSans-4c"/>
      <use xlink:href="#DejaVuSans-69" x="55.712891"/>
      <use xlink:href="#DejaVuSans-6b" x="83.496094"/>
      <use xlink:href="#DejaVuSans-65" x="137.78125"/>
      <use xlink:href="#DejaVuSans-6c" x="199.304688"/>
      <use xlink:href="#DejaVuSans-69" x="227.087891"/>
      <use xlink:href="#DejaVuSans-68" x="254.871094"/>
      <use xlink:href="#DejaVuSans-6f" x="318.25"/>
      <use xlink:href="#DejaVuSans-6f" x="379.431641"/>
      <use xlink:href="#DejaVuSans-64" x="440.613281"/>
      <use xlink:href="#DejaVuSans-20" x="504.089844"/>
      <use xlink:href="#DejaVuSans-6f" x="535.876953"/>
      <use xlink:href="#DejaVuSans-66" x="597.058594"/>
      <use xlink:href="#DejaVuSans-20" x="632.263672"/>
      <use xlink:href="#DejaVuSans-6f" x="664.050781"/>
      <use xlink:href="#DejaVuSans-63" x="725.232422"/>
      <use xlink:href="#DejaVuSans-63" x="780.212891"/>
      <use xlink:href="#DejaVuSans-75" x="835.193359"/>
      <use xlink:href="#DejaVuSans-72" x="898.572266"/>
      <use xlink:href="#DejaVuSans-72" x="937.935547"/>
      <use xlink:href="#DejaVuSans-65" x="976.798828"/>
      <use xlink:href="#DejaVuSans-6e" x="1038.322266"/>
      <use xlink:href="#DejaVuSans-63" x="1101.701172"/>
      <use xlink:href="#DejaVuSans-65" x="1156.681641"/>
     </g>
    </g>
   </g>
   <g id="line2d_25">
    <path d="M 92.974375 317.149688 
L 138.628828 317.074128 
L 138.825191 316.998569 
L 139.512462 316.923009 
L 139.708825 316.84745 
L 141.574276 316.77189 
L 141.770639 316.696331 
L 142.065184 316.620772 
L 142.261548 316.545212 
L 142.752456 316.469653 
L 142.948819 316.394093 
L 145.403359 316.318534 
L 145.697904 316.167415 
L 148.545171 316.091856 
L 148.741534 316.016296 
L 149.134261 315.940737 
L 149.330624 315.865177 
L 154.53425 315.789618 
L 154.730613 315.714058 
L 173.581484 315.638499 
L 173.777847 315.56294 
L 174.366937 315.56294 
L 174.5633 315.411821 
L 175.15239 315.411821 
L 175.348753 315.260702 
L 175.937843 315.260702 
L 176.134206 315.034024 
L 176.723296 315.034024 
L 176.919659 314.731786 
L 177.508749 314.731786 
L 177.705112 314.278429 
L 178.294202 314.278429 
L 178.490565 313.749513 
L 179.079655 313.749513 
L 179.276018 313.220597 
L 179.865108 313.220597 
L 180.061471 312.162766 
L 180.65056 312.162766 
L 180.846924 310.727136 
L 181.436013 310.727136 
L 181.632377 309.442626 
L 182.221466 309.442626 
L 182.41783 308.91371 
L 183.006919 308.91371 
L 183.203283 307.704759 
L 183.792372 307.704759 
L 183.988736 306.646928 
L 184.577825 306.646928 
L 184.774188 304.757942 
L 185.363278 304.757942 
L 185.559641 303.926788 
L 186.148731 303.926788 
L 186.345094 302.188922 
L 186.934184 302.188922 
L 187.130547 300.979971 
L 187.719637 300.979971 
L 187.916 299.922139 
L 188.50509 299.922139 
L 188.701453 297.730916 
L 189.290543 297.730916 
L 189.486906 296.295286 
L 190.075996 296.295286 
L 190.272359 295.539692 
L 190.861449 295.539692 
L 191.057812 294.179623 
L 191.646902 294.179623 
L 191.843265 293.726266 
L 192.432355 293.726266 
L 192.628718 292.819553 
L 193.217808 292.819553 
L 193.414171 291.308364 
L 194.003261 291.308364 
L 194.199624 289.948295 
L 194.788714 289.948295 
L 194.985077 288.437106 
L 195.574167 288.437106 
L 195.77053 286.925918 
L 196.359619 286.925918 
L 196.555983 284.885813 
L 197.145072 284.885813 
L 197.341436 283.752422 
L 197.930525 283.752422 
L 198.126889 282.845709 
L 198.715978 282.845709 
L 198.912342 281.485639 
L 199.501431 281.485639 
L 199.697795 280.201129 
L 200.286884 280.201129 
L 200.483247 278.916619 
L 201.072337 278.916619 
L 201.2687 278.312144 
L 201.85779 278.312144 
L 202.054153 277.48099 
L 202.643243 277.48099 
L 202.839606 277.027633 
L 203.428696 277.027633 
L 203.625059 276.045361 
L 204.214149 276.045361 
L 204.410512 274.307494 
L 204.999602 274.307494 
L 205.195965 273.325222 
L 205.785055 273.325222 
L 205.981418 272.947424 
L 206.570508 272.947424 
L 206.766871 272.116271 
L 207.355961 272.116271 
L 207.552324 271.436236 
L 208.141414 271.436236 
L 208.337777 269.773929 
L 208.926867 269.773929 
L 209.12323 267.884943 
L 209.71232 267.884943 
L 209.908683 266.827111 
L 210.497773 266.827111 
L 210.694136 265.769279 
L 211.283226 265.769279 
L 211.479589 264.33365 
L 212.068678 264.33365 
L 212.265042 262.898021 
L 212.854131 262.898021 
L 213.050495 261.68907 
L 213.639584 261.68907 
L 213.835948 260.706798 
L 214.425037 260.706798 
L 214.621401 260.253441 
L 215.21049 260.253441 
L 215.406854 258.968931 
L 215.995943 258.968931 
L 216.192306 257.382183 
L 216.781396 257.382183 
L 216.977759 255.870995 
L 217.566849 255.870995 
L 217.763212 254.510925 
L 218.352302 254.510925 
L 218.548665 253.604212 
L 219.137755 253.604212 
L 219.334118 252.168583 
L 219.923208 252.168583 
L 220.119571 250.506276 
L 220.708661 250.506276 
L 220.905024 248.843968 
L 221.395932 248.843968 
L 221.592295 247.635017 
L 222.181385 247.635017 
L 222.377748 246.652745 
L 222.966838 246.652745 
L 223.163201 245.065997 
L 223.752291 245.065997 
L 223.948654 243.32813 
L 224.537744 243.32813 
L 224.734107 241.968061 
L 225.323197 241.968061 
L 225.51956 240.003516 
L 226.10865 240.003516 
L 226.305013 238.416768 
L 226.894103 238.416768 
L 227.090466 236.981139 
L 227.679556 236.981139 
L 227.875919 234.714356 
L 228.465009 234.714356 
L 228.661372 232.447573 
L 229.250462 232.447573 
L 229.446825 230.709706 
L 230.035915 230.709706 
L 230.232278 229.727434 
L 230.821368 229.727434 
L 231.017731 228.97184 
L 231.606821 228.97184 
L 231.803184 226.856176 
L 232.392274 226.856176 
L 232.588637 225.118309 
L 233.177726 225.118309 
L 233.37409 224.211596 
L 233.963179 224.211596 
L 234.159543 223.229323 
L 234.748632 223.229323 
L 234.944996 222.171492 
L 235.534085 222.171492 
L 235.730449 219.904709 
L 236.319538 219.904709 
L 236.515902 219.073555 
L 237.104991 219.073555 
L 237.301354 217.486807 
L 237.890444 217.486807 
L 238.086807 216.428975 
L 238.675897 216.428975 
L 238.87226 215.220025 
L 239.46135 215.220025 
L 239.657713 213.482158 
L 240.246803 213.482158 
L 240.443166 211.744291 
L 241.032256 211.744291 
L 241.228619 210.762018 
L 241.817709 210.762018 
L 242.014072 209.628627 
L 242.603162 209.628627 
L 242.799525 208.797473 
L 243.388615 208.797473 
L 243.584978 206.908488 
L 244.174068 206.908488 
L 244.370431 205.095062 
L 244.959521 205.095062 
L 245.155884 203.810551 
L 245.744974 203.810551 
L 245.941337 203.206076 
L 246.530427 203.206076 
L 246.72679 202.072685 
L 247.31588 202.072685 
L 247.512243 200.334818 
L 248.101333 200.334818 
L 248.297696 198.974748 
L 248.886785 198.974748 
L 249.083149 197.690238 
L 249.672238 197.690238 
L 249.868602 196.254609 
L 250.457691 196.254609 
L 250.654055 195.045658 
L 251.243144 195.045658 
L 251.439508 192.854435 
L 252.028597 192.854435 
L 252.224961 191.494365 
L 252.81405 191.494365 
L 253.010413 190.209855 
L 253.599503 190.209855 
L 253.795866 189.303142 
L 254.384956 189.303142 
L 254.581319 187.489716 
L 255.170409 187.489716 
L 255.366772 186.205206 
L 255.955862 186.205206 
L 256.152225 184.467339 
L 256.741315 184.467339 
L 256.937678 183.409507 
L 257.526768 183.409507 
L 257.723131 182.049437 
L 258.312221 182.049437 
L 258.508584 180.236011 
L 259.097674 180.236011 
L 259.294037 178.271466 
L 259.883127 178.271466 
L 260.07949 176.835837 
L 260.66858 176.835837 
L 260.864943 174.795733 
L 261.454033 174.795733 
L 261.650396 173.284544 
L 262.239486 173.284544 
L 262.435849 172.075593 
L 263.024939 172.075593 
L 263.221302 169.355454 
L 263.810392 169.355454 
L 264.006755 167.768706 
L 264.595844 167.768706 
L 264.792208 166.408637 
L 265.381297 166.408637 
L 265.577661 165.577483 
L 266.16675 165.577483 
L 266.363114 164.519651 
L 266.952203 164.519651 
L 267.148567 162.328428 
L 267.737656 162.328428 
L 267.934019 160.515002 
L 268.523109 160.515002 
L 268.719472 159.834967 
L 269.308562 159.834967 
L 269.504925 158.626016 
L 270.094015 158.626016 
L 270.290378 157.643743 
L 270.879468 157.643743 
L 271.075831 156.434793 
L 271.664921 156.434793 
L 271.861284 154.394688 
L 272.352192 154.394688 
L 272.548556 153.639094 
L 273.137645 153.639094 
L 273.334009 152.959059 
L 273.923098 152.959059 
L 274.119461 151.52343 
L 274.708551 151.52343 
L 274.904914 149.785563 
L 275.494004 149.785563 
L 275.690367 148.198815 
L 276.279457 148.198815 
L 276.47582 147.443221 
L 277.06491 147.443221 
L 277.261273 146.385389 
L 277.850363 146.385389 
L 278.046726 145.327557 
L 278.635816 145.327557 
L 278.832179 143.66525 
L 279.421269 143.66525 
L 279.617632 142.607418 
L 280.206722 142.607418 
L 280.403085 141.474027 
L 280.992175 141.474027 
L 281.188538 140.113957 
L 281.777628 140.113957 
L 281.973991 138.829447 
L 282.563081 138.829447 
L 282.759444 136.411545 
L 283.348534 136.411545 
L 283.544897 134.749238 
L 284.133987 134.749238 
L 284.33035 133.464728 
L 284.91944 133.464728 
L 285.115803 132.104658 
L 285.704892 132.104658 
L 285.901256 130.971267 
L 286.490345 130.971267 
L 286.686709 129.082281 
L 287.275798 129.082281 
L 287.472162 127.268855 
L 288.061251 127.268855 
L 288.257615 126.059904 
L 288.846704 126.059904 
L 289.043068 124.926513 
L 289.632157 124.926513 
L 289.82852 123.264205 
L 290.41761 123.264205 
L 290.613973 121.224101 
L 291.203063 121.224101 
L 291.399426 119.561794 
L 291.988516 119.561794 
L 292.184879 118.503962 
L 292.773969 118.503962 
L 292.970332 117.219452 
L 293.559422 117.219452 
L 293.755785 116.388298 
L 294.344875 116.388298 
L 294.541238 114.650431 
L 295.130328 114.650431 
L 295.326691 112.23253 
L 295.915781 112.23253 
L 296.112144 111.325816 
L 296.701234 111.325816 
L 296.897597 110.645782 
L 297.486687 110.645782 
L 297.68305 109.436831 
L 298.27214 109.436831 
L 298.468503 107.850083 
L 299.057593 107.850083 
L 299.253956 106.187776 
L 299.843046 106.187776 
L 300.039409 105.054384 
L 300.628499 105.054384 
L 300.824862 104.601028 
L 301.413951 104.601028 
L 301.610315 103.996552 
L 302.199404 103.996552 
L 302.395768 101.805329 
L 302.984857 101.805329 
L 303.181221 100.218581 
L 303.77031 100.218581 
L 303.966674 99.387427 
L 304.555763 99.387427 
L 304.752127 98.556274 
L 305.341216 98.556274 
L 305.537579 97.574001 
L 306.126669 97.574001 
L 306.323032 95.760575 
L 306.912122 95.760575 
L 307.108485 94.173827 
L 307.697575 94.173827 
L 307.893938 92.813758 
L 308.483028 92.813758 
L 308.679391 92.133723 
L 309.268481 92.133723 
L 309.464844 90.320297 
L 310.053934 90.320297 
L 310.250297 88.431311 
L 310.839387 88.431311 
L 311.03575 87.22236 
L 311.62484 87.22236 
L 311.821203 86.466766 
L 312.410293 86.466766 
L 312.606656 84.57778 
L 313.195746 84.57778 
L 313.392109 83.217711 
L 313.981199 83.217711 
L 314.177562 81.253166 
L 314.766652 81.253166 
L 314.963015 79.590858 
L 315.552105 79.590858 
L 315.748468 78.07967 
L 316.337558 78.07967 
L 316.533921 76.870719 
L 317.12301 76.870719 
L 317.319374 75.586209 
L 317.908463 75.586209 
L 318.104827 73.697223 
L 318.693916 73.697223 
L 318.89028 71.732678 
L 319.479369 71.732678 
L 319.675733 70.901525 
L 320.264822 70.901525 
L 320.461185 69.465896 
L 321.050275 69.465896 
L 321.246638 68.030267 
L 321.835728 68.030267 
L 322.032091 66.443519 
L 322.621181 66.443519 
L 322.817544 64.630092 
L 323.308452 64.630092 
L 323.504816 63.572261 
L 324.093905 63.572261 
L 324.290269 62.28775 
L 324.879358 62.28775 
L 325.075722 60.852121 
L 325.664811 60.852121 
L 325.861175 59.189814 
L 326.450264 59.189814 
L 326.646627 57.603066 
L 327.235717 57.603066 
L 327.43208 56.545234 
L 328.02117 56.545234 
L 328.217533 55.865199 
L 328.806623 55.865199 
L 329.002986 54.580689 
L 329.592076 54.580689 
L 329.788439 52.616144 
L 330.377529 52.616144 
L 330.573892 51.331634 
L 331.162982 51.331634 
L 331.359345 50.50048 
L 331.948435 50.50048 
L 332.144798 50.047124 
L 332.733888 50.047124 
L 332.930251 49.593767 
L 333.519341 49.593767 
L 333.715704 48.762613 
L 334.304794 48.762613 
L 334.501157 47.629222 
L 335.090247 47.629222 
L 335.28661 47.100306 
L 335.8757 47.100306 
L 336.072063 46.798068 
L 336.661153 46.798068 
L 336.857516 46.344712 
L 337.446606 46.344712 
L 337.642969 46.118034 
L 338.232058 46.118034 
L 338.428422 45.740236 
L 339.017511 45.740236 
L 339.213875 45.513558 
L 339.802964 45.513558 
L 339.999328 44.984642 
L 341.37387 44.909083 
L 341.570234 44.455726 
L 342.159323 44.455726 
L 342.355686 44.00237 
L 343.730229 44.00237 
L 343.926592 43.851251 
L 345.301135 43.775691 
L 345.497498 43.549013 
L 346.086588 43.549013 
L 346.282951 43.397894 
L 349.2284 43.322335 
L 349.424763 43.171216 
L 350.013853 43.171216 
L 350.210216 42.944538 
L 350.799306 42.944538 
L 350.995669 42.793419 
L 352.370212 42.717859 
L 352.566575 42.566741 
L 353.155665 42.566741 
L 353.352028 42.188944 
L 353.941117 42.188944 
L 354.137481 41.962265 
L 354.72657 41.962265 
L 354.922934 41.811146 
L 356.297476 41.811146 
L 356.49384 41.508909 
L 357.082929 41.508909 
L 357.279293 41.131112 
L 359.439288 41.131112 
L 359.635651 40.979993 
L 360.224741 40.979993 
L 360.421104 40.828874 
L 361.010194 40.828874 
L 361.206557 40.677755 
L 361.795647 40.677755 
L 361.99201 40.375517 
L 362.5811 40.375517 
L 362.777463 40.148839 
L 363.366553 40.148839 
L 363.562916 39.99772 
L 364.937459 39.922161 
L 365.133822 39.695483 
L 367.293818 39.619923 
L 367.490181 39.544364 
L 368.079271 39.544364 
L 368.275634 39.317685 
L 369.650176 39.242126 
L 369.84654 39.166567 
L 372.006535 39.091007 
L 372.202899 39.015448 
L 372.791988 39.015448 
L 372.988351 38.71321 
L 373.577441 38.71321 
L 373.773804 38.486532 
L 375.050165 38.486532 
L 375.246529 38.259853 
L 409.610095 38.184294 
L 409.806459 38.108735 
L 478.533592 38.033175 
L 478.729955 37.957616 
L 593.798812 37.882056 
L 593.995175 37.806497 
L 876.856419 37.806497 
L 876.856419 37.806497 
" clip-path="url(#pd001223071)" style="fill: none; stroke: #1f77b4; stroke-width: 2; stroke-linecap: square"/>
   </g>
   <g id="line2d_26">
    <path d="M 92.974375 317.149688 
L 138.825191 317.072372 
L 139.021554 316.995056 
L 140.494278 316.917741 
L 140.690642 316.840425 
L 141.672458 316.763109 
L 141.967003 316.608478 
L 147.072447 316.531162 
L 147.26881 316.453847 
L 148.054263 316.376531 
L 148.250626 316.299215 
L 151.49062 316.2219 
L 151.785165 316.067268 
L 155.12334 315.989953 
L 155.319703 315.912637 
L 158.363333 315.835321 
L 158.559696 315.758006 
L 168.181495 315.68069 
L 168.377858 315.603375 
L 174.366937 315.526059 
L 174.5633 315.294112 
L 175.937843 315.216796 
L 176.134206 315.139481 
L 176.723296 315.139481 
L 176.919659 314.907534 
L 177.508749 314.907534 
L 177.705112 314.366324 
L 178.294202 314.366324 
L 178.490565 314.057062 
L 179.079655 314.057062 
L 179.276018 313.670483 
L 179.865108 313.670483 
L 180.061471 313.051958 
L 180.65056 313.051958 
L 180.846924 312.510749 
L 181.436013 312.510749 
L 181.632377 312.12417 
L 182.221466 312.12417 
L 182.41783 311.196383 
L 183.006919 311.196383 
L 183.203283 309.418123 
L 183.792372 309.418123 
L 183.988736 308.258388 
L 184.577825 308.258388 
L 184.774188 307.794494 
L 185.363278 307.794494 
L 185.559641 307.098653 
L 186.148731 307.098653 
L 186.345094 305.706972 
L 186.934184 305.706972 
L 187.130547 304.083343 
L 187.719637 304.083343 
L 187.916 303.07824 
L 188.50509 303.07824 
L 188.701453 302.691661 
L 189.290543 302.691661 
L 189.486906 301.841189 
L 190.075996 301.841189 
L 190.272359 300.449508 
L 190.861449 300.449508 
L 191.057812 299.135142 
L 191.646902 299.135142 
L 191.843265 297.588829 
L 192.432355 297.588829 
L 192.628718 296.429094 
L 193.217808 296.429094 
L 193.414171 295.733253 
L 194.003261 295.733253 
L 194.199624 294.496203 
L 194.788714 294.496203 
L 194.985077 293.027205 
L 195.574167 293.027205 
L 195.77053 291.944786 
L 196.359619 291.944786 
L 196.555983 290.785052 
L 197.145072 290.785052 
L 197.341436 290.089211 
L 197.930525 290.089211 
L 198.126889 288.233635 
L 198.715978 288.233635 
L 198.912342 286.455375 
L 199.501431 286.455375 
L 199.697795 284.5998 
L 200.286884 284.5998 
L 200.483247 283.672012 
L 201.072337 283.672012 
L 201.2687 283.208118 
L 201.85779 283.208118 
L 202.054153 281.816437 
L 202.643243 281.816437 
L 202.839606 280.424755 
L 203.428696 280.424755 
L 203.625059 279.187705 
L 204.214149 279.187705 
L 204.410512 278.02797 
L 204.999602 278.02797 
L 205.195965 277.177498 
L 205.785055 277.177498 
L 205.981418 275.785816 
L 206.570508 275.785816 
L 206.766871 274.316819 
L 207.355961 274.316819 
L 207.552324 272.770506 
L 208.141414 272.770506 
L 208.337777 271.997349 
L 208.926867 271.997349 
L 209.12323 271.301509 
L 209.71232 271.301509 
L 209.908683 270.141774 
L 210.497773 270.141774 
L 210.694136 268.750092 
L 211.283226 268.750092 
L 211.479589 267.667673 
L 212.068678 267.667673 
L 212.265042 266.585254 
L 212.854131 266.585254 
L 213.050495 266.198676 
L 213.639584 266.198676 
L 213.835948 264.806994 
L 214.425037 264.806994 
L 214.621401 264.033838 
L 215.21049 264.033838 
L 215.406854 262.951419 
L 215.995943 262.951419 
L 216.192306 262.410209 
L 216.781396 262.410209 
L 216.977759 260.941212 
L 217.566849 260.941212 
L 217.763212 259.858793 
L 218.352302 259.858793 
L 218.548665 258.235164 
L 219.137755 258.235164 
L 219.334118 256.766167 
L 219.923208 256.766167 
L 220.119571 255.374485 
L 220.708661 255.374485 
L 220.905024 254.678644 
L 221.395932 254.678644 
L 221.592295 252.900384 
L 222.181385 252.900384 
L 222.377748 250.039705 
L 222.966838 250.039705 
L 223.163201 248.957286 
L 223.752291 248.957286 
L 223.948654 247.720236 
L 224.537744 247.720236 
L 224.734107 246.869764 
L 225.323197 246.869764 
L 225.51956 245.400767 
L 226.10865 245.400767 
L 226.305013 243.699822 
L 226.894103 243.699822 
L 227.090466 241.6123 
L 227.679556 241.6123 
L 227.875919 240.761828 
L 228.465009 240.761828 
L 228.661372 239.83404 
L 229.250462 239.83404 
L 229.446825 237.978464 
L 230.035915 237.978464 
L 230.232278 236.122889 
L 230.821368 236.122889 
L 231.017731 234.885839 
L 231.606821 234.885839 
L 231.803184 234.421945 
L 232.392274 234.421945 
L 232.588637 233.571473 
L 233.177726 233.571473 
L 233.37409 231.715897 
L 233.963179 231.715897 
L 234.159543 229.628375 
L 234.748632 229.628375 
L 234.944996 227.618168 
L 235.534085 227.618168 
L 235.730449 226.922327 
L 236.319538 226.922327 
L 236.515902 225.762592 
L 237.104991 225.762592 
L 237.301354 223.907017 
L 237.890444 223.907017 
L 238.086807 222.283388 
L 238.675897 222.283388 
L 238.87226 220.969022 
L 239.46135 220.969022 
L 239.657713 220.11855 
L 240.246803 220.11855 
L 240.443166 219.268078 
L 241.032256 219.268078 
L 241.228619 217.489818 
L 241.817709 217.489818 
L 242.014072 216.020821 
L 242.603162 216.020821 
L 242.799525 213.778667 
L 243.388615 213.778667 
L 243.584978 212.696248 
L 244.174068 212.696248 
L 244.370431 211.691144 
L 244.959521 211.691144 
L 245.155884 210.686041 
L 245.744974 210.686041 
L 245.941337 208.830465 
L 246.530427 208.830465 
L 246.72679 207.438784 
L 247.31588 207.438784 
L 247.512243 206.279049 
L 248.101333 206.279049 
L 248.297696 205.583208 
L 248.886785 205.583208 
L 249.083149 203.804948 
L 249.672238 203.804948 
L 249.868602 202.258635 
L 250.457691 202.258635 
L 250.654055 200.480375 
L 251.243144 200.480375 
L 251.439508 199.243325 
L 252.028597 199.243325 
L 252.224961 198.392853 
L 252.81405 198.392853 
L 253.010413 196.769224 
L 253.599503 196.769224 
L 253.795866 194.990964 
L 254.384956 194.990964 
L 254.581319 193.444652 
L 255.170409 193.444652 
L 255.366772 192.207601 
L 255.955862 192.207601 
L 256.152225 191.279813 
L 256.741315 191.279813 
L 256.937678 189.501554 
L 257.526768 189.501554 
L 257.723131 187.723294 
L 258.312221 187.723294 
L 258.508584 186.408928 
L 259.097674 186.408928 
L 259.294037 185.790402 
L 259.883127 185.790402 
L 260.07949 184.862615 
L 260.66858 184.862615 
L 260.864943 183.16167 
L 261.454033 183.16167 
L 261.650396 181.151464 
L 262.239486 181.151464 
L 262.435849 179.450519 
L 263.024939 179.450519 
L 263.221302 178.522732 
L 263.810392 178.522732 
L 264.006755 178.213469 
L 264.595844 178.213469 
L 264.792208 176.512525 
L 265.381297 176.512525 
L 265.577661 174.888896 
L 266.16675 174.888896 
L 266.363114 172.492111 
L 266.952203 172.492111 
L 267.148567 171.564323 
L 267.737656 171.564323 
L 267.934019 170.868482 
L 268.523109 170.868482 
L 268.719472 169.476801 
L 269.308562 169.476801 
L 269.504925 167.389278 
L 270.094015 167.389278 
L 270.290378 165.533703 
L 270.879468 165.533703 
L 271.075831 164.760546 
L 271.664921 164.760546 
L 271.861284 163.832759 
L 272.352192 163.832759 
L 272.548556 162.750339 
L 273.137645 162.750339 
L 273.334009 160.585501 
L 273.923098 160.585501 
L 274.119461 159.503082 
L 274.708551 159.503082 
L 274.904914 158.266032 
L 275.494004 158.266032 
L 275.690367 157.647507 
L 276.279457 157.647507 
L 276.47582 156.178509 
L 277.06491 156.178509 
L 277.261273 154.477565 
L 277.850363 154.477565 
L 278.046726 152.235411 
L 278.635816 152.235411 
L 278.832179 151.307624 
L 279.421269 151.307624 
L 279.617632 150.534467 
L 280.206722 150.534467 
L 280.403085 148.910839 
L 280.992175 148.910839 
L 281.188538 146.900632 
L 281.777628 146.900632 
L 281.973991 145.277003 
L 282.563081 145.277003 
L 282.759444 143.653375 
L 283.348534 143.653375 
L 283.544897 142.802902 
L 284.133987 142.802902 
L 284.33035 141.101958 
L 284.91944 141.101958 
L 285.115803 139.246383 
L 285.704892 139.246383 
L 285.901256 137.545438 
L 286.490345 137.545438 
L 286.686709 136.617651 
L 287.275798 136.617651 
L 287.472162 135.92181 
L 288.061251 135.92181 
L 288.257615 134.298181 
L 288.846704 134.298181 
L 289.043068 132.287974 
L 289.632157 132.287974 
L 289.82852 130.277768 
L 290.41761 130.277768 
L 290.613973 129.272664 
L 291.203063 129.272664 
L 291.399426 128.190245 
L 291.988516 128.190245 
L 292.184879 126.643932 
L 292.773969 126.643932 
L 292.970332 124.788357 
L 293.559422 124.788357 
L 293.755785 122.314256 
L 294.344875 122.314256 
L 294.541238 121.231837 
L 295.130328 121.231837 
L 295.326691 120.690627 
L 295.915781 120.690627 
L 296.112144 119.762839 
L 296.701234 119.762839 
L 296.897597 117.675317 
L 297.486687 117.675317 
L 297.68305 116.438267 
L 298.27214 116.438267 
L 298.468503 115.355848 
L 299.057593 115.355848 
L 299.253956 114.42806 
L 299.843046 114.42806 
L 300.039409 113.577588 
L 300.628499 113.577588 
L 300.824862 111.799328 
L 301.413951 111.799328 
L 301.610315 110.175699 
L 302.199404 110.175699 
L 302.395768 109.402543 
L 302.984857 109.402543 
L 303.181221 109.170596 
L 303.77031 109.170596 
L 303.966674 107.701598 
L 304.555763 107.701598 
L 304.752127 105.923339 
L 305.341216 105.923339 
L 305.537579 104.377026 
L 306.126669 104.377026 
L 306.323032 103.371922 
L 306.912122 103.371922 
L 307.108485 101.748294 
L 307.697575 101.748294 
L 307.893938 100.047349 
L 308.483028 100.047349 
L 308.679391 98.191774 
L 309.268481 98.191774 
L 309.464844 96.49083 
L 310.053934 96.49083 
L 310.250297 95.408411 
L 310.839387 95.408411 
L 311.03575 94.325991 
L 311.62484 94.325991 
L 311.821203 92.625047 
L 312.410293 92.625047 
L 312.606656 90.924103 
L 313.195746 90.924103 
L 313.392109 89.687053 
L 313.981199 89.687053 
L 314.177562 88.372687 
L 314.766652 88.372687 
L 314.963015 86.671742 
L 315.552105 86.671742 
L 315.748468 84.816167 
L 316.337558 84.816167 
L 316.533921 82.80596 
L 317.12301 82.80596 
L 317.319374 81.259647 
L 317.908463 81.259647 
L 318.104827 80.022597 
L 318.693916 80.022597 
L 318.89028 78.940178 
L 319.479369 78.940178 
L 319.675733 77.239233 
L 320.264822 77.239233 
L 320.461185 75.306342 
L 321.050275 75.306342 
L 321.246638 74.45587 
L 321.835728 74.45587 
L 322.032091 73.450767 
L 322.621181 73.450767 
L 322.817544 72.754926 
L 323.308452 72.754926 
L 323.504816 71.595191 
L 324.093905 71.595191 
L 324.290269 69.584984 
L 324.879358 69.584984 
L 325.075722 67.729409 
L 325.664811 67.729409 
L 325.861175 66.569674 
L 326.450264 66.569674 
L 326.646627 65.409939 
L 327.235717 65.409939 
L 327.43208 64.095573 
L 328.02117 64.095573 
L 328.217533 62.703892 
L 328.806623 62.703892 
L 329.002986 61.080263 
L 329.592076 61.080263 
L 329.788439 59.997844 
L 330.377529 59.997844 
L 330.573892 58.992741 
L 331.162982 58.992741 
L 331.359345 57.601059 
L 331.948435 57.601059 
L 332.144798 55.281589 
L 332.733888 55.281589 
L 332.930251 53.889908 
L 333.519341 53.889908 
L 333.715704 53.271383 
L 334.304794 53.271383 
L 334.501157 52.652857 
L 335.090247 52.652857 
L 335.28661 51.957017 
L 335.8757 51.957017 
L 336.072063 50.410704 
L 336.661153 50.410704 
L 336.857516 50.178757 
L 337.446606 50.178757 
L 337.642969 50.024125 
L 338.232058 50.024125 
L 338.428422 49.714863 
L 339.017511 49.714863 
L 339.213875 49.096338 
L 339.802964 49.096338 
L 339.999328 48.632444 
L 340.588417 48.632444 
L 340.784781 48.16855 
L 341.37387 48.16855 
L 341.570234 47.859287 
L 342.944776 47.781972 
L 343.141139 47.472709 
L 343.730229 47.472709 
L 343.926592 47.240762 
L 344.515682 47.240762 
L 344.712045 46.776868 
L 345.301135 46.776868 
L 345.497498 46.544921 
L 346.086588 46.544921 
L 346.282951 46.312974 
L 346.872041 46.312974 
L 347.068404 45.926396 
L 347.657494 45.926396 
L 347.853857 45.539818 
L 348.442947 45.539818 
L 348.63931 45.385187 
L 350.799306 45.307871 
L 350.995669 45.15324 
L 351.584759 45.15324 
L 351.781122 44.766661 
L 352.370212 44.766661 
L 352.566575 44.457399 
L 353.941117 44.380083 
L 354.137481 44.225452 
L 354.72657 44.225452 
L 354.922934 44.070821 
L 355.512023 44.070821 
L 355.708387 43.606927 
L 357.868382 43.529611 
L 358.064745 43.452295 
L 358.653835 43.452295 
L 358.850198 43.143033 
L 359.439288 43.143033 
L 359.635651 42.679139 
L 360.224741 42.679139 
L 360.421104 42.447192 
L 361.010194 42.447192 
L 361.206557 42.292561 
L 362.5811 42.215245 
L 362.777463 41.751351 
L 363.366553 41.751351 
L 363.562916 41.364773 
L 364.152006 41.364773 
L 364.348369 41.132826 
L 364.937459 41.132826 
L 365.133822 40.746248 
L 367.293818 40.668932 
L 367.490181 40.35967 
L 368.079271 40.35967 
L 368.275634 39.895776 
L 368.864724 39.895776 
L 369.061087 39.663829 
L 370.435629 39.586513 
L 370.631993 39.354566 
L 371.221082 39.354566 
L 371.417446 39.199935 
L 372.006535 39.199935 
L 372.202899 38.967988 
L 372.791988 38.967988 
L 372.988351 38.736041 
L 374.264713 38.736041 
L 374.461076 38.58141 
L 375.050165 38.58141 
L 375.246529 38.426778 
L 378.97743 38.349463 
L 379.173793 38.272147 
L 386.83196 38.194831 
L 387.028323 38.117516 
L 642.398713 38.0402 
L 642.595076 37.962884 
L 876.856419 37.885569 
L 876.856419 37.885569 
" clip-path="url(#pd001223071)" style="fill: none; stroke: #ff7f0e; stroke-width: 2; stroke-linecap: square"/>
   </g>
   <g id="patch_3">
    <path d="M 92.974375 331.120625 
L 92.974375 23.76 
" style="fill: none; stroke: #000000; stroke-width: 0.8; stroke-linejoin: miter; stroke-linecap: square"/>
   </g>
   <g id="patch_4">
    <path d="M 876.84375 331.120625 
L 876.84375 23.76 
" style="fill: none; stroke: #000000; stroke-width: 0.8; stroke-linejoin: miter; stroke-linecap: square"/>
   </g>
   <g id="patch_5">
    <path d="M 92.974375 331.120625 
L 876.84375 331.120625 
" style="fill: none; stroke: #000000; stroke-width: 0.8; stroke-linejoin: miter; stroke-linecap: square"/>
   </g>
   <g id="patch_6">
    <path d="M 92.974375 23.76 
L 876.84375 23.76 
" style="fill: none; stroke: #000000; stroke-width: 0.8; stroke-linejoin: miter; stroke-linecap: square"/>
   </g>
   <g id="legend_1">
    <g id="patch_7">
     <path d="M 109.774375 113.415 
L 288.401875 113.415 
Q 293.201875 113.415 293.201875 108.615 
L 293.201875 40.56 
Q 293.201875 35.76 288.401875 35.76 
L 109.774375 35.76 
Q 104.974375 35.76 104.974375 40.56 
L 104.974375 108.615 
Q 104.974375 113.415 109.774375 113.415 
z
" style="fill: #ffffff; opacity: 0.8; stroke: #cccccc; stroke-linejoin: miter"/>
    </g>
    <g id="line2d_27">
     <path d="M 114.574375 55.19625 
L 138.574375 55.19625 
L 162.574375 55.19625 
" style="fill: none; stroke: #1f77b4; stroke-width: 2; stroke-linecap: square"/>
    </g>
    <g id="text_15">
     <!-- 256QAM -->
     <g transform="translate(181.774375 63.59625)scale(0.24 -0.24)">
      <defs>
       <path id="DejaVuSans-35" d="M 691 4666 
L 3169 4666 
L 3169 4134 
L 1269 4134 
L 1269 2991 
Q 1406 3038 1543 3061 
Q 1681 3084 1819 3084 
Q 2600 3084 3056 2656 
Q 3513 2228 3513 1497 
Q 3513 744 3044 326 
Q 2575 -91 1722 -91 
Q 1428 -91 1123 -41 
Q 819 9 494 109 
L 494 744 
Q 775 591 1075 516 
Q 1375 441 1709 441 
Q 2250 441 2565 725 
Q 2881 1009 2881 1497 
Q 2881 1984 2565 2268 
Q 2250 2553 1709 2553 
Q 1456 2553 1204 2497 
Q 953 2441 691 2322 
L 691 4666 
z
" transform="scale(0.015625)"/>
       <path id="DejaVuSans-51" d="M 2522 4238 
Q 1834 4238 1429 3725 
Q 1025 3213 1025 2328 
Q 1025 1447 1429 934 
Q 1834 422 2522 422 
Q 3209 422 3611 934 
Q 4013 1447 4013 2328 
Q 4013 3213 3611 3725 
Q 3209 4238 2522 4238 
z
M 3406 84 
L 4238 -825 
L 3475 -825 
L 2784 -78 
Q 2681 -84 2626 -87 
Q 2572 -91 2522 -91 
Q 1538 -91 948 567 
Q 359 1225 359 2328 
Q 359 3434 948 4092 
Q 1538 4750 2522 4750 
Q 3503 4750 4090 4092 
Q 4678 3434 4678 2328 
Q 4678 1516 4351 937 
Q 4025 359 3406 84 
z
" transform="scale(0.015625)"/>
       <path id="DejaVuSans-41" d="M 2188 4044 
L 1331 1722 
L 3047 1722 
L 2188 4044 
z
M 1831 4666 
L 2547 4666 
L 4325 0 
L 3669 0 
L 3244 1197 
L 1141 1197 
L 716 0 
L 50 0 
L 1831 4666 
z
" transform="scale(0.015625)"/>
       <path id="DejaVuSans-4d" d="M 628 4666 
L 1569 4666 
L 2759 1491 
L 3956 4666 
L 4897 4666 
L 4897 0 
L 4281 0 
L 4281 4097 
L 3078 897 
L 2444 897 
L 1241 4097 
L 1241 0 
L 628 0 
L 628 4666 
z
" transform="scale(0.015625)"/>
      </defs>
      <use xlink:href="#DejaVuSans-32"/>
      <use xlink:href="#DejaVuSans-35" x="63.623047"/>
      <use xlink:href="#DejaVuSans-36" x="127.246094"/>
      <use xlink:href="#DejaVuSans-51" x="190.869141"/>
      <use xlink:href="#DejaVuSans-41" x="269.580078"/>
      <use xlink:href="#DejaVuSans-4d" x="337.988281"/>
     </g>
    </g>
    <g id="line2d_28">
     <path d="M 114.574375 90.42375 
L 138.574375 90.42375 
L 162.574375 90.42375 
" style="fill: none; stroke: #ff7f0e; stroke-width: 2; stroke-linecap: square"/>
    </g>
    <g id="text_16">
     <!-- Default -->
     <g transform="translate(181.774375 98.82375)scale(0.24 -0.24)">
      <defs>
       <path id="DejaVuSans-44" d="M 1259 4147 
L 1259 519 
L 2022 519 
Q 2988 519 3436 956 
Q 3884 1394 3884 2338 
Q 3884 3275 3436 3711 
Q 2988 4147 2022 4147 
L 1259 4147 
z
M 628 4666 
L 1925 4666 
Q 3281 4666 3915 4102 
Q 4550 3538 4550 2338 
Q 4550 1131 3912 565 
Q 3275 0 1925 0 
L 628 0 
L 628 4666 
z
" transform="scale(0.015625)"/>
       <path id="DejaVuSans-61" d="M 2194 1759 
Q 1497 1759 1228 1600 
Q 959 1441 959 1056 
Q 959 750 1161 570 
Q 1363 391 1709 391 
Q 2188 391 2477 730 
Q 2766 1069 2766 1631 
L 2766 1759 
L 2194 1759 
z
M 3341 1997 
L 3341 0 
L 2766 0 
L 2766 531 
Q 2569 213 2275 61 
Q 1981 -91 1556 -91 
Q 1019 -91 701 211 
Q 384 513 384 1019 
Q 384 1609 779 1909 
Q 1175 2209 1959 2209 
L 2766 2209 
L 2766 2266 
Q 2766 2663 2505 2880 
Q 2244 3097 1772 3097 
Q 1472 3097 1187 3025 
Q 903 2953 641 2809 
L 641 3341 
Q 956 3463 1253 3523 
Q 1550 3584 1831 3584 
Q 2591 3584 2966 3190 
Q 3341 2797 3341 1997 
z
" transform="scale(0.015625)"/>
       <path id="DejaVuSans-74" d="M 1172 4494 
L 1172 3500 
L 2356 3500 
L 2356 3053 
L 1172 3053 
L 1172 1153 
Q 1172 725 1289 603 
Q 1406 481 1766 481 
L 2356 481 
L 2356 0 
L 1766 0 
Q 1100 0 847 248 
Q 594 497 594 1153 
L 594 3053 
L 172 3053 
L 172 3500 
L 594 3500 
L 594 4494 
L 1172 4494 
z
" transform="scale(0.015625)"/>
      </defs>
      <use xlink:href="#DejaVuSans-44"/>
      <use xlink:href="#DejaVuSans-65" x="77.001953"/>
      <use xlink:href="#DejaVuSans-66" x="138.525391"/>
      <use xlink:href="#DejaVuSans-61" x="173.730469"/>
      <use xlink:href="#DejaVuSans-75" x="235.009766"/>
      <use xlink:href="#DejaVuSans-6c" x="298.388672"/>
      <use xlink:href="#DejaVuSans-74" x="326.171875"/>
     </g>
    </g>
   </g>
  </g>
 </g>
 <defs>
  <clipPath id="pd001223071">
   <rect x="92.974375" y="23.76" width="783.869375" height="307.360625"/>
  </clipPath>
 </defs>
</svg>
