<?xml version="1.0" encoding="utf-8" standalone="no"?>
<!DOCTYPE svg PUBLIC "-//W3C//DTD SVG 1.1//EN"
  "http://www.w3.org/Graphics/SVG/1.1/DTD/svg11.dtd">
<svg xmlns:xlink="http://www.w3.org/1999/xlink" width="921.6pt" height="410.4pt" viewBox="0 0 921.6 410.4" xmlns="http://www.w3.org/2000/svg" version="1.1">
 <metadata>
  <rdf:RDF xmlns:dc="http://purl.org/dc/elements/1.1/" xmlns:cc="http://creativecommons.org/ns#" xmlns:rdf="http://www.w3.org/1999/02/22-rdf-syntax-ns#">
   <cc:Work>
    <dc:type rdf:resource="http://purl.org/dc/dcmitype/StillImage"/>
    <dc:date>2023-04-17T18:33:11.675647</dc:date>
    <dc:format>image/svg+xml</dc:format>
    <dc:creator>
     <cc:Agent>
      <dc:title>Matplotlib v3.5.3, https://matplotlib.org/</dc:title>
     </cc:Agent>
    </dc:creator>
   </cc:Work>
  </rdf:RDF>
 </metadata>
 <defs>
  <style type="text/css">*{stroke-linejoin: round; stroke-linecap: butt}</style>
 </defs>
 <g id="figure_1">
  <g id="patch_1">
   <path d="M 0 410.4 
L 921.6 410.4 
L 921.6 0 
L 0 0 
L 0 410.4 
z
" style="fill: none"/>
  </g>
  <g id="axes_1">
   <g id="patch_2">
    <path d="M 92.974375 331.120625 
L 876.84375 331.120625 
L 876.84375 23.76 
L 92.974375 23.76 
z
" style="fill: #ffffff"/>
   </g>
   <g id="matplotlib.axis_1">
    <g id="xtick_1">
     <g id="line2d_1">
      <path d="M 92.974375 331.120625 
L 92.974375 23.76 
" clip-path="url(#p2def32ebef)" style="fill: none; stroke: #b0b0b0; stroke-width: 0.8; stroke-linecap: square"/>
     </g>
     <g id="line2d_2">
      <defs>
       <path id="m7b2e1f5b24" d="M 0 0 
L 0 3.5 
" style="stroke: #000000; stroke-width: 0.8"/>
      </defs>
      <g>
       <use xlink:href="#m7b2e1f5b24" x="92.974375" y="331.120625" style="stroke: #000000; stroke-width: 0.8"/>
      </g>
     </g>
     <g id="text_1">
      <!-- 0 -->
      <g transform="translate(85.975625 354.837188)scale(0.22 -0.22)">
       <defs>
        <path id="DejaVuSans-30" d="M 2034 4250 
Q 1547 4250 1301 3770 
Q 1056 3291 1056 2328 
Q 1056 1369 1301 889 
Q 1547 409 2034 409 
Q 2525 409 2770 889 
Q 3016 1369 3016 2328 
Q 3016 3291 2770 3770 
Q 2525 4250 2034 4250 
z
M 2034 4750 
Q 2819 4750 3233 4129 
Q 3647 3509 3647 2328 
Q 3647 1150 3233 529 
Q 2819 -91 2034 -91 
Q 1250 -91 836 529 
Q 422 1150 422 2328 
Q 422 3509 836 4129 
Q 1250 4750 2034 4750 
z
" transform="scale(0.015625)"/>
       </defs>
       <use xlink:href="#DejaVuSans-30"/>
      </g>
     </g>
    </g>
    <g id="xtick_2">
     <g id="line2d_3">
      <path d="M 249.74825 331.120625 
L 249.74825 23.76 
" clip-path="url(#p2def32ebef)" style="fill: none; stroke: #b0b0b0; stroke-width: 0.8; stroke-linecap: square"/>
     </g>
     <g id="line2d_4">
      <g>
       <use xlink:href="#m7b2e1f5b24" x="249.74825" y="331.120625" style="stroke: #000000; stroke-width: 0.8"/>
      </g>
     </g>
     <g id="text_2">
      <!-- 20 -->
      <g transform="translate(235.75075 354.837188)scale(0.22 -0.22)">
       <defs>
        <path id="DejaVuSans-32" d="M 1228 531 
L 3431 531 
L 3431 0 
L 469 0 
L 469 531 
Q 828 903 1448 1529 
Q 2069 2156 2228 2338 
Q 2531 2678 2651 2914 
Q 2772 3150 2772 3378 
Q 2772 3750 2511 3984 
Q 2250 4219 1831 4219 
Q 1534 4219 1204 4116 
Q 875 4013 500 3803 
L 500 4441 
Q 881 4594 1212 4672 
Q 1544 4750 1819 4750 
Q 2544 4750 2975 4387 
Q 3406 4025 3406 3419 
Q 3406 3131 3298 2873 
Q 3191 2616 2906 2266 
Q 2828 2175 2409 1742 
Q 1991 1309 1228 531 
z
" transform="scale(0.015625)"/>
       </defs>
       <use xlink:href="#DejaVuSans-32"/>
       <use xlink:href="#DejaVuSans-30" x="63.623047"/>
      </g>
     </g>
    </g>
    <g id="xtick_3">
     <g id="line2d_5">
      <path d="M 406.522125 331.120625 
L 406.522125 23.76 
" clip-path="url(#p2def32ebef)" style="fill: none; stroke: #b0b0b0; stroke-width: 0.8; stroke-linecap: square"/>
     </g>
     <g id="line2d_6">
      <g>
       <use xlink:href="#m7b2e1f5b24" x="406.522125" y="331.120625" style="stroke: #000000; stroke-width: 0.8"/>
      </g>
     </g>
     <g id="text_3">
      <!-- 40 -->
      <g transform="translate(392.524625 354.837188)scale(0.22 -0.22)">
       <defs>
        <path id="DejaVuSans-34" d="M 2419 4116 
L 825 1625 
L 2419 1625 
L 2419 4116 
z
M 2253 4666 
L 3047 4666 
L 3047 1625 
L 3713 1625 
L 3713 1100 
L 3047 1100 
L 3047 0 
L 2419 0 
L 2419 1100 
L 313 1100 
L 313 1709 
L 2253 4666 
z
" transform="scale(0.015625)"/>
       </defs>
       <use xlink:href="#DejaVuSans-34"/>
       <use xlink:href="#DejaVuSans-30" x="63.623047"/>
      </g>
     </g>
    </g>
    <g id="xtick_4">
     <g id="line2d_7">
      <path d="M 563.296 331.120625 
L 563.296 23.76 
" clip-path="url(#p2def32ebef)" style="fill: none; stroke: #b0b0b0; stroke-width: 0.8; stroke-linecap: square"/>
     </g>
     <g id="line2d_8">
      <g>
       <use xlink:href="#m7b2e1f5b24" x="563.296" y="331.120625" style="stroke: #000000; stroke-width: 0.8"/>
      </g>
     </g>
     <g id="text_4">
      <!-- 60 -->
      <g transform="translate(549.2985 354.837188)scale(0.22 -0.22)">
       <defs>
        <path id="DejaVuSans-36" d="M 2113 2584 
Q 1688 2584 1439 2293 
Q 1191 2003 1191 1497 
Q 1191 994 1439 701 
Q 1688 409 2113 409 
Q 2538 409 2786 701 
Q 3034 994 3034 1497 
Q 3034 2003 2786 2293 
Q 2538 2584 2113 2584 
z
M 3366 4563 
L 3366 3988 
Q 3128 4100 2886 4159 
Q 2644 4219 2406 4219 
Q 1781 4219 1451 3797 
Q 1122 3375 1075 2522 
Q 1259 2794 1537 2939 
Q 1816 3084 2150 3084 
Q 2853 3084 3261 2657 
Q 3669 2231 3669 1497 
Q 3669 778 3244 343 
Q 2819 -91 2113 -91 
Q 1303 -91 875 529 
Q 447 1150 447 2328 
Q 447 3434 972 4092 
Q 1497 4750 2381 4750 
Q 2619 4750 2861 4703 
Q 3103 4656 3366 4563 
z
" transform="scale(0.015625)"/>
       </defs>
       <use xlink:href="#DejaVuSans-36"/>
       <use xlink:href="#DejaVuSans-30" x="63.623047"/>
      </g>
     </g>
    </g>
    <g id="xtick_5">
     <g id="line2d_9">
      <path d="M 720.069875 331.120625 
L 720.069875 23.76 
" clip-path="url(#p2def32ebef)" style="fill: none; stroke: #b0b0b0; stroke-width: 0.8; stroke-linecap: square"/>
     </g>
     <g id="line2d_10">
      <g>
       <use xlink:href="#m7b2e1f5b24" x="720.069875" y="331.120625" style="stroke: #000000; stroke-width: 0.8"/>
      </g>
     </g>
     <g id="text_5">
      <!-- 80 -->
      <g transform="translate(706.072375 354.837188)scale(0.22 -0.22)">
       <defs>
        <path id="DejaVuSans-38" d="M 2034 2216 
Q 1584 2216 1326 1975 
Q 1069 1734 1069 1313 
Q 1069 891 1326 650 
Q 1584 409 2034 409 
Q 2484 409 2743 651 
Q 3003 894 3003 1313 
Q 3003 1734 2745 1975 
Q 2488 2216 2034 2216 
z
M 1403 2484 
Q 997 2584 770 2862 
Q 544 3141 544 3541 
Q 544 4100 942 4425 
Q 1341 4750 2034 4750 
Q 2731 4750 3128 4425 
Q 3525 4100 3525 3541 
Q 3525 3141 3298 2862 
Q 3072 2584 2669 2484 
Q 3125 2378 3379 2068 
Q 3634 1759 3634 1313 
Q 3634 634 3220 271 
Q 2806 -91 2034 -91 
Q 1263 -91 848 271 
Q 434 634 434 1313 
Q 434 1759 690 2068 
Q 947 2378 1403 2484 
z
M 1172 3481 
Q 1172 3119 1398 2916 
Q 1625 2713 2034 2713 
Q 2441 2713 2670 2916 
Q 2900 3119 2900 3481 
Q 2900 3844 2670 4047 
Q 2441 4250 2034 4250 
Q 1625 4250 1398 4047 
Q 1172 3844 1172 3481 
z
" transform="scale(0.015625)"/>
       </defs>
       <use xlink:href="#DejaVuSans-38"/>
       <use xlink:href="#DejaVuSans-30" x="63.623047"/>
      </g>
     </g>
    </g>
    <g id="xtick_6">
     <g id="line2d_11">
      <path d="M 876.84375 331.120625 
L 876.84375 23.76 
" clip-path="url(#p2def32ebef)" style="fill: none; stroke: #b0b0b0; stroke-width: 0.8; stroke-linecap: square"/>
     </g>
     <g id="line2d_12">
      <g>
       <use xlink:href="#m7b2e1f5b24" x="876.84375" y="331.120625" style="stroke: #000000; stroke-width: 0.8"/>
      </g>
     </g>
     <g id="text_6">
      <!-- 100 -->
      <g transform="translate(855.8475 354.837188)scale(0.22 -0.22)">
       <defs>
        <path id="DejaVuSans-31" d="M 794 531 
L 1825 531 
L 1825 4091 
L 703 3866 
L 703 4441 
L 1819 4666 
L 2450 4666 
L 2450 531 
L 3481 531 
L 3481 0 
L 794 0 
L 794 531 
z
" transform="scale(0.015625)"/>
       </defs>
       <use xlink:href="#DejaVuSans-31"/>
       <use xlink:href="#DejaVuSans-30" x="63.623047"/>
       <use xlink:href="#DejaVuSans-30" x="127.246094"/>
      </g>
     </g>
    </g>
    <g id="text_7">
     <!-- RTT (ms) -->
     <g transform="translate(431.874687 381.64875)scale(0.24 -0.24)">
      <defs>
       <path id="DejaVuSans-52" d="M 2841 2188 
Q 3044 2119 3236 1894 
Q 3428 1669 3622 1275 
L 4263 0 
L 3584 0 
L 2988 1197 
Q 2756 1666 2539 1819 
Q 2322 1972 1947 1972 
L 1259 1972 
L 1259 0 
L 628 0 
L 628 4666 
L 2053 4666 
Q 2853 4666 3247 4331 
Q 3641 3997 3641 3322 
Q 3641 2881 3436 2590 
Q 3231 2300 2841 2188 
z
M 1259 4147 
L 1259 2491 
L 2053 2491 
Q 2509 2491 2742 2702 
Q 2975 2913 2975 3322 
Q 2975 3731 2742 3939 
Q 2509 4147 2053 4147 
L 1259 4147 
z
" transform="scale(0.015625)"/>
       <path id="DejaVuSans-54" d="M -19 4666 
L 3928 4666 
L 3928 4134 
L 2272 4134 
L 2272 0 
L 1638 0 
L 1638 4134 
L -19 4134 
L -19 4666 
z
" transform="scale(0.015625)"/>
       <path id="DejaVuSans-20" transform="scale(0.015625)"/>
       <path id="DejaVuSans-28" d="M 1984 4856 
Q 1566 4138 1362 3434 
Q 1159 2731 1159 2009 
Q 1159 1288 1364 580 
Q 1569 -128 1984 -844 
L 1484 -844 
Q 1016 -109 783 600 
Q 550 1309 550 2009 
Q 550 2706 781 3412 
Q 1013 4119 1484 4856 
L 1984 4856 
z
" transform="scale(0.015625)"/>
       <path id="DejaVuSans-6d" d="M 3328 2828 
Q 3544 3216 3844 3400 
Q 4144 3584 4550 3584 
Q 5097 3584 5394 3201 
Q 5691 2819 5691 2113 
L 5691 0 
L 5113 0 
L 5113 2094 
Q 5113 2597 4934 2840 
Q 4756 3084 4391 3084 
Q 3944 3084 3684 2787 
Q 3425 2491 3425 1978 
L 3425 0 
L 2847 0 
L 2847 2094 
Q 2847 2600 2669 2842 
Q 2491 3084 2119 3084 
Q 1678 3084 1418 2786 
Q 1159 2488 1159 1978 
L 1159 0 
L 581 0 
L 581 3500 
L 1159 3500 
L 1159 2956 
Q 1356 3278 1631 3431 
Q 1906 3584 2284 3584 
Q 2666 3584 2933 3390 
Q 3200 3197 3328 2828 
z
" transform="scale(0.015625)"/>
       <path id="DejaVuSans-73" d="M 2834 3397 
L 2834 2853 
Q 2591 2978 2328 3040 
Q 2066 3103 1784 3103 
Q 1356 3103 1142 2972 
Q 928 2841 928 2578 
Q 928 2378 1081 2264 
Q 1234 2150 1697 2047 
L 1894 2003 
Q 2506 1872 2764 1633 
Q 3022 1394 3022 966 
Q 3022 478 2636 193 
Q 2250 -91 1575 -91 
Q 1294 -91 989 -36 
Q 684 19 347 128 
L 347 722 
Q 666 556 975 473 
Q 1284 391 1588 391 
Q 1994 391 2212 530 
Q 2431 669 2431 922 
Q 2431 1156 2273 1281 
Q 2116 1406 1581 1522 
L 1381 1569 
Q 847 1681 609 1914 
Q 372 2147 372 2553 
Q 372 3047 722 3315 
Q 1072 3584 1716 3584 
Q 2034 3584 2315 3537 
Q 2597 3491 2834 3397 
z
" transform="scale(0.015625)"/>
       <path id="DejaVuSans-29" d="M 513 4856 
L 1013 4856 
Q 1481 4119 1714 3412 
Q 1947 2706 1947 2009 
Q 1947 1309 1714 600 
Q 1481 -109 1013 -844 
L 513 -844 
Q 928 -128 1133 580 
Q 1338 1288 1338 2009 
Q 1338 2731 1133 3434 
Q 928 4138 513 4856 
z
" transform="scale(0.015625)"/>
      </defs>
      <use xlink:href="#DejaVuSans-52"/>
      <use xlink:href="#DejaVuSans-54" x="62.232422"/>
      <use xlink:href="#DejaVuSans-54" x="121.566406"/>
      <use xlink:href="#DejaVuSans-20" x="182.650391"/>
      <use xlink:href="#DejaVuSans-28" x="214.4375"/>
      <use xlink:href="#DejaVuSans-6d" x="253.451172"/>
      <use xlink:href="#DejaVuSans-73" x="350.863281"/>
      <use xlink:href="#DejaVuSans-29" x="402.962891"/>
     </g>
    </g>
   </g>
   <g id="matplotlib.axis_2">
    <g id="ytick_1">
     <g id="line2d_13">
      <path d="M 92.974375 317.149688 
L 876.84375 317.149688 
" clip-path="url(#p2def32ebef)" style="fill: none; stroke: #b0b0b0; stroke-width: 0.8; stroke-linecap: square"/>
     </g>
     <g id="line2d_14">
      <defs>
       <path id="m61b44e55a4" d="M 0 0 
L -3.5 0 
" style="stroke: #000000; stroke-width: 0.8"/>
      </defs>
      <g>
       <use xlink:href="#m61b44e55a4" x="92.974375" y="317.149688" style="stroke: #000000; stroke-width: 0.8"/>
      </g>
     </g>
     <g id="text_8">
      <!-- 0.0 -->
      <g transform="translate(50.9875 325.507969)scale(0.22 -0.22)">
       <defs>
        <path id="DejaVuSans-2e" d="M 684 794 
L 1344 794 
L 1344 0 
L 684 0 
L 684 794 
z
" transform="scale(0.015625)"/>
       </defs>
       <use xlink:href="#DejaVuSans-30"/>
       <use xlink:href="#DejaVuSans-2e" x="63.623047"/>
       <use xlink:href="#DejaVuSans-30" x="95.410156"/>
      </g>
     </g>
    </g>
    <g id="ytick_2">
     <g id="line2d_15">
      <path d="M 92.974375 261.265938 
L 876.84375 261.265938 
" clip-path="url(#p2def32ebef)" style="fill: none; stroke: #b0b0b0; stroke-width: 0.8; stroke-linecap: square"/>
     </g>
     <g id="line2d_16">
      <g>
       <use xlink:href="#m61b44e55a4" x="92.974375" y="261.265938" style="stroke: #000000; stroke-width: 0.8"/>
      </g>
     </g>
     <g id="text_9">
      <!-- 0.2 -->
      <g transform="translate(50.9875 269.624219)scale(0.22 -0.22)">
       <use xlink:href="#DejaVuSans-30"/>
       <use xlink:href="#DejaVuSans-2e" x="63.623047"/>
       <use xlink:href="#DejaVuSans-32" x="95.410156"/>
      </g>
     </g>
    </g>
    <g id="ytick_3">
     <g id="line2d_17">
      <path d="M 92.974375 205.382188 
L 876.84375 205.382188 
" clip-path="url(#p2def32ebef)" style="fill: none; stroke: #b0b0b0; stroke-width: 0.8; stroke-linecap: square"/>
     </g>
     <g id="line2d_18">
      <g>
       <use xlink:href="#m61b44e55a4" x="92.974375" y="205.382188" style="stroke: #000000; stroke-width: 0.8"/>
      </g>
     </g>
     <g id="text_10">
      <!-- 0.4 -->
      <g transform="translate(50.9875 213.740469)scale(0.22 -0.22)">
       <use xlink:href="#DejaVuSans-30"/>
       <use xlink:href="#DejaVuSans-2e" x="63.623047"/>
       <use xlink:href="#DejaVuSans-34" x="95.410156"/>
      </g>
     </g>
    </g>
    <g id="ytick_4">
     <g id="line2d_19">
      <path d="M 92.974375 149.498438 
L 876.84375 149.498438 
" clip-path="url(#p2def32ebef)" style="fill: none; stroke: #b0b0b0; stroke-width: 0.8; stroke-linecap: square"/>
     </g>
     <g id="line2d_20">
      <g>
       <use xlink:href="#m61b44e55a4" x="92.974375" y="149.498438" style="stroke: #000000; stroke-width: 0.8"/>
      </g>
     </g>
     <g id="text_11">
      <!-- 0.6 -->
      <g transform="translate(50.9875 157.856719)scale(0.22 -0.22)">
       <use xlink:href="#DejaVuSans-30"/>
       <use xlink:href="#DejaVuSans-2e" x="63.623047"/>
       <use xlink:href="#DejaVuSans-36" x="95.410156"/>
      </g>
     </g>
    </g>
    <g id="ytick_5">
     <g id="line2d_21">
      <path d="M 92.974375 93.614688 
L 876.84375 93.614688 
" clip-path="url(#p2def32ebef)" style="fill: none; stroke: #b0b0b0; stroke-width: 0.8; stroke-linecap: square"/>
     </g>
     <g id="line2d_22">
      <g>
       <use xlink:href="#m61b44e55a4" x="92.974375" y="93.614688" style="stroke: #000000; stroke-width: 0.8"/>
      </g>
     </g>
     <g id="text_12">
      <!-- 0.8 -->
      <g transform="translate(50.9875 101.972969)scale(0.22 -0.22)">
       <use xlink:href="#DejaVuSans-30"/>
       <use xlink:href="#DejaVuSans-2e" x="63.623047"/>
       <use xlink:href="#DejaVuSans-38" x="95.410156"/>
      </g>
     </g>
    </g>
    <g id="ytick_6">
     <g id="line2d_23">
      <path d="M 92.974375 37.730937 
L 876.84375 37.730937 
" clip-path="url(#p2def32ebef)" style="fill: none; stroke: #b0b0b0; stroke-width: 0.8; stroke-linecap: square"/>
     </g>
     <g id="line2d_24">
      <g>
       <use xlink:href="#m61b44e55a4" x="92.974375" y="37.730937" style="stroke: #000000; stroke-width: 0.8"/>
      </g>
     </g>
     <g id="text_13">
      <!-- 1.0 -->
      <g transform="translate(50.9875 46.089219)scale(0.22 -0.22)">
       <use xlink:href="#DejaVuSans-31"/>
       <use xlink:href="#DejaVuSans-2e" x="63.623047"/>
       <use xlink:href="#DejaVuSans-30" x="95.410156"/>
      </g>
     </g>
    </g>
    <g id="text_14">
     <!-- Likelihood of occurrence -->
     <g transform="translate(41.99625 323.628438)rotate(-90)scale(0.24 -0.24)">
      <defs>
       <path id="DejaVuSans-4c" d="M 628 4666 
L 1259 4666 
L 1259 531 
L 3531 531 
L 3531 0 
L 628 0 
L 628 4666 
z
" transform="scale(0.015625)"/>
       <path id="DejaVuSans-69" d="M 603 3500 
L 1178 3500 
L 1178 0 
L 603 0 
L 603 3500 
z
M 603 4863 
L 1178 4863 
L 1178 4134 
L 603 4134 
L 603 4863 
z
" transform="scale(0.015625)"/>
       <path id="DejaVuSans-6b" d="M 581 4863 
L 1159 4863 
L 1159 1991 
L 2875 3500 
L 3609 3500 
L 1753 1863 
L 3688 0 
L 2938 0 
L 1159 1709 
L 1159 0 
L 581 0 
L 581 4863 
z
" transform="scale(0.015625)"/>
       <path id="DejaVuSans-65" d="M 3597 1894 
L 3597 1613 
L 953 1613 
Q 991 1019 1311 708 
Q 1631 397 2203 397 
Q 2534 397 2845 478 
Q 3156 559 3463 722 
L 3463 178 
Q 3153 47 2828 -22 
Q 2503 -91 2169 -91 
Q 1331 -91 842 396 
Q 353 884 353 1716 
Q 353 2575 817 3079 
Q 1281 3584 2069 3584 
Q 2775 3584 3186 3129 
Q 3597 2675 3597 1894 
z
M 3022 2063 
Q 3016 2534 2758 2815 
Q 2500 3097 2075 3097 
Q 1594 3097 1305 2825 
Q 1016 2553 972 2059 
L 3022 2063 
z
" transform="scale(0.015625)"/>
       <path id="DejaVuSans-6c" d="M 603 4863 
L 1178 4863 
L 1178 0 
L 603 0 
L 603 4863 
z
" transform="scale(0.015625)"/>
       <path id="DejaVuSans-68" d="M 3513 2113 
L 3513 0 
L 2938 0 
L 2938 2094 
Q 2938 2591 2744 2837 
Q 2550 3084 2163 3084 
Q 1697 3084 1428 2787 
Q 1159 2491 1159 1978 
L 1159 0 
L 581 0 
L 581 4863 
L 1159 4863 
L 1159 2956 
Q 1366 3272 1645 3428 
Q 1925 3584 2291 3584 
Q 2894 3584 3203 3211 
Q 3513 2838 3513 2113 
z
" transform="scale(0.015625)"/>
       <path id="DejaVuSans-6f" d="M 1959 3097 
Q 1497 3097 1228 2736 
Q 959 2375 959 1747 
Q 959 1119 1226 758 
Q 1494 397 1959 397 
Q 2419 397 2687 759 
Q 2956 1122 2956 1747 
Q 2956 2369 2687 2733 
Q 2419 3097 1959 3097 
z
M 1959 3584 
Q 2709 3584 3137 3096 
Q 3566 2609 3566 1747 
Q 3566 888 3137 398 
Q 2709 -91 1959 -91 
Q 1206 -91 779 398 
Q 353 888 353 1747 
Q 353 2609 779 3096 
Q 1206 3584 1959 3584 
z
" transform="scale(0.015625)"/>
       <path id="DejaVuSans-64" d="M 2906 2969 
L 2906 4863 
L 3481 4863 
L 3481 0 
L 2906 0 
L 2906 525 
Q 2725 213 2448 61 
Q 2172 -91 1784 -91 
Q 1150 -91 751 415 
Q 353 922 353 1747 
Q 353 2572 751 3078 
Q 1150 3584 1784 3584 
Q 2172 3584 2448 3432 
Q 2725 3281 2906 2969 
z
M 947 1747 
Q 947 1113 1208 752 
Q 1469 391 1925 391 
Q 2381 391 2643 752 
Q 2906 1113 2906 1747 
Q 2906 2381 2643 2742 
Q 2381 3103 1925 3103 
Q 1469 3103 1208 2742 
Q 947 2381 947 1747 
z
" transform="scale(0.015625)"/>
       <path id="DejaVuSans-66" d="M 2375 4863 
L 2375 4384 
L 1825 4384 
Q 1516 4384 1395 4259 
Q 1275 4134 1275 3809 
L 1275 3500 
L 2222 3500 
L 2222 3053 
L 1275 3053 
L 1275 0 
L 697 0 
L 697 3053 
L 147 3053 
L 147 3500 
L 697 3500 
L 697 3744 
Q 697 4328 969 4595 
Q 1241 4863 1831 4863 
L 2375 4863 
z
" transform="scale(0.015625)"/>
       <path id="DejaVuSans-63" d="M 3122 3366 
L 3122 2828 
Q 2878 2963 2633 3030 
Q 2388 3097 2138 3097 
Q 1578 3097 1268 2742 
Q 959 2388 959 1747 
Q 959 1106 1268 751 
Q 1578 397 2138 397 
Q 2388 397 2633 464 
Q 2878 531 3122 666 
L 3122 134 
Q 2881 22 2623 -34 
Q 2366 -91 2075 -91 
Q 1284 -91 818 406 
Q 353 903 353 1747 
Q 353 2603 823 3093 
Q 1294 3584 2113 3584 
Q 2378 3584 2631 3529 
Q 2884 3475 3122 3366 
z
" transform="scale(0.015625)"/>
       <path id="DejaVuSans-75" d="M 544 1381 
L 544 3500 
L 1119 3500 
L 1119 1403 
Q 1119 906 1312 657 
Q 1506 409 1894 409 
Q 2359 409 2629 706 
Q 2900 1003 2900 1516 
L 2900 3500 
L 3475 3500 
L 3475 0 
L 2900 0 
L 2900 538 
Q 2691 219 2414 64 
Q 2138 -91 1772 -91 
Q 1169 -91 856 284 
Q 544 659 544 1381 
z
M 1991 3584 
L 1991 3584 
z
" transform="scale(0.015625)"/>
       <path id="DejaVuSans-72" d="M 2631 2963 
Q 2534 3019 2420 3045 
Q 2306 3072 2169 3072 
Q 1681 3072 1420 2755 
Q 1159 2438 1159 1844 
L 1159 0 
L 581 0 
L 581 3500 
L 1159 3500 
L 1159 2956 
Q 1341 3275 1631 3429 
Q 1922 3584 2338 3584 
Q 2397 3584 2469 3576 
Q 2541 3569 2628 3553 
L 2631 2963 
z
" transform="scale(0.015625)"/>
       <path id="DejaVuSans-6e" d="M 3513 2113 
L 3513 0 
L 2938 0 
L 2938 2094 
Q 2938 2591 2744 2837 
Q 2550 3084 2163 3084 
Q 1697 3084 1428 2787 
Q 1159 2491 1159 1978 
L 1159 0 
L 581 0 
L 581 3500 
L 1159 3500 
L 1159 2956 
Q 1366 3272 1645 3428 
Q 1925 3584 2291 3584 
Q 2894 3584 3203 3211 
Q 3513 2838 3513 2113 
z
" transform="scale(0.015625)"/>
      </defs>
      <use xlink:href="#DejaVuSans-4c"/>
      <use xlink:href="#DejaVuSans-69" x="55.712891"/>
      <use xlink:href="#DejaVuSans-6b" x="83.496094"/>
      <use xlink:href="#DejaVuSans-65" x="137.78125"/>
      <use xlink:href="#DejaVuSans-6c" x="199.304688"/>
      <use xlink:href="#DejaVuSans-69" x="227.087891"/>
      <use xlink:href="#DejaVuSans-68" x="254.871094"/>
      <use xlink:href="#DejaVuSans-6f" x="318.25"/>
      <use xlink:href="#DejaVuSans-6f" x="379.431641"/>
      <use xlink:href="#DejaVuSans-64" x="440.613281"/>
      <use xlink:href="#DejaVuSans-20" x="504.089844"/>
      <use xlink:href="#DejaVuSans-6f" x="535.876953"/>
      <use xlink:href="#DejaVuSans-66" x="597.058594"/>
      <use xlink:href="#DejaVuSans-20" x="632.263672"/>
      <use xlink:href="#DejaVuSans-6f" x="664.050781"/>
      <use xlink:href="#DejaVuSans-63" x="725.232422"/>
      <use xlink:href="#DejaVuSans-63" x="780.212891"/>
      <use xlink:href="#DejaVuSans-75" x="835.193359"/>
      <use xlink:href="#DejaVuSans-72" x="898.572266"/>
      <use xlink:href="#DejaVuSans-72" x="937.935547"/>
      <use xlink:href="#DejaVuSans-65" x="976.798828"/>
      <use xlink:href="#DejaVuSans-6e" x="1038.322266"/>
      <use xlink:href="#DejaVuSans-63" x="1101.701172"/>
      <use xlink:href="#DejaVuSans-65" x="1156.681641"/>
     </g>
    </g>
   </g>
   <g id="line2d_25">
    <path d="M 92.974375 317.149688 
L 131.439399 317.073593 
L 131.6611 316.997499 
L 133.213003 316.921404 
L 134.432355 316.16046 
L 134.654056 316.084365 
L 134.875756 316.008271 
L 134.986606 316.008271 
L 135.208307 315.551704 
L 135.540857 315.47561 
L 135.762558 315.247327 
L 135.873408 315.095138 
L 136.76021 312.431833 
L 136.87106 312.203549 
L 137.09276 311.594794 
L 137.203611 311.442605 
L 139.088064 305.355051 
L 139.309765 304.82239 
L 139.642315 303.072218 
L 139.864016 301.930801 
L 140.307417 295.995436 
L 140.639967 291.734148 
L 140.972518 287.777237 
L 141.194218 285.570499 
L 141.85932 280.396077 
L 141.97017 280.015605 
L 142.413571 276.743545 
L 142.746121 275.145562 
L 143.411223 267.992685 
L 143.632923 266.775174 
L 143.965474 261.752942 
L 146.182478 236.793969 
L 146.515029 234.891608 
L 146.847579 232.228303 
L 147.29098 228.347487 
L 147.40183 227.738731 
L 147.734381 222.944782 
L 147.845231 222.183838 
L 148.066932 217.998644 
L 148.177782 217.313794 
L 148.732033 207.725896 
L 149.951385 193.800615 
L 150.173086 192.354821 
L 150.616487 188.245722 
L 151.392438 179.494862 
L 151.724989 174.168252 
L 151.946689 172.874647 
L 152.50094 163.591126 
L 152.722641 161.76486 
L 153.055191 157.503572 
L 153.498592 152.709622 
L 153.720293 150.502884 
L 153.831143 150.046317 
L 154.163693 146.774257 
L 154.274544 146.165501 
L 154.496244 144.41533 
L 154.828795 141.980308 
L 155.050495 139.925758 
L 155.161345 139.317003 
L 156.934949 119.532451 
L 157.045799 118.923695 
L 157.37835 115.499446 
L 157.932601 112.151291 
L 158.376002 110.401119 
L 159.595354 100.508843 
L 159.817054 99.443521 
L 160.814706 95.182233 
L 161.701508 92.442833 
L 162.034059 92.21455 
L 163.696812 88.714206 
L 164.029363 87.648884 
L 164.251063 87.344506 
L 164.361913 87.268412 
L 164.694464 86.583562 
L 165.027015 86.279184 
L 165.248715 86.050901 
L 165.692116 85.670429 
L 166.024666 85.289957 
L 166.135517 85.289957 
L 166.468067 84.985579 
L 166.911468 84.985579 
L 167.576569 83.844163 
L 168.685072 83.083218 
L 168.906772 82.702746 
L 169.461023 82.093991 
L 169.682724 82.017896 
L 170.569525 81.485235 
L 170.902076 80.87648 
L 171.234627 80.572102 
L 171.456327 79.126308 
L 172.010578 79.126308 
L 172.232278 78.213175 
L 172.78653 78.213175 
L 173.00823 77.908797 
L 173.562481 77.908797 
L 173.784181 77.45223 
L 174.449283 77.45223 
L 174.670983 76.691286 
L 175.225234 76.691286 
L 175.446935 76.082531 
L 176.001186 76.082531 
L 176.222886 74.712831 
L 176.777137 74.712831 
L 176.998838 73.799698 
L 177.553089 73.799698 
L 177.774789 73.190942 
L 178.32904 73.190942 
L 178.550741 72.12562 
L 179.104992 72.12562 
L 179.326692 70.679826 
L 179.880943 70.679826 
L 180.102644 69.462315 
L 180.656895 69.462315 
L 180.878595 68.473088 
L 181.432846 68.473088 
L 181.654547 67.48386 
L 182.208798 67.48386 
L 182.430498 66.11416 
L 182.984749 66.11416 
L 183.20645 64.668366 
L 183.760701 64.668366 
L 183.982401 64.211799 
L 184.536652 64.211799 
L 184.758353 63.146477 
L 185.423454 63.146477 
L 185.645154 61.928967 
L 186.199406 61.928967 
L 186.421106 60.863644 
L 186.975357 60.863644 
L 187.197057 60.1027 
L 187.751309 60.1027 
L 187.973009 59.113473 
L 188.52726 59.113473 
L 188.74896 58.580812 
L 189.303212 58.580812 
L 189.524912 57.211112 
L 190.079163 57.211112 
L 190.300863 56.14579 
L 190.855115 56.14579 
L 191.076815 55.308751 
L 191.631066 55.308751 
L 191.852766 54.319523 
L 192.407018 54.319523 
L 192.628718 53.40639 
L 193.182969 53.40639 
L 193.404669 52.569352 
L 193.958921 52.569352 
L 194.180621 51.732313 
L 194.734872 51.732313 
L 194.956572 50.438707 
L 195.510824 50.438707 
L 195.732524 49.829952 
L 196.397625 49.829952 
L 196.619326 48.612441 
L 197.173577 48.612441 
L 197.395277 47.927591 
L 197.949528 47.927591 
L 198.171229 47.090552 
L 198.72548 47.090552 
L 198.94718 46.481797 
L 199.501431 46.481797 
L 199.723132 46.101325 
L 200.277383 46.101325 
L 200.499083 45.873042 
L 201.053334 45.873042 
L 201.275035 45.568664 
L 201.829286 45.568664 
L 202.050986 45.264286 
L 202.605237 45.264286 
L 202.826938 44.80772 
L 203.381189 44.80772 
L 203.602889 44.655531 
L 204.15714 44.655531 
L 204.378841 44.351153 
L 205.709043 44.351153 
L 205.930744 44.046775 
L 206.484995 44.046775 
L 206.706695 43.742398 
L 207.371797 43.742398 
L 207.593497 43.43802 
L 208.147748 43.43802 
L 208.369448 43.209737 
L 208.9237 43.209737 
L 209.1454 42.829264 
L 209.699651 42.829264 
L 209.921351 42.600981 
L 210.475603 42.600981 
L 210.697303 42.220509 
L 211.251554 42.220509 
L 211.473254 41.916131 
L 212.027506 41.916131 
L 212.249206 41.763942 
L 214.35536 41.763942 
L 214.57706 41.611753 
L 215.907263 41.535659 
L 216.128963 41.38347 
L 217.459166 41.38347 
L 217.680866 41.155187 
L 218.345968 41.155187 
L 218.567668 41.002998 
L 219.897871 40.926904 
L 220.119571 40.850809 
L 224.55358 40.774715 
L 224.77528 40.69862 
L 226.105483 40.622526 
L 226.327183 40.546431 
L 226.881434 40.546431 
L 227.103135 40.394243 
L 227.657386 40.394243 
L 227.879086 40.242054 
L 228.433337 40.242054 
L 228.655038 40.089865 
L 230.872042 40.01377 
L 231.093742 39.861582 
L 232.423945 39.785487 
L 232.645645 39.709393 
L 234.7518 39.709393 
L 234.9735 39.557204 
L 238.631557 39.481109 
L 238.853257 39.405015 
L 243.398116 39.328921 
L 243.619817 39.252826 
L 252.820385 39.176732 
L 253.042085 39.100637 
L 267.674313 39.024543 
L 267.896014 38.948448 
L 284.190995 38.872354 
L 284.412696 38.79626 
L 336.623147 38.720165 
L 336.844847 38.644071 
L 588.363984 38.567976 
L 588.585685 38.491882 
L 629.046013 38.415787 
L 629.267713 38.339693 
L 759.960117 38.263599 
L 760.181817 38.187504 
L 829.795752 38.11141 
L 830.017452 38.035315 
L 876.907093 38.035315 
L 876.907093 38.035315 
" clip-path="url(#p2def32ebef)" style="fill: none; stroke: #1f77b4; stroke-width: 2; stroke-linecap: square"/>
   </g>
   <g id="line2d_26">
    <path d="M 92.974375 317.149688 
L 138.755514 317.072372 
L 138.977214 316.995056 
L 140.418267 316.917741 
L 140.639967 316.840425 
L 141.748469 316.763109 
L 141.97017 316.608478 
L 147.06928 316.531162 
L 147.29098 316.453847 
L 148.066932 316.376531 
L 148.288632 316.299215 
L 151.503288 316.2219 
L 151.835839 316.067268 
L 155.161345 315.989953 
L 155.383046 315.912637 
L 158.376002 315.835321 
L 158.597702 315.758006 
L 168.130821 315.68069 
L 168.352521 315.603375 
L 174.449283 315.526059 
L 174.670983 315.294112 
L 176.001186 315.216796 
L 176.222886 315.139481 
L 176.777137 315.139481 
L 176.998838 314.907534 
L 177.553089 314.907534 
L 177.774789 314.366324 
L 178.32904 314.366324 
L 178.550741 314.057062 
L 179.104992 314.057062 
L 179.326692 313.670483 
L 179.880943 313.670483 
L 180.102644 313.051958 
L 180.656895 313.051958 
L 180.878595 312.510749 
L 181.432846 312.510749 
L 181.654547 312.12417 
L 182.208798 312.12417 
L 182.430498 311.196383 
L 182.984749 311.196383 
L 183.20645 309.418123 
L 183.760701 309.418123 
L 183.982401 308.258388 
L 184.536652 308.258388 
L 184.758353 307.794494 
L 185.423454 307.794494 
L 185.645154 307.098653 
L 186.199406 307.098653 
L 186.421106 305.706972 
L 186.975357 305.706972 
L 187.197057 304.083343 
L 187.751309 304.083343 
L 187.973009 303.07824 
L 188.52726 303.07824 
L 188.74896 302.691661 
L 189.303212 302.691661 
L 189.524912 301.841189 
L 190.079163 301.841189 
L 190.300863 300.449508 
L 190.855115 300.449508 
L 191.076815 299.135142 
L 191.631066 299.135142 
L 191.852766 297.588829 
L 192.407018 297.588829 
L 192.628718 296.429094 
L 193.182969 296.429094 
L 193.404669 295.733253 
L 193.958921 295.733253 
L 194.180621 294.496203 
L 194.734872 294.496203 
L 194.956572 293.027205 
L 195.510824 293.027205 
L 195.732524 291.944786 
L 196.397625 291.944786 
L 196.619326 290.785052 
L 197.173577 290.785052 
L 197.395277 290.089211 
L 197.949528 290.089211 
L 198.171229 288.233635 
L 198.72548 288.233635 
L 198.94718 286.455375 
L 199.501431 286.455375 
L 199.723132 284.5998 
L 200.277383 284.5998 
L 200.499083 283.672012 
L 201.053334 283.672012 
L 201.275035 283.208118 
L 201.829286 283.208118 
L 202.050986 281.816437 
L 202.605237 281.816437 
L 202.826938 280.424755 
L 203.381189 280.424755 
L 203.602889 279.187705 
L 204.15714 279.187705 
L 204.378841 278.02797 
L 204.933092 278.02797 
L 205.154792 277.177498 
L 205.709043 277.177498 
L 205.930744 275.785816 
L 206.484995 275.785816 
L 206.706695 274.316819 
L 207.371797 274.316819 
L 207.593497 272.770506 
L 208.147748 272.770506 
L 208.369448 271.997349 
L 208.9237 271.997349 
L 209.1454 271.301509 
L 209.699651 271.301509 
L 209.921351 270.141774 
L 210.475603 270.141774 
L 210.697303 268.750092 
L 211.251554 268.750092 
L 211.473254 267.667673 
L 212.027506 267.667673 
L 212.249206 266.585254 
L 212.803457 266.585254 
L 213.025157 266.198676 
L 213.579409 266.198676 
L 213.801109 264.806994 
L 214.35536 264.806994 
L 214.57706 264.033838 
L 215.131312 264.033838 
L 215.353012 262.951419 
L 215.907263 262.951419 
L 216.128963 262.410209 
L 216.683215 262.410209 
L 216.904915 260.941212 
L 217.459166 260.941212 
L 217.680866 259.858793 
L 218.345968 259.858793 
L 218.567668 258.235164 
L 219.121919 258.235164 
L 219.34362 256.766167 
L 219.897871 256.766167 
L 220.119571 255.374485 
L 220.673822 255.374485 
L 220.895523 254.678644 
L 221.449774 254.678644 
L 221.671474 252.900384 
L 222.225725 252.900384 
L 222.447426 250.039705 
L 223.001677 250.039705 
L 223.223377 248.957286 
L 223.777628 248.957286 
L 223.999329 247.720236 
L 224.55358 247.720236 
L 224.77528 246.869764 
L 225.329531 246.869764 
L 225.551232 245.400767 
L 226.105483 245.400767 
L 226.327183 243.699822 
L 226.881434 243.699822 
L 227.103135 241.6123 
L 227.657386 241.6123 
L 227.879086 240.761828 
L 228.433337 240.761828 
L 228.655038 239.83404 
L 229.320139 239.83404 
L 229.541839 237.978464 
L 230.096091 237.978464 
L 230.317791 236.122889 
L 230.872042 236.122889 
L 231.093742 234.885839 
L 231.647994 234.885839 
L 231.869694 234.421945 
L 232.423945 234.421945 
L 232.645645 233.571473 
L 233.199897 233.571473 
L 233.421597 231.715897 
L 233.975848 231.715897 
L 234.197548 229.628375 
L 234.7518 229.628375 
L 234.9735 227.618168 
L 235.527751 227.618168 
L 235.749451 226.922327 
L 236.303703 226.922327 
L 236.525403 225.762592 
L 237.079654 225.762592 
L 237.301354 223.907017 
L 237.855606 223.907017 
L 238.077306 222.283388 
L 238.631557 222.283388 
L 238.853257 220.969022 
L 239.407509 220.969022 
L 239.629209 220.11855 
L 240.29431 220.11855 
L 240.516011 219.268078 
L 241.070262 219.268078 
L 241.291962 217.489818 
L 241.846213 217.489818 
L 242.067914 216.020821 
L 242.622165 216.020821 
L 242.843865 213.778667 
L 243.398116 213.778667 
L 243.619817 212.696248 
L 244.174068 212.696248 
L 244.395768 211.691144 
L 244.950019 211.691144 
L 245.17172 210.686041 
L 245.725971 210.686041 
L 245.947671 208.830465 
L 246.501922 208.830465 
L 246.723623 207.438784 
L 247.277874 207.438784 
L 247.499574 206.279049 
L 248.053825 206.279049 
L 248.275526 205.583208 
L 248.829777 205.583208 
L 249.051477 203.804948 
L 249.605728 203.804948 
L 249.827429 202.258635 
L 250.38168 202.258635 
L 250.60338 200.480375 
L 251.268482 200.480375 
L 251.490182 199.243325 
L 252.044433 199.243325 
L 252.266133 198.392853 
L 252.820385 198.392853 
L 253.042085 196.769224 
L 253.596336 196.769224 
L 253.818036 194.990964 
L 254.372288 194.990964 
L 254.593988 193.444652 
L 255.148239 193.444652 
L 255.369939 192.207601 
L 255.924191 192.207601 
L 256.145891 191.279813 
L 256.700142 191.279813 
L 256.921842 189.501554 
L 257.476094 189.501554 
L 257.697794 187.723294 
L 258.252045 187.723294 
L 258.473745 186.408928 
L 259.027997 186.408928 
L 259.249697 185.790402 
L 259.803948 185.790402 
L 260.025648 184.862615 
L 260.5799 184.862615 
L 260.8016 183.16167 
L 261.466701 183.16167 
L 261.688402 181.151464 
L 262.242653 181.151464 
L 262.464353 179.450519 
L 263.018604 179.450519 
L 263.240305 178.522732 
L 263.794556 178.522732 
L 264.016256 178.213469 
L 264.570507 178.213469 
L 264.792208 176.512525 
L 265.346459 176.512525 
L 265.568159 174.888896 
L 266.12241 174.888896 
L 266.344111 172.492111 
L 266.898362 172.492111 
L 267.120062 171.564323 
L 267.674313 171.564323 
L 267.896014 170.868482 
L 268.450265 170.868482 
L 268.671965 169.476801 
L 269.226216 169.476801 
L 269.447917 167.389278 
L 270.002168 167.389278 
L 270.223868 165.533703 
L 270.778119 165.533703 
L 270.99982 164.760546 
L 271.554071 164.760546 
L 271.775771 163.832759 
L 272.440873 163.832759 
L 272.662573 162.750339 
L 273.216824 162.750339 
L 273.438524 160.585501 
L 273.992776 160.585501 
L 274.214476 159.503082 
L 274.768727 159.503082 
L 274.990427 158.266032 
L 275.544679 158.266032 
L 275.766379 157.647507 
L 276.32063 157.647507 
L 276.54233 156.178509 
L 277.096582 156.178509 
L 277.318282 154.477565 
L 277.872533 154.477565 
L 278.094233 152.235411 
L 278.648485 152.235411 
L 278.870185 151.307624 
L 279.424436 151.307624 
L 279.646136 150.534467 
L 280.200388 150.534467 
L 280.422088 148.910839 
L 280.976339 148.910839 
L 281.198039 146.900632 
L 281.752291 146.900632 
L 281.973991 145.277003 
L 282.528242 145.277003 
L 282.749942 143.653375 
L 283.415044 143.653375 
L 283.636744 142.802902 
L 284.190995 142.802902 
L 284.412696 141.101958 
L 284.966947 141.101958 
L 285.188647 139.246383 
L 285.742898 139.246383 
L 285.964599 137.545438 
L 286.51885 137.545438 
L 286.74055 136.617651 
L 287.294801 136.617651 
L 287.516502 135.92181 
L 288.070753 135.92181 
L 288.292453 134.298181 
L 288.846704 134.298181 
L 289.068405 132.287974 
L 289.622656 132.287974 
L 289.844356 130.277768 
L 290.398607 130.277768 
L 290.620308 129.272664 
L 291.174559 129.272664 
L 291.396259 128.190245 
L 291.95051 128.190245 
L 292.172211 126.643932 
L 292.726462 126.643932 
L 292.948162 124.788357 
L 293.502413 124.788357 
L 293.724114 122.314256 
L 294.389215 122.314256 
L 294.610915 121.231837 
L 295.165167 121.231837 
L 295.386867 120.690627 
L 295.941118 120.690627 
L 296.162818 119.762839 
L 296.71707 119.762839 
L 296.93877 117.675317 
L 297.493021 117.675317 
L 297.714721 116.438267 
L 298.268973 116.438267 
L 298.490673 115.355848 
L 299.044924 115.355848 
L 299.266624 114.42806 
L 299.820876 114.42806 
L 300.042576 113.577588 
L 300.596827 113.577588 
L 300.818527 111.799328 
L 301.372779 111.799328 
L 301.594479 110.175699 
L 302.14873 110.175699 
L 302.37043 109.402543 
L 302.924682 109.402543 
L 303.146382 109.170596 
L 303.700633 109.170596 
L 303.922333 107.701598 
L 304.476585 107.701598 
L 304.698285 105.923339 
L 305.363386 105.923339 
L 305.585087 104.377026 
L 306.139338 104.377026 
L 306.361038 103.371922 
L 306.915289 103.371922 
L 307.13699 101.748294 
L 307.691241 101.748294 
L 307.912941 100.047349 
L 308.467192 100.047349 
L 308.688893 98.191774 
L 309.243144 98.191774 
L 309.464844 96.49083 
L 310.019095 96.49083 
L 310.240796 95.408411 
L 310.795047 95.408411 
L 311.016747 94.325991 
L 311.570998 94.325991 
L 311.792699 92.625047 
L 312.34695 92.625047 
L 312.56865 90.924103 
L 313.122901 90.924103 
L 313.344602 89.687053 
L 313.898853 89.687053 
L 314.120553 88.372687 
L 314.674804 88.372687 
L 314.896505 86.671742 
L 315.450756 86.671742 
L 315.672456 84.816167 
L 316.337558 84.816167 
L 316.559258 82.80596 
L 317.113509 82.80596 
L 317.335209 81.259647 
L 317.889461 81.259647 
L 318.111161 80.022597 
L 318.665412 80.022597 
L 318.887112 78.940178 
L 319.441364 78.940178 
L 319.663064 77.239233 
L 320.217315 77.239233 
L 320.439015 75.306342 
L 320.993267 75.306342 
L 321.214967 74.45587 
L 321.769218 74.45587 
L 321.990918 73.450767 
L 322.54517 73.450767 
L 322.76687 72.754926 
L 323.321121 72.754926 
L 323.542821 71.595191 
L 324.097073 71.595191 
L 324.318773 69.584984 
L 324.873024 69.584984 
L 325.094724 67.729409 
L 325.648976 67.729409 
L 325.870676 66.569674 
L 326.424927 66.569674 
L 326.646627 65.409939 
L 327.311729 65.409939 
L 327.533429 64.095573 
L 328.08768 64.095573 
L 328.309381 62.703892 
L 328.863632 62.703892 
L 329.085332 61.080263 
L 329.639583 61.080263 
L 329.861284 59.997844 
L 330.415535 59.997844 
L 330.637235 58.992741 
L 331.191486 58.992741 
L 331.413187 57.601059 
L 331.967438 57.601059 
L 332.189138 55.281589 
L 332.743389 55.281589 
L 332.96509 53.889908 
L 333.519341 53.889908 
L 333.741041 53.271383 
L 334.295292 53.271383 
L 334.516993 52.652857 
L 335.071244 52.652857 
L 335.292944 51.957017 
L 335.847195 51.957017 
L 336.068896 50.410704 
L 336.623147 50.410704 
L 336.844847 50.178757 
L 337.509949 50.178757 
L 337.731649 50.024125 
L 338.2859 50.024125 
L 338.5076 49.714863 
L 339.061852 49.714863 
L 339.283552 49.096338 
L 339.837803 49.096338 
L 340.059503 48.632444 
L 340.613755 48.632444 
L 340.835455 48.16855 
L 341.389706 48.16855 
L 341.611406 47.859287 
L 342.941609 47.781972 
L 343.163309 47.472709 
L 343.717561 47.472709 
L 343.939261 47.240762 
L 344.493512 47.240762 
L 344.715212 46.776868 
L 345.269464 46.776868 
L 345.491164 46.544921 
L 346.045415 46.544921 
L 346.267115 46.312974 
L 346.821367 46.312974 
L 347.043067 45.926396 
L 347.597318 45.926396 
L 347.819018 45.539818 
L 348.48412 45.539818 
L 348.70582 45.385187 
L 350.811974 45.307871 
L 351.033675 45.15324 
L 351.587926 45.15324 
L 351.809626 44.766661 
L 352.363877 44.766661 
L 352.585578 44.457399 
L 353.91578 44.380083 
L 354.137481 44.225452 
L 354.691732 44.225452 
L 354.913432 44.070821 
L 355.467683 44.070821 
L 355.689384 43.606927 
L 357.795538 43.529611 
L 358.017238 43.452295 
L 358.571489 43.452295 
L 358.79319 43.143033 
L 359.458291 43.143033 
L 359.679991 42.679139 
L 360.234243 42.679139 
L 360.455943 42.447192 
L 361.010194 42.447192 
L 361.231894 42.292561 
L 362.562097 42.215245 
L 362.783797 41.751351 
L 363.338049 41.751351 
L 363.559749 41.364773 
L 364.114 41.364773 
L 364.3357 41.132826 
L 364.889952 41.132826 
L 365.111652 40.746248 
L 367.217806 40.668932 
L 367.439506 40.35967 
L 367.993758 40.35967 
L 368.215458 39.895776 
L 368.769709 39.895776 
L 368.991409 39.663829 
L 370.432462 39.586513 
L 370.654163 39.354566 
L 371.208414 39.354566 
L 371.430114 39.199935 
L 371.984365 39.199935 
L 372.206066 38.967988 
L 372.760317 38.967988 
L 372.982017 38.736041 
L 374.31222 38.736041 
L 374.53392 38.58141 
L 375.088171 38.58141 
L 375.309872 38.426778 
L 378.967929 38.349463 
L 379.189629 38.272147 
L 386.838294 38.194831 
L 387.059994 38.117516 
L 642.458889 38.0402 
L 642.680589 37.962884 
L 876.907093 37.885569 
L 876.907093 37.885569 
" clip-path="url(#p2def32ebef)" style="fill: none; stroke: #ff7f0e; stroke-width: 2; stroke-linecap: square"/>
   </g>
   <g id="patch_3">
    <path d="M 92.974375 331.120625 
L 92.974375 23.76 
" style="fill: none; stroke: #000000; stroke-width: 0.8; stroke-linejoin: miter; stroke-linecap: square"/>
   </g>
   <g id="patch_4">
    <path d="M 876.84375 331.120625 
L 876.84375 23.76 
" style="fill: none; stroke: #000000; stroke-width: 0.8; stroke-linejoin: miter; stroke-linecap: square"/>
   </g>
   <g id="patch_5">
    <path d="M 92.974375 331.120625 
L 876.84375 331.120625 
" style="fill: none; stroke: #000000; stroke-width: 0.8; stroke-linejoin: miter; stroke-linecap: square"/>
   </g>
   <g id="patch_6">
    <path d="M 92.974375 23.76 
L 876.84375 23.76 
" style="fill: none; stroke: #000000; stroke-width: 0.8; stroke-linejoin: miter; stroke-linecap: square"/>
   </g>
   <g id="legend_1">
    <g id="patch_7">
     <path d="M 613.68 319.120625 
L 860.04375 319.120625 
Q 864.84375 319.120625 864.84375 314.320625 
L 864.84375 245.598125 
Q 864.84375 240.798125 860.04375 240.798125 
L 613.68 240.798125 
Q 608.88 240.798125 608.88 245.598125 
L 608.88 314.320625 
Q 608.88 319.120625 613.68 319.120625 
z
" style="fill: #ffffff; opacity: 0.8; stroke: #cccccc; stroke-linejoin: miter"/>
    </g>
    <g id="line2d_27">
     <path d="M 618.48 260.234375 
L 642.48 260.234375 
L 666.48 260.234375 
" style="fill: none; stroke: #1f77b4; stroke-width: 2; stroke-linecap: square"/>
    </g>
    <g id="text_15">
     <!-- basic_prealloc -->
     <g transform="translate(685.68 268.634375)scale(0.24 -0.24)">
      <defs>
       <path id="DejaVuSans-62" d="M 3116 1747 
Q 3116 2381 2855 2742 
Q 2594 3103 2138 3103 
Q 1681 3103 1420 2742 
Q 1159 2381 1159 1747 
Q 1159 1113 1420 752 
Q 1681 391 2138 391 
Q 2594 391 2855 752 
Q 3116 1113 3116 1747 
z
M 1159 2969 
Q 1341 3281 1617 3432 
Q 1894 3584 2278 3584 
Q 2916 3584 3314 3078 
Q 3713 2572 3713 1747 
Q 3713 922 3314 415 
Q 2916 -91 2278 -91 
Q 1894 -91 1617 61 
Q 1341 213 1159 525 
L 1159 0 
L 581 0 
L 581 4863 
L 1159 4863 
L 1159 2969 
z
" transform="scale(0.015625)"/>
       <path id="DejaVuSans-61" d="M 2194 1759 
Q 1497 1759 1228 1600 
Q 959 1441 959 1056 
Q 959 750 1161 570 
Q 1363 391 1709 391 
Q 2188 391 2477 730 
Q 2766 1069 2766 1631 
L 2766 1759 
L 2194 1759 
z
M 3341 1997 
L 3341 0 
L 2766 0 
L 2766 531 
Q 2569 213 2275 61 
Q 1981 -91 1556 -91 
Q 1019 -91 701 211 
Q 384 513 384 1019 
Q 384 1609 779 1909 
Q 1175 2209 1959 2209 
L 2766 2209 
L 2766 2266 
Q 2766 2663 2505 2880 
Q 2244 3097 1772 3097 
Q 1472 3097 1187 3025 
Q 903 2953 641 2809 
L 641 3341 
Q 956 3463 1253 3523 
Q 1550 3584 1831 3584 
Q 2591 3584 2966 3190 
Q 3341 2797 3341 1997 
z
" transform="scale(0.015625)"/>
       <path id="DejaVuSans-5f" d="M 3263 -1063 
L 3263 -1509 
L -63 -1509 
L -63 -1063 
L 3263 -1063 
z
" transform="scale(0.015625)"/>
       <path id="DejaVuSans-70" d="M 1159 525 
L 1159 -1331 
L 581 -1331 
L 581 3500 
L 1159 3500 
L 1159 2969 
Q 1341 3281 1617 3432 
Q 1894 3584 2278 3584 
Q 2916 3584 3314 3078 
Q 3713 2572 3713 1747 
Q 3713 922 3314 415 
Q 2916 -91 2278 -91 
Q 1894 -91 1617 61 
Q 1341 213 1159 525 
z
M 3116 1747 
Q 3116 2381 2855 2742 
Q 2594 3103 2138 3103 
Q 1681 3103 1420 2742 
Q 1159 2381 1159 1747 
Q 1159 1113 1420 752 
Q 1681 391 2138 391 
Q 2594 391 2855 752 
Q 3116 1113 3116 1747 
z
" transform="scale(0.015625)"/>
      </defs>
      <use xlink:href="#DejaVuSans-62"/>
      <use xlink:href="#DejaVuSans-61" x="63.476562"/>
      <use xlink:href="#DejaVuSans-73" x="124.755859"/>
      <use xlink:href="#DejaVuSans-69" x="176.855469"/>
      <use xlink:href="#DejaVuSans-63" x="204.638672"/>
      <use xlink:href="#DejaVuSans-5f" x="259.619141"/>
      <use xlink:href="#DejaVuSans-70" x="309.619141"/>
      <use xlink:href="#DejaVuSans-72" x="373.095703"/>
      <use xlink:href="#DejaVuSans-65" x="411.958984"/>
      <use xlink:href="#DejaVuSans-61" x="473.482422"/>
      <use xlink:href="#DejaVuSans-6c" x="534.761719"/>
      <use xlink:href="#DejaVuSans-6c" x="562.544922"/>
      <use xlink:href="#DejaVuSans-6f" x="590.328125"/>
      <use xlink:href="#DejaVuSans-63" x="651.509766"/>
     </g>
    </g>
    <g id="line2d_28">
     <path d="M 618.48 296.129375 
L 642.48 296.129375 
L 666.48 296.129375 
" style="fill: none; stroke: #ff7f0e; stroke-width: 2; stroke-linecap: square"/>
    </g>
    <g id="text_16">
     <!-- Default -->
     <g transform="translate(685.68 304.529375)scale(0.24 -0.24)">
      <defs>
       <path id="DejaVuSans-44" d="M 1259 4147 
L 1259 519 
L 2022 519 
Q 2988 519 3436 956 
Q 3884 1394 3884 2338 
Q 3884 3275 3436 3711 
Q 2988 4147 2022 4147 
L 1259 4147 
z
M 628 4666 
L 1925 4666 
Q 3281 4666 3915 4102 
Q 4550 3538 4550 2338 
Q 4550 1131 3912 565 
Q 3275 0 1925 0 
L 628 0 
L 628 4666 
z
" transform="scale(0.015625)"/>
       <path id="DejaVuSans-74" d="M 1172 4494 
L 1172 3500 
L 2356 3500 
L 2356 3053 
L 1172 3053 
L 1172 1153 
Q 1172 725 1289 603 
Q 1406 481 1766 481 
L 2356 481 
L 2356 0 
L 1766 0 
Q 1100 0 847 248 
Q 594 497 594 1153 
L 594 3053 
L 172 3053 
L 172 3500 
L 594 3500 
L 594 4494 
L 1172 4494 
z
" transform="scale(0.015625)"/>
      </defs>
      <use xlink:href="#DejaVuSans-44"/>
      <use xlink:href="#DejaVuSans-65" x="77.001953"/>
      <use xlink:href="#DejaVuSans-66" x="138.525391"/>
      <use xlink:href="#DejaVuSans-61" x="173.730469"/>
      <use xlink:href="#DejaVuSans-75" x="235.009766"/>
      <use xlink:href="#DejaVuSans-6c" x="298.388672"/>
      <use xlink:href="#DejaVuSans-74" x="326.171875"/>
     </g>
    </g>
   </g>
  </g>
 </g>
 <defs>
  <clipPath id="p2def32ebef">
   <rect x="92.974375" y="23.76" width="783.869375" height="307.360625"/>
  </clipPath>
 </defs>
</svg>
