<?xml version="1.0" encoding="utf-8" standalone="no"?>
<!DOCTYPE svg PUBLIC "-//W3C//DTD SVG 1.1//EN"
  "http://www.w3.org/Graphics/SVG/1.1/DTD/svg11.dtd">
<svg xmlns:xlink="http://www.w3.org/1999/xlink" width="921.6pt" height="410.4pt" viewBox="0 0 921.6 410.4" xmlns="http://www.w3.org/2000/svg" version="1.1">
 <metadata>
  <rdf:RDF xmlns:dc="http://purl.org/dc/elements/1.1/" xmlns:cc="http://creativecommons.org/ns#" xmlns:rdf="http://www.w3.org/1999/02/22-rdf-syntax-ns#">
   <cc:Work>
    <dc:type rdf:resource="http://purl.org/dc/dcmitype/StillImage"/>
    <dc:date>2023-04-17T18:33:12.097308</dc:date>
    <dc:format>image/svg+xml</dc:format>
    <dc:creator>
     <cc:Agent>
      <dc:title>Matplotlib v3.5.3, https://matplotlib.org/</dc:title>
     </cc:Agent>
    </dc:creator>
   </cc:Work>
  </rdf:RDF>
 </metadata>
 <defs>
  <style type="text/css">*{stroke-linejoin: round; stroke-linecap: butt}</style>
 </defs>
 <g id="figure_1">
  <g id="patch_1">
   <path d="M 0 410.4 
L 921.6 410.4 
L 921.6 0 
L 0 0 
L 0 410.4 
z
" style="fill: none"/>
  </g>
  <g id="axes_1">
   <g id="patch_2">
    <path d="M 92.974375 331.120625 
L 876.84375 331.120625 
L 876.84375 23.76 
L 92.974375 23.76 
z
" style="fill: #ffffff"/>
   </g>
   <g id="matplotlib.axis_1">
    <g id="xtick_1">
     <g id="line2d_1">
      <path d="M 92.974375 331.120625 
L 92.974375 23.76 
" clip-path="url(#p0950af922d)" style="fill: none; stroke: #b0b0b0; stroke-width: 0.8; stroke-linecap: square"/>
     </g>
     <g id="line2d_2">
      <defs>
       <path id="m11225a5bdf" d="M 0 0 
L 0 3.5 
" style="stroke: #000000; stroke-width: 0.8"/>
      </defs>
      <g>
       <use xlink:href="#m11225a5bdf" x="92.974375" y="331.120625" style="stroke: #000000; stroke-width: 0.8"/>
      </g>
     </g>
     <g id="text_1">
      <!-- 0 -->
      <g transform="translate(85.975625 354.837188)scale(0.22 -0.22)">
       <defs>
        <path id="DejaVuSans-30" d="M 2034 4250 
Q 1547 4250 1301 3770 
Q 1056 3291 1056 2328 
Q 1056 1369 1301 889 
Q 1547 409 2034 409 
Q 2525 409 2770 889 
Q 3016 1369 3016 2328 
Q 3016 3291 2770 3770 
Q 2525 4250 2034 4250 
z
M 2034 4750 
Q 2819 4750 3233 4129 
Q 3647 3509 3647 2328 
Q 3647 1150 3233 529 
Q 2819 -91 2034 -91 
Q 1250 -91 836 529 
Q 422 1150 422 2328 
Q 422 3509 836 4129 
Q 1250 4750 2034 4750 
z
" transform="scale(0.015625)"/>
       </defs>
       <use xlink:href="#DejaVuSans-30"/>
      </g>
     </g>
    </g>
    <g id="xtick_2">
     <g id="line2d_3">
      <path d="M 249.74825 331.120625 
L 249.74825 23.76 
" clip-path="url(#p0950af922d)" style="fill: none; stroke: #b0b0b0; stroke-width: 0.8; stroke-linecap: square"/>
     </g>
     <g id="line2d_4">
      <g>
       <use xlink:href="#m11225a5bdf" x="249.74825" y="331.120625" style="stroke: #000000; stroke-width: 0.8"/>
      </g>
     </g>
     <g id="text_2">
      <!-- 20 -->
      <g transform="translate(235.75075 354.837188)scale(0.22 -0.22)">
       <defs>
        <path id="DejaVuSans-32" d="M 1228 531 
L 3431 531 
L 3431 0 
L 469 0 
L 469 531 
Q 828 903 1448 1529 
Q 2069 2156 2228 2338 
Q 2531 2678 2651 2914 
Q 2772 3150 2772 3378 
Q 2772 3750 2511 3984 
Q 2250 4219 1831 4219 
Q 1534 4219 1204 4116 
Q 875 4013 500 3803 
L 500 4441 
Q 881 4594 1212 4672 
Q 1544 4750 1819 4750 
Q 2544 4750 2975 4387 
Q 3406 4025 3406 3419 
Q 3406 3131 3298 2873 
Q 3191 2616 2906 2266 
Q 2828 2175 2409 1742 
Q 1991 1309 1228 531 
z
" transform="scale(0.015625)"/>
       </defs>
       <use xlink:href="#DejaVuSans-32"/>
       <use xlink:href="#DejaVuSans-30" x="63.623047"/>
      </g>
     </g>
    </g>
    <g id="xtick_3">
     <g id="line2d_5">
      <path d="M 406.522125 331.120625 
L 406.522125 23.76 
" clip-path="url(#p0950af922d)" style="fill: none; stroke: #b0b0b0; stroke-width: 0.8; stroke-linecap: square"/>
     </g>
     <g id="line2d_6">
      <g>
       <use xlink:href="#m11225a5bdf" x="406.522125" y="331.120625" style="stroke: #000000; stroke-width: 0.8"/>
      </g>
     </g>
     <g id="text_3">
      <!-- 40 -->
      <g transform="translate(392.524625 354.837188)scale(0.22 -0.22)">
       <defs>
        <path id="DejaVuSans-34" d="M 2419 4116 
L 825 1625 
L 2419 1625 
L 2419 4116 
z
M 2253 4666 
L 3047 4666 
L 3047 1625 
L 3713 1625 
L 3713 1100 
L 3047 1100 
L 3047 0 
L 2419 0 
L 2419 1100 
L 313 1100 
L 313 1709 
L 2253 4666 
z
" transform="scale(0.015625)"/>
       </defs>
       <use xlink:href="#DejaVuSans-34"/>
       <use xlink:href="#DejaVuSans-30" x="63.623047"/>
      </g>
     </g>
    </g>
    <g id="xtick_4">
     <g id="line2d_7">
      <path d="M 563.296 331.120625 
L 563.296 23.76 
" clip-path="url(#p0950af922d)" style="fill: none; stroke: #b0b0b0; stroke-width: 0.8; stroke-linecap: square"/>
     </g>
     <g id="line2d_8">
      <g>
       <use xlink:href="#m11225a5bdf" x="563.296" y="331.120625" style="stroke: #000000; stroke-width: 0.8"/>
      </g>
     </g>
     <g id="text_4">
      <!-- 60 -->
      <g transform="translate(549.2985 354.837188)scale(0.22 -0.22)">
       <defs>
        <path id="DejaVuSans-36" d="M 2113 2584 
Q 1688 2584 1439 2293 
Q 1191 2003 1191 1497 
Q 1191 994 1439 701 
Q 1688 409 2113 409 
Q 2538 409 2786 701 
Q 3034 994 3034 1497 
Q 3034 2003 2786 2293 
Q 2538 2584 2113 2584 
z
M 3366 4563 
L 3366 3988 
Q 3128 4100 2886 4159 
Q 2644 4219 2406 4219 
Q 1781 4219 1451 3797 
Q 1122 3375 1075 2522 
Q 1259 2794 1537 2939 
Q 1816 3084 2150 3084 
Q 2853 3084 3261 2657 
Q 3669 2231 3669 1497 
Q 3669 778 3244 343 
Q 2819 -91 2113 -91 
Q 1303 -91 875 529 
Q 447 1150 447 2328 
Q 447 3434 972 4092 
Q 1497 4750 2381 4750 
Q 2619 4750 2861 4703 
Q 3103 4656 3366 4563 
z
" transform="scale(0.015625)"/>
       </defs>
       <use xlink:href="#DejaVuSans-36"/>
       <use xlink:href="#DejaVuSans-30" x="63.623047"/>
      </g>
     </g>
    </g>
    <g id="xtick_5">
     <g id="line2d_9">
      <path d="M 720.069875 331.120625 
L 720.069875 23.76 
" clip-path="url(#p0950af922d)" style="fill: none; stroke: #b0b0b0; stroke-width: 0.8; stroke-linecap: square"/>
     </g>
     <g id="line2d_10">
      <g>
       <use xlink:href="#m11225a5bdf" x="720.069875" y="331.120625" style="stroke: #000000; stroke-width: 0.8"/>
      </g>
     </g>
     <g id="text_5">
      <!-- 80 -->
      <g transform="translate(706.072375 354.837188)scale(0.22 -0.22)">
       <defs>
        <path id="DejaVuSans-38" d="M 2034 2216 
Q 1584 2216 1326 1975 
Q 1069 1734 1069 1313 
Q 1069 891 1326 650 
Q 1584 409 2034 409 
Q 2484 409 2743 651 
Q 3003 894 3003 1313 
Q 3003 1734 2745 1975 
Q 2488 2216 2034 2216 
z
M 1403 2484 
Q 997 2584 770 2862 
Q 544 3141 544 3541 
Q 544 4100 942 4425 
Q 1341 4750 2034 4750 
Q 2731 4750 3128 4425 
Q 3525 4100 3525 3541 
Q 3525 3141 3298 2862 
Q 3072 2584 2669 2484 
Q 3125 2378 3379 2068 
Q 3634 1759 3634 1313 
Q 3634 634 3220 271 
Q 2806 -91 2034 -91 
Q 1263 -91 848 271 
Q 434 634 434 1313 
Q 434 1759 690 2068 
Q 947 2378 1403 2484 
z
M 1172 3481 
Q 1172 3119 1398 2916 
Q 1625 2713 2034 2713 
Q 2441 2713 2670 2916 
Q 2900 3119 2900 3481 
Q 2900 3844 2670 4047 
Q 2441 4250 2034 4250 
Q 1625 4250 1398 4047 
Q 1172 3844 1172 3481 
z
" transform="scale(0.015625)"/>
       </defs>
       <use xlink:href="#DejaVuSans-38"/>
       <use xlink:href="#DejaVuSans-30" x="63.623047"/>
      </g>
     </g>
    </g>
    <g id="xtick_6">
     <g id="line2d_11">
      <path d="M 876.84375 331.120625 
L 876.84375 23.76 
" clip-path="url(#p0950af922d)" style="fill: none; stroke: #b0b0b0; stroke-width: 0.8; stroke-linecap: square"/>
     </g>
     <g id="line2d_12">
      <g>
       <use xlink:href="#m11225a5bdf" x="876.84375" y="331.120625" style="stroke: #000000; stroke-width: 0.8"/>
      </g>
     </g>
     <g id="text_6">
      <!-- 100 -->
      <g transform="translate(855.8475 354.837188)scale(0.22 -0.22)">
       <defs>
        <path id="DejaVuSans-31" d="M 794 531 
L 1825 531 
L 1825 4091 
L 703 3866 
L 703 4441 
L 1819 4666 
L 2450 4666 
L 2450 531 
L 3481 531 
L 3481 0 
L 794 0 
L 794 531 
z
" transform="scale(0.015625)"/>
       </defs>
       <use xlink:href="#DejaVuSans-31"/>
       <use xlink:href="#DejaVuSans-30" x="63.623047"/>
       <use xlink:href="#DejaVuSans-30" x="127.246094"/>
      </g>
     </g>
    </g>
    <g id="text_7">
     <!-- RTT (ms) -->
     <g transform="translate(431.874687 381.64875)scale(0.24 -0.24)">
      <defs>
       <path id="DejaVuSans-52" d="M 2841 2188 
Q 3044 2119 3236 1894 
Q 3428 1669 3622 1275 
L 4263 0 
L 3584 0 
L 2988 1197 
Q 2756 1666 2539 1819 
Q 2322 1972 1947 1972 
L 1259 1972 
L 1259 0 
L 628 0 
L 628 4666 
L 2053 4666 
Q 2853 4666 3247 4331 
Q 3641 3997 3641 3322 
Q 3641 2881 3436 2590 
Q 3231 2300 2841 2188 
z
M 1259 4147 
L 1259 2491 
L 2053 2491 
Q 2509 2491 2742 2702 
Q 2975 2913 2975 3322 
Q 2975 3731 2742 3939 
Q 2509 4147 2053 4147 
L 1259 4147 
z
" transform="scale(0.015625)"/>
       <path id="DejaVuSans-54" d="M -19 4666 
L 3928 4666 
L 3928 4134 
L 2272 4134 
L 2272 0 
L 1638 0 
L 1638 4134 
L -19 4134 
L -19 4666 
z
" transform="scale(0.015625)"/>
       <path id="DejaVuSans-20" transform="scale(0.015625)"/>
       <path id="DejaVuSans-28" d="M 1984 4856 
Q 1566 4138 1362 3434 
Q 1159 2731 1159 2009 
Q 1159 1288 1364 580 
Q 1569 -128 1984 -844 
L 1484 -844 
Q 1016 -109 783 600 
Q 550 1309 550 2009 
Q 550 2706 781 3412 
Q 1013 4119 1484 4856 
L 1984 4856 
z
" transform="scale(0.015625)"/>
       <path id="DejaVuSans-6d" d="M 3328 2828 
Q 3544 3216 3844 3400 
Q 4144 3584 4550 3584 
Q 5097 3584 5394 3201 
Q 5691 2819 5691 2113 
L 5691 0 
L 5113 0 
L 5113 2094 
Q 5113 2597 4934 2840 
Q 4756 3084 4391 3084 
Q 3944 3084 3684 2787 
Q 3425 2491 3425 1978 
L 3425 0 
L 2847 0 
L 2847 2094 
Q 2847 2600 2669 2842 
Q 2491 3084 2119 3084 
Q 1678 3084 1418 2786 
Q 1159 2488 1159 1978 
L 1159 0 
L 581 0 
L 581 3500 
L 1159 3500 
L 1159 2956 
Q 1356 3278 1631 3431 
Q 1906 3584 2284 3584 
Q 2666 3584 2933 3390 
Q 3200 3197 3328 2828 
z
" transform="scale(0.015625)"/>
       <path id="DejaVuSans-73" d="M 2834 3397 
L 2834 2853 
Q 2591 2978 2328 3040 
Q 2066 3103 1784 3103 
Q 1356 3103 1142 2972 
Q 928 2841 928 2578 
Q 928 2378 1081 2264 
Q 1234 2150 1697 2047 
L 1894 2003 
Q 2506 1872 2764 1633 
Q 3022 1394 3022 966 
Q 3022 478 2636 193 
Q 2250 -91 1575 -91 
Q 1294 -91 989 -36 
Q 684 19 347 128 
L 347 722 
Q 666 556 975 473 
Q 1284 391 1588 391 
Q 1994 391 2212 530 
Q 2431 669 2431 922 
Q 2431 1156 2273 1281 
Q 2116 1406 1581 1522 
L 1381 1569 
Q 847 1681 609 1914 
Q 372 2147 372 2553 
Q 372 3047 722 3315 
Q 1072 3584 1716 3584 
Q 2034 3584 2315 3537 
Q 2597 3491 2834 3397 
z
" transform="scale(0.015625)"/>
       <path id="DejaVuSans-29" d="M 513 4856 
L 1013 4856 
Q 1481 4119 1714 3412 
Q 1947 2706 1947 2009 
Q 1947 1309 1714 600 
Q 1481 -109 1013 -844 
L 513 -844 
Q 928 -128 1133 580 
Q 1338 1288 1338 2009 
Q 1338 2731 1133 3434 
Q 928 4138 513 4856 
z
" transform="scale(0.015625)"/>
      </defs>
      <use xlink:href="#DejaVuSans-52"/>
      <use xlink:href="#DejaVuSans-54" x="62.232422"/>
      <use xlink:href="#DejaVuSans-54" x="121.566406"/>
      <use xlink:href="#DejaVuSans-20" x="182.650391"/>
      <use xlink:href="#DejaVuSans-28" x="214.4375"/>
      <use xlink:href="#DejaVuSans-6d" x="253.451172"/>
      <use xlink:href="#DejaVuSans-73" x="350.863281"/>
      <use xlink:href="#DejaVuSans-29" x="402.962891"/>
     </g>
    </g>
   </g>
   <g id="matplotlib.axis_2">
    <g id="ytick_1">
     <g id="line2d_13">
      <path d="M 92.974375 317.149688 
L 876.84375 317.149688 
" clip-path="url(#p0950af922d)" style="fill: none; stroke: #b0b0b0; stroke-width: 0.8; stroke-linecap: square"/>
     </g>
     <g id="line2d_14">
      <defs>
       <path id="m09a23871ca" d="M 0 0 
L -3.5 0 
" style="stroke: #000000; stroke-width: 0.8"/>
      </defs>
      <g>
       <use xlink:href="#m09a23871ca" x="92.974375" y="317.149688" style="stroke: #000000; stroke-width: 0.8"/>
      </g>
     </g>
     <g id="text_8">
      <!-- 0.0 -->
      <g transform="translate(50.9875 325.507969)scale(0.22 -0.22)">
       <defs>
        <path id="DejaVuSans-2e" d="M 684 794 
L 1344 794 
L 1344 0 
L 684 0 
L 684 794 
z
" transform="scale(0.015625)"/>
       </defs>
       <use xlink:href="#DejaVuSans-30"/>
       <use xlink:href="#DejaVuSans-2e" x="63.623047"/>
       <use xlink:href="#DejaVuSans-30" x="95.410156"/>
      </g>
     </g>
    </g>
    <g id="ytick_2">
     <g id="line2d_15">
      <path d="M 92.974375 261.265938 
L 876.84375 261.265938 
" clip-path="url(#p0950af922d)" style="fill: none; stroke: #b0b0b0; stroke-width: 0.8; stroke-linecap: square"/>
     </g>
     <g id="line2d_16">
      <g>
       <use xlink:href="#m09a23871ca" x="92.974375" y="261.265938" style="stroke: #000000; stroke-width: 0.8"/>
      </g>
     </g>
     <g id="text_9">
      <!-- 0.2 -->
      <g transform="translate(50.9875 269.624219)scale(0.22 -0.22)">
       <use xlink:href="#DejaVuSans-30"/>
       <use xlink:href="#DejaVuSans-2e" x="63.623047"/>
       <use xlink:href="#DejaVuSans-32" x="95.410156"/>
      </g>
     </g>
    </g>
    <g id="ytick_3">
     <g id="line2d_17">
      <path d="M 92.974375 205.382188 
L 876.84375 205.382188 
" clip-path="url(#p0950af922d)" style="fill: none; stroke: #b0b0b0; stroke-width: 0.8; stroke-linecap: square"/>
     </g>
     <g id="line2d_18">
      <g>
       <use xlink:href="#m09a23871ca" x="92.974375" y="205.382188" style="stroke: #000000; stroke-width: 0.8"/>
      </g>
     </g>
     <g id="text_10">
      <!-- 0.4 -->
      <g transform="translate(50.9875 213.740469)scale(0.22 -0.22)">
       <use xlink:href="#DejaVuSans-30"/>
       <use xlink:href="#DejaVuSans-2e" x="63.623047"/>
       <use xlink:href="#DejaVuSans-34" x="95.410156"/>
      </g>
     </g>
    </g>
    <g id="ytick_4">
     <g id="line2d_19">
      <path d="M 92.974375 149.498438 
L 876.84375 149.498438 
" clip-path="url(#p0950af922d)" style="fill: none; stroke: #b0b0b0; stroke-width: 0.8; stroke-linecap: square"/>
     </g>
     <g id="line2d_20">
      <g>
       <use xlink:href="#m09a23871ca" x="92.974375" y="149.498438" style="stroke: #000000; stroke-width: 0.8"/>
      </g>
     </g>
     <g id="text_11">
      <!-- 0.6 -->
      <g transform="translate(50.9875 157.856719)scale(0.22 -0.22)">
       <use xlink:href="#DejaVuSans-30"/>
       <use xlink:href="#DejaVuSans-2e" x="63.623047"/>
       <use xlink:href="#DejaVuSans-36" x="95.410156"/>
      </g>
     </g>
    </g>
    <g id="ytick_5">
     <g id="line2d_21">
      <path d="M 92.974375 93.614688 
L 876.84375 93.614688 
" clip-path="url(#p0950af922d)" style="fill: none; stroke: #b0b0b0; stroke-width: 0.8; stroke-linecap: square"/>
     </g>
     <g id="line2d_22">
      <g>
       <use xlink:href="#m09a23871ca" x="92.974375" y="93.614688" style="stroke: #000000; stroke-width: 0.8"/>
      </g>
     </g>
     <g id="text_12">
      <!-- 0.8 -->
      <g transform="translate(50.9875 101.972969)scale(0.22 -0.22)">
       <use xlink:href="#DejaVuSans-30"/>
       <use xlink:href="#DejaVuSans-2e" x="63.623047"/>
       <use xlink:href="#DejaVuSans-38" x="95.410156"/>
      </g>
     </g>
    </g>
    <g id="ytick_6">
     <g id="line2d_23">
      <path d="M 92.974375 37.730937 
L 876.84375 37.730937 
" clip-path="url(#p0950af922d)" style="fill: none; stroke: #b0b0b0; stroke-width: 0.8; stroke-linecap: square"/>
     </g>
     <g id="line2d_24">
      <g>
       <use xlink:href="#m09a23871ca" x="92.974375" y="37.730937" style="stroke: #000000; stroke-width: 0.8"/>
      </g>
     </g>
     <g id="text_13">
      <!-- 1.0 -->
      <g transform="translate(50.9875 46.089219)scale(0.22 -0.22)">
       <use xlink:href="#DejaVuSans-31"/>
       <use xlink:href="#DejaVuSans-2e" x="63.623047"/>
       <use xlink:href="#DejaVuSans-30" x="95.410156"/>
      </g>
     </g>
    </g>
    <g id="text_14">
     <!-- Likelihood of occurrence -->
     <g transform="translate(41.99625 323.628438)rotate(-90)scale(0.24 -0.24)">
      <defs>
       <path id="DejaVuSans-4c" d="M 628 4666 
L 1259 4666 
L 1259 531 
L 3531 531 
L 3531 0 
L 628 0 
L 628 4666 
z
" transform="scale(0.015625)"/>
       <path id="DejaVuSans-69" d="M 603 3500 
L 1178 3500 
L 1178 0 
L 603 0 
L 603 3500 
z
M 603 4863 
L 1178 4863 
L 1178 4134 
L 603 4134 
L 603 4863 
z
" transform="scale(0.015625)"/>
       <path id="DejaVuSans-6b" d="M 581 4863 
L 1159 4863 
L 1159 1991 
L 2875 3500 
L 3609 3500 
L 1753 1863 
L 3688 0 
L 2938 0 
L 1159 1709 
L 1159 0 
L 581 0 
L 581 4863 
z
" transform="scale(0.015625)"/>
       <path id="DejaVuSans-65" d="M 3597 1894 
L 3597 1613 
L 953 1613 
Q 991 1019 1311 708 
Q 1631 397 2203 397 
Q 2534 397 2845 478 
Q 3156 559 3463 722 
L 3463 178 
Q 3153 47 2828 -22 
Q 2503 -91 2169 -91 
Q 1331 -91 842 396 
Q 353 884 353 1716 
Q 353 2575 817 3079 
Q 1281 3584 2069 3584 
Q 2775 3584 3186 3129 
Q 3597 2675 3597 1894 
z
M 3022 2063 
Q 3016 2534 2758 2815 
Q 2500 3097 2075 3097 
Q 1594 3097 1305 2825 
Q 1016 2553 972 2059 
L 3022 2063 
z
" transform="scale(0.015625)"/>
       <path id="DejaVuSans-6c" d="M 603 4863 
L 1178 4863 
L 1178 0 
L 603 0 
L 603 4863 
z
" transform="scale(0.015625)"/>
       <path id="DejaVuSans-68" d="M 3513 2113 
L 3513 0 
L 2938 0 
L 2938 2094 
Q 2938 2591 2744 2837 
Q 2550 3084 2163 3084 
Q 1697 3084 1428 2787 
Q 1159 2491 1159 1978 
L 1159 0 
L 581 0 
L 581 4863 
L 1159 4863 
L 1159 2956 
Q 1366 3272 1645 3428 
Q 1925 3584 2291 3584 
Q 2894 3584 3203 3211 
Q 3513 2838 3513 2113 
z
" transform="scale(0.015625)"/>
       <path id="DejaVuSans-6f" d="M 1959 3097 
Q 1497 3097 1228 2736 
Q 959 2375 959 1747 
Q 959 1119 1226 758 
Q 1494 397 1959 397 
Q 2419 397 2687 759 
Q 2956 1122 2956 1747 
Q 2956 2369 2687 2733 
Q 2419 3097 1959 3097 
z
M 1959 3584 
Q 2709 3584 3137 3096 
Q 3566 2609 3566 1747 
Q 3566 888 3137 398 
Q 2709 -91 1959 -91 
Q 1206 -91 779 398 
Q 353 888 353 1747 
Q 353 2609 779 3096 
Q 1206 3584 1959 3584 
z
" transform="scale(0.015625)"/>
       <path id="DejaVuSans-64" d="M 2906 2969 
L 2906 4863 
L 3481 4863 
L 3481 0 
L 2906 0 
L 2906 525 
Q 2725 213 2448 61 
Q 2172 -91 1784 -91 
Q 1150 -91 751 415 
Q 353 922 353 1747 
Q 353 2572 751 3078 
Q 1150 3584 1784 3584 
Q 2172 3584 2448 3432 
Q 2725 3281 2906 2969 
z
M 947 1747 
Q 947 1113 1208 752 
Q 1469 391 1925 391 
Q 2381 391 2643 752 
Q 2906 1113 2906 1747 
Q 2906 2381 2643 2742 
Q 2381 3103 1925 3103 
Q 1469 3103 1208 2742 
Q 947 2381 947 1747 
z
" transform="scale(0.015625)"/>
       <path id="DejaVuSans-66" d="M 2375 4863 
L 2375 4384 
L 1825 4384 
Q 1516 4384 1395 4259 
Q 1275 4134 1275 3809 
L 1275 3500 
L 2222 3500 
L 2222 3053 
L 1275 3053 
L 1275 0 
L 697 0 
L 697 3053 
L 147 3053 
L 147 3500 
L 697 3500 
L 697 3744 
Q 697 4328 969 4595 
Q 1241 4863 1831 4863 
L 2375 4863 
z
" transform="scale(0.015625)"/>
       <path id="DejaVuSans-63" d="M 3122 3366 
L 3122 2828 
Q 2878 2963 2633 3030 
Q 2388 3097 2138 3097 
Q 1578 3097 1268 2742 
Q 959 2388 959 1747 
Q 959 1106 1268 751 
Q 1578 397 2138 397 
Q 2388 397 2633 464 
Q 2878 531 3122 666 
L 3122 134 
Q 2881 22 2623 -34 
Q 2366 -91 2075 -91 
Q 1284 -91 818 406 
Q 353 903 353 1747 
Q 353 2603 823 3093 
Q 1294 3584 2113 3584 
Q 2378 3584 2631 3529 
Q 2884 3475 3122 3366 
z
" transform="scale(0.015625)"/>
       <path id="DejaVuSans-75" d="M 544 1381 
L 544 3500 
L 1119 3500 
L 1119 1403 
Q 1119 906 1312 657 
Q 1506 409 1894 409 
Q 2359 409 2629 706 
Q 2900 1003 2900 1516 
L 2900 3500 
L 3475 3500 
L 3475 0 
L 2900 0 
L 2900 538 
Q 2691 219 2414 64 
Q 2138 -91 1772 -91 
Q 1169 -91 856 284 
Q 544 659 544 1381 
z
M 1991 3584 
L 1991 3584 
z
" transform="scale(0.015625)"/>
       <path id="DejaVuSans-72" d="M 2631 2963 
Q 2534 3019 2420 3045 
Q 2306 3072 2169 3072 
Q 1681 3072 1420 2755 
Q 1159 2438 1159 1844 
L 1159 0 
L 581 0 
L 581 3500 
L 1159 3500 
L 1159 2956 
Q 1341 3275 1631 3429 
Q 1922 3584 2338 3584 
Q 2397 3584 2469 3576 
Q 2541 3569 2628 3553 
L 2631 2963 
z
" transform="scale(0.015625)"/>
       <path id="DejaVuSans-6e" d="M 3513 2113 
L 3513 0 
L 2938 0 
L 2938 2094 
Q 2938 2591 2744 2837 
Q 2550 3084 2163 3084 
Q 1697 3084 1428 2787 
Q 1159 2491 1159 1978 
L 1159 0 
L 581 0 
L 581 3500 
L 1159 3500 
L 1159 2956 
Q 1366 3272 1645 3428 
Q 1925 3584 2291 3584 
Q 2894 3584 3203 3211 
Q 3513 2838 3513 2113 
z
" transform="scale(0.015625)"/>
      </defs>
      <use xlink:href="#DejaVuSans-4c"/>
      <use xlink:href="#DejaVuSans-69" x="55.712891"/>
      <use xlink:href="#DejaVuSans-6b" x="83.496094"/>
      <use xlink:href="#DejaVuSans-65" x="137.78125"/>
      <use xlink:href="#DejaVuSans-6c" x="199.304688"/>
      <use xlink:href="#DejaVuSans-69" x="227.087891"/>
      <use xlink:href="#DejaVuSans-68" x="254.871094"/>
      <use xlink:href="#DejaVuSans-6f" x="318.25"/>
      <use xlink:href="#DejaVuSans-6f" x="379.431641"/>
      <use xlink:href="#DejaVuSans-64" x="440.613281"/>
      <use xlink:href="#DejaVuSans-20" x="504.089844"/>
      <use xlink:href="#DejaVuSans-6f" x="535.876953"/>
      <use xlink:href="#DejaVuSans-66" x="597.058594"/>
      <use xlink:href="#DejaVuSans-20" x="632.263672"/>
      <use xlink:href="#DejaVuSans-6f" x="664.050781"/>
      <use xlink:href="#DejaVuSans-63" x="725.232422"/>
      <use xlink:href="#DejaVuSans-63" x="780.212891"/>
      <use xlink:href="#DejaVuSans-75" x="835.193359"/>
      <use xlink:href="#DejaVuSans-72" x="898.572266"/>
      <use xlink:href="#DejaVuSans-72" x="937.935547"/>
      <use xlink:href="#DejaVuSans-65" x="976.798828"/>
      <use xlink:href="#DejaVuSans-6e" x="1038.322266"/>
      <use xlink:href="#DejaVuSans-63" x="1101.701172"/>
      <use xlink:href="#DejaVuSans-65" x="1156.681641"/>
     </g>
    </g>
   </g>
   <g id="line2d_25">
    <path d="M 92.974375 317.149688 
L 167.79827 317.073197 
L 168.154574 316.996707 
L 208.060651 316.920217 
L 208.416956 316.843727 
L 210.376629 316.767236 
L 210.732933 316.690746 
L 212.692607 316.614256 
L 212.870759 316.461276 
L 214.295976 316.384785 
L 214.474128 316.231805 
L 215.008585 316.231805 
L 215.186737 316.078825 
L 215.899345 316.078825 
L 216.077497 315.925844 
L 218.215323 315.849354 
L 218.571627 315.772864 
L 219.818692 315.772864 
L 219.996844 315.619883 
L 220.531301 315.619883 
L 220.709453 315.466903 
L 222.847278 315.390413 
L 223.203583 315.313922 
L 223.738039 315.313922 
L 223.916191 315.084452 
L 227.657386 315.007962 
L 228.01369 314.931471 
L 229.973363 314.854981 
L 230.329668 314.778491 
L 232.289341 314.702001 
L 232.645645 314.62551 
L 235.49608 314.54902 
L 235.674232 314.39604 
L 237.812057 314.39604 
L 237.990209 314.243059 
L 241.731404 314.166569 
L 241.909556 314.013589 
L 243.334773 314.013589 
L 243.512925 313.860608 
L 244.047382 313.860608 
L 244.225534 313.631138 
L 244.938142 313.631138 
L 245.116295 313.478157 
L 247.25412 313.401667 
L 247.432272 313.095706 
L 247.966729 313.095706 
L 248.144881 312.866236 
L 248.857489 312.866236 
L 249.035641 312.560275 
L 249.570098 312.560275 
L 249.74825 312.254314 
L 250.282706 312.254314 
L 250.460859 312.024843 
L 251.173467 312.024843 
L 251.351619 311.871863 
L 251.886076 311.871863 
L 252.064228 311.718882 
L 253.489445 311.718882 
L 253.667597 311.412921 
L 254.202053 311.412921 
L 254.380205 311.183451 
L 255.092814 311.183451 
L 255.270966 311.03047 
L 255.805422 311.03047 
L 255.983575 310.571529 
L 256.696183 310.571529 
L 256.874335 310.265568 
L 257.408792 310.265568 
L 257.586944 309.883117 
L 258.1214 309.883117 
L 258.299552 309.730137 
L 259.012161 309.730137 
L 259.190313 309.500666 
L 259.724769 309.500666 
L 259.902921 309.194705 
L 260.61553 309.194705 
L 260.793682 308.735764 
L 261.328138 308.735764 
L 261.506291 308.047352 
L 262.040747 308.047352 
L 262.218899 307.511921 
L 262.931508 307.511921 
L 263.10966 306.976489 
L 263.644116 306.976489 
L 263.822268 306.670528 
L 264.534877 306.670528 
L 264.713029 305.599665 
L 265.247485 305.599665 
L 265.425637 305.140724 
L 265.960094 305.140724 
L 266.138246 304.681783 
L 266.850855 304.681783 
L 267.029007 303.993371 
L 267.563463 303.993371 
L 267.741615 303.075488 
L 268.454224 303.075488 
L 268.632376 301.928135 
L 269.166832 301.928135 
L 269.344984 300.474821 
L 269.879441 300.474821 
L 270.057593 299.021507 
L 270.770201 299.021507 
L 270.948354 297.721173 
L 271.48281 297.721173 
L 271.660962 297.185742 
L 272.373571 297.185742 
L 272.551723 295.579447 
L 273.086179 295.579447 
L 273.264331 293.973153 
L 273.97694 293.973153 
L 274.155092 293.05527 
L 274.689548 293.05527 
L 274.8677 292.137388 
L 275.402157 292.137388 
L 275.580309 290.225132 
L 276.292917 290.225132 
L 276.47107 288.848308 
L 277.005526 288.848308 
L 277.183678 287.394994 
L 277.896287 287.394994 
L 278.074439 286.018171 
L 278.608895 286.018171 
L 278.787047 285.253268 
L 279.321504 285.253268 
L 279.499656 284.335386 
L 280.212264 284.335386 
L 280.390416 282.958562 
L 280.924873 282.958562 
L 281.103025 280.969817 
L 281.815634 280.969817 
L 281.993786 279.745973 
L 282.528242 279.745973 
L 282.706394 278.369149 
L 283.240851 278.369149 
L 283.419003 277.298286 
L 284.131611 277.298286 
L 284.309763 275.997953 
L 284.84422 275.997953 
L 285.022372 275.08007 
L 285.73498 275.08007 
L 285.913133 273.779736 
L 286.447589 273.779736 
L 286.625741 272.249932 
L 287.160197 272.249932 
L 287.33835 271.56152 
L 288.050958 271.56152 
L 288.22911 270.643638 
L 288.763567 270.643638 
L 288.941719 269.113833 
L 289.654327 269.113833 
L 289.832479 268.195951 
L 290.366936 268.195951 
L 290.545088 266.972107 
L 291.079544 266.972107 
L 291.257696 265.977735 
L 291.970305 265.977735 
L 292.148457 264.37144 
L 292.682913 264.37144 
L 292.861066 262.918126 
L 293.573674 262.918126 
L 293.751826 261.082361 
L 294.286283 261.082361 
L 294.464435 259.935008 
L 294.998891 259.935008 
L 295.177043 259.093615 
L 295.889652 259.093615 
L 296.067804 258.175733 
L 296.60226 258.175733 
L 296.780413 256.569438 
L 297.493021 256.569438 
L 297.671173 255.269105 
L 298.20563 255.269105 
L 298.383782 254.198242 
L 298.918238 254.198242 
L 299.09639 252.897908 
L 299.808999 252.897908 
L 299.987151 251.903535 
L 300.521607 251.903535 
L 300.699759 250.603202 
L 301.412368 250.603202 
L 301.59052 249.073397 
L 302.124976 249.073397 
L 302.303129 247.849554 
L 302.837585 247.849554 
L 303.015737 246.855181 
L 303.728346 246.855181 
L 303.906498 245.248887 
L 304.440954 245.248887 
L 304.619106 242.571729 
L 305.331715 242.571729 
L 305.509867 241.041925 
L 306.044323 241.041925 
L 306.222475 239.741591 
L 306.756932 239.741591 
L 306.935084 238.211787 
L 307.647692 238.211787 
L 307.825845 236.911454 
L 308.360301 236.911454 
L 308.538453 234.922708 
L 309.251062 234.922708 
L 309.429214 233.010453 
L 309.96367 233.010453 
L 310.141822 231.557139 
L 310.676279 231.557139 
L 310.854431 230.715746 
L 311.567039 230.715746 
L 311.745191 229.491903 
L 312.279648 229.491903 
L 312.4578 227.732628 
L 313.170409 227.732628 
L 313.348561 226.355804 
L 313.883017 226.355804 
L 314.061169 225.284941 
L 314.595626 225.284941 
L 314.773778 223.984607 
L 315.486386 223.984607 
L 315.664538 222.454803 
L 316.198995 222.454803 
L 316.377147 221.23096 
L 317.089755 221.23096 
L 317.267908 219.165724 
L 317.802364 219.165724 
L 317.980516 218.171351 
L 318.514972 218.171351 
L 318.693125 216.947508 
L 319.405733 216.947508 
L 319.583885 216.029625 
L 320.118342 216.029625 
L 320.296494 213.734919 
L 321.009102 213.734919 
L 321.187254 212.740546 
L 321.721711 212.740546 
L 321.899863 211.593193 
L 322.434319 211.593193 
L 322.612471 210.44584 
L 323.32508 210.44584 
L 323.503232 208.380604 
L 324.037688 208.380604 
L 324.215841 207.15676 
L 324.928449 207.15676 
L 325.106601 206.238878 
L 325.641058 206.238878 
L 325.81921 204.785564 
L 326.353666 204.785564 
L 326.531818 203.48523 
L 327.244427 203.48523 
L 327.422579 202.414367 
L 327.957035 202.414367 
L 328.135187 200.119661 
L 328.847796 200.119661 
L 329.025948 198.513366 
L 329.560405 198.513366 
L 329.738557 197.824954 
L 330.273013 197.824954 
L 330.451165 196.21866 
L 331.163774 196.21866 
L 331.341926 194.382895 
L 331.876382 194.382895 
L 332.054534 193.082561 
L 332.767143 193.082561 
L 332.945295 190.634874 
L 333.479751 190.634874 
L 333.657904 189.487521 
L 334.19236 189.487521 
L 334.370512 188.646129 
L 335.083121 188.646129 
L 335.261273 187.116325 
L 335.795729 187.116325 
L 335.973881 185.204069 
L 336.68649 185.204069 
L 336.864642 183.597775 
L 337.399098 183.597775 
L 337.57725 182.450421 
L 338.111707 182.450421 
L 338.289859 181.150088 
L 339.002467 181.150088 
L 339.18062 179.773264 
L 339.715076 179.773264 
L 339.893228 178.47293 
L 340.605837 178.47293 
L 340.783989 177.019616 
L 341.318445 177.019616 
L 341.496597 175.413322 
L 342.031054 175.413322 
L 342.209206 174.418949 
L 342.921814 174.418949 
L 343.099966 172.736164 
L 343.634423 172.736164 
L 343.812575 170.823909 
L 344.525184 170.823909 
L 344.703336 169.600066 
L 345.237792 169.600066 
L 345.415944 168.682183 
L 345.950401 168.682183 
L 346.128553 167.7643 
L 346.841161 167.7643 
L 347.019313 166.387477 
L 347.55377 166.387477 
L 347.731922 164.475221 
L 348.44453 164.475221 
L 348.622683 163.251378 
L 349.157139 163.251378 
L 349.335291 161.874554 
L 349.869747 161.874554 
L 350.0479 160.49773 
L 350.760508 160.49773 
L 350.93866 159.273887 
L 351.473117 159.273887 
L 351.651269 157.361631 
L 352.363877 157.361631 
L 352.542029 155.678847 
L 353.076486 155.678847 
L 353.254638 154.684474 
L 353.789094 154.684474 
L 353.967246 153.537121 
L 354.679855 153.537121 
L 354.858007 152.542748 
L 355.392463 152.542748 
L 355.570616 151.089434 
L 356.283224 151.089434 
L 356.461376 149.253669 
L 356.995833 149.253669 
L 357.173985 148.488767 
L 357.708441 148.488767 
L 357.886593 147.494394 
L 358.599202 147.494394 
L 358.777354 146.653002 
L 359.31181 146.653002 
L 359.489962 144.511276 
L 360.202571 144.511276 
L 360.380723 142.981471 
L 360.91518 142.981471 
L 361.093332 141.834118 
L 361.627788 141.834118 
L 361.80594 139.921863 
L 362.518549 139.921863 
L 362.696701 138.468549 
L 363.231157 138.468549 
L 363.409309 137.168215 
L 364.121918 137.168215 
L 364.30007 134.949999 
L 364.834526 134.949999 
L 365.012679 133.802646 
L 365.547135 133.802646 
L 365.725287 132.655292 
L 366.437896 132.655292 
L 366.616048 131.125488 
L 367.150504 131.125488 
L 367.328656 129.366213 
L 368.041265 129.366213 
L 368.219417 127.912899 
L 368.753873 127.912899 
L 368.932025 126.689056 
L 369.466482 126.689056 
L 369.644634 125.618193 
L 370.357242 125.618193 
L 370.535395 124.241369 
L 371.069851 124.241369 
L 371.248003 123.094016 
L 371.960612 123.094016 
L 372.138764 122.099643 
L 372.67322 122.099643 
L 372.851372 121.18176 
L 373.385829 121.18176 
L 373.563981 120.416858 
L 374.276589 120.416858 
L 374.454741 119.269505 
L 374.989198 119.269505 
L 375.16735 116.898308 
L 375.879959 116.898308 
L 376.058111 115.368504 
L 376.592567 115.368504 
L 376.770719 114.068171 
L 377.305176 114.068171 
L 377.483328 112.997308 
L 378.195936 112.997308 
L 378.374088 111.314523 
L 378.908545 111.314523 
L 379.086697 110.473131 
L 379.799305 110.473131 
L 379.977458 109.325777 
L 380.511914 109.325777 
L 380.690066 107.872463 
L 381.224522 107.872463 
L 381.402675 106.72511 
L 382.115283 106.72511 
L 382.293435 105.501267 
L 382.827892 105.501267 
L 383.006044 103.28305 
L 383.718652 103.28305 
L 383.896804 102.365168 
L 384.431261 102.365168 
L 384.609413 101.141325 
L 385.143869 101.141325 
L 385.322021 99.993971 
L 386.03463 99.993971 
L 386.212782 98.693638 
L 386.747238 98.693638 
L 386.925391 97.622775 
L 387.637999 97.622775 
L 387.816151 96.704892 
L 388.350608 96.704892 
L 388.52876 96.01648 
L 389.063216 96.01648 
L 389.241368 95.251578 
L 389.953977 95.251578 
L 390.132129 93.186342 
L 390.666585 93.186342 
L 390.844737 90.585675 
L 391.557346 90.585675 
L 391.735498 88.90289 
L 392.269955 88.90289 
L 392.448107 87.755537 
L 392.982563 87.755537 
L 393.160715 86.302223 
L 393.873324 86.302223 
L 394.051476 84.389968 
L 394.585932 84.389968 
L 394.764084 83.242615 
L 395.476693 83.242615 
L 395.654845 81.7893 
L 396.189301 81.7893 
L 396.367454 80.641947 
L 396.90191 80.641947 
L 397.080062 79.724065 
L 397.792671 79.724065 
L 397.970823 78.04128 
L 398.505279 78.04128 
L 398.683431 76.282005 
L 399.39604 76.282005 
L 399.574192 74.828691 
L 400.108648 74.828691 
L 400.2868 73.757828 
L 400.821257 73.757828 
L 400.999409 72.763455 
L 401.712017 72.763455 
L 401.89017 71.386631 
L 402.424626 71.386631 
L 402.602778 69.321396 
L 403.315387 69.321396 
L 403.493539 67.791591 
L 404.027995 67.791591 
L 404.206147 66.720728 
L 404.740604 66.720728 
L 404.918756 65.879336 
L 405.631364 65.879336 
L 405.809516 64.961454 
L 406.343973 64.961454 
L 406.522125 63.58463 
L 407.234734 63.58463 
L 407.412886 62.207806 
L 407.947342 62.207806 
L 408.125494 61.366413 
L 408.659951 61.366413 
L 408.838103 60.448531 
L 409.550711 60.448531 
L 409.728863 59.377668 
L 410.26332 59.377668 
L 410.441472 58.153825 
L 411.15408 58.153825 
L 411.332233 57.006471 
L 411.866689 57.006471 
L 412.044841 56.012099 
L 412.579297 56.012099 
L 412.75745 55.017726 
L 413.470058 55.017726 
L 413.64821 53.717392 
L 414.182667 53.717392 
L 414.360819 52.034607 
L 415.073427 52.034607 
L 415.251579 50.963744 
L 415.786036 50.963744 
L 415.964188 50.275333 
L 416.498644 50.275333 
L 416.676796 49.127979 
L 417.389405 49.127979 
L 417.567557 48.210097 
L 418.102013 48.210097 
L 418.280166 47.445195 
L 418.992774 47.445195 
L 419.170926 46.680292 
L 419.705383 46.680292 
L 419.883535 45.609429 
L 420.417991 45.609429 
L 420.596143 45.226978 
L 421.308752 45.226978 
L 421.486904 44.538567 
L 422.02136 44.538567 
L 422.199512 43.238233 
L 422.912121 43.238233 
L 423.090273 42.396841 
L 423.62473 42.396841 
L 423.802882 42.24386 
L 424.337338 42.24386 
L 424.51549 41.555448 
L 425.228099 41.555448 
L 425.406251 41.325978 
L 425.940707 41.325978 
L 426.118859 41.172997 
L 426.831468 41.172997 
L 427.00962 41.020017 
L 428.256685 41.020017 
L 428.434837 40.790546 
L 429.147446 40.790546 
L 429.325598 40.637566 
L 430.750815 40.637566 
L 430.928967 40.484585 
L 431.463423 40.484585 
L 431.641575 40.255115 
L 436.095379 40.178624 
L 436.273531 40.025644 
L 436.986139 40.025644 
L 437.164291 39.872663 
L 439.302117 39.796173 
L 439.658421 39.719683 
L 440.905486 39.719683 
L 441.083638 39.566703 
L 442.508855 39.490212 
L 442.687008 39.260742 
L 444.824833 39.184252 
L 445.181137 39.107761 
L 451.060158 39.031271 
L 451.23831 38.878291 
L 454.979505 38.8018 
L 455.335809 38.72531 
L 461.214829 38.72531 
L 461.392981 38.57233 
L 490.253626 38.49584 
L 490.609931 38.419349 
L 611.040771 38.342859 
L 611.397075 38.266369 
L 693.347055 38.189879 
L 693.70336 38.113389 
L 728.621177 38.036898 
L 728.977482 37.960408 
L 750.533889 37.883918 
L 750.890194 37.807428 
L 877.021902 37.807428 
L 877.021902 37.807428 
" clip-path="url(#p0950af922d)" style="fill: none; stroke: #1f77b4; stroke-width: 2; stroke-linecap: square"/>
   </g>
   <g id="line2d_26">
    <path d="M 92.974375 317.149688 
L 138.759473 317.072372 
L 139.115777 316.995056 
L 140.362842 316.917741 
L 140.719146 316.840425 
L 141.609907 316.763109 
L 142.144363 316.608478 
L 146.954471 316.531162 
L 147.310775 316.453847 
L 148.023383 316.376531 
L 148.379688 316.299215 
L 151.408274 316.2219 
L 151.94273 316.067268 
L 154.971316 315.989953 
L 155.327621 315.912637 
L 158.178055 315.835321 
L 158.534359 315.758006 
L 167.976422 315.68069 
L 168.332726 315.603375 
L 174.389899 315.526059 
L 174.568051 315.294112 
L 175.815116 315.216796 
L 176.17142 315.139481 
L 176.705876 315.139481 
L 176.884029 314.907534 
L 177.418485 314.907534 
L 177.596637 314.366324 
L 178.309246 314.366324 
L 178.487398 314.057062 
L 179.021854 314.057062 
L 179.200006 313.670483 
L 179.734463 313.670483 
L 179.912615 313.051958 
L 180.625223 313.051958 
L 180.803375 312.510749 
L 181.337832 312.510749 
L 181.515984 312.12417 
L 182.228592 312.12417 
L 182.406745 311.196383 
L 182.941201 311.196383 
L 183.119353 309.418123 
L 183.65381 309.418123 
L 183.831962 308.258388 
L 184.54457 308.258388 
L 184.722722 307.794494 
L 185.257179 307.794494 
L 185.435331 307.098653 
L 186.147939 307.098653 
L 186.326091 305.706972 
L 186.860548 305.706972 
L 187.0387 304.083343 
L 187.573156 304.083343 
L 187.751309 303.07824 
L 188.463917 303.07824 
L 188.642069 302.691661 
L 189.176526 302.691661 
L 189.354678 301.841189 
L 190.067286 301.841189 
L 190.245438 300.449508 
L 190.779895 300.449508 
L 190.958047 299.135142 
L 191.492503 299.135142 
L 191.670655 297.588829 
L 192.383264 297.588829 
L 192.561416 296.429094 
L 193.095872 296.429094 
L 193.274025 295.733253 
L 193.986633 295.733253 
L 194.164785 294.496203 
L 194.699242 294.496203 
L 194.877394 293.027205 
L 195.41185 293.027205 
L 195.590002 291.944786 
L 196.302611 291.944786 
L 196.480763 290.785052 
L 197.015219 290.785052 
L 197.193371 290.089211 
L 197.90598 290.089211 
L 198.084132 288.233635 
L 198.618588 288.233635 
L 198.796741 286.455375 
L 199.331197 286.455375 
L 199.509349 284.5998 
L 200.221958 284.5998 
L 200.40011 283.672012 
L 200.934566 283.672012 
L 201.112718 283.208118 
L 201.825327 283.208118 
L 202.003479 281.816437 
L 202.537935 281.816437 
L 202.716088 280.424755 
L 203.250544 280.424755 
L 203.428696 279.187705 
L 204.141305 279.187705 
L 204.319457 278.02797 
L 204.853913 278.02797 
L 205.032065 277.177498 
L 205.744674 277.177498 
L 205.922826 275.785816 
L 206.457282 275.785816 
L 206.635434 274.316819 
L 207.169891 274.316819 
L 207.348043 272.770506 
L 208.060651 272.770506 
L 208.238804 271.997349 
L 208.77326 271.997349 
L 208.951412 271.301509 
L 209.664021 271.301509 
L 209.842173 270.141774 
L 210.376629 270.141774 
L 210.554781 268.750092 
L 211.089238 268.750092 
L 211.26739 267.667673 
L 211.979998 267.667673 
L 212.15815 266.585254 
L 212.692607 266.585254 
L 212.870759 266.198676 
L 213.583367 266.198676 
L 213.76152 264.806994 
L 214.295976 264.806994 
L 214.474128 264.033838 
L 215.008585 264.033838 
L 215.186737 262.951419 
L 215.899345 262.951419 
L 216.077497 262.410209 
L 216.611954 262.410209 
L 216.790106 260.941212 
L 217.502714 260.941212 
L 217.680866 259.858793 
L 218.215323 259.858793 
L 218.393475 258.235164 
L 218.927931 258.235164 
L 219.106084 256.766167 
L 219.818692 256.766167 
L 219.996844 255.374485 
L 220.531301 255.374485 
L 220.709453 254.678644 
L 221.422061 254.678644 
L 221.600213 252.900384 
L 222.13467 252.900384 
L 222.312822 250.039705 
L 222.847278 250.039705 
L 223.02543 248.957286 
L 223.738039 248.957286 
L 223.916191 247.720236 
L 224.450647 247.720236 
L 224.6288 246.869764 
L 225.341408 246.869764 
L 225.51956 245.400767 
L 226.054017 245.400767 
L 226.232169 243.699822 
L 226.766625 243.699822 
L 226.944777 241.6123 
L 227.657386 241.6123 
L 227.835538 240.761828 
L 228.369994 240.761828 
L 228.548146 239.83404 
L 229.260755 239.83404 
L 229.438907 237.978464 
L 229.973363 237.978464 
L 230.151516 236.122889 
L 230.685972 236.122889 
L 230.864124 234.885839 
L 231.576733 234.885839 
L 231.754885 234.421945 
L 232.289341 234.421945 
L 232.467493 233.571473 
L 233.180102 233.571473 
L 233.358254 231.715897 
L 233.89271 231.715897 
L 234.070863 229.628375 
L 234.605319 229.628375 
L 234.783471 227.618168 
L 235.49608 227.618168 
L 235.674232 226.922327 
L 236.208688 226.922327 
L 236.38684 225.762592 
L 237.099449 225.762592 
L 237.277601 223.907017 
L 237.812057 223.907017 
L 237.990209 222.283388 
L 238.524666 222.283388 
L 238.702818 220.969022 
L 239.415426 220.969022 
L 239.593579 220.11855 
L 240.128035 220.11855 
L 240.306187 219.268078 
L 241.018796 219.268078 
L 241.196948 217.489818 
L 241.731404 217.489818 
L 241.909556 216.020821 
L 242.444013 216.020821 
L 242.622165 213.778667 
L 243.334773 213.778667 
L 243.512925 212.696248 
L 244.047382 212.696248 
L 244.225534 211.691144 
L 244.938142 211.691144 
L 245.116295 210.686041 
L 245.650751 210.686041 
L 245.828903 208.830465 
L 246.36336 208.830465 
L 246.541512 207.438784 
L 247.25412 207.438784 
L 247.432272 206.279049 
L 247.966729 206.279049 
L 248.144881 205.583208 
L 248.857489 205.583208 
L 249.035641 203.804948 
L 249.570098 203.804948 
L 249.74825 202.258635 
L 250.282706 202.258635 
L 250.460859 200.480375 
L 251.173467 200.480375 
L 251.351619 199.243325 
L 251.886076 199.243325 
L 252.064228 198.392853 
L 252.776836 198.392853 
L 252.954988 196.769224 
L 253.489445 196.769224 
L 253.667597 194.990964 
L 254.202053 194.990964 
L 254.380205 193.444652 
L 255.092814 193.444652 
L 255.270966 192.207601 
L 255.805422 192.207601 
L 255.983575 191.279813 
L 256.696183 191.279813 
L 256.874335 189.501554 
L 257.408792 189.501554 
L 257.586944 187.723294 
L 258.1214 187.723294 
L 258.299552 186.408928 
L 259.012161 186.408928 
L 259.190313 185.790402 
L 259.724769 185.790402 
L 259.902921 184.862615 
L 260.61553 184.862615 
L 260.793682 183.16167 
L 261.328138 183.16167 
L 261.506291 181.151464 
L 262.040747 181.151464 
L 262.218899 179.450519 
L 262.931508 179.450519 
L 263.10966 178.522732 
L 263.644116 178.522732 
L 263.822268 178.213469 
L 264.534877 178.213469 
L 264.713029 176.512525 
L 265.247485 176.512525 
L 265.425637 174.888896 
L 265.960094 174.888896 
L 266.138246 172.492111 
L 266.850855 172.492111 
L 267.029007 171.564323 
L 267.563463 171.564323 
L 267.741615 170.868482 
L 268.454224 170.868482 
L 268.632376 169.476801 
L 269.166832 169.476801 
L 269.344984 167.389278 
L 269.879441 167.389278 
L 270.057593 165.533703 
L 270.770201 165.533703 
L 270.948354 164.760546 
L 271.48281 164.760546 
L 271.660962 163.832759 
L 272.373571 163.832759 
L 272.551723 162.750339 
L 273.086179 162.750339 
L 273.264331 160.585501 
L 273.97694 160.585501 
L 274.155092 159.503082 
L 274.689548 159.503082 
L 274.8677 158.266032 
L 275.402157 158.266032 
L 275.580309 157.647507 
L 276.292917 157.647507 
L 276.47107 156.178509 
L 277.005526 156.178509 
L 277.183678 154.477565 
L 277.896287 154.477565 
L 278.074439 152.235411 
L 278.608895 152.235411 
L 278.787047 151.307624 
L 279.321504 151.307624 
L 279.499656 150.534467 
L 280.212264 150.534467 
L 280.390416 148.910839 
L 280.924873 148.910839 
L 281.103025 146.900632 
L 281.815634 146.900632 
L 281.993786 145.277003 
L 282.528242 145.277003 
L 282.706394 143.653375 
L 283.240851 143.653375 
L 283.419003 142.802902 
L 284.131611 142.802902 
L 284.309763 141.101958 
L 284.84422 141.101958 
L 285.022372 139.246383 
L 285.73498 139.246383 
L 285.913133 137.545438 
L 286.447589 137.545438 
L 286.625741 136.617651 
L 287.160197 136.617651 
L 287.33835 135.92181 
L 288.050958 135.92181 
L 288.22911 134.298181 
L 288.763567 134.298181 
L 288.941719 132.287974 
L 289.654327 132.287974 
L 289.832479 130.277768 
L 290.366936 130.277768 
L 290.545088 129.272664 
L 291.079544 129.272664 
L 291.257696 128.190245 
L 291.970305 128.190245 
L 292.148457 126.643932 
L 292.682913 126.643932 
L 292.861066 124.788357 
L 293.573674 124.788357 
L 293.751826 122.314256 
L 294.286283 122.314256 
L 294.464435 121.231837 
L 294.998891 121.231837 
L 295.177043 120.690627 
L 295.889652 120.690627 
L 296.067804 119.762839 
L 296.60226 119.762839 
L 296.780413 117.675317 
L 297.493021 117.675317 
L 297.671173 116.438267 
L 298.20563 116.438267 
L 298.383782 115.355848 
L 298.918238 115.355848 
L 299.09639 114.42806 
L 299.808999 114.42806 
L 299.987151 113.577588 
L 300.521607 113.577588 
L 300.699759 111.799328 
L 301.412368 111.799328 
L 301.59052 110.175699 
L 302.124976 110.175699 
L 302.303129 109.402543 
L 302.837585 109.402543 
L 303.015737 109.170596 
L 303.728346 109.170596 
L 303.906498 107.701598 
L 304.440954 107.701598 
L 304.619106 105.923339 
L 305.331715 105.923339 
L 305.509867 104.377026 
L 306.044323 104.377026 
L 306.222475 103.371922 
L 306.756932 103.371922 
L 306.935084 101.748294 
L 307.647692 101.748294 
L 307.825845 100.047349 
L 308.360301 100.047349 
L 308.538453 98.191774 
L 309.251062 98.191774 
L 309.429214 96.49083 
L 309.96367 96.49083 
L 310.141822 95.408411 
L 310.676279 95.408411 
L 310.854431 94.325991 
L 311.567039 94.325991 
L 311.745191 92.625047 
L 312.279648 92.625047 
L 312.4578 90.924103 
L 313.170409 90.924103 
L 313.348561 89.687053 
L 313.883017 89.687053 
L 314.061169 88.372687 
L 314.595626 88.372687 
L 314.773778 86.671742 
L 315.486386 86.671742 
L 315.664538 84.816167 
L 316.198995 84.816167 
L 316.377147 82.80596 
L 317.089755 82.80596 
L 317.267908 81.259647 
L 317.802364 81.259647 
L 317.980516 80.022597 
L 318.514972 80.022597 
L 318.693125 78.940178 
L 319.405733 78.940178 
L 319.583885 77.239233 
L 320.118342 77.239233 
L 320.296494 75.306342 
L 321.009102 75.306342 
L 321.187254 74.45587 
L 321.721711 74.45587 
L 321.899863 73.450767 
L 322.434319 73.450767 
L 322.612471 72.754926 
L 323.32508 72.754926 
L 323.503232 71.595191 
L 324.037688 71.595191 
L 324.215841 69.584984 
L 324.928449 69.584984 
L 325.106601 67.729409 
L 325.641058 67.729409 
L 325.81921 66.569674 
L 326.353666 66.569674 
L 326.531818 65.409939 
L 327.244427 65.409939 
L 327.422579 64.095573 
L 327.957035 64.095573 
L 328.135187 62.703892 
L 328.847796 62.703892 
L 329.025948 61.080263 
L 329.560405 61.080263 
L 329.738557 59.997844 
L 330.273013 59.997844 
L 330.451165 58.992741 
L 331.163774 58.992741 
L 331.341926 57.601059 
L 331.876382 57.601059 
L 332.054534 55.281589 
L 332.767143 55.281589 
L 332.945295 53.889908 
L 333.479751 53.889908 
L 333.657904 53.271383 
L 334.19236 53.271383 
L 334.370512 52.652857 
L 335.083121 52.652857 
L 335.261273 51.957017 
L 335.795729 51.957017 
L 335.973881 50.410704 
L 336.68649 50.410704 
L 336.864642 50.178757 
L 337.399098 50.178757 
L 337.57725 50.024125 
L 338.111707 50.024125 
L 338.289859 49.714863 
L 339.002467 49.714863 
L 339.18062 49.096338 
L 339.715076 49.096338 
L 339.893228 48.632444 
L 340.605837 48.632444 
L 340.783989 48.16855 
L 341.318445 48.16855 
L 341.496597 47.859287 
L 342.921814 47.781972 
L 343.099966 47.472709 
L 343.634423 47.472709 
L 343.812575 47.240762 
L 344.525184 47.240762 
L 344.703336 46.776868 
L 345.237792 46.776868 
L 345.415944 46.544921 
L 345.950401 46.544921 
L 346.128553 46.312974 
L 346.841161 46.312974 
L 347.019313 45.926396 
L 347.55377 45.926396 
L 347.731922 45.539818 
L 348.44453 45.539818 
L 348.622683 45.385187 
L 350.760508 45.307871 
L 350.93866 45.15324 
L 351.473117 45.15324 
L 351.651269 44.766661 
L 352.363877 44.766661 
L 352.542029 44.457399 
L 353.789094 44.380083 
L 353.967246 44.225452 
L 354.679855 44.225452 
L 354.858007 44.070821 
L 355.392463 44.070821 
L 355.570616 43.606927 
L 357.708441 43.529611 
L 358.064745 43.452295 
L 358.599202 43.452295 
L 358.777354 43.143033 
L 359.31181 43.143033 
L 359.489962 42.679139 
L 360.202571 42.679139 
L 360.380723 42.447192 
L 360.91518 42.447192 
L 361.093332 42.292561 
L 362.518549 42.215245 
L 362.696701 41.751351 
L 363.231157 41.751351 
L 363.409309 41.364773 
L 364.121918 41.364773 
L 364.30007 41.132826 
L 364.834526 41.132826 
L 365.012679 40.746248 
L 367.150504 40.668932 
L 367.328656 40.35967 
L 368.041265 40.35967 
L 368.219417 39.895776 
L 368.753873 39.895776 
L 368.932025 39.663829 
L 370.357242 39.586513 
L 370.535395 39.354566 
L 371.069851 39.354566 
L 371.248003 39.199935 
L 371.960612 39.199935 
L 372.138764 38.967988 
L 372.67322 38.967988 
L 372.851372 38.736041 
L 374.276589 38.736041 
L 374.454741 38.58141 
L 374.989198 38.58141 
L 375.16735 38.426778 
L 378.908545 38.349463 
L 379.264849 38.272147 
L 386.747238 38.194831 
L 387.103543 38.117516 
L 642.395546 38.0402 
L 642.75185 37.962884 
L 877.021902 37.885569 
L 877.021902 37.885569 
" clip-path="url(#p0950af922d)" style="fill: none; stroke: #ff7f0e; stroke-width: 2; stroke-linecap: square"/>
   </g>
   <g id="patch_3">
    <path d="M 92.974375 331.120625 
L 92.974375 23.76 
" style="fill: none; stroke: #000000; stroke-width: 0.8; stroke-linejoin: miter; stroke-linecap: square"/>
   </g>
   <g id="patch_4">
    <path d="M 876.84375 331.120625 
L 876.84375 23.76 
" style="fill: none; stroke: #000000; stroke-width: 0.8; stroke-linejoin: miter; stroke-linecap: square"/>
   </g>
   <g id="patch_5">
    <path d="M 92.974375 331.120625 
L 876.84375 331.120625 
" style="fill: none; stroke: #000000; stroke-width: 0.8; stroke-linejoin: miter; stroke-linecap: square"/>
   </g>
   <g id="patch_6">
    <path d="M 92.974375 23.76 
L 876.84375 23.76 
" style="fill: none; stroke: #000000; stroke-width: 0.8; stroke-linejoin: miter; stroke-linecap: square"/>
   </g>
   <g id="legend_1">
    <g id="patch_7">
     <path d="M 659.1225 319.120625 
L 860.04375 319.120625 
Q 864.84375 319.120625 864.84375 314.320625 
L 864.84375 245.598125 
Q 864.84375 240.798125 860.04375 240.798125 
L 659.1225 240.798125 
Q 654.3225 240.798125 654.3225 245.598125 
L 654.3225 314.320625 
Q 654.3225 319.120625 659.1225 319.120625 
z
" style="fill: #ffffff; opacity: 0.8; stroke: #cccccc; stroke-linejoin: miter"/>
    </g>
    <g id="line2d_27">
     <path d="M 663.9225 260.234375 
L 687.9225 260.234375 
L 711.9225 260.234375 
" style="fill: none; stroke: #1f77b4; stroke-width: 2; stroke-linecap: square"/>
    </g>
    <g id="text_15">
     <!-- DRX_1min -->
     <g transform="translate(731.1225 268.634375)scale(0.24 -0.24)">
      <defs>
       <path id="DejaVuSans-44" d="M 1259 4147 
L 1259 519 
L 2022 519 
Q 2988 519 3436 956 
Q 3884 1394 3884 2338 
Q 3884 3275 3436 3711 
Q 2988 4147 2022 4147 
L 1259 4147 
z
M 628 4666 
L 1925 4666 
Q 3281 4666 3915 4102 
Q 4550 3538 4550 2338 
Q 4550 1131 3912 565 
Q 3275 0 1925 0 
L 628 0 
L 628 4666 
z
" transform="scale(0.015625)"/>
       <path id="DejaVuSans-58" d="M 403 4666 
L 1081 4666 
L 2241 2931 
L 3406 4666 
L 4084 4666 
L 2584 2425 
L 4184 0 
L 3506 0 
L 2194 1984 
L 872 0 
L 191 0 
L 1856 2491 
L 403 4666 
z
" transform="scale(0.015625)"/>
       <path id="DejaVuSans-5f" d="M 3263 -1063 
L 3263 -1509 
L -63 -1509 
L -63 -1063 
L 3263 -1063 
z
" transform="scale(0.015625)"/>
      </defs>
      <use xlink:href="#DejaVuSans-44"/>
      <use xlink:href="#DejaVuSans-52" x="77.001953"/>
      <use xlink:href="#DejaVuSans-58" x="146.484375"/>
      <use xlink:href="#DejaVuSans-5f" x="214.990234"/>
      <use xlink:href="#DejaVuSans-31" x="264.990234"/>
      <use xlink:href="#DejaVuSans-6d" x="328.613281"/>
      <use xlink:href="#DejaVuSans-69" x="426.025391"/>
      <use xlink:href="#DejaVuSans-6e" x="453.808594"/>
     </g>
    </g>
    <g id="line2d_28">
     <path d="M 663.9225 296.129375 
L 687.9225 296.129375 
L 711.9225 296.129375 
" style="fill: none; stroke: #ff7f0e; stroke-width: 2; stroke-linecap: square"/>
    </g>
    <g id="text_16">
     <!-- Default -->
     <g transform="translate(731.1225 304.529375)scale(0.24 -0.24)">
      <defs>
       <path id="DejaVuSans-61" d="M 2194 1759 
Q 1497 1759 1228 1600 
Q 959 1441 959 1056 
Q 959 750 1161 570 
Q 1363 391 1709 391 
Q 2188 391 2477 730 
Q 2766 1069 2766 1631 
L 2766 1759 
L 2194 1759 
z
M 3341 1997 
L 3341 0 
L 2766 0 
L 2766 531 
Q 2569 213 2275 61 
Q 1981 -91 1556 -91 
Q 1019 -91 701 211 
Q 384 513 384 1019 
Q 384 1609 779 1909 
Q 1175 2209 1959 2209 
L 2766 2209 
L 2766 2266 
Q 2766 2663 2505 2880 
Q 2244 3097 1772 3097 
Q 1472 3097 1187 3025 
Q 903 2953 641 2809 
L 641 3341 
Q 956 3463 1253 3523 
Q 1550 3584 1831 3584 
Q 2591 3584 2966 3190 
Q 3341 2797 3341 1997 
z
" transform="scale(0.015625)"/>
       <path id="DejaVuSans-74" d="M 1172 4494 
L 1172 3500 
L 2356 3500 
L 2356 3053 
L 1172 3053 
L 1172 1153 
Q 1172 725 1289 603 
Q 1406 481 1766 481 
L 2356 481 
L 2356 0 
L 1766 0 
Q 1100 0 847 248 
Q 594 497 594 1153 
L 594 3053 
L 172 3053 
L 172 3500 
L 594 3500 
L 594 4494 
L 1172 4494 
z
" transform="scale(0.015625)"/>
      </defs>
      <use xlink:href="#DejaVuSans-44"/>
      <use xlink:href="#DejaVuSans-65" x="77.001953"/>
      <use xlink:href="#DejaVuSans-66" x="138.525391"/>
      <use xlink:href="#DejaVuSans-61" x="173.730469"/>
      <use xlink:href="#DejaVuSans-75" x="235.009766"/>
      <use xlink:href="#DejaVuSans-6c" x="298.388672"/>
      <use xlink:href="#DejaVuSans-74" x="326.171875"/>
     </g>
    </g>
   </g>
  </g>
 </g>
 <defs>
  <clipPath id="p0950af922d">
   <rect x="92.974375" y="23.76" width="783.869375" height="307.360625"/>
  </clipPath>
 </defs>
</svg>
