<?xml version="1.0" encoding="utf-8" standalone="no"?>
<!DOCTYPE svg PUBLIC "-//W3C//DTD SVG 1.1//EN"
  "http://www.w3.org/Graphics/SVG/1.1/DTD/svg11.dtd">
<svg xmlns:xlink="http://www.w3.org/1999/xlink" width="921.6pt" height="410.4pt" viewBox="0 0 921.6 410.4" xmlns="http://www.w3.org/2000/svg" version="1.1">
 <metadata>
  <rdf:RDF xmlns:dc="http://purl.org/dc/elements/1.1/" xmlns:cc="http://creativecommons.org/ns#" xmlns:rdf="http://www.w3.org/1999/02/22-rdf-syntax-ns#">
   <cc:Work>
    <dc:type rdf:resource="http://purl.org/dc/dcmitype/StillImage"/>
    <dc:date>2023-04-17T18:33:13.857064</dc:date>
    <dc:format>image/svg+xml</dc:format>
    <dc:creator>
     <cc:Agent>
      <dc:title>Matplotlib v3.5.3, https://matplotlib.org/</dc:title>
     </cc:Agent>
    </dc:creator>
   </cc:Work>
  </rdf:RDF>
 </metadata>
 <defs>
  <style type="text/css">*{stroke-linejoin: round; stroke-linecap: butt}</style>
 </defs>
 <g id="figure_1">
  <g id="patch_1">
   <path d="M 0 410.4 
L 921.6 410.4 
L 921.6 0 
L 0 0 
L 0 410.4 
z
" style="fill: none"/>
  </g>
  <g id="axes_1">
   <g id="patch_2">
    <path d="M 92.974375 331.120625 
L 876.84375 331.120625 
L 876.84375 23.76 
L 92.974375 23.76 
z
" style="fill: #ffffff"/>
   </g>
   <g id="matplotlib.axis_1">
    <g id="xtick_1">
     <g id="line2d_1">
      <path d="M 92.974375 331.120625 
L 92.974375 23.76 
" clip-path="url(#pa2a5d8e22c)" style="fill: none; stroke: #b0b0b0; stroke-width: 0.8; stroke-linecap: square"/>
     </g>
     <g id="line2d_2">
      <defs>
       <path id="m0696d23b5e" d="M 0 0 
L 0 3.5 
" style="stroke: #000000; stroke-width: 0.8"/>
      </defs>
      <g>
       <use xlink:href="#m0696d23b5e" x="92.974375" y="331.120625" style="stroke: #000000; stroke-width: 0.8"/>
      </g>
     </g>
     <g id="text_1">
      <!-- 0 -->
      <g transform="translate(85.975625 354.837188)scale(0.22 -0.22)">
       <defs>
        <path id="DejaVuSans-30" d="M 2034 4250 
Q 1547 4250 1301 3770 
Q 1056 3291 1056 2328 
Q 1056 1369 1301 889 
Q 1547 409 2034 409 
Q 2525 409 2770 889 
Q 3016 1369 3016 2328 
Q 3016 3291 2770 3770 
Q 2525 4250 2034 4250 
z
M 2034 4750 
Q 2819 4750 3233 4129 
Q 3647 3509 3647 2328 
Q 3647 1150 3233 529 
Q 2819 -91 2034 -91 
Q 1250 -91 836 529 
Q 422 1150 422 2328 
Q 422 3509 836 4129 
Q 1250 4750 2034 4750 
z
" transform="scale(0.015625)"/>
       </defs>
       <use xlink:href="#DejaVuSans-30"/>
      </g>
     </g>
    </g>
    <g id="xtick_2">
     <g id="line2d_3">
      <path d="M 249.74825 331.120625 
L 249.74825 23.76 
" clip-path="url(#pa2a5d8e22c)" style="fill: none; stroke: #b0b0b0; stroke-width: 0.8; stroke-linecap: square"/>
     </g>
     <g id="line2d_4">
      <g>
       <use xlink:href="#m0696d23b5e" x="249.74825" y="331.120625" style="stroke: #000000; stroke-width: 0.8"/>
      </g>
     </g>
     <g id="text_2">
      <!-- 20 -->
      <g transform="translate(235.75075 354.837188)scale(0.22 -0.22)">
       <defs>
        <path id="DejaVuSans-32" d="M 1228 531 
L 3431 531 
L 3431 0 
L 469 0 
L 469 531 
Q 828 903 1448 1529 
Q 2069 2156 2228 2338 
Q 2531 2678 2651 2914 
Q 2772 3150 2772 3378 
Q 2772 3750 2511 3984 
Q 2250 4219 1831 4219 
Q 1534 4219 1204 4116 
Q 875 4013 500 3803 
L 500 4441 
Q 881 4594 1212 4672 
Q 1544 4750 1819 4750 
Q 2544 4750 2975 4387 
Q 3406 4025 3406 3419 
Q 3406 3131 3298 2873 
Q 3191 2616 2906 2266 
Q 2828 2175 2409 1742 
Q 1991 1309 1228 531 
z
" transform="scale(0.015625)"/>
       </defs>
       <use xlink:href="#DejaVuSans-32"/>
       <use xlink:href="#DejaVuSans-30" x="63.623047"/>
      </g>
     </g>
    </g>
    <g id="xtick_3">
     <g id="line2d_5">
      <path d="M 406.522125 331.120625 
L 406.522125 23.76 
" clip-path="url(#pa2a5d8e22c)" style="fill: none; stroke: #b0b0b0; stroke-width: 0.8; stroke-linecap: square"/>
     </g>
     <g id="line2d_6">
      <g>
       <use xlink:href="#m0696d23b5e" x="406.522125" y="331.120625" style="stroke: #000000; stroke-width: 0.8"/>
      </g>
     </g>
     <g id="text_3">
      <!-- 40 -->
      <g transform="translate(392.524625 354.837188)scale(0.22 -0.22)">
       <defs>
        <path id="DejaVuSans-34" d="M 2419 4116 
L 825 1625 
L 2419 1625 
L 2419 4116 
z
M 2253 4666 
L 3047 4666 
L 3047 1625 
L 3713 1625 
L 3713 1100 
L 3047 1100 
L 3047 0 
L 2419 0 
L 2419 1100 
L 313 1100 
L 313 1709 
L 2253 4666 
z
" transform="scale(0.015625)"/>
       </defs>
       <use xlink:href="#DejaVuSans-34"/>
       <use xlink:href="#DejaVuSans-30" x="63.623047"/>
      </g>
     </g>
    </g>
    <g id="xtick_4">
     <g id="line2d_7">
      <path d="M 563.296 331.120625 
L 563.296 23.76 
" clip-path="url(#pa2a5d8e22c)" style="fill: none; stroke: #b0b0b0; stroke-width: 0.8; stroke-linecap: square"/>
     </g>
     <g id="line2d_8">
      <g>
       <use xlink:href="#m0696d23b5e" x="563.296" y="331.120625" style="stroke: #000000; stroke-width: 0.8"/>
      </g>
     </g>
     <g id="text_4">
      <!-- 60 -->
      <g transform="translate(549.2985 354.837188)scale(0.22 -0.22)">
       <defs>
        <path id="DejaVuSans-36" d="M 2113 2584 
Q 1688 2584 1439 2293 
Q 1191 2003 1191 1497 
Q 1191 994 1439 701 
Q 1688 409 2113 409 
Q 2538 409 2786 701 
Q 3034 994 3034 1497 
Q 3034 2003 2786 2293 
Q 2538 2584 2113 2584 
z
M 3366 4563 
L 3366 3988 
Q 3128 4100 2886 4159 
Q 2644 4219 2406 4219 
Q 1781 4219 1451 3797 
Q 1122 3375 1075 2522 
Q 1259 2794 1537 2939 
Q 1816 3084 2150 3084 
Q 2853 3084 3261 2657 
Q 3669 2231 3669 1497 
Q 3669 778 3244 343 
Q 2819 -91 2113 -91 
Q 1303 -91 875 529 
Q 447 1150 447 2328 
Q 447 3434 972 4092 
Q 1497 4750 2381 4750 
Q 2619 4750 2861 4703 
Q 3103 4656 3366 4563 
z
" transform="scale(0.015625)"/>
       </defs>
       <use xlink:href="#DejaVuSans-36"/>
       <use xlink:href="#DejaVuSans-30" x="63.623047"/>
      </g>
     </g>
    </g>
    <g id="xtick_5">
     <g id="line2d_9">
      <path d="M 720.069875 331.120625 
L 720.069875 23.76 
" clip-path="url(#pa2a5d8e22c)" style="fill: none; stroke: #b0b0b0; stroke-width: 0.8; stroke-linecap: square"/>
     </g>
     <g id="line2d_10">
      <g>
       <use xlink:href="#m0696d23b5e" x="720.069875" y="331.120625" style="stroke: #000000; stroke-width: 0.8"/>
      </g>
     </g>
     <g id="text_5">
      <!-- 80 -->
      <g transform="translate(706.072375 354.837188)scale(0.22 -0.22)">
       <defs>
        <path id="DejaVuSans-38" d="M 2034 2216 
Q 1584 2216 1326 1975 
Q 1069 1734 1069 1313 
Q 1069 891 1326 650 
Q 1584 409 2034 409 
Q 2484 409 2743 651 
Q 3003 894 3003 1313 
Q 3003 1734 2745 1975 
Q 2488 2216 2034 2216 
z
M 1403 2484 
Q 997 2584 770 2862 
Q 544 3141 544 3541 
Q 544 4100 942 4425 
Q 1341 4750 2034 4750 
Q 2731 4750 3128 4425 
Q 3525 4100 3525 3541 
Q 3525 3141 3298 2862 
Q 3072 2584 2669 2484 
Q 3125 2378 3379 2068 
Q 3634 1759 3634 1313 
Q 3634 634 3220 271 
Q 2806 -91 2034 -91 
Q 1263 -91 848 271 
Q 434 634 434 1313 
Q 434 1759 690 2068 
Q 947 2378 1403 2484 
z
M 1172 3481 
Q 1172 3119 1398 2916 
Q 1625 2713 2034 2713 
Q 2441 2713 2670 2916 
Q 2900 3119 2900 3481 
Q 2900 3844 2670 4047 
Q 2441 4250 2034 4250 
Q 1625 4250 1398 4047 
Q 1172 3844 1172 3481 
z
" transform="scale(0.015625)"/>
       </defs>
       <use xlink:href="#DejaVuSans-38"/>
       <use xlink:href="#DejaVuSans-30" x="63.623047"/>
      </g>
     </g>
    </g>
    <g id="xtick_6">
     <g id="line2d_11">
      <path d="M 876.84375 331.120625 
L 876.84375 23.76 
" clip-path="url(#pa2a5d8e22c)" style="fill: none; stroke: #b0b0b0; stroke-width: 0.8; stroke-linecap: square"/>
     </g>
     <g id="line2d_12">
      <g>
       <use xlink:href="#m0696d23b5e" x="876.84375" y="331.120625" style="stroke: #000000; stroke-width: 0.8"/>
      </g>
     </g>
     <g id="text_6">
      <!-- 100 -->
      <g transform="translate(855.8475 354.837188)scale(0.22 -0.22)">
       <defs>
        <path id="DejaVuSans-31" d="M 794 531 
L 1825 531 
L 1825 4091 
L 703 3866 
L 703 4441 
L 1819 4666 
L 2450 4666 
L 2450 531 
L 3481 531 
L 3481 0 
L 794 0 
L 794 531 
z
" transform="scale(0.015625)"/>
       </defs>
       <use xlink:href="#DejaVuSans-31"/>
       <use xlink:href="#DejaVuSans-30" x="63.623047"/>
       <use xlink:href="#DejaVuSans-30" x="127.246094"/>
      </g>
     </g>
    </g>
    <g id="text_7">
     <!-- RTT (ms) -->
     <g transform="translate(431.874687 381.64875)scale(0.24 -0.24)">
      <defs>
       <path id="DejaVuSans-52" d="M 2841 2188 
Q 3044 2119 3236 1894 
Q 3428 1669 3622 1275 
L 4263 0 
L 3584 0 
L 2988 1197 
Q 2756 1666 2539 1819 
Q 2322 1972 1947 1972 
L 1259 1972 
L 1259 0 
L 628 0 
L 628 4666 
L 2053 4666 
Q 2853 4666 3247 4331 
Q 3641 3997 3641 3322 
Q 3641 2881 3436 2590 
Q 3231 2300 2841 2188 
z
M 1259 4147 
L 1259 2491 
L 2053 2491 
Q 2509 2491 2742 2702 
Q 2975 2913 2975 3322 
Q 2975 3731 2742 3939 
Q 2509 4147 2053 4147 
L 1259 4147 
z
" transform="scale(0.015625)"/>
       <path id="DejaVuSans-54" d="M -19 4666 
L 3928 4666 
L 3928 4134 
L 2272 4134 
L 2272 0 
L 1638 0 
L 1638 4134 
L -19 4134 
L -19 4666 
z
" transform="scale(0.015625)"/>
       <path id="DejaVuSans-20" transform="scale(0.015625)"/>
       <path id="DejaVuSans-28" d="M 1984 4856 
Q 1566 4138 1362 3434 
Q 1159 2731 1159 2009 
Q 1159 1288 1364 580 
Q 1569 -128 1984 -844 
L 1484 -844 
Q 1016 -109 783 600 
Q 550 1309 550 2009 
Q 550 2706 781 3412 
Q 1013 4119 1484 4856 
L 1984 4856 
z
" transform="scale(0.015625)"/>
       <path id="DejaVuSans-6d" d="M 3328 2828 
Q 3544 3216 3844 3400 
Q 4144 3584 4550 3584 
Q 5097 3584 5394 3201 
Q 5691 2819 5691 2113 
L 5691 0 
L 5113 0 
L 5113 2094 
Q 5113 2597 4934 2840 
Q 4756 3084 4391 3084 
Q 3944 3084 3684 2787 
Q 3425 2491 3425 1978 
L 3425 0 
L 2847 0 
L 2847 2094 
Q 2847 2600 2669 2842 
Q 2491 3084 2119 3084 
Q 1678 3084 1418 2786 
Q 1159 2488 1159 1978 
L 1159 0 
L 581 0 
L 581 3500 
L 1159 3500 
L 1159 2956 
Q 1356 3278 1631 3431 
Q 1906 3584 2284 3584 
Q 2666 3584 2933 3390 
Q 3200 3197 3328 2828 
z
" transform="scale(0.015625)"/>
       <path id="DejaVuSans-73" d="M 2834 3397 
L 2834 2853 
Q 2591 2978 2328 3040 
Q 2066 3103 1784 3103 
Q 1356 3103 1142 2972 
Q 928 2841 928 2578 
Q 928 2378 1081 2264 
Q 1234 2150 1697 2047 
L 1894 2003 
Q 2506 1872 2764 1633 
Q 3022 1394 3022 966 
Q 3022 478 2636 193 
Q 2250 -91 1575 -91 
Q 1294 -91 989 -36 
Q 684 19 347 128 
L 347 722 
Q 666 556 975 473 
Q 1284 391 1588 391 
Q 1994 391 2212 530 
Q 2431 669 2431 922 
Q 2431 1156 2273 1281 
Q 2116 1406 1581 1522 
L 1381 1569 
Q 847 1681 609 1914 
Q 372 2147 372 2553 
Q 372 3047 722 3315 
Q 1072 3584 1716 3584 
Q 2034 3584 2315 3537 
Q 2597 3491 2834 3397 
z
" transform="scale(0.015625)"/>
       <path id="DejaVuSans-29" d="M 513 4856 
L 1013 4856 
Q 1481 4119 1714 3412 
Q 1947 2706 1947 2009 
Q 1947 1309 1714 600 
Q 1481 -109 1013 -844 
L 513 -844 
Q 928 -128 1133 580 
Q 1338 1288 1338 2009 
Q 1338 2731 1133 3434 
Q 928 4138 513 4856 
z
" transform="scale(0.015625)"/>
      </defs>
      <use xlink:href="#DejaVuSans-52"/>
      <use xlink:href="#DejaVuSans-54" x="62.232422"/>
      <use xlink:href="#DejaVuSans-54" x="121.566406"/>
      <use xlink:href="#DejaVuSans-20" x="182.650391"/>
      <use xlink:href="#DejaVuSans-28" x="214.4375"/>
      <use xlink:href="#DejaVuSans-6d" x="253.451172"/>
      <use xlink:href="#DejaVuSans-73" x="350.863281"/>
      <use xlink:href="#DejaVuSans-29" x="402.962891"/>
     </g>
    </g>
   </g>
   <g id="matplotlib.axis_2">
    <g id="ytick_1">
     <g id="line2d_13">
      <path d="M 92.974375 317.149688 
L 876.84375 317.149688 
" clip-path="url(#pa2a5d8e22c)" style="fill: none; stroke: #b0b0b0; stroke-width: 0.8; stroke-linecap: square"/>
     </g>
     <g id="line2d_14">
      <defs>
       <path id="m48496b76d1" d="M 0 0 
L -3.5 0 
" style="stroke: #000000; stroke-width: 0.8"/>
      </defs>
      <g>
       <use xlink:href="#m48496b76d1" x="92.974375" y="317.149688" style="stroke: #000000; stroke-width: 0.8"/>
      </g>
     </g>
     <g id="text_8">
      <!-- 0.0 -->
      <g transform="translate(50.9875 325.507969)scale(0.22 -0.22)">
       <defs>
        <path id="DejaVuSans-2e" d="M 684 794 
L 1344 794 
L 1344 0 
L 684 0 
L 684 794 
z
" transform="scale(0.015625)"/>
       </defs>
       <use xlink:href="#DejaVuSans-30"/>
       <use xlink:href="#DejaVuSans-2e" x="63.623047"/>
       <use xlink:href="#DejaVuSans-30" x="95.410156"/>
      </g>
     </g>
    </g>
    <g id="ytick_2">
     <g id="line2d_15">
      <path d="M 92.974375 261.265938 
L 876.84375 261.265938 
" clip-path="url(#pa2a5d8e22c)" style="fill: none; stroke: #b0b0b0; stroke-width: 0.8; stroke-linecap: square"/>
     </g>
     <g id="line2d_16">
      <g>
       <use xlink:href="#m48496b76d1" x="92.974375" y="261.265938" style="stroke: #000000; stroke-width: 0.8"/>
      </g>
     </g>
     <g id="text_9">
      <!-- 0.2 -->
      <g transform="translate(50.9875 269.624219)scale(0.22 -0.22)">
       <use xlink:href="#DejaVuSans-30"/>
       <use xlink:href="#DejaVuSans-2e" x="63.623047"/>
       <use xlink:href="#DejaVuSans-32" x="95.410156"/>
      </g>
     </g>
    </g>
    <g id="ytick_3">
     <g id="line2d_17">
      <path d="M 92.974375 205.382188 
L 876.84375 205.382188 
" clip-path="url(#pa2a5d8e22c)" style="fill: none; stroke: #b0b0b0; stroke-width: 0.8; stroke-linecap: square"/>
     </g>
     <g id="line2d_18">
      <g>
       <use xlink:href="#m48496b76d1" x="92.974375" y="205.382188" style="stroke: #000000; stroke-width: 0.8"/>
      </g>
     </g>
     <g id="text_10">
      <!-- 0.4 -->
      <g transform="translate(50.9875 213.740469)scale(0.22 -0.22)">
       <use xlink:href="#DejaVuSans-30"/>
       <use xlink:href="#DejaVuSans-2e" x="63.623047"/>
       <use xlink:href="#DejaVuSans-34" x="95.410156"/>
      </g>
     </g>
    </g>
    <g id="ytick_4">
     <g id="line2d_19">
      <path d="M 92.974375 149.498438 
L 876.84375 149.498438 
" clip-path="url(#pa2a5d8e22c)" style="fill: none; stroke: #b0b0b0; stroke-width: 0.8; stroke-linecap: square"/>
     </g>
     <g id="line2d_20">
      <g>
       <use xlink:href="#m48496b76d1" x="92.974375" y="149.498438" style="stroke: #000000; stroke-width: 0.8"/>
      </g>
     </g>
     <g id="text_11">
      <!-- 0.6 -->
      <g transform="translate(50.9875 157.856719)scale(0.22 -0.22)">
       <use xlink:href="#DejaVuSans-30"/>
       <use xlink:href="#DejaVuSans-2e" x="63.623047"/>
       <use xlink:href="#DejaVuSans-36" x="95.410156"/>
      </g>
     </g>
    </g>
    <g id="ytick_5">
     <g id="line2d_21">
      <path d="M 92.974375 93.614688 
L 876.84375 93.614688 
" clip-path="url(#pa2a5d8e22c)" style="fill: none; stroke: #b0b0b0; stroke-width: 0.8; stroke-linecap: square"/>
     </g>
     <g id="line2d_22">
      <g>
       <use xlink:href="#m48496b76d1" x="92.974375" y="93.614688" style="stroke: #000000; stroke-width: 0.8"/>
      </g>
     </g>
     <g id="text_12">
      <!-- 0.8 -->
      <g transform="translate(50.9875 101.972969)scale(0.22 -0.22)">
       <use xlink:href="#DejaVuSans-30"/>
       <use xlink:href="#DejaVuSans-2e" x="63.623047"/>
       <use xlink:href="#DejaVuSans-38" x="95.410156"/>
      </g>
     </g>
    </g>
    <g id="ytick_6">
     <g id="line2d_23">
      <path d="M 92.974375 37.730937 
L 876.84375 37.730937 
" clip-path="url(#pa2a5d8e22c)" style="fill: none; stroke: #b0b0b0; stroke-width: 0.8; stroke-linecap: square"/>
     </g>
     <g id="line2d_24">
      <g>
       <use xlink:href="#m48496b76d1" x="92.974375" y="37.730937" style="stroke: #000000; stroke-width: 0.8"/>
      </g>
     </g>
     <g id="text_13">
      <!-- 1.0 -->
      <g transform="translate(50.9875 46.089219)scale(0.22 -0.22)">
       <use xlink:href="#DejaVuSans-31"/>
       <use xlink:href="#DejaVuSans-2e" x="63.623047"/>
       <use xlink:href="#DejaVuSans-30" x="95.410156"/>
      </g>
     </g>
    </g>
    <g id="text_14">
     <!-- Likelihood of occurrence -->
     <g transform="translate(41.99625 323.628438)rotate(-90)scale(0.24 -0.24)">
      <defs>
       <path id="DejaVuSans-4c" d="M 628 4666 
L 1259 4666 
L 1259 531 
L 3531 531 
L 3531 0 
L 628 0 
L 628 4666 
z
" transform="scale(0.015625)"/>
       <path id="DejaVuSans-69" d="M 603 3500 
L 1178 3500 
L 1178 0 
L 603 0 
L 603 3500 
z
M 603 4863 
L 1178 4863 
L 1178 4134 
L 603 4134 
L 603 4863 
z
" transform="scale(0.015625)"/>
       <path id="DejaVuSans-6b" d="M 581 4863 
L 1159 4863 
L 1159 1991 
L 2875 3500 
L 3609 3500 
L 1753 1863 
L 3688 0 
L 2938 0 
L 1159 1709 
L 1159 0 
L 581 0 
L 581 4863 
z
" transform="scale(0.015625)"/>
       <path id="DejaVuSans-65" d="M 3597 1894 
L 3597 1613 
L 953 1613 
Q 991 1019 1311 708 
Q 1631 397 2203 397 
Q 2534 397 2845 478 
Q 3156 559 3463 722 
L 3463 178 
Q 3153 47 2828 -22 
Q 2503 -91 2169 -91 
Q 1331 -91 842 396 
Q 353 884 353 1716 
Q 353 2575 817 3079 
Q 1281 3584 2069 3584 
Q 2775 3584 3186 3129 
Q 3597 2675 3597 1894 
z
M 3022 2063 
Q 3016 2534 2758 2815 
Q 2500 3097 2075 3097 
Q 1594 3097 1305 2825 
Q 1016 2553 972 2059 
L 3022 2063 
z
" transform="scale(0.015625)"/>
       <path id="DejaVuSans-6c" d="M 603 4863 
L 1178 4863 
L 1178 0 
L 603 0 
L 603 4863 
z
" transform="scale(0.015625)"/>
       <path id="DejaVuSans-68" d="M 3513 2113 
L 3513 0 
L 2938 0 
L 2938 2094 
Q 2938 2591 2744 2837 
Q 2550 3084 2163 3084 
Q 1697 3084 1428 2787 
Q 1159 2491 1159 1978 
L 1159 0 
L 581 0 
L 581 4863 
L 1159 4863 
L 1159 2956 
Q 1366 3272 1645 3428 
Q 1925 3584 2291 3584 
Q 2894 3584 3203 3211 
Q 3513 2838 3513 2113 
z
" transform="scale(0.015625)"/>
       <path id="DejaVuSans-6f" d="M 1959 3097 
Q 1497 3097 1228 2736 
Q 959 2375 959 1747 
Q 959 1119 1226 758 
Q 1494 397 1959 397 
Q 2419 397 2687 759 
Q 2956 1122 2956 1747 
Q 2956 2369 2687 2733 
Q 2419 3097 1959 3097 
z
M 1959 3584 
Q 2709 3584 3137 3096 
Q 3566 2609 3566 1747 
Q 3566 888 3137 398 
Q 2709 -91 1959 -91 
Q 1206 -91 779 398 
Q 353 888 353 1747 
Q 353 2609 779 3096 
Q 1206 3584 1959 3584 
z
" transform="scale(0.015625)"/>
       <path id="DejaVuSans-64" d="M 2906 2969 
L 2906 4863 
L 3481 4863 
L 3481 0 
L 2906 0 
L 2906 525 
Q 2725 213 2448 61 
Q 2172 -91 1784 -91 
Q 1150 -91 751 415 
Q 353 922 353 1747 
Q 353 2572 751 3078 
Q 1150 3584 1784 3584 
Q 2172 3584 2448 3432 
Q 2725 3281 2906 2969 
z
M 947 1747 
Q 947 1113 1208 752 
Q 1469 391 1925 391 
Q 2381 391 2643 752 
Q 2906 1113 2906 1747 
Q 2906 2381 2643 2742 
Q 2381 3103 1925 3103 
Q 1469 3103 1208 2742 
Q 947 2381 947 1747 
z
" transform="scale(0.015625)"/>
       <path id="DejaVuSans-66" d="M 2375 4863 
L 2375 4384 
L 1825 4384 
Q 1516 4384 1395 4259 
Q 1275 4134 1275 3809 
L 1275 3500 
L 2222 3500 
L 2222 3053 
L 1275 3053 
L 1275 0 
L 697 0 
L 697 3053 
L 147 3053 
L 147 3500 
L 697 3500 
L 697 3744 
Q 697 4328 969 4595 
Q 1241 4863 1831 4863 
L 2375 4863 
z
" transform="scale(0.015625)"/>
       <path id="DejaVuSans-63" d="M 3122 3366 
L 3122 2828 
Q 2878 2963 2633 3030 
Q 2388 3097 2138 3097 
Q 1578 3097 1268 2742 
Q 959 2388 959 1747 
Q 959 1106 1268 751 
Q 1578 397 2138 397 
Q 2388 397 2633 464 
Q 2878 531 3122 666 
L 3122 134 
Q 2881 22 2623 -34 
Q 2366 -91 2075 -91 
Q 1284 -91 818 406 
Q 353 903 353 1747 
Q 353 2603 823 3093 
Q 1294 3584 2113 3584 
Q 2378 3584 2631 3529 
Q 2884 3475 3122 3366 
z
" transform="scale(0.015625)"/>
       <path id="DejaVuSans-75" d="M 544 1381 
L 544 3500 
L 1119 3500 
L 1119 1403 
Q 1119 906 1312 657 
Q 1506 409 1894 409 
Q 2359 409 2629 706 
Q 2900 1003 2900 1516 
L 2900 3500 
L 3475 3500 
L 3475 0 
L 2900 0 
L 2900 538 
Q 2691 219 2414 64 
Q 2138 -91 1772 -91 
Q 1169 -91 856 284 
Q 544 659 544 1381 
z
M 1991 3584 
L 1991 3584 
z
" transform="scale(0.015625)"/>
       <path id="DejaVuSans-72" d="M 2631 2963 
Q 2534 3019 2420 3045 
Q 2306 3072 2169 3072 
Q 1681 3072 1420 2755 
Q 1159 2438 1159 1844 
L 1159 0 
L 581 0 
L 581 3500 
L 1159 3500 
L 1159 2956 
Q 1341 3275 1631 3429 
Q 1922 3584 2338 3584 
Q 2397 3584 2469 3576 
Q 2541 3569 2628 3553 
L 2631 2963 
z
" transform="scale(0.015625)"/>
       <path id="DejaVuSans-6e" d="M 3513 2113 
L 3513 0 
L 2938 0 
L 2938 2094 
Q 2938 2591 2744 2837 
Q 2550 3084 2163 3084 
Q 1697 3084 1428 2787 
Q 1159 2491 1159 1978 
L 1159 0 
L 581 0 
L 581 3500 
L 1159 3500 
L 1159 2956 
Q 1366 3272 1645 3428 
Q 1925 3584 2291 3584 
Q 2894 3584 3203 3211 
Q 3513 2838 3513 2113 
z
" transform="scale(0.015625)"/>
      </defs>
      <use xlink:href="#DejaVuSans-4c"/>
      <use xlink:href="#DejaVuSans-69" x="55.712891"/>
      <use xlink:href="#DejaVuSans-6b" x="83.496094"/>
      <use xlink:href="#DejaVuSans-65" x="137.78125"/>
      <use xlink:href="#DejaVuSans-6c" x="199.304688"/>
      <use xlink:href="#DejaVuSans-69" x="227.087891"/>
      <use xlink:href="#DejaVuSans-68" x="254.871094"/>
      <use xlink:href="#DejaVuSans-6f" x="318.25"/>
      <use xlink:href="#DejaVuSans-6f" x="379.431641"/>
      <use xlink:href="#DejaVuSans-64" x="440.613281"/>
      <use xlink:href="#DejaVuSans-20" x="504.089844"/>
      <use xlink:href="#DejaVuSans-6f" x="535.876953"/>
      <use xlink:href="#DejaVuSans-66" x="597.058594"/>
      <use xlink:href="#DejaVuSans-20" x="632.263672"/>
      <use xlink:href="#DejaVuSans-6f" x="664.050781"/>
      <use xlink:href="#DejaVuSans-63" x="725.232422"/>
      <use xlink:href="#DejaVuSans-63" x="780.212891"/>
      <use xlink:href="#DejaVuSans-75" x="835.193359"/>
      <use xlink:href="#DejaVuSans-72" x="898.572266"/>
      <use xlink:href="#DejaVuSans-72" x="937.935547"/>
      <use xlink:href="#DejaVuSans-65" x="976.798828"/>
      <use xlink:href="#DejaVuSans-6e" x="1038.322266"/>
      <use xlink:href="#DejaVuSans-63" x="1101.701172"/>
      <use xlink:href="#DejaVuSans-65" x="1156.681641"/>
     </g>
    </g>
   </g>
   <g id="line2d_25">
    <path d="M 92.974375 317.149688 
L 136.966074 317.072819 
L 137.156103 316.99595 
L 138.58132 316.919081 
L 138.866364 316.765343 
L 139.531465 316.688474 
L 139.721494 316.611605 
L 140.196566 316.534736 
L 140.386595 316.457867 
L 140.956682 316.380998 
L 141.146711 316.304129 
L 142.19187 316.22726 
L 142.381899 316.150391 
L 142.761957 316.073522 
L 143.237029 315.766046 
L 143.617087 315.689177 
L 143.807116 315.612308 
L 144.187174 315.535439 
L 145.327348 314.68988 
L 145.422362 314.68988 
L 145.612391 314.459273 
L 145.897435 314.382404 
L 146.182478 314.228666 
L 146.467521 314.228666 
L 146.65755 314.074928 
L 147.322652 313.998059 
L 147.607695 313.844321 
L 148.177782 313.767452 
L 148.367811 313.613714 
L 148.55784 313.536845 
L 148.937898 313.459976 
L 149.127927 313.383107 
L 149.41297 313.306238 
L 150.363115 312.614418 
L 150.648158 312.537549 
L 151.12323 312.230073 
L 151.408274 312.153204 
L 151.693317 311.999466 
L 152.263404 311.922597 
L 152.453433 311.69199 
L 152.833491 311.615121 
L 153.118534 311.461383 
L 154.163693 311.384514 
L 154.353722 311.307645 
L 154.828795 311.230776 
L 155.113838 311.077038 
L 155.588911 311.000169 
L 155.968968 310.769562 
L 157.014128 310.692693 
L 157.394185 310.462086 
L 158.059287 310.385217 
L 158.249316 310.308348 
L 158.534359 310.231479 
L 158.724388 310.15461 
L 159.009431 310.077741 
L 159.19946 310.000872 
L 160.909721 309.924003 
L 161.09975 309.847134 
L 161.384793 309.770265 
L 161.574822 309.693396 
L 166.42056 309.616527 
L 166.610589 309.539658 
L 176.017022 309.539658 
L 176.20705 309.38592 
L 177.537253 309.309051 
L 177.727282 309.155313 
L 179.912615 309.078444 
L 180.102644 309.001575 
L 180.672731 309.001575 
L 180.862759 308.847837 
L 181.432846 308.847837 
L 181.622875 308.694099 
L 182.287977 308.694099 
L 182.478005 308.463493 
L 183.808208 308.386624 
L 183.998237 308.156017 
L 186.18357 308.156017 
L 186.373599 307.92541 
L 186.943686 307.92541 
L 187.133714 307.694803 
L 188.558932 307.617934 
L 188.74896 307.15672 
L 189.319047 307.15672 
L 189.509076 306.849244 
L 190.079163 306.849244 
L 190.269192 306.541768 
L 190.839279 306.541768 
L 191.029308 306.311161 
L 191.694409 306.311161 
L 191.884438 306.080554 
L 192.454525 306.080554 
L 192.644554 305.849947 
L 193.974756 305.773078 
L 194.164785 305.696209 
L 195.590002 305.696209 
L 195.780031 305.388733 
L 197.110234 305.311864 
L 197.300263 305.158126 
L 197.965364 305.158126 
L 198.155393 304.696912 
L 198.72548 304.696912 
L 198.915509 304.543174 
L 201.100842 304.466305 
L 201.29087 304.15883 
L 201.860957 304.15883 
L 202.050986 303.928223 
L 202.621073 303.928223 
L 202.811102 303.774485 
L 203.381189 303.774485 
L 203.571218 303.543878 
L 204.996435 303.467009 
L 205.186464 303.236402 
L 205.756551 303.236402 
L 205.946579 302.852057 
L 207.371797 302.775188 
L 207.561825 302.544581 
L 208.892028 302.544581 
L 209.082057 302.313974 
L 209.652144 302.313974 
L 209.842173 301.929629 
L 210.507274 301.929629 
L 210.697303 301.622153 
L 212.787621 301.545284 
L 212.97765 301.237808 
L 213.642752 301.237808 
L 213.83278 300.930332 
L 214.402867 300.930332 
L 214.592896 300.776594 
L 215.162983 300.776594 
L 215.353012 300.622856 
L 215.923099 300.622856 
L 216.113128 300.392249 
L 216.778229 300.392249 
L 216.968258 299.854167 
L 217.538345 299.854167 
L 217.728374 299.62356 
L 218.298461 299.62356 
L 218.488489 299.316084 
L 219.058576 299.316084 
L 219.248605 299.085477 
L 219.913707 299.085477 
L 220.103735 298.624263 
L 220.673822 298.624263 
L 220.863851 298.009311 
L 221.433938 298.009311 
L 221.623967 297.163752 
L 222.194054 297.163752 
L 222.384083 296.5488 
L 223.049184 296.5488 
L 223.239213 296.087586 
L 223.8093 296.087586 
L 223.999329 295.626373 
L 224.569416 295.626373 
L 224.759444 295.318897 
L 225.329531 295.318897 
L 225.51956 294.703945 
L 226.184662 294.703945 
L 226.37469 294.242731 
L 226.944777 294.242731 
L 227.134806 293.858386 
L 227.704893 293.858386 
L 227.894922 293.55091 
L 228.465009 293.55091 
L 228.655038 293.166565 
L 229.320139 293.166565 
L 229.510168 292.78222 
L 230.080255 292.78222 
L 230.270284 292.244137 
L 230.840371 292.244137 
L 231.030399 291.859792 
L 231.600486 291.859792 
L 231.790515 291.398578 
L 232.455617 291.398578 
L 232.645645 290.55302 
L 233.215732 290.55302 
L 233.405761 289.707461 
L 233.975848 289.707461 
L 234.165877 289.246247 
L 234.735964 289.246247 
L 234.925993 288.938771 
L 235.591094 288.938771 
L 235.781123 288.785033 
L 236.35121 288.785033 
L 236.541239 288.016343 
L 237.111326 288.016343 
L 237.301354 287.708867 
L 238.726572 287.631998 
L 238.9166 287.247653 
L 239.486687 287.247653 
L 239.676716 286.402095 
L 240.246803 286.402095 
L 240.436832 285.787143 
L 241.006919 285.787143 
L 241.196948 285.633405 
L 241.862049 285.633405 
L 242.052078 285.172191 
L 242.622165 285.172191 
L 242.812194 284.710977 
L 243.382281 284.710977 
L 243.572309 284.403501 
L 244.142396 284.403501 
L 244.332425 283.788549 
L 244.997527 283.788549 
L 245.187555 282.635515 
L 245.757642 282.635515 
L 245.947671 282.020563 
L 246.517758 282.020563 
L 246.707787 281.636218 
L 247.277874 281.636218 
L 247.467903 281.021266 
L 248.133004 281.021266 
L 248.323033 280.021969 
L 248.89312 280.021969 
L 249.083149 279.868231 
L 249.653236 279.868231 
L 249.843264 279.407017 
L 250.413351 279.407017 
L 250.60338 279.099541 
L 251.268482 279.099541 
L 251.45851 278.792065 
L 252.028597 278.792065 
L 252.218626 278.100245 
L 252.788713 278.100245 
L 252.978742 277.331555 
L 253.548829 277.331555 
L 253.738858 276.562865 
L 254.403959 276.562865 
L 254.593988 275.947913 
L 255.164075 275.947913 
L 255.354104 275.179223 
L 255.924191 275.179223 
L 256.114219 274.410533 
L 256.684306 274.410533 
L 256.874335 273.795582 
L 257.539437 273.795582 
L 257.729465 273.411237 
L 258.299552 273.411237 
L 258.489581 272.488809 
L 259.059668 272.488809 
L 259.249697 271.566381 
L 259.819784 271.566381 
L 260.009813 269.952132 
L 260.674914 269.952132 
L 260.864943 268.568491 
L 261.43503 268.568491 
L 261.625059 267.646063 
L 262.195146 267.646063 
L 262.385174 266.493028 
L 262.955261 266.493028 
L 263.14529 265.109387 
L 263.810392 265.109387 
L 264.00042 264.263828 
L 264.570507 264.263828 
L 264.760536 263.033924 
L 265.330623 263.033924 
L 265.520652 262.034627 
L 266.090739 262.034627 
L 266.280768 260.574117 
L 266.945869 260.574117 
L 267.135898 259.421082 
L 267.705985 259.421082 
L 267.896014 257.883702 
L 268.466101 257.883702 
L 268.656129 256.807537 
L 269.226216 256.807537 
L 269.416245 255.654502 
L 270.081347 255.654502 
L 270.271375 254.424598 
L 270.841462 254.424598 
L 271.031491 253.271563 
L 271.601578 253.271563 
L 271.791607 252.349136 
L 272.361694 252.349136 
L 272.551723 250.811756 
L 273.216824 250.811756 
L 273.406853 249.658721 
L 273.97694 249.658721 
L 274.166969 248.659424 
L 274.737056 248.659424 
L 274.927084 247.813866 
L 275.497171 247.813866 
L 275.6872 246.353355 
L 276.352302 246.353355 
L 276.54233 244.739106 
L 277.112417 244.739106 
L 277.302446 244.201023 
L 277.872533 244.201023 
L 278.062562 243.047989 
L 278.632649 243.047989 
L 278.822678 241.587478 
L 279.487779 241.587478 
L 279.677808 240.511312 
L 280.247895 240.511312 
L 280.437924 239.281409 
L 281.008011 239.281409 
L 281.198039 238.282112 
L 281.768126 238.282112 
L 281.958155 237.359684 
L 282.623257 237.359684 
L 282.813285 236.360387 
L 283.383372 236.360387 
L 283.573401 234.976746 
L 284.143488 234.976746 
L 284.333517 233.055021 
L 284.903604 233.055021 
L 285.093633 231.978855 
L 285.758734 231.978855 
L 285.948763 231.133297 
L 286.51885 231.133297 
L 286.708879 229.749655 
L 287.278966 229.749655 
L 287.468994 228.750358 
L 288.039081 228.750358 
L 288.22911 227.520454 
L 288.894212 227.520454 
L 289.08424 227.136109 
L 289.654327 227.136109 
L 289.844356 226.136813 
L 290.414443 226.136813 
L 290.604472 224.83004 
L 291.174559 224.83004 
L 291.364588 223.523267 
L 292.029689 223.523267 
L 292.219718 222.062757 
L 292.789805 222.062757 
L 292.979834 220.217901 
L 293.549921 220.217901 
L 293.739949 219.449211 
L 294.310036 219.449211 
L 294.500065 217.988701 
L 295.165167 217.988701 
L 295.355195 216.912535 
L 295.925282 216.912535 
L 296.115311 215.375155 
L 296.685398 215.375155 
L 296.875427 213.837776 
L 297.445514 213.837776 
L 297.635543 213.453431 
L 298.300644 213.453431 
L 298.490673 212.607872 
L 299.06076 212.607872 
L 299.250789 210.839885 
L 299.820876 210.839885 
L 300.010904 209.533113 
L 300.580991 209.533113 
L 300.77102 208.303209 
L 301.436122 208.303209 
L 301.62615 207.150174 
L 302.196237 207.150174 
L 302.386266 205.535925 
L 302.956353 205.535925 
L 303.146382 204.152284 
L 303.716469 204.152284 
L 303.906498 203.306725 
L 304.571599 203.306725 
L 304.761628 202.15369 
L 305.331715 202.15369 
L 305.521744 201.000656 
L 306.091831 201.000656 
L 306.281859 199.463276 
L 306.851946 199.463276 
L 307.041975 198.079634 
L 307.707077 198.079634 
L 307.897105 196.465386 
L 308.467192 196.465386 
L 308.657221 195.850434 
L 309.227308 195.850434 
L 309.417337 194.62053 
L 309.987424 194.62053 
L 310.177453 193.006281 
L 310.842554 193.006281 
L 311.032583 191.699509 
L 311.60267 191.699509 
L 311.792699 190.777081 
L 312.362786 190.777081 
L 312.552814 189.777784 
L 313.122901 189.777784 
L 313.31293 188.317273 
L 313.978032 188.317273 
L 314.16806 187.164239 
L 314.738147 187.164239 
L 314.928176 186.011204 
L 315.498263 186.011204 
L 315.688292 184.858169 
L 316.258379 184.858169 
L 316.448408 183.705135 
L 317.113509 183.705135 
L 317.303538 182.090886 
L 317.873625 182.090886 
L 318.063654 180.707244 
L 318.633741 180.707244 
L 318.823769 179.631078 
L 319.393856 179.631078 
L 319.583885 178.247437 
L 320.248987 178.247437 
L 320.439015 177.171271 
L 321.009102 177.171271 
L 321.199131 175.71076 
L 321.769218 175.71076 
L 321.959247 174.25025 
L 322.529334 174.25025 
L 322.719363 172.789739 
L 323.384464 172.789739 
L 323.574493 171.021752 
L 324.14458 171.021752 
L 324.334609 169.791849 
L 324.904696 169.791849 
L 325.094724 168.869421 
L 325.664811 168.869421 
L 325.85484 167.485779 
L 326.519942 167.485779 
L 326.70997 165.794662 
L 327.280057 165.794662 
L 327.470086 164.795365 
L 328.040173 164.795365 
L 328.230202 163.565461 
L 328.800289 163.565461 
L 328.990318 162.335558 
L 329.655419 162.335558 
L 329.845448 161.336261 
L 330.415535 161.336261 
L 330.605564 159.645143 
L 331.175651 159.645143 
L 331.365679 158.107763 
L 332.030781 158.107763 
L 332.22081 156.416646 
L 332.790897 156.416646 
L 332.980925 155.109873 
L 333.551012 155.109873 
L 333.741041 153.8031 
L 334.311128 153.8031 
L 334.501157 152.111983 
L 335.166258 152.111983 
L 335.356287 150.267127 
L 335.926374 150.267127 
L 336.116403 149.114093 
L 336.68649 149.114093 
L 336.876519 148.114796 
L 337.446606 148.114796 
L 337.636634 147.03863 
L 338.301736 147.03863 
L 338.491765 145.962464 
L 339.061852 145.962464 
L 339.25188 144.501954 
L 339.821967 144.501954 
L 340.011996 143.810133 
L 340.582083 143.810133 
L 340.772112 142.810836 
L 341.437213 142.810836 
L 341.627242 141.273456 
L 342.197329 141.273456 
L 342.387358 140.581636 
L 342.957445 140.581636 
L 343.147474 138.813649 
L 343.717561 138.813649 
L 343.907589 137.660614 
L 344.572691 137.660614 
L 344.76272 136.738186 
L 345.332807 136.738186 
L 345.522835 134.9702 
L 346.092922 134.9702 
L 346.282951 133.740296 
L 346.853038 133.740296 
L 347.043067 132.202917 
L 347.708168 132.202917 
L 347.898197 130.819275 
L 348.468284 130.819275 
L 348.658313 129.743109 
L 349.2284 129.743109 
L 349.418429 128.051991 
L 349.988516 128.051991 
L 350.178544 126.207136 
L 350.843646 126.207136 
L 351.033675 124.977232 
L 351.603762 124.977232 
L 351.79379 123.824197 
L 352.363877 123.824197 
L 352.553906 122.824901 
L 353.123993 122.824901 
L 353.314022 121.979342 
L 353.979123 121.979342 
L 354.169152 120.518831 
L 354.739239 120.518831 
L 354.929268 119.82701 
L 355.499355 119.82701 
L 355.689384 118.827714 
L 356.259471 118.827714 
L 356.449499 117.136596 
L 357.114601 117.136596 
L 357.30463 115.752954 
L 357.874717 115.752954 
L 358.064745 114.523051 
L 358.634832 114.523051 
L 358.824861 113.677492 
L 359.394948 113.677492 
L 359.584977 112.447588 
L 360.250078 112.447588 
L 360.440107 111.294553 
L 361.010194 111.294553 
L 361.200223 109.757174 
L 361.77031 109.757174 
L 361.960339 108.450401 
L 362.530426 108.450401 
L 362.720454 107.220497 
L 363.385556 107.220497 
L 363.575585 105.836856 
L 364.145672 105.836856 
L 364.3357 104.683821 
L 364.905787 104.683821 
L 365.095816 103.453917 
L 365.665903 103.453917 
L 365.855932 102.224013 
L 366.521033 102.224013 
L 366.711062 101.609062 
L 367.281149 101.609062 
L 367.471178 100.532896 
L 368.041265 100.532896 
L 368.231294 99.226123 
L 368.801381 99.226123 
L 368.991409 98.457433 
L 369.656511 98.457433 
L 369.84654 96.843185 
L 370.416627 96.843185 
L 370.606655 95.459543 
L 371.176742 95.459543 
L 371.366771 94.15277 
L 371.936858 94.15277 
L 372.126887 93.46095 
L 372.791988 93.46095 
L 372.982017 92.077308 
L 373.552104 92.077308 
L 373.742133 90.924273 
L 374.31222 90.924273 
L 374.502249 89.694369 
L 375.072336 89.694369 
L 375.262364 89.002549 
L 375.927466 89.002549 
L 376.117495 88.080121 
L 376.687582 88.080121 
L 376.87761 87.3883 
L 377.447697 87.3883 
L 377.637726 86.158396 
L 378.207813 86.158396 
L 378.397842 85.697182 
L 379.062943 85.697182 
L 379.252972 84.697886 
L 379.823059 84.697886 
L 380.013088 84.006065 
L 380.583175 84.006065 
L 380.773204 83.083637 
L 381.343291 83.083637 
L 381.533319 81.776864 
L 382.198421 81.776864 
L 382.38845 80.62383 
L 382.958537 80.62383 
L 383.148565 79.932009 
L 383.718652 79.932009 
L 383.908681 79.393926 
L 384.478768 79.393926 
L 384.668797 78.932712 
L 385.333898 78.932712 
L 385.523927 77.702808 
L 386.094014 77.702808 
L 386.284043 77.010987 
L 386.85413 77.010987 
L 387.044159 76.626642 
L 387.614246 76.626642 
L 387.804274 75.627346 
L 388.469376 75.627346 
L 388.659405 74.704918 
L 389.229492 74.704918 
L 389.41952 73.475014 
L 389.989607 73.475014 
L 390.179636 72.783193 
L 390.749723 72.783193 
L 390.939752 72.091373 
L 391.604853 72.091373 
L 391.794882 71.630159 
L 392.364969 71.630159 
L 392.554998 71.015207 
L 393.125085 71.015207 
L 393.315114 70.707731 
L 393.885201 70.707731 
L 394.075229 69.708434 
L 394.740331 69.708434 
L 394.93036 69.170351 
L 395.500447 69.170351 
L 395.690475 68.247923 
L 396.260562 68.247923 
L 396.450591 67.094889 
L 397.020678 67.094889 
L 397.210707 66.326199 
L 397.875808 66.326199 
L 398.065837 65.711247 
L 398.635924 65.711247 
L 398.825953 64.942557 
L 399.39604 64.942557 
L 399.586069 64.096998 
L 400.156156 64.096998 
L 400.346184 63.097702 
L 401.011286 63.097702 
L 401.201315 62.098405 
L 401.771402 62.098405 
L 401.96143 61.175977 
L 402.531517 61.175977 
L 402.721546 60.561025 
L 403.291633 60.561025 
L 403.481662 59.561728 
L 404.146763 59.561728 
L 404.336792 58.793039 
L 404.906879 58.793039 
L 405.096908 57.716873 
L 405.666995 57.716873 
L 405.857024 57.101921 
L 406.427111 57.101921 
L 406.617139 56.563838 
L 407.282241 56.563838 
L 407.47227 55.872017 
L 408.042357 55.872017 
L 408.232385 55.026458 
L 408.802472 55.026458 
L 408.992501 54.027162 
L 409.562588 54.027162 
L 409.752617 53.104734 
L 410.417718 53.104734 
L 410.607747 52.336044 
L 411.177834 52.336044 
L 411.367863 51.567354 
L 411.93795 51.567354 
L 412.127979 50.875533 
L 412.698066 50.875533 
L 412.888094 50.029975 
L 413.553196 50.029975 
L 413.743225 49.568761 
L 414.313312 49.568761 
L 414.50334 49.261285 
L 415.073427 49.261285 
L 415.263456 49.030678 
L 415.833543 49.030678 
L 416.023572 48.800071 
L 417.448789 48.723202 
L 417.638818 48.10825 
L 418.208905 48.10825 
L 418.398934 47.877643 
L 418.969021 47.877643 
L 419.159049 47.723905 
L 419.824151 47.723905 
L 420.01418 47.493298 
L 420.584267 47.493298 
L 420.774295 47.33956 
L 422.104498 47.262691 
L 422.294527 47.185822 
L 422.959628 47.185822 
L 423.149657 46.955215 
L 425.239976 46.878346 
L 425.430004 46.801477 
L 426.095106 46.801477 
L 426.285135 46.417132 
L 426.855222 46.417132 
L 427.04525 46.263395 
L 427.615337 46.263395 
L 427.805366 46.109657 
L 428.375453 46.109657 
L 428.565482 45.648443 
L 429.230583 45.648443 
L 429.420612 45.494705 
L 429.990699 45.494705 
L 430.180728 45.187229 
L 430.750815 45.187229 
L 430.940844 44.879753 
L 432.366061 44.802884 
L 432.55609 44.649146 
L 433.126177 44.649146 
L 433.316205 44.34167 
L 433.886292 44.34167 
L 434.076321 44.111063 
L 434.646408 44.111063 
L 434.836437 43.649849 
L 435.501538 43.649849 
L 435.691567 43.342373 
L 437.781886 43.265504 
L 437.971914 42.958028 
L 438.637016 42.958028 
L 438.827045 42.650552 
L 439.397132 42.650552 
L 439.58716 42.343076 
L 441.772493 42.266207 
L 441.962522 41.958732 
L 442.532609 41.958732 
L 442.722638 41.804994 
L 443.292725 41.804994 
L 443.482754 41.574387 
L 444.052841 41.574387 
L 444.242869 41.190042 
L 444.907971 41.190042 
L 445.098 40.805697 
L 445.668087 40.805697 
L 445.858115 40.498221 
L 446.428202 40.498221 
L 446.618231 40.344483 
L 447.188318 40.344483 
L 447.378347 40.190745 
L 448.803564 40.113876 
L 448.993593 40.037007 
L 449.56368 40.037007 
L 449.753709 39.652662 
L 450.323796 39.652662 
L 450.513824 39.498924 
L 451.178926 39.498924 
L 451.368955 39.114579 
L 451.939042 39.114579 
L 452.12907 38.960841 
L 453.459273 38.883972 
L 453.649302 38.730234 
L 454.314403 38.730234 
L 454.504432 38.576496 
L 462.865706 38.499627 
L 463.055734 38.422758 
L 495.075611 38.345889 
L 495.26564 38.26902 
L 592.275413 38.192151 
L 592.465442 38.115282 
L 640.067692 38.038413 
L 640.25772 37.961544 
L 865.822072 37.884675 
L 866.0121 37.807806 
L 876.938764 37.807806 
L 876.938764 37.807806 
" clip-path="url(#pa2a5d8e22c)" style="fill: none; stroke: #1f77b4; stroke-width: 2; stroke-linecap: square"/>
   </g>
   <g id="line2d_26">
    <path d="M 92.974375 317.149688 
L 138.771349 317.072372 
L 138.961378 316.995056 
L 140.48161 316.917741 
L 140.671639 316.840425 
L 141.716798 316.763109 
L 142.001841 316.608478 
L 147.037608 316.531162 
L 147.227637 316.453847 
L 148.082767 316.376531 
L 148.272796 316.299215 
L 151.503288 316.2219 
L 151.788332 316.067268 
L 155.113838 315.989953 
L 155.303867 315.912637 
L 158.34433 315.835321 
L 158.534359 315.758006 
L 168.130821 315.68069 
L 168.320849 315.603375 
L 174.401776 315.526059 
L 174.591804 315.294112 
L 176.017022 315.216796 
L 176.20705 315.139481 
L 176.777137 315.139481 
L 176.967166 314.907534 
L 177.537253 314.907534 
L 177.727282 314.366324 
L 178.297369 314.366324 
L 178.487398 314.057062 
L 179.152499 314.057062 
L 179.342528 313.670483 
L 179.912615 313.670483 
L 180.102644 313.051958 
L 180.672731 313.051958 
L 180.862759 312.510749 
L 181.432846 312.510749 
L 181.622875 312.12417 
L 182.287977 312.12417 
L 182.478005 311.196383 
L 183.048092 311.196383 
L 183.238121 309.418123 
L 183.808208 309.418123 
L 183.998237 308.258388 
L 184.568324 308.258388 
L 184.758353 307.794494 
L 185.423454 307.794494 
L 185.613483 307.098653 
L 186.18357 307.098653 
L 186.373599 305.706972 
L 186.943686 305.706972 
L 187.133714 304.083343 
L 187.703801 304.083343 
L 187.89383 303.07824 
L 188.558932 303.07824 
L 188.74896 302.691661 
L 189.319047 302.691661 
L 189.509076 301.841189 
L 190.079163 301.841189 
L 190.269192 300.449508 
L 190.839279 300.449508 
L 191.029308 299.135142 
L 191.694409 299.135142 
L 191.884438 297.588829 
L 192.454525 297.588829 
L 192.644554 296.429094 
L 193.214641 296.429094 
L 193.404669 295.733253 
L 193.974756 295.733253 
L 194.164785 294.496203 
L 194.829887 294.496203 
L 195.019915 293.027205 
L 195.590002 293.027205 
L 195.780031 291.944786 
L 196.350118 291.944786 
L 196.540147 290.785052 
L 197.110234 290.785052 
L 197.300263 290.089211 
L 197.965364 290.089211 
L 198.155393 288.233635 
L 198.72548 288.233635 
L 198.915509 286.455375 
L 199.485596 286.455375 
L 199.675624 284.5998 
L 200.245711 284.5998 
L 200.43574 283.672012 
L 201.100842 283.672012 
L 201.29087 283.208118 
L 201.860957 283.208118 
L 202.050986 281.816437 
L 202.621073 281.816437 
L 202.811102 280.424755 
L 203.381189 280.424755 
L 203.571218 279.187705 
L 204.236319 279.187705 
L 204.426348 278.02797 
L 204.996435 278.02797 
L 205.186464 277.177498 
L 205.756551 277.177498 
L 205.946579 275.785816 
L 206.516666 275.785816 
L 206.706695 274.316819 
L 207.371797 274.316819 
L 207.561825 272.770506 
L 208.131912 272.770506 
L 208.321941 271.997349 
L 208.892028 271.997349 
L 209.082057 271.301509 
L 209.652144 271.301509 
L 209.842173 270.141774 
L 210.507274 270.141774 
L 210.697303 268.750092 
L 211.26739 268.750092 
L 211.457419 267.667673 
L 212.027506 267.667673 
L 212.217534 266.585254 
L 212.787621 266.585254 
L 212.97765 266.198676 
L 213.642752 266.198676 
L 213.83278 264.806994 
L 214.402867 264.806994 
L 214.592896 264.033838 
L 215.162983 264.033838 
L 215.353012 262.951419 
L 215.923099 262.951419 
L 216.113128 262.410209 
L 216.778229 262.410209 
L 216.968258 260.941212 
L 217.538345 260.941212 
L 217.728374 259.858793 
L 218.298461 259.858793 
L 218.488489 258.235164 
L 219.058576 258.235164 
L 219.248605 256.766167 
L 219.913707 256.766167 
L 220.103735 255.374485 
L 220.673822 255.374485 
L 220.863851 254.678644 
L 221.433938 254.678644 
L 221.623967 252.900384 
L 222.194054 252.900384 
L 222.384083 250.039705 
L 223.049184 250.039705 
L 223.239213 248.957286 
L 223.8093 248.957286 
L 223.999329 247.720236 
L 224.569416 247.720236 
L 224.759444 246.869764 
L 225.329531 246.869764 
L 225.51956 245.400767 
L 226.184662 245.400767 
L 226.37469 243.699822 
L 226.944777 243.699822 
L 227.134806 241.6123 
L 227.704893 241.6123 
L 227.894922 240.761828 
L 228.465009 240.761828 
L 228.655038 239.83404 
L 229.320139 239.83404 
L 229.510168 237.978464 
L 230.080255 237.978464 
L 230.270284 236.122889 
L 230.840371 236.122889 
L 231.030399 234.885839 
L 231.600486 234.885839 
L 231.790515 234.421945 
L 232.455617 234.421945 
L 232.645645 233.571473 
L 233.215732 233.571473 
L 233.405761 231.715897 
L 233.975848 231.715897 
L 234.165877 229.628375 
L 234.735964 229.628375 
L 234.925993 227.618168 
L 235.591094 227.618168 
L 235.781123 226.922327 
L 236.35121 226.922327 
L 236.541239 225.762592 
L 237.111326 225.762592 
L 237.301354 223.907017 
L 237.871441 223.907017 
L 238.06147 222.283388 
L 238.726572 222.283388 
L 238.9166 220.969022 
L 239.486687 220.969022 
L 239.676716 220.11855 
L 240.246803 220.11855 
L 240.436832 219.268078 
L 241.006919 219.268078 
L 241.196948 217.489818 
L 241.862049 217.489818 
L 242.052078 216.020821 
L 242.622165 216.020821 
L 242.812194 213.778667 
L 243.382281 213.778667 
L 243.572309 212.696248 
L 244.142396 212.696248 
L 244.332425 211.691144 
L 244.997527 211.691144 
L 245.187555 210.686041 
L 245.757642 210.686041 
L 245.947671 208.830465 
L 246.517758 208.830465 
L 246.707787 207.438784 
L 247.277874 207.438784 
L 247.467903 206.279049 
L 248.133004 206.279049 
L 248.323033 205.583208 
L 248.89312 205.583208 
L 249.083149 203.804948 
L 249.653236 203.804948 
L 249.843264 202.258635 
L 250.413351 202.258635 
L 250.60338 200.480375 
L 251.268482 200.480375 
L 251.45851 199.243325 
L 252.028597 199.243325 
L 252.218626 198.392853 
L 252.788713 198.392853 
L 252.978742 196.769224 
L 253.548829 196.769224 
L 253.738858 194.990964 
L 254.403959 194.990964 
L 254.593988 193.444652 
L 255.164075 193.444652 
L 255.354104 192.207601 
L 255.924191 192.207601 
L 256.114219 191.279813 
L 256.684306 191.279813 
L 256.874335 189.501554 
L 257.539437 189.501554 
L 257.729465 187.723294 
L 258.299552 187.723294 
L 258.489581 186.408928 
L 259.059668 186.408928 
L 259.249697 185.790402 
L 259.819784 185.790402 
L 260.009813 184.862615 
L 260.674914 184.862615 
L 260.864943 183.16167 
L 261.43503 183.16167 
L 261.625059 181.151464 
L 262.195146 181.151464 
L 262.385174 179.450519 
L 262.955261 179.450519 
L 263.14529 178.522732 
L 263.810392 178.522732 
L 264.00042 178.213469 
L 264.570507 178.213469 
L 264.760536 176.512525 
L 265.330623 176.512525 
L 265.520652 174.888896 
L 266.090739 174.888896 
L 266.280768 172.492111 
L 266.945869 172.492111 
L 267.135898 171.564323 
L 267.705985 171.564323 
L 267.896014 170.868482 
L 268.466101 170.868482 
L 268.656129 169.476801 
L 269.226216 169.476801 
L 269.416245 167.389278 
L 270.081347 167.389278 
L 270.271375 165.533703 
L 270.841462 165.533703 
L 271.031491 164.760546 
L 271.601578 164.760546 
L 271.791607 163.832759 
L 272.361694 163.832759 
L 272.551723 162.750339 
L 273.216824 162.750339 
L 273.406853 160.585501 
L 273.97694 160.585501 
L 274.166969 159.503082 
L 274.737056 159.503082 
L 274.927084 158.266032 
L 275.497171 158.266032 
L 275.6872 157.647507 
L 276.352302 157.647507 
L 276.54233 156.178509 
L 277.112417 156.178509 
L 277.302446 154.477565 
L 277.872533 154.477565 
L 278.062562 152.235411 
L 278.632649 152.235411 
L 278.822678 151.307624 
L 279.487779 151.307624 
L 279.677808 150.534467 
L 280.247895 150.534467 
L 280.437924 148.910839 
L 281.008011 148.910839 
L 281.198039 146.900632 
L 281.768126 146.900632 
L 281.958155 145.277003 
L 282.623257 145.277003 
L 282.813285 143.653375 
L 283.383372 143.653375 
L 283.573401 142.802902 
L 284.143488 142.802902 
L 284.333517 141.101958 
L 284.903604 141.101958 
L 285.093633 139.246383 
L 285.758734 139.246383 
L 285.948763 137.545438 
L 286.51885 137.545438 
L 286.708879 136.617651 
L 287.278966 136.617651 
L 287.468994 135.92181 
L 288.039081 135.92181 
L 288.22911 134.298181 
L 288.894212 134.298181 
L 289.08424 132.287974 
L 289.654327 132.287974 
L 289.844356 130.277768 
L 290.414443 130.277768 
L 290.604472 129.272664 
L 291.174559 129.272664 
L 291.364588 128.190245 
L 292.029689 128.190245 
L 292.219718 126.643932 
L 292.789805 126.643932 
L 292.979834 124.788357 
L 293.549921 124.788357 
L 293.739949 122.314256 
L 294.310036 122.314256 
L 294.500065 121.231837 
L 295.165167 121.231837 
L 295.355195 120.690627 
L 295.925282 120.690627 
L 296.115311 119.762839 
L 296.685398 119.762839 
L 296.875427 117.675317 
L 297.445514 117.675317 
L 297.635543 116.438267 
L 298.300644 116.438267 
L 298.490673 115.355848 
L 299.06076 115.355848 
L 299.250789 114.42806 
L 299.820876 114.42806 
L 300.010904 113.577588 
L 300.580991 113.577588 
L 300.77102 111.799328 
L 301.436122 111.799328 
L 301.62615 110.175699 
L 302.196237 110.175699 
L 302.386266 109.402543 
L 302.956353 109.402543 
L 303.146382 109.170596 
L 303.716469 109.170596 
L 303.906498 107.701598 
L 304.571599 107.701598 
L 304.761628 105.923339 
L 305.331715 105.923339 
L 305.521744 104.377026 
L 306.091831 104.377026 
L 306.281859 103.371922 
L 306.851946 103.371922 
L 307.041975 101.748294 
L 307.707077 101.748294 
L 307.897105 100.047349 
L 308.467192 100.047349 
L 308.657221 98.191774 
L 309.227308 98.191774 
L 309.417337 96.49083 
L 309.987424 96.49083 
L 310.177453 95.408411 
L 310.842554 95.408411 
L 311.032583 94.325991 
L 311.60267 94.325991 
L 311.792699 92.625047 
L 312.362786 92.625047 
L 312.552814 90.924103 
L 313.122901 90.924103 
L 313.31293 89.687053 
L 313.978032 89.687053 
L 314.16806 88.372687 
L 314.738147 88.372687 
L 314.928176 86.671742 
L 315.498263 86.671742 
L 315.688292 84.816167 
L 316.258379 84.816167 
L 316.448408 82.80596 
L 317.113509 82.80596 
L 317.303538 81.259647 
L 317.873625 81.259647 
L 318.063654 80.022597 
L 318.633741 80.022597 
L 318.823769 78.940178 
L 319.393856 78.940178 
L 319.583885 77.239233 
L 320.248987 77.239233 
L 320.439015 75.306342 
L 321.009102 75.306342 
L 321.199131 74.45587 
L 321.769218 74.45587 
L 321.959247 73.450767 
L 322.529334 73.450767 
L 322.719363 72.754926 
L 323.384464 72.754926 
L 323.574493 71.595191 
L 324.14458 71.595191 
L 324.334609 69.584984 
L 324.904696 69.584984 
L 325.094724 67.729409 
L 325.664811 67.729409 
L 325.85484 66.569674 
L 326.519942 66.569674 
L 326.70997 65.409939 
L 327.280057 65.409939 
L 327.470086 64.095573 
L 328.040173 64.095573 
L 328.230202 62.703892 
L 328.800289 62.703892 
L 328.990318 61.080263 
L 329.655419 61.080263 
L 329.845448 59.997844 
L 330.415535 59.997844 
L 330.605564 58.992741 
L 331.175651 58.992741 
L 331.365679 57.601059 
L 332.030781 57.601059 
L 332.22081 55.281589 
L 332.790897 55.281589 
L 332.980925 53.889908 
L 333.551012 53.889908 
L 333.741041 53.271383 
L 334.311128 53.271383 
L 334.501157 52.652857 
L 335.166258 52.652857 
L 335.356287 51.957017 
L 335.926374 51.957017 
L 336.116403 50.410704 
L 336.68649 50.410704 
L 336.876519 50.178757 
L 337.446606 50.178757 
L 337.636634 50.024125 
L 338.301736 50.024125 
L 338.491765 49.714863 
L 339.061852 49.714863 
L 339.25188 49.096338 
L 339.821967 49.096338 
L 340.011996 48.632444 
L 340.582083 48.632444 
L 340.772112 48.16855 
L 341.437213 48.16855 
L 341.627242 47.859287 
L 342.957445 47.781972 
L 343.147474 47.472709 
L 343.717561 47.472709 
L 343.907589 47.240762 
L 344.572691 47.240762 
L 344.76272 46.776868 
L 345.332807 46.776868 
L 345.522835 46.544921 
L 346.092922 46.544921 
L 346.282951 46.312974 
L 346.853038 46.312974 
L 347.043067 45.926396 
L 347.708168 45.926396 
L 347.898197 45.539818 
L 348.468284 45.539818 
L 348.658313 45.385187 
L 350.843646 45.307871 
L 351.033675 45.15324 
L 351.603762 45.15324 
L 351.79379 44.766661 
L 352.363877 44.766661 
L 352.553906 44.457399 
L 353.979123 44.380083 
L 354.169152 44.225452 
L 354.739239 44.225452 
L 354.929268 44.070821 
L 355.499355 44.070821 
L 355.689384 43.606927 
L 357.874717 43.529611 
L 358.064745 43.452295 
L 358.634832 43.452295 
L 358.824861 43.143033 
L 359.394948 43.143033 
L 359.584977 42.679139 
L 360.250078 42.679139 
L 360.440107 42.447192 
L 361.010194 42.447192 
L 361.200223 42.292561 
L 362.530426 42.215245 
L 362.720454 41.751351 
L 363.385556 41.751351 
L 363.575585 41.364773 
L 364.145672 41.364773 
L 364.3357 41.132826 
L 364.905787 41.132826 
L 365.095816 40.746248 
L 367.281149 40.668932 
L 367.471178 40.35967 
L 368.041265 40.35967 
L 368.231294 39.895776 
L 368.801381 39.895776 
L 368.991409 39.663829 
L 370.416627 39.586513 
L 370.606655 39.354566 
L 371.176742 39.354566 
L 371.366771 39.199935 
L 371.936858 39.199935 
L 372.126887 38.967988 
L 372.791988 38.967988 
L 372.982017 38.736041 
L 374.31222 38.736041 
L 374.502249 38.58141 
L 375.072336 38.58141 
L 375.262364 38.426778 
L 379.062943 38.349463 
L 379.252972 38.272147 
L 386.85413 38.194831 
L 387.044159 38.117516 
L 642.443053 38.0402 
L 642.633082 37.962884 
L 876.938764 37.885569 
L 876.938764 37.885569 
" clip-path="url(#pa2a5d8e22c)" style="fill: none; stroke: #ff7f0e; stroke-width: 2; stroke-linecap: square"/>
   </g>
   <g id="patch_3">
    <path d="M 92.974375 331.120625 
L 92.974375 23.76 
" style="fill: none; stroke: #000000; stroke-width: 0.8; stroke-linejoin: miter; stroke-linecap: square"/>
   </g>
   <g id="patch_4">
    <path d="M 876.84375 331.120625 
L 876.84375 23.76 
" style="fill: none; stroke: #000000; stroke-width: 0.8; stroke-linejoin: miter; stroke-linecap: square"/>
   </g>
   <g id="patch_5">
    <path d="M 92.974375 331.120625 
L 876.84375 331.120625 
" style="fill: none; stroke: #000000; stroke-width: 0.8; stroke-linejoin: miter; stroke-linecap: square"/>
   </g>
   <g id="patch_6">
    <path d="M 92.974375 23.76 
L 876.84375 23.76 
" style="fill: none; stroke: #000000; stroke-width: 0.8; stroke-linejoin: miter; stroke-linecap: square"/>
   </g>
   <g id="legend_1">
    <g id="patch_7">
     <path d="M 665.58375 319.120625 
L 860.04375 319.120625 
Q 864.84375 319.120625 864.84375 314.320625 
L 864.84375 245.598125 
Q 864.84375 240.798125 860.04375 240.798125 
L 665.58375 240.798125 
Q 660.78375 240.798125 660.78375 245.598125 
L 660.78375 314.320625 
Q 660.78375 319.120625 665.58375 319.120625 
z
" style="fill: #ffffff; opacity: 0.8; stroke: #cccccc; stroke-linejoin: miter"/>
    </g>
    <g id="line2d_27">
     <path d="M 670.38375 260.234375 
L 694.38375 260.234375 
L 718.38375 260.234375 
" style="fill: none; stroke: #1f77b4; stroke-width: 2; stroke-linecap: square"/>
    </g>
    <g id="text_15">
     <!-- MU_MIMO -->
     <g transform="translate(737.58375 268.634375)scale(0.24 -0.24)">
      <defs>
       <path id="DejaVuSans-4d" d="M 628 4666 
L 1569 4666 
L 2759 1491 
L 3956 4666 
L 4897 4666 
L 4897 0 
L 4281 0 
L 4281 4097 
L 3078 897 
L 2444 897 
L 1241 4097 
L 1241 0 
L 628 0 
L 628 4666 
z
" transform="scale(0.015625)"/>
       <path id="DejaVuSans-55" d="M 556 4666 
L 1191 4666 
L 1191 1831 
Q 1191 1081 1462 751 
Q 1734 422 2344 422 
Q 2950 422 3222 751 
Q 3494 1081 3494 1831 
L 3494 4666 
L 4128 4666 
L 4128 1753 
Q 4128 841 3676 375 
Q 3225 -91 2344 -91 
Q 1459 -91 1007 375 
Q 556 841 556 1753 
L 556 4666 
z
" transform="scale(0.015625)"/>
       <path id="DejaVuSans-5f" d="M 3263 -1063 
L 3263 -1509 
L -63 -1509 
L -63 -1063 
L 3263 -1063 
z
" transform="scale(0.015625)"/>
       <path id="DejaVuSans-49" d="M 628 4666 
L 1259 4666 
L 1259 0 
L 628 0 
L 628 4666 
z
" transform="scale(0.015625)"/>
       <path id="DejaVuSans-4f" d="M 2522 4238 
Q 1834 4238 1429 3725 
Q 1025 3213 1025 2328 
Q 1025 1447 1429 934 
Q 1834 422 2522 422 
Q 3209 422 3611 934 
Q 4013 1447 4013 2328 
Q 4013 3213 3611 3725 
Q 3209 4238 2522 4238 
z
M 2522 4750 
Q 3503 4750 4090 4092 
Q 4678 3434 4678 2328 
Q 4678 1225 4090 567 
Q 3503 -91 2522 -91 
Q 1538 -91 948 565 
Q 359 1222 359 2328 
Q 359 3434 948 4092 
Q 1538 4750 2522 4750 
z
" transform="scale(0.015625)"/>
      </defs>
      <use xlink:href="#DejaVuSans-4d"/>
      <use xlink:href="#DejaVuSans-55" x="86.279297"/>
      <use xlink:href="#DejaVuSans-5f" x="159.472656"/>
      <use xlink:href="#DejaVuSans-4d" x="209.472656"/>
      <use xlink:href="#DejaVuSans-49" x="295.751953"/>
      <use xlink:href="#DejaVuSans-4d" x="325.244141"/>
      <use xlink:href="#DejaVuSans-4f" x="411.523438"/>
     </g>
    </g>
    <g id="line2d_28">
     <path d="M 670.38375 296.129375 
L 694.38375 296.129375 
L 718.38375 296.129375 
" style="fill: none; stroke: #ff7f0e; stroke-width: 2; stroke-linecap: square"/>
    </g>
    <g id="text_16">
     <!-- Default -->
     <g transform="translate(737.58375 304.529375)scale(0.24 -0.24)">
      <defs>
       <path id="DejaVuSans-44" d="M 1259 4147 
L 1259 519 
L 2022 519 
Q 2988 519 3436 956 
Q 3884 1394 3884 2338 
Q 3884 3275 3436 3711 
Q 2988 4147 2022 4147 
L 1259 4147 
z
M 628 4666 
L 1925 4666 
Q 3281 4666 3915 4102 
Q 4550 3538 4550 2338 
Q 4550 1131 3912 565 
Q 3275 0 1925 0 
L 628 0 
L 628 4666 
z
" transform="scale(0.015625)"/>
       <path id="DejaVuSans-61" d="M 2194 1759 
Q 1497 1759 1228 1600 
Q 959 1441 959 1056 
Q 959 750 1161 570 
Q 1363 391 1709 391 
Q 2188 391 2477 730 
Q 2766 1069 2766 1631 
L 2766 1759 
L 2194 1759 
z
M 3341 1997 
L 3341 0 
L 2766 0 
L 2766 531 
Q 2569 213 2275 61 
Q 1981 -91 1556 -91 
Q 1019 -91 701 211 
Q 384 513 384 1019 
Q 384 1609 779 1909 
Q 1175 2209 1959 2209 
L 2766 2209 
L 2766 2266 
Q 2766 2663 2505 2880 
Q 2244 3097 1772 3097 
Q 1472 3097 1187 3025 
Q 903 2953 641 2809 
L 641 3341 
Q 956 3463 1253 3523 
Q 1550 3584 1831 3584 
Q 2591 3584 2966 3190 
Q 3341 2797 3341 1997 
z
" transform="scale(0.015625)"/>
       <path id="DejaVuSans-74" d="M 1172 4494 
L 1172 3500 
L 2356 3500 
L 2356 3053 
L 1172 3053 
L 1172 1153 
Q 1172 725 1289 603 
Q 1406 481 1766 481 
L 2356 481 
L 2356 0 
L 1766 0 
Q 1100 0 847 248 
Q 594 497 594 1153 
L 594 3053 
L 172 3053 
L 172 3500 
L 594 3500 
L 594 4494 
L 1172 4494 
z
" transform="scale(0.015625)"/>
      </defs>
      <use xlink:href="#DejaVuSans-44"/>
      <use xlink:href="#DejaVuSans-65" x="77.001953"/>
      <use xlink:href="#DejaVuSans-66" x="138.525391"/>
      <use xlink:href="#DejaVuSans-61" x="173.730469"/>
      <use xlink:href="#DejaVuSans-75" x="235.009766"/>
      <use xlink:href="#DejaVuSans-6c" x="298.388672"/>
      <use xlink:href="#DejaVuSans-74" x="326.171875"/>
     </g>
    </g>
   </g>
  </g>
 </g>
 <defs>
  <clipPath id="pa2a5d8e22c">
   <rect x="92.974375" y="23.76" width="783.869375" height="307.360625"/>
  </clipPath>
 </defs>
</svg>
