<?xml version="1.0" encoding="utf-8" standalone="no"?>
<!DOCTYPE svg PUBLIC "-//W3C//DTD SVG 1.1//EN"
  "http://www.w3.org/Graphics/SVG/1.1/DTD/svg11.dtd">
<svg xmlns:xlink="http://www.w3.org/1999/xlink" width="921.6pt" height="410.4pt" viewBox="0 0 921.6 410.4" xmlns="http://www.w3.org/2000/svg" version="1.1">
 <metadata>
  <rdf:RDF xmlns:dc="http://purl.org/dc/elements/1.1/" xmlns:cc="http://creativecommons.org/ns#" xmlns:rdf="http://www.w3.org/1999/02/22-rdf-syntax-ns#">
   <cc:Work>
    <dc:type rdf:resource="http://purl.org/dc/dcmitype/StillImage"/>
    <dc:date>2023-04-17T18:33:14.073876</dc:date>
    <dc:format>image/svg+xml</dc:format>
    <dc:creator>
     <cc:Agent>
      <dc:title>Matplotlib v3.5.3, https://matplotlib.org/</dc:title>
     </cc:Agent>
    </dc:creator>
   </cc:Work>
  </rdf:RDF>
 </metadata>
 <defs>
  <style type="text/css">*{stroke-linejoin: round; stroke-linecap: butt}</style>
 </defs>
 <g id="figure_1">
  <g id="patch_1">
   <path d="M 0 410.4 
L 921.6 410.4 
L 921.6 0 
L 0 0 
L 0 410.4 
z
" style="fill: none"/>
  </g>
  <g id="axes_1">
   <g id="patch_2">
    <path d="M 92.974375 331.120625 
L 876.84375 331.120625 
L 876.84375 23.76 
L 92.974375 23.76 
z
" style="fill: #ffffff"/>
   </g>
   <g id="matplotlib.axis_1">
    <g id="xtick_1">
     <g id="line2d_1">
      <path d="M 92.974375 331.120625 
L 92.974375 23.76 
" clip-path="url(#padd42b7f5b)" style="fill: none; stroke: #b0b0b0; stroke-width: 0.8; stroke-linecap: square"/>
     </g>
     <g id="line2d_2">
      <defs>
       <path id="maa9c467fc5" d="M 0 0 
L 0 3.5 
" style="stroke: #000000; stroke-width: 0.8"/>
      </defs>
      <g>
       <use xlink:href="#maa9c467fc5" x="92.974375" y="331.120625" style="stroke: #000000; stroke-width: 0.8"/>
      </g>
     </g>
     <g id="text_1">
      <!-- 0 -->
      <g transform="translate(85.975625 354.837188)scale(0.22 -0.22)">
       <defs>
        <path id="DejaVuSans-30" d="M 2034 4250 
Q 1547 4250 1301 3770 
Q 1056 3291 1056 2328 
Q 1056 1369 1301 889 
Q 1547 409 2034 409 
Q 2525 409 2770 889 
Q 3016 1369 3016 2328 
Q 3016 3291 2770 3770 
Q 2525 4250 2034 4250 
z
M 2034 4750 
Q 2819 4750 3233 4129 
Q 3647 3509 3647 2328 
Q 3647 1150 3233 529 
Q 2819 -91 2034 -91 
Q 1250 -91 836 529 
Q 422 1150 422 2328 
Q 422 3509 836 4129 
Q 1250 4750 2034 4750 
z
" transform="scale(0.015625)"/>
       </defs>
       <use xlink:href="#DejaVuSans-30"/>
      </g>
     </g>
    </g>
    <g id="xtick_2">
     <g id="line2d_3">
      <path d="M 249.74825 331.120625 
L 249.74825 23.76 
" clip-path="url(#padd42b7f5b)" style="fill: none; stroke: #b0b0b0; stroke-width: 0.8; stroke-linecap: square"/>
     </g>
     <g id="line2d_4">
      <g>
       <use xlink:href="#maa9c467fc5" x="249.74825" y="331.120625" style="stroke: #000000; stroke-width: 0.8"/>
      </g>
     </g>
     <g id="text_2">
      <!-- 20 -->
      <g transform="translate(235.75075 354.837188)scale(0.22 -0.22)">
       <defs>
        <path id="DejaVuSans-32" d="M 1228 531 
L 3431 531 
L 3431 0 
L 469 0 
L 469 531 
Q 828 903 1448 1529 
Q 2069 2156 2228 2338 
Q 2531 2678 2651 2914 
Q 2772 3150 2772 3378 
Q 2772 3750 2511 3984 
Q 2250 4219 1831 4219 
Q 1534 4219 1204 4116 
Q 875 4013 500 3803 
L 500 4441 
Q 881 4594 1212 4672 
Q 1544 4750 1819 4750 
Q 2544 4750 2975 4387 
Q 3406 4025 3406 3419 
Q 3406 3131 3298 2873 
Q 3191 2616 2906 2266 
Q 2828 2175 2409 1742 
Q 1991 1309 1228 531 
z
" transform="scale(0.015625)"/>
       </defs>
       <use xlink:href="#DejaVuSans-32"/>
       <use xlink:href="#DejaVuSans-30" x="63.623047"/>
      </g>
     </g>
    </g>
    <g id="xtick_3">
     <g id="line2d_5">
      <path d="M 406.522125 331.120625 
L 406.522125 23.76 
" clip-path="url(#padd42b7f5b)" style="fill: none; stroke: #b0b0b0; stroke-width: 0.8; stroke-linecap: square"/>
     </g>
     <g id="line2d_6">
      <g>
       <use xlink:href="#maa9c467fc5" x="406.522125" y="331.120625" style="stroke: #000000; stroke-width: 0.8"/>
      </g>
     </g>
     <g id="text_3">
      <!-- 40 -->
      <g transform="translate(392.524625 354.837188)scale(0.22 -0.22)">
       <defs>
        <path id="DejaVuSans-34" d="M 2419 4116 
L 825 1625 
L 2419 1625 
L 2419 4116 
z
M 2253 4666 
L 3047 4666 
L 3047 1625 
L 3713 1625 
L 3713 1100 
L 3047 1100 
L 3047 0 
L 2419 0 
L 2419 1100 
L 313 1100 
L 313 1709 
L 2253 4666 
z
" transform="scale(0.015625)"/>
       </defs>
       <use xlink:href="#DejaVuSans-34"/>
       <use xlink:href="#DejaVuSans-30" x="63.623047"/>
      </g>
     </g>
    </g>
    <g id="xtick_4">
     <g id="line2d_7">
      <path d="M 563.296 331.120625 
L 563.296 23.76 
" clip-path="url(#padd42b7f5b)" style="fill: none; stroke: #b0b0b0; stroke-width: 0.8; stroke-linecap: square"/>
     </g>
     <g id="line2d_8">
      <g>
       <use xlink:href="#maa9c467fc5" x="563.296" y="331.120625" style="stroke: #000000; stroke-width: 0.8"/>
      </g>
     </g>
     <g id="text_4">
      <!-- 60 -->
      <g transform="translate(549.2985 354.837188)scale(0.22 -0.22)">
       <defs>
        <path id="DejaVuSans-36" d="M 2113 2584 
Q 1688 2584 1439 2293 
Q 1191 2003 1191 1497 
Q 1191 994 1439 701 
Q 1688 409 2113 409 
Q 2538 409 2786 701 
Q 3034 994 3034 1497 
Q 3034 2003 2786 2293 
Q 2538 2584 2113 2584 
z
M 3366 4563 
L 3366 3988 
Q 3128 4100 2886 4159 
Q 2644 4219 2406 4219 
Q 1781 4219 1451 3797 
Q 1122 3375 1075 2522 
Q 1259 2794 1537 2939 
Q 1816 3084 2150 3084 
Q 2853 3084 3261 2657 
Q 3669 2231 3669 1497 
Q 3669 778 3244 343 
Q 2819 -91 2113 -91 
Q 1303 -91 875 529 
Q 447 1150 447 2328 
Q 447 3434 972 4092 
Q 1497 4750 2381 4750 
Q 2619 4750 2861 4703 
Q 3103 4656 3366 4563 
z
" transform="scale(0.015625)"/>
       </defs>
       <use xlink:href="#DejaVuSans-36"/>
       <use xlink:href="#DejaVuSans-30" x="63.623047"/>
      </g>
     </g>
    </g>
    <g id="xtick_5">
     <g id="line2d_9">
      <path d="M 720.069875 331.120625 
L 720.069875 23.76 
" clip-path="url(#padd42b7f5b)" style="fill: none; stroke: #b0b0b0; stroke-width: 0.8; stroke-linecap: square"/>
     </g>
     <g id="line2d_10">
      <g>
       <use xlink:href="#maa9c467fc5" x="720.069875" y="331.120625" style="stroke: #000000; stroke-width: 0.8"/>
      </g>
     </g>
     <g id="text_5">
      <!-- 80 -->
      <g transform="translate(706.072375 354.837188)scale(0.22 -0.22)">
       <defs>
        <path id="DejaVuSans-38" d="M 2034 2216 
Q 1584 2216 1326 1975 
Q 1069 1734 1069 1313 
Q 1069 891 1326 650 
Q 1584 409 2034 409 
Q 2484 409 2743 651 
Q 3003 894 3003 1313 
Q 3003 1734 2745 1975 
Q 2488 2216 2034 2216 
z
M 1403 2484 
Q 997 2584 770 2862 
Q 544 3141 544 3541 
Q 544 4100 942 4425 
Q 1341 4750 2034 4750 
Q 2731 4750 3128 4425 
Q 3525 4100 3525 3541 
Q 3525 3141 3298 2862 
Q 3072 2584 2669 2484 
Q 3125 2378 3379 2068 
Q 3634 1759 3634 1313 
Q 3634 634 3220 271 
Q 2806 -91 2034 -91 
Q 1263 -91 848 271 
Q 434 634 434 1313 
Q 434 1759 690 2068 
Q 947 2378 1403 2484 
z
M 1172 3481 
Q 1172 3119 1398 2916 
Q 1625 2713 2034 2713 
Q 2441 2713 2670 2916 
Q 2900 3119 2900 3481 
Q 2900 3844 2670 4047 
Q 2441 4250 2034 4250 
Q 1625 4250 1398 4047 
Q 1172 3844 1172 3481 
z
" transform="scale(0.015625)"/>
       </defs>
       <use xlink:href="#DejaVuSans-38"/>
       <use xlink:href="#DejaVuSans-30" x="63.623047"/>
      </g>
     </g>
    </g>
    <g id="xtick_6">
     <g id="line2d_11">
      <path d="M 876.84375 331.120625 
L 876.84375 23.76 
" clip-path="url(#padd42b7f5b)" style="fill: none; stroke: #b0b0b0; stroke-width: 0.8; stroke-linecap: square"/>
     </g>
     <g id="line2d_12">
      <g>
       <use xlink:href="#maa9c467fc5" x="876.84375" y="331.120625" style="stroke: #000000; stroke-width: 0.8"/>
      </g>
     </g>
     <g id="text_6">
      <!-- 100 -->
      <g transform="translate(855.8475 354.837188)scale(0.22 -0.22)">
       <defs>
        <path id="DejaVuSans-31" d="M 794 531 
L 1825 531 
L 1825 4091 
L 703 3866 
L 703 4441 
L 1819 4666 
L 2450 4666 
L 2450 531 
L 3481 531 
L 3481 0 
L 794 0 
L 794 531 
z
" transform="scale(0.015625)"/>
       </defs>
       <use xlink:href="#DejaVuSans-31"/>
       <use xlink:href="#DejaVuSans-30" x="63.623047"/>
       <use xlink:href="#DejaVuSans-30" x="127.246094"/>
      </g>
     </g>
    </g>
    <g id="text_7">
     <!-- RTT (ms) -->
     <g transform="translate(431.874687 381.64875)scale(0.24 -0.24)">
      <defs>
       <path id="DejaVuSans-52" d="M 2841 2188 
Q 3044 2119 3236 1894 
Q 3428 1669 3622 1275 
L 4263 0 
L 3584 0 
L 2988 1197 
Q 2756 1666 2539 1819 
Q 2322 1972 1947 1972 
L 1259 1972 
L 1259 0 
L 628 0 
L 628 4666 
L 2053 4666 
Q 2853 4666 3247 4331 
Q 3641 3997 3641 3322 
Q 3641 2881 3436 2590 
Q 3231 2300 2841 2188 
z
M 1259 4147 
L 1259 2491 
L 2053 2491 
Q 2509 2491 2742 2702 
Q 2975 2913 2975 3322 
Q 2975 3731 2742 3939 
Q 2509 4147 2053 4147 
L 1259 4147 
z
" transform="scale(0.015625)"/>
       <path id="DejaVuSans-54" d="M -19 4666 
L 3928 4666 
L 3928 4134 
L 2272 4134 
L 2272 0 
L 1638 0 
L 1638 4134 
L -19 4134 
L -19 4666 
z
" transform="scale(0.015625)"/>
       <path id="DejaVuSans-20" transform="scale(0.015625)"/>
       <path id="DejaVuSans-28" d="M 1984 4856 
Q 1566 4138 1362 3434 
Q 1159 2731 1159 2009 
Q 1159 1288 1364 580 
Q 1569 -128 1984 -844 
L 1484 -844 
Q 1016 -109 783 600 
Q 550 1309 550 2009 
Q 550 2706 781 3412 
Q 1013 4119 1484 4856 
L 1984 4856 
z
" transform="scale(0.015625)"/>
       <path id="DejaVuSans-6d" d="M 3328 2828 
Q 3544 3216 3844 3400 
Q 4144 3584 4550 3584 
Q 5097 3584 5394 3201 
Q 5691 2819 5691 2113 
L 5691 0 
L 5113 0 
L 5113 2094 
Q 5113 2597 4934 2840 
Q 4756 3084 4391 3084 
Q 3944 3084 3684 2787 
Q 3425 2491 3425 1978 
L 3425 0 
L 2847 0 
L 2847 2094 
Q 2847 2600 2669 2842 
Q 2491 3084 2119 3084 
Q 1678 3084 1418 2786 
Q 1159 2488 1159 1978 
L 1159 0 
L 581 0 
L 581 3500 
L 1159 3500 
L 1159 2956 
Q 1356 3278 1631 3431 
Q 1906 3584 2284 3584 
Q 2666 3584 2933 3390 
Q 3200 3197 3328 2828 
z
" transform="scale(0.015625)"/>
       <path id="DejaVuSans-73" d="M 2834 3397 
L 2834 2853 
Q 2591 2978 2328 3040 
Q 2066 3103 1784 3103 
Q 1356 3103 1142 2972 
Q 928 2841 928 2578 
Q 928 2378 1081 2264 
Q 1234 2150 1697 2047 
L 1894 2003 
Q 2506 1872 2764 1633 
Q 3022 1394 3022 966 
Q 3022 478 2636 193 
Q 2250 -91 1575 -91 
Q 1294 -91 989 -36 
Q 684 19 347 128 
L 347 722 
Q 666 556 975 473 
Q 1284 391 1588 391 
Q 1994 391 2212 530 
Q 2431 669 2431 922 
Q 2431 1156 2273 1281 
Q 2116 1406 1581 1522 
L 1381 1569 
Q 847 1681 609 1914 
Q 372 2147 372 2553 
Q 372 3047 722 3315 
Q 1072 3584 1716 3584 
Q 2034 3584 2315 3537 
Q 2597 3491 2834 3397 
z
" transform="scale(0.015625)"/>
       <path id="DejaVuSans-29" d="M 513 4856 
L 1013 4856 
Q 1481 4119 1714 3412 
Q 1947 2706 1947 2009 
Q 1947 1309 1714 600 
Q 1481 -109 1013 -844 
L 513 -844 
Q 928 -128 1133 580 
Q 1338 1288 1338 2009 
Q 1338 2731 1133 3434 
Q 928 4138 513 4856 
z
" transform="scale(0.015625)"/>
      </defs>
      <use xlink:href="#DejaVuSans-52"/>
      <use xlink:href="#DejaVuSans-54" x="62.232422"/>
      <use xlink:href="#DejaVuSans-54" x="121.566406"/>
      <use xlink:href="#DejaVuSans-20" x="182.650391"/>
      <use xlink:href="#DejaVuSans-28" x="214.4375"/>
      <use xlink:href="#DejaVuSans-6d" x="253.451172"/>
      <use xlink:href="#DejaVuSans-73" x="350.863281"/>
      <use xlink:href="#DejaVuSans-29" x="402.962891"/>
     </g>
    </g>
   </g>
   <g id="matplotlib.axis_2">
    <g id="ytick_1">
     <g id="line2d_13">
      <path d="M 92.974375 317.149688 
L 876.84375 317.149688 
" clip-path="url(#padd42b7f5b)" style="fill: none; stroke: #b0b0b0; stroke-width: 0.8; stroke-linecap: square"/>
     </g>
     <g id="line2d_14">
      <defs>
       <path id="m196f397565" d="M 0 0 
L -3.5 0 
" style="stroke: #000000; stroke-width: 0.8"/>
      </defs>
      <g>
       <use xlink:href="#m196f397565" x="92.974375" y="317.149688" style="stroke: #000000; stroke-width: 0.8"/>
      </g>
     </g>
     <g id="text_8">
      <!-- 0.0 -->
      <g transform="translate(50.9875 325.507969)scale(0.22 -0.22)">
       <defs>
        <path id="DejaVuSans-2e" d="M 684 794 
L 1344 794 
L 1344 0 
L 684 0 
L 684 794 
z
" transform="scale(0.015625)"/>
       </defs>
       <use xlink:href="#DejaVuSans-30"/>
       <use xlink:href="#DejaVuSans-2e" x="63.623047"/>
       <use xlink:href="#DejaVuSans-30" x="95.410156"/>
      </g>
     </g>
    </g>
    <g id="ytick_2">
     <g id="line2d_15">
      <path d="M 92.974375 261.265938 
L 876.84375 261.265938 
" clip-path="url(#padd42b7f5b)" style="fill: none; stroke: #b0b0b0; stroke-width: 0.8; stroke-linecap: square"/>
     </g>
     <g id="line2d_16">
      <g>
       <use xlink:href="#m196f397565" x="92.974375" y="261.265938" style="stroke: #000000; stroke-width: 0.8"/>
      </g>
     </g>
     <g id="text_9">
      <!-- 0.2 -->
      <g transform="translate(50.9875 269.624219)scale(0.22 -0.22)">
       <use xlink:href="#DejaVuSans-30"/>
       <use xlink:href="#DejaVuSans-2e" x="63.623047"/>
       <use xlink:href="#DejaVuSans-32" x="95.410156"/>
      </g>
     </g>
    </g>
    <g id="ytick_3">
     <g id="line2d_17">
      <path d="M 92.974375 205.382188 
L 876.84375 205.382188 
" clip-path="url(#padd42b7f5b)" style="fill: none; stroke: #b0b0b0; stroke-width: 0.8; stroke-linecap: square"/>
     </g>
     <g id="line2d_18">
      <g>
       <use xlink:href="#m196f397565" x="92.974375" y="205.382188" style="stroke: #000000; stroke-width: 0.8"/>
      </g>
     </g>
     <g id="text_10">
      <!-- 0.4 -->
      <g transform="translate(50.9875 213.740469)scale(0.22 -0.22)">
       <use xlink:href="#DejaVuSans-30"/>
       <use xlink:href="#DejaVuSans-2e" x="63.623047"/>
       <use xlink:href="#DejaVuSans-34" x="95.410156"/>
      </g>
     </g>
    </g>
    <g id="ytick_4">
     <g id="line2d_19">
      <path d="M 92.974375 149.498438 
L 876.84375 149.498438 
" clip-path="url(#padd42b7f5b)" style="fill: none; stroke: #b0b0b0; stroke-width: 0.8; stroke-linecap: square"/>
     </g>
     <g id="line2d_20">
      <g>
       <use xlink:href="#m196f397565" x="92.974375" y="149.498438" style="stroke: #000000; stroke-width: 0.8"/>
      </g>
     </g>
     <g id="text_11">
      <!-- 0.6 -->
      <g transform="translate(50.9875 157.856719)scale(0.22 -0.22)">
       <use xlink:href="#DejaVuSans-30"/>
       <use xlink:href="#DejaVuSans-2e" x="63.623047"/>
       <use xlink:href="#DejaVuSans-36" x="95.410156"/>
      </g>
     </g>
    </g>
    <g id="ytick_5">
     <g id="line2d_21">
      <path d="M 92.974375 93.614688 
L 876.84375 93.614688 
" clip-path="url(#padd42b7f5b)" style="fill: none; stroke: #b0b0b0; stroke-width: 0.8; stroke-linecap: square"/>
     </g>
     <g id="line2d_22">
      <g>
       <use xlink:href="#m196f397565" x="92.974375" y="93.614688" style="stroke: #000000; stroke-width: 0.8"/>
      </g>
     </g>
     <g id="text_12">
      <!-- 0.8 -->
      <g transform="translate(50.9875 101.972969)scale(0.22 -0.22)">
       <use xlink:href="#DejaVuSans-30"/>
       <use xlink:href="#DejaVuSans-2e" x="63.623047"/>
       <use xlink:href="#DejaVuSans-38" x="95.410156"/>
      </g>
     </g>
    </g>
    <g id="ytick_6">
     <g id="line2d_23">
      <path d="M 92.974375 37.730937 
L 876.84375 37.730937 
" clip-path="url(#padd42b7f5b)" style="fill: none; stroke: #b0b0b0; stroke-width: 0.8; stroke-linecap: square"/>
     </g>
     <g id="line2d_24">
      <g>
       <use xlink:href="#m196f397565" x="92.974375" y="37.730937" style="stroke: #000000; stroke-width: 0.8"/>
      </g>
     </g>
     <g id="text_13">
      <!-- 1.0 -->
      <g transform="translate(50.9875 46.089219)scale(0.22 -0.22)">
       <use xlink:href="#DejaVuSans-31"/>
       <use xlink:href="#DejaVuSans-2e" x="63.623047"/>
       <use xlink:href="#DejaVuSans-30" x="95.410156"/>
      </g>
     </g>
    </g>
    <g id="text_14">
     <!-- Likelihood of occurrence -->
     <g transform="translate(41.99625 323.628438)rotate(-90)scale(0.24 -0.24)">
      <defs>
       <path id="DejaVuSans-4c" d="M 628 4666 
L 1259 4666 
L 1259 531 
L 3531 531 
L 3531 0 
L 628 0 
L 628 4666 
z
" transform="scale(0.015625)"/>
       <path id="DejaVuSans-69" d="M 603 3500 
L 1178 3500 
L 1178 0 
L 603 0 
L 603 3500 
z
M 603 4863 
L 1178 4863 
L 1178 4134 
L 603 4134 
L 603 4863 
z
" transform="scale(0.015625)"/>
       <path id="DejaVuSans-6b" d="M 581 4863 
L 1159 4863 
L 1159 1991 
L 2875 3500 
L 3609 3500 
L 1753 1863 
L 3688 0 
L 2938 0 
L 1159 1709 
L 1159 0 
L 581 0 
L 581 4863 
z
" transform="scale(0.015625)"/>
       <path id="DejaVuSans-65" d="M 3597 1894 
L 3597 1613 
L 953 1613 
Q 991 1019 1311 708 
Q 1631 397 2203 397 
Q 2534 397 2845 478 
Q 3156 559 3463 722 
L 3463 178 
Q 3153 47 2828 -22 
Q 2503 -91 2169 -91 
Q 1331 -91 842 396 
Q 353 884 353 1716 
Q 353 2575 817 3079 
Q 1281 3584 2069 3584 
Q 2775 3584 3186 3129 
Q 3597 2675 3597 1894 
z
M 3022 2063 
Q 3016 2534 2758 2815 
Q 2500 3097 2075 3097 
Q 1594 3097 1305 2825 
Q 1016 2553 972 2059 
L 3022 2063 
z
" transform="scale(0.015625)"/>
       <path id="DejaVuSans-6c" d="M 603 4863 
L 1178 4863 
L 1178 0 
L 603 0 
L 603 4863 
z
" transform="scale(0.015625)"/>
       <path id="DejaVuSans-68" d="M 3513 2113 
L 3513 0 
L 2938 0 
L 2938 2094 
Q 2938 2591 2744 2837 
Q 2550 3084 2163 3084 
Q 1697 3084 1428 2787 
Q 1159 2491 1159 1978 
L 1159 0 
L 581 0 
L 581 4863 
L 1159 4863 
L 1159 2956 
Q 1366 3272 1645 3428 
Q 1925 3584 2291 3584 
Q 2894 3584 3203 3211 
Q 3513 2838 3513 2113 
z
" transform="scale(0.015625)"/>
       <path id="DejaVuSans-6f" d="M 1959 3097 
Q 1497 3097 1228 2736 
Q 959 2375 959 1747 
Q 959 1119 1226 758 
Q 1494 397 1959 397 
Q 2419 397 2687 759 
Q 2956 1122 2956 1747 
Q 2956 2369 2687 2733 
Q 2419 3097 1959 3097 
z
M 1959 3584 
Q 2709 3584 3137 3096 
Q 3566 2609 3566 1747 
Q 3566 888 3137 398 
Q 2709 -91 1959 -91 
Q 1206 -91 779 398 
Q 353 888 353 1747 
Q 353 2609 779 3096 
Q 1206 3584 1959 3584 
z
" transform="scale(0.015625)"/>
       <path id="DejaVuSans-64" d="M 2906 2969 
L 2906 4863 
L 3481 4863 
L 3481 0 
L 2906 0 
L 2906 525 
Q 2725 213 2448 61 
Q 2172 -91 1784 -91 
Q 1150 -91 751 415 
Q 353 922 353 1747 
Q 353 2572 751 3078 
Q 1150 3584 1784 3584 
Q 2172 3584 2448 3432 
Q 2725 3281 2906 2969 
z
M 947 1747 
Q 947 1113 1208 752 
Q 1469 391 1925 391 
Q 2381 391 2643 752 
Q 2906 1113 2906 1747 
Q 2906 2381 2643 2742 
Q 2381 3103 1925 3103 
Q 1469 3103 1208 2742 
Q 947 2381 947 1747 
z
" transform="scale(0.015625)"/>
       <path id="DejaVuSans-66" d="M 2375 4863 
L 2375 4384 
L 1825 4384 
Q 1516 4384 1395 4259 
Q 1275 4134 1275 3809 
L 1275 3500 
L 2222 3500 
L 2222 3053 
L 1275 3053 
L 1275 0 
L 697 0 
L 697 3053 
L 147 3053 
L 147 3500 
L 697 3500 
L 697 3744 
Q 697 4328 969 4595 
Q 1241 4863 1831 4863 
L 2375 4863 
z
" transform="scale(0.015625)"/>
       <path id="DejaVuSans-63" d="M 3122 3366 
L 3122 2828 
Q 2878 2963 2633 3030 
Q 2388 3097 2138 3097 
Q 1578 3097 1268 2742 
Q 959 2388 959 1747 
Q 959 1106 1268 751 
Q 1578 397 2138 397 
Q 2388 397 2633 464 
Q 2878 531 3122 666 
L 3122 134 
Q 2881 22 2623 -34 
Q 2366 -91 2075 -91 
Q 1284 -91 818 406 
Q 353 903 353 1747 
Q 353 2603 823 3093 
Q 1294 3584 2113 3584 
Q 2378 3584 2631 3529 
Q 2884 3475 3122 3366 
z
" transform="scale(0.015625)"/>
       <path id="DejaVuSans-75" d="M 544 1381 
L 544 3500 
L 1119 3500 
L 1119 1403 
Q 1119 906 1312 657 
Q 1506 409 1894 409 
Q 2359 409 2629 706 
Q 2900 1003 2900 1516 
L 2900 3500 
L 3475 3500 
L 3475 0 
L 2900 0 
L 2900 538 
Q 2691 219 2414 64 
Q 2138 -91 1772 -91 
Q 1169 -91 856 284 
Q 544 659 544 1381 
z
M 1991 3584 
L 1991 3584 
z
" transform="scale(0.015625)"/>
       <path id="DejaVuSans-72" d="M 2631 2963 
Q 2534 3019 2420 3045 
Q 2306 3072 2169 3072 
Q 1681 3072 1420 2755 
Q 1159 2438 1159 1844 
L 1159 0 
L 581 0 
L 581 3500 
L 1159 3500 
L 1159 2956 
Q 1341 3275 1631 3429 
Q 1922 3584 2338 3584 
Q 2397 3584 2469 3576 
Q 2541 3569 2628 3553 
L 2631 2963 
z
" transform="scale(0.015625)"/>
       <path id="DejaVuSans-6e" d="M 3513 2113 
L 3513 0 
L 2938 0 
L 2938 2094 
Q 2938 2591 2744 2837 
Q 2550 3084 2163 3084 
Q 1697 3084 1428 2787 
Q 1159 2491 1159 1978 
L 1159 0 
L 581 0 
L 581 3500 
L 1159 3500 
L 1159 2956 
Q 1366 3272 1645 3428 
Q 1925 3584 2291 3584 
Q 2894 3584 3203 3211 
Q 3513 2838 3513 2113 
z
" transform="scale(0.015625)"/>
      </defs>
      <use xlink:href="#DejaVuSans-4c"/>
      <use xlink:href="#DejaVuSans-69" x="55.712891"/>
      <use xlink:href="#DejaVuSans-6b" x="83.496094"/>
      <use xlink:href="#DejaVuSans-65" x="137.78125"/>
      <use xlink:href="#DejaVuSans-6c" x="199.304688"/>
      <use xlink:href="#DejaVuSans-69" x="227.087891"/>
      <use xlink:href="#DejaVuSans-68" x="254.871094"/>
      <use xlink:href="#DejaVuSans-6f" x="318.25"/>
      <use xlink:href="#DejaVuSans-6f" x="379.431641"/>
      <use xlink:href="#DejaVuSans-64" x="440.613281"/>
      <use xlink:href="#DejaVuSans-20" x="504.089844"/>
      <use xlink:href="#DejaVuSans-6f" x="535.876953"/>
      <use xlink:href="#DejaVuSans-66" x="597.058594"/>
      <use xlink:href="#DejaVuSans-20" x="632.263672"/>
      <use xlink:href="#DejaVuSans-6f" x="664.050781"/>
      <use xlink:href="#DejaVuSans-63" x="725.232422"/>
      <use xlink:href="#DejaVuSans-63" x="780.212891"/>
      <use xlink:href="#DejaVuSans-75" x="835.193359"/>
      <use xlink:href="#DejaVuSans-72" x="898.572266"/>
      <use xlink:href="#DejaVuSans-72" x="937.935547"/>
      <use xlink:href="#DejaVuSans-65" x="976.798828"/>
      <use xlink:href="#DejaVuSans-6e" x="1038.322266"/>
      <use xlink:href="#DejaVuSans-63" x="1101.701172"/>
      <use xlink:href="#DejaVuSans-65" x="1156.681641"/>
     </g>
    </g>
   </g>
   <g id="line2d_25">
    <path d="M 92.974375 317.149688 
L 172.685181 317.072521 
L 172.911632 316.918189 
L 174.949692 316.841023 
L 175.402595 316.763857 
L 175.855497 316.763857 
L 176.081948 316.609524 
L 176.53485 316.609524 
L 176.761302 316.378026 
L 177.440655 316.378026 
L 177.667106 315.915029 
L 178.120008 315.915029 
L 178.34646 315.760696 
L 179.025813 315.760696 
L 179.252264 315.452031 
L 179.705167 315.452031 
L 179.931618 314.834702 
L 180.610971 314.834702 
L 180.837422 314.294539 
L 181.290325 314.294539 
L 181.516776 313.137046 
L 182.196129 313.137046 
L 182.42258 312.905547 
L 182.875483 312.905547 
L 183.101934 312.056719 
L 183.781287 312.056719 
L 184.007738 311.362224 
L 184.460641 311.362224 
L 184.687092 310.667728 
L 185.366445 310.667728 
L 185.592896 309.124404 
L 186.045799 309.124404 
L 186.27225 308.275576 
L 186.725152 308.275576 
L 186.951603 307.812579 
L 187.630957 307.812579 
L 187.857408 306.57792 
L 188.31031 306.57792 
L 188.536761 305.188929 
L 189.216115 305.188929 
L 189.442566 302.719611 
L 189.895468 302.719611 
L 190.12192 301.716451 
L 190.801273 301.716451 
L 191.027724 300.790457 
L 191.480626 300.790457 
L 191.707078 299.247133 
L 192.386431 299.247133 
L 192.612882 297.240812 
L 193.065785 297.240812 
L 193.292236 294.925827 
L 193.971589 294.925827 
L 194.19804 294.385663 
L 194.650943 294.385663 
L 194.877394 293.768334 
L 195.556747 293.768334 
L 195.783198 292.533675 
L 196.236101 292.533675 
L 196.462552 291.299016 
L 196.915454 291.299016 
L 197.141905 290.450188 
L 197.821259 290.450188 
L 198.04771 290.064357 
L 198.500612 290.064357 
L 198.727063 289.215529 
L 199.406417 289.215529 
L 199.632868 288.135203 
L 200.08577 288.135203 
L 200.312221 286.669045 
L 200.991575 286.669045 
L 201.218026 284.73989 
L 201.670928 284.73989 
L 201.897379 283.273733 
L 202.576733 283.273733 
L 202.803184 282.810736 
L 203.256086 282.810736 
L 203.482538 281.653243 
L 204.161891 281.653243 
L 204.388342 280.341418 
L 204.841244 280.341418 
L 205.067696 277.794934 
L 205.747049 277.794934 
L 205.9735 276.174444 
L 206.426403 276.174444 
L 206.652854 275.016951 
L 207.105756 275.016951 
L 207.332207 274.090957 
L 208.011561 274.090957 
L 208.238012 272.161803 
L 208.690914 272.161803 
L 208.917365 269.769651 
L 209.596719 269.769651 
L 209.82317 268.38066 
L 210.276072 268.38066 
L 210.502523 267.608998 
L 211.181877 267.608998 
L 211.408328 265.988508 
L 211.86123 265.988508 
L 212.087681 264.908181 
L 212.767035 264.908181 
L 212.993486 263.210525 
L 213.446388 263.210525 
L 213.672839 262.51603 
L 214.352193 262.51603 
L 214.578644 261.667202 
L 215.031546 261.667202 
L 215.257997 260.972706 
L 215.937351 260.972706 
L 216.163802 259.892379 
L 216.616704 259.892379 
L 216.843156 257.577394 
L 217.296058 257.577394 
L 217.522509 256.882898 
L 218.201862 256.882898 
L 218.428314 256.188403 
L 218.881216 256.188403 
L 219.107667 254.645079 
L 219.787021 254.645079 
L 220.013472 254.259248 
L 220.466374 254.259248 
L 220.692825 252.947423 
L 221.372179 252.947423 
L 221.59863 251.404099 
L 222.051532 251.404099 
L 222.277983 250.246607 
L 222.957337 250.246607 
L 223.183788 249.629277 
L 223.63669 249.629277 
L 223.863141 247.237125 
L 224.542495 247.237125 
L 224.768946 244.227644 
L 225.221848 244.227644 
L 225.448299 243.147318 
L 226.127653 243.147318 
L 226.354104 242.992985 
L 226.807006 242.992985 
L 227.033457 241.989825 
L 227.48636 241.989825 
L 227.712811 240.986665 
L 228.392164 240.986665 
L 228.618616 239.520507 
L 229.071518 239.520507 
L 229.297969 238.826011 
L 229.977322 238.826011 
L 230.203774 237.822851 
L 230.656676 237.822851 
L 230.883127 237.205522 
L 231.56248 237.205522 
L 231.788932 235.81653 
L 232.241834 235.81653 
L 232.468285 234.19604 
L 233.147639 234.19604 
L 233.37409 232.18972 
L 233.826992 232.18972 
L 234.053443 230.877894 
L 234.732797 230.877894 
L 234.959248 229.411737 
L 235.41215 229.411737 
L 235.638601 227.482582 
L 236.317955 227.482582 
L 236.544406 224.936098 
L 236.997308 224.936098 
L 237.223759 223.392775 
L 237.676662 223.392775 
L 237.903113 222.158116 
L 238.582466 222.158116 
L 238.808917 220.306127 
L 239.26182 220.306127 
L 239.488271 218.299807 
L 240.167624 218.299807 
L 240.394075 215.830489 
L 240.846978 215.830489 
L 241.073429 214.59583 
L 241.752782 214.59583 
L 241.979234 213.129672 
L 242.432136 213.129672 
L 242.658587 211.35485 
L 243.33794 211.35485 
L 243.564392 210.274524 
L 244.017294 210.274524 
L 244.243745 208.576867 
L 244.923099 208.576867 
L 245.14955 207.265042 
L 245.602452 207.265042 
L 245.828903 206.647713 
L 246.508257 206.647713 
L 246.734708 205.567386 
L 247.18761 205.567386 
L 247.414061 204.564226 
L 247.866963 204.564226 
L 248.093415 202.635071 
L 248.772768 202.635071 
L 248.999219 201.709077 
L 249.452122 201.709077 
L 249.678573 201.014582 
L 250.357926 201.014582 
L 250.584377 199.779923 
L 251.03728 199.779923 
L 251.263731 198.931095 
L 251.943084 198.931095 
L 252.169535 197.773602 
L 252.622438 197.773602 
L 252.848889 196.384611 
L 253.528242 196.384611 
L 253.754693 195.535783 
L 254.207596 195.535783 
L 254.434047 194.301124 
L 255.1134 194.301124 
L 255.339852 191.75464 
L 255.792754 191.75464 
L 256.019205 188.822325 
L 256.698558 188.822325 
L 256.92501 188.127829 
L 257.377912 188.127829 
L 257.604363 187.510499 
L 258.057265 187.510499 
L 258.283717 185.658511 
L 258.96307 185.658511 
L 259.189521 184.655351 
L 259.642423 184.655351 
L 259.868875 182.880528 
L 260.548228 182.880528 
L 260.774679 182.186033 
L 261.227582 182.186033 
L 261.454033 181.568703 
L 262.133386 181.568703 
L 262.359837 180.719875 
L 262.81274 180.719875 
L 263.039191 179.485216 
L 263.718544 179.485216 
L 263.944995 178.173391 
L 264.397898 178.173391 
L 264.624349 176.475735 
L 265.303702 176.475735 
L 265.530153 174.546581 
L 265.983056 174.546581 
L 266.209507 173.003257 
L 266.88886 173.003257 
L 267.115311 171.074102 
L 267.568214 171.074102 
L 267.794665 169.376446 
L 268.247567 169.376446 
L 268.474018 167.292959 
L 269.153372 167.292959 
L 269.379823 166.521298 
L 269.832725 166.521298 
L 270.059176 165.595303 
L 270.73853 165.595303 
L 270.964981 163.743315 
L 271.417883 163.743315 
L 271.644335 161.119665 
L 272.323688 161.119665 
L 272.550139 159.653507 
L 273.003041 159.653507 
L 273.229493 158.881845 
L 273.908846 158.881845 
L 274.135297 157.261356 
L 274.5882 157.261356 
L 274.814651 155.872364 
L 275.494004 155.872364 
L 275.720455 153.94321 
L 276.173358 153.94321 
L 276.399809 152.631385 
L 277.079162 152.631385 
L 277.305613 151.859723 
L 277.758516 151.859723 
L 277.984967 151.088061 
L 278.437869 151.088061 
L 278.66432 149.776236 
L 279.343674 149.776236 
L 279.570125 147.769915 
L 280.023027 147.769915 
L 280.249478 146.689588 
L 280.928832 146.689588 
L 281.155283 146.072259 
L 281.608185 146.072259 
L 281.834636 145.223431 
L 282.51399 145.223431 
L 282.740441 143.448609 
L 283.193343 143.448609 
L 283.419794 141.056457 
L 284.099148 141.056457 
L 284.325599 139.127302 
L 284.778501 139.127302 
L 285.004953 138.278474 
L 285.684306 138.278474 
L 285.910757 137.506813 
L 286.363659 137.506813 
L 286.590111 135.268993 
L 287.269464 135.268993 
L 287.495915 132.336678 
L 287.948818 132.336678 
L 288.175269 131.256352 
L 288.628171 131.256352 
L 288.854622 130.716188 
L 289.533976 130.716188 
L 289.760427 129.48153 
L 290.213329 129.48153 
L 290.43978 128.632702 
L 291.119134 128.632702 
L 291.345585 126.935045 
L 291.798487 126.935045 
L 292.024938 125.62322 
L 292.704292 125.62322 
L 292.930743 124.774392 
L 293.383645 124.774392 
L 293.610096 123.925564 
L 294.28945 123.925564 
L 294.515901 122.845238 
L 294.968803 122.845238 
L 295.195254 121.610579 
L 295.874608 121.610579 
L 296.101059 120.221588 
L 296.553961 120.221588 
L 296.780413 118.986929 
L 297.459766 118.986929 
L 297.686217 117.443605 
L 298.139119 117.443605 
L 298.365571 116.054614 
L 298.818473 116.054614 
L 299.044924 113.353797 
L 299.724277 113.353797 
L 299.950729 111.656141 
L 300.403631 111.656141 
L 300.630082 110.961646 
L 301.309436 110.961646 
L 301.535887 109.64982 
L 301.988789 109.64982 
L 302.21524 107.874998 
L 302.894594 107.874998 
L 303.121045 104.479686 
L 303.573947 104.479686 
L 303.800398 102.550532 
L 304.479752 102.550532 
L 304.706203 101.933202 
L 305.159105 101.933202 
L 305.385556 100.775709 
L 306.06491 100.775709 
L 306.291361 99.309552 
L 306.744263 99.309552 
L 306.970714 97.766228 
L 307.650068 97.766228 
L 307.876519 96.531569 
L 308.329421 96.531569 
L 308.555872 95.451243 
L 309.008775 95.451243 
L 309.235226 94.216584 
L 309.914579 94.216584 
L 310.141031 92.518928 
L 310.593933 92.518928 
L 310.820384 90.512607 
L 311.499737 90.512607 
L 311.726189 89.509447 
L 312.179091 89.509447 
L 312.405542 88.583452 
L 313.084896 88.583452 
L 313.311347 87.42596 
L 313.764249 87.42596 
L 313.9907 86.268467 
L 314.670054 86.268467 
L 314.896505 84.647977 
L 315.349407 84.647977 
L 315.575858 83.18182 
L 316.255212 83.18182 
L 316.481663 82.332991 
L 316.934565 82.332991 
L 317.161016 81.175499 
L 317.84037 81.175499 
L 318.066821 78.937679 
L 318.519723 78.937679 
L 318.746174 76.082531 
L 319.199077 76.082531 
L 319.425528 74.770706 
L 320.104881 74.770706 
L 320.331332 74.462041 
L 320.784235 74.462041 
L 321.010686 73.073049 
L 321.690039 73.073049 
L 321.91649 71.915557 
L 322.369393 71.915557 
L 322.595844 70.295067 
L 323.275197 70.295067 
L 323.501649 69.446239 
L 323.954551 69.446239 
L 324.181002 68.520245 
L 324.860355 68.520245 
L 325.086807 67.671417 
L 325.539709 67.671417 
L 325.76616 66.513924 
L 326.445514 66.513924 
L 326.671965 65.279265 
L 327.124867 65.279265 
L 327.351318 63.195778 
L 328.030672 63.195778 
L 328.257123 62.115451 
L 328.710025 62.115451 
L 328.936476 60.263463 
L 329.389379 60.263463 
L 329.61583 58.411475 
L 330.295183 58.411475 
L 330.521634 56.250822 
L 330.974537 56.250822 
L 331.200988 53.395673 
L 331.880341 53.395673 
L 332.106792 51.929515 
L 332.559695 51.929515 
L 332.786146 50.926355 
L 333.465499 50.926355 
L 333.69195 49.151533 
L 334.144853 49.151533 
L 334.371304 46.527882 
L 335.050657 46.527882 
L 335.277108 45.524722 
L 335.730011 45.524722 
L 335.956462 44.907393 
L 336.635815 44.907393 
L 336.862267 44.290063 
L 337.315169 44.290063 
L 337.54162 43.672734 
L 338.220973 43.672734 
L 338.447425 43.13257 
L 338.900327 43.13257 
L 339.126778 42.978238 
L 340.485485 42.901072 
L 340.711936 42.592407 
L 341.164838 42.592407 
L 341.39129 42.360909 
L 342.070643 42.360909 
L 342.297094 42.206576 
L 343.655801 42.12941 
L 343.882252 41.975078 
L 344.335155 41.975078 
L 344.561606 41.820745 
L 346.826117 41.743579 
L 347.052568 41.51208 
L 348.411275 41.434914 
L 348.864178 41.357748 
L 349.090629 41.357748 
L 349.31708 41.203416 
L 350.675787 41.12625 
L 351.128689 41.049083 
L 353.846103 40.971917 
L 354.072554 40.740419 
L 357.016419 40.663252 
L 357.469321 40.586086 
L 357.695773 40.586086 
L 357.922224 40.200255 
L 359.280931 40.123089 
L 359.507382 39.968757 
L 361.545442 39.891591 
L 361.998344 39.814424 
L 362.451247 39.814424 
L 362.677698 39.660092 
L 364.715758 39.582926 
L 365.168661 39.50576 
L 366.300916 39.428594 
L 366.753819 39.351427 
L 367.206721 39.351427 
L 367.433172 39.197095 
L 368.791879 39.119929 
L 369.244781 39.042763 
L 370.377037 38.965596 
L 370.829939 38.88843 
L 371.735744 38.811264 
L 371.962195 38.656932 
L 373.320902 38.656932 
L 373.547353 38.502599 
L 375.811865 38.425433 
L 376.038316 38.271101 
L 379.661534 38.193935 
L 380.114437 38.116768 
L 392.116348 38.039602 
L 392.56925 37.962436 
L 555.387629 37.88527 
L 555.840531 37.808104 
L 876.948266 37.808104 
L 876.948266 37.808104 
" clip-path="url(#padd42b7f5b)" style="fill: none; stroke: #1f77b4; stroke-width: 2; stroke-linecap: square"/>
   </g>
   <g id="line2d_26">
    <path d="M 92.974375 317.149688 
L 138.717508 317.072372 
L 139.17041 316.995056 
L 140.302666 316.917741 
L 140.755568 316.840425 
L 141.661373 316.763109 
L 141.887824 316.608478 
L 146.869749 316.531162 
L 147.322652 316.453847 
L 148.002005 316.376531 
L 148.454907 316.299215 
L 151.398772 316.2219 
L 151.625224 316.067268 
L 155.021991 315.989953 
L 155.701344 315.835321 
L 166.797451 315.758006 
L 167.250353 315.68069 
L 173.590985 315.603375 
L 174.043888 315.526059 
L 174.270339 315.526059 
L 174.49679 315.294112 
L 175.855497 315.216796 
L 176.308399 315.139481 
L 176.53485 315.139481 
L 176.761302 314.907534 
L 177.440655 314.907534 
L 177.667106 314.366324 
L 178.120008 314.366324 
L 178.34646 314.057062 
L 179.025813 314.057062 
L 179.252264 313.670483 
L 179.705167 313.670483 
L 179.931618 313.051958 
L 180.610971 313.051958 
L 180.837422 312.510749 
L 181.290325 312.510749 
L 181.516776 312.12417 
L 182.196129 312.12417 
L 182.42258 311.196383 
L 182.875483 311.196383 
L 183.101934 309.418123 
L 183.781287 309.418123 
L 184.007738 308.258388 
L 184.460641 308.258388 
L 184.687092 307.794494 
L 185.366445 307.794494 
L 185.592896 307.098653 
L 186.045799 307.098653 
L 186.27225 305.706972 
L 186.725152 305.706972 
L 186.951603 304.083343 
L 187.630957 304.083343 
L 187.857408 303.07824 
L 188.31031 303.07824 
L 188.536761 302.691661 
L 189.216115 302.691661 
L 189.442566 301.841189 
L 189.895468 301.841189 
L 190.12192 300.449508 
L 190.801273 300.449508 
L 191.027724 299.135142 
L 191.480626 299.135142 
L 191.707078 297.588829 
L 192.386431 297.588829 
L 192.612882 296.429094 
L 193.065785 296.429094 
L 193.292236 295.733253 
L 193.971589 295.733253 
L 194.19804 294.496203 
L 194.650943 294.496203 
L 194.877394 293.027205 
L 195.556747 293.027205 
L 195.783198 291.944786 
L 196.236101 291.944786 
L 196.462552 290.785052 
L 196.915454 290.785052 
L 197.141905 290.089211 
L 197.821259 290.089211 
L 198.04771 288.233635 
L 198.500612 288.233635 
L 198.727063 286.455375 
L 199.406417 286.455375 
L 199.632868 284.5998 
L 200.08577 284.5998 
L 200.312221 283.672012 
L 200.991575 283.672012 
L 201.218026 283.208118 
L 201.670928 283.208118 
L 201.897379 281.816437 
L 202.576733 281.816437 
L 202.803184 280.424755 
L 203.256086 280.424755 
L 203.482538 279.187705 
L 204.161891 279.187705 
L 204.388342 278.02797 
L 204.841244 278.02797 
L 205.067696 277.177498 
L 205.747049 277.177498 
L 205.9735 275.785816 
L 206.426403 275.785816 
L 206.652854 274.316819 
L 207.105756 274.316819 
L 207.332207 272.770506 
L 208.011561 272.770506 
L 208.238012 271.997349 
L 208.690914 271.997349 
L 208.917365 271.301509 
L 209.596719 271.301509 
L 209.82317 270.141774 
L 210.276072 270.141774 
L 210.502523 268.750092 
L 211.181877 268.750092 
L 211.408328 267.667673 
L 211.86123 267.667673 
L 212.087681 266.585254 
L 212.767035 266.585254 
L 212.993486 266.198676 
L 213.446388 266.198676 
L 213.672839 264.806994 
L 214.352193 264.806994 
L 214.578644 264.033838 
L 215.031546 264.033838 
L 215.257997 262.951419 
L 215.937351 262.951419 
L 216.163802 262.410209 
L 216.616704 262.410209 
L 216.843156 260.941212 
L 217.296058 260.941212 
L 217.522509 259.858793 
L 218.201862 259.858793 
L 218.428314 258.235164 
L 218.881216 258.235164 
L 219.107667 256.766167 
L 219.787021 256.766167 
L 220.013472 255.374485 
L 220.466374 255.374485 
L 220.692825 254.678644 
L 221.372179 254.678644 
L 221.59863 252.900384 
L 222.051532 252.900384 
L 222.277983 250.039705 
L 222.957337 250.039705 
L 223.183788 248.957286 
L 223.63669 248.957286 
L 223.863141 247.720236 
L 224.542495 247.720236 
L 224.768946 246.869764 
L 225.221848 246.869764 
L 225.448299 245.400767 
L 226.127653 245.400767 
L 226.354104 243.699822 
L 226.807006 243.699822 
L 227.033457 241.6123 
L 227.48636 241.6123 
L 227.712811 240.761828 
L 228.392164 240.761828 
L 228.618616 239.83404 
L 229.071518 239.83404 
L 229.297969 237.978464 
L 229.977322 237.978464 
L 230.203774 236.122889 
L 230.656676 236.122889 
L 230.883127 234.885839 
L 231.56248 234.885839 
L 231.788932 234.421945 
L 232.241834 234.421945 
L 232.468285 233.571473 
L 233.147639 233.571473 
L 233.37409 231.715897 
L 233.826992 231.715897 
L 234.053443 229.628375 
L 234.732797 229.628375 
L 234.959248 227.618168 
L 235.41215 227.618168 
L 235.638601 226.922327 
L 236.317955 226.922327 
L 236.544406 225.762592 
L 236.997308 225.762592 
L 237.223759 223.907017 
L 237.676662 223.907017 
L 237.903113 222.283388 
L 238.582466 222.283388 
L 238.808917 220.969022 
L 239.26182 220.969022 
L 239.488271 220.11855 
L 240.167624 220.11855 
L 240.394075 219.268078 
L 240.846978 219.268078 
L 241.073429 217.489818 
L 241.752782 217.489818 
L 241.979234 216.020821 
L 242.432136 216.020821 
L 242.658587 213.778667 
L 243.33794 213.778667 
L 243.564392 212.696248 
L 244.017294 212.696248 
L 244.243745 211.691144 
L 244.923099 211.691144 
L 245.14955 210.686041 
L 245.602452 210.686041 
L 245.828903 208.830465 
L 246.508257 208.830465 
L 246.734708 207.438784 
L 247.18761 207.438784 
L 247.414061 206.279049 
L 247.866963 206.279049 
L 248.093415 205.583208 
L 248.772768 205.583208 
L 248.999219 203.804948 
L 249.452122 203.804948 
L 249.678573 202.258635 
L 250.357926 202.258635 
L 250.584377 200.480375 
L 251.03728 200.480375 
L 251.263731 199.243325 
L 251.943084 199.243325 
L 252.169535 198.392853 
L 252.622438 198.392853 
L 252.848889 196.769224 
L 253.528242 196.769224 
L 253.754693 194.990964 
L 254.207596 194.990964 
L 254.434047 193.444652 
L 255.1134 193.444652 
L 255.339852 192.207601 
L 255.792754 192.207601 
L 256.019205 191.279813 
L 256.698558 191.279813 
L 256.92501 189.501554 
L 257.377912 189.501554 
L 257.604363 187.723294 
L 258.057265 187.723294 
L 258.283717 186.408928 
L 258.96307 186.408928 
L 259.189521 185.790402 
L 259.642423 185.790402 
L 259.868875 184.862615 
L 260.548228 184.862615 
L 260.774679 183.16167 
L 261.227582 183.16167 
L 261.454033 181.151464 
L 262.133386 181.151464 
L 262.359837 179.450519 
L 262.81274 179.450519 
L 263.039191 178.522732 
L 263.718544 178.522732 
L 263.944995 178.213469 
L 264.397898 178.213469 
L 264.624349 176.512525 
L 265.303702 176.512525 
L 265.530153 174.888896 
L 265.983056 174.888896 
L 266.209507 172.492111 
L 266.88886 172.492111 
L 267.115311 171.564323 
L 267.568214 171.564323 
L 267.794665 170.868482 
L 268.247567 170.868482 
L 268.474018 169.476801 
L 269.153372 169.476801 
L 269.379823 167.389278 
L 269.832725 167.389278 
L 270.059176 165.533703 
L 270.73853 165.533703 
L 270.964981 164.760546 
L 271.417883 164.760546 
L 271.644335 163.832759 
L 272.323688 163.832759 
L 272.550139 162.750339 
L 273.003041 162.750339 
L 273.229493 160.585501 
L 273.908846 160.585501 
L 274.135297 159.503082 
L 274.5882 159.503082 
L 274.814651 158.266032 
L 275.494004 158.266032 
L 275.720455 157.647507 
L 276.173358 157.647507 
L 276.399809 156.178509 
L 277.079162 156.178509 
L 277.305613 154.477565 
L 277.758516 154.477565 
L 277.984967 152.235411 
L 278.437869 152.235411 
L 278.66432 151.307624 
L 279.343674 151.307624 
L 279.570125 150.534467 
L 280.023027 150.534467 
L 280.249478 148.910839 
L 280.928832 148.910839 
L 281.155283 146.900632 
L 281.608185 146.900632 
L 281.834636 145.277003 
L 282.51399 145.277003 
L 282.740441 143.653375 
L 283.193343 143.653375 
L 283.419794 142.802902 
L 284.099148 142.802902 
L 284.325599 141.101958 
L 284.778501 141.101958 
L 285.004953 139.246383 
L 285.684306 139.246383 
L 285.910757 137.545438 
L 286.363659 137.545438 
L 286.590111 136.617651 
L 287.269464 136.617651 
L 287.495915 135.92181 
L 287.948818 135.92181 
L 288.175269 134.298181 
L 288.628171 134.298181 
L 288.854622 132.287974 
L 289.533976 132.287974 
L 289.760427 130.277768 
L 290.213329 130.277768 
L 290.43978 129.272664 
L 291.119134 129.272664 
L 291.345585 128.190245 
L 291.798487 128.190245 
L 292.024938 126.643932 
L 292.704292 126.643932 
L 292.930743 124.788357 
L 293.383645 124.788357 
L 293.610096 122.314256 
L 294.28945 122.314256 
L 294.515901 121.231837 
L 294.968803 121.231837 
L 295.195254 120.690627 
L 295.874608 120.690627 
L 296.101059 119.762839 
L 296.553961 119.762839 
L 296.780413 117.675317 
L 297.459766 117.675317 
L 297.686217 116.438267 
L 298.139119 116.438267 
L 298.365571 115.355848 
L 298.818473 115.355848 
L 299.044924 114.42806 
L 299.724277 114.42806 
L 299.950729 113.577588 
L 300.403631 113.577588 
L 300.630082 111.799328 
L 301.309436 111.799328 
L 301.535887 110.175699 
L 301.988789 110.175699 
L 302.21524 109.402543 
L 302.894594 109.402543 
L 303.121045 109.170596 
L 303.573947 109.170596 
L 303.800398 107.701598 
L 304.479752 107.701598 
L 304.706203 105.923339 
L 305.159105 105.923339 
L 305.385556 104.377026 
L 306.06491 104.377026 
L 306.291361 103.371922 
L 306.744263 103.371922 
L 306.970714 101.748294 
L 307.650068 101.748294 
L 307.876519 100.047349 
L 308.329421 100.047349 
L 308.555872 98.191774 
L 309.008775 98.191774 
L 309.235226 96.49083 
L 309.914579 96.49083 
L 310.141031 95.408411 
L 310.593933 95.408411 
L 310.820384 94.325991 
L 311.499737 94.325991 
L 311.726189 92.625047 
L 312.179091 92.625047 
L 312.405542 90.924103 
L 313.084896 90.924103 
L 313.311347 89.687053 
L 313.764249 89.687053 
L 313.9907 88.372687 
L 314.670054 88.372687 
L 314.896505 86.671742 
L 315.349407 86.671742 
L 315.575858 84.816167 
L 316.255212 84.816167 
L 316.481663 82.80596 
L 316.934565 82.80596 
L 317.161016 81.259647 
L 317.84037 81.259647 
L 318.066821 80.022597 
L 318.519723 80.022597 
L 318.746174 78.940178 
L 319.199077 78.940178 
L 319.425528 77.239233 
L 320.104881 77.239233 
L 320.331332 75.306342 
L 320.784235 75.306342 
L 321.010686 74.45587 
L 321.690039 74.45587 
L 321.91649 73.450767 
L 322.369393 73.450767 
L 322.595844 72.754926 
L 323.275197 72.754926 
L 323.501649 71.595191 
L 323.954551 71.595191 
L 324.181002 69.584984 
L 324.860355 69.584984 
L 325.086807 67.729409 
L 325.539709 67.729409 
L 325.76616 66.569674 
L 326.445514 66.569674 
L 326.671965 65.409939 
L 327.124867 65.409939 
L 327.351318 64.095573 
L 328.030672 64.095573 
L 328.257123 62.703892 
L 328.710025 62.703892 
L 328.936476 61.080263 
L 329.389379 61.080263 
L 329.61583 59.997844 
L 330.295183 59.997844 
L 330.521634 58.992741 
L 330.974537 58.992741 
L 331.200988 57.601059 
L 331.880341 57.601059 
L 332.106792 55.281589 
L 332.559695 55.281589 
L 332.786146 53.889908 
L 333.465499 53.889908 
L 333.69195 53.271383 
L 334.144853 53.271383 
L 334.371304 52.652857 
L 335.050657 52.652857 
L 335.277108 51.957017 
L 335.730011 51.957017 
L 335.956462 50.410704 
L 336.635815 50.410704 
L 336.862267 50.178757 
L 337.315169 50.178757 
L 337.54162 50.024125 
L 338.220973 50.024125 
L 338.447425 49.714863 
L 338.900327 49.714863 
L 339.126778 49.096338 
L 339.57968 49.096338 
L 339.806132 48.632444 
L 340.485485 48.632444 
L 340.711936 48.16855 
L 341.164838 48.16855 
L 341.39129 47.859287 
L 342.749997 47.781972 
L 342.976448 47.472709 
L 343.655801 47.472709 
L 343.882252 47.240762 
L 344.335155 47.240762 
L 344.561606 46.776868 
L 345.240959 46.776868 
L 345.46741 46.544921 
L 345.920313 46.544921 
L 346.146764 46.312974 
L 346.826117 46.312974 
L 347.052568 45.926396 
L 347.505471 45.926396 
L 347.731922 45.539818 
L 348.411275 45.539818 
L 348.637726 45.385187 
L 350.675787 45.307871 
L 350.902238 45.15324 
L 351.35514 45.15324 
L 351.581591 44.766661 
L 352.260945 44.766661 
L 352.487396 44.457399 
L 353.846103 44.380083 
L 354.072554 44.225452 
L 354.525456 44.225452 
L 354.751908 44.070821 
L 355.431261 44.070821 
L 355.657712 43.606927 
L 357.695773 43.529611 
L 358.148675 43.452295 
L 358.601577 43.452295 
L 358.828028 43.143033 
L 359.280931 43.143033 
L 359.507382 42.679139 
L 360.186735 42.679139 
L 360.413186 42.447192 
L 360.866089 42.447192 
L 361.09254 42.292561 
L 362.451247 42.215245 
L 362.677698 41.751351 
L 363.1306 41.751351 
L 363.357051 41.364773 
L 364.036405 41.364773 
L 364.262856 41.132826 
L 364.715758 41.132826 
L 364.942209 40.746248 
L 367.206721 40.668932 
L 367.433172 40.35967 
L 367.886074 40.35967 
L 368.112526 39.895776 
L 368.791879 39.895776 
L 369.01833 39.663829 
L 370.377037 39.586513 
L 370.603488 39.354566 
L 371.056391 39.354566 
L 371.282842 39.199935 
L 371.735744 39.199935 
L 371.962195 38.967988 
L 372.641549 38.967988 
L 372.868 38.736041 
L 374.226707 38.736041 
L 374.453158 38.58141 
L 374.90606 38.58141 
L 375.132511 38.426778 
L 378.982181 38.349463 
L 379.435083 38.272147 
L 386.68152 38.194831 
L 387.134422 38.117516 
L 642.344872 38.0402 
L 642.797774 37.962884 
L 876.948266 37.885569 
L 876.948266 37.885569 
" clip-path="url(#padd42b7f5b)" style="fill: none; stroke: #ff7f0e; stroke-width: 2; stroke-linecap: square"/>
   </g>
   <g id="patch_3">
    <path d="M 92.974375 331.120625 
L 92.974375 23.76 
" style="fill: none; stroke: #000000; stroke-width: 0.8; stroke-linejoin: miter; stroke-linecap: square"/>
   </g>
   <g id="patch_4">
    <path d="M 876.84375 331.120625 
L 876.84375 23.76 
" style="fill: none; stroke: #000000; stroke-width: 0.8; stroke-linejoin: miter; stroke-linecap: square"/>
   </g>
   <g id="patch_5">
    <path d="M 92.974375 331.120625 
L 876.84375 331.120625 
" style="fill: none; stroke: #000000; stroke-width: 0.8; stroke-linejoin: miter; stroke-linecap: square"/>
   </g>
   <g id="patch_6">
    <path d="M 92.974375 23.76 
L 876.84375 23.76 
" style="fill: none; stroke: #000000; stroke-width: 0.8; stroke-linejoin: miter; stroke-linecap: square"/>
   </g>
   <g id="legend_1">
    <g id="patch_7">
     <path d="M 646.095 319.120625 
L 860.04375 319.120625 
Q 864.84375 319.120625 864.84375 314.320625 
L 864.84375 245.598125 
Q 864.84375 240.798125 860.04375 240.798125 
L 646.095 240.798125 
Q 641.295 240.798125 641.295 245.598125 
L 641.295 314.320625 
Q 641.295 319.120625 646.095 319.120625 
z
" style="fill: #ffffff; opacity: 0.8; stroke: #cccccc; stroke-linejoin: miter"/>
    </g>
    <g id="line2d_27">
     <path d="M 650.895 260.234375 
L 674.895 260.234375 
L 698.895 260.234375 
" style="fill: none; stroke: #1f77b4; stroke-width: 2; stroke-linecap: square"/>
    </g>
    <g id="text_15">
     <!-- no_prealloc -->
     <g transform="translate(718.095 268.634375)scale(0.24 -0.24)">
      <defs>
       <path id="DejaVuSans-5f" d="M 3263 -1063 
L 3263 -1509 
L -63 -1509 
L -63 -1063 
L 3263 -1063 
z
" transform="scale(0.015625)"/>
       <path id="DejaVuSans-70" d="M 1159 525 
L 1159 -1331 
L 581 -1331 
L 581 3500 
L 1159 3500 
L 1159 2969 
Q 1341 3281 1617 3432 
Q 1894 3584 2278 3584 
Q 2916 3584 3314 3078 
Q 3713 2572 3713 1747 
Q 3713 922 3314 415 
Q 2916 -91 2278 -91 
Q 1894 -91 1617 61 
Q 1341 213 1159 525 
z
M 3116 1747 
Q 3116 2381 2855 2742 
Q 2594 3103 2138 3103 
Q 1681 3103 1420 2742 
Q 1159 2381 1159 1747 
Q 1159 1113 1420 752 
Q 1681 391 2138 391 
Q 2594 391 2855 752 
Q 3116 1113 3116 1747 
z
" transform="scale(0.015625)"/>
       <path id="DejaVuSans-61" d="M 2194 1759 
Q 1497 1759 1228 1600 
Q 959 1441 959 1056 
Q 959 750 1161 570 
Q 1363 391 1709 391 
Q 2188 391 2477 730 
Q 2766 1069 2766 1631 
L 2766 1759 
L 2194 1759 
z
M 3341 1997 
L 3341 0 
L 2766 0 
L 2766 531 
Q 2569 213 2275 61 
Q 1981 -91 1556 -91 
Q 1019 -91 701 211 
Q 384 513 384 1019 
Q 384 1609 779 1909 
Q 1175 2209 1959 2209 
L 2766 2209 
L 2766 2266 
Q 2766 2663 2505 2880 
Q 2244 3097 1772 3097 
Q 1472 3097 1187 3025 
Q 903 2953 641 2809 
L 641 3341 
Q 956 3463 1253 3523 
Q 1550 3584 1831 3584 
Q 2591 3584 2966 3190 
Q 3341 2797 3341 1997 
z
" transform="scale(0.015625)"/>
      </defs>
      <use xlink:href="#DejaVuSans-6e"/>
      <use xlink:href="#DejaVuSans-6f" x="63.378906"/>
      <use xlink:href="#DejaVuSans-5f" x="124.560547"/>
      <use xlink:href="#DejaVuSans-70" x="174.560547"/>
      <use xlink:href="#DejaVuSans-72" x="238.037109"/>
      <use xlink:href="#DejaVuSans-65" x="276.900391"/>
      <use xlink:href="#DejaVuSans-61" x="338.423828"/>
      <use xlink:href="#DejaVuSans-6c" x="399.703125"/>
      <use xlink:href="#DejaVuSans-6c" x="427.486328"/>
      <use xlink:href="#DejaVuSans-6f" x="455.269531"/>
      <use xlink:href="#DejaVuSans-63" x="516.451172"/>
     </g>
    </g>
    <g id="line2d_28">
     <path d="M 650.895 296.129375 
L 674.895 296.129375 
L 698.895 296.129375 
" style="fill: none; stroke: #ff7f0e; stroke-width: 2; stroke-linecap: square"/>
    </g>
    <g id="text_16">
     <!-- Default -->
     <g transform="translate(718.095 304.529375)scale(0.24 -0.24)">
      <defs>
       <path id="DejaVuSans-44" d="M 1259 4147 
L 1259 519 
L 2022 519 
Q 2988 519 3436 956 
Q 3884 1394 3884 2338 
Q 3884 3275 3436 3711 
Q 2988 4147 2022 4147 
L 1259 4147 
z
M 628 4666 
L 1925 4666 
Q 3281 4666 3915 4102 
Q 4550 3538 4550 2338 
Q 4550 1131 3912 565 
Q 3275 0 1925 0 
L 628 0 
L 628 4666 
z
" transform="scale(0.015625)"/>
       <path id="DejaVuSans-74" d="M 1172 4494 
L 1172 3500 
L 2356 3500 
L 2356 3053 
L 1172 3053 
L 1172 1153 
Q 1172 725 1289 603 
Q 1406 481 1766 481 
L 2356 481 
L 2356 0 
L 1766 0 
Q 1100 0 847 248 
Q 594 497 594 1153 
L 594 3053 
L 172 3053 
L 172 3500 
L 594 3500 
L 594 4494 
L 1172 4494 
z
" transform="scale(0.015625)"/>
      </defs>
      <use xlink:href="#DejaVuSans-44"/>
      <use xlink:href="#DejaVuSans-65" x="77.001953"/>
      <use xlink:href="#DejaVuSans-66" x="138.525391"/>
      <use xlink:href="#DejaVuSans-61" x="173.730469"/>
      <use xlink:href="#DejaVuSans-75" x="235.009766"/>
      <use xlink:href="#DejaVuSans-6c" x="298.388672"/>
      <use xlink:href="#DejaVuSans-74" x="326.171875"/>
     </g>
    </g>
   </g>
  </g>
 </g>
 <defs>
  <clipPath id="padd42b7f5b">
   <rect x="92.974375" y="23.76" width="783.869375" height="307.360625"/>
  </clipPath>
 </defs>
</svg>
