<?xml version="1.0" encoding="utf-8" standalone="no"?>
<!DOCTYPE svg PUBLIC "-//W3C//DTD SVG 1.1//EN"
  "http://www.w3.org/Graphics/SVG/1.1/DTD/svg11.dtd">
<svg xmlns:xlink="http://www.w3.org/1999/xlink" width="921.6pt" height="410.4pt" viewBox="0 0 921.6 410.4" xmlns="http://www.w3.org/2000/svg" version="1.1">
 <metadata>
  <rdf:RDF xmlns:dc="http://purl.org/dc/elements/1.1/" xmlns:cc="http://creativecommons.org/ns#" xmlns:rdf="http://www.w3.org/1999/02/22-rdf-syntax-ns#">
   <cc:Work>
    <dc:type rdf:resource="http://purl.org/dc/dcmitype/StillImage"/>
    <dc:date>2023-04-17T18:33:15.683956</dc:date>
    <dc:format>image/svg+xml</dc:format>
    <dc:creator>
     <cc:Agent>
      <dc:title>Matplotlib v3.5.3, https://matplotlib.org/</dc:title>
     </cc:Agent>
    </dc:creator>
   </cc:Work>
  </rdf:RDF>
 </metadata>
 <defs>
  <style type="text/css">*{stroke-linejoin: round; stroke-linecap: butt}</style>
 </defs>
 <g id="figure_1">
  <g id="patch_1">
   <path d="M 0 410.4 
L 921.6 410.4 
L 921.6 0 
L 0 0 
L 0 410.4 
z
" style="fill: none"/>
  </g>
  <g id="axes_1">
   <g id="patch_2">
    <path d="M 92.974375 331.120625 
L 876.84375 331.120625 
L 876.84375 23.76 
L 92.974375 23.76 
z
" style="fill: #ffffff"/>
   </g>
   <g id="matplotlib.axis_1">
    <g id="xtick_1">
     <g id="line2d_1">
      <path d="M 92.974375 331.120625 
L 92.974375 23.76 
" clip-path="url(#p918baf8130)" style="fill: none; stroke: #b0b0b0; stroke-width: 0.8; stroke-linecap: square"/>
     </g>
     <g id="line2d_2">
      <defs>
       <path id="ma6b752323d" d="M 0 0 
L 0 3.5 
" style="stroke: #000000; stroke-width: 0.8"/>
      </defs>
      <g>
       <use xlink:href="#ma6b752323d" x="92.974375" y="331.120625" style="stroke: #000000; stroke-width: 0.8"/>
      </g>
     </g>
     <g id="text_1">
      <!-- 0 -->
      <g transform="translate(85.975625 354.837188)scale(0.22 -0.22)">
       <defs>
        <path id="DejaVuSans-30" d="M 2034 4250 
Q 1547 4250 1301 3770 
Q 1056 3291 1056 2328 
Q 1056 1369 1301 889 
Q 1547 409 2034 409 
Q 2525 409 2770 889 
Q 3016 1369 3016 2328 
Q 3016 3291 2770 3770 
Q 2525 4250 2034 4250 
z
M 2034 4750 
Q 2819 4750 3233 4129 
Q 3647 3509 3647 2328 
Q 3647 1150 3233 529 
Q 2819 -91 2034 -91 
Q 1250 -91 836 529 
Q 422 1150 422 2328 
Q 422 3509 836 4129 
Q 1250 4750 2034 4750 
z
" transform="scale(0.015625)"/>
       </defs>
       <use xlink:href="#DejaVuSans-30"/>
      </g>
     </g>
    </g>
    <g id="xtick_2">
     <g id="line2d_3">
      <path d="M 249.74825 331.120625 
L 249.74825 23.76 
" clip-path="url(#p918baf8130)" style="fill: none; stroke: #b0b0b0; stroke-width: 0.8; stroke-linecap: square"/>
     </g>
     <g id="line2d_4">
      <g>
       <use xlink:href="#ma6b752323d" x="249.74825" y="331.120625" style="stroke: #000000; stroke-width: 0.8"/>
      </g>
     </g>
     <g id="text_2">
      <!-- 20 -->
      <g transform="translate(235.75075 354.837188)scale(0.22 -0.22)">
       <defs>
        <path id="DejaVuSans-32" d="M 1228 531 
L 3431 531 
L 3431 0 
L 469 0 
L 469 531 
Q 828 903 1448 1529 
Q 2069 2156 2228 2338 
Q 2531 2678 2651 2914 
Q 2772 3150 2772 3378 
Q 2772 3750 2511 3984 
Q 2250 4219 1831 4219 
Q 1534 4219 1204 4116 
Q 875 4013 500 3803 
L 500 4441 
Q 881 4594 1212 4672 
Q 1544 4750 1819 4750 
Q 2544 4750 2975 4387 
Q 3406 4025 3406 3419 
Q 3406 3131 3298 2873 
Q 3191 2616 2906 2266 
Q 2828 2175 2409 1742 
Q 1991 1309 1228 531 
z
" transform="scale(0.015625)"/>
       </defs>
       <use xlink:href="#DejaVuSans-32"/>
       <use xlink:href="#DejaVuSans-30" x="63.623047"/>
      </g>
     </g>
    </g>
    <g id="xtick_3">
     <g id="line2d_5">
      <path d="M 406.522125 331.120625 
L 406.522125 23.76 
" clip-path="url(#p918baf8130)" style="fill: none; stroke: #b0b0b0; stroke-width: 0.8; stroke-linecap: square"/>
     </g>
     <g id="line2d_6">
      <g>
       <use xlink:href="#ma6b752323d" x="406.522125" y="331.120625" style="stroke: #000000; stroke-width: 0.8"/>
      </g>
     </g>
     <g id="text_3">
      <!-- 40 -->
      <g transform="translate(392.524625 354.837188)scale(0.22 -0.22)">
       <defs>
        <path id="DejaVuSans-34" d="M 2419 4116 
L 825 1625 
L 2419 1625 
L 2419 4116 
z
M 2253 4666 
L 3047 4666 
L 3047 1625 
L 3713 1625 
L 3713 1100 
L 3047 1100 
L 3047 0 
L 2419 0 
L 2419 1100 
L 313 1100 
L 313 1709 
L 2253 4666 
z
" transform="scale(0.015625)"/>
       </defs>
       <use xlink:href="#DejaVuSans-34"/>
       <use xlink:href="#DejaVuSans-30" x="63.623047"/>
      </g>
     </g>
    </g>
    <g id="xtick_4">
     <g id="line2d_7">
      <path d="M 563.296 331.120625 
L 563.296 23.76 
" clip-path="url(#p918baf8130)" style="fill: none; stroke: #b0b0b0; stroke-width: 0.8; stroke-linecap: square"/>
     </g>
     <g id="line2d_8">
      <g>
       <use xlink:href="#ma6b752323d" x="563.296" y="331.120625" style="stroke: #000000; stroke-width: 0.8"/>
      </g>
     </g>
     <g id="text_4">
      <!-- 60 -->
      <g transform="translate(549.2985 354.837188)scale(0.22 -0.22)">
       <defs>
        <path id="DejaVuSans-36" d="M 2113 2584 
Q 1688 2584 1439 2293 
Q 1191 2003 1191 1497 
Q 1191 994 1439 701 
Q 1688 409 2113 409 
Q 2538 409 2786 701 
Q 3034 994 3034 1497 
Q 3034 2003 2786 2293 
Q 2538 2584 2113 2584 
z
M 3366 4563 
L 3366 3988 
Q 3128 4100 2886 4159 
Q 2644 4219 2406 4219 
Q 1781 4219 1451 3797 
Q 1122 3375 1075 2522 
Q 1259 2794 1537 2939 
Q 1816 3084 2150 3084 
Q 2853 3084 3261 2657 
Q 3669 2231 3669 1497 
Q 3669 778 3244 343 
Q 2819 -91 2113 -91 
Q 1303 -91 875 529 
Q 447 1150 447 2328 
Q 447 3434 972 4092 
Q 1497 4750 2381 4750 
Q 2619 4750 2861 4703 
Q 3103 4656 3366 4563 
z
" transform="scale(0.015625)"/>
       </defs>
       <use xlink:href="#DejaVuSans-36"/>
       <use xlink:href="#DejaVuSans-30" x="63.623047"/>
      </g>
     </g>
    </g>
    <g id="xtick_5">
     <g id="line2d_9">
      <path d="M 720.069875 331.120625 
L 720.069875 23.76 
" clip-path="url(#p918baf8130)" style="fill: none; stroke: #b0b0b0; stroke-width: 0.8; stroke-linecap: square"/>
     </g>
     <g id="line2d_10">
      <g>
       <use xlink:href="#ma6b752323d" x="720.069875" y="331.120625" style="stroke: #000000; stroke-width: 0.8"/>
      </g>
     </g>
     <g id="text_5">
      <!-- 80 -->
      <g transform="translate(706.072375 354.837188)scale(0.22 -0.22)">
       <defs>
        <path id="DejaVuSans-38" d="M 2034 2216 
Q 1584 2216 1326 1975 
Q 1069 1734 1069 1313 
Q 1069 891 1326 650 
Q 1584 409 2034 409 
Q 2484 409 2743 651 
Q 3003 894 3003 1313 
Q 3003 1734 2745 1975 
Q 2488 2216 2034 2216 
z
M 1403 2484 
Q 997 2584 770 2862 
Q 544 3141 544 3541 
Q 544 4100 942 4425 
Q 1341 4750 2034 4750 
Q 2731 4750 3128 4425 
Q 3525 4100 3525 3541 
Q 3525 3141 3298 2862 
Q 3072 2584 2669 2484 
Q 3125 2378 3379 2068 
Q 3634 1759 3634 1313 
Q 3634 634 3220 271 
Q 2806 -91 2034 -91 
Q 1263 -91 848 271 
Q 434 634 434 1313 
Q 434 1759 690 2068 
Q 947 2378 1403 2484 
z
M 1172 3481 
Q 1172 3119 1398 2916 
Q 1625 2713 2034 2713 
Q 2441 2713 2670 2916 
Q 2900 3119 2900 3481 
Q 2900 3844 2670 4047 
Q 2441 4250 2034 4250 
Q 1625 4250 1398 4047 
Q 1172 3844 1172 3481 
z
" transform="scale(0.015625)"/>
       </defs>
       <use xlink:href="#DejaVuSans-38"/>
       <use xlink:href="#DejaVuSans-30" x="63.623047"/>
      </g>
     </g>
    </g>
    <g id="xtick_6">
     <g id="line2d_11">
      <path d="M 876.84375 331.120625 
L 876.84375 23.76 
" clip-path="url(#p918baf8130)" style="fill: none; stroke: #b0b0b0; stroke-width: 0.8; stroke-linecap: square"/>
     </g>
     <g id="line2d_12">
      <g>
       <use xlink:href="#ma6b752323d" x="876.84375" y="331.120625" style="stroke: #000000; stroke-width: 0.8"/>
      </g>
     </g>
     <g id="text_6">
      <!-- 100 -->
      <g transform="translate(855.8475 354.837188)scale(0.22 -0.22)">
       <defs>
        <path id="DejaVuSans-31" d="M 794 531 
L 1825 531 
L 1825 4091 
L 703 3866 
L 703 4441 
L 1819 4666 
L 2450 4666 
L 2450 531 
L 3481 531 
L 3481 0 
L 794 0 
L 794 531 
z
" transform="scale(0.015625)"/>
       </defs>
       <use xlink:href="#DejaVuSans-31"/>
       <use xlink:href="#DejaVuSans-30" x="63.623047"/>
       <use xlink:href="#DejaVuSans-30" x="127.246094"/>
      </g>
     </g>
    </g>
    <g id="text_7">
     <!-- RTT (ms) -->
     <g transform="translate(431.874687 381.64875)scale(0.24 -0.24)">
      <defs>
       <path id="DejaVuSans-52" d="M 2841 2188 
Q 3044 2119 3236 1894 
Q 3428 1669 3622 1275 
L 4263 0 
L 3584 0 
L 2988 1197 
Q 2756 1666 2539 1819 
Q 2322 1972 1947 1972 
L 1259 1972 
L 1259 0 
L 628 0 
L 628 4666 
L 2053 4666 
Q 2853 4666 3247 4331 
Q 3641 3997 3641 3322 
Q 3641 2881 3436 2590 
Q 3231 2300 2841 2188 
z
M 1259 4147 
L 1259 2491 
L 2053 2491 
Q 2509 2491 2742 2702 
Q 2975 2913 2975 3322 
Q 2975 3731 2742 3939 
Q 2509 4147 2053 4147 
L 1259 4147 
z
" transform="scale(0.015625)"/>
       <path id="DejaVuSans-54" d="M -19 4666 
L 3928 4666 
L 3928 4134 
L 2272 4134 
L 2272 0 
L 1638 0 
L 1638 4134 
L -19 4134 
L -19 4666 
z
" transform="scale(0.015625)"/>
       <path id="DejaVuSans-20" transform="scale(0.015625)"/>
       <path id="DejaVuSans-28" d="M 1984 4856 
Q 1566 4138 1362 3434 
Q 1159 2731 1159 2009 
Q 1159 1288 1364 580 
Q 1569 -128 1984 -844 
L 1484 -844 
Q 1016 -109 783 600 
Q 550 1309 550 2009 
Q 550 2706 781 3412 
Q 1013 4119 1484 4856 
L 1984 4856 
z
" transform="scale(0.015625)"/>
       <path id="DejaVuSans-6d" d="M 3328 2828 
Q 3544 3216 3844 3400 
Q 4144 3584 4550 3584 
Q 5097 3584 5394 3201 
Q 5691 2819 5691 2113 
L 5691 0 
L 5113 0 
L 5113 2094 
Q 5113 2597 4934 2840 
Q 4756 3084 4391 3084 
Q 3944 3084 3684 2787 
Q 3425 2491 3425 1978 
L 3425 0 
L 2847 0 
L 2847 2094 
Q 2847 2600 2669 2842 
Q 2491 3084 2119 3084 
Q 1678 3084 1418 2786 
Q 1159 2488 1159 1978 
L 1159 0 
L 581 0 
L 581 3500 
L 1159 3500 
L 1159 2956 
Q 1356 3278 1631 3431 
Q 1906 3584 2284 3584 
Q 2666 3584 2933 3390 
Q 3200 3197 3328 2828 
z
" transform="scale(0.015625)"/>
       <path id="DejaVuSans-73" d="M 2834 3397 
L 2834 2853 
Q 2591 2978 2328 3040 
Q 2066 3103 1784 3103 
Q 1356 3103 1142 2972 
Q 928 2841 928 2578 
Q 928 2378 1081 2264 
Q 1234 2150 1697 2047 
L 1894 2003 
Q 2506 1872 2764 1633 
Q 3022 1394 3022 966 
Q 3022 478 2636 193 
Q 2250 -91 1575 -91 
Q 1294 -91 989 -36 
Q 684 19 347 128 
L 347 722 
Q 666 556 975 473 
Q 1284 391 1588 391 
Q 1994 391 2212 530 
Q 2431 669 2431 922 
Q 2431 1156 2273 1281 
Q 2116 1406 1581 1522 
L 1381 1569 
Q 847 1681 609 1914 
Q 372 2147 372 2553 
Q 372 3047 722 3315 
Q 1072 3584 1716 3584 
Q 2034 3584 2315 3537 
Q 2597 3491 2834 3397 
z
" transform="scale(0.015625)"/>
       <path id="DejaVuSans-29" d="M 513 4856 
L 1013 4856 
Q 1481 4119 1714 3412 
Q 1947 2706 1947 2009 
Q 1947 1309 1714 600 
Q 1481 -109 1013 -844 
L 513 -844 
Q 928 -128 1133 580 
Q 1338 1288 1338 2009 
Q 1338 2731 1133 3434 
Q 928 4138 513 4856 
z
" transform="scale(0.015625)"/>
      </defs>
      <use xlink:href="#DejaVuSans-52"/>
      <use xlink:href="#DejaVuSans-54" x="62.232422"/>
      <use xlink:href="#DejaVuSans-54" x="121.566406"/>
      <use xlink:href="#DejaVuSans-20" x="182.650391"/>
      <use xlink:href="#DejaVuSans-28" x="214.4375"/>
      <use xlink:href="#DejaVuSans-6d" x="253.451172"/>
      <use xlink:href="#DejaVuSans-73" x="350.863281"/>
      <use xlink:href="#DejaVuSans-29" x="402.962891"/>
     </g>
    </g>
   </g>
   <g id="matplotlib.axis_2">
    <g id="ytick_1">
     <g id="line2d_13">
      <path d="M 92.974375 317.149688 
L 876.84375 317.149688 
" clip-path="url(#p918baf8130)" style="fill: none; stroke: #b0b0b0; stroke-width: 0.8; stroke-linecap: square"/>
     </g>
     <g id="line2d_14">
      <defs>
       <path id="ma987fb76e2" d="M 0 0 
L -3.5 0 
" style="stroke: #000000; stroke-width: 0.8"/>
      </defs>
      <g>
       <use xlink:href="#ma987fb76e2" x="92.974375" y="317.149688" style="stroke: #000000; stroke-width: 0.8"/>
      </g>
     </g>
     <g id="text_8">
      <!-- 0.0 -->
      <g transform="translate(50.9875 325.507969)scale(0.22 -0.22)">
       <defs>
        <path id="DejaVuSans-2e" d="M 684 794 
L 1344 794 
L 1344 0 
L 684 0 
L 684 794 
z
" transform="scale(0.015625)"/>
       </defs>
       <use xlink:href="#DejaVuSans-30"/>
       <use xlink:href="#DejaVuSans-2e" x="63.623047"/>
       <use xlink:href="#DejaVuSans-30" x="95.410156"/>
      </g>
     </g>
    </g>
    <g id="ytick_2">
     <g id="line2d_15">
      <path d="M 92.974375 261.265938 
L 876.84375 261.265938 
" clip-path="url(#p918baf8130)" style="fill: none; stroke: #b0b0b0; stroke-width: 0.8; stroke-linecap: square"/>
     </g>
     <g id="line2d_16">
      <g>
       <use xlink:href="#ma987fb76e2" x="92.974375" y="261.265938" style="stroke: #000000; stroke-width: 0.8"/>
      </g>
     </g>
     <g id="text_9">
      <!-- 0.2 -->
      <g transform="translate(50.9875 269.624219)scale(0.22 -0.22)">
       <use xlink:href="#DejaVuSans-30"/>
       <use xlink:href="#DejaVuSans-2e" x="63.623047"/>
       <use xlink:href="#DejaVuSans-32" x="95.410156"/>
      </g>
     </g>
    </g>
    <g id="ytick_3">
     <g id="line2d_17">
      <path d="M 92.974375 205.382188 
L 876.84375 205.382188 
" clip-path="url(#p918baf8130)" style="fill: none; stroke: #b0b0b0; stroke-width: 0.8; stroke-linecap: square"/>
     </g>
     <g id="line2d_18">
      <g>
       <use xlink:href="#ma987fb76e2" x="92.974375" y="205.382188" style="stroke: #000000; stroke-width: 0.8"/>
      </g>
     </g>
     <g id="text_10">
      <!-- 0.4 -->
      <g transform="translate(50.9875 213.740469)scale(0.22 -0.22)">
       <use xlink:href="#DejaVuSans-30"/>
       <use xlink:href="#DejaVuSans-2e" x="63.623047"/>
       <use xlink:href="#DejaVuSans-34" x="95.410156"/>
      </g>
     </g>
    </g>
    <g id="ytick_4">
     <g id="line2d_19">
      <path d="M 92.974375 149.498438 
L 876.84375 149.498438 
" clip-path="url(#p918baf8130)" style="fill: none; stroke: #b0b0b0; stroke-width: 0.8; stroke-linecap: square"/>
     </g>
     <g id="line2d_20">
      <g>
       <use xlink:href="#ma987fb76e2" x="92.974375" y="149.498438" style="stroke: #000000; stroke-width: 0.8"/>
      </g>
     </g>
     <g id="text_11">
      <!-- 0.6 -->
      <g transform="translate(50.9875 157.856719)scale(0.22 -0.22)">
       <use xlink:href="#DejaVuSans-30"/>
       <use xlink:href="#DejaVuSans-2e" x="63.623047"/>
       <use xlink:href="#DejaVuSans-36" x="95.410156"/>
      </g>
     </g>
    </g>
    <g id="ytick_5">
     <g id="line2d_21">
      <path d="M 92.974375 93.614688 
L 876.84375 93.614688 
" clip-path="url(#p918baf8130)" style="fill: none; stroke: #b0b0b0; stroke-width: 0.8; stroke-linecap: square"/>
     </g>
     <g id="line2d_22">
      <g>
       <use xlink:href="#ma987fb76e2" x="92.974375" y="93.614688" style="stroke: #000000; stroke-width: 0.8"/>
      </g>
     </g>
     <g id="text_12">
      <!-- 0.8 -->
      <g transform="translate(50.9875 101.972969)scale(0.22 -0.22)">
       <use xlink:href="#DejaVuSans-30"/>
       <use xlink:href="#DejaVuSans-2e" x="63.623047"/>
       <use xlink:href="#DejaVuSans-38" x="95.410156"/>
      </g>
     </g>
    </g>
    <g id="ytick_6">
     <g id="line2d_23">
      <path d="M 92.974375 37.730937 
L 876.84375 37.730937 
" clip-path="url(#p918baf8130)" style="fill: none; stroke: #b0b0b0; stroke-width: 0.8; stroke-linecap: square"/>
     </g>
     <g id="line2d_24">
      <g>
       <use xlink:href="#ma987fb76e2" x="92.974375" y="37.730937" style="stroke: #000000; stroke-width: 0.8"/>
      </g>
     </g>
     <g id="text_13">
      <!-- 1.0 -->
      <g transform="translate(50.9875 46.089219)scale(0.22 -0.22)">
       <use xlink:href="#DejaVuSans-31"/>
       <use xlink:href="#DejaVuSans-2e" x="63.623047"/>
       <use xlink:href="#DejaVuSans-30" x="95.410156"/>
      </g>
     </g>
    </g>
    <g id="text_14">
     <!-- Likelihood of occurrence -->
     <g transform="translate(41.99625 323.628438)rotate(-90)scale(0.24 -0.24)">
      <defs>
       <path id="DejaVuSans-4c" d="M 628 4666 
L 1259 4666 
L 1259 531 
L 3531 531 
L 3531 0 
L 628 0 
L 628 4666 
z
" transform="scale(0.015625)"/>
       <path id="DejaVuSans-69" d="M 603 3500 
L 1178 3500 
L 1178 0 
L 603 0 
L 603 3500 
z
M 603 4863 
L 1178 4863 
L 1178 4134 
L 603 4134 
L 603 4863 
z
" transform="scale(0.015625)"/>
       <path id="DejaVuSans-6b" d="M 581 4863 
L 1159 4863 
L 1159 1991 
L 2875 3500 
L 3609 3500 
L 1753 1863 
L 3688 0 
L 2938 0 
L 1159 1709 
L 1159 0 
L 581 0 
L 581 4863 
z
" transform="scale(0.015625)"/>
       <path id="DejaVuSans-65" d="M 3597 1894 
L 3597 1613 
L 953 1613 
Q 991 1019 1311 708 
Q 1631 397 2203 397 
Q 2534 397 2845 478 
Q 3156 559 3463 722 
L 3463 178 
Q 3153 47 2828 -22 
Q 2503 -91 2169 -91 
Q 1331 -91 842 396 
Q 353 884 353 1716 
Q 353 2575 817 3079 
Q 1281 3584 2069 3584 
Q 2775 3584 3186 3129 
Q 3597 2675 3597 1894 
z
M 3022 2063 
Q 3016 2534 2758 2815 
Q 2500 3097 2075 3097 
Q 1594 3097 1305 2825 
Q 1016 2553 972 2059 
L 3022 2063 
z
" transform="scale(0.015625)"/>
       <path id="DejaVuSans-6c" d="M 603 4863 
L 1178 4863 
L 1178 0 
L 603 0 
L 603 4863 
z
" transform="scale(0.015625)"/>
       <path id="DejaVuSans-68" d="M 3513 2113 
L 3513 0 
L 2938 0 
L 2938 2094 
Q 2938 2591 2744 2837 
Q 2550 3084 2163 3084 
Q 1697 3084 1428 2787 
Q 1159 2491 1159 1978 
L 1159 0 
L 581 0 
L 581 4863 
L 1159 4863 
L 1159 2956 
Q 1366 3272 1645 3428 
Q 1925 3584 2291 3584 
Q 2894 3584 3203 3211 
Q 3513 2838 3513 2113 
z
" transform="scale(0.015625)"/>
       <path id="DejaVuSans-6f" d="M 1959 3097 
Q 1497 3097 1228 2736 
Q 959 2375 959 1747 
Q 959 1119 1226 758 
Q 1494 397 1959 397 
Q 2419 397 2687 759 
Q 2956 1122 2956 1747 
Q 2956 2369 2687 2733 
Q 2419 3097 1959 3097 
z
M 1959 3584 
Q 2709 3584 3137 3096 
Q 3566 2609 3566 1747 
Q 3566 888 3137 398 
Q 2709 -91 1959 -91 
Q 1206 -91 779 398 
Q 353 888 353 1747 
Q 353 2609 779 3096 
Q 1206 3584 1959 3584 
z
" transform="scale(0.015625)"/>
       <path id="DejaVuSans-64" d="M 2906 2969 
L 2906 4863 
L 3481 4863 
L 3481 0 
L 2906 0 
L 2906 525 
Q 2725 213 2448 61 
Q 2172 -91 1784 -91 
Q 1150 -91 751 415 
Q 353 922 353 1747 
Q 353 2572 751 3078 
Q 1150 3584 1784 3584 
Q 2172 3584 2448 3432 
Q 2725 3281 2906 2969 
z
M 947 1747 
Q 947 1113 1208 752 
Q 1469 391 1925 391 
Q 2381 391 2643 752 
Q 2906 1113 2906 1747 
Q 2906 2381 2643 2742 
Q 2381 3103 1925 3103 
Q 1469 3103 1208 2742 
Q 947 2381 947 1747 
z
" transform="scale(0.015625)"/>
       <path id="DejaVuSans-66" d="M 2375 4863 
L 2375 4384 
L 1825 4384 
Q 1516 4384 1395 4259 
Q 1275 4134 1275 3809 
L 1275 3500 
L 2222 3500 
L 2222 3053 
L 1275 3053 
L 1275 0 
L 697 0 
L 697 3053 
L 147 3053 
L 147 3500 
L 697 3500 
L 697 3744 
Q 697 4328 969 4595 
Q 1241 4863 1831 4863 
L 2375 4863 
z
" transform="scale(0.015625)"/>
       <path id="DejaVuSans-63" d="M 3122 3366 
L 3122 2828 
Q 2878 2963 2633 3030 
Q 2388 3097 2138 3097 
Q 1578 3097 1268 2742 
Q 959 2388 959 1747 
Q 959 1106 1268 751 
Q 1578 397 2138 397 
Q 2388 397 2633 464 
Q 2878 531 3122 666 
L 3122 134 
Q 2881 22 2623 -34 
Q 2366 -91 2075 -91 
Q 1284 -91 818 406 
Q 353 903 353 1747 
Q 353 2603 823 3093 
Q 1294 3584 2113 3584 
Q 2378 3584 2631 3529 
Q 2884 3475 3122 3366 
z
" transform="scale(0.015625)"/>
       <path id="DejaVuSans-75" d="M 544 1381 
L 544 3500 
L 1119 3500 
L 1119 1403 
Q 1119 906 1312 657 
Q 1506 409 1894 409 
Q 2359 409 2629 706 
Q 2900 1003 2900 1516 
L 2900 3500 
L 3475 3500 
L 3475 0 
L 2900 0 
L 2900 538 
Q 2691 219 2414 64 
Q 2138 -91 1772 -91 
Q 1169 -91 856 284 
Q 544 659 544 1381 
z
M 1991 3584 
L 1991 3584 
z
" transform="scale(0.015625)"/>
       <path id="DejaVuSans-72" d="M 2631 2963 
Q 2534 3019 2420 3045 
Q 2306 3072 2169 3072 
Q 1681 3072 1420 2755 
Q 1159 2438 1159 1844 
L 1159 0 
L 581 0 
L 581 3500 
L 1159 3500 
L 1159 2956 
Q 1341 3275 1631 3429 
Q 1922 3584 2338 3584 
Q 2397 3584 2469 3576 
Q 2541 3569 2628 3553 
L 2631 2963 
z
" transform="scale(0.015625)"/>
       <path id="DejaVuSans-6e" d="M 3513 2113 
L 3513 0 
L 2938 0 
L 2938 2094 
Q 2938 2591 2744 2837 
Q 2550 3084 2163 3084 
Q 1697 3084 1428 2787 
Q 1159 2491 1159 1978 
L 1159 0 
L 581 0 
L 581 3500 
L 1159 3500 
L 1159 2956 
Q 1366 3272 1645 3428 
Q 1925 3584 2291 3584 
Q 2894 3584 3203 3211 
Q 3513 2838 3513 2113 
z
" transform="scale(0.015625)"/>
      </defs>
      <use xlink:href="#DejaVuSans-4c"/>
      <use xlink:href="#DejaVuSans-69" x="55.712891"/>
      <use xlink:href="#DejaVuSans-6b" x="83.496094"/>
      <use xlink:href="#DejaVuSans-65" x="137.78125"/>
      <use xlink:href="#DejaVuSans-6c" x="199.304688"/>
      <use xlink:href="#DejaVuSans-69" x="227.087891"/>
      <use xlink:href="#DejaVuSans-68" x="254.871094"/>
      <use xlink:href="#DejaVuSans-6f" x="318.25"/>
      <use xlink:href="#DejaVuSans-6f" x="379.431641"/>
      <use xlink:href="#DejaVuSans-64" x="440.613281"/>
      <use xlink:href="#DejaVuSans-20" x="504.089844"/>
      <use xlink:href="#DejaVuSans-6f" x="535.876953"/>
      <use xlink:href="#DejaVuSans-66" x="597.058594"/>
      <use xlink:href="#DejaVuSans-20" x="632.263672"/>
      <use xlink:href="#DejaVuSans-6f" x="664.050781"/>
      <use xlink:href="#DejaVuSans-63" x="725.232422"/>
      <use xlink:href="#DejaVuSans-63" x="780.212891"/>
      <use xlink:href="#DejaVuSans-75" x="835.193359"/>
      <use xlink:href="#DejaVuSans-72" x="898.572266"/>
      <use xlink:href="#DejaVuSans-72" x="937.935547"/>
      <use xlink:href="#DejaVuSans-65" x="976.798828"/>
      <use xlink:href="#DejaVuSans-6e" x="1038.322266"/>
      <use xlink:href="#DejaVuSans-63" x="1101.701172"/>
      <use xlink:href="#DejaVuSans-65" x="1156.681641"/>
     </g>
    </g>
   </g>
   <g id="line2d_25">
    <path d="M 92.974375 317.149688 
L 165.456163 317.077355 
L 165.636691 317.005023 
L 172.85779 316.932691 
L 173.038318 316.860359 
L 173.670164 316.860359 
L 173.850692 316.498699 
L 174.392274 316.498699 
L 174.572802 316.354035 
L 176.017022 316.354035 
L 176.197549 315.920042 
L 176.739131 315.920042 
L 176.919659 315.341386 
L 177.551505 315.341386 
L 177.732033 314.545733 
L 178.363879 314.545733 
L 178.544406 313.750081 
L 179.085989 313.750081 
L 179.266516 312.737432 
L 179.898363 312.737432 
L 180.07889 310.133478 
L 180.710736 310.133478 
L 180.891264 307.529523 
L 181.432846 307.529523 
L 181.613374 303.623592 
L 182.24522 303.623592 
L 182.425747 301.164302 
L 183.057594 301.164302 
L 183.238121 298.126356 
L 183.779704 298.126356 
L 183.960231 293.424772 
L 184.592077 293.424772 
L 184.772605 287.493543 
L 185.404451 287.493543 
L 185.584979 284.2386 
L 186.216825 284.2386 
L 186.397352 280.911325 
L 186.938935 280.911325 
L 187.119462 275.920413 
L 187.751309 275.920413 
L 187.931836 270.784837 
L 188.563682 270.784837 
L 188.74421 265.64926 
L 189.285792 265.64926 
L 189.46632 261.815661 
L 190.098166 261.815661 
L 190.278693 257.765066 
L 190.91054 257.765066 
L 191.091067 253.063482 
L 191.63265 253.063482 
L 191.813177 247.349249 
L 192.445023 247.349249 
L 192.625551 241.345688 
L 193.257397 241.345688 
L 193.437925 236.282444 
L 193.979507 236.282444 
L 194.160035 233.099833 
L 194.791881 233.099833 
L 194.972408 228.036589 
L 195.604254 228.036589 
L 195.784782 223.118009 
L 196.326364 223.118009 
L 196.506892 217.476108 
L 197.138738 217.476108 
L 197.319266 212.051203 
L 197.951112 212.051203 
L 198.131639 208.217604 
L 198.673222 208.217604 
L 198.853749 203.950013 
L 199.485596 203.950013 
L 199.666123 198.091116 
L 200.297969 198.091116 
L 200.478497 192.376883 
L 201.110343 192.376883 
L 201.29087 187.819963 
L 201.832453 187.819963 
L 202.01298 184.131028 
L 202.644827 184.131028 
L 202.825354 179.718772 
L 203.4572 179.718772 
L 203.637728 173.859876 
L 204.17931 173.859876 
L 204.359838 168.651967 
L 204.991684 168.651967 
L 205.172212 164.312044 
L 205.804058 164.312044 
L 205.984585 160.69544 
L 206.526168 160.69544 
L 206.706695 156.355517 
L 207.338541 156.355517 
L 207.519069 150.424288 
L 208.150915 150.424288 
L 208.331443 143.769738 
L 208.873025 143.769738 
L 209.053553 139.212818 
L 209.685399 139.212818 
L 209.865926 133.860246 
L 210.497773 133.860246 
L 210.6783 129.809651 
L 211.219883 129.809651 
L 211.40041 123.589093 
L 212.032256 123.589093 
L 212.212784 118.815177 
L 212.84463 118.815177 
L 213.025157 114.619918 
L 213.657004 114.619918 
L 213.837531 110.352326 
L 214.379114 110.352326 
L 214.559641 106.735723 
L 215.191487 106.735723 
L 215.372015 101.021491 
L 216.003861 101.021491 
L 216.184389 95.668918 
L 216.725971 95.668918 
L 216.906499 92.269311 
L 217.538345 92.269311 
L 217.718872 89.665357 
L 218.350718 89.665357 
L 218.531246 86.193418 
L 219.072828 86.193418 
L 219.253356 82.938475 
L 219.885202 82.938475 
L 220.06573 79.538869 
L 220.697576 79.538869 
L 220.878103 76.934914 
L 221.419686 76.934914 
L 221.600213 75.054281 
L 222.23206 75.054281 
L 222.412587 73.535307 
L 223.044433 73.535307 
L 223.224961 71.727006 
L 223.766543 71.727006 
L 223.947071 70.786689 
L 224.578917 70.786689 
L 224.759444 69.846372 
L 225.391291 69.846372 
L 225.571818 68.833724 
L 226.113401 68.833724 
L 226.293928 68.110403 
L 226.925774 68.110403 
L 227.106302 67.097754 
L 227.738148 67.097754 
L 227.918676 66.519098 
L 228.550522 66.519098 
L 228.731049 65.795777 
L 229.272632 65.795777 
L 229.453159 65.434117 
L 230.085005 65.434117 
L 230.265533 64.566132 
L 230.897379 64.566132 
L 231.077907 63.698147 
L 231.619489 63.698147 
L 231.800017 63.336487 
L 232.431863 63.336487 
L 232.61239 62.39617 
L 233.244237 62.39617 
L 233.424764 61.817514 
L 233.966347 61.817514 
L 234.146874 61.238857 
L 234.77872 61.238857 
L 234.959248 60.660201 
L 235.591094 60.660201 
L 235.771622 59.864548 
L 236.313204 59.864548 
L 236.493731 59.502888 
L 237.125578 59.502888 
L 237.306105 59.068895 
L 237.937951 59.068895 
L 238.118479 58.273243 
L 238.660061 58.273243 
L 238.840589 57.694586 
L 239.472435 57.694586 
L 239.652963 57.11593 
L 240.284809 57.11593 
L 240.465336 56.320277 
L 241.006919 56.320277 
L 241.187446 55.958617 
L 241.819293 55.958617 
L 241.99982 55.37996 
L 242.631666 55.37996 
L 242.812194 54.945968 
L 243.44404 54.945968 
L 243.624567 54.584308 
L 244.16615 54.584308 
L 244.346677 53.788655 
L 244.978524 53.788655 
L 245.159051 53.209998 
L 245.790897 53.209998 
L 245.971425 52.848338 
L 246.513007 52.848338 
L 246.693535 51.763357 
L 247.325381 51.763357 
L 247.505909 50.967705 
L 248.137755 50.967705 
L 248.318282 50.389048 
L 248.859865 50.389048 
L 249.040392 49.810392 
L 249.672238 49.810392 
L 249.852766 49.376399 
L 250.484612 49.376399 
L 250.66514 48.942407 
L 251.206722 48.942407 
L 251.38725 48.436082 
L 252.019096 48.436082 
L 252.199623 47.929758 
L 252.83147 47.929758 
L 253.011997 47.64043 
L 253.55358 47.64043 
L 253.734107 47.423434 
L 254.365953 47.423434 
L 254.546481 46.844777 
L 255.178327 46.844777 
L 255.358854 46.049124 
L 255.900437 46.049124 
L 256.080964 45.90446 
L 256.712811 45.90446 
L 256.893338 45.5428 
L 257.525184 45.5428 
L 257.705712 45.253472 
L 258.337558 45.253472 
L 258.518086 44.891811 
L 259.059668 44.891811 
L 259.240196 44.385487 
L 259.872042 44.385487 
L 260.052569 44.240823 
L 260.684415 44.240823 
L 260.864943 43.951495 
L 261.406525 43.951495 
L 261.587053 43.589834 
L 262.218899 43.589834 
L 262.399427 43.228174 
L 263.031273 43.228174 
L 263.2118 42.938846 
L 265.37813 42.866514 
L 265.558658 42.577186 
L 266.10024 42.577186 
L 266.280768 42.215525 
L 266.912614 42.215525 
L 267.093141 41.781533 
L 267.724988 41.781533 
L 267.905515 41.492205 
L 270.071845 41.419873 
L 270.252373 41.058212 
L 270.884219 41.058212 
L 271.064746 40.696552 
L 271.606329 40.696552 
L 271.786856 40.551888 
L 272.418702 40.551888 
L 272.59923 40.334892 
L 274.76556 40.26256 
L 274.946087 40.190228 
L 278.646901 40.117895 
L 278.827428 40.045563 
L 280.271648 39.973231 
L 280.452176 39.900899 
L 282.618506 39.900899 
L 282.799033 39.756235 
L 286.499847 39.683903 
L 286.680374 39.611571 
L 288.846704 39.611571 
L 289.027232 39.466907 
L 291.193562 39.394575 
L 291.374089 39.322243 
L 295.887276 39.249911 
L 296.067804 39.177579 
L 299.046508 39.105247 
L 299.227035 39.032915 
L 302.205739 38.960583 
L 302.386266 38.743586 
L 307.711827 38.671254 
L 307.892355 38.598922 
L 371.167241 38.52659 
L 371.347768 38.454258 
L 376.673329 38.381926 
L 376.853857 38.309594 
L 387.685506 38.237262 
L 387.866034 38.16493 
L 406.460366 38.092598 
L 406.640893 38.020266 
L 418.194653 37.947934 
L 418.37518 37.875602 
L 819.597532 37.80327 
L 819.778059 37.730938 
L 876.915011 37.730938 
L 876.915011 37.730938 
" clip-path="url(#p918baf8130)" style="fill: none; stroke: #1f77b4; stroke-width: 2; stroke-linecap: square"/>
   </g>
   <g id="line2d_26">
    <path d="M 92.974375 317.149688 
L 138.828358 317.072372 
L 139.008886 316.995056 
L 140.453106 316.917741 
L 140.633633 316.840425 
L 141.716798 316.763109 
L 141.987589 316.608478 
L 147.042359 316.531162 
L 147.222886 316.453847 
L 148.03526 316.376531 
L 148.215788 316.299215 
L 151.555546 316.2219 
L 151.826338 316.067268 
L 155.166096 315.989953 
L 155.346624 315.912637 
L 158.325327 315.835321 
L 158.505855 315.758006 
L 168.164076 315.68069 
L 168.344603 315.603375 
L 174.392274 315.526059 
L 174.572802 315.294112 
L 176.017022 315.216796 
L 176.197549 315.139481 
L 176.739131 315.139481 
L 176.919659 314.907534 
L 177.551505 314.907534 
L 177.732033 314.366324 
L 178.363879 314.366324 
L 178.544406 314.057062 
L 179.085989 314.057062 
L 179.266516 313.670483 
L 179.898363 313.670483 
L 180.07889 313.051958 
L 180.710736 313.051958 
L 180.891264 312.510749 
L 181.432846 312.510749 
L 181.613374 312.12417 
L 182.24522 312.12417 
L 182.425747 311.196383 
L 183.057594 311.196383 
L 183.238121 309.418123 
L 183.779704 309.418123 
L 183.960231 308.258388 
L 184.592077 308.258388 
L 184.772605 307.794494 
L 185.404451 307.794494 
L 185.584979 307.098653 
L 186.216825 307.098653 
L 186.397352 305.706972 
L 186.938935 305.706972 
L 187.119462 304.083343 
L 187.751309 304.083343 
L 187.931836 303.07824 
L 188.563682 303.07824 
L 188.74421 302.691661 
L 189.285792 302.691661 
L 189.46632 301.841189 
L 190.098166 301.841189 
L 190.278693 300.449508 
L 190.91054 300.449508 
L 191.091067 299.135142 
L 191.63265 299.135142 
L 191.813177 297.588829 
L 192.445023 297.588829 
L 192.625551 296.429094 
L 193.257397 296.429094 
L 193.437925 295.733253 
L 193.979507 295.733253 
L 194.160035 294.496203 
L 194.791881 294.496203 
L 194.972408 293.027205 
L 195.604254 293.027205 
L 195.784782 291.944786 
L 196.326364 291.944786 
L 196.506892 290.785052 
L 197.138738 290.785052 
L 197.319266 290.089211 
L 197.951112 290.089211 
L 198.131639 288.233635 
L 198.673222 288.233635 
L 198.853749 286.455375 
L 199.485596 286.455375 
L 199.666123 284.5998 
L 200.297969 284.5998 
L 200.478497 283.672012 
L 201.110343 283.672012 
L 201.29087 283.208118 
L 201.832453 283.208118 
L 202.01298 281.816437 
L 202.644827 281.816437 
L 202.825354 280.424755 
L 203.4572 280.424755 
L 203.637728 279.187705 
L 204.17931 279.187705 
L 204.359838 278.02797 
L 204.991684 278.02797 
L 205.172212 277.177498 
L 205.804058 277.177498 
L 205.984585 275.785816 
L 206.526168 275.785816 
L 206.706695 274.316819 
L 207.338541 274.316819 
L 207.519069 272.770506 
L 208.150915 272.770506 
L 208.331443 271.997349 
L 208.873025 271.997349 
L 209.053553 271.301509 
L 209.685399 271.301509 
L 209.865926 270.141774 
L 210.497773 270.141774 
L 210.6783 268.750092 
L 211.219883 268.750092 
L 211.40041 267.667673 
L 212.032256 267.667673 
L 212.212784 266.585254 
L 212.84463 266.585254 
L 213.025157 266.198676 
L 213.657004 266.198676 
L 213.837531 264.806994 
L 214.379114 264.806994 
L 214.559641 264.033838 
L 215.191487 264.033838 
L 215.372015 262.951419 
L 216.003861 262.951419 
L 216.184389 262.410209 
L 216.725971 262.410209 
L 216.906499 260.941212 
L 217.538345 260.941212 
L 217.718872 259.858793 
L 218.350718 259.858793 
L 218.531246 258.235164 
L 219.072828 258.235164 
L 219.253356 256.766167 
L 219.885202 256.766167 
L 220.06573 255.374485 
L 220.697576 255.374485 
L 220.878103 254.678644 
L 221.419686 254.678644 
L 221.600213 252.900384 
L 222.23206 252.900384 
L 222.412587 250.039705 
L 223.044433 250.039705 
L 223.224961 248.957286 
L 223.766543 248.957286 
L 223.947071 247.720236 
L 224.578917 247.720236 
L 224.759444 246.869764 
L 225.391291 246.869764 
L 225.571818 245.400767 
L 226.113401 245.400767 
L 226.293928 243.699822 
L 226.925774 243.699822 
L 227.106302 241.6123 
L 227.738148 241.6123 
L 227.918676 240.761828 
L 228.550522 240.761828 
L 228.731049 239.83404 
L 229.272632 239.83404 
L 229.453159 237.978464 
L 230.085005 237.978464 
L 230.265533 236.122889 
L 230.897379 236.122889 
L 231.077907 234.885839 
L 231.619489 234.885839 
L 231.800017 234.421945 
L 232.431863 234.421945 
L 232.61239 233.571473 
L 233.244237 233.571473 
L 233.424764 231.715897 
L 233.966347 231.715897 
L 234.146874 229.628375 
L 234.77872 229.628375 
L 234.959248 227.618168 
L 235.591094 227.618168 
L 235.771622 226.922327 
L 236.313204 226.922327 
L 236.493731 225.762592 
L 237.125578 225.762592 
L 237.306105 223.907017 
L 237.937951 223.907017 
L 238.118479 222.283388 
L 238.660061 222.283388 
L 238.840589 220.969022 
L 239.472435 220.969022 
L 239.652963 220.11855 
L 240.284809 220.11855 
L 240.465336 219.268078 
L 241.006919 219.268078 
L 241.187446 217.489818 
L 241.819293 217.489818 
L 241.99982 216.020821 
L 242.631666 216.020821 
L 242.812194 213.778667 
L 243.44404 213.778667 
L 243.624567 212.696248 
L 244.16615 212.696248 
L 244.346677 211.691144 
L 244.978524 211.691144 
L 245.159051 210.686041 
L 245.790897 210.686041 
L 245.971425 208.830465 
L 246.513007 208.830465 
L 246.693535 207.438784 
L 247.325381 207.438784 
L 247.505909 206.279049 
L 248.137755 206.279049 
L 248.318282 205.583208 
L 248.859865 205.583208 
L 249.040392 203.804948 
L 249.672238 203.804948 
L 249.852766 202.258635 
L 250.484612 202.258635 
L 250.66514 200.480375 
L 251.206722 200.480375 
L 251.38725 199.243325 
L 252.019096 199.243325 
L 252.199623 198.392853 
L 252.83147 198.392853 
L 253.011997 196.769224 
L 253.55358 196.769224 
L 253.734107 194.990964 
L 254.365953 194.990964 
L 254.546481 193.444652 
L 255.178327 193.444652 
L 255.358854 192.207601 
L 255.900437 192.207601 
L 256.080964 191.279813 
L 256.712811 191.279813 
L 256.893338 189.501554 
L 257.525184 189.501554 
L 257.705712 187.723294 
L 258.337558 187.723294 
L 258.518086 186.408928 
L 259.059668 186.408928 
L 259.240196 185.790402 
L 259.872042 185.790402 
L 260.052569 184.862615 
L 260.684415 184.862615 
L 260.864943 183.16167 
L 261.406525 183.16167 
L 261.587053 181.151464 
L 262.218899 181.151464 
L 262.399427 179.450519 
L 263.031273 179.450519 
L 263.2118 178.522732 
L 263.753383 178.522732 
L 263.93391 178.213469 
L 264.565757 178.213469 
L 264.746284 176.512525 
L 265.37813 176.512525 
L 265.558658 174.888896 
L 266.10024 174.888896 
L 266.280768 172.492111 
L 266.912614 172.492111 
L 267.093141 171.564323 
L 267.724988 171.564323 
L 267.905515 170.868482 
L 268.447098 170.868482 
L 268.627625 169.476801 
L 269.259471 169.476801 
L 269.439999 167.389278 
L 270.071845 167.389278 
L 270.252373 165.533703 
L 270.884219 165.533703 
L 271.064746 164.760546 
L 271.606329 164.760546 
L 271.786856 163.832759 
L 272.418702 163.832759 
L 272.59923 162.750339 
L 273.231076 162.750339 
L 273.411604 160.585501 
L 273.953186 160.585501 
L 274.133714 159.503082 
L 274.76556 159.503082 
L 274.946087 158.266032 
L 275.577934 158.266032 
L 275.758461 157.647507 
L 276.300044 157.647507 
L 276.480571 156.178509 
L 277.112417 156.178509 
L 277.292945 154.477565 
L 277.924791 154.477565 
L 278.105318 152.235411 
L 278.646901 152.235411 
L 278.827428 151.307624 
L 279.459275 151.307624 
L 279.639802 150.534467 
L 280.271648 150.534467 
L 280.452176 148.910839 
L 280.993758 148.910839 
L 281.174286 146.900632 
L 281.806132 146.900632 
L 281.98666 145.277003 
L 282.618506 145.277003 
L 282.799033 143.653375 
L 283.340616 143.653375 
L 283.521143 142.802902 
L 284.152989 142.802902 
L 284.333517 141.101958 
L 284.965363 141.101958 
L 285.145891 139.246383 
L 285.777737 139.246383 
L 285.958264 137.545438 
L 286.499847 137.545438 
L 286.680374 136.617651 
L 287.312221 136.617651 
L 287.492748 135.92181 
L 288.124594 135.92181 
L 288.305122 134.298181 
L 288.846704 134.298181 
L 289.027232 132.287974 
L 289.659078 132.287974 
L 289.839605 130.277768 
L 290.471452 130.277768 
L 290.651979 129.272664 
L 291.193562 129.272664 
L 291.374089 128.190245 
L 292.005935 128.190245 
L 292.186463 126.643932 
L 292.818309 126.643932 
L 292.998837 124.788357 
L 293.540419 124.788357 
L 293.720947 122.314256 
L 294.352793 122.314256 
L 294.53332 121.231837 
L 295.165167 121.231837 
L 295.345694 120.690627 
L 295.887276 120.690627 
L 296.067804 119.762839 
L 296.69965 119.762839 
L 296.880178 117.675317 
L 297.512024 117.675317 
L 297.692551 116.438267 
L 298.234134 116.438267 
L 298.414661 115.355848 
L 299.046508 115.355848 
L 299.227035 114.42806 
L 299.858881 114.42806 
L 300.039409 113.577588 
L 300.671255 113.577588 
L 300.851783 111.799328 
L 301.393365 111.799328 
L 301.573892 110.175699 
L 302.205739 110.175699 
L 302.386266 109.402543 
L 303.018112 109.402543 
L 303.19864 109.170596 
L 303.740222 109.170596 
L 303.92075 107.701598 
L 304.552596 107.701598 
L 304.733124 105.923339 
L 305.36497 105.923339 
L 305.545497 104.377026 
L 306.08708 104.377026 
L 306.267607 103.371922 
L 306.899454 103.371922 
L 307.079981 101.748294 
L 307.711827 101.748294 
L 307.892355 100.047349 
L 308.433937 100.047349 
L 308.614465 98.191774 
L 309.246311 98.191774 
L 309.426838 96.49083 
L 310.058685 96.49083 
L 310.239212 95.408411 
L 310.780795 95.408411 
L 310.961322 94.325991 
L 311.593168 94.325991 
L 311.773696 92.625047 
L 312.405542 92.625047 
L 312.58607 90.924103 
L 313.217916 90.924103 
L 313.398443 89.687053 
L 313.940026 89.687053 
L 314.120553 88.372687 
L 314.752399 88.372687 
L 314.932927 86.671742 
L 315.564773 86.671742 
L 315.745301 84.816167 
L 316.286883 84.816167 
L 316.467411 82.80596 
L 317.099257 82.80596 
L 317.279784 81.259647 
L 317.911631 81.259647 
L 318.092158 80.022597 
L 318.633741 80.022597 
L 318.814268 78.940178 
L 319.446114 78.940178 
L 319.626642 77.239233 
L 320.258488 77.239233 
L 320.439015 75.306342 
L 320.980598 75.306342 
L 321.161125 74.45587 
L 321.792972 74.45587 
L 321.973499 73.450767 
L 322.605345 73.450767 
L 322.785873 72.754926 
L 323.327455 72.754926 
L 323.507983 71.595191 
L 324.139829 71.595191 
L 324.320357 69.584984 
L 324.952203 69.584984 
L 325.13273 67.729409 
L 325.674313 67.729409 
L 325.85484 66.569674 
L 326.486686 66.569674 
L 326.667214 65.409939 
L 327.29906 65.409939 
L 327.479588 64.095573 
L 328.111434 64.095573 
L 328.291961 62.703892 
L 328.833544 62.703892 
L 329.014071 61.080263 
L 329.645918 61.080263 
L 329.826445 59.997844 
L 330.458291 59.997844 
L 330.638819 58.992741 
L 331.180401 58.992741 
L 331.360929 57.601059 
L 331.992775 57.601059 
L 332.173302 55.281589 
L 332.805149 55.281589 
L 332.985676 53.889908 
L 333.527259 53.889908 
L 333.707786 53.271383 
L 334.339632 53.271383 
L 334.52016 52.652857 
L 335.152006 52.652857 
L 335.332534 51.957017 
L 335.874116 51.957017 
L 336.054644 50.410704 
L 336.68649 50.410704 
L 336.867017 50.178757 
L 337.498863 50.178757 
L 337.679391 50.024125 
L 338.220973 50.024125 
L 338.401501 49.714863 
L 339.033347 49.714863 
L 339.213875 49.096338 
L 339.845721 49.096338 
L 340.026248 48.632444 
L 340.567831 48.632444 
L 340.748358 48.16855 
L 341.380205 48.16855 
L 341.560732 47.859287 
L 343.004952 47.781972 
L 343.185479 47.472709 
L 343.727062 47.472709 
L 343.907589 47.240762 
L 344.539436 47.240762 
L 344.719963 46.776868 
L 345.351809 46.776868 
L 345.532337 46.544921 
L 346.073919 46.544921 
L 346.254447 46.312974 
L 346.886293 46.312974 
L 347.066821 45.926396 
L 347.698667 45.926396 
L 347.879194 45.539818 
L 348.420777 45.539818 
L 348.601304 45.385187 
L 350.767634 45.307871 
L 350.948162 45.15324 
L 351.580008 45.15324 
L 351.760535 44.766661 
L 352.392382 44.766661 
L 352.572909 44.457399 
L 353.926865 44.380083 
L 354.107393 44.225452 
L 354.739239 44.225452 
L 354.919767 44.070821 
L 355.551613 44.070821 
L 355.73214 43.606927 
L 357.89847 43.529611 
L 358.078998 43.452295 
L 358.62058 43.452295 
L 358.801108 43.143033 
L 359.432954 43.143033 
L 359.613481 42.679139 
L 360.245328 42.679139 
L 360.425855 42.447192 
L 360.967438 42.447192 
L 361.147965 42.292561 
L 362.592185 42.215245 
L 362.772712 41.751351 
L 363.314295 41.751351 
L 363.494822 41.364773 
L 364.126669 41.364773 
L 364.307196 41.132826 
L 364.939042 41.132826 
L 365.11957 40.746248 
L 367.2859 40.668932 
L 367.466427 40.35967 
L 368.00801 40.35967 
L 368.188537 39.895776 
L 368.820383 39.895776 
L 369.000911 39.663829 
L 370.445131 39.586513 
L 370.625658 39.354566 
L 371.167241 39.354566 
L 371.347768 39.199935 
L 371.979615 39.199935 
L 372.160142 38.967988 
L 372.791988 38.967988 
L 372.972516 38.736041 
L 374.326472 38.736041 
L 374.506999 38.58141 
L 375.138846 38.58141 
L 375.319373 38.426778 
L 379.020187 38.349463 
L 379.200714 38.272147 
L 386.873133 38.194831 
L 387.05366 38.117516 
L 642.409798 38.0402 
L 642.590326 37.962884 
L 876.915011 37.885569 
L 876.915011 37.885569 
" clip-path="url(#p918baf8130)" style="fill: none; stroke: #ff7f0e; stroke-width: 2; stroke-linecap: square"/>
   </g>
   <g id="patch_3">
    <path d="M 92.974375 331.120625 
L 92.974375 23.76 
" style="fill: none; stroke: #000000; stroke-width: 0.8; stroke-linejoin: miter; stroke-linecap: square"/>
   </g>
   <g id="patch_4">
    <path d="M 876.84375 331.120625 
L 876.84375 23.76 
" style="fill: none; stroke: #000000; stroke-width: 0.8; stroke-linejoin: miter; stroke-linecap: square"/>
   </g>
   <g id="patch_5">
    <path d="M 92.974375 331.120625 
L 876.84375 331.120625 
" style="fill: none; stroke: #000000; stroke-width: 0.8; stroke-linejoin: miter; stroke-linecap: square"/>
   </g>
   <g id="patch_6">
    <path d="M 92.974375 23.76 
L 876.84375 23.76 
" style="fill: none; stroke: #000000; stroke-width: 0.8; stroke-linejoin: miter; stroke-linecap: square"/>
   </g>
   <g id="legend_1">
    <g id="patch_7">
     <path d="M 571.6425 319.120625 
L 860.04375 319.120625 
Q 864.84375 319.120625 864.84375 314.320625 
L 864.84375 245.598125 
Q 864.84375 240.798125 860.04375 240.798125 
L 571.6425 240.798125 
Q 566.8425 240.798125 566.8425 245.598125 
L 566.8425 314.320625 
Q 566.8425 319.120625 571.6425 319.120625 
z
" style="fill: #ffffff; opacity: 0.8; stroke: #cccccc; stroke-linejoin: miter"/>
    </g>
    <g id="line2d_27">
     <path d="M 576.4425 260.234375 
L 600.4425 260.234375 
L 624.4425 260.234375 
" style="fill: none; stroke: #1f77b4; stroke-width: 2; stroke-linecap: square"/>
    </g>
    <g id="text_15">
     <!-- SR_10_noprealloc -->
     <g transform="translate(643.6425 268.634375)scale(0.24 -0.24)">
      <defs>
       <path id="DejaVuSans-53" d="M 3425 4513 
L 3425 3897 
Q 3066 4069 2747 4153 
Q 2428 4238 2131 4238 
Q 1616 4238 1336 4038 
Q 1056 3838 1056 3469 
Q 1056 3159 1242 3001 
Q 1428 2844 1947 2747 
L 2328 2669 
Q 3034 2534 3370 2195 
Q 3706 1856 3706 1288 
Q 3706 609 3251 259 
Q 2797 -91 1919 -91 
Q 1588 -91 1214 -16 
Q 841 59 441 206 
L 441 856 
Q 825 641 1194 531 
Q 1563 422 1919 422 
Q 2459 422 2753 634 
Q 3047 847 3047 1241 
Q 3047 1584 2836 1778 
Q 2625 1972 2144 2069 
L 1759 2144 
Q 1053 2284 737 2584 
Q 422 2884 422 3419 
Q 422 4038 858 4394 
Q 1294 4750 2059 4750 
Q 2388 4750 2728 4690 
Q 3069 4631 3425 4513 
z
" transform="scale(0.015625)"/>
       <path id="DejaVuSans-5f" d="M 3263 -1063 
L 3263 -1509 
L -63 -1509 
L -63 -1063 
L 3263 -1063 
z
" transform="scale(0.015625)"/>
       <path id="DejaVuSans-70" d="M 1159 525 
L 1159 -1331 
L 581 -1331 
L 581 3500 
L 1159 3500 
L 1159 2969 
Q 1341 3281 1617 3432 
Q 1894 3584 2278 3584 
Q 2916 3584 3314 3078 
Q 3713 2572 3713 1747 
Q 3713 922 3314 415 
Q 2916 -91 2278 -91 
Q 1894 -91 1617 61 
Q 1341 213 1159 525 
z
M 3116 1747 
Q 3116 2381 2855 2742 
Q 2594 3103 2138 3103 
Q 1681 3103 1420 2742 
Q 1159 2381 1159 1747 
Q 1159 1113 1420 752 
Q 1681 391 2138 391 
Q 2594 391 2855 752 
Q 3116 1113 3116 1747 
z
" transform="scale(0.015625)"/>
       <path id="DejaVuSans-61" d="M 2194 1759 
Q 1497 1759 1228 1600 
Q 959 1441 959 1056 
Q 959 750 1161 570 
Q 1363 391 1709 391 
Q 2188 391 2477 730 
Q 2766 1069 2766 1631 
L 2766 1759 
L 2194 1759 
z
M 3341 1997 
L 3341 0 
L 2766 0 
L 2766 531 
Q 2569 213 2275 61 
Q 1981 -91 1556 -91 
Q 1019 -91 701 211 
Q 384 513 384 1019 
Q 384 1609 779 1909 
Q 1175 2209 1959 2209 
L 2766 2209 
L 2766 2266 
Q 2766 2663 2505 2880 
Q 2244 3097 1772 3097 
Q 1472 3097 1187 3025 
Q 903 2953 641 2809 
L 641 3341 
Q 956 3463 1253 3523 
Q 1550 3584 1831 3584 
Q 2591 3584 2966 3190 
Q 3341 2797 3341 1997 
z
" transform="scale(0.015625)"/>
      </defs>
      <use xlink:href="#DejaVuSans-53"/>
      <use xlink:href="#DejaVuSans-52" x="63.476562"/>
      <use xlink:href="#DejaVuSans-5f" x="132.958984"/>
      <use xlink:href="#DejaVuSans-31" x="182.958984"/>
      <use xlink:href="#DejaVuSans-30" x="246.582031"/>
      <use xlink:href="#DejaVuSans-5f" x="310.205078"/>
      <use xlink:href="#DejaVuSans-6e" x="360.205078"/>
      <use xlink:href="#DejaVuSans-6f" x="423.583984"/>
      <use xlink:href="#DejaVuSans-70" x="484.765625"/>
      <use xlink:href="#DejaVuSans-72" x="548.242188"/>
      <use xlink:href="#DejaVuSans-65" x="587.105469"/>
      <use xlink:href="#DejaVuSans-61" x="648.628906"/>
      <use xlink:href="#DejaVuSans-6c" x="709.908203"/>
      <use xlink:href="#DejaVuSans-6c" x="737.691406"/>
      <use xlink:href="#DejaVuSans-6f" x="765.474609"/>
      <use xlink:href="#DejaVuSans-63" x="826.65625"/>
     </g>
    </g>
    <g id="line2d_28">
     <path d="M 576.4425 296.129375 
L 600.4425 296.129375 
L 624.4425 296.129375 
" style="fill: none; stroke: #ff7f0e; stroke-width: 2; stroke-linecap: square"/>
    </g>
    <g id="text_16">
     <!-- Default -->
     <g transform="translate(643.6425 304.529375)scale(0.24 -0.24)">
      <defs>
       <path id="DejaVuSans-44" d="M 1259 4147 
L 1259 519 
L 2022 519 
Q 2988 519 3436 956 
Q 3884 1394 3884 2338 
Q 3884 3275 3436 3711 
Q 2988 4147 2022 4147 
L 1259 4147 
z
M 628 4666 
L 1925 4666 
Q 3281 4666 3915 4102 
Q 4550 3538 4550 2338 
Q 4550 1131 3912 565 
Q 3275 0 1925 0 
L 628 0 
L 628 4666 
z
" transform="scale(0.015625)"/>
       <path id="DejaVuSans-74" d="M 1172 4494 
L 1172 3500 
L 2356 3500 
L 2356 3053 
L 1172 3053 
L 1172 1153 
Q 1172 725 1289 603 
Q 1406 481 1766 481 
L 2356 481 
L 2356 0 
L 1766 0 
Q 1100 0 847 248 
Q 594 497 594 1153 
L 594 3053 
L 172 3053 
L 172 3500 
L 594 3500 
L 594 4494 
L 1172 4494 
z
" transform="scale(0.015625)"/>
      </defs>
      <use xlink:href="#DejaVuSans-44"/>
      <use xlink:href="#DejaVuSans-65" x="77.001953"/>
      <use xlink:href="#DejaVuSans-66" x="138.525391"/>
      <use xlink:href="#DejaVuSans-61" x="173.730469"/>
      <use xlink:href="#DejaVuSans-75" x="235.009766"/>
      <use xlink:href="#DejaVuSans-6c" x="298.388672"/>
      <use xlink:href="#DejaVuSans-74" x="326.171875"/>
     </g>
    </g>
   </g>
  </g>
 </g>
 <defs>
  <clipPath id="p918baf8130">
   <rect x="92.974375" y="23.76" width="783.869375" height="307.360625"/>
  </clipPath>
 </defs>
</svg>
