<?xml version="1.0" encoding="utf-8" standalone="no"?>
<!DOCTYPE svg PUBLIC "-//W3C//DTD SVG 1.1//EN"
  "http://www.w3.org/Graphics/SVG/1.1/DTD/svg11.dtd">
<svg xmlns:xlink="http://www.w3.org/1999/xlink" width="921.6pt" height="410.4pt" viewBox="0 0 921.6 410.4" xmlns="http://www.w3.org/2000/svg" version="1.1">
 <metadata>
  <rdf:RDF xmlns:dc="http://purl.org/dc/elements/1.1/" xmlns:cc="http://creativecommons.org/ns#" xmlns:rdf="http://www.w3.org/1999/02/22-rdf-syntax-ns#">
   <cc:Work>
    <dc:type rdf:resource="http://purl.org/dc/dcmitype/StillImage"/>
    <dc:date>2023-04-17T18:33:15.970707</dc:date>
    <dc:format>image/svg+xml</dc:format>
    <dc:creator>
     <cc:Agent>
      <dc:title>Matplotlib v3.5.3, https://matplotlib.org/</dc:title>
     </cc:Agent>
    </dc:creator>
   </cc:Work>
  </rdf:RDF>
 </metadata>
 <defs>
  <style type="text/css">*{stroke-linejoin: round; stroke-linecap: butt}</style>
 </defs>
 <g id="figure_1">
  <g id="patch_1">
   <path d="M 0 410.4 
L 921.6 410.4 
L 921.6 0 
L 0 0 
L 0 410.4 
z
" style="fill: none"/>
  </g>
  <g id="axes_1">
   <g id="patch_2">
    <path d="M 92.974375 331.120625 
L 876.84375 331.120625 
L 876.84375 23.76 
L 92.974375 23.76 
z
" style="fill: #ffffff"/>
   </g>
   <g id="matplotlib.axis_1">
    <g id="xtick_1">
     <g id="line2d_1">
      <path d="M 92.974375 331.120625 
L 92.974375 23.76 
" clip-path="url(#p3b3391fcbd)" style="fill: none; stroke: #b0b0b0; stroke-width: 0.8; stroke-linecap: square"/>
     </g>
     <g id="line2d_2">
      <defs>
       <path id="m2b38693ae4" d="M 0 0 
L 0 3.5 
" style="stroke: #000000; stroke-width: 0.8"/>
      </defs>
      <g>
       <use xlink:href="#m2b38693ae4" x="92.974375" y="331.120625" style="stroke: #000000; stroke-width: 0.8"/>
      </g>
     </g>
     <g id="text_1">
      <!-- 0 -->
      <g transform="translate(85.975625 354.837188)scale(0.22 -0.22)">
       <defs>
        <path id="DejaVuSans-30" d="M 2034 4250 
Q 1547 4250 1301 3770 
Q 1056 3291 1056 2328 
Q 1056 1369 1301 889 
Q 1547 409 2034 409 
Q 2525 409 2770 889 
Q 3016 1369 3016 2328 
Q 3016 3291 2770 3770 
Q 2525 4250 2034 4250 
z
M 2034 4750 
Q 2819 4750 3233 4129 
Q 3647 3509 3647 2328 
Q 3647 1150 3233 529 
Q 2819 -91 2034 -91 
Q 1250 -91 836 529 
Q 422 1150 422 2328 
Q 422 3509 836 4129 
Q 1250 4750 2034 4750 
z
" transform="scale(0.015625)"/>
       </defs>
       <use xlink:href="#DejaVuSans-30"/>
      </g>
     </g>
    </g>
    <g id="xtick_2">
     <g id="line2d_3">
      <path d="M 249.74825 331.120625 
L 249.74825 23.76 
" clip-path="url(#p3b3391fcbd)" style="fill: none; stroke: #b0b0b0; stroke-width: 0.8; stroke-linecap: square"/>
     </g>
     <g id="line2d_4">
      <g>
       <use xlink:href="#m2b38693ae4" x="249.74825" y="331.120625" style="stroke: #000000; stroke-width: 0.8"/>
      </g>
     </g>
     <g id="text_2">
      <!-- 20 -->
      <g transform="translate(235.75075 354.837188)scale(0.22 -0.22)">
       <defs>
        <path id="DejaVuSans-32" d="M 1228 531 
L 3431 531 
L 3431 0 
L 469 0 
L 469 531 
Q 828 903 1448 1529 
Q 2069 2156 2228 2338 
Q 2531 2678 2651 2914 
Q 2772 3150 2772 3378 
Q 2772 3750 2511 3984 
Q 2250 4219 1831 4219 
Q 1534 4219 1204 4116 
Q 875 4013 500 3803 
L 500 4441 
Q 881 4594 1212 4672 
Q 1544 4750 1819 4750 
Q 2544 4750 2975 4387 
Q 3406 4025 3406 3419 
Q 3406 3131 3298 2873 
Q 3191 2616 2906 2266 
Q 2828 2175 2409 1742 
Q 1991 1309 1228 531 
z
" transform="scale(0.015625)"/>
       </defs>
       <use xlink:href="#DejaVuSans-32"/>
       <use xlink:href="#DejaVuSans-30" x="63.623047"/>
      </g>
     </g>
    </g>
    <g id="xtick_3">
     <g id="line2d_5">
      <path d="M 406.522125 331.120625 
L 406.522125 23.76 
" clip-path="url(#p3b3391fcbd)" style="fill: none; stroke: #b0b0b0; stroke-width: 0.8; stroke-linecap: square"/>
     </g>
     <g id="line2d_6">
      <g>
       <use xlink:href="#m2b38693ae4" x="406.522125" y="331.120625" style="stroke: #000000; stroke-width: 0.8"/>
      </g>
     </g>
     <g id="text_3">
      <!-- 40 -->
      <g transform="translate(392.524625 354.837188)scale(0.22 -0.22)">
       <defs>
        <path id="DejaVuSans-34" d="M 2419 4116 
L 825 1625 
L 2419 1625 
L 2419 4116 
z
M 2253 4666 
L 3047 4666 
L 3047 1625 
L 3713 1625 
L 3713 1100 
L 3047 1100 
L 3047 0 
L 2419 0 
L 2419 1100 
L 313 1100 
L 313 1709 
L 2253 4666 
z
" transform="scale(0.015625)"/>
       </defs>
       <use xlink:href="#DejaVuSans-34"/>
       <use xlink:href="#DejaVuSans-30" x="63.623047"/>
      </g>
     </g>
    </g>
    <g id="xtick_4">
     <g id="line2d_7">
      <path d="M 563.296 331.120625 
L 563.296 23.76 
" clip-path="url(#p3b3391fcbd)" style="fill: none; stroke: #b0b0b0; stroke-width: 0.8; stroke-linecap: square"/>
     </g>
     <g id="line2d_8">
      <g>
       <use xlink:href="#m2b38693ae4" x="563.296" y="331.120625" style="stroke: #000000; stroke-width: 0.8"/>
      </g>
     </g>
     <g id="text_4">
      <!-- 60 -->
      <g transform="translate(549.2985 354.837188)scale(0.22 -0.22)">
       <defs>
        <path id="DejaVuSans-36" d="M 2113 2584 
Q 1688 2584 1439 2293 
Q 1191 2003 1191 1497 
Q 1191 994 1439 701 
Q 1688 409 2113 409 
Q 2538 409 2786 701 
Q 3034 994 3034 1497 
Q 3034 2003 2786 2293 
Q 2538 2584 2113 2584 
z
M 3366 4563 
L 3366 3988 
Q 3128 4100 2886 4159 
Q 2644 4219 2406 4219 
Q 1781 4219 1451 3797 
Q 1122 3375 1075 2522 
Q 1259 2794 1537 2939 
Q 1816 3084 2150 3084 
Q 2853 3084 3261 2657 
Q 3669 2231 3669 1497 
Q 3669 778 3244 343 
Q 2819 -91 2113 -91 
Q 1303 -91 875 529 
Q 447 1150 447 2328 
Q 447 3434 972 4092 
Q 1497 4750 2381 4750 
Q 2619 4750 2861 4703 
Q 3103 4656 3366 4563 
z
" transform="scale(0.015625)"/>
       </defs>
       <use xlink:href="#DejaVuSans-36"/>
       <use xlink:href="#DejaVuSans-30" x="63.623047"/>
      </g>
     </g>
    </g>
    <g id="xtick_5">
     <g id="line2d_9">
      <path d="M 720.069875 331.120625 
L 720.069875 23.76 
" clip-path="url(#p3b3391fcbd)" style="fill: none; stroke: #b0b0b0; stroke-width: 0.8; stroke-linecap: square"/>
     </g>
     <g id="line2d_10">
      <g>
       <use xlink:href="#m2b38693ae4" x="720.069875" y="331.120625" style="stroke: #000000; stroke-width: 0.8"/>
      </g>
     </g>
     <g id="text_5">
      <!-- 80 -->
      <g transform="translate(706.072375 354.837188)scale(0.22 -0.22)">
       <defs>
        <path id="DejaVuSans-38" d="M 2034 2216 
Q 1584 2216 1326 1975 
Q 1069 1734 1069 1313 
Q 1069 891 1326 650 
Q 1584 409 2034 409 
Q 2484 409 2743 651 
Q 3003 894 3003 1313 
Q 3003 1734 2745 1975 
Q 2488 2216 2034 2216 
z
M 1403 2484 
Q 997 2584 770 2862 
Q 544 3141 544 3541 
Q 544 4100 942 4425 
Q 1341 4750 2034 4750 
Q 2731 4750 3128 4425 
Q 3525 4100 3525 3541 
Q 3525 3141 3298 2862 
Q 3072 2584 2669 2484 
Q 3125 2378 3379 2068 
Q 3634 1759 3634 1313 
Q 3634 634 3220 271 
Q 2806 -91 2034 -91 
Q 1263 -91 848 271 
Q 434 634 434 1313 
Q 434 1759 690 2068 
Q 947 2378 1403 2484 
z
M 1172 3481 
Q 1172 3119 1398 2916 
Q 1625 2713 2034 2713 
Q 2441 2713 2670 2916 
Q 2900 3119 2900 3481 
Q 2900 3844 2670 4047 
Q 2441 4250 2034 4250 
Q 1625 4250 1398 4047 
Q 1172 3844 1172 3481 
z
" transform="scale(0.015625)"/>
       </defs>
       <use xlink:href="#DejaVuSans-38"/>
       <use xlink:href="#DejaVuSans-30" x="63.623047"/>
      </g>
     </g>
    </g>
    <g id="xtick_6">
     <g id="line2d_11">
      <path d="M 876.84375 331.120625 
L 876.84375 23.76 
" clip-path="url(#p3b3391fcbd)" style="fill: none; stroke: #b0b0b0; stroke-width: 0.8; stroke-linecap: square"/>
     </g>
     <g id="line2d_12">
      <g>
       <use xlink:href="#m2b38693ae4" x="876.84375" y="331.120625" style="stroke: #000000; stroke-width: 0.8"/>
      </g>
     </g>
     <g id="text_6">
      <!-- 100 -->
      <g transform="translate(855.8475 354.837188)scale(0.22 -0.22)">
       <defs>
        <path id="DejaVuSans-31" d="M 794 531 
L 1825 531 
L 1825 4091 
L 703 3866 
L 703 4441 
L 1819 4666 
L 2450 4666 
L 2450 531 
L 3481 531 
L 3481 0 
L 794 0 
L 794 531 
z
" transform="scale(0.015625)"/>
       </defs>
       <use xlink:href="#DejaVuSans-31"/>
       <use xlink:href="#DejaVuSans-30" x="63.623047"/>
       <use xlink:href="#DejaVuSans-30" x="127.246094"/>
      </g>
     </g>
    </g>
    <g id="text_7">
     <!-- RTT (ms) -->
     <g transform="translate(431.874687 381.64875)scale(0.24 -0.24)">
      <defs>
       <path id="DejaVuSans-52" d="M 2841 2188 
Q 3044 2119 3236 1894 
Q 3428 1669 3622 1275 
L 4263 0 
L 3584 0 
L 2988 1197 
Q 2756 1666 2539 1819 
Q 2322 1972 1947 1972 
L 1259 1972 
L 1259 0 
L 628 0 
L 628 4666 
L 2053 4666 
Q 2853 4666 3247 4331 
Q 3641 3997 3641 3322 
Q 3641 2881 3436 2590 
Q 3231 2300 2841 2188 
z
M 1259 4147 
L 1259 2491 
L 2053 2491 
Q 2509 2491 2742 2702 
Q 2975 2913 2975 3322 
Q 2975 3731 2742 3939 
Q 2509 4147 2053 4147 
L 1259 4147 
z
" transform="scale(0.015625)"/>
       <path id="DejaVuSans-54" d="M -19 4666 
L 3928 4666 
L 3928 4134 
L 2272 4134 
L 2272 0 
L 1638 0 
L 1638 4134 
L -19 4134 
L -19 4666 
z
" transform="scale(0.015625)"/>
       <path id="DejaVuSans-20" transform="scale(0.015625)"/>
       <path id="DejaVuSans-28" d="M 1984 4856 
Q 1566 4138 1362 3434 
Q 1159 2731 1159 2009 
Q 1159 1288 1364 580 
Q 1569 -128 1984 -844 
L 1484 -844 
Q 1016 -109 783 600 
Q 550 1309 550 2009 
Q 550 2706 781 3412 
Q 1013 4119 1484 4856 
L 1984 4856 
z
" transform="scale(0.015625)"/>
       <path id="DejaVuSans-6d" d="M 3328 2828 
Q 3544 3216 3844 3400 
Q 4144 3584 4550 3584 
Q 5097 3584 5394 3201 
Q 5691 2819 5691 2113 
L 5691 0 
L 5113 0 
L 5113 2094 
Q 5113 2597 4934 2840 
Q 4756 3084 4391 3084 
Q 3944 3084 3684 2787 
Q 3425 2491 3425 1978 
L 3425 0 
L 2847 0 
L 2847 2094 
Q 2847 2600 2669 2842 
Q 2491 3084 2119 3084 
Q 1678 3084 1418 2786 
Q 1159 2488 1159 1978 
L 1159 0 
L 581 0 
L 581 3500 
L 1159 3500 
L 1159 2956 
Q 1356 3278 1631 3431 
Q 1906 3584 2284 3584 
Q 2666 3584 2933 3390 
Q 3200 3197 3328 2828 
z
" transform="scale(0.015625)"/>
       <path id="DejaVuSans-73" d="M 2834 3397 
L 2834 2853 
Q 2591 2978 2328 3040 
Q 2066 3103 1784 3103 
Q 1356 3103 1142 2972 
Q 928 2841 928 2578 
Q 928 2378 1081 2264 
Q 1234 2150 1697 2047 
L 1894 2003 
Q 2506 1872 2764 1633 
Q 3022 1394 3022 966 
Q 3022 478 2636 193 
Q 2250 -91 1575 -91 
Q 1294 -91 989 -36 
Q 684 19 347 128 
L 347 722 
Q 666 556 975 473 
Q 1284 391 1588 391 
Q 1994 391 2212 530 
Q 2431 669 2431 922 
Q 2431 1156 2273 1281 
Q 2116 1406 1581 1522 
L 1381 1569 
Q 847 1681 609 1914 
Q 372 2147 372 2553 
Q 372 3047 722 3315 
Q 1072 3584 1716 3584 
Q 2034 3584 2315 3537 
Q 2597 3491 2834 3397 
z
" transform="scale(0.015625)"/>
       <path id="DejaVuSans-29" d="M 513 4856 
L 1013 4856 
Q 1481 4119 1714 3412 
Q 1947 2706 1947 2009 
Q 1947 1309 1714 600 
Q 1481 -109 1013 -844 
L 513 -844 
Q 928 -128 1133 580 
Q 1338 1288 1338 2009 
Q 1338 2731 1133 3434 
Q 928 4138 513 4856 
z
" transform="scale(0.015625)"/>
      </defs>
      <use xlink:href="#DejaVuSans-52"/>
      <use xlink:href="#DejaVuSans-54" x="62.232422"/>
      <use xlink:href="#DejaVuSans-54" x="121.566406"/>
      <use xlink:href="#DejaVuSans-20" x="182.650391"/>
      <use xlink:href="#DejaVuSans-28" x="214.4375"/>
      <use xlink:href="#DejaVuSans-6d" x="253.451172"/>
      <use xlink:href="#DejaVuSans-73" x="350.863281"/>
      <use xlink:href="#DejaVuSans-29" x="402.962891"/>
     </g>
    </g>
   </g>
   <g id="matplotlib.axis_2">
    <g id="ytick_1">
     <g id="line2d_13">
      <path d="M 92.974375 317.149688 
L 876.84375 317.149688 
" clip-path="url(#p3b3391fcbd)" style="fill: none; stroke: #b0b0b0; stroke-width: 0.8; stroke-linecap: square"/>
     </g>
     <g id="line2d_14">
      <defs>
       <path id="m72090a02a8" d="M 0 0 
L -3.5 0 
" style="stroke: #000000; stroke-width: 0.8"/>
      </defs>
      <g>
       <use xlink:href="#m72090a02a8" x="92.974375" y="317.149688" style="stroke: #000000; stroke-width: 0.8"/>
      </g>
     </g>
     <g id="text_8">
      <!-- 0.0 -->
      <g transform="translate(50.9875 325.507969)scale(0.22 -0.22)">
       <defs>
        <path id="DejaVuSans-2e" d="M 684 794 
L 1344 794 
L 1344 0 
L 684 0 
L 684 794 
z
" transform="scale(0.015625)"/>
       </defs>
       <use xlink:href="#DejaVuSans-30"/>
       <use xlink:href="#DejaVuSans-2e" x="63.623047"/>
       <use xlink:href="#DejaVuSans-30" x="95.410156"/>
      </g>
     </g>
    </g>
    <g id="ytick_2">
     <g id="line2d_15">
      <path d="M 92.974375 261.265938 
L 876.84375 261.265938 
" clip-path="url(#p3b3391fcbd)" style="fill: none; stroke: #b0b0b0; stroke-width: 0.8; stroke-linecap: square"/>
     </g>
     <g id="line2d_16">
      <g>
       <use xlink:href="#m72090a02a8" x="92.974375" y="261.265938" style="stroke: #000000; stroke-width: 0.8"/>
      </g>
     </g>
     <g id="text_9">
      <!-- 0.2 -->
      <g transform="translate(50.9875 269.624219)scale(0.22 -0.22)">
       <use xlink:href="#DejaVuSans-30"/>
       <use xlink:href="#DejaVuSans-2e" x="63.623047"/>
       <use xlink:href="#DejaVuSans-32" x="95.410156"/>
      </g>
     </g>
    </g>
    <g id="ytick_3">
     <g id="line2d_17">
      <path d="M 92.974375 205.382188 
L 876.84375 205.382188 
" clip-path="url(#p3b3391fcbd)" style="fill: none; stroke: #b0b0b0; stroke-width: 0.8; stroke-linecap: square"/>
     </g>
     <g id="line2d_18">
      <g>
       <use xlink:href="#m72090a02a8" x="92.974375" y="205.382188" style="stroke: #000000; stroke-width: 0.8"/>
      </g>
     </g>
     <g id="text_10">
      <!-- 0.4 -->
      <g transform="translate(50.9875 213.740469)scale(0.22 -0.22)">
       <use xlink:href="#DejaVuSans-30"/>
       <use xlink:href="#DejaVuSans-2e" x="63.623047"/>
       <use xlink:href="#DejaVuSans-34" x="95.410156"/>
      </g>
     </g>
    </g>
    <g id="ytick_4">
     <g id="line2d_19">
      <path d="M 92.974375 149.498438 
L 876.84375 149.498438 
" clip-path="url(#p3b3391fcbd)" style="fill: none; stroke: #b0b0b0; stroke-width: 0.8; stroke-linecap: square"/>
     </g>
     <g id="line2d_20">
      <g>
       <use xlink:href="#m72090a02a8" x="92.974375" y="149.498438" style="stroke: #000000; stroke-width: 0.8"/>
      </g>
     </g>
     <g id="text_11">
      <!-- 0.6 -->
      <g transform="translate(50.9875 157.856719)scale(0.22 -0.22)">
       <use xlink:href="#DejaVuSans-30"/>
       <use xlink:href="#DejaVuSans-2e" x="63.623047"/>
       <use xlink:href="#DejaVuSans-36" x="95.410156"/>
      </g>
     </g>
    </g>
    <g id="ytick_5">
     <g id="line2d_21">
      <path d="M 92.974375 93.614688 
L 876.84375 93.614688 
" clip-path="url(#p3b3391fcbd)" style="fill: none; stroke: #b0b0b0; stroke-width: 0.8; stroke-linecap: square"/>
     </g>
     <g id="line2d_22">
      <g>
       <use xlink:href="#m72090a02a8" x="92.974375" y="93.614688" style="stroke: #000000; stroke-width: 0.8"/>
      </g>
     </g>
     <g id="text_12">
      <!-- 0.8 -->
      <g transform="translate(50.9875 101.972969)scale(0.22 -0.22)">
       <use xlink:href="#DejaVuSans-30"/>
       <use xlink:href="#DejaVuSans-2e" x="63.623047"/>
       <use xlink:href="#DejaVuSans-38" x="95.410156"/>
      </g>
     </g>
    </g>
    <g id="ytick_6">
     <g id="line2d_23">
      <path d="M 92.974375 37.730937 
L 876.84375 37.730937 
" clip-path="url(#p3b3391fcbd)" style="fill: none; stroke: #b0b0b0; stroke-width: 0.8; stroke-linecap: square"/>
     </g>
     <g id="line2d_24">
      <g>
       <use xlink:href="#m72090a02a8" x="92.974375" y="37.730937" style="stroke: #000000; stroke-width: 0.8"/>
      </g>
     </g>
     <g id="text_13">
      <!-- 1.0 -->
      <g transform="translate(50.9875 46.089219)scale(0.22 -0.22)">
       <use xlink:href="#DejaVuSans-31"/>
       <use xlink:href="#DejaVuSans-2e" x="63.623047"/>
       <use xlink:href="#DejaVuSans-30" x="95.410156"/>
      </g>
     </g>
    </g>
    <g id="text_14">
     <!-- Likelihood of occurrence -->
     <g transform="translate(41.99625 323.628438)rotate(-90)scale(0.24 -0.24)">
      <defs>
       <path id="DejaVuSans-4c" d="M 628 4666 
L 1259 4666 
L 1259 531 
L 3531 531 
L 3531 0 
L 628 0 
L 628 4666 
z
" transform="scale(0.015625)"/>
       <path id="DejaVuSans-69" d="M 603 3500 
L 1178 3500 
L 1178 0 
L 603 0 
L 603 3500 
z
M 603 4863 
L 1178 4863 
L 1178 4134 
L 603 4134 
L 603 4863 
z
" transform="scale(0.015625)"/>
       <path id="DejaVuSans-6b" d="M 581 4863 
L 1159 4863 
L 1159 1991 
L 2875 3500 
L 3609 3500 
L 1753 1863 
L 3688 0 
L 2938 0 
L 1159 1709 
L 1159 0 
L 581 0 
L 581 4863 
z
" transform="scale(0.015625)"/>
       <path id="DejaVuSans-65" d="M 3597 1894 
L 3597 1613 
L 953 1613 
Q 991 1019 1311 708 
Q 1631 397 2203 397 
Q 2534 397 2845 478 
Q 3156 559 3463 722 
L 3463 178 
Q 3153 47 2828 -22 
Q 2503 -91 2169 -91 
Q 1331 -91 842 396 
Q 353 884 353 1716 
Q 353 2575 817 3079 
Q 1281 3584 2069 3584 
Q 2775 3584 3186 3129 
Q 3597 2675 3597 1894 
z
M 3022 2063 
Q 3016 2534 2758 2815 
Q 2500 3097 2075 3097 
Q 1594 3097 1305 2825 
Q 1016 2553 972 2059 
L 3022 2063 
z
" transform="scale(0.015625)"/>
       <path id="DejaVuSans-6c" d="M 603 4863 
L 1178 4863 
L 1178 0 
L 603 0 
L 603 4863 
z
" transform="scale(0.015625)"/>
       <path id="DejaVuSans-68" d="M 3513 2113 
L 3513 0 
L 2938 0 
L 2938 2094 
Q 2938 2591 2744 2837 
Q 2550 3084 2163 3084 
Q 1697 3084 1428 2787 
Q 1159 2491 1159 1978 
L 1159 0 
L 581 0 
L 581 4863 
L 1159 4863 
L 1159 2956 
Q 1366 3272 1645 3428 
Q 1925 3584 2291 3584 
Q 2894 3584 3203 3211 
Q 3513 2838 3513 2113 
z
" transform="scale(0.015625)"/>
       <path id="DejaVuSans-6f" d="M 1959 3097 
Q 1497 3097 1228 2736 
Q 959 2375 959 1747 
Q 959 1119 1226 758 
Q 1494 397 1959 397 
Q 2419 397 2687 759 
Q 2956 1122 2956 1747 
Q 2956 2369 2687 2733 
Q 2419 3097 1959 3097 
z
M 1959 3584 
Q 2709 3584 3137 3096 
Q 3566 2609 3566 1747 
Q 3566 888 3137 398 
Q 2709 -91 1959 -91 
Q 1206 -91 779 398 
Q 353 888 353 1747 
Q 353 2609 779 3096 
Q 1206 3584 1959 3584 
z
" transform="scale(0.015625)"/>
       <path id="DejaVuSans-64" d="M 2906 2969 
L 2906 4863 
L 3481 4863 
L 3481 0 
L 2906 0 
L 2906 525 
Q 2725 213 2448 61 
Q 2172 -91 1784 -91 
Q 1150 -91 751 415 
Q 353 922 353 1747 
Q 353 2572 751 3078 
Q 1150 3584 1784 3584 
Q 2172 3584 2448 3432 
Q 2725 3281 2906 2969 
z
M 947 1747 
Q 947 1113 1208 752 
Q 1469 391 1925 391 
Q 2381 391 2643 752 
Q 2906 1113 2906 1747 
Q 2906 2381 2643 2742 
Q 2381 3103 1925 3103 
Q 1469 3103 1208 2742 
Q 947 2381 947 1747 
z
" transform="scale(0.015625)"/>
       <path id="DejaVuSans-66" d="M 2375 4863 
L 2375 4384 
L 1825 4384 
Q 1516 4384 1395 4259 
Q 1275 4134 1275 3809 
L 1275 3500 
L 2222 3500 
L 2222 3053 
L 1275 3053 
L 1275 0 
L 697 0 
L 697 3053 
L 147 3053 
L 147 3500 
L 697 3500 
L 697 3744 
Q 697 4328 969 4595 
Q 1241 4863 1831 4863 
L 2375 4863 
z
" transform="scale(0.015625)"/>
       <path id="DejaVuSans-63" d="M 3122 3366 
L 3122 2828 
Q 2878 2963 2633 3030 
Q 2388 3097 2138 3097 
Q 1578 3097 1268 2742 
Q 959 2388 959 1747 
Q 959 1106 1268 751 
Q 1578 397 2138 397 
Q 2388 397 2633 464 
Q 2878 531 3122 666 
L 3122 134 
Q 2881 22 2623 -34 
Q 2366 -91 2075 -91 
Q 1284 -91 818 406 
Q 353 903 353 1747 
Q 353 2603 823 3093 
Q 1294 3584 2113 3584 
Q 2378 3584 2631 3529 
Q 2884 3475 3122 3366 
z
" transform="scale(0.015625)"/>
       <path id="DejaVuSans-75" d="M 544 1381 
L 544 3500 
L 1119 3500 
L 1119 1403 
Q 1119 906 1312 657 
Q 1506 409 1894 409 
Q 2359 409 2629 706 
Q 2900 1003 2900 1516 
L 2900 3500 
L 3475 3500 
L 3475 0 
L 2900 0 
L 2900 538 
Q 2691 219 2414 64 
Q 2138 -91 1772 -91 
Q 1169 -91 856 284 
Q 544 659 544 1381 
z
M 1991 3584 
L 1991 3584 
z
" transform="scale(0.015625)"/>
       <path id="DejaVuSans-72" d="M 2631 2963 
Q 2534 3019 2420 3045 
Q 2306 3072 2169 3072 
Q 1681 3072 1420 2755 
Q 1159 2438 1159 1844 
L 1159 0 
L 581 0 
L 581 3500 
L 1159 3500 
L 1159 2956 
Q 1341 3275 1631 3429 
Q 1922 3584 2338 3584 
Q 2397 3584 2469 3576 
Q 2541 3569 2628 3553 
L 2631 2963 
z
" transform="scale(0.015625)"/>
       <path id="DejaVuSans-6e" d="M 3513 2113 
L 3513 0 
L 2938 0 
L 2938 2094 
Q 2938 2591 2744 2837 
Q 2550 3084 2163 3084 
Q 1697 3084 1428 2787 
Q 1159 2491 1159 1978 
L 1159 0 
L 581 0 
L 581 3500 
L 1159 3500 
L 1159 2956 
Q 1366 3272 1645 3428 
Q 1925 3584 2291 3584 
Q 2894 3584 3203 3211 
Q 3513 2838 3513 2113 
z
" transform="scale(0.015625)"/>
      </defs>
      <use xlink:href="#DejaVuSans-4c"/>
      <use xlink:href="#DejaVuSans-69" x="55.712891"/>
      <use xlink:href="#DejaVuSans-6b" x="83.496094"/>
      <use xlink:href="#DejaVuSans-65" x="137.78125"/>
      <use xlink:href="#DejaVuSans-6c" x="199.304688"/>
      <use xlink:href="#DejaVuSans-69" x="227.087891"/>
      <use xlink:href="#DejaVuSans-68" x="254.871094"/>
      <use xlink:href="#DejaVuSans-6f" x="318.25"/>
      <use xlink:href="#DejaVuSans-6f" x="379.431641"/>
      <use xlink:href="#DejaVuSans-64" x="440.613281"/>
      <use xlink:href="#DejaVuSans-20" x="504.089844"/>
      <use xlink:href="#DejaVuSans-6f" x="535.876953"/>
      <use xlink:href="#DejaVuSans-66" x="597.058594"/>
      <use xlink:href="#DejaVuSans-20" x="632.263672"/>
      <use xlink:href="#DejaVuSans-6f" x="664.050781"/>
      <use xlink:href="#DejaVuSans-63" x="725.232422"/>
      <use xlink:href="#DejaVuSans-63" x="780.212891"/>
      <use xlink:href="#DejaVuSans-75" x="835.193359"/>
      <use xlink:href="#DejaVuSans-72" x="898.572266"/>
      <use xlink:href="#DejaVuSans-72" x="937.935547"/>
      <use xlink:href="#DejaVuSans-65" x="976.798828"/>
      <use xlink:href="#DejaVuSans-6e" x="1038.322266"/>
      <use xlink:href="#DejaVuSans-63" x="1101.701172"/>
      <use xlink:href="#DejaVuSans-65" x="1156.681641"/>
     </g>
    </g>
   </g>
   <g id="line2d_25">
    <path d="M 92.974375 317.149688 
L 178.37338 317.076311 
L 178.572911 317.002934 
L 179.071737 317.002934 
L 179.271267 316.85618 
L 179.869858 316.85618 
L 180.069389 316.63605 
L 180.66798 316.63605 
L 180.86751 316.41592 
L 181.466101 316.41592 
L 181.665632 316.195789 
L 182.264223 316.195789 
L 182.463753 316.049036 
L 183.062344 316.049036 
L 183.261875 315.828906 
L 183.860466 315.828906 
L 184.059996 315.608775 
L 184.558822 315.608775 
L 184.758353 315.462022 
L 186.155065 315.462022 
L 186.354596 315.021761 
L 186.953187 315.021761 
L 187.152717 314.287993 
L 187.751309 314.287993 
L 187.950839 313.700979 
L 188.54943 313.700979 
L 188.74896 313.334095 
L 189.347552 313.334095 
L 189.547082 312.967211 
L 190.045908 312.967211 
L 190.245438 312.747081 
L 190.84403 312.747081 
L 191.04356 312.380197 
L 191.642151 312.380197 
L 191.841681 311.86656 
L 192.440273 311.86656 
L 192.639803 311.206169 
L 194.036516 311.132792 
L 194.236046 310.619155 
L 195.532994 310.545778 
L 195.732524 310.399024 
L 196.331115 310.399024 
L 196.530646 310.252271 
L 197.129237 310.252271 
L 197.328767 310.105517 
L 197.927358 310.105517 
L 198.126889 309.738633 
L 198.72548 309.738633 
L 198.92501 309.445126 
L 199.523601 309.445126 
L 199.723132 309.224996 
L 200.321723 309.224996 
L 200.521253 308.858112 
L 201.020079 308.858112 
L 201.21961 308.564605 
L 201.818201 308.564605 
L 202.017731 308.417852 
L 202.616322 308.417852 
L 202.815853 307.757461 
L 203.414444 307.757461 
L 203.613974 307.3172 
L 204.212565 307.3172 
L 204.412096 307.09707 
L 205.808808 307.023693 
L 206.008339 306.583432 
L 206.507165 306.583432 
L 206.706695 306.363302 
L 207.305286 306.363302 
L 207.504817 306.216548 
L 208.103408 306.216548 
L 208.302938 305.849665 
L 208.901529 305.849665 
L 209.10106 305.702911 
L 209.699651 305.702911 
L 209.899181 305.556157 
L 210.497773 305.556157 
L 210.697303 305.26265 
L 211.295894 305.26265 
L 211.495425 305.04252 
L 211.99425 305.04252 
L 212.193781 304.528883 
L 212.792372 304.528883 
L 212.991902 304.015245 
L 213.590494 304.015245 
L 213.790024 303.721738 
L 214.388615 303.721738 
L 214.588145 303.428231 
L 215.984858 303.354854 
L 216.184389 302.914594 
L 216.78298 302.914594 
L 216.98251 302.474333 
L 218.279458 302.400956 
L 218.478988 301.813942 
L 219.077579 301.813942 
L 219.27711 301.300305 
L 219.875701 301.300305 
L 220.075231 301.006798 
L 220.673822 301.006798 
L 220.873353 300.860044 
L 221.471944 300.860044 
L 221.671474 300.49316 
L 222.270065 300.49316 
L 222.469596 300.126276 
L 222.968422 300.126276 
L 223.167952 299.759392 
L 223.766543 299.759392 
L 223.966074 299.465885 
L 224.564665 299.465885 
L 224.764195 298.878871 
L 225.362786 298.878871 
L 225.562317 298.511987 
L 226.959029 298.43861 
L 227.15856 297.924973 
L 228.455507 297.851596 
L 228.655038 297.704843 
L 229.253629 297.704843 
L 229.453159 297.484712 
L 230.05175 297.484712 
L 230.251281 297.264582 
L 230.849872 297.264582 
L 231.049402 297.044452 
L 231.647994 297.044452 
L 231.847524 296.604191 
L 232.446115 296.604191 
L 232.645645 296.237307 
L 233.244237 296.237307 
L 233.443767 295.72367 
L 233.942593 295.72367 
L 234.142123 295.063279 
L 234.740715 295.063279 
L 234.940245 294.623018 
L 235.538836 294.623018 
L 235.738366 294.402888 
L 237.135079 294.329511 
L 237.33461 293.815874 
L 237.933201 293.815874 
L 238.132731 293.522367 
L 238.731322 293.522367 
L 238.930853 293.22886 
L 239.429679 293.22886 
L 239.629209 293.008729 
L 240.2278 293.008729 
L 240.427331 292.788599 
L 241.025922 292.788599 
L 241.225452 292.348338 
L 241.824043 292.348338 
L 242.023574 291.687947 
L 242.622165 291.687947 
L 242.821695 290.807426 
L 243.420286 290.807426 
L 243.619817 290.660673 
L 244.218408 290.660673 
L 244.417938 290.367166 
L 244.916764 290.367166 
L 245.116295 290.000282 
L 245.714886 290.000282 
L 245.914416 289.780151 
L 246.513007 289.780151 
L 246.712538 289.486644 
L 247.311129 289.486644 
L 247.510659 289.046384 
L 248.10925 289.046384 
L 248.308781 288.6795 
L 248.907372 288.6795 
L 249.106902 288.459369 
L 249.705493 288.459369 
L 249.905024 288.019109 
L 250.40385 288.019109 
L 250.60338 287.872355 
L 251.201971 287.872355 
L 251.401502 287.652225 
L 252.798214 287.578848 
L 252.997745 287.285341 
L 253.596336 287.285341 
L 253.795866 286.991834 
L 254.394458 286.991834 
L 254.593988 286.698327 
L 255.192579 286.698327 
L 255.39211 286.258066 
L 255.890935 286.258066 
L 256.090466 285.964559 
L 256.689057 285.964559 
L 256.888587 285.744429 
L 257.487179 285.744429 
L 257.686709 285.304168 
L 258.2853 285.304168 
L 258.48483 285.157415 
L 259.881543 285.084038 
L 260.081074 284.423647 
L 260.679665 284.423647 
L 260.879195 284.056763 
L 261.378021 284.056763 
L 261.577551 283.689879 
L 262.176143 283.689879 
L 262.375673 283.469749 
L 262.974264 283.469749 
L 263.173795 283.176242 
L 263.772386 283.176242 
L 263.971916 283.029488 
L 264.570507 283.029488 
L 264.770038 282.662604 
L 265.368629 282.662604 
L 265.568159 282.295721 
L 266.16675 282.295721 
L 266.366281 282.07559 
L 266.865107 282.07559 
L 267.064637 281.85546 
L 267.663228 281.85546 
L 267.862759 281.488576 
L 268.46135 281.488576 
L 268.66088 281.121692 
L 269.259471 281.121692 
L 269.459002 280.608055 
L 270.057593 280.608055 
L 270.257123 280.387924 
L 270.855714 280.387924 
L 271.055245 279.80091 
L 271.653836 279.80091 
L 271.853366 279.507403 
L 272.352192 279.507403 
L 272.551723 279.213896 
L 273.150314 279.213896 
L 273.349844 278.406752 
L 273.948435 278.406752 
L 274.147966 278.259998 
L 274.746557 278.259998 
L 274.946087 277.893114 
L 275.544679 277.893114 
L 275.744209 277.672984 
L 276.3428 277.672984 
L 276.54233 277.452854 
L 277.140922 277.452854 
L 277.340452 277.08597 
L 277.839278 277.08597 
L 278.038808 276.792463 
L 278.6374 276.792463 
L 278.83693 276.205448 
L 280.233643 276.132072 
L 280.433173 275.618434 
L 281.031764 275.618434 
L 281.231295 275.03142 
L 282.628007 274.958043 
L 282.827538 274.884666 
L 283.326364 274.884666 
L 283.525894 274.444406 
L 284.124485 274.444406 
L 284.324016 274.004145 
L 284.922607 274.004145 
L 285.122137 273.637261 
L 285.720728 273.637261 
L 285.920259 273.270377 
L 286.51885 273.270377 
L 286.71838 272.609987 
L 287.316971 272.609987 
L 287.516502 272.316479 
L 288.115093 272.316479 
L 288.314623 272.169726 
L 288.813449 272.169726 
L 289.01298 271.729465 
L 289.611571 271.729465 
L 289.811101 271.289205 
L 290.409692 271.289205 
L 290.609223 270.848944 
L 291.207814 270.848944 
L 291.407344 270.70219 
L 292.005935 270.70219 
L 292.205466 270.48206 
L 292.804057 270.48206 
L 293.003587 270.188553 
L 293.602178 270.188553 
L 293.801709 269.674916 
L 294.300535 269.674916 
L 294.500065 269.528162 
L 295.896778 269.454785 
L 296.096308 269.381409 
L 296.694899 269.381409 
L 296.89443 268.867771 
L 297.493021 268.867771 
L 297.692551 268.500887 
L 298.291143 268.500887 
L 298.490673 268.280757 
L 299.089264 268.280757 
L 299.288794 268.134003 
L 299.78762 268.134003 
L 299.987151 267.620366 
L 300.585742 267.620366 
L 300.785272 267.106729 
L 301.383864 267.106729 
L 301.583394 266.813222 
L 302.181985 266.813222 
L 302.381515 266.593091 
L 302.980107 266.593091 
L 303.179637 266.299584 
L 303.778228 266.299584 
L 303.977759 265.9327 
L 304.57635 265.9327 
L 304.77588 265.345686 
L 305.274706 265.345686 
L 305.474236 264.832049 
L 306.072828 264.832049 
L 306.272358 264.538542 
L 306.870949 264.538542 
L 307.07048 264.171658 
L 307.669071 264.171658 
L 307.868601 263.731397 
L 308.467192 263.731397 
L 308.666723 263.291136 
L 309.265314 263.291136 
L 309.464844 263.071006 
L 310.063435 263.071006 
L 310.262966 262.777499 
L 310.861557 262.777499 
L 311.061087 262.337238 
L 311.559913 262.337238 
L 311.759444 262.190485 
L 312.358035 262.190485 
L 312.557565 261.676847 
L 313.156156 261.676847 
L 313.355687 261.38334 
L 313.954278 261.38334 
L 314.153808 260.869703 
L 314.752399 260.869703 
L 314.95193 260.649573 
L 315.550521 260.649573 
L 315.750051 259.989182 
L 316.348643 259.989182 
L 316.548173 259.695675 
L 317.046999 259.695675 
L 317.246529 259.475544 
L 317.84512 259.475544 
L 318.044651 259.10866 
L 318.643242 259.10866 
L 318.842772 258.741777 
L 319.441364 258.741777 
L 319.640894 258.301516 
L 320.239485 258.301516 
L 320.439015 257.861255 
L 321.037607 257.861255 
L 321.237137 257.641125 
L 321.835728 257.641125 
L 322.035259 257.494371 
L 322.534085 257.494371 
L 322.733615 257.200864 
L 323.332206 257.200864 
L 323.531736 256.540473 
L 324.130328 256.540473 
L 324.329858 256.100213 
L 324.928449 256.100213 
L 325.12798 255.880082 
L 325.726571 255.880082 
L 325.926101 255.146315 
L 327.322814 255.072938 
L 327.522344 254.706054 
L 328.02117 254.706054 
L 328.220701 254.045663 
L 328.819292 254.045663 
L 329.018822 253.752156 
L 329.617413 253.752156 
L 329.816944 253.605402 
L 330.415535 253.605402 
L 330.615065 253.238519 
L 331.213656 253.238519 
L 331.413187 252.871635 
L 332.011778 252.871635 
L 332.211308 252.578128 
L 332.809899 252.578128 
L 333.00943 252.284621 
L 333.508256 252.284621 
L 333.707786 251.991113 
L 334.306377 251.991113 
L 334.505908 251.477476 
L 335.104499 251.477476 
L 335.304029 251.257346 
L 335.90262 251.257346 
L 336.102151 250.890462 
L 336.700742 250.890462 
L 336.900272 250.743708 
L 337.498863 250.743708 
L 337.698394 250.450201 
L 338.296985 250.450201 
L 338.496515 250.083317 
L 338.995341 250.083317 
L 339.194872 249.78981 
L 339.793463 249.78981 
L 339.992993 249.422926 
L 340.591584 249.422926 
L 340.791115 249.056043 
L 341.389706 249.056043 
L 341.589236 248.542405 
L 342.187828 248.542405 
L 342.387358 248.322275 
L 342.985949 248.322275 
L 343.185479 248.028768 
L 343.784071 248.028768 
L 343.983601 247.661884 
L 344.482427 247.661884 
L 344.681957 247.51513 
L 345.280549 247.51513 
L 345.480079 247.368377 
L 346.07867 247.368377 
L 346.2782 246.854739 
L 346.876792 246.854739 
L 347.076322 246.561232 
L 347.674913 246.561232 
L 347.874444 246.120972 
L 348.473035 246.120972 
L 348.672565 245.754088 
L 349.271156 245.754088 
L 349.470687 245.387204 
L 349.969513 245.387204 
L 350.169043 245.093697 
L 350.767634 245.093697 
L 350.967165 244.80019 
L 351.565756 244.80019 
L 351.765286 244.066422 
L 352.363877 244.066422 
L 352.563408 243.772915 
L 353.161999 243.772915 
L 353.361529 243.479408 
L 353.96012 243.479408 
L 354.159651 243.185901 
L 354.758242 243.185901 
L 354.957772 242.819017 
L 355.456598 242.819017 
L 355.656129 242.378756 
L 356.25472 242.378756 
L 356.45425 241.938496 
L 357.052841 241.938496 
L 357.252372 241.204728 
L 357.850963 241.204728 
L 358.050493 241.057974 
L 359.447206 241.057974 
L 359.646736 240.69109 
L 360.245328 240.69109 
L 360.444858 240.47096 
L 360.943684 240.47096 
L 361.143214 240.324207 
L 361.741805 240.324207 
L 361.941336 239.957323 
L 362.539927 239.957323 
L 362.739457 239.296932 
L 363.338049 239.296932 
L 363.537579 238.930048 
L 364.13617 238.930048 
L 364.3357 238.783294 
L 364.934292 238.783294 
L 365.133822 238.489787 
L 365.732413 238.489787 
L 365.931944 238.049527 
L 366.43077 238.049527 
L 366.6303 237.829396 
L 367.228891 237.829396 
L 367.428421 237.609266 
L 368.027013 237.609266 
L 368.226543 237.022252 
L 368.825134 237.022252 
L 369.024665 236.875498 
L 369.623256 236.875498 
L 369.822786 236.581991 
L 370.421377 236.581991 
L 370.620908 236.068354 
L 371.219499 236.068354 
L 371.419029 235.554716 
L 371.917855 235.554716 
L 372.117386 235.261209 
L 372.715977 235.261209 
L 372.915507 234.894325 
L 373.514098 234.894325 
L 373.713629 234.747572 
L 374.31222 234.747572 
L 374.51175 234.600818 
L 375.110341 234.600818 
L 375.309872 234.233934 
L 375.908463 234.233934 
L 376.107993 234.013804 
L 376.706584 234.013804 
L 376.906115 233.42679 
L 377.404941 233.42679 
L 377.604471 233.280036 
L 378.203062 233.280036 
L 378.402593 232.913153 
L 379.001184 232.913153 
L 379.200714 231.959255 
L 379.799305 231.959255 
L 379.998836 231.665747 
L 380.597427 231.665747 
L 380.796957 231.225487 
L 381.395548 231.225487 
L 381.595079 230.785226 
L 382.19367 230.785226 
L 382.3932 230.491719 
L 382.892026 230.491719 
L 383.091557 229.831328 
L 383.690148 229.831328 
L 383.889678 229.464444 
L 384.488269 229.464444 
L 384.6878 229.317691 
L 385.286391 229.317691 
L 385.485921 229.170937 
L 386.084513 229.170937 
L 386.284043 228.950807 
L 386.882634 228.950807 
L 387.082164 228.363793 
L 387.680756 228.363793 
L 387.880286 227.996909 
L 388.379112 227.996909 
L 388.578642 227.850155 
L 389.177234 227.850155 
L 389.376764 227.483271 
L 389.975355 227.483271 
L 390.174885 227.336518 
L 390.773477 227.336518 
L 390.973007 226.969634 
L 391.571598 226.969634 
L 391.771129 226.749504 
L 392.36972 226.749504 
L 392.56925 226.309243 
L 393.167841 226.309243 
L 393.367372 226.162489 
L 393.866198 226.162489 
L 394.065728 225.502099 
L 394.664319 225.502099 
L 394.86385 225.061838 
L 395.462441 225.061838 
L 395.661971 224.694954 
L 396.260562 224.694954 
L 396.460093 224.181317 
L 397.058684 224.181317 
L 397.258214 223.961186 
L 397.856805 223.961186 
L 398.056336 223.447549 
L 398.654927 223.447549 
L 398.854457 223.007288 
L 399.353283 223.007288 
L 399.552814 222.493651 
L 400.151405 222.493651 
L 400.350935 222.126767 
L 400.949526 222.126767 
L 401.149057 221.906637 
L 401.747648 221.906637 
L 401.947178 221.61313 
L 402.545769 221.61313 
L 402.7453 221.392999 
L 403.343891 221.392999 
L 403.543421 220.879362 
L 404.142013 220.879362 
L 404.341543 220.292348 
L 404.840369 220.292348 
L 405.039899 219.852087 
L 405.63849 219.852087 
L 405.838021 219.705334 
L 406.436612 219.705334 
L 406.636142 219.265073 
L 407.234734 219.265073 
L 407.434264 218.751435 
L 408.032855 218.751435 
L 408.232385 218.091045 
L 408.830977 218.091045 
L 409.030507 217.797537 
L 409.629098 217.797537 
L 409.828629 217.50403 
L 410.327455 217.50403 
L 410.526985 216.843639 
L 411.125576 216.843639 
L 411.325106 216.623509 
L 411.923698 216.623509 
L 412.123228 216.109872 
L 412.721819 216.109872 
L 412.92135 215.889741 
L 413.519941 215.889741 
L 413.719471 215.449481 
L 414.318062 215.449481 
L 414.517593 215.082597 
L 415.116184 215.082597 
L 415.315714 214.78909 
L 416.612662 214.78909 
L 416.812192 214.568959 
L 417.410783 214.568959 
L 417.610314 214.128699 
L 418.208905 214.128699 
L 418.408435 213.908568 
L 419.007026 213.908568 
L 419.206557 213.321554 
L 419.805148 213.321554 
L 420.004678 213.028047 
L 420.603269 213.028047 
L 420.8028 212.587787 
L 421.301626 212.587787 
L 421.501156 212.441033 
L 422.099747 212.441033 
L 422.299278 212.147526 
L 422.897869 212.147526 
L 423.097399 211.780642 
L 423.69599 211.780642 
L 423.895521 211.633889 
L 424.494112 211.633889 
L 424.693642 211.267005 
L 425.292233 211.267005 
L 425.491764 211.046874 
L 426.090355 211.046874 
L 426.289885 210.313107 
L 426.788711 210.313107 
L 426.988242 210.0196 
L 427.586833 210.0196 
L 427.786363 209.726092 
L 428.384954 209.726092 
L 428.584485 209.285832 
L 429.183076 209.285832 
L 429.382606 209.065701 
L 429.981198 209.065701 
L 430.180728 208.552064 
L 430.779319 208.552064 
L 430.97885 208.331934 
L 431.577441 208.331934 
L 431.776971 207.818296 
L 432.275797 207.818296 
L 432.475327 207.598166 
L 433.073919 207.598166 
L 433.273449 207.231282 
L 433.87204 207.231282 
L 434.07157 206.791022 
L 434.670162 206.791022 
L 434.869692 206.130631 
L 435.468283 206.130631 
L 435.667814 205.543616 
L 436.266405 205.543616 
L 436.465935 205.250109 
L 437.064526 205.250109 
L 437.264057 204.956602 
L 437.762883 204.956602 
L 437.962413 204.222834 
L 438.561004 204.222834 
L 438.760535 203.929327 
L 439.359126 203.929327 
L 439.558656 203.782574 
L 440.157247 203.782574 
L 440.356778 203.342313 
L 440.955369 203.342313 
L 441.154899 203.122183 
L 441.75349 203.122183 
L 441.953021 202.755299 
L 442.551612 202.755299 
L 442.751142 202.315038 
L 443.249968 202.315038 
L 443.449499 201.801401 
L 444.04809 201.801401 
L 444.24762 201.434517 
L 444.846211 201.434517 
L 445.045742 201.14101 
L 445.644333 201.14101 
L 445.843863 200.700749 
L 446.442454 200.700749 
L 446.641985 200.553996 
L 447.240576 200.553996 
L 447.440106 200.260489 
L 448.737054 200.260489 
L 448.936584 200.040358 
L 449.535175 200.040358 
L 449.734706 199.600098 
L 450.333297 199.600098 
L 450.532827 199.159837 
L 451.131419 199.159837 
L 451.330949 199.013084 
L 452.727662 198.939707 
L 452.927192 198.792953 
L 453.525783 198.792953 
L 453.725314 198.572823 
L 454.323905 198.572823 
L 454.523435 198.132562 
L 455.022261 198.132562 
L 455.221791 197.839055 
L 455.820383 197.839055 
L 456.019913 197.472171 
L 456.618504 197.472171 
L 456.818035 197.252041 
L 457.416626 197.252041 
L 457.616156 196.738404 
L 458.214747 196.738404 
L 458.414278 196.15139 
L 459.012869 196.15139 
L 459.212399 195.931259 
L 459.81099 195.931259 
L 460.010521 195.564375 
L 460.509347 195.564375 
L 460.708877 195.270868 
L 461.307468 195.270868 
L 461.506999 194.903984 
L 462.10559 194.903984 
L 462.30512 194.31697 
L 462.903711 194.31697 
L 463.103242 193.656579 
L 464.499954 193.583202 
L 464.699485 193.142942 
L 465.298076 193.142942 
L 465.497606 192.776058 
L 465.996432 192.776058 
L 466.195963 192.04229 
L 466.794554 192.04229 
L 466.994084 191.528653 
L 467.592675 191.528653 
L 467.792206 191.381899 
L 468.390797 191.381899 
L 468.590327 191.088392 
L 469.188918 191.088392 
L 469.388449 190.794885 
L 469.98704 190.794885 
L 470.18657 190.281248 
L 470.785162 190.281248 
L 470.984692 190.061117 
L 471.483518 190.061117 
L 471.683048 189.694234 
L 472.281639 189.694234 
L 472.48117 189.400726 
L 473.079761 189.400726 
L 473.279291 188.960466 
L 473.877883 188.960466 
L 474.077413 188.740335 
L 474.676004 188.740335 
L 474.875534 188.079945 
L 475.474126 188.079945 
L 475.673656 187.786437 
L 476.272247 187.786437 
L 476.471778 187.49293 
L 476.970604 187.49293 
L 477.170134 187.199423 
L 477.768725 187.199423 
L 477.968255 186.905916 
L 478.566847 186.905916 
L 478.766377 186.539032 
L 479.364968 186.539032 
L 479.564499 186.318902 
L 480.16309 186.318902 
L 480.36262 186.098772 
L 480.961211 186.098772 
L 481.160742 185.731888 
L 481.759333 185.731888 
L 481.958863 185.365004 
L 482.457689 185.365004 
L 482.65722 184.99812 
L 483.255811 184.99812 
L 483.455341 184.631236 
L 484.053932 184.631236 
L 484.253463 184.484483 
L 484.852054 184.484483 
L 485.051584 184.190976 
L 485.650175 184.190976 
L 485.849706 183.824092 
L 486.448297 183.824092 
L 486.647827 183.457208 
L 487.944775 183.383831 
L 488.144305 182.870194 
L 488.742896 182.870194 
L 488.942427 182.283179 
L 489.541018 182.283179 
L 489.740548 181.769542 
L 490.339139 181.769542 
L 490.53867 181.255905 
L 491.137261 181.255905 
L 491.336791 181.109151 
L 491.935383 181.109151 
L 492.134913 180.742267 
L 492.733504 180.742267 
L 492.933034 180.155253 
L 493.43186 180.155253 
L 493.631391 179.788369 
L 494.229982 179.788369 
L 494.429512 179.568239 
L 495.028104 179.568239 
L 495.227634 179.421485 
L 495.826225 179.421485 
L 496.025755 179.054601 
L 496.624347 179.054601 
L 496.823877 178.614341 
L 497.422468 178.614341 
L 497.621999 178.394211 
L 498.22059 178.394211 
L 498.42012 177.95395 
L 498.918946 177.95395 
L 499.118476 177.660443 
L 499.717068 177.660443 
L 499.916598 177.366936 
L 500.515189 177.366936 
L 500.71472 176.633168 
L 501.313311 176.633168 
L 501.512841 176.192907 
L 502.111432 176.192907 
L 502.310963 175.826024 
L 502.909554 175.826024 
L 503.109084 175.532516 
L 503.707675 175.532516 
L 503.907206 175.165633 
L 504.406032 175.165633 
L 504.605562 174.578618 
L 505.204153 174.578618 
L 505.403684 173.991604 
L 506.002275 173.991604 
L 506.201805 173.771474 
L 506.800396 173.771474 
L 506.999927 173.331213 
L 507.598518 173.331213 
L 507.798048 172.817576 
L 508.396639 172.817576 
L 508.59617 172.377315 
L 509.194761 172.377315 
L 509.394291 172.083808 
L 510.691239 172.083808 
L 510.890769 171.790301 
L 511.48936 171.790301 
L 511.688891 171.570171 
L 512.287482 171.570171 
L 512.487012 171.423417 
L 513.085603 171.423417 
L 513.285134 171.203287 
L 513.883725 171.203287 
L 514.083255 171.056533 
L 514.681847 171.056533 
L 514.881377 170.90978 
L 515.380203 170.90978 
L 515.579733 170.689649 
L 516.178324 170.689649 
L 516.377855 170.102635 
L 516.976446 170.102635 
L 517.175976 169.442244 
L 517.774568 169.442244 
L 517.974098 169.001984 
L 518.572689 169.001984 
L 518.772219 168.414969 
L 519.370811 168.414969 
L 519.570341 168.194839 
L 520.168932 168.194839 
L 520.368463 167.681202 
L 520.867289 167.681202 
L 521.066819 167.461071 
L 521.66541 167.461071 
L 521.86494 167.167564 
L 522.463532 167.167564 
L 522.663062 166.947434 
L 523.261653 166.947434 
L 523.461184 166.36042 
L 524.059775 166.36042 
L 524.259305 165.700029 
L 524.857896 165.700029 
L 525.057427 165.553275 
L 525.656018 165.553275 
L 525.855548 165.406522 
L 526.354374 165.406522 
L 526.553905 164.966261 
L 527.152496 164.966261 
L 527.352026 164.526001 
L 527.950617 164.526001 
L 528.150148 164.379247 
L 528.748739 164.379247 
L 528.948269 164.159117 
L 529.54686 164.159117 
L 529.746391 163.718856 
L 530.344982 163.718856 
L 530.544512 163.131842 
L 531.143103 163.131842 
L 531.342634 162.838335 
L 531.84146 162.838335 
L 532.04099 162.471451 
L 532.639581 162.471451 
L 532.839112 162.177944 
L 533.437703 162.177944 
L 533.637233 161.957813 
L 534.235824 161.957813 
L 534.435355 161.59093 
L 535.033946 161.59093 
L 535.233476 161.297423 
L 535.832068 161.297423 
L 536.031598 160.857162 
L 537.328545 160.783785 
L 537.528076 160.416901 
L 538.126667 160.416901 
L 538.326197 160.196771 
L 538.924789 160.196771 
L 539.124319 159.976641 
L 539.72291 159.976641 
L 539.92244 159.53638 
L 540.521032 159.53638 
L 540.720562 159.169496 
L 541.319153 159.169496 
L 541.518684 158.729235 
L 542.117275 158.729235 
L 542.316805 158.142221 
L 542.815631 158.142221 
L 543.015161 157.701961 
L 543.613753 157.701961 
L 543.813283 157.188323 
L 544.411874 157.188323 
L 544.611405 156.894816 
L 545.209996 156.894816 
L 545.409526 156.527932 
L 546.008117 156.527932 
L 546.207648 156.014295 
L 546.806239 156.014295 
L 547.005769 155.720788 
L 547.60436 155.720788 
L 547.803891 155.133774 
L 548.302717 155.133774 
L 548.502247 154.913643 
L 549.100838 154.913643 
L 549.300369 154.473383 
L 549.89896 154.473383 
L 550.09849 154.106499 
L 550.697081 154.106499 
L 550.896612 153.886369 
L 551.495203 153.886369 
L 551.694733 153.372731 
L 552.293324 153.372731 
L 552.492855 153.079224 
L 553.091446 153.079224 
L 553.290976 152.565587 
L 553.789802 152.565587 
L 553.989333 152.27208 
L 554.587924 152.27208 
L 554.787454 152.125326 
L 555.386045 152.125326 
L 555.585576 151.538312 
L 556.184167 151.538312 
L 556.383697 151.024674 
L 556.982288 151.024674 
L 557.181819 150.877921 
L 557.78041 150.877921 
L 557.97994 150.584414 
L 558.578532 150.584414 
L 558.778062 150.364283 
L 559.276888 150.364283 
L 559.476418 149.924023 
L 560.075009 149.924023 
L 560.27454 149.777269 
L 560.873131 149.777269 
L 561.072661 149.483762 
L 562.469374 149.410385 
L 562.668905 148.970125 
L 563.267496 148.970125 
L 563.467026 148.529864 
L 564.065617 148.529864 
L 564.265148 148.089603 
L 564.763974 148.089603 
L 564.963504 147.869473 
L 565.562095 147.869473 
L 565.761625 147.575966 
L 566.360217 147.575966 
L 566.559747 147.429213 
L 567.158338 147.429213 
L 567.357869 146.842198 
L 567.95646 146.842198 
L 568.15599 146.328561 
L 568.754581 146.328561 
L 568.954112 146.108431 
L 569.552703 146.108431 
L 569.752233 145.594793 
L 570.251059 145.594793 
L 570.45059 145.227909 
L 571.049181 145.227909 
L 571.248711 144.861025 
L 572.645424 144.787649 
L 572.844954 144.347388 
L 573.443545 144.347388 
L 573.643076 143.980504 
L 574.241667 143.980504 
L 574.441197 143.466867 
L 575.039788 143.466867 
L 575.239319 142.879853 
L 575.738145 142.879853 
L 575.937675 142.733099 
L 577.334388 142.733099 
L 577.533918 142.512969 
L 578.132509 142.512969 
L 578.33204 142.146085 
L 578.930631 142.146085 
L 579.130161 141.632447 
L 579.728753 141.632447 
L 579.928283 141.192187 
L 580.526874 141.192187 
L 580.726404 140.825303 
L 581.22523 140.825303 
L 581.424761 140.531796 
L 582.023352 140.531796 
L 582.222882 140.018158 
L 582.821474 140.018158 
L 583.021004 139.798028 
L 583.619595 139.798028 
L 583.819125 139.577898 
L 584.417717 139.577898 
L 584.617247 139.06426 
L 585.215838 139.06426 
L 585.415369 138.917507 
L 586.01396 138.917507 
L 586.21349 138.477246 
L 586.712316 138.477246 
L 586.911846 138.330493 
L 587.510438 138.330493 
L 587.709968 137.963609 
L 588.308559 137.963609 
L 588.50809 137.670102 
L 589.106681 137.670102 
L 589.306211 137.449971 
L 589.904802 137.449971 
L 590.104333 137.083088 
L 590.702924 137.083088 
L 590.902454 136.422697 
L 591.501045 136.422697 
L 591.700576 136.275943 
L 592.299167 136.275943 
L 592.498697 135.982436 
L 592.997523 135.982436 
L 593.197054 135.688929 
L 593.795645 135.688929 
L 593.995175 135.395422 
L 594.593766 135.395422 
L 594.793297 134.881784 
L 595.391888 134.881784 
L 595.591418 134.661654 
L 596.190009 134.661654 
L 596.38954 134.148017 
L 596.988131 134.148017 
L 597.187661 133.927886 
L 597.786253 133.927886 
L 597.985783 133.781133 
L 598.484609 133.781133 
L 598.684139 133.267495 
L 599.28273 133.267495 
L 599.482261 133.047365 
L 600.080852 133.047365 
L 600.280382 132.753858 
L 600.878973 132.753858 
L 601.078504 132.460351 
L 602.475217 132.386974 
L 602.674747 131.79996 
L 603.273338 131.79996 
L 603.472869 131.359699 
L 603.971694 131.359699 
L 604.171225 130.992815 
L 605.567938 130.919439 
L 605.767468 130.699308 
L 606.366059 130.699308 
L 606.565589 130.332425 
L 607.164181 130.332425 
L 607.363711 129.818787 
L 607.962302 129.818787 
L 608.161833 129.451903 
L 608.760424 129.451903 
L 608.959954 129.011643 
L 609.45878 129.011643 
L 609.65831 128.644759 
L 610.256902 128.644759 
L 610.456432 128.204498 
L 611.055023 128.204498 
L 611.254554 127.617484 
L 611.853145 127.617484 
L 612.052675 127.103847 
L 612.651266 127.103847 
L 612.850797 126.883716 
L 613.449388 126.883716 
L 613.648918 126.443456 
L 614.247509 126.443456 
L 614.44704 126.003195 
L 614.945866 126.003195 
L 615.145396 125.636311 
L 615.743987 125.636311 
L 615.943518 125.049297 
L 617.34023 125.049297 
L 617.539761 124.535659 
L 618.138352 124.535659 
L 618.337882 124.168776 
L 618.936473 124.168776 
L 619.136004 123.655138 
L 619.734595 123.655138 
L 619.934125 123.361631 
L 620.432951 123.361631 
L 620.632482 123.141501 
L 621.231073 123.141501 
L 621.430603 122.627863 
L 622.029194 122.627863 
L 622.228725 122.407733 
L 622.827316 122.407733 
L 623.026846 122.187603 
L 623.625438 122.187603 
L 623.824968 122.040849 
L 624.423559 122.040849 
L 624.623089 121.747342 
L 625.221681 121.747342 
L 625.421211 121.527212 
L 625.920037 121.527212 
L 626.119567 120.940198 
L 626.718159 120.940198 
L 626.917689 120.573314 
L 627.51628 120.573314 
L 627.71581 119.912923 
L 628.314402 119.912923 
L 628.513932 119.619416 
L 629.112523 119.619416 
L 629.312054 119.472662 
L 629.910645 119.472662 
L 630.110175 119.179155 
L 631.407123 119.105778 
L 631.606653 118.665518 
L 632.205244 118.665518 
L 632.404775 118.298634 
L 633.003366 118.298634 
L 633.202896 117.858373 
L 633.801487 117.858373 
L 634.001018 117.564866 
L 634.599609 117.564866 
L 634.799139 117.344736 
L 635.39773 117.344736 
L 635.597261 116.977852 
L 636.195852 116.977852 
L 636.395382 116.684345 
L 636.894208 116.684345 
L 637.093739 116.537591 
L 637.69233 116.537591 
L 637.89186 116.097331 
L 638.490451 116.097331 
L 638.689982 115.510316 
L 639.288573 115.510316 
L 639.488103 115.363563 
L 640.086694 115.363563 
L 640.286225 115.143433 
L 640.884816 115.143433 
L 641.084346 114.996679 
L 641.682937 114.996679 
L 641.882468 114.336288 
L 642.381294 114.336288 
L 642.580824 114.116158 
L 643.179415 114.116158 
L 643.378946 113.822651 
L 643.977537 113.822651 
L 644.177067 113.235636 
L 644.775658 113.235636 
L 644.975189 112.942129 
L 645.57378 112.942129 
L 645.77331 112.648622 
L 646.371902 112.648622 
L 646.571432 111.988231 
L 647.170023 111.988231 
L 647.369554 111.401217 
L 647.868379 111.401217 
L 648.06791 111.181087 
L 648.666501 111.181087 
L 648.866031 110.740826 
L 649.464623 110.740826 
L 649.664153 110.520696 
L 650.262744 110.520696 
L 650.462275 110.373942 
L 651.858987 110.373942 
L 652.058518 110.153812 
L 652.657109 110.153812 
L 652.856639 109.640175 
L 653.355465 109.640175 
L 653.554995 109.05316 
L 654.153587 109.05316 
L 654.353117 108.686277 
L 654.951708 108.686277 
L 655.151239 108.099262 
L 655.74983 108.099262 
L 655.94936 107.659002 
L 656.547951 107.659002 
L 656.747482 107.365495 
L 657.346073 107.365495 
L 657.545603 107.071988 
L 658.144194 107.071988 
L 658.343725 106.925234 
L 658.842551 106.925234 
L 659.042081 106.55835 
L 659.640672 106.55835 
L 659.840203 106.11809 
L 660.438794 106.11809 
L 660.638324 105.897959 
L 661.236915 105.897959 
L 661.436446 105.384322 
L 662.035037 105.384322 
L 662.234567 105.017438 
L 663.63128 104.944061 
L 663.83081 104.723931 
L 664.329636 104.723931 
L 664.529167 104.503801 
L 665.127758 104.503801 
L 665.327288 104.06354 
L 665.925879 104.06354 
L 666.12541 103.623279 
L 666.724001 103.623279 
L 666.923531 103.476526 
L 668.320244 103.403149 
L 668.519774 103.329772 
L 669.118366 103.329772 
L 669.317896 103.109642 
L 669.816722 103.109642 
L 670.016252 102.522628 
L 670.614844 102.522628 
L 670.814374 101.935614 
L 671.412965 101.935614 
L 671.612495 101.78886 
L 672.211087 101.78886 
L 672.410617 101.421976 
L 673.009208 101.421976 
L 673.208739 100.761585 
L 673.80733 100.761585 
L 674.00686 100.101194 
L 674.605451 100.101194 
L 674.804982 99.660934 
L 676.101929 99.660934 
L 676.30146 99.367426 
L 676.900051 99.367426 
L 677.099581 98.707036 
L 677.698172 98.707036 
L 677.897703 98.486905 
L 679.294415 98.413528 
L 679.493946 97.899891 
L 680.092537 97.899891 
L 680.292067 97.45963 
L 680.790893 97.45963 
L 680.990424 96.799239 
L 681.589015 96.799239 
L 681.788545 96.432356 
L 682.387136 96.432356 
L 682.586667 96.212225 
L 683.185258 96.212225 
L 683.384788 95.918718 
L 683.983379 95.918718 
L 684.18291 95.771965 
L 684.781501 95.771965 
L 684.981031 95.625211 
L 685.579623 95.625211 
L 685.779153 95.478458 
L 686.277979 95.478458 
L 686.477509 95.331704 
L 687.0761 95.331704 
L 687.275631 95.038197 
L 687.874222 95.038197 
L 688.073752 94.377806 
L 688.672343 94.377806 
L 688.871874 93.937545 
L 689.470465 93.937545 
L 689.669995 93.570661 
L 690.268587 93.570661 
L 690.468117 93.203778 
L 691.066708 93.203778 
L 691.266239 92.91027 
L 691.765064 92.91027 
L 691.964595 92.616763 
L 692.563186 92.616763 
L 692.762716 92.323256 
L 693.361308 92.323256 
L 693.560838 92.029749 
L 694.159429 92.029749 
L 694.358959 91.809619 
L 694.957551 91.809619 
L 695.157081 91.442735 
L 695.755672 91.442735 
L 695.955203 91.222605 
L 696.553794 91.222605 
L 696.753324 91.002474 
L 697.25215 91.002474 
L 697.45168 90.342083 
L 698.050272 90.342083 
L 698.249802 90.19533 
L 698.848393 90.19533 
L 699.047924 90.048576 
L 699.646515 90.048576 
L 699.846045 89.828446 
L 700.444636 89.828446 
L 700.644167 89.388185 
L 701.242758 89.388185 
L 701.442288 88.727794 
L 702.040879 88.727794 
L 702.24041 88.581041 
L 702.739236 88.581041 
L 702.938766 87.994027 
L 703.537357 87.994027 
L 703.736888 87.407013 
L 704.335479 87.407013 
L 704.535009 86.893375 
L 705.1336 86.893375 
L 705.333131 86.673245 
L 705.931722 86.673245 
L 706.131252 86.232984 
L 706.729843 86.232984 
L 706.929374 85.939477 
L 707.527965 85.939477 
L 707.727495 85.64597 
L 708.226321 85.64597 
L 708.425852 84.985579 
L 709.024443 84.985579 
L 709.223973 84.471942 
L 709.822564 84.471942 
L 710.022095 84.105058 
L 710.620686 84.105058 
L 710.820216 83.444667 
L 711.418808 83.444667 
L 711.618338 83.077783 
L 712.216929 83.077783 
L 712.416459 82.710899 
L 713.015051 82.710899 
L 713.214581 81.977131 
L 714.511529 81.903755 
L 714.711059 81.610248 
L 715.30965 81.610248 
L 715.50918 81.243364 
L 716.107772 81.243364 
L 716.307302 80.656349 
L 716.905893 80.656349 
L 717.105424 80.142712 
L 718.502136 80.069335 
L 718.701667 79.849205 
L 719.200493 79.849205 
L 719.400023 79.262191 
L 719.998614 79.262191 
L 720.198145 78.6018 
L 720.796736 78.6018 
L 720.996266 78.38167 
L 721.594857 78.38167 
L 721.794388 78.014786 
L 723.1911 77.941409 
L 723.390631 77.574525 
L 723.989222 77.574525 
L 724.188752 77.281018 
L 724.687578 77.281018 
L 724.887109 76.840757 
L 725.4857 76.840757 
L 725.68523 76.54725 
L 726.283821 76.54725 
L 726.483352 76.32712 
L 727.081943 76.32712 
L 727.281473 76.033613 
L 727.880064 76.033613 
L 728.079595 75.740106 
L 728.678186 75.740106 
L 728.877716 75.226468 
L 729.476307 75.226468 
L 729.675838 74.786208 
L 730.174664 74.786208 
L 730.374194 74.419324 
L 730.972785 74.419324 
L 731.172316 73.905686 
L 731.770907 73.905686 
L 731.970437 72.951788 
L 732.569028 72.951788 
L 732.768559 72.805035 
L 733.36715 72.805035 
L 733.56668 72.438151 
L 734.963393 72.364774 
L 735.162924 71.924514 
L 735.761515 71.924514 
L 735.961045 71.484253 
L 736.459871 71.484253 
L 736.659401 71.337499 
L 737.257993 71.337499 
L 737.457523 70.897239 
L 738.056114 70.897239 
L 738.255645 70.603732 
L 738.854236 70.603732 
L 739.053766 70.090094 
L 739.652357 70.090094 
L 739.851888 69.649834 
L 740.450479 69.649834 
L 740.650009 69.28295 
L 741.2486 69.28295 
L 741.448131 68.916066 
L 741.946957 68.916066 
L 742.146487 68.769312 
L 742.745078 68.769312 
L 742.944609 68.402428 
L 743.5432 68.402428 
L 743.74273 67.962168 
L 744.341321 67.962168 
L 744.540852 67.375154 
L 745.139443 67.375154 
L 745.338973 67.081647 
L 745.937564 67.081647 
L 746.137095 66.934893 
L 746.735686 66.934893 
L 746.935216 66.714763 
L 747.434042 66.714763 
L 747.633573 66.568009 
L 748.232164 66.568009 
L 748.431694 65.907618 
L 749.030285 65.907618 
L 749.229816 65.687488 
L 749.828407 65.687488 
L 750.027937 65.540734 
L 750.626528 65.540734 
L 750.826059 65.393981 
L 751.42465 65.393981 
L 751.62418 64.73359 
L 752.921128 64.660213 
L 753.120658 64.293329 
L 753.719249 64.293329 
L 753.91878 63.999822 
L 754.517371 63.999822 
L 754.716901 63.853069 
L 755.315493 63.853069 
L 755.515023 63.412808 
L 756.113614 63.412808 
L 756.313144 62.752417 
L 756.911736 62.752417 
L 757.111266 62.23878 
L 757.709857 62.23878 
L 757.909388 61.945272 
L 758.408214 61.945272 
L 758.607744 61.211505 
L 759.206335 61.211505 
L 759.405865 60.844621 
L 760.004457 60.844621 
L 760.203987 60.330983 
L 760.802578 60.330983 
L 761.002109 59.817346 
L 761.6007 59.817346 
L 761.80023 59.597216 
L 762.398821 59.597216 
L 762.598352 59.303709 
L 763.196943 59.303709 
L 763.396473 59.156955 
L 763.895299 59.156955 
L 764.09483 58.790071 
L 764.693421 58.790071 
L 764.892951 58.643318 
L 765.491542 58.643318 
L 765.691073 58.496564 
L 766.289664 58.496564 
L 766.489194 57.90955 
L 767.087785 57.90955 
L 767.287316 57.322536 
L 767.885907 57.322536 
L 768.085437 57.102405 
L 768.684028 57.102405 
L 768.883559 56.735522 
L 769.382385 56.735522 
L 769.581915 56.588768 
L 770.180506 56.588768 
L 770.380037 56.295261 
L 770.978628 56.295261 
L 771.178158 56.075131 
L 771.776749 56.075131 
L 771.97628 55.708247 
L 772.574871 55.708247 
L 772.774401 55.41474 
L 774.171114 55.341363 
L 774.370644 54.680972 
L 774.86947 54.680972 
L 775.069001 54.460842 
L 775.667592 54.460842 
L 775.867122 54.020581 
L 777.263835 53.947204 
L 777.463365 53.800451 
L 778.061957 53.800451 
L 778.261487 53.433567 
L 778.860078 53.433567 
L 779.059609 53.213437 
L 779.6582 53.213437 
L 779.85773 52.773176 
L 780.356556 52.773176 
L 780.556086 52.553046 
L 781.154678 52.553046 
L 781.354208 52.332915 
L 781.952799 52.332915 
L 782.152329 52.039408 
L 782.750921 52.039408 
L 782.950451 51.599148 
L 783.549042 51.599148 
L 783.748573 51.379017 
L 784.347164 51.379017 
L 784.546694 50.86538 
L 785.145285 50.86538 
L 785.344816 50.498496 
L 785.843642 50.498496 
L 786.043172 50.204989 
L 786.641763 50.204989 
L 786.841294 49.617975 
L 787.439885 49.617975 
L 787.639415 49.251091 
L 788.238006 49.251091 
L 788.437537 49.03096 
L 789.036128 49.03096 
L 789.235658 48.664077 
L 789.834249 48.664077 
L 790.03378 48.297193 
L 790.632371 48.297193 
L 790.831901 47.930309 
L 791.330727 47.930309 
L 791.530258 47.783555 
L 792.128849 47.783555 
L 792.328379 47.343295 
L 792.92697 47.343295 
L 793.126501 46.976411 
L 793.725092 46.976411 
L 793.924622 46.609527 
L 794.523213 46.609527 
L 794.722744 46.09589 
L 795.321335 46.09589 
L 795.520865 45.729006 
L 796.119457 45.729006 
L 796.318987 45.362122 
L 797.615934 45.288745 
L 797.815465 44.921861 
L 798.414056 44.921861 
L 798.613586 44.334847 
L 799.212178 44.334847 
L 799.411708 43.894586 
L 800.010299 43.894586 
L 800.209829 43.747833 
L 800.808421 43.747833 
L 801.007951 43.380949 
L 801.606542 43.380949 
L 801.806073 42.940688 
L 802.304899 42.940688 
L 802.504429 42.647181 
L 803.10302 42.647181 
L 803.30255 42.427051 
L 803.901142 42.427051 
L 804.100672 41.913414 
L 804.699263 41.913414 
L 804.898794 41.693283 
L 805.497385 41.693283 
L 805.696915 41.179646 
L 806.295506 41.179646 
L 806.495037 40.959515 
L 807.093628 40.959515 
L 807.293158 40.739385 
L 807.791984 40.739385 
L 807.991515 40.592632 
L 809.388227 40.519255 
L 809.587758 40.372501 
L 811.782592 40.299125 
L 811.982122 40.152371 
L 813.27907 40.078994 
L 813.4786 40.005617 
L 818.766155 39.932241 
L 818.965686 39.858864 
L 821.958642 39.785487 
L 822.158172 39.638734 
L 823.554885 39.565357 
L 823.754415 39.49198 
L 825.849484 39.49198 
L 826.049014 39.345226 
L 826.647606 39.345226 
L 826.847136 39.125096 
L 831.33657 39.051719 
L 831.5361 38.904966 
L 834.529056 38.831589 
L 834.728586 38.758212 
L 835.227412 38.758212 
L 835.426943 38.611459 
L 838.419898 38.538082 
L 838.619429 38.464705 
L 841.512619 38.391328 
L 841.71215 38.244575 
L 842.310741 38.244575 
L 842.510271 38.097821 
L 850.990313 38.024445 
L 851.189843 37.951068 
L 861.166362 37.877691 
L 861.365893 37.804314 
L 876.929263 37.804314 
L 876.929263 37.804314 
" clip-path="url(#p3b3391fcbd)" style="fill: none; stroke: #1f77b4; stroke-width: 2; stroke-linecap: square"/>
   </g>
   <g id="line2d_26">
    <path d="M 92.974375 317.149688 
L 138.766599 317.072372 
L 138.966129 316.995056 
L 140.462607 316.917741 
L 140.662137 316.840425 
L 141.759554 316.763109 
L 141.959085 316.608478 
L 147.04711 316.531162 
L 147.24664 316.453847 
L 148.044762 316.376531 
L 148.244292 316.299215 
L 151.536543 316.2219 
L 151.835839 316.067268 
L 155.12809 315.989953 
L 155.327621 315.912637 
L 158.320577 315.835321 
L 158.520107 315.758006 
L 168.097565 315.68069 
L 168.297096 315.603375 
L 174.382773 315.526059 
L 174.582303 315.294112 
L 175.979016 315.216796 
L 176.178546 315.139481 
L 176.777137 315.139481 
L 176.976668 314.907534 
L 177.575259 314.907534 
L 177.774789 314.366324 
L 178.37338 314.366324 
L 178.572911 314.057062 
L 179.071737 314.057062 
L 179.271267 313.670483 
L 179.869858 313.670483 
L 180.069389 313.051958 
L 180.66798 313.051958 
L 180.86751 312.510749 
L 181.466101 312.510749 
L 181.665632 312.12417 
L 182.264223 312.12417 
L 182.463753 311.196383 
L 183.062344 311.196383 
L 183.261875 309.418123 
L 183.860466 309.418123 
L 184.059996 308.258388 
L 184.558822 308.258388 
L 184.758353 307.794494 
L 185.356944 307.794494 
L 185.556474 307.098653 
L 186.155065 307.098653 
L 186.354596 305.706972 
L 186.953187 305.706972 
L 187.152717 304.083343 
L 187.751309 304.083343 
L 187.950839 303.07824 
L 188.54943 303.07824 
L 188.74896 302.691661 
L 189.347552 302.691661 
L 189.547082 301.841189 
L 190.045908 301.841189 
L 190.245438 300.449508 
L 190.84403 300.449508 
L 191.04356 299.135142 
L 191.642151 299.135142 
L 191.841681 297.588829 
L 192.440273 297.588829 
L 192.639803 296.429094 
L 193.238394 296.429094 
L 193.437925 295.733253 
L 194.036516 295.733253 
L 194.236046 294.496203 
L 194.834637 294.496203 
L 195.034168 293.027205 
L 195.532994 293.027205 
L 195.732524 291.944786 
L 196.331115 291.944786 
L 196.530646 290.785052 
L 197.129237 290.785052 
L 197.328767 290.089211 
L 197.927358 290.089211 
L 198.126889 288.233635 
L 198.72548 288.233635 
L 198.92501 286.455375 
L 199.523601 286.455375 
L 199.723132 284.5998 
L 200.321723 284.5998 
L 200.521253 283.672012 
L 201.020079 283.672012 
L 201.21961 283.208118 
L 201.818201 283.208118 
L 202.017731 281.816437 
L 202.616322 281.816437 
L 202.815853 280.424755 
L 203.414444 280.424755 
L 203.613974 279.187705 
L 204.212565 279.187705 
L 204.412096 278.02797 
L 205.010687 278.02797 
L 205.210217 277.177498 
L 205.808808 277.177498 
L 206.008339 275.785816 
L 206.507165 275.785816 
L 206.706695 274.316819 
L 207.305286 274.316819 
L 207.504817 272.770506 
L 208.103408 272.770506 
L 208.302938 271.997349 
L 208.901529 271.997349 
L 209.10106 271.301509 
L 209.699651 271.301509 
L 209.899181 270.141774 
L 210.497773 270.141774 
L 210.697303 268.750092 
L 211.295894 268.750092 
L 211.495425 267.667673 
L 211.99425 267.667673 
L 212.193781 266.585254 
L 212.792372 266.585254 
L 212.991902 266.198676 
L 213.590494 266.198676 
L 213.790024 264.806994 
L 214.388615 264.806994 
L 214.588145 264.033838 
L 215.186737 264.033838 
L 215.386267 262.951419 
L 215.984858 262.951419 
L 216.184389 262.410209 
L 216.78298 262.410209 
L 216.98251 260.941212 
L 217.481336 260.941212 
L 217.680866 259.858793 
L 218.279458 259.858793 
L 218.478988 258.235164 
L 219.077579 258.235164 
L 219.27711 256.766167 
L 219.875701 256.766167 
L 220.075231 255.374485 
L 220.673822 255.374485 
L 220.873353 254.678644 
L 221.471944 254.678644 
L 221.671474 252.900384 
L 222.270065 252.900384 
L 222.469596 250.039705 
L 222.968422 250.039705 
L 223.167952 248.957286 
L 223.766543 248.957286 
L 223.966074 247.720236 
L 224.564665 247.720236 
L 224.764195 246.869764 
L 225.362786 246.869764 
L 225.562317 245.400767 
L 226.160908 245.400767 
L 226.360438 243.699822 
L 226.959029 243.699822 
L 227.15856 241.6123 
L 227.757151 241.6123 
L 227.956681 240.761828 
L 228.455507 240.761828 
L 228.655038 239.83404 
L 229.253629 239.83404 
L 229.453159 237.978464 
L 230.05175 237.978464 
L 230.251281 236.122889 
L 230.849872 236.122889 
L 231.049402 234.885839 
L 231.647994 234.885839 
L 231.847524 234.421945 
L 232.446115 234.421945 
L 232.645645 233.571473 
L 233.244237 233.571473 
L 233.443767 231.715897 
L 233.942593 231.715897 
L 234.142123 229.628375 
L 234.740715 229.628375 
L 234.940245 227.618168 
L 235.538836 227.618168 
L 235.738366 226.922327 
L 236.336958 226.922327 
L 236.536488 225.762592 
L 237.135079 225.762592 
L 237.33461 223.907017 
L 237.933201 223.907017 
L 238.132731 222.283388 
L 238.731322 222.283388 
L 238.930853 220.969022 
L 239.429679 220.969022 
L 239.629209 220.11855 
L 240.2278 220.11855 
L 240.427331 219.268078 
L 241.025922 219.268078 
L 241.225452 217.489818 
L 241.824043 217.489818 
L 242.023574 216.020821 
L 242.622165 216.020821 
L 242.821695 213.778667 
L 243.420286 213.778667 
L 243.619817 212.696248 
L 244.218408 212.696248 
L 244.417938 211.691144 
L 244.916764 211.691144 
L 245.116295 210.686041 
L 245.714886 210.686041 
L 245.914416 208.830465 
L 246.513007 208.830465 
L 246.712538 207.438784 
L 247.311129 207.438784 
L 247.510659 206.279049 
L 248.10925 206.279049 
L 248.308781 205.583208 
L 248.907372 205.583208 
L 249.106902 203.804948 
L 249.705493 203.804948 
L 249.905024 202.258635 
L 250.40385 202.258635 
L 250.60338 200.480375 
L 251.201971 200.480375 
L 251.401502 199.243325 
L 252.000093 199.243325 
L 252.199623 198.392853 
L 252.798214 198.392853 
L 252.997745 196.769224 
L 253.596336 196.769224 
L 253.795866 194.990964 
L 254.394458 194.990964 
L 254.593988 193.444652 
L 255.192579 193.444652 
L 255.39211 192.207601 
L 255.890935 192.207601 
L 256.090466 191.279813 
L 256.689057 191.279813 
L 256.888587 189.501554 
L 257.487179 189.501554 
L 257.686709 187.723294 
L 258.2853 187.723294 
L 258.48483 186.408928 
L 259.083422 186.408928 
L 259.282952 185.790402 
L 259.881543 185.790402 
L 260.081074 184.862615 
L 260.679665 184.862615 
L 260.879195 183.16167 
L 261.378021 183.16167 
L 261.577551 181.151464 
L 262.176143 181.151464 
L 262.375673 179.450519 
L 262.974264 179.450519 
L 263.173795 178.522732 
L 263.772386 178.522732 
L 263.971916 178.213469 
L 264.570507 178.213469 
L 264.770038 176.512525 
L 265.368629 176.512525 
L 265.568159 174.888896 
L 266.16675 174.888896 
L 266.366281 172.492111 
L 266.865107 172.492111 
L 267.064637 171.564323 
L 267.663228 171.564323 
L 267.862759 170.868482 
L 268.46135 170.868482 
L 268.66088 169.476801 
L 269.259471 169.476801 
L 269.459002 167.389278 
L 270.057593 167.389278 
L 270.257123 165.533703 
L 270.855714 165.533703 
L 271.055245 164.760546 
L 271.653836 164.760546 
L 271.853366 163.832759 
L 272.352192 163.832759 
L 272.551723 162.750339 
L 273.150314 162.750339 
L 273.349844 160.585501 
L 273.948435 160.585501 
L 274.147966 159.503082 
L 274.746557 159.503082 
L 274.946087 158.266032 
L 275.544679 158.266032 
L 275.744209 157.647507 
L 276.3428 157.647507 
L 276.54233 156.178509 
L 277.140922 156.178509 
L 277.340452 154.477565 
L 277.839278 154.477565 
L 278.038808 152.235411 
L 278.6374 152.235411 
L 278.83693 151.307624 
L 279.435521 151.307624 
L 279.635051 150.534467 
L 280.233643 150.534467 
L 280.433173 148.910839 
L 281.031764 148.910839 
L 281.231295 146.900632 
L 281.829886 146.900632 
L 282.029416 145.277003 
L 282.628007 145.277003 
L 282.827538 143.653375 
L 283.326364 143.653375 
L 283.525894 142.802902 
L 284.124485 142.802902 
L 284.324016 141.101958 
L 284.922607 141.101958 
L 285.122137 139.246383 
L 285.720728 139.246383 
L 285.920259 137.545438 
L 286.51885 137.545438 
L 286.71838 136.617651 
L 287.316971 136.617651 
L 287.516502 135.92181 
L 288.115093 135.92181 
L 288.314623 134.298181 
L 288.813449 134.298181 
L 289.01298 132.287974 
L 289.611571 132.287974 
L 289.811101 130.277768 
L 290.409692 130.277768 
L 290.609223 129.272664 
L 291.207814 129.272664 
L 291.407344 128.190245 
L 292.005935 128.190245 
L 292.205466 126.643932 
L 292.804057 126.643932 
L 293.003587 124.788357 
L 293.602178 124.788357 
L 293.801709 122.314256 
L 294.300535 122.314256 
L 294.500065 121.231837 
L 295.098656 121.231837 
L 295.298187 120.690627 
L 295.896778 120.690627 
L 296.096308 119.762839 
L 296.694899 119.762839 
L 296.89443 117.675317 
L 297.493021 117.675317 
L 297.692551 116.438267 
L 298.291143 116.438267 
L 298.490673 115.355848 
L 299.089264 115.355848 
L 299.288794 114.42806 
L 299.78762 114.42806 
L 299.987151 113.577588 
L 300.585742 113.577588 
L 300.785272 111.799328 
L 301.383864 111.799328 
L 301.583394 110.175699 
L 302.181985 110.175699 
L 302.381515 109.402543 
L 302.980107 109.402543 
L 303.179637 109.170596 
L 303.778228 109.170596 
L 303.977759 107.701598 
L 304.57635 107.701598 
L 304.77588 105.923339 
L 305.274706 105.923339 
L 305.474236 104.377026 
L 306.072828 104.377026 
L 306.272358 103.371922 
L 306.870949 103.371922 
L 307.07048 101.748294 
L 307.669071 101.748294 
L 307.868601 100.047349 
L 308.467192 100.047349 
L 308.666723 98.191774 
L 309.265314 98.191774 
L 309.464844 96.49083 
L 310.063435 96.49083 
L 310.262966 95.408411 
L 310.861557 95.408411 
L 311.061087 94.325991 
L 311.559913 94.325991 
L 311.759444 92.625047 
L 312.358035 92.625047 
L 312.557565 90.924103 
L 313.156156 90.924103 
L 313.355687 89.687053 
L 313.954278 89.687053 
L 314.153808 88.372687 
L 314.752399 88.372687 
L 314.95193 86.671742 
L 315.550521 86.671742 
L 315.750051 84.816167 
L 316.348643 84.816167 
L 316.548173 82.80596 
L 317.046999 82.80596 
L 317.246529 81.259647 
L 317.84512 81.259647 
L 318.044651 80.022597 
L 318.643242 80.022597 
L 318.842772 78.940178 
L 319.441364 78.940178 
L 319.640894 77.239233 
L 320.239485 77.239233 
L 320.439015 75.306342 
L 321.037607 75.306342 
L 321.237137 74.45587 
L 321.835728 74.45587 
L 322.035259 73.450767 
L 322.534085 73.450767 
L 322.733615 72.754926 
L 323.332206 72.754926 
L 323.531736 71.595191 
L 324.130328 71.595191 
L 324.329858 69.584984 
L 324.928449 69.584984 
L 325.12798 67.729409 
L 325.726571 67.729409 
L 325.926101 66.569674 
L 326.524692 66.569674 
L 326.724223 65.409939 
L 327.322814 65.409939 
L 327.522344 64.095573 
L 328.02117 64.095573 
L 328.220701 62.703892 
L 328.819292 62.703892 
L 329.018822 61.080263 
L 329.617413 61.080263 
L 329.816944 59.997844 
L 330.415535 59.997844 
L 330.615065 58.992741 
L 331.213656 58.992741 
L 331.413187 57.601059 
L 332.011778 57.601059 
L 332.211308 55.281589 
L 332.809899 55.281589 
L 333.00943 53.889908 
L 333.508256 53.889908 
L 333.707786 53.271383 
L 334.306377 53.271383 
L 334.505908 52.652857 
L 335.104499 52.652857 
L 335.304029 51.957017 
L 335.90262 51.957017 
L 336.102151 50.410704 
L 336.700742 50.410704 
L 336.900272 50.178757 
L 337.498863 50.178757 
L 337.698394 50.024125 
L 338.296985 50.024125 
L 338.496515 49.714863 
L 338.995341 49.714863 
L 339.194872 49.096338 
L 339.793463 49.096338 
L 339.992993 48.632444 
L 340.591584 48.632444 
L 340.791115 48.16855 
L 341.389706 48.16855 
L 341.589236 47.859287 
L 342.985949 47.781972 
L 343.185479 47.472709 
L 343.784071 47.472709 
L 343.983601 47.240762 
L 344.482427 47.240762 
L 344.681957 46.776868 
L 345.280549 46.776868 
L 345.480079 46.544921 
L 346.07867 46.544921 
L 346.2782 46.312974 
L 346.876792 46.312974 
L 347.076322 45.926396 
L 347.674913 45.926396 
L 347.874444 45.539818 
L 348.473035 45.539818 
L 348.672565 45.385187 
L 350.767634 45.307871 
L 350.967165 45.15324 
L 351.565756 45.15324 
L 351.765286 44.766661 
L 352.363877 44.766661 
L 352.563408 44.457399 
L 353.96012 44.380083 
L 354.159651 44.225452 
L 354.758242 44.225452 
L 354.957772 44.070821 
L 355.456598 44.070821 
L 355.656129 43.606927 
L 357.850963 43.529611 
L 358.050493 43.452295 
L 358.649084 43.452295 
L 358.848615 43.143033 
L 359.447206 43.143033 
L 359.646736 42.679139 
L 360.245328 42.679139 
L 360.444858 42.447192 
L 360.943684 42.447192 
L 361.143214 42.292561 
L 362.539927 42.215245 
L 362.739457 41.751351 
L 363.338049 41.751351 
L 363.537579 41.364773 
L 364.13617 41.364773 
L 364.3357 41.132826 
L 364.934292 41.132826 
L 365.133822 40.746248 
L 367.228891 40.668932 
L 367.428421 40.35967 
L 368.027013 40.35967 
L 368.226543 39.895776 
L 368.825134 39.895776 
L 369.024665 39.663829 
L 370.421377 39.586513 
L 370.620908 39.354566 
L 371.219499 39.354566 
L 371.419029 39.199935 
L 371.917855 39.199935 
L 372.117386 38.967988 
L 372.715977 38.967988 
L 372.915507 38.736041 
L 374.31222 38.736041 
L 374.51175 38.58141 
L 375.110341 38.58141 
L 375.309872 38.426778 
L 379.001184 38.349463 
L 379.200714 38.272147 
L 386.882634 38.194831 
L 387.082164 38.117516 
L 642.381294 38.0402 
L 642.580824 37.962884 
L 876.929263 37.885569 
L 876.929263 37.885569 
" clip-path="url(#p3b3391fcbd)" style="fill: none; stroke: #ff7f0e; stroke-width: 2; stroke-linecap: square"/>
   </g>
   <g id="patch_3">
    <path d="M 92.974375 331.120625 
L 92.974375 23.76 
" style="fill: none; stroke: #000000; stroke-width: 0.8; stroke-linejoin: miter; stroke-linecap: square"/>
   </g>
   <g id="patch_4">
    <path d="M 876.84375 331.120625 
L 876.84375 23.76 
" style="fill: none; stroke: #000000; stroke-width: 0.8; stroke-linejoin: miter; stroke-linecap: square"/>
   </g>
   <g id="patch_5">
    <path d="M 92.974375 331.120625 
L 876.84375 331.120625 
" style="fill: none; stroke: #000000; stroke-width: 0.8; stroke-linejoin: miter; stroke-linecap: square"/>
   </g>
   <g id="patch_6">
    <path d="M 92.974375 23.76 
L 876.84375 23.76 
" style="fill: none; stroke: #000000; stroke-width: 0.8; stroke-linejoin: miter; stroke-linecap: square"/>
   </g>
   <g id="legend_1">
    <g id="patch_7">
     <path d="M 556.3725 319.120625 
L 860.04375 319.120625 
Q 864.84375 319.120625 864.84375 314.320625 
L 864.84375 245.598125 
Q 864.84375 240.798125 860.04375 240.798125 
L 556.3725 240.798125 
Q 551.5725 240.798125 551.5725 245.598125 
L 551.5725 314.320625 
Q 551.5725 319.120625 556.3725 319.120625 
z
" style="fill: #ffffff; opacity: 0.8; stroke: #cccccc; stroke-linejoin: miter"/>
    </g>
    <g id="line2d_27">
     <path d="M 561.1725 260.234375 
L 585.1725 260.234375 
L 609.1725 260.234375 
" style="fill: none; stroke: #1f77b4; stroke-width: 2; stroke-linecap: square"/>
    </g>
    <g id="text_15">
     <!-- SR_160_noprealloc -->
     <g transform="translate(628.3725 268.634375)scale(0.24 -0.24)">
      <defs>
       <path id="DejaVuSans-53" d="M 3425 4513 
L 3425 3897 
Q 3066 4069 2747 4153 
Q 2428 4238 2131 4238 
Q 1616 4238 1336 4038 
Q 1056 3838 1056 3469 
Q 1056 3159 1242 3001 
Q 1428 2844 1947 2747 
L 2328 2669 
Q 3034 2534 3370 2195 
Q 3706 1856 3706 1288 
Q 3706 609 3251 259 
Q 2797 -91 1919 -91 
Q 1588 -91 1214 -16 
Q 841 59 441 206 
L 441 856 
Q 825 641 1194 531 
Q 1563 422 1919 422 
Q 2459 422 2753 634 
Q 3047 847 3047 1241 
Q 3047 1584 2836 1778 
Q 2625 1972 2144 2069 
L 1759 2144 
Q 1053 2284 737 2584 
Q 422 2884 422 3419 
Q 422 4038 858 4394 
Q 1294 4750 2059 4750 
Q 2388 4750 2728 4690 
Q 3069 4631 3425 4513 
z
" transform="scale(0.015625)"/>
       <path id="DejaVuSans-5f" d="M 3263 -1063 
L 3263 -1509 
L -63 -1509 
L -63 -1063 
L 3263 -1063 
z
" transform="scale(0.015625)"/>
       <path id="DejaVuSans-70" d="M 1159 525 
L 1159 -1331 
L 581 -1331 
L 581 3500 
L 1159 3500 
L 1159 2969 
Q 1341 3281 1617 3432 
Q 1894 3584 2278 3584 
Q 2916 3584 3314 3078 
Q 3713 2572 3713 1747 
Q 3713 922 3314 415 
Q 2916 -91 2278 -91 
Q 1894 -91 1617 61 
Q 1341 213 1159 525 
z
M 3116 1747 
Q 3116 2381 2855 2742 
Q 2594 3103 2138 3103 
Q 1681 3103 1420 2742 
Q 1159 2381 1159 1747 
Q 1159 1113 1420 752 
Q 1681 391 2138 391 
Q 2594 391 2855 752 
Q 3116 1113 3116 1747 
z
" transform="scale(0.015625)"/>
       <path id="DejaVuSans-61" d="M 2194 1759 
Q 1497 1759 1228 1600 
Q 959 1441 959 1056 
Q 959 750 1161 570 
Q 1363 391 1709 391 
Q 2188 391 2477 730 
Q 2766 1069 2766 1631 
L 2766 1759 
L 2194 1759 
z
M 3341 1997 
L 3341 0 
L 2766 0 
L 2766 531 
Q 2569 213 2275 61 
Q 1981 -91 1556 -91 
Q 1019 -91 701 211 
Q 384 513 384 1019 
Q 384 1609 779 1909 
Q 1175 2209 1959 2209 
L 2766 2209 
L 2766 2266 
Q 2766 2663 2505 2880 
Q 2244 3097 1772 3097 
Q 1472 3097 1187 3025 
Q 903 2953 641 2809 
L 641 3341 
Q 956 3463 1253 3523 
Q 1550 3584 1831 3584 
Q 2591 3584 2966 3190 
Q 3341 2797 3341 1997 
z
" transform="scale(0.015625)"/>
      </defs>
      <use xlink:href="#DejaVuSans-53"/>
      <use xlink:href="#DejaVuSans-52" x="63.476562"/>
      <use xlink:href="#DejaVuSans-5f" x="132.958984"/>
      <use xlink:href="#DejaVuSans-31" x="182.958984"/>
      <use xlink:href="#DejaVuSans-36" x="246.582031"/>
      <use xlink:href="#DejaVuSans-30" x="310.205078"/>
      <use xlink:href="#DejaVuSans-5f" x="373.828125"/>
      <use xlink:href="#DejaVuSans-6e" x="423.828125"/>
      <use xlink:href="#DejaVuSans-6f" x="487.207031"/>
      <use xlink:href="#DejaVuSans-70" x="548.388672"/>
      <use xlink:href="#DejaVuSans-72" x="611.865234"/>
      <use xlink:href="#DejaVuSans-65" x="650.728516"/>
      <use xlink:href="#DejaVuSans-61" x="712.251953"/>
      <use xlink:href="#DejaVuSans-6c" x="773.53125"/>
      <use xlink:href="#DejaVuSans-6c" x="801.314453"/>
      <use xlink:href="#DejaVuSans-6f" x="829.097656"/>
      <use xlink:href="#DejaVuSans-63" x="890.279297"/>
     </g>
    </g>
    <g id="line2d_28">
     <path d="M 561.1725 296.129375 
L 585.1725 296.129375 
L 609.1725 296.129375 
" style="fill: none; stroke: #ff7f0e; stroke-width: 2; stroke-linecap: square"/>
    </g>
    <g id="text_16">
     <!-- Default -->
     <g transform="translate(628.3725 304.529375)scale(0.24 -0.24)">
      <defs>
       <path id="DejaVuSans-44" d="M 1259 4147 
L 1259 519 
L 2022 519 
Q 2988 519 3436 956 
Q 3884 1394 3884 2338 
Q 3884 3275 3436 3711 
Q 2988 4147 2022 4147 
L 1259 4147 
z
M 628 4666 
L 1925 4666 
Q 3281 4666 3915 4102 
Q 4550 3538 4550 2338 
Q 4550 1131 3912 565 
Q 3275 0 1925 0 
L 628 0 
L 628 4666 
z
" transform="scale(0.015625)"/>
       <path id="DejaVuSans-74" d="M 1172 4494 
L 1172 3500 
L 2356 3500 
L 2356 3053 
L 1172 3053 
L 1172 1153 
Q 1172 725 1289 603 
Q 1406 481 1766 481 
L 2356 481 
L 2356 0 
L 1766 0 
Q 1100 0 847 248 
Q 594 497 594 1153 
L 594 3053 
L 172 3053 
L 172 3500 
L 594 3500 
L 594 4494 
L 1172 4494 
z
" transform="scale(0.015625)"/>
      </defs>
      <use xlink:href="#DejaVuSans-44"/>
      <use xlink:href="#DejaVuSans-65" x="77.001953"/>
      <use xlink:href="#DejaVuSans-66" x="138.525391"/>
      <use xlink:href="#DejaVuSans-61" x="173.730469"/>
      <use xlink:href="#DejaVuSans-75" x="235.009766"/>
      <use xlink:href="#DejaVuSans-6c" x="298.388672"/>
      <use xlink:href="#DejaVuSans-74" x="326.171875"/>
     </g>
    </g>
   </g>
  </g>
 </g>
 <defs>
  <clipPath id="p3b3391fcbd">
   <rect x="92.974375" y="23.76" width="783.869375" height="307.360625"/>
  </clipPath>
 </defs>
</svg>
