<?xml version="1.0" encoding="utf-8" standalone="no"?>
<!DOCTYPE svg PUBLIC "-//W3C//DTD SVG 1.1//EN"
  "http://www.w3.org/Graphics/SVG/1.1/DTD/svg11.dtd">
<svg xmlns:xlink="http://www.w3.org/1999/xlink" width="921.6pt" height="410.4pt" viewBox="0 0 921.6 410.4" xmlns="http://www.w3.org/2000/svg" version="1.1">
 <metadata>
  <rdf:RDF xmlns:dc="http://purl.org/dc/elements/1.1/" xmlns:cc="http://creativecommons.org/ns#" xmlns:rdf="http://www.w3.org/1999/02/22-rdf-syntax-ns#">
   <cc:Work>
    <dc:type rdf:resource="http://purl.org/dc/dcmitype/StillImage"/>
    <dc:date>2023-04-24T12:26:50.395289</dc:date>
    <dc:format>image/svg+xml</dc:format>
    <dc:creator>
     <cc:Agent>
      <dc:title>Matplotlib v3.5.3, https://matplotlib.org/</dc:title>
     </cc:Agent>
    </dc:creator>
   </cc:Work>
  </rdf:RDF>
 </metadata>
 <defs>
  <style type="text/css">*{stroke-linejoin: round; stroke-linecap: butt}</style>
 </defs>
 <g id="figure_1">
  <g id="patch_1">
   <path d="M 0 410.4 
L 921.6 410.4 
L 921.6 0 
L 0 0 
L 0 410.4 
z
" style="fill: none"/>
  </g>
  <g id="axes_1">
   <g id="patch_2">
    <path d="M 92.974375 331.120625 
L 892.967865 331.120625 
L 892.967865 23.76 
L 92.974375 23.76 
z
" style="fill: #ffffff"/>
   </g>
   <g id="matplotlib.axis_1">
    <g id="xtick_1">
     <g id="line2d_1">
      <path d="M 92.974375 331.120625 
L 92.974375 23.76 
" clip-path="url(#p29282b20c5)" style="fill: none; stroke: #b0b0b0; stroke-width: 0.8; stroke-linecap: square"/>
     </g>
     <g id="line2d_2">
      <defs>
       <path id="mfaa61df838" d="M 0 0 
L 0 3.5 
" style="stroke: #000000; stroke-width: 0.8"/>
      </defs>
      <g>
       <use xlink:href="#mfaa61df838" x="92.974375" y="331.120625" style="stroke: #000000; stroke-width: 0.8"/>
      </g>
     </g>
     <g id="text_1">
      <!-- 0 -->
      <g transform="translate(85.975625 354.837188)scale(0.22 -0.22)">
       <defs>
        <path id="DejaVuSans-30" d="M 2034 4250 
Q 1547 4250 1301 3770 
Q 1056 3291 1056 2328 
Q 1056 1369 1301 889 
Q 1547 409 2034 409 
Q 2525 409 2770 889 
Q 3016 1369 3016 2328 
Q 3016 3291 2770 3770 
Q 2525 4250 2034 4250 
z
M 2034 4750 
Q 2819 4750 3233 4129 
Q 3647 3509 3647 2328 
Q 3647 1150 3233 529 
Q 2819 -91 2034 -91 
Q 1250 -91 836 529 
Q 422 1150 422 2328 
Q 422 3509 836 4129 
Q 1250 4750 2034 4750 
z
" transform="scale(0.015625)"/>
       </defs>
       <use xlink:href="#DejaVuSans-30"/>
      </g>
     </g>
    </g>
    <g id="xtick_2">
     <g id="line2d_3">
      <path d="M 221.259145 331.120625 
L 221.259145 23.76 
" clip-path="url(#p29282b20c5)" style="fill: none; stroke: #b0b0b0; stroke-width: 0.8; stroke-linecap: square"/>
     </g>
     <g id="line2d_4">
      <g>
       <use xlink:href="#mfaa61df838" x="221.259145" y="331.120625" style="stroke: #000000; stroke-width: 0.8"/>
      </g>
     </g>
     <g id="text_2">
      <!-- 5000 -->
      <g transform="translate(193.264145 354.837188)scale(0.22 -0.22)">
       <defs>
        <path id="DejaVuSans-35" d="M 691 4666 
L 3169 4666 
L 3169 4134 
L 1269 4134 
L 1269 2991 
Q 1406 3038 1543 3061 
Q 1681 3084 1819 3084 
Q 2600 3084 3056 2656 
Q 3513 2228 3513 1497 
Q 3513 744 3044 326 
Q 2575 -91 1722 -91 
Q 1428 -91 1123 -41 
Q 819 9 494 109 
L 494 744 
Q 775 591 1075 516 
Q 1375 441 1709 441 
Q 2250 441 2565 725 
Q 2881 1009 2881 1497 
Q 2881 1984 2565 2268 
Q 2250 2553 1709 2553 
Q 1456 2553 1204 2497 
Q 953 2441 691 2322 
L 691 4666 
z
" transform="scale(0.015625)"/>
       </defs>
       <use xlink:href="#DejaVuSans-35"/>
       <use xlink:href="#DejaVuSans-30" x="63.623047"/>
       <use xlink:href="#DejaVuSans-30" x="127.246094"/>
       <use xlink:href="#DejaVuSans-30" x="190.869141"/>
      </g>
     </g>
    </g>
    <g id="xtick_3">
     <g id="line2d_5">
      <path d="M 349.543916 331.120625 
L 349.543916 23.76 
" clip-path="url(#p29282b20c5)" style="fill: none; stroke: #b0b0b0; stroke-width: 0.8; stroke-linecap: square"/>
     </g>
     <g id="line2d_6">
      <g>
       <use xlink:href="#mfaa61df838" x="349.543916" y="331.120625" style="stroke: #000000; stroke-width: 0.8"/>
      </g>
     </g>
     <g id="text_3">
      <!-- 10000 -->
      <g transform="translate(314.550166 354.837188)scale(0.22 -0.22)">
       <defs>
        <path id="DejaVuSans-31" d="M 794 531 
L 1825 531 
L 1825 4091 
L 703 3866 
L 703 4441 
L 1819 4666 
L 2450 4666 
L 2450 531 
L 3481 531 
L 3481 0 
L 794 0 
L 794 531 
z
" transform="scale(0.015625)"/>
       </defs>
       <use xlink:href="#DejaVuSans-31"/>
       <use xlink:href="#DejaVuSans-30" x="63.623047"/>
       <use xlink:href="#DejaVuSans-30" x="127.246094"/>
       <use xlink:href="#DejaVuSans-30" x="190.869141"/>
       <use xlink:href="#DejaVuSans-30" x="254.492188"/>
      </g>
     </g>
    </g>
    <g id="xtick_4">
     <g id="line2d_7">
      <path d="M 477.828686 331.120625 
L 477.828686 23.76 
" clip-path="url(#p29282b20c5)" style="fill: none; stroke: #b0b0b0; stroke-width: 0.8; stroke-linecap: square"/>
     </g>
     <g id="line2d_8">
      <g>
       <use xlink:href="#mfaa61df838" x="477.828686" y="331.120625" style="stroke: #000000; stroke-width: 0.8"/>
      </g>
     </g>
     <g id="text_4">
      <!-- 15000 -->
      <g transform="translate(442.834936 354.837188)scale(0.22 -0.22)">
       <use xlink:href="#DejaVuSans-31"/>
       <use xlink:href="#DejaVuSans-35" x="63.623047"/>
       <use xlink:href="#DejaVuSans-30" x="127.246094"/>
       <use xlink:href="#DejaVuSans-30" x="190.869141"/>
       <use xlink:href="#DejaVuSans-30" x="254.492188"/>
      </g>
     </g>
    </g>
    <g id="xtick_5">
     <g id="line2d_9">
      <path d="M 606.113456 331.120625 
L 606.113456 23.76 
" clip-path="url(#p29282b20c5)" style="fill: none; stroke: #b0b0b0; stroke-width: 0.8; stroke-linecap: square"/>
     </g>
     <g id="line2d_10">
      <g>
       <use xlink:href="#mfaa61df838" x="606.113456" y="331.120625" style="stroke: #000000; stroke-width: 0.8"/>
      </g>
     </g>
     <g id="text_5">
      <!-- 20000 -->
      <g transform="translate(571.119706 354.837188)scale(0.22 -0.22)">
       <defs>
        <path id="DejaVuSans-32" d="M 1228 531 
L 3431 531 
L 3431 0 
L 469 0 
L 469 531 
Q 828 903 1448 1529 
Q 2069 2156 2228 2338 
Q 2531 2678 2651 2914 
Q 2772 3150 2772 3378 
Q 2772 3750 2511 3984 
Q 2250 4219 1831 4219 
Q 1534 4219 1204 4116 
Q 875 4013 500 3803 
L 500 4441 
Q 881 4594 1212 4672 
Q 1544 4750 1819 4750 
Q 2544 4750 2975 4387 
Q 3406 4025 3406 3419 
Q 3406 3131 3298 2873 
Q 3191 2616 2906 2266 
Q 2828 2175 2409 1742 
Q 1991 1309 1228 531 
z
" transform="scale(0.015625)"/>
       </defs>
       <use xlink:href="#DejaVuSans-32"/>
       <use xlink:href="#DejaVuSans-30" x="63.623047"/>
       <use xlink:href="#DejaVuSans-30" x="127.246094"/>
       <use xlink:href="#DejaVuSans-30" x="190.869141"/>
       <use xlink:href="#DejaVuSans-30" x="254.492188"/>
      </g>
     </g>
    </g>
    <g id="xtick_6">
     <g id="line2d_11">
      <path d="M 734.398226 331.120625 
L 734.398226 23.76 
" clip-path="url(#p29282b20c5)" style="fill: none; stroke: #b0b0b0; stroke-width: 0.8; stroke-linecap: square"/>
     </g>
     <g id="line2d_12">
      <g>
       <use xlink:href="#mfaa61df838" x="734.398226" y="331.120625" style="stroke: #000000; stroke-width: 0.8"/>
      </g>
     </g>
     <g id="text_6">
      <!-- 25000 -->
      <g transform="translate(699.404476 354.837188)scale(0.22 -0.22)">
       <use xlink:href="#DejaVuSans-32"/>
       <use xlink:href="#DejaVuSans-35" x="63.623047"/>
       <use xlink:href="#DejaVuSans-30" x="127.246094"/>
       <use xlink:href="#DejaVuSans-30" x="190.869141"/>
       <use xlink:href="#DejaVuSans-30" x="254.492188"/>
      </g>
     </g>
    </g>
    <g id="xtick_7">
     <g id="line2d_13">
      <path d="M 862.682997 331.120625 
L 862.682997 23.76 
" clip-path="url(#p29282b20c5)" style="fill: none; stroke: #b0b0b0; stroke-width: 0.8; stroke-linecap: square"/>
     </g>
     <g id="line2d_14">
      <g>
       <use xlink:href="#mfaa61df838" x="862.682997" y="331.120625" style="stroke: #000000; stroke-width: 0.8"/>
      </g>
     </g>
     <g id="text_7">
      <!-- 30000 -->
      <g transform="translate(827.689247 354.837188)scale(0.22 -0.22)">
       <defs>
        <path id="DejaVuSans-33" d="M 2597 2516 
Q 3050 2419 3304 2112 
Q 3559 1806 3559 1356 
Q 3559 666 3084 287 
Q 2609 -91 1734 -91 
Q 1441 -91 1130 -33 
Q 819 25 488 141 
L 488 750 
Q 750 597 1062 519 
Q 1375 441 1716 441 
Q 2309 441 2620 675 
Q 2931 909 2931 1356 
Q 2931 1769 2642 2001 
Q 2353 2234 1838 2234 
L 1294 2234 
L 1294 2753 
L 1863 2753 
Q 2328 2753 2575 2939 
Q 2822 3125 2822 3475 
Q 2822 3834 2567 4026 
Q 2313 4219 1838 4219 
Q 1578 4219 1281 4162 
Q 984 4106 628 3988 
L 628 4550 
Q 988 4650 1302 4700 
Q 1616 4750 1894 4750 
Q 2613 4750 3031 4423 
Q 3450 4097 3450 3541 
Q 3450 3153 3228 2886 
Q 3006 2619 2597 2516 
z
" transform="scale(0.015625)"/>
       </defs>
       <use xlink:href="#DejaVuSans-33"/>
       <use xlink:href="#DejaVuSans-30" x="63.623047"/>
       <use xlink:href="#DejaVuSans-30" x="127.246094"/>
       <use xlink:href="#DejaVuSans-30" x="190.869141"/>
       <use xlink:href="#DejaVuSans-30" x="254.492188"/>
      </g>
     </g>
    </g>
    <g id="text_8">
     <!-- RTT (ms) -->
     <g transform="translate(439.936745 381.64875)scale(0.24 -0.24)">
      <defs>
       <path id="DejaVuSans-52" d="M 2841 2188 
Q 3044 2119 3236 1894 
Q 3428 1669 3622 1275 
L 4263 0 
L 3584 0 
L 2988 1197 
Q 2756 1666 2539 1819 
Q 2322 1972 1947 1972 
L 1259 1972 
L 1259 0 
L 628 0 
L 628 4666 
L 2053 4666 
Q 2853 4666 3247 4331 
Q 3641 3997 3641 3322 
Q 3641 2881 3436 2590 
Q 3231 2300 2841 2188 
z
M 1259 4147 
L 1259 2491 
L 2053 2491 
Q 2509 2491 2742 2702 
Q 2975 2913 2975 3322 
Q 2975 3731 2742 3939 
Q 2509 4147 2053 4147 
L 1259 4147 
z
" transform="scale(0.015625)"/>
       <path id="DejaVuSans-54" d="M -19 4666 
L 3928 4666 
L 3928 4134 
L 2272 4134 
L 2272 0 
L 1638 0 
L 1638 4134 
L -19 4134 
L -19 4666 
z
" transform="scale(0.015625)"/>
       <path id="DejaVuSans-20" transform="scale(0.015625)"/>
       <path id="DejaVuSans-28" d="M 1984 4856 
Q 1566 4138 1362 3434 
Q 1159 2731 1159 2009 
Q 1159 1288 1364 580 
Q 1569 -128 1984 -844 
L 1484 -844 
Q 1016 -109 783 600 
Q 550 1309 550 2009 
Q 550 2706 781 3412 
Q 1013 4119 1484 4856 
L 1984 4856 
z
" transform="scale(0.015625)"/>
       <path id="DejaVuSans-6d" d="M 3328 2828 
Q 3544 3216 3844 3400 
Q 4144 3584 4550 3584 
Q 5097 3584 5394 3201 
Q 5691 2819 5691 2113 
L 5691 0 
L 5113 0 
L 5113 2094 
Q 5113 2597 4934 2840 
Q 4756 3084 4391 3084 
Q 3944 3084 3684 2787 
Q 3425 2491 3425 1978 
L 3425 0 
L 2847 0 
L 2847 2094 
Q 2847 2600 2669 2842 
Q 2491 3084 2119 3084 
Q 1678 3084 1418 2786 
Q 1159 2488 1159 1978 
L 1159 0 
L 581 0 
L 581 3500 
L 1159 3500 
L 1159 2956 
Q 1356 3278 1631 3431 
Q 1906 3584 2284 3584 
Q 2666 3584 2933 3390 
Q 3200 3197 3328 2828 
z
" transform="scale(0.015625)"/>
       <path id="DejaVuSans-73" d="M 2834 3397 
L 2834 2853 
Q 2591 2978 2328 3040 
Q 2066 3103 1784 3103 
Q 1356 3103 1142 2972 
Q 928 2841 928 2578 
Q 928 2378 1081 2264 
Q 1234 2150 1697 2047 
L 1894 2003 
Q 2506 1872 2764 1633 
Q 3022 1394 3022 966 
Q 3022 478 2636 193 
Q 2250 -91 1575 -91 
Q 1294 -91 989 -36 
Q 684 19 347 128 
L 347 722 
Q 666 556 975 473 
Q 1284 391 1588 391 
Q 1994 391 2212 530 
Q 2431 669 2431 922 
Q 2431 1156 2273 1281 
Q 2116 1406 1581 1522 
L 1381 1569 
Q 847 1681 609 1914 
Q 372 2147 372 2553 
Q 372 3047 722 3315 
Q 1072 3584 1716 3584 
Q 2034 3584 2315 3537 
Q 2597 3491 2834 3397 
z
" transform="scale(0.015625)"/>
       <path id="DejaVuSans-29" d="M 513 4856 
L 1013 4856 
Q 1481 4119 1714 3412 
Q 1947 2706 1947 2009 
Q 1947 1309 1714 600 
Q 1481 -109 1013 -844 
L 513 -844 
Q 928 -128 1133 580 
Q 1338 1288 1338 2009 
Q 1338 2731 1133 3434 
Q 928 4138 513 4856 
z
" transform="scale(0.015625)"/>
      </defs>
      <use xlink:href="#DejaVuSans-52"/>
      <use xlink:href="#DejaVuSans-54" x="62.232422"/>
      <use xlink:href="#DejaVuSans-54" x="121.566406"/>
      <use xlink:href="#DejaVuSans-20" x="182.650391"/>
      <use xlink:href="#DejaVuSans-28" x="214.4375"/>
      <use xlink:href="#DejaVuSans-6d" x="253.451172"/>
      <use xlink:href="#DejaVuSans-73" x="350.863281"/>
      <use xlink:href="#DejaVuSans-29" x="402.962891"/>
     </g>
    </g>
   </g>
   <g id="matplotlib.axis_2">
    <g id="ytick_1">
     <g id="line2d_15">
      <path d="M 92.974375 317.149688 
L 892.967865 317.149688 
" clip-path="url(#p29282b20c5)" style="fill: none; stroke: #b0b0b0; stroke-width: 0.8; stroke-linecap: square"/>
     </g>
     <g id="line2d_16">
      <defs>
       <path id="m0f897deb54" d="M 0 0 
L -3.5 0 
" style="stroke: #000000; stroke-width: 0.8"/>
      </defs>
      <g>
       <use xlink:href="#m0f897deb54" x="92.974375" y="317.149688" style="stroke: #000000; stroke-width: 0.8"/>
      </g>
     </g>
     <g id="text_9">
      <!-- 0.0 -->
      <g transform="translate(50.9875 325.507969)scale(0.22 -0.22)">
       <defs>
        <path id="DejaVuSans-2e" d="M 684 794 
L 1344 794 
L 1344 0 
L 684 0 
L 684 794 
z
" transform="scale(0.015625)"/>
       </defs>
       <use xlink:href="#DejaVuSans-30"/>
       <use xlink:href="#DejaVuSans-2e" x="63.623047"/>
       <use xlink:href="#DejaVuSans-30" x="95.410156"/>
      </g>
     </g>
    </g>
    <g id="ytick_2">
     <g id="line2d_17">
      <path d="M 92.974375 261.265938 
L 892.967865 261.265938 
" clip-path="url(#p29282b20c5)" style="fill: none; stroke: #b0b0b0; stroke-width: 0.8; stroke-linecap: square"/>
     </g>
     <g id="line2d_18">
      <g>
       <use xlink:href="#m0f897deb54" x="92.974375" y="261.265938" style="stroke: #000000; stroke-width: 0.8"/>
      </g>
     </g>
     <g id="text_10">
      <!-- 0.2 -->
      <g transform="translate(50.9875 269.624219)scale(0.22 -0.22)">
       <use xlink:href="#DejaVuSans-30"/>
       <use xlink:href="#DejaVuSans-2e" x="63.623047"/>
       <use xlink:href="#DejaVuSans-32" x="95.410156"/>
      </g>
     </g>
    </g>
    <g id="ytick_3">
     <g id="line2d_19">
      <path d="M 92.974375 205.382188 
L 892.967865 205.382188 
" clip-path="url(#p29282b20c5)" style="fill: none; stroke: #b0b0b0; stroke-width: 0.8; stroke-linecap: square"/>
     </g>
     <g id="line2d_20">
      <g>
       <use xlink:href="#m0f897deb54" x="92.974375" y="205.382188" style="stroke: #000000; stroke-width: 0.8"/>
      </g>
     </g>
     <g id="text_11">
      <!-- 0.4 -->
      <g transform="translate(50.9875 213.740469)scale(0.22 -0.22)">
       <defs>
        <path id="DejaVuSans-34" d="M 2419 4116 
L 825 1625 
L 2419 1625 
L 2419 4116 
z
M 2253 4666 
L 3047 4666 
L 3047 1625 
L 3713 1625 
L 3713 1100 
L 3047 1100 
L 3047 0 
L 2419 0 
L 2419 1100 
L 313 1100 
L 313 1709 
L 2253 4666 
z
" transform="scale(0.015625)"/>
       </defs>
       <use xlink:href="#DejaVuSans-30"/>
       <use xlink:href="#DejaVuSans-2e" x="63.623047"/>
       <use xlink:href="#DejaVuSans-34" x="95.410156"/>
      </g>
     </g>
    </g>
    <g id="ytick_4">
     <g id="line2d_21">
      <path d="M 92.974375 149.498438 
L 892.967865 149.498438 
" clip-path="url(#p29282b20c5)" style="fill: none; stroke: #b0b0b0; stroke-width: 0.8; stroke-linecap: square"/>
     </g>
     <g id="line2d_22">
      <g>
       <use xlink:href="#m0f897deb54" x="92.974375" y="149.498438" style="stroke: #000000; stroke-width: 0.8"/>
      </g>
     </g>
     <g id="text_12">
      <!-- 0.6 -->
      <g transform="translate(50.9875 157.856719)scale(0.22 -0.22)">
       <defs>
        <path id="DejaVuSans-36" d="M 2113 2584 
Q 1688 2584 1439 2293 
Q 1191 2003 1191 1497 
Q 1191 994 1439 701 
Q 1688 409 2113 409 
Q 2538 409 2786 701 
Q 3034 994 3034 1497 
Q 3034 2003 2786 2293 
Q 2538 2584 2113 2584 
z
M 3366 4563 
L 3366 3988 
Q 3128 4100 2886 4159 
Q 2644 4219 2406 4219 
Q 1781 4219 1451 3797 
Q 1122 3375 1075 2522 
Q 1259 2794 1537 2939 
Q 1816 3084 2150 3084 
Q 2853 3084 3261 2657 
Q 3669 2231 3669 1497 
Q 3669 778 3244 343 
Q 2819 -91 2113 -91 
Q 1303 -91 875 529 
Q 447 1150 447 2328 
Q 447 3434 972 4092 
Q 1497 4750 2381 4750 
Q 2619 4750 2861 4703 
Q 3103 4656 3366 4563 
z
" transform="scale(0.015625)"/>
       </defs>
       <use xlink:href="#DejaVuSans-30"/>
       <use xlink:href="#DejaVuSans-2e" x="63.623047"/>
       <use xlink:href="#DejaVuSans-36" x="95.410156"/>
      </g>
     </g>
    </g>
    <g id="ytick_5">
     <g id="line2d_23">
      <path d="M 92.974375 93.614688 
L 892.967865 93.614688 
" clip-path="url(#p29282b20c5)" style="fill: none; stroke: #b0b0b0; stroke-width: 0.8; stroke-linecap: square"/>
     </g>
     <g id="line2d_24">
      <g>
       <use xlink:href="#m0f897deb54" x="92.974375" y="93.614688" style="stroke: #000000; stroke-width: 0.8"/>
      </g>
     </g>
     <g id="text_13">
      <!-- 0.8 -->
      <g transform="translate(50.9875 101.972969)scale(0.22 -0.22)">
       <defs>
        <path id="DejaVuSans-38" d="M 2034 2216 
Q 1584 2216 1326 1975 
Q 1069 1734 1069 1313 
Q 1069 891 1326 650 
Q 1584 409 2034 409 
Q 2484 409 2743 651 
Q 3003 894 3003 1313 
Q 3003 1734 2745 1975 
Q 2488 2216 2034 2216 
z
M 1403 2484 
Q 997 2584 770 2862 
Q 544 3141 544 3541 
Q 544 4100 942 4425 
Q 1341 4750 2034 4750 
Q 2731 4750 3128 4425 
Q 3525 4100 3525 3541 
Q 3525 3141 3298 2862 
Q 3072 2584 2669 2484 
Q 3125 2378 3379 2068 
Q 3634 1759 3634 1313 
Q 3634 634 3220 271 
Q 2806 -91 2034 -91 
Q 1263 -91 848 271 
Q 434 634 434 1313 
Q 434 1759 690 2068 
Q 947 2378 1403 2484 
z
M 1172 3481 
Q 1172 3119 1398 2916 
Q 1625 2713 2034 2713 
Q 2441 2713 2670 2916 
Q 2900 3119 2900 3481 
Q 2900 3844 2670 4047 
Q 2441 4250 2034 4250 
Q 1625 4250 1398 4047 
Q 1172 3844 1172 3481 
z
" transform="scale(0.015625)"/>
       </defs>
       <use xlink:href="#DejaVuSans-30"/>
       <use xlink:href="#DejaVuSans-2e" x="63.623047"/>
       <use xlink:href="#DejaVuSans-38" x="95.410156"/>
      </g>
     </g>
    </g>
    <g id="ytick_6">
     <g id="line2d_25">
      <path d="M 92.974375 37.730937 
L 892.967865 37.730937 
" clip-path="url(#p29282b20c5)" style="fill: none; stroke: #b0b0b0; stroke-width: 0.8; stroke-linecap: square"/>
     </g>
     <g id="line2d_26">
      <g>
       <use xlink:href="#m0f897deb54" x="92.974375" y="37.730937" style="stroke: #000000; stroke-width: 0.8"/>
      </g>
     </g>
     <g id="text_14">
      <!-- 1.0 -->
      <g transform="translate(50.9875 46.089219)scale(0.22 -0.22)">
       <use xlink:href="#DejaVuSans-31"/>
       <use xlink:href="#DejaVuSans-2e" x="63.623047"/>
       <use xlink:href="#DejaVuSans-30" x="95.410156"/>
      </g>
     </g>
    </g>
    <g id="text_15">
     <!-- Likelihood of occurrence -->
     <g transform="translate(41.99625 323.628438)rotate(-90)scale(0.24 -0.24)">
      <defs>
       <path id="DejaVuSans-4c" d="M 628 4666 
L 1259 4666 
L 1259 531 
L 3531 531 
L 3531 0 
L 628 0 
L 628 4666 
z
" transform="scale(0.015625)"/>
       <path id="DejaVuSans-69" d="M 603 3500 
L 1178 3500 
L 1178 0 
L 603 0 
L 603 3500 
z
M 603 4863 
L 1178 4863 
L 1178 4134 
L 603 4134 
L 603 4863 
z
" transform="scale(0.015625)"/>
       <path id="DejaVuSans-6b" d="M 581 4863 
L 1159 4863 
L 1159 1991 
L 2875 3500 
L 3609 3500 
L 1753 1863 
L 3688 0 
L 2938 0 
L 1159 1709 
L 1159 0 
L 581 0 
L 581 4863 
z
" transform="scale(0.015625)"/>
       <path id="DejaVuSans-65" d="M 3597 1894 
L 3597 1613 
L 953 1613 
Q 991 1019 1311 708 
Q 1631 397 2203 397 
Q 2534 397 2845 478 
Q 3156 559 3463 722 
L 3463 178 
Q 3153 47 2828 -22 
Q 2503 -91 2169 -91 
Q 1331 -91 842 396 
Q 353 884 353 1716 
Q 353 2575 817 3079 
Q 1281 3584 2069 3584 
Q 2775 3584 3186 3129 
Q 3597 2675 3597 1894 
z
M 3022 2063 
Q 3016 2534 2758 2815 
Q 2500 3097 2075 3097 
Q 1594 3097 1305 2825 
Q 1016 2553 972 2059 
L 3022 2063 
z
" transform="scale(0.015625)"/>
       <path id="DejaVuSans-6c" d="M 603 4863 
L 1178 4863 
L 1178 0 
L 603 0 
L 603 4863 
z
" transform="scale(0.015625)"/>
       <path id="DejaVuSans-68" d="M 3513 2113 
L 3513 0 
L 2938 0 
L 2938 2094 
Q 2938 2591 2744 2837 
Q 2550 3084 2163 3084 
Q 1697 3084 1428 2787 
Q 1159 2491 1159 1978 
L 1159 0 
L 581 0 
L 581 4863 
L 1159 4863 
L 1159 2956 
Q 1366 3272 1645 3428 
Q 1925 3584 2291 3584 
Q 2894 3584 3203 3211 
Q 3513 2838 3513 2113 
z
" transform="scale(0.015625)"/>
       <path id="DejaVuSans-6f" d="M 1959 3097 
Q 1497 3097 1228 2736 
Q 959 2375 959 1747 
Q 959 1119 1226 758 
Q 1494 397 1959 397 
Q 2419 397 2687 759 
Q 2956 1122 2956 1747 
Q 2956 2369 2687 2733 
Q 2419 3097 1959 3097 
z
M 1959 3584 
Q 2709 3584 3137 3096 
Q 3566 2609 3566 1747 
Q 3566 888 3137 398 
Q 2709 -91 1959 -91 
Q 1206 -91 779 398 
Q 353 888 353 1747 
Q 353 2609 779 3096 
Q 1206 3584 1959 3584 
z
" transform="scale(0.015625)"/>
       <path id="DejaVuSans-64" d="M 2906 2969 
L 2906 4863 
L 3481 4863 
L 3481 0 
L 2906 0 
L 2906 525 
Q 2725 213 2448 61 
Q 2172 -91 1784 -91 
Q 1150 -91 751 415 
Q 353 922 353 1747 
Q 353 2572 751 3078 
Q 1150 3584 1784 3584 
Q 2172 3584 2448 3432 
Q 2725 3281 2906 2969 
z
M 947 1747 
Q 947 1113 1208 752 
Q 1469 391 1925 391 
Q 2381 391 2643 752 
Q 2906 1113 2906 1747 
Q 2906 2381 2643 2742 
Q 2381 3103 1925 3103 
Q 1469 3103 1208 2742 
Q 947 2381 947 1747 
z
" transform="scale(0.015625)"/>
       <path id="DejaVuSans-66" d="M 2375 4863 
L 2375 4384 
L 1825 4384 
Q 1516 4384 1395 4259 
Q 1275 4134 1275 3809 
L 1275 3500 
L 2222 3500 
L 2222 3053 
L 1275 3053 
L 1275 0 
L 697 0 
L 697 3053 
L 147 3053 
L 147 3500 
L 697 3500 
L 697 3744 
Q 697 4328 969 4595 
Q 1241 4863 1831 4863 
L 2375 4863 
z
" transform="scale(0.015625)"/>
       <path id="DejaVuSans-63" d="M 3122 3366 
L 3122 2828 
Q 2878 2963 2633 3030 
Q 2388 3097 2138 3097 
Q 1578 3097 1268 2742 
Q 959 2388 959 1747 
Q 959 1106 1268 751 
Q 1578 397 2138 397 
Q 2388 397 2633 464 
Q 2878 531 3122 666 
L 3122 134 
Q 2881 22 2623 -34 
Q 2366 -91 2075 -91 
Q 1284 -91 818 406 
Q 353 903 353 1747 
Q 353 2603 823 3093 
Q 1294 3584 2113 3584 
Q 2378 3584 2631 3529 
Q 2884 3475 3122 3366 
z
" transform="scale(0.015625)"/>
       <path id="DejaVuSans-75" d="M 544 1381 
L 544 3500 
L 1119 3500 
L 1119 1403 
Q 1119 906 1312 657 
Q 1506 409 1894 409 
Q 2359 409 2629 706 
Q 2900 1003 2900 1516 
L 2900 3500 
L 3475 3500 
L 3475 0 
L 2900 0 
L 2900 538 
Q 2691 219 2414 64 
Q 2138 -91 1772 -91 
Q 1169 -91 856 284 
Q 544 659 544 1381 
z
M 1991 3584 
L 1991 3584 
z
" transform="scale(0.015625)"/>
       <path id="DejaVuSans-72" d="M 2631 2963 
Q 2534 3019 2420 3045 
Q 2306 3072 2169 3072 
Q 1681 3072 1420 2755 
Q 1159 2438 1159 1844 
L 1159 0 
L 581 0 
L 581 3500 
L 1159 3500 
L 1159 2956 
Q 1341 3275 1631 3429 
Q 1922 3584 2338 3584 
Q 2397 3584 2469 3576 
Q 2541 3569 2628 3553 
L 2631 2963 
z
" transform="scale(0.015625)"/>
       <path id="DejaVuSans-6e" d="M 3513 2113 
L 3513 0 
L 2938 0 
L 2938 2094 
Q 2938 2591 2744 2837 
Q 2550 3084 2163 3084 
Q 1697 3084 1428 2787 
Q 1159 2491 1159 1978 
L 1159 0 
L 581 0 
L 581 3500 
L 1159 3500 
L 1159 2956 
Q 1366 3272 1645 3428 
Q 1925 3584 2291 3584 
Q 2894 3584 3203 3211 
Q 3513 2838 3513 2113 
z
" transform="scale(0.015625)"/>
      </defs>
      <use xlink:href="#DejaVuSans-4c"/>
      <use xlink:href="#DejaVuSans-69" x="55.712891"/>
      <use xlink:href="#DejaVuSans-6b" x="83.496094"/>
      <use xlink:href="#DejaVuSans-65" x="137.78125"/>
      <use xlink:href="#DejaVuSans-6c" x="199.304688"/>
      <use xlink:href="#DejaVuSans-69" x="227.087891"/>
      <use xlink:href="#DejaVuSans-68" x="254.871094"/>
      <use xlink:href="#DejaVuSans-6f" x="318.25"/>
      <use xlink:href="#DejaVuSans-6f" x="379.431641"/>
      <use xlink:href="#DejaVuSans-64" x="440.613281"/>
      <use xlink:href="#DejaVuSans-20" x="504.089844"/>
      <use xlink:href="#DejaVuSans-6f" x="535.876953"/>
      <use xlink:href="#DejaVuSans-66" x="597.058594"/>
      <use xlink:href="#DejaVuSans-20" x="632.263672"/>
      <use xlink:href="#DejaVuSans-6f" x="664.050781"/>
      <use xlink:href="#DejaVuSans-63" x="725.232422"/>
      <use xlink:href="#DejaVuSans-63" x="780.212891"/>
      <use xlink:href="#DejaVuSans-75" x="835.193359"/>
      <use xlink:href="#DejaVuSans-72" x="898.572266"/>
      <use xlink:href="#DejaVuSans-72" x="937.935547"/>
      <use xlink:href="#DejaVuSans-65" x="976.798828"/>
      <use xlink:href="#DejaVuSans-6e" x="1038.322266"/>
      <use xlink:href="#DejaVuSans-63" x="1101.701172"/>
      <use xlink:href="#DejaVuSans-65" x="1156.681641"/>
     </g>
    </g>
   </g>
   <g id="line2d_27">
    <path d="M 92.974375 317.149688 
L 93.05359 317.149688 
L 93.212021 316.344268 
L 93.291236 315.848625 
L 93.370451 314.361696 
L 93.528881 309.776998 
L 93.924957 305.316211 
L 94.162603 303.209728 
L 94.400249 301.536933 
L 95.271616 295.465306 
L 95.667692 292.86318 
L 96.142983 291.128429 
L 96.380629 290.508875 
L 96.697489 289.517589 
L 96.935135 289.269768 
L 97.251996 288.278482 
L 97.568856 287.473062 
L 97.727287 287.287196 
L 98.123363 285.800267 
L 98.440224 284.561159 
L 98.8363 283.569873 
L 99.073945 283.136186 
L 99.628452 281.33948 
L 99.786882 281.091658 
L 100.024528 280.286238 
L 100.420604 279.480818 
L 100.895895 277.622157 
L 100.97511 277.560202 
L 101.291971 276.692826 
L 102.163338 275.887406 
L 102.400984 275.70154 
L 102.95549 275.391763 
L 103.034705 275.391763 
L 103.193136 275.020031 
L 103.430781 275.020031 
L 103.747642 274.462433 
L 103.906072 274.462433 
L 104.460579 273.780924 
L 104.93587 273.285281 
L 105.886452 269.877735 
L 106.124098 269.382092 
L 106.440959 268.514717 
L 106.678604 268.142984 
L 106.757819 268.142984 
L 107.153895 267.337564 
L 107.470756 266.841921 
L 107.787617 266.470189 
L 107.866832 266.470189 
L 108.104478 266.160412 
L 108.421339 266.098457 
L 108.975845 265.354992 
L 109.371921 265.293037 
L 109.847212 264.673483 
L 110.005643 264.611528 
L 110.084858 264.549572 
L 110.243288 264.17784 
L 110.322503 264.17784 
L 110.639364 263.806108 
L 110.718579 263.806108 
L 110.956225 263.496331 
L 111.19387 263.310465 
L 111.431516 262.876777 
L 111.669162 262.814822 
L 111.906807 262.133313 
L 112.065238 261.885491 
L 112.382098 261.018116 
L 112.461314 260.956161 
L 112.619744 260.646384 
L 113.01582 260.212696 
L 113.253466 259.902919 
L 113.570326 259.531187 
L 113.649542 259.531187 
L 113.807972 259.22141 
L 114.045618 259.159455 
L 114.83777 258.41599 
L 116.105213 256.247552 
L 116.263643 255.504087 
L 116.580504 255.442132 
L 116.897365 255.0704 
L 117.372656 254.079114 
L 117.531086 254.017158 
L 117.689517 253.769337 
L 118.244023 252.282408 
L 118.481669 251.476988 
L 118.640099 249.122684 
L 119.273821 247.078156 
L 119.828327 246.582513 
L 120.382833 245.467316 
L 120.541264 245.405361 
L 120.699694 245.219495 
L 120.858125 244.847763 
L 120.93734 244.847763 
L 121.254201 244.104298 
L 121.412631 244.042343 
L 122.363213 243.174967 
L 122.600859 242.679324 
L 122.680074 242.617369 
L 122.838505 242.307592 
L 123.07615 242.307592 
L 123.789087 241.316306 
L 123.947517 241.254351 
L 124.185163 241.006529 
L 124.343593 240.944574 
L 124.502024 240.634797 
L 124.660454 240.634797 
L 125.05653 240.139154 
L 125.135745 240.139154 
L 125.531821 239.705466 
L 125.690252 239.5196 
L 125.848682 239.271779 
L 126.244758 238.776136 
L 126.323973 238.776136 
L 126.561619 238.466359 
L 126.87848 238.156582 
L 126.957695 238.156582 
L 127.19534 237.90876 
L 127.274556 237.90876 
L 127.512201 237.537028 
L 127.987492 237.475073 
L 128.541999 237.165296 
L 128.85886 237.10334 
L 129.096505 236.917474 
L 129.254936 236.855519 
L 129.809442 236.297921 
L 130.047088 236.112054 
L 130.205518 236.050099 
L 130.363948 235.864233 
L 131.235316 235.120768 
L 131.393746 234.934902 
L 132.265113 234.377304 
L 132.502759 234.315349 
L 132.740404 233.819706 
L 133.294911 233.386018 
L 133.532556 232.95233 
L 133.849417 232.828419 
L 133.928632 232.828419 
L 134.166278 232.642553 
L 134.641569 232.394732 
L 134.720784 232.394732 
L 135.275291 231.651267 
L 135.512936 231.589312 
L 136.305088 230.969758 
L 136.542734 230.536071 
L 136.621949 230.536071 
L 136.780379 230.288249 
L 137.018025 230.226294 
L 137.572531 229.668695 
L 137.730962 229.544785 
L 137.889392 229.482829 
L 138.127038 229.049141 
L 138.285468 228.987186 
L 138.523114 228.615454 
L 138.760759 228.553498 
L 140.424278 227.19048 
L 140.582709 227.004614 
L 140.741139 227.004614 
L 140.978785 226.756793 
L 141.058 226.756793 
L 141.374861 226.447016 
L 142.721519 225.517685 
L 142.959165 225.45573 
L 143.355241 225.022042 
L 143.672102 224.712265 
L 144.068178 224.340533 
L 144.226608 224.154667 
L 144.464254 224.154667 
L 144.781114 223.84489 
L 144.86033 223.84489 
L 145.097975 223.597068 
L 145.335621 223.535113 
L 145.573266 223.225336 
L 147.316001 221.738407 
L 147.553646 221.42863 
L 147.712077 221.42863 
L 147.949722 221.242764 
L 148.187368 221.180809 
L 148.345798 221.056898 
L 148.425013 221.056898 
L 148.900305 220.437344 
L 148.97952 220.437344 
L 149.13795 220.251478 
L 149.454811 220.189523 
L 150.009317 219.446058 
L 150.326178 219.384103 
L 150.484609 219.260192 
L 150.563824 219.260192 
L 150.722254 218.950415 
L 150.880685 218.950415 
L 151.276761 218.516727 
L 152.227343 217.711308 
L 152.385773 217.463486 
L 152.702634 217.401531 
L 154.128508 216.410245 
L 154.445368 216.348289 
L 154.603799 216.224378 
L 154.683014 216.224378 
L 154.841444 216.100468 
L 155.07909 216.038512 
L 155.950457 215.480914 
L 156.029672 215.480914 
L 156.188103 215.171137 
L 156.821824 214.799405 
L 157.138685 214.737449 
L 157.534761 214.551583 
L 157.693192 214.489628 
L 158.406128 214.05594 
L 158.802204 213.993985 
L 158.960635 213.622253 
L 159.435926 213.374431 
L 159.594356 213.374431 
L 159.752787 213.064654 
L 160.069647 212.940743 
L 160.228078 212.940743 
L 160.465723 212.754877 
L 160.861799 212.569011 
L 161.02023 212.507056 
L 161.17866 212.32119 
L 161.257875 212.32119 
L 161.495521 211.887502 
L 161.812382 211.763591 
L 162.050027 211.701636 
L 162.208458 211.453814 
L 162.525319 211.391859 
L 162.683749 211.082082 
L 163.238255 210.772305 
L 163.555116 210.71035 
L 165.218635 209.533198 
L 165.297851 209.533198 
L 165.614711 209.161465 
L 165.693927 209.161465 
L 166.090003 208.727778 
L 166.169218 208.727778 
L 166.406863 208.541912 
L 166.486078 208.541912 
L 166.802939 208.170179 
L 167.040585 208.170179 
L 167.199015 208.046269 
L 167.515876 207.984313 
L 167.991167 207.426715 
L 168.228813 207.36476 
L 168.94175 206.931072 
L 169.179395 206.869117 
L 170.526054 205.939786 
L 170.763699 205.939786 
L 170.92213 205.75392 
L 172.506434 204.452857 
L 172.664864 204.266991 
L 173.140155 204.019169 
L 173.21937 204.019169 
L 173.377801 203.771348 
L 173.536231 203.709392 
L 173.932307 203.275705 
L 174.328383 203.089839 
L 174.407598 203.089839 
L 174.566029 202.903972 
L 174.724459 202.903972 
L 175.278965 202.222463 
L 175.516611 202.160508 
L 175.675041 202.098553 
L 176.229548 201.355088 
L 176.546409 201.355088 
L 176.784054 201.169222 
L 176.863269 201.169222 
L 177.0217 200.859445 
L 177.18013 200.79749 
L 177.496991 200.425757 
L 177.576206 200.425757 
L 177.813852 200.239891 
L 178.526789 199.620337 
L 178.685219 199.434471 
L 179.239725 199.124694 
L 179.398156 199.062739 
L 180.348738 198.443185 
L 180.665599 198.38123 
L 181.29932 198.009498 
L 181.536966 197.947542 
L 182.883624 197.018212 
L 183.12127 196.956256 
L 183.438131 196.832345 
L 183.675776 196.77039 
L 184.071852 196.584524 
L 184.230283 196.584524 
L 184.388713 196.212792 
L 185.022435 196.150836 
L 185.26008 195.779104 
L 185.814587 195.469327 
L 185.893802 195.469327 
L 186.052232 195.15955 
L 186.448308 195.097595 
L 187.08203 194.725863 
L 187.161245 194.725863 
L 187.398891 194.478041 
L 187.478106 194.478041 
L 187.794967 193.982398 
L 188.111827 193.920443 
L 188.745549 193.548711 
L 188.824764 193.548711 
L 188.983195 193.176978 
L 189.141625 193.176978 
L 189.379271 192.929157 
L 189.933777 192.867201 
L 190.012992 192.805246 
L 190.171423 192.495469 
L 190.488283 192.495469 
L 190.646714 192.185692 
L 190.805144 192.185692 
L 191.122005 191.81396 
L 191.438866 191.752005 
L 191.676511 191.566138 
L 191.834942 191.318317 
L 191.993372 191.256362 
L 192.310233 190.884629 
L 192.468663 190.822674 
L 193.1816 190.388986 
L 193.340031 190.327031 
L 193.656891 190.20312 
L 193.736107 190.20312 
L 194.211398 189.645522 
L 194.528258 189.583566 
L 195.241195 189.149879 
L 195.478841 189.087923 
L 195.874917 188.654236 
L 196.112562 188.406414 
L 196.429423 188.344459 
L 196.667069 188.096637 
L 197.063145 188.096637 
L 197.221575 187.848816 
L 197.459221 187.78686 
L 197.696866 187.539039 
L 197.855297 187.539039 
L 198.330588 186.981441 
L 198.489018 186.919485 
L 198.805879 186.609708 
L 198.96431 186.423842 
L 199.360386 186.237976 
L 199.518816 186.237976 
L 199.677246 185.990155 
L 199.756462 185.990155 
L 200.231753 185.432556 
L 200.390183 185.432556 
L 200.548614 185.308645 
L 200.707044 185.308645 
L 200.865474 185.122779 
L 201.023905 185.122779 
L 201.578411 184.379315 
L 201.974487 184.317359 
L 202.212133 184.007582 
L 202.291348 184.007582 
L 202.528993 183.573895 
L 202.845854 183.511939 
L 203.638006 182.892386 
L 203.796437 182.644564 
L 206.489753 180.661992 
L 206.965045 180.600037 
L 207.123475 180.476126 
L 207.20269 180.476126 
L 207.440336 180.29026 
L 207.915627 180.042438 
L 208.074057 179.980483 
L 208.232488 179.794617 
L 209.103855 179.237018 
L 209.3415 179.175063 
L 209.579146 179.113108 
L 209.896007 179.051152 
L 210.054437 178.927242 
L 210.292083 178.865286 
L 211.00502 178.431599 
L 211.242665 178.369643 
L 211.401096 178.183777 
L 211.559526 177.997911 
L 212.034817 177.750089 
L 212.114032 177.750089 
L 212.272463 177.440313 
L 212.589324 177.316402 
L 212.747754 177.316402 
L 212.906184 177.192491 
L 212.9854 177.192491 
L 213.223045 177.006625 
L 213.460691 176.944669 
L 213.698336 176.696848 
L 213.777552 176.696848 
L 213.935982 176.387071 
L 214.490488 176.077294 
L 214.569704 176.077294 
L 214.728134 175.829473 
L 215.12421 175.767517 
L 215.28264 175.395785 
L 215.441071 175.395785 
L 215.599501 175.147964 
L 216.233223 175.086008 
L 216.312438 175.024053 
L 216.470868 174.714276 
L 216.787729 174.652321 
L 217.025375 174.466454 
L 217.817527 173.970811 
L 217.896742 173.970811 
L 218.055172 173.599079 
L 218.213603 173.537124 
L 218.530463 173.165391 
L 218.768109 173.103436 
L 219.481046 172.669748 
L 219.639476 172.607793 
L 221.382211 171.368686 
L 221.699071 171.368686 
L 221.857502 171.244775 
L 222.015932 171.182819 
L 222.253578 170.811087 
L 222.332793 170.811087 
L 222.491223 170.687176 
L 222.649654 170.625221 
L 223.124945 170.3774 
L 223.283375 170.3774 
L 223.521021 170.129578 
L 223.679451 170.129578 
L 223.837882 169.881757 
L 224.154742 169.819801 
L 224.630034 169.200247 
L 224.946894 169.138292 
L 225.18454 168.704604 
L 225.34297 168.642649 
L 225.501401 168.518738 
L 225.818262 168.518738 
L 225.976692 168.270917 
L 226.135122 168.085051 
L 226.372768 167.775274 
L 226.610414 167.713318 
L 227.32335 167.279631 
L 227.402566 167.279631 
L 227.560996 166.907898 
L 227.798642 166.845943 
L 227.957072 166.660077 
L 228.273933 166.598122 
L 228.511578 166.226389 
L 228.590794 166.226389 
L 228.749224 165.854657 
L 229.1453 165.792702 
L 229.30373 165.668791 
L 229.382946 165.668791 
L 229.541376 165.420969 
L 231.046465 164.181862 
L 231.204895 163.93404 
L 231.442541 163.872085 
L 232.709984 163.00471 
L 233.10606 163.00471 
L 233.343705 162.818844 
L 233.502136 162.818844 
L 233.660566 162.632977 
L 234.056642 162.447111 
L 234.294288 162.385156 
L 235.403301 161.641691 
L 235.640946 161.579736 
L 235.878592 161.517781 
L 236.116237 161.455825 
L 236.670744 161.146048 
L 236.749959 161.146048 
L 236.908389 160.836271 
L 237.621326 160.774316 
L 237.779756 160.402584 
L 237.858972 160.402584 
L 238.017402 160.278673 
L 238.096617 160.278673 
L 238.255048 160.154762 
L 238.413478 160.154762 
L 238.571908 159.844985 
L 238.888769 159.721075 
L 239.0472 159.721075 
L 239.284845 159.473253 
L 239.601706 159.411298 
L 240.076997 159.101521 
L 240.235428 158.729789 
L 240.710719 158.481967 
L 240.869149 158.481967 
L 241.02758 158.234146 
L 241.423656 158.17219 
L 241.582086 157.800458 
L 241.661301 157.800458 
L 241.898947 157.552637 
L 242.374238 157.490681 
L 243.800111 156.499395 
L 243.958542 156.43744 
L 244.671479 155.817886 
L 244.829909 155.570064 
L 245.067555 155.508109 
L 246.018137 154.888555 
L 246.334998 154.8266 
L 246.572643 154.516823 
L 246.651859 154.516823 
L 246.810289 154.330957 
L 247.047935 154.269002 
L 247.760871 153.835314 
L 247.919302 153.835314 
L 248.077732 153.711403 
L 248.236163 153.711403 
L 248.473808 153.339671 
L 249.26596 152.844028 
L 249.582821 152.844028 
L 249.820467 152.596206 
L 249.978897 152.596206 
L 250.137327 152.41034 
L 250.374973 152.348385 
L 250.454188 152.348385 
L 250.612618 152.038608 
L 251.167125 151.728831 
L 251.24634 151.728831 
L 251.483986 151.295143 
L 251.563201 151.295143 
L 251.721631 151.109277 
L 252.038492 151.109277 
L 252.276138 150.7995 
L 252.355353 150.7995 
L 252.592998 150.427768 
L 253.06829 150.179947 
L 253.305935 150.117991 
L 253.464366 149.994081 
L 253.702011 149.932125 
L 253.860442 149.560393 
L 254.335733 149.312571 
L 254.494163 149.250616 
L 254.731809 149.002794 
L 254.811024 149.002794 
L 254.969454 148.631062 
L 255.36553 148.631062 
L 255.603176 148.445196 
L 255.682391 148.445196 
L 255.840822 148.135419 
L 255.999252 148.135419 
L 256.236898 147.701732 
L 256.474543 147.639776 
L 256.712189 147.45391 
L 256.870619 147.391955 
L 257.979632 146.64849 
L 258.138062 146.64849 
L 258.375708 146.338713 
L 258.454923 146.338713 
L 258.771784 146.028936 
L 259.32629 145.966981 
L 259.643151 145.84307 
L 259.722366 145.84307 
L 259.960012 145.657204 
L 260.197657 145.595249 
L 260.435303 145.533293 
L 261.544316 144.789829 
L 261.781961 144.727873 
L 262.098822 144.603963 
L 262.415683 144.542007 
L 262.574113 144.418097 
L 262.811759 144.356141 
L 263.445481 143.984409 
L 263.762341 143.922454 
L 263.920772 143.736587 
L 264.079202 143.550721 
L 264.554493 143.3029 
L 264.712924 143.3029 
L 264.871354 142.931168 
L 265.26743 142.869212 
L 266.218012 142.249658 
L 266.297228 142.249658 
L 266.614088 141.754015 
L 266.930949 141.69206 
L 267.564671 141.320328 
L 267.643886 141.320328 
L 267.802316 141.010551 
L 268.356823 140.700774 
L 268.752899 140.638819 
L 269.06976 140.267086 
L 269.307405 140.267086 
L 269.465836 140.019265 
L 269.624266 140.019265 
L 269.941127 139.647533 
L 270.099557 139.585577 
L 272.238367 138.036693 
L 272.555228 137.974737 
L 272.951304 137.479094 
L 273.268165 137.417139 
L 274.060317 136.921496 
L 274.218747 136.921496 
L 274.377178 136.797585 
L 274.535608 136.73563 
L 275.644621 135.992165 
L 275.882267 135.992165 
L 276.040697 135.806299 
L 276.595203 135.496522 
L 276.674419 135.496522 
L 276.912064 135.186745 
L 277.466571 134.876969 
L 277.545786 134.876969 
L 277.783431 134.443281 
L 277.862647 134.443281 
L 278.021077 134.257415 
L 278.337938 134.257415 
L 278.496368 133.885683 
L 278.654798 133.885683 
L 279.050874 133.451995 
L 279.209305 133.390039 
L 279.44695 133.328084 
L 279.526166 133.328084 
L 279.684596 133.142218 
L 279.922242 133.080263 
L 280.001457 133.018307 
L 280.159887 132.70853 
L 280.635178 132.460709 
L 280.793609 132.460709 
L 280.952039 132.274843 
L 281.11047 132.212887 
L 281.2689 131.841155 
L 281.664976 131.7792 
L 282.457128 131.159646 
L 282.615558 130.911824 
L 283.962217 129.982494 
L 284.120647 129.920538 
L 285.150445 129.239029 
L 285.625736 129.177074 
L 285.942597 129.053163 
L 286.021812 129.053163 
L 286.259457 128.867297 
L 286.497103 128.805342 
L 286.655533 128.743386 
L 287.21004 128.433609 
L 287.36847 128.371654 
L 288.239837 127.814056 
L 288.635913 127.7521 
L 288.952774 127.628189 
L 289.111205 127.566234 
L 289.824141 127.132546 
L 290.141002 127.070591 
L 290.378648 126.760814 
L 290.853939 126.512993 
L 290.933154 126.512993 
L 291.091585 126.203216 
L 291.408445 126.079305 
L 291.487661 126.079305 
L 291.646091 125.955394 
L 291.804521 125.955394 
L 292.042167 125.769528 
L 293.30961 124.902153 
L 293.388825 124.902153 
L 293.547256 124.654331 
L 293.943332 124.592376 
L 294.101762 124.220644 
L 294.260192 124.158688 
L 294.418623 123.972822 
L 294.735484 123.972822 
L 294.893914 123.848911 
L 295.052344 123.848911 
L 295.28999 123.477179 
L 295.606851 123.477179 
L 295.765281 123.229358 
L 295.923712 123.229358 
L 296.240572 122.857625 
L 296.399003 122.857625 
L 296.557433 122.733715 
L 296.715864 122.671759 
L 297.191155 122.238072 
L 297.349585 121.99025 
L 297.587231 121.928295 
L 298.300168 121.494607 
L 298.458598 121.432652 
L 298.775459 121.308741 
L 298.854674 121.308741 
L 299.09232 120.998964 
L 299.171535 120.998964 
L 299.329965 120.813098 
L 299.567611 120.751143 
L 300.280547 120.317455 
L 300.518193 120.317455 
L 300.676623 120.193544 
L 300.755839 120.193544 
L 301.072699 119.821812 
L 301.151915 119.821812 
L 301.38956 119.635946 
L 301.627206 119.57399 
L 301.864851 119.388124 
L 302.181712 119.388124 
L 302.340143 119.140303 
L 302.498573 119.140303 
L 302.736219 118.954437 
L 304.558168 117.653374 
L 304.637383 117.653374 
L 304.795814 117.343597 
L 304.875029 117.343597 
L 305.19189 116.971865 
L 305.35032 116.909909 
L 305.904827 116.600132 
L 306.142472 116.538177 
L 306.221687 116.476222 
L 306.380118 116.166445 
L 306.538548 116.104489 
L 306.934624 115.918623 
L 307.093054 115.918623 
L 307.251485 115.670802 
L 307.409915 115.608846 
L 307.568346 115.299069 
L 307.885206 115.299069 
L 308.122852 115.113203 
L 308.202067 115.113203 
L 308.360498 114.865382 
L 308.756574 114.61756 
L 308.915004 114.307783 
L 308.994219 114.307783 
L 309.15265 114.121917 
L 309.31108 114.059962 
L 310.261662 113.440408 
L 310.340878 113.440408 
L 310.499308 113.316497 
L 310.657738 113.254542 
L 311.053814 112.820854 
L 311.212245 112.820854 
L 311.370675 112.696944 
L 311.608321 112.634988 
L 312.004397 112.449122 
L 312.400473 112.387167 
L 312.717334 112.263256 
L 312.954979 112.201301 
L 313.509485 111.891524 
L 313.667916 111.829568 
L 313.905561 111.581747 
L 314.063992 111.519791 
L 314.380853 111.395881 
L 314.776929 111.333925 
L 315.173005 111.148059 
L 315.569081 111.086104 
L 315.727511 110.776327 
L 316.123587 110.714372 
L 316.361233 110.652416 
L 316.440448 110.652416 
L 316.598878 110.342639 
L 317.074169 110.094818 
L 317.2326 110.032862 
L 317.39103 109.846996 
L 317.866321 109.599175 
L 318.024752 109.537219 
L 318.183182 109.413309 
L 318.262397 109.413309 
L 318.500043 109.227442 
L 318.579258 109.227442 
L 318.816904 109.041576 
L 320.084347 108.174201 
L 320.242777 108.174201 
L 320.401208 107.92638 
L 320.559638 107.864424 
L 320.718068 107.678558 
L 321.35179 107.616603 
L 321.668651 107.12096 
L 321.827081 107.12096 
L 321.985512 106.997049 
L 322.143942 106.997049 
L 322.460803 106.687272 
L 322.936094 106.625317 
L 323.015309 106.563361 
L 323.17374 106.31554 
L 323.252955 106.31554 
L 323.649031 105.881852 
L 323.807461 105.881852 
L 324.045107 105.695986 
L 324.203537 105.634031 
L 325.074904 105.076432 
L 325.15412 105.076432 
L 325.391765 104.890566 
L 325.47098 104.890566 
L 325.629411 104.7047 
L 325.787841 104.7047 
L 326.025487 104.456878 
L 326.263132 104.394923 
L 326.500778 104.209057 
L 326.817639 104.147102 
L 326.976069 104.023191 
L 327.055284 104.023191 
L 327.372145 103.713414 
L 328.085082 103.279726 
L 328.401943 103.217771 
L 331.491335 100.925422 
L 331.728981 100.863467 
L 331.887411 100.6776 
L 332.204272 100.615645 
L 332.441918 100.305868 
L 332.758779 99.934136 
L 332.996424 99.872181 
L 333.154855 99.686314 
L 333.313285 99.686314 
L 333.471715 99.314582 
L 333.630146 99.314582 
L 333.788576 99.190671 
L 334.105437 99.128716 
L 334.263867 98.695028 
L 334.501513 98.633073 
L 335.768956 97.765698 
L 335.927386 97.765698 
L 336.085817 97.579832 
L 336.481893 97.393965 
L 336.561108 97.393965 
L 336.719538 97.270055 
L 336.877969 97.208099 
L 337.036399 96.960278 
L 337.432475 96.898322 
L 337.590906 96.774412 
L 338.224627 96.712456 
L 338.620703 96.52659 
L 338.858349 96.464635 
L 339.33364 96.216813 
L 339.412855 96.216813 
L 339.571286 96.092903 
L 339.808931 96.030947 
L 340.442653 95.659215 
L 340.680298 95.59726 
L 340.917944 95.411393 
L 341.15559 95.349438 
L 341.551665 95.287483 
L 342.106172 94.977706 
L 342.502248 94.91575 
L 342.819109 94.544018 
L 343.135969 94.544018 
L 343.45283 94.234241 
L 343.769691 94.110331 
L 344.007337 94.110331 
L 344.244982 93.924464 
L 344.324197 93.924464 
L 344.561843 93.738598 
L 344.641058 93.738598 
L 344.799489 93.614688 
L 344.878704 93.614688 
L 345.116349 93.428821 
L 346.066932 92.809268 
L 346.146147 92.809268 
L 346.383793 92.623401 
L 346.463008 92.623401 
L 346.779869 92.313625 
L 347.334375 92.251669 
L 347.572021 92.003848 
L 347.651236 92.003848 
L 347.888881 91.817982 
L 348.205742 91.756026 
L 348.681033 91.508205 
L 348.918679 91.446249 
L 349.156324 91.198428 
L 349.5524 91.198428 
L 349.948476 90.76474 
L 350.106907 90.702785 
L 350.978274 90.145186 
L 351.136704 90.083231 
L 351.691211 89.773454 
L 352.008072 89.711499 
L 352.800224 89.215856 
L 353.037869 89.215856 
L 353.1963 89.091945 
L 353.275515 89.091945 
L 353.592376 88.782168 
L 353.909236 88.720213 
L 354.146882 88.472391 
L 354.542958 88.410436 
L 354.939034 88.22457 
L 355.17668 88.162614 
L 355.731186 87.852837 
L 356.364907 87.790882 
L 356.602553 87.605016 
L 357.47392 87.543061 
L 357.632351 87.357194 
L 357.949211 87.295239 
L 358.345287 87.109373 
L 358.741363 87.047418 
L 359.216655 86.799596 
L 359.929591 86.737641 
L 360.088022 86.61373 
L 360.484098 86.61373 
L 360.642528 86.489819 
L 361.038604 86.427864 
L 361.197035 86.303953 
L 362.385263 86.241998 
L 362.622908 86.180042 
L 363.731921 86.118087 
L 363.969566 86.056132 
L 366.346022 85.994176 
L 366.662883 85.870265 
L 367.930326 85.80831 
L 368.326402 85.622444 
L 368.960124 85.560488 
L 369.118554 85.436578 
L 370.385997 85.374622 
L 370.782073 85.188756 
L 371.098934 85.126801 
L 371.33658 84.940935 
L 371.415795 84.940935 
L 371.653441 84.755069 
L 372.762453 84.693113 
L 373.000099 84.631158 
L 373.871466 84.631158 
L 374.029897 84.507247 
L 375.851846 84.445292 
L 376.168707 84.135515 
L 376.485568 84.011604 
L 376.802428 83.949649 
L 377.040074 83.887693 
L 378.307517 83.825738 
L 378.703593 83.639872 
L 378.862024 83.577916 
L 379.099669 83.515961 
L 379.57496 83.454006 
L 380.050252 83.206184 
L 380.287897 83.144229 
L 380.525543 83.082273 
L 381.23848 83.020318 
L 381.55534 82.896407 
L 381.792986 82.896407 
L 381.951416 82.710541 
L 382.585138 82.648586 
L 382.822784 82.46272 
L 383.694151 82.400764 
L 384.169442 82.152943 
L 384.248657 82.152943 
L 384.407087 82.029032 
L 384.882379 81.967077 
L 385.436885 81.6573 
L 385.991391 81.595344 
L 386.387467 81.409478 
L 386.704328 81.409478 
L 386.862759 81.285567 
L 387.33805 81.223612 
L 387.49648 81.099701 
L 388.684708 81.037746 
L 388.922354 80.975791 
L 390.031367 80.913835 
L 390.269012 80.85188 
L 392.803898 80.789924 
L 393.041544 80.727969 
L 394.150557 80.666014 
L 394.467418 80.542103 
L 395.25957 80.480148 
L 395.418 80.356237 
L 396.606228 80.294281 
L 396.843874 80.232326 
L 397.002304 80.170371 
L 397.319165 80.04646 
L 397.39838 80.04646 
L 397.55681 79.922549 
L 397.715241 79.922549 
L 397.952886 79.736683 
L 399.061899 79.674728 
L 399.299545 79.612772 
L 400.170912 79.612772 
L 400.329342 79.488862 
L 401.992861 79.426906 
L 402.547368 79.117129 
L 402.943444 79.055174 
L 403.260305 78.931263 
L 404.606963 78.869308 
L 404.844608 78.683442 
L 405.161469 78.621486 
L 405.399115 78.559531 
L 405.795191 78.497576 
L 406.270482 78.249754 
L 406.587343 78.187799 
L 406.824988 78.125843 
L 407.61714 78.063888 
L 407.934001 77.939977 
L 408.092432 77.939977 
L 408.250862 77.754111 
L 408.884584 77.692156 
L 409.122229 77.506289 
L 409.993596 77.444334 
L 410.231242 77.258468 
L 410.468888 77.196513 
L 410.548103 77.196513 
L 410.706533 77.072602 
L 411.181824 77.010646 
L 411.5779 76.82478 
L 412.290837 76.762825 
L 412.686913 76.576959 
L 413.003774 76.576959 
L 413.162204 76.453048 
L 413.637495 76.391093 
L 413.875141 76.205227 
L 415.776306 76.143271 
L 416.013951 76.081316 
L 418.707268 76.01936 
L 418.944914 75.957405 
L 419.34099 75.89545 
L 419.578635 75.833494 
L 420.687648 75.771539 
L 420.925294 75.709584 
L 421.4798 75.647628 
L 421.63823 75.523717 
L 422.826458 75.461762 
L 423.064104 75.399807 
L 423.30175 75.337851 
L 423.61861 75.213941 
L 423.697826 75.213941 
L 423.856256 75.09003 
L 424.014686 75.028074 
L 424.331547 74.904164 
L 425.28213 74.842208 
L 425.519775 74.780253 
L 426.470357 74.780253 
L 426.628788 74.656342 
L 428.292307 74.594387 
L 428.846813 74.28461 
L 429.242889 74.222655 
L 429.55975 74.098744 
L 430.827193 74.036788 
L 431.223269 73.850922 
L 431.460915 73.788967 
L 431.698561 73.727012 
L 432.094637 73.665056 
L 432.569928 73.417235 
L 432.807573 73.355279 
L 433.045219 73.293324 
L 433.916586 73.231368 
L 434.233447 73.107458 
L 434.312662 73.107458 
L 434.550308 72.921592 
L 435.184029 72.859636 
L 435.421675 72.67377 
L 436.213827 72.611815 
L 436.689118 72.363993 
L 436.847548 72.363993 
L 437.005979 72.240082 
L 437.402055 72.178127 
L 437.798131 71.992261 
L 438.511068 71.930306 
L 438.907144 71.744439 
L 439.30322 71.744439 
L 439.46165 71.620529 
L 439.857726 71.558573 
L 440.016156 71.434663 
L 441.204384 71.372707 
L 441.44203 71.310752 
L 442.551043 71.248796 
L 442.788688 71.186841 
L 445.323575 71.124886 
L 445.56122 71.06293 
L 446.749448 71.000975 
L 447.066309 70.877064 
L 447.779246 70.815109 
L 447.937676 70.691198 
L 449.125904 70.629243 
L 449.36355 70.567287 
L 449.601195 70.505332 
L 450.076486 70.25751 
L 450.234917 70.25751 
L 450.472562 70.071644 
L 451.581575 70.009689 
L 451.819221 69.947734 
L 452.690588 69.947734 
L 452.849018 69.823823 
L 454.591753 69.761867 
L 455.225474 69.390135 
L 455.62155 69.32818 
L 455.859196 69.266224 
L 457.126639 69.204269 
L 457.522715 69.018403 
L 457.760361 68.956447 
L 457.998006 68.894492 
L 458.394082 68.832537 
L 458.869373 68.584715 
L 459.107019 68.52276 
L 459.344665 68.460804 
L 460.136817 68.398849 
L 460.453677 68.274938 
L 460.612108 68.274938 
L 460.770538 68.089072 
L 461.245829 68.027117 
L 461.641905 67.841251 
L 462.434057 67.779295 
L 462.830133 67.593429 
L 463.067779 67.531474 
L 463.463855 67.345608 
L 463.859931 67.283652 
L 464.256007 67.097786 
L 465.048159 67.035831 
L 465.206589 66.91192 
L 465.52345 66.91192 
L 465.68188 66.788009 
L 466.157172 66.726054 
L 466.315602 66.602143 
L 467.50383 66.540188 
L 467.741475 66.478232 
L 468.850488 66.416277 
L 469.088134 66.354322 
L 471.62302 66.292366 
L 471.860666 66.230411 
L 473.048894 66.168456 
L 473.365755 66.044545 
L 474.078691 65.982589 
L 474.237122 65.858679 
L 475.74221 65.796723 
L 476.138286 65.610857 
L 476.217502 65.610857 
L 476.375932 65.486946 
L 476.534362 65.424991 
L 476.851223 65.30108 
L 477.881021 65.239125 
L 478.118666 65.177169 
L 478.990034 65.177169 
L 479.148464 65.053259 
L 480.811983 64.991303 
L 481.36649 64.681526 
L 481.762565 64.619571 
L 482.079426 64.49566 
L 483.426085 64.433705 
L 483.66373 64.247839 
L 483.980591 64.185883 
L 484.218237 64.123928 
L 484.614313 64.061973 
L 485.089604 63.814151 
L 485.406465 63.752196 
L 485.64411 63.69024 
L 486.436262 63.628285 
L 486.753123 63.504374 
L 486.911553 63.504374 
L 487.069984 63.318508 
L 487.703705 63.256553 
L 487.862136 63.132642 
L 488.733503 63.070687 
L 489.208794 62.822865 
L 489.367224 62.822865 
L 489.525655 62.698954 
L 490.000946 62.636999 
L 490.397022 62.451133 
L 491.109959 62.389178 
L 491.506035 62.203311 
L 491.822896 62.203311 
L 491.981326 62.079401 
L 492.456617 62.017445 
L 492.694263 61.831579 
L 494.595428 61.769624 
L 494.833073 61.707668 
L 497.605605 61.645713 
L 497.922466 61.521802 
L 499.269124 61.459847 
L 499.585985 61.335936 
L 500.378137 61.273981 
L 500.536567 61.15007 
L 501.962441 61.088115 
L 502.358517 60.902248 
L 502.516947 60.902248 
L 502.754593 60.716382 
L 502.913023 60.654427 
L 503.150669 60.592472 
L 504.101251 60.530516 
L 504.338897 60.468561 
L 505.289479 60.468561 
L 505.44791 60.34465 
L 507.111429 60.282695 
L 507.665935 59.972918 
L 508.062011 59.910962 
L 508.378872 59.787052 
L 509.646315 59.725096 
L 510.042391 59.53923 
L 510.280037 59.477275 
L 510.438467 59.353364 
L 510.992973 59.291409 
L 511.389049 59.105543 
L 511.626695 59.043587 
L 511.864341 58.981632 
L 512.735708 58.919676 
L 513.131784 58.73381 
L 513.210999 58.73381 
L 513.369429 58.6099 
L 514.003151 58.547944 
L 514.161581 58.424033 
L 515.032949 58.362078 
L 515.50824 58.114257 
L 515.66667 58.114257 
L 515.825101 57.990346 
L 516.221177 57.92839 
L 516.617252 57.742524 
L 517.330189 57.680569 
L 517.726265 57.494703 
L 518.122341 57.494703 
L 518.280772 57.370792 
L 518.676848 57.308837 
L 518.835278 57.184926 
L 519.944291 57.12297 
L 520.181936 57.061015 
L 521.370164 56.99906 
L 521.60781 56.937104 
L 524.142696 56.875149 
L 524.380342 56.813194 
L 525.56857 56.751238 
L 525.885431 56.627327 
L 526.598367 56.565372 
L 526.756798 56.441461 
L 528.261887 56.379506 
L 528.657963 56.19364 
L 528.737178 56.19364 
L 528.895608 56.069729 
L 529.054039 56.007774 
L 529.370899 55.883863 
L 530.400697 55.821908 
L 530.638342 55.759952 
L 531.50971 55.759952 
L 531.66814 55.636041 
L 533.410874 55.574086 
L 533.965381 55.264309 
L 534.282242 55.202354 
L 534.599102 55.078443 
L 535.945761 55.016488 
L 536.104191 54.892577 
L 536.500267 54.830622 
L 536.817128 54.706711 
L 537.292419 54.644755 
L 537.688495 54.458889 
L 537.926141 54.396934 
L 538.163786 54.334979 
L 538.955938 54.273023 
L 539.352014 54.087157 
L 539.431229 54.087157 
L 539.58966 53.963246 
L 540.302597 53.901291 
L 540.461027 53.77738 
L 541.332394 53.715425 
L 541.807685 53.467603 
L 541.966116 53.405648 
L 542.282977 53.281737 
L 542.679053 53.219782 
L 542.995913 53.095871 
L 543.629635 53.033916 
L 544.025711 52.848049 
L 544.342572 52.848049 
L 544.501002 52.724139 
L 544.976293 52.662183 
L 545.134724 52.538273 
L 546.322952 52.476317 
L 546.560597 52.414362 
L 547.66961 52.352406 
L 547.907256 52.290451 
L 550.442142 52.228496 
L 550.679788 52.16654 
L 551.868015 52.104585 
L 552.184876 51.980674 
L 552.897813 51.918719 
L 553.056243 51.794808 
L 554.561332 51.732853 
L 554.957408 51.546987 
L 555.115839 51.485031 
L 555.59113 51.23721 
L 556.700143 51.175254 
L 556.937788 51.113299 
L 557.809155 51.113299 
L 557.967586 50.989388 
L 559.631105 50.927433 
L 560.185611 50.617656 
L 560.581687 50.555701 
L 560.898548 50.43179 
L 562.165991 50.369834 
L 562.562067 50.183968 
L 562.799713 50.183968 
L 562.958143 50.060058 
L 563.591865 49.998102 
L 563.987941 49.812236 
L 564.225586 49.750281 
L 564.463232 49.688325 
L 565.255384 49.62637 
L 565.572245 49.502459 
L 565.730675 49.502459 
L 565.889105 49.378548 
L 566.522827 49.316593 
L 566.681257 49.192682 
L 567.552625 49.130727 
L 568.027916 48.882905 
L 568.186346 48.882905 
L 568.344777 48.758995 
L 568.820068 48.697039 
L 569.216144 48.511173 
L 569.849865 48.449218 
L 570.087511 48.387262 
L 570.166726 48.387262 
L 570.325157 48.263352 
L 570.642017 48.263352 
L 570.800448 48.139441 
L 571.275739 48.077485 
L 571.513385 47.891619 
L 573.335334 47.829664 
L 573.652195 47.705753 
L 576.741588 47.643798 
L 577.058448 47.519887 
L 578.325892 47.457932 
L 578.563537 47.395976 
L 579.197259 47.334021 
L 579.355689 47.21011 
L 580.781563 47.148155 
L 581.256854 46.900333 
L 581.494499 46.838378 
L 581.81136 46.714467 
L 582.999588 46.652512 
L 583.237234 46.590556 
L 584.108601 46.528601 
L 584.346247 46.466646 
L 585.930551 46.40469 
L 586.405842 46.156869 
L 586.881133 46.094913 
L 587.197994 45.971003 
L 588.544652 45.909047 
L 588.782298 45.723181 
L 589.57445 45.661226 
L 589.89131 45.537315 
L 590.128956 45.47536 
L 590.525032 45.289493 
L 591.396399 45.227538 
L 591.634045 45.165583 
L 592.030121 45.103627 
L 592.346982 44.79385 
L 593.535209 44.731895 
L 593.772855 44.546029 
L 594.248146 44.484074 
L 594.406577 44.360163 
L 594.723437 44.298207 
L 595.119513 44.112341 
L 596.070096 44.050386 
L 596.307741 43.86452 
L 596.703817 43.802564 
L 596.941463 43.740609 
L 597.258324 43.678654 
L 597.6544 43.492788 
L 599.397134 43.430832 
L 599.63478 43.368877 
L 602.565742 43.306921 
L 602.803388 43.244966 
L 604.229261 43.183011 
L 604.466907 43.121055 
L 605.100628 43.0591 
L 605.417489 42.935189 
L 606.764148 42.873234 
L 606.922578 42.749323 
L 607.397869 42.687368 
L 607.793945 42.501502 
L 609.061388 42.439546 
L 609.299034 42.377591 
L 611.041768 42.315635 
L 611.279414 42.25368 
L 611.992351 42.191725 
L 612.388427 42.005859 
L 612.784503 41.943903 
L 613.101363 41.819992 
L 614.448022 41.758037 
L 614.844098 41.572171 
L 615.79468 41.510215 
L 616.190756 41.324349 
L 616.428402 41.262394 
L 616.666047 41.200439 
L 617.695845 41.138483 
L 618.171136 40.890662 
L 622.369541 40.828706 
L 622.607187 40.766751 
L 633.855745 40.704796 
L 634.093391 40.64284 
L 641.064328 40.580885 
L 641.301974 40.518929 
L 649.778 40.456974 
L 650.015645 40.395019 
L 664.908103 40.333063 
L 665.145748 40.271108 
L 674.968433 40.209153 
L 675.206078 40.147197 
L 686.454636 40.085242 
L 686.692282 40.023286 
L 693.584004 39.961331 
L 693.82165 39.899376 
L 702.297676 39.83742 
L 702.535322 39.775465 
L 717.427779 39.71351 
L 717.665424 39.651554 
L 727.488109 39.589599 
L 727.725754 39.527643 
L 738.974313 39.465688 
L 739.211958 39.403733 
L 746.024465 39.341777 
L 746.262111 39.279822 
L 754.896567 39.217867 
L 755.134213 39.155911 
L 769.947455 39.093956 
L 770.1851 39.032 
L 780.007785 38.970045 
L 780.245431 38.90809 
L 791.493989 38.846134 
L 791.731634 38.784179 
L 798.702572 38.722224 
L 798.940217 38.660268 
L 807.416243 38.598313 
L 807.653889 38.536357 
L 822.546346 38.474402 
L 822.783992 38.412447 
L 832.606676 38.350491 
L 832.844322 38.288536 
L 844.09288 38.226581 
L 844.330526 38.164625 
L 851.301463 38.10267 
L 851.539109 38.040714 
L 859.698274 37.978759 
L 859.935919 37.916804 
L 874.749161 37.854848 
L 874.986807 37.792893 
L 885.047137 37.730938 
L 885.047137 37.730938 
" clip-path="url(#p29282b20c5)" style="fill: none; stroke: #1f77b4; stroke-width: 2; stroke-linecap: square"/>
   </g>
   <g id="line2d_28">
    <path d="M 92.974375 317.149688 
L 93.05359 317.149688 
L 93.291236 43.071107 
L 93.528881 39.084783 
L 93.687312 38.031792 
L 94.162603 38.031792 
L 94.400249 37.730938 
L 885.047137 37.730938 
L 885.047137 37.730938 
" clip-path="url(#p29282b20c5)" style="fill: none; stroke: #ff7f0e; stroke-width: 2; stroke-linecap: square"/>
   </g>
   <g id="patch_3">
    <path d="M 92.974375 331.120625 
L 92.974375 23.76 
" style="fill: none; stroke: #000000; stroke-width: 0.8; stroke-linejoin: miter; stroke-linecap: square"/>
   </g>
   <g id="patch_4">
    <path d="M 892.967865 331.120625 
L 892.967865 23.76 
" style="fill: none; stroke: #000000; stroke-width: 0.8; stroke-linejoin: miter; stroke-linecap: square"/>
   </g>
   <g id="patch_5">
    <path d="M 92.974375 331.120625 
L 892.967865 331.120625 
" style="fill: none; stroke: #000000; stroke-width: 0.8; stroke-linejoin: miter; stroke-linecap: square"/>
   </g>
   <g id="patch_6">
    <path d="M 92.974375 23.76 
L 892.967865 23.76 
" style="fill: none; stroke: #000000; stroke-width: 0.8; stroke-linejoin: miter; stroke-linecap: square"/>
   </g>
   <g id="legend_1">
    <g id="patch_7">
     <path d="M 675.246615 319.120625 
L 876.167865 319.120625 
Q 880.967865 319.120625 880.967865 314.320625 
L 880.967865 245.598125 
Q 880.967865 240.798125 876.167865 240.798125 
L 675.246615 240.798125 
Q 670.446615 240.798125 670.446615 245.598125 
L 670.446615 314.320625 
Q 670.446615 319.120625 675.246615 319.120625 
z
" style="fill: #ffffff; opacity: 0.8; stroke: #cccccc; stroke-linejoin: miter"/>
    </g>
    <g id="line2d_29">
     <path d="M 680.046615 260.234375 
L 704.046615 260.234375 
L 728.046615 260.234375 
" style="fill: none; stroke: #1f77b4; stroke-width: 2; stroke-linecap: square"/>
    </g>
    <g id="text_16">
     <!-- DRX_1min -->
     <g transform="translate(747.246615 268.634375)scale(0.24 -0.24)">
      <defs>
       <path id="DejaVuSans-44" d="M 1259 4147 
L 1259 519 
L 2022 519 
Q 2988 519 3436 956 
Q 3884 1394 3884 2338 
Q 3884 3275 3436 3711 
Q 2988 4147 2022 4147 
L 1259 4147 
z
M 628 4666 
L 1925 4666 
Q 3281 4666 3915 4102 
Q 4550 3538 4550 2338 
Q 4550 1131 3912 565 
Q 3275 0 1925 0 
L 628 0 
L 628 4666 
z
" transform="scale(0.015625)"/>
       <path id="DejaVuSans-58" d="M 403 4666 
L 1081 4666 
L 2241 2931 
L 3406 4666 
L 4084 4666 
L 2584 2425 
L 4184 0 
L 3506 0 
L 2194 1984 
L 872 0 
L 191 0 
L 1856 2491 
L 403 4666 
z
" transform="scale(0.015625)"/>
       <path id="DejaVuSans-5f" d="M 3263 -1063 
L 3263 -1509 
L -63 -1509 
L -63 -1063 
L 3263 -1063 
z
" transform="scale(0.015625)"/>
      </defs>
      <use xlink:href="#DejaVuSans-44"/>
      <use xlink:href="#DejaVuSans-52" x="77.001953"/>
      <use xlink:href="#DejaVuSans-58" x="146.484375"/>
      <use xlink:href="#DejaVuSans-5f" x="214.990234"/>
      <use xlink:href="#DejaVuSans-31" x="264.990234"/>
      <use xlink:href="#DejaVuSans-6d" x="328.613281"/>
      <use xlink:href="#DejaVuSans-69" x="426.025391"/>
      <use xlink:href="#DejaVuSans-6e" x="453.808594"/>
     </g>
    </g>
    <g id="line2d_30">
     <path d="M 680.046615 296.129375 
L 704.046615 296.129375 
L 728.046615 296.129375 
" style="fill: none; stroke: #ff7f0e; stroke-width: 2; stroke-linecap: square"/>
    </g>
    <g id="text_17">
     <!-- Default -->
     <g transform="translate(747.246615 304.529375)scale(0.24 -0.24)">
      <defs>
       <path id="DejaVuSans-61" d="M 2194 1759 
Q 1497 1759 1228 1600 
Q 959 1441 959 1056 
Q 959 750 1161 570 
Q 1363 391 1709 391 
Q 2188 391 2477 730 
Q 2766 1069 2766 1631 
L 2766 1759 
L 2194 1759 
z
M 3341 1997 
L 3341 0 
L 2766 0 
L 2766 531 
Q 2569 213 2275 61 
Q 1981 -91 1556 -91 
Q 1019 -91 701 211 
Q 384 513 384 1019 
Q 384 1609 779 1909 
Q 1175 2209 1959 2209 
L 2766 2209 
L 2766 2266 
Q 2766 2663 2505 2880 
Q 2244 3097 1772 3097 
Q 1472 3097 1187 3025 
Q 903 2953 641 2809 
L 641 3341 
Q 956 3463 1253 3523 
Q 1550 3584 1831 3584 
Q 2591 3584 2966 3190 
Q 3341 2797 3341 1997 
z
" transform="scale(0.015625)"/>
       <path id="DejaVuSans-74" d="M 1172 4494 
L 1172 3500 
L 2356 3500 
L 2356 3053 
L 1172 3053 
L 1172 1153 
Q 1172 725 1289 603 
Q 1406 481 1766 481 
L 2356 481 
L 2356 0 
L 1766 0 
Q 1100 0 847 248 
Q 594 497 594 1153 
L 594 3053 
L 172 3053 
L 172 3500 
L 594 3500 
L 594 4494 
L 1172 4494 
z
" transform="scale(0.015625)"/>
      </defs>
      <use xlink:href="#DejaVuSans-44"/>
      <use xlink:href="#DejaVuSans-65" x="77.001953"/>
      <use xlink:href="#DejaVuSans-66" x="138.525391"/>
      <use xlink:href="#DejaVuSans-61" x="173.730469"/>
      <use xlink:href="#DejaVuSans-75" x="235.009766"/>
      <use xlink:href="#DejaVuSans-6c" x="298.388672"/>
      <use xlink:href="#DejaVuSans-74" x="326.171875"/>
     </g>
    </g>
   </g>
  </g>
 </g>
 <defs>
  <clipPath id="p29282b20c5">
   <rect x="92.974375" y="23.76" width="799.99349" height="307.360625"/>
  </clipPath>
 </defs>
</svg>
