<?xml version="1.0" encoding="utf-8" standalone="no"?>
<!DOCTYPE svg PUBLIC "-//W3C//DTD SVG 1.1//EN"
  "http://www.w3.org/Graphics/SVG/1.1/DTD/svg11.dtd">
<svg xmlns:xlink="http://www.w3.org/1999/xlink" width="921.6pt" height="410.4pt" viewBox="0 0 921.6 410.4" xmlns="http://www.w3.org/2000/svg" version="1.1">
 <metadata>
  <rdf:RDF xmlns:dc="http://purl.org/dc/elements/1.1/" xmlns:cc="http://creativecommons.org/ns#" xmlns:rdf="http://www.w3.org/1999/02/22-rdf-syntax-ns#">
   <cc:Work>
    <dc:type rdf:resource="http://purl.org/dc/dcmitype/StillImage"/>
    <dc:date>2023-04-24T12:26:51.220114</dc:date>
    <dc:format>image/svg+xml</dc:format>
    <dc:creator>
     <cc:Agent>
      <dc:title>Matplotlib v3.5.3, https://matplotlib.org/</dc:title>
     </cc:Agent>
    </dc:creator>
   </cc:Work>
  </rdf:RDF>
 </metadata>
 <defs>
  <style type="text/css">*{stroke-linejoin: round; stroke-linecap: butt}</style>
 </defs>
 <g id="figure_1">
  <g id="patch_1">
   <path d="M 0 410.4 
L 921.6 410.4 
L 921.6 0 
L 0 0 
L 0 410.4 
z
" style="fill: none"/>
  </g>
  <g id="axes_1">
   <g id="patch_2">
    <path d="M 92.974375 331.120625 
L 897.84 331.120625 
L 897.84 23.76 
L 92.974375 23.76 
z
" style="fill: #ffffff"/>
   </g>
   <g id="matplotlib.axis_1">
    <g id="xtick_1">
     <g id="line2d_1">
      <path d="M 92.974375 331.120625 
L 92.974375 23.76 
" clip-path="url(#p886b5d5631)" style="fill: none; stroke: #b0b0b0; stroke-width: 0.8; stroke-linecap: square"/>
     </g>
     <g id="line2d_2">
      <defs>
       <path id="mf257ff0a52" d="M 0 0 
L 0 3.5 
" style="stroke: #000000; stroke-width: 0.8"/>
      </defs>
      <g>
       <use xlink:href="#mf257ff0a52" x="92.974375" y="331.120625" style="stroke: #000000; stroke-width: 0.8"/>
      </g>
     </g>
     <g id="text_1">
      <!-- 0 -->
      <g transform="translate(85.975625 354.837188)scale(0.22 -0.22)">
       <defs>
        <path id="DejaVuSans-30" d="M 2034 4250 
Q 1547 4250 1301 3770 
Q 1056 3291 1056 2328 
Q 1056 1369 1301 889 
Q 1547 409 2034 409 
Q 2525 409 2770 889 
Q 3016 1369 3016 2328 
Q 3016 3291 2770 3770 
Q 2525 4250 2034 4250 
z
M 2034 4750 
Q 2819 4750 3233 4129 
Q 3647 3509 3647 2328 
Q 3647 1150 3233 529 
Q 2819 -91 2034 -91 
Q 1250 -91 836 529 
Q 422 1150 422 2328 
Q 422 3509 836 4129 
Q 1250 4750 2034 4750 
z
" transform="scale(0.015625)"/>
       </defs>
       <use xlink:href="#DejaVuSans-30"/>
      </g>
     </g>
    </g>
    <g id="xtick_2">
     <g id="line2d_3">
      <path d="M 198.175254 331.120625 
L 198.175254 23.76 
" clip-path="url(#p886b5d5631)" style="fill: none; stroke: #b0b0b0; stroke-width: 0.8; stroke-linecap: square"/>
     </g>
     <g id="line2d_4">
      <g>
       <use xlink:href="#mf257ff0a52" x="198.175254" y="331.120625" style="stroke: #000000; stroke-width: 0.8"/>
      </g>
     </g>
     <g id="text_2">
      <!-- 50 -->
      <g transform="translate(184.177754 354.837188)scale(0.22 -0.22)">
       <defs>
        <path id="DejaVuSans-35" d="M 691 4666 
L 3169 4666 
L 3169 4134 
L 1269 4134 
L 1269 2991 
Q 1406 3038 1543 3061 
Q 1681 3084 1819 3084 
Q 2600 3084 3056 2656 
Q 3513 2228 3513 1497 
Q 3513 744 3044 326 
Q 2575 -91 1722 -91 
Q 1428 -91 1123 -41 
Q 819 9 494 109 
L 494 744 
Q 775 591 1075 516 
Q 1375 441 1709 441 
Q 2250 441 2565 725 
Q 2881 1009 2881 1497 
Q 2881 1984 2565 2268 
Q 2250 2553 1709 2553 
Q 1456 2553 1204 2497 
Q 953 2441 691 2322 
L 691 4666 
z
" transform="scale(0.015625)"/>
       </defs>
       <use xlink:href="#DejaVuSans-35"/>
       <use xlink:href="#DejaVuSans-30" x="63.623047"/>
      </g>
     </g>
    </g>
    <g id="xtick_3">
     <g id="line2d_5">
      <path d="M 303.376133 331.120625 
L 303.376133 23.76 
" clip-path="url(#p886b5d5631)" style="fill: none; stroke: #b0b0b0; stroke-width: 0.8; stroke-linecap: square"/>
     </g>
     <g id="line2d_6">
      <g>
       <use xlink:href="#mf257ff0a52" x="303.376133" y="331.120625" style="stroke: #000000; stroke-width: 0.8"/>
      </g>
     </g>
     <g id="text_3">
      <!-- 100 -->
      <g transform="translate(282.379883 354.837188)scale(0.22 -0.22)">
       <defs>
        <path id="DejaVuSans-31" d="M 794 531 
L 1825 531 
L 1825 4091 
L 703 3866 
L 703 4441 
L 1819 4666 
L 2450 4666 
L 2450 531 
L 3481 531 
L 3481 0 
L 794 0 
L 794 531 
z
" transform="scale(0.015625)"/>
       </defs>
       <use xlink:href="#DejaVuSans-31"/>
       <use xlink:href="#DejaVuSans-30" x="63.623047"/>
       <use xlink:href="#DejaVuSans-30" x="127.246094"/>
      </g>
     </g>
    </g>
    <g id="xtick_4">
     <g id="line2d_7">
      <path d="M 408.577012 331.120625 
L 408.577012 23.76 
" clip-path="url(#p886b5d5631)" style="fill: none; stroke: #b0b0b0; stroke-width: 0.8; stroke-linecap: square"/>
     </g>
     <g id="line2d_8">
      <g>
       <use xlink:href="#mf257ff0a52" x="408.577012" y="331.120625" style="stroke: #000000; stroke-width: 0.8"/>
      </g>
     </g>
     <g id="text_4">
      <!-- 150 -->
      <g transform="translate(387.580762 354.837188)scale(0.22 -0.22)">
       <use xlink:href="#DejaVuSans-31"/>
       <use xlink:href="#DejaVuSans-35" x="63.623047"/>
       <use xlink:href="#DejaVuSans-30" x="127.246094"/>
      </g>
     </g>
    </g>
    <g id="xtick_5">
     <g id="line2d_9">
      <path d="M 513.777891 331.120625 
L 513.777891 23.76 
" clip-path="url(#p886b5d5631)" style="fill: none; stroke: #b0b0b0; stroke-width: 0.8; stroke-linecap: square"/>
     </g>
     <g id="line2d_10">
      <g>
       <use xlink:href="#mf257ff0a52" x="513.777891" y="331.120625" style="stroke: #000000; stroke-width: 0.8"/>
      </g>
     </g>
     <g id="text_5">
      <!-- 200 -->
      <g transform="translate(492.781641 354.837188)scale(0.22 -0.22)">
       <defs>
        <path id="DejaVuSans-32" d="M 1228 531 
L 3431 531 
L 3431 0 
L 469 0 
L 469 531 
Q 828 903 1448 1529 
Q 2069 2156 2228 2338 
Q 2531 2678 2651 2914 
Q 2772 3150 2772 3378 
Q 2772 3750 2511 3984 
Q 2250 4219 1831 4219 
Q 1534 4219 1204 4116 
Q 875 4013 500 3803 
L 500 4441 
Q 881 4594 1212 4672 
Q 1544 4750 1819 4750 
Q 2544 4750 2975 4387 
Q 3406 4025 3406 3419 
Q 3406 3131 3298 2873 
Q 3191 2616 2906 2266 
Q 2828 2175 2409 1742 
Q 1991 1309 1228 531 
z
" transform="scale(0.015625)"/>
       </defs>
       <use xlink:href="#DejaVuSans-32"/>
       <use xlink:href="#DejaVuSans-30" x="63.623047"/>
       <use xlink:href="#DejaVuSans-30" x="127.246094"/>
      </g>
     </g>
    </g>
    <g id="xtick_6">
     <g id="line2d_11">
      <path d="M 618.97877 331.120625 
L 618.97877 23.76 
" clip-path="url(#p886b5d5631)" style="fill: none; stroke: #b0b0b0; stroke-width: 0.8; stroke-linecap: square"/>
     </g>
     <g id="line2d_12">
      <g>
       <use xlink:href="#mf257ff0a52" x="618.97877" y="331.120625" style="stroke: #000000; stroke-width: 0.8"/>
      </g>
     </g>
     <g id="text_6">
      <!-- 250 -->
      <g transform="translate(597.98252 354.837188)scale(0.22 -0.22)">
       <use xlink:href="#DejaVuSans-32"/>
       <use xlink:href="#DejaVuSans-35" x="63.623047"/>
       <use xlink:href="#DejaVuSans-30" x="127.246094"/>
      </g>
     </g>
    </g>
    <g id="xtick_7">
     <g id="line2d_13">
      <path d="M 724.179649 331.120625 
L 724.179649 23.76 
" clip-path="url(#p886b5d5631)" style="fill: none; stroke: #b0b0b0; stroke-width: 0.8; stroke-linecap: square"/>
     </g>
     <g id="line2d_14">
      <g>
       <use xlink:href="#mf257ff0a52" x="724.179649" y="331.120625" style="stroke: #000000; stroke-width: 0.8"/>
      </g>
     </g>
     <g id="text_7">
      <!-- 300 -->
      <g transform="translate(703.183399 354.837188)scale(0.22 -0.22)">
       <defs>
        <path id="DejaVuSans-33" d="M 2597 2516 
Q 3050 2419 3304 2112 
Q 3559 1806 3559 1356 
Q 3559 666 3084 287 
Q 2609 -91 1734 -91 
Q 1441 -91 1130 -33 
Q 819 25 488 141 
L 488 750 
Q 750 597 1062 519 
Q 1375 441 1716 441 
Q 2309 441 2620 675 
Q 2931 909 2931 1356 
Q 2931 1769 2642 2001 
Q 2353 2234 1838 2234 
L 1294 2234 
L 1294 2753 
L 1863 2753 
Q 2328 2753 2575 2939 
Q 2822 3125 2822 3475 
Q 2822 3834 2567 4026 
Q 2313 4219 1838 4219 
Q 1578 4219 1281 4162 
Q 984 4106 628 3988 
L 628 4550 
Q 988 4650 1302 4700 
Q 1616 4750 1894 4750 
Q 2613 4750 3031 4423 
Q 3450 4097 3450 3541 
Q 3450 3153 3228 2886 
Q 3006 2619 2597 2516 
z
" transform="scale(0.015625)"/>
       </defs>
       <use xlink:href="#DejaVuSans-33"/>
       <use xlink:href="#DejaVuSans-30" x="63.623047"/>
       <use xlink:href="#DejaVuSans-30" x="127.246094"/>
      </g>
     </g>
    </g>
    <g id="xtick_8">
     <g id="line2d_15">
      <path d="M 829.380528 331.120625 
L 829.380528 23.76 
" clip-path="url(#p886b5d5631)" style="fill: none; stroke: #b0b0b0; stroke-width: 0.8; stroke-linecap: square"/>
     </g>
     <g id="line2d_16">
      <g>
       <use xlink:href="#mf257ff0a52" x="829.380528" y="331.120625" style="stroke: #000000; stroke-width: 0.8"/>
      </g>
     </g>
     <g id="text_8">
      <!-- 350 -->
      <g transform="translate(808.384278 354.837188)scale(0.22 -0.22)">
       <use xlink:href="#DejaVuSans-33"/>
       <use xlink:href="#DejaVuSans-35" x="63.623047"/>
       <use xlink:href="#DejaVuSans-30" x="127.246094"/>
      </g>
     </g>
    </g>
    <g id="text_9">
     <!-- RTT (ms) -->
     <g transform="translate(442.372813 381.64875)scale(0.24 -0.24)">
      <defs>
       <path id="DejaVuSans-52" d="M 2841 2188 
Q 3044 2119 3236 1894 
Q 3428 1669 3622 1275 
L 4263 0 
L 3584 0 
L 2988 1197 
Q 2756 1666 2539 1819 
Q 2322 1972 1947 1972 
L 1259 1972 
L 1259 0 
L 628 0 
L 628 4666 
L 2053 4666 
Q 2853 4666 3247 4331 
Q 3641 3997 3641 3322 
Q 3641 2881 3436 2590 
Q 3231 2300 2841 2188 
z
M 1259 4147 
L 1259 2491 
L 2053 2491 
Q 2509 2491 2742 2702 
Q 2975 2913 2975 3322 
Q 2975 3731 2742 3939 
Q 2509 4147 2053 4147 
L 1259 4147 
z
" transform="scale(0.015625)"/>
       <path id="DejaVuSans-54" d="M -19 4666 
L 3928 4666 
L 3928 4134 
L 2272 4134 
L 2272 0 
L 1638 0 
L 1638 4134 
L -19 4134 
L -19 4666 
z
" transform="scale(0.015625)"/>
       <path id="DejaVuSans-20" transform="scale(0.015625)"/>
       <path id="DejaVuSans-28" d="M 1984 4856 
Q 1566 4138 1362 3434 
Q 1159 2731 1159 2009 
Q 1159 1288 1364 580 
Q 1569 -128 1984 -844 
L 1484 -844 
Q 1016 -109 783 600 
Q 550 1309 550 2009 
Q 550 2706 781 3412 
Q 1013 4119 1484 4856 
L 1984 4856 
z
" transform="scale(0.015625)"/>
       <path id="DejaVuSans-6d" d="M 3328 2828 
Q 3544 3216 3844 3400 
Q 4144 3584 4550 3584 
Q 5097 3584 5394 3201 
Q 5691 2819 5691 2113 
L 5691 0 
L 5113 0 
L 5113 2094 
Q 5113 2597 4934 2840 
Q 4756 3084 4391 3084 
Q 3944 3084 3684 2787 
Q 3425 2491 3425 1978 
L 3425 0 
L 2847 0 
L 2847 2094 
Q 2847 2600 2669 2842 
Q 2491 3084 2119 3084 
Q 1678 3084 1418 2786 
Q 1159 2488 1159 1978 
L 1159 0 
L 581 0 
L 581 3500 
L 1159 3500 
L 1159 2956 
Q 1356 3278 1631 3431 
Q 1906 3584 2284 3584 
Q 2666 3584 2933 3390 
Q 3200 3197 3328 2828 
z
" transform="scale(0.015625)"/>
       <path id="DejaVuSans-73" d="M 2834 3397 
L 2834 2853 
Q 2591 2978 2328 3040 
Q 2066 3103 1784 3103 
Q 1356 3103 1142 2972 
Q 928 2841 928 2578 
Q 928 2378 1081 2264 
Q 1234 2150 1697 2047 
L 1894 2003 
Q 2506 1872 2764 1633 
Q 3022 1394 3022 966 
Q 3022 478 2636 193 
Q 2250 -91 1575 -91 
Q 1294 -91 989 -36 
Q 684 19 347 128 
L 347 722 
Q 666 556 975 473 
Q 1284 391 1588 391 
Q 1994 391 2212 530 
Q 2431 669 2431 922 
Q 2431 1156 2273 1281 
Q 2116 1406 1581 1522 
L 1381 1569 
Q 847 1681 609 1914 
Q 372 2147 372 2553 
Q 372 3047 722 3315 
Q 1072 3584 1716 3584 
Q 2034 3584 2315 3537 
Q 2597 3491 2834 3397 
z
" transform="scale(0.015625)"/>
       <path id="DejaVuSans-29" d="M 513 4856 
L 1013 4856 
Q 1481 4119 1714 3412 
Q 1947 2706 1947 2009 
Q 1947 1309 1714 600 
Q 1481 -109 1013 -844 
L 513 -844 
Q 928 -128 1133 580 
Q 1338 1288 1338 2009 
Q 1338 2731 1133 3434 
Q 928 4138 513 4856 
z
" transform="scale(0.015625)"/>
      </defs>
      <use xlink:href="#DejaVuSans-52"/>
      <use xlink:href="#DejaVuSans-54" x="62.232422"/>
      <use xlink:href="#DejaVuSans-54" x="121.566406"/>
      <use xlink:href="#DejaVuSans-20" x="182.650391"/>
      <use xlink:href="#DejaVuSans-28" x="214.4375"/>
      <use xlink:href="#DejaVuSans-6d" x="253.451172"/>
      <use xlink:href="#DejaVuSans-73" x="350.863281"/>
      <use xlink:href="#DejaVuSans-29" x="402.962891"/>
     </g>
    </g>
   </g>
   <g id="matplotlib.axis_2">
    <g id="ytick_1">
     <g id="line2d_17">
      <path d="M 92.974375 317.149688 
L 897.84 317.149688 
" clip-path="url(#p886b5d5631)" style="fill: none; stroke: #b0b0b0; stroke-width: 0.8; stroke-linecap: square"/>
     </g>
     <g id="line2d_18">
      <defs>
       <path id="m83aef72eca" d="M 0 0 
L -3.5 0 
" style="stroke: #000000; stroke-width: 0.8"/>
      </defs>
      <g>
       <use xlink:href="#m83aef72eca" x="92.974375" y="317.149688" style="stroke: #000000; stroke-width: 0.8"/>
      </g>
     </g>
     <g id="text_10">
      <!-- 0.0 -->
      <g transform="translate(50.9875 325.507969)scale(0.22 -0.22)">
       <defs>
        <path id="DejaVuSans-2e" d="M 684 794 
L 1344 794 
L 1344 0 
L 684 0 
L 684 794 
z
" transform="scale(0.015625)"/>
       </defs>
       <use xlink:href="#DejaVuSans-30"/>
       <use xlink:href="#DejaVuSans-2e" x="63.623047"/>
       <use xlink:href="#DejaVuSans-30" x="95.410156"/>
      </g>
     </g>
    </g>
    <g id="ytick_2">
     <g id="line2d_19">
      <path d="M 92.974375 261.265938 
L 897.84 261.265938 
" clip-path="url(#p886b5d5631)" style="fill: none; stroke: #b0b0b0; stroke-width: 0.8; stroke-linecap: square"/>
     </g>
     <g id="line2d_20">
      <g>
       <use xlink:href="#m83aef72eca" x="92.974375" y="261.265938" style="stroke: #000000; stroke-width: 0.8"/>
      </g>
     </g>
     <g id="text_11">
      <!-- 0.2 -->
      <g transform="translate(50.9875 269.624219)scale(0.22 -0.22)">
       <use xlink:href="#DejaVuSans-30"/>
       <use xlink:href="#DejaVuSans-2e" x="63.623047"/>
       <use xlink:href="#DejaVuSans-32" x="95.410156"/>
      </g>
     </g>
    </g>
    <g id="ytick_3">
     <g id="line2d_21">
      <path d="M 92.974375 205.382188 
L 897.84 205.382188 
" clip-path="url(#p886b5d5631)" style="fill: none; stroke: #b0b0b0; stroke-width: 0.8; stroke-linecap: square"/>
     </g>
     <g id="line2d_22">
      <g>
       <use xlink:href="#m83aef72eca" x="92.974375" y="205.382188" style="stroke: #000000; stroke-width: 0.8"/>
      </g>
     </g>
     <g id="text_12">
      <!-- 0.4 -->
      <g transform="translate(50.9875 213.740469)scale(0.22 -0.22)">
       <defs>
        <path id="DejaVuSans-34" d="M 2419 4116 
L 825 1625 
L 2419 1625 
L 2419 4116 
z
M 2253 4666 
L 3047 4666 
L 3047 1625 
L 3713 1625 
L 3713 1100 
L 3047 1100 
L 3047 0 
L 2419 0 
L 2419 1100 
L 313 1100 
L 313 1709 
L 2253 4666 
z
" transform="scale(0.015625)"/>
       </defs>
       <use xlink:href="#DejaVuSans-30"/>
       <use xlink:href="#DejaVuSans-2e" x="63.623047"/>
       <use xlink:href="#DejaVuSans-34" x="95.410156"/>
      </g>
     </g>
    </g>
    <g id="ytick_4">
     <g id="line2d_23">
      <path d="M 92.974375 149.498438 
L 897.84 149.498438 
" clip-path="url(#p886b5d5631)" style="fill: none; stroke: #b0b0b0; stroke-width: 0.8; stroke-linecap: square"/>
     </g>
     <g id="line2d_24">
      <g>
       <use xlink:href="#m83aef72eca" x="92.974375" y="149.498438" style="stroke: #000000; stroke-width: 0.8"/>
      </g>
     </g>
     <g id="text_13">
      <!-- 0.6 -->
      <g transform="translate(50.9875 157.856719)scale(0.22 -0.22)">
       <defs>
        <path id="DejaVuSans-36" d="M 2113 2584 
Q 1688 2584 1439 2293 
Q 1191 2003 1191 1497 
Q 1191 994 1439 701 
Q 1688 409 2113 409 
Q 2538 409 2786 701 
Q 3034 994 3034 1497 
Q 3034 2003 2786 2293 
Q 2538 2584 2113 2584 
z
M 3366 4563 
L 3366 3988 
Q 3128 4100 2886 4159 
Q 2644 4219 2406 4219 
Q 1781 4219 1451 3797 
Q 1122 3375 1075 2522 
Q 1259 2794 1537 2939 
Q 1816 3084 2150 3084 
Q 2853 3084 3261 2657 
Q 3669 2231 3669 1497 
Q 3669 778 3244 343 
Q 2819 -91 2113 -91 
Q 1303 -91 875 529 
Q 447 1150 447 2328 
Q 447 3434 972 4092 
Q 1497 4750 2381 4750 
Q 2619 4750 2861 4703 
Q 3103 4656 3366 4563 
z
" transform="scale(0.015625)"/>
       </defs>
       <use xlink:href="#DejaVuSans-30"/>
       <use xlink:href="#DejaVuSans-2e" x="63.623047"/>
       <use xlink:href="#DejaVuSans-36" x="95.410156"/>
      </g>
     </g>
    </g>
    <g id="ytick_5">
     <g id="line2d_25">
      <path d="M 92.974375 93.614688 
L 897.84 93.614688 
" clip-path="url(#p886b5d5631)" style="fill: none; stroke: #b0b0b0; stroke-width: 0.8; stroke-linecap: square"/>
     </g>
     <g id="line2d_26">
      <g>
       <use xlink:href="#m83aef72eca" x="92.974375" y="93.614688" style="stroke: #000000; stroke-width: 0.8"/>
      </g>
     </g>
     <g id="text_14">
      <!-- 0.8 -->
      <g transform="translate(50.9875 101.972969)scale(0.22 -0.22)">
       <defs>
        <path id="DejaVuSans-38" d="M 2034 2216 
Q 1584 2216 1326 1975 
Q 1069 1734 1069 1313 
Q 1069 891 1326 650 
Q 1584 409 2034 409 
Q 2484 409 2743 651 
Q 3003 894 3003 1313 
Q 3003 1734 2745 1975 
Q 2488 2216 2034 2216 
z
M 1403 2484 
Q 997 2584 770 2862 
Q 544 3141 544 3541 
Q 544 4100 942 4425 
Q 1341 4750 2034 4750 
Q 2731 4750 3128 4425 
Q 3525 4100 3525 3541 
Q 3525 3141 3298 2862 
Q 3072 2584 2669 2484 
Q 3125 2378 3379 2068 
Q 3634 1759 3634 1313 
Q 3634 634 3220 271 
Q 2806 -91 2034 -91 
Q 1263 -91 848 271 
Q 434 634 434 1313 
Q 434 1759 690 2068 
Q 947 2378 1403 2484 
z
M 1172 3481 
Q 1172 3119 1398 2916 
Q 1625 2713 2034 2713 
Q 2441 2713 2670 2916 
Q 2900 3119 2900 3481 
Q 2900 3844 2670 4047 
Q 2441 4250 2034 4250 
Q 1625 4250 1398 4047 
Q 1172 3844 1172 3481 
z
" transform="scale(0.015625)"/>
       </defs>
       <use xlink:href="#DejaVuSans-30"/>
       <use xlink:href="#DejaVuSans-2e" x="63.623047"/>
       <use xlink:href="#DejaVuSans-38" x="95.410156"/>
      </g>
     </g>
    </g>
    <g id="ytick_6">
     <g id="line2d_27">
      <path d="M 92.974375 37.730937 
L 897.84 37.730937 
" clip-path="url(#p886b5d5631)" style="fill: none; stroke: #b0b0b0; stroke-width: 0.8; stroke-linecap: square"/>
     </g>
     <g id="line2d_28">
      <g>
       <use xlink:href="#m83aef72eca" x="92.974375" y="37.730937" style="stroke: #000000; stroke-width: 0.8"/>
      </g>
     </g>
     <g id="text_15">
      <!-- 1.0 -->
      <g transform="translate(50.9875 46.089219)scale(0.22 -0.22)">
       <use xlink:href="#DejaVuSans-31"/>
       <use xlink:href="#DejaVuSans-2e" x="63.623047"/>
       <use xlink:href="#DejaVuSans-30" x="95.410156"/>
      </g>
     </g>
    </g>
    <g id="text_16">
     <!-- Likelihood of occurrence -->
     <g transform="translate(41.99625 323.628438)rotate(-90)scale(0.24 -0.24)">
      <defs>
       <path id="DejaVuSans-4c" d="M 628 4666 
L 1259 4666 
L 1259 531 
L 3531 531 
L 3531 0 
L 628 0 
L 628 4666 
z
" transform="scale(0.015625)"/>
       <path id="DejaVuSans-69" d="M 603 3500 
L 1178 3500 
L 1178 0 
L 603 0 
L 603 3500 
z
M 603 4863 
L 1178 4863 
L 1178 4134 
L 603 4134 
L 603 4863 
z
" transform="scale(0.015625)"/>
       <path id="DejaVuSans-6b" d="M 581 4863 
L 1159 4863 
L 1159 1991 
L 2875 3500 
L 3609 3500 
L 1753 1863 
L 3688 0 
L 2938 0 
L 1159 1709 
L 1159 0 
L 581 0 
L 581 4863 
z
" transform="scale(0.015625)"/>
       <path id="DejaVuSans-65" d="M 3597 1894 
L 3597 1613 
L 953 1613 
Q 991 1019 1311 708 
Q 1631 397 2203 397 
Q 2534 397 2845 478 
Q 3156 559 3463 722 
L 3463 178 
Q 3153 47 2828 -22 
Q 2503 -91 2169 -91 
Q 1331 -91 842 396 
Q 353 884 353 1716 
Q 353 2575 817 3079 
Q 1281 3584 2069 3584 
Q 2775 3584 3186 3129 
Q 3597 2675 3597 1894 
z
M 3022 2063 
Q 3016 2534 2758 2815 
Q 2500 3097 2075 3097 
Q 1594 3097 1305 2825 
Q 1016 2553 972 2059 
L 3022 2063 
z
" transform="scale(0.015625)"/>
       <path id="DejaVuSans-6c" d="M 603 4863 
L 1178 4863 
L 1178 0 
L 603 0 
L 603 4863 
z
" transform="scale(0.015625)"/>
       <path id="DejaVuSans-68" d="M 3513 2113 
L 3513 0 
L 2938 0 
L 2938 2094 
Q 2938 2591 2744 2837 
Q 2550 3084 2163 3084 
Q 1697 3084 1428 2787 
Q 1159 2491 1159 1978 
L 1159 0 
L 581 0 
L 581 4863 
L 1159 4863 
L 1159 2956 
Q 1366 3272 1645 3428 
Q 1925 3584 2291 3584 
Q 2894 3584 3203 3211 
Q 3513 2838 3513 2113 
z
" transform="scale(0.015625)"/>
       <path id="DejaVuSans-6f" d="M 1959 3097 
Q 1497 3097 1228 2736 
Q 959 2375 959 1747 
Q 959 1119 1226 758 
Q 1494 397 1959 397 
Q 2419 397 2687 759 
Q 2956 1122 2956 1747 
Q 2956 2369 2687 2733 
Q 2419 3097 1959 3097 
z
M 1959 3584 
Q 2709 3584 3137 3096 
Q 3566 2609 3566 1747 
Q 3566 888 3137 398 
Q 2709 -91 1959 -91 
Q 1206 -91 779 398 
Q 353 888 353 1747 
Q 353 2609 779 3096 
Q 1206 3584 1959 3584 
z
" transform="scale(0.015625)"/>
       <path id="DejaVuSans-64" d="M 2906 2969 
L 2906 4863 
L 3481 4863 
L 3481 0 
L 2906 0 
L 2906 525 
Q 2725 213 2448 61 
Q 2172 -91 1784 -91 
Q 1150 -91 751 415 
Q 353 922 353 1747 
Q 353 2572 751 3078 
Q 1150 3584 1784 3584 
Q 2172 3584 2448 3432 
Q 2725 3281 2906 2969 
z
M 947 1747 
Q 947 1113 1208 752 
Q 1469 391 1925 391 
Q 2381 391 2643 752 
Q 2906 1113 2906 1747 
Q 2906 2381 2643 2742 
Q 2381 3103 1925 3103 
Q 1469 3103 1208 2742 
Q 947 2381 947 1747 
z
" transform="scale(0.015625)"/>
       <path id="DejaVuSans-66" d="M 2375 4863 
L 2375 4384 
L 1825 4384 
Q 1516 4384 1395 4259 
Q 1275 4134 1275 3809 
L 1275 3500 
L 2222 3500 
L 2222 3053 
L 1275 3053 
L 1275 0 
L 697 0 
L 697 3053 
L 147 3053 
L 147 3500 
L 697 3500 
L 697 3744 
Q 697 4328 969 4595 
Q 1241 4863 1831 4863 
L 2375 4863 
z
" transform="scale(0.015625)"/>
       <path id="DejaVuSans-63" d="M 3122 3366 
L 3122 2828 
Q 2878 2963 2633 3030 
Q 2388 3097 2138 3097 
Q 1578 3097 1268 2742 
Q 959 2388 959 1747 
Q 959 1106 1268 751 
Q 1578 397 2138 397 
Q 2388 397 2633 464 
Q 2878 531 3122 666 
L 3122 134 
Q 2881 22 2623 -34 
Q 2366 -91 2075 -91 
Q 1284 -91 818 406 
Q 353 903 353 1747 
Q 353 2603 823 3093 
Q 1294 3584 2113 3584 
Q 2378 3584 2631 3529 
Q 2884 3475 3122 3366 
z
" transform="scale(0.015625)"/>
       <path id="DejaVuSans-75" d="M 544 1381 
L 544 3500 
L 1119 3500 
L 1119 1403 
Q 1119 906 1312 657 
Q 1506 409 1894 409 
Q 2359 409 2629 706 
Q 2900 1003 2900 1516 
L 2900 3500 
L 3475 3500 
L 3475 0 
L 2900 0 
L 2900 538 
Q 2691 219 2414 64 
Q 2138 -91 1772 -91 
Q 1169 -91 856 284 
Q 544 659 544 1381 
z
M 1991 3584 
L 1991 3584 
z
" transform="scale(0.015625)"/>
       <path id="DejaVuSans-72" d="M 2631 2963 
Q 2534 3019 2420 3045 
Q 2306 3072 2169 3072 
Q 1681 3072 1420 2755 
Q 1159 2438 1159 1844 
L 1159 0 
L 581 0 
L 581 3500 
L 1159 3500 
L 1159 2956 
Q 1341 3275 1631 3429 
Q 1922 3584 2338 3584 
Q 2397 3584 2469 3576 
Q 2541 3569 2628 3553 
L 2631 2963 
z
" transform="scale(0.015625)"/>
       <path id="DejaVuSans-6e" d="M 3513 2113 
L 3513 0 
L 2938 0 
L 2938 2094 
Q 2938 2591 2744 2837 
Q 2550 3084 2163 3084 
Q 1697 3084 1428 2787 
Q 1159 2491 1159 1978 
L 1159 0 
L 581 0 
L 581 3500 
L 1159 3500 
L 1159 2956 
Q 1366 3272 1645 3428 
Q 1925 3584 2291 3584 
Q 2894 3584 3203 3211 
Q 3513 2838 3513 2113 
z
" transform="scale(0.015625)"/>
      </defs>
      <use xlink:href="#DejaVuSans-4c"/>
      <use xlink:href="#DejaVuSans-69" x="55.712891"/>
      <use xlink:href="#DejaVuSans-6b" x="83.496094"/>
      <use xlink:href="#DejaVuSans-65" x="137.78125"/>
      <use xlink:href="#DejaVuSans-6c" x="199.304688"/>
      <use xlink:href="#DejaVuSans-69" x="227.087891"/>
      <use xlink:href="#DejaVuSans-68" x="254.871094"/>
      <use xlink:href="#DejaVuSans-6f" x="318.25"/>
      <use xlink:href="#DejaVuSans-6f" x="379.431641"/>
      <use xlink:href="#DejaVuSans-64" x="440.613281"/>
      <use xlink:href="#DejaVuSans-20" x="504.089844"/>
      <use xlink:href="#DejaVuSans-6f" x="535.876953"/>
      <use xlink:href="#DejaVuSans-66" x="597.058594"/>
      <use xlink:href="#DejaVuSans-20" x="632.263672"/>
      <use xlink:href="#DejaVuSans-6f" x="664.050781"/>
      <use xlink:href="#DejaVuSans-63" x="725.232422"/>
      <use xlink:href="#DejaVuSans-63" x="780.212891"/>
      <use xlink:href="#DejaVuSans-75" x="835.193359"/>
      <use xlink:href="#DejaVuSans-72" x="898.572266"/>
      <use xlink:href="#DejaVuSans-72" x="937.935547"/>
      <use xlink:href="#DejaVuSans-65" x="976.798828"/>
      <use xlink:href="#DejaVuSans-6e" x="1038.322266"/>
      <use xlink:href="#DejaVuSans-63" x="1101.701172"/>
      <use xlink:href="#DejaVuSans-65" x="1156.681641"/>
     </g>
    </g>
   </g>
   <g id="line2d_29">
    <path d="M 92.974375 317.149688 
L 115.847596 317.046409 
L 116.166387 316.943131 
L 121.506129 316.839853 
L 121.745221 316.788214 
L 123.81736 316.684936 
L 124.056453 316.633297 
L 130.591659 316.530019 
L 130.830752 316.47838 
L 132.424705 316.426741 
L 132.5841 316.323463 
L 134.098355 316.220185 
L 134.25775 316.116907 
L 135.214122 316.065268 
L 135.453215 315.858712 
L 135.851703 315.755434 
L 136.170493 315.652156 
L 136.648679 315.548878 
L 136.808075 315.4456 
L 137.047167 315.342322 
L 137.28626 315.290683 
L 137.684749 315.239044 
L 137.844144 315.084127 
L 138.32233 315.084127 
L 138.481725 314.92921 
L 138.959911 314.825931 
L 139.119306 314.722653 
L 139.199004 314.722653 
L 139.358399 314.516097 
L 139.677189 314.412819 
L 140.235073 314.309541 
L 140.394468 314.206263 
L 141.111747 314.102985 
L 141.271142 313.948068 
L 141.66963 313.793151 
L 142.147816 313.689873 
L 142.466607 313.586595 
L 142.944793 313.483317 
L 143.980862 312.915288 
L 144.219955 312.81201 
L 144.37935 312.657093 
L 144.857536 312.553815 
L 145.016931 312.450536 
L 145.096629 312.450536 
L 145.335722 312.089063 
L 145.495117 312.089063 
L 145.654512 311.882507 
L 145.893605 311.830868 
L 146.053 311.675951 
L 146.132698 311.675951 
L 146.292093 311.521034 
L 147.009372 311.417756 
L 147.328162 311.314478 
L 147.567255 311.2112 
L 147.726651 311.107922 
L 147.806348 311.107922 
L 147.965744 310.798088 
L 148.204836 310.69481 
L 148.364232 310.488254 
L 149.08151 310.384976 
L 149.240906 310.281698 
L 149.479999 310.178419 
L 149.639394 310.023502 
L 150.11758 309.920224 
L 150.276975 309.765307 
L 150.994254 309.713668 
L 151.233347 309.507112 
L 151.79123 309.455473 
L 151.950625 309.352195 
L 152.827299 309.248917 
L 153.066392 309.197278 
L 153.305485 309.197278 
L 153.544578 308.835805 
L 153.703973 308.835805 
L 153.863369 308.57761 
L 154.102462 308.474332 
L 154.261857 308.371054 
L 154.740043 308.267776 
L 154.899438 308.164498 
L 155.377624 308.112859 
L 155.537019 307.957942 
L 155.776112 307.906302 
L 155.935507 307.648107 
L 156.015205 307.648107 
L 156.1746 307.49319 
L 156.413693 307.389912 
L 156.812181 307.234995 
L 156.891879 307.234995 
L 157.051274 307.080078 
L 157.290367 307.080078 
L 157.449762 306.925161 
L 157.688855 306.873522 
L 157.84825 306.718605 
L 158.087343 306.615327 
L 158.246739 306.408771 
L 158.565529 306.357132 
L 158.804622 306.098937 
L 159.20311 305.995659 
L 159.521901 305.892381 
L 160.000087 305.789103 
L 160.159482 305.685825 
L 160.478272 305.582546 
L 160.717365 305.221073 
L 161.036156 305.169434 
L 161.195551 305.066156 
L 161.91283 305.014517 
L 162.072225 304.911239 
L 162.311318 304.807961 
L 162.869201 304.549766 
L 163.825573 304.446488 
L 164.064666 304.188293 
L 164.463154 304.136654 
L 164.702247 303.82682 
L 165.738316 303.723542 
L 165.977409 303.568625 
L 166.136804 303.568625 
L 166.2962 303.362069 
L 167.172874 302.897317 
L 168.049548 302.794039 
L 168.208943 302.587483 
L 168.607431 302.535844 
L 168.766826 302.329288 
L 169.085617 302.22601 
L 169.32471 301.967815 
L 170.121686 301.864537 
L 170.281082 301.70962 
L 170.360779 301.70962 
L 170.520174 301.503064 
L 170.918663 301.348147 
L 170.99836 301.348147 
L 171.157756 301.19323 
L 171.556244 301.141591 
L 171.715639 301.038313 
L 172.193825 300.935034 
L 172.592313 300.780117 
L 173.070499 300.676839 
L 173.548685 300.470283 
L 173.947173 300.367005 
L 174.186266 300.315366 
L 174.505056 300.212088 
L 174.664451 300.005532 
L 174.744149 300.005532 
L 174.903544 299.850615 
L 174.983242 299.850615 
L 175.142637 299.437503 
L 175.461428 299.334225 
L 176.258404 299.230947 
L 176.497497 299.024391 
L 176.656892 299.024391 
L 176.816288 298.662917 
L 176.975683 298.508 
L 177.294473 298.456361 
L 177.453869 298.301444 
L 177.692962 298.249805 
L 178.09145 298.146527 
L 178.250845 297.99161 
L 178.729031 297.888332 
L 178.888426 297.733415 
L 178.968124 297.733415 
L 179.127519 297.47522 
L 179.207217 297.47522 
L 179.44631 297.165386 
L 179.7651 297.113747 
L 179.924495 296.95883 
L 180.004193 296.95883 
L 180.163588 296.752274 
L 180.402681 296.700635 
L 180.562077 296.597357 
L 180.880867 296.597357 
L 181.040262 296.44244 
L 181.359053 296.339161 
L 181.677843 296.339161 
L 181.837239 296.132605 
L 182.713913 296.029327 
L 182.873308 295.822771 
L 182.953006 295.822771 
L 183.112401 295.667854 
L 183.351494 295.564576 
L 183.510889 295.409659 
L 183.590587 295.409659 
L 183.749982 295.151464 
L 184.467261 295.048186 
L 184.706354 294.893269 
L 185.264237 294.789991 
L 185.423632 294.635074 
L 185.50333 294.635074 
L 185.662725 294.376879 
L 185.82212 294.273601 
L 186.140911 294.170323 
L 186.937887 293.75721 
L 187.575468 293.653932 
L 187.734864 293.344098 
L 188.21305 293.24082 
L 188.53184 293.137542 
L 189.089724 293.085903 
L 189.328816 292.879347 
L 189.8867 292.776069 
L 190.046095 292.517874 
L 190.524281 292.414596 
L 190.683676 292.311318 
L 191.161862 292.259679 
L 191.321257 292.104762 
L 191.56035 292.053123 
L 191.719746 291.898206 
L 192.038536 291.846567 
L 192.197931 291.64001 
L 192.357327 291.536732 
L 192.437024 291.536732 
L 192.59642 291.381815 
L 192.835512 291.330176 
L 193.074605 291.330176 
L 193.234001 291.175259 
L 193.552791 291.071981 
L 193.871582 291.020342 
L 194.030977 290.917064 
L 194.110675 290.917064 
L 194.27007 290.60723 
L 194.349767 290.60723 
L 194.58886 290.349035 
L 195.385837 290.245757 
L 195.62493 289.884284 
L 196.023418 289.832645 
L 196.262511 289.626089 
L 196.421906 289.626089 
L 196.581301 289.471172 
L 197.059487 289.419532 
L 197.218882 289.264615 
L 197.457975 289.161337 
L 197.617371 289.00642 
L 198.095556 288.903142 
L 198.254952 288.799864 
L 198.733137 288.696586 
L 198.892533 288.593308 
L 199.370719 288.49003 
L 199.530114 288.386752 
L 199.769207 288.283474 
L 200.087997 288.180196 
L 200.406788 288.128557 
L 200.566183 287.870362 
L 200.805276 287.818723 
L 200.964671 287.612167 
L 201.68195 287.508889 
L 201.841345 287.250694 
L 201.921043 287.250694 
L 202.080438 287.095776 
L 202.957112 287.044137 
L 203.116507 286.88922 
L 203.993181 286.785942 
L 204.949553 286.269552 
L 205.029251 286.269552 
L 205.188646 285.959718 
L 205.507436 285.85644 
L 205.746529 285.701523 
L 206.304413 285.598245 
L 206.463808 285.494967 
L 206.543506 285.494967 
L 206.782599 285.185133 
L 207.181087 285.133494 
L 207.42018 284.926938 
L 207.818668 284.926938 
L 208.057761 284.617103 
L 208.615644 284.513825 
L 208.77504 284.358908 
L 209.014132 284.25563 
L 209.173528 284.049074 
L 209.492318 283.945796 
L 209.811109 283.842518 
L 210.289295 283.73924 
L 210.528388 283.687601 
L 210.926876 283.635962 
L 211.086271 283.429406 
L 211.165969 283.429406 
L 211.325364 283.22285 
L 211.883247 282.964655 
L 212.202038 282.913016 
L 212.361433 282.809738 
L 212.839619 282.70646 
L 212.999014 282.551543 
L 213.078712 282.551543 
L 213.238107 282.396625 
L 213.4772 282.344986 
L 214.513269 282.293347 
L 214.672665 282.190069 
L 214.752362 282.190069 
L 214.991455 281.880235 
L 215.389943 281.776957 
L 215.629036 281.518762 
L 216.18692 281.415484 
L 216.426013 281.363845 
L 216.824501 281.260567 
L 216.983896 281.157289 
L 217.462082 281.10565 
L 217.621477 281.002372 
L 218.099663 280.950733 
L 218.259058 280.847455 
L 218.737244 280.795816 
L 218.896639 280.692538 
L 219.135732 280.692538 
L 219.295127 280.537621 
L 219.374825 280.537621 
L 219.53422 280.382704 
L 220.092104 280.124508 
L 220.649987 280.02123 
L 220.88908 279.556479 
L 221.287568 279.453201 
L 221.446964 279.298284 
L 221.686057 279.246645 
L 222.722126 279.246645 
L 222.881521 279.040089 
L 222.961219 279.040089 
L 223.200312 278.730255 
L 223.5988 278.626977 
L 224.316078 278.265504 
L 225.033357 278.162226 
L 225.352148 278.058948 
L 225.670938 278.007309 
L 225.830334 277.852391 
L 226.707008 277.749113 
L 226.866403 277.645835 
L 226.9461 277.645835 
L 227.185193 277.336001 
L 227.583682 277.336001 
L 227.822774 276.974528 
L 228.858844 276.87125 
L 229.097937 276.819611 
L 229.65582 276.716333 
L 229.815215 276.613055 
L 229.894913 276.613055 
L 230.054308 276.458138 
L 230.293401 276.458138 
L 230.452796 276.303221 
L 231.170075 276.199943 
L 231.32947 275.941748 
L 231.727959 275.786831 
L 231.807656 275.786831 
L 231.967051 275.631914 
L 232.68433 275.27044 
L 233.481307 275.167162 
L 234.915864 274.340938 
L 235.314352 274.23766 
L 235.553445 274.186021 
L 235.792538 274.186021 
L 236.031631 273.876187 
L 236.191026 273.876187 
L 236.350421 273.72127 
L 236.589514 273.669631 
L 236.74891 273.566353 
L 237.0677 273.514714 
L 237.306793 273.359797 
L 237.864677 273.308158 
L 238.024072 273.204879 
L 238.263165 273.15324 
L 238.42256 272.998323 
L 238.502258 272.998323 
L 238.661653 272.843406 
L 239.139839 272.740128 
L 239.378932 272.688489 
L 240.175908 272.585211 
L 240.335303 272.378655 
L 240.574396 272.327016 
L 240.733791 272.172099 
L 241.211977 272.12046 
L 241.371372 272.017182 
L 241.849558 271.913904 
L 243.841999 270.726206 
L 244.16079 270.622928 
L 244.718673 270.364733 
L 245.037464 270.261455 
L 245.196859 270.158177 
L 245.276557 270.158177 
L 245.51565 269.899982 
L 245.83444 269.848343 
L 245.993835 269.745065 
L 246.472021 269.641787 
L 246.631416 269.48687 
L 246.950207 269.383592 
L 247.50809 269.125397 
L 248.225369 269.022119 
L 249.181741 268.505728 
L 249.659927 268.40245 
L 249.89902 268.350811 
L 250.536601 268.299172 
L 250.855391 267.989338 
L 250.935089 267.989338 
L 251.094484 267.834421 
L 251.333577 267.782782 
L 252.210251 267.679504 
L 252.369646 267.472948 
L 252.847832 267.472948 
L 253.086925 267.163114 
L 253.485413 267.111475 
L 253.644808 267.008197 
L 254.521482 266.904919 
L 255.477854 266.388529 
L 255.557552 266.388529 
L 255.716947 266.233611 
L 256.195133 266.130333 
L 257.151504 265.613943 
L 257.62969 265.510665 
L 257.789085 265.25247 
L 258.267271 265.149192 
L 258.426667 265.045914 
L 258.904852 264.942636 
L 259.064248 264.839358 
L 259.143945 264.839358 
L 259.303341 264.529524 
L 259.462736 264.426246 
L 259.542433 264.426246 
L 259.701829 264.21969 
L 260.817596 264.116412 
L 261.136386 264.013133 
L 261.216084 264.013133 
L 261.375479 263.806577 
L 261.614572 263.703299 
L 262.172455 263.445104 
L 262.889734 263.341826 
L 263.049129 263.238548 
L 263.128827 263.238548 
L 263.288222 263.031992 
L 263.36792 263.031992 
L 263.607013 262.773797 
L 263.766408 262.773797 
L 263.925803 262.515602 
L 264.005501 262.515602 
L 264.164896 262.309046 
L 264.643082 262.10249 
L 265.04157 261.999212 
L 265.838547 261.482821 
L 265.997942 261.224626 
L 266.715221 261.121348 
L 266.874616 260.966431 
L 267.273104 260.811514 
L 267.352802 260.811514 
L 267.591895 260.553319 
L 267.990383 260.50168 
L 268.149778 260.140207 
L 268.468569 260.036929 
L 269.42494 259.933651 
L 270.381312 259.41726 
L 271.337683 259.313982 
L 271.576776 259.262343 
L 271.736172 258.797592 
L 271.895567 258.642675 
L 272.214357 258.591036 
L 272.373753 258.38448 
L 272.533148 258.281202 
L 272.772241 258.229563 
L 272.931636 258.126285 
L 273.409822 258.023007 
L 273.728613 257.919729 
L 274.047403 257.816451 
L 274.206798 257.609895 
L 274.684984 257.506617 
L 274.844379 257.403339 
L 275.322565 257.300061 
L 275.641356 257.196783 
L 275.960146 257.145144 
L 276.119542 257.041865 
L 276.199239 257.041865 
L 276.438332 256.732031 
L 276.83682 256.628753 
L 277.075913 256.577114 
L 277.87289 256.473836 
L 278.829261 255.957446 
L 278.908959 255.957446 
L 279.068354 255.75089 
L 279.54654 255.699251 
L 279.705935 255.544334 
L 279.945028 255.441056 
L 280.104423 255.337778 
L 280.184121 255.337778 
L 280.423214 254.976305 
L 280.821702 254.873027 
L 281.299888 254.66647 
L 282.096864 254.563192 
L 283.212631 253.943524 
L 283.92991 253.943524 
L 284.089305 253.788607 
L 284.169003 253.788607 
L 284.328398 253.63369 
L 284.567491 253.530412 
L 284.726886 253.323856 
L 285.045677 253.220578 
L 285.28477 253.065661 
L 285.60356 252.962383 
L 285.922351 252.859105 
L 286.081746 252.859105 
L 286.241141 252.704188 
L 286.559932 252.60091 
L 286.878722 252.497632 
L 287.038118 252.342714 
L 287.516304 252.291075 
L 287.675699 252.136158 
L 287.994489 252.084519 
L 288.153885 251.929602 
L 288.552373 251.774685 
L 288.791466 251.774685 
L 288.950861 251.619768 
L 289.429047 251.51649 
L 290.066628 251.206656 
L 290.465116 251.103378 
L 290.624511 250.948461 
L 290.704209 250.948461 
L 290.863604 250.741905 
L 291.102697 250.690266 
L 291.34179 250.690266 
L 291.501185 250.48371 
L 291.660581 250.380432 
L 291.979371 250.277154 
L 292.537255 250.018958 
L 292.616952 250.018958 
L 292.776347 249.760763 
L 293.573324 249.347651 
L 294.290603 249.244373 
L 294.609393 249.141095 
L 294.928184 249.089456 
L 295.246974 248.831261 
L 295.565765 248.727983 
L 296.043951 248.521427 
L 296.362741 248.469788 
L 296.522136 248.263232 
L 296.601834 248.263232 
L 296.761229 248.108315 
L 297.478508 247.746841 
L 298.673972 247.643563 
L 298.833368 247.540285 
L 298.913065 247.540285 
L 299.072461 247.333729 
L 299.311554 247.28209 
L 299.710042 247.178812 
L 299.869437 246.972256 
L 300.825809 246.920617 
L 301.064902 246.610783 
L 301.46339 246.507505 
L 301.702483 246.146032 
L 302.260366 246.094393 
L 302.419761 245.991115 
L 303.13704 245.887837 
L 303.296435 245.836198 
L 303.455831 245.16489 
L 305.448272 245.16489 
L 305.607667 244.183749 
L 307.52041 244.183749 
L 307.679805 243.305886 
L 309.592549 243.305886 
L 309.751944 242.428022 
L 311.744385 242.428022 
L 311.90378 241.963271 
L 313.816523 241.963271 
L 313.975919 241.137047 
L 315.968359 241.137047 
L 316.127755 240.259183 
L 318.040498 240.259183 
L 318.199893 239.432959 
L 320.112636 239.432959 
L 320.272032 238.606734 
L 322.264473 238.606734 
L 322.423868 237.832149 
L 324.336611 237.832149 
L 324.496006 237.212481 
L 326.488447 237.212481 
L 326.647843 236.334618 
L 328.560586 236.334618 
L 328.719981 235.353476 
L 330.632724 235.353476 
L 330.79212 234.423974 
L 332.784561 234.423974 
L 332.943956 233.649388 
L 334.856699 233.649388 
L 335.016094 232.616608 
L 337.008535 232.616608 
L 337.16793 232.203496 
L 339.080674 232.203496 
L 339.240069 231.273993 
L 341.23251 231.273993 
L 341.391905 230.447769 
L 343.304648 230.447769 
L 343.464044 229.31171 
L 345.376787 229.31171 
L 345.536182 228.433847 
L 347.528623 228.433847 
L 347.688018 227.401067 
L 349.600762 227.401067 
L 349.760157 226.16173 
L 351.752598 226.16173 
L 351.911993 225.12895 
L 353.824736 225.12895 
L 353.984132 224.199447 
L 355.896875 224.199447 
L 356.05627 223.373223 
L 358.048711 223.373223 
L 358.208106 222.392081 
L 360.12085 222.392081 
L 360.280245 221.41094 
L 362.272686 221.41094 
L 362.432081 220.687994 
L 364.344824 220.687994 
L 364.50422 219.81013 
L 366.416963 219.81013 
L 366.576358 218.725711 
L 368.568799 218.725711 
L 368.728194 217.847847 
L 370.640937 217.847847 
L 370.800333 216.918345 
L 372.792774 216.918345 
L 372.952169 216.247038 
L 374.864912 216.247038 
L 375.024307 215.265896 
L 376.937051 215.265896 
L 377.096446 214.336394 
L 379.088887 214.336394 
L 379.248282 213.251975 
L 381.161025 213.251975 
L 381.320421 212.219194 
L 383.312862 212.219194 
L 383.472257 211.651165 
L 385.385 211.651165 
L 385.544395 210.82494 
L 387.457139 210.82494 
L 387.616534 210.101994 
L 389.608975 210.101994 
L 389.76837 209.482326 
L 391.681113 209.482326 
L 391.840509 208.604462 
L 393.832949 208.604462 
L 393.992345 207.571682 
L 395.905088 207.571682 
L 396.064483 206.797097 
L 397.977226 206.797097 
L 398.136622 206.177428 
L 400.129063 206.177428 
L 400.288458 205.402843 
L 402.201201 205.402843 
L 402.360596 204.576619 
L 404.353037 204.576619 
L 404.512433 203.595477 
L 406.425176 203.595477 
L 406.584571 202.717614 
L 408.497314 202.717614 
L 408.65671 201.994668 
L 410.649151 201.994668 
L 410.808546 201.065165 
L 412.721289 201.065165 
L 412.880684 200.084024 
L 414.873125 200.084024 
L 415.03252 199.102882 
L 416.945264 199.102882 
L 417.104659 198.121741 
L 419.017402 198.121741 
L 419.176798 197.347156 
L 421.169238 197.347156 
L 421.328634 196.417653 
L 423.241377 196.417653 
L 423.400772 195.643068 
L 425.393213 195.643068 
L 425.552608 194.868483 
L 427.465352 194.868483 
L 427.624747 194.093897 
L 429.53749 194.093897 
L 429.696885 193.061117 
L 431.689326 193.061117 
L 431.848722 192.131614 
L 433.761465 192.131614 
L 433.92086 191.357029 
L 435.913301 191.357029 
L 436.072696 190.117692 
L 437.98544 190.117692 
L 438.144835 188.878356 
L 440.057578 188.878356 
L 440.216973 188.052132 
L 442.209414 188.052132 
L 442.368809 187.122629 
L 444.281553 187.122629 
L 444.440948 186.089849 
L 446.433389 186.089849 
L 446.592784 185.315263 
L 448.505527 185.315263 
L 448.664923 184.230844 
L 450.577666 184.230844 
L 450.737061 183.559537 
L 452.729502 183.559537 
L 452.888897 182.526756 
L 454.801641 182.526756 
L 454.961036 181.855449 
L 456.953477 181.855449 
L 457.112872 180.977586 
L 459.025615 180.977586 
L 459.185011 179.944805 
L 461.097754 179.944805 
L 461.257149 179.015303 
L 463.24959 179.015303 
L 463.408985 177.982522 
L 465.321729 177.982522 
L 465.481124 177.001381 
L 467.473565 177.001381 
L 467.63296 176.433352 
L 469.545703 176.433352 
L 469.705099 175.555488 
L 471.617842 175.555488 
L 471.777237 174.884181 
L 473.769678 174.884181 
L 473.929073 174.057957 
L 475.841816 174.057957 
L 476.001212 173.438288 
L 477.993653 173.438288 
L 478.153048 172.715342 
L 480.065791 172.715342 
L 480.225186 171.630922 
L 482.13793 171.630922 
L 482.297325 170.907976 
L 484.289766 170.907976 
L 484.449161 169.875196 
L 486.361904 169.875196 
L 486.5213 169.152249 
L 488.513741 169.152249 
L 488.673136 168.429303 
L 490.585879 168.429303 
L 490.745274 167.603079 
L 492.737715 167.603079 
L 492.89711 166.776854 
L 494.809854 166.776854 
L 494.969249 166.053908 
L 496.881992 166.053908 
L 497.041388 165.021128 
L 499.033828 165.021128 
L 499.193224 164.143264 
L 501.105967 164.143264 
L 501.265362 163.162123 
L 503.257803 163.162123 
L 503.417198 161.974425 
L 505.329942 161.974425 
L 505.489337 161.251479 
L 507.40208 161.251479 
L 507.561475 160.528533 
L 509.553916 160.528533 
L 509.713312 159.59903 
L 511.626055 159.59903 
L 511.78545 158.927723 
L 513.777891 158.927723 
L 513.937286 157.946582 
L 515.85003 157.946582 
L 516.009425 156.913801 
L 517.922168 156.913801 
L 518.081563 155.93266 
L 520.074004 155.93266 
L 520.233399 155.106435 
L 522.146143 155.106435 
L 522.305538 154.435128 
L 524.297979 154.435128 
L 524.457374 153.144152 
L 526.370117 153.144152 
L 526.529513 152.163011 
L 528.442256 152.163011 
L 528.601651 151.233509 
L 530.594092 151.233509 
L 530.753487 150.200728 
L 532.666231 150.200728 
L 532.825626 149.219587 
L 534.818067 149.219587 
L 534.977462 148.135167 
L 536.890205 148.135167 
L 537.049601 147.412221 
L 538.962344 147.412221 
L 539.121739 146.43108 
L 541.11418 146.43108 
L 541.273575 145.86305 
L 543.186319 145.86305 
L 543.345714 144.933548 
L 545.338155 144.933548 
L 545.49755 144.004046 
L 547.410293 144.004046 
L 547.569688 142.919626 
L 549.482432 142.919626 
L 549.641827 142.19668 
L 551.634268 142.19668 
L 551.793663 141.215538 
L 553.706406 141.215538 
L 553.865802 140.07948 
L 555.858243 140.07948 
L 556.017638 139.459812 
L 557.930381 139.459812 
L 558.089776 138.47867 
L 560.00252 138.47867 
L 560.161915 137.600807 
L 562.154356 137.600807 
L 562.313751 136.722943 
L 564.226494 136.722943 
L 564.38589 136.103275 
L 566.37833 136.103275 
L 566.537726 135.122134 
L 568.450469 135.122134 
L 568.609864 134.399187 
L 570.522608 134.399187 
L 570.682003 133.624602 
L 572.674444 133.624602 
L 572.833839 132.746739 
L 574.746582 132.746739 
L 574.905978 132.12707 
L 576.898418 132.12707 
L 577.057814 131.300846 
L 578.970557 131.300846 
L 579.129952 130.629539 
L 581.042695 130.629539 
L 581.202091 129.596758 
L 583.194532 129.596758 
L 583.353927 128.512339 
L 585.26667 128.512339 
L 585.426065 127.789392 
L 587.418506 127.789392 
L 587.577902 126.911529 
L 589.490645 126.911529 
L 589.65004 125.82711 
L 591.562783 125.82711 
L 591.722179 125.000885 
L 593.71462 125.000885 
L 593.874015 124.123022 
L 595.786758 124.123022 
L 595.946153 123.296798 
L 597.938594 123.296798 
L 598.097989 122.160739 
L 600.010733 122.160739 
L 600.170128 121.437793 
L 602.082871 121.437793 
L 602.242267 120.456651 
L 604.234707 120.456651 
L 604.394103 119.114037 
L 606.306846 119.114037 
L 606.466241 118.39109 
L 608.458682 118.39109 
L 608.618077 117.771422 
L 610.530821 117.771422 
L 610.690216 116.480447 
L 612.602959 116.480447 
L 612.762354 115.602583 
L 614.754795 115.602583 
L 614.914191 114.982915 
L 616.826934 114.982915 
L 616.986329 113.795217 
L 618.97877 113.795217 
L 619.138165 112.968993 
L 621.050909 112.968993 
L 621.210304 111.936213 
L 623.123047 111.936213 
L 623.282442 111.368183 
L 625.274883 111.368183 
L 625.434278 110.387042 
L 627.347022 110.387042 
L 627.506417 109.509179 
L 629.498858 109.509179 
L 629.658253 108.786232 
L 631.570996 108.786232 
L 631.730392 107.753452 
L 633.643135 107.753452 
L 633.80253 107.030506 
L 635.794971 107.030506 
L 635.954366 106.307559 
L 637.86711 106.307559 
L 638.026505 105.326418 
L 640.018946 105.326418 
L 640.178341 104.345276 
L 642.091084 104.345276 
L 642.25048 103.570691 
L 644.163223 103.570691 
L 644.322618 103.002662 
L 646.315059 103.002662 
L 646.474454 102.124798 
L 648.387198 102.124798 
L 648.546593 100.98874 
L 650.539034 100.98874 
L 650.698429 100.575628 
L 652.611172 100.575628 
L 652.770567 99.852681 
L 654.763008 99.852681 
L 654.922404 98.974818 
L 656.835147 98.974818 
L 656.994542 98.096955 
L 658.907285 98.096955 
L 659.066681 97.012535 
L 661.059122 97.012535 
L 661.218517 96.341228 
L 663.13126 96.341228 
L 663.290655 95.72156 
L 665.283096 95.72156 
L 665.442492 94.895335 
L 667.355235 94.895335 
L 667.51463 94.172389 
L 669.427373 94.172389 
L 669.586769 93.191248 
L 671.579209 93.191248 
L 671.738605 92.468301 
L 673.651348 92.468301 
L 673.810743 91.48716 
L 675.803184 91.48716 
L 675.962579 90.609296 
L 677.875323 90.609296 
L 678.034718 89.473238 
L 679.947461 89.473238 
L 680.106857 88.595375 
L 682.099297 88.595375 
L 682.258693 87.562594 
L 684.171436 87.562594 
L 684.330831 86.684731 
L 686.323272 86.684731 
L 686.482667 85.755228 
L 688.395411 85.755228 
L 688.554806 84.877365 
L 690.467549 84.877365 
L 690.626944 83.689667 
L 692.619385 83.689667 
L 692.778781 82.966721 
L 694.691524 82.966721 
L 694.850919 82.295414 
L 696.84336 82.295414 
L 697.002755 81.159355 
L 698.915499 81.159355 
L 699.074894 80.488048 
L 700.987637 80.488048 
L 701.147032 79.713463 
L 703.139473 79.713463 
L 703.298868 78.525765 
L 705.211612 78.525765 
L 705.371007 77.854458 
L 707.363448 77.854458 
L 707.522843 76.615121 
L 709.435586 76.615121 
L 709.594982 75.995453 
L 711.507725 75.995453 
L 711.66712 75.065951 
L 713.659561 75.065951 
L 713.818956 74.394643 
L 715.7317 74.394643 
L 715.891095 73.568419 
L 717.883536 73.568419 
L 718.042931 72.742195 
L 719.955674 72.742195 
L 720.11507 71.864331 
L 722.027813 71.864331 
L 722.187208 70.728273 
L 724.179649 70.728273 
L 724.339044 69.953687 
L 726.251788 69.953687 
L 726.411183 69.28238 
L 728.403624 69.28238 
L 728.563019 68.817629 
L 730.475762 68.817629 
L 730.635157 67.888127 
L 732.547901 67.888127 
L 732.707296 67.113541 
L 734.699737 67.113541 
L 734.859132 66.338956 
L 736.771875 66.338956 
L 736.931271 65.770927 
L 738.923712 65.770927 
L 739.083107 64.944702 
L 740.99585 64.944702 
L 741.155245 63.963561 
L 743.067989 63.963561 
L 743.227384 63.034058 
L 745.219825 63.034058 
L 745.37922 62.207834 
L 747.291963 62.207834 
L 747.451359 61.743083 
L 749.443799 61.743083 
L 749.603195 60.916859 
L 751.515938 60.916859 
L 751.675333 60.193912 
L 753.588077 60.193912 
L 753.747472 59.057854 
L 755.739913 59.057854 
L 755.899308 58.231629 
L 757.812051 58.231629 
L 757.971446 57.560322 
L 759.963887 57.560322 
L 760.123283 56.785737 
L 762.036026 56.785737 
L 762.195421 55.701317 
L 764.108164 55.701317 
L 764.26756 54.978371 
L 766.260001 54.978371 
L 766.419396 54.048869 
L 768.332139 54.048869 
L 768.491534 53.222644 
L 770.483975 53.222644 
L 770.643371 52.241503 
L 772.556114 52.241503 
L 772.715509 51.260361 
L 774.628252 51.260361 
L 774.787648 50.27922 
L 776.780088 50.27922 
L 776.939484 49.452996 
L 778.852227 49.452996 
L 779.011622 48.575132 
L 781.004063 48.575132 
L 781.163458 47.542352 
L 783.076202 47.542352 
L 783.235597 47.12924 
L 785.14834 47.12924 
L 785.307736 45.941542 
L 787.300176 45.941542 
L 787.459572 45.115318 
L 789.372315 45.115318 
L 789.53171 44.237454 
L 791.524151 44.237454 
L 791.683546 43.462869 
L 793.59629 43.462869 
L 793.755685 42.481728 
L 795.668428 42.481728 
L 795.827823 41.707142 
L 797.820264 41.707142 
L 797.97966 40.880918 
L 799.892403 40.880918 
L 800.051798 40.209611 
L 802.044239 40.209611 
L 802.203634 39.228469 
L 804.116378 39.228469 
L 804.275773 38.866996 
L 806.188516 38.866996 
L 806.347911 38.040772 
L 808.340352 38.040772 
L 808.499747 37.885855 
L 881.980967 37.782577 
L 882.22006 37.730938 
L 889.871033 37.730938 
L 889.871033 37.730938 
" clip-path="url(#p886b5d5631)" style="fill: none; stroke: #1f77b4; stroke-width: 2; stroke-linecap: square"/>
   </g>
   <g id="line2d_30">
    <path d="M 92.974375 317.149688 
L 105.725997 317.149688 
L 105.885392 316.547978 
L 106.204183 314.216355 
L 106.762066 308.048835 
L 107.001159 300.000973 
L 107.479345 272.472773 
L 108.356019 219.371928 
L 109.31239 174.544587 
L 110.109367 149.573651 
L 110.34846 137.088183 
L 111.304831 80.677938 
L 111.783017 73.231785 
L 112.101808 70.749735 
L 112.500296 69.095034 
L 112.659691 68.267684 
L 113.058179 65.559992 
L 113.37697 64.431787 
L 113.775458 63.830078 
L 114.173946 63.754864 
L 116.006992 62.02495 
L 116.166387 61.573668 
L 116.246085 61.573668 
L 116.40548 61.272813 
L 116.485178 61.272813 
L 116.803968 60.896745 
L 116.883666 60.896745 
L 117.043061 60.671104 
L 117.282154 60.59589 
L 117.919735 59.918967 
L 118.07913 59.392472 
L 118.158828 59.392472 
L 118.318223 58.565122 
L 118.477618 58.189053 
L 118.557316 58.189053 
L 118.716711 57.888199 
L 118.796409 57.888199 
L 118.955804 57.211276 
L 119.115199 56.985635 
L 119.194897 56.985635 
L 119.354292 56.233498 
L 119.43399 56.233498 
L 119.673083 54.654011 
L 119.832478 54.654011 
L 119.991873 54.127516 
L 120.071571 54.127516 
L 120.310664 53.149738 
L 120.470059 53.149738 
L 120.629455 52.698456 
L 120.709152 52.698456 
L 121.027943 50.592474 
L 121.10764 50.592474 
L 121.346733 46.83179 
L 121.506129 46.83179 
L 121.665524 44.951449 
L 121.745221 44.951449 
L 121.904617 43.597603 
L 122.064012 43.071107 
L 122.14371 43.071107 
L 122.303105 42.619825 
L 122.382803 42.619825 
L 122.621895 42.394184 
L 122.781291 42.394184 
L 122.940686 42.243757 
L 123.179779 42.243757 
L 123.339174 42.09333 
L 123.418872 42.09333 
L 123.578267 41.942903 
L 124.056453 41.942903 
L 124.215848 41.792475 
L 124.853429 41.717262 
L 125.17222 41.566834 
L 126.766172 41.566834 
L 126.925568 41.416407 
L 127.164661 41.416407 
L 127.324056 41.26598 
L 128.439823 41.190766 
L 128.678916 41.115552 
L 129.475892 41.040339 
L 129.714985 40.965125 
L 130.352566 40.889911 
L 130.591659 40.814698 
L 130.990147 40.739484 
L 131.149542 40.513843 
L 131.627728 40.438629 
L 131.866821 40.137775 
L 132.026216 40.137775 
L 132.185612 39.83692 
L 132.663798 39.761706 
L 132.823193 39.611279 
L 133.540472 39.536065 
L 133.779564 39.460852 
L 138.800515 39.385638 
L 139.039608 39.310424 
L 140.633561 39.235211 
L 140.872654 39.159997 
L 141.749328 39.084783 
L 141.988421 38.483074 
L 142.546304 38.40786 
L 142.7057 38.257433 
L 152.428811 38.182219 
L 152.667904 38.107006 
L 195.784325 38.031792 
L 196.023418 37.956578 
L 205.905925 37.881365 
L 206.145018 37.806151 
L 889.871033 37.730938 
L 889.871033 37.730938 
" clip-path="url(#p886b5d5631)" style="fill: none; stroke: #ff7f0e; stroke-width: 2; stroke-linecap: square"/>
   </g>
   <g id="patch_3">
    <path d="M 92.974375 331.120625 
L 92.974375 23.76 
" style="fill: none; stroke: #000000; stroke-width: 0.8; stroke-linejoin: miter; stroke-linecap: square"/>
   </g>
   <g id="patch_4">
    <path d="M 897.84 331.120625 
L 897.84 23.76 
" style="fill: none; stroke: #000000; stroke-width: 0.8; stroke-linejoin: miter; stroke-linecap: square"/>
   </g>
   <g id="patch_5">
    <path d="M 92.974375 331.120625 
L 897.84 331.120625 
" style="fill: none; stroke: #000000; stroke-width: 0.8; stroke-linejoin: miter; stroke-linecap: square"/>
   </g>
   <g id="patch_6">
    <path d="M 92.974375 23.76 
L 897.84 23.76 
" style="fill: none; stroke: #000000; stroke-width: 0.8; stroke-linejoin: miter; stroke-linecap: square"/>
   </g>
   <g id="legend_1">
    <g id="patch_7">
     <path d="M 682.8675 319.120625 
L 881.04 319.120625 
Q 885.84 319.120625 885.84 314.320625 
L 885.84 245.598125 
Q 885.84 240.798125 881.04 240.798125 
L 682.8675 240.798125 
Q 678.0675 240.798125 678.0675 245.598125 
L 678.0675 314.320625 
Q 678.0675 319.120625 682.8675 319.120625 
z
" style="fill: #ffffff; opacity: 0.8; stroke: #cccccc; stroke-linejoin: miter"/>
    </g>
    <g id="line2d_31">
     <path d="M 687.6675 260.234375 
L 711.6675 260.234375 
L 735.6675 260.234375 
" style="fill: none; stroke: #1f77b4; stroke-width: 2; stroke-linecap: square"/>
    </g>
    <g id="text_17">
     <!-- DRX_1seg -->
     <g transform="translate(754.8675 268.634375)scale(0.24 -0.24)">
      <defs>
       <path id="DejaVuSans-44" d="M 1259 4147 
L 1259 519 
L 2022 519 
Q 2988 519 3436 956 
Q 3884 1394 3884 2338 
Q 3884 3275 3436 3711 
Q 2988 4147 2022 4147 
L 1259 4147 
z
M 628 4666 
L 1925 4666 
Q 3281 4666 3915 4102 
Q 4550 3538 4550 2338 
Q 4550 1131 3912 565 
Q 3275 0 1925 0 
L 628 0 
L 628 4666 
z
" transform="scale(0.015625)"/>
       <path id="DejaVuSans-58" d="M 403 4666 
L 1081 4666 
L 2241 2931 
L 3406 4666 
L 4084 4666 
L 2584 2425 
L 4184 0 
L 3506 0 
L 2194 1984 
L 872 0 
L 191 0 
L 1856 2491 
L 403 4666 
z
" transform="scale(0.015625)"/>
       <path id="DejaVuSans-5f" d="M 3263 -1063 
L 3263 -1509 
L -63 -1509 
L -63 -1063 
L 3263 -1063 
z
" transform="scale(0.015625)"/>
       <path id="DejaVuSans-67" d="M 2906 1791 
Q 2906 2416 2648 2759 
Q 2391 3103 1925 3103 
Q 1463 3103 1205 2759 
Q 947 2416 947 1791 
Q 947 1169 1205 825 
Q 1463 481 1925 481 
Q 2391 481 2648 825 
Q 2906 1169 2906 1791 
z
M 3481 434 
Q 3481 -459 3084 -895 
Q 2688 -1331 1869 -1331 
Q 1566 -1331 1297 -1286 
Q 1028 -1241 775 -1147 
L 775 -588 
Q 1028 -725 1275 -790 
Q 1522 -856 1778 -856 
Q 2344 -856 2625 -561 
Q 2906 -266 2906 331 
L 2906 616 
Q 2728 306 2450 153 
Q 2172 0 1784 0 
Q 1141 0 747 490 
Q 353 981 353 1791 
Q 353 2603 747 3093 
Q 1141 3584 1784 3584 
Q 2172 3584 2450 3431 
Q 2728 3278 2906 2969 
L 2906 3500 
L 3481 3500 
L 3481 434 
z
" transform="scale(0.015625)"/>
      </defs>
      <use xlink:href="#DejaVuSans-44"/>
      <use xlink:href="#DejaVuSans-52" x="77.001953"/>
      <use xlink:href="#DejaVuSans-58" x="146.484375"/>
      <use xlink:href="#DejaVuSans-5f" x="214.990234"/>
      <use xlink:href="#DejaVuSans-31" x="264.990234"/>
      <use xlink:href="#DejaVuSans-73" x="328.613281"/>
      <use xlink:href="#DejaVuSans-65" x="380.712891"/>
      <use xlink:href="#DejaVuSans-67" x="442.236328"/>
     </g>
    </g>
    <g id="line2d_32">
     <path d="M 687.6675 296.129375 
L 711.6675 296.129375 
L 735.6675 296.129375 
" style="fill: none; stroke: #ff7f0e; stroke-width: 2; stroke-linecap: square"/>
    </g>
    <g id="text_18">
     <!-- Default -->
     <g transform="translate(754.8675 304.529375)scale(0.24 -0.24)">
      <defs>
       <path id="DejaVuSans-61" d="M 2194 1759 
Q 1497 1759 1228 1600 
Q 959 1441 959 1056 
Q 959 750 1161 570 
Q 1363 391 1709 391 
Q 2188 391 2477 730 
Q 2766 1069 2766 1631 
L 2766 1759 
L 2194 1759 
z
M 3341 1997 
L 3341 0 
L 2766 0 
L 2766 531 
Q 2569 213 2275 61 
Q 1981 -91 1556 -91 
Q 1019 -91 701 211 
Q 384 513 384 1019 
Q 384 1609 779 1909 
Q 1175 2209 1959 2209 
L 2766 2209 
L 2766 2266 
Q 2766 2663 2505 2880 
Q 2244 3097 1772 3097 
Q 1472 3097 1187 3025 
Q 903 2953 641 2809 
L 641 3341 
Q 956 3463 1253 3523 
Q 1550 3584 1831 3584 
Q 2591 3584 2966 3190 
Q 3341 2797 3341 1997 
z
" transform="scale(0.015625)"/>
       <path id="DejaVuSans-74" d="M 1172 4494 
L 1172 3500 
L 2356 3500 
L 2356 3053 
L 1172 3053 
L 1172 1153 
Q 1172 725 1289 603 
Q 1406 481 1766 481 
L 2356 481 
L 2356 0 
L 1766 0 
Q 1100 0 847 248 
Q 594 497 594 1153 
L 594 3053 
L 172 3053 
L 172 3500 
L 594 3500 
L 594 4494 
L 1172 4494 
z
" transform="scale(0.015625)"/>
      </defs>
      <use xlink:href="#DejaVuSans-44"/>
      <use xlink:href="#DejaVuSans-65" x="77.001953"/>
      <use xlink:href="#DejaVuSans-66" x="138.525391"/>
      <use xlink:href="#DejaVuSans-61" x="173.730469"/>
      <use xlink:href="#DejaVuSans-75" x="235.009766"/>
      <use xlink:href="#DejaVuSans-6c" x="298.388672"/>
      <use xlink:href="#DejaVuSans-74" x="326.171875"/>
     </g>
    </g>
   </g>
  </g>
 </g>
 <defs>
  <clipPath id="p886b5d5631">
   <rect x="92.974375" y="23.76" width="804.865625" height="307.360625"/>
  </clipPath>
 </defs>
</svg>
