<?xml version="1.0" encoding="utf-8" standalone="no"?>
<!DOCTYPE svg PUBLIC "-//W3C//DTD SVG 1.1//EN"
  "http://www.w3.org/Graphics/SVG/1.1/DTD/svg11.dtd">
<svg xmlns:xlink="http://www.w3.org/1999/xlink" width="921.6pt" height="410.4pt" viewBox="0 0 921.6 410.4" xmlns="http://www.w3.org/2000/svg" version="1.1">
 <metadata>
  <rdf:RDF xmlns:dc="http://purl.org/dc/elements/1.1/" xmlns:cc="http://creativecommons.org/ns#" xmlns:rdf="http://www.w3.org/1999/02/22-rdf-syntax-ns#">
   <cc:Work>
    <dc:type rdf:resource="http://purl.org/dc/dcmitype/StillImage"/>
    <dc:date>2023-04-24T12:26:55.788085</dc:date>
    <dc:format>image/svg+xml</dc:format>
    <dc:creator>
     <cc:Agent>
      <dc:title>Matplotlib v3.5.3, https://matplotlib.org/</dc:title>
     </cc:Agent>
    </dc:creator>
   </cc:Work>
  </rdf:RDF>
 </metadata>
 <defs>
  <style type="text/css">*{stroke-linejoin: round; stroke-linecap: butt}</style>
 </defs>
 <g id="figure_1">
  <g id="patch_1">
   <path d="M 0 410.4 
L 921.6 410.4 
L 921.6 0 
L 0 0 
L 0 410.4 
z
" style="fill: none"/>
  </g>
  <g id="axes_1">
   <g id="patch_2">
    <path d="M 92.974375 331.120625 
L 897.84 331.120625 
L 897.84 23.76 
L 92.974375 23.76 
z
" style="fill: #ffffff"/>
   </g>
   <g id="matplotlib.axis_1">
    <g id="xtick_1">
     <g id="line2d_1">
      <path d="M 92.974375 331.120625 
L 92.974375 23.76 
" clip-path="url(#pa9d79d790c)" style="fill: none; stroke: #b0b0b0; stroke-width: 0.8; stroke-linecap: square"/>
     </g>
     <g id="line2d_2">
      <defs>
       <path id="mb4c89e01d2" d="M 0 0 
L 0 3.5 
" style="stroke: #000000; stroke-width: 0.8"/>
      </defs>
      <g>
       <use xlink:href="#mb4c89e01d2" x="92.974375" y="331.120625" style="stroke: #000000; stroke-width: 0.8"/>
      </g>
     </g>
     <g id="text_1">
      <!-- 0 -->
      <g transform="translate(85.975625 354.837188)scale(0.22 -0.22)">
       <defs>
        <path id="DejaVuSans-30" d="M 2034 4250 
Q 1547 4250 1301 3770 
Q 1056 3291 1056 2328 
Q 1056 1369 1301 889 
Q 1547 409 2034 409 
Q 2525 409 2770 889 
Q 3016 1369 3016 2328 
Q 3016 3291 2770 3770 
Q 2525 4250 2034 4250 
z
M 2034 4750 
Q 2819 4750 3233 4129 
Q 3647 3509 3647 2328 
Q 3647 1150 3233 529 
Q 2819 -91 2034 -91 
Q 1250 -91 836 529 
Q 422 1150 422 2328 
Q 422 3509 836 4129 
Q 1250 4750 2034 4750 
z
" transform="scale(0.015625)"/>
       </defs>
       <use xlink:href="#DejaVuSans-30"/>
      </g>
     </g>
    </g>
    <g id="xtick_2">
     <g id="line2d_3">
      <path d="M 185.580783 331.120625 
L 185.580783 23.76 
" clip-path="url(#pa9d79d790c)" style="fill: none; stroke: #b0b0b0; stroke-width: 0.8; stroke-linecap: square"/>
     </g>
     <g id="line2d_4">
      <g>
       <use xlink:href="#mb4c89e01d2" x="185.580783" y="331.120625" style="stroke: #000000; stroke-width: 0.8"/>
      </g>
     </g>
     <g id="text_2">
      <!-- 25 -->
      <g transform="translate(171.583283 354.837188)scale(0.22 -0.22)">
       <defs>
        <path id="DejaVuSans-32" d="M 1228 531 
L 3431 531 
L 3431 0 
L 469 0 
L 469 531 
Q 828 903 1448 1529 
Q 2069 2156 2228 2338 
Q 2531 2678 2651 2914 
Q 2772 3150 2772 3378 
Q 2772 3750 2511 3984 
Q 2250 4219 1831 4219 
Q 1534 4219 1204 4116 
Q 875 4013 500 3803 
L 500 4441 
Q 881 4594 1212 4672 
Q 1544 4750 1819 4750 
Q 2544 4750 2975 4387 
Q 3406 4025 3406 3419 
Q 3406 3131 3298 2873 
Q 3191 2616 2906 2266 
Q 2828 2175 2409 1742 
Q 1991 1309 1228 531 
z
" transform="scale(0.015625)"/>
        <path id="DejaVuSans-35" d="M 691 4666 
L 3169 4666 
L 3169 4134 
L 1269 4134 
L 1269 2991 
Q 1406 3038 1543 3061 
Q 1681 3084 1819 3084 
Q 2600 3084 3056 2656 
Q 3513 2228 3513 1497 
Q 3513 744 3044 326 
Q 2575 -91 1722 -91 
Q 1428 -91 1123 -41 
Q 819 9 494 109 
L 494 744 
Q 775 591 1075 516 
Q 1375 441 1709 441 
Q 2250 441 2565 725 
Q 2881 1009 2881 1497 
Q 2881 1984 2565 2268 
Q 2250 2553 1709 2553 
Q 1456 2553 1204 2497 
Q 953 2441 691 2322 
L 691 4666 
z
" transform="scale(0.015625)"/>
       </defs>
       <use xlink:href="#DejaVuSans-32"/>
       <use xlink:href="#DejaVuSans-35" x="63.623047"/>
      </g>
     </g>
    </g>
    <g id="xtick_3">
     <g id="line2d_5">
      <path d="M 278.18719 331.120625 
L 278.18719 23.76 
" clip-path="url(#pa9d79d790c)" style="fill: none; stroke: #b0b0b0; stroke-width: 0.8; stroke-linecap: square"/>
     </g>
     <g id="line2d_6">
      <g>
       <use xlink:href="#mb4c89e01d2" x="278.18719" y="331.120625" style="stroke: #000000; stroke-width: 0.8"/>
      </g>
     </g>
     <g id="text_3">
      <!-- 50 -->
      <g transform="translate(264.18969 354.837188)scale(0.22 -0.22)">
       <use xlink:href="#DejaVuSans-35"/>
       <use xlink:href="#DejaVuSans-30" x="63.623047"/>
      </g>
     </g>
    </g>
    <g id="xtick_4">
     <g id="line2d_7">
      <path d="M 370.793598 331.120625 
L 370.793598 23.76 
" clip-path="url(#pa9d79d790c)" style="fill: none; stroke: #b0b0b0; stroke-width: 0.8; stroke-linecap: square"/>
     </g>
     <g id="line2d_8">
      <g>
       <use xlink:href="#mb4c89e01d2" x="370.793598" y="331.120625" style="stroke: #000000; stroke-width: 0.8"/>
      </g>
     </g>
     <g id="text_4">
      <!-- 75 -->
      <g transform="translate(356.796098 354.837188)scale(0.22 -0.22)">
       <defs>
        <path id="DejaVuSans-37" d="M 525 4666 
L 3525 4666 
L 3525 4397 
L 1831 0 
L 1172 0 
L 2766 4134 
L 525 4134 
L 525 4666 
z
" transform="scale(0.015625)"/>
       </defs>
       <use xlink:href="#DejaVuSans-37"/>
       <use xlink:href="#DejaVuSans-35" x="63.623047"/>
      </g>
     </g>
    </g>
    <g id="xtick_5">
     <g id="line2d_9">
      <path d="M 463.400005 331.120625 
L 463.400005 23.76 
" clip-path="url(#pa9d79d790c)" style="fill: none; stroke: #b0b0b0; stroke-width: 0.8; stroke-linecap: square"/>
     </g>
     <g id="line2d_10">
      <g>
       <use xlink:href="#mb4c89e01d2" x="463.400005" y="331.120625" style="stroke: #000000; stroke-width: 0.8"/>
      </g>
     </g>
     <g id="text_5">
      <!-- 100 -->
      <g transform="translate(442.403755 354.837188)scale(0.22 -0.22)">
       <defs>
        <path id="DejaVuSans-31" d="M 794 531 
L 1825 531 
L 1825 4091 
L 703 3866 
L 703 4441 
L 1819 4666 
L 2450 4666 
L 2450 531 
L 3481 531 
L 3481 0 
L 794 0 
L 794 531 
z
" transform="scale(0.015625)"/>
       </defs>
       <use xlink:href="#DejaVuSans-31"/>
       <use xlink:href="#DejaVuSans-30" x="63.623047"/>
       <use xlink:href="#DejaVuSans-30" x="127.246094"/>
      </g>
     </g>
    </g>
    <g id="xtick_6">
     <g id="line2d_11">
      <path d="M 556.006413 331.120625 
L 556.006413 23.76 
" clip-path="url(#pa9d79d790c)" style="fill: none; stroke: #b0b0b0; stroke-width: 0.8; stroke-linecap: square"/>
     </g>
     <g id="line2d_12">
      <g>
       <use xlink:href="#mb4c89e01d2" x="556.006413" y="331.120625" style="stroke: #000000; stroke-width: 0.8"/>
      </g>
     </g>
     <g id="text_6">
      <!-- 125 -->
      <g transform="translate(535.010163 354.837188)scale(0.22 -0.22)">
       <use xlink:href="#DejaVuSans-31"/>
       <use xlink:href="#DejaVuSans-32" x="63.623047"/>
       <use xlink:href="#DejaVuSans-35" x="127.246094"/>
      </g>
     </g>
    </g>
    <g id="xtick_7">
     <g id="line2d_13">
      <path d="M 648.61282 331.120625 
L 648.61282 23.76 
" clip-path="url(#pa9d79d790c)" style="fill: none; stroke: #b0b0b0; stroke-width: 0.8; stroke-linecap: square"/>
     </g>
     <g id="line2d_14">
      <g>
       <use xlink:href="#mb4c89e01d2" x="648.61282" y="331.120625" style="stroke: #000000; stroke-width: 0.8"/>
      </g>
     </g>
     <g id="text_7">
      <!-- 150 -->
      <g transform="translate(627.61657 354.837188)scale(0.22 -0.22)">
       <use xlink:href="#DejaVuSans-31"/>
       <use xlink:href="#DejaVuSans-35" x="63.623047"/>
       <use xlink:href="#DejaVuSans-30" x="127.246094"/>
      </g>
     </g>
    </g>
    <g id="xtick_8">
     <g id="line2d_15">
      <path d="M 741.219228 331.120625 
L 741.219228 23.76 
" clip-path="url(#pa9d79d790c)" style="fill: none; stroke: #b0b0b0; stroke-width: 0.8; stroke-linecap: square"/>
     </g>
     <g id="line2d_16">
      <g>
       <use xlink:href="#mb4c89e01d2" x="741.219228" y="331.120625" style="stroke: #000000; stroke-width: 0.8"/>
      </g>
     </g>
     <g id="text_8">
      <!-- 175 -->
      <g transform="translate(720.222978 354.837188)scale(0.22 -0.22)">
       <use xlink:href="#DejaVuSans-31"/>
       <use xlink:href="#DejaVuSans-37" x="63.623047"/>
       <use xlink:href="#DejaVuSans-35" x="127.246094"/>
      </g>
     </g>
    </g>
    <g id="xtick_9">
     <g id="line2d_17">
      <path d="M 833.825636 331.120625 
L 833.825636 23.76 
" clip-path="url(#pa9d79d790c)" style="fill: none; stroke: #b0b0b0; stroke-width: 0.8; stroke-linecap: square"/>
     </g>
     <g id="line2d_18">
      <g>
       <use xlink:href="#mb4c89e01d2" x="833.825636" y="331.120625" style="stroke: #000000; stroke-width: 0.8"/>
      </g>
     </g>
     <g id="text_9">
      <!-- 200 -->
      <g transform="translate(812.829386 354.837188)scale(0.22 -0.22)">
       <use xlink:href="#DejaVuSans-32"/>
       <use xlink:href="#DejaVuSans-30" x="63.623047"/>
       <use xlink:href="#DejaVuSans-30" x="127.246094"/>
      </g>
     </g>
    </g>
    <g id="text_10">
     <!-- RTT (ms) -->
     <g transform="translate(442.372813 381.64875)scale(0.24 -0.24)">
      <defs>
       <path id="DejaVuSans-52" d="M 2841 2188 
Q 3044 2119 3236 1894 
Q 3428 1669 3622 1275 
L 4263 0 
L 3584 0 
L 2988 1197 
Q 2756 1666 2539 1819 
Q 2322 1972 1947 1972 
L 1259 1972 
L 1259 0 
L 628 0 
L 628 4666 
L 2053 4666 
Q 2853 4666 3247 4331 
Q 3641 3997 3641 3322 
Q 3641 2881 3436 2590 
Q 3231 2300 2841 2188 
z
M 1259 4147 
L 1259 2491 
L 2053 2491 
Q 2509 2491 2742 2702 
Q 2975 2913 2975 3322 
Q 2975 3731 2742 3939 
Q 2509 4147 2053 4147 
L 1259 4147 
z
" transform="scale(0.015625)"/>
       <path id="DejaVuSans-54" d="M -19 4666 
L 3928 4666 
L 3928 4134 
L 2272 4134 
L 2272 0 
L 1638 0 
L 1638 4134 
L -19 4134 
L -19 4666 
z
" transform="scale(0.015625)"/>
       <path id="DejaVuSans-20" transform="scale(0.015625)"/>
       <path id="DejaVuSans-28" d="M 1984 4856 
Q 1566 4138 1362 3434 
Q 1159 2731 1159 2009 
Q 1159 1288 1364 580 
Q 1569 -128 1984 -844 
L 1484 -844 
Q 1016 -109 783 600 
Q 550 1309 550 2009 
Q 550 2706 781 3412 
Q 1013 4119 1484 4856 
L 1984 4856 
z
" transform="scale(0.015625)"/>
       <path id="DejaVuSans-6d" d="M 3328 2828 
Q 3544 3216 3844 3400 
Q 4144 3584 4550 3584 
Q 5097 3584 5394 3201 
Q 5691 2819 5691 2113 
L 5691 0 
L 5113 0 
L 5113 2094 
Q 5113 2597 4934 2840 
Q 4756 3084 4391 3084 
Q 3944 3084 3684 2787 
Q 3425 2491 3425 1978 
L 3425 0 
L 2847 0 
L 2847 2094 
Q 2847 2600 2669 2842 
Q 2491 3084 2119 3084 
Q 1678 3084 1418 2786 
Q 1159 2488 1159 1978 
L 1159 0 
L 581 0 
L 581 3500 
L 1159 3500 
L 1159 2956 
Q 1356 3278 1631 3431 
Q 1906 3584 2284 3584 
Q 2666 3584 2933 3390 
Q 3200 3197 3328 2828 
z
" transform="scale(0.015625)"/>
       <path id="DejaVuSans-73" d="M 2834 3397 
L 2834 2853 
Q 2591 2978 2328 3040 
Q 2066 3103 1784 3103 
Q 1356 3103 1142 2972 
Q 928 2841 928 2578 
Q 928 2378 1081 2264 
Q 1234 2150 1697 2047 
L 1894 2003 
Q 2506 1872 2764 1633 
Q 3022 1394 3022 966 
Q 3022 478 2636 193 
Q 2250 -91 1575 -91 
Q 1294 -91 989 -36 
Q 684 19 347 128 
L 347 722 
Q 666 556 975 473 
Q 1284 391 1588 391 
Q 1994 391 2212 530 
Q 2431 669 2431 922 
Q 2431 1156 2273 1281 
Q 2116 1406 1581 1522 
L 1381 1569 
Q 847 1681 609 1914 
Q 372 2147 372 2553 
Q 372 3047 722 3315 
Q 1072 3584 1716 3584 
Q 2034 3584 2315 3537 
Q 2597 3491 2834 3397 
z
" transform="scale(0.015625)"/>
       <path id="DejaVuSans-29" d="M 513 4856 
L 1013 4856 
Q 1481 4119 1714 3412 
Q 1947 2706 1947 2009 
Q 1947 1309 1714 600 
Q 1481 -109 1013 -844 
L 513 -844 
Q 928 -128 1133 580 
Q 1338 1288 1338 2009 
Q 1338 2731 1133 3434 
Q 928 4138 513 4856 
z
" transform="scale(0.015625)"/>
      </defs>
      <use xlink:href="#DejaVuSans-52"/>
      <use xlink:href="#DejaVuSans-54" x="62.232422"/>
      <use xlink:href="#DejaVuSans-54" x="121.566406"/>
      <use xlink:href="#DejaVuSans-20" x="182.650391"/>
      <use xlink:href="#DejaVuSans-28" x="214.4375"/>
      <use xlink:href="#DejaVuSans-6d" x="253.451172"/>
      <use xlink:href="#DejaVuSans-73" x="350.863281"/>
      <use xlink:href="#DejaVuSans-29" x="402.962891"/>
     </g>
    </g>
   </g>
   <g id="matplotlib.axis_2">
    <g id="ytick_1">
     <g id="line2d_19">
      <path d="M 92.974375 317.149688 
L 897.84 317.149688 
" clip-path="url(#pa9d79d790c)" style="fill: none; stroke: #b0b0b0; stroke-width: 0.8; stroke-linecap: square"/>
     </g>
     <g id="line2d_20">
      <defs>
       <path id="m003a924c14" d="M 0 0 
L -3.5 0 
" style="stroke: #000000; stroke-width: 0.8"/>
      </defs>
      <g>
       <use xlink:href="#m003a924c14" x="92.974375" y="317.149688" style="stroke: #000000; stroke-width: 0.8"/>
      </g>
     </g>
     <g id="text_11">
      <!-- 0.0 -->
      <g transform="translate(50.9875 325.507969)scale(0.22 -0.22)">
       <defs>
        <path id="DejaVuSans-2e" d="M 684 794 
L 1344 794 
L 1344 0 
L 684 0 
L 684 794 
z
" transform="scale(0.015625)"/>
       </defs>
       <use xlink:href="#DejaVuSans-30"/>
       <use xlink:href="#DejaVuSans-2e" x="63.623047"/>
       <use xlink:href="#DejaVuSans-30" x="95.410156"/>
      </g>
     </g>
    </g>
    <g id="ytick_2">
     <g id="line2d_21">
      <path d="M 92.974375 261.265938 
L 897.84 261.265938 
" clip-path="url(#pa9d79d790c)" style="fill: none; stroke: #b0b0b0; stroke-width: 0.8; stroke-linecap: square"/>
     </g>
     <g id="line2d_22">
      <g>
       <use xlink:href="#m003a924c14" x="92.974375" y="261.265938" style="stroke: #000000; stroke-width: 0.8"/>
      </g>
     </g>
     <g id="text_12">
      <!-- 0.2 -->
      <g transform="translate(50.9875 269.624219)scale(0.22 -0.22)">
       <use xlink:href="#DejaVuSans-30"/>
       <use xlink:href="#DejaVuSans-2e" x="63.623047"/>
       <use xlink:href="#DejaVuSans-32" x="95.410156"/>
      </g>
     </g>
    </g>
    <g id="ytick_3">
     <g id="line2d_23">
      <path d="M 92.974375 205.382188 
L 897.84 205.382188 
" clip-path="url(#pa9d79d790c)" style="fill: none; stroke: #b0b0b0; stroke-width: 0.8; stroke-linecap: square"/>
     </g>
     <g id="line2d_24">
      <g>
       <use xlink:href="#m003a924c14" x="92.974375" y="205.382188" style="stroke: #000000; stroke-width: 0.8"/>
      </g>
     </g>
     <g id="text_13">
      <!-- 0.4 -->
      <g transform="translate(50.9875 213.740469)scale(0.22 -0.22)">
       <defs>
        <path id="DejaVuSans-34" d="M 2419 4116 
L 825 1625 
L 2419 1625 
L 2419 4116 
z
M 2253 4666 
L 3047 4666 
L 3047 1625 
L 3713 1625 
L 3713 1100 
L 3047 1100 
L 3047 0 
L 2419 0 
L 2419 1100 
L 313 1100 
L 313 1709 
L 2253 4666 
z
" transform="scale(0.015625)"/>
       </defs>
       <use xlink:href="#DejaVuSans-30"/>
       <use xlink:href="#DejaVuSans-2e" x="63.623047"/>
       <use xlink:href="#DejaVuSans-34" x="95.410156"/>
      </g>
     </g>
    </g>
    <g id="ytick_4">
     <g id="line2d_25">
      <path d="M 92.974375 149.498438 
L 897.84 149.498438 
" clip-path="url(#pa9d79d790c)" style="fill: none; stroke: #b0b0b0; stroke-width: 0.8; stroke-linecap: square"/>
     </g>
     <g id="line2d_26">
      <g>
       <use xlink:href="#m003a924c14" x="92.974375" y="149.498438" style="stroke: #000000; stroke-width: 0.8"/>
      </g>
     </g>
     <g id="text_14">
      <!-- 0.6 -->
      <g transform="translate(50.9875 157.856719)scale(0.22 -0.22)">
       <defs>
        <path id="DejaVuSans-36" d="M 2113 2584 
Q 1688 2584 1439 2293 
Q 1191 2003 1191 1497 
Q 1191 994 1439 701 
Q 1688 409 2113 409 
Q 2538 409 2786 701 
Q 3034 994 3034 1497 
Q 3034 2003 2786 2293 
Q 2538 2584 2113 2584 
z
M 3366 4563 
L 3366 3988 
Q 3128 4100 2886 4159 
Q 2644 4219 2406 4219 
Q 1781 4219 1451 3797 
Q 1122 3375 1075 2522 
Q 1259 2794 1537 2939 
Q 1816 3084 2150 3084 
Q 2853 3084 3261 2657 
Q 3669 2231 3669 1497 
Q 3669 778 3244 343 
Q 2819 -91 2113 -91 
Q 1303 -91 875 529 
Q 447 1150 447 2328 
Q 447 3434 972 4092 
Q 1497 4750 2381 4750 
Q 2619 4750 2861 4703 
Q 3103 4656 3366 4563 
z
" transform="scale(0.015625)"/>
       </defs>
       <use xlink:href="#DejaVuSans-30"/>
       <use xlink:href="#DejaVuSans-2e" x="63.623047"/>
       <use xlink:href="#DejaVuSans-36" x="95.410156"/>
      </g>
     </g>
    </g>
    <g id="ytick_5">
     <g id="line2d_27">
      <path d="M 92.974375 93.614688 
L 897.84 93.614688 
" clip-path="url(#pa9d79d790c)" style="fill: none; stroke: #b0b0b0; stroke-width: 0.8; stroke-linecap: square"/>
     </g>
     <g id="line2d_28">
      <g>
       <use xlink:href="#m003a924c14" x="92.974375" y="93.614688" style="stroke: #000000; stroke-width: 0.8"/>
      </g>
     </g>
     <g id="text_15">
      <!-- 0.8 -->
      <g transform="translate(50.9875 101.972969)scale(0.22 -0.22)">
       <defs>
        <path id="DejaVuSans-38" d="M 2034 2216 
Q 1584 2216 1326 1975 
Q 1069 1734 1069 1313 
Q 1069 891 1326 650 
Q 1584 409 2034 409 
Q 2484 409 2743 651 
Q 3003 894 3003 1313 
Q 3003 1734 2745 1975 
Q 2488 2216 2034 2216 
z
M 1403 2484 
Q 997 2584 770 2862 
Q 544 3141 544 3541 
Q 544 4100 942 4425 
Q 1341 4750 2034 4750 
Q 2731 4750 3128 4425 
Q 3525 4100 3525 3541 
Q 3525 3141 3298 2862 
Q 3072 2584 2669 2484 
Q 3125 2378 3379 2068 
Q 3634 1759 3634 1313 
Q 3634 634 3220 271 
Q 2806 -91 2034 -91 
Q 1263 -91 848 271 
Q 434 634 434 1313 
Q 434 1759 690 2068 
Q 947 2378 1403 2484 
z
M 1172 3481 
Q 1172 3119 1398 2916 
Q 1625 2713 2034 2713 
Q 2441 2713 2670 2916 
Q 2900 3119 2900 3481 
Q 2900 3844 2670 4047 
Q 2441 4250 2034 4250 
Q 1625 4250 1398 4047 
Q 1172 3844 1172 3481 
z
" transform="scale(0.015625)"/>
       </defs>
       <use xlink:href="#DejaVuSans-30"/>
       <use xlink:href="#DejaVuSans-2e" x="63.623047"/>
       <use xlink:href="#DejaVuSans-38" x="95.410156"/>
      </g>
     </g>
    </g>
    <g id="ytick_6">
     <g id="line2d_29">
      <path d="M 92.974375 37.730937 
L 897.84 37.730937 
" clip-path="url(#pa9d79d790c)" style="fill: none; stroke: #b0b0b0; stroke-width: 0.8; stroke-linecap: square"/>
     </g>
     <g id="line2d_30">
      <g>
       <use xlink:href="#m003a924c14" x="92.974375" y="37.730937" style="stroke: #000000; stroke-width: 0.8"/>
      </g>
     </g>
     <g id="text_16">
      <!-- 1.0 -->
      <g transform="translate(50.9875 46.089219)scale(0.22 -0.22)">
       <use xlink:href="#DejaVuSans-31"/>
       <use xlink:href="#DejaVuSans-2e" x="63.623047"/>
       <use xlink:href="#DejaVuSans-30" x="95.410156"/>
      </g>
     </g>
    </g>
    <g id="text_17">
     <!-- Likelihood of occurrence -->
     <g transform="translate(41.99625 323.628438)rotate(-90)scale(0.24 -0.24)">
      <defs>
       <path id="DejaVuSans-4c" d="M 628 4666 
L 1259 4666 
L 1259 531 
L 3531 531 
L 3531 0 
L 628 0 
L 628 4666 
z
" transform="scale(0.015625)"/>
       <path id="DejaVuSans-69" d="M 603 3500 
L 1178 3500 
L 1178 0 
L 603 0 
L 603 3500 
z
M 603 4863 
L 1178 4863 
L 1178 4134 
L 603 4134 
L 603 4863 
z
" transform="scale(0.015625)"/>
       <path id="DejaVuSans-6b" d="M 581 4863 
L 1159 4863 
L 1159 1991 
L 2875 3500 
L 3609 3500 
L 1753 1863 
L 3688 0 
L 2938 0 
L 1159 1709 
L 1159 0 
L 581 0 
L 581 4863 
z
" transform="scale(0.015625)"/>
       <path id="DejaVuSans-65" d="M 3597 1894 
L 3597 1613 
L 953 1613 
Q 991 1019 1311 708 
Q 1631 397 2203 397 
Q 2534 397 2845 478 
Q 3156 559 3463 722 
L 3463 178 
Q 3153 47 2828 -22 
Q 2503 -91 2169 -91 
Q 1331 -91 842 396 
Q 353 884 353 1716 
Q 353 2575 817 3079 
Q 1281 3584 2069 3584 
Q 2775 3584 3186 3129 
Q 3597 2675 3597 1894 
z
M 3022 2063 
Q 3016 2534 2758 2815 
Q 2500 3097 2075 3097 
Q 1594 3097 1305 2825 
Q 1016 2553 972 2059 
L 3022 2063 
z
" transform="scale(0.015625)"/>
       <path id="DejaVuSans-6c" d="M 603 4863 
L 1178 4863 
L 1178 0 
L 603 0 
L 603 4863 
z
" transform="scale(0.015625)"/>
       <path id="DejaVuSans-68" d="M 3513 2113 
L 3513 0 
L 2938 0 
L 2938 2094 
Q 2938 2591 2744 2837 
Q 2550 3084 2163 3084 
Q 1697 3084 1428 2787 
Q 1159 2491 1159 1978 
L 1159 0 
L 581 0 
L 581 4863 
L 1159 4863 
L 1159 2956 
Q 1366 3272 1645 3428 
Q 1925 3584 2291 3584 
Q 2894 3584 3203 3211 
Q 3513 2838 3513 2113 
z
" transform="scale(0.015625)"/>
       <path id="DejaVuSans-6f" d="M 1959 3097 
Q 1497 3097 1228 2736 
Q 959 2375 959 1747 
Q 959 1119 1226 758 
Q 1494 397 1959 397 
Q 2419 397 2687 759 
Q 2956 1122 2956 1747 
Q 2956 2369 2687 2733 
Q 2419 3097 1959 3097 
z
M 1959 3584 
Q 2709 3584 3137 3096 
Q 3566 2609 3566 1747 
Q 3566 888 3137 398 
Q 2709 -91 1959 -91 
Q 1206 -91 779 398 
Q 353 888 353 1747 
Q 353 2609 779 3096 
Q 1206 3584 1959 3584 
z
" transform="scale(0.015625)"/>
       <path id="DejaVuSans-64" d="M 2906 2969 
L 2906 4863 
L 3481 4863 
L 3481 0 
L 2906 0 
L 2906 525 
Q 2725 213 2448 61 
Q 2172 -91 1784 -91 
Q 1150 -91 751 415 
Q 353 922 353 1747 
Q 353 2572 751 3078 
Q 1150 3584 1784 3584 
Q 2172 3584 2448 3432 
Q 2725 3281 2906 2969 
z
M 947 1747 
Q 947 1113 1208 752 
Q 1469 391 1925 391 
Q 2381 391 2643 752 
Q 2906 1113 2906 1747 
Q 2906 2381 2643 2742 
Q 2381 3103 1925 3103 
Q 1469 3103 1208 2742 
Q 947 2381 947 1747 
z
" transform="scale(0.015625)"/>
       <path id="DejaVuSans-66" d="M 2375 4863 
L 2375 4384 
L 1825 4384 
Q 1516 4384 1395 4259 
Q 1275 4134 1275 3809 
L 1275 3500 
L 2222 3500 
L 2222 3053 
L 1275 3053 
L 1275 0 
L 697 0 
L 697 3053 
L 147 3053 
L 147 3500 
L 697 3500 
L 697 3744 
Q 697 4328 969 4595 
Q 1241 4863 1831 4863 
L 2375 4863 
z
" transform="scale(0.015625)"/>
       <path id="DejaVuSans-63" d="M 3122 3366 
L 3122 2828 
Q 2878 2963 2633 3030 
Q 2388 3097 2138 3097 
Q 1578 3097 1268 2742 
Q 959 2388 959 1747 
Q 959 1106 1268 751 
Q 1578 397 2138 397 
Q 2388 397 2633 464 
Q 2878 531 3122 666 
L 3122 134 
Q 2881 22 2623 -34 
Q 2366 -91 2075 -91 
Q 1284 -91 818 406 
Q 353 903 353 1747 
Q 353 2603 823 3093 
Q 1294 3584 2113 3584 
Q 2378 3584 2631 3529 
Q 2884 3475 3122 3366 
z
" transform="scale(0.015625)"/>
       <path id="DejaVuSans-75" d="M 544 1381 
L 544 3500 
L 1119 3500 
L 1119 1403 
Q 1119 906 1312 657 
Q 1506 409 1894 409 
Q 2359 409 2629 706 
Q 2900 1003 2900 1516 
L 2900 3500 
L 3475 3500 
L 3475 0 
L 2900 0 
L 2900 538 
Q 2691 219 2414 64 
Q 2138 -91 1772 -91 
Q 1169 -91 856 284 
Q 544 659 544 1381 
z
M 1991 3584 
L 1991 3584 
z
" transform="scale(0.015625)"/>
       <path id="DejaVuSans-72" d="M 2631 2963 
Q 2534 3019 2420 3045 
Q 2306 3072 2169 3072 
Q 1681 3072 1420 2755 
Q 1159 2438 1159 1844 
L 1159 0 
L 581 0 
L 581 3500 
L 1159 3500 
L 1159 2956 
Q 1341 3275 1631 3429 
Q 1922 3584 2338 3584 
Q 2397 3584 2469 3576 
Q 2541 3569 2628 3553 
L 2631 2963 
z
" transform="scale(0.015625)"/>
       <path id="DejaVuSans-6e" d="M 3513 2113 
L 3513 0 
L 2938 0 
L 2938 2094 
Q 2938 2591 2744 2837 
Q 2550 3084 2163 3084 
Q 1697 3084 1428 2787 
Q 1159 2491 1159 1978 
L 1159 0 
L 581 0 
L 581 3500 
L 1159 3500 
L 1159 2956 
Q 1366 3272 1645 3428 
Q 1925 3584 2291 3584 
Q 2894 3584 3203 3211 
Q 3513 2838 3513 2113 
z
" transform="scale(0.015625)"/>
      </defs>
      <use xlink:href="#DejaVuSans-4c"/>
      <use xlink:href="#DejaVuSans-69" x="55.712891"/>
      <use xlink:href="#DejaVuSans-6b" x="83.496094"/>
      <use xlink:href="#DejaVuSans-65" x="137.78125"/>
      <use xlink:href="#DejaVuSans-6c" x="199.304688"/>
      <use xlink:href="#DejaVuSans-69" x="227.087891"/>
      <use xlink:href="#DejaVuSans-68" x="254.871094"/>
      <use xlink:href="#DejaVuSans-6f" x="318.25"/>
      <use xlink:href="#DejaVuSans-6f" x="379.431641"/>
      <use xlink:href="#DejaVuSans-64" x="440.613281"/>
      <use xlink:href="#DejaVuSans-20" x="504.089844"/>
      <use xlink:href="#DejaVuSans-6f" x="535.876953"/>
      <use xlink:href="#DejaVuSans-66" x="597.058594"/>
      <use xlink:href="#DejaVuSans-20" x="632.263672"/>
      <use xlink:href="#DejaVuSans-6f" x="664.050781"/>
      <use xlink:href="#DejaVuSans-63" x="725.232422"/>
      <use xlink:href="#DejaVuSans-63" x="780.212891"/>
      <use xlink:href="#DejaVuSans-75" x="835.193359"/>
      <use xlink:href="#DejaVuSans-72" x="898.572266"/>
      <use xlink:href="#DejaVuSans-72" x="937.935547"/>
      <use xlink:href="#DejaVuSans-65" x="976.798828"/>
      <use xlink:href="#DejaVuSans-6e" x="1038.322266"/>
      <use xlink:href="#DejaVuSans-63" x="1101.701172"/>
      <use xlink:href="#DejaVuSans-65" x="1156.681641"/>
     </g>
    </g>
   </g>
   <g id="line2d_31">
    <path d="M 92.974375 317.149688 
L 124.853429 317.072734 
L 125.092522 316.99578 
L 128.439823 316.918827 
L 128.599218 316.534058 
L 128.758613 316.226244 
L 129.316497 314.994985 
L 129.714985 313.686773 
L 129.954078 313.302004 
L 130.113473 312.609421 
L 130.272868 312.609421 
L 130.432264 311.070348 
L 130.671357 311.070348 
L 130.830752 309.685182 
L 131.069845 309.685182 
L 131.22924 309.454321 
L 131.388635 309.454321 
L 131.548031 308.992599 
L 131.787124 308.992599 
L 131.946519 308.37697 
L 132.185612 308.37697 
L 132.345007 307.453526 
L 132.504402 307.453526 
L 132.663798 305.837499 
L 132.90289 305.837499 
L 133.062286 304.067565 
L 133.301379 304.067565 
L 133.460774 302.528492 
L 133.620169 302.528492 
L 133.779564 300.450743 
L 134.018657 300.450743 
L 134.178053 298.988623 
L 134.417146 298.988623 
L 134.576541 298.142133 
L 134.735936 298.142133 
L 134.895331 297.44955 
L 135.134424 297.44955 
L 135.29382 296.680013 
L 135.532912 296.680013 
L 135.692308 295.833523 
L 135.851703 295.833523 
L 136.011098 294.679218 
L 136.250191 294.679218 
L 136.409586 293.601867 
L 136.648679 293.601867 
L 136.808075 292.139747 
L 136.96747 292.139747 
L 137.126865 290.215905 
L 137.365958 290.215905 
L 137.525353 288.83074 
L 137.684749 288.83074 
L 137.844144 287.445574 
L 138.083237 287.445574 
L 138.242632 285.983454 
L 138.481725 285.983454 
L 138.64112 284.983056 
L 138.800515 284.983056 
L 138.959911 284.444381 
L 139.199004 284.444381 
L 139.358399 283.59789 
L 139.597492 283.59789 
L 139.756887 282.366632 
L 139.916282 282.366632 
L 140.075678 280.981466 
L 140.314771 280.981466 
L 140.474166 279.211532 
L 140.713259 279.211532 
L 140.872654 277.595505 
L 141.032049 277.595505 
L 141.191445 276.133385 
L 141.430537 276.133385 
L 141.589933 274.594312 
L 141.829026 274.594312 
L 141.988421 272.516563 
L 142.147816 272.516563 
L 142.307211 272.054841 
L 142.546304 272.054841 
L 142.7057 271.285304 
L 142.944793 271.285304 
L 143.104188 270.515768 
L 143.263583 270.515768 
L 143.422978 269.746231 
L 143.662071 269.746231 
L 143.821467 268.745834 
L 143.980862 268.745834 
L 144.140257 266.668085 
L 144.37935 266.668085 
L 144.538745 265.205965 
L 144.777838 265.205965 
L 144.937233 263.589938 
L 145.096629 263.589938 
L 145.256024 261.973911 
L 145.495117 261.973911 
L 145.654512 260.973514 
L 145.893605 260.973514 
L 146.053 259.819209 
L 146.212396 259.819209 
L 146.371791 259.203579 
L 146.610884 259.203579 
L 146.770279 258.58795 
L 147.009372 258.58795 
L 147.168767 257.664506 
L 147.328162 257.664506 
L 147.487558 256.27934 
L 147.726651 256.27934 
L 147.886046 254.509406 
L 148.125139 254.509406 
L 148.284534 252.200796 
L 148.443929 252.200796 
L 148.603325 250.123047 
L 148.842418 250.123047 
L 149.001813 248.814835 
L 149.240906 248.814835 
L 149.400301 247.66053 
L 149.559696 247.66053 
L 149.719092 246.890993 
L 149.958184 246.890993 
L 150.11758 246.19841 
L 150.276975 246.19841 
L 150.43637 245.813642 
L 150.675463 245.813642 
L 150.834858 244.736291 
L 151.073951 244.736291 
L 151.233347 242.966356 
L 151.392742 242.966356 
L 151.552137 240.811654 
L 151.79123 240.811654 
L 151.950625 238.349137 
L 152.189718 238.349137 
L 152.349114 235.809666 
L 152.508509 235.809666 
L 152.667904 234.655361 
L 152.906997 234.655361 
L 153.066392 233.808871 
L 153.305485 233.808871 
L 153.46488 232.885427 
L 153.624276 232.885427 
L 153.783671 232.269797 
L 154.022764 232.269797 
L 154.182159 231.192446 
L 154.421252 231.192446 
L 154.580647 230.345956 
L 154.740043 230.345956 
L 154.899438 229.037743 
L 155.138531 229.037743 
L 155.297926 227.652578 
L 155.537019 227.652578 
L 155.696414 225.113107 
L 155.855809 225.113107 
L 156.015205 223.343172 
L 156.254298 223.343172 
L 156.413693 221.727146 
L 156.652786 221.727146 
L 156.812181 220.034165 
L 156.971576 220.034165 
L 157.130972 219.110721 
L 157.370065 219.110721 
L 157.52946 218.418138 
L 157.688855 218.418138 
L 157.84825 217.802509 
L 158.087343 217.802509 
L 158.246739 216.494296 
L 158.485831 216.494296 
L 158.645227 214.955223 
L 158.804622 214.955223 
L 158.964017 213.108335 
L 159.20311 213.108335 
L 159.362505 211.261447 
L 159.601598 211.261447 
L 159.760994 209.106745 
L 159.920389 209.106745 
L 160.079784 207.875486 
L 160.318877 207.875486 
L 160.478272 206.875089 
L 160.717365 206.875089 
L 160.876761 205.951645 
L 161.036156 205.951645 
L 161.195551 205.105154 
L 161.434644 205.105154 
L 161.594039 204.643432 
L 161.833132 204.643432 
L 161.992527 203.412174 
L 162.151923 203.412174 
L 162.311318 201.411378 
L 162.550411 201.411378 
L 162.709806 200.18012 
L 162.948899 200.18012 
L 163.108294 197.563695 
L 163.26769 197.563695 
L 163.427085 195.716807 
L 163.666178 195.716807 
L 163.825573 193.792966 
L 163.984968 193.792966 
L 164.144364 192.638661 
L 164.383457 192.638661 
L 164.542852 191.792171 
L 164.781945 191.792171 
L 164.94134 191.253495 
L 165.100735 191.253495 
L 165.26013 190.560912 
L 165.499223 190.560912 
L 165.658619 189.483561 
L 165.897712 189.483561 
L 166.057107 187.944487 
L 166.216502 187.944487 
L 166.375897 185.943692 
L 166.61499 185.943692 
L 166.774386 184.173758 
L 167.013478 184.173758 
L 167.172874 182.32687 
L 167.332269 182.32687 
L 167.491664 181.018658 
L 167.730757 181.018658 
L 167.890152 179.556538 
L 168.129245 179.556538 
L 168.288641 178.479187 
L 168.448036 178.479187 
L 168.607431 177.478789 
L 168.846524 177.478789 
L 169.005919 176.632299 
L 169.245012 176.632299 
L 169.404408 175.631901 
L 169.563803 175.631901 
L 169.723198 174.400643 
L 169.962291 174.400643 
L 170.121686 172.24594 
L 170.360779 172.24594 
L 170.520174 169.321701 
L 170.67957 169.321701 
L 170.838965 167.090045 
L 171.078058 167.090045 
L 171.237453 165.243157 
L 171.396848 165.243157 
L 171.556244 164.165806 
L 171.795337 164.165806 
L 171.954732 162.934547 
L 172.193825 162.934547 
L 172.35322 162.241964 
L 172.512615 162.241964 
L 172.672011 161.395474 
L 172.911104 161.395474 
L 173.070499 160.548983 
L 173.309592 160.548983 
L 173.468987 159.00991 
L 173.628382 159.00991 
L 173.787778 157.778652 
L 174.02687 157.778652 
L 174.186266 155.777856 
L 174.425359 155.777856 
L 174.584754 153.700107 
L 174.744149 153.700107 
L 174.903544 151.699312 
L 175.142637 151.699312 
L 175.302033 150.083285 
L 175.541125 150.083285 
L 175.700521 149.467656 
L 175.859916 149.467656 
L 176.019311 148.852027 
L 176.258404 148.852027 
L 176.417799 148.08249 
L 176.656892 148.08249 
L 176.816288 146.081695 
L 176.975683 146.081695 
L 177.135078 144.850436 
L 177.374171 144.850436 
L 177.533566 142.387919 
L 177.692962 142.387919 
L 177.852357 140.771892 
L 178.09145 140.771892 
L 178.250845 138.540236 
L 178.489938 138.540236 
L 178.649333 136.924209 
L 178.808729 136.924209 
L 178.968124 135.539043 
L 179.207217 135.539043 
L 179.366612 134.538645 
L 179.605705 134.538645 
L 179.7651 133.99997 
L 179.924495 133.99997 
L 180.083891 133.461294 
L 180.322984 133.461294 
L 180.482379 132.383943 
L 180.721472 132.383943 
L 180.880867 130.152287 
L 181.040262 130.152287 
L 181.199658 128.459306 
L 181.438751 128.459306 
L 181.598146 126.689372 
L 181.837239 126.689372 
L 181.996634 124.303808 
L 182.156029 124.303808 
L 182.315425 122.764735 
L 182.554517 122.764735 
L 182.713913 121.918245 
L 182.953006 121.918245 
L 183.112401 120.994801 
L 183.271796 120.994801 
L 183.431191 120.379171 
L 183.670284 120.379171 
L 183.82968 119.763542 
L 183.989075 119.763542 
L 184.14847 118.301423 
L 184.387563 118.301423 
L 184.546958 116.916257 
L 184.786051 116.916257 
L 184.945446 115.454137 
L 185.104842 115.454137 
L 185.264237 113.068573 
L 185.50333 113.068573 
L 185.662725 110.836917 
L 185.901818 110.836917 
L 186.061213 108.836122 
L 186.220609 108.836122 
L 186.380004 107.604863 
L 186.619097 107.604863 
L 186.778492 106.835327 
L 187.017585 106.835327 
L 187.17698 106.527512 
L 187.336376 106.527512 
L 187.495771 105.757976 
L 187.734864 105.757976 
L 187.894259 104.988439 
L 188.133352 104.988439 
L 188.292747 103.988041 
L 188.452142 103.988041 
L 188.611538 102.218107 
L 188.850631 102.218107 
L 189.010026 100.217312 
L 189.249119 100.217312 
L 189.408514 98.29347 
L 189.567909 98.29347 
L 189.727305 96.446582 
L 189.966398 96.446582 
L 190.125793 94.830555 
L 190.364886 94.830555 
L 190.524281 93.830158 
L 190.683676 93.830158 
L 190.843072 93.214528 
L 191.082164 93.214528 
L 191.24156 92.752806 
L 191.400955 92.752806 
L 191.56035 91.598502 
L 191.799443 91.598502 
L 191.958838 89.67466 
L 192.197931 89.67466 
L 192.357327 87.827772 
L 192.516722 87.827772 
L 192.676117 85.519162 
L 192.91521 85.519162 
L 193.074605 84.21095 
L 193.313698 84.21095 
L 193.473093 81.671479 
L 193.632489 81.671479 
L 193.791884 80.824989 
L 194.030977 80.824989 
L 194.190372 79.824591 
L 194.429465 79.824591 
L 194.58886 79.362869 
L 194.748256 79.362869 
L 194.907651 78.74724 
L 195.146744 78.74724 
L 195.306139 77.592935 
L 195.545232 77.592935 
L 195.704627 76.053862 
L 195.864023 76.053862 
L 196.023418 74.360881 
L 196.262511 74.360881 
L 196.421906 72.206178 
L 196.660999 72.206178 
L 196.820394 69.589754 
L 196.979789 69.589754 
L 197.139185 67.588959 
L 197.378278 67.588959 
L 197.537673 66.280746 
L 197.697068 66.280746 
L 197.856463 65.280349 
L 198.095556 65.280349 
L 198.254952 64.510812 
L 198.494045 64.510812 
L 198.65344 63.664322 
L 198.812835 63.664322 
L 198.97223 62.740878 
L 199.211323 62.740878 
L 199.370719 61.124851 
L 199.609811 61.124851 
L 199.769207 59.354917 
L 199.928602 59.354917 
L 200.087997 57.200214 
L 200.32709 57.200214 
L 200.486485 55.122465 
L 200.725578 55.122465 
L 200.884974 54.122068 
L 201.044369 54.122068 
L 201.203764 52.813855 
L 201.442857 52.813855 
L 201.602252 51.505643 
L 201.841345 51.505643 
L 202.000741 50.736107 
L 202.160136 50.736107 
L 202.319531 50.197431 
L 202.558624 50.197431 
L 202.718019 49.658755 
L 202.957112 49.658755 
L 203.116507 48.889219 
L 203.275903 48.889219 
L 203.435298 47.734914 
L 203.674391 47.734914 
L 203.833786 46.426701 
L 204.072879 46.426701 
L 204.232274 45.811072 
L 204.39167 45.811072 
L 204.551065 45.426304 
L 204.790158 45.426304 
L 204.949553 45.272396 
L 205.108948 45.272396 
L 205.268344 44.964582 
L 206.224715 44.887628 
L 206.38411 44.733721 
L 206.623203 44.733721 
L 206.782599 44.579813 
L 207.021692 44.579813 
L 207.181087 44.348953 
L 207.340482 44.348953 
L 207.499877 44.195045 
L 207.73897 44.195045 
L 207.898366 43.964184 
L 208.137458 43.964184 
L 208.296854 43.733323 
L 208.456249 43.733323 
L 208.615644 43.579416 
L 209.970504 43.502462 
L 210.209597 43.425509 
L 210.368992 43.425509 
L 210.528388 43.194648 
L 210.687783 43.194648 
L 210.847178 42.963787 
L 211.086271 42.963787 
L 211.245666 42.809879 
L 211.405062 42.809879 
L 211.564457 42.579018 
L 211.80355 42.579018 
L 211.962945 42.348157 
L 212.202038 42.348157 
L 212.361433 42.19425 
L 212.520828 42.19425 
L 212.680224 41.963389 
L 213.636595 41.886435 
L 213.795991 41.732528 
L 214.035083 41.732528 
L 214.194479 41.424713 
L 214.433572 41.424713 
L 214.592967 41.270806 
L 215.15085 41.193852 
L 215.389943 41.116899 
L 215.549339 41.116899 
L 215.708734 40.962991 
L 215.868129 40.962991 
L 216.027524 40.809084 
L 216.983896 40.73213 
L 217.143291 40.578223 
L 217.382384 40.578223 
L 217.541779 40.424316 
L 217.701175 40.424316 
L 217.86057 40.270408 
L 218.099663 40.270408 
L 218.259058 40.039547 
L 218.498151 40.039547 
L 218.657546 39.731733 
L 219.21543 39.654779 
L 219.374825 39.423918 
L 219.932709 39.346964 
L 220.171801 39.270011 
L 221.048475 39.270011 
L 221.207871 39.116103 
L 222.164242 39.03915 
L 222.323638 38.731335 
L 223.678497 38.654381 
L 223.91759 38.577428 
L 225.910031 38.500474 
L 226.149124 38.42352 
L 237.386491 38.346567 
L 237.625584 38.269613 
L 304.412202 38.192659 
L 304.651295 38.115706 
L 470.741168 38.038752 
L 470.980261 37.961798 
L 781.960435 37.884845 
L 782.199528 37.807891 
L 889.871033 37.730938 
L 889.871033 37.730938 
" clip-path="url(#pa9d79d790c)" style="fill: none; stroke: #1f77b4; stroke-width: 2; stroke-linecap: square"/>
   </g>
   <g id="line2d_32">
    <path d="M 92.974375 317.149688 
L 115.528806 317.074474 
L 115.767899 316.397551 
L 116.086689 315.34456 
L 116.485178 313.389004 
L 117.043061 310.230031 
L 117.441549 305.115502 
L 117.680642 300.452255 
L 118.477618 275.481319 
L 120.071571 219.371928 
L 120.709152 202.674496 
L 120.78885 201.170222 
L 121.027943 193.648856 
L 122.064012 169.430058 
L 123.259477 147.69331 
L 123.897058 125.956562 
L 124.853429 90.305286 
L 125.092522 84.363407 
L 125.570708 77.368537 
L 125.809801 75.036913 
L 126.208289 72.554862 
L 126.447382 71.652299 
L 126.686475 70.599307 
L 127.642846 68.718966 
L 127.881939 67.36512 
L 128.121032 66.086488 
L 128.20073 66.086488 
L 128.439823 65.484778 
L 128.678916 64.807855 
L 128.758613 64.807855 
L 128.997706 64.356573 
L 129.714985 63.830078 
L 130.272868 63.754864 
L 130.511961 63.67965 
L 130.671357 63.67965 
L 130.830752 63.378796 
L 131.069845 63.378796 
L 131.22924 63.228369 
L 131.787124 63.153155 
L 131.946519 62.777087 
L 132.504402 62.701873 
L 132.663798 62.476232 
L 132.90289 62.476232 
L 133.062286 62.325805 
L 133.301379 62.325805 
L 133.460774 62.02495 
L 133.620169 62.02495 
L 133.779564 61.573668 
L 134.018657 61.573668 
L 134.178053 61.272813 
L 134.417146 61.272813 
L 134.576541 61.122386 
L 134.735936 61.122386 
L 134.895331 60.896745 
L 135.134424 60.896745 
L 135.29382 60.671104 
L 135.851703 60.59589 
L 136.090796 60.520677 
L 136.250191 60.520677 
L 136.409586 60.295036 
L 136.648679 60.295036 
L 136.808075 59.918967 
L 136.96747 59.918967 
L 137.126865 59.392472 
L 137.365958 59.392472 
L 137.525353 58.565122 
L 137.684749 58.565122 
L 137.844144 58.189053 
L 138.083237 58.189053 
L 138.242632 57.888199 
L 138.481725 57.888199 
L 138.64112 57.211276 
L 138.800515 57.211276 
L 138.959911 56.985635 
L 139.199004 56.985635 
L 139.358399 56.233498 
L 139.597492 56.233498 
L 139.756887 55.330934 
L 139.916282 55.330934 
L 140.075678 54.654011 
L 140.314771 54.654011 
L 140.474166 54.127516 
L 140.713259 54.127516 
L 140.872654 53.60102 
L 141.032049 53.60102 
L 141.191445 53.149738 
L 141.430537 53.149738 
L 141.589933 52.698456 
L 141.829026 52.698456 
L 141.988421 51.946319 
L 142.147816 51.946319 
L 142.307211 50.592474 
L 142.546304 50.592474 
L 142.7057 49.012987 
L 142.944793 49.012987 
L 143.104188 46.83179 
L 143.263583 46.83179 
L 143.422978 44.951449 
L 143.662071 44.951449 
L 143.821467 43.597603 
L 143.980862 43.597603 
L 144.140257 43.071107 
L 144.37935 43.071107 
L 144.538745 42.619825 
L 144.777838 42.619825 
L 144.937233 42.469398 
L 145.495117 42.394184 
L 145.654512 42.243757 
L 146.212396 42.243757 
L 146.371791 42.09333 
L 146.610884 42.09333 
L 146.770279 41.942903 
L 147.726651 41.942903 
L 147.886046 41.792475 
L 149.240906 41.717262 
L 149.479999 41.642048 
L 152.508509 41.566834 
L 152.667904 41.416407 
L 153.305485 41.416407 
L 153.46488 41.26598 
L 155.537019 41.190766 
L 155.776112 41.115552 
L 157.370065 41.040339 
L 157.609157 40.965125 
L 158.804622 40.889911 
L 159.043715 40.814698 
L 159.920389 40.739484 
L 160.079784 40.513843 
L 161.036156 40.438629 
L 161.195551 40.288202 
L 161.434644 40.288202 
L 161.594039 40.137775 
L 161.833132 40.137775 
L 161.992527 39.83692 
L 162.948899 39.761706 
L 163.108294 39.611279 
L 164.383457 39.536065 
L 164.622549 39.460852 
L 173.628382 39.385638 
L 173.867475 39.310424 
L 176.975683 39.235211 
L 177.214776 39.159997 
L 178.808729 39.084783 
L 178.968124 38.783929 
L 179.207217 38.783929 
L 179.366612 38.483074 
L 180.322984 38.40786 
L 180.482379 38.257433 
L 197.697068 38.182219 
L 197.936161 38.107006 
L 274.047403 38.031792 
L 274.286496 37.956578 
L 291.819976 37.881365 
L 292.059069 37.806151 
L 889.871033 37.730938 
L 889.871033 37.730938 
" clip-path="url(#pa9d79d790c)" style="fill: none; stroke: #ff7f0e; stroke-width: 2; stroke-linecap: square"/>
   </g>
   <g id="patch_3">
    <path d="M 92.974375 331.120625 
L 92.974375 23.76 
" style="fill: none; stroke: #000000; stroke-width: 0.8; stroke-linejoin: miter; stroke-linecap: square"/>
   </g>
   <g id="patch_4">
    <path d="M 897.84 331.120625 
L 897.84 23.76 
" style="fill: none; stroke: #000000; stroke-width: 0.8; stroke-linejoin: miter; stroke-linecap: square"/>
   </g>
   <g id="patch_5">
    <path d="M 92.974375 331.120625 
L 897.84 331.120625 
" style="fill: none; stroke: #000000; stroke-width: 0.8; stroke-linejoin: miter; stroke-linecap: square"/>
   </g>
   <g id="patch_6">
    <path d="M 92.974375 23.76 
L 897.84 23.76 
" style="fill: none; stroke: #000000; stroke-width: 0.8; stroke-linejoin: miter; stroke-linecap: square"/>
   </g>
   <g id="legend_1">
    <g id="patch_7">
     <path d="M 667.09125 319.120625 
L 881.04 319.120625 
Q 885.84 319.120625 885.84 314.320625 
L 885.84 245.598125 
Q 885.84 240.798125 881.04 240.798125 
L 667.09125 240.798125 
Q 662.29125 240.798125 662.29125 245.598125 
L 662.29125 314.320625 
Q 662.29125 319.120625 667.09125 319.120625 
z
" style="fill: #ffffff; opacity: 0.8; stroke: #cccccc; stroke-linejoin: miter"/>
    </g>
    <g id="line2d_33">
     <path d="M 671.89125 260.234375 
L 695.89125 260.234375 
L 719.89125 260.234375 
" style="fill: none; stroke: #1f77b4; stroke-width: 2; stroke-linecap: square"/>
    </g>
    <g id="text_18">
     <!-- no_prealloc -->
     <g transform="translate(739.09125 268.634375)scale(0.24 -0.24)">
      <defs>
       <path id="DejaVuSans-5f" d="M 3263 -1063 
L 3263 -1509 
L -63 -1509 
L -63 -1063 
L 3263 -1063 
z
" transform="scale(0.015625)"/>
       <path id="DejaVuSans-70" d="M 1159 525 
L 1159 -1331 
L 581 -1331 
L 581 3500 
L 1159 3500 
L 1159 2969 
Q 1341 3281 1617 3432 
Q 1894 3584 2278 3584 
Q 2916 3584 3314 3078 
Q 3713 2572 3713 1747 
Q 3713 922 3314 415 
Q 2916 -91 2278 -91 
Q 1894 -91 1617 61 
Q 1341 213 1159 525 
z
M 3116 1747 
Q 3116 2381 2855 2742 
Q 2594 3103 2138 3103 
Q 1681 3103 1420 2742 
Q 1159 2381 1159 1747 
Q 1159 1113 1420 752 
Q 1681 391 2138 391 
Q 2594 391 2855 752 
Q 3116 1113 3116 1747 
z
" transform="scale(0.015625)"/>
       <path id="DejaVuSans-61" d="M 2194 1759 
Q 1497 1759 1228 1600 
Q 959 1441 959 1056 
Q 959 750 1161 570 
Q 1363 391 1709 391 
Q 2188 391 2477 730 
Q 2766 1069 2766 1631 
L 2766 1759 
L 2194 1759 
z
M 3341 1997 
L 3341 0 
L 2766 0 
L 2766 531 
Q 2569 213 2275 61 
Q 1981 -91 1556 -91 
Q 1019 -91 701 211 
Q 384 513 384 1019 
Q 384 1609 779 1909 
Q 1175 2209 1959 2209 
L 2766 2209 
L 2766 2266 
Q 2766 2663 2505 2880 
Q 2244 3097 1772 3097 
Q 1472 3097 1187 3025 
Q 903 2953 641 2809 
L 641 3341 
Q 956 3463 1253 3523 
Q 1550 3584 1831 3584 
Q 2591 3584 2966 3190 
Q 3341 2797 3341 1997 
z
" transform="scale(0.015625)"/>
      </defs>
      <use xlink:href="#DejaVuSans-6e"/>
      <use xlink:href="#DejaVuSans-6f" x="63.378906"/>
      <use xlink:href="#DejaVuSans-5f" x="124.560547"/>
      <use xlink:href="#DejaVuSans-70" x="174.560547"/>
      <use xlink:href="#DejaVuSans-72" x="238.037109"/>
      <use xlink:href="#DejaVuSans-65" x="276.900391"/>
      <use xlink:href="#DejaVuSans-61" x="338.423828"/>
      <use xlink:href="#DejaVuSans-6c" x="399.703125"/>
      <use xlink:href="#DejaVuSans-6c" x="427.486328"/>
      <use xlink:href="#DejaVuSans-6f" x="455.269531"/>
      <use xlink:href="#DejaVuSans-63" x="516.451172"/>
     </g>
    </g>
    <g id="line2d_34">
     <path d="M 671.89125 296.129375 
L 695.89125 296.129375 
L 719.89125 296.129375 
" style="fill: none; stroke: #ff7f0e; stroke-width: 2; stroke-linecap: square"/>
    </g>
    <g id="text_19">
     <!-- Default -->
     <g transform="translate(739.09125 304.529375)scale(0.24 -0.24)">
      <defs>
       <path id="DejaVuSans-44" d="M 1259 4147 
L 1259 519 
L 2022 519 
Q 2988 519 3436 956 
Q 3884 1394 3884 2338 
Q 3884 3275 3436 3711 
Q 2988 4147 2022 4147 
L 1259 4147 
z
M 628 4666 
L 1925 4666 
Q 3281 4666 3915 4102 
Q 4550 3538 4550 2338 
Q 4550 1131 3912 565 
Q 3275 0 1925 0 
L 628 0 
L 628 4666 
z
" transform="scale(0.015625)"/>
       <path id="DejaVuSans-74" d="M 1172 4494 
L 1172 3500 
L 2356 3500 
L 2356 3053 
L 1172 3053 
L 1172 1153 
Q 1172 725 1289 603 
Q 1406 481 1766 481 
L 2356 481 
L 2356 0 
L 1766 0 
Q 1100 0 847 248 
Q 594 497 594 1153 
L 594 3053 
L 172 3053 
L 172 3500 
L 594 3500 
L 594 4494 
L 1172 4494 
z
" transform="scale(0.015625)"/>
      </defs>
      <use xlink:href="#DejaVuSans-44"/>
      <use xlink:href="#DejaVuSans-65" x="77.001953"/>
      <use xlink:href="#DejaVuSans-66" x="138.525391"/>
      <use xlink:href="#DejaVuSans-61" x="173.730469"/>
      <use xlink:href="#DejaVuSans-75" x="235.009766"/>
      <use xlink:href="#DejaVuSans-6c" x="298.388672"/>
      <use xlink:href="#DejaVuSans-74" x="326.171875"/>
     </g>
    </g>
   </g>
  </g>
 </g>
 <defs>
  <clipPath id="pa9d79d790c">
   <rect x="92.974375" y="23.76" width="804.865625" height="307.360625"/>
  </clipPath>
 </defs>
</svg>
