<?xml version="1.0" encoding="utf-8" standalone="no"?>
<!DOCTYPE svg PUBLIC "-//W3C//DTD SVG 1.1//EN"
  "http://www.w3.org/Graphics/SVG/1.1/DTD/svg11.dtd">
<svg xmlns:xlink="http://www.w3.org/1999/xlink" width="921.6pt" height="410.4pt" viewBox="0 0 921.6 410.4" xmlns="http://www.w3.org/2000/svg" version="1.1">
 <metadata>
  <rdf:RDF xmlns:dc="http://purl.org/dc/elements/1.1/" xmlns:cc="http://creativecommons.org/ns#" xmlns:rdf="http://www.w3.org/1999/02/22-rdf-syntax-ns#">
   <cc:Work>
    <dc:type rdf:resource="http://purl.org/dc/dcmitype/StillImage"/>
    <dc:date>2023-04-24T12:27:00.454190</dc:date>
    <dc:format>image/svg+xml</dc:format>
    <dc:creator>
     <cc:Agent>
      <dc:title>Matplotlib v3.5.3, https://matplotlib.org/</dc:title>
     </cc:Agent>
    </dc:creator>
   </cc:Work>
  </rdf:RDF>
 </metadata>
 <defs>
  <style type="text/css">*{stroke-linejoin: round; stroke-linecap: butt}</style>
 </defs>
 <g id="figure_1">
  <g id="patch_1">
   <path d="M 0 410.4 
L 921.6 410.4 
L 921.6 0 
L 0 0 
L 0 410.4 
z
" style="fill: none"/>
  </g>
  <g id="axes_1">
   <g id="patch_2">
    <path d="M 92.974375 331.120625 
L 897.84 331.120625 
L 897.84 23.76 
L 92.974375 23.76 
z
" style="fill: #ffffff"/>
   </g>
   <g id="matplotlib.axis_1">
    <g id="xtick_1">
     <g id="line2d_1">
      <path d="M 92.974375 331.120625 
L 92.974375 23.76 
" clip-path="url(#p16ec660f0e)" style="fill: none; stroke: #b0b0b0; stroke-width: 0.8; stroke-linecap: square"/>
     </g>
     <g id="line2d_2">
      <defs>
       <path id="m1d0c1c0164" d="M 0 0 
L 0 3.5 
" style="stroke: #000000; stroke-width: 0.8"/>
      </defs>
      <g>
       <use xlink:href="#m1d0c1c0164" x="92.974375" y="331.120625" style="stroke: #000000; stroke-width: 0.8"/>
      </g>
     </g>
     <g id="text_1">
      <!-- 0 -->
      <g transform="translate(85.975625 354.837188)scale(0.22 -0.22)">
       <defs>
        <path id="DejaVuSans-30" d="M 2034 4250 
Q 1547 4250 1301 3770 
Q 1056 3291 1056 2328 
Q 1056 1369 1301 889 
Q 1547 409 2034 409 
Q 2525 409 2770 889 
Q 3016 1369 3016 2328 
Q 3016 3291 2770 3770 
Q 2525 4250 2034 4250 
z
M 2034 4750 
Q 2819 4750 3233 4129 
Q 3647 3509 3647 2328 
Q 3647 1150 3233 529 
Q 2819 -91 2034 -91 
Q 1250 -91 836 529 
Q 422 1150 422 2328 
Q 422 3509 836 4129 
Q 1250 4750 2034 4750 
z
" transform="scale(0.015625)"/>
       </defs>
       <use xlink:href="#DejaVuSans-30"/>
      </g>
     </g>
    </g>
    <g id="xtick_2">
     <g id="line2d_3">
      <path d="M 229.009994 331.120625 
L 229.009994 23.76 
" clip-path="url(#p16ec660f0e)" style="fill: none; stroke: #b0b0b0; stroke-width: 0.8; stroke-linecap: square"/>
     </g>
     <g id="line2d_4">
      <g>
       <use xlink:href="#m1d0c1c0164" x="229.009994" y="331.120625" style="stroke: #000000; stroke-width: 0.8"/>
      </g>
     </g>
     <g id="text_2">
      <!-- 10 -->
      <g transform="translate(215.012494 354.837188)scale(0.22 -0.22)">
       <defs>
        <path id="DejaVuSans-31" d="M 794 531 
L 1825 531 
L 1825 4091 
L 703 3866 
L 703 4441 
L 1819 4666 
L 2450 4666 
L 2450 531 
L 3481 531 
L 3481 0 
L 794 0 
L 794 531 
z
" transform="scale(0.015625)"/>
       </defs>
       <use xlink:href="#DejaVuSans-31"/>
       <use xlink:href="#DejaVuSans-30" x="63.623047"/>
      </g>
     </g>
    </g>
    <g id="xtick_3">
     <g id="line2d_5">
      <path d="M 365.045614 331.120625 
L 365.045614 23.76 
" clip-path="url(#p16ec660f0e)" style="fill: none; stroke: #b0b0b0; stroke-width: 0.8; stroke-linecap: square"/>
     </g>
     <g id="line2d_6">
      <g>
       <use xlink:href="#m1d0c1c0164" x="365.045614" y="331.120625" style="stroke: #000000; stroke-width: 0.8"/>
      </g>
     </g>
     <g id="text_3">
      <!-- 20 -->
      <g transform="translate(351.048114 354.837188)scale(0.22 -0.22)">
       <defs>
        <path id="DejaVuSans-32" d="M 1228 531 
L 3431 531 
L 3431 0 
L 469 0 
L 469 531 
Q 828 903 1448 1529 
Q 2069 2156 2228 2338 
Q 2531 2678 2651 2914 
Q 2772 3150 2772 3378 
Q 2772 3750 2511 3984 
Q 2250 4219 1831 4219 
Q 1534 4219 1204 4116 
Q 875 4013 500 3803 
L 500 4441 
Q 881 4594 1212 4672 
Q 1544 4750 1819 4750 
Q 2544 4750 2975 4387 
Q 3406 4025 3406 3419 
Q 3406 3131 3298 2873 
Q 3191 2616 2906 2266 
Q 2828 2175 2409 1742 
Q 1991 1309 1228 531 
z
" transform="scale(0.015625)"/>
       </defs>
       <use xlink:href="#DejaVuSans-32"/>
       <use xlink:href="#DejaVuSans-30" x="63.623047"/>
      </g>
     </g>
    </g>
    <g id="xtick_4">
     <g id="line2d_7">
      <path d="M 501.081233 331.120625 
L 501.081233 23.76 
" clip-path="url(#p16ec660f0e)" style="fill: none; stroke: #b0b0b0; stroke-width: 0.8; stroke-linecap: square"/>
     </g>
     <g id="line2d_8">
      <g>
       <use xlink:href="#m1d0c1c0164" x="501.081233" y="331.120625" style="stroke: #000000; stroke-width: 0.8"/>
      </g>
     </g>
     <g id="text_4">
      <!-- 30 -->
      <g transform="translate(487.083733 354.837188)scale(0.22 -0.22)">
       <defs>
        <path id="DejaVuSans-33" d="M 2597 2516 
Q 3050 2419 3304 2112 
Q 3559 1806 3559 1356 
Q 3559 666 3084 287 
Q 2609 -91 1734 -91 
Q 1441 -91 1130 -33 
Q 819 25 488 141 
L 488 750 
Q 750 597 1062 519 
Q 1375 441 1716 441 
Q 2309 441 2620 675 
Q 2931 909 2931 1356 
Q 2931 1769 2642 2001 
Q 2353 2234 1838 2234 
L 1294 2234 
L 1294 2753 
L 1863 2753 
Q 2328 2753 2575 2939 
Q 2822 3125 2822 3475 
Q 2822 3834 2567 4026 
Q 2313 4219 1838 4219 
Q 1578 4219 1281 4162 
Q 984 4106 628 3988 
L 628 4550 
Q 988 4650 1302 4700 
Q 1616 4750 1894 4750 
Q 2613 4750 3031 4423 
Q 3450 4097 3450 3541 
Q 3450 3153 3228 2886 
Q 3006 2619 2597 2516 
z
" transform="scale(0.015625)"/>
       </defs>
       <use xlink:href="#DejaVuSans-33"/>
       <use xlink:href="#DejaVuSans-30" x="63.623047"/>
      </g>
     </g>
    </g>
    <g id="xtick_5">
     <g id="line2d_9">
      <path d="M 637.116853 331.120625 
L 637.116853 23.76 
" clip-path="url(#p16ec660f0e)" style="fill: none; stroke: #b0b0b0; stroke-width: 0.8; stroke-linecap: square"/>
     </g>
     <g id="line2d_10">
      <g>
       <use xlink:href="#m1d0c1c0164" x="637.116853" y="331.120625" style="stroke: #000000; stroke-width: 0.8"/>
      </g>
     </g>
     <g id="text_5">
      <!-- 40 -->
      <g transform="translate(623.119353 354.837188)scale(0.22 -0.22)">
       <defs>
        <path id="DejaVuSans-34" d="M 2419 4116 
L 825 1625 
L 2419 1625 
L 2419 4116 
z
M 2253 4666 
L 3047 4666 
L 3047 1625 
L 3713 1625 
L 3713 1100 
L 3047 1100 
L 3047 0 
L 2419 0 
L 2419 1100 
L 313 1100 
L 313 1709 
L 2253 4666 
z
" transform="scale(0.015625)"/>
       </defs>
       <use xlink:href="#DejaVuSans-34"/>
       <use xlink:href="#DejaVuSans-30" x="63.623047"/>
      </g>
     </g>
    </g>
    <g id="xtick_6">
     <g id="line2d_11">
      <path d="M 773.152472 331.120625 
L 773.152472 23.76 
" clip-path="url(#p16ec660f0e)" style="fill: none; stroke: #b0b0b0; stroke-width: 0.8; stroke-linecap: square"/>
     </g>
     <g id="line2d_12">
      <g>
       <use xlink:href="#m1d0c1c0164" x="773.152472" y="331.120625" style="stroke: #000000; stroke-width: 0.8"/>
      </g>
     </g>
     <g id="text_6">
      <!-- 50 -->
      <g transform="translate(759.154972 354.837188)scale(0.22 -0.22)">
       <defs>
        <path id="DejaVuSans-35" d="M 691 4666 
L 3169 4666 
L 3169 4134 
L 1269 4134 
L 1269 2991 
Q 1406 3038 1543 3061 
Q 1681 3084 1819 3084 
Q 2600 3084 3056 2656 
Q 3513 2228 3513 1497 
Q 3513 744 3044 326 
Q 2575 -91 1722 -91 
Q 1428 -91 1123 -41 
Q 819 9 494 109 
L 494 744 
Q 775 591 1075 516 
Q 1375 441 1709 441 
Q 2250 441 2565 725 
Q 2881 1009 2881 1497 
Q 2881 1984 2565 2268 
Q 2250 2553 1709 2553 
Q 1456 2553 1204 2497 
Q 953 2441 691 2322 
L 691 4666 
z
" transform="scale(0.015625)"/>
       </defs>
       <use xlink:href="#DejaVuSans-35"/>
       <use xlink:href="#DejaVuSans-30" x="63.623047"/>
      </g>
     </g>
    </g>
    <g id="text_7">
     <!-- RTT (ms) -->
     <g transform="translate(442.372813 381.64875)scale(0.24 -0.24)">
      <defs>
       <path id="DejaVuSans-52" d="M 2841 2188 
Q 3044 2119 3236 1894 
Q 3428 1669 3622 1275 
L 4263 0 
L 3584 0 
L 2988 1197 
Q 2756 1666 2539 1819 
Q 2322 1972 1947 1972 
L 1259 1972 
L 1259 0 
L 628 0 
L 628 4666 
L 2053 4666 
Q 2853 4666 3247 4331 
Q 3641 3997 3641 3322 
Q 3641 2881 3436 2590 
Q 3231 2300 2841 2188 
z
M 1259 4147 
L 1259 2491 
L 2053 2491 
Q 2509 2491 2742 2702 
Q 2975 2913 2975 3322 
Q 2975 3731 2742 3939 
Q 2509 4147 2053 4147 
L 1259 4147 
z
" transform="scale(0.015625)"/>
       <path id="DejaVuSans-54" d="M -19 4666 
L 3928 4666 
L 3928 4134 
L 2272 4134 
L 2272 0 
L 1638 0 
L 1638 4134 
L -19 4134 
L -19 4666 
z
" transform="scale(0.015625)"/>
       <path id="DejaVuSans-20" transform="scale(0.015625)"/>
       <path id="DejaVuSans-28" d="M 1984 4856 
Q 1566 4138 1362 3434 
Q 1159 2731 1159 2009 
Q 1159 1288 1364 580 
Q 1569 -128 1984 -844 
L 1484 -844 
Q 1016 -109 783 600 
Q 550 1309 550 2009 
Q 550 2706 781 3412 
Q 1013 4119 1484 4856 
L 1984 4856 
z
" transform="scale(0.015625)"/>
       <path id="DejaVuSans-6d" d="M 3328 2828 
Q 3544 3216 3844 3400 
Q 4144 3584 4550 3584 
Q 5097 3584 5394 3201 
Q 5691 2819 5691 2113 
L 5691 0 
L 5113 0 
L 5113 2094 
Q 5113 2597 4934 2840 
Q 4756 3084 4391 3084 
Q 3944 3084 3684 2787 
Q 3425 2491 3425 1978 
L 3425 0 
L 2847 0 
L 2847 2094 
Q 2847 2600 2669 2842 
Q 2491 3084 2119 3084 
Q 1678 3084 1418 2786 
Q 1159 2488 1159 1978 
L 1159 0 
L 581 0 
L 581 3500 
L 1159 3500 
L 1159 2956 
Q 1356 3278 1631 3431 
Q 1906 3584 2284 3584 
Q 2666 3584 2933 3390 
Q 3200 3197 3328 2828 
z
" transform="scale(0.015625)"/>
       <path id="DejaVuSans-73" d="M 2834 3397 
L 2834 2853 
Q 2591 2978 2328 3040 
Q 2066 3103 1784 3103 
Q 1356 3103 1142 2972 
Q 928 2841 928 2578 
Q 928 2378 1081 2264 
Q 1234 2150 1697 2047 
L 1894 2003 
Q 2506 1872 2764 1633 
Q 3022 1394 3022 966 
Q 3022 478 2636 193 
Q 2250 -91 1575 -91 
Q 1294 -91 989 -36 
Q 684 19 347 128 
L 347 722 
Q 666 556 975 473 
Q 1284 391 1588 391 
Q 1994 391 2212 530 
Q 2431 669 2431 922 
Q 2431 1156 2273 1281 
Q 2116 1406 1581 1522 
L 1381 1569 
Q 847 1681 609 1914 
Q 372 2147 372 2553 
Q 372 3047 722 3315 
Q 1072 3584 1716 3584 
Q 2034 3584 2315 3537 
Q 2597 3491 2834 3397 
z
" transform="scale(0.015625)"/>
       <path id="DejaVuSans-29" d="M 513 4856 
L 1013 4856 
Q 1481 4119 1714 3412 
Q 1947 2706 1947 2009 
Q 1947 1309 1714 600 
Q 1481 -109 1013 -844 
L 513 -844 
Q 928 -128 1133 580 
Q 1338 1288 1338 2009 
Q 1338 2731 1133 3434 
Q 928 4138 513 4856 
z
" transform="scale(0.015625)"/>
      </defs>
      <use xlink:href="#DejaVuSans-52"/>
      <use xlink:href="#DejaVuSans-54" x="62.232422"/>
      <use xlink:href="#DejaVuSans-54" x="121.566406"/>
      <use xlink:href="#DejaVuSans-20" x="182.650391"/>
      <use xlink:href="#DejaVuSans-28" x="214.4375"/>
      <use xlink:href="#DejaVuSans-6d" x="253.451172"/>
      <use xlink:href="#DejaVuSans-73" x="350.863281"/>
      <use xlink:href="#DejaVuSans-29" x="402.962891"/>
     </g>
    </g>
   </g>
   <g id="matplotlib.axis_2">
    <g id="ytick_1">
     <g id="line2d_13">
      <path d="M 92.974375 317.149688 
L 897.84 317.149688 
" clip-path="url(#p16ec660f0e)" style="fill: none; stroke: #b0b0b0; stroke-width: 0.8; stroke-linecap: square"/>
     </g>
     <g id="line2d_14">
      <defs>
       <path id="m764a34c4eb" d="M 0 0 
L -3.5 0 
" style="stroke: #000000; stroke-width: 0.8"/>
      </defs>
      <g>
       <use xlink:href="#m764a34c4eb" x="92.974375" y="317.149688" style="stroke: #000000; stroke-width: 0.8"/>
      </g>
     </g>
     <g id="text_8">
      <!-- 0.0 -->
      <g transform="translate(50.9875 325.507969)scale(0.22 -0.22)">
       <defs>
        <path id="DejaVuSans-2e" d="M 684 794 
L 1344 794 
L 1344 0 
L 684 0 
L 684 794 
z
" transform="scale(0.015625)"/>
       </defs>
       <use xlink:href="#DejaVuSans-30"/>
       <use xlink:href="#DejaVuSans-2e" x="63.623047"/>
       <use xlink:href="#DejaVuSans-30" x="95.410156"/>
      </g>
     </g>
    </g>
    <g id="ytick_2">
     <g id="line2d_15">
      <path d="M 92.974375 261.265938 
L 897.84 261.265938 
" clip-path="url(#p16ec660f0e)" style="fill: none; stroke: #b0b0b0; stroke-width: 0.8; stroke-linecap: square"/>
     </g>
     <g id="line2d_16">
      <g>
       <use xlink:href="#m764a34c4eb" x="92.974375" y="261.265938" style="stroke: #000000; stroke-width: 0.8"/>
      </g>
     </g>
     <g id="text_9">
      <!-- 0.2 -->
      <g transform="translate(50.9875 269.624219)scale(0.22 -0.22)">
       <use xlink:href="#DejaVuSans-30"/>
       <use xlink:href="#DejaVuSans-2e" x="63.623047"/>
       <use xlink:href="#DejaVuSans-32" x="95.410156"/>
      </g>
     </g>
    </g>
    <g id="ytick_3">
     <g id="line2d_17">
      <path d="M 92.974375 205.382188 
L 897.84 205.382188 
" clip-path="url(#p16ec660f0e)" style="fill: none; stroke: #b0b0b0; stroke-width: 0.8; stroke-linecap: square"/>
     </g>
     <g id="line2d_18">
      <g>
       <use xlink:href="#m764a34c4eb" x="92.974375" y="205.382188" style="stroke: #000000; stroke-width: 0.8"/>
      </g>
     </g>
     <g id="text_10">
      <!-- 0.4 -->
      <g transform="translate(50.9875 213.740469)scale(0.22 -0.22)">
       <use xlink:href="#DejaVuSans-30"/>
       <use xlink:href="#DejaVuSans-2e" x="63.623047"/>
       <use xlink:href="#DejaVuSans-34" x="95.410156"/>
      </g>
     </g>
    </g>
    <g id="ytick_4">
     <g id="line2d_19">
      <path d="M 92.974375 149.498438 
L 897.84 149.498438 
" clip-path="url(#p16ec660f0e)" style="fill: none; stroke: #b0b0b0; stroke-width: 0.8; stroke-linecap: square"/>
     </g>
     <g id="line2d_20">
      <g>
       <use xlink:href="#m764a34c4eb" x="92.974375" y="149.498438" style="stroke: #000000; stroke-width: 0.8"/>
      </g>
     </g>
     <g id="text_11">
      <!-- 0.6 -->
      <g transform="translate(50.9875 157.856719)scale(0.22 -0.22)">
       <defs>
        <path id="DejaVuSans-36" d="M 2113 2584 
Q 1688 2584 1439 2293 
Q 1191 2003 1191 1497 
Q 1191 994 1439 701 
Q 1688 409 2113 409 
Q 2538 409 2786 701 
Q 3034 994 3034 1497 
Q 3034 2003 2786 2293 
Q 2538 2584 2113 2584 
z
M 3366 4563 
L 3366 3988 
Q 3128 4100 2886 4159 
Q 2644 4219 2406 4219 
Q 1781 4219 1451 3797 
Q 1122 3375 1075 2522 
Q 1259 2794 1537 2939 
Q 1816 3084 2150 3084 
Q 2853 3084 3261 2657 
Q 3669 2231 3669 1497 
Q 3669 778 3244 343 
Q 2819 -91 2113 -91 
Q 1303 -91 875 529 
Q 447 1150 447 2328 
Q 447 3434 972 4092 
Q 1497 4750 2381 4750 
Q 2619 4750 2861 4703 
Q 3103 4656 3366 4563 
z
" transform="scale(0.015625)"/>
       </defs>
       <use xlink:href="#DejaVuSans-30"/>
       <use xlink:href="#DejaVuSans-2e" x="63.623047"/>
       <use xlink:href="#DejaVuSans-36" x="95.410156"/>
      </g>
     </g>
    </g>
    <g id="ytick_5">
     <g id="line2d_21">
      <path d="M 92.974375 93.614688 
L 897.84 93.614688 
" clip-path="url(#p16ec660f0e)" style="fill: none; stroke: #b0b0b0; stroke-width: 0.8; stroke-linecap: square"/>
     </g>
     <g id="line2d_22">
      <g>
       <use xlink:href="#m764a34c4eb" x="92.974375" y="93.614688" style="stroke: #000000; stroke-width: 0.8"/>
      </g>
     </g>
     <g id="text_12">
      <!-- 0.8 -->
      <g transform="translate(50.9875 101.972969)scale(0.22 -0.22)">
       <defs>
        <path id="DejaVuSans-38" d="M 2034 2216 
Q 1584 2216 1326 1975 
Q 1069 1734 1069 1313 
Q 1069 891 1326 650 
Q 1584 409 2034 409 
Q 2484 409 2743 651 
Q 3003 894 3003 1313 
Q 3003 1734 2745 1975 
Q 2488 2216 2034 2216 
z
M 1403 2484 
Q 997 2584 770 2862 
Q 544 3141 544 3541 
Q 544 4100 942 4425 
Q 1341 4750 2034 4750 
Q 2731 4750 3128 4425 
Q 3525 4100 3525 3541 
Q 3525 3141 3298 2862 
Q 3072 2584 2669 2484 
Q 3125 2378 3379 2068 
Q 3634 1759 3634 1313 
Q 3634 634 3220 271 
Q 2806 -91 2034 -91 
Q 1263 -91 848 271 
Q 434 634 434 1313 
Q 434 1759 690 2068 
Q 947 2378 1403 2484 
z
M 1172 3481 
Q 1172 3119 1398 2916 
Q 1625 2713 2034 2713 
Q 2441 2713 2670 2916 
Q 2900 3119 2900 3481 
Q 2900 3844 2670 4047 
Q 2441 4250 2034 4250 
Q 1625 4250 1398 4047 
Q 1172 3844 1172 3481 
z
" transform="scale(0.015625)"/>
       </defs>
       <use xlink:href="#DejaVuSans-30"/>
       <use xlink:href="#DejaVuSans-2e" x="63.623047"/>
       <use xlink:href="#DejaVuSans-38" x="95.410156"/>
      </g>
     </g>
    </g>
    <g id="ytick_6">
     <g id="line2d_23">
      <path d="M 92.974375 37.730937 
L 897.84 37.730937 
" clip-path="url(#p16ec660f0e)" style="fill: none; stroke: #b0b0b0; stroke-width: 0.8; stroke-linecap: square"/>
     </g>
     <g id="line2d_24">
      <g>
       <use xlink:href="#m764a34c4eb" x="92.974375" y="37.730937" style="stroke: #000000; stroke-width: 0.8"/>
      </g>
     </g>
     <g id="text_13">
      <!-- 1.0 -->
      <g transform="translate(50.9875 46.089219)scale(0.22 -0.22)">
       <use xlink:href="#DejaVuSans-31"/>
       <use xlink:href="#DejaVuSans-2e" x="63.623047"/>
       <use xlink:href="#DejaVuSans-30" x="95.410156"/>
      </g>
     </g>
    </g>
    <g id="text_14">
     <!-- Likelihood of occurrence -->
     <g transform="translate(41.99625 323.628438)rotate(-90)scale(0.24 -0.24)">
      <defs>
       <path id="DejaVuSans-4c" d="M 628 4666 
L 1259 4666 
L 1259 531 
L 3531 531 
L 3531 0 
L 628 0 
L 628 4666 
z
" transform="scale(0.015625)"/>
       <path id="DejaVuSans-69" d="M 603 3500 
L 1178 3500 
L 1178 0 
L 603 0 
L 603 3500 
z
M 603 4863 
L 1178 4863 
L 1178 4134 
L 603 4134 
L 603 4863 
z
" transform="scale(0.015625)"/>
       <path id="DejaVuSans-6b" d="M 581 4863 
L 1159 4863 
L 1159 1991 
L 2875 3500 
L 3609 3500 
L 1753 1863 
L 3688 0 
L 2938 0 
L 1159 1709 
L 1159 0 
L 581 0 
L 581 4863 
z
" transform="scale(0.015625)"/>
       <path id="DejaVuSans-65" d="M 3597 1894 
L 3597 1613 
L 953 1613 
Q 991 1019 1311 708 
Q 1631 397 2203 397 
Q 2534 397 2845 478 
Q 3156 559 3463 722 
L 3463 178 
Q 3153 47 2828 -22 
Q 2503 -91 2169 -91 
Q 1331 -91 842 396 
Q 353 884 353 1716 
Q 353 2575 817 3079 
Q 1281 3584 2069 3584 
Q 2775 3584 3186 3129 
Q 3597 2675 3597 1894 
z
M 3022 2063 
Q 3016 2534 2758 2815 
Q 2500 3097 2075 3097 
Q 1594 3097 1305 2825 
Q 1016 2553 972 2059 
L 3022 2063 
z
" transform="scale(0.015625)"/>
       <path id="DejaVuSans-6c" d="M 603 4863 
L 1178 4863 
L 1178 0 
L 603 0 
L 603 4863 
z
" transform="scale(0.015625)"/>
       <path id="DejaVuSans-68" d="M 3513 2113 
L 3513 0 
L 2938 0 
L 2938 2094 
Q 2938 2591 2744 2837 
Q 2550 3084 2163 3084 
Q 1697 3084 1428 2787 
Q 1159 2491 1159 1978 
L 1159 0 
L 581 0 
L 581 4863 
L 1159 4863 
L 1159 2956 
Q 1366 3272 1645 3428 
Q 1925 3584 2291 3584 
Q 2894 3584 3203 3211 
Q 3513 2838 3513 2113 
z
" transform="scale(0.015625)"/>
       <path id="DejaVuSans-6f" d="M 1959 3097 
Q 1497 3097 1228 2736 
Q 959 2375 959 1747 
Q 959 1119 1226 758 
Q 1494 397 1959 397 
Q 2419 397 2687 759 
Q 2956 1122 2956 1747 
Q 2956 2369 2687 2733 
Q 2419 3097 1959 3097 
z
M 1959 3584 
Q 2709 3584 3137 3096 
Q 3566 2609 3566 1747 
Q 3566 888 3137 398 
Q 2709 -91 1959 -91 
Q 1206 -91 779 398 
Q 353 888 353 1747 
Q 353 2609 779 3096 
Q 1206 3584 1959 3584 
z
" transform="scale(0.015625)"/>
       <path id="DejaVuSans-64" d="M 2906 2969 
L 2906 4863 
L 3481 4863 
L 3481 0 
L 2906 0 
L 2906 525 
Q 2725 213 2448 61 
Q 2172 -91 1784 -91 
Q 1150 -91 751 415 
Q 353 922 353 1747 
Q 353 2572 751 3078 
Q 1150 3584 1784 3584 
Q 2172 3584 2448 3432 
Q 2725 3281 2906 2969 
z
M 947 1747 
Q 947 1113 1208 752 
Q 1469 391 1925 391 
Q 2381 391 2643 752 
Q 2906 1113 2906 1747 
Q 2906 2381 2643 2742 
Q 2381 3103 1925 3103 
Q 1469 3103 1208 2742 
Q 947 2381 947 1747 
z
" transform="scale(0.015625)"/>
       <path id="DejaVuSans-66" d="M 2375 4863 
L 2375 4384 
L 1825 4384 
Q 1516 4384 1395 4259 
Q 1275 4134 1275 3809 
L 1275 3500 
L 2222 3500 
L 2222 3053 
L 1275 3053 
L 1275 0 
L 697 0 
L 697 3053 
L 147 3053 
L 147 3500 
L 697 3500 
L 697 3744 
Q 697 4328 969 4595 
Q 1241 4863 1831 4863 
L 2375 4863 
z
" transform="scale(0.015625)"/>
       <path id="DejaVuSans-63" d="M 3122 3366 
L 3122 2828 
Q 2878 2963 2633 3030 
Q 2388 3097 2138 3097 
Q 1578 3097 1268 2742 
Q 959 2388 959 1747 
Q 959 1106 1268 751 
Q 1578 397 2138 397 
Q 2388 397 2633 464 
Q 2878 531 3122 666 
L 3122 134 
Q 2881 22 2623 -34 
Q 2366 -91 2075 -91 
Q 1284 -91 818 406 
Q 353 903 353 1747 
Q 353 2603 823 3093 
Q 1294 3584 2113 3584 
Q 2378 3584 2631 3529 
Q 2884 3475 3122 3366 
z
" transform="scale(0.015625)"/>
       <path id="DejaVuSans-75" d="M 544 1381 
L 544 3500 
L 1119 3500 
L 1119 1403 
Q 1119 906 1312 657 
Q 1506 409 1894 409 
Q 2359 409 2629 706 
Q 2900 1003 2900 1516 
L 2900 3500 
L 3475 3500 
L 3475 0 
L 2900 0 
L 2900 538 
Q 2691 219 2414 64 
Q 2138 -91 1772 -91 
Q 1169 -91 856 284 
Q 544 659 544 1381 
z
M 1991 3584 
L 1991 3584 
z
" transform="scale(0.015625)"/>
       <path id="DejaVuSans-72" d="M 2631 2963 
Q 2534 3019 2420 3045 
Q 2306 3072 2169 3072 
Q 1681 3072 1420 2755 
Q 1159 2438 1159 1844 
L 1159 0 
L 581 0 
L 581 3500 
L 1159 3500 
L 1159 2956 
Q 1341 3275 1631 3429 
Q 1922 3584 2338 3584 
Q 2397 3584 2469 3576 
Q 2541 3569 2628 3553 
L 2631 2963 
z
" transform="scale(0.015625)"/>
       <path id="DejaVuSans-6e" d="M 3513 2113 
L 3513 0 
L 2938 0 
L 2938 2094 
Q 2938 2591 2744 2837 
Q 2550 3084 2163 3084 
Q 1697 3084 1428 2787 
Q 1159 2491 1159 1978 
L 1159 0 
L 581 0 
L 581 3500 
L 1159 3500 
L 1159 2956 
Q 1366 3272 1645 3428 
Q 1925 3584 2291 3584 
Q 2894 3584 3203 3211 
Q 3513 2838 3513 2113 
z
" transform="scale(0.015625)"/>
      </defs>
      <use xlink:href="#DejaVuSans-4c"/>
      <use xlink:href="#DejaVuSans-69" x="55.712891"/>
      <use xlink:href="#DejaVuSans-6b" x="83.496094"/>
      <use xlink:href="#DejaVuSans-65" x="137.78125"/>
      <use xlink:href="#DejaVuSans-6c" x="199.304688"/>
      <use xlink:href="#DejaVuSans-69" x="227.087891"/>
      <use xlink:href="#DejaVuSans-68" x="254.871094"/>
      <use xlink:href="#DejaVuSans-6f" x="318.25"/>
      <use xlink:href="#DejaVuSans-6f" x="379.431641"/>
      <use xlink:href="#DejaVuSans-64" x="440.613281"/>
      <use xlink:href="#DejaVuSans-20" x="504.089844"/>
      <use xlink:href="#DejaVuSans-6f" x="535.876953"/>
      <use xlink:href="#DejaVuSans-66" x="597.058594"/>
      <use xlink:href="#DejaVuSans-20" x="632.263672"/>
      <use xlink:href="#DejaVuSans-6f" x="664.050781"/>
      <use xlink:href="#DejaVuSans-63" x="725.232422"/>
      <use xlink:href="#DejaVuSans-63" x="780.212891"/>
      <use xlink:href="#DejaVuSans-75" x="835.193359"/>
      <use xlink:href="#DejaVuSans-72" x="898.572266"/>
      <use xlink:href="#DejaVuSans-72" x="937.935547"/>
      <use xlink:href="#DejaVuSans-65" x="976.798828"/>
      <use xlink:href="#DejaVuSans-6e" x="1038.322266"/>
      <use xlink:href="#DejaVuSans-63" x="1101.701172"/>
      <use xlink:href="#DejaVuSans-65" x="1156.681641"/>
     </g>
    </g>
   </g>
   <g id="line2d_25">
    <path d="M 92.974375 317.149688 
L 174.823847 317.149688 
L 174.983242 316.995525 
L 175.302033 316.918444 
L 175.541125 316.841363 
L 176.019311 316.764282 
L 176.178707 316.224715 
L 177.214776 314.143527 
L 177.453869 312.756069 
L 177.533566 312.756069 
L 178.011752 311.599853 
L 178.09145 311.599853 
L 178.41024 309.749908 
L 178.489938 309.749908 
L 178.729031 309.13326 
L 179.286914 306.974991 
L 179.44631 306.1271 
L 179.7651 304.585479 
L 179.844798 304.585479 
L 180.004193 303.737588 
L 181.279355 299.035644 
L 181.359053 299.035644 
L 181.438751 298.804401 
L 181.598146 298.110672 
L 181.996634 297.031538 
L 182.156029 295.875322 
L 182.47482 294.102458 
L 182.554517 294.102458 
L 182.873308 291.558784 
L 182.953006 291.558784 
L 183.590587 286.548517 
L 183.670284 286.548517 
L 183.909377 283.850681 
L 184.546958 278.223765 
L 184.626656 278.223765 
L 184.706354 277.530036 
L 184.865749 275.448848 
L 185.901818 266.815772 
L 185.981516 266.815772 
L 186.300306 262.96172 
L 186.380004 262.96172 
L 186.539399 260.263884 
L 186.619097 260.263884 
L 186.85819 257.874372 
L 186.937887 257.874372 
L 187.256678 254.328644 
L 187.336376 254.328644 
L 187.495771 253.24951 
L 187.575468 253.24951 
L 187.814561 250.474593 
L 187.894259 250.474593 
L 188.21305 247.083027 
L 188.292747 247.083027 
L 188.611538 244.076867 
L 188.691235 244.076867 
L 189.010026 241.147788 
L 189.089724 241.147788 
L 189.408514 238.295789 
L 189.488212 238.295789 
L 189.727305 235.443791 
L 189.966398 234.441738 
L 190.046095 234.441738 
L 190.364886 230.973091 
L 190.444583 230.973091 
L 191.161862 227.350282 
L 191.321257 226.039905 
L 191.400955 226.039905 
L 191.799443 223.727474 
L 191.958838 222.417096 
L 192.277629 219.873422 
L 192.357327 219.873422 
L 192.755815 217.098505 
L 193.074605 215.094398 
L 193.154303 215.094398 
L 193.393396 214.323588 
L 193.473093 214.323588 
L 193.712186 212.627805 
L 194.190372 209.467482 
L 194.27007 209.467482 
L 194.58886 206.846727 
L 194.668558 206.846727 
L 195.385837 201.83646 
L 195.465534 201.83646 
L 195.704627 200.294839 
L 195.784325 200.294839 
L 196.023418 197.828246 
L 196.342208 195.13041 
L 196.421906 195.13041 
L 196.740697 192.047169 
L 196.820394 192.047169 
L 197.059487 190.043062 
L 197.139185 190.043062 
L 198.414347 179.868365 
L 198.494045 179.868365 
L 198.892533 177.324691 
L 199.131626 174.318531 
L 199.370719 171.389451 
L 199.450416 171.389451 
L 199.609811 168.691615 
L 199.689509 168.691615 
L 200.0083 163.141781 
L 200.087997 163.141781 
L 200.32709 160.598106 
L 200.406788 160.598106 
L 200.725578 156.050325 
L 200.805276 156.050325 
L 201.044369 153.660813 
L 201.203764 152.504598 
L 201.442857 149.806762 
L 201.68195 147.186006 
L 201.761648 147.186006 
L 202.080438 144.256927 
L 202.160136 144.256927 
L 202.399229 140.788281 
L 202.638322 139.24666 
L 202.718019 139.24666 
L 203.03681 135.932175 
L 203.116507 135.932175 
L 203.435298 131.692719 
L 203.514996 131.692719 
L 203.833786 128.146991 
L 203.913484 128.146991 
L 204.232274 124.755425 
L 204.311972 124.755425 
L 204.551065 122.520075 
L 204.630762 122.520075 
L 204.949553 119.89932 
L 205.029251 119.89932 
L 205.108948 119.590996 
L 205.348041 117.895213 
L 205.427739 117.895213 
L 205.666832 116.12235 
L 206.543506 111.420406 
L 206.623203 111.420406 
L 206.862296 110.649596 
L 206.941994 110.649596 
L 207.260784 109.262138 
L 207.340482 109.262138 
L 207.659273 108.105922 
L 207.73897 108.105922 
L 208.217156 106.641382 
L 208.296854 106.641382 
L 208.456249 105.793491 
L 208.535947 105.793491 
L 208.854737 104.406032 
L 208.934435 104.406032 
L 209.173528 104.020627 
L 209.253225 104.020627 
L 209.651714 102.247763 
L 209.970504 101.24571 
L 210.050202 101.24571 
L 210.209597 100.243656 
L 210.289295 100.243656 
L 210.528388 99.78117 
L 210.687783 99.704089 
L 210.847178 99.549927 
L 211.086271 98.393712 
L 211.405062 97.54582 
L 211.80355 96.697929 
L 211.962945 96.312524 
L 212.12234 96.158362 
L 212.202038 96.158362 
L 212.680224 93.691769 
L 212.759921 93.691769 
L 212.919317 92.920958 
L 213.317805 91.687662 
L 213.636595 89.760636 
L 213.716293 89.760636 
L 214.194479 86.600313 
L 214.274176 86.600313 
L 214.433572 85.289936 
L 214.513269 85.289936 
L 214.752362 83.902477 
L 214.83206 83.902477 
L 214.991455 82.823343 
L 215.071153 82.823343 
L 215.310246 82.283775 
L 215.549339 81.281722 
L 215.629036 81.281722 
L 215.947827 79.277615 
L 216.027524 79.277615 
L 216.266617 78.1214 
L 216.50571 77.42767 
L 216.585408 77.42767 
L 216.983896 76.271455 
L 217.143291 76.271455 
L 217.302687 76.117293 
L 217.382384 76.117293 
L 217.541779 75.577725 
L 217.780872 75.115239 
L 217.940268 75.115239 
L 218.099663 74.883996 
L 218.657546 74.498591 
L 218.737244 74.498591 
L 218.896639 74.190267 
L 219.454523 73.804862 
L 219.853011 73.727781 
L 220.171801 72.95697 
L 220.251499 72.95697 
L 220.490592 72.571565 
L 220.968778 72.263241 
L 221.048475 72.263241 
L 221.207871 72.109079 
L 221.765754 72.031998 
L 221.925149 71.723674 
L 222.004847 71.723674 
L 222.323638 71.338269 
L 222.722126 71.261188 
L 223.280009 70.875782 
L 224.555171 70.875782 
L 224.714567 70.72162 
L 225.830334 70.644539 
L 226.069426 70.567458 
L 226.467915 70.567458 
L 226.62731 70.413296 
L 227.344589 70.336215 
L 227.822774 70.027891 
L 228.540053 69.95081 
L 228.779146 69.873729 
L 230.293401 69.796648 
L 230.532494 69.719567 
L 234.357981 69.719567 
L 234.517376 69.565405 
L 235.71284 69.565405 
L 235.872236 69.411243 
L 241.211977 69.334162 
L 241.371372 69.102919 
L 242.566837 69.102919 
L 242.726232 68.871675 
L 245.276557 68.794594 
L 245.51565 68.717513 
L 247.986276 68.717513 
L 248.145672 68.48627 
L 249.341136 68.48627 
L 249.500531 68.332108 
L 250.695996 68.332108 
L 250.855391 67.484217 
L 252.050856 67.484217 
L 252.210251 66.94465 
L 253.405715 66.94465 
L 253.565111 65.942596 
L 254.760575 65.942596 
L 254.919971 64.786381 
L 256.115435 64.786381 
L 256.27483 63.861408 
L 257.549993 63.861408 
L 257.709388 63.553084 
L 258.904852 63.553084 
L 259.064248 63.24476 
L 260.259712 63.24476 
L 260.419107 62.551031 
L 261.614572 62.551031 
L 261.773967 61.857301 
L 262.969432 61.857301 
L 263.128827 61.394815 
L 264.324292 61.394815 
L 264.483687 60.2386 
L 265.679151 60.2386 
L 265.838547 59.082384 
L 267.034011 59.082384 
L 267.193406 58.234493 
L 268.388871 58.234493 
L 268.548266 56.53871 
L 269.743731 56.53871 
L 269.903126 54.380441 
L 271.098591 54.380441 
L 271.257986 52.530496 
L 272.45345 52.530496 
L 272.612846 50.834713 
L 273.80831 50.834713 
L 273.967705 49.524336 
L 275.16317 49.524336 
L 275.322565 48.213958 
L 276.597727 48.213958 
L 276.757123 47.674391 
L 277.952587 47.674391 
L 278.111983 46.903581 
L 279.307447 46.903581 
L 279.466842 45.284879 
L 280.662307 45.284879 
L 280.821702 43.434934 
L 282.017167 43.434934 
L 282.176562 42.432881 
L 283.372026 42.432881 
L 283.531422 41.739151 
L 284.726886 41.739151 
L 284.886282 41.122503 
L 286.081746 41.122503 
L 286.241141 40.505855 
L 287.436606 40.505855 
L 287.596001 40.274612 
L 288.791466 40.274612 
L 288.950861 40.043369 
L 290.146325 40.043369 
L 290.305721 39.889206 
L 292.856045 39.889206 
L 293.01544 39.580882 
L 294.210905 39.580882 
L 294.3703 39.118396 
L 295.645462 39.118396 
L 295.804858 38.887153 
L 298.355182 38.887153 
L 298.514577 38.732991 
L 299.710042 38.732991 
L 299.869437 38.578829 
L 313.25864 38.578829 
L 313.418035 38.424667 
L 321.467496 38.347586 
L 321.706589 38.270505 
L 351.35411 38.193424 
L 351.593203 38.116343 
L 356.853246 38.039262 
L 357.092339 37.962181 
L 360.917826 37.8851 
L 361.156919 37.808019 
L 889.871033 37.730938 
L 889.871033 37.730938 
" clip-path="url(#p16ec660f0e)" style="fill: none; stroke: #1f77b4; stroke-width: 2; stroke-linecap: square"/>
   </g>
   <g id="line2d_26">
    <path d="M 92.974375 317.149688 
L 175.859916 317.074474 
L 176.178707 316.924047 
L 176.258404 316.924047 
L 176.497497 316.547978 
L 176.73659 316.547978 
L 177.055381 316.17191 
L 177.214776 316.096696 
L 177.453869 315.871055 
L 177.533566 315.871055 
L 177.772659 315.419773 
L 178.330543 314.818064 
L 178.489938 314.517209 
L 178.729031 314.216355 
L 178.888426 314.216355 
L 179.127519 313.689859 
L 179.286914 313.464218 
L 179.844798 312.862509 
L 180.163588 312.185586 
L 180.243286 312.185586 
L 180.402681 311.884731 
L 180.562077 311.734304 
L 180.801169 311.65909 
L 181.11996 310.83174 
L 181.199658 310.83174 
L 181.438751 310.230031 
L 181.757541 309.40268 
L 181.916936 309.101826 
L 181.996634 309.101826 
L 182.156029 308.57533 
L 182.79361 306.093279 
L 183.032703 304.513792 
L 183.112401 304.513792 
L 183.590587 301.129178 
L 183.670284 301.129178 
L 183.989075 298.947982 
L 184.068772 298.947982 
L 184.786051 293.081316 
L 184.865749 293.081316 
L 185.184539 289.922342 
L 185.264237 289.922342 
L 185.50333 287.515505 
L 185.583028 287.515505 
L 186.300306 279.843712 
L 186.380004 279.843712 
L 186.85819 273.977046 
L 186.937887 273.977046 
L 187.256678 269.915508 
L 187.336376 269.915508 
L 187.655166 265.477903 
L 187.734864 265.477903 
L 188.053654 260.965083 
L 188.133352 260.965083 
L 188.452142 256.677904 
L 188.53184 256.677904 
L 188.770933 253.51893 
L 189.010026 251.262521 
L 189.089724 251.262521 
L 189.408514 247.652265 
L 189.488212 247.652265 
L 189.807002 243.4403 
L 189.8867 243.4403 
L 190.046095 242.01124 
L 190.683676 236.445429 
L 190.922769 233.812951 
L 191.002467 233.812951 
L 191.321257 229.901841 
L 191.400955 229.901841 
L 191.719746 225.238594 
L 191.799443 225.238594 
L 192.118234 222.004407 
L 192.197931 222.004407 
L 192.437024 220.199279 
L 192.516722 220.199279 
L 193.074605 215.235177 
L 193.154303 215.235177 
L 193.393396 213.279622 
L 193.473093 213.279622 
L 193.712186 211.474494 
L 194.190372 207.112102 
L 194.27007 207.112102 
L 194.58886 204.705265 
L 194.668558 204.705265 
L 194.987349 201.771932 
L 195.067046 201.771932 
L 195.864023 195.002702 
L 196.023418 194.100138 
L 196.262511 192.671079 
L 196.421906 191.618088 
L 196.660999 190.113814 
L 196.900092 187.857405 
L 196.979789 187.857405 
L 197.29858 184.698431 
L 197.378278 184.698431 
L 197.697068 181.840312 
L 197.776766 181.840312 
L 198.015859 179.95997 
L 198.095556 179.95997 
L 198.414347 177.553133 
L 198.494045 177.553133 
L 198.65344 175.44715 
L 198.733137 175.44715 
L 198.97223 173.416382 
L 199.051928 173.416382 
L 199.689509 171.009544 
L 200.0083 168.602707 
L 200.087997 168.602707 
L 200.32709 167.549716 
L 200.406788 167.549716 
L 200.725578 165.218093 
L 200.805276 165.218093 
L 201.921043 160.253991 
L 202.000741 160.253991 
L 202.319531 158.298436 
L 202.399229 158.298436 
L 202.638322 157.395872 
L 202.718019 157.395872 
L 202.957112 156.192453 
L 203.435298 153.710403 
L 203.514996 153.710403 
L 203.913484 150.250574 
L 204.39167 146.489891 
L 204.471367 146.489891 
L 204.790158 143.030063 
L 204.869855 143.030063 
L 205.188646 139.645448 
L 205.268344 139.645448 
L 205.587134 136.110406 
L 205.666832 136.110406 
L 205.905925 133.553141 
L 205.985622 133.553141 
L 206.304413 128.664253 
L 206.38411 128.664253 
L 206.702901 124.527502 
L 206.782599 124.527502 
L 207.021692 120.842033 
L 207.260784 118.209555 
L 207.340482 118.209555 
L 207.659273 113.471094 
L 207.73897 113.471094 
L 207.898366 111.289898 
L 207.978063 111.289898 
L 208.217156 108.356565 
L 208.296854 108.356565 
L 208.615644 103.467677 
L 208.695342 103.467677 
L 209.014132 98.80443 
L 209.09383 98.80443 
L 209.651714 94.065969 
L 209.731411 93.539474 
L 209.970504 91.358278 
L 210.050202 91.358278 
L 210.289295 89.477936 
L 211.325364 82.859134 
L 211.405062 82.859134 
L 211.644154 81.204433 
L 211.883247 80.226656 
L 211.962945 80.226656 
L 212.12234 79.098451 
L 212.202038 79.098451 
L 212.441131 77.970246 
L 212.520828 77.970246 
L 212.600526 77.819819 
L 212.839619 76.842041 
L 212.919317 76.842041 
L 213.238107 75.78905 
L 213.317805 75.78905 
L 213.556898 75.187341 
L 214.592967 73.382213 
L 214.672665 73.382213 
L 215.310246 72.404435 
L 216.18692 71.652299 
L 216.346315 70.975376 
L 216.585408 70.900162 
L 217.382384 70.298453 
L 217.541779 70.298453 
L 217.701175 69.997598 
L 217.780872 69.997598 
L 217.940268 69.847171 
L 218.498151 69.771957 
L 219.374825 69.095034 
L 219.53422 69.01982 
L 219.693616 68.869393 
L 220.251499 68.794179 
L 220.410894 68.718966 
L 220.57029 68.19247 
L 220.649987 68.19247 
L 220.968778 67.590761 
L 221.048475 67.590761 
L 221.367266 67.139479 
L 221.446964 67.139479 
L 221.606359 66.838624 
L 221.765754 66.838624 
L 222.084545 66.086488 
L 222.56273 66.011274 
L 223.280009 65.484778 
L 223.359707 65.484778 
L 223.678497 65.033496 
L 223.758195 65.033496 
L 223.91759 64.807855 
L 224.714567 64.807855 
L 224.95366 64.431787 
L 225.511543 64.356573 
L 225.910031 64.130932 
L 226.866403 64.055719 
L 227.105496 63.980505 
L 227.424286 63.980505 
L 227.583682 63.830078 
L 230.293401 63.754864 
L 230.532494 63.67965 
L 231.648261 63.67965 
L 231.807656 63.378796 
L 233.003121 63.378796 
L 233.162516 63.228369 
L 235.71284 63.153155 
L 235.872236 62.777087 
L 238.502258 62.701873 
L 238.661653 62.476232 
L 239.857117 62.476232 
L 240.016513 62.325805 
L 241.211977 62.325805 
L 241.371372 62.02495 
L 242.566837 62.02495 
L 242.726232 61.573668 
L 243.921697 61.573668 
L 244.081092 61.272813 
L 245.276557 61.272813 
L 245.435952 61.122386 
L 246.631416 61.122386 
L 246.790812 60.896745 
L 247.986276 60.896745 
L 248.145672 60.671104 
L 250.695996 60.59589 
L 250.935089 60.520677 
L 252.050856 60.520677 
L 252.210251 60.295036 
L 253.405715 60.295036 
L 253.565111 59.918967 
L 254.760575 59.918967 
L 254.919971 59.392472 
L 256.115435 59.392472 
L 256.27483 58.565122 
L 257.549993 58.565122 
L 257.709388 58.189053 
L 258.904852 58.189053 
L 259.064248 57.888199 
L 260.259712 57.888199 
L 260.419107 57.211276 
L 261.614572 57.211276 
L 261.773967 56.985635 
L 262.969432 56.985635 
L 263.128827 56.233498 
L 264.324292 56.233498 
L 264.483687 55.330934 
L 265.679151 55.330934 
L 265.838547 54.654011 
L 267.034011 54.654011 
L 267.193406 54.127516 
L 268.388871 54.127516 
L 268.548266 53.60102 
L 269.743731 53.60102 
L 269.903126 53.149738 
L 271.098591 53.149738 
L 271.257986 52.698456 
L 272.45345 52.698456 
L 272.612846 51.946319 
L 273.80831 51.946319 
L 273.967705 50.592474 
L 275.16317 50.592474 
L 275.322565 49.012987 
L 276.597727 49.012987 
L 276.757123 46.83179 
L 277.952587 46.83179 
L 278.111983 44.951449 
L 279.307447 44.951449 
L 279.466842 43.597603 
L 280.662307 43.597603 
L 280.821702 43.071107 
L 282.017167 43.071107 
L 282.176562 42.619825 
L 283.372026 42.619825 
L 283.531422 42.469398 
L 286.081746 42.394184 
L 286.241141 42.243757 
L 288.791466 42.243757 
L 288.950861 42.09333 
L 290.146325 42.09333 
L 290.305721 41.942903 
L 294.210905 41.942903 
L 294.3703 41.792475 
L 299.710042 41.717262 
L 299.949135 41.642048 
L 311.90378 41.566834 
L 312.063175 41.416407 
L 314.693197 41.416407 
L 314.852593 41.26598 
L 322.822356 41.190766 
L 323.061449 41.115552 
L 329.596655 41.040339 
L 329.835748 40.965125 
L 335.095792 40.889911 
L 335.334885 40.814698 
L 339.160371 40.739484 
L 339.319767 40.513843 
L 343.224951 40.438629 
L 343.384346 40.288202 
L 344.579811 40.288202 
L 344.739206 40.137775 
L 345.93467 40.137775 
L 346.094066 39.83692 
L 349.99925 39.761706 
L 350.158645 39.611279 
L 355.498387 39.536065 
L 355.73748 39.460852 
L 389.449579 39.385638 
L 389.688672 39.310424 
L 401.723015 39.235211 
L 401.962108 39.159997 
L 408.497314 39.084783 
L 408.65671 38.783929 
L 409.852174 38.783929 
L 410.011569 38.483074 
L 413.996451 38.40786 
L 414.155846 38.257433 
L 477.913955 38.182219 
L 478.153048 38.107006 
L 758.210539 38.031792 
L 758.449632 37.956578 
L 823.482903 37.881365 
L 823.721996 37.806151 
L 889.871033 37.730938 
L 889.871033 37.730938 
" clip-path="url(#p16ec660f0e)" style="fill: none; stroke: #ff7f0e; stroke-width: 2; stroke-linecap: square"/>
   </g>
   <g id="patch_3">
    <path d="M 92.974375 331.120625 
L 92.974375 23.76 
" style="fill: none; stroke: #000000; stroke-width: 0.8; stroke-linejoin: miter; stroke-linecap: square"/>
   </g>
   <g id="patch_4">
    <path d="M 897.84 331.120625 
L 897.84 23.76 
" style="fill: none; stroke: #000000; stroke-width: 0.8; stroke-linejoin: miter; stroke-linecap: square"/>
   </g>
   <g id="patch_5">
    <path d="M 92.974375 331.120625 
L 897.84 331.120625 
" style="fill: none; stroke: #000000; stroke-width: 0.8; stroke-linejoin: miter; stroke-linecap: square"/>
   </g>
   <g id="patch_6">
    <path d="M 92.974375 23.76 
L 897.84 23.76 
" style="fill: none; stroke: #000000; stroke-width: 0.8; stroke-linejoin: miter; stroke-linecap: square"/>
   </g>
   <g id="legend_1">
    <g id="patch_7">
     <path d="M 660.6 319.120625 
L 881.04 319.120625 
Q 885.84 319.120625 885.84 314.320625 
L 885.84 245.598125 
Q 885.84 240.798125 881.04 240.798125 
L 660.6 240.798125 
Q 655.8 240.798125 655.8 245.598125 
L 655.8 314.320625 
Q 655.8 319.120625 660.6 319.120625 
z
" style="fill: #ffffff; opacity: 0.8; stroke: #cccccc; stroke-linejoin: miter"/>
    </g>
    <g id="line2d_27">
     <path d="M 665.4 260.234375 
L 689.4 260.234375 
L 713.4 260.234375 
" style="fill: none; stroke: #1f77b4; stroke-width: 2; stroke-linecap: square"/>
    </g>
    <g id="text_15">
     <!-- SlotConf7_3 -->
     <g transform="translate(732.6 268.634375)scale(0.24 -0.24)">
      <defs>
       <path id="DejaVuSans-53" d="M 3425 4513 
L 3425 3897 
Q 3066 4069 2747 4153 
Q 2428 4238 2131 4238 
Q 1616 4238 1336 4038 
Q 1056 3838 1056 3469 
Q 1056 3159 1242 3001 
Q 1428 2844 1947 2747 
L 2328 2669 
Q 3034 2534 3370 2195 
Q 3706 1856 3706 1288 
Q 3706 609 3251 259 
Q 2797 -91 1919 -91 
Q 1588 -91 1214 -16 
Q 841 59 441 206 
L 441 856 
Q 825 641 1194 531 
Q 1563 422 1919 422 
Q 2459 422 2753 634 
Q 3047 847 3047 1241 
Q 3047 1584 2836 1778 
Q 2625 1972 2144 2069 
L 1759 2144 
Q 1053 2284 737 2584 
Q 422 2884 422 3419 
Q 422 4038 858 4394 
Q 1294 4750 2059 4750 
Q 2388 4750 2728 4690 
Q 3069 4631 3425 4513 
z
" transform="scale(0.015625)"/>
       <path id="DejaVuSans-74" d="M 1172 4494 
L 1172 3500 
L 2356 3500 
L 2356 3053 
L 1172 3053 
L 1172 1153 
Q 1172 725 1289 603 
Q 1406 481 1766 481 
L 2356 481 
L 2356 0 
L 1766 0 
Q 1100 0 847 248 
Q 594 497 594 1153 
L 594 3053 
L 172 3053 
L 172 3500 
L 594 3500 
L 594 4494 
L 1172 4494 
z
" transform="scale(0.015625)"/>
       <path id="DejaVuSans-43" d="M 4122 4306 
L 4122 3641 
Q 3803 3938 3442 4084 
Q 3081 4231 2675 4231 
Q 1875 4231 1450 3742 
Q 1025 3253 1025 2328 
Q 1025 1406 1450 917 
Q 1875 428 2675 428 
Q 3081 428 3442 575 
Q 3803 722 4122 1019 
L 4122 359 
Q 3791 134 3420 21 
Q 3050 -91 2638 -91 
Q 1578 -91 968 557 
Q 359 1206 359 2328 
Q 359 3453 968 4101 
Q 1578 4750 2638 4750 
Q 3056 4750 3426 4639 
Q 3797 4528 4122 4306 
z
" transform="scale(0.015625)"/>
       <path id="DejaVuSans-37" d="M 525 4666 
L 3525 4666 
L 3525 4397 
L 1831 0 
L 1172 0 
L 2766 4134 
L 525 4134 
L 525 4666 
z
" transform="scale(0.015625)"/>
       <path id="DejaVuSans-5f" d="M 3263 -1063 
L 3263 -1509 
L -63 -1509 
L -63 -1063 
L 3263 -1063 
z
" transform="scale(0.015625)"/>
      </defs>
      <use xlink:href="#DejaVuSans-53"/>
      <use xlink:href="#DejaVuSans-6c" x="63.476562"/>
      <use xlink:href="#DejaVuSans-6f" x="91.259766"/>
      <use xlink:href="#DejaVuSans-74" x="152.441406"/>
      <use xlink:href="#DejaVuSans-43" x="191.650391"/>
      <use xlink:href="#DejaVuSans-6f" x="261.474609"/>
      <use xlink:href="#DejaVuSans-6e" x="322.65625"/>
      <use xlink:href="#DejaVuSans-66" x="386.035156"/>
      <use xlink:href="#DejaVuSans-37" x="421.240234"/>
      <use xlink:href="#DejaVuSans-5f" x="484.863281"/>
      <use xlink:href="#DejaVuSans-33" x="534.863281"/>
     </g>
    </g>
    <g id="line2d_28">
     <path d="M 665.4 296.129375 
L 689.4 296.129375 
L 713.4 296.129375 
" style="fill: none; stroke: #ff7f0e; stroke-width: 2; stroke-linecap: square"/>
    </g>
    <g id="text_16">
     <!-- Default -->
     <g transform="translate(732.6 304.529375)scale(0.24 -0.24)">
      <defs>
       <path id="DejaVuSans-44" d="M 1259 4147 
L 1259 519 
L 2022 519 
Q 2988 519 3436 956 
Q 3884 1394 3884 2338 
Q 3884 3275 3436 3711 
Q 2988 4147 2022 4147 
L 1259 4147 
z
M 628 4666 
L 1925 4666 
Q 3281 4666 3915 4102 
Q 4550 3538 4550 2338 
Q 4550 1131 3912 565 
Q 3275 0 1925 0 
L 628 0 
L 628 4666 
z
" transform="scale(0.015625)"/>
       <path id="DejaVuSans-61" d="M 2194 1759 
Q 1497 1759 1228 1600 
Q 959 1441 959 1056 
Q 959 750 1161 570 
Q 1363 391 1709 391 
Q 2188 391 2477 730 
Q 2766 1069 2766 1631 
L 2766 1759 
L 2194 1759 
z
M 3341 1997 
L 3341 0 
L 2766 0 
L 2766 531 
Q 2569 213 2275 61 
Q 1981 -91 1556 -91 
Q 1019 -91 701 211 
Q 384 513 384 1019 
Q 384 1609 779 1909 
Q 1175 2209 1959 2209 
L 2766 2209 
L 2766 2266 
Q 2766 2663 2505 2880 
Q 2244 3097 1772 3097 
Q 1472 3097 1187 3025 
Q 903 2953 641 2809 
L 641 3341 
Q 956 3463 1253 3523 
Q 1550 3584 1831 3584 
Q 2591 3584 2966 3190 
Q 3341 2797 3341 1997 
z
" transform="scale(0.015625)"/>
      </defs>
      <use xlink:href="#DejaVuSans-44"/>
      <use xlink:href="#DejaVuSans-65" x="77.001953"/>
      <use xlink:href="#DejaVuSans-66" x="138.525391"/>
      <use xlink:href="#DejaVuSans-61" x="173.730469"/>
      <use xlink:href="#DejaVuSans-75" x="235.009766"/>
      <use xlink:href="#DejaVuSans-6c" x="298.388672"/>
      <use xlink:href="#DejaVuSans-74" x="326.171875"/>
     </g>
    </g>
   </g>
  </g>
 </g>
 <defs>
  <clipPath id="p16ec660f0e">
   <rect x="92.974375" y="23.76" width="804.865625" height="307.360625"/>
  </clipPath>
 </defs>
</svg>
