<?xml version="1.0" encoding="utf-8" standalone="no"?>
<!DOCTYPE svg PUBLIC "-//W3C//DTD SVG 1.1//EN"
  "http://www.w3.org/Graphics/SVG/1.1/DTD/svg11.dtd">
<svg xmlns:xlink="http://www.w3.org/1999/xlink" width="921.6pt" height="410.4pt" viewBox="0 0 921.6 410.4" xmlns="http://www.w3.org/2000/svg" version="1.1">
 <metadata>
  <rdf:RDF xmlns:dc="http://purl.org/dc/elements/1.1/" xmlns:cc="http://creativecommons.org/ns#" xmlns:rdf="http://www.w3.org/1999/02/22-rdf-syntax-ns#">
   <cc:Work>
    <dc:type rdf:resource="http://purl.org/dc/dcmitype/StillImage"/>
    <dc:date>2023-04-24T12:27:02.114835</dc:date>
    <dc:format>image/svg+xml</dc:format>
    <dc:creator>
     <cc:Agent>
      <dc:title>Matplotlib v3.5.3, https://matplotlib.org/</dc:title>
     </cc:Agent>
    </dc:creator>
   </cc:Work>
  </rdf:RDF>
 </metadata>
 <defs>
  <style type="text/css">*{stroke-linejoin: round; stroke-linecap: butt}</style>
 </defs>
 <g id="figure_1">
  <g id="patch_1">
   <path d="M 0 410.4 
L 921.6 410.4 
L 921.6 0 
L 0 0 
L 0 410.4 
z
" style="fill: none"/>
  </g>
  <g id="axes_1">
   <g id="patch_2">
    <path d="M 92.974375 331.120625 
L 897.84 331.120625 
L 897.84 23.76 
L 92.974375 23.76 
z
" style="fill: #ffffff"/>
   </g>
   <g id="matplotlib.axis_1">
    <g id="xtick_1">
     <g id="line2d_1">
      <path d="M 92.974375 331.120625 
L 92.974375 23.76 
" clip-path="url(#p18b08e0eea)" style="fill: none; stroke: #b0b0b0; stroke-width: 0.8; stroke-linecap: square"/>
     </g>
     <g id="line2d_2">
      <defs>
       <path id="m0aba5c4b82" d="M 0 0 
L 0 3.5 
" style="stroke: #000000; stroke-width: 0.8"/>
      </defs>
      <g>
       <use xlink:href="#m0aba5c4b82" x="92.974375" y="331.120625" style="stroke: #000000; stroke-width: 0.8"/>
      </g>
     </g>
     <g id="text_1">
      <!-- 0 -->
      <g transform="translate(85.975625 354.837188)scale(0.22 -0.22)">
       <defs>
        <path id="DejaVuSans-30" d="M 2034 4250 
Q 1547 4250 1301 3770 
Q 1056 3291 1056 2328 
Q 1056 1369 1301 889 
Q 1547 409 2034 409 
Q 2525 409 2770 889 
Q 3016 1369 3016 2328 
Q 3016 3291 2770 3770 
Q 2525 4250 2034 4250 
z
M 2034 4750 
Q 2819 4750 3233 4129 
Q 3647 3509 3647 2328 
Q 3647 1150 3233 529 
Q 2819 -91 2034 -91 
Q 1250 -91 836 529 
Q 422 1150 422 2328 
Q 422 3509 836 4129 
Q 1250 4750 2034 4750 
z
" transform="scale(0.015625)"/>
       </defs>
       <use xlink:href="#DejaVuSans-30"/>
      </g>
     </g>
    </g>
    <g id="xtick_2">
     <g id="line2d_3">
      <path d="M 189.194691 331.120625 
L 189.194691 23.76 
" clip-path="url(#p18b08e0eea)" style="fill: none; stroke: #b0b0b0; stroke-width: 0.8; stroke-linecap: square"/>
     </g>
     <g id="line2d_4">
      <g>
       <use xlink:href="#m0aba5c4b82" x="189.194691" y="331.120625" style="stroke: #000000; stroke-width: 0.8"/>
      </g>
     </g>
     <g id="text_2">
      <!-- 20 -->
      <g transform="translate(175.197191 354.837188)scale(0.22 -0.22)">
       <defs>
        <path id="DejaVuSans-32" d="M 1228 531 
L 3431 531 
L 3431 0 
L 469 0 
L 469 531 
Q 828 903 1448 1529 
Q 2069 2156 2228 2338 
Q 2531 2678 2651 2914 
Q 2772 3150 2772 3378 
Q 2772 3750 2511 3984 
Q 2250 4219 1831 4219 
Q 1534 4219 1204 4116 
Q 875 4013 500 3803 
L 500 4441 
Q 881 4594 1212 4672 
Q 1544 4750 1819 4750 
Q 2544 4750 2975 4387 
Q 3406 4025 3406 3419 
Q 3406 3131 3298 2873 
Q 3191 2616 2906 2266 
Q 2828 2175 2409 1742 
Q 1991 1309 1228 531 
z
" transform="scale(0.015625)"/>
       </defs>
       <use xlink:href="#DejaVuSans-32"/>
       <use xlink:href="#DejaVuSans-30" x="63.623047"/>
      </g>
     </g>
    </g>
    <g id="xtick_3">
     <g id="line2d_5">
      <path d="M 285.415007 331.120625 
L 285.415007 23.76 
" clip-path="url(#p18b08e0eea)" style="fill: none; stroke: #b0b0b0; stroke-width: 0.8; stroke-linecap: square"/>
     </g>
     <g id="line2d_6">
      <g>
       <use xlink:href="#m0aba5c4b82" x="285.415007" y="331.120625" style="stroke: #000000; stroke-width: 0.8"/>
      </g>
     </g>
     <g id="text_3">
      <!-- 40 -->
      <g transform="translate(271.417507 354.837188)scale(0.22 -0.22)">
       <defs>
        <path id="DejaVuSans-34" d="M 2419 4116 
L 825 1625 
L 2419 1625 
L 2419 4116 
z
M 2253 4666 
L 3047 4666 
L 3047 1625 
L 3713 1625 
L 3713 1100 
L 3047 1100 
L 3047 0 
L 2419 0 
L 2419 1100 
L 313 1100 
L 313 1709 
L 2253 4666 
z
" transform="scale(0.015625)"/>
       </defs>
       <use xlink:href="#DejaVuSans-34"/>
       <use xlink:href="#DejaVuSans-30" x="63.623047"/>
      </g>
     </g>
    </g>
    <g id="xtick_4">
     <g id="line2d_7">
      <path d="M 381.635323 331.120625 
L 381.635323 23.76 
" clip-path="url(#p18b08e0eea)" style="fill: none; stroke: #b0b0b0; stroke-width: 0.8; stroke-linecap: square"/>
     </g>
     <g id="line2d_8">
      <g>
       <use xlink:href="#m0aba5c4b82" x="381.635323" y="331.120625" style="stroke: #000000; stroke-width: 0.8"/>
      </g>
     </g>
     <g id="text_4">
      <!-- 60 -->
      <g transform="translate(367.637823 354.837188)scale(0.22 -0.22)">
       <defs>
        <path id="DejaVuSans-36" d="M 2113 2584 
Q 1688 2584 1439 2293 
Q 1191 2003 1191 1497 
Q 1191 994 1439 701 
Q 1688 409 2113 409 
Q 2538 409 2786 701 
Q 3034 994 3034 1497 
Q 3034 2003 2786 2293 
Q 2538 2584 2113 2584 
z
M 3366 4563 
L 3366 3988 
Q 3128 4100 2886 4159 
Q 2644 4219 2406 4219 
Q 1781 4219 1451 3797 
Q 1122 3375 1075 2522 
Q 1259 2794 1537 2939 
Q 1816 3084 2150 3084 
Q 2853 3084 3261 2657 
Q 3669 2231 3669 1497 
Q 3669 778 3244 343 
Q 2819 -91 2113 -91 
Q 1303 -91 875 529 
Q 447 1150 447 2328 
Q 447 3434 972 4092 
Q 1497 4750 2381 4750 
Q 2619 4750 2861 4703 
Q 3103 4656 3366 4563 
z
" transform="scale(0.015625)"/>
       </defs>
       <use xlink:href="#DejaVuSans-36"/>
       <use xlink:href="#DejaVuSans-30" x="63.623047"/>
      </g>
     </g>
    </g>
    <g id="xtick_5">
     <g id="line2d_9">
      <path d="M 477.85564 331.120625 
L 477.85564 23.76 
" clip-path="url(#p18b08e0eea)" style="fill: none; stroke: #b0b0b0; stroke-width: 0.8; stroke-linecap: square"/>
     </g>
     <g id="line2d_10">
      <g>
       <use xlink:href="#m0aba5c4b82" x="477.85564" y="331.120625" style="stroke: #000000; stroke-width: 0.8"/>
      </g>
     </g>
     <g id="text_5">
      <!-- 80 -->
      <g transform="translate(463.85814 354.837188)scale(0.22 -0.22)">
       <defs>
        <path id="DejaVuSans-38" d="M 2034 2216 
Q 1584 2216 1326 1975 
Q 1069 1734 1069 1313 
Q 1069 891 1326 650 
Q 1584 409 2034 409 
Q 2484 409 2743 651 
Q 3003 894 3003 1313 
Q 3003 1734 2745 1975 
Q 2488 2216 2034 2216 
z
M 1403 2484 
Q 997 2584 770 2862 
Q 544 3141 544 3541 
Q 544 4100 942 4425 
Q 1341 4750 2034 4750 
Q 2731 4750 3128 4425 
Q 3525 4100 3525 3541 
Q 3525 3141 3298 2862 
Q 3072 2584 2669 2484 
Q 3125 2378 3379 2068 
Q 3634 1759 3634 1313 
Q 3634 634 3220 271 
Q 2806 -91 2034 -91 
Q 1263 -91 848 271 
Q 434 634 434 1313 
Q 434 1759 690 2068 
Q 947 2378 1403 2484 
z
M 1172 3481 
Q 1172 3119 1398 2916 
Q 1625 2713 2034 2713 
Q 2441 2713 2670 2916 
Q 2900 3119 2900 3481 
Q 2900 3844 2670 4047 
Q 2441 4250 2034 4250 
Q 1625 4250 1398 4047 
Q 1172 3844 1172 3481 
z
" transform="scale(0.015625)"/>
       </defs>
       <use xlink:href="#DejaVuSans-38"/>
       <use xlink:href="#DejaVuSans-30" x="63.623047"/>
      </g>
     </g>
    </g>
    <g id="xtick_6">
     <g id="line2d_11">
      <path d="M 574.075956 331.120625 
L 574.075956 23.76 
" clip-path="url(#p18b08e0eea)" style="fill: none; stroke: #b0b0b0; stroke-width: 0.8; stroke-linecap: square"/>
     </g>
     <g id="line2d_12">
      <g>
       <use xlink:href="#m0aba5c4b82" x="574.075956" y="331.120625" style="stroke: #000000; stroke-width: 0.8"/>
      </g>
     </g>
     <g id="text_6">
      <!-- 100 -->
      <g transform="translate(553.079706 354.837188)scale(0.22 -0.22)">
       <defs>
        <path id="DejaVuSans-31" d="M 794 531 
L 1825 531 
L 1825 4091 
L 703 3866 
L 703 4441 
L 1819 4666 
L 2450 4666 
L 2450 531 
L 3481 531 
L 3481 0 
L 794 0 
L 794 531 
z
" transform="scale(0.015625)"/>
       </defs>
       <use xlink:href="#DejaVuSans-31"/>
       <use xlink:href="#DejaVuSans-30" x="63.623047"/>
       <use xlink:href="#DejaVuSans-30" x="127.246094"/>
      </g>
     </g>
    </g>
    <g id="xtick_7">
     <g id="line2d_13">
      <path d="M 670.296272 331.120625 
L 670.296272 23.76 
" clip-path="url(#p18b08e0eea)" style="fill: none; stroke: #b0b0b0; stroke-width: 0.8; stroke-linecap: square"/>
     </g>
     <g id="line2d_14">
      <g>
       <use xlink:href="#m0aba5c4b82" x="670.296272" y="331.120625" style="stroke: #000000; stroke-width: 0.8"/>
      </g>
     </g>
     <g id="text_7">
      <!-- 120 -->
      <g transform="translate(649.300022 354.837188)scale(0.22 -0.22)">
       <use xlink:href="#DejaVuSans-31"/>
       <use xlink:href="#DejaVuSans-32" x="63.623047"/>
       <use xlink:href="#DejaVuSans-30" x="127.246094"/>
      </g>
     </g>
    </g>
    <g id="xtick_8">
     <g id="line2d_15">
      <path d="M 766.516588 331.120625 
L 766.516588 23.76 
" clip-path="url(#p18b08e0eea)" style="fill: none; stroke: #b0b0b0; stroke-width: 0.8; stroke-linecap: square"/>
     </g>
     <g id="line2d_16">
      <g>
       <use xlink:href="#m0aba5c4b82" x="766.516588" y="331.120625" style="stroke: #000000; stroke-width: 0.8"/>
      </g>
     </g>
     <g id="text_8">
      <!-- 140 -->
      <g transform="translate(745.520338 354.837188)scale(0.22 -0.22)">
       <use xlink:href="#DejaVuSans-31"/>
       <use xlink:href="#DejaVuSans-34" x="63.623047"/>
       <use xlink:href="#DejaVuSans-30" x="127.246094"/>
      </g>
     </g>
    </g>
    <g id="xtick_9">
     <g id="line2d_17">
      <path d="M 862.736904 331.120625 
L 862.736904 23.76 
" clip-path="url(#p18b08e0eea)" style="fill: none; stroke: #b0b0b0; stroke-width: 0.8; stroke-linecap: square"/>
     </g>
     <g id="line2d_18">
      <g>
       <use xlink:href="#m0aba5c4b82" x="862.736904" y="331.120625" style="stroke: #000000; stroke-width: 0.8"/>
      </g>
     </g>
     <g id="text_9">
      <!-- 160 -->
      <g transform="translate(841.740654 354.837188)scale(0.22 -0.22)">
       <use xlink:href="#DejaVuSans-31"/>
       <use xlink:href="#DejaVuSans-36" x="63.623047"/>
       <use xlink:href="#DejaVuSans-30" x="127.246094"/>
      </g>
     </g>
    </g>
    <g id="text_10">
     <!-- RTT (ms) -->
     <g transform="translate(442.372813 381.64875)scale(0.24 -0.24)">
      <defs>
       <path id="DejaVuSans-52" d="M 2841 2188 
Q 3044 2119 3236 1894 
Q 3428 1669 3622 1275 
L 4263 0 
L 3584 0 
L 2988 1197 
Q 2756 1666 2539 1819 
Q 2322 1972 1947 1972 
L 1259 1972 
L 1259 0 
L 628 0 
L 628 4666 
L 2053 4666 
Q 2853 4666 3247 4331 
Q 3641 3997 3641 3322 
Q 3641 2881 3436 2590 
Q 3231 2300 2841 2188 
z
M 1259 4147 
L 1259 2491 
L 2053 2491 
Q 2509 2491 2742 2702 
Q 2975 2913 2975 3322 
Q 2975 3731 2742 3939 
Q 2509 4147 2053 4147 
L 1259 4147 
z
" transform="scale(0.015625)"/>
       <path id="DejaVuSans-54" d="M -19 4666 
L 3928 4666 
L 3928 4134 
L 2272 4134 
L 2272 0 
L 1638 0 
L 1638 4134 
L -19 4134 
L -19 4666 
z
" transform="scale(0.015625)"/>
       <path id="DejaVuSans-20" transform="scale(0.015625)"/>
       <path id="DejaVuSans-28" d="M 1984 4856 
Q 1566 4138 1362 3434 
Q 1159 2731 1159 2009 
Q 1159 1288 1364 580 
Q 1569 -128 1984 -844 
L 1484 -844 
Q 1016 -109 783 600 
Q 550 1309 550 2009 
Q 550 2706 781 3412 
Q 1013 4119 1484 4856 
L 1984 4856 
z
" transform="scale(0.015625)"/>
       <path id="DejaVuSans-6d" d="M 3328 2828 
Q 3544 3216 3844 3400 
Q 4144 3584 4550 3584 
Q 5097 3584 5394 3201 
Q 5691 2819 5691 2113 
L 5691 0 
L 5113 0 
L 5113 2094 
Q 5113 2597 4934 2840 
Q 4756 3084 4391 3084 
Q 3944 3084 3684 2787 
Q 3425 2491 3425 1978 
L 3425 0 
L 2847 0 
L 2847 2094 
Q 2847 2600 2669 2842 
Q 2491 3084 2119 3084 
Q 1678 3084 1418 2786 
Q 1159 2488 1159 1978 
L 1159 0 
L 581 0 
L 581 3500 
L 1159 3500 
L 1159 2956 
Q 1356 3278 1631 3431 
Q 1906 3584 2284 3584 
Q 2666 3584 2933 3390 
Q 3200 3197 3328 2828 
z
" transform="scale(0.015625)"/>
       <path id="DejaVuSans-73" d="M 2834 3397 
L 2834 2853 
Q 2591 2978 2328 3040 
Q 2066 3103 1784 3103 
Q 1356 3103 1142 2972 
Q 928 2841 928 2578 
Q 928 2378 1081 2264 
Q 1234 2150 1697 2047 
L 1894 2003 
Q 2506 1872 2764 1633 
Q 3022 1394 3022 966 
Q 3022 478 2636 193 
Q 2250 -91 1575 -91 
Q 1294 -91 989 -36 
Q 684 19 347 128 
L 347 722 
Q 666 556 975 473 
Q 1284 391 1588 391 
Q 1994 391 2212 530 
Q 2431 669 2431 922 
Q 2431 1156 2273 1281 
Q 2116 1406 1581 1522 
L 1381 1569 
Q 847 1681 609 1914 
Q 372 2147 372 2553 
Q 372 3047 722 3315 
Q 1072 3584 1716 3584 
Q 2034 3584 2315 3537 
Q 2597 3491 2834 3397 
z
" transform="scale(0.015625)"/>
       <path id="DejaVuSans-29" d="M 513 4856 
L 1013 4856 
Q 1481 4119 1714 3412 
Q 1947 2706 1947 2009 
Q 1947 1309 1714 600 
Q 1481 -109 1013 -844 
L 513 -844 
Q 928 -128 1133 580 
Q 1338 1288 1338 2009 
Q 1338 2731 1133 3434 
Q 928 4138 513 4856 
z
" transform="scale(0.015625)"/>
      </defs>
      <use xlink:href="#DejaVuSans-52"/>
      <use xlink:href="#DejaVuSans-54" x="62.232422"/>
      <use xlink:href="#DejaVuSans-54" x="121.566406"/>
      <use xlink:href="#DejaVuSans-20" x="182.650391"/>
      <use xlink:href="#DejaVuSans-28" x="214.4375"/>
      <use xlink:href="#DejaVuSans-6d" x="253.451172"/>
      <use xlink:href="#DejaVuSans-73" x="350.863281"/>
      <use xlink:href="#DejaVuSans-29" x="402.962891"/>
     </g>
    </g>
   </g>
   <g id="matplotlib.axis_2">
    <g id="ytick_1">
     <g id="line2d_19">
      <path d="M 92.974375 317.149688 
L 897.84 317.149688 
" clip-path="url(#p18b08e0eea)" style="fill: none; stroke: #b0b0b0; stroke-width: 0.8; stroke-linecap: square"/>
     </g>
     <g id="line2d_20">
      <defs>
       <path id="mc488ea79b7" d="M 0 0 
L -3.5 0 
" style="stroke: #000000; stroke-width: 0.8"/>
      </defs>
      <g>
       <use xlink:href="#mc488ea79b7" x="92.974375" y="317.149688" style="stroke: #000000; stroke-width: 0.8"/>
      </g>
     </g>
     <g id="text_11">
      <!-- 0.0 -->
      <g transform="translate(50.9875 325.507969)scale(0.22 -0.22)">
       <defs>
        <path id="DejaVuSans-2e" d="M 684 794 
L 1344 794 
L 1344 0 
L 684 0 
L 684 794 
z
" transform="scale(0.015625)"/>
       </defs>
       <use xlink:href="#DejaVuSans-30"/>
       <use xlink:href="#DejaVuSans-2e" x="63.623047"/>
       <use xlink:href="#DejaVuSans-30" x="95.410156"/>
      </g>
     </g>
    </g>
    <g id="ytick_2">
     <g id="line2d_21">
      <path d="M 92.974375 261.265938 
L 897.84 261.265938 
" clip-path="url(#p18b08e0eea)" style="fill: none; stroke: #b0b0b0; stroke-width: 0.8; stroke-linecap: square"/>
     </g>
     <g id="line2d_22">
      <g>
       <use xlink:href="#mc488ea79b7" x="92.974375" y="261.265938" style="stroke: #000000; stroke-width: 0.8"/>
      </g>
     </g>
     <g id="text_12">
      <!-- 0.2 -->
      <g transform="translate(50.9875 269.624219)scale(0.22 -0.22)">
       <use xlink:href="#DejaVuSans-30"/>
       <use xlink:href="#DejaVuSans-2e" x="63.623047"/>
       <use xlink:href="#DejaVuSans-32" x="95.410156"/>
      </g>
     </g>
    </g>
    <g id="ytick_3">
     <g id="line2d_23">
      <path d="M 92.974375 205.382188 
L 897.84 205.382188 
" clip-path="url(#p18b08e0eea)" style="fill: none; stroke: #b0b0b0; stroke-width: 0.8; stroke-linecap: square"/>
     </g>
     <g id="line2d_24">
      <g>
       <use xlink:href="#mc488ea79b7" x="92.974375" y="205.382188" style="stroke: #000000; stroke-width: 0.8"/>
      </g>
     </g>
     <g id="text_13">
      <!-- 0.4 -->
      <g transform="translate(50.9875 213.740469)scale(0.22 -0.22)">
       <use xlink:href="#DejaVuSans-30"/>
       <use xlink:href="#DejaVuSans-2e" x="63.623047"/>
       <use xlink:href="#DejaVuSans-34" x="95.410156"/>
      </g>
     </g>
    </g>
    <g id="ytick_4">
     <g id="line2d_25">
      <path d="M 92.974375 149.498438 
L 897.84 149.498438 
" clip-path="url(#p18b08e0eea)" style="fill: none; stroke: #b0b0b0; stroke-width: 0.8; stroke-linecap: square"/>
     </g>
     <g id="line2d_26">
      <g>
       <use xlink:href="#mc488ea79b7" x="92.974375" y="149.498438" style="stroke: #000000; stroke-width: 0.8"/>
      </g>
     </g>
     <g id="text_14">
      <!-- 0.6 -->
      <g transform="translate(50.9875 157.856719)scale(0.22 -0.22)">
       <use xlink:href="#DejaVuSans-30"/>
       <use xlink:href="#DejaVuSans-2e" x="63.623047"/>
       <use xlink:href="#DejaVuSans-36" x="95.410156"/>
      </g>
     </g>
    </g>
    <g id="ytick_5">
     <g id="line2d_27">
      <path d="M 92.974375 93.614688 
L 897.84 93.614688 
" clip-path="url(#p18b08e0eea)" style="fill: none; stroke: #b0b0b0; stroke-width: 0.8; stroke-linecap: square"/>
     </g>
     <g id="line2d_28">
      <g>
       <use xlink:href="#mc488ea79b7" x="92.974375" y="93.614688" style="stroke: #000000; stroke-width: 0.8"/>
      </g>
     </g>
     <g id="text_15">
      <!-- 0.8 -->
      <g transform="translate(50.9875 101.972969)scale(0.22 -0.22)">
       <use xlink:href="#DejaVuSans-30"/>
       <use xlink:href="#DejaVuSans-2e" x="63.623047"/>
       <use xlink:href="#DejaVuSans-38" x="95.410156"/>
      </g>
     </g>
    </g>
    <g id="ytick_6">
     <g id="line2d_29">
      <path d="M 92.974375 37.730937 
L 897.84 37.730937 
" clip-path="url(#p18b08e0eea)" style="fill: none; stroke: #b0b0b0; stroke-width: 0.8; stroke-linecap: square"/>
     </g>
     <g id="line2d_30">
      <g>
       <use xlink:href="#mc488ea79b7" x="92.974375" y="37.730937" style="stroke: #000000; stroke-width: 0.8"/>
      </g>
     </g>
     <g id="text_16">
      <!-- 1.0 -->
      <g transform="translate(50.9875 46.089219)scale(0.22 -0.22)">
       <use xlink:href="#DejaVuSans-31"/>
       <use xlink:href="#DejaVuSans-2e" x="63.623047"/>
       <use xlink:href="#DejaVuSans-30" x="95.410156"/>
      </g>
     </g>
    </g>
    <g id="text_17">
     <!-- Likelihood of occurrence -->
     <g transform="translate(41.99625 323.628438)rotate(-90)scale(0.24 -0.24)">
      <defs>
       <path id="DejaVuSans-4c" d="M 628 4666 
L 1259 4666 
L 1259 531 
L 3531 531 
L 3531 0 
L 628 0 
L 628 4666 
z
" transform="scale(0.015625)"/>
       <path id="DejaVuSans-69" d="M 603 3500 
L 1178 3500 
L 1178 0 
L 603 0 
L 603 3500 
z
M 603 4863 
L 1178 4863 
L 1178 4134 
L 603 4134 
L 603 4863 
z
" transform="scale(0.015625)"/>
       <path id="DejaVuSans-6b" d="M 581 4863 
L 1159 4863 
L 1159 1991 
L 2875 3500 
L 3609 3500 
L 1753 1863 
L 3688 0 
L 2938 0 
L 1159 1709 
L 1159 0 
L 581 0 
L 581 4863 
z
" transform="scale(0.015625)"/>
       <path id="DejaVuSans-65" d="M 3597 1894 
L 3597 1613 
L 953 1613 
Q 991 1019 1311 708 
Q 1631 397 2203 397 
Q 2534 397 2845 478 
Q 3156 559 3463 722 
L 3463 178 
Q 3153 47 2828 -22 
Q 2503 -91 2169 -91 
Q 1331 -91 842 396 
Q 353 884 353 1716 
Q 353 2575 817 3079 
Q 1281 3584 2069 3584 
Q 2775 3584 3186 3129 
Q 3597 2675 3597 1894 
z
M 3022 2063 
Q 3016 2534 2758 2815 
Q 2500 3097 2075 3097 
Q 1594 3097 1305 2825 
Q 1016 2553 972 2059 
L 3022 2063 
z
" transform="scale(0.015625)"/>
       <path id="DejaVuSans-6c" d="M 603 4863 
L 1178 4863 
L 1178 0 
L 603 0 
L 603 4863 
z
" transform="scale(0.015625)"/>
       <path id="DejaVuSans-68" d="M 3513 2113 
L 3513 0 
L 2938 0 
L 2938 2094 
Q 2938 2591 2744 2837 
Q 2550 3084 2163 3084 
Q 1697 3084 1428 2787 
Q 1159 2491 1159 1978 
L 1159 0 
L 581 0 
L 581 4863 
L 1159 4863 
L 1159 2956 
Q 1366 3272 1645 3428 
Q 1925 3584 2291 3584 
Q 2894 3584 3203 3211 
Q 3513 2838 3513 2113 
z
" transform="scale(0.015625)"/>
       <path id="DejaVuSans-6f" d="M 1959 3097 
Q 1497 3097 1228 2736 
Q 959 2375 959 1747 
Q 959 1119 1226 758 
Q 1494 397 1959 397 
Q 2419 397 2687 759 
Q 2956 1122 2956 1747 
Q 2956 2369 2687 2733 
Q 2419 3097 1959 3097 
z
M 1959 3584 
Q 2709 3584 3137 3096 
Q 3566 2609 3566 1747 
Q 3566 888 3137 398 
Q 2709 -91 1959 -91 
Q 1206 -91 779 398 
Q 353 888 353 1747 
Q 353 2609 779 3096 
Q 1206 3584 1959 3584 
z
" transform="scale(0.015625)"/>
       <path id="DejaVuSans-64" d="M 2906 2969 
L 2906 4863 
L 3481 4863 
L 3481 0 
L 2906 0 
L 2906 525 
Q 2725 213 2448 61 
Q 2172 -91 1784 -91 
Q 1150 -91 751 415 
Q 353 922 353 1747 
Q 353 2572 751 3078 
Q 1150 3584 1784 3584 
Q 2172 3584 2448 3432 
Q 2725 3281 2906 2969 
z
M 947 1747 
Q 947 1113 1208 752 
Q 1469 391 1925 391 
Q 2381 391 2643 752 
Q 2906 1113 2906 1747 
Q 2906 2381 2643 2742 
Q 2381 3103 1925 3103 
Q 1469 3103 1208 2742 
Q 947 2381 947 1747 
z
" transform="scale(0.015625)"/>
       <path id="DejaVuSans-66" d="M 2375 4863 
L 2375 4384 
L 1825 4384 
Q 1516 4384 1395 4259 
Q 1275 4134 1275 3809 
L 1275 3500 
L 2222 3500 
L 2222 3053 
L 1275 3053 
L 1275 0 
L 697 0 
L 697 3053 
L 147 3053 
L 147 3500 
L 697 3500 
L 697 3744 
Q 697 4328 969 4595 
Q 1241 4863 1831 4863 
L 2375 4863 
z
" transform="scale(0.015625)"/>
       <path id="DejaVuSans-63" d="M 3122 3366 
L 3122 2828 
Q 2878 2963 2633 3030 
Q 2388 3097 2138 3097 
Q 1578 3097 1268 2742 
Q 959 2388 959 1747 
Q 959 1106 1268 751 
Q 1578 397 2138 397 
Q 2388 397 2633 464 
Q 2878 531 3122 666 
L 3122 134 
Q 2881 22 2623 -34 
Q 2366 -91 2075 -91 
Q 1284 -91 818 406 
Q 353 903 353 1747 
Q 353 2603 823 3093 
Q 1294 3584 2113 3584 
Q 2378 3584 2631 3529 
Q 2884 3475 3122 3366 
z
" transform="scale(0.015625)"/>
       <path id="DejaVuSans-75" d="M 544 1381 
L 544 3500 
L 1119 3500 
L 1119 1403 
Q 1119 906 1312 657 
Q 1506 409 1894 409 
Q 2359 409 2629 706 
Q 2900 1003 2900 1516 
L 2900 3500 
L 3475 3500 
L 3475 0 
L 2900 0 
L 2900 538 
Q 2691 219 2414 64 
Q 2138 -91 1772 -91 
Q 1169 -91 856 284 
Q 544 659 544 1381 
z
M 1991 3584 
L 1991 3584 
z
" transform="scale(0.015625)"/>
       <path id="DejaVuSans-72" d="M 2631 2963 
Q 2534 3019 2420 3045 
Q 2306 3072 2169 3072 
Q 1681 3072 1420 2755 
Q 1159 2438 1159 1844 
L 1159 0 
L 581 0 
L 581 3500 
L 1159 3500 
L 1159 2956 
Q 1341 3275 1631 3429 
Q 1922 3584 2338 3584 
Q 2397 3584 2469 3576 
Q 2541 3569 2628 3553 
L 2631 2963 
z
" transform="scale(0.015625)"/>
       <path id="DejaVuSans-6e" d="M 3513 2113 
L 3513 0 
L 2938 0 
L 2938 2094 
Q 2938 2591 2744 2837 
Q 2550 3084 2163 3084 
Q 1697 3084 1428 2787 
Q 1159 2491 1159 1978 
L 1159 0 
L 581 0 
L 581 3500 
L 1159 3500 
L 1159 2956 
Q 1366 3272 1645 3428 
Q 1925 3584 2291 3584 
Q 2894 3584 3203 3211 
Q 3513 2838 3513 2113 
z
" transform="scale(0.015625)"/>
      </defs>
      <use xlink:href="#DejaVuSans-4c"/>
      <use xlink:href="#DejaVuSans-69" x="55.712891"/>
      <use xlink:href="#DejaVuSans-6b" x="83.496094"/>
      <use xlink:href="#DejaVuSans-65" x="137.78125"/>
      <use xlink:href="#DejaVuSans-6c" x="199.304688"/>
      <use xlink:href="#DejaVuSans-69" x="227.087891"/>
      <use xlink:href="#DejaVuSans-68" x="254.871094"/>
      <use xlink:href="#DejaVuSans-6f" x="318.25"/>
      <use xlink:href="#DejaVuSans-6f" x="379.431641"/>
      <use xlink:href="#DejaVuSans-64" x="440.613281"/>
      <use xlink:href="#DejaVuSans-20" x="504.089844"/>
      <use xlink:href="#DejaVuSans-6f" x="535.876953"/>
      <use xlink:href="#DejaVuSans-66" x="597.058594"/>
      <use xlink:href="#DejaVuSans-20" x="632.263672"/>
      <use xlink:href="#DejaVuSans-6f" x="664.050781"/>
      <use xlink:href="#DejaVuSans-63" x="725.232422"/>
      <use xlink:href="#DejaVuSans-63" x="780.212891"/>
      <use xlink:href="#DejaVuSans-75" x="835.193359"/>
      <use xlink:href="#DejaVuSans-72" x="898.572266"/>
      <use xlink:href="#DejaVuSans-72" x="937.935547"/>
      <use xlink:href="#DejaVuSans-65" x="976.798828"/>
      <use xlink:href="#DejaVuSans-6e" x="1038.322266"/>
      <use xlink:href="#DejaVuSans-63" x="1101.701172"/>
      <use xlink:href="#DejaVuSans-65" x="1156.681641"/>
     </g>
    </g>
   </g>
   <g id="line2d_31">
    <path d="M 92.974375 317.149688 
L 139.597492 317.075748 
L 140.394468 316.484229 
L 140.633561 316.410289 
L 140.872654 316.336349 
L 140.952352 316.336349 
L 141.032049 316.188469 
L 141.191445 315.74483 
L 141.510235 315.74483 
L 141.66963 314.857552 
L 141.988421 314.857552 
L 142.147816 314.561792 
L 142.944793 314.487852 
L 143.104188 314.192093 
L 143.901164 314.118153 
L 144.060559 313.674514 
L 144.37935 313.674514 
L 144.538745 313.230875 
L 144.857536 313.230875 
L 145.016931 312.565416 
L 145.335722 312.565416 
L 145.495117 312.269656 
L 145.813907 312.269656 
L 145.973303 312.047837 
L 146.292093 312.047837 
L 146.451488 311.530258 
L 146.770279 311.530258 
L 146.929674 311.308438 
L 147.726651 311.308438 
L 147.886046 311.160558 
L 148.683022 311.086619 
L 148.842418 310.938739 
L 149.161208 310.938739 
L 149.320603 310.56904 
L 149.639394 310.56904 
L 149.798789 310.42116 
L 150.11758 310.42116 
L 150.276975 310.1254 
L 150.595766 310.1254 
L 150.755161 309.681761 
L 151.073951 309.681761 
L 151.233347 309.238122 
L 151.631835 309.238122 
L 151.79123 309.016302 
L 153.544578 308.942362 
L 153.783671 308.868423 
L 154.022764 308.868423 
L 154.182159 308.129024 
L 154.50095 308.129024 
L 154.660345 307.759325 
L 154.979136 307.759325 
L 155.138531 307.167806 
L 155.457321 307.167806 
L 155.616717 306.798106 
L 155.935507 306.798106 
L 156.094902 306.058708 
L 156.413693 306.058708 
L 156.573088 305.689008 
L 156.891879 305.689008 
L 157.051274 305.245369 
L 157.370065 305.245369 
L 157.52946 304.80173 
L 158.326436 304.72779 
L 158.565529 304.65385 
L 158.804622 304.65385 
L 158.964017 304.505971 
L 159.282808 304.505971 
L 159.442203 303.914452 
L 159.760994 303.914452 
L 159.920389 303.322933 
L 160.239179 303.322933 
L 160.398575 303.027173 
L 160.717365 303.027173 
L 160.876761 302.805354 
L 161.195551 302.805354 
L 161.354946 302.361714 
L 161.673737 302.361714 
L 161.833132 302.139895 
L 162.630109 302.065955 
L 162.789504 301.918075 
L 163.58648 301.844135 
L 163.745875 301.400496 
L 164.144364 301.400496 
L 164.303759 301.104737 
L 164.622549 301.104737 
L 164.781945 300.587158 
L 165.100735 300.587158 
L 165.26013 300.365338 
L 165.578921 300.365338 
L 165.738316 299.921699 
L 166.535293 299.921699 
L 166.694688 299.699879 
L 167.013478 299.699879 
L 167.172874 299.47806 
L 167.96985 299.47806 
L 168.129245 298.960481 
L 168.448036 298.960481 
L 168.607431 298.147142 
L 168.926222 298.147142 
L 169.085617 297.851383 
L 169.404408 297.851383 
L 169.563803 297.111984 
L 169.882593 297.111984 
L 170.041989 296.668345 
L 170.360779 296.668345 
L 170.520174 296.076826 
L 170.838965 296.076826 
L 170.99836 295.707127 
L 171.795337 295.707127 
L 171.954732 295.263487 
L 172.751708 295.189548 
L 172.911104 294.967728 
L 173.229894 294.967728 
L 173.389289 294.450149 
L 173.70808 294.450149 
L 173.867475 294.08045 
L 174.186266 294.08045 
L 174.345661 293.562871 
L 174.664451 293.562871 
L 174.823847 292.971352 
L 175.142637 292.971352 
L 175.302033 292.379833 
L 175.620823 292.379833 
L 175.780218 292.084073 
L 176.099009 292.084073 
L 176.258404 291.788314 
L 176.577195 291.788314 
L 176.73659 291.566494 
L 177.613264 291.492554 
L 177.852357 291.418614 
L 178.09145 291.418614 
L 178.250845 291.196795 
L 178.569636 291.196795 
L 178.729031 290.753156 
L 179.047821 290.753156 
L 179.207217 290.383456 
L 179.526007 290.383456 
L 179.685403 289.865877 
L 180.004193 289.865877 
L 180.163588 289.496178 
L 180.482379 289.496178 
L 180.641774 289.200419 
L 180.960565 289.200419 
L 181.11996 288.830719 
L 181.916936 288.830719 
L 182.076332 288.46102 
L 182.395122 288.46102 
L 182.554517 288.31314 
L 182.873308 288.31314 
L 183.032703 288.017381 
L 183.351494 288.017381 
L 183.510889 287.351922 
L 183.82968 287.351922 
L 183.989075 286.760403 
L 184.307865 286.760403 
L 184.467261 286.094944 
L 184.786051 286.094944 
L 184.945446 285.429485 
L 185.264237 285.429485 
L 185.423632 285.133726 
L 185.742423 285.133726 
L 185.901818 284.616147 
L 186.220609 284.616147 
L 186.380004 284.394327 
L 186.698794 284.394327 
L 186.85819 284.098568 
L 187.17698 284.098568 
L 187.336376 283.802808 
L 187.655166 283.802808 
L 187.814561 283.433109 
L 188.133352 283.433109 
L 188.292747 282.76765 
L 188.611538 282.76765 
L 188.770933 282.250071 
L 189.089724 282.250071 
L 189.249119 281.880372 
L 189.567909 281.880372 
L 189.727305 281.362793 
L 190.125793 281.362793 
L 190.285188 281.067033 
L 190.603979 281.067033 
L 190.763374 280.845214 
L 191.56035 280.771274 
L 191.719746 280.623394 
L 192.038536 280.623394 
L 192.197931 280.401575 
L 192.516722 280.401575 
L 192.676117 280.253695 
L 192.994908 280.253695 
L 193.154303 279.957935 
L 193.473093 279.957935 
L 193.632489 279.440356 
L 193.951279 279.440356 
L 194.110675 278.627018 
L 194.429465 278.627018 
L 194.58886 278.405198 
L 194.907651 278.405198 
L 195.067046 278.109439 
L 195.385837 278.109439 
L 195.545232 277.961559 
L 195.864023 277.961559 
L 196.023418 277.6658 
L 196.342208 277.6658 
L 196.501604 277.51792 
L 196.820394 277.51792 
L 196.979789 277.37004 
L 197.29858 277.37004 
L 197.457975 277.074281 
L 197.776766 277.074281 
L 197.936161 276.630641 
L 198.254952 276.630641 
L 198.414347 276.482762 
L 198.733137 276.482762 
L 198.892533 275.965183 
L 199.211323 275.965183 
L 199.370719 275.151844 
L 199.689509 275.151844 
L 199.848904 274.782145 
L 200.167695 274.782145 
L 200.32709 274.560325 
L 200.645881 274.560325 
L 200.805276 274.338506 
L 201.124067 274.338506 
L 201.283462 274.190626 
L 201.602252 274.190626 
L 201.761648 274.042746 
L 202.080438 274.042746 
L 202.239833 273.820927 
L 202.558624 273.820927 
L 202.718019 273.303348 
L 203.116507 273.303348 
L 203.275903 272.711829 
L 203.594693 272.711829 
L 203.754088 271.82455 
L 204.072879 271.82455 
L 204.232274 271.233031 
L 204.551065 271.233031 
L 204.71046 270.937272 
L 205.029251 270.937272 
L 205.188646 270.715452 
L 205.507436 270.715452 
L 205.666832 270.345753 
L 205.985622 270.345753 
L 206.145018 270.197873 
L 206.463808 270.197873 
L 206.623203 269.754234 
L 206.941994 269.754234 
L 207.101389 269.606354 
L 207.42018 269.606354 
L 207.579575 269.310595 
L 207.898366 269.310595 
L 208.057761 269.014835 
L 208.376551 269.014835 
L 208.535947 268.645136 
L 208.854737 268.645136 
L 209.014132 268.201497 
L 209.332923 268.201497 
L 209.492318 267.905737 
L 209.811109 267.905737 
L 209.970504 267.609978 
L 210.289295 267.609978 
L 210.44869 267.462098 
L 210.76748 267.462098 
L 210.926876 267.018459 
L 211.245666 267.018459 
L 211.405062 266.64876 
L 211.723852 266.64876 
L 211.883247 266.20512 
L 212.202038 266.20512 
L 212.361433 265.909361 
L 212.680224 265.909361 
L 212.839619 265.539662 
L 213.158409 265.539662 
L 213.317805 264.800263 
L 213.636595 264.800263 
L 213.795991 264.578443 
L 214.114781 264.578443 
L 214.274176 264.282684 
L 214.592967 264.282684 
L 214.752362 264.060864 
L 215.071153 264.060864 
L 215.230548 263.839045 
L 216.107222 263.765105 
L 216.266617 263.617225 
L 216.585408 263.617225 
L 216.744803 263.321466 
L 217.063594 263.321466 
L 217.222989 263.025706 
L 217.541779 263.025706 
L 217.701175 262.582067 
L 218.019965 262.582067 
L 218.179361 262.064488 
L 218.498151 262.064488 
L 218.657546 261.842668 
L 218.976337 261.842668 
L 219.135732 261.546909 
L 219.454523 261.546909 
L 219.613918 260.95539 
L 219.932709 260.95539 
L 220.092104 260.659631 
L 220.410894 260.659631 
L 220.57029 260.511751 
L 221.367266 260.437811 
L 221.526661 260.142052 
L 221.845452 260.142052 
L 222.004847 259.550533 
L 222.323638 259.550533 
L 222.483033 258.959014 
L 222.801823 258.959014 
L 222.961219 258.071735 
L 223.280009 258.071735 
L 223.439404 257.849916 
L 223.758195 257.849916 
L 223.91759 257.554156 
L 224.236381 257.554156 
L 224.395776 257.406277 
L 224.714567 257.406277 
L 224.873962 257.036577 
L 225.192752 257.036577 
L 225.352148 256.888697 
L 225.670938 256.888697 
L 225.830334 256.740818 
L 226.149124 256.740818 
L 226.308519 256.297179 
L 226.62731 256.297179 
L 226.786705 256.149299 
L 227.105496 256.149299 
L 227.264891 255.55778 
L 227.583682 255.55778 
L 227.743077 254.892321 
L 228.061867 254.892321 
L 228.221263 254.670502 
L 228.540053 254.670502 
L 228.699448 254.226862 
L 229.576122 254.226862 
L 229.735518 254.005043 
L 230.532494 254.005043 
L 230.691889 253.857163 
L 231.01068 253.857163 
L 231.170075 253.635343 
L 231.488866 253.635343 
L 231.648261 253.117764 
L 231.967051 253.117764 
L 232.126447 252.304426 
L 232.445237 252.304426 
L 232.604633 251.417147 
L 232.923423 251.417147 
L 233.082818 251.047448 
L 233.401609 251.047448 
L 233.561004 250.899568 
L 233.879795 250.899568 
L 234.03919 250.455929 
L 234.357981 250.455929 
L 234.517376 250.16017 
L 235.314352 250.08623 
L 235.473747 249.79047 
L 235.792538 249.79047 
L 235.951933 249.125012 
L 236.270724 249.125012 
L 236.430119 248.903192 
L 236.74891 248.903192 
L 236.908305 248.385613 
L 237.227095 248.385613 
L 237.386491 247.794094 
L 237.705281 247.794094 
L 237.864677 247.498335 
L 238.183467 247.498335 
L 238.342862 247.202575 
L 238.661653 247.202575 
L 238.821048 246.611056 
L 239.139839 246.611056 
L 239.299234 246.389237 
L 239.618025 246.389237 
L 239.77742 246.241357 
L 240.09621 246.241357 
L 240.255606 246.019537 
L 240.574396 246.019537 
L 240.733791 245.206199 
L 241.052582 245.206199 
L 241.211977 245.058319 
L 241.530768 245.058319 
L 241.690163 244.4668 
L 242.088651 244.4668 
L 242.248046 243.727402 
L 242.566837 243.727402 
L 242.726232 243.209822 
L 243.045023 243.209822 
L 243.204418 242.988003 
L 243.523209 242.988003 
L 243.682604 242.840123 
L 244.001394 242.840123 
L 244.16079 242.692243 
L 244.957766 242.618304 
L 245.117161 242.470424 
L 245.435952 242.470424 
L 245.595347 241.731025 
L 245.914138 241.731025 
L 246.073533 241.435266 
L 246.392324 241.435266 
L 246.551719 241.139506 
L 246.870509 241.139506 
L 247.029905 240.474047 
L 247.348695 240.474047 
L 247.50809 239.734649 
L 247.826881 239.734649 
L 247.986276 239.21707 
L 248.305067 239.21707 
L 248.464462 238.84737 
L 248.783253 238.84737 
L 248.942648 238.699491 
L 249.261438 238.699491 
L 249.420834 238.477671 
L 249.739624 238.477671 
L 249.89902 238.329791 
L 250.21781 238.329791 
L 250.377205 238.107972 
L 250.695996 238.107972 
L 250.855391 237.738272 
L 251.174182 237.738272 
L 251.333577 237.146754 
L 251.652367 237.146754 
L 251.811763 236.333415 
L 252.130553 236.333415 
L 252.289949 235.667956 
L 252.608739 235.667956 
L 252.768134 235.298257 
L 253.086925 235.298257 
L 253.24632 235.150377 
L 253.565111 235.150377 
L 253.724506 235.002497 
L 254.043297 235.002497 
L 254.202692 234.854618 
L 255.079366 234.780678 
L 255.238761 234.484918 
L 255.557552 234.484918 
L 255.716947 234.115219 
L 256.035737 234.115219 
L 256.195133 233.44976 
L 256.513923 233.44976 
L 256.673319 232.636422 
L 257.470295 232.636422 
L 257.62969 232.340662 
L 257.948481 232.340662 
L 258.107876 231.970963 
L 258.426667 231.970963 
L 258.586062 231.749143 
L 259.383038 231.749143 
L 259.542433 231.601264 
L 259.861224 231.601264 
L 260.020619 231.083685 
L 260.33941 231.083685 
L 260.498805 230.787925 
L 260.817596 230.787925 
L 260.976991 230.122466 
L 261.295781 230.122466 
L 261.455177 229.604887 
L 261.773967 229.604887 
L 261.933362 229.235188 
L 262.252153 229.235188 
L 262.411548 228.865489 
L 262.730339 228.865489 
L 262.889734 228.34791 
L 263.208525 228.34791 
L 263.36792 228.12609 
L 264.164896 228.12609 
L 264.324292 227.97821 
L 264.643082 227.97821 
L 264.802477 227.534571 
L 265.121268 227.534571 
L 265.280663 227.312751 
L 265.599454 227.312751 
L 265.758849 226.721233 
L 266.07764 226.721233 
L 266.237035 225.981834 
L 266.555825 225.981834 
L 266.715221 225.538195 
L 267.034011 225.538195 
L 267.193406 225.168495 
L 267.512197 225.168495 
L 267.671592 224.798796 
L 268.07008 224.798796 
L 268.229476 224.650916 
L 269.026452 224.576976 
L 269.185847 224.429097 
L 269.504638 224.429097 
L 269.664033 224.133337 
L 269.982824 224.133337 
L 270.142219 223.837578 
L 270.461009 223.837578 
L 270.620405 223.319999 
L 270.939195 223.319999 
L 271.098591 222.80242 
L 271.417381 222.80242 
L 271.576776 222.5806 
L 271.895567 222.5806 
L 272.054962 222.358781 
L 272.373753 222.358781 
L 272.533148 221.841201 
L 272.851939 221.841201 
L 273.011334 221.619382 
L 273.80831 221.545442 
L 273.967705 221.175743 
L 274.286496 221.175743 
L 274.445891 220.658164 
L 274.764682 220.658164 
L 274.924077 220.436344 
L 275.242868 220.436344 
L 275.402263 219.992705 
L 275.721053 219.992705 
L 275.880449 219.401186 
L 276.199239 219.401186 
L 276.358635 218.883607 
L 276.677425 218.883607 
L 276.83682 218.218148 
L 277.633797 218.144208 
L 277.793192 217.996328 
L 278.111983 217.996328 
L 278.271378 217.848449 
L 278.590168 217.848449 
L 278.749564 217.700569 
L 279.068354 217.700569 
L 279.227749 217.40481 
L 279.54654 217.40481 
L 279.705935 217.10905 
L 280.024726 217.10905 
L 280.184121 216.591471 
L 280.582609 216.591471 
L 280.742004 216.147832 
L 281.060795 216.147832 
L 281.22019 215.852072 
L 281.538981 215.852072 
L 281.698376 215.556313 
L 282.017167 215.556313 
L 282.176562 215.186614 
L 282.495352 215.186614 
L 282.654748 215.038734 
L 282.973538 215.038734 
L 283.132934 214.816914 
L 283.451724 214.816914 
L 283.611119 214.521155 
L 283.92991 214.521155 
L 284.089305 214.077516 
L 284.408096 214.077516 
L 284.567491 213.190237 
L 284.886282 213.190237 
L 285.045677 212.450839 
L 285.364467 212.450839 
L 285.523863 211.85932 
L 285.842653 211.85932 
L 286.002048 211.6375 
L 286.320839 211.6375 
L 286.480234 211.341741 
L 286.799025 211.341741 
L 286.95842 211.119921 
L 287.277211 211.119921 
L 287.436606 210.972041 
L 287.755396 210.972041 
L 287.914792 210.824162 
L 288.233582 210.824162 
L 288.392978 210.454462 
L 288.711768 210.454462 
L 288.871163 210.084763 
L 289.189954 210.084763 
L 289.349349 209.715064 
L 289.66814 209.715064 
L 289.827535 209.493244 
L 290.146325 209.493244 
L 290.305721 208.975665 
L 290.624511 208.975665 
L 290.783907 208.162326 
L 291.102697 208.162326 
L 291.262092 207.718687 
L 291.580883 207.718687 
L 291.740278 207.570808 
L 292.537255 207.496868 
L 292.69665 207.275048 
L 293.01544 207.275048 
L 293.174836 207.127168 
L 293.573324 207.127168 
L 293.732719 206.905349 
L 294.05151 206.905349 
L 294.210905 206.46171 
L 294.529695 206.46171 
L 294.689091 205.796251 
L 295.007881 205.796251 
L 295.167277 205.574431 
L 295.486067 205.574431 
L 295.645462 205.204732 
L 295.964253 205.204732 
L 296.123648 205.056852 
L 296.442439 205.056852 
L 296.601834 204.761093 
L 296.920625 204.761093 
L 297.08002 204.613213 
L 297.39881 204.613213 
L 297.558206 204.465333 
L 297.876996 204.465333 
L 298.036391 204.243514 
L 298.833368 204.169574 
L 298.992763 203.873814 
L 299.311554 203.873814 
L 299.470949 203.208355 
L 299.789739 203.208355 
L 299.949135 202.986536 
L 300.267925 202.986536 
L 300.42732 202.468957 
L 300.746111 202.468957 
L 300.905506 202.099257 
L 301.224297 202.099257 
L 301.383692 201.729558 
L 301.702483 201.729558 
L 301.861878 201.507739 
L 302.658854 201.433799 
L 302.81825 201.138039 
L 303.13704 201.138039 
L 303.296435 200.6944 
L 303.615226 200.6944 
L 303.774621 200.102881 
L 304.093412 200.102881 
L 304.252807 199.807122 
L 304.571598 199.807122 
L 304.730993 199.141663 
L 305.049783 199.141663 
L 305.209179 198.624084 
L 305.527969 198.624084 
L 305.687364 198.180445 
L 306.006155 198.180445 
L 306.16555 197.958625 
L 306.564038 197.958625 
L 306.723434 197.514986 
L 307.52041 197.441046 
L 307.679805 197.145287 
L 307.998596 197.145287 
L 308.157991 196.479828 
L 308.954967 196.479828 
L 309.114363 195.962249 
L 309.433153 195.962249 
L 309.592549 195.51861 
L 309.911339 195.51861 
L 310.070734 194.779211 
L 310.389525 194.779211 
L 310.54892 194.631331 
L 310.867711 194.631331 
L 311.027106 194.261632 
L 312.302268 194.187692 
L 312.461663 193.891932 
L 312.780454 193.891932 
L 312.939849 193.744053 
L 313.25864 193.744053 
L 313.418035 193.596173 
L 313.736826 193.596173 
L 313.896221 193.226474 
L 314.215011 193.226474 
L 314.374407 192.413135 
L 314.693197 192.413135 
L 314.852593 191.673737 
L 315.171383 191.673737 
L 315.330778 191.304037 
L 315.649569 191.304037 
L 315.808964 191.156157 
L 316.127755 191.156157 
L 316.28715 191.008278 
L 316.605941 191.008278 
L 316.765336 190.860398 
L 317.084126 190.860398 
L 317.243522 190.564639 
L 318.040498 190.564639 
L 318.199893 189.82524 
L 318.518684 189.82524 
L 318.678079 189.233721 
L 318.99687 189.233721 
L 319.156265 188.568262 
L 319.554753 188.568262 
L 319.714148 188.198563 
L 320.032939 188.198563 
L 320.192334 187.680984 
L 320.511125 187.680984 
L 320.67052 187.459164 
L 320.98931 187.459164 
L 321.148706 187.311284 
L 321.945682 187.237345 
L 322.105077 186.867645 
L 322.423868 186.867645 
L 322.583263 186.202187 
L 322.902054 186.202187 
L 323.061449 185.758547 
L 323.38024 185.758547 
L 323.539635 185.093089 
L 323.858425 185.093089 
L 324.017821 184.797329 
L 324.336611 184.797329 
L 324.496006 184.20581 
L 324.814797 184.20581 
L 324.974192 183.910051 
L 325.292983 183.910051 
L 325.452378 183.466412 
L 326.249354 183.392472 
L 326.40875 183.170652 
L 326.72754 183.170652 
L 326.886936 182.653073 
L 327.205726 182.653073 
L 327.365121 182.283374 
L 327.683912 182.283374 
L 327.843307 181.396095 
L 328.162098 181.396095 
L 328.321493 181.248216 
L 328.640283 181.248216 
L 328.799679 180.434877 
L 329.118469 180.434877 
L 329.277865 179.769418 
L 329.596655 179.769418 
L 329.75605 179.325779 
L 330.074841 179.325779 
L 330.234236 179.103959 
L 330.553027 179.103959 
L 330.712422 178.95608 
L 331.031213 178.95608 
L 331.190608 178.66032 
L 331.987584 178.58638 
L 332.146979 178.290621 
L 332.545468 178.290621 
L 332.704863 177.920922 
L 333.023653 177.920922 
L 333.183049 177.403343 
L 333.501839 177.403343 
L 333.661235 176.737884 
L 334.458211 176.663944 
L 334.617606 176.442124 
L 334.936397 176.442124 
L 335.095792 176.220305 
L 335.892768 176.146365 
L 336.052164 175.998485 
L 336.370954 175.998485 
L 336.530349 175.776666 
L 336.84914 175.776666 
L 337.008535 175.259086 
L 337.327326 175.259086 
L 337.486721 175.037267 
L 337.805512 175.037267 
L 337.964907 174.741507 
L 338.283697 174.741507 
L 338.443093 174.223928 
L 338.761883 174.223928 
L 338.921278 173.780289 
L 339.240069 173.780289 
L 339.399464 173.33665 
L 339.718255 173.33665 
L 339.87765 173.11483 
L 340.674626 173.040891 
L 340.834022 172.893011 
L 341.152812 172.893011 
L 341.312208 172.301492 
L 341.630998 172.301492 
L 341.790393 171.636033 
L 342.109184 171.636033 
L 342.268579 171.044514 
L 342.58737 171.044514 
L 342.746765 170.231176 
L 343.065556 170.231176 
L 343.224951 169.639657 
L 343.543741 169.639657 
L 343.703137 169.269957 
L 344.021927 169.269957 
L 344.181322 168.974198 
L 346.014368 168.900258 
L 346.173763 168.752378 
L 346.492554 168.752378 
L 346.651949 168.382679 
L 346.97074 168.382679 
L 347.130135 168.01298 
L 347.448925 168.01298 
L 347.608321 167.421461 
L 347.927111 167.421461 
L 348.086507 166.977822 
L 348.405297 166.977822 
L 348.564692 166.534182 
L 349.361669 166.460243 
L 349.521064 166.090543 
L 350.31804 166.090543 
L 350.477436 165.794784 
L 350.796226 165.794784 
L 350.955621 165.572964 
L 351.274412 165.572964 
L 351.433807 165.351145 
L 352.230784 165.277205 
L 352.390179 164.685686 
L 352.708969 164.685686 
L 352.868365 163.428708 
L 353.187155 163.428708 
L 353.346551 162.985069 
L 353.665341 162.985069 
L 353.824736 162.61537 
L 354.621713 162.54143 
L 354.860806 162.46749 
L 355.099899 162.46749 
L 355.259294 162.31961 
L 355.578084 162.31961 
L 355.73748 161.949911 
L 356.05627 161.949911 
L 356.215665 161.506272 
L 356.534456 161.506272 
L 356.693851 161.062632 
L 357.012642 161.062632 
L 357.172037 160.397174 
L 357.490828 160.397174 
L 357.650223 159.583835 
L 358.526897 159.509895 
L 358.686292 159.214136 
L 359.005083 159.214136 
L 359.164478 158.918376 
L 359.483268 158.918376 
L 359.642664 158.696557 
L 359.961454 158.696557 
L 360.12085 158.548677 
L 360.917826 158.474737 
L 361.077221 158.252918 
L 361.396012 158.252918 
L 361.555407 157.809278 
L 361.874198 157.809278 
L 362.033593 156.99594 
L 362.352383 156.99594 
L 362.511779 156.77412 
L 362.830569 156.77412 
L 362.989964 156.478361 
L 363.308755 156.478361 
L 363.46815 156.330481 
L 364.265127 156.256541 
L 364.424522 155.738962 
L 364.743312 155.738962 
L 364.902708 155.591082 
L 365.221498 155.591082 
L 365.380893 155.443203 
L 365.699684 155.443203 
L 365.859079 155.073503 
L 366.17787 155.073503 
L 366.337265 154.777744 
L 366.656056 154.777744 
L 366.815451 154.260165 
L 367.134241 154.260165 
L 367.293637 153.742586 
L 367.612427 153.742586 
L 367.771823 153.225007 
L 368.090613 153.225007 
L 368.250008 152.855307 
L 368.568799 152.855307 
L 368.728194 152.707428 
L 369.046985 152.707428 
L 369.20638 152.485608 
L 369.525171 152.485608 
L 369.684566 152.263788 
L 370.003356 152.263788 
L 370.162752 151.894089 
L 370.481542 151.894089 
L 370.640937 151.59833 
L 370.959728 151.59833 
L 371.119123 150.858931 
L 371.517611 150.858931 
L 371.677007 150.267412 
L 371.995797 150.267412 
L 372.155193 149.528013 
L 372.473983 149.528013 
L 372.633378 149.010434 
L 372.952169 149.010434 
L 373.111564 148.640735 
L 373.908541 148.566795 
L 374.067936 148.271036 
L 374.864912 148.197096 
L 375.024307 148.049216 
L 375.343098 148.049216 
L 375.502493 147.753457 
L 375.821284 147.753457 
L 375.980679 147.531637 
L 376.29947 147.531637 
L 376.458865 146.940118 
L 376.777655 146.940118 
L 376.937051 145.9789 
L 377.255841 145.9789 
L 377.415236 145.68314 
L 377.734027 145.68314 
L 377.893422 145.461321 
L 378.212213 145.461321 
L 378.371608 145.091622 
L 379.64677 145.017682 
L 379.885863 144.943742 
L 380.124956 144.943742 
L 380.284351 144.647982 
L 380.603142 144.647982 
L 380.762537 144.130403 
L 381.081328 144.130403 
L 381.240723 143.760704 
L 381.559514 143.760704 
L 381.718909 143.317065 
L 382.037699 143.317065 
L 382.197095 142.947365 
L 382.515885 142.947365 
L 382.67528 142.577666 
L 383.472257 142.577666 
L 383.631652 142.429786 
L 384.508326 142.355847 
L 384.667721 141.838267 
L 384.986512 141.838267 
L 385.145907 141.172809 
L 385.464698 141.172809 
L 385.624093 140.50735 
L 385.942883 140.50735 
L 386.102279 139.767951 
L 386.421069 139.767951 
L 386.580465 139.398252 
L 386.899255 139.398252 
L 387.05865 139.028553 
L 387.377441 139.028553 
L 387.536836 138.806733 
L 387.855627 138.806733 
L 388.015022 138.658853 
L 388.811998 138.658853 
L 388.971394 138.215214 
L 389.290184 138.215214 
L 389.449579 138.067334 
L 389.76837 138.067334 
L 389.927765 137.475815 
L 390.246556 137.475815 
L 390.405951 137.032176 
L 390.724742 137.032176 
L 390.884137 136.440657 
L 391.202927 136.440657 
L 391.362323 135.997018 
L 391.681113 135.997018 
L 391.840509 135.701259 
L 392.159299 135.701259 
L 392.318694 135.18368 
L 392.637485 135.18368 
L 392.79688 134.96186 
L 393.115671 134.96186 
L 393.275066 134.81398 
L 393.593857 134.81398 
L 393.753252 134.518221 
L 394.072042 134.518221 
L 394.231438 134.074582 
L 394.550228 134.074582 
L 394.709623 133.778822 
L 395.028414 133.778822 
L 395.187809 133.557003 
L 395.5066 133.557003 
L 395.665995 133.335183 
L 395.984786 133.335183 
L 396.144181 132.447905 
L 396.462971 132.447905 
L 396.622367 131.930326 
L 397.020855 131.930326 
L 397.18025 131.560626 
L 397.499041 131.560626 
L 397.658436 131.412747 
L 397.977226 131.412747 
L 398.136622 131.264867 
L 398.455412 131.264867 
L 398.614808 131.043047 
L 399.411784 130.969107 
L 399.571179 130.821228 
L 399.88997 130.821228 
L 400.049365 130.377588 
L 400.368156 130.377588 
L 400.527551 129.933949 
L 400.846341 129.933949 
L 401.005737 129.41637 
L 401.324527 129.41637 
L 401.483922 129.194551 
L 401.802713 129.194551 
L 401.962108 128.750911 
L 402.280899 128.750911 
L 402.440294 128.529092 
L 402.759085 128.529092 
L 402.91848 128.381212 
L 403.23727 128.381212 
L 403.396666 128.159392 
L 403.715456 128.159392 
L 403.874851 127.641813 
L 404.193642 127.641813 
L 404.353037 127.050294 
L 404.671828 127.050294 
L 404.831223 126.606655 
L 405.150014 126.606655 
L 405.309409 125.867257 
L 405.628199 125.867257 
L 405.787595 125.275738 
L 406.106385 125.275738 
L 406.265781 125.053918 
L 406.584571 125.053918 
L 406.743966 124.684219 
L 407.062757 124.684219 
L 407.222152 124.536339 
L 407.540943 124.536339 
L 407.700338 124.314519 
L 408.019129 124.314519 
L 408.178524 124.0927 
L 408.497314 124.0927 
L 408.65671 123.649061 
L 408.9755 123.649061 
L 409.134895 123.279361 
L 409.453686 123.279361 
L 409.613081 122.983602 
L 410.011569 122.983602 
L 410.170965 122.539963 
L 410.489755 122.539963 
L 410.649151 121.800564 
L 410.967941 121.800564 
L 411.127336 121.578744 
L 411.446127 121.578744 
L 411.605522 121.282985 
L 411.924313 121.282985 
L 412.083708 121.061165 
L 412.402499 121.061165 
L 412.561894 120.913286 
L 412.880684 120.913286 
L 413.04008 120.617526 
L 413.35887 120.617526 
L 413.518265 120.321767 
L 413.837056 120.321767 
L 413.996451 120.099947 
L 414.315242 120.099947 
L 414.474637 119.656308 
L 414.793428 119.656308 
L 414.952823 119.064789 
L 415.271613 119.064789 
L 415.431009 118.54721 
L 415.749799 118.54721 
L 415.909194 118.32539 
L 416.227985 118.32539 
L 416.38738 117.955691 
L 416.706171 117.955691 
L 416.865566 117.733871 
L 417.184357 117.733871 
L 417.343752 117.585992 
L 417.662542 117.585992 
L 417.821938 117.364172 
L 418.140728 117.364172 
L 418.300124 117.216292 
L 418.618914 117.216292 
L 418.778309 116.624774 
L 419.0971 116.624774 
L 419.256495 116.107194 
L 419.575286 116.107194 
L 419.734681 115.367796 
L 420.053472 115.367796 
L 420.212867 114.850217 
L 420.531657 114.850217 
L 420.691053 113.962938 
L 421.009843 113.962938 
L 421.169238 113.815059 
L 421.488029 113.815059 
L 421.647424 113.667179 
L 421.966215 113.667179 
L 422.12561 113.519299 
L 423.002284 113.445359 
L 423.161679 113.22354 
L 423.48047 113.22354 
L 423.639865 112.410201 
L 423.958656 112.410201 
L 424.118051 111.892622 
L 424.436841 111.892622 
L 424.596237 111.375043 
L 424.915027 111.375043 
L 425.074423 111.005344 
L 425.393213 111.005344 
L 425.552608 110.413825 
L 425.871399 110.413825 
L 426.030794 109.896246 
L 426.349585 109.896246 
L 426.50898 109.748366 
L 427.305956 109.674426 
L 427.465352 109.526546 
L 427.784142 109.526546 
L 427.943537 109.304727 
L 428.262328 109.304727 
L 428.421723 108.935028 
L 428.740514 108.935028 
L 428.899909 108.491388 
L 429.2187 108.491388 
L 429.378095 108.195629 
L 429.696885 108.195629 
L 429.856281 107.60411 
L 430.175071 107.60411 
L 430.334467 107.086531 
L 430.653257 107.086531 
L 430.812652 106.790771 
L 431.609629 106.716832 
L 431.769024 106.495012 
L 432.087814 106.495012 
L 432.24721 106.199253 
L 432.566 106.199253 
L 432.725396 105.755613 
L 433.044186 105.755613 
L 433.203581 105.238034 
L 433.522372 105.238034 
L 433.681767 104.646515 
L 434.000558 104.646515 
L 434.159953 103.981057 
L 434.478744 103.981057 
L 434.638139 103.611357 
L 434.956929 103.611357 
L 435.116325 103.315598 
L 435.435115 103.315598 
L 435.59451 102.871959 
L 435.992999 102.871959 
L 436.152394 102.650139 
L 436.471184 102.650139 
L 436.63058 102.502259 
L 436.94937 102.502259 
L 437.108766 102.35438 
L 437.427556 102.35438 
L 437.586951 102.2065 
L 437.905742 102.2065 
L 438.065137 101.98468 
L 438.383928 101.98468 
L 438.543323 101.319221 
L 438.862114 101.319221 
L 439.021509 100.579823 
L 439.340299 100.579823 
L 439.499695 100.062244 
L 439.818485 100.062244 
L 439.97788 99.544665 
L 440.296671 99.544665 
L 440.456066 99.027086 
L 441.731228 98.953146 
L 441.970321 98.879206 
L 442.209414 98.879206 
L 442.368809 98.731326 
L 442.6876 98.731326 
L 442.846995 98.065867 
L 443.165786 98.065867 
L 443.325181 97.770108 
L 443.643972 97.770108 
L 443.803367 96.956769 
L 444.122157 96.956769 
L 444.281553 96.58707 
L 444.600343 96.58707 
L 444.759739 96.217371 
L 445.078529 96.217371 
L 445.237924 95.995551 
L 446.034901 95.921611 
L 446.194296 95.773732 
L 446.513087 95.773732 
L 446.672482 95.477972 
L 446.991272 95.477972 
L 447.150668 95.256153 
L 447.469458 95.256153 
L 447.628853 95.034333 
L 447.947644 95.034333 
L 448.107039 94.664634 
L 448.42583 94.664634 
L 448.585225 93.555536 
L 449.461899 93.481596 
L 449.621294 93.111896 
L 449.940085 93.111896 
L 450.09948 92.816137 
L 450.418271 92.816137 
L 450.577666 92.668257 
L 451.374642 92.594317 
L 451.534038 92.446438 
L 451.852828 92.446438 
L 452.012223 92.076738 
L 452.331014 92.076738 
L 452.490409 91.854919 
L 452.8092 91.854919 
L 452.968595 91.04158 
L 453.287386 91.04158 
L 453.446781 90.450061 
L 453.765571 90.450061 
L 453.924967 89.710663 
L 454.243757 89.710663 
L 454.403152 89.414903 
L 454.721943 89.414903 
L 454.881338 88.823384 
L 455.200129 88.823384 
L 455.359524 88.675505 
L 455.678315 88.675505 
L 455.83771 88.527625 
L 456.1565 88.527625 
L 456.315896 88.379745 
L 456.634686 88.379745 
L 456.794082 88.231865 
L 457.112872 88.231865 
L 457.272267 87.640346 
L 457.591058 87.640346 
L 457.750453 87.122767 
L 458.069244 87.122767 
L 458.228639 86.309429 
L 458.54743 86.309429 
L 458.706825 85.79185 
L 459.025615 85.79185 
L 459.185011 85.348211 
L 459.503801 85.348211 
L 459.663196 85.126391 
L 459.981987 85.126391 
L 460.141382 84.830632 
L 460.460173 84.830632 
L 460.619568 84.682752 
L 460.938359 84.682752 
L 461.097754 84.460932 
L 461.416544 84.460932 
L 461.57594 84.313052 
L 461.974428 84.313052 
L 462.133823 84.091233 
L 462.452614 84.091233 
L 462.612009 83.499714 
L 462.930799 83.499714 
L 463.090195 82.908195 
L 463.408985 82.908195 
L 463.568381 82.538496 
L 463.887171 82.538496 
L 464.046566 82.242736 
L 464.365357 82.242736 
L 464.524752 81.946977 
L 465.321729 81.873037 
L 465.481124 81.725157 
L 465.799914 81.725157 
L 465.95931 81.429398 
L 466.2781 81.429398 
L 466.437495 81.133638 
L 466.756286 81.133638 
L 466.915681 80.911819 
L 467.234472 80.911819 
L 467.393867 80.24636 
L 467.712658 80.24636 
L 467.872053 79.728781 
L 468.190843 79.728781 
L 468.350239 79.211202 
L 468.669029 79.211202 
L 468.828425 78.397863 
L 469.147215 78.397863 
L 469.30661 77.806344 
L 469.625401 77.806344 
L 469.784796 77.584525 
L 470.103587 77.584525 
L 470.262982 77.436645 
L 470.581772 77.436645 
L 470.741168 77.214825 
L 471.538144 77.140886 
L 471.697539 76.623307 
L 472.01633 76.623307 
L 472.175725 76.475427 
L 472.494516 76.475427 
L 472.653911 76.327547 
L 472.972702 76.327547 
L 473.132097 75.957848 
L 473.450887 75.957848 
L 473.610283 75.662088 
L 473.929073 75.662088 
L 474.088468 75.144509 
L 474.407259 75.144509 
L 474.566654 74.84875 
L 474.965142 74.84875 
L 475.124538 74.62693 
L 475.921514 74.55299 
L 476.080909 74.331171 
L 476.3997 74.331171 
L 476.559095 73.739652 
L 476.877886 73.739652 
L 477.037281 73.074193 
L 477.356072 73.074193 
L 477.515467 72.852373 
L 477.834257 72.852373 
L 477.993653 72.408734 
L 478.312443 72.408734 
L 478.471838 71.965095 
L 478.790629 71.965095 
L 478.950024 71.817215 
L 479.268815 71.817215 
L 479.42821 71.447516 
L 479.747001 71.447516 
L 479.906396 71.225696 
L 480.225186 71.225696 
L 480.384582 71.077817 
L 480.703372 71.077817 
L 480.862767 70.634177 
L 481.181558 70.634177 
L 481.340953 70.486298 
L 481.659744 70.486298 
L 481.819139 70.338418 
L 482.13793 70.338418 
L 482.297325 69.968719 
L 482.616115 69.968719 
L 482.775511 69.3772 
L 483.094301 69.3772 
L 483.253697 69.15538 
L 483.572487 69.15538 
L 483.731882 68.933561 
L 484.050673 68.933561 
L 484.210068 68.711741 
L 484.528859 68.711741 
L 484.688254 68.268102 
L 485.007045 68.268102 
L 485.16644 68.046282 
L 485.48523 68.046282 
L 485.644626 67.898402 
L 485.963416 67.898402 
L 486.122811 67.528703 
L 486.441602 67.528703 
L 486.600997 67.085064 
L 486.919788 67.085064 
L 487.079183 66.715365 
L 487.397974 66.715365 
L 487.557369 66.345665 
L 487.955857 66.345665 
L 488.115252 65.828086 
L 488.434043 65.828086 
L 488.593438 65.162627 
L 488.912229 65.162627 
L 489.071624 64.866868 
L 489.390414 64.866868 
L 489.54981 64.718988 
L 489.8686 64.718988 
L 490.027996 64.497169 
L 490.346786 64.497169 
L 490.506181 64.127469 
L 490.824972 64.127469 
L 490.984367 63.97959 
L 491.303158 63.97959 
L 491.462553 63.53595 
L 491.781344 63.53595 
L 491.940739 62.722612 
L 492.259529 62.722612 
L 492.418925 62.352913 
L 492.737715 62.352913 
L 492.89711 61.909273 
L 493.215901 61.909273 
L 493.375296 61.613514 
L 493.694087 61.613514 
L 493.853482 61.243815 
L 494.650458 61.169875 
L 494.809854 60.948055 
L 495.128644 60.948055 
L 495.28804 60.800175 
L 495.60683 60.800175 
L 495.766225 60.652296 
L 496.085016 60.652296 
L 496.244411 60.430476 
L 496.563202 60.430476 
L 496.722597 59.912897 
L 497.041388 59.912897 
L 497.200783 59.617138 
L 497.519573 59.617138 
L 497.678969 59.025619 
L 497.997759 59.025619 
L 498.157154 58.729859 
L 498.475945 58.729859 
L 498.63534 58.581979 
L 498.954131 58.581979 
L 499.113526 58.36016 
L 499.432317 58.36016 
L 499.591712 58.13834 
L 499.910502 58.13834 
L 500.069898 57.990461 
L 500.388688 57.990461 
L 500.548083 57.325002 
L 500.946572 57.325002 
L 501.105967 56.659543 
L 501.424757 56.659543 
L 501.584153 56.363783 
L 501.902943 56.363783 
L 502.062339 56.068024 
L 502.381129 56.068024 
L 502.540524 55.698325 
L 502.859315 55.698325 
L 503.01871 55.106806 
L 503.337501 55.106806 
L 503.496896 54.811046 
L 504.293872 54.811046 
L 504.453268 54.589227 
L 504.772058 54.589227 
L 504.931453 54.293467 
L 505.250244 54.293467 
L 505.409639 53.849828 
L 505.72843 53.849828 
L 505.887825 53.554069 
L 506.206616 53.554069 
L 506.366011 52.74073 
L 506.684801 52.74073 
L 506.844197 52.444971 
L 507.162987 52.444971 
L 507.322383 52.297091 
L 507.641173 52.297091 
L 507.800568 51.927392 
L 508.119359 51.927392 
L 508.278754 51.557692 
L 508.597545 51.557692 
L 508.75694 51.409813 
L 509.07573 51.409813 
L 509.235126 51.187993 
L 510.032102 51.114053 
L 510.191497 50.522534 
L 510.510288 50.522534 
L 510.669683 50.078895 
L 510.988474 50.078895 
L 511.147869 49.635256 
L 511.46666 49.635256 
L 511.626055 49.043737 
L 511.944845 49.043737 
L 512.104241 48.821917 
L 512.423031 48.821917 
L 512.582426 48.378278 
L 512.901217 48.378278 
L 513.060612 47.934639 
L 514.415472 47.860699 
L 514.574867 47.638879 
L 514.893658 47.638879 
L 515.053053 47.26918 
L 515.371844 47.26918 
L 515.531239 46.603721 
L 515.85003 46.603721 
L 516.009425 46.160082 
L 516.328215 46.160082 
L 516.487611 45.346744 
L 516.806401 45.346744 
L 516.965796 44.607345 
L 517.284587 44.607345 
L 517.443982 44.089766 
L 517.762773 44.089766 
L 517.922168 43.794006 
L 518.719144 43.720067 
L 518.87854 43.572187 
L 519.19733 43.572187 
L 519.356725 43.350367 
L 519.675516 43.350367 
L 519.834911 42.980668 
L 520.153702 42.980668 
L 520.313097 42.684908 
L 520.631888 42.684908 
L 520.791283 42.389149 
L 521.110073 42.389149 
L 521.269469 42.09339 
L 521.588259 42.09339 
L 521.747655 41.353991 
L 522.066445 41.353991 
L 522.22584 41.058231 
L 522.544631 41.058231 
L 522.704026 40.762472 
L 523.501003 40.762472 
L 523.660398 40.540652 
L 523.979188 40.540652 
L 524.138584 40.318833 
L 524.457374 40.318833 
L 524.616769 40.170953 
L 524.93556 40.170953 
L 525.094955 39.949133 
L 525.413746 39.949133 
L 525.573141 39.653374 
L 525.891932 39.653374 
L 526.051327 39.357615 
L 526.449815 39.357615 
L 526.60921 39.135795 
L 527.884372 39.061855 
L 528.123465 38.987915 
L 534.578974 38.913975 
L 534.738369 38.766096 
L 550.438803 38.692156 
L 550.677896 38.618216 
L 574.029304 38.544276 
L 574.268396 38.470336 
L 598.097989 38.396396 
L 598.337082 38.322456 
L 651.01722 38.248517 
L 651.256312 38.174577 
L 679.867764 38.100637 
L 680.106857 38.026697 
L 790.567779 37.952757 
L 790.806872 37.878817 
L 881.980967 37.804877 
L 882.22006 37.730938 
L 889.871033 37.730938 
L 889.871033 37.730938 
" clip-path="url(#p18b08e0eea)" style="fill: none; stroke: #1f77b4; stroke-width: 2; stroke-linecap: square"/>
   </g>
   <g id="line2d_32">
    <path d="M 92.974375 317.149688 
L 122.223407 317.149688 
L 122.860988 315.871055 
L 123.259477 314.216355 
L 123.339174 314.216355 
L 123.578267 313.163363 
L 124.136151 310.83174 
L 124.694034 306.093279 
L 125.092522 300.000973 
L 126.208289 272.472773 
L 127.244358 242.01124 
L 127.324056 241.334317 
L 128.121032 220.199279 
L 128.20073 219.371928 
L 128.51952 212.226631 
L 130.511961 173.115527 
L 130.751054 170.182194 
L 131.149542 164.165101 
L 131.22924 163.638606 
L 131.627728 158.298436 
L 131.707426 157.847154 
L 132.265309 148.52066 
L 133.381076 118.209555 
L 133.699867 108.356565 
L 133.859262 103.467677 
L 134.178053 94.065969 
L 134.25775 93.539474 
L 134.656238 85.341185 
L 135.532912 75.488195 
L 136.011098 73.231785 
L 136.489284 71.652299 
L 136.728377 70.749735 
L 137.844144 68.794179 
L 138.003539 68.718966 
L 138.242632 67.590761 
L 138.561423 66.387342 
L 138.720818 66.086488 
L 139.756887 64.356573 
L 139.836585 64.356573 
L 140.075678 64.130932 
L 140.394468 63.980505 
L 140.474166 63.980505 
L 140.633561 63.830078 
L 141.510235 63.754864 
L 141.749328 63.67965 
L 141.988421 63.67965 
L 142.147816 63.378796 
L 142.466607 63.378796 
L 142.626002 63.228369 
L 143.422978 63.153155 
L 143.582374 62.777087 
L 144.37935 62.701873 
L 144.538745 62.476232 
L 144.857536 62.476232 
L 145.016931 62.325805 
L 145.335722 62.325805 
L 145.495117 62.02495 
L 145.813907 62.02495 
L 145.973303 61.573668 
L 146.292093 61.573668 
L 146.451488 61.272813 
L 146.770279 61.272813 
L 146.929674 61.122386 
L 147.248465 61.122386 
L 147.40786 60.896745 
L 147.726651 60.896745 
L 147.886046 60.671104 
L 148.683022 60.59589 
L 148.922115 60.520677 
L 149.161208 60.520677 
L 149.320603 60.295036 
L 149.639394 60.295036 
L 149.798789 59.918967 
L 150.11758 59.918967 
L 150.276975 59.392472 
L 150.595766 59.392472 
L 150.755161 58.565122 
L 151.073951 58.565122 
L 151.233347 58.189053 
L 151.631835 58.189053 
L 151.79123 57.888199 
L 152.110021 57.888199 
L 152.269416 57.211276 
L 152.588206 57.211276 
L 152.747602 56.985635 
L 153.066392 56.985635 
L 153.225788 56.233498 
L 153.544578 56.233498 
L 153.703973 55.330934 
L 154.022764 55.330934 
L 154.182159 54.654011 
L 154.50095 54.654011 
L 154.660345 54.127516 
L 154.979136 54.127516 
L 155.138531 53.60102 
L 155.457321 53.60102 
L 155.616717 53.149738 
L 155.935507 53.149738 
L 156.094902 52.698456 
L 156.413693 52.698456 
L 156.573088 51.946319 
L 156.891879 51.946319 
L 157.051274 50.592474 
L 157.370065 50.592474 
L 157.52946 49.012987 
L 157.84825 49.012987 
L 158.007646 46.83179 
L 158.326436 46.83179 
L 158.485831 44.951449 
L 158.804622 44.951449 
L 158.964017 43.597603 
L 159.282808 43.597603 
L 159.442203 43.071107 
L 159.760994 43.071107 
L 159.920389 42.619825 
L 160.239179 42.619825 
L 160.398575 42.469398 
L 161.195551 42.394184 
L 161.354946 42.243757 
L 162.151923 42.243757 
L 162.311318 42.09333 
L 162.630109 42.09333 
L 162.789504 41.942903 
L 164.144364 41.942903 
L 164.303759 41.792475 
L 166.057107 41.717262 
L 166.2962 41.642048 
L 170.360779 41.566834 
L 170.520174 41.416407 
L 171.317151 41.416407 
L 171.476546 41.26598 
L 174.186266 41.190766 
L 174.425359 41.115552 
L 176.577195 41.040339 
L 176.816288 40.965125 
L 178.569636 40.889911 
L 178.808729 40.814698 
L 180.004193 40.739484 
L 180.163588 40.513843 
L 181.438751 40.438629 
L 181.598146 40.288202 
L 181.916936 40.288202 
L 182.076332 40.137775 
L 182.395122 40.137775 
L 182.554517 39.83692 
L 183.82968 39.761706 
L 183.989075 39.611279 
L 185.742423 39.536065 
L 185.981516 39.460852 
L 197.776766 39.385638 
L 198.015859 39.310424 
L 202.080438 39.235211 
L 202.319531 39.159997 
L 204.551065 39.084783 
L 204.71046 38.783929 
L 205.029251 38.783929 
L 205.188646 38.483074 
L 206.463808 38.40786 
L 206.623203 38.257433 
L 229.097937 38.182219 
L 229.33703 38.107006 
L 328.162098 38.031792 
L 328.401191 37.956578 
L 351.274412 37.881365 
L 351.513505 37.806151 
L 889.871033 37.730938 
L 889.871033 37.730938 
" clip-path="url(#p18b08e0eea)" style="fill: none; stroke: #ff7f0e; stroke-width: 2; stroke-linecap: square"/>
   </g>
   <g id="patch_3">
    <path d="M 92.974375 331.120625 
L 92.974375 23.76 
" style="fill: none; stroke: #000000; stroke-width: 0.8; stroke-linejoin: miter; stroke-linecap: square"/>
   </g>
   <g id="patch_4">
    <path d="M 897.84 331.120625 
L 897.84 23.76 
" style="fill: none; stroke: #000000; stroke-width: 0.8; stroke-linejoin: miter; stroke-linecap: square"/>
   </g>
   <g id="patch_5">
    <path d="M 92.974375 331.120625 
L 897.84 331.120625 
" style="fill: none; stroke: #000000; stroke-width: 0.8; stroke-linejoin: miter; stroke-linecap: square"/>
   </g>
   <g id="patch_6">
    <path d="M 92.974375 23.76 
L 897.84 23.76 
" style="fill: none; stroke: #000000; stroke-width: 0.8; stroke-linejoin: miter; stroke-linecap: square"/>
   </g>
   <g id="legend_1">
    <g id="patch_7">
     <path d="M 633.2925 319.120625 
L 881.04 319.120625 
Q 885.84 319.120625 885.84 314.320625 
L 885.84 245.598125 
Q 885.84 240.798125 881.04 240.798125 
L 633.2925 240.798125 
Q 628.4925 240.798125 628.4925 245.598125 
L 628.4925 314.320625 
Q 628.4925 319.120625 633.2925 319.120625 
z
" style="fill: #ffffff; opacity: 0.8; stroke: #cccccc; stroke-linejoin: miter"/>
    </g>
    <g id="line2d_33">
     <path d="M 638.0925 260.234375 
L 662.0925 260.234375 
L 686.0925 260.234375 
" style="fill: none; stroke: #1f77b4; stroke-width: 2; stroke-linecap: square"/>
    </g>
    <g id="text_18">
     <!-- SR_160_nopre -->
     <g transform="translate(705.2925 268.634375)scale(0.24 -0.24)">
      <defs>
       <path id="DejaVuSans-53" d="M 3425 4513 
L 3425 3897 
Q 3066 4069 2747 4153 
Q 2428 4238 2131 4238 
Q 1616 4238 1336 4038 
Q 1056 3838 1056 3469 
Q 1056 3159 1242 3001 
Q 1428 2844 1947 2747 
L 2328 2669 
Q 3034 2534 3370 2195 
Q 3706 1856 3706 1288 
Q 3706 609 3251 259 
Q 2797 -91 1919 -91 
Q 1588 -91 1214 -16 
Q 841 59 441 206 
L 441 856 
Q 825 641 1194 531 
Q 1563 422 1919 422 
Q 2459 422 2753 634 
Q 3047 847 3047 1241 
Q 3047 1584 2836 1778 
Q 2625 1972 2144 2069 
L 1759 2144 
Q 1053 2284 737 2584 
Q 422 2884 422 3419 
Q 422 4038 858 4394 
Q 1294 4750 2059 4750 
Q 2388 4750 2728 4690 
Q 3069 4631 3425 4513 
z
" transform="scale(0.015625)"/>
       <path id="DejaVuSans-5f" d="M 3263 -1063 
L 3263 -1509 
L -63 -1509 
L -63 -1063 
L 3263 -1063 
z
" transform="scale(0.015625)"/>
       <path id="DejaVuSans-70" d="M 1159 525 
L 1159 -1331 
L 581 -1331 
L 581 3500 
L 1159 3500 
L 1159 2969 
Q 1341 3281 1617 3432 
Q 1894 3584 2278 3584 
Q 2916 3584 3314 3078 
Q 3713 2572 3713 1747 
Q 3713 922 3314 415 
Q 2916 -91 2278 -91 
Q 1894 -91 1617 61 
Q 1341 213 1159 525 
z
M 3116 1747 
Q 3116 2381 2855 2742 
Q 2594 3103 2138 3103 
Q 1681 3103 1420 2742 
Q 1159 2381 1159 1747 
Q 1159 1113 1420 752 
Q 1681 391 2138 391 
Q 2594 391 2855 752 
Q 3116 1113 3116 1747 
z
" transform="scale(0.015625)"/>
      </defs>
      <use xlink:href="#DejaVuSans-53"/>
      <use xlink:href="#DejaVuSans-52" x="63.476562"/>
      <use xlink:href="#DejaVuSans-5f" x="132.958984"/>
      <use xlink:href="#DejaVuSans-31" x="182.958984"/>
      <use xlink:href="#DejaVuSans-36" x="246.582031"/>
      <use xlink:href="#DejaVuSans-30" x="310.205078"/>
      <use xlink:href="#DejaVuSans-5f" x="373.828125"/>
      <use xlink:href="#DejaVuSans-6e" x="423.828125"/>
      <use xlink:href="#DejaVuSans-6f" x="487.207031"/>
      <use xlink:href="#DejaVuSans-70" x="548.388672"/>
      <use xlink:href="#DejaVuSans-72" x="611.865234"/>
      <use xlink:href="#DejaVuSans-65" x="650.728516"/>
     </g>
    </g>
    <g id="line2d_34">
     <path d="M 638.0925 296.129375 
L 662.0925 296.129375 
L 686.0925 296.129375 
" style="fill: none; stroke: #ff7f0e; stroke-width: 2; stroke-linecap: square"/>
    </g>
    <g id="text_19">
     <!-- Default -->
     <g transform="translate(705.2925 304.529375)scale(0.24 -0.24)">
      <defs>
       <path id="DejaVuSans-44" d="M 1259 4147 
L 1259 519 
L 2022 519 
Q 2988 519 3436 956 
Q 3884 1394 3884 2338 
Q 3884 3275 3436 3711 
Q 2988 4147 2022 4147 
L 1259 4147 
z
M 628 4666 
L 1925 4666 
Q 3281 4666 3915 4102 
Q 4550 3538 4550 2338 
Q 4550 1131 3912 565 
Q 3275 0 1925 0 
L 628 0 
L 628 4666 
z
" transform="scale(0.015625)"/>
       <path id="DejaVuSans-61" d="M 2194 1759 
Q 1497 1759 1228 1600 
Q 959 1441 959 1056 
Q 959 750 1161 570 
Q 1363 391 1709 391 
Q 2188 391 2477 730 
Q 2766 1069 2766 1631 
L 2766 1759 
L 2194 1759 
z
M 3341 1997 
L 3341 0 
L 2766 0 
L 2766 531 
Q 2569 213 2275 61 
Q 1981 -91 1556 -91 
Q 1019 -91 701 211 
Q 384 513 384 1019 
Q 384 1609 779 1909 
Q 1175 2209 1959 2209 
L 2766 2209 
L 2766 2266 
Q 2766 2663 2505 2880 
Q 2244 3097 1772 3097 
Q 1472 3097 1187 3025 
Q 903 2953 641 2809 
L 641 3341 
Q 956 3463 1253 3523 
Q 1550 3584 1831 3584 
Q 2591 3584 2966 3190 
Q 3341 2797 3341 1997 
z
" transform="scale(0.015625)"/>
       <path id="DejaVuSans-74" d="M 1172 4494 
L 1172 3500 
L 2356 3500 
L 2356 3053 
L 1172 3053 
L 1172 1153 
Q 1172 725 1289 603 
Q 1406 481 1766 481 
L 2356 481 
L 2356 0 
L 1766 0 
Q 1100 0 847 248 
Q 594 497 594 1153 
L 594 3053 
L 172 3053 
L 172 3500 
L 594 3500 
L 594 4494 
L 1172 4494 
z
" transform="scale(0.015625)"/>
      </defs>
      <use xlink:href="#DejaVuSans-44"/>
      <use xlink:href="#DejaVuSans-65" x="77.001953"/>
      <use xlink:href="#DejaVuSans-66" x="138.525391"/>
      <use xlink:href="#DejaVuSans-61" x="173.730469"/>
      <use xlink:href="#DejaVuSans-75" x="235.009766"/>
      <use xlink:href="#DejaVuSans-6c" x="298.388672"/>
      <use xlink:href="#DejaVuSans-74" x="326.171875"/>
     </g>
    </g>
   </g>
  </g>
 </g>
 <defs>
  <clipPath id="p18b08e0eea">
   <rect x="92.974375" y="23.76" width="804.865625" height="307.360625"/>
  </clipPath>
 </defs>
</svg>
