<?xml version="1.0" encoding="utf-8" standalone="no"?>
<!DOCTYPE svg PUBLIC "-//W3C//DTD SVG 1.1//EN"
  "http://www.w3.org/Graphics/SVG/1.1/DTD/svg11.dtd">
<svg xmlns:xlink="http://www.w3.org/1999/xlink" width="921.6pt" height="410.4pt" viewBox="0 0 921.6 410.4" xmlns="http://www.w3.org/2000/svg" version="1.1">
 <metadata>
  <rdf:RDF xmlns:dc="http://purl.org/dc/elements/1.1/" xmlns:cc="http://creativecommons.org/ns#" xmlns:rdf="http://www.w3.org/1999/02/22-rdf-syntax-ns#">
   <cc:Work>
    <dc:type rdf:resource="http://purl.org/dc/dcmitype/StillImage"/>
    <dc:date>2023-04-24T12:27:01.271443</dc:date>
    <dc:format>image/svg+xml</dc:format>
    <dc:creator>
     <cc:Agent>
      <dc:title>Matplotlib v3.5.3, https://matplotlib.org/</dc:title>
     </cc:Agent>
    </dc:creator>
   </cc:Work>
  </rdf:RDF>
 </metadata>
 <defs>
  <style type="text/css">*{stroke-linejoin: round; stroke-linecap: butt}</style>
 </defs>
 <g id="figure_1">
  <g id="patch_1">
   <path d="M 0 410.4 
L 921.6 410.4 
L 921.6 0 
L 0 0 
L 0 410.4 
z
" style="fill: none"/>
  </g>
  <g id="axes_1">
   <g id="patch_2">
    <path d="M 92.974375 331.120625 
L 897.84 331.120625 
L 897.84 23.76 
L 92.974375 23.76 
z
" style="fill: #ffffff"/>
   </g>
   <g id="matplotlib.axis_1">
    <g id="xtick_1">
     <g id="line2d_1">
      <path d="M 92.974375 331.120625 
L 92.974375 23.76 
" clip-path="url(#p7b91f617e2)" style="fill: none; stroke: #b0b0b0; stroke-width: 0.8; stroke-linecap: square"/>
     </g>
     <g id="line2d_2">
      <defs>
       <path id="mb6446c15c0" d="M 0 0 
L 0 3.5 
" style="stroke: #000000; stroke-width: 0.8"/>
      </defs>
      <g>
       <use xlink:href="#mb6446c15c0" x="92.974375" y="331.120625" style="stroke: #000000; stroke-width: 0.8"/>
      </g>
     </g>
     <g id="text_1">
      <!-- 0 -->
      <g transform="translate(85.975625 354.837188)scale(0.22 -0.22)">
       <defs>
        <path id="DejaVuSans-30" d="M 2034 4250 
Q 1547 4250 1301 3770 
Q 1056 3291 1056 2328 
Q 1056 1369 1301 889 
Q 1547 409 2034 409 
Q 2525 409 2770 889 
Q 3016 1369 3016 2328 
Q 3016 3291 2770 3770 
Q 2525 4250 2034 4250 
z
M 2034 4750 
Q 2819 4750 3233 4129 
Q 3647 3509 3647 2328 
Q 3647 1150 3233 529 
Q 2819 -91 2034 -91 
Q 1250 -91 836 529 
Q 422 1150 422 2328 
Q 422 3509 836 4129 
Q 1250 4750 2034 4750 
z
" transform="scale(0.015625)"/>
       </defs>
       <use xlink:href="#DejaVuSans-30"/>
      </g>
     </g>
    </g>
    <g id="xtick_2">
     <g id="line2d_3">
      <path d="M 229.009994 331.120625 
L 229.009994 23.76 
" clip-path="url(#p7b91f617e2)" style="fill: none; stroke: #b0b0b0; stroke-width: 0.8; stroke-linecap: square"/>
     </g>
     <g id="line2d_4">
      <g>
       <use xlink:href="#mb6446c15c0" x="229.009994" y="331.120625" style="stroke: #000000; stroke-width: 0.8"/>
      </g>
     </g>
     <g id="text_2">
      <!-- 10 -->
      <g transform="translate(215.012494 354.837188)scale(0.22 -0.22)">
       <defs>
        <path id="DejaVuSans-31" d="M 794 531 
L 1825 531 
L 1825 4091 
L 703 3866 
L 703 4441 
L 1819 4666 
L 2450 4666 
L 2450 531 
L 3481 531 
L 3481 0 
L 794 0 
L 794 531 
z
" transform="scale(0.015625)"/>
       </defs>
       <use xlink:href="#DejaVuSans-31"/>
       <use xlink:href="#DejaVuSans-30" x="63.623047"/>
      </g>
     </g>
    </g>
    <g id="xtick_3">
     <g id="line2d_5">
      <path d="M 365.045614 331.120625 
L 365.045614 23.76 
" clip-path="url(#p7b91f617e2)" style="fill: none; stroke: #b0b0b0; stroke-width: 0.8; stroke-linecap: square"/>
     </g>
     <g id="line2d_6">
      <g>
       <use xlink:href="#mb6446c15c0" x="365.045614" y="331.120625" style="stroke: #000000; stroke-width: 0.8"/>
      </g>
     </g>
     <g id="text_3">
      <!-- 20 -->
      <g transform="translate(351.048114 354.837188)scale(0.22 -0.22)">
       <defs>
        <path id="DejaVuSans-32" d="M 1228 531 
L 3431 531 
L 3431 0 
L 469 0 
L 469 531 
Q 828 903 1448 1529 
Q 2069 2156 2228 2338 
Q 2531 2678 2651 2914 
Q 2772 3150 2772 3378 
Q 2772 3750 2511 3984 
Q 2250 4219 1831 4219 
Q 1534 4219 1204 4116 
Q 875 4013 500 3803 
L 500 4441 
Q 881 4594 1212 4672 
Q 1544 4750 1819 4750 
Q 2544 4750 2975 4387 
Q 3406 4025 3406 3419 
Q 3406 3131 3298 2873 
Q 3191 2616 2906 2266 
Q 2828 2175 2409 1742 
Q 1991 1309 1228 531 
z
" transform="scale(0.015625)"/>
       </defs>
       <use xlink:href="#DejaVuSans-32"/>
       <use xlink:href="#DejaVuSans-30" x="63.623047"/>
      </g>
     </g>
    </g>
    <g id="xtick_4">
     <g id="line2d_7">
      <path d="M 501.081233 331.120625 
L 501.081233 23.76 
" clip-path="url(#p7b91f617e2)" style="fill: none; stroke: #b0b0b0; stroke-width: 0.8; stroke-linecap: square"/>
     </g>
     <g id="line2d_8">
      <g>
       <use xlink:href="#mb6446c15c0" x="501.081233" y="331.120625" style="stroke: #000000; stroke-width: 0.8"/>
      </g>
     </g>
     <g id="text_4">
      <!-- 30 -->
      <g transform="translate(487.083733 354.837188)scale(0.22 -0.22)">
       <defs>
        <path id="DejaVuSans-33" d="M 2597 2516 
Q 3050 2419 3304 2112 
Q 3559 1806 3559 1356 
Q 3559 666 3084 287 
Q 2609 -91 1734 -91 
Q 1441 -91 1130 -33 
Q 819 25 488 141 
L 488 750 
Q 750 597 1062 519 
Q 1375 441 1716 441 
Q 2309 441 2620 675 
Q 2931 909 2931 1356 
Q 2931 1769 2642 2001 
Q 2353 2234 1838 2234 
L 1294 2234 
L 1294 2753 
L 1863 2753 
Q 2328 2753 2575 2939 
Q 2822 3125 2822 3475 
Q 2822 3834 2567 4026 
Q 2313 4219 1838 4219 
Q 1578 4219 1281 4162 
Q 984 4106 628 3988 
L 628 4550 
Q 988 4650 1302 4700 
Q 1616 4750 1894 4750 
Q 2613 4750 3031 4423 
Q 3450 4097 3450 3541 
Q 3450 3153 3228 2886 
Q 3006 2619 2597 2516 
z
" transform="scale(0.015625)"/>
       </defs>
       <use xlink:href="#DejaVuSans-33"/>
       <use xlink:href="#DejaVuSans-30" x="63.623047"/>
      </g>
     </g>
    </g>
    <g id="xtick_5">
     <g id="line2d_9">
      <path d="M 637.116853 331.120625 
L 637.116853 23.76 
" clip-path="url(#p7b91f617e2)" style="fill: none; stroke: #b0b0b0; stroke-width: 0.8; stroke-linecap: square"/>
     </g>
     <g id="line2d_10">
      <g>
       <use xlink:href="#mb6446c15c0" x="637.116853" y="331.120625" style="stroke: #000000; stroke-width: 0.8"/>
      </g>
     </g>
     <g id="text_5">
      <!-- 40 -->
      <g transform="translate(623.119353 354.837188)scale(0.22 -0.22)">
       <defs>
        <path id="DejaVuSans-34" d="M 2419 4116 
L 825 1625 
L 2419 1625 
L 2419 4116 
z
M 2253 4666 
L 3047 4666 
L 3047 1625 
L 3713 1625 
L 3713 1100 
L 3047 1100 
L 3047 0 
L 2419 0 
L 2419 1100 
L 313 1100 
L 313 1709 
L 2253 4666 
z
" transform="scale(0.015625)"/>
       </defs>
       <use xlink:href="#DejaVuSans-34"/>
       <use xlink:href="#DejaVuSans-30" x="63.623047"/>
      </g>
     </g>
    </g>
    <g id="xtick_6">
     <g id="line2d_11">
      <path d="M 773.152472 331.120625 
L 773.152472 23.76 
" clip-path="url(#p7b91f617e2)" style="fill: none; stroke: #b0b0b0; stroke-width: 0.8; stroke-linecap: square"/>
     </g>
     <g id="line2d_12">
      <g>
       <use xlink:href="#mb6446c15c0" x="773.152472" y="331.120625" style="stroke: #000000; stroke-width: 0.8"/>
      </g>
     </g>
     <g id="text_6">
      <!-- 50 -->
      <g transform="translate(759.154972 354.837188)scale(0.22 -0.22)">
       <defs>
        <path id="DejaVuSans-35" d="M 691 4666 
L 3169 4666 
L 3169 4134 
L 1269 4134 
L 1269 2991 
Q 1406 3038 1543 3061 
Q 1681 3084 1819 3084 
Q 2600 3084 3056 2656 
Q 3513 2228 3513 1497 
Q 3513 744 3044 326 
Q 2575 -91 1722 -91 
Q 1428 -91 1123 -41 
Q 819 9 494 109 
L 494 744 
Q 775 591 1075 516 
Q 1375 441 1709 441 
Q 2250 441 2565 725 
Q 2881 1009 2881 1497 
Q 2881 1984 2565 2268 
Q 2250 2553 1709 2553 
Q 1456 2553 1204 2497 
Q 953 2441 691 2322 
L 691 4666 
z
" transform="scale(0.015625)"/>
       </defs>
       <use xlink:href="#DejaVuSans-35"/>
       <use xlink:href="#DejaVuSans-30" x="63.623047"/>
      </g>
     </g>
    </g>
    <g id="text_7">
     <!-- RTT (ms) -->
     <g transform="translate(442.372813 381.64875)scale(0.24 -0.24)">
      <defs>
       <path id="DejaVuSans-52" d="M 2841 2188 
Q 3044 2119 3236 1894 
Q 3428 1669 3622 1275 
L 4263 0 
L 3584 0 
L 2988 1197 
Q 2756 1666 2539 1819 
Q 2322 1972 1947 1972 
L 1259 1972 
L 1259 0 
L 628 0 
L 628 4666 
L 2053 4666 
Q 2853 4666 3247 4331 
Q 3641 3997 3641 3322 
Q 3641 2881 3436 2590 
Q 3231 2300 2841 2188 
z
M 1259 4147 
L 1259 2491 
L 2053 2491 
Q 2509 2491 2742 2702 
Q 2975 2913 2975 3322 
Q 2975 3731 2742 3939 
Q 2509 4147 2053 4147 
L 1259 4147 
z
" transform="scale(0.015625)"/>
       <path id="DejaVuSans-54" d="M -19 4666 
L 3928 4666 
L 3928 4134 
L 2272 4134 
L 2272 0 
L 1638 0 
L 1638 4134 
L -19 4134 
L -19 4666 
z
" transform="scale(0.015625)"/>
       <path id="DejaVuSans-20" transform="scale(0.015625)"/>
       <path id="DejaVuSans-28" d="M 1984 4856 
Q 1566 4138 1362 3434 
Q 1159 2731 1159 2009 
Q 1159 1288 1364 580 
Q 1569 -128 1984 -844 
L 1484 -844 
Q 1016 -109 783 600 
Q 550 1309 550 2009 
Q 550 2706 781 3412 
Q 1013 4119 1484 4856 
L 1984 4856 
z
" transform="scale(0.015625)"/>
       <path id="DejaVuSans-6d" d="M 3328 2828 
Q 3544 3216 3844 3400 
Q 4144 3584 4550 3584 
Q 5097 3584 5394 3201 
Q 5691 2819 5691 2113 
L 5691 0 
L 5113 0 
L 5113 2094 
Q 5113 2597 4934 2840 
Q 4756 3084 4391 3084 
Q 3944 3084 3684 2787 
Q 3425 2491 3425 1978 
L 3425 0 
L 2847 0 
L 2847 2094 
Q 2847 2600 2669 2842 
Q 2491 3084 2119 3084 
Q 1678 3084 1418 2786 
Q 1159 2488 1159 1978 
L 1159 0 
L 581 0 
L 581 3500 
L 1159 3500 
L 1159 2956 
Q 1356 3278 1631 3431 
Q 1906 3584 2284 3584 
Q 2666 3584 2933 3390 
Q 3200 3197 3328 2828 
z
" transform="scale(0.015625)"/>
       <path id="DejaVuSans-73" d="M 2834 3397 
L 2834 2853 
Q 2591 2978 2328 3040 
Q 2066 3103 1784 3103 
Q 1356 3103 1142 2972 
Q 928 2841 928 2578 
Q 928 2378 1081 2264 
Q 1234 2150 1697 2047 
L 1894 2003 
Q 2506 1872 2764 1633 
Q 3022 1394 3022 966 
Q 3022 478 2636 193 
Q 2250 -91 1575 -91 
Q 1294 -91 989 -36 
Q 684 19 347 128 
L 347 722 
Q 666 556 975 473 
Q 1284 391 1588 391 
Q 1994 391 2212 530 
Q 2431 669 2431 922 
Q 2431 1156 2273 1281 
Q 2116 1406 1581 1522 
L 1381 1569 
Q 847 1681 609 1914 
Q 372 2147 372 2553 
Q 372 3047 722 3315 
Q 1072 3584 1716 3584 
Q 2034 3584 2315 3537 
Q 2597 3491 2834 3397 
z
" transform="scale(0.015625)"/>
       <path id="DejaVuSans-29" d="M 513 4856 
L 1013 4856 
Q 1481 4119 1714 3412 
Q 1947 2706 1947 2009 
Q 1947 1309 1714 600 
Q 1481 -109 1013 -844 
L 513 -844 
Q 928 -128 1133 580 
Q 1338 1288 1338 2009 
Q 1338 2731 1133 3434 
Q 928 4138 513 4856 
z
" transform="scale(0.015625)"/>
      </defs>
      <use xlink:href="#DejaVuSans-52"/>
      <use xlink:href="#DejaVuSans-54" x="62.232422"/>
      <use xlink:href="#DejaVuSans-54" x="121.566406"/>
      <use xlink:href="#DejaVuSans-20" x="182.650391"/>
      <use xlink:href="#DejaVuSans-28" x="214.4375"/>
      <use xlink:href="#DejaVuSans-6d" x="253.451172"/>
      <use xlink:href="#DejaVuSans-73" x="350.863281"/>
      <use xlink:href="#DejaVuSans-29" x="402.962891"/>
     </g>
    </g>
   </g>
   <g id="matplotlib.axis_2">
    <g id="ytick_1">
     <g id="line2d_13">
      <path d="M 92.974375 317.149688 
L 897.84 317.149688 
" clip-path="url(#p7b91f617e2)" style="fill: none; stroke: #b0b0b0; stroke-width: 0.8; stroke-linecap: square"/>
     </g>
     <g id="line2d_14">
      <defs>
       <path id="meb76ca1821" d="M 0 0 
L -3.5 0 
" style="stroke: #000000; stroke-width: 0.8"/>
      </defs>
      <g>
       <use xlink:href="#meb76ca1821" x="92.974375" y="317.149688" style="stroke: #000000; stroke-width: 0.8"/>
      </g>
     </g>
     <g id="text_8">
      <!-- 0.0 -->
      <g transform="translate(50.9875 325.507969)scale(0.22 -0.22)">
       <defs>
        <path id="DejaVuSans-2e" d="M 684 794 
L 1344 794 
L 1344 0 
L 684 0 
L 684 794 
z
" transform="scale(0.015625)"/>
       </defs>
       <use xlink:href="#DejaVuSans-30"/>
       <use xlink:href="#DejaVuSans-2e" x="63.623047"/>
       <use xlink:href="#DejaVuSans-30" x="95.410156"/>
      </g>
     </g>
    </g>
    <g id="ytick_2">
     <g id="line2d_15">
      <path d="M 92.974375 261.265938 
L 897.84 261.265938 
" clip-path="url(#p7b91f617e2)" style="fill: none; stroke: #b0b0b0; stroke-width: 0.8; stroke-linecap: square"/>
     </g>
     <g id="line2d_16">
      <g>
       <use xlink:href="#meb76ca1821" x="92.974375" y="261.265938" style="stroke: #000000; stroke-width: 0.8"/>
      </g>
     </g>
     <g id="text_9">
      <!-- 0.2 -->
      <g transform="translate(50.9875 269.624219)scale(0.22 -0.22)">
       <use xlink:href="#DejaVuSans-30"/>
       <use xlink:href="#DejaVuSans-2e" x="63.623047"/>
       <use xlink:href="#DejaVuSans-32" x="95.410156"/>
      </g>
     </g>
    </g>
    <g id="ytick_3">
     <g id="line2d_17">
      <path d="M 92.974375 205.382188 
L 897.84 205.382188 
" clip-path="url(#p7b91f617e2)" style="fill: none; stroke: #b0b0b0; stroke-width: 0.8; stroke-linecap: square"/>
     </g>
     <g id="line2d_18">
      <g>
       <use xlink:href="#meb76ca1821" x="92.974375" y="205.382188" style="stroke: #000000; stroke-width: 0.8"/>
      </g>
     </g>
     <g id="text_10">
      <!-- 0.4 -->
      <g transform="translate(50.9875 213.740469)scale(0.22 -0.22)">
       <use xlink:href="#DejaVuSans-30"/>
       <use xlink:href="#DejaVuSans-2e" x="63.623047"/>
       <use xlink:href="#DejaVuSans-34" x="95.410156"/>
      </g>
     </g>
    </g>
    <g id="ytick_4">
     <g id="line2d_19">
      <path d="M 92.974375 149.498438 
L 897.84 149.498438 
" clip-path="url(#p7b91f617e2)" style="fill: none; stroke: #b0b0b0; stroke-width: 0.8; stroke-linecap: square"/>
     </g>
     <g id="line2d_20">
      <g>
       <use xlink:href="#meb76ca1821" x="92.974375" y="149.498438" style="stroke: #000000; stroke-width: 0.8"/>
      </g>
     </g>
     <g id="text_11">
      <!-- 0.6 -->
      <g transform="translate(50.9875 157.856719)scale(0.22 -0.22)">
       <defs>
        <path id="DejaVuSans-36" d="M 2113 2584 
Q 1688 2584 1439 2293 
Q 1191 2003 1191 1497 
Q 1191 994 1439 701 
Q 1688 409 2113 409 
Q 2538 409 2786 701 
Q 3034 994 3034 1497 
Q 3034 2003 2786 2293 
Q 2538 2584 2113 2584 
z
M 3366 4563 
L 3366 3988 
Q 3128 4100 2886 4159 
Q 2644 4219 2406 4219 
Q 1781 4219 1451 3797 
Q 1122 3375 1075 2522 
Q 1259 2794 1537 2939 
Q 1816 3084 2150 3084 
Q 2853 3084 3261 2657 
Q 3669 2231 3669 1497 
Q 3669 778 3244 343 
Q 2819 -91 2113 -91 
Q 1303 -91 875 529 
Q 447 1150 447 2328 
Q 447 3434 972 4092 
Q 1497 4750 2381 4750 
Q 2619 4750 2861 4703 
Q 3103 4656 3366 4563 
z
" transform="scale(0.015625)"/>
       </defs>
       <use xlink:href="#DejaVuSans-30"/>
       <use xlink:href="#DejaVuSans-2e" x="63.623047"/>
       <use xlink:href="#DejaVuSans-36" x="95.410156"/>
      </g>
     </g>
    </g>
    <g id="ytick_5">
     <g id="line2d_21">
      <path d="M 92.974375 93.614688 
L 897.84 93.614688 
" clip-path="url(#p7b91f617e2)" style="fill: none; stroke: #b0b0b0; stroke-width: 0.8; stroke-linecap: square"/>
     </g>
     <g id="line2d_22">
      <g>
       <use xlink:href="#meb76ca1821" x="92.974375" y="93.614688" style="stroke: #000000; stroke-width: 0.8"/>
      </g>
     </g>
     <g id="text_12">
      <!-- 0.8 -->
      <g transform="translate(50.9875 101.972969)scale(0.22 -0.22)">
       <defs>
        <path id="DejaVuSans-38" d="M 2034 2216 
Q 1584 2216 1326 1975 
Q 1069 1734 1069 1313 
Q 1069 891 1326 650 
Q 1584 409 2034 409 
Q 2484 409 2743 651 
Q 3003 894 3003 1313 
Q 3003 1734 2745 1975 
Q 2488 2216 2034 2216 
z
M 1403 2484 
Q 997 2584 770 2862 
Q 544 3141 544 3541 
Q 544 4100 942 4425 
Q 1341 4750 2034 4750 
Q 2731 4750 3128 4425 
Q 3525 4100 3525 3541 
Q 3525 3141 3298 2862 
Q 3072 2584 2669 2484 
Q 3125 2378 3379 2068 
Q 3634 1759 3634 1313 
Q 3634 634 3220 271 
Q 2806 -91 2034 -91 
Q 1263 -91 848 271 
Q 434 634 434 1313 
Q 434 1759 690 2068 
Q 947 2378 1403 2484 
z
M 1172 3481 
Q 1172 3119 1398 2916 
Q 1625 2713 2034 2713 
Q 2441 2713 2670 2916 
Q 2900 3119 2900 3481 
Q 2900 3844 2670 4047 
Q 2441 4250 2034 4250 
Q 1625 4250 1398 4047 
Q 1172 3844 1172 3481 
z
" transform="scale(0.015625)"/>
       </defs>
       <use xlink:href="#DejaVuSans-30"/>
       <use xlink:href="#DejaVuSans-2e" x="63.623047"/>
       <use xlink:href="#DejaVuSans-38" x="95.410156"/>
      </g>
     </g>
    </g>
    <g id="ytick_6">
     <g id="line2d_23">
      <path d="M 92.974375 37.730937 
L 897.84 37.730937 
" clip-path="url(#p7b91f617e2)" style="fill: none; stroke: #b0b0b0; stroke-width: 0.8; stroke-linecap: square"/>
     </g>
     <g id="line2d_24">
      <g>
       <use xlink:href="#meb76ca1821" x="92.974375" y="37.730937" style="stroke: #000000; stroke-width: 0.8"/>
      </g>
     </g>
     <g id="text_13">
      <!-- 1.0 -->
      <g transform="translate(50.9875 46.089219)scale(0.22 -0.22)">
       <use xlink:href="#DejaVuSans-31"/>
       <use xlink:href="#DejaVuSans-2e" x="63.623047"/>
       <use xlink:href="#DejaVuSans-30" x="95.410156"/>
      </g>
     </g>
    </g>
    <g id="text_14">
     <!-- Likelihood of occurrence -->
     <g transform="translate(41.99625 323.628438)rotate(-90)scale(0.24 -0.24)">
      <defs>
       <path id="DejaVuSans-4c" d="M 628 4666 
L 1259 4666 
L 1259 531 
L 3531 531 
L 3531 0 
L 628 0 
L 628 4666 
z
" transform="scale(0.015625)"/>
       <path id="DejaVuSans-69" d="M 603 3500 
L 1178 3500 
L 1178 0 
L 603 0 
L 603 3500 
z
M 603 4863 
L 1178 4863 
L 1178 4134 
L 603 4134 
L 603 4863 
z
" transform="scale(0.015625)"/>
       <path id="DejaVuSans-6b" d="M 581 4863 
L 1159 4863 
L 1159 1991 
L 2875 3500 
L 3609 3500 
L 1753 1863 
L 3688 0 
L 2938 0 
L 1159 1709 
L 1159 0 
L 581 0 
L 581 4863 
z
" transform="scale(0.015625)"/>
       <path id="DejaVuSans-65" d="M 3597 1894 
L 3597 1613 
L 953 1613 
Q 991 1019 1311 708 
Q 1631 397 2203 397 
Q 2534 397 2845 478 
Q 3156 559 3463 722 
L 3463 178 
Q 3153 47 2828 -22 
Q 2503 -91 2169 -91 
Q 1331 -91 842 396 
Q 353 884 353 1716 
Q 353 2575 817 3079 
Q 1281 3584 2069 3584 
Q 2775 3584 3186 3129 
Q 3597 2675 3597 1894 
z
M 3022 2063 
Q 3016 2534 2758 2815 
Q 2500 3097 2075 3097 
Q 1594 3097 1305 2825 
Q 1016 2553 972 2059 
L 3022 2063 
z
" transform="scale(0.015625)"/>
       <path id="DejaVuSans-6c" d="M 603 4863 
L 1178 4863 
L 1178 0 
L 603 0 
L 603 4863 
z
" transform="scale(0.015625)"/>
       <path id="DejaVuSans-68" d="M 3513 2113 
L 3513 0 
L 2938 0 
L 2938 2094 
Q 2938 2591 2744 2837 
Q 2550 3084 2163 3084 
Q 1697 3084 1428 2787 
Q 1159 2491 1159 1978 
L 1159 0 
L 581 0 
L 581 4863 
L 1159 4863 
L 1159 2956 
Q 1366 3272 1645 3428 
Q 1925 3584 2291 3584 
Q 2894 3584 3203 3211 
Q 3513 2838 3513 2113 
z
" transform="scale(0.015625)"/>
       <path id="DejaVuSans-6f" d="M 1959 3097 
Q 1497 3097 1228 2736 
Q 959 2375 959 1747 
Q 959 1119 1226 758 
Q 1494 397 1959 397 
Q 2419 397 2687 759 
Q 2956 1122 2956 1747 
Q 2956 2369 2687 2733 
Q 2419 3097 1959 3097 
z
M 1959 3584 
Q 2709 3584 3137 3096 
Q 3566 2609 3566 1747 
Q 3566 888 3137 398 
Q 2709 -91 1959 -91 
Q 1206 -91 779 398 
Q 353 888 353 1747 
Q 353 2609 779 3096 
Q 1206 3584 1959 3584 
z
" transform="scale(0.015625)"/>
       <path id="DejaVuSans-64" d="M 2906 2969 
L 2906 4863 
L 3481 4863 
L 3481 0 
L 2906 0 
L 2906 525 
Q 2725 213 2448 61 
Q 2172 -91 1784 -91 
Q 1150 -91 751 415 
Q 353 922 353 1747 
Q 353 2572 751 3078 
Q 1150 3584 1784 3584 
Q 2172 3584 2448 3432 
Q 2725 3281 2906 2969 
z
M 947 1747 
Q 947 1113 1208 752 
Q 1469 391 1925 391 
Q 2381 391 2643 752 
Q 2906 1113 2906 1747 
Q 2906 2381 2643 2742 
Q 2381 3103 1925 3103 
Q 1469 3103 1208 2742 
Q 947 2381 947 1747 
z
" transform="scale(0.015625)"/>
       <path id="DejaVuSans-66" d="M 2375 4863 
L 2375 4384 
L 1825 4384 
Q 1516 4384 1395 4259 
Q 1275 4134 1275 3809 
L 1275 3500 
L 2222 3500 
L 2222 3053 
L 1275 3053 
L 1275 0 
L 697 0 
L 697 3053 
L 147 3053 
L 147 3500 
L 697 3500 
L 697 3744 
Q 697 4328 969 4595 
Q 1241 4863 1831 4863 
L 2375 4863 
z
" transform="scale(0.015625)"/>
       <path id="DejaVuSans-63" d="M 3122 3366 
L 3122 2828 
Q 2878 2963 2633 3030 
Q 2388 3097 2138 3097 
Q 1578 3097 1268 2742 
Q 959 2388 959 1747 
Q 959 1106 1268 751 
Q 1578 397 2138 397 
Q 2388 397 2633 464 
Q 2878 531 3122 666 
L 3122 134 
Q 2881 22 2623 -34 
Q 2366 -91 2075 -91 
Q 1284 -91 818 406 
Q 353 903 353 1747 
Q 353 2603 823 3093 
Q 1294 3584 2113 3584 
Q 2378 3584 2631 3529 
Q 2884 3475 3122 3366 
z
" transform="scale(0.015625)"/>
       <path id="DejaVuSans-75" d="M 544 1381 
L 544 3500 
L 1119 3500 
L 1119 1403 
Q 1119 906 1312 657 
Q 1506 409 1894 409 
Q 2359 409 2629 706 
Q 2900 1003 2900 1516 
L 2900 3500 
L 3475 3500 
L 3475 0 
L 2900 0 
L 2900 538 
Q 2691 219 2414 64 
Q 2138 -91 1772 -91 
Q 1169 -91 856 284 
Q 544 659 544 1381 
z
M 1991 3584 
L 1991 3584 
z
" transform="scale(0.015625)"/>
       <path id="DejaVuSans-72" d="M 2631 2963 
Q 2534 3019 2420 3045 
Q 2306 3072 2169 3072 
Q 1681 3072 1420 2755 
Q 1159 2438 1159 1844 
L 1159 0 
L 581 0 
L 581 3500 
L 1159 3500 
L 1159 2956 
Q 1341 3275 1631 3429 
Q 1922 3584 2338 3584 
Q 2397 3584 2469 3576 
Q 2541 3569 2628 3553 
L 2631 2963 
z
" transform="scale(0.015625)"/>
       <path id="DejaVuSans-6e" d="M 3513 2113 
L 3513 0 
L 2938 0 
L 2938 2094 
Q 2938 2591 2744 2837 
Q 2550 3084 2163 3084 
Q 1697 3084 1428 2787 
Q 1159 2491 1159 1978 
L 1159 0 
L 581 0 
L 581 3500 
L 1159 3500 
L 1159 2956 
Q 1366 3272 1645 3428 
Q 1925 3584 2291 3584 
Q 2894 3584 3203 3211 
Q 3513 2838 3513 2113 
z
" transform="scale(0.015625)"/>
      </defs>
      <use xlink:href="#DejaVuSans-4c"/>
      <use xlink:href="#DejaVuSans-69" x="55.712891"/>
      <use xlink:href="#DejaVuSans-6b" x="83.496094"/>
      <use xlink:href="#DejaVuSans-65" x="137.78125"/>
      <use xlink:href="#DejaVuSans-6c" x="199.304688"/>
      <use xlink:href="#DejaVuSans-69" x="227.087891"/>
      <use xlink:href="#DejaVuSans-68" x="254.871094"/>
      <use xlink:href="#DejaVuSans-6f" x="318.25"/>
      <use xlink:href="#DejaVuSans-6f" x="379.431641"/>
      <use xlink:href="#DejaVuSans-64" x="440.613281"/>
      <use xlink:href="#DejaVuSans-20" x="504.089844"/>
      <use xlink:href="#DejaVuSans-6f" x="535.876953"/>
      <use xlink:href="#DejaVuSans-66" x="597.058594"/>
      <use xlink:href="#DejaVuSans-20" x="632.263672"/>
      <use xlink:href="#DejaVuSans-6f" x="664.050781"/>
      <use xlink:href="#DejaVuSans-63" x="725.232422"/>
      <use xlink:href="#DejaVuSans-63" x="780.212891"/>
      <use xlink:href="#DejaVuSans-75" x="835.193359"/>
      <use xlink:href="#DejaVuSans-72" x="898.572266"/>
      <use xlink:href="#DejaVuSans-72" x="937.935547"/>
      <use xlink:href="#DejaVuSans-65" x="976.798828"/>
      <use xlink:href="#DejaVuSans-6e" x="1038.322266"/>
      <use xlink:href="#DejaVuSans-63" x="1101.701172"/>
      <use xlink:href="#DejaVuSans-65" x="1156.681641"/>
     </g>
    </g>
   </g>
   <g id="line2d_25">
    <path d="M 92.974375 317.149688 
L 184.467261 317.074149 
L 184.706354 316.99861 
L 189.488212 316.923071 
L 189.727305 316.847532 
L 192.197931 316.771993 
L 192.437024 316.696454 
L 198.175254 316.620915 
L 198.414347 316.545376 
L 199.848904 316.469837 
L 200.087997 316.394298 
L 206.38411 316.318759 
L 206.623203 316.24322 
L 212.600526 316.167681 
L 212.839619 316.092142 
L 220.88908 316.016603 
L 221.207871 315.865525 
L 221.446964 315.789986 
L 223.280009 314.203667 
L 223.359707 314.203667 
L 223.678497 313.750433 
L 223.758195 313.750433 
L 223.91759 313.448277 
L 224.316078 313.070582 
L 224.475474 312.768426 
L 224.714567 312.46627 
L 224.95366 312.013036 
L 225.27245 311.937497 
L 225.431845 311.71088 
L 225.670938 311.635341 
L 226.069426 311.559802 
L 226.308519 311.333185 
L 226.388217 311.333185 
L 226.547612 310.804412 
L 226.786705 310.804412 
L 227.503984 309.671327 
L 227.583682 309.671327 
L 228.061867 308.613781 
L 228.30096 308.538242 
L 228.619751 307.707313 
L 228.779146 307.707313 
L 228.938541 307.405157 
L 229.097937 304.383597 
L 230.293401 304.383597 
L 230.452796 300.908803 
L 231.648261 300.908803 
L 231.807656 296.527541 
L 233.003121 296.527541 
L 233.162516 292.146279 
L 234.357981 292.146279 
L 234.517376 287.840557 
L 235.71284 287.840557 
L 235.872236 283.232678 
L 237.0677 283.232678 
L 237.227095 276.056473 
L 238.502258 276.056473 
L 238.661653 269.786736 
L 239.857117 269.786736 
L 240.016513 264.574546 
L 241.211977 264.574546 
L 241.371372 259.211277 
L 242.566837 259.211277 
L 242.726232 254.074625 
L 243.921697 254.074625 
L 244.081092 249.315668 
L 245.276557 249.315668 
L 245.435952 244.934406 
L 246.631416 244.934406 
L 246.790812 239.344521 
L 247.986276 239.344521 
L 248.145672 236.096344 
L 249.341136 236.096344 
L 249.500531 231.564004 
L 250.695996 231.564004 
L 250.855391 226.880586 
L 252.050856 226.880586 
L 252.210251 221.366239 
L 253.405715 221.366239 
L 253.565111 216.305126 
L 254.760575 216.305126 
L 254.919971 211.168475 
L 256.115435 211.168475 
L 256.27483 206.182901 
L 257.549993 206.182901 
L 257.709388 200.819632 
L 258.904852 200.819632 
L 259.064248 195.909597 
L 260.259712 195.909597 
L 260.419107 192.057108 
L 261.614572 192.057108 
L 261.773967 186.995996 
L 262.969432 186.995996 
L 263.128827 181.632727 
L 264.324292 181.632727 
L 264.483687 175.438529 
L 265.679151 175.438529 
L 265.838547 170.452955 
L 267.034011 170.452955 
L 267.193406 163.729985 
L 268.388871 163.729985 
L 268.548266 158.971028 
L 269.743731 158.971028 
L 269.903126 154.212071 
L 271.098591 154.212071 
L 271.257986 150.435121 
L 272.45345 150.435121 
L 272.612846 146.431554 
L 273.80831 146.431554 
L 273.967705 142.352448 
L 275.16317 142.352448 
L 275.322565 138.197804 
L 276.597727 138.197804 
L 276.757123 131.70145 
L 277.952587 131.70145 
L 278.111983 126.489259 
L 279.307447 126.489259 
L 279.466842 121.428146 
L 280.662307 121.428146 
L 280.821702 114.478558 
L 282.017167 114.478558 
L 282.176562 109.417446 
L 283.372026 109.417446 
L 283.531422 103.752021 
L 284.726886 103.752021 
L 284.886282 99.370759 
L 286.081746 99.370759 
L 286.241141 94.536263 
L 287.436606 94.536263 
L 287.596001 89.777306 
L 288.791466 89.777306 
L 288.950861 86.075896 
L 290.146325 86.075896 
L 290.305721 82.525563 
L 291.501185 82.525563 
L 291.660581 77.237833 
L 292.856045 77.237833 
L 293.01544 72.403337 
L 294.210905 72.403337 
L 294.3703 68.701926 
L 295.645462 68.701926 
L 295.804858 66.88899 
L 297.000322 66.88899 
L 297.159717 65.37821 
L 298.355182 65.37821 
L 298.514577 64.245125 
L 299.710042 64.245125 
L 299.869437 63.565274 
L 301.064902 63.565274 
L 301.224297 63.036502 
L 302.419761 63.036502 
L 302.579157 62.583268 
L 303.774621 62.583268 
L 303.934016 61.978956 
L 305.129481 61.978956 
L 305.288876 61.6768 
L 306.484341 61.6768 
L 306.643736 61.223566 
L 307.839201 61.223566 
L 307.998596 60.468176 
L 309.19406 60.468176 
L 309.353456 59.939403 
L 310.54892 59.939403 
L 310.708315 59.41063 
L 311.90378 59.41063 
L 312.063175 58.957396 
L 313.25864 58.957396 
L 313.418035 58.65524 
L 314.693197 58.65524 
L 314.852593 58.353084 
L 316.048057 58.353084 
L 316.207452 58.126467 
L 317.402917 58.126467 
L 317.562312 57.824311 
L 318.757777 57.824311 
L 318.917172 57.219999 
L 320.112636 57.219999 
L 320.272032 57.068921 
L 321.467496 57.068921 
L 321.626892 56.842304 
L 322.822356 56.842304 
L 322.981751 56.540148 
L 324.177216 56.540148 
L 324.336611 56.313531 
L 326.886936 56.237992 
L 327.126028 56.162453 
L 328.241795 56.162453 
L 328.401191 55.784758 
L 329.596655 55.784758 
L 329.75605 55.255985 
L 330.951515 55.255985 
L 331.11091 54.87829 
L 332.306375 54.87829 
L 332.46577 54.500595 
L 333.740932 54.500595 
L 333.900327 54.1229 
L 335.095792 54.1229 
L 335.255187 53.896283 
L 336.450652 53.896283 
L 336.610047 53.36751 
L 337.805512 53.36751 
L 337.964907 53.216432 
L 339.160371 53.216432 
L 339.319767 52.61212 
L 340.515231 52.61212 
L 340.674626 52.158886 
L 341.870091 52.158886 
L 342.029486 51.781191 
L 343.224951 51.781191 
L 343.384346 51.327957 
L 344.579811 51.327957 
L 344.739206 51.176879 
L 345.93467 51.176879 
L 346.094066 50.648106 
L 347.28953 50.648106 
L 347.448925 50.119333 
L 348.64439 50.119333 
L 348.803785 49.892716 
L 349.99925 49.892716 
L 350.158645 49.439482 
L 351.35411 49.439482 
L 351.513505 48.910709 
L 352.708969 48.910709 
L 352.868365 48.684092 
L 354.143527 48.684092 
L 354.302922 48.155319 
L 355.498387 48.155319 
L 355.657782 47.853163 
L 356.853246 47.853163 
L 357.012642 47.551007 
L 358.208106 47.551007 
L 358.367502 47.399929 
L 359.562966 47.399929 
L 359.722361 46.795617 
L 360.917826 46.795617 
L 361.077221 46.569 
L 362.272686 46.569 
L 362.432081 45.964688 
L 363.627546 45.964688 
L 363.786941 45.586993 
L 366.337265 45.511454 
L 366.49666 45.284837 
L 367.692125 45.284837 
L 367.85152 45.05822 
L 370.401845 44.982681 
L 370.640937 44.907142 
L 371.756704 44.907142 
L 371.9161 44.680525 
L 373.191262 44.680525 
L 373.350657 44.529447 
L 374.546122 44.529447 
L 374.705517 44.30283 
L 377.255841 44.227291 
L 377.415236 44.076213 
L 379.965561 44.000674 
L 380.124956 43.698518 
L 381.320421 43.698518 
L 381.479816 43.54744 
L 382.67528 43.54744 
L 382.834676 43.320823 
L 384.03014 43.320823 
L 384.189536 43.169745 
L 385.385 43.169745 
L 385.544395 43.018667 
L 388.09472 42.943128 
L 388.254115 42.79205 
L 389.449579 42.79205 
L 389.608975 42.565433 
L 390.804439 42.565433 
L 390.963835 42.263277 
L 394.948716 42.187738 
L 395.187809 42.112199 
L 396.303576 42.112199 
L 396.462971 41.810043 
L 399.013296 41.810043 
L 399.172691 41.583426 
L 404.432735 41.507887 
L 404.671828 41.432348 
L 405.787595 41.432348 
L 405.94699 41.205731 
L 407.142455 41.205731 
L 407.30185 40.979114 
L 408.497314 40.979114 
L 408.65671 40.828036 
L 412.641591 40.752497 
L 412.800987 40.52588 
L 415.351311 40.52588 
L 415.510706 40.374802 
L 418.061031 40.299263 
L 418.300124 40.223724 
L 419.41589 40.223724 
L 419.575286 40.072646 
L 422.12561 39.997107 
L 422.364703 39.921568 
L 424.83533 39.846029 
L 424.994725 39.694951 
L 427.545049 39.619412 
L 427.704445 39.468334 
L 428.899909 39.468334 
L 429.059304 39.317256 
L 435.753906 39.241717 
L 435.913301 39.090639 
L 445.237924 39.0151 
L 445.477017 38.939561 
L 457.51136 38.864022 
L 457.750453 38.788483 
L 468.429936 38.712944 
L 468.589332 38.561866 
L 472.494516 38.486327 
L 472.733609 38.410788 
L 476.559095 38.335249 
L 476.798188 38.25971 
L 488.832531 38.184171 
L 489.071624 38.108632 
L 494.25197 38.033093 
L 494.491063 37.957554 
L 559.524334 37.882015 
L 559.763427 37.806476 
L 889.871033 37.730938 
L 889.871033 37.730938 
" clip-path="url(#p7b91f617e2)" style="fill: none; stroke: #1f77b4; stroke-width: 2; stroke-linecap: square"/>
   </g>
   <g id="line2d_26">
    <path d="M 92.974375 317.149688 
L 175.859916 317.074474 
L 176.178707 316.924047 
L 176.258404 316.924047 
L 176.497497 316.547978 
L 176.73659 316.547978 
L 177.055381 316.17191 
L 177.214776 316.096696 
L 177.453869 315.871055 
L 177.533566 315.871055 
L 177.772659 315.419773 
L 178.330543 314.818064 
L 178.489938 314.517209 
L 178.729031 314.216355 
L 178.888426 314.216355 
L 179.127519 313.689859 
L 179.286914 313.464218 
L 179.844798 312.862509 
L 180.163588 312.185586 
L 180.243286 312.185586 
L 180.402681 311.884731 
L 180.562077 311.734304 
L 180.801169 311.65909 
L 181.11996 310.83174 
L 181.199658 310.83174 
L 181.438751 310.230031 
L 181.757541 309.40268 
L 181.916936 309.101826 
L 181.996634 309.101826 
L 182.156029 308.57533 
L 182.79361 306.093279 
L 183.032703 304.513792 
L 183.112401 304.513792 
L 183.590587 301.129178 
L 183.670284 301.129178 
L 183.989075 298.947982 
L 184.068772 298.947982 
L 184.786051 293.081316 
L 184.865749 293.081316 
L 185.184539 289.922342 
L 185.264237 289.922342 
L 185.50333 287.515505 
L 185.583028 287.515505 
L 186.300306 279.843712 
L 186.380004 279.843712 
L 186.85819 273.977046 
L 186.937887 273.977046 
L 187.256678 269.915508 
L 187.336376 269.915508 
L 187.655166 265.477903 
L 187.734864 265.477903 
L 188.053654 260.965083 
L 188.133352 260.965083 
L 188.452142 256.677904 
L 188.53184 256.677904 
L 188.770933 253.51893 
L 189.010026 251.262521 
L 189.089724 251.262521 
L 189.408514 247.652265 
L 189.488212 247.652265 
L 189.807002 243.4403 
L 189.8867 243.4403 
L 190.046095 242.01124 
L 190.683676 236.445429 
L 190.922769 233.812951 
L 191.002467 233.812951 
L 191.321257 229.901841 
L 191.400955 229.901841 
L 191.719746 225.238594 
L 191.799443 225.238594 
L 192.118234 222.004407 
L 192.197931 222.004407 
L 192.437024 220.199279 
L 192.516722 220.199279 
L 193.074605 215.235177 
L 193.154303 215.235177 
L 193.393396 213.279622 
L 193.473093 213.279622 
L 193.712186 211.474494 
L 194.190372 207.112102 
L 194.27007 207.112102 
L 194.58886 204.705265 
L 194.668558 204.705265 
L 194.987349 201.771932 
L 195.067046 201.771932 
L 195.864023 195.002702 
L 196.023418 194.100138 
L 196.262511 192.671079 
L 196.421906 191.618088 
L 196.660999 190.113814 
L 196.900092 187.857405 
L 196.979789 187.857405 
L 197.29858 184.698431 
L 197.378278 184.698431 
L 197.697068 181.840312 
L 197.776766 181.840312 
L 198.015859 179.95997 
L 198.095556 179.95997 
L 198.414347 177.553133 
L 198.494045 177.553133 
L 198.65344 175.44715 
L 198.733137 175.44715 
L 198.97223 173.416382 
L 199.051928 173.416382 
L 199.689509 171.009544 
L 200.0083 168.602707 
L 200.087997 168.602707 
L 200.32709 167.549716 
L 200.406788 167.549716 
L 200.725578 165.218093 
L 200.805276 165.218093 
L 201.921043 160.253991 
L 202.000741 160.253991 
L 202.319531 158.298436 
L 202.399229 158.298436 
L 202.638322 157.395872 
L 202.718019 157.395872 
L 202.957112 156.192453 
L 203.435298 153.710403 
L 203.514996 153.710403 
L 203.913484 150.250574 
L 204.39167 146.489891 
L 204.471367 146.489891 
L 204.790158 143.030063 
L 204.869855 143.030063 
L 205.188646 139.645448 
L 205.268344 139.645448 
L 205.587134 136.110406 
L 205.666832 136.110406 
L 205.905925 133.553141 
L 205.985622 133.553141 
L 206.304413 128.664253 
L 206.38411 128.664253 
L 206.702901 124.527502 
L 206.782599 124.527502 
L 207.021692 120.842033 
L 207.260784 118.209555 
L 207.340482 118.209555 
L 207.659273 113.471094 
L 207.73897 113.471094 
L 207.898366 111.289898 
L 207.978063 111.289898 
L 208.217156 108.356565 
L 208.296854 108.356565 
L 208.615644 103.467677 
L 208.695342 103.467677 
L 209.014132 98.80443 
L 209.09383 98.80443 
L 209.651714 94.065969 
L 209.731411 93.539474 
L 209.970504 91.358278 
L 210.050202 91.358278 
L 210.289295 89.477936 
L 211.325364 82.859134 
L 211.405062 82.859134 
L 211.644154 81.204433 
L 211.883247 80.226656 
L 211.962945 80.226656 
L 212.12234 79.098451 
L 212.202038 79.098451 
L 212.441131 77.970246 
L 212.520828 77.970246 
L 212.600526 77.819819 
L 212.839619 76.842041 
L 212.919317 76.842041 
L 213.238107 75.78905 
L 213.317805 75.78905 
L 213.556898 75.187341 
L 214.592967 73.382213 
L 214.672665 73.382213 
L 215.310246 72.404435 
L 216.18692 71.652299 
L 216.346315 70.975376 
L 216.585408 70.900162 
L 217.382384 70.298453 
L 217.541779 70.298453 
L 217.701175 69.997598 
L 217.780872 69.997598 
L 217.940268 69.847171 
L 218.498151 69.771957 
L 219.374825 69.095034 
L 219.53422 69.01982 
L 219.693616 68.869393 
L 220.251499 68.794179 
L 220.410894 68.718966 
L 220.57029 68.19247 
L 220.649987 68.19247 
L 220.968778 67.590761 
L 221.048475 67.590761 
L 221.367266 67.139479 
L 221.446964 67.139479 
L 221.606359 66.838624 
L 221.765754 66.838624 
L 222.084545 66.086488 
L 222.56273 66.011274 
L 223.280009 65.484778 
L 223.359707 65.484778 
L 223.678497 65.033496 
L 223.758195 65.033496 
L 223.91759 64.807855 
L 224.714567 64.807855 
L 224.95366 64.431787 
L 225.511543 64.356573 
L 225.910031 64.130932 
L 226.866403 64.055719 
L 227.105496 63.980505 
L 227.424286 63.980505 
L 227.583682 63.830078 
L 230.293401 63.754864 
L 230.532494 63.67965 
L 231.648261 63.67965 
L 231.807656 63.378796 
L 233.003121 63.378796 
L 233.162516 63.228369 
L 235.71284 63.153155 
L 235.872236 62.777087 
L 238.502258 62.701873 
L 238.661653 62.476232 
L 239.857117 62.476232 
L 240.016513 62.325805 
L 241.211977 62.325805 
L 241.371372 62.02495 
L 242.566837 62.02495 
L 242.726232 61.573668 
L 243.921697 61.573668 
L 244.081092 61.272813 
L 245.276557 61.272813 
L 245.435952 61.122386 
L 246.631416 61.122386 
L 246.790812 60.896745 
L 247.986276 60.896745 
L 248.145672 60.671104 
L 250.695996 60.59589 
L 250.935089 60.520677 
L 252.050856 60.520677 
L 252.210251 60.295036 
L 253.405715 60.295036 
L 253.565111 59.918967 
L 254.760575 59.918967 
L 254.919971 59.392472 
L 256.115435 59.392472 
L 256.27483 58.565122 
L 257.549993 58.565122 
L 257.709388 58.189053 
L 258.904852 58.189053 
L 259.064248 57.888199 
L 260.259712 57.888199 
L 260.419107 57.211276 
L 261.614572 57.211276 
L 261.773967 56.985635 
L 262.969432 56.985635 
L 263.128827 56.233498 
L 264.324292 56.233498 
L 264.483687 55.330934 
L 265.679151 55.330934 
L 265.838547 54.654011 
L 267.034011 54.654011 
L 267.193406 54.127516 
L 268.388871 54.127516 
L 268.548266 53.60102 
L 269.743731 53.60102 
L 269.903126 53.149738 
L 271.098591 53.149738 
L 271.257986 52.698456 
L 272.45345 52.698456 
L 272.612846 51.946319 
L 273.80831 51.946319 
L 273.967705 50.592474 
L 275.16317 50.592474 
L 275.322565 49.012987 
L 276.597727 49.012987 
L 276.757123 46.83179 
L 277.952587 46.83179 
L 278.111983 44.951449 
L 279.307447 44.951449 
L 279.466842 43.597603 
L 280.662307 43.597603 
L 280.821702 43.071107 
L 282.017167 43.071107 
L 282.176562 42.619825 
L 283.372026 42.619825 
L 283.531422 42.469398 
L 286.081746 42.394184 
L 286.241141 42.243757 
L 288.791466 42.243757 
L 288.950861 42.09333 
L 290.146325 42.09333 
L 290.305721 41.942903 
L 294.210905 41.942903 
L 294.3703 41.792475 
L 299.710042 41.717262 
L 299.949135 41.642048 
L 311.90378 41.566834 
L 312.063175 41.416407 
L 314.693197 41.416407 
L 314.852593 41.26598 
L 322.822356 41.190766 
L 323.061449 41.115552 
L 329.596655 41.040339 
L 329.835748 40.965125 
L 335.095792 40.889911 
L 335.334885 40.814698 
L 339.160371 40.739484 
L 339.319767 40.513843 
L 343.224951 40.438629 
L 343.384346 40.288202 
L 344.579811 40.288202 
L 344.739206 40.137775 
L 345.93467 40.137775 
L 346.094066 39.83692 
L 349.99925 39.761706 
L 350.158645 39.611279 
L 355.498387 39.536065 
L 355.73748 39.460852 
L 389.449579 39.385638 
L 389.688672 39.310424 
L 401.723015 39.235211 
L 401.962108 39.159997 
L 408.497314 39.084783 
L 408.65671 38.783929 
L 409.852174 38.783929 
L 410.011569 38.483074 
L 413.996451 38.40786 
L 414.155846 38.257433 
L 477.913955 38.182219 
L 478.153048 38.107006 
L 758.210539 38.031792 
L 758.449632 37.956578 
L 823.482903 37.881365 
L 823.721996 37.806151 
L 889.871033 37.730938 
L 889.871033 37.730938 
" clip-path="url(#p7b91f617e2)" style="fill: none; stroke: #ff7f0e; stroke-width: 2; stroke-linecap: square"/>
   </g>
   <g id="patch_3">
    <path d="M 92.974375 331.120625 
L 92.974375 23.76 
" style="fill: none; stroke: #000000; stroke-width: 0.8; stroke-linejoin: miter; stroke-linecap: square"/>
   </g>
   <g id="patch_4">
    <path d="M 897.84 331.120625 
L 897.84 23.76 
" style="fill: none; stroke: #000000; stroke-width: 0.8; stroke-linejoin: miter; stroke-linecap: square"/>
   </g>
   <g id="patch_5">
    <path d="M 92.974375 331.120625 
L 897.84 331.120625 
" style="fill: none; stroke: #000000; stroke-width: 0.8; stroke-linejoin: miter; stroke-linecap: square"/>
   </g>
   <g id="patch_6">
    <path d="M 92.974375 23.76 
L 897.84 23.76 
" style="fill: none; stroke: #000000; stroke-width: 0.8; stroke-linejoin: miter; stroke-linecap: square"/>
   </g>
   <g id="legend_1">
    <g id="patch_7">
     <path d="M 648.5625 319.120625 
L 881.04 319.120625 
Q 885.84 319.120625 885.84 314.320625 
L 885.84 245.598125 
Q 885.84 240.798125 881.04 240.798125 
L 648.5625 240.798125 
Q 643.7625 240.798125 643.7625 245.598125 
L 643.7625 314.320625 
Q 643.7625 319.120625 648.5625 319.120625 
z
" style="fill: #ffffff; opacity: 0.8; stroke: #cccccc; stroke-linejoin: miter"/>
    </g>
    <g id="line2d_27">
     <path d="M 653.3625 260.234375 
L 677.3625 260.234375 
L 701.3625 260.234375 
" style="fill: none; stroke: #1f77b4; stroke-width: 2; stroke-linecap: square"/>
    </g>
    <g id="text_15">
     <!-- SR_10_nopre -->
     <g transform="translate(720.5625 268.634375)scale(0.24 -0.24)">
      <defs>
       <path id="DejaVuSans-53" d="M 3425 4513 
L 3425 3897 
Q 3066 4069 2747 4153 
Q 2428 4238 2131 4238 
Q 1616 4238 1336 4038 
Q 1056 3838 1056 3469 
Q 1056 3159 1242 3001 
Q 1428 2844 1947 2747 
L 2328 2669 
Q 3034 2534 3370 2195 
Q 3706 1856 3706 1288 
Q 3706 609 3251 259 
Q 2797 -91 1919 -91 
Q 1588 -91 1214 -16 
Q 841 59 441 206 
L 441 856 
Q 825 641 1194 531 
Q 1563 422 1919 422 
Q 2459 422 2753 634 
Q 3047 847 3047 1241 
Q 3047 1584 2836 1778 
Q 2625 1972 2144 2069 
L 1759 2144 
Q 1053 2284 737 2584 
Q 422 2884 422 3419 
Q 422 4038 858 4394 
Q 1294 4750 2059 4750 
Q 2388 4750 2728 4690 
Q 3069 4631 3425 4513 
z
" transform="scale(0.015625)"/>
       <path id="DejaVuSans-5f" d="M 3263 -1063 
L 3263 -1509 
L -63 -1509 
L -63 -1063 
L 3263 -1063 
z
" transform="scale(0.015625)"/>
       <path id="DejaVuSans-70" d="M 1159 525 
L 1159 -1331 
L 581 -1331 
L 581 3500 
L 1159 3500 
L 1159 2969 
Q 1341 3281 1617 3432 
Q 1894 3584 2278 3584 
Q 2916 3584 3314 3078 
Q 3713 2572 3713 1747 
Q 3713 922 3314 415 
Q 2916 -91 2278 -91 
Q 1894 -91 1617 61 
Q 1341 213 1159 525 
z
M 3116 1747 
Q 3116 2381 2855 2742 
Q 2594 3103 2138 3103 
Q 1681 3103 1420 2742 
Q 1159 2381 1159 1747 
Q 1159 1113 1420 752 
Q 1681 391 2138 391 
Q 2594 391 2855 752 
Q 3116 1113 3116 1747 
z
" transform="scale(0.015625)"/>
      </defs>
      <use xlink:href="#DejaVuSans-53"/>
      <use xlink:href="#DejaVuSans-52" x="63.476562"/>
      <use xlink:href="#DejaVuSans-5f" x="132.958984"/>
      <use xlink:href="#DejaVuSans-31" x="182.958984"/>
      <use xlink:href="#DejaVuSans-30" x="246.582031"/>
      <use xlink:href="#DejaVuSans-5f" x="310.205078"/>
      <use xlink:href="#DejaVuSans-6e" x="360.205078"/>
      <use xlink:href="#DejaVuSans-6f" x="423.583984"/>
      <use xlink:href="#DejaVuSans-70" x="484.765625"/>
      <use xlink:href="#DejaVuSans-72" x="548.242188"/>
      <use xlink:href="#DejaVuSans-65" x="587.105469"/>
     </g>
    </g>
    <g id="line2d_28">
     <path d="M 653.3625 296.129375 
L 677.3625 296.129375 
L 701.3625 296.129375 
" style="fill: none; stroke: #ff7f0e; stroke-width: 2; stroke-linecap: square"/>
    </g>
    <g id="text_16">
     <!-- Default -->
     <g transform="translate(720.5625 304.529375)scale(0.24 -0.24)">
      <defs>
       <path id="DejaVuSans-44" d="M 1259 4147 
L 1259 519 
L 2022 519 
Q 2988 519 3436 956 
Q 3884 1394 3884 2338 
Q 3884 3275 3436 3711 
Q 2988 4147 2022 4147 
L 1259 4147 
z
M 628 4666 
L 1925 4666 
Q 3281 4666 3915 4102 
Q 4550 3538 4550 2338 
Q 4550 1131 3912 565 
Q 3275 0 1925 0 
L 628 0 
L 628 4666 
z
" transform="scale(0.015625)"/>
       <path id="DejaVuSans-61" d="M 2194 1759 
Q 1497 1759 1228 1600 
Q 959 1441 959 1056 
Q 959 750 1161 570 
Q 1363 391 1709 391 
Q 2188 391 2477 730 
Q 2766 1069 2766 1631 
L 2766 1759 
L 2194 1759 
z
M 3341 1997 
L 3341 0 
L 2766 0 
L 2766 531 
Q 2569 213 2275 61 
Q 1981 -91 1556 -91 
Q 1019 -91 701 211 
Q 384 513 384 1019 
Q 384 1609 779 1909 
Q 1175 2209 1959 2209 
L 2766 2209 
L 2766 2266 
Q 2766 2663 2505 2880 
Q 2244 3097 1772 3097 
Q 1472 3097 1187 3025 
Q 903 2953 641 2809 
L 641 3341 
Q 956 3463 1253 3523 
Q 1550 3584 1831 3584 
Q 2591 3584 2966 3190 
Q 3341 2797 3341 1997 
z
" transform="scale(0.015625)"/>
       <path id="DejaVuSans-74" d="M 1172 4494 
L 1172 3500 
L 2356 3500 
L 2356 3053 
L 1172 3053 
L 1172 1153 
Q 1172 725 1289 603 
Q 1406 481 1766 481 
L 2356 481 
L 2356 0 
L 1766 0 
Q 1100 0 847 248 
Q 594 497 594 1153 
L 594 3053 
L 172 3053 
L 172 3500 
L 594 3500 
L 594 4494 
L 1172 4494 
z
" transform="scale(0.015625)"/>
      </defs>
      <use xlink:href="#DejaVuSans-44"/>
      <use xlink:href="#DejaVuSans-65" x="77.001953"/>
      <use xlink:href="#DejaVuSans-66" x="138.525391"/>
      <use xlink:href="#DejaVuSans-61" x="173.730469"/>
      <use xlink:href="#DejaVuSans-75" x="235.009766"/>
      <use xlink:href="#DejaVuSans-6c" x="298.388672"/>
      <use xlink:href="#DejaVuSans-74" x="326.171875"/>
     </g>
    </g>
   </g>
  </g>
 </g>
 <defs>
  <clipPath id="p7b91f617e2">
   <rect x="92.974375" y="23.76" width="804.865625" height="307.360625"/>
  </clipPath>
 </defs>
</svg>
