<?xml version="1.0" encoding="utf-8" standalone="no"?>
<!DOCTYPE svg PUBLIC "-//W3C//DTD SVG 1.1//EN"
  "http://www.w3.org/Graphics/SVG/1.1/DTD/svg11.dtd">
<svg xmlns:xlink="http://www.w3.org/1999/xlink" width="921.6pt" height="410.4pt" viewBox="0 0 921.6 410.4" xmlns="http://www.w3.org/2000/svg" version="1.1">
 <metadata>
  <rdf:RDF xmlns:dc="http://purl.org/dc/elements/1.1/" xmlns:cc="http://creativecommons.org/ns#" xmlns:rdf="http://www.w3.org/1999/02/22-rdf-syntax-ns#">
   <cc:Work>
    <dc:type rdf:resource="http://purl.org/dc/dcmitype/StillImage"/>
    <dc:date>2023-04-18T09:34:43.276216</dc:date>
    <dc:format>image/svg+xml</dc:format>
    <dc:creator>
     <cc:Agent>
      <dc:title>Matplotlib v3.5.3, https://matplotlib.org/</dc:title>
     </cc:Agent>
    </dc:creator>
   </cc:Work>
  </rdf:RDF>
 </metadata>
 <defs>
  <style type="text/css">*{stroke-linejoin: round; stroke-linecap: butt}</style>
 </defs>
 <g id="figure_1">
  <g id="patch_1">
   <path d="M 0 410.4 
L 921.6 410.4 
L 921.6 0 
L 0 0 
L 0 410.4 
z
" style="fill: none"/>
  </g>
  <g id="axes_1">
   <g id="patch_2">
    <path d="M 92.974375 331.120625 
L 897.84 331.120625 
L 897.84 23.76 
L 92.974375 23.76 
z
" style="fill: #ffffff"/>
   </g>
   <g id="matplotlib.axis_1">
    <g id="xtick_1">
     <g id="line2d_1">
      <path d="M 92.974375 331.120625 
L 92.974375 23.76 
" clip-path="url(#pe07cec73af)" style="fill: none; stroke: #b0b0b0; stroke-width: 0.8; stroke-linecap: square"/>
     </g>
     <g id="line2d_2">
      <defs>
       <path id="mbf6c4f908d" d="M 0 0 
L 0 3.5 
" style="stroke: #000000; stroke-width: 0.8"/>
      </defs>
      <g>
       <use xlink:href="#mbf6c4f908d" x="92.974375" y="331.120625" style="stroke: #000000; stroke-width: 0.8"/>
      </g>
     </g>
     <g id="text_1">
      <!-- 0 -->
      <g transform="translate(85.975625 354.837188)scale(0.22 -0.22)">
       <defs>
        <path id="DejaVuSans-30" d="M 2034 4250 
Q 1547 4250 1301 3770 
Q 1056 3291 1056 2328 
Q 1056 1369 1301 889 
Q 1547 409 2034 409 
Q 2525 409 2770 889 
Q 3016 1369 3016 2328 
Q 3016 3291 2770 3770 
Q 2525 4250 2034 4250 
z
M 2034 4750 
Q 2819 4750 3233 4129 
Q 3647 3509 3647 2328 
Q 3647 1150 3233 529 
Q 2819 -91 2034 -91 
Q 1250 -91 836 529 
Q 422 1150 422 2328 
Q 422 3509 836 4129 
Q 1250 4750 2034 4750 
z
" transform="scale(0.015625)"/>
       </defs>
       <use xlink:href="#DejaVuSans-30"/>
      </g>
     </g>
    </g>
    <g id="xtick_2">
     <g id="line2d_3">
      <path d="M 187.664449 331.120625 
L 187.664449 23.76 
" clip-path="url(#pe07cec73af)" style="fill: none; stroke: #b0b0b0; stroke-width: 0.8; stroke-linecap: square"/>
     </g>
     <g id="line2d_4">
      <g>
       <use xlink:href="#mbf6c4f908d" x="187.664449" y="331.120625" style="stroke: #000000; stroke-width: 0.8"/>
      </g>
     </g>
     <g id="text_2">
      <!-- 10 -->
      <g transform="translate(173.666949 354.837188)scale(0.22 -0.22)">
       <defs>
        <path id="DejaVuSans-31" d="M 794 531 
L 1825 531 
L 1825 4091 
L 703 3866 
L 703 4441 
L 1819 4666 
L 2450 4666 
L 2450 531 
L 3481 531 
L 3481 0 
L 794 0 
L 794 531 
z
" transform="scale(0.015625)"/>
       </defs>
       <use xlink:href="#DejaVuSans-31"/>
       <use xlink:href="#DejaVuSans-30" x="63.623047"/>
      </g>
     </g>
    </g>
    <g id="xtick_3">
     <g id="line2d_5">
      <path d="M 282.354522 331.120625 
L 282.354522 23.76 
" clip-path="url(#pe07cec73af)" style="fill: none; stroke: #b0b0b0; stroke-width: 0.8; stroke-linecap: square"/>
     </g>
     <g id="line2d_6">
      <g>
       <use xlink:href="#mbf6c4f908d" x="282.354522" y="331.120625" style="stroke: #000000; stroke-width: 0.8"/>
      </g>
     </g>
     <g id="text_3">
      <!-- 20 -->
      <g transform="translate(268.357022 354.837188)scale(0.22 -0.22)">
       <defs>
        <path id="DejaVuSans-32" d="M 1228 531 
L 3431 531 
L 3431 0 
L 469 0 
L 469 531 
Q 828 903 1448 1529 
Q 2069 2156 2228 2338 
Q 2531 2678 2651 2914 
Q 2772 3150 2772 3378 
Q 2772 3750 2511 3984 
Q 2250 4219 1831 4219 
Q 1534 4219 1204 4116 
Q 875 4013 500 3803 
L 500 4441 
Q 881 4594 1212 4672 
Q 1544 4750 1819 4750 
Q 2544 4750 2975 4387 
Q 3406 4025 3406 3419 
Q 3406 3131 3298 2873 
Q 3191 2616 2906 2266 
Q 2828 2175 2409 1742 
Q 1991 1309 1228 531 
z
" transform="scale(0.015625)"/>
       </defs>
       <use xlink:href="#DejaVuSans-32"/>
       <use xlink:href="#DejaVuSans-30" x="63.623047"/>
      </g>
     </g>
    </g>
    <g id="xtick_4">
     <g id="line2d_7">
      <path d="M 377.044596 331.120625 
L 377.044596 23.76 
" clip-path="url(#pe07cec73af)" style="fill: none; stroke: #b0b0b0; stroke-width: 0.8; stroke-linecap: square"/>
     </g>
     <g id="line2d_8">
      <g>
       <use xlink:href="#mbf6c4f908d" x="377.044596" y="331.120625" style="stroke: #000000; stroke-width: 0.8"/>
      </g>
     </g>
     <g id="text_4">
      <!-- 30 -->
      <g transform="translate(363.047096 354.837188)scale(0.22 -0.22)">
       <defs>
        <path id="DejaVuSans-33" d="M 2597 2516 
Q 3050 2419 3304 2112 
Q 3559 1806 3559 1356 
Q 3559 666 3084 287 
Q 2609 -91 1734 -91 
Q 1441 -91 1130 -33 
Q 819 25 488 141 
L 488 750 
Q 750 597 1062 519 
Q 1375 441 1716 441 
Q 2309 441 2620 675 
Q 2931 909 2931 1356 
Q 2931 1769 2642 2001 
Q 2353 2234 1838 2234 
L 1294 2234 
L 1294 2753 
L 1863 2753 
Q 2328 2753 2575 2939 
Q 2822 3125 2822 3475 
Q 2822 3834 2567 4026 
Q 2313 4219 1838 4219 
Q 1578 4219 1281 4162 
Q 984 4106 628 3988 
L 628 4550 
Q 988 4650 1302 4700 
Q 1616 4750 1894 4750 
Q 2613 4750 3031 4423 
Q 3450 4097 3450 3541 
Q 3450 3153 3228 2886 
Q 3006 2619 2597 2516 
z
" transform="scale(0.015625)"/>
       </defs>
       <use xlink:href="#DejaVuSans-33"/>
       <use xlink:href="#DejaVuSans-30" x="63.623047"/>
      </g>
     </g>
    </g>
    <g id="xtick_5">
     <g id="line2d_9">
      <path d="M 471.734669 331.120625 
L 471.734669 23.76 
" clip-path="url(#pe07cec73af)" style="fill: none; stroke: #b0b0b0; stroke-width: 0.8; stroke-linecap: square"/>
     </g>
     <g id="line2d_10">
      <g>
       <use xlink:href="#mbf6c4f908d" x="471.734669" y="331.120625" style="stroke: #000000; stroke-width: 0.8"/>
      </g>
     </g>
     <g id="text_5">
      <!-- 40 -->
      <g transform="translate(457.737169 354.837188)scale(0.22 -0.22)">
       <defs>
        <path id="DejaVuSans-34" d="M 2419 4116 
L 825 1625 
L 2419 1625 
L 2419 4116 
z
M 2253 4666 
L 3047 4666 
L 3047 1625 
L 3713 1625 
L 3713 1100 
L 3047 1100 
L 3047 0 
L 2419 0 
L 2419 1100 
L 313 1100 
L 313 1709 
L 2253 4666 
z
" transform="scale(0.015625)"/>
       </defs>
       <use xlink:href="#DejaVuSans-34"/>
       <use xlink:href="#DejaVuSans-30" x="63.623047"/>
      </g>
     </g>
    </g>
    <g id="xtick_6">
     <g id="line2d_11">
      <path d="M 566.424743 331.120625 
L 566.424743 23.76 
" clip-path="url(#pe07cec73af)" style="fill: none; stroke: #b0b0b0; stroke-width: 0.8; stroke-linecap: square"/>
     </g>
     <g id="line2d_12">
      <g>
       <use xlink:href="#mbf6c4f908d" x="566.424743" y="331.120625" style="stroke: #000000; stroke-width: 0.8"/>
      </g>
     </g>
     <g id="text_6">
      <!-- 50 -->
      <g transform="translate(552.427243 354.837188)scale(0.22 -0.22)">
       <defs>
        <path id="DejaVuSans-35" d="M 691 4666 
L 3169 4666 
L 3169 4134 
L 1269 4134 
L 1269 2991 
Q 1406 3038 1543 3061 
Q 1681 3084 1819 3084 
Q 2600 3084 3056 2656 
Q 3513 2228 3513 1497 
Q 3513 744 3044 326 
Q 2575 -91 1722 -91 
Q 1428 -91 1123 -41 
Q 819 9 494 109 
L 494 744 
Q 775 591 1075 516 
Q 1375 441 1709 441 
Q 2250 441 2565 725 
Q 2881 1009 2881 1497 
Q 2881 1984 2565 2268 
Q 2250 2553 1709 2553 
Q 1456 2553 1204 2497 
Q 953 2441 691 2322 
L 691 4666 
z
" transform="scale(0.015625)"/>
       </defs>
       <use xlink:href="#DejaVuSans-35"/>
       <use xlink:href="#DejaVuSans-30" x="63.623047"/>
      </g>
     </g>
    </g>
    <g id="xtick_7">
     <g id="line2d_13">
      <path d="M 661.114816 331.120625 
L 661.114816 23.76 
" clip-path="url(#pe07cec73af)" style="fill: none; stroke: #b0b0b0; stroke-width: 0.8; stroke-linecap: square"/>
     </g>
     <g id="line2d_14">
      <g>
       <use xlink:href="#mbf6c4f908d" x="661.114816" y="331.120625" style="stroke: #000000; stroke-width: 0.8"/>
      </g>
     </g>
     <g id="text_7">
      <!-- 60 -->
      <g transform="translate(647.117316 354.837188)scale(0.22 -0.22)">
       <defs>
        <path id="DejaVuSans-36" d="M 2113 2584 
Q 1688 2584 1439 2293 
Q 1191 2003 1191 1497 
Q 1191 994 1439 701 
Q 1688 409 2113 409 
Q 2538 409 2786 701 
Q 3034 994 3034 1497 
Q 3034 2003 2786 2293 
Q 2538 2584 2113 2584 
z
M 3366 4563 
L 3366 3988 
Q 3128 4100 2886 4159 
Q 2644 4219 2406 4219 
Q 1781 4219 1451 3797 
Q 1122 3375 1075 2522 
Q 1259 2794 1537 2939 
Q 1816 3084 2150 3084 
Q 2853 3084 3261 2657 
Q 3669 2231 3669 1497 
Q 3669 778 3244 343 
Q 2819 -91 2113 -91 
Q 1303 -91 875 529 
Q 447 1150 447 2328 
Q 447 3434 972 4092 
Q 1497 4750 2381 4750 
Q 2619 4750 2861 4703 
Q 3103 4656 3366 4563 
z
" transform="scale(0.015625)"/>
       </defs>
       <use xlink:href="#DejaVuSans-36"/>
       <use xlink:href="#DejaVuSans-30" x="63.623047"/>
      </g>
     </g>
    </g>
    <g id="xtick_8">
     <g id="line2d_15">
      <path d="M 755.80489 331.120625 
L 755.80489 23.76 
" clip-path="url(#pe07cec73af)" style="fill: none; stroke: #b0b0b0; stroke-width: 0.8; stroke-linecap: square"/>
     </g>
     <g id="line2d_16">
      <g>
       <use xlink:href="#mbf6c4f908d" x="755.80489" y="331.120625" style="stroke: #000000; stroke-width: 0.8"/>
      </g>
     </g>
     <g id="text_8">
      <!-- 70 -->
      <g transform="translate(741.80739 354.837188)scale(0.22 -0.22)">
       <defs>
        <path id="DejaVuSans-37" d="M 525 4666 
L 3525 4666 
L 3525 4397 
L 1831 0 
L 1172 0 
L 2766 4134 
L 525 4134 
L 525 4666 
z
" transform="scale(0.015625)"/>
       </defs>
       <use xlink:href="#DejaVuSans-37"/>
       <use xlink:href="#DejaVuSans-30" x="63.623047"/>
      </g>
     </g>
    </g>
    <g id="xtick_9">
     <g id="line2d_17">
      <path d="M 850.494963 331.120625 
L 850.494963 23.76 
" clip-path="url(#pe07cec73af)" style="fill: none; stroke: #b0b0b0; stroke-width: 0.8; stroke-linecap: square"/>
     </g>
     <g id="line2d_18">
      <g>
       <use xlink:href="#mbf6c4f908d" x="850.494963" y="331.120625" style="stroke: #000000; stroke-width: 0.8"/>
      </g>
     </g>
     <g id="text_9">
      <!-- 80 -->
      <g transform="translate(836.497463 354.837188)scale(0.22 -0.22)">
       <defs>
        <path id="DejaVuSans-38" d="M 2034 2216 
Q 1584 2216 1326 1975 
Q 1069 1734 1069 1313 
Q 1069 891 1326 650 
Q 1584 409 2034 409 
Q 2484 409 2743 651 
Q 3003 894 3003 1313 
Q 3003 1734 2745 1975 
Q 2488 2216 2034 2216 
z
M 1403 2484 
Q 997 2584 770 2862 
Q 544 3141 544 3541 
Q 544 4100 942 4425 
Q 1341 4750 2034 4750 
Q 2731 4750 3128 4425 
Q 3525 4100 3525 3541 
Q 3525 3141 3298 2862 
Q 3072 2584 2669 2484 
Q 3125 2378 3379 2068 
Q 3634 1759 3634 1313 
Q 3634 634 3220 271 
Q 2806 -91 2034 -91 
Q 1263 -91 848 271 
Q 434 634 434 1313 
Q 434 1759 690 2068 
Q 947 2378 1403 2484 
z
M 1172 3481 
Q 1172 3119 1398 2916 
Q 1625 2713 2034 2713 
Q 2441 2713 2670 2916 
Q 2900 3119 2900 3481 
Q 2900 3844 2670 4047 
Q 2441 4250 2034 4250 
Q 1625 4250 1398 4047 
Q 1172 3844 1172 3481 
z
" transform="scale(0.015625)"/>
       </defs>
       <use xlink:href="#DejaVuSans-38"/>
       <use xlink:href="#DejaVuSans-30" x="63.623047"/>
      </g>
     </g>
    </g>
    <g id="text_10">
     <!-- RTT (ms) -->
     <g transform="translate(442.372813 381.64875)scale(0.24 -0.24)">
      <defs>
       <path id="DejaVuSans-52" d="M 2841 2188 
Q 3044 2119 3236 1894 
Q 3428 1669 3622 1275 
L 4263 0 
L 3584 0 
L 2988 1197 
Q 2756 1666 2539 1819 
Q 2322 1972 1947 1972 
L 1259 1972 
L 1259 0 
L 628 0 
L 628 4666 
L 2053 4666 
Q 2853 4666 3247 4331 
Q 3641 3997 3641 3322 
Q 3641 2881 3436 2590 
Q 3231 2300 2841 2188 
z
M 1259 4147 
L 1259 2491 
L 2053 2491 
Q 2509 2491 2742 2702 
Q 2975 2913 2975 3322 
Q 2975 3731 2742 3939 
Q 2509 4147 2053 4147 
L 1259 4147 
z
" transform="scale(0.015625)"/>
       <path id="DejaVuSans-54" d="M -19 4666 
L 3928 4666 
L 3928 4134 
L 2272 4134 
L 2272 0 
L 1638 0 
L 1638 4134 
L -19 4134 
L -19 4666 
z
" transform="scale(0.015625)"/>
       <path id="DejaVuSans-20" transform="scale(0.015625)"/>
       <path id="DejaVuSans-28" d="M 1984 4856 
Q 1566 4138 1362 3434 
Q 1159 2731 1159 2009 
Q 1159 1288 1364 580 
Q 1569 -128 1984 -844 
L 1484 -844 
Q 1016 -109 783 600 
Q 550 1309 550 2009 
Q 550 2706 781 3412 
Q 1013 4119 1484 4856 
L 1984 4856 
z
" transform="scale(0.015625)"/>
       <path id="DejaVuSans-6d" d="M 3328 2828 
Q 3544 3216 3844 3400 
Q 4144 3584 4550 3584 
Q 5097 3584 5394 3201 
Q 5691 2819 5691 2113 
L 5691 0 
L 5113 0 
L 5113 2094 
Q 5113 2597 4934 2840 
Q 4756 3084 4391 3084 
Q 3944 3084 3684 2787 
Q 3425 2491 3425 1978 
L 3425 0 
L 2847 0 
L 2847 2094 
Q 2847 2600 2669 2842 
Q 2491 3084 2119 3084 
Q 1678 3084 1418 2786 
Q 1159 2488 1159 1978 
L 1159 0 
L 581 0 
L 581 3500 
L 1159 3500 
L 1159 2956 
Q 1356 3278 1631 3431 
Q 1906 3584 2284 3584 
Q 2666 3584 2933 3390 
Q 3200 3197 3328 2828 
z
" transform="scale(0.015625)"/>
       <path id="DejaVuSans-73" d="M 2834 3397 
L 2834 2853 
Q 2591 2978 2328 3040 
Q 2066 3103 1784 3103 
Q 1356 3103 1142 2972 
Q 928 2841 928 2578 
Q 928 2378 1081 2264 
Q 1234 2150 1697 2047 
L 1894 2003 
Q 2506 1872 2764 1633 
Q 3022 1394 3022 966 
Q 3022 478 2636 193 
Q 2250 -91 1575 -91 
Q 1294 -91 989 -36 
Q 684 19 347 128 
L 347 722 
Q 666 556 975 473 
Q 1284 391 1588 391 
Q 1994 391 2212 530 
Q 2431 669 2431 922 
Q 2431 1156 2273 1281 
Q 2116 1406 1581 1522 
L 1381 1569 
Q 847 1681 609 1914 
Q 372 2147 372 2553 
Q 372 3047 722 3315 
Q 1072 3584 1716 3584 
Q 2034 3584 2315 3537 
Q 2597 3491 2834 3397 
z
" transform="scale(0.015625)"/>
       <path id="DejaVuSans-29" d="M 513 4856 
L 1013 4856 
Q 1481 4119 1714 3412 
Q 1947 2706 1947 2009 
Q 1947 1309 1714 600 
Q 1481 -109 1013 -844 
L 513 -844 
Q 928 -128 1133 580 
Q 1338 1288 1338 2009 
Q 1338 2731 1133 3434 
Q 928 4138 513 4856 
z
" transform="scale(0.015625)"/>
      </defs>
      <use xlink:href="#DejaVuSans-52"/>
      <use xlink:href="#DejaVuSans-54" x="62.232422"/>
      <use xlink:href="#DejaVuSans-54" x="121.566406"/>
      <use xlink:href="#DejaVuSans-20" x="182.650391"/>
      <use xlink:href="#DejaVuSans-28" x="214.4375"/>
      <use xlink:href="#DejaVuSans-6d" x="253.451172"/>
      <use xlink:href="#DejaVuSans-73" x="350.863281"/>
      <use xlink:href="#DejaVuSans-29" x="402.962891"/>
     </g>
    </g>
   </g>
   <g id="matplotlib.axis_2">
    <g id="ytick_1">
     <g id="line2d_19">
      <path d="M 92.974375 317.149688 
L 897.84 317.149688 
" clip-path="url(#pe07cec73af)" style="fill: none; stroke: #b0b0b0; stroke-width: 0.8; stroke-linecap: square"/>
     </g>
     <g id="line2d_20">
      <defs>
       <path id="mf795f38fe4" d="M 0 0 
L -3.5 0 
" style="stroke: #000000; stroke-width: 0.8"/>
      </defs>
      <g>
       <use xlink:href="#mf795f38fe4" x="92.974375" y="317.149688" style="stroke: #000000; stroke-width: 0.8"/>
      </g>
     </g>
     <g id="text_11">
      <!-- 0.0 -->
      <g transform="translate(50.9875 325.507969)scale(0.22 -0.22)">
       <defs>
        <path id="DejaVuSans-2e" d="M 684 794 
L 1344 794 
L 1344 0 
L 684 0 
L 684 794 
z
" transform="scale(0.015625)"/>
       </defs>
       <use xlink:href="#DejaVuSans-30"/>
       <use xlink:href="#DejaVuSans-2e" x="63.623047"/>
       <use xlink:href="#DejaVuSans-30" x="95.410156"/>
      </g>
     </g>
    </g>
    <g id="ytick_2">
     <g id="line2d_21">
      <path d="M 92.974375 261.265938 
L 897.84 261.265938 
" clip-path="url(#pe07cec73af)" style="fill: none; stroke: #b0b0b0; stroke-width: 0.8; stroke-linecap: square"/>
     </g>
     <g id="line2d_22">
      <g>
       <use xlink:href="#mf795f38fe4" x="92.974375" y="261.265938" style="stroke: #000000; stroke-width: 0.8"/>
      </g>
     </g>
     <g id="text_12">
      <!-- 0.2 -->
      <g transform="translate(50.9875 269.624219)scale(0.22 -0.22)">
       <use xlink:href="#DejaVuSans-30"/>
       <use xlink:href="#DejaVuSans-2e" x="63.623047"/>
       <use xlink:href="#DejaVuSans-32" x="95.410156"/>
      </g>
     </g>
    </g>
    <g id="ytick_3">
     <g id="line2d_23">
      <path d="M 92.974375 205.382188 
L 897.84 205.382188 
" clip-path="url(#pe07cec73af)" style="fill: none; stroke: #b0b0b0; stroke-width: 0.8; stroke-linecap: square"/>
     </g>
     <g id="line2d_24">
      <g>
       <use xlink:href="#mf795f38fe4" x="92.974375" y="205.382188" style="stroke: #000000; stroke-width: 0.8"/>
      </g>
     </g>
     <g id="text_13">
      <!-- 0.4 -->
      <g transform="translate(50.9875 213.740469)scale(0.22 -0.22)">
       <use xlink:href="#DejaVuSans-30"/>
       <use xlink:href="#DejaVuSans-2e" x="63.623047"/>
       <use xlink:href="#DejaVuSans-34" x="95.410156"/>
      </g>
     </g>
    </g>
    <g id="ytick_4">
     <g id="line2d_25">
      <path d="M 92.974375 149.498438 
L 897.84 149.498438 
" clip-path="url(#pe07cec73af)" style="fill: none; stroke: #b0b0b0; stroke-width: 0.8; stroke-linecap: square"/>
     </g>
     <g id="line2d_26">
      <g>
       <use xlink:href="#mf795f38fe4" x="92.974375" y="149.498438" style="stroke: #000000; stroke-width: 0.8"/>
      </g>
     </g>
     <g id="text_14">
      <!-- 0.6 -->
      <g transform="translate(50.9875 157.856719)scale(0.22 -0.22)">
       <use xlink:href="#DejaVuSans-30"/>
       <use xlink:href="#DejaVuSans-2e" x="63.623047"/>
       <use xlink:href="#DejaVuSans-36" x="95.410156"/>
      </g>
     </g>
    </g>
    <g id="ytick_5">
     <g id="line2d_27">
      <path d="M 92.974375 93.614688 
L 897.84 93.614688 
" clip-path="url(#pe07cec73af)" style="fill: none; stroke: #b0b0b0; stroke-width: 0.8; stroke-linecap: square"/>
     </g>
     <g id="line2d_28">
      <g>
       <use xlink:href="#mf795f38fe4" x="92.974375" y="93.614688" style="stroke: #000000; stroke-width: 0.8"/>
      </g>
     </g>
     <g id="text_15">
      <!-- 0.8 -->
      <g transform="translate(50.9875 101.972969)scale(0.22 -0.22)">
       <use xlink:href="#DejaVuSans-30"/>
       <use xlink:href="#DejaVuSans-2e" x="63.623047"/>
       <use xlink:href="#DejaVuSans-38" x="95.410156"/>
      </g>
     </g>
    </g>
    <g id="ytick_6">
     <g id="line2d_29">
      <path d="M 92.974375 37.730937 
L 897.84 37.730937 
" clip-path="url(#pe07cec73af)" style="fill: none; stroke: #b0b0b0; stroke-width: 0.8; stroke-linecap: square"/>
     </g>
     <g id="line2d_30">
      <g>
       <use xlink:href="#mf795f38fe4" x="92.974375" y="37.730937" style="stroke: #000000; stroke-width: 0.8"/>
      </g>
     </g>
     <g id="text_16">
      <!-- 1.0 -->
      <g transform="translate(50.9875 46.089219)scale(0.22 -0.22)">
       <use xlink:href="#DejaVuSans-31"/>
       <use xlink:href="#DejaVuSans-2e" x="63.623047"/>
       <use xlink:href="#DejaVuSans-30" x="95.410156"/>
      </g>
     </g>
    </g>
    <g id="text_17">
     <!-- Likelihood of occurrence -->
     <g transform="translate(41.99625 323.628438)rotate(-90)scale(0.24 -0.24)">
      <defs>
       <path id="DejaVuSans-4c" d="M 628 4666 
L 1259 4666 
L 1259 531 
L 3531 531 
L 3531 0 
L 628 0 
L 628 4666 
z
" transform="scale(0.015625)"/>
       <path id="DejaVuSans-69" d="M 603 3500 
L 1178 3500 
L 1178 0 
L 603 0 
L 603 3500 
z
M 603 4863 
L 1178 4863 
L 1178 4134 
L 603 4134 
L 603 4863 
z
" transform="scale(0.015625)"/>
       <path id="DejaVuSans-6b" d="M 581 4863 
L 1159 4863 
L 1159 1991 
L 2875 3500 
L 3609 3500 
L 1753 1863 
L 3688 0 
L 2938 0 
L 1159 1709 
L 1159 0 
L 581 0 
L 581 4863 
z
" transform="scale(0.015625)"/>
       <path id="DejaVuSans-65" d="M 3597 1894 
L 3597 1613 
L 953 1613 
Q 991 1019 1311 708 
Q 1631 397 2203 397 
Q 2534 397 2845 478 
Q 3156 559 3463 722 
L 3463 178 
Q 3153 47 2828 -22 
Q 2503 -91 2169 -91 
Q 1331 -91 842 396 
Q 353 884 353 1716 
Q 353 2575 817 3079 
Q 1281 3584 2069 3584 
Q 2775 3584 3186 3129 
Q 3597 2675 3597 1894 
z
M 3022 2063 
Q 3016 2534 2758 2815 
Q 2500 3097 2075 3097 
Q 1594 3097 1305 2825 
Q 1016 2553 972 2059 
L 3022 2063 
z
" transform="scale(0.015625)"/>
       <path id="DejaVuSans-6c" d="M 603 4863 
L 1178 4863 
L 1178 0 
L 603 0 
L 603 4863 
z
" transform="scale(0.015625)"/>
       <path id="DejaVuSans-68" d="M 3513 2113 
L 3513 0 
L 2938 0 
L 2938 2094 
Q 2938 2591 2744 2837 
Q 2550 3084 2163 3084 
Q 1697 3084 1428 2787 
Q 1159 2491 1159 1978 
L 1159 0 
L 581 0 
L 581 4863 
L 1159 4863 
L 1159 2956 
Q 1366 3272 1645 3428 
Q 1925 3584 2291 3584 
Q 2894 3584 3203 3211 
Q 3513 2838 3513 2113 
z
" transform="scale(0.015625)"/>
       <path id="DejaVuSans-6f" d="M 1959 3097 
Q 1497 3097 1228 2736 
Q 959 2375 959 1747 
Q 959 1119 1226 758 
Q 1494 397 1959 397 
Q 2419 397 2687 759 
Q 2956 1122 2956 1747 
Q 2956 2369 2687 2733 
Q 2419 3097 1959 3097 
z
M 1959 3584 
Q 2709 3584 3137 3096 
Q 3566 2609 3566 1747 
Q 3566 888 3137 398 
Q 2709 -91 1959 -91 
Q 1206 -91 779 398 
Q 353 888 353 1747 
Q 353 2609 779 3096 
Q 1206 3584 1959 3584 
z
" transform="scale(0.015625)"/>
       <path id="DejaVuSans-64" d="M 2906 2969 
L 2906 4863 
L 3481 4863 
L 3481 0 
L 2906 0 
L 2906 525 
Q 2725 213 2448 61 
Q 2172 -91 1784 -91 
Q 1150 -91 751 415 
Q 353 922 353 1747 
Q 353 2572 751 3078 
Q 1150 3584 1784 3584 
Q 2172 3584 2448 3432 
Q 2725 3281 2906 2969 
z
M 947 1747 
Q 947 1113 1208 752 
Q 1469 391 1925 391 
Q 2381 391 2643 752 
Q 2906 1113 2906 1747 
Q 2906 2381 2643 2742 
Q 2381 3103 1925 3103 
Q 1469 3103 1208 2742 
Q 947 2381 947 1747 
z
" transform="scale(0.015625)"/>
       <path id="DejaVuSans-66" d="M 2375 4863 
L 2375 4384 
L 1825 4384 
Q 1516 4384 1395 4259 
Q 1275 4134 1275 3809 
L 1275 3500 
L 2222 3500 
L 2222 3053 
L 1275 3053 
L 1275 0 
L 697 0 
L 697 3053 
L 147 3053 
L 147 3500 
L 697 3500 
L 697 3744 
Q 697 4328 969 4595 
Q 1241 4863 1831 4863 
L 2375 4863 
z
" transform="scale(0.015625)"/>
       <path id="DejaVuSans-63" d="M 3122 3366 
L 3122 2828 
Q 2878 2963 2633 3030 
Q 2388 3097 2138 3097 
Q 1578 3097 1268 2742 
Q 959 2388 959 1747 
Q 959 1106 1268 751 
Q 1578 397 2138 397 
Q 2388 397 2633 464 
Q 2878 531 3122 666 
L 3122 134 
Q 2881 22 2623 -34 
Q 2366 -91 2075 -91 
Q 1284 -91 818 406 
Q 353 903 353 1747 
Q 353 2603 823 3093 
Q 1294 3584 2113 3584 
Q 2378 3584 2631 3529 
Q 2884 3475 3122 3366 
z
" transform="scale(0.015625)"/>
       <path id="DejaVuSans-75" d="M 544 1381 
L 544 3500 
L 1119 3500 
L 1119 1403 
Q 1119 906 1312 657 
Q 1506 409 1894 409 
Q 2359 409 2629 706 
Q 2900 1003 2900 1516 
L 2900 3500 
L 3475 3500 
L 3475 0 
L 2900 0 
L 2900 538 
Q 2691 219 2414 64 
Q 2138 -91 1772 -91 
Q 1169 -91 856 284 
Q 544 659 544 1381 
z
M 1991 3584 
L 1991 3584 
z
" transform="scale(0.015625)"/>
       <path id="DejaVuSans-72" d="M 2631 2963 
Q 2534 3019 2420 3045 
Q 2306 3072 2169 3072 
Q 1681 3072 1420 2755 
Q 1159 2438 1159 1844 
L 1159 0 
L 581 0 
L 581 3500 
L 1159 3500 
L 1159 2956 
Q 1341 3275 1631 3429 
Q 1922 3584 2338 3584 
Q 2397 3584 2469 3576 
Q 2541 3569 2628 3553 
L 2631 2963 
z
" transform="scale(0.015625)"/>
       <path id="DejaVuSans-6e" d="M 3513 2113 
L 3513 0 
L 2938 0 
L 2938 2094 
Q 2938 2591 2744 2837 
Q 2550 3084 2163 3084 
Q 1697 3084 1428 2787 
Q 1159 2491 1159 1978 
L 1159 0 
L 581 0 
L 581 3500 
L 1159 3500 
L 1159 2956 
Q 1366 3272 1645 3428 
Q 1925 3584 2291 3584 
Q 2894 3584 3203 3211 
Q 3513 2838 3513 2113 
z
" transform="scale(0.015625)"/>
      </defs>
      <use xlink:href="#DejaVuSans-4c"/>
      <use xlink:href="#DejaVuSans-69" x="55.712891"/>
      <use xlink:href="#DejaVuSans-6b" x="83.496094"/>
      <use xlink:href="#DejaVuSans-65" x="137.78125"/>
      <use xlink:href="#DejaVuSans-6c" x="199.304688"/>
      <use xlink:href="#DejaVuSans-69" x="227.087891"/>
      <use xlink:href="#DejaVuSans-68" x="254.871094"/>
      <use xlink:href="#DejaVuSans-6f" x="318.25"/>
      <use xlink:href="#DejaVuSans-6f" x="379.431641"/>
      <use xlink:href="#DejaVuSans-64" x="440.613281"/>
      <use xlink:href="#DejaVuSans-20" x="504.089844"/>
      <use xlink:href="#DejaVuSans-6f" x="535.876953"/>
      <use xlink:href="#DejaVuSans-66" x="597.058594"/>
      <use xlink:href="#DejaVuSans-20" x="632.263672"/>
      <use xlink:href="#DejaVuSans-6f" x="664.050781"/>
      <use xlink:href="#DejaVuSans-63" x="725.232422"/>
      <use xlink:href="#DejaVuSans-63" x="780.212891"/>
      <use xlink:href="#DejaVuSans-75" x="835.193359"/>
      <use xlink:href="#DejaVuSans-72" x="898.572266"/>
      <use xlink:href="#DejaVuSans-72" x="937.935547"/>
      <use xlink:href="#DejaVuSans-65" x="976.798828"/>
      <use xlink:href="#DejaVuSans-6e" x="1038.322266"/>
      <use xlink:href="#DejaVuSans-63" x="1101.701172"/>
      <use xlink:href="#DejaVuSans-65" x="1156.681641"/>
     </g>
    </g>
   </g>
   <g id="line2d_31">
    <path d="M 92.974375 317.149688 
L 134.791042 317.046926 
L 134.905818 316.831616 
L 135.67099 314.245447 
L 135.9388 314.057051 
L 136.646585 313.986096 
L 139.286429 313.895568 
L 139.343817 313.592177 
L 139.630757 308.512814 
L 140.472446 254.651022 
L 140.64461 253.332248 
L 141.065455 252.46856 
L 141.581946 252.263037 
L 143.571394 252.118681 
L 143.992239 252.033047 
L 144.087885 251.790823 
L 144.374825 248.656592 
L 145.06348 223.494665 
L 145.503454 220.145124 
L 146.039075 219.217822 
L 147.26335 218.713801 
L 149.061505 218.376155 
L 149.157152 218.072764 
L 149.348445 217.605443 
L 149.711902 216.646334 
L 150.017971 216.401663 
L 150.343169 216.254861 
L 150.438816 216.120292 
L 150.630109 215.912322 
L 151.318764 215.515956 
L 151.911772 215.251711 
L 152.715203 214.833324 
L 153.556893 213.835068 
L 153.843832 213.470509 
L 154.073384 212.734051 
L 154.436841 212.031846 
L 154.685522 211.882597 
L 155.355048 211.662393 
L 157.114944 211.109438 
L 157.822728 210.338725 
L 158.205315 209.553332 
L 158.396608 207.93606 
L 158.492254 205.69977 
L 158.60703 199.203765 
L 158.779194 189.901388 
L 159.276556 175.612623 
L 159.601754 173.853441 
L 159.888694 173.540263 
L 160.500831 173.351866 
L 162.279857 173.028901 
L 162.987641 172.162767 
L 163.159805 170.895373 
L 163.331969 165.652082 
L 163.523262 156.748518 
L 163.982365 145.745679 
L 164.42234 143.895969 
L 164.766667 143.722253 
L 167.44477 143.274506 
L 167.865615 142.716657 
L 168.037779 141.706167 
L 168.764692 133.678524 
L 169.032503 133.0277 
L 169.644641 132.692501 
L 170.48633 132.486978 
L 170.735011 132.384216 
L 171.002821 132.244754 
L 171.519313 132.00253 
L 171.710606 131.552336 
L 171.959287 131.050762 
L 172.265356 130.835451 
L 172.839235 130.73269 
L 173.967864 130.33143 
L 174.216545 130.047612 
L 174.618261 129.11297 
L 176.205993 128.425446 
L 176.416416 128.322684 
L 176.703355 128.085354 
L 177.028553 127.997272 
L 177.583303 127.899404 
L 178.291088 127.407616 
L 178.903226 127.221666 
L 179.037131 126.950082 
L 179.209294 126.66137 
L 179.419717 126.524355 
L 180.031855 126.260111 
L 180.835286 126.066821 
L 181.523941 125.875978 
L 182.136079 125.305895 
L 182.346501 124.226898 
L 182.499535 121.029053 
L 182.786475 115.903203 
L 183.092544 114.337311 
L 183.360354 114.033919 
L 183.589906 113.916477 
L 184.125527 113.808822 
L 184.833311 113.740315 
L 185.923682 113.495644 
L 186.478431 113.035663 
L 186.822759 111.751142 
L 187.090569 107.506107 
L 187.224474 99.072311 
L 187.415768 89.659831 
L 187.62619 87.516517 
L 188.066164 85.935945 
L 189.080017 85.66436 
L 189.787802 85.595852 
L 190.954689 85.343842 
L 191.432922 84.86184 
L 191.719862 83.748589 
L 191.796379 82.525236 
L 191.949413 78.018403 
L 192.140707 73.259559 
L 192.332 72.735964 
L 193.020655 72.25641 
L 193.364982 72.146308 
L 197.114327 71.299748 
L 197.879499 71.189646 
L 198.376861 70.940082 
L 199.23768 70.722325 
L 199.620266 70.65137 
L 199.926335 70.543715 
L 200.863671 69.954059 
L 201.43755 69.853744 
L 201.858395 69.709389 
L 202.604438 69.599287 
L 203.522645 69.364403 
L 204.842567 68.916656 
L 205.03386 68.752726 
L 205.837291 68.219344 
L 205.990325 67.771597 
L 206.162489 65.858273 
L 206.392041 63.864207 
L 206.640722 63.00786 
L 206.927661 62.498945 
L 207.176342 62.396183 
L 207.979773 62.300762 
L 209.471859 62.193107 
L 210.198773 61.897055 
L 210.428325 61.561857 
L 210.657876 60.722636 
L 210.734394 59.951924 
L 211.250885 51.503447 
L 211.824764 51.072827 
L 212.379514 50.972512 
L 214.273316 50.86975 
L 214.521997 50.813476 
L 215.172393 50.544338 
L 215.440203 50.062337 
L 215.937565 46.999061 
L 216.415798 46.933 
L 218.175694 46.818005 
L 219.189548 46.707903 
L 220.356436 46.448552 
L 221.944168 45.942084 
L 222.365013 45.369554 
L 222.690211 44.68937 
L 223.225832 44.236729 
L 223.81884 43.979825 
L 224.029263 43.894191 
L 224.507495 43.825683 
L 226.248262 43.718028 
L 226.745624 43.703348 
L 228.888107 43.593246 
L 231.374917 43.385276 
L 234.263442 43.275174 
L 235.353813 42.83966 
L 236.405925 42.815193 
L 237.6302 42.707538 
L 238.7397 42.259791 
L 241.398674 42.0298 
L 242.221234 41.922145 
L 242.852501 41.870765 
L 246.793139 41.765556 
L 247.175725 41.650561 
L 247.921768 41.572266 
L 248.495647 41.462165 
L 251.709371 41.16122 
L 253.316233 41.060905 
L 253.985759 40.532416 
L 254.463991 40.466355 
L 256.874284 40.356253 
L 257.907267 40.114029 
L 258.213336 39.839998 
L 258.481146 39.419165 
L 258.710698 39.360444 
L 259.131542 39.31151 
L 262.23049 39.206301 
L 263.244344 38.934717 
L 263.779964 38.907803 
L 265.27205 38.800148 
L 265.884188 38.533457 
L 266.515455 38.330381 
L 270.2648 38.220279 
L 271.412558 38.183578 
L 279.10254 38.073476 
L 282.641462 37.730938 
L 284.248324 37.730938 
L 284.248324 37.730938 
" clip-path="url(#pe07cec73af)" style="fill: none; stroke: #1f77b4; stroke-width: 2; stroke-linecap: square"/>
   </g>
   <g id="line2d_32">
    <path d="M 92.974375 317.149688 
L 134.924947 317.039387 
L 135.039723 316.208755 
L 135.498826 311.787722 
L 135.977059 311.684174 
L 139.573369 311.598635 
L 139.630757 311.357774 
L 139.707274 308.861376 
L 140.013343 280.579369 
L 140.204636 264.943679 
L 140.434188 264.18508 
L 140.682869 264.07703 
L 141.122843 263.944219 
L 141.868886 263.878939 
L 143.265325 263.768638 
L 144.145273 263.561543 
L 144.298308 263.124842 
L 144.374825 262.064605 
L 144.585247 250.532551 
L 144.814799 231.857963 
L 144.967834 228.686255 
L 145.197385 228.326089 
L 145.675618 228.06722 
L 145.924299 227.641774 
L 146.153851 227.574243 
L 147.129445 227.457189 
L 148.028523 227.351391 
L 148.65979 227.243341 
L 148.94673 227.11053 
L 149.061505 226.878673 
L 149.138023 226.250635 
L 149.597126 219.931979 
L 149.750161 219.729386 
L 150.381428 219.409739 
L 150.87879 218.04336 
L 152.141324 217.93531 
L 152.715203 217.696701 
L 153.327341 216.751266 
L 153.63341 216.573434 
L 153.767315 216.247034 
L 153.843832 215.351122 
L 154.169031 209.511937 
L 154.436841 207.771886 
L 155.182884 207.332935 
L 155.431565 206.954761 
L 155.737634 206.837707 
L 157.019297 206.727406 
L 157.535789 206.504554 
L 157.78447 206.218672 
L 158.281832 205.896774 
L 158.473125 204.64745 
L 158.549642 202.828613 
L 159.219168 165.162041 
L 160.558219 164.653307 
L 161.342521 164.581274 
L 162.394633 164.347166 
L 162.968512 163.903712 
L 163.121547 163.023557 
L 163.255452 160.648715 
L 163.331969 153.902363 
L 163.638038 117.725976 
L 163.905848 112.134404 
L 164.250176 111.859778 
L 165.110995 111.672942 
L 166.297012 111.562641 
L 167.789098 111.101179 
L 167.980391 110.466387 
L 168.056908 108.620538 
L 168.382106 95.557781 
L 168.55427 94.049588 
L 168.726434 93.898768 
L 171.002821 93.475574 
L 171.653218 93.31575 
L 172.054933 92.72823 
L 172.686201 92.62018 
L 172.877494 92.413085 
L 172.954011 91.971882 
L 173.24095 90.01123 
L 173.451373 89.954954 
L 174.159157 89.860411 
L 174.235674 89.689332 
L 174.465226 89.173845 
L 174.694778 89.104063 
L 176.359028 88.827186 
L 176.684226 88.181139 
L 176.971165 88.138369 
L 177.67895 87.881751 
L 177.985019 87.017353 
L 178.21457 86.963329 
L 178.941484 86.776493 
L 179.61101 86.215985 
L 181.198742 85.941359 
L 181.390036 85.83556 
L 182.174337 85.57444 
L 182.36563 84.597491 
L 182.461277 80.709953 
L 182.671699 75.600103 
L 182.843863 74.742458 
L 183.073415 74.656919 
L 186.7845 74.118922 
L 186.880147 73.8533 
L 187.090569 71.500968 
L 187.167087 65.596502 
L 187.377509 53.254076 
L 187.587931 52.445955 
L 188.869595 52.256868 
L 190.610362 52.146567 
L 190.992948 52.08804 
L 191.528569 51.97999 
L 191.700732 51.725623 
L 191.815508 51.306931 
L 191.892026 50.089121 
L 192.083319 47.160524 
L 192.31287 46.93542 
L 195.048361 46.503222 
L 197.554301 46.023751 
L 199.811559 45.917953 
L 200.098499 45.701853 
L 200.34718 45.413721 
L 201.533197 45.30342 
L 202.145335 45.271905 
L 204.459981 45.163856 
L 204.842567 44.965765 
L 205.110377 44.882476 
L 206.105101 44.778929 
L 206.353782 44.605599 
L 206.774627 44.571834 
L 210.485713 44.461533 
L 210.791782 44.339977 
L 211.11698 44.004573 
L 211.556954 43.966305 
L 213.986376 43.858255 
L 214.502867 43.790724 
L 215.057617 43.680424 
L 218.233082 43.417052 
L 219.859074 43.306752 
L 221.88678 42.960092 
L 222.135461 42.768754 
L 222.307625 42.320798 
L 222.651952 40.850872 
L 222.881504 40.51997 
L 224.277944 39.984224 
L 228.027288 39.873923 
L 229.194176 39.846911 
L 233.440882 39.73661 
L 235.411201 39.615054 
L 237.515425 39.504753 
L 237.955399 39.293156 
L 238.376243 39.045542 
L 240.212657 38.935241 
L 241.303028 38.917233 
L 242.33601 38.806932 
L 242.986407 38.766414 
L 244.076777 38.748405 
L 246.927044 38.644858 
L 247.673087 38.327462 
L 249.203432 38.25768 
L 250.427707 38.151881 
L 250.829423 38.12712 
L 256.281276 38.016819 
L 259.648034 37.730938 
L 284.248324 37.730938 
L 284.248324 37.730938 
" clip-path="url(#pe07cec73af)" style="fill: none; stroke: #ff7f0e; stroke-width: 2; stroke-linecap: square"/>
   </g>
   <g id="patch_3">
    <path d="M 92.974375 331.120625 
L 92.974375 23.76 
" style="fill: none; stroke: #000000; stroke-width: 0.8; stroke-linejoin: miter; stroke-linecap: square"/>
   </g>
   <g id="patch_4">
    <path d="M 897.84 331.120625 
L 897.84 23.76 
" style="fill: none; stroke: #000000; stroke-width: 0.8; stroke-linejoin: miter; stroke-linecap: square"/>
   </g>
   <g id="patch_5">
    <path d="M 92.974375 331.120625 
L 897.84 331.120625 
" style="fill: none; stroke: #000000; stroke-width: 0.8; stroke-linejoin: miter; stroke-linecap: square"/>
   </g>
   <g id="patch_6">
    <path d="M 92.974375 23.76 
L 897.84 23.76 
" style="fill: none; stroke: #000000; stroke-width: 0.8; stroke-linejoin: miter; stroke-linecap: square"/>
   </g>
   <g id="legend_1">
    <g id="patch_7">
     <path d="M 634.67625 114.0825 
L 881.04 114.0825 
Q 885.84 114.0825 885.84 109.2825 
L 885.84 40.56 
Q 885.84 35.76 881.04 35.76 
L 634.67625 35.76 
Q 629.87625 35.76 629.87625 40.56 
L 629.87625 109.2825 
Q 629.87625 114.0825 634.67625 114.0825 
z
" style="fill: #ffffff; opacity: 0.8; stroke: #cccccc; stroke-linejoin: miter"/>
    </g>
    <g id="line2d_33">
     <path d="M 639.47625 55.19625 
L 663.47625 55.19625 
L 687.47625 55.19625 
" style="fill: none; stroke: #1f77b4; stroke-width: 2; stroke-linecap: square"/>
    </g>
    <g id="text_18">
     <!-- basic_prealloc -->
     <g transform="translate(706.67625 63.59625)scale(0.24 -0.24)">
      <defs>
       <path id="DejaVuSans-62" d="M 3116 1747 
Q 3116 2381 2855 2742 
Q 2594 3103 2138 3103 
Q 1681 3103 1420 2742 
Q 1159 2381 1159 1747 
Q 1159 1113 1420 752 
Q 1681 391 2138 391 
Q 2594 391 2855 752 
Q 3116 1113 3116 1747 
z
M 1159 2969 
Q 1341 3281 1617 3432 
Q 1894 3584 2278 3584 
Q 2916 3584 3314 3078 
Q 3713 2572 3713 1747 
Q 3713 922 3314 415 
Q 2916 -91 2278 -91 
Q 1894 -91 1617 61 
Q 1341 213 1159 525 
L 1159 0 
L 581 0 
L 581 4863 
L 1159 4863 
L 1159 2969 
z
" transform="scale(0.015625)"/>
       <path id="DejaVuSans-61" d="M 2194 1759 
Q 1497 1759 1228 1600 
Q 959 1441 959 1056 
Q 959 750 1161 570 
Q 1363 391 1709 391 
Q 2188 391 2477 730 
Q 2766 1069 2766 1631 
L 2766 1759 
L 2194 1759 
z
M 3341 1997 
L 3341 0 
L 2766 0 
L 2766 531 
Q 2569 213 2275 61 
Q 1981 -91 1556 -91 
Q 1019 -91 701 211 
Q 384 513 384 1019 
Q 384 1609 779 1909 
Q 1175 2209 1959 2209 
L 2766 2209 
L 2766 2266 
Q 2766 2663 2505 2880 
Q 2244 3097 1772 3097 
Q 1472 3097 1187 3025 
Q 903 2953 641 2809 
L 641 3341 
Q 956 3463 1253 3523 
Q 1550 3584 1831 3584 
Q 2591 3584 2966 3190 
Q 3341 2797 3341 1997 
z
" transform="scale(0.015625)"/>
       <path id="DejaVuSans-5f" d="M 3263 -1063 
L 3263 -1509 
L -63 -1509 
L -63 -1063 
L 3263 -1063 
z
" transform="scale(0.015625)"/>
       <path id="DejaVuSans-70" d="M 1159 525 
L 1159 -1331 
L 581 -1331 
L 581 3500 
L 1159 3500 
L 1159 2969 
Q 1341 3281 1617 3432 
Q 1894 3584 2278 3584 
Q 2916 3584 3314 3078 
Q 3713 2572 3713 1747 
Q 3713 922 3314 415 
Q 2916 -91 2278 -91 
Q 1894 -91 1617 61 
Q 1341 213 1159 525 
z
M 3116 1747 
Q 3116 2381 2855 2742 
Q 2594 3103 2138 3103 
Q 1681 3103 1420 2742 
Q 1159 2381 1159 1747 
Q 1159 1113 1420 752 
Q 1681 391 2138 391 
Q 2594 391 2855 752 
Q 3116 1113 3116 1747 
z
" transform="scale(0.015625)"/>
      </defs>
      <use xlink:href="#DejaVuSans-62"/>
      <use xlink:href="#DejaVuSans-61" x="63.476562"/>
      <use xlink:href="#DejaVuSans-73" x="124.755859"/>
      <use xlink:href="#DejaVuSans-69" x="176.855469"/>
      <use xlink:href="#DejaVuSans-63" x="204.638672"/>
      <use xlink:href="#DejaVuSans-5f" x="259.619141"/>
      <use xlink:href="#DejaVuSans-70" x="309.619141"/>
      <use xlink:href="#DejaVuSans-72" x="373.095703"/>
      <use xlink:href="#DejaVuSans-65" x="411.958984"/>
      <use xlink:href="#DejaVuSans-61" x="473.482422"/>
      <use xlink:href="#DejaVuSans-6c" x="534.761719"/>
      <use xlink:href="#DejaVuSans-6c" x="562.544922"/>
      <use xlink:href="#DejaVuSans-6f" x="590.328125"/>
      <use xlink:href="#DejaVuSans-63" x="651.509766"/>
     </g>
    </g>
    <g id="line2d_34">
     <path d="M 639.47625 91.09125 
L 663.47625 91.09125 
L 687.47625 91.09125 
" style="fill: none; stroke: #ff7f0e; stroke-width: 2; stroke-linecap: square"/>
    </g>
    <g id="text_19">
     <!-- Default -->
     <g transform="translate(706.67625 99.49125)scale(0.24 -0.24)">
      <defs>
       <path id="DejaVuSans-44" d="M 1259 4147 
L 1259 519 
L 2022 519 
Q 2988 519 3436 956 
Q 3884 1394 3884 2338 
Q 3884 3275 3436 3711 
Q 2988 4147 2022 4147 
L 1259 4147 
z
M 628 4666 
L 1925 4666 
Q 3281 4666 3915 4102 
Q 4550 3538 4550 2338 
Q 4550 1131 3912 565 
Q 3275 0 1925 0 
L 628 0 
L 628 4666 
z
" transform="scale(0.015625)"/>
       <path id="DejaVuSans-74" d="M 1172 4494 
L 1172 3500 
L 2356 3500 
L 2356 3053 
L 1172 3053 
L 1172 1153 
Q 1172 725 1289 603 
Q 1406 481 1766 481 
L 2356 481 
L 2356 0 
L 1766 0 
Q 1100 0 847 248 
Q 594 497 594 1153 
L 594 3053 
L 172 3053 
L 172 3500 
L 594 3500 
L 594 4494 
L 1172 4494 
z
" transform="scale(0.015625)"/>
      </defs>
      <use xlink:href="#DejaVuSans-44"/>
      <use xlink:href="#DejaVuSans-65" x="77.001953"/>
      <use xlink:href="#DejaVuSans-66" x="138.525391"/>
      <use xlink:href="#DejaVuSans-61" x="173.730469"/>
      <use xlink:href="#DejaVuSans-75" x="235.009766"/>
      <use xlink:href="#DejaVuSans-6c" x="298.388672"/>
      <use xlink:href="#DejaVuSans-74" x="326.171875"/>
     </g>
    </g>
   </g>
  </g>
 </g>
 <defs>
  <clipPath id="pe07cec73af">
   <rect x="92.974375" y="23.76" width="804.865625" height="307.360625"/>
  </clipPath>
 </defs>
</svg>
