<?xml version="1.0" encoding="utf-8" standalone="no"?>
<!DOCTYPE svg PUBLIC "-//W3C//DTD SVG 1.1//EN"
  "http://www.w3.org/Graphics/SVG/1.1/DTD/svg11.dtd">
<svg xmlns:xlink="http://www.w3.org/1999/xlink" width="921.6pt" height="410.4pt" viewBox="0 0 921.6 410.4" xmlns="http://www.w3.org/2000/svg" version="1.1">
 <metadata>
  <rdf:RDF xmlns:dc="http://purl.org/dc/elements/1.1/" xmlns:cc="http://creativecommons.org/ns#" xmlns:rdf="http://www.w3.org/1999/02/22-rdf-syntax-ns#">
   <cc:Work>
    <dc:type rdf:resource="http://purl.org/dc/dcmitype/StillImage"/>
    <dc:date>2023-05-08T14:30:48.210791</dc:date>
    <dc:format>image/svg+xml</dc:format>
    <dc:creator>
     <cc:Agent>
      <dc:title>Matplotlib v3.7.1, https://matplotlib.org/</dc:title>
     </cc:Agent>
    </dc:creator>
   </cc:Work>
  </rdf:RDF>
 </metadata>
 <defs>
  <style type="text/css">*{stroke-linejoin: round; stroke-linecap: butt}</style>
 </defs>
 <g id="figure_1">
  <g id="patch_1">
   <path d="M 0 410.4 
L 921.6 410.4 
L 921.6 0 
L 0 0 
z
" style="fill: #ffffff"/>
  </g>
  <g id="axes_1">
   <g id="patch_2">
    <path d="M 92.974375 331.120625 
L 897.84 331.120625 
L 897.84 23.76 
L 92.974375 23.76 
z
" style="fill: #ffffff"/>
   </g>
   <g id="matplotlib.axis_1">
    <g id="xtick_1">
     <g id="line2d_1">
      <path d="M 92.974375 331.120625 
L 92.974375 23.76 
" clip-path="url(#p0fd1a2b8a4)" style="fill: none; stroke: #b0b0b0; stroke-width: 0.8; stroke-linecap: square"/>
     </g>
     <g id="line2d_2">
      <defs>
       <path id="m33f555ec06" d="M 0 0 
L 0 3.5 
" style="stroke: #000000; stroke-width: 0.8"/>
      </defs>
      <g>
       <use xlink:href="#m33f555ec06" x="92.974375" y="331.120625" style="stroke: #000000; stroke-width: 0.8"/>
      </g>
     </g>
     <g id="text_1">
      <!-- 0.0 -->
      <g transform="translate(75.480938 354.837188) scale(0.22 -0.22)">
       <defs>
        <path id="DejaVuSans-30" d="M 2034 4250 
Q 1547 4250 1301 3770 
Q 1056 3291 1056 2328 
Q 1056 1369 1301 889 
Q 1547 409 2034 409 
Q 2525 409 2770 889 
Q 3016 1369 3016 2328 
Q 3016 3291 2770 3770 
Q 2525 4250 2034 4250 
z
M 2034 4750 
Q 2819 4750 3233 4129 
Q 3647 3509 3647 2328 
Q 3647 1150 3233 529 
Q 2819 -91 2034 -91 
Q 1250 -91 836 529 
Q 422 1150 422 2328 
Q 422 3509 836 4129 
Q 1250 4750 2034 4750 
z
" transform="scale(0.015625)"/>
        <path id="DejaVuSans-2e" d="M 684 794 
L 1344 794 
L 1344 0 
L 684 0 
L 684 794 
z
" transform="scale(0.015625)"/>
       </defs>
       <use xlink:href="#DejaVuSans-30"/>
       <use xlink:href="#DejaVuSans-2e" x="63.623047"/>
       <use xlink:href="#DejaVuSans-30" x="95.410156"/>
      </g>
     </g>
    </g>
    <g id="xtick_2">
     <g id="line2d_3">
      <path d="M 202.558624 331.120625 
L 202.558624 23.76 
" clip-path="url(#p0fd1a2b8a4)" style="fill: none; stroke: #b0b0b0; stroke-width: 0.8; stroke-linecap: square"/>
     </g>
     <g id="line2d_4">
      <g>
       <use xlink:href="#m33f555ec06" x="202.558624" y="331.120625" style="stroke: #000000; stroke-width: 0.8"/>
      </g>
     </g>
     <g id="text_2">
      <!-- 2.5 -->
      <g transform="translate(185.065186 354.837188) scale(0.22 -0.22)">
       <defs>
        <path id="DejaVuSans-32" d="M 1228 531 
L 3431 531 
L 3431 0 
L 469 0 
L 469 531 
Q 828 903 1448 1529 
Q 2069 2156 2228 2338 
Q 2531 2678 2651 2914 
Q 2772 3150 2772 3378 
Q 2772 3750 2511 3984 
Q 2250 4219 1831 4219 
Q 1534 4219 1204 4116 
Q 875 4013 500 3803 
L 500 4441 
Q 881 4594 1212 4672 
Q 1544 4750 1819 4750 
Q 2544 4750 2975 4387 
Q 3406 4025 3406 3419 
Q 3406 3131 3298 2873 
Q 3191 2616 2906 2266 
Q 2828 2175 2409 1742 
Q 1991 1309 1228 531 
z
" transform="scale(0.015625)"/>
        <path id="DejaVuSans-35" d="M 691 4666 
L 3169 4666 
L 3169 4134 
L 1269 4134 
L 1269 2991 
Q 1406 3038 1543 3061 
Q 1681 3084 1819 3084 
Q 2600 3084 3056 2656 
Q 3513 2228 3513 1497 
Q 3513 744 3044 326 
Q 2575 -91 1722 -91 
Q 1428 -91 1123 -41 
Q 819 9 494 109 
L 494 744 
Q 775 591 1075 516 
Q 1375 441 1709 441 
Q 2250 441 2565 725 
Q 2881 1009 2881 1497 
Q 2881 1984 2565 2268 
Q 2250 2553 1709 2553 
Q 1456 2553 1204 2497 
Q 953 2441 691 2322 
L 691 4666 
z
" transform="scale(0.015625)"/>
       </defs>
       <use xlink:href="#DejaVuSans-32"/>
       <use xlink:href="#DejaVuSans-2e" x="63.623047"/>
       <use xlink:href="#DejaVuSans-35" x="95.410156"/>
      </g>
     </g>
    </g>
    <g id="xtick_3">
     <g id="line2d_5">
      <path d="M 312.142873 331.120625 
L 312.142873 23.76 
" clip-path="url(#p0fd1a2b8a4)" style="fill: none; stroke: #b0b0b0; stroke-width: 0.8; stroke-linecap: square"/>
     </g>
     <g id="line2d_6">
      <g>
       <use xlink:href="#m33f555ec06" x="312.142873" y="331.120625" style="stroke: #000000; stroke-width: 0.8"/>
      </g>
     </g>
     <g id="text_3">
      <!-- 5.0 -->
      <g transform="translate(294.649435 354.837188) scale(0.22 -0.22)">
       <use xlink:href="#DejaVuSans-35"/>
       <use xlink:href="#DejaVuSans-2e" x="63.623047"/>
       <use xlink:href="#DejaVuSans-30" x="95.410156"/>
      </g>
     </g>
    </g>
    <g id="xtick_4">
     <g id="line2d_7">
      <path d="M 421.727122 331.120625 
L 421.727122 23.76 
" clip-path="url(#p0fd1a2b8a4)" style="fill: none; stroke: #b0b0b0; stroke-width: 0.8; stroke-linecap: square"/>
     </g>
     <g id="line2d_8">
      <g>
       <use xlink:href="#m33f555ec06" x="421.727122" y="331.120625" style="stroke: #000000; stroke-width: 0.8"/>
      </g>
     </g>
     <g id="text_4">
      <!-- 7.5 -->
      <g transform="translate(404.233684 354.837188) scale(0.22 -0.22)">
       <defs>
        <path id="DejaVuSans-37" d="M 525 4666 
L 3525 4666 
L 3525 4397 
L 1831 0 
L 1172 0 
L 2766 4134 
L 525 4134 
L 525 4666 
z
" transform="scale(0.015625)"/>
       </defs>
       <use xlink:href="#DejaVuSans-37"/>
       <use xlink:href="#DejaVuSans-2e" x="63.623047"/>
       <use xlink:href="#DejaVuSans-35" x="95.410156"/>
      </g>
     </g>
    </g>
    <g id="xtick_5">
     <g id="line2d_9">
      <path d="M 531.311371 331.120625 
L 531.311371 23.76 
" clip-path="url(#p0fd1a2b8a4)" style="fill: none; stroke: #b0b0b0; stroke-width: 0.8; stroke-linecap: square"/>
     </g>
     <g id="line2d_10">
      <g>
       <use xlink:href="#m33f555ec06" x="531.311371" y="331.120625" style="stroke: #000000; stroke-width: 0.8"/>
      </g>
     </g>
     <g id="text_5">
      <!-- 10.0 -->
      <g transform="translate(506.819183 354.837188) scale(0.22 -0.22)">
       <defs>
        <path id="DejaVuSans-31" d="M 794 531 
L 1825 531 
L 1825 4091 
L 703 3866 
L 703 4441 
L 1819 4666 
L 2450 4666 
L 2450 531 
L 3481 531 
L 3481 0 
L 794 0 
L 794 531 
z
" transform="scale(0.015625)"/>
       </defs>
       <use xlink:href="#DejaVuSans-31"/>
       <use xlink:href="#DejaVuSans-30" x="63.623047"/>
       <use xlink:href="#DejaVuSans-2e" x="127.246094"/>
       <use xlink:href="#DejaVuSans-30" x="159.033203"/>
      </g>
     </g>
    </g>
    <g id="xtick_6">
     <g id="line2d_11">
      <path d="M 640.89562 331.120625 
L 640.89562 23.76 
" clip-path="url(#p0fd1a2b8a4)" style="fill: none; stroke: #b0b0b0; stroke-width: 0.8; stroke-linecap: square"/>
     </g>
     <g id="line2d_12">
      <g>
       <use xlink:href="#m33f555ec06" x="640.89562" y="331.120625" style="stroke: #000000; stroke-width: 0.8"/>
      </g>
     </g>
     <g id="text_6">
      <!-- 12.5 -->
      <g transform="translate(616.403432 354.837188) scale(0.22 -0.22)">
       <use xlink:href="#DejaVuSans-31"/>
       <use xlink:href="#DejaVuSans-32" x="63.623047"/>
       <use xlink:href="#DejaVuSans-2e" x="127.246094"/>
       <use xlink:href="#DejaVuSans-35" x="159.033203"/>
      </g>
     </g>
    </g>
    <g id="xtick_7">
     <g id="line2d_13">
      <path d="M 750.479869 331.120625 
L 750.479869 23.76 
" clip-path="url(#p0fd1a2b8a4)" style="fill: none; stroke: #b0b0b0; stroke-width: 0.8; stroke-linecap: square"/>
     </g>
     <g id="line2d_14">
      <g>
       <use xlink:href="#m33f555ec06" x="750.479869" y="331.120625" style="stroke: #000000; stroke-width: 0.8"/>
      </g>
     </g>
     <g id="text_7">
      <!-- 15.0 -->
      <g transform="translate(725.987681 354.837188) scale(0.22 -0.22)">
       <use xlink:href="#DejaVuSans-31"/>
       <use xlink:href="#DejaVuSans-35" x="63.623047"/>
       <use xlink:href="#DejaVuSans-2e" x="127.246094"/>
       <use xlink:href="#DejaVuSans-30" x="159.033203"/>
      </g>
     </g>
    </g>
    <g id="xtick_8">
     <g id="line2d_15">
      <path d="M 860.064118 331.120625 
L 860.064118 23.76 
" clip-path="url(#p0fd1a2b8a4)" style="fill: none; stroke: #b0b0b0; stroke-width: 0.8; stroke-linecap: square"/>
     </g>
     <g id="line2d_16">
      <g>
       <use xlink:href="#m33f555ec06" x="860.064118" y="331.120625" style="stroke: #000000; stroke-width: 0.8"/>
      </g>
     </g>
     <g id="text_8">
      <!-- 17.5 -->
      <g transform="translate(835.57193 354.837188) scale(0.22 -0.22)">
       <use xlink:href="#DejaVuSans-31"/>
       <use xlink:href="#DejaVuSans-37" x="63.623047"/>
       <use xlink:href="#DejaVuSans-2e" x="127.246094"/>
       <use xlink:href="#DejaVuSans-35" x="159.033203"/>
      </g>
     </g>
    </g>
    <g id="text_9">
     <!-- RTT (ms) -->
     <g transform="translate(442.372812 381.64875) scale(0.24 -0.24)">
      <defs>
       <path id="DejaVuSans-52" d="M 2841 2188 
Q 3044 2119 3236 1894 
Q 3428 1669 3622 1275 
L 4263 0 
L 3584 0 
L 2988 1197 
Q 2756 1666 2539 1819 
Q 2322 1972 1947 1972 
L 1259 1972 
L 1259 0 
L 628 0 
L 628 4666 
L 2053 4666 
Q 2853 4666 3247 4331 
Q 3641 3997 3641 3322 
Q 3641 2881 3436 2590 
Q 3231 2300 2841 2188 
z
M 1259 4147 
L 1259 2491 
L 2053 2491 
Q 2509 2491 2742 2702 
Q 2975 2913 2975 3322 
Q 2975 3731 2742 3939 
Q 2509 4147 2053 4147 
L 1259 4147 
z
" transform="scale(0.015625)"/>
       <path id="DejaVuSans-54" d="M -19 4666 
L 3928 4666 
L 3928 4134 
L 2272 4134 
L 2272 0 
L 1638 0 
L 1638 4134 
L -19 4134 
L -19 4666 
z
" transform="scale(0.015625)"/>
       <path id="DejaVuSans-20" transform="scale(0.015625)"/>
       <path id="DejaVuSans-28" d="M 1984 4856 
Q 1566 4138 1362 3434 
Q 1159 2731 1159 2009 
Q 1159 1288 1364 580 
Q 1569 -128 1984 -844 
L 1484 -844 
Q 1016 -109 783 600 
Q 550 1309 550 2009 
Q 550 2706 781 3412 
Q 1013 4119 1484 4856 
L 1984 4856 
z
" transform="scale(0.015625)"/>
       <path id="DejaVuSans-6d" d="M 3328 2828 
Q 3544 3216 3844 3400 
Q 4144 3584 4550 3584 
Q 5097 3584 5394 3201 
Q 5691 2819 5691 2113 
L 5691 0 
L 5113 0 
L 5113 2094 
Q 5113 2597 4934 2840 
Q 4756 3084 4391 3084 
Q 3944 3084 3684 2787 
Q 3425 2491 3425 1978 
L 3425 0 
L 2847 0 
L 2847 2094 
Q 2847 2600 2669 2842 
Q 2491 3084 2119 3084 
Q 1678 3084 1418 2786 
Q 1159 2488 1159 1978 
L 1159 0 
L 581 0 
L 581 3500 
L 1159 3500 
L 1159 2956 
Q 1356 3278 1631 3431 
Q 1906 3584 2284 3584 
Q 2666 3584 2933 3390 
Q 3200 3197 3328 2828 
z
" transform="scale(0.015625)"/>
       <path id="DejaVuSans-73" d="M 2834 3397 
L 2834 2853 
Q 2591 2978 2328 3040 
Q 2066 3103 1784 3103 
Q 1356 3103 1142 2972 
Q 928 2841 928 2578 
Q 928 2378 1081 2264 
Q 1234 2150 1697 2047 
L 1894 2003 
Q 2506 1872 2764 1633 
Q 3022 1394 3022 966 
Q 3022 478 2636 193 
Q 2250 -91 1575 -91 
Q 1294 -91 989 -36 
Q 684 19 347 128 
L 347 722 
Q 666 556 975 473 
Q 1284 391 1588 391 
Q 1994 391 2212 530 
Q 2431 669 2431 922 
Q 2431 1156 2273 1281 
Q 2116 1406 1581 1522 
L 1381 1569 
Q 847 1681 609 1914 
Q 372 2147 372 2553 
Q 372 3047 722 3315 
Q 1072 3584 1716 3584 
Q 2034 3584 2315 3537 
Q 2597 3491 2834 3397 
z
" transform="scale(0.015625)"/>
       <path id="DejaVuSans-29" d="M 513 4856 
L 1013 4856 
Q 1481 4119 1714 3412 
Q 1947 2706 1947 2009 
Q 1947 1309 1714 600 
Q 1481 -109 1013 -844 
L 513 -844 
Q 928 -128 1133 580 
Q 1338 1288 1338 2009 
Q 1338 2731 1133 3434 
Q 928 4138 513 4856 
z
" transform="scale(0.015625)"/>
      </defs>
      <use xlink:href="#DejaVuSans-52"/>
      <use xlink:href="#DejaVuSans-54" x="62.232422"/>
      <use xlink:href="#DejaVuSans-54" x="121.566406"/>
      <use xlink:href="#DejaVuSans-20" x="182.650391"/>
      <use xlink:href="#DejaVuSans-28" x="214.4375"/>
      <use xlink:href="#DejaVuSans-6d" x="253.451172"/>
      <use xlink:href="#DejaVuSans-73" x="350.863281"/>
      <use xlink:href="#DejaVuSans-29" x="402.962891"/>
     </g>
    </g>
   </g>
   <g id="matplotlib.axis_2">
    <g id="ytick_1">
     <g id="line2d_17">
      <path d="M 92.974375 317.149688 
L 897.84 317.149688 
" clip-path="url(#p0fd1a2b8a4)" style="fill: none; stroke: #b0b0b0; stroke-width: 0.8; stroke-linecap: square"/>
     </g>
     <g id="line2d_18">
      <defs>
       <path id="me99c7cef20" d="M 0 0 
L -3.5 0 
" style="stroke: #000000; stroke-width: 0.8"/>
      </defs>
      <g>
       <use xlink:href="#me99c7cef20" x="92.974375" y="317.149688" style="stroke: #000000; stroke-width: 0.8"/>
      </g>
     </g>
     <g id="text_10">
      <!-- 0.0 -->
      <g transform="translate(50.9875 325.507969) scale(0.22 -0.22)">
       <use xlink:href="#DejaVuSans-30"/>
       <use xlink:href="#DejaVuSans-2e" x="63.623047"/>
       <use xlink:href="#DejaVuSans-30" x="95.410156"/>
      </g>
     </g>
    </g>
    <g id="ytick_2">
     <g id="line2d_19">
      <path d="M 92.974375 261.265938 
L 897.84 261.265938 
" clip-path="url(#p0fd1a2b8a4)" style="fill: none; stroke: #b0b0b0; stroke-width: 0.8; stroke-linecap: square"/>
     </g>
     <g id="line2d_20">
      <g>
       <use xlink:href="#me99c7cef20" x="92.974375" y="261.265938" style="stroke: #000000; stroke-width: 0.8"/>
      </g>
     </g>
     <g id="text_11">
      <!-- 0.2 -->
      <g transform="translate(50.9875 269.624219) scale(0.22 -0.22)">
       <use xlink:href="#DejaVuSans-30"/>
       <use xlink:href="#DejaVuSans-2e" x="63.623047"/>
       <use xlink:href="#DejaVuSans-32" x="95.410156"/>
      </g>
     </g>
    </g>
    <g id="ytick_3">
     <g id="line2d_21">
      <path d="M 92.974375 205.382188 
L 897.84 205.382188 
" clip-path="url(#p0fd1a2b8a4)" style="fill: none; stroke: #b0b0b0; stroke-width: 0.8; stroke-linecap: square"/>
     </g>
     <g id="line2d_22">
      <g>
       <use xlink:href="#me99c7cef20" x="92.974375" y="205.382188" style="stroke: #000000; stroke-width: 0.8"/>
      </g>
     </g>
     <g id="text_12">
      <!-- 0.4 -->
      <g transform="translate(50.9875 213.740469) scale(0.22 -0.22)">
       <defs>
        <path id="DejaVuSans-34" d="M 2419 4116 
L 825 1625 
L 2419 1625 
L 2419 4116 
z
M 2253 4666 
L 3047 4666 
L 3047 1625 
L 3713 1625 
L 3713 1100 
L 3047 1100 
L 3047 0 
L 2419 0 
L 2419 1100 
L 313 1100 
L 313 1709 
L 2253 4666 
z
" transform="scale(0.015625)"/>
       </defs>
       <use xlink:href="#DejaVuSans-30"/>
       <use xlink:href="#DejaVuSans-2e" x="63.623047"/>
       <use xlink:href="#DejaVuSans-34" x="95.410156"/>
      </g>
     </g>
    </g>
    <g id="ytick_4">
     <g id="line2d_23">
      <path d="M 92.974375 149.498438 
L 897.84 149.498438 
" clip-path="url(#p0fd1a2b8a4)" style="fill: none; stroke: #b0b0b0; stroke-width: 0.8; stroke-linecap: square"/>
     </g>
     <g id="line2d_24">
      <g>
       <use xlink:href="#me99c7cef20" x="92.974375" y="149.498438" style="stroke: #000000; stroke-width: 0.8"/>
      </g>
     </g>
     <g id="text_13">
      <!-- 0.6 -->
      <g transform="translate(50.9875 157.856719) scale(0.22 -0.22)">
       <defs>
        <path id="DejaVuSans-36" d="M 2113 2584 
Q 1688 2584 1439 2293 
Q 1191 2003 1191 1497 
Q 1191 994 1439 701 
Q 1688 409 2113 409 
Q 2538 409 2786 701 
Q 3034 994 3034 1497 
Q 3034 2003 2786 2293 
Q 2538 2584 2113 2584 
z
M 3366 4563 
L 3366 3988 
Q 3128 4100 2886 4159 
Q 2644 4219 2406 4219 
Q 1781 4219 1451 3797 
Q 1122 3375 1075 2522 
Q 1259 2794 1537 2939 
Q 1816 3084 2150 3084 
Q 2853 3084 3261 2657 
Q 3669 2231 3669 1497 
Q 3669 778 3244 343 
Q 2819 -91 2113 -91 
Q 1303 -91 875 529 
Q 447 1150 447 2328 
Q 447 3434 972 4092 
Q 1497 4750 2381 4750 
Q 2619 4750 2861 4703 
Q 3103 4656 3366 4563 
z
" transform="scale(0.015625)"/>
       </defs>
       <use xlink:href="#DejaVuSans-30"/>
       <use xlink:href="#DejaVuSans-2e" x="63.623047"/>
       <use xlink:href="#DejaVuSans-36" x="95.410156"/>
      </g>
     </g>
    </g>
    <g id="ytick_5">
     <g id="line2d_25">
      <path d="M 92.974375 93.614688 
L 897.84 93.614688 
" clip-path="url(#p0fd1a2b8a4)" style="fill: none; stroke: #b0b0b0; stroke-width: 0.8; stroke-linecap: square"/>
     </g>
     <g id="line2d_26">
      <g>
       <use xlink:href="#me99c7cef20" x="92.974375" y="93.614688" style="stroke: #000000; stroke-width: 0.8"/>
      </g>
     </g>
     <g id="text_14">
      <!-- 0.8 -->
      <g transform="translate(50.9875 101.972969) scale(0.22 -0.22)">
       <defs>
        <path id="DejaVuSans-38" d="M 2034 2216 
Q 1584 2216 1326 1975 
Q 1069 1734 1069 1313 
Q 1069 891 1326 650 
Q 1584 409 2034 409 
Q 2484 409 2743 651 
Q 3003 894 3003 1313 
Q 3003 1734 2745 1975 
Q 2488 2216 2034 2216 
z
M 1403 2484 
Q 997 2584 770 2862 
Q 544 3141 544 3541 
Q 544 4100 942 4425 
Q 1341 4750 2034 4750 
Q 2731 4750 3128 4425 
Q 3525 4100 3525 3541 
Q 3525 3141 3298 2862 
Q 3072 2584 2669 2484 
Q 3125 2378 3379 2068 
Q 3634 1759 3634 1313 
Q 3634 634 3220 271 
Q 2806 -91 2034 -91 
Q 1263 -91 848 271 
Q 434 634 434 1313 
Q 434 1759 690 2068 
Q 947 2378 1403 2484 
z
M 1172 3481 
Q 1172 3119 1398 2916 
Q 1625 2713 2034 2713 
Q 2441 2713 2670 2916 
Q 2900 3119 2900 3481 
Q 2900 3844 2670 4047 
Q 2441 4250 2034 4250 
Q 1625 4250 1398 4047 
Q 1172 3844 1172 3481 
z
" transform="scale(0.015625)"/>
       </defs>
       <use xlink:href="#DejaVuSans-30"/>
       <use xlink:href="#DejaVuSans-2e" x="63.623047"/>
       <use xlink:href="#DejaVuSans-38" x="95.410156"/>
      </g>
     </g>
    </g>
    <g id="ytick_6">
     <g id="line2d_27">
      <path d="M 92.974375 37.730937 
L 897.84 37.730937 
" clip-path="url(#p0fd1a2b8a4)" style="fill: none; stroke: #b0b0b0; stroke-width: 0.8; stroke-linecap: square"/>
     </g>
     <g id="line2d_28">
      <g>
       <use xlink:href="#me99c7cef20" x="92.974375" y="37.730937" style="stroke: #000000; stroke-width: 0.8"/>
      </g>
     </g>
     <g id="text_15">
      <!-- 1.0 -->
      <g transform="translate(50.9875 46.089219) scale(0.22 -0.22)">
       <use xlink:href="#DejaVuSans-31"/>
       <use xlink:href="#DejaVuSans-2e" x="63.623047"/>
       <use xlink:href="#DejaVuSans-30" x="95.410156"/>
      </g>
     </g>
    </g>
    <g id="text_16">
     <!-- Likelihood of occurrence -->
     <g transform="translate(41.99625 323.628438) rotate(-90) scale(0.24 -0.24)">
      <defs>
       <path id="DejaVuSans-4c" d="M 628 4666 
L 1259 4666 
L 1259 531 
L 3531 531 
L 3531 0 
L 628 0 
L 628 4666 
z
" transform="scale(0.015625)"/>
       <path id="DejaVuSans-69" d="M 603 3500 
L 1178 3500 
L 1178 0 
L 603 0 
L 603 3500 
z
M 603 4863 
L 1178 4863 
L 1178 4134 
L 603 4134 
L 603 4863 
z
" transform="scale(0.015625)"/>
       <path id="DejaVuSans-6b" d="M 581 4863 
L 1159 4863 
L 1159 1991 
L 2875 3500 
L 3609 3500 
L 1753 1863 
L 3688 0 
L 2938 0 
L 1159 1709 
L 1159 0 
L 581 0 
L 581 4863 
z
" transform="scale(0.015625)"/>
       <path id="DejaVuSans-65" d="M 3597 1894 
L 3597 1613 
L 953 1613 
Q 991 1019 1311 708 
Q 1631 397 2203 397 
Q 2534 397 2845 478 
Q 3156 559 3463 722 
L 3463 178 
Q 3153 47 2828 -22 
Q 2503 -91 2169 -91 
Q 1331 -91 842 396 
Q 353 884 353 1716 
Q 353 2575 817 3079 
Q 1281 3584 2069 3584 
Q 2775 3584 3186 3129 
Q 3597 2675 3597 1894 
z
M 3022 2063 
Q 3016 2534 2758 2815 
Q 2500 3097 2075 3097 
Q 1594 3097 1305 2825 
Q 1016 2553 972 2059 
L 3022 2063 
z
" transform="scale(0.015625)"/>
       <path id="DejaVuSans-6c" d="M 603 4863 
L 1178 4863 
L 1178 0 
L 603 0 
L 603 4863 
z
" transform="scale(0.015625)"/>
       <path id="DejaVuSans-68" d="M 3513 2113 
L 3513 0 
L 2938 0 
L 2938 2094 
Q 2938 2591 2744 2837 
Q 2550 3084 2163 3084 
Q 1697 3084 1428 2787 
Q 1159 2491 1159 1978 
L 1159 0 
L 581 0 
L 581 4863 
L 1159 4863 
L 1159 2956 
Q 1366 3272 1645 3428 
Q 1925 3584 2291 3584 
Q 2894 3584 3203 3211 
Q 3513 2838 3513 2113 
z
" transform="scale(0.015625)"/>
       <path id="DejaVuSans-6f" d="M 1959 3097 
Q 1497 3097 1228 2736 
Q 959 2375 959 1747 
Q 959 1119 1226 758 
Q 1494 397 1959 397 
Q 2419 397 2687 759 
Q 2956 1122 2956 1747 
Q 2956 2369 2687 2733 
Q 2419 3097 1959 3097 
z
M 1959 3584 
Q 2709 3584 3137 3096 
Q 3566 2609 3566 1747 
Q 3566 888 3137 398 
Q 2709 -91 1959 -91 
Q 1206 -91 779 398 
Q 353 888 353 1747 
Q 353 2609 779 3096 
Q 1206 3584 1959 3584 
z
" transform="scale(0.015625)"/>
       <path id="DejaVuSans-64" d="M 2906 2969 
L 2906 4863 
L 3481 4863 
L 3481 0 
L 2906 0 
L 2906 525 
Q 2725 213 2448 61 
Q 2172 -91 1784 -91 
Q 1150 -91 751 415 
Q 353 922 353 1747 
Q 353 2572 751 3078 
Q 1150 3584 1784 3584 
Q 2172 3584 2448 3432 
Q 2725 3281 2906 2969 
z
M 947 1747 
Q 947 1113 1208 752 
Q 1469 391 1925 391 
Q 2381 391 2643 752 
Q 2906 1113 2906 1747 
Q 2906 2381 2643 2742 
Q 2381 3103 1925 3103 
Q 1469 3103 1208 2742 
Q 947 2381 947 1747 
z
" transform="scale(0.015625)"/>
       <path id="DejaVuSans-66" d="M 2375 4863 
L 2375 4384 
L 1825 4384 
Q 1516 4384 1395 4259 
Q 1275 4134 1275 3809 
L 1275 3500 
L 2222 3500 
L 2222 3053 
L 1275 3053 
L 1275 0 
L 697 0 
L 697 3053 
L 147 3053 
L 147 3500 
L 697 3500 
L 697 3744 
Q 697 4328 969 4595 
Q 1241 4863 1831 4863 
L 2375 4863 
z
" transform="scale(0.015625)"/>
       <path id="DejaVuSans-63" d="M 3122 3366 
L 3122 2828 
Q 2878 2963 2633 3030 
Q 2388 3097 2138 3097 
Q 1578 3097 1268 2742 
Q 959 2388 959 1747 
Q 959 1106 1268 751 
Q 1578 397 2138 397 
Q 2388 397 2633 464 
Q 2878 531 3122 666 
L 3122 134 
Q 2881 22 2623 -34 
Q 2366 -91 2075 -91 
Q 1284 -91 818 406 
Q 353 903 353 1747 
Q 353 2603 823 3093 
Q 1294 3584 2113 3584 
Q 2378 3584 2631 3529 
Q 2884 3475 3122 3366 
z
" transform="scale(0.015625)"/>
       <path id="DejaVuSans-75" d="M 544 1381 
L 544 3500 
L 1119 3500 
L 1119 1403 
Q 1119 906 1312 657 
Q 1506 409 1894 409 
Q 2359 409 2629 706 
Q 2900 1003 2900 1516 
L 2900 3500 
L 3475 3500 
L 3475 0 
L 2900 0 
L 2900 538 
Q 2691 219 2414 64 
Q 2138 -91 1772 -91 
Q 1169 -91 856 284 
Q 544 659 544 1381 
z
M 1991 3584 
L 1991 3584 
z
" transform="scale(0.015625)"/>
       <path id="DejaVuSans-72" d="M 2631 2963 
Q 2534 3019 2420 3045 
Q 2306 3072 2169 3072 
Q 1681 3072 1420 2755 
Q 1159 2438 1159 1844 
L 1159 0 
L 581 0 
L 581 3500 
L 1159 3500 
L 1159 2956 
Q 1341 3275 1631 3429 
Q 1922 3584 2338 3584 
Q 2397 3584 2469 3576 
Q 2541 3569 2628 3553 
L 2631 2963 
z
" transform="scale(0.015625)"/>
       <path id="DejaVuSans-6e" d="M 3513 2113 
L 3513 0 
L 2938 0 
L 2938 2094 
Q 2938 2591 2744 2837 
Q 2550 3084 2163 3084 
Q 1697 3084 1428 2787 
Q 1159 2491 1159 1978 
L 1159 0 
L 581 0 
L 581 3500 
L 1159 3500 
L 1159 2956 
Q 1366 3272 1645 3428 
Q 1925 3584 2291 3584 
Q 2894 3584 3203 3211 
Q 3513 2838 3513 2113 
z
" transform="scale(0.015625)"/>
      </defs>
      <use xlink:href="#DejaVuSans-4c"/>
      <use xlink:href="#DejaVuSans-69" x="55.712891"/>
      <use xlink:href="#DejaVuSans-6b" x="83.496094"/>
      <use xlink:href="#DejaVuSans-65" x="137.78125"/>
      <use xlink:href="#DejaVuSans-6c" x="199.304688"/>
      <use xlink:href="#DejaVuSans-69" x="227.087891"/>
      <use xlink:href="#DejaVuSans-68" x="254.871094"/>
      <use xlink:href="#DejaVuSans-6f" x="318.25"/>
      <use xlink:href="#DejaVuSans-6f" x="379.431641"/>
      <use xlink:href="#DejaVuSans-64" x="440.613281"/>
      <use xlink:href="#DejaVuSans-20" x="504.089844"/>
      <use xlink:href="#DejaVuSans-6f" x="535.876953"/>
      <use xlink:href="#DejaVuSans-66" x="597.058594"/>
      <use xlink:href="#DejaVuSans-20" x="632.263672"/>
      <use xlink:href="#DejaVuSans-6f" x="664.050781"/>
      <use xlink:href="#DejaVuSans-63" x="725.232422"/>
      <use xlink:href="#DejaVuSans-63" x="780.212891"/>
      <use xlink:href="#DejaVuSans-75" x="835.193359"/>
      <use xlink:href="#DejaVuSans-72" x="898.572266"/>
      <use xlink:href="#DejaVuSans-72" x="937.935547"/>
      <use xlink:href="#DejaVuSans-65" x="976.798828"/>
      <use xlink:href="#DejaVuSans-6e" x="1038.322266"/>
      <use xlink:href="#DejaVuSans-63" x="1101.701172"/>
      <use xlink:href="#DejaVuSans-65" x="1156.681641"/>
     </g>
    </g>
   </g>
   <g id="line2d_29">
    <path d="M 92.974375 317.149688 
L 287.994489 317.04258 
L 288.791466 316.847646 
L 288.950861 316.389227 
L 289.189954 315.834413 
L 289.588442 315.703742 
L 308.87527 315.594493 
L 309.034665 315.528087 
L 309.19406 315.223903 
L 309.353456 314.649809 
L 309.592549 314.056436 
L 309.991037 313.591591 
L 310.309827 312.981081 
L 310.469223 312.664044 
L 310.628618 311.995696 
L 310.788013 308.761063 
L 311.106804 294.886414 
L 311.345897 292.859949 
L 311.584989 292.637166 
L 312.222571 292.478648 
L 316.127755 292.275144 
L 330.553027 291.778168 
L 330.79212 291.589659 
L 330.951515 291.107677 
L 331.190608 288.573525 
L 331.429701 285.640933 
L 331.748491 284.715528 
L 331.907887 283.892946 
L 332.226677 282.207081 
L 332.46577 280.928223 
L 332.625165 277.0638 
L 332.784561 262.304448 
L 333.023653 239.09649 
L 333.262746 233.432669 
L 333.661235 232.614371 
L 334.219118 232.346603 
L 334.777001 232.17309 
L 335.653675 232.072409 
L 336.928838 231.976013 
L 339.080674 231.866764 
L 347.847414 231.554011 
L 348.006809 231.23269 
L 348.325599 230.303001 
L 348.564692 230.174472 
L 350.716529 229.990248 
L 352.629272 229.90242 
L 352.788667 229.780318 
L 352.948062 229.29191 
L 353.346551 227.149769 
L 353.665341 226.984824 
L 353.984132 226.792031 
L 354.542015 226.314334 
L 354.70141 225.016196 
L 354.940503 222.985447 
L 355.179596 222.565587 
L 357.490828 222.426348 
L 359.483268 222.272114 
L 359.722361 222.122164 
L 360.041152 221.747289 
L 361.555407 221.648751 
L 369.525171 221.342424 
L 369.764263 221.072515 
L 370.003356 219.51732 
L 370.242449 218.639042 
L 370.481542 218.478382 
L 372.713076 218.169913 
L 374.386726 218.002826 
L 374.625819 217.784328 
L 374.785214 217.062426 
L 375.024307 213.448634 
L 375.2634 210.629576 
L 375.502493 210.239707 
L 376.060377 209.817705 
L 376.458865 209.470678 
L 376.697958 208.515283 
L 376.937051 207.358527 
L 377.176144 207.116465 
L 378.052818 207.005074 
L 380.204654 206.79086 
L 380.603142 206.724453 
L 381.320421 206.630199 
L 381.639211 206.422411 
L 382.037699 205.372762 
L 382.436188 205.287076 
L 387.377441 205.1307 
L 390.246556 205.021451 
L 391.601416 204.89078 
L 391.840509 204.638008 
L 392.159299 204.10033 
L 392.557787 204.04035 
L 393.514159 203.918248 
L 394.231438 203.723313 
L 395.5066 203.408419 
L 395.905088 203.17921 
L 396.144181 202.973564 
L 396.303576 202.637248 
L 396.542669 201.174165 
L 396.702064 197.271184 
L 396.941157 175.067891 
L 397.18025 151.827802 
L 397.339645 149.850606 
L 397.658436 148.49463 
L 397.817831 148.051207 
L 398.375715 146.041879 
L 398.614808 141.714753 
L 398.8539 136.104486 
L 399.092993 135.354736 
L 399.332086 135.183365 
L 400.049365 135.046268 
L 404.910921 134.632835 
L 413.438568 134.309371 
L 413.677661 134.123005 
L 414.076149 133.452515 
L 414.873125 133.362545 
L 415.590404 133.242585 
L 416.626473 133.150473 
L 417.264054 133.009092 
L 417.901635 132.788451 
L 418.140728 132.625648 
L 418.379821 132.139382 
L 418.539216 130.61632 
L 418.698612 125.680827 
L 418.778309 122.870338 
L 419.0971 99.341059 
L 419.495588 96.952572 
L 420.212867 93.782203 
L 420.372262 90.673956 
L 420.77075 73.804595 
L 421.009843 72.628559 
L 421.248936 72.356507 
L 421.80682 72.167999 
L 422.922586 71.970922 
L 423.79926 71.853104 
L 424.357144 71.72886 
L 425.393213 71.587478 
L 425.552608 71.377549 
L 425.791701 70.929841 
L 426.110492 70.81845 
L 440.137276 70.332184 
L 440.296671 70.233645 
L 440.456066 69.794506 
L 440.535764 69.417489 
L 440.934252 65.379553 
L 441.33274 65.246741 
L 441.571833 64.946841 
L 442.050019 59.298015 
L 442.289112 58.629667 
L 442.767298 55.988407 
L 443.404879 55.806325 
L 446.353691 55.617816 
L 446.513087 55.427166 
L 446.991272 54.555314 
L 447.469458 54.238277 
L 447.788249 53.884824 
L 448.585225 53.799138 
L 454.403152 53.692031 
L 456.873779 53.668468 
L 462.452614 53.559218 
L 463.090195 53.484244 
L 463.24959 53.327867 
L 463.408985 52.963703 
L 463.887171 50.592353 
L 464.205962 50.468109 
L 465.720217 50.375997 
L 468.429936 50.166067 
L 468.748727 49.718359 
L 469.226913 49.446307 
L 469.625401 48.615157 
L 470.103587 48.56803 
L 473.132097 48.512334 
L 478.551536 48.403085 
L 491.22346 47.966088 
L 492.658018 47.679041 
L 507.242685 47.269892 
L 507.800568 46.706509 
L 509.314823 46.485868 
L 513.937286 46.378761 
L 516.487611 46.350914 
L 527.724977 46.241664 
L 529.159535 46.119562 
L 529.717418 45.736119 
L 531.948952 45.607591 
L 542.867528 45.423366 
L 551.156082 45.318401 
L 551.634268 45.247711 
L 556.256731 45.144888 
L 557.053707 45.095619 
L 560.401008 44.98637 
L 568.530167 44.658622 
L 574.507489 44.607211 
L 585.744856 44.497961 
L 601.604685 44.180925 
L 609.972937 44.078102 
L 612.92175 43.868172 
L 616.826934 43.788913 
L 617.544213 43.561846 
L 623.521535 43.510434 
L 638.664086 43.405469 
L 639.779853 43.276941 
L 652.611172 43.169834 
L 656.994542 43.043448 
L 672.774674 42.728553 
L 684.968412 42.619304 
L 688.554806 42.420084 
L 689.829968 42.35582 
L 690.78634 42.22515 
L 691.663014 41.961666 
L 692.141199 41.342587 
L 692.539688 40.852037 
L 693.256966 40.282228 
L 696.126081 39.770256 
L 704.574031 39.423229 
L 749.204707 39.318264 
L 750.479869 39.292558 
L 763.869072 39.183309 
L 767.774256 38.767734 
L 782.518318 38.658485 
L 785.546828 38.521388 
L 805.550935 38.418565 
L 809.854607 38.065112 
L 816.15072 38.005132 
L 836.075129 37.895882 
L 837.031501 37.818765 
L 889.871033 37.730938 
L 889.871033 37.730938 
" clip-path="url(#p0fd1a2b8a4)" style="fill: none; stroke: #1f77b4; stroke-width: 2; stroke-linecap: square"/>
   </g>
   <g id="line2d_30">
    <path d="M 92.974375 317.149688 
L 287.277211 317.040916 
L 288.392978 316.81919 
L 289.349349 316.415481 
L 291.421488 316.254416 
L 307.281317 316.15192 
L 307.52041 315.848616 
L 307.679805 315.177162 
L 307.918898 313.917926 
L 308.078293 313.620896 
L 308.476782 312.365843 
L 308.715875 310.217611 
L 308.954967 306.824784 
L 309.273758 298.422203 
L 309.672246 293.30577 
L 309.751944 292.678244 
L 309.991037 286.64353 
L 311.584989 226.549495 
L 311.824082 220.851554 
L 312.063175 218.841377 
L 312.541361 215.015557 
L 312.860152 210.083198 
L 313.178942 208.267555 
L 313.896221 207.104539 
L 314.135314 206.640169 
L 314.533802 206.303396 
L 315.490174 205.970807 
L 316.685638 205.694696 
L 320.192334 205.43741 
L 322.184775 205.389299 
L 329.516957 205.085995 
L 329.995143 204.730397 
L 330.393631 204.445918 
L 330.79212 203.676152 
L 331.031213 202.08851 
L 331.350003 200.672392 
L 331.828189 199.019905 
L 332.306375 195.23592 
L 332.784561 190.487635 
L 333.023653 188.554854 
L 333.740932 184.61817 
L 333.980025 184.139158 
L 334.777001 182.457387 
L 335.095792 182.072504 
L 335.49428 181.859145 
L 338.52279 181.323656 
L 347.608321 180.980608 
L 349.760157 180.63756 
L 352.708969 180.371907 
L 352.868365 180.233852 
L 353.187155 179.815501 
L 354.143527 179.066652 
L 355.020201 178.160922 
L 356.215665 177.734204 
L 358.76599 177.15688 
L 359.802059 176.462417 
L 360.12085 176.282526 
L 360.917826 175.935295 
L 361.555407 175.790964 
L 362.11329 175.671733 
L 366.018475 175.475108 
L 368.010915 175.366337 
L 368.887589 175.198997 
L 370.720635 174.360203 
L 372.952169 173.015204 
L 373.430355 171.981877 
L 374.705517 166.292303 
L 375.422796 158.814278 
L 375.741586 157.498564 
L 375.900981 156.937974 
L 376.777655 153.789882 
L 377.494934 152.168772 
L 377.734027 151.907303 
L 379.088887 150.878159 
L 380.921932 150.434707 
L 382.994071 149.895034 
L 384.747419 149.725602 
L 390.884137 149.464133 
L 391.840509 149.173379 
L 392.238997 148.978846 
L 395.187809 147.732159 
L 395.82539 146.897549 
L 396.064483 146.085948 
L 396.383274 144.968951 
L 396.542669 144.441829 
L 396.702064 142.697305 
L 397.020855 136.19613 
L 397.419343 133.669289 
L 397.817831 132.010527 
L 398.136622 130.238811 
L 398.375715 129.705413 
L 398.774203 128.690912 
L 399.411784 127.831201 
L 400.447853 127.247601 
L 400.926039 127.096994 
L 407.461245 126.515487 
L 411.924313 126.404624 
L 413.597963 126.195448 
L 414.076149 126.015557 
L 414.554335 125.902602 
L 417.662542 124.984322 
L 418.140728 124.572246 
L 418.539216 123.88615 
L 418.778309 122.409371 
L 419.017402 120.742242 
L 419.41589 119.535299 
L 419.654983 118.974709 
L 420.133169 117.090038 
L 420.372262 116.293079 
L 420.611355 115.550506 
L 421.328634 114.452334 
L 422.285005 113.918937 
L 422.603796 113.728587 
L 423.081982 113.628183 
L 426.907468 113.038308 
L 429.378095 112.950454 
L 433.761465 112.839591 
L 435.753906 112.571846 
L 436.94937 112.335478 
L 438.463625 111.810448 
L 439.180904 111.147361 
L 439.97788 109.743793 
L 440.296671 108.978211 
L 440.535764 107.417762 
L 440.774857 104.483029 
L 441.093647 102.903754 
L 441.492136 100.680218 
L 441.651531 97.582329 
L 441.890624 94.503265 
L 441.970321 94.199961 
L 442.289112 92.231619 
L 442.528205 91.735873 
L 443.006391 91.177374 
L 444.122157 90.669078 
L 445.317622 90.468269 
L 448.107039 90.066652 
L 449.461899 89.993441 
L 458.228639 89.660852 
L 458.945918 89.53953 
L 459.981987 89.407749 
L 461.018056 89.140005 
L 462.133823 88.571047 
L 462.771404 87.838933 
L 463.24959 86.747037 
L 463.488683 84.646915 
L 463.727776 82.25813 
L 464.046566 80.833645 
L 464.684147 79.710372 
L 464.843543 79.547215 
L 465.162333 79.243911 
L 465.560821 79.107947 
L 469.147215 78.645669 
L 469.705099 78.446952 
L 471.458446 78.099721 
L 472.972702 78.007684 
L 477.196676 77.898912 
L 479.826698 77.649994 
L 480.703372 77.265111 
L 481.659744 76.982724 
L 482.297325 76.892778 
L 490.824972 76.112553 
L 491.701646 76.012149 
L 492.89711 75.874093 
L 494.889551 75.771597 
L 500.229293 75.660734 
L 502.221734 75.505944 
L 503.496896 75.411815 
L 505.170546 75.223558 
L 505.72843 74.951629 
L 506.764499 74.125386 
L 507.322383 72.75947 
L 507.561475 72.00853 
L 507.800568 71.682216 
L 508.119359 71.190654 
L 508.438149 70.297474 
L 508.597545 70.071564 
L 508.916335 69.657397 
L 509.235126 69.490057 
L 510.43059 68.655446 
L 511.546357 68.492289 
L 514.81396 68.381426 
L 517.603378 68.345866 
L 521.667957 68.239187 
L 525.015258 67.866855 
L 526.210722 67.475696 
L 527.167094 66.5867 
L 527.884372 65.432051 
L 528.282861 64.505404 
L 528.920442 60.4725 
L 529.159535 57.37461 
L 529.478325 51.028225 
L 529.63772 49.848475 
L 529.876813 48.11441 
L 530.115906 47.681417 
L 530.354999 47.457599 
L 530.594092 47.288167 
L 530.833185 47.135469 
L 534.578974 46.652273 
L 537.049601 46.56442 
L 545.896038 46.453557 
L 550.359106 46.133518 
L 551.156082 45.554102 
L 551.395175 45.315642 
L 552.271849 45.064631 
L 571.239886 44.179819 
L 577.85479 43.914166 
L 578.970557 43.690348 
L 586.701228 43.581577 
L 595.228875 43.244804 
L 602.481359 43.165317 
L 609.415054 43.056546 
L 617.066027 42.7637 
L 625.195186 42.652837 
L 630.216137 42.63192 
L 651.01722 42.521057 
L 663.689144 42.299331 
L 680.266252 42.188468 
L 689.670573 41.830778 
L 690.866037 41.629969 
L 691.981804 41.199068 
L 693.496059 40.368641 
L 694.611826 40.10508 
L 696.604267 39.799683 
L 699.074894 39.651169 
L 703.219171 39.542397 
L 724.179649 39.431534 
L 729.599088 39.400158 
L 752.631705 39.289295 
L 757.254168 39.278836 
L 763.550281 39.167973 
L 764.905141 39.027826 
L 766.419396 38.898137 
L 774.70795 38.791457 
L 783.235597 38.680594 
L 787.220479 38.58019 
L 805.949423 38.469327 
L 808.42005 38.316629 
L 815.274046 38.247601 
L 822.128043 38.136738 
L 824.59867 38.117912 
L 850.89889 38.007049 
L 865.642952 37.730938 
L 889.871033 37.730938 
L 889.871033 37.730938 
" clip-path="url(#p0fd1a2b8a4)" style="fill: none; stroke: #ff7f0e; stroke-width: 2; stroke-linecap: square"/>
   </g>
   <g id="patch_3">
    <path d="M 92.974375 331.120625 
L 92.974375 23.76 
" style="fill: none; stroke: #000000; stroke-width: 0.8; stroke-linejoin: miter; stroke-linecap: square"/>
   </g>
   <g id="patch_4">
    <path d="M 897.84 331.120625 
L 897.84 23.76 
" style="fill: none; stroke: #000000; stroke-width: 0.8; stroke-linejoin: miter; stroke-linecap: square"/>
   </g>
   <g id="patch_5">
    <path d="M 92.974375 331.120625 
L 897.84 331.120625 
" style="fill: none; stroke: #000000; stroke-width: 0.8; stroke-linejoin: miter; stroke-linecap: square"/>
   </g>
   <g id="patch_6">
    <path d="M 92.974375 23.76 
L 897.84 23.76 
" style="fill: none; stroke: #000000; stroke-width: 0.8; stroke-linejoin: miter; stroke-linecap: square"/>
   </g>
   <g id="legend_1">
    <g id="patch_7">
     <path d="M 109.774375 114.75 
L 367.129375 114.75 
Q 371.929375 114.75 371.929375 109.95 
L 371.929375 40.56 
Q 371.929375 35.76 367.129375 35.76 
L 109.774375 35.76 
Q 104.974375 35.76 104.974375 40.56 
L 104.974375 109.95 
Q 104.974375 114.75 109.774375 114.75 
z
" style="fill: #ffffff; opacity: 0.8; stroke: #cccccc; stroke-linejoin: miter"/>
    </g>
    <g id="line2d_31">
     <path d="M 114.574375 55.19625 
L 138.574375 55.19625 
L 162.574375 55.19625 
" style="fill: none; stroke: #1f77b4; stroke-width: 2; stroke-linecap: square"/>
    </g>
    <g id="text_17">
     <!-- min_IBLER_7_3 -->
     <g transform="translate(181.774375 63.59625) scale(0.24 -0.24)">
      <defs>
       <path id="DejaVuSans-5f" d="M 3263 -1063 
L 3263 -1509 
L -63 -1509 
L -63 -1063 
L 3263 -1063 
z
" transform="scale(0.015625)"/>
       <path id="DejaVuSans-49" d="M 628 4666 
L 1259 4666 
L 1259 0 
L 628 0 
L 628 4666 
z
" transform="scale(0.015625)"/>
       <path id="DejaVuSans-42" d="M 1259 2228 
L 1259 519 
L 2272 519 
Q 2781 519 3026 730 
Q 3272 941 3272 1375 
Q 3272 1813 3026 2020 
Q 2781 2228 2272 2228 
L 1259 2228 
z
M 1259 4147 
L 1259 2741 
L 2194 2741 
Q 2656 2741 2882 2914 
Q 3109 3088 3109 3444 
Q 3109 3797 2882 3972 
Q 2656 4147 2194 4147 
L 1259 4147 
z
M 628 4666 
L 2241 4666 
Q 2963 4666 3353 4366 
Q 3744 4066 3744 3513 
Q 3744 3084 3544 2831 
Q 3344 2578 2956 2516 
Q 3422 2416 3680 2098 
Q 3938 1781 3938 1306 
Q 3938 681 3513 340 
Q 3088 0 2303 0 
L 628 0 
L 628 4666 
z
" transform="scale(0.015625)"/>
       <path id="DejaVuSans-45" d="M 628 4666 
L 3578 4666 
L 3578 4134 
L 1259 4134 
L 1259 2753 
L 3481 2753 
L 3481 2222 
L 1259 2222 
L 1259 531 
L 3634 531 
L 3634 0 
L 628 0 
L 628 4666 
z
" transform="scale(0.015625)"/>
       <path id="DejaVuSans-33" d="M 2597 2516 
Q 3050 2419 3304 2112 
Q 3559 1806 3559 1356 
Q 3559 666 3084 287 
Q 2609 -91 1734 -91 
Q 1441 -91 1130 -33 
Q 819 25 488 141 
L 488 750 
Q 750 597 1062 519 
Q 1375 441 1716 441 
Q 2309 441 2620 675 
Q 2931 909 2931 1356 
Q 2931 1769 2642 2001 
Q 2353 2234 1838 2234 
L 1294 2234 
L 1294 2753 
L 1863 2753 
Q 2328 2753 2575 2939 
Q 2822 3125 2822 3475 
Q 2822 3834 2567 4026 
Q 2313 4219 1838 4219 
Q 1578 4219 1281 4162 
Q 984 4106 628 3988 
L 628 4550 
Q 988 4650 1302 4700 
Q 1616 4750 1894 4750 
Q 2613 4750 3031 4423 
Q 3450 4097 3450 3541 
Q 3450 3153 3228 2886 
Q 3006 2619 2597 2516 
z
" transform="scale(0.015625)"/>
      </defs>
      <use xlink:href="#DejaVuSans-6d"/>
      <use xlink:href="#DejaVuSans-69" x="97.412109"/>
      <use xlink:href="#DejaVuSans-6e" x="125.195312"/>
      <use xlink:href="#DejaVuSans-5f" x="188.574219"/>
      <use xlink:href="#DejaVuSans-49" x="238.574219"/>
      <use xlink:href="#DejaVuSans-42" x="268.066406"/>
      <use xlink:href="#DejaVuSans-4c" x="336.669922"/>
      <use xlink:href="#DejaVuSans-45" x="392.382812"/>
      <use xlink:href="#DejaVuSans-52" x="455.566406"/>
      <use xlink:href="#DejaVuSans-5f" x="525.048828"/>
      <use xlink:href="#DejaVuSans-37" x="575.048828"/>
      <use xlink:href="#DejaVuSans-5f" x="638.671875"/>
      <use xlink:href="#DejaVuSans-33" x="688.671875"/>
     </g>
    </g>
    <g id="line2d_32">
     <path d="M 114.574375 91.09125 
L 138.574375 91.09125 
L 162.574375 91.09125 
" style="fill: none; stroke: #ff7f0e; stroke-width: 2; stroke-linecap: square"/>
    </g>
    <g id="text_18">
     <!-- SlotConf7_3 -->
     <g transform="translate(181.774375 99.49125) scale(0.24 -0.24)">
      <defs>
       <path id="DejaVuSans-53" d="M 3425 4513 
L 3425 3897 
Q 3066 4069 2747 4153 
Q 2428 4238 2131 4238 
Q 1616 4238 1336 4038 
Q 1056 3838 1056 3469 
Q 1056 3159 1242 3001 
Q 1428 2844 1947 2747 
L 2328 2669 
Q 3034 2534 3370 2195 
Q 3706 1856 3706 1288 
Q 3706 609 3251 259 
Q 2797 -91 1919 -91 
Q 1588 -91 1214 -16 
Q 841 59 441 206 
L 441 856 
Q 825 641 1194 531 
Q 1563 422 1919 422 
Q 2459 422 2753 634 
Q 3047 847 3047 1241 
Q 3047 1584 2836 1778 
Q 2625 1972 2144 2069 
L 1759 2144 
Q 1053 2284 737 2584 
Q 422 2884 422 3419 
Q 422 4038 858 4394 
Q 1294 4750 2059 4750 
Q 2388 4750 2728 4690 
Q 3069 4631 3425 4513 
z
" transform="scale(0.015625)"/>
       <path id="DejaVuSans-74" d="M 1172 4494 
L 1172 3500 
L 2356 3500 
L 2356 3053 
L 1172 3053 
L 1172 1153 
Q 1172 725 1289 603 
Q 1406 481 1766 481 
L 2356 481 
L 2356 0 
L 1766 0 
Q 1100 0 847 248 
Q 594 497 594 1153 
L 594 3053 
L 172 3053 
L 172 3500 
L 594 3500 
L 594 4494 
L 1172 4494 
z
" transform="scale(0.015625)"/>
       <path id="DejaVuSans-43" d="M 4122 4306 
L 4122 3641 
Q 3803 3938 3442 4084 
Q 3081 4231 2675 4231 
Q 1875 4231 1450 3742 
Q 1025 3253 1025 2328 
Q 1025 1406 1450 917 
Q 1875 428 2675 428 
Q 3081 428 3442 575 
Q 3803 722 4122 1019 
L 4122 359 
Q 3791 134 3420 21 
Q 3050 -91 2638 -91 
Q 1578 -91 968 557 
Q 359 1206 359 2328 
Q 359 3453 968 4101 
Q 1578 4750 2638 4750 
Q 3056 4750 3426 4639 
Q 3797 4528 4122 4306 
z
" transform="scale(0.015625)"/>
      </defs>
      <use xlink:href="#DejaVuSans-53"/>
      <use xlink:href="#DejaVuSans-6c" x="63.476562"/>
      <use xlink:href="#DejaVuSans-6f" x="91.259766"/>
      <use xlink:href="#DejaVuSans-74" x="152.441406"/>
      <use xlink:href="#DejaVuSans-43" x="191.650391"/>
      <use xlink:href="#DejaVuSans-6f" x="261.474609"/>
      <use xlink:href="#DejaVuSans-6e" x="322.65625"/>
      <use xlink:href="#DejaVuSans-66" x="386.035156"/>
      <use xlink:href="#DejaVuSans-37" x="421.240234"/>
      <use xlink:href="#DejaVuSans-5f" x="484.863281"/>
      <use xlink:href="#DejaVuSans-33" x="534.863281"/>
     </g>
    </g>
   </g>
  </g>
 </g>
 <defs>
  <clipPath id="p0fd1a2b8a4">
   <rect x="92.974375" y="23.76" width="804.865625" height="307.360625"/>
  </clipPath>
 </defs>
</svg>
