<?xml version="1.0" encoding="utf-8" standalone="no"?>
<!DOCTYPE svg PUBLIC "-//W3C//DTD SVG 1.1//EN"
  "http://www.w3.org/Graphics/SVG/1.1/DTD/svg11.dtd">
<svg xmlns:xlink="http://www.w3.org/1999/xlink" width="921.6pt" height="410.4pt" viewBox="0 0 921.6 410.4" xmlns="http://www.w3.org/2000/svg" version="1.1">
 <metadata>
  <rdf:RDF xmlns:dc="http://purl.org/dc/elements/1.1/" xmlns:cc="http://creativecommons.org/ns#" xmlns:rdf="http://www.w3.org/1999/02/22-rdf-syntax-ns#">
   <cc:Work>
    <dc:type rdf:resource="http://purl.org/dc/dcmitype/StillImage"/>
    <dc:date>2023-05-08T14:31:17.890049</dc:date>
    <dc:format>image/svg+xml</dc:format>
    <dc:creator>
     <cc:Agent>
      <dc:title>Matplotlib v3.7.1, https://matplotlib.org/</dc:title>
     </cc:Agent>
    </dc:creator>
   </cc:Work>
  </rdf:RDF>
 </metadata>
 <defs>
  <style type="text/css">*{stroke-linejoin: round; stroke-linecap: butt}</style>
 </defs>
 <g id="figure_1">
  <g id="patch_1">
   <path d="M 0 410.4 
L 921.6 410.4 
L 921.6 0 
L 0 0 
z
" style="fill: #ffffff"/>
  </g>
  <g id="axes_1">
   <g id="patch_2">
    <path d="M 92.974375 331.120625 
L 888.994392 331.120625 
L 888.994392 23.76 
L 92.974375 23.76 
z
" style="fill: #ffffff"/>
   </g>
   <g id="matplotlib.axis_1">
    <g id="xtick_1">
     <g id="line2d_1">
      <path d="M 92.974375 331.120625 
L 92.974375 23.76 
" clip-path="url(#pd456ae197b)" style="fill: none; stroke: #b0b0b0; stroke-width: 0.8; stroke-linecap: square"/>
     </g>
     <g id="line2d_2">
      <defs>
       <path id="m2c9bbe4bd4" d="M 0 0 
L 0 3.5 
" style="stroke: #000000; stroke-width: 0.8"/>
      </defs>
      <g>
       <use xlink:href="#m2c9bbe4bd4" x="92.974375" y="331.120625" style="stroke: #000000; stroke-width: 0.8"/>
      </g>
     </g>
     <g id="text_1">
      <!-- 0.0 -->
      <g transform="translate(75.480938 354.837188) scale(0.22 -0.22)">
       <defs>
        <path id="DejaVuSans-30" d="M 2034 4250 
Q 1547 4250 1301 3770 
Q 1056 3291 1056 2328 
Q 1056 1369 1301 889 
Q 1547 409 2034 409 
Q 2525 409 2770 889 
Q 3016 1369 3016 2328 
Q 3016 3291 2770 3770 
Q 2525 4250 2034 4250 
z
M 2034 4750 
Q 2819 4750 3233 4129 
Q 3647 3509 3647 2328 
Q 3647 1150 3233 529 
Q 2819 -91 2034 -91 
Q 1250 -91 836 529 
Q 422 1150 422 2328 
Q 422 3509 836 4129 
Q 1250 4750 2034 4750 
z
" transform="scale(0.015625)"/>
        <path id="DejaVuSans-2e" d="M 684 794 
L 1344 794 
L 1344 0 
L 684 0 
L 684 794 
z
" transform="scale(0.015625)"/>
       </defs>
       <use xlink:href="#DejaVuSans-30"/>
       <use xlink:href="#DejaVuSans-2e" x="63.623047"/>
       <use xlink:href="#DejaVuSans-30" x="95.410156"/>
      </g>
     </g>
    </g>
    <g id="xtick_2">
     <g id="line2d_3">
      <path d="M 190.516285 331.120625 
L 190.516285 23.76 
" clip-path="url(#pd456ae197b)" style="fill: none; stroke: #b0b0b0; stroke-width: 0.8; stroke-linecap: square"/>
     </g>
     <g id="line2d_4">
      <g>
       <use xlink:href="#m2c9bbe4bd4" x="190.516285" y="331.120625" style="stroke: #000000; stroke-width: 0.8"/>
      </g>
     </g>
     <g id="text_2">
      <!-- 2.5 -->
      <g transform="translate(173.022847 354.837188) scale(0.22 -0.22)">
       <defs>
        <path id="DejaVuSans-32" d="M 1228 531 
L 3431 531 
L 3431 0 
L 469 0 
L 469 531 
Q 828 903 1448 1529 
Q 2069 2156 2228 2338 
Q 2531 2678 2651 2914 
Q 2772 3150 2772 3378 
Q 2772 3750 2511 3984 
Q 2250 4219 1831 4219 
Q 1534 4219 1204 4116 
Q 875 4013 500 3803 
L 500 4441 
Q 881 4594 1212 4672 
Q 1544 4750 1819 4750 
Q 2544 4750 2975 4387 
Q 3406 4025 3406 3419 
Q 3406 3131 3298 2873 
Q 3191 2616 2906 2266 
Q 2828 2175 2409 1742 
Q 1991 1309 1228 531 
z
" transform="scale(0.015625)"/>
        <path id="DejaVuSans-35" d="M 691 4666 
L 3169 4666 
L 3169 4134 
L 1269 4134 
L 1269 2991 
Q 1406 3038 1543 3061 
Q 1681 3084 1819 3084 
Q 2600 3084 3056 2656 
Q 3513 2228 3513 1497 
Q 3513 744 3044 326 
Q 2575 -91 1722 -91 
Q 1428 -91 1123 -41 
Q 819 9 494 109 
L 494 744 
Q 775 591 1075 516 
Q 1375 441 1709 441 
Q 2250 441 2565 725 
Q 2881 1009 2881 1497 
Q 2881 1984 2565 2268 
Q 2250 2553 1709 2553 
Q 1456 2553 1204 2497 
Q 953 2441 691 2322 
L 691 4666 
z
" transform="scale(0.015625)"/>
       </defs>
       <use xlink:href="#DejaVuSans-32"/>
       <use xlink:href="#DejaVuSans-2e" x="63.623047"/>
       <use xlink:href="#DejaVuSans-35" x="95.410156"/>
      </g>
     </g>
    </g>
    <g id="xtick_3">
     <g id="line2d_5">
      <path d="M 288.058194 331.120625 
L 288.058194 23.76 
" clip-path="url(#pd456ae197b)" style="fill: none; stroke: #b0b0b0; stroke-width: 0.8; stroke-linecap: square"/>
     </g>
     <g id="line2d_6">
      <g>
       <use xlink:href="#m2c9bbe4bd4" x="288.058194" y="331.120625" style="stroke: #000000; stroke-width: 0.8"/>
      </g>
     </g>
     <g id="text_3">
      <!-- 5.0 -->
      <g transform="translate(270.564757 354.837188) scale(0.22 -0.22)">
       <use xlink:href="#DejaVuSans-35"/>
       <use xlink:href="#DejaVuSans-2e" x="63.623047"/>
       <use xlink:href="#DejaVuSans-30" x="95.410156"/>
      </g>
     </g>
    </g>
    <g id="xtick_4">
     <g id="line2d_7">
      <path d="M 385.600104 331.120625 
L 385.600104 23.76 
" clip-path="url(#pd456ae197b)" style="fill: none; stroke: #b0b0b0; stroke-width: 0.8; stroke-linecap: square"/>
     </g>
     <g id="line2d_8">
      <g>
       <use xlink:href="#m2c9bbe4bd4" x="385.600104" y="331.120625" style="stroke: #000000; stroke-width: 0.8"/>
      </g>
     </g>
     <g id="text_4">
      <!-- 7.5 -->
      <g transform="translate(368.106667 354.837188) scale(0.22 -0.22)">
       <defs>
        <path id="DejaVuSans-37" d="M 525 4666 
L 3525 4666 
L 3525 4397 
L 1831 0 
L 1172 0 
L 2766 4134 
L 525 4134 
L 525 4666 
z
" transform="scale(0.015625)"/>
       </defs>
       <use xlink:href="#DejaVuSans-37"/>
       <use xlink:href="#DejaVuSans-2e" x="63.623047"/>
       <use xlink:href="#DejaVuSans-35" x="95.410156"/>
      </g>
     </g>
    </g>
    <g id="xtick_5">
     <g id="line2d_9">
      <path d="M 483.142014 331.120625 
L 483.142014 23.76 
" clip-path="url(#pd456ae197b)" style="fill: none; stroke: #b0b0b0; stroke-width: 0.8; stroke-linecap: square"/>
     </g>
     <g id="line2d_10">
      <g>
       <use xlink:href="#m2c9bbe4bd4" x="483.142014" y="331.120625" style="stroke: #000000; stroke-width: 0.8"/>
      </g>
     </g>
     <g id="text_5">
      <!-- 10.0 -->
      <g transform="translate(458.649826 354.837188) scale(0.22 -0.22)">
       <defs>
        <path id="DejaVuSans-31" d="M 794 531 
L 1825 531 
L 1825 4091 
L 703 3866 
L 703 4441 
L 1819 4666 
L 2450 4666 
L 2450 531 
L 3481 531 
L 3481 0 
L 794 0 
L 794 531 
z
" transform="scale(0.015625)"/>
       </defs>
       <use xlink:href="#DejaVuSans-31"/>
       <use xlink:href="#DejaVuSans-30" x="63.623047"/>
       <use xlink:href="#DejaVuSans-2e" x="127.246094"/>
       <use xlink:href="#DejaVuSans-30" x="159.033203"/>
      </g>
     </g>
    </g>
    <g id="xtick_6">
     <g id="line2d_11">
      <path d="M 580.683923 331.120625 
L 580.683923 23.76 
" clip-path="url(#pd456ae197b)" style="fill: none; stroke: #b0b0b0; stroke-width: 0.8; stroke-linecap: square"/>
     </g>
     <g id="line2d_12">
      <g>
       <use xlink:href="#m2c9bbe4bd4" x="580.683923" y="331.120625" style="stroke: #000000; stroke-width: 0.8"/>
      </g>
     </g>
     <g id="text_6">
      <!-- 12.5 -->
      <g transform="translate(556.191736 354.837188) scale(0.22 -0.22)">
       <use xlink:href="#DejaVuSans-31"/>
       <use xlink:href="#DejaVuSans-32" x="63.623047"/>
       <use xlink:href="#DejaVuSans-2e" x="127.246094"/>
       <use xlink:href="#DejaVuSans-35" x="159.033203"/>
      </g>
     </g>
    </g>
    <g id="xtick_7">
     <g id="line2d_13">
      <path d="M 678.225833 331.120625 
L 678.225833 23.76 
" clip-path="url(#pd456ae197b)" style="fill: none; stroke: #b0b0b0; stroke-width: 0.8; stroke-linecap: square"/>
     </g>
     <g id="line2d_14">
      <g>
       <use xlink:href="#m2c9bbe4bd4" x="678.225833" y="331.120625" style="stroke: #000000; stroke-width: 0.8"/>
      </g>
     </g>
     <g id="text_7">
      <!-- 15.0 -->
      <g transform="translate(653.733646 354.837188) scale(0.22 -0.22)">
       <use xlink:href="#DejaVuSans-31"/>
       <use xlink:href="#DejaVuSans-35" x="63.623047"/>
       <use xlink:href="#DejaVuSans-2e" x="127.246094"/>
       <use xlink:href="#DejaVuSans-30" x="159.033203"/>
      </g>
     </g>
    </g>
    <g id="xtick_8">
     <g id="line2d_15">
      <path d="M 775.767743 331.120625 
L 775.767743 23.76 
" clip-path="url(#pd456ae197b)" style="fill: none; stroke: #b0b0b0; stroke-width: 0.8; stroke-linecap: square"/>
     </g>
     <g id="line2d_16">
      <g>
       <use xlink:href="#m2c9bbe4bd4" x="775.767743" y="331.120625" style="stroke: #000000; stroke-width: 0.8"/>
      </g>
     </g>
     <g id="text_8">
      <!-- 17.5 -->
      <g transform="translate(751.275555 354.837188) scale(0.22 -0.22)">
       <use xlink:href="#DejaVuSans-31"/>
       <use xlink:href="#DejaVuSans-37" x="63.623047"/>
       <use xlink:href="#DejaVuSans-2e" x="127.246094"/>
       <use xlink:href="#DejaVuSans-35" x="159.033203"/>
      </g>
     </g>
    </g>
    <g id="xtick_9">
     <g id="line2d_17">
      <path d="M 873.309653 331.120625 
L 873.309653 23.76 
" clip-path="url(#pd456ae197b)" style="fill: none; stroke: #b0b0b0; stroke-width: 0.8; stroke-linecap: square"/>
     </g>
     <g id="line2d_18">
      <g>
       <use xlink:href="#m2c9bbe4bd4" x="873.309653" y="331.120625" style="stroke: #000000; stroke-width: 0.8"/>
      </g>
     </g>
     <g id="text_9">
      <!-- 20.0 -->
      <g transform="translate(848.817465 354.837188) scale(0.22 -0.22)">
       <use xlink:href="#DejaVuSans-32"/>
       <use xlink:href="#DejaVuSans-30" x="63.623047"/>
       <use xlink:href="#DejaVuSans-2e" x="127.246094"/>
       <use xlink:href="#DejaVuSans-30" x="159.033203"/>
      </g>
     </g>
    </g>
    <g id="text_10">
     <!-- RTT (ms) -->
     <g transform="translate(437.950008 381.64875) scale(0.24 -0.24)">
      <defs>
       <path id="DejaVuSans-52" d="M 2841 2188 
Q 3044 2119 3236 1894 
Q 3428 1669 3622 1275 
L 4263 0 
L 3584 0 
L 2988 1197 
Q 2756 1666 2539 1819 
Q 2322 1972 1947 1972 
L 1259 1972 
L 1259 0 
L 628 0 
L 628 4666 
L 2053 4666 
Q 2853 4666 3247 4331 
Q 3641 3997 3641 3322 
Q 3641 2881 3436 2590 
Q 3231 2300 2841 2188 
z
M 1259 4147 
L 1259 2491 
L 2053 2491 
Q 2509 2491 2742 2702 
Q 2975 2913 2975 3322 
Q 2975 3731 2742 3939 
Q 2509 4147 2053 4147 
L 1259 4147 
z
" transform="scale(0.015625)"/>
       <path id="DejaVuSans-54" d="M -19 4666 
L 3928 4666 
L 3928 4134 
L 2272 4134 
L 2272 0 
L 1638 0 
L 1638 4134 
L -19 4134 
L -19 4666 
z
" transform="scale(0.015625)"/>
       <path id="DejaVuSans-20" transform="scale(0.015625)"/>
       <path id="DejaVuSans-28" d="M 1984 4856 
Q 1566 4138 1362 3434 
Q 1159 2731 1159 2009 
Q 1159 1288 1364 580 
Q 1569 -128 1984 -844 
L 1484 -844 
Q 1016 -109 783 600 
Q 550 1309 550 2009 
Q 550 2706 781 3412 
Q 1013 4119 1484 4856 
L 1984 4856 
z
" transform="scale(0.015625)"/>
       <path id="DejaVuSans-6d" d="M 3328 2828 
Q 3544 3216 3844 3400 
Q 4144 3584 4550 3584 
Q 5097 3584 5394 3201 
Q 5691 2819 5691 2113 
L 5691 0 
L 5113 0 
L 5113 2094 
Q 5113 2597 4934 2840 
Q 4756 3084 4391 3084 
Q 3944 3084 3684 2787 
Q 3425 2491 3425 1978 
L 3425 0 
L 2847 0 
L 2847 2094 
Q 2847 2600 2669 2842 
Q 2491 3084 2119 3084 
Q 1678 3084 1418 2786 
Q 1159 2488 1159 1978 
L 1159 0 
L 581 0 
L 581 3500 
L 1159 3500 
L 1159 2956 
Q 1356 3278 1631 3431 
Q 1906 3584 2284 3584 
Q 2666 3584 2933 3390 
Q 3200 3197 3328 2828 
z
" transform="scale(0.015625)"/>
       <path id="DejaVuSans-73" d="M 2834 3397 
L 2834 2853 
Q 2591 2978 2328 3040 
Q 2066 3103 1784 3103 
Q 1356 3103 1142 2972 
Q 928 2841 928 2578 
Q 928 2378 1081 2264 
Q 1234 2150 1697 2047 
L 1894 2003 
Q 2506 1872 2764 1633 
Q 3022 1394 3022 966 
Q 3022 478 2636 193 
Q 2250 -91 1575 -91 
Q 1294 -91 989 -36 
Q 684 19 347 128 
L 347 722 
Q 666 556 975 473 
Q 1284 391 1588 391 
Q 1994 391 2212 530 
Q 2431 669 2431 922 
Q 2431 1156 2273 1281 
Q 2116 1406 1581 1522 
L 1381 1569 
Q 847 1681 609 1914 
Q 372 2147 372 2553 
Q 372 3047 722 3315 
Q 1072 3584 1716 3584 
Q 2034 3584 2315 3537 
Q 2597 3491 2834 3397 
z
" transform="scale(0.015625)"/>
       <path id="DejaVuSans-29" d="M 513 4856 
L 1013 4856 
Q 1481 4119 1714 3412 
Q 1947 2706 1947 2009 
Q 1947 1309 1714 600 
Q 1481 -109 1013 -844 
L 513 -844 
Q 928 -128 1133 580 
Q 1338 1288 1338 2009 
Q 1338 2731 1133 3434 
Q 928 4138 513 4856 
z
" transform="scale(0.015625)"/>
      </defs>
      <use xlink:href="#DejaVuSans-52"/>
      <use xlink:href="#DejaVuSans-54" x="62.232422"/>
      <use xlink:href="#DejaVuSans-54" x="121.566406"/>
      <use xlink:href="#DejaVuSans-20" x="182.650391"/>
      <use xlink:href="#DejaVuSans-28" x="214.4375"/>
      <use xlink:href="#DejaVuSans-6d" x="253.451172"/>
      <use xlink:href="#DejaVuSans-73" x="350.863281"/>
      <use xlink:href="#DejaVuSans-29" x="402.962891"/>
     </g>
    </g>
   </g>
   <g id="matplotlib.axis_2">
    <g id="ytick_1">
     <g id="line2d_19">
      <path d="M 92.974375 317.149688 
L 888.994392 317.149688 
" clip-path="url(#pd456ae197b)" style="fill: none; stroke: #b0b0b0; stroke-width: 0.8; stroke-linecap: square"/>
     </g>
     <g id="line2d_20">
      <defs>
       <path id="m3ba87f9cd8" d="M 0 0 
L -3.5 0 
" style="stroke: #000000; stroke-width: 0.8"/>
      </defs>
      <g>
       <use xlink:href="#m3ba87f9cd8" x="92.974375" y="317.149688" style="stroke: #000000; stroke-width: 0.8"/>
      </g>
     </g>
     <g id="text_11">
      <!-- 0.0 -->
      <g transform="translate(50.9875 325.507969) scale(0.22 -0.22)">
       <use xlink:href="#DejaVuSans-30"/>
       <use xlink:href="#DejaVuSans-2e" x="63.623047"/>
       <use xlink:href="#DejaVuSans-30" x="95.410156"/>
      </g>
     </g>
    </g>
    <g id="ytick_2">
     <g id="line2d_21">
      <path d="M 92.974375 261.265938 
L 888.994392 261.265938 
" clip-path="url(#pd456ae197b)" style="fill: none; stroke: #b0b0b0; stroke-width: 0.8; stroke-linecap: square"/>
     </g>
     <g id="line2d_22">
      <g>
       <use xlink:href="#m3ba87f9cd8" x="92.974375" y="261.265938" style="stroke: #000000; stroke-width: 0.8"/>
      </g>
     </g>
     <g id="text_12">
      <!-- 0.2 -->
      <g transform="translate(50.9875 269.624219) scale(0.22 -0.22)">
       <use xlink:href="#DejaVuSans-30"/>
       <use xlink:href="#DejaVuSans-2e" x="63.623047"/>
       <use xlink:href="#DejaVuSans-32" x="95.410156"/>
      </g>
     </g>
    </g>
    <g id="ytick_3">
     <g id="line2d_23">
      <path d="M 92.974375 205.382188 
L 888.994392 205.382188 
" clip-path="url(#pd456ae197b)" style="fill: none; stroke: #b0b0b0; stroke-width: 0.8; stroke-linecap: square"/>
     </g>
     <g id="line2d_24">
      <g>
       <use xlink:href="#m3ba87f9cd8" x="92.974375" y="205.382188" style="stroke: #000000; stroke-width: 0.8"/>
      </g>
     </g>
     <g id="text_13">
      <!-- 0.4 -->
      <g transform="translate(50.9875 213.740469) scale(0.22 -0.22)">
       <defs>
        <path id="DejaVuSans-34" d="M 2419 4116 
L 825 1625 
L 2419 1625 
L 2419 4116 
z
M 2253 4666 
L 3047 4666 
L 3047 1625 
L 3713 1625 
L 3713 1100 
L 3047 1100 
L 3047 0 
L 2419 0 
L 2419 1100 
L 313 1100 
L 313 1709 
L 2253 4666 
z
" transform="scale(0.015625)"/>
       </defs>
       <use xlink:href="#DejaVuSans-30"/>
       <use xlink:href="#DejaVuSans-2e" x="63.623047"/>
       <use xlink:href="#DejaVuSans-34" x="95.410156"/>
      </g>
     </g>
    </g>
    <g id="ytick_4">
     <g id="line2d_25">
      <path d="M 92.974375 149.498438 
L 888.994392 149.498438 
" clip-path="url(#pd456ae197b)" style="fill: none; stroke: #b0b0b0; stroke-width: 0.8; stroke-linecap: square"/>
     </g>
     <g id="line2d_26">
      <g>
       <use xlink:href="#m3ba87f9cd8" x="92.974375" y="149.498438" style="stroke: #000000; stroke-width: 0.8"/>
      </g>
     </g>
     <g id="text_14">
      <!-- 0.6 -->
      <g transform="translate(50.9875 157.856719) scale(0.22 -0.22)">
       <defs>
        <path id="DejaVuSans-36" d="M 2113 2584 
Q 1688 2584 1439 2293 
Q 1191 2003 1191 1497 
Q 1191 994 1439 701 
Q 1688 409 2113 409 
Q 2538 409 2786 701 
Q 3034 994 3034 1497 
Q 3034 2003 2786 2293 
Q 2538 2584 2113 2584 
z
M 3366 4563 
L 3366 3988 
Q 3128 4100 2886 4159 
Q 2644 4219 2406 4219 
Q 1781 4219 1451 3797 
Q 1122 3375 1075 2522 
Q 1259 2794 1537 2939 
Q 1816 3084 2150 3084 
Q 2853 3084 3261 2657 
Q 3669 2231 3669 1497 
Q 3669 778 3244 343 
Q 2819 -91 2113 -91 
Q 1303 -91 875 529 
Q 447 1150 447 2328 
Q 447 3434 972 4092 
Q 1497 4750 2381 4750 
Q 2619 4750 2861 4703 
Q 3103 4656 3366 4563 
z
" transform="scale(0.015625)"/>
       </defs>
       <use xlink:href="#DejaVuSans-30"/>
       <use xlink:href="#DejaVuSans-2e" x="63.623047"/>
       <use xlink:href="#DejaVuSans-36" x="95.410156"/>
      </g>
     </g>
    </g>
    <g id="ytick_5">
     <g id="line2d_27">
      <path d="M 92.974375 93.614688 
L 888.994392 93.614688 
" clip-path="url(#pd456ae197b)" style="fill: none; stroke: #b0b0b0; stroke-width: 0.8; stroke-linecap: square"/>
     </g>
     <g id="line2d_28">
      <g>
       <use xlink:href="#m3ba87f9cd8" x="92.974375" y="93.614688" style="stroke: #000000; stroke-width: 0.8"/>
      </g>
     </g>
     <g id="text_15">
      <!-- 0.8 -->
      <g transform="translate(50.9875 101.972969) scale(0.22 -0.22)">
       <defs>
        <path id="DejaVuSans-38" d="M 2034 2216 
Q 1584 2216 1326 1975 
Q 1069 1734 1069 1313 
Q 1069 891 1326 650 
Q 1584 409 2034 409 
Q 2484 409 2743 651 
Q 3003 894 3003 1313 
Q 3003 1734 2745 1975 
Q 2488 2216 2034 2216 
z
M 1403 2484 
Q 997 2584 770 2862 
Q 544 3141 544 3541 
Q 544 4100 942 4425 
Q 1341 4750 2034 4750 
Q 2731 4750 3128 4425 
Q 3525 4100 3525 3541 
Q 3525 3141 3298 2862 
Q 3072 2584 2669 2484 
Q 3125 2378 3379 2068 
Q 3634 1759 3634 1313 
Q 3634 634 3220 271 
Q 2806 -91 2034 -91 
Q 1263 -91 848 271 
Q 434 634 434 1313 
Q 434 1759 690 2068 
Q 947 2378 1403 2484 
z
M 1172 3481 
Q 1172 3119 1398 2916 
Q 1625 2713 2034 2713 
Q 2441 2713 2670 2916 
Q 2900 3119 2900 3481 
Q 2900 3844 2670 4047 
Q 2441 4250 2034 4250 
Q 1625 4250 1398 4047 
Q 1172 3844 1172 3481 
z
" transform="scale(0.015625)"/>
       </defs>
       <use xlink:href="#DejaVuSans-30"/>
       <use xlink:href="#DejaVuSans-2e" x="63.623047"/>
       <use xlink:href="#DejaVuSans-38" x="95.410156"/>
      </g>
     </g>
    </g>
    <g id="ytick_6">
     <g id="line2d_29">
      <path d="M 92.974375 37.730937 
L 888.994392 37.730937 
" clip-path="url(#pd456ae197b)" style="fill: none; stroke: #b0b0b0; stroke-width: 0.8; stroke-linecap: square"/>
     </g>
     <g id="line2d_30">
      <g>
       <use xlink:href="#m3ba87f9cd8" x="92.974375" y="37.730937" style="stroke: #000000; stroke-width: 0.8"/>
      </g>
     </g>
     <g id="text_16">
      <!-- 1.0 -->
      <g transform="translate(50.9875 46.089219) scale(0.22 -0.22)">
       <use xlink:href="#DejaVuSans-31"/>
       <use xlink:href="#DejaVuSans-2e" x="63.623047"/>
       <use xlink:href="#DejaVuSans-30" x="95.410156"/>
      </g>
     </g>
    </g>
    <g id="text_17">
     <!-- Likelihood of occurrence -->
     <g transform="translate(41.99625 323.628438) rotate(-90) scale(0.24 -0.24)">
      <defs>
       <path id="DejaVuSans-4c" d="M 628 4666 
L 1259 4666 
L 1259 531 
L 3531 531 
L 3531 0 
L 628 0 
L 628 4666 
z
" transform="scale(0.015625)"/>
       <path id="DejaVuSans-69" d="M 603 3500 
L 1178 3500 
L 1178 0 
L 603 0 
L 603 3500 
z
M 603 4863 
L 1178 4863 
L 1178 4134 
L 603 4134 
L 603 4863 
z
" transform="scale(0.015625)"/>
       <path id="DejaVuSans-6b" d="M 581 4863 
L 1159 4863 
L 1159 1991 
L 2875 3500 
L 3609 3500 
L 1753 1863 
L 3688 0 
L 2938 0 
L 1159 1709 
L 1159 0 
L 581 0 
L 581 4863 
z
" transform="scale(0.015625)"/>
       <path id="DejaVuSans-65" d="M 3597 1894 
L 3597 1613 
L 953 1613 
Q 991 1019 1311 708 
Q 1631 397 2203 397 
Q 2534 397 2845 478 
Q 3156 559 3463 722 
L 3463 178 
Q 3153 47 2828 -22 
Q 2503 -91 2169 -91 
Q 1331 -91 842 396 
Q 353 884 353 1716 
Q 353 2575 817 3079 
Q 1281 3584 2069 3584 
Q 2775 3584 3186 3129 
Q 3597 2675 3597 1894 
z
M 3022 2063 
Q 3016 2534 2758 2815 
Q 2500 3097 2075 3097 
Q 1594 3097 1305 2825 
Q 1016 2553 972 2059 
L 3022 2063 
z
" transform="scale(0.015625)"/>
       <path id="DejaVuSans-6c" d="M 603 4863 
L 1178 4863 
L 1178 0 
L 603 0 
L 603 4863 
z
" transform="scale(0.015625)"/>
       <path id="DejaVuSans-68" d="M 3513 2113 
L 3513 0 
L 2938 0 
L 2938 2094 
Q 2938 2591 2744 2837 
Q 2550 3084 2163 3084 
Q 1697 3084 1428 2787 
Q 1159 2491 1159 1978 
L 1159 0 
L 581 0 
L 581 4863 
L 1159 4863 
L 1159 2956 
Q 1366 3272 1645 3428 
Q 1925 3584 2291 3584 
Q 2894 3584 3203 3211 
Q 3513 2838 3513 2113 
z
" transform="scale(0.015625)"/>
       <path id="DejaVuSans-6f" d="M 1959 3097 
Q 1497 3097 1228 2736 
Q 959 2375 959 1747 
Q 959 1119 1226 758 
Q 1494 397 1959 397 
Q 2419 397 2687 759 
Q 2956 1122 2956 1747 
Q 2956 2369 2687 2733 
Q 2419 3097 1959 3097 
z
M 1959 3584 
Q 2709 3584 3137 3096 
Q 3566 2609 3566 1747 
Q 3566 888 3137 398 
Q 2709 -91 1959 -91 
Q 1206 -91 779 398 
Q 353 888 353 1747 
Q 353 2609 779 3096 
Q 1206 3584 1959 3584 
z
" transform="scale(0.015625)"/>
       <path id="DejaVuSans-64" d="M 2906 2969 
L 2906 4863 
L 3481 4863 
L 3481 0 
L 2906 0 
L 2906 525 
Q 2725 213 2448 61 
Q 2172 -91 1784 -91 
Q 1150 -91 751 415 
Q 353 922 353 1747 
Q 353 2572 751 3078 
Q 1150 3584 1784 3584 
Q 2172 3584 2448 3432 
Q 2725 3281 2906 2969 
z
M 947 1747 
Q 947 1113 1208 752 
Q 1469 391 1925 391 
Q 2381 391 2643 752 
Q 2906 1113 2906 1747 
Q 2906 2381 2643 2742 
Q 2381 3103 1925 3103 
Q 1469 3103 1208 2742 
Q 947 2381 947 1747 
z
" transform="scale(0.015625)"/>
       <path id="DejaVuSans-66" d="M 2375 4863 
L 2375 4384 
L 1825 4384 
Q 1516 4384 1395 4259 
Q 1275 4134 1275 3809 
L 1275 3500 
L 2222 3500 
L 2222 3053 
L 1275 3053 
L 1275 0 
L 697 0 
L 697 3053 
L 147 3053 
L 147 3500 
L 697 3500 
L 697 3744 
Q 697 4328 969 4595 
Q 1241 4863 1831 4863 
L 2375 4863 
z
" transform="scale(0.015625)"/>
       <path id="DejaVuSans-63" d="M 3122 3366 
L 3122 2828 
Q 2878 2963 2633 3030 
Q 2388 3097 2138 3097 
Q 1578 3097 1268 2742 
Q 959 2388 959 1747 
Q 959 1106 1268 751 
Q 1578 397 2138 397 
Q 2388 397 2633 464 
Q 2878 531 3122 666 
L 3122 134 
Q 2881 22 2623 -34 
Q 2366 -91 2075 -91 
Q 1284 -91 818 406 
Q 353 903 353 1747 
Q 353 2603 823 3093 
Q 1294 3584 2113 3584 
Q 2378 3584 2631 3529 
Q 2884 3475 3122 3366 
z
" transform="scale(0.015625)"/>
       <path id="DejaVuSans-75" d="M 544 1381 
L 544 3500 
L 1119 3500 
L 1119 1403 
Q 1119 906 1312 657 
Q 1506 409 1894 409 
Q 2359 409 2629 706 
Q 2900 1003 2900 1516 
L 2900 3500 
L 3475 3500 
L 3475 0 
L 2900 0 
L 2900 538 
Q 2691 219 2414 64 
Q 2138 -91 1772 -91 
Q 1169 -91 856 284 
Q 544 659 544 1381 
z
M 1991 3584 
L 1991 3584 
z
" transform="scale(0.015625)"/>
       <path id="DejaVuSans-72" d="M 2631 2963 
Q 2534 3019 2420 3045 
Q 2306 3072 2169 3072 
Q 1681 3072 1420 2755 
Q 1159 2438 1159 1844 
L 1159 0 
L 581 0 
L 581 3500 
L 1159 3500 
L 1159 2956 
Q 1341 3275 1631 3429 
Q 1922 3584 2338 3584 
Q 2397 3584 2469 3576 
Q 2541 3569 2628 3553 
L 2631 2963 
z
" transform="scale(0.015625)"/>
       <path id="DejaVuSans-6e" d="M 3513 2113 
L 3513 0 
L 2938 0 
L 2938 2094 
Q 2938 2591 2744 2837 
Q 2550 3084 2163 3084 
Q 1697 3084 1428 2787 
Q 1159 2491 1159 1978 
L 1159 0 
L 581 0 
L 581 3500 
L 1159 3500 
L 1159 2956 
Q 1366 3272 1645 3428 
Q 1925 3584 2291 3584 
Q 2894 3584 3203 3211 
Q 3513 2838 3513 2113 
z
" transform="scale(0.015625)"/>
      </defs>
      <use xlink:href="#DejaVuSans-4c"/>
      <use xlink:href="#DejaVuSans-69" x="55.712891"/>
      <use xlink:href="#DejaVuSans-6b" x="83.496094"/>
      <use xlink:href="#DejaVuSans-65" x="137.78125"/>
      <use xlink:href="#DejaVuSans-6c" x="199.304688"/>
      <use xlink:href="#DejaVuSans-69" x="227.087891"/>
      <use xlink:href="#DejaVuSans-68" x="254.871094"/>
      <use xlink:href="#DejaVuSans-6f" x="318.25"/>
      <use xlink:href="#DejaVuSans-6f" x="379.431641"/>
      <use xlink:href="#DejaVuSans-64" x="440.613281"/>
      <use xlink:href="#DejaVuSans-20" x="504.089844"/>
      <use xlink:href="#DejaVuSans-6f" x="535.876953"/>
      <use xlink:href="#DejaVuSans-66" x="597.058594"/>
      <use xlink:href="#DejaVuSans-20" x="632.263672"/>
      <use xlink:href="#DejaVuSans-6f" x="664.050781"/>
      <use xlink:href="#DejaVuSans-63" x="725.232422"/>
      <use xlink:href="#DejaVuSans-63" x="780.212891"/>
      <use xlink:href="#DejaVuSans-75" x="835.193359"/>
      <use xlink:href="#DejaVuSans-72" x="898.572266"/>
      <use xlink:href="#DejaVuSans-72" x="937.935547"/>
      <use xlink:href="#DejaVuSans-65" x="976.798828"/>
      <use xlink:href="#DejaVuSans-6e" x="1038.322266"/>
      <use xlink:href="#DejaVuSans-63" x="1101.701172"/>
      <use xlink:href="#DejaVuSans-65" x="1156.681641"/>
     </g>
    </g>
   </g>
   <g id="line2d_31">
    <path d="M 92.974375 317.149688 
L 262.598771 317.039716 
L 266.224571 316.886135 
L 270.875054 316.776163 
L 273.633815 316.533468 
L 274.422032 316.226306 
L 275.919646 315.100045 
L 276.55022 314.021186 
L 277.496081 311.628357 
L 278.126654 308.640165 
L 280.333663 284.232169 
L 280.727772 276.014639 
L 281.752455 252.926302 
L 283.880642 219.295864 
L 284.432394 215.096088 
L 285.693542 207.21985 
L 286.166472 205.346542 
L 286.797046 204.072388 
L 287.269977 203.277939 
L 288.137016 201.704208 
L 289.240521 200.885109 
L 290.974599 200.248033 
L 291.92046 199.963624 
L 293.496895 199.282938 
L 294.048647 198.797546 
L 294.442756 198.291298 
L 295.54626 196.408509 
L 296.255656 194.865115 
L 296.728586 193.075233 
L 297.122695 190.805648 
L 298.69913 180.111863 
L 299.17206 174.588636 
L 300.117921 162.971469 
L 300.984961 153.756612 
L 302.403752 135.924156 
L 303.270791 130.755493 
L 304.374296 125.042661 
L 304.847226 123.804533 
L 305.241335 123.089718 
L 306.660126 121.356718 
L 308.236561 120.564164 
L 308.867135 120.401103 
L 317.695171 119.671119 
L 318.641032 119.437904 
L 322.739762 118.65483 
L 326.129097 118.544859 
L 331.725441 118.52021 
L 335.824172 118.415927 
L 344.415742 117.699216 
L 350.090908 117.45652 
L 351.824986 117.139877 
L 353.007312 116.535034 
L 353.480243 116.197535 
L 353.874352 115.833491 
L 354.347282 115.11678 
L 355.687252 112.911661 
L 356.396647 111.245023 
L 357.500152 108.033095 
L 358.288369 106.542791 
L 358.997765 105.077136 
L 359.313052 104.366113 
L 360.5742 102.85116 
L 360.968309 102.502285 
L 362.465922 101.586487 
L 363.648248 101.220547 
L 364.515287 101.084031 
L 367.825801 100.816686 
L 369.796344 100.479188 
L 372.003353 99.629752 
L 372.712749 98.914937 
L 373.028036 98.454194 
L 374.840936 95.96277 
L 375.786797 93.966217 
L 376.653836 92.538483 
L 377.047945 91.690944 
L 377.75734 90.382662 
L 378.545558 89.571147 
L 380.121993 88.312163 
L 381.067854 87.944327 
L 383.511328 87.464623 
L 388.004167 86.928038 
L 388.713563 86.655005 
L 389.50178 86.196158 
L 390.526463 85.515472 
L 391.235859 84.556065 
L 392.969937 81.710078 
L 394.861659 77.360513 
L 395.33459 76.272174 
L 396.438094 73.192971 
L 397.14749 72.224083 
L 397.778064 71.420153 
L 398.487459 70.523316 
L 399.196855 70.032236 
L 400.063894 69.594246 
L 401.009755 69.215034 
L 406.606099 68.433857 
L 408.103712 68.033788 
L 409.443682 67.372063 
L 410.074256 66.886671 
L 410.783652 66.47333 
L 411.493047 65.885551 
L 412.754195 64.531763 
L 413.8577 63.543915 
L 415.040026 62.593988 
L 416.852926 61.537882 
L 419.217578 61.080931 
L 421.582231 60.957687 
L 431.829058 60.849612 
L 434.745462 60.819275 
L 448.854555 60.711199 
L 454.05679 60.318715 
L 462.806003 60.000177 
L 464.46126 59.785922 
L 466.904734 58.911837 
L 469.42703 56.964583 
L 469.899961 56.443166 
L 472.816365 54.177373 
L 473.762226 53.587697 
L 474.3928 53.263471 
L 477.860957 52.624498 
L 482.826727 52.06516 
L 483.614944 51.782647 
L 485.427844 51.065936 
L 487.004279 50.138762 
L 487.713675 49.368961 
L 488.344249 48.860817 
L 489.605397 47.975356 
L 490.787723 47.023534 
L 491.733584 46.562791 
L 493.310019 45.870728 
L 495.989958 45.389129 
L 498.906363 45.279157 
L 521.528204 44.844959 
L 543.677114 44.734988 
L 548.958171 44.499876 
L 551.63811 44.414553 
L 563.303729 44.027757 
L 568.190677 43.544261 
L 574.259951 43.43429 
L 601.059345 42.685345 
L 603.10871 42.497635 
L 605.394541 42.334574 
L 606.498045 42.260628 
L 608.783876 42.205642 
L 622.341216 42.09567 
L 627.93756 42.071022 
L 656.786318 41.962946 
L 667.348432 41.562877 
L 671.683628 41.452906 
L 674.205924 41.1666 
L 679.250516 40.182545 
L 684.925681 39.475314 
L 695.724261 39.105582 
L 702.108822 38.908392 
L 739.627973 38.79842 
L 742.150268 38.785148 
L 750.584195 38.675176 
L 754.367639 38.510219 
L 770.841384 38.223913 
L 787.236307 38.115838 
L 791.256216 38.032411 
L 801.897151 37.92244 
L 808.045247 37.884518 
L 860.067599 37.774547 
L 866.452161 37.730938 
L 881.113005 37.730938 
L 881.113005 37.730938 
" clip-path="url(#pd456ae197b)" style="fill: none; stroke: #1f77b4; stroke-width: 2; stroke-linecap: square"/>
   </g>
   <g id="line2d_32">
    <path d="M 92.974375 317.149688 
L 261.022336 317.044122 
L 269.377441 316.520276 
L 274.737319 316.410727 
L 276.234933 316.036267 
L 277.259615 315.424782 
L 277.811368 314.906912 
L 278.126654 314.400993 
L 278.914872 311.0926 
L 280.254842 304.561463 
L 280.64895 300.209363 
L 282.225385 276.737901 
L 282.777137 268.716892 
L 283.880642 250.143285 
L 284.826503 243.114196 
L 285.457077 237.849848 
L 285.851186 234.901973 
L 286.324116 232.93805 
L 286.95469 231.519883 
L 287.348799 230.735111 
L 288.373481 228.763221 
L 289.004055 228.215474 
L 290.028738 227.809145 
L 292.156925 227.432694 
L 294.363934 227.114004 
L 295.07333 226.739545 
L 295.625082 226.408905 
L 296.649765 225.777502 
L 297.122695 225.130164 
L 297.832091 223.919145 
L 298.2262 223.082586 
L 298.620308 222.088674 
L 299.093239 220.17853 
L 300.748495 210.17368 
L 301.300248 205.1603 
L 302.32493 193.858783 
L 302.876682 190.644006 
L 303.428435 187.670237 
L 304.295474 182.800267 
L 304.847226 181.105239 
L 305.714265 179.561588 
L 306.266018 178.740963 
L 306.81777 178.147404 
L 307.842452 177.531936 
L 309.1036 177.075812 
L 312.335292 176.858705 
L 315.015231 176.755131 
L 315.961092 176.695376 
L 317.143418 176.55595 
L 319.586892 175.703456 
L 320.059823 175.301111 
L 320.532753 174.89279 
L 323.133871 173.116098 
L 325.892632 172.596236 
L 353.007312 171.815448 
L 355.056678 171.140225 
L 356.239004 170.496871 
L 357.578974 168.977122 
L 358.209548 168.441325 
L 358.7613 167.776062 
L 359.470696 166.814018 
L 362.071813 165.214597 
L 364.357644 164.800301 
L 369.086948 164.451735 
L 371.688066 163.167019 
L 372.160997 162.649149 
L 372.712749 161.479957 
L 373.106857 160.119553 
L 373.816253 158.151647 
L 374.289184 156.355036 
L 374.683292 154.253679 
L 375.077401 150.785942 
L 376.811479 133.580707 
L 377.363232 125.491976 
L 378.072627 116.355554 
L 380.043171 98.861507 
L 380.673745 95.632787 
L 381.777249 92.182976 
L 382.329002 90.84249 
L 383.196041 89.661348 
L 384.06308 88.966207 
L 385.797158 88.414476 
L 389.580602 87.633687 
L 391.629968 86.582013 
L 392.418185 85.819151 
L 393.364046 83.873154 
L 394.231085 81.098566 
L 394.704016 79.566866 
L 395.33459 76.389933 
L 395.80752 72.412293 
L 396.516916 66.990592 
L 397.856885 59.192665 
L 398.487459 55.276771 
L 399.118033 53.055906 
L 400.536825 49.155946 
L 401.403864 48.207846 
L 403.137942 47.018737 
L 404.635556 46.753826 
L 406.921386 46.630334 
L 416.14353 46.291727 
L 418.665826 46.144333 
L 424.813922 46.098522 
L 451.613316 45.990964 
L 458.707273 45.741988 
L 468.244704 45.63443 
L 470.609356 45.34761 
L 471.318752 45.162372 
L 472.422256 44.885511 
L 475.73277 44.24614 
L 489.605397 43.790016 
L 491.497119 43.473319 
L 495.911136 42.911629 
L 499.69458 42.827973 
L 543.283005 42.718424 
L 556.525059 42.49335 
L 564.328411 42.3838 
L 568.269499 42.07507 
L 570.870616 41.921701 
L 582.299769 41.812151 
L 584.743243 41.642848 
L 587.580826 41.320175 
L 589.55137 41.178757 
L 593.255992 41.101076 
L 603.739284 40.991527 
L 607.838015 40.790354 
L 625.809373 40.680805 
L 631.326895 40.650928 
L 658.993327 40.541378 
L 663.013236 40.246591 
L 667.111967 40.045418 
L 676.018824 39.939852 
L 680.35402 39.394097 
L 683.191603 38.71489 
L 686.738582 38.378275 
L 694.541934 38.290635 
L 702.818218 38.181086 
L 705.18287 38.169135 
L 754.525282 38.059586 
L 766.742653 37.860405 
L 776.358906 37.750856 
L 778.014163 37.730938 
L 881.113005 37.730938 
L 881.113005 37.730938 
" clip-path="url(#pd456ae197b)" style="fill: none; stroke: #ff7f0e; stroke-width: 2; stroke-linecap: square"/>
   </g>
   <g id="patch_3">
    <path d="M 92.974375 331.120625 
L 92.974375 23.76 
" style="fill: none; stroke: #000000; stroke-width: 0.8; stroke-linejoin: miter; stroke-linecap: square"/>
   </g>
   <g id="patch_4">
    <path d="M 888.994392 331.120625 
L 888.994392 23.76 
" style="fill: none; stroke: #000000; stroke-width: 0.8; stroke-linejoin: miter; stroke-linecap: square"/>
   </g>
   <g id="patch_5">
    <path d="M 92.974375 331.120625 
L 888.994392 331.120625 
" style="fill: none; stroke: #000000; stroke-width: 0.8; stroke-linejoin: miter; stroke-linecap: square"/>
   </g>
   <g id="patch_6">
    <path d="M 92.974375 23.76 
L 888.994392 23.76 
" style="fill: none; stroke: #000000; stroke-width: 0.8; stroke-linejoin: miter; stroke-linecap: square"/>
   </g>
   <g id="legend_1">
    <g id="patch_7">
     <path d="M 614.839392 319.120625 
L 872.194392 319.120625 
Q 876.994392 319.120625 876.994392 314.320625 
L 876.994392 244.930625 
Q 876.994392 240.130625 872.194392 240.130625 
L 614.839392 240.130625 
Q 610.039392 240.130625 610.039392 244.930625 
L 610.039392 314.320625 
Q 610.039392 319.120625 614.839392 319.120625 
z
" style="fill: #ffffff; opacity: 0.8; stroke: #cccccc; stroke-linejoin: miter"/>
    </g>
    <g id="line2d_33">
     <path d="M 619.639392 259.566875 
L 643.639392 259.566875 
L 667.639392 259.566875 
" style="fill: none; stroke: #1f77b4; stroke-width: 2; stroke-linecap: square"/>
    </g>
    <g id="text_18">
     <!-- min_IBLER_7_3 -->
     <g transform="translate(686.839392 267.966875) scale(0.24 -0.24)">
      <defs>
       <path id="DejaVuSans-5f" d="M 3263 -1063 
L 3263 -1509 
L -63 -1509 
L -63 -1063 
L 3263 -1063 
z
" transform="scale(0.015625)"/>
       <path id="DejaVuSans-49" d="M 628 4666 
L 1259 4666 
L 1259 0 
L 628 0 
L 628 4666 
z
" transform="scale(0.015625)"/>
       <path id="DejaVuSans-42" d="M 1259 2228 
L 1259 519 
L 2272 519 
Q 2781 519 3026 730 
Q 3272 941 3272 1375 
Q 3272 1813 3026 2020 
Q 2781 2228 2272 2228 
L 1259 2228 
z
M 1259 4147 
L 1259 2741 
L 2194 2741 
Q 2656 2741 2882 2914 
Q 3109 3088 3109 3444 
Q 3109 3797 2882 3972 
Q 2656 4147 2194 4147 
L 1259 4147 
z
M 628 4666 
L 2241 4666 
Q 2963 4666 3353 4366 
Q 3744 4066 3744 3513 
Q 3744 3084 3544 2831 
Q 3344 2578 2956 2516 
Q 3422 2416 3680 2098 
Q 3938 1781 3938 1306 
Q 3938 681 3513 340 
Q 3088 0 2303 0 
L 628 0 
L 628 4666 
z
" transform="scale(0.015625)"/>
       <path id="DejaVuSans-45" d="M 628 4666 
L 3578 4666 
L 3578 4134 
L 1259 4134 
L 1259 2753 
L 3481 2753 
L 3481 2222 
L 1259 2222 
L 1259 531 
L 3634 531 
L 3634 0 
L 628 0 
L 628 4666 
z
" transform="scale(0.015625)"/>
       <path id="DejaVuSans-33" d="M 2597 2516 
Q 3050 2419 3304 2112 
Q 3559 1806 3559 1356 
Q 3559 666 3084 287 
Q 2609 -91 1734 -91 
Q 1441 -91 1130 -33 
Q 819 25 488 141 
L 488 750 
Q 750 597 1062 519 
Q 1375 441 1716 441 
Q 2309 441 2620 675 
Q 2931 909 2931 1356 
Q 2931 1769 2642 2001 
Q 2353 2234 1838 2234 
L 1294 2234 
L 1294 2753 
L 1863 2753 
Q 2328 2753 2575 2939 
Q 2822 3125 2822 3475 
Q 2822 3834 2567 4026 
Q 2313 4219 1838 4219 
Q 1578 4219 1281 4162 
Q 984 4106 628 3988 
L 628 4550 
Q 988 4650 1302 4700 
Q 1616 4750 1894 4750 
Q 2613 4750 3031 4423 
Q 3450 4097 3450 3541 
Q 3450 3153 3228 2886 
Q 3006 2619 2597 2516 
z
" transform="scale(0.015625)"/>
      </defs>
      <use xlink:href="#DejaVuSans-6d"/>
      <use xlink:href="#DejaVuSans-69" x="97.412109"/>
      <use xlink:href="#DejaVuSans-6e" x="125.195312"/>
      <use xlink:href="#DejaVuSans-5f" x="188.574219"/>
      <use xlink:href="#DejaVuSans-49" x="238.574219"/>
      <use xlink:href="#DejaVuSans-42" x="268.066406"/>
      <use xlink:href="#DejaVuSans-4c" x="336.669922"/>
      <use xlink:href="#DejaVuSans-45" x="392.382812"/>
      <use xlink:href="#DejaVuSans-52" x="455.566406"/>
      <use xlink:href="#DejaVuSans-5f" x="525.048828"/>
      <use xlink:href="#DejaVuSans-37" x="575.048828"/>
      <use xlink:href="#DejaVuSans-5f" x="638.671875"/>
      <use xlink:href="#DejaVuSans-33" x="688.671875"/>
     </g>
    </g>
    <g id="line2d_34">
     <path d="M 619.639392 295.461875 
L 643.639392 295.461875 
L 667.639392 295.461875 
" style="fill: none; stroke: #ff7f0e; stroke-width: 2; stroke-linecap: square"/>
    </g>
    <g id="text_19">
     <!-- SlotConf7_3 -->
     <g transform="translate(686.839392 303.861875) scale(0.24 -0.24)">
      <defs>
       <path id="DejaVuSans-53" d="M 3425 4513 
L 3425 3897 
Q 3066 4069 2747 4153 
Q 2428 4238 2131 4238 
Q 1616 4238 1336 4038 
Q 1056 3838 1056 3469 
Q 1056 3159 1242 3001 
Q 1428 2844 1947 2747 
L 2328 2669 
Q 3034 2534 3370 2195 
Q 3706 1856 3706 1288 
Q 3706 609 3251 259 
Q 2797 -91 1919 -91 
Q 1588 -91 1214 -16 
Q 841 59 441 206 
L 441 856 
Q 825 641 1194 531 
Q 1563 422 1919 422 
Q 2459 422 2753 634 
Q 3047 847 3047 1241 
Q 3047 1584 2836 1778 
Q 2625 1972 2144 2069 
L 1759 2144 
Q 1053 2284 737 2584 
Q 422 2884 422 3419 
Q 422 4038 858 4394 
Q 1294 4750 2059 4750 
Q 2388 4750 2728 4690 
Q 3069 4631 3425 4513 
z
" transform="scale(0.015625)"/>
       <path id="DejaVuSans-74" d="M 1172 4494 
L 1172 3500 
L 2356 3500 
L 2356 3053 
L 1172 3053 
L 1172 1153 
Q 1172 725 1289 603 
Q 1406 481 1766 481 
L 2356 481 
L 2356 0 
L 1766 0 
Q 1100 0 847 248 
Q 594 497 594 1153 
L 594 3053 
L 172 3053 
L 172 3500 
L 594 3500 
L 594 4494 
L 1172 4494 
z
" transform="scale(0.015625)"/>
       <path id="DejaVuSans-43" d="M 4122 4306 
L 4122 3641 
Q 3803 3938 3442 4084 
Q 3081 4231 2675 4231 
Q 1875 4231 1450 3742 
Q 1025 3253 1025 2328 
Q 1025 1406 1450 917 
Q 1875 428 2675 428 
Q 3081 428 3442 575 
Q 3803 722 4122 1019 
L 4122 359 
Q 3791 134 3420 21 
Q 3050 -91 2638 -91 
Q 1578 -91 968 557 
Q 359 1206 359 2328 
Q 359 3453 968 4101 
Q 1578 4750 2638 4750 
Q 3056 4750 3426 4639 
Q 3797 4528 4122 4306 
z
" transform="scale(0.015625)"/>
      </defs>
      <use xlink:href="#DejaVuSans-53"/>
      <use xlink:href="#DejaVuSans-6c" x="63.476562"/>
      <use xlink:href="#DejaVuSans-6f" x="91.259766"/>
      <use xlink:href="#DejaVuSans-74" x="152.441406"/>
      <use xlink:href="#DejaVuSans-43" x="191.650391"/>
      <use xlink:href="#DejaVuSans-6f" x="261.474609"/>
      <use xlink:href="#DejaVuSans-6e" x="322.65625"/>
      <use xlink:href="#DejaVuSans-66" x="386.035156"/>
      <use xlink:href="#DejaVuSans-37" x="421.240234"/>
      <use xlink:href="#DejaVuSans-5f" x="484.863281"/>
      <use xlink:href="#DejaVuSans-33" x="534.863281"/>
     </g>
    </g>
   </g>
  </g>
 </g>
 <defs>
  <clipPath id="pd456ae197b">
   <rect x="92.974375" y="23.76" width="796.020017" height="307.360625"/>
  </clipPath>
 </defs>
</svg>
