<?xml version="1.0" encoding="utf-8" standalone="no"?>
<!DOCTYPE svg PUBLIC "-//W3C//DTD SVG 1.1//EN"
  "http://www.w3.org/Graphics/SVG/1.1/DTD/svg11.dtd">
<svg xmlns:xlink="http://www.w3.org/1999/xlink" width="921.6pt" height="410.4pt" viewBox="0 0 921.6 410.4" xmlns="http://www.w3.org/2000/svg" version="1.1">
 <metadata>
  <rdf:RDF xmlns:dc="http://purl.org/dc/elements/1.1/" xmlns:cc="http://creativecommons.org/ns#" xmlns:rdf="http://www.w3.org/1999/02/22-rdf-syntax-ns#">
   <cc:Work>
    <dc:type rdf:resource="http://purl.org/dc/dcmitype/StillImage"/>
    <dc:date>2023-05-08T14:31:19.329185</dc:date>
    <dc:format>image/svg+xml</dc:format>
    <dc:creator>
     <cc:Agent>
      <dc:title>Matplotlib v3.7.1, https://matplotlib.org/</dc:title>
     </cc:Agent>
    </dc:creator>
   </cc:Work>
  </rdf:RDF>
 </metadata>
 <defs>
  <style type="text/css">*{stroke-linejoin: round; stroke-linecap: butt}</style>
 </defs>
 <g id="figure_1">
  <g id="patch_1">
   <path d="M 0 410.4 
L 921.6 410.4 
L 921.6 0 
L 0 0 
z
" style="fill: #ffffff"/>
  </g>
  <g id="axes_1">
   <g id="patch_2">
    <path d="M 92.974375 331.120625 
L 897.84 331.120625 
L 897.84 23.76 
L 92.974375 23.76 
z
" style="fill: #ffffff"/>
   </g>
   <g id="matplotlib.axis_1">
    <g id="xtick_1">
     <g id="line2d_1">
      <path d="M 92.974375 331.120625 
L 92.974375 23.76 
" clip-path="url(#pbffd9ff249)" style="fill: none; stroke: #b0b0b0; stroke-width: 0.8; stroke-linecap: square"/>
     </g>
     <g id="line2d_2">
      <defs>
       <path id="me39ed0827f" d="M 0 0 
L 0 3.5 
" style="stroke: #000000; stroke-width: 0.8"/>
      </defs>
      <g>
       <use xlink:href="#me39ed0827f" x="92.974375" y="331.120625" style="stroke: #000000; stroke-width: 0.8"/>
      </g>
     </g>
     <g id="text_1">
      <!-- 0 -->
      <g transform="translate(85.975625 354.837188) scale(0.22 -0.22)">
       <defs>
        <path id="DejaVuSans-30" d="M 2034 4250 
Q 1547 4250 1301 3770 
Q 1056 3291 1056 2328 
Q 1056 1369 1301 889 
Q 1547 409 2034 409 
Q 2525 409 2770 889 
Q 3016 1369 3016 2328 
Q 3016 3291 2770 3770 
Q 2525 4250 2034 4250 
z
M 2034 4750 
Q 2819 4750 3233 4129 
Q 3647 3509 3647 2328 
Q 3647 1150 3233 529 
Q 2819 -91 2034 -91 
Q 1250 -91 836 529 
Q 422 1150 422 2328 
Q 422 3509 836 4129 
Q 1250 4750 2034 4750 
z
" transform="scale(0.015625)"/>
       </defs>
       <use xlink:href="#DejaVuSans-30"/>
      </g>
     </g>
    </g>
    <g id="xtick_2">
     <g id="line2d_3">
      <path d="M 250.775693 331.120625 
L 250.775693 23.76 
" clip-path="url(#pbffd9ff249)" style="fill: none; stroke: #b0b0b0; stroke-width: 0.8; stroke-linecap: square"/>
     </g>
     <g id="line2d_4">
      <g>
       <use xlink:href="#me39ed0827f" x="250.775693" y="331.120625" style="stroke: #000000; stroke-width: 0.8"/>
      </g>
     </g>
     <g id="text_2">
      <!-- 5 -->
      <g transform="translate(243.776943 354.837188) scale(0.22 -0.22)">
       <defs>
        <path id="DejaVuSans-35" d="M 691 4666 
L 3169 4666 
L 3169 4134 
L 1269 4134 
L 1269 2991 
Q 1406 3038 1543 3061 
Q 1681 3084 1819 3084 
Q 2600 3084 3056 2656 
Q 3513 2228 3513 1497 
Q 3513 744 3044 326 
Q 2575 -91 1722 -91 
Q 1428 -91 1123 -41 
Q 819 9 494 109 
L 494 744 
Q 775 591 1075 516 
Q 1375 441 1709 441 
Q 2250 441 2565 725 
Q 2881 1009 2881 1497 
Q 2881 1984 2565 2268 
Q 2250 2553 1709 2553 
Q 1456 2553 1204 2497 
Q 953 2441 691 2322 
L 691 4666 
z
" transform="scale(0.015625)"/>
       </defs>
       <use xlink:href="#DejaVuSans-35"/>
      </g>
     </g>
    </g>
    <g id="xtick_3">
     <g id="line2d_5">
      <path d="M 408.577012 331.120625 
L 408.577012 23.76 
" clip-path="url(#pbffd9ff249)" style="fill: none; stroke: #b0b0b0; stroke-width: 0.8; stroke-linecap: square"/>
     </g>
     <g id="line2d_6">
      <g>
       <use xlink:href="#me39ed0827f" x="408.577012" y="331.120625" style="stroke: #000000; stroke-width: 0.8"/>
      </g>
     </g>
     <g id="text_3">
      <!-- 10 -->
      <g transform="translate(394.579512 354.837188) scale(0.22 -0.22)">
       <defs>
        <path id="DejaVuSans-31" d="M 794 531 
L 1825 531 
L 1825 4091 
L 703 3866 
L 703 4441 
L 1819 4666 
L 2450 4666 
L 2450 531 
L 3481 531 
L 3481 0 
L 794 0 
L 794 531 
z
" transform="scale(0.015625)"/>
       </defs>
       <use xlink:href="#DejaVuSans-31"/>
       <use xlink:href="#DejaVuSans-30" x="63.623047"/>
      </g>
     </g>
    </g>
    <g id="xtick_4">
     <g id="line2d_7">
      <path d="M 566.37833 331.120625 
L 566.37833 23.76 
" clip-path="url(#pbffd9ff249)" style="fill: none; stroke: #b0b0b0; stroke-width: 0.8; stroke-linecap: square"/>
     </g>
     <g id="line2d_8">
      <g>
       <use xlink:href="#me39ed0827f" x="566.37833" y="331.120625" style="stroke: #000000; stroke-width: 0.8"/>
      </g>
     </g>
     <g id="text_4">
      <!-- 15 -->
      <g transform="translate(552.38083 354.837188) scale(0.22 -0.22)">
       <use xlink:href="#DejaVuSans-31"/>
       <use xlink:href="#DejaVuSans-35" x="63.623047"/>
      </g>
     </g>
    </g>
    <g id="xtick_5">
     <g id="line2d_9">
      <path d="M 724.179649 331.120625 
L 724.179649 23.76 
" clip-path="url(#pbffd9ff249)" style="fill: none; stroke: #b0b0b0; stroke-width: 0.8; stroke-linecap: square"/>
     </g>
     <g id="line2d_10">
      <g>
       <use xlink:href="#me39ed0827f" x="724.179649" y="331.120625" style="stroke: #000000; stroke-width: 0.8"/>
      </g>
     </g>
     <g id="text_5">
      <!-- 20 -->
      <g transform="translate(710.182149 354.837188) scale(0.22 -0.22)">
       <defs>
        <path id="DejaVuSans-32" d="M 1228 531 
L 3431 531 
L 3431 0 
L 469 0 
L 469 531 
Q 828 903 1448 1529 
Q 2069 2156 2228 2338 
Q 2531 2678 2651 2914 
Q 2772 3150 2772 3378 
Q 2772 3750 2511 3984 
Q 2250 4219 1831 4219 
Q 1534 4219 1204 4116 
Q 875 4013 500 3803 
L 500 4441 
Q 881 4594 1212 4672 
Q 1544 4750 1819 4750 
Q 2544 4750 2975 4387 
Q 3406 4025 3406 3419 
Q 3406 3131 3298 2873 
Q 3191 2616 2906 2266 
Q 2828 2175 2409 1742 
Q 1991 1309 1228 531 
z
" transform="scale(0.015625)"/>
       </defs>
       <use xlink:href="#DejaVuSans-32"/>
       <use xlink:href="#DejaVuSans-30" x="63.623047"/>
      </g>
     </g>
    </g>
    <g id="xtick_6">
     <g id="line2d_11">
      <path d="M 881.980967 331.120625 
L 881.980967 23.76 
" clip-path="url(#pbffd9ff249)" style="fill: none; stroke: #b0b0b0; stroke-width: 0.8; stroke-linecap: square"/>
     </g>
     <g id="line2d_12">
      <g>
       <use xlink:href="#me39ed0827f" x="881.980967" y="331.120625" style="stroke: #000000; stroke-width: 0.8"/>
      </g>
     </g>
     <g id="text_6">
      <!-- 25 -->
      <g transform="translate(867.983467 354.837188) scale(0.22 -0.22)">
       <use xlink:href="#DejaVuSans-32"/>
       <use xlink:href="#DejaVuSans-35" x="63.623047"/>
      </g>
     </g>
    </g>
    <g id="text_7">
     <!-- RTT (ms) -->
     <g transform="translate(442.372812 381.64875) scale(0.24 -0.24)">
      <defs>
       <path id="DejaVuSans-52" d="M 2841 2188 
Q 3044 2119 3236 1894 
Q 3428 1669 3622 1275 
L 4263 0 
L 3584 0 
L 2988 1197 
Q 2756 1666 2539 1819 
Q 2322 1972 1947 1972 
L 1259 1972 
L 1259 0 
L 628 0 
L 628 4666 
L 2053 4666 
Q 2853 4666 3247 4331 
Q 3641 3997 3641 3322 
Q 3641 2881 3436 2590 
Q 3231 2300 2841 2188 
z
M 1259 4147 
L 1259 2491 
L 2053 2491 
Q 2509 2491 2742 2702 
Q 2975 2913 2975 3322 
Q 2975 3731 2742 3939 
Q 2509 4147 2053 4147 
L 1259 4147 
z
" transform="scale(0.015625)"/>
       <path id="DejaVuSans-54" d="M -19 4666 
L 3928 4666 
L 3928 4134 
L 2272 4134 
L 2272 0 
L 1638 0 
L 1638 4134 
L -19 4134 
L -19 4666 
z
" transform="scale(0.015625)"/>
       <path id="DejaVuSans-20" transform="scale(0.015625)"/>
       <path id="DejaVuSans-28" d="M 1984 4856 
Q 1566 4138 1362 3434 
Q 1159 2731 1159 2009 
Q 1159 1288 1364 580 
Q 1569 -128 1984 -844 
L 1484 -844 
Q 1016 -109 783 600 
Q 550 1309 550 2009 
Q 550 2706 781 3412 
Q 1013 4119 1484 4856 
L 1984 4856 
z
" transform="scale(0.015625)"/>
       <path id="DejaVuSans-6d" d="M 3328 2828 
Q 3544 3216 3844 3400 
Q 4144 3584 4550 3584 
Q 5097 3584 5394 3201 
Q 5691 2819 5691 2113 
L 5691 0 
L 5113 0 
L 5113 2094 
Q 5113 2597 4934 2840 
Q 4756 3084 4391 3084 
Q 3944 3084 3684 2787 
Q 3425 2491 3425 1978 
L 3425 0 
L 2847 0 
L 2847 2094 
Q 2847 2600 2669 2842 
Q 2491 3084 2119 3084 
Q 1678 3084 1418 2786 
Q 1159 2488 1159 1978 
L 1159 0 
L 581 0 
L 581 3500 
L 1159 3500 
L 1159 2956 
Q 1356 3278 1631 3431 
Q 1906 3584 2284 3584 
Q 2666 3584 2933 3390 
Q 3200 3197 3328 2828 
z
" transform="scale(0.015625)"/>
       <path id="DejaVuSans-73" d="M 2834 3397 
L 2834 2853 
Q 2591 2978 2328 3040 
Q 2066 3103 1784 3103 
Q 1356 3103 1142 2972 
Q 928 2841 928 2578 
Q 928 2378 1081 2264 
Q 1234 2150 1697 2047 
L 1894 2003 
Q 2506 1872 2764 1633 
Q 3022 1394 3022 966 
Q 3022 478 2636 193 
Q 2250 -91 1575 -91 
Q 1294 -91 989 -36 
Q 684 19 347 128 
L 347 722 
Q 666 556 975 473 
Q 1284 391 1588 391 
Q 1994 391 2212 530 
Q 2431 669 2431 922 
Q 2431 1156 2273 1281 
Q 2116 1406 1581 1522 
L 1381 1569 
Q 847 1681 609 1914 
Q 372 2147 372 2553 
Q 372 3047 722 3315 
Q 1072 3584 1716 3584 
Q 2034 3584 2315 3537 
Q 2597 3491 2834 3397 
z
" transform="scale(0.015625)"/>
       <path id="DejaVuSans-29" d="M 513 4856 
L 1013 4856 
Q 1481 4119 1714 3412 
Q 1947 2706 1947 2009 
Q 1947 1309 1714 600 
Q 1481 -109 1013 -844 
L 513 -844 
Q 928 -128 1133 580 
Q 1338 1288 1338 2009 
Q 1338 2731 1133 3434 
Q 928 4138 513 4856 
z
" transform="scale(0.015625)"/>
      </defs>
      <use xlink:href="#DejaVuSans-52"/>
      <use xlink:href="#DejaVuSans-54" x="62.232422"/>
      <use xlink:href="#DejaVuSans-54" x="121.566406"/>
      <use xlink:href="#DejaVuSans-20" x="182.650391"/>
      <use xlink:href="#DejaVuSans-28" x="214.4375"/>
      <use xlink:href="#DejaVuSans-6d" x="253.451172"/>
      <use xlink:href="#DejaVuSans-73" x="350.863281"/>
      <use xlink:href="#DejaVuSans-29" x="402.962891"/>
     </g>
    </g>
   </g>
   <g id="matplotlib.axis_2">
    <g id="ytick_1">
     <g id="line2d_13">
      <path d="M 92.974375 317.149688 
L 897.84 317.149688 
" clip-path="url(#pbffd9ff249)" style="fill: none; stroke: #b0b0b0; stroke-width: 0.8; stroke-linecap: square"/>
     </g>
     <g id="line2d_14">
      <defs>
       <path id="m767daed317" d="M 0 0 
L -3.5 0 
" style="stroke: #000000; stroke-width: 0.8"/>
      </defs>
      <g>
       <use xlink:href="#m767daed317" x="92.974375" y="317.149688" style="stroke: #000000; stroke-width: 0.8"/>
      </g>
     </g>
     <g id="text_8">
      <!-- 0.0 -->
      <g transform="translate(50.9875 325.507969) scale(0.22 -0.22)">
       <defs>
        <path id="DejaVuSans-2e" d="M 684 794 
L 1344 794 
L 1344 0 
L 684 0 
L 684 794 
z
" transform="scale(0.015625)"/>
       </defs>
       <use xlink:href="#DejaVuSans-30"/>
       <use xlink:href="#DejaVuSans-2e" x="63.623047"/>
       <use xlink:href="#DejaVuSans-30" x="95.410156"/>
      </g>
     </g>
    </g>
    <g id="ytick_2">
     <g id="line2d_15">
      <path d="M 92.974375 261.265938 
L 897.84 261.265938 
" clip-path="url(#pbffd9ff249)" style="fill: none; stroke: #b0b0b0; stroke-width: 0.8; stroke-linecap: square"/>
     </g>
     <g id="line2d_16">
      <g>
       <use xlink:href="#m767daed317" x="92.974375" y="261.265938" style="stroke: #000000; stroke-width: 0.8"/>
      </g>
     </g>
     <g id="text_9">
      <!-- 0.2 -->
      <g transform="translate(50.9875 269.624219) scale(0.22 -0.22)">
       <use xlink:href="#DejaVuSans-30"/>
       <use xlink:href="#DejaVuSans-2e" x="63.623047"/>
       <use xlink:href="#DejaVuSans-32" x="95.410156"/>
      </g>
     </g>
    </g>
    <g id="ytick_3">
     <g id="line2d_17">
      <path d="M 92.974375 205.382188 
L 897.84 205.382188 
" clip-path="url(#pbffd9ff249)" style="fill: none; stroke: #b0b0b0; stroke-width: 0.8; stroke-linecap: square"/>
     </g>
     <g id="line2d_18">
      <g>
       <use xlink:href="#m767daed317" x="92.974375" y="205.382188" style="stroke: #000000; stroke-width: 0.8"/>
      </g>
     </g>
     <g id="text_10">
      <!-- 0.4 -->
      <g transform="translate(50.9875 213.740469) scale(0.22 -0.22)">
       <defs>
        <path id="DejaVuSans-34" d="M 2419 4116 
L 825 1625 
L 2419 1625 
L 2419 4116 
z
M 2253 4666 
L 3047 4666 
L 3047 1625 
L 3713 1625 
L 3713 1100 
L 3047 1100 
L 3047 0 
L 2419 0 
L 2419 1100 
L 313 1100 
L 313 1709 
L 2253 4666 
z
" transform="scale(0.015625)"/>
       </defs>
       <use xlink:href="#DejaVuSans-30"/>
       <use xlink:href="#DejaVuSans-2e" x="63.623047"/>
       <use xlink:href="#DejaVuSans-34" x="95.410156"/>
      </g>
     </g>
    </g>
    <g id="ytick_4">
     <g id="line2d_19">
      <path d="M 92.974375 149.498438 
L 897.84 149.498438 
" clip-path="url(#pbffd9ff249)" style="fill: none; stroke: #b0b0b0; stroke-width: 0.8; stroke-linecap: square"/>
     </g>
     <g id="line2d_20">
      <g>
       <use xlink:href="#m767daed317" x="92.974375" y="149.498438" style="stroke: #000000; stroke-width: 0.8"/>
      </g>
     </g>
     <g id="text_11">
      <!-- 0.6 -->
      <g transform="translate(50.9875 157.856719) scale(0.22 -0.22)">
       <defs>
        <path id="DejaVuSans-36" d="M 2113 2584 
Q 1688 2584 1439 2293 
Q 1191 2003 1191 1497 
Q 1191 994 1439 701 
Q 1688 409 2113 409 
Q 2538 409 2786 701 
Q 3034 994 3034 1497 
Q 3034 2003 2786 2293 
Q 2538 2584 2113 2584 
z
M 3366 4563 
L 3366 3988 
Q 3128 4100 2886 4159 
Q 2644 4219 2406 4219 
Q 1781 4219 1451 3797 
Q 1122 3375 1075 2522 
Q 1259 2794 1537 2939 
Q 1816 3084 2150 3084 
Q 2853 3084 3261 2657 
Q 3669 2231 3669 1497 
Q 3669 778 3244 343 
Q 2819 -91 2113 -91 
Q 1303 -91 875 529 
Q 447 1150 447 2328 
Q 447 3434 972 4092 
Q 1497 4750 2381 4750 
Q 2619 4750 2861 4703 
Q 3103 4656 3366 4563 
z
" transform="scale(0.015625)"/>
       </defs>
       <use xlink:href="#DejaVuSans-30"/>
       <use xlink:href="#DejaVuSans-2e" x="63.623047"/>
       <use xlink:href="#DejaVuSans-36" x="95.410156"/>
      </g>
     </g>
    </g>
    <g id="ytick_5">
     <g id="line2d_21">
      <path d="M 92.974375 93.614688 
L 897.84 93.614688 
" clip-path="url(#pbffd9ff249)" style="fill: none; stroke: #b0b0b0; stroke-width: 0.8; stroke-linecap: square"/>
     </g>
     <g id="line2d_22">
      <g>
       <use xlink:href="#m767daed317" x="92.974375" y="93.614688" style="stroke: #000000; stroke-width: 0.8"/>
      </g>
     </g>
     <g id="text_12">
      <!-- 0.8 -->
      <g transform="translate(50.9875 101.972969) scale(0.22 -0.22)">
       <defs>
        <path id="DejaVuSans-38" d="M 2034 2216 
Q 1584 2216 1326 1975 
Q 1069 1734 1069 1313 
Q 1069 891 1326 650 
Q 1584 409 2034 409 
Q 2484 409 2743 651 
Q 3003 894 3003 1313 
Q 3003 1734 2745 1975 
Q 2488 2216 2034 2216 
z
M 1403 2484 
Q 997 2584 770 2862 
Q 544 3141 544 3541 
Q 544 4100 942 4425 
Q 1341 4750 2034 4750 
Q 2731 4750 3128 4425 
Q 3525 4100 3525 3541 
Q 3525 3141 3298 2862 
Q 3072 2584 2669 2484 
Q 3125 2378 3379 2068 
Q 3634 1759 3634 1313 
Q 3634 634 3220 271 
Q 2806 -91 2034 -91 
Q 1263 -91 848 271 
Q 434 634 434 1313 
Q 434 1759 690 2068 
Q 947 2378 1403 2484 
z
M 1172 3481 
Q 1172 3119 1398 2916 
Q 1625 2713 2034 2713 
Q 2441 2713 2670 2916 
Q 2900 3119 2900 3481 
Q 2900 3844 2670 4047 
Q 2441 4250 2034 4250 
Q 1625 4250 1398 4047 
Q 1172 3844 1172 3481 
z
" transform="scale(0.015625)"/>
       </defs>
       <use xlink:href="#DejaVuSans-30"/>
       <use xlink:href="#DejaVuSans-2e" x="63.623047"/>
       <use xlink:href="#DejaVuSans-38" x="95.410156"/>
      </g>
     </g>
    </g>
    <g id="ytick_6">
     <g id="line2d_23">
      <path d="M 92.974375 37.730937 
L 897.84 37.730937 
" clip-path="url(#pbffd9ff249)" style="fill: none; stroke: #b0b0b0; stroke-width: 0.8; stroke-linecap: square"/>
     </g>
     <g id="line2d_24">
      <g>
       <use xlink:href="#m767daed317" x="92.974375" y="37.730937" style="stroke: #000000; stroke-width: 0.8"/>
      </g>
     </g>
     <g id="text_13">
      <!-- 1.0 -->
      <g transform="translate(50.9875 46.089219) scale(0.22 -0.22)">
       <use xlink:href="#DejaVuSans-31"/>
       <use xlink:href="#DejaVuSans-2e" x="63.623047"/>
       <use xlink:href="#DejaVuSans-30" x="95.410156"/>
      </g>
     </g>
    </g>
    <g id="text_14">
     <!-- Likelihood of occurrence -->
     <g transform="translate(41.99625 323.628438) rotate(-90) scale(0.24 -0.24)">
      <defs>
       <path id="DejaVuSans-4c" d="M 628 4666 
L 1259 4666 
L 1259 531 
L 3531 531 
L 3531 0 
L 628 0 
L 628 4666 
z
" transform="scale(0.015625)"/>
       <path id="DejaVuSans-69" d="M 603 3500 
L 1178 3500 
L 1178 0 
L 603 0 
L 603 3500 
z
M 603 4863 
L 1178 4863 
L 1178 4134 
L 603 4134 
L 603 4863 
z
" transform="scale(0.015625)"/>
       <path id="DejaVuSans-6b" d="M 581 4863 
L 1159 4863 
L 1159 1991 
L 2875 3500 
L 3609 3500 
L 1753 1863 
L 3688 0 
L 2938 0 
L 1159 1709 
L 1159 0 
L 581 0 
L 581 4863 
z
" transform="scale(0.015625)"/>
       <path id="DejaVuSans-65" d="M 3597 1894 
L 3597 1613 
L 953 1613 
Q 991 1019 1311 708 
Q 1631 397 2203 397 
Q 2534 397 2845 478 
Q 3156 559 3463 722 
L 3463 178 
Q 3153 47 2828 -22 
Q 2503 -91 2169 -91 
Q 1331 -91 842 396 
Q 353 884 353 1716 
Q 353 2575 817 3079 
Q 1281 3584 2069 3584 
Q 2775 3584 3186 3129 
Q 3597 2675 3597 1894 
z
M 3022 2063 
Q 3016 2534 2758 2815 
Q 2500 3097 2075 3097 
Q 1594 3097 1305 2825 
Q 1016 2553 972 2059 
L 3022 2063 
z
" transform="scale(0.015625)"/>
       <path id="DejaVuSans-6c" d="M 603 4863 
L 1178 4863 
L 1178 0 
L 603 0 
L 603 4863 
z
" transform="scale(0.015625)"/>
       <path id="DejaVuSans-68" d="M 3513 2113 
L 3513 0 
L 2938 0 
L 2938 2094 
Q 2938 2591 2744 2837 
Q 2550 3084 2163 3084 
Q 1697 3084 1428 2787 
Q 1159 2491 1159 1978 
L 1159 0 
L 581 0 
L 581 4863 
L 1159 4863 
L 1159 2956 
Q 1366 3272 1645 3428 
Q 1925 3584 2291 3584 
Q 2894 3584 3203 3211 
Q 3513 2838 3513 2113 
z
" transform="scale(0.015625)"/>
       <path id="DejaVuSans-6f" d="M 1959 3097 
Q 1497 3097 1228 2736 
Q 959 2375 959 1747 
Q 959 1119 1226 758 
Q 1494 397 1959 397 
Q 2419 397 2687 759 
Q 2956 1122 2956 1747 
Q 2956 2369 2687 2733 
Q 2419 3097 1959 3097 
z
M 1959 3584 
Q 2709 3584 3137 3096 
Q 3566 2609 3566 1747 
Q 3566 888 3137 398 
Q 2709 -91 1959 -91 
Q 1206 -91 779 398 
Q 353 888 353 1747 
Q 353 2609 779 3096 
Q 1206 3584 1959 3584 
z
" transform="scale(0.015625)"/>
       <path id="DejaVuSans-64" d="M 2906 2969 
L 2906 4863 
L 3481 4863 
L 3481 0 
L 2906 0 
L 2906 525 
Q 2725 213 2448 61 
Q 2172 -91 1784 -91 
Q 1150 -91 751 415 
Q 353 922 353 1747 
Q 353 2572 751 3078 
Q 1150 3584 1784 3584 
Q 2172 3584 2448 3432 
Q 2725 3281 2906 2969 
z
M 947 1747 
Q 947 1113 1208 752 
Q 1469 391 1925 391 
Q 2381 391 2643 752 
Q 2906 1113 2906 1747 
Q 2906 2381 2643 2742 
Q 2381 3103 1925 3103 
Q 1469 3103 1208 2742 
Q 947 2381 947 1747 
z
" transform="scale(0.015625)"/>
       <path id="DejaVuSans-66" d="M 2375 4863 
L 2375 4384 
L 1825 4384 
Q 1516 4384 1395 4259 
Q 1275 4134 1275 3809 
L 1275 3500 
L 2222 3500 
L 2222 3053 
L 1275 3053 
L 1275 0 
L 697 0 
L 697 3053 
L 147 3053 
L 147 3500 
L 697 3500 
L 697 3744 
Q 697 4328 969 4595 
Q 1241 4863 1831 4863 
L 2375 4863 
z
" transform="scale(0.015625)"/>
       <path id="DejaVuSans-63" d="M 3122 3366 
L 3122 2828 
Q 2878 2963 2633 3030 
Q 2388 3097 2138 3097 
Q 1578 3097 1268 2742 
Q 959 2388 959 1747 
Q 959 1106 1268 751 
Q 1578 397 2138 397 
Q 2388 397 2633 464 
Q 2878 531 3122 666 
L 3122 134 
Q 2881 22 2623 -34 
Q 2366 -91 2075 -91 
Q 1284 -91 818 406 
Q 353 903 353 1747 
Q 353 2603 823 3093 
Q 1294 3584 2113 3584 
Q 2378 3584 2631 3529 
Q 2884 3475 3122 3366 
z
" transform="scale(0.015625)"/>
       <path id="DejaVuSans-75" d="M 544 1381 
L 544 3500 
L 1119 3500 
L 1119 1403 
Q 1119 906 1312 657 
Q 1506 409 1894 409 
Q 2359 409 2629 706 
Q 2900 1003 2900 1516 
L 2900 3500 
L 3475 3500 
L 3475 0 
L 2900 0 
L 2900 538 
Q 2691 219 2414 64 
Q 2138 -91 1772 -91 
Q 1169 -91 856 284 
Q 544 659 544 1381 
z
M 1991 3584 
L 1991 3584 
z
" transform="scale(0.015625)"/>
       <path id="DejaVuSans-72" d="M 2631 2963 
Q 2534 3019 2420 3045 
Q 2306 3072 2169 3072 
Q 1681 3072 1420 2755 
Q 1159 2438 1159 1844 
L 1159 0 
L 581 0 
L 581 3500 
L 1159 3500 
L 1159 2956 
Q 1341 3275 1631 3429 
Q 1922 3584 2338 3584 
Q 2397 3584 2469 3576 
Q 2541 3569 2628 3553 
L 2631 2963 
z
" transform="scale(0.015625)"/>
       <path id="DejaVuSans-6e" d="M 3513 2113 
L 3513 0 
L 2938 0 
L 2938 2094 
Q 2938 2591 2744 2837 
Q 2550 3084 2163 3084 
Q 1697 3084 1428 2787 
Q 1159 2491 1159 1978 
L 1159 0 
L 581 0 
L 581 3500 
L 1159 3500 
L 1159 2956 
Q 1366 3272 1645 3428 
Q 1925 3584 2291 3584 
Q 2894 3584 3203 3211 
Q 3513 2838 3513 2113 
z
" transform="scale(0.015625)"/>
      </defs>
      <use xlink:href="#DejaVuSans-4c"/>
      <use xlink:href="#DejaVuSans-69" x="55.712891"/>
      <use xlink:href="#DejaVuSans-6b" x="83.496094"/>
      <use xlink:href="#DejaVuSans-65" x="137.78125"/>
      <use xlink:href="#DejaVuSans-6c" x="199.304688"/>
      <use xlink:href="#DejaVuSans-69" x="227.087891"/>
      <use xlink:href="#DejaVuSans-68" x="254.871094"/>
      <use xlink:href="#DejaVuSans-6f" x="318.25"/>
      <use xlink:href="#DejaVuSans-6f" x="379.431641"/>
      <use xlink:href="#DejaVuSans-64" x="440.613281"/>
      <use xlink:href="#DejaVuSans-20" x="504.089844"/>
      <use xlink:href="#DejaVuSans-6f" x="535.876953"/>
      <use xlink:href="#DejaVuSans-66" x="597.058594"/>
      <use xlink:href="#DejaVuSans-20" x="632.263672"/>
      <use xlink:href="#DejaVuSans-6f" x="664.050781"/>
      <use xlink:href="#DejaVuSans-63" x="725.232422"/>
      <use xlink:href="#DejaVuSans-63" x="780.212891"/>
      <use xlink:href="#DejaVuSans-75" x="835.193359"/>
      <use xlink:href="#DejaVuSans-72" x="898.572266"/>
      <use xlink:href="#DejaVuSans-72" x="937.935547"/>
      <use xlink:href="#DejaVuSans-65" x="976.798828"/>
      <use xlink:href="#DejaVuSans-6e" x="1038.322266"/>
      <use xlink:href="#DejaVuSans-63" x="1101.701172"/>
      <use xlink:href="#DejaVuSans-65" x="1156.681641"/>
     </g>
    </g>
   </g>
   <g id="line2d_25">
    <path d="M 92.974375 317.149688 
L 229.257332 317.04318 
L 233.800097 316.82242 
L 239.936815 316.580358 
L 240.574396 316.320868 
L 241.530768 315.463001 
L 242.407442 314.062915 
L 242.726232 312.92232 
L 243.523209 306.19881 
L 244.559278 294.94003 
L 245.037464 281.039872 
L 245.51565 266.245053 
L 246.073533 254.885575 
L 246.711114 236.171291 
L 247.109602 221.492661 
L 247.428393 214.867913 
L 247.826881 209.044873 
L 248.145672 204.823315 
L 248.305067 202.489839 
L 249.022346 189.782561 
L 249.580229 186.184554 
L 251.174182 179.48041 
L 251.89146 178.610924 
L 253.007227 178.111308 
L 255.876342 177.193409 
L 256.27483 176.804174 
L 256.593621 176.413002 
L 257.3109 175.768149 
L 258.028178 174.503618 
L 258.426667 173.304928 
L 258.825155 172.210809 
L 259.462736 169.635271 
L 260.020619 164.830828 
L 260.578503 159.635212 
L 260.817596 157.774241 
L 261.455177 149.375664 
L 261.853665 142.359744 
L 262.252153 136.226865 
L 263.208525 127.214419 
L 263.68671 122.032359 
L 264.005501 119.451012 
L 264.403989 117.481597 
L 264.961873 115.672911 
L 265.838547 113.261975 
L 266.157337 112.785597 
L 267.910685 111.472654 
L 268.627964 111.32548 
L 273.888008 111.087291 
L 275.402263 110.907197 
L 277.235309 110.438566 
L 279.626238 109.90603 
L 282.176562 109.766602 
L 284.806584 109.749174 
L 291.34179 109.64073 
L 294.848486 109.495493 
L 301.46339 109.385113 
L 302.977645 109.205019 
L 304.093412 108.831275 
L 304.571598 108.414929 
L 305.84676 107.367285 
L 307.20162 104.704605 
L 307.440712 104.402512 
L 307.918898 103.416836 
L 308.87527 101.139518 
L 309.831641 99.793655 
L 310.23013 99.175913 
L 311.027106 98.699535 
L 311.744385 98.356776 
L 312.621059 98.089539 
L 315.410476 97.924937 
L 317.004429 97.775827 
L 318.120196 97.617035 
L 319.076567 97.363354 
L 320.590822 96.209203 
L 321.069008 95.448161 
L 321.786287 94.050011 
L 322.423868 92.880369 
L 324.017821 88.416749 
L 324.256914 87.91326 
L 325.133588 85.711466 
L 325.532076 85.147946 
L 326.72754 84.12354 
L 327.444819 83.782717 
L 329.038772 83.496116 
L 332.146979 83.244371 
L 333.183049 82.984881 
L 334.777001 82.365203 
L 335.17549 82.119268 
L 337.16793 79.474016 
L 337.566419 78.641324 
L 338.124302 76.619623 
L 339.080674 74.805128 
L 339.240069 74.464305 
L 340.355836 71.981718 
L 340.993417 71.271025 
L 341.391905 70.874043 
L 341.790393 70.484808 
L 342.90616 70.060716 
L 344.659508 69.659861 
L 348.405297 69.464275 
L 350.796226 69.067294 
L 352.629272 68.484409 
L 353.346551 68.069999 
L 354.143527 67.713684 
L 355.418689 66.972007 
L 357.969013 66.394931 
L 361.7945 66.22452 
L 382.117397 66.11414 
L 384.03014 65.914681 
L 385.624093 65.637762 
L 387.616534 65.409256 
L 394.550228 65.134273 
L 396.223878 64.710181 
L 396.941157 64.34612 
L 398.136622 63.387555 
L 398.614808 62.975082 
L 399.88997 60.806208 
L 400.447853 60.182657 
L 401.723015 57.934386 
L 402.998178 56.848013 
L 403.316968 56.638871 
L 403.795154 56.464587 
L 405.150014 56.216715 
L 406.106385 56.166367 
L 408.497314 56.059859 
L 412.00401 55.444054 
L 413.119777 54.851487 
L 413.518265 54.619107 
L 414.793428 53.031182 
L 415.749799 51.950618 
L 416.227985 51.09856 
L 416.546776 50.740309 
L 416.945264 50.445961 
L 417.343752 50.103202 
L 417.901635 49.522253 
L 418.220426 49.276319 
L 418.618914 49.102034 
L 419.734681 48.77283 
L 420.212867 48.658577 
L 423.79926 48.505594 
L 429.139002 48.40296 
L 431.211141 48.261595 
L 437.108766 48.083438 
L 459.344406 47.973058 
L 466.915681 47.531537 
L 473.37119 47.423093 
L 475.921514 47.194587 
L 479.587605 46.683352 
L 483.413092 46.605892 
L 490.346786 46.501322 
L 494.331668 46.125642 
L 496.96169 46.040436 
L 505.329942 45.931992 
L 512.343334 45.527265 
L 526.051327 45.416885 
L 530.753487 45.413012 
L 549.641827 45.306505 
L 553.786104 44.91146 
L 554.503383 44.783651 
L 556.097336 44.545462 
L 558.010079 44.421527 
L 562.234053 44.311146 
L 565.023471 44.132989 
L 566.458028 43.885118 
L 567.892586 43.474581 
L 568.848957 42.998203 
L 569.566236 42.748395 
L 570.682003 42.004781 
L 572.754141 41.454817 
L 574.348094 41.323135 
L 579.687836 41.212755 
L 595.38827 40.941646 
L 616.587841 40.831265 
L 620.094537 40.771234 
L 627.74551 40.660854 
L 630.216137 40.498188 
L 632.686763 40.248381 
L 635.635576 40.141873 
L 645.916571 40.031493 
L 654.04573 39.944351 
L 661.298215 39.833971 
L 670.941628 39.710035 
L 712.862585 39.599655 
L 715.652002 39.57448 
L 719.875977 39.4641 
L 723.781161 38.979977 
L 724.976625 38.75728 
L 726.012695 38.629471 
L 727.208159 38.557821 
L 735.815504 38.447441 
L 738.764316 38.34287 
L 743.307082 38.23249 
L 748.168637 38.224744 
L 785.467131 38.118236 
L 787.778362 38.058205 
L 812.245536 37.947825 
L 819.099533 37.891667 
L 875.366064 37.781286 
L 881.980967 37.730938 
L 889.871033 37.730938 
L 889.871033 37.730938 
" clip-path="url(#pbffd9ff249)" style="fill: none; stroke: #1f77b4; stroke-width: 2; stroke-linecap: square"/>
   </g>
   <g id="line2d_26">
    <path d="M 92.974375 317.149688 
L 228.938541 317.04213 
L 232.046749 316.699539 
L 233.640702 316.572063 
L 239.618025 316.464506 
L 240.733791 316.219513 
L 241.530768 315.837086 
L 242.407442 315.012478 
L 242.885628 313.89109 
L 244.47958 304.234806 
L 244.718673 301.328759 
L 245.675045 282.478291 
L 246.073533 276.737901 
L 246.790812 261.661909 
L 247.1893 252.678856 
L 247.986276 244.54033 
L 248.305067 241.638266 
L 249.022346 234.485685 
L 249.500531 232.539689 
L 249.978717 231.310743 
L 250.695996 229.324911 
L 251.492972 228.243359 
L 252.050856 227.910728 
L 254.760575 227.343062 
L 255.796645 227.159816 
L 256.912411 226.394962 
L 257.789085 225.693846 
L 259.303341 222.222125 
L 259.861224 219.081044 
L 260.419107 214.689108 
L 260.976991 210.685575 
L 261.534874 204.210208 
L 262.01306 197.185102 
L 262.411548 193.046126 
L 263.36792 186.371578 
L 263.766408 183.429678 
L 264.72278 180.18104 
L 265.440058 178.838561 
L 266.476128 177.707215 
L 266.954314 177.402468 
L 267.512197 177.121623 
L 270.461009 176.858705 
L 273.569217 176.685417 
L 275.481961 176.099826 
L 276.358635 175.609841 
L 276.916518 175.004332 
L 277.633797 174.378904 
L 279.227749 173.086221 
L 281.698376 172.570343 
L 302.499459 171.946907 
L 303.774621 171.687972 
L 304.651295 171.309528 
L 306.085853 170.255862 
L 307.440712 168.495104 
L 307.679805 168.232186 
L 308.954967 166.431591 
L 309.512851 166.015304 
L 310.23013 165.391868 
L 310.947408 165.128949 
L 313.019547 164.770424 
L 316.127755 164.509497 
L 316.605941 164.316292 
L 317.243522 164.01752 
L 318.518684 163.013649 
L 318.917172 162.406148 
L 319.31566 161.137367 
L 320.112636 158.277131 
L 320.750218 154.97073 
L 321.228403 150.046981 
L 321.706589 144.069566 
L 322.105077 139.920631 
L 323.220844 121.954526 
L 323.539635 116.755908 
L 324.416309 107.72306 
L 325.133588 99.108491 
L 325.532076 96.377723 
L 327.285424 90.320636 
L 327.683912 89.701184 
L 328.640283 88.836739 
L 329.198167 88.601706 
L 331.429701 88.034041 
L 332.46577 87.840835 
L 334.298816 86.830989 
L 335.414583 85.359043 
L 335.653675 84.886985 
L 336.052164 83.464834 
L 336.530349 81.572617 
L 337.566419 76.148924 
L 338.283697 68.693588 
L 339.240069 62.086762 
L 339.957348 56.069511 
L 340.594929 53.055906 
L 341.23251 50.868901 
L 341.790393 49.110135 
L 342.746765 47.93696 
L 343.703137 47.090442 
L 344.101625 46.943048 
L 344.739206 46.807605 
L 347.847414 46.606433 
L 351.752598 46.496883 
L 353.984132 46.333555 
L 357.092339 46.128399 
L 382.35649 46.018849 
L 384.667721 45.897349 
L 390.007463 45.739996 
L 397.897529 45.439233 
L 399.332086 45.040872 
L 403.316968 44.152525 
L 404.59213 44.100738 
L 413.916754 43.762131 
L 417.981333 42.961424 
L 428.262328 42.814031 
L 458.706825 42.704481 
L 465.002938 42.499325 
L 474.008771 42.389776 
L 477.037281 42.132832 
L 479.587605 41.921701 
L 485.644626 41.879873 
L 489.390414 41.776299 
L 497.200783 41.107052 
L 502.540524 41.08315 
L 506.445709 40.9736 
L 510.908776 40.746534 
L 516.806401 40.70869 
L 547.808781 40.599141 
L 553.148523 40.358132 
L 555.459754 40.121107 
L 558.010079 40.035459 
L 564.784378 39.92591 
L 567.334702 39.637097 
L 569.566236 38.965858 
L 571.718072 38.485833 
L 572.594746 38.402177 
L 575.304466 38.30657 
L 585.426065 38.19702 
L 588.135785 38.169135 
L 628.0643 38.059586 
L 640.656527 37.85443 
L 645.757176 37.750856 
L 647.032338 37.730938 
L 889.871033 37.730938 
L 889.871033 37.730938 
" clip-path="url(#pbffd9ff249)" style="fill: none; stroke: #ff7f0e; stroke-width: 2; stroke-linecap: square"/>
   </g>
   <g id="patch_3">
    <path d="M 92.974375 331.120625 
L 92.974375 23.76 
" style="fill: none; stroke: #000000; stroke-width: 0.8; stroke-linejoin: miter; stroke-linecap: square"/>
   </g>
   <g id="patch_4">
    <path d="M 897.84 331.120625 
L 897.84 23.76 
" style="fill: none; stroke: #000000; stroke-width: 0.8; stroke-linejoin: miter; stroke-linecap: square"/>
   </g>
   <g id="patch_5">
    <path d="M 92.974375 331.120625 
L 897.84 331.120625 
" style="fill: none; stroke: #000000; stroke-width: 0.8; stroke-linejoin: miter; stroke-linecap: square"/>
   </g>
   <g id="patch_6">
    <path d="M 92.974375 23.76 
L 897.84 23.76 
" style="fill: none; stroke: #000000; stroke-width: 0.8; stroke-linejoin: miter; stroke-linecap: square"/>
   </g>
   <g id="legend_1">
    <g id="patch_7">
     <path d="M 640.4175 319.120625 
L 881.04 319.120625 
Q 885.84 319.120625 885.84 314.320625 
L 885.84 244.930625 
Q 885.84 240.130625 881.04 240.130625 
L 640.4175 240.130625 
Q 635.6175 240.130625 635.6175 244.930625 
L 635.6175 314.320625 
Q 635.6175 319.120625 640.4175 319.120625 
z
" style="fill: #ffffff; opacity: 0.8; stroke: #cccccc; stroke-linejoin: miter"/>
    </g>
    <g id="line2d_27">
     <path d="M 645.2175 259.566875 
L 669.2175 259.566875 
L 693.2175 259.566875 
" style="fill: none; stroke: #1f77b4; stroke-width: 2; stroke-linecap: square"/>
    </g>
    <g id="text_15">
     <!-- no_MIMO_7_3 -->
     <g transform="translate(712.4175 267.966875) scale(0.24 -0.24)">
      <defs>
       <path id="DejaVuSans-5f" d="M 3263 -1063 
L 3263 -1509 
L -63 -1509 
L -63 -1063 
L 3263 -1063 
z
" transform="scale(0.015625)"/>
       <path id="DejaVuSans-4d" d="M 628 4666 
L 1569 4666 
L 2759 1491 
L 3956 4666 
L 4897 4666 
L 4897 0 
L 4281 0 
L 4281 4097 
L 3078 897 
L 2444 897 
L 1241 4097 
L 1241 0 
L 628 0 
L 628 4666 
z
" transform="scale(0.015625)"/>
       <path id="DejaVuSans-49" d="M 628 4666 
L 1259 4666 
L 1259 0 
L 628 0 
L 628 4666 
z
" transform="scale(0.015625)"/>
       <path id="DejaVuSans-4f" d="M 2522 4238 
Q 1834 4238 1429 3725 
Q 1025 3213 1025 2328 
Q 1025 1447 1429 934 
Q 1834 422 2522 422 
Q 3209 422 3611 934 
Q 4013 1447 4013 2328 
Q 4013 3213 3611 3725 
Q 3209 4238 2522 4238 
z
M 2522 4750 
Q 3503 4750 4090 4092 
Q 4678 3434 4678 2328 
Q 4678 1225 4090 567 
Q 3503 -91 2522 -91 
Q 1538 -91 948 565 
Q 359 1222 359 2328 
Q 359 3434 948 4092 
Q 1538 4750 2522 4750 
z
" transform="scale(0.015625)"/>
       <path id="DejaVuSans-37" d="M 525 4666 
L 3525 4666 
L 3525 4397 
L 1831 0 
L 1172 0 
L 2766 4134 
L 525 4134 
L 525 4666 
z
" transform="scale(0.015625)"/>
       <path id="DejaVuSans-33" d="M 2597 2516 
Q 3050 2419 3304 2112 
Q 3559 1806 3559 1356 
Q 3559 666 3084 287 
Q 2609 -91 1734 -91 
Q 1441 -91 1130 -33 
Q 819 25 488 141 
L 488 750 
Q 750 597 1062 519 
Q 1375 441 1716 441 
Q 2309 441 2620 675 
Q 2931 909 2931 1356 
Q 2931 1769 2642 2001 
Q 2353 2234 1838 2234 
L 1294 2234 
L 1294 2753 
L 1863 2753 
Q 2328 2753 2575 2939 
Q 2822 3125 2822 3475 
Q 2822 3834 2567 4026 
Q 2313 4219 1838 4219 
Q 1578 4219 1281 4162 
Q 984 4106 628 3988 
L 628 4550 
Q 988 4650 1302 4700 
Q 1616 4750 1894 4750 
Q 2613 4750 3031 4423 
Q 3450 4097 3450 3541 
Q 3450 3153 3228 2886 
Q 3006 2619 2597 2516 
z
" transform="scale(0.015625)"/>
      </defs>
      <use xlink:href="#DejaVuSans-6e"/>
      <use xlink:href="#DejaVuSans-6f" x="63.378906"/>
      <use xlink:href="#DejaVuSans-5f" x="124.560547"/>
      <use xlink:href="#DejaVuSans-4d" x="174.560547"/>
      <use xlink:href="#DejaVuSans-49" x="260.839844"/>
      <use xlink:href="#DejaVuSans-4d" x="290.332031"/>
      <use xlink:href="#DejaVuSans-4f" x="376.611328"/>
      <use xlink:href="#DejaVuSans-5f" x="455.322266"/>
      <use xlink:href="#DejaVuSans-37" x="505.322266"/>
      <use xlink:href="#DejaVuSans-5f" x="568.945312"/>
      <use xlink:href="#DejaVuSans-33" x="618.945312"/>
     </g>
    </g>
    <g id="line2d_28">
     <path d="M 645.2175 295.461875 
L 669.2175 295.461875 
L 693.2175 295.461875 
" style="fill: none; stroke: #ff7f0e; stroke-width: 2; stroke-linecap: square"/>
    </g>
    <g id="text_16">
     <!-- SlotConf7_3 -->
     <g transform="translate(712.4175 303.861875) scale(0.24 -0.24)">
      <defs>
       <path id="DejaVuSans-53" d="M 3425 4513 
L 3425 3897 
Q 3066 4069 2747 4153 
Q 2428 4238 2131 4238 
Q 1616 4238 1336 4038 
Q 1056 3838 1056 3469 
Q 1056 3159 1242 3001 
Q 1428 2844 1947 2747 
L 2328 2669 
Q 3034 2534 3370 2195 
Q 3706 1856 3706 1288 
Q 3706 609 3251 259 
Q 2797 -91 1919 -91 
Q 1588 -91 1214 -16 
Q 841 59 441 206 
L 441 856 
Q 825 641 1194 531 
Q 1563 422 1919 422 
Q 2459 422 2753 634 
Q 3047 847 3047 1241 
Q 3047 1584 2836 1778 
Q 2625 1972 2144 2069 
L 1759 2144 
Q 1053 2284 737 2584 
Q 422 2884 422 3419 
Q 422 4038 858 4394 
Q 1294 4750 2059 4750 
Q 2388 4750 2728 4690 
Q 3069 4631 3425 4513 
z
" transform="scale(0.015625)"/>
       <path id="DejaVuSans-74" d="M 1172 4494 
L 1172 3500 
L 2356 3500 
L 2356 3053 
L 1172 3053 
L 1172 1153 
Q 1172 725 1289 603 
Q 1406 481 1766 481 
L 2356 481 
L 2356 0 
L 1766 0 
Q 1100 0 847 248 
Q 594 497 594 1153 
L 594 3053 
L 172 3053 
L 172 3500 
L 594 3500 
L 594 4494 
L 1172 4494 
z
" transform="scale(0.015625)"/>
       <path id="DejaVuSans-43" d="M 4122 4306 
L 4122 3641 
Q 3803 3938 3442 4084 
Q 3081 4231 2675 4231 
Q 1875 4231 1450 3742 
Q 1025 3253 1025 2328 
Q 1025 1406 1450 917 
Q 1875 428 2675 428 
Q 3081 428 3442 575 
Q 3803 722 4122 1019 
L 4122 359 
Q 3791 134 3420 21 
Q 3050 -91 2638 -91 
Q 1578 -91 968 557 
Q 359 1206 359 2328 
Q 359 3453 968 4101 
Q 1578 4750 2638 4750 
Q 3056 4750 3426 4639 
Q 3797 4528 4122 4306 
z
" transform="scale(0.015625)"/>
      </defs>
      <use xlink:href="#DejaVuSans-53"/>
      <use xlink:href="#DejaVuSans-6c" x="63.476562"/>
      <use xlink:href="#DejaVuSans-6f" x="91.259766"/>
      <use xlink:href="#DejaVuSans-74" x="152.441406"/>
      <use xlink:href="#DejaVuSans-43" x="191.650391"/>
      <use xlink:href="#DejaVuSans-6f" x="261.474609"/>
      <use xlink:href="#DejaVuSans-6e" x="322.65625"/>
      <use xlink:href="#DejaVuSans-66" x="386.035156"/>
      <use xlink:href="#DejaVuSans-37" x="421.240234"/>
      <use xlink:href="#DejaVuSans-5f" x="484.863281"/>
      <use xlink:href="#DejaVuSans-33" x="534.863281"/>
     </g>
    </g>
   </g>
  </g>
 </g>
 <defs>
  <clipPath id="pbffd9ff249">
   <rect x="92.974375" y="23.76" width="804.865625" height="307.360625"/>
  </clipPath>
 </defs>
</svg>
