<?xml version="1.0" encoding="utf-8" standalone="no"?>
<!DOCTYPE svg PUBLIC "-//W3C//DTD SVG 1.1//EN"
  "http://www.w3.org/Graphics/SVG/1.1/DTD/svg11.dtd">
<svg xmlns:xlink="http://www.w3.org/1999/xlink" width="921.6pt" height="410.4pt" viewBox="0 0 921.6 410.4" xmlns="http://www.w3.org/2000/svg" version="1.1">
 <metadata>
  <rdf:RDF xmlns:dc="http://purl.org/dc/elements/1.1/" xmlns:cc="http://creativecommons.org/ns#" xmlns:rdf="http://www.w3.org/1999/02/22-rdf-syntax-ns#">
   <cc:Work>
    <dc:type rdf:resource="http://purl.org/dc/dcmitype/StillImage"/>
    <dc:date>2023-04-11T15:18:50.916543</dc:date>
    <dc:format>image/svg+xml</dc:format>
    <dc:creator>
     <cc:Agent>
      <dc:title>Matplotlib v3.5.3, https://matplotlib.org/</dc:title>
     </cc:Agent>
    </dc:creator>
   </cc:Work>
  </rdf:RDF>
 </metadata>
 <defs>
  <style type="text/css">*{stroke-linejoin: round; stroke-linecap: butt}</style>
 </defs>
 <g id="figure_1">
  <g id="patch_1">
   <path d="M 0 410.4 
L 921.6 410.4 
L 921.6 0 
L 0 0 
L 0 410.4 
z
" style="fill: none"/>
  </g>
  <g id="axes_1">
   <g id="patch_2">
    <path d="M 101.01 331.64 
L 897.84 331.64 
L 897.84 23.76 
L 101.01 23.76 
z
" style="fill: #ffffff"/>
   </g>
   <g id="PolyCollection_1">
    <path d="M 137.229545 224.752682 
L 137.229545 331.64 
L 141.209715 331.64 
L 145.189885 331.64 
L 149.170055 331.64 
L 153.150225 331.64 
L 157.130395 331.64 
L 161.110564 331.64 
L 165.090734 331.64 
L 169.070904 331.64 
L 173.051074 331.64 
L 177.031244 331.64 
L 181.011414 331.64 
L 184.991583 331.64 
L 188.971753 331.64 
L 192.951923 331.64 
L 196.932093 331.64 
L 200.912263 331.64 
L 204.892433 331.64 
L 208.872602 331.64 
L 212.852772 331.64 
L 216.832942 331.64 
L 220.813112 331.64 
L 224.793282 331.64 
L 228.773452 331.64 
L 232.753621 331.64 
L 236.733791 331.64 
L 240.713961 331.64 
L 244.694131 331.64 
L 248.674301 331.64 
L 252.654471 331.64 
L 256.63464 331.64 
L 260.61481 331.64 
L 264.59498 331.64 
L 268.57515 331.64 
L 272.55532 331.64 
L 276.53549 331.64 
L 280.515659 331.64 
L 284.495829 331.64 
L 288.475999 331.64 
L 292.456169 331.64 
L 296.436339 331.64 
L 300.416508 331.64 
L 304.396678 331.64 
L 308.376848 331.64 
L 312.357018 331.64 
L 316.337188 331.64 
L 320.317358 331.64 
L 324.297527 331.64 
L 328.277697 331.64 
L 332.257867 331.64 
L 336.238037 331.64 
L 340.218207 331.64 
L 344.198377 331.64 
L 348.178546 331.64 
L 352.158716 331.64 
L 356.138886 331.64 
L 360.119056 331.64 
L 364.099226 331.64 
L 368.079396 331.64 
L 372.059565 331.64 
L 376.039735 331.64 
L 380.019905 331.64 
L 384.000075 331.64 
L 387.980245 331.64 
L 391.960415 331.64 
L 395.940584 331.64 
L 399.920754 331.64 
L 403.900924 331.64 
L 407.881094 331.64 
L 411.861264 331.64 
L 415.841434 331.64 
L 419.821603 331.64 
L 423.801773 331.64 
L 427.781943 331.64 
L 431.762113 331.64 
L 435.742283 331.64 
L 439.722453 331.64 
L 443.702622 331.64 
L 447.682792 331.64 
L 451.662962 331.64 
L 455.643132 331.64 
L 459.623302 331.64 
L 463.603472 331.64 
L 467.583641 331.64 
L 471.563811 331.64 
L 475.543981 331.64 
L 479.524151 331.64 
L 483.504321 331.64 
L 487.484491 331.64 
L 491.46466 331.64 
L 495.44483 331.64 
L 499.425 331.64 
L 503.40517 331.64 
L 507.38534 331.64 
L 511.365509 331.64 
L 515.345679 331.64 
L 519.325849 331.64 
L 523.306019 331.64 
L 527.286189 331.64 
L 531.266359 331.64 
L 535.246528 331.64 
L 539.226698 331.64 
L 543.206868 331.64 
L 547.187038 331.64 
L 551.167208 331.64 
L 555.147378 331.64 
L 559.127547 331.64 
L 563.107717 331.64 
L 567.087887 331.64 
L 571.068057 331.64 
L 575.048227 331.64 
L 579.028397 331.64 
L 583.008566 331.64 
L 586.988736 331.64 
L 590.968906 331.64 
L 594.949076 331.64 
L 598.929246 331.64 
L 602.909416 331.64 
L 606.889585 331.64 
L 610.869755 331.64 
L 614.849925 331.64 
L 618.830095 331.64 
L 622.810265 331.64 
L 626.790435 331.64 
L 630.770604 331.64 
L 634.750774 331.64 
L 638.730944 331.64 
L 642.711114 331.64 
L 646.691284 331.64 
L 650.671454 331.64 
L 654.651623 331.64 
L 658.631793 331.64 
L 662.611963 331.64 
L 666.592133 331.64 
L 670.572303 331.64 
L 674.552473 331.64 
L 678.532642 331.64 
L 682.512812 331.64 
L 686.492982 331.64 
L 690.473152 331.64 
L 694.453322 331.64 
L 698.433492 331.64 
L 702.413661 331.64 
L 706.393831 331.64 
L 710.374001 331.64 
L 714.354171 331.64 
L 718.334341 331.64 
L 722.31451 331.64 
L 726.29468 331.64 
L 730.27485 331.64 
L 734.25502 331.64 
L 738.23519 331.64 
L 742.21536 331.64 
L 746.195529 331.64 
L 750.175699 331.64 
L 754.155869 331.64 
L 758.136039 331.64 
L 762.116209 331.64 
L 766.096379 331.64 
L 770.076548 331.64 
L 774.056718 331.64 
L 778.036888 331.64 
L 782.017058 331.64 
L 785.997228 331.64 
L 789.977398 331.64 
L 793.957567 331.64 
L 797.937737 331.64 
L 801.917907 331.64 
L 805.898077 331.64 
L 809.878247 331.64 
L 813.858417 331.64 
L 817.838586 331.64 
L 821.818756 331.64 
L 825.798926 331.64 
L 829.779096 331.64 
L 833.759266 331.64 
L 837.739436 331.64 
L 841.719605 331.64 
L 845.699775 331.64 
L 849.679945 331.64 
L 853.660115 331.64 
L 857.640285 331.64 
L 861.620455 331.64 
L 861.620455 228.390885 
L 861.620455 228.390885 
L 857.640285 228.781958 
L 853.660115 228.234592 
L 849.679945 228.129447 
L 845.699775 227.829364 
L 841.719605 229.14247 
L 837.739436 228.185205 
L 833.759266 228.429925 
L 829.779096 227.085504 
L 825.798926 229.563194 
L 821.818756 228.245538 
L 817.838586 227.171524 
L 813.858417 228.352468 
L 809.878247 228.372958 
L 805.898077 226.913344 
L 801.917907 228.655018 
L 797.937737 228.452356 
L 793.957567 228.555477 
L 789.977398 227.904343 
L 785.997228 228.074647 
L 782.017058 228.312721 
L 778.036888 228.250245 
L 774.056718 228.440967 
L 770.076548 228.204522 
L 766.096379 228.928048 
L 762.116209 228.086731 
L 758.136039 227.43683 
L 754.155869 229.235005 
L 750.175699 227.584129 
L 746.195529 228.529885 
L 742.21536 228.369736 
L 738.23519 227.741392 
L 734.25502 228.235922 
L 730.27485 227.337685 
L 726.29468 228.833118 
L 722.31451 227.585111 
L 718.334341 227.60359 
L 714.354171 229.23522 
L 710.374001 228.249286 
L 706.393831 228.143171 
L 702.413661 228.739242 
L 698.433492 228.054708 
L 694.453322 228.448979 
L 690.473152 228.540855 
L 686.492982 228.034972 
L 682.512812 228.710428 
L 678.532642 227.911181 
L 674.552473 227.90693 
L 670.572303 228.11049 
L 666.592133 228.873008 
L 662.611963 228.380407 
L 658.631793 228.094179 
L 654.651623 228.720811 
L 650.671454 228.383616 
L 646.691284 228.231479 
L 642.711114 228.255286 
L 638.730944 228.147686 
L 634.750774 228.297356 
L 630.770604 228.813238 
L 626.790435 228.042433 
L 622.810265 229.993284 
L 618.830095 228.654287 
L 614.849925 228.584985 
L 610.869755 228.275645 
L 606.889585 227.835951 
L 602.909416 228.607211 
L 598.929246 228.798496 
L 594.949076 227.839172 
L 590.968906 228.102598 
L 586.988736 228.553082 
L 583.008566 227.997692 
L 579.028397 228.779946 
L 575.048227 228.530963 
L 571.068057 227.437453 
L 567.087887 228.532041 
L 563.107717 228.296422 
L 559.127547 229.732061 
L 555.147378 228.805526 
L 551.167208 228.55677 
L 547.187038 228.858003 
L 543.206868 227.428711 
L 539.226698 228.904612 
L 535.246528 228.959795 
L 531.266359 229.250417 
L 527.286189 228.044193 
L 523.306019 228.961483 
L 519.325849 227.619206 
L 515.345679 228.904648 
L 511.365509 228.371377 
L 507.38534 227.353696 
L 503.40517 228.25519 
L 499.425 228.584398 
L 495.44483 228.507922 
L 491.46466 228.321164 
L 487.484491 227.730399 
L 483.504321 228.656682 
L 479.524151 229.093346 
L 475.543981 227.698148 
L 471.563811 227.898188 
L 467.583641 228.494174 
L 463.603472 229.349563 
L 459.623302 229.174816 
L 455.643132 226.568233 
L 451.662962 227.645696 
L 447.682792 228.901019 
L 443.702622 228.883499 
L 439.722453 228.954226 
L 435.742283 228.165757 
L 431.762113 228.955017 
L 427.781943 229.269542 
L 423.801773 228.979842 
L 419.821603 228.502809 
L 415.841434 227.50551 
L 411.861264 227.903744 
L 407.881094 228.775659 
L 403.900924 228.11364 
L 399.920754 228.852087 
L 395.940584 228.599343 
L 391.960415 227.935587 
L 387.980245 228.592888 
L 384.000075 228.451326 
L 380.019905 227.857219 
L 376.039735 229.502622 
L 372.059565 227.488529 
L 368.079396 228.175122 
L 364.099226 228.282698 
L 360.119056 227.93051 
L 356.138886 228.678765 
L 352.158716 228.437554 
L 348.178546 228.083473 
L 344.198377 227.787079 
L 340.218207 229.662663 
L 336.238037 227.435597 
L 332.257867 228.423938 
L 328.277697 228.683232 
L 324.297527 228.11728 
L 320.317358 228.59611 
L 316.337188 228.519083 
L 312.357018 227.276658 
L 308.376848 228.590781 
L 304.396678 228.334145 
L 300.416508 228.344396 
L 296.436339 228.550124 
L 292.456169 228.735924 
L 288.475999 227.505151 
L 284.495829 229.323612 
L 280.515659 227.655779 
L 276.53549 229.054162 
L 272.55532 228.358503 
L 268.57515 228.374958 
L 264.59498 229.738205 
L 260.61481 228.117136 
L 256.63464 228.688801 
L 252.654471 227.926067 
L 248.674301 231.692372 
L 244.694131 229.922843 
L 240.713961 227.901553 
L 236.733791 229.064557 
L 232.753621 228.122921 
L 228.773452 227.492289 
L 224.793282 229.378591 
L 220.813112 228.218414 
L 216.832942 227.58668 
L 212.852772 229.206766 
L 208.872602 228.295308 
L 204.892433 230.345041 
L 200.912263 230.31824 
L 196.932093 233.917031 
L 192.951923 225.81472 
L 188.971753 225.569593 
L 184.991583 224.249374 
L 181.011414 225.156353 
L 177.031244 225.171371 
L 173.051074 223.714128 
L 169.070904 225.36941 
L 165.090734 224.126038 
L 161.110564 224.479053 
L 157.130395 223.83526 
L 153.150225 224.375441 
L 149.170055 223.979757 
L 145.189885 226.172286 
L 141.209715 224.549697 
L 137.229545 224.752682 
z
" clip-path="url(#pe463d3f635)" style="fill: #1f77b4"/>
   </g>
   <g id="PolyCollection_2">
    <path d="M 137.229545 171.41018 
L 137.229545 224.752682 
L 141.209715 224.549697 
L 145.189885 226.172286 
L 149.170055 223.979757 
L 153.150225 224.375441 
L 157.130395 223.83526 
L 161.110564 224.479053 
L 165.090734 224.126038 
L 169.070904 225.36941 
L 173.051074 223.714128 
L 177.031244 225.171371 
L 181.011414 225.156353 
L 184.991583 224.249374 
L 188.971753 225.569593 
L 192.951923 225.81472 
L 196.932093 233.917031 
L 200.912263 230.31824 
L 204.892433 230.345041 
L 208.872602 228.295308 
L 212.852772 229.206766 
L 216.832942 227.58668 
L 220.813112 228.218414 
L 224.793282 229.378591 
L 228.773452 227.492289 
L 232.753621 228.122921 
L 236.733791 229.064557 
L 240.713961 227.901553 
L 244.694131 229.922843 
L 248.674301 231.692372 
L 252.654471 227.926067 
L 256.63464 228.688801 
L 260.61481 228.117136 
L 264.59498 229.738205 
L 268.57515 228.374958 
L 272.55532 228.358503 
L 276.53549 229.054162 
L 280.515659 227.655779 
L 284.495829 229.323612 
L 288.475999 227.505151 
L 292.456169 228.735924 
L 296.436339 228.550124 
L 300.416508 228.344396 
L 304.396678 228.334145 
L 308.376848 228.590781 
L 312.357018 227.276658 
L 316.337188 228.519083 
L 320.317358 228.59611 
L 324.297527 228.11728 
L 328.277697 228.683232 
L 332.257867 228.423938 
L 336.238037 227.435597 
L 340.218207 229.662663 
L 344.198377 227.787079 
L 348.178546 228.083473 
L 352.158716 228.437554 
L 356.138886 228.678765 
L 360.119056 227.93051 
L 364.099226 228.282698 
L 368.079396 228.175122 
L 372.059565 227.488529 
L 376.039735 229.502622 
L 380.019905 227.857219 
L 384.000075 228.451326 
L 387.980245 228.592888 
L 391.960415 227.935587 
L 395.940584 228.599343 
L 399.920754 228.852087 
L 403.900924 228.11364 
L 407.881094 228.775659 
L 411.861264 227.903744 
L 415.841434 227.50551 
L 419.821603 228.502809 
L 423.801773 228.979842 
L 427.781943 229.269542 
L 431.762113 228.955017 
L 435.742283 228.165757 
L 439.722453 228.954226 
L 443.702622 228.883499 
L 447.682792 228.901019 
L 451.662962 227.645696 
L 455.643132 226.568233 
L 459.623302 229.174816 
L 463.603472 229.349563 
L 467.583641 228.494174 
L 471.563811 227.898188 
L 475.543981 227.698148 
L 479.524151 229.093346 
L 483.504321 228.656682 
L 487.484491 227.730399 
L 491.46466 228.321164 
L 495.44483 228.507922 
L 499.425 228.584398 
L 503.40517 228.25519 
L 507.38534 227.353696 
L 511.365509 228.371377 
L 515.345679 228.904648 
L 519.325849 227.619206 
L 523.306019 228.961483 
L 527.286189 228.044193 
L 531.266359 229.250417 
L 535.246528 228.959795 
L 539.226698 228.904612 
L 543.206868 227.428711 
L 547.187038 228.858003 
L 551.167208 228.55677 
L 555.147378 228.805526 
L 559.127547 229.732061 
L 563.107717 228.296422 
L 567.087887 228.532041 
L 571.068057 227.437453 
L 575.048227 228.530963 
L 579.028397 228.779946 
L 583.008566 227.997692 
L 586.988736 228.553082 
L 590.968906 228.102598 
L 594.949076 227.839172 
L 598.929246 228.798496 
L 602.909416 228.607211 
L 606.889585 227.835951 
L 610.869755 228.275645 
L 614.849925 228.584985 
L 618.830095 228.654287 
L 622.810265 229.993284 
L 626.790435 228.042433 
L 630.770604 228.813238 
L 634.750774 228.297356 
L 638.730944 228.147686 
L 642.711114 228.255286 
L 646.691284 228.231479 
L 650.671454 228.383616 
L 654.651623 228.720811 
L 658.631793 228.094179 
L 662.611963 228.380407 
L 666.592133 228.873008 
L 670.572303 228.11049 
L 674.552473 227.90693 
L 678.532642 227.911181 
L 682.512812 228.710428 
L 686.492982 228.034972 
L 690.473152 228.540855 
L 694.453322 228.448979 
L 698.433492 228.054708 
L 702.413661 228.739242 
L 706.393831 228.143171 
L 710.374001 228.249286 
L 714.354171 229.23522 
L 718.334341 227.60359 
L 722.31451 227.585111 
L 726.29468 228.833118 
L 730.27485 227.337685 
L 734.25502 228.235922 
L 738.23519 227.741392 
L 742.21536 228.369736 
L 746.195529 228.529885 
L 750.175699 227.584129 
L 754.155869 229.235005 
L 758.136039 227.43683 
L 762.116209 228.086731 
L 766.096379 228.928048 
L 770.076548 228.204522 
L 774.056718 228.440967 
L 778.036888 228.250245 
L 782.017058 228.312721 
L 785.997228 228.074647 
L 789.977398 227.904343 
L 793.957567 228.555477 
L 797.937737 228.452356 
L 801.917907 228.655018 
L 805.898077 226.913344 
L 809.878247 228.372958 
L 813.858417 228.352468 
L 817.838586 227.171524 
L 821.818756 228.245538 
L 825.798926 229.563194 
L 829.779096 227.085504 
L 833.759266 228.429925 
L 837.739436 228.185205 
L 841.719605 229.14247 
L 845.699775 227.829364 
L 849.679945 228.129447 
L 853.660115 228.234592 
L 857.640285 228.781958 
L 861.620455 228.390885 
L 861.620455 124.827377 
L 861.620455 124.827377 
L 857.640285 126.644089 
L 853.660115 125.058169 
L 849.679945 124.528 
L 845.699775 124.676653 
L 841.719605 125.115448 
L 837.739436 125.989566 
L 833.759266 125.199361 
L 829.779096 123.997185 
L 825.798926 126.703703 
L 821.818756 124.863387 
L 817.838586 122.547475 
L 813.858417 125.361533 
L 809.878247 124.6847 
L 805.898077 122.521847 
L 801.917907 125.657904 
L 797.937737 125.405005 
L 793.957567 125.450356 
L 789.977398 124.259305 
L 785.997228 124.351888 
L 782.017058 125.606505 
L 778.036888 125.233635 
L 774.056718 125.140872 
L 770.076548 124.511007 
L 766.096379 126.413285 
L 762.116209 124.091696 
L 758.136039 124.908643 
L 754.155869 126.085945 
L 750.175699 123.981641 
L 746.195529 124.706244 
L 742.21536 125.497084 
L 738.23519 124.320824 
L 734.25502 124.787798 
L 730.27485 123.936828 
L 726.29468 124.961203 
L 722.31451 124.256695 
L 718.334341 124.511869 
L 714.354171 125.760391 
L 710.374001 125.026206 
L 706.393831 124.87977 
L 702.413661 125.916408 
L 698.433492 124.635014 
L 694.453322 125.202271 
L 690.473152 125.509707 
L 686.492982 124.656366 
L 682.512812 125.259502 
L 678.532642 124.578908 
L 674.552473 124.553137 
L 670.572303 124.921744 
L 666.592133 126.21412 
L 662.611963 124.87183 
L 658.631793 124.476985 
L 654.651623 125.386778 
L 650.671454 125.428369 
L 646.691284 125.20839 
L 642.711114 124.042524 
L 638.730944 124.817461 
L 634.750774 126.200192 
L 630.770604 125.522425 
L 626.790435 124.276107 
L 622.810265 128.404133 
L 618.830095 125.921246 
L 614.849925 125.317056 
L 610.869755 124.700292 
L 606.889585 124.246 
L 602.909416 126.414279 
L 598.929246 125.888313 
L 594.949076 123.777398 
L 590.968906 125.311571 
L 586.988736 124.879877 
L 583.008566 124.43992 
L 579.028397 125.640012 
L 575.048227 125.46796 
L 571.068057 124.126533 
L 567.087887 125.106766 
L 563.107717 124.284669 
L 559.127547 128.290641 
L 555.147378 126.911048 
L 551.167208 125.337594 
L 547.187038 124.913098 
L 543.206868 124.941025 
L 539.226698 125.825454 
L 535.246528 126.6801 
L 531.266359 126.814214 
L 527.286189 124.946773 
L 523.306019 126.024092 
L 519.325849 123.828378 
L 515.345679 125.494821 
L 511.365509 124.208074 
L 507.38534 124.069541 
L 503.40517 125.475564 
L 499.425 125.523095 
L 495.44483 125.084791 
L 491.46466 125.202199 
L 487.484491 123.400504 
L 483.504321 126.292272 
L 479.524151 125.810065 
L 475.543981 124.186865 
L 471.563811 125.210294 
L 467.583641 125.266891 
L 463.603472 125.999889 
L 459.623302 126.926412 
L 455.643132 122.51344 
L 451.662962 124.077097 
L 447.682792 125.624145 
L 443.702622 126.345084 
L 439.722453 125.868075 
L 435.742283 124.693981 
L 431.762113 126.496299 
L 427.781943 126.613875 
L 423.801773 126.328462 
L 419.821603 125.299704 
L 415.841434 123.642206 
L 411.861264 123.67339 
L 407.881094 126.639035 
L 403.900924 124.89444 
L 399.920754 124.77302 
L 395.940584 126.078305 
L 391.960415 124.564502 
L 387.980245 125.260388 
L 384.000075 124.375588 
L 380.019905 125.765049 
L 376.039735 126.039923 
L 372.059565 124.536168 
L 368.079396 124.836502 
L 364.099226 123.882327 
L 360.119056 125.379521 
L 356.138886 125.664802 
L 352.158716 124.457153 
L 348.178546 125.72074 
L 344.198377 124.767523 
L 340.218207 126.564931 
L 336.238037 123.208871 
L 332.257867 124.65463 
L 328.277697 125.709578 
L 324.297527 125.885391 
L 320.317358 125.648407 
L 316.337188 125.094862 
L 312.357018 123.729412 
L 308.376848 124.750841 
L 304.396678 125.319823 
L 300.416508 125.105556 
L 296.436339 124.933672 
L 292.456169 126.540345 
L 288.475999 124.265341 
L 284.495829 126.721978 
L 280.515659 123.804534 
L 276.53549 126.406938 
L 272.55532 124.187823 
L 268.57515 125.103329 
L 264.59498 128.558893 
L 260.61481 124.623146 
L 256.63464 126.741319 
L 252.654471 124.384066 
L 248.674301 128.031503 
L 244.694131 128.542738 
L 240.713961 124.399515 
L 236.733791 126.618342 
L 232.753621 124.446998 
L 228.773452 123.978239 
L 224.793282 126.451331 
L 220.813112 124.453357 
L 216.832942 125.17408 
L 212.852772 126.256082 
L 208.872602 124.365468 
L 204.892433 128.510644 
L 200.912263 128.315682 
L 196.932093 139.762065 
L 192.951923 172.818491 
L 188.971753 173.063403 
L 184.991583 169.818596 
L 181.011414 171.332148 
L 177.031244 172.464997 
L 173.051074 169.531195 
L 169.070904 172.195284 
L 165.090734 170.184257 
L 161.110564 171.423174 
L 157.130395 170.114559 
L 153.150225 170.684008 
L 149.170055 170.348693 
L 145.189885 172.880524 
L 141.209715 171.186358 
L 137.229545 171.41018 
z
" clip-path="url(#pe463d3f635)" style="fill: #ff7f0e"/>
   </g>
   <g id="PolyCollection_3">
    <path d="M 137.229545 85.2602 
L 137.229545 171.41018 
L 141.209715 171.186358 
L 145.189885 172.880524 
L 149.170055 170.348693 
L 153.150225 170.684008 
L 157.130395 170.114559 
L 161.110564 171.423174 
L 165.090734 170.184257 
L 169.070904 172.195284 
L 173.051074 169.531195 
L 177.031244 172.464997 
L 181.011414 171.332148 
L 184.991583 169.818596 
L 188.971753 173.063403 
L 192.951923 172.818491 
L 196.932093 139.762065 
L 200.912263 128.315682 
L 204.892433 128.510644 
L 208.872602 124.365468 
L 212.852772 126.256082 
L 216.832942 125.17408 
L 220.813112 124.453357 
L 224.793282 126.451331 
L 228.773452 123.978239 
L 232.753621 124.446998 
L 236.733791 126.618342 
L 240.713961 124.399515 
L 244.694131 128.542738 
L 248.674301 128.031503 
L 252.654471 124.384066 
L 256.63464 126.741319 
L 260.61481 124.623146 
L 264.59498 128.558893 
L 268.57515 125.103329 
L 272.55532 124.187823 
L 276.53549 126.406938 
L 280.515659 123.804534 
L 284.495829 126.721978 
L 288.475999 124.265341 
L 292.456169 126.540345 
L 296.436339 124.933672 
L 300.416508 125.105556 
L 304.396678 125.319823 
L 308.376848 124.750841 
L 312.357018 123.729412 
L 316.337188 125.094862 
L 320.317358 125.648407 
L 324.297527 125.885391 
L 328.277697 125.709578 
L 332.257867 124.65463 
L 336.238037 123.208871 
L 340.218207 126.564931 
L 344.198377 124.767523 
L 348.178546 125.72074 
L 352.158716 124.457153 
L 356.138886 125.664802 
L 360.119056 125.379521 
L 364.099226 123.882327 
L 368.079396 124.836502 
L 372.059565 124.536168 
L 376.039735 126.039923 
L 380.019905 125.765049 
L 384.000075 124.375588 
L 387.980245 125.260388 
L 391.960415 124.564502 
L 395.940584 126.078305 
L 399.920754 124.77302 
L 403.900924 124.89444 
L 407.881094 126.639035 
L 411.861264 123.67339 
L 415.841434 123.642206 
L 419.821603 125.299704 
L 423.801773 126.328462 
L 427.781943 126.613875 
L 431.762113 126.496299 
L 435.742283 124.693981 
L 439.722453 125.868075 
L 443.702622 126.345084 
L 447.682792 125.624145 
L 451.662962 124.077097 
L 455.643132 122.51344 
L 459.623302 126.926412 
L 463.603472 125.999889 
L 467.583641 125.266891 
L 471.563811 125.210294 
L 475.543981 124.186865 
L 479.524151 125.810065 
L 483.504321 126.292272 
L 487.484491 123.400504 
L 491.46466 125.202199 
L 495.44483 125.084791 
L 499.425 125.523095 
L 503.40517 125.475564 
L 507.38534 124.069541 
L 511.365509 124.208074 
L 515.345679 125.494821 
L 519.325849 123.828378 
L 523.306019 126.024092 
L 527.286189 124.946773 
L 531.266359 126.814214 
L 535.246528 126.6801 
L 539.226698 125.825454 
L 543.206868 124.941025 
L 547.187038 124.913098 
L 551.167208 125.337594 
L 555.147378 126.911048 
L 559.127547 128.290641 
L 563.107717 124.284669 
L 567.087887 125.106766 
L 571.068057 124.126533 
L 575.048227 125.46796 
L 579.028397 125.640012 
L 583.008566 124.43992 
L 586.988736 124.879877 
L 590.968906 125.311571 
L 594.949076 123.777398 
L 598.929246 125.888313 
L 602.909416 126.414279 
L 606.889585 124.246 
L 610.869755 124.700292 
L 614.849925 125.317056 
L 618.830095 125.921246 
L 622.810265 128.404133 
L 626.790435 124.276107 
L 630.770604 125.522425 
L 634.750774 126.200192 
L 638.730944 124.817461 
L 642.711114 124.042524 
L 646.691284 125.20839 
L 650.671454 125.428369 
L 654.651623 125.386778 
L 658.631793 124.476985 
L 662.611963 124.87183 
L 666.592133 126.21412 
L 670.572303 124.921744 
L 674.552473 124.553137 
L 678.532642 124.578908 
L 682.512812 125.259502 
L 686.492982 124.656366 
L 690.473152 125.509707 
L 694.453322 125.202271 
L 698.433492 124.635014 
L 702.413661 125.916408 
L 706.393831 124.87977 
L 710.374001 125.026206 
L 714.354171 125.760391 
L 718.334341 124.511869 
L 722.31451 124.256695 
L 726.29468 124.961203 
L 730.27485 123.936828 
L 734.25502 124.787798 
L 738.23519 124.320824 
L 742.21536 125.497084 
L 746.195529 124.706244 
L 750.175699 123.981641 
L 754.155869 126.085945 
L 758.136039 124.908643 
L 762.116209 124.091696 
L 766.096379 126.413285 
L 770.076548 124.511007 
L 774.056718 125.140872 
L 778.036888 125.233635 
L 782.017058 125.606505 
L 785.997228 124.351888 
L 789.977398 124.259305 
L 793.957567 125.450356 
L 797.937737 125.405005 
L 801.917907 125.657904 
L 805.898077 122.521847 
L 809.878247 124.6847 
L 813.858417 125.361533 
L 817.838586 122.547475 
L 821.818756 124.863387 
L 825.798926 126.703703 
L 829.779096 123.997185 
L 833.759266 125.199361 
L 837.739436 125.989566 
L 841.719605 125.115448 
L 845.699775 124.676653 
L 849.679945 124.528 
L 853.660115 125.058169 
L 857.640285 126.644089 
L 861.620455 124.827377 
L 861.620455 41.916898 
L 861.620455 41.916898 
L 857.640285 42.581492 
L 853.660115 41.387544 
L 849.679945 40.184577 
L 845.699775 40.663551 
L 841.719605 40.321649 
L 837.739436 41.916168 
L 833.759266 40.218899 
L 829.779096 39.679066 
L 825.798926 41.641856 
L 821.818756 43.625148 
L 817.838586 40.91281 
L 813.858417 41.34024 
L 809.878247 43.091866 
L 805.898077 38.817247 
L 801.917907 44.6726 
L 797.937737 41.265166 
L 793.957567 41.850326 
L 789.977398 42.777688 
L 785.997228 43.829427 
L 782.017058 42.697056 
L 778.036888 41.63212 
L 774.056718 42.290583 
L 770.076548 42.424781 
L 766.096379 43.668404 
L 762.116209 39.346541 
L 758.136039 42.532501 
L 754.155869 42.418613 
L 750.175699 39.245408 
L 746.195529 41.824459 
L 742.21536 43.713827 
L 738.23519 40.355995 
L 734.25502 45.76805 
L 730.27485 42.885946 
L 726.29468 43.551451 
L 722.31451 44.202525 
L 718.334341 42.839362 
L 714.354171 45.162567 
L 710.374001 45.617171 
L 706.393831 43.809679 
L 702.413661 43.810074 
L 698.433492 43.136858 
L 694.453322 41.757707 
L 690.473152 42.351778 
L 686.492982 40.640761 
L 682.512812 41.774138 
L 678.532642 41.147889 
L 674.552473 41.767515 
L 670.572303 42.4877 
L 666.592133 43.612957 
L 662.611963 43.503513 
L 658.631793 42.962901 
L 654.651623 44.836773 
L 650.671454 45.029459 
L 646.691284 43.205502 
L 642.711114 42.046941 
L 638.730944 42.640568 
L 634.750774 45.036884 
L 630.770604 41.981003 
L 626.790435 47.760276 
L 622.810265 46.355774 
L 618.830095 43.252697 
L 614.849925 43.477622 
L 610.869755 41.609869 
L 606.889585 41.469085 
L 602.909416 43.679733 
L 598.929246 43.97693 
L 594.949076 41.044337 
L 590.968906 44.508476 
L 586.988736 43.900825 
L 583.008566 40.996542 
L 579.028397 42.650867 
L 575.048227 42.192323 
L 571.068057 42.417116 
L 567.087887 39.967964 
L 563.107717 43.504004 
L 559.127547 45.761643 
L 555.147378 43.783812 
L 551.167208 41.487611 
L 547.187038 40.93803 
L 543.206868 40.863339 
L 539.226698 42.9712 
L 535.246528 41.776581 
L 531.266359 40.93112 
L 527.286189 41.049642 
L 523.306019 39.516354 
L 519.325849 38.541522 
L 515.345679 41.734535 
L 511.365509 41.031307 
L 507.38534 40.273591 
L 503.40517 38.901435 
L 499.425 41.384741 
L 495.44483 43.912046 
L 491.46466 39.65381 
L 487.484491 39.033992 
L 483.504321 42.950075 
L 479.524151 39.596746 
L 475.543981 42.760634 
L 471.563811 41.897127 
L 467.583641 44.192501 
L 463.603472 41.639736 
L 459.623302 43.353603 
L 455.643132 38.147886 
L 451.662962 41.467325 
L 447.682792 41.614193 
L 443.702622 42.719546 
L 439.722453 42.399345 
L 435.742283 44.873502 
L 431.762113 45.695275 
L 427.781943 47.843913 
L 423.801773 42.035564 
L 419.821603 41.254627 
L 415.841434 40.573686 
L 411.861264 39.785924 
L 407.881094 43.24623 
L 403.900924 41.123375 
L 399.920754 42.300319 
L 395.940584 41.672226 
L 391.960415 42.649693 
L 387.980245 43.592168 
L 384.000075 41.239179 
L 380.019905 42.359179 
L 376.039735 45.541126 
L 372.059565 44.344303 
L 368.079396 44.215027 
L 364.099226 41.794951 
L 360.119056 42.197162 
L 356.138886 41.257262 
L 352.158716 41.159997 
L 348.178546 42.546296 
L 344.198377 42.920735 
L 340.218207 43.748975 
L 336.238037 40.859459 
L 332.257867 42.573936 
L 328.277697 42.912281 
L 324.297527 40.262837 
L 320.317358 42.923741 
L 316.337188 43.497717 
L 312.357018 41.207288 
L 308.376848 45.008586 
L 304.396678 41.394058 
L 300.416508 40.634726 
L 296.436339 41.886313 
L 292.456169 43.406691 
L 288.475999 42.906005 
L 284.495829 41.313511 
L 280.515659 42.070796 
L 276.53549 41.993338 
L 272.55532 39.578196 
L 268.57515 41.839955 
L 264.59498 45.893985 
L 260.61481 43.503058 
L 256.63464 46.777312 
L 252.654471 46.315811 
L 248.674301 53.199288 
L 244.694131 45.251689 
L 240.713961 42.846295 
L 236.733791 43.017761 
L 232.753621 41.652802 
L 228.773452 41.301943 
L 224.793282 45.413826 
L 220.813112 41.425099 
L 216.832942 42.898605 
L 212.852772 43.872766 
L 208.872602 42.72933 
L 204.892433 48.181108 
L 200.912263 50.685995 
L 196.932093 54.249088 
L 192.951923 87.832497 
L 188.971753 84.061725 
L 184.991583 80.127606 
L 181.011414 85.535829 
L 177.031244 83.58923 
L 173.051074 83.006045 
L 169.070904 81.628356 
L 165.090734 85.42296 
L 161.110564 81.485272 
L 157.130395 79.48913 
L 153.150225 79.955649 
L 149.170055 79.348202 
L 145.189885 83.267435 
L 141.209715 79.348657 
L 137.229545 85.2602 
z
" clip-path="url(#pe463d3f635)" style="fill: #2ca02c"/>
   </g>
   <g id="matplotlib.axis_1">
    <g id="xtick_1">
     <g id="line2d_1">
      <path d="M 137.229545 331.64 
L 137.229545 23.76 
" clip-path="url(#pe463d3f635)" style="fill: none; stroke-dasharray: 5.12,1.28,0.8,1.28; stroke-dashoffset: 0; stroke: #b0b0b0; stroke-width: 0.8"/>
     </g>
     <g id="line2d_2">
      <defs>
       <path id="me2065c6767" d="M 0 0 
L 0 3.5 
" style="stroke: #000000; stroke-width: 0.8"/>
      </defs>
      <g>
       <use xlink:href="#me2065c6767" x="137.229545" y="331.64" style="stroke: #000000; stroke-width: 0.8"/>
      </g>
     </g>
     <g id="text_1">
      <!-- 0 -->
      <g transform="translate(130.230795 355.356563)scale(0.22 -0.22)">
       <defs>
        <path id="DejaVuSans-30" d="M 2034 4250 
Q 1547 4250 1301 3770 
Q 1056 3291 1056 2328 
Q 1056 1369 1301 889 
Q 1547 409 2034 409 
Q 2525 409 2770 889 
Q 3016 1369 3016 2328 
Q 3016 3291 2770 3770 
Q 2525 4250 2034 4250 
z
M 2034 4750 
Q 2819 4750 3233 4129 
Q 3647 3509 3647 2328 
Q 3647 1150 3233 529 
Q 2819 -91 2034 -91 
Q 1250 -91 836 529 
Q 422 1150 422 2328 
Q 422 3509 836 4129 
Q 1250 4750 2034 4750 
z
" transform="scale(0.015625)"/>
       </defs>
       <use xlink:href="#DejaVuSans-30"/>
      </g>
     </g>
    </g>
    <g id="xtick_2">
     <g id="line2d_3">
      <path d="M 236.733791 331.64 
L 236.733791 23.76 
" clip-path="url(#pe463d3f635)" style="fill: none; stroke-dasharray: 5.12,1.28,0.8,1.28; stroke-dashoffset: 0; stroke: #b0b0b0; stroke-width: 0.8"/>
     </g>
     <g id="line2d_4">
      <g>
       <use xlink:href="#me2065c6767" x="236.733791" y="331.64" style="stroke: #000000; stroke-width: 0.8"/>
      </g>
     </g>
     <g id="text_2">
      <!-- 25 -->
      <g transform="translate(222.736291 355.356563)scale(0.22 -0.22)">
       <defs>
        <path id="DejaVuSans-32" d="M 1228 531 
L 3431 531 
L 3431 0 
L 469 0 
L 469 531 
Q 828 903 1448 1529 
Q 2069 2156 2228 2338 
Q 2531 2678 2651 2914 
Q 2772 3150 2772 3378 
Q 2772 3750 2511 3984 
Q 2250 4219 1831 4219 
Q 1534 4219 1204 4116 
Q 875 4013 500 3803 
L 500 4441 
Q 881 4594 1212 4672 
Q 1544 4750 1819 4750 
Q 2544 4750 2975 4387 
Q 3406 4025 3406 3419 
Q 3406 3131 3298 2873 
Q 3191 2616 2906 2266 
Q 2828 2175 2409 1742 
Q 1991 1309 1228 531 
z
" transform="scale(0.015625)"/>
        <path id="DejaVuSans-35" d="M 691 4666 
L 3169 4666 
L 3169 4134 
L 1269 4134 
L 1269 2991 
Q 1406 3038 1543 3061 
Q 1681 3084 1819 3084 
Q 2600 3084 3056 2656 
Q 3513 2228 3513 1497 
Q 3513 744 3044 326 
Q 2575 -91 1722 -91 
Q 1428 -91 1123 -41 
Q 819 9 494 109 
L 494 744 
Q 775 591 1075 516 
Q 1375 441 1709 441 
Q 2250 441 2565 725 
Q 2881 1009 2881 1497 
Q 2881 1984 2565 2268 
Q 2250 2553 1709 2553 
Q 1456 2553 1204 2497 
Q 953 2441 691 2322 
L 691 4666 
z
" transform="scale(0.015625)"/>
       </defs>
       <use xlink:href="#DejaVuSans-32"/>
       <use xlink:href="#DejaVuSans-35" x="63.623047"/>
      </g>
     </g>
    </g>
    <g id="xtick_3">
     <g id="line2d_5">
      <path d="M 336.238037 331.64 
L 336.238037 23.76 
" clip-path="url(#pe463d3f635)" style="fill: none; stroke-dasharray: 5.12,1.28,0.8,1.28; stroke-dashoffset: 0; stroke: #b0b0b0; stroke-width: 0.8"/>
     </g>
     <g id="line2d_6">
      <g>
       <use xlink:href="#me2065c6767" x="336.238037" y="331.64" style="stroke: #000000; stroke-width: 0.8"/>
      </g>
     </g>
     <g id="text_3">
      <!-- 50 -->
      <g transform="translate(322.240537 355.356563)scale(0.22 -0.22)">
       <use xlink:href="#DejaVuSans-35"/>
       <use xlink:href="#DejaVuSans-30" x="63.623047"/>
      </g>
     </g>
    </g>
    <g id="xtick_4">
     <g id="line2d_7">
      <path d="M 435.742283 331.64 
L 435.742283 23.76 
" clip-path="url(#pe463d3f635)" style="fill: none; stroke-dasharray: 5.12,1.28,0.8,1.28; stroke-dashoffset: 0; stroke: #b0b0b0; stroke-width: 0.8"/>
     </g>
     <g id="line2d_8">
      <g>
       <use xlink:href="#me2065c6767" x="435.742283" y="331.64" style="stroke: #000000; stroke-width: 0.8"/>
      </g>
     </g>
     <g id="text_4">
      <!-- 75 -->
      <g transform="translate(421.744783 355.356563)scale(0.22 -0.22)">
       <defs>
        <path id="DejaVuSans-37" d="M 525 4666 
L 3525 4666 
L 3525 4397 
L 1831 0 
L 1172 0 
L 2766 4134 
L 525 4134 
L 525 4666 
z
" transform="scale(0.015625)"/>
       </defs>
       <use xlink:href="#DejaVuSans-37"/>
       <use xlink:href="#DejaVuSans-35" x="63.623047"/>
      </g>
     </g>
    </g>
    <g id="xtick_5">
     <g id="line2d_9">
      <path d="M 535.246528 331.64 
L 535.246528 23.76 
" clip-path="url(#pe463d3f635)" style="fill: none; stroke-dasharray: 5.12,1.28,0.8,1.28; stroke-dashoffset: 0; stroke: #b0b0b0; stroke-width: 0.8"/>
     </g>
     <g id="line2d_10">
      <g>
       <use xlink:href="#me2065c6767" x="535.246528" y="331.64" style="stroke: #000000; stroke-width: 0.8"/>
      </g>
     </g>
     <g id="text_5">
      <!-- 100 -->
      <g transform="translate(514.250278 355.356563)scale(0.22 -0.22)">
       <defs>
        <path id="DejaVuSans-31" d="M 794 531 
L 1825 531 
L 1825 4091 
L 703 3866 
L 703 4441 
L 1819 4666 
L 2450 4666 
L 2450 531 
L 3481 531 
L 3481 0 
L 794 0 
L 794 531 
z
" transform="scale(0.015625)"/>
       </defs>
       <use xlink:href="#DejaVuSans-31"/>
       <use xlink:href="#DejaVuSans-30" x="63.623047"/>
       <use xlink:href="#DejaVuSans-30" x="127.246094"/>
      </g>
     </g>
    </g>
    <g id="xtick_6">
     <g id="line2d_11">
      <path d="M 634.750774 331.64 
L 634.750774 23.76 
" clip-path="url(#pe463d3f635)" style="fill: none; stroke-dasharray: 5.12,1.28,0.8,1.28; stroke-dashoffset: 0; stroke: #b0b0b0; stroke-width: 0.8"/>
     </g>
     <g id="line2d_12">
      <g>
       <use xlink:href="#me2065c6767" x="634.750774" y="331.64" style="stroke: #000000; stroke-width: 0.8"/>
      </g>
     </g>
     <g id="text_6">
      <!-- 125 -->
      <g transform="translate(613.754524 355.356563)scale(0.22 -0.22)">
       <use xlink:href="#DejaVuSans-31"/>
       <use xlink:href="#DejaVuSans-32" x="63.623047"/>
       <use xlink:href="#DejaVuSans-35" x="127.246094"/>
      </g>
     </g>
    </g>
    <g id="xtick_7">
     <g id="line2d_13">
      <path d="M 734.25502 331.64 
L 734.25502 23.76 
" clip-path="url(#pe463d3f635)" style="fill: none; stroke-dasharray: 5.12,1.28,0.8,1.28; stroke-dashoffset: 0; stroke: #b0b0b0; stroke-width: 0.8"/>
     </g>
     <g id="line2d_14">
      <g>
       <use xlink:href="#me2065c6767" x="734.25502" y="331.64" style="stroke: #000000; stroke-width: 0.8"/>
      </g>
     </g>
     <g id="text_7">
      <!-- 150 -->
      <g transform="translate(713.25877 355.356563)scale(0.22 -0.22)">
       <use xlink:href="#DejaVuSans-31"/>
       <use xlink:href="#DejaVuSans-35" x="63.623047"/>
       <use xlink:href="#DejaVuSans-30" x="127.246094"/>
      </g>
     </g>
    </g>
    <g id="xtick_8">
     <g id="line2d_15">
      <path d="M 833.759266 331.64 
L 833.759266 23.76 
" clip-path="url(#pe463d3f635)" style="fill: none; stroke-dasharray: 5.12,1.28,0.8,1.28; stroke-dashoffset: 0; stroke: #b0b0b0; stroke-width: 0.8"/>
     </g>
     <g id="line2d_16">
      <g>
       <use xlink:href="#me2065c6767" x="833.759266" y="331.64" style="stroke: #000000; stroke-width: 0.8"/>
      </g>
     </g>
     <g id="text_8">
      <!-- 175 -->
      <g transform="translate(812.763016 355.356563)scale(0.22 -0.22)">
       <use xlink:href="#DejaVuSans-31"/>
       <use xlink:href="#DejaVuSans-37" x="63.623047"/>
       <use xlink:href="#DejaVuSans-35" x="127.246094"/>
      </g>
     </g>
    </g>
    <g id="text_9">
     <!-- Time (s) -->
     <g transform="translate(450.635625 382.168125)scale(0.24 -0.24)">
      <defs>
       <path id="DejaVuSans-54" d="M -19 4666 
L 3928 4666 
L 3928 4134 
L 2272 4134 
L 2272 0 
L 1638 0 
L 1638 4134 
L -19 4134 
L -19 4666 
z
" transform="scale(0.015625)"/>
       <path id="DejaVuSans-69" d="M 603 3500 
L 1178 3500 
L 1178 0 
L 603 0 
L 603 3500 
z
M 603 4863 
L 1178 4863 
L 1178 4134 
L 603 4134 
L 603 4863 
z
" transform="scale(0.015625)"/>
       <path id="DejaVuSans-6d" d="M 3328 2828 
Q 3544 3216 3844 3400 
Q 4144 3584 4550 3584 
Q 5097 3584 5394 3201 
Q 5691 2819 5691 2113 
L 5691 0 
L 5113 0 
L 5113 2094 
Q 5113 2597 4934 2840 
Q 4756 3084 4391 3084 
Q 3944 3084 3684 2787 
Q 3425 2491 3425 1978 
L 3425 0 
L 2847 0 
L 2847 2094 
Q 2847 2600 2669 2842 
Q 2491 3084 2119 3084 
Q 1678 3084 1418 2786 
Q 1159 2488 1159 1978 
L 1159 0 
L 581 0 
L 581 3500 
L 1159 3500 
L 1159 2956 
Q 1356 3278 1631 3431 
Q 1906 3584 2284 3584 
Q 2666 3584 2933 3390 
Q 3200 3197 3328 2828 
z
" transform="scale(0.015625)"/>
       <path id="DejaVuSans-65" d="M 3597 1894 
L 3597 1613 
L 953 1613 
Q 991 1019 1311 708 
Q 1631 397 2203 397 
Q 2534 397 2845 478 
Q 3156 559 3463 722 
L 3463 178 
Q 3153 47 2828 -22 
Q 2503 -91 2169 -91 
Q 1331 -91 842 396 
Q 353 884 353 1716 
Q 353 2575 817 3079 
Q 1281 3584 2069 3584 
Q 2775 3584 3186 3129 
Q 3597 2675 3597 1894 
z
M 3022 2063 
Q 3016 2534 2758 2815 
Q 2500 3097 2075 3097 
Q 1594 3097 1305 2825 
Q 1016 2553 972 2059 
L 3022 2063 
z
" transform="scale(0.015625)"/>
       <path id="DejaVuSans-20" transform="scale(0.015625)"/>
       <path id="DejaVuSans-28" d="M 1984 4856 
Q 1566 4138 1362 3434 
Q 1159 2731 1159 2009 
Q 1159 1288 1364 580 
Q 1569 -128 1984 -844 
L 1484 -844 
Q 1016 -109 783 600 
Q 550 1309 550 2009 
Q 550 2706 781 3412 
Q 1013 4119 1484 4856 
L 1984 4856 
z
" transform="scale(0.015625)"/>
       <path id="DejaVuSans-73" d="M 2834 3397 
L 2834 2853 
Q 2591 2978 2328 3040 
Q 2066 3103 1784 3103 
Q 1356 3103 1142 2972 
Q 928 2841 928 2578 
Q 928 2378 1081 2264 
Q 1234 2150 1697 2047 
L 1894 2003 
Q 2506 1872 2764 1633 
Q 3022 1394 3022 966 
Q 3022 478 2636 193 
Q 2250 -91 1575 -91 
Q 1294 -91 989 -36 
Q 684 19 347 128 
L 347 722 
Q 666 556 975 473 
Q 1284 391 1588 391 
Q 1994 391 2212 530 
Q 2431 669 2431 922 
Q 2431 1156 2273 1281 
Q 2116 1406 1581 1522 
L 1381 1569 
Q 847 1681 609 1914 
Q 372 2147 372 2553 
Q 372 3047 722 3315 
Q 1072 3584 1716 3584 
Q 2034 3584 2315 3537 
Q 2597 3491 2834 3397 
z
" transform="scale(0.015625)"/>
       <path id="DejaVuSans-29" d="M 513 4856 
L 1013 4856 
Q 1481 4119 1714 3412 
Q 1947 2706 1947 2009 
Q 1947 1309 1714 600 
Q 1481 -109 1013 -844 
L 513 -844 
Q 928 -128 1133 580 
Q 1338 1288 1338 2009 
Q 1338 2731 1133 3434 
Q 928 4138 513 4856 
z
" transform="scale(0.015625)"/>
      </defs>
      <use xlink:href="#DejaVuSans-54"/>
      <use xlink:href="#DejaVuSans-69" x="57.958984"/>
      <use xlink:href="#DejaVuSans-6d" x="85.742188"/>
      <use xlink:href="#DejaVuSans-65" x="183.154297"/>
      <use xlink:href="#DejaVuSans-20" x="244.677734"/>
      <use xlink:href="#DejaVuSans-28" x="276.464844"/>
      <use xlink:href="#DejaVuSans-73" x="315.478516"/>
      <use xlink:href="#DejaVuSans-29" x="367.578125"/>
     </g>
    </g>
   </g>
   <g id="matplotlib.axis_2">
    <g id="ytick_1">
     <g id="line2d_17">
      <path d="M 101.01 331.64 
L 897.84 331.64 
" clip-path="url(#pe463d3f635)" style="fill: none; stroke-dasharray: 5.12,1.28,0.8,1.28; stroke-dashoffset: 0; stroke: #b0b0b0; stroke-width: 0.8"/>
     </g>
     <g id="line2d_18">
      <defs>
       <path id="m8b8e6298f6" d="M 0 0 
L -3.5 0 
" style="stroke: #000000; stroke-width: 0.8"/>
      </defs>
      <g>
       <use xlink:href="#m8b8e6298f6" x="101.01" y="331.64" style="stroke: #000000; stroke-width: 0.8"/>
      </g>
     </g>
     <g id="text_10">
      <!-- 0 -->
      <g transform="translate(80.0125 339.998281)scale(0.22 -0.22)">
       <use xlink:href="#DejaVuSans-30"/>
      </g>
     </g>
    </g>
    <g id="ytick_2">
     <g id="line2d_19">
      <path d="M 101.01 256.792912 
L 897.84 256.792912 
" clip-path="url(#pe463d3f635)" style="fill: none; stroke-dasharray: 5.12,1.28,0.8,1.28; stroke-dashoffset: 0; stroke: #b0b0b0; stroke-width: 0.8"/>
     </g>
     <g id="line2d_20">
      <g>
       <use xlink:href="#m8b8e6298f6" x="101.01" y="256.792912" style="stroke: #000000; stroke-width: 0.8"/>
      </g>
     </g>
     <g id="text_11">
      <!-- 50 -->
      <g transform="translate(66.015 265.151193)scale(0.22 -0.22)">
       <use xlink:href="#DejaVuSans-35"/>
       <use xlink:href="#DejaVuSans-30" x="63.623047"/>
      </g>
     </g>
    </g>
    <g id="ytick_3">
     <g id="line2d_21">
      <path d="M 101.01 181.945824 
L 897.84 181.945824 
" clip-path="url(#pe463d3f635)" style="fill: none; stroke-dasharray: 5.12,1.28,0.8,1.28; stroke-dashoffset: 0; stroke: #b0b0b0; stroke-width: 0.8"/>
     </g>
     <g id="line2d_22">
      <g>
       <use xlink:href="#m8b8e6298f6" x="101.01" y="181.945824" style="stroke: #000000; stroke-width: 0.8"/>
      </g>
     </g>
     <g id="text_12">
      <!-- 100 -->
      <g transform="translate(52.0175 190.304105)scale(0.22 -0.22)">
       <use xlink:href="#DejaVuSans-31"/>
       <use xlink:href="#DejaVuSans-30" x="63.623047"/>
       <use xlink:href="#DejaVuSans-30" x="127.246094"/>
      </g>
     </g>
    </g>
    <g id="ytick_4">
     <g id="line2d_23">
      <path d="M 101.01 107.098736 
L 897.84 107.098736 
" clip-path="url(#pe463d3f635)" style="fill: none; stroke-dasharray: 5.12,1.28,0.8,1.28; stroke-dashoffset: 0; stroke: #b0b0b0; stroke-width: 0.8"/>
     </g>
     <g id="line2d_24">
      <g>
       <use xlink:href="#m8b8e6298f6" x="101.01" y="107.098736" style="stroke: #000000; stroke-width: 0.8"/>
      </g>
     </g>
     <g id="text_13">
      <!-- 150 -->
      <g transform="translate(52.0175 115.457017)scale(0.22 -0.22)">
       <use xlink:href="#DejaVuSans-31"/>
       <use xlink:href="#DejaVuSans-35" x="63.623047"/>
       <use xlink:href="#DejaVuSans-30" x="127.246094"/>
      </g>
     </g>
    </g>
    <g id="ytick_5">
     <g id="line2d_25">
      <path d="M 101.01 32.251648 
L 897.84 32.251648 
" clip-path="url(#pe463d3f635)" style="fill: none; stroke-dasharray: 5.12,1.28,0.8,1.28; stroke-dashoffset: 0; stroke: #b0b0b0; stroke-width: 0.8"/>
     </g>
     <g id="line2d_26">
      <g>
       <use xlink:href="#m8b8e6298f6" x="101.01" y="32.251648" style="stroke: #000000; stroke-width: 0.8"/>
      </g>
     </g>
     <g id="text_14">
      <!-- 200 -->
      <g transform="translate(52.0175 40.609929)scale(0.22 -0.22)">
       <use xlink:href="#DejaVuSans-32"/>
       <use xlink:href="#DejaVuSans-30" x="63.623047"/>
       <use xlink:href="#DejaVuSans-30" x="127.246094"/>
      </g>
     </g>
    </g>
    <g id="text_15">
     <!-- Throughput (Mbps) -->
     <g transform="translate(43.02625 292.414375)rotate(-90)scale(0.24 -0.24)">
      <defs>
       <path id="DejaVuSans-68" d="M 3513 2113 
L 3513 0 
L 2938 0 
L 2938 2094 
Q 2938 2591 2744 2837 
Q 2550 3084 2163 3084 
Q 1697 3084 1428 2787 
Q 1159 2491 1159 1978 
L 1159 0 
L 581 0 
L 581 4863 
L 1159 4863 
L 1159 2956 
Q 1366 3272 1645 3428 
Q 1925 3584 2291 3584 
Q 2894 3584 3203 3211 
Q 3513 2838 3513 2113 
z
" transform="scale(0.015625)"/>
       <path id="DejaVuSans-72" d="M 2631 2963 
Q 2534 3019 2420 3045 
Q 2306 3072 2169 3072 
Q 1681 3072 1420 2755 
Q 1159 2438 1159 1844 
L 1159 0 
L 581 0 
L 581 3500 
L 1159 3500 
L 1159 2956 
Q 1341 3275 1631 3429 
Q 1922 3584 2338 3584 
Q 2397 3584 2469 3576 
Q 2541 3569 2628 3553 
L 2631 2963 
z
" transform="scale(0.015625)"/>
       <path id="DejaVuSans-6f" d="M 1959 3097 
Q 1497 3097 1228 2736 
Q 959 2375 959 1747 
Q 959 1119 1226 758 
Q 1494 397 1959 397 
Q 2419 397 2687 759 
Q 2956 1122 2956 1747 
Q 2956 2369 2687 2733 
Q 2419 3097 1959 3097 
z
M 1959 3584 
Q 2709 3584 3137 3096 
Q 3566 2609 3566 1747 
Q 3566 888 3137 398 
Q 2709 -91 1959 -91 
Q 1206 -91 779 398 
Q 353 888 353 1747 
Q 353 2609 779 3096 
Q 1206 3584 1959 3584 
z
" transform="scale(0.015625)"/>
       <path id="DejaVuSans-75" d="M 544 1381 
L 544 3500 
L 1119 3500 
L 1119 1403 
Q 1119 906 1312 657 
Q 1506 409 1894 409 
Q 2359 409 2629 706 
Q 2900 1003 2900 1516 
L 2900 3500 
L 3475 3500 
L 3475 0 
L 2900 0 
L 2900 538 
Q 2691 219 2414 64 
Q 2138 -91 1772 -91 
Q 1169 -91 856 284 
Q 544 659 544 1381 
z
M 1991 3584 
L 1991 3584 
z
" transform="scale(0.015625)"/>
       <path id="DejaVuSans-67" d="M 2906 1791 
Q 2906 2416 2648 2759 
Q 2391 3103 1925 3103 
Q 1463 3103 1205 2759 
Q 947 2416 947 1791 
Q 947 1169 1205 825 
Q 1463 481 1925 481 
Q 2391 481 2648 825 
Q 2906 1169 2906 1791 
z
M 3481 434 
Q 3481 -459 3084 -895 
Q 2688 -1331 1869 -1331 
Q 1566 -1331 1297 -1286 
Q 1028 -1241 775 -1147 
L 775 -588 
Q 1028 -725 1275 -790 
Q 1522 -856 1778 -856 
Q 2344 -856 2625 -561 
Q 2906 -266 2906 331 
L 2906 616 
Q 2728 306 2450 153 
Q 2172 0 1784 0 
Q 1141 0 747 490 
Q 353 981 353 1791 
Q 353 2603 747 3093 
Q 1141 3584 1784 3584 
Q 2172 3584 2450 3431 
Q 2728 3278 2906 2969 
L 2906 3500 
L 3481 3500 
L 3481 434 
z
" transform="scale(0.015625)"/>
       <path id="DejaVuSans-70" d="M 1159 525 
L 1159 -1331 
L 581 -1331 
L 581 3500 
L 1159 3500 
L 1159 2969 
Q 1341 3281 1617 3432 
Q 1894 3584 2278 3584 
Q 2916 3584 3314 3078 
Q 3713 2572 3713 1747 
Q 3713 922 3314 415 
Q 2916 -91 2278 -91 
Q 1894 -91 1617 61 
Q 1341 213 1159 525 
z
M 3116 1747 
Q 3116 2381 2855 2742 
Q 2594 3103 2138 3103 
Q 1681 3103 1420 2742 
Q 1159 2381 1159 1747 
Q 1159 1113 1420 752 
Q 1681 391 2138 391 
Q 2594 391 2855 752 
Q 3116 1113 3116 1747 
z
" transform="scale(0.015625)"/>
       <path id="DejaVuSans-74" d="M 1172 4494 
L 1172 3500 
L 2356 3500 
L 2356 3053 
L 1172 3053 
L 1172 1153 
Q 1172 725 1289 603 
Q 1406 481 1766 481 
L 2356 481 
L 2356 0 
L 1766 0 
Q 1100 0 847 248 
Q 594 497 594 1153 
L 594 3053 
L 172 3053 
L 172 3500 
L 594 3500 
L 594 4494 
L 1172 4494 
z
" transform="scale(0.015625)"/>
       <path id="DejaVuSans-4d" d="M 628 4666 
L 1569 4666 
L 2759 1491 
L 3956 4666 
L 4897 4666 
L 4897 0 
L 4281 0 
L 4281 4097 
L 3078 897 
L 2444 897 
L 1241 4097 
L 1241 0 
L 628 0 
L 628 4666 
z
" transform="scale(0.015625)"/>
       <path id="DejaVuSans-62" d="M 3116 1747 
Q 3116 2381 2855 2742 
Q 2594 3103 2138 3103 
Q 1681 3103 1420 2742 
Q 1159 2381 1159 1747 
Q 1159 1113 1420 752 
Q 1681 391 2138 391 
Q 2594 391 2855 752 
Q 3116 1113 3116 1747 
z
M 1159 2969 
Q 1341 3281 1617 3432 
Q 1894 3584 2278 3584 
Q 2916 3584 3314 3078 
Q 3713 2572 3713 1747 
Q 3713 922 3314 415 
Q 2916 -91 2278 -91 
Q 1894 -91 1617 61 
Q 1341 213 1159 525 
L 1159 0 
L 581 0 
L 581 4863 
L 1159 4863 
L 1159 2969 
z
" transform="scale(0.015625)"/>
      </defs>
      <use xlink:href="#DejaVuSans-54"/>
      <use xlink:href="#DejaVuSans-68" x="61.083984"/>
      <use xlink:href="#DejaVuSans-72" x="124.462891"/>
      <use xlink:href="#DejaVuSans-6f" x="163.326172"/>
      <use xlink:href="#DejaVuSans-75" x="224.507812"/>
      <use xlink:href="#DejaVuSans-67" x="287.886719"/>
      <use xlink:href="#DejaVuSans-68" x="351.363281"/>
      <use xlink:href="#DejaVuSans-70" x="414.742188"/>
      <use xlink:href="#DejaVuSans-75" x="478.21875"/>
      <use xlink:href="#DejaVuSans-74" x="541.597656"/>
      <use xlink:href="#DejaVuSans-20" x="580.806641"/>
      <use xlink:href="#DejaVuSans-28" x="612.59375"/>
      <use xlink:href="#DejaVuSans-4d" x="651.607422"/>
      <use xlink:href="#DejaVuSans-62" x="737.886719"/>
      <use xlink:href="#DejaVuSans-70" x="801.363281"/>
      <use xlink:href="#DejaVuSans-73" x="864.839844"/>
      <use xlink:href="#DejaVuSans-29" x="916.939453"/>
     </g>
    </g>
   </g>
   <g id="patch_3">
    <path d="M 101.01 331.64 
L 101.01 23.76 
" style="fill: none; stroke: #000000; stroke-width: 0.8; stroke-linejoin: miter; stroke-linecap: square"/>
   </g>
   <g id="patch_4">
    <path d="M 897.84 331.64 
L 897.84 23.76 
" style="fill: none; stroke: #000000; stroke-width: 0.8; stroke-linejoin: miter; stroke-linecap: square"/>
   </g>
   <g id="patch_5">
    <path d="M 101.01 331.64 
L 897.84 331.64 
" style="fill: none; stroke: #000000; stroke-width: 0.8; stroke-linejoin: miter; stroke-linecap: square"/>
   </g>
   <g id="patch_6">
    <path d="M 101.01 23.76 
L 897.84 23.76 
" style="fill: none; stroke: #000000; stroke-width: 0.8; stroke-linejoin: miter; stroke-linecap: square"/>
   </g>
   <g id="legend_1">
    <g id="patch_7">
     <path d="M 756.24 148.6425 
L 881.04 148.6425 
Q 885.84 148.6425 885.84 143.8425 
L 885.84 40.56 
Q 885.84 35.76 881.04 35.76 
L 756.24 35.76 
Q 751.44 35.76 751.44 40.56 
L 751.44 143.8425 
Q 751.44 148.6425 756.24 148.6425 
z
" style="fill: #ffffff; opacity: 0.8; stroke: #cccccc; stroke-linejoin: miter"/>
    </g>
    <g id="patch_8">
     <path d="M 761.04 63.59625 
L 809.04 63.59625 
L 809.04 46.79625 
L 761.04 46.79625 
z
" style="fill: #1f77b4"/>
    </g>
    <g id="text_16">
     <!-- UE1 -->
     <g transform="translate(828.24 63.59625)scale(0.24 -0.24)">
      <defs>
       <path id="DejaVuSans-55" d="M 556 4666 
L 1191 4666 
L 1191 1831 
Q 1191 1081 1462 751 
Q 1734 422 2344 422 
Q 2950 422 3222 751 
Q 3494 1081 3494 1831 
L 3494 4666 
L 4128 4666 
L 4128 1753 
Q 4128 841 3676 375 
Q 3225 -91 2344 -91 
Q 1459 -91 1007 375 
Q 556 841 556 1753 
L 556 4666 
z
" transform="scale(0.015625)"/>
       <path id="DejaVuSans-45" d="M 628 4666 
L 3578 4666 
L 3578 4134 
L 1259 4134 
L 1259 2753 
L 3481 2753 
L 3481 2222 
L 1259 2222 
L 1259 531 
L 3634 531 
L 3634 0 
L 628 0 
L 628 4666 
z
" transform="scale(0.015625)"/>
      </defs>
      <use xlink:href="#DejaVuSans-55"/>
      <use xlink:href="#DejaVuSans-45" x="73.193359"/>
      <use xlink:href="#DejaVuSans-31" x="136.376953"/>
     </g>
    </g>
    <g id="patch_9">
     <path d="M 761.04 98.82375 
L 809.04 98.82375 
L 809.04 82.02375 
L 761.04 82.02375 
z
" style="fill: #ff7f0e"/>
    </g>
    <g id="text_17">
     <!-- UE2 -->
     <g transform="translate(828.24 98.82375)scale(0.24 -0.24)">
      <use xlink:href="#DejaVuSans-55"/>
      <use xlink:href="#DejaVuSans-45" x="73.193359"/>
      <use xlink:href="#DejaVuSans-32" x="136.376953"/>
     </g>
    </g>
    <g id="patch_10">
     <path d="M 761.04 134.05125 
L 809.04 134.05125 
L 809.04 117.25125 
L 761.04 117.25125 
z
" style="fill: #2ca02c"/>
    </g>
    <g id="text_18">
     <!-- UE3 -->
     <g transform="translate(828.24 134.05125)scale(0.24 -0.24)">
      <defs>
       <path id="DejaVuSans-33" d="M 2597 2516 
Q 3050 2419 3304 2112 
Q 3559 1806 3559 1356 
Q 3559 666 3084 287 
Q 2609 -91 1734 -91 
Q 1441 -91 1130 -33 
Q 819 25 488 141 
L 488 750 
Q 750 597 1062 519 
Q 1375 441 1716 441 
Q 2309 441 2620 675 
Q 2931 909 2931 1356 
Q 2931 1769 2642 2001 
Q 2353 2234 1838 2234 
L 1294 2234 
L 1294 2753 
L 1863 2753 
Q 2328 2753 2575 2939 
Q 2822 3125 2822 3475 
Q 2822 3834 2567 4026 
Q 2313 4219 1838 4219 
Q 1578 4219 1281 4162 
Q 984 4106 628 3988 
L 628 4550 
Q 988 4650 1302 4700 
Q 1616 4750 1894 4750 
Q 2613 4750 3031 4423 
Q 3450 4097 3450 3541 
Q 3450 3153 3228 2886 
Q 3006 2619 2597 2516 
z
" transform="scale(0.015625)"/>
      </defs>
      <use xlink:href="#DejaVuSans-55"/>
      <use xlink:href="#DejaVuSans-45" x="73.193359"/>
      <use xlink:href="#DejaVuSans-33" x="136.376953"/>
     </g>
    </g>
   </g>
  </g>
 </g>
 <defs>
  <clipPath id="pe463d3f635">
   <rect x="101.01" y="23.76" width="796.83" height="307.88"/>
  </clipPath>
 </defs>
</svg>
