<?xml version="1.0" encoding="utf-8" standalone="no"?>
<!DOCTYPE svg PUBLIC "-//W3C//DTD SVG 1.1//EN"
  "http://www.w3.org/Graphics/SVG/1.1/DTD/svg11.dtd">
<svg xmlns:xlink="http://www.w3.org/1999/xlink" width="921.6pt" height="410.4pt" viewBox="0 0 921.6 410.4" xmlns="http://www.w3.org/2000/svg" version="1.1">
 <metadata>
  <rdf:RDF xmlns:dc="http://purl.org/dc/elements/1.1/" xmlns:cc="http://creativecommons.org/ns#" xmlns:rdf="http://www.w3.org/1999/02/22-rdf-syntax-ns#">
   <cc:Work>
    <dc:type rdf:resource="http://purl.org/dc/dcmitype/StillImage"/>
    <dc:date>2023-04-11T17:40:57.909746</dc:date>
    <dc:format>image/svg+xml</dc:format>
    <dc:creator>
     <cc:Agent>
      <dc:title>Matplotlib v3.5.3, https://matplotlib.org/</dc:title>
     </cc:Agent>
    </dc:creator>
   </cc:Work>
  </rdf:RDF>
 </metadata>
 <defs>
  <style type="text/css">*{stroke-linejoin: round; stroke-linecap: butt}</style>
 </defs>
 <g id="figure_1">
  <g id="patch_1">
   <path d="M 0 410.4 
L 921.6 410.4 
L 921.6 0 
L 0 0 
L 0 410.4 
z
" style="fill: none"/>
  </g>
  <g id="axes_1">
   <g id="patch_2">
    <path d="M 86.885 331.64 
L 897.84 331.64 
L 897.84 23.76 
L 86.885 23.76 
z
" style="fill: #ffffff"/>
   </g>
   <g id="PolyCollection_1">
    <path d="M 123.746591 235.325982 
L 123.746591 331.64 
L 127.819695 331.64 
L 131.892799 331.64 
L 135.965903 331.64 
L 140.039007 331.64 
L 144.112111 331.64 
L 148.185215 331.64 
L 152.258319 331.64 
L 156.331423 331.64 
L 160.404527 331.64 
L 164.477631 331.64 
L 168.550735 331.64 
L 172.623839 331.64 
L 176.696942 331.64 
L 180.770046 331.64 
L 184.84315 331.64 
L 188.916254 331.64 
L 192.989358 331.64 
L 197.062462 331.64 
L 201.135566 331.64 
L 205.20867 331.64 
L 209.281774 331.64 
L 213.354878 331.64 
L 217.427982 331.64 
L 221.501086 331.64 
L 225.57419 331.64 
L 229.647294 331.64 
L 233.720398 331.64 
L 237.793502 331.64 
L 241.866606 331.64 
L 245.93971 331.64 
L 250.012814 331.64 
L 254.085918 331.64 
L 258.159022 331.64 
L 262.232126 331.64 
L 266.30523 331.64 
L 270.378334 331.64 
L 274.451438 331.64 
L 278.524542 331.64 
L 282.597646 331.64 
L 286.67075 331.64 
L 290.743854 331.64 
L 294.816958 331.64 
L 298.890062 331.64 
L 302.963165 331.64 
L 307.036269 331.64 
L 311.109373 331.64 
L 315.182477 331.64 
L 319.255581 331.64 
L 323.328685 331.64 
L 327.401789 331.64 
L 331.474893 331.64 
L 335.547997 331.64 
L 339.621101 331.64 
L 343.694205 331.64 
L 347.767309 331.64 
L 351.840413 331.64 
L 355.913517 331.64 
L 359.986621 331.64 
L 364.059725 331.64 
L 368.132829 331.64 
L 372.205933 331.64 
L 376.279037 331.64 
L 380.352141 331.64 
L 384.425245 331.64 
L 388.498349 331.64 
L 392.571453 331.64 
L 396.644557 331.64 
L 400.717661 331.64 
L 404.790765 331.64 
L 408.863869 331.64 
L 412.936973 331.64 
L 417.010077 331.64 
L 421.083181 331.64 
L 425.156285 331.64 
L 429.229388 331.64 
L 433.302492 331.64 
L 437.375596 331.64 
L 441.4487 331.64 
L 445.521804 331.64 
L 449.594908 331.64 
L 453.668012 331.64 
L 457.741116 331.64 
L 461.81422 331.64 
L 465.887324 331.64 
L 469.960428 331.64 
L 474.033532 331.64 
L 478.106636 331.64 
L 482.17974 331.64 
L 486.252844 331.64 
L 490.325948 331.64 
L 494.399052 331.64 
L 498.472156 331.64 
L 502.54526 331.64 
L 506.618364 331.64 
L 510.691468 331.64 
L 514.764572 331.64 
L 518.837676 331.64 
L 522.91078 331.64 
L 526.983884 331.64 
L 531.056988 331.64 
L 535.130092 331.64 
L 539.203196 331.64 
L 543.2763 331.64 
L 547.349404 331.64 
L 551.422508 331.64 
L 555.495612 331.64 
L 559.568715 331.64 
L 563.641819 331.64 
L 567.714923 331.64 
L 571.788027 331.64 
L 575.861131 331.64 
L 579.934235 331.64 
L 584.007339 331.64 
L 588.080443 331.64 
L 592.153547 331.64 
L 596.226651 331.64 
L 600.299755 331.64 
L 604.372859 331.64 
L 608.445963 331.64 
L 612.519067 331.64 
L 616.592171 331.64 
L 620.665275 331.64 
L 624.738379 331.64 
L 628.811483 331.64 
L 632.884587 331.64 
L 636.957691 331.64 
L 641.030795 331.64 
L 645.103899 331.64 
L 649.177003 331.64 
L 653.250107 331.64 
L 657.323211 331.64 
L 661.396315 331.64 
L 665.469419 331.64 
L 669.542523 331.64 
L 673.615627 331.64 
L 677.688731 331.64 
L 681.761835 331.64 
L 685.834938 331.64 
L 689.908042 331.64 
L 693.981146 331.64 
L 698.05425 331.64 
L 702.127354 331.64 
L 706.200458 331.64 
L 710.273562 331.64 
L 714.346666 331.64 
L 718.41977 331.64 
L 722.492874 331.64 
L 726.565978 331.64 
L 730.639082 331.64 
L 734.712186 331.64 
L 738.78529 331.64 
L 742.858394 331.64 
L 746.931498 331.64 
L 751.004602 331.64 
L 755.077706 331.64 
L 759.15081 331.64 
L 763.223914 331.64 
L 767.297018 331.64 
L 771.370122 331.64 
L 775.443226 331.64 
L 779.51633 331.64 
L 783.589434 331.64 
L 787.662538 331.64 
L 791.735642 331.64 
L 795.808746 331.64 
L 799.88185 331.64 
L 803.954954 331.64 
L 808.028058 331.64 
L 812.101161 331.64 
L 816.174265 331.64 
L 820.247369 331.64 
L 824.320473 331.64 
L 828.393577 331.64 
L 832.466681 331.64 
L 836.539785 331.64 
L 840.612889 331.64 
L 844.685993 331.64 
L 848.759097 331.64 
L 852.832201 331.64 
L 856.905305 331.64 
L 860.978409 331.64 
L 860.978409 240.599699 
L 860.978409 240.599699 
L 856.905305 238.981722 
L 852.832201 239.238817 
L 848.759097 239.478048 
L 844.685993 240.381949 
L 840.612889 239.871152 
L 836.539785 239.182514 
L 832.466681 236.993253 
L 828.393577 238.191219 
L 824.320473 239.586358 
L 820.247369 239.42265 
L 816.174265 237.807951 
L 812.101161 237.55911 
L 808.028058 235.760013 
L 803.954954 237.343508 
L 799.88185 236.5547 
L 795.808746 238.36725 
L 791.735642 239.988054 
L 787.662538 238.720897 
L 783.589434 236.45046 
L 779.51633 237.96872 
L 775.443226 236.397888 
L 771.370122 238.069342 
L 767.297018 239.317958 
L 763.223914 237.175616 
L 759.15081 239.441078 
L 755.077706 235.813942 
L 751.004602 238.528811 
L 746.931498 237.837685 
L 742.858394 237.479517 
L 738.78529 238.225588 
L 734.712186 239.167929 
L 730.639082 239.594046 
L 726.565978 241.011684 
L 722.492874 237.824005 
L 718.41977 237.551196 
L 714.346666 237.333898 
L 710.273562 239.077257 
L 706.200458 238.958206 
L 702.127354 238.166233 
L 698.05425 238.309025 
L 693.981146 239.293311 
L 689.908042 240.316149 
L 685.834938 239.679744 
L 681.761835 239.117505 
L 677.688731 239.084718 
L 673.615627 238.295232 
L 669.542523 237.869907 
L 665.469419 236.902467 
L 661.396315 236.478499 
L 657.323211 239.976635 
L 653.250107 237.619257 
L 649.177003 241.277823 
L 645.103899 239.659733 
L 641.030795 237.562728 
L 636.957691 240.384436 
L 632.884587 238.850914 
L 628.811483 238.992915 
L 624.738379 241.176184 
L 620.665275 238.65781 
L 616.592171 239.133107 
L 612.519067 237.8127 
L 608.445963 239.787828 
L 604.372859 240.078501 
L 600.299755 238.312982 
L 596.226651 240.730847 
L 592.153547 237.461654 
L 588.080443 240.18161 
L 584.007339 241.312758 
L 579.934235 236.392348 
L 575.861131 237.764989 
L 571.788027 237.044242 
L 567.714923 237.540342 
L 563.641819 239.406595 
L 559.568715 237.986244 
L 555.495612 238.668212 
L 551.422508 237.99054 
L 547.349404 237.246617 
L 543.2763 238.295006 
L 539.203196 238.068777 
L 535.130092 238.281326 
L 531.056988 235.977764 
L 526.983884 237.643338 
L 522.91078 238.814283 
L 518.837676 237.976747 
L 514.764572 241.550407 
L 510.691468 239.577992 
L 506.618364 238.261541 
L 502.54526 240.172904 
L 498.472156 235.973354 
L 494.399052 238.054079 
L 490.325948 236.863349 
L 486.252844 238.095458 
L 482.17974 239.682684 
L 478.106636 237.956849 
L 474.033532 240.004787 
L 469.960428 237.122818 
L 465.887324 240.420389 
L 461.81422 241.111627 
L 457.741116 237.145882 
L 453.668012 237.918861 
L 449.594908 237.212473 
L 445.521804 239.580366 
L 441.4487 238.4153 
L 437.375596 236.350856 
L 433.302492 237.44673 
L 429.229388 236.417334 
L 425.156285 239.569738 
L 421.083181 241.00784 
L 417.010077 237.924627 
L 412.936973 237.403089 
L 408.863869 236.274994 
L 404.790765 239.476578 
L 400.717661 237.541586 
L 396.644557 238.345091 
L 392.571453 237.026492 
L 388.498349 238.021179 
L 384.425245 238.222536 
L 380.352141 239.85261 
L 376.279037 237.462784 
L 372.205933 236.186695 
L 368.132829 238.281665 
L 364.059725 237.550744 
L 359.986621 238.707104 
L 355.913517 238.72101 
L 351.840413 238.482683 
L 347.767309 237.374599 
L 343.694205 239.704504 
L 339.621101 239.260072 
L 335.547997 238.846278 
L 331.474893 239.671265 
L 327.401789 238.557415 
L 323.328685 240.218919 
L 319.255581 240.518976 
L 315.182477 235.196079 
L 311.109373 237.736498 
L 307.036269 239.274091 
L 302.963165 240.292633 
L 298.890062 239.769852 
L 294.816958 237.170755 
L 290.743854 238.75504 
L 286.67075 236.558883 
L 282.597646 239.628529 
L 278.524542 237.614734 
L 274.451438 237.381495 
L 270.378334 239.232938 
L 266.30523 238.369059 
L 262.232126 238.95244 
L 258.159022 238.342265 
L 254.085918 236.572337 
L 250.012814 240.018693 
L 245.93971 239.829999 
L 241.866606 238.662672 
L 237.793502 241.562504 
L 233.720398 235.773693 
L 229.647294 237.895458 
L 225.57419 237.662897 
L 221.501086 237.115808 
L 217.427982 239.100999 
L 213.354878 238.809648 
L 209.281774 237.988053 
L 205.20867 236.406028 
L 201.135566 238.284266 
L 197.062462 237.564197 
L 192.989358 237.220161 
L 188.916254 238.777539 
L 184.84315 236.268549 
L 180.770046 237.628641 
L 176.696942 239.33062 
L 172.623839 239.137969 
L 168.550735 241.214963 
L 164.477631 238.752892 
L 160.404527 236.073072 
L 156.331423 236.504954 
L 152.258319 235.336949 
L 148.185215 238.086979 
L 144.112111 236.5876 
L 140.039007 237.454305 
L 135.965903 238.762389 
L 131.892799 238.100772 
L 127.819695 239.605239 
L 123.746591 235.325982 
z
" clip-path="url(#p64f204f127)" style="fill: #1f77b4"/>
   </g>
   <g id="PolyCollection_2">
    <path d="M 123.746591 138.404955 
L 123.746591 235.325982 
L 127.819695 239.605239 
L 131.892799 238.100772 
L 135.965903 238.762389 
L 140.039007 237.454305 
L 144.112111 236.5876 
L 148.185215 238.086979 
L 152.258319 235.336949 
L 156.331423 236.504954 
L 160.404527 236.073072 
L 164.477631 238.752892 
L 168.550735 241.214963 
L 172.623839 239.137969 
L 176.696942 239.33062 
L 180.770046 237.628641 
L 184.84315 236.268549 
L 188.916254 238.777539 
L 192.989358 237.220161 
L 197.062462 237.564197 
L 201.135566 238.284266 
L 205.20867 236.406028 
L 209.281774 237.988053 
L 213.354878 238.809648 
L 217.427982 239.100999 
L 221.501086 237.115808 
L 225.57419 237.662897 
L 229.647294 237.895458 
L 233.720398 235.773693 
L 237.793502 241.562504 
L 241.866606 238.662672 
L 245.93971 239.829999 
L 250.012814 240.018693 
L 254.085918 236.572337 
L 258.159022 238.342265 
L 262.232126 238.95244 
L 266.30523 238.369059 
L 270.378334 239.232938 
L 274.451438 237.381495 
L 278.524542 237.614734 
L 282.597646 239.628529 
L 286.67075 236.558883 
L 290.743854 238.75504 
L 294.816958 237.170755 
L 298.890062 239.769852 
L 302.963165 240.292633 
L 307.036269 239.274091 
L 311.109373 237.736498 
L 315.182477 235.196079 
L 319.255581 240.518976 
L 323.328685 240.218919 
L 327.401789 238.557415 
L 331.474893 239.671265 
L 335.547997 238.846278 
L 339.621101 239.260072 
L 343.694205 239.704504 
L 347.767309 237.374599 
L 351.840413 238.482683 
L 355.913517 238.72101 
L 359.986621 238.707104 
L 364.059725 237.550744 
L 368.132829 238.281665 
L 372.205933 236.186695 
L 376.279037 237.462784 
L 380.352141 239.85261 
L 384.425245 238.222536 
L 388.498349 238.021179 
L 392.571453 237.026492 
L 396.644557 238.345091 
L 400.717661 237.541586 
L 404.790765 239.476578 
L 408.863869 236.274994 
L 412.936973 237.403089 
L 417.010077 237.924627 
L 421.083181 241.00784 
L 425.156285 239.569738 
L 429.229388 236.417334 
L 433.302492 237.44673 
L 437.375596 236.350856 
L 441.4487 238.4153 
L 445.521804 239.580366 
L 449.594908 237.212473 
L 453.668012 237.918861 
L 457.741116 237.145882 
L 461.81422 241.111627 
L 465.887324 240.420389 
L 469.960428 237.122818 
L 474.033532 240.004787 
L 478.106636 237.956849 
L 482.17974 239.682684 
L 486.252844 238.095458 
L 490.325948 236.863349 
L 494.399052 238.054079 
L 498.472156 235.973354 
L 502.54526 240.172904 
L 506.618364 238.261541 
L 510.691468 239.577992 
L 514.764572 241.550407 
L 518.837676 237.976747 
L 522.91078 238.814283 
L 526.983884 237.643338 
L 531.056988 235.977764 
L 535.130092 238.281326 
L 539.203196 238.068777 
L 543.2763 238.295006 
L 547.349404 237.246617 
L 551.422508 237.99054 
L 555.495612 238.668212 
L 559.568715 237.986244 
L 563.641819 239.406595 
L 567.714923 237.540342 
L 571.788027 237.044242 
L 575.861131 237.764989 
L 579.934235 236.392348 
L 584.007339 241.312758 
L 588.080443 240.18161 
L 592.153547 237.461654 
L 596.226651 240.730847 
L 600.299755 238.312982 
L 604.372859 240.078501 
L 608.445963 239.787828 
L 612.519067 237.8127 
L 616.592171 239.133107 
L 620.665275 238.65781 
L 624.738379 241.176184 
L 628.811483 238.992915 
L 632.884587 238.850914 
L 636.957691 240.384436 
L 641.030795 237.562728 
L 645.103899 239.659733 
L 649.177003 241.277823 
L 653.250107 237.619257 
L 657.323211 239.976635 
L 661.396315 236.478499 
L 665.469419 236.902467 
L 669.542523 237.869907 
L 673.615627 238.295232 
L 677.688731 239.084718 
L 681.761835 239.117505 
L 685.834938 239.679744 
L 689.908042 240.316149 
L 693.981146 239.293311 
L 698.05425 238.309025 
L 702.127354 238.166233 
L 706.200458 238.958206 
L 710.273562 239.077257 
L 714.346666 237.333898 
L 718.41977 237.551196 
L 722.492874 237.824005 
L 726.565978 241.011684 
L 730.639082 239.594046 
L 734.712186 239.167929 
L 738.78529 238.225588 
L 742.858394 237.479517 
L 746.931498 237.837685 
L 751.004602 238.528811 
L 755.077706 235.813942 
L 759.15081 239.441078 
L 763.223914 237.175616 
L 767.297018 239.317958 
L 771.370122 238.069342 
L 775.443226 236.397888 
L 779.51633 237.96872 
L 783.589434 236.45046 
L 787.662538 238.720897 
L 791.735642 239.988054 
L 795.808746 238.36725 
L 799.88185 236.5547 
L 803.954954 237.343508 
L 808.028058 235.760013 
L 812.101161 237.55911 
L 816.174265 237.807951 
L 820.247369 239.42265 
L 824.320473 239.586358 
L 828.393577 238.191219 
L 832.466681 236.993253 
L 836.539785 239.182514 
L 840.612889 239.871152 
L 844.685993 240.381949 
L 848.759097 239.478048 
L 852.832201 239.238817 
L 856.905305 238.981722 
L 860.978409 240.599699 
L 860.978409 147.995011 
L 860.978409 147.995011 
L 856.905305 145.357248 
L 852.832201 145.676751 
L 848.759097 146.612648 
L 844.685993 147.898912 
L 840.612889 148.188228 
L 836.539785 144.882856 
L 832.466681 142.202583 
L 828.393577 143.161204 
L 824.320473 146.195576 
L 820.247369 145.629719 
L 816.174265 142.926608 
L 812.101161 143.093256 
L 808.028058 139.575787 
L 803.954954 140.861486 
L 799.88185 141.914058 
L 795.808746 143.637745 
L 791.735642 147.327741 
L 787.662538 144.082403 
L 783.589434 140.483532 
L 779.51633 143.183364 
L 775.443226 140.441135 
L 771.370122 143.876185 
L 767.297018 144.989244 
L 763.223914 141.753855 
L 759.15081 146.2131 
L 755.077706 139.214565 
L 751.004602 143.778276 
L 746.931498 143.334975 
L 742.858394 142.160638 
L 738.78529 143.68783 
L 734.712186 144.397836 
L 730.639082 146.679126 
L 726.565978 148.822033 
L 722.492874 143.997836 
L 718.41977 142.621464 
L 714.346666 142.175675 
L 710.273562 144.552726 
L 706.200458 145.707277 
L 702.127354 142.381328 
L 698.05425 144.881951 
L 693.981146 144.586078 
L 689.908042 148.095972 
L 685.834938 147.272682 
L 681.761835 143.947412 
L 677.688731 146.189584 
L 673.615627 143.709537 
L 669.542523 143.484664 
L 665.469419 141.422933 
L 661.396315 139.584492 
L 657.323211 147.815249 
L 653.250107 142.087603 
L 649.177003 149.904114 
L 645.103899 146.601681 
L 641.030795 143.259226 
L 636.957691 147.725593 
L 632.884587 145.046903 
L 628.811483 145.571607 
L 624.738379 149.453237 
L 620.665275 143.838084 
L 616.592171 146.154762 
L 612.519067 142.479576 
L 608.445963 146.590488 
L 604.372859 147.426554 
L 600.299755 144.414455 
L 596.226651 149.026555 
L 592.153547 142.742889 
L 588.080443 147.364824 
L 584.007339 149.203039 
L 579.934235 141.431752 
L 575.861131 140.641813 
L 571.788027 142.695517 
L 567.714923 140.511457 
L 563.641819 146.069403 
L 559.568715 143.653799 
L 555.495612 144.858548 
L 551.422508 142.649615 
L 547.349404 141.495177 
L 543.2763 143.817395 
L 539.203196 144.447468 
L 535.130092 143.37545 
L 531.056988 140.200434 
L 526.983884 141.921294 
L 522.91078 144.513042 
L 518.837676 143.421351 
L 514.764572 150.286929 
L 510.691468 147.051879 
L 506.618364 143.946394 
L 502.54526 147.032885 
L 498.472156 140.664538 
L 494.399052 142.362673 
L 490.325948 141.047466 
L 486.252844 143.003149 
L 482.17974 146.30072 
L 478.106636 143.532827 
L 474.033532 147.127176 
L 469.960428 142.459791 
L 465.887324 147.637295 
L 461.81422 150.410502 
L 457.741116 141.291672 
L 453.668012 143.324008 
L 449.594908 141.789694 
L 445.521804 145.794671 
L 441.4487 145.205524 
L 437.375596 139.459337 
L 433.302492 141.567874 
L 429.229388 140.841813 
L 425.156285 145.473359 
L 421.083181 148.809822 
L 417.010077 143.035257 
L 412.936973 142.823386 
L 408.863869 139.260919 
L 404.790765 146.537464 
L 400.717661 142.797609 
L 396.644557 143.884551 
L 392.571453 141.508405 
L 388.498349 142.683081 
L 384.425245 144.794896 
L 380.352141 145.529323 
L 376.279037 142.322651 
L 372.205933 140.164707 
L 368.132829 143.230057 
L 364.059725 142.894839 
L 359.986621 145.079238 
L 355.913517 144.629379 
L 351.840413 145.069628 
L 347.767309 141.427795 
L 343.694205 146.578843 
L 339.621101 144.853121 
L 335.547997 145.711008 
L 331.474893 146.53769 
L 327.401789 143.444189 
L 323.328685 147.372852 
L 319.255581 149.429721 
L 315.182477 138.213095 
L 311.109373 142.789016 
L 307.036269 144.707955 
L 302.963165 148.22452 
L 298.890062 147.093145 
L 294.816958 142.398174 
L 290.743854 144.975111 
L 286.67075 139.490202 
L 282.597646 146.46782 
L 278.524542 142.524799 
L 274.451438 141.51338 
L 270.378334 146.057871 
L 266.30523 143.052216 
L 262.232126 145.624518 
L 258.159022 143.747751 
L 254.085918 141.44871 
L 250.012814 146.56098 
L 245.93971 147.372399 
L 241.866606 145.396254 
L 237.793502 149.695747 
L 233.720398 139.03582 
L 229.647294 142.213323 
L 225.57419 143.070531 
L 221.501086 141.758829 
L 217.427982 145.1906 
L 213.354878 144.749108 
L 209.281774 144.11813 
L 205.20867 140.062616 
L 201.135566 144.345716 
L 197.062462 142.63944 
L 192.989358 141.330338 
L 188.916254 144.426326 
L 184.84315 139.855267 
L 180.770046 143.087264 
L 176.696942 144.933506 
L 172.623839 145.660245 
L 168.550735 149.726386 
L 164.477631 145.806994 
L 160.404527 139.29348 
L 156.331423 140.473469 
L 152.258319 136.96708 
L 148.185215 142.964031 
L 144.112111 140.550236 
L 140.039007 142.277767 
L 135.965903 145.081273 
L 131.892799 143.449955 
L 127.819695 145.848261 
L 123.746591 138.404955 
z
" clip-path="url(#p64f204f127)" style="fill: #ff7f0e"/>
   </g>
   <g id="PolyCollection_3">
    <path d="M 123.746591 41.401621 
L 123.746591 138.404955 
L 127.819695 145.848261 
L 131.892799 143.449955 
L 135.965903 145.081273 
L 140.039007 142.277767 
L 144.112111 140.550236 
L 148.185215 142.964031 
L 152.258319 136.96708 
L 156.331423 140.473469 
L 160.404527 139.29348 
L 164.477631 145.806994 
L 168.550735 149.726386 
L 172.623839 145.660245 
L 176.696942 144.933506 
L 180.770046 143.087264 
L 184.84315 139.855267 
L 188.916254 144.426326 
L 192.989358 141.330338 
L 197.062462 142.63944 
L 201.135566 144.345716 
L 205.20867 140.062616 
L 209.281774 144.11813 
L 213.354878 144.749108 
L 217.427982 145.1906 
L 221.501086 141.758829 
L 225.57419 143.070531 
L 229.647294 142.213323 
L 233.720398 139.03582 
L 237.793502 149.695747 
L 241.866606 145.396254 
L 245.93971 147.372399 
L 250.012814 146.56098 
L 254.085918 141.44871 
L 258.159022 143.747751 
L 262.232126 145.624518 
L 266.30523 143.052216 
L 270.378334 146.057871 
L 274.451438 141.51338 
L 278.524542 142.524799 
L 282.597646 146.46782 
L 286.67075 139.490202 
L 290.743854 144.975111 
L 294.816958 142.398174 
L 298.890062 147.093145 
L 302.963165 148.22452 
L 307.036269 144.707955 
L 311.109373 142.789016 
L 315.182477 138.213095 
L 319.255581 149.429721 
L 323.328685 147.372852 
L 327.401789 143.444189 
L 331.474893 146.53769 
L 335.547997 145.711008 
L 339.621101 144.853121 
L 343.694205 146.578843 
L 347.767309 141.427795 
L 351.840413 145.069628 
L 355.913517 144.629379 
L 359.986621 145.079238 
L 364.059725 142.894839 
L 368.132829 143.230057 
L 372.205933 140.164707 
L 376.279037 142.322651 
L 380.352141 145.529323 
L 384.425245 144.794896 
L 388.498349 142.683081 
L 392.571453 141.508405 
L 396.644557 143.884551 
L 400.717661 142.797609 
L 404.790765 146.537464 
L 408.863869 139.260919 
L 412.936973 142.823386 
L 417.010077 143.035257 
L 421.083181 148.809822 
L 425.156285 145.473359 
L 429.229388 140.841813 
L 433.302492 141.567874 
L 437.375596 139.459337 
L 441.4487 145.205524 
L 445.521804 145.794671 
L 449.594908 141.789694 
L 453.668012 143.324008 
L 457.741116 141.291672 
L 461.81422 150.410502 
L 465.887324 147.637295 
L 469.960428 142.459791 
L 474.033532 147.127176 
L 478.106636 143.532827 
L 482.17974 146.30072 
L 486.252844 143.003149 
L 490.325948 141.047466 
L 494.399052 142.362673 
L 498.472156 140.664538 
L 502.54526 147.032885 
L 506.618364 143.946394 
L 510.691468 147.051879 
L 514.764572 150.286929 
L 518.837676 143.421351 
L 522.91078 144.513042 
L 526.983884 141.921294 
L 531.056988 140.200434 
L 535.130092 143.37545 
L 539.203196 144.447468 
L 543.2763 143.817395 
L 547.349404 141.495177 
L 551.422508 142.649615 
L 555.495612 144.858548 
L 559.568715 143.653799 
L 563.641819 146.069403 
L 567.714923 140.511457 
L 571.788027 142.695517 
L 575.861131 140.641813 
L 579.934235 141.431752 
L 584.007339 149.203039 
L 588.080443 147.364824 
L 592.153547 142.742889 
L 596.226651 149.026555 
L 600.299755 144.414455 
L 604.372859 147.426554 
L 608.445963 146.590488 
L 612.519067 142.479576 
L 616.592171 146.154762 
L 620.665275 143.838084 
L 624.738379 149.453237 
L 628.811483 145.571607 
L 632.884587 145.046903 
L 636.957691 147.725593 
L 641.030795 143.259226 
L 645.103899 146.601681 
L 649.177003 149.904114 
L 653.250107 142.087603 
L 657.323211 147.815249 
L 661.396315 139.584492 
L 665.469419 141.422933 
L 669.542523 143.484664 
L 673.615627 143.709537 
L 677.688731 146.189584 
L 681.761835 143.947412 
L 685.834938 147.272682 
L 689.908042 148.095972 
L 693.981146 144.586078 
L 698.05425 144.881951 
L 702.127354 142.381328 
L 706.200458 145.707277 
L 710.273562 144.552726 
L 714.346666 142.175675 
L 718.41977 142.621464 
L 722.492874 143.997836 
L 726.565978 148.822033 
L 730.639082 146.679126 
L 734.712186 144.397836 
L 738.78529 143.68783 
L 742.858394 142.160638 
L 746.931498 143.334975 
L 751.004602 143.778276 
L 755.077706 139.214565 
L 759.15081 146.2131 
L 763.223914 141.753855 
L 767.297018 144.989244 
L 771.370122 143.876185 
L 775.443226 140.441135 
L 779.51633 143.183364 
L 783.589434 140.483532 
L 787.662538 144.082403 
L 791.735642 147.327741 
L 795.808746 143.637745 
L 799.88185 141.914058 
L 803.954954 140.861486 
L 808.028058 139.575787 
L 812.101161 143.093256 
L 816.174265 142.926608 
L 820.247369 145.629719 
L 824.320473 146.195576 
L 828.393577 143.161204 
L 832.466681 142.202583 
L 836.539785 144.882856 
L 840.612889 148.188228 
L 844.685993 147.898912 
L 848.759097 146.612648 
L 852.832201 145.676751 
L 856.905305 145.357248 
L 860.978409 147.995011 
L 860.978409 55.596542 
L 860.978409 55.596542 
L 856.905305 53.075455 
L 852.832201 52.106884 
L 848.759097 53.696371 
L 844.685993 54.036789 
L 840.612889 56.873987 
L 836.539785 50.997443 
L 832.466681 47.761941 
L 828.393577 48.193146 
L 824.320473 52.416777 
L 820.247369 52.229327 
L 816.174265 48.742157 
L 812.101161 48.905752 
L 808.028058 43.517507 
L 803.954954 44.315699 
L 799.88185 46.233619 
L 795.808746 48.213722 
L 791.735642 55.320114 
L 787.662538 50.255329 
L 783.589434 44.541702 
L 779.51633 48.434186 
L 775.443226 43.525195 
L 771.370122 49.767256 
L 767.297018 52.251938 
L 763.223914 46.308916 
L 759.15081 53.367145 
L 755.077706 42.853629 
L 751.004602 48.946114 
L 746.931498 48.025028 
L 742.858394 46.514795 
L 738.78529 49.797782 
L 734.712186 49.712649 
L 730.639082 54.078056 
L 726.565978 56.944536 
L 722.492874 50.227969 
L 718.41977 48.443004 
L 714.346666 46.170759 
L 710.273562 51.037353 
L 706.200458 52.134584 
L 702.127354 46.060075 
L 698.05425 52.153577 
L 693.981146 49.064712 
L 689.908042 56.496259 
L 685.834938 54.691397 
L 681.761835 49.916832 
L 677.688731 53.647304 
L 673.615627 48.670478 
L 669.542523 50.785798 
L 665.469419 44.867875 
L 661.396315 42.201961 
L 657.323211 54.887214 
L 653.250107 47.243343 
L 649.177003 59.150416 
L 645.103899 53.144081 
L 641.030795 48.501229 
L 636.957691 55.142839 
L 632.884587 51.141367 
L 628.811483 52.406941 
L 624.738379 57.403891 
L 620.665275 49.925199 
L 616.592171 53.007281 
L 612.519067 46.271268 
L 608.445963 53.751996 
L 604.372859 54.520453 
L 600.299755 50.996652 
L 596.226651 57.290268 
L 592.153547 48.931982 
L 588.080443 54.681335 
L 584.007339 56.653976 
L 579.934235 46.89795 
L 575.861131 44.419599 
L 571.788027 47.567933 
L 567.714923 44.592352 
L 563.641819 52.814742 
L 559.568715 48.896707 
L 555.495612 51.067313 
L 551.422508 47.819714 
L 547.349404 46.482348 
L 543.2763 49.650919 
L 539.203196 49.596086 
L 535.130092 50.344871 
L 531.056988 43.706314 
L 526.983884 46.019939 
L 522.91078 49.893768 
L 518.837676 49.655102 
L 514.764572 58.136057 
L 510.691468 56.322828 
L 506.618364 49.464599 
L 502.54526 53.670933 
L 498.472156 45.602641 
L 494.399052 46.648317 
L 490.325948 45.578447 
L 486.252844 48.895916 
L 482.17974 52.697501 
L 478.106636 49.203887 
L 474.033532 54.647983 
L 469.960428 47.755045 
L 465.887324 54.035546 
L 461.81422 59.686877 
L 457.741116 45.678164 
L 453.668012 48.446848 
L 449.594908 46.122031 
L 445.521804 52.937298 
L 441.4487 51.287664 
L 437.375596 43.554251 
L 433.302492 45.808294 
L 429.229388 44.796309 
L 425.156285 52.403323 
L 421.083181 56.646966 
L 417.010077 47.83916 
L 412.936973 48.381162 
L 408.863869 41.741927 
L 404.790765 53.534358 
L 400.717661 48.686419 
L 396.644557 47.934694 
L 392.571453 47.333903 
L 388.498349 46.644812 
L 384.425245 51.622882 
L 380.352141 52.059287 
L 376.279037 46.607842 
L 372.205933 45.852839 
L 368.132829 46.915022 
L 364.059725 48.787832 
L 359.986621 51.499196 
L 355.913517 50.431134 
L 351.840413 51.498066 
L 347.767309 45.16861 
L 343.694205 53.753465 
L 339.621101 50.954368 
L 335.547997 52.867767 
L 331.474893 53.730288 
L 327.401789 48.783197 
L 323.328685 53.953918 
L 319.255581 59.018138 
L 315.182477 41.075109 
L 311.109373 47.51717 
L 307.036269 50.093316 
L 302.963165 55.40536 
L 298.890062 55.743517 
L 294.816958 47.434411 
L 290.743854 51.561039 
L 286.67075 42.536161 
L 282.597646 53.050356 
L 278.524542 48.305865 
L 274.451438 45.168949 
L 270.378334 51.872515 
L 266.30523 48.683479 
L 262.232126 52.413838 
L 258.159022 48.369177 
L 254.085918 46.350296 
L 250.012814 53.300893 
L 245.93971 54.641425 
L 241.866606 53.270593 
L 237.793502 58.585011 
L 233.720398 41.902017 
L 229.647294 47.223671 
L 225.57419 47.420279 
L 221.501086 46.490488 
L 217.427982 51.024464 
L 213.354878 50.772684 
L 209.281774 50.412819 
L 205.20867 43.555042 
L 201.135566 49.93707 
L 197.062462 48.997103 
L 192.989358 44.915699 
L 188.916254 51.10451 
L 184.84315 43.717959 
L 180.770046 48.188397 
L 176.696942 50.075001 
L 172.623839 51.982181 
L 168.550735 58.82933 
L 164.477631 52.701345 
L 160.404527 43.700209 
L 156.331423 44.15086 
L 152.258319 38.401393 
L 148.185215 46.909595 
L 144.112111 45.783195 
L 140.039007 46.42254 
L 135.965903 50.819151 
L 131.892799 48.300777 
L 127.819695 52.856687 
L 123.746591 41.401621 
z
" clip-path="url(#p64f204f127)" style="fill: #2ca02c"/>
   </g>
   <g id="matplotlib.axis_1">
    <g id="xtick_1">
     <g id="line2d_1">
      <path d="M 123.746591 331.64 
L 123.746591 23.76 
" clip-path="url(#p64f204f127)" style="fill: none; stroke-dasharray: 5.12,1.28,0.8,1.28; stroke-dashoffset: 0; stroke: #b0b0b0; stroke-width: 0.8"/>
     </g>
     <g id="line2d_2">
      <defs>
       <path id="mc294971f33" d="M 0 0 
L 0 3.5 
" style="stroke: #000000; stroke-width: 0.8"/>
      </defs>
      <g>
       <use xlink:href="#mc294971f33" x="123.746591" y="331.64" style="stroke: #000000; stroke-width: 0.8"/>
      </g>
     </g>
     <g id="text_1">
      <!-- 0 -->
      <g transform="translate(116.747841 355.356563)scale(0.22 -0.22)">
       <defs>
        <path id="DejaVuSans-30" d="M 2034 4250 
Q 1547 4250 1301 3770 
Q 1056 3291 1056 2328 
Q 1056 1369 1301 889 
Q 1547 409 2034 409 
Q 2525 409 2770 889 
Q 3016 1369 3016 2328 
Q 3016 3291 2770 3770 
Q 2525 4250 2034 4250 
z
M 2034 4750 
Q 2819 4750 3233 4129 
Q 3647 3509 3647 2328 
Q 3647 1150 3233 529 
Q 2819 -91 2034 -91 
Q 1250 -91 836 529 
Q 422 1150 422 2328 
Q 422 3509 836 4129 
Q 1250 4750 2034 4750 
z
" transform="scale(0.015625)"/>
       </defs>
       <use xlink:href="#DejaVuSans-30"/>
      </g>
     </g>
    </g>
    <g id="xtick_2">
     <g id="line2d_3">
      <path d="M 225.57419 331.64 
L 225.57419 23.76 
" clip-path="url(#p64f204f127)" style="fill: none; stroke-dasharray: 5.12,1.28,0.8,1.28; stroke-dashoffset: 0; stroke: #b0b0b0; stroke-width: 0.8"/>
     </g>
     <g id="line2d_4">
      <g>
       <use xlink:href="#mc294971f33" x="225.57419" y="331.64" style="stroke: #000000; stroke-width: 0.8"/>
      </g>
     </g>
     <g id="text_2">
      <!-- 25 -->
      <g transform="translate(211.57669 355.356563)scale(0.22 -0.22)">
       <defs>
        <path id="DejaVuSans-32" d="M 1228 531 
L 3431 531 
L 3431 0 
L 469 0 
L 469 531 
Q 828 903 1448 1529 
Q 2069 2156 2228 2338 
Q 2531 2678 2651 2914 
Q 2772 3150 2772 3378 
Q 2772 3750 2511 3984 
Q 2250 4219 1831 4219 
Q 1534 4219 1204 4116 
Q 875 4013 500 3803 
L 500 4441 
Q 881 4594 1212 4672 
Q 1544 4750 1819 4750 
Q 2544 4750 2975 4387 
Q 3406 4025 3406 3419 
Q 3406 3131 3298 2873 
Q 3191 2616 2906 2266 
Q 2828 2175 2409 1742 
Q 1991 1309 1228 531 
z
" transform="scale(0.015625)"/>
        <path id="DejaVuSans-35" d="M 691 4666 
L 3169 4666 
L 3169 4134 
L 1269 4134 
L 1269 2991 
Q 1406 3038 1543 3061 
Q 1681 3084 1819 3084 
Q 2600 3084 3056 2656 
Q 3513 2228 3513 1497 
Q 3513 744 3044 326 
Q 2575 -91 1722 -91 
Q 1428 -91 1123 -41 
Q 819 9 494 109 
L 494 744 
Q 775 591 1075 516 
Q 1375 441 1709 441 
Q 2250 441 2565 725 
Q 2881 1009 2881 1497 
Q 2881 1984 2565 2268 
Q 2250 2553 1709 2553 
Q 1456 2553 1204 2497 
Q 953 2441 691 2322 
L 691 4666 
z
" transform="scale(0.015625)"/>
       </defs>
       <use xlink:href="#DejaVuSans-32"/>
       <use xlink:href="#DejaVuSans-35" x="63.623047"/>
      </g>
     </g>
    </g>
    <g id="xtick_3">
     <g id="line2d_5">
      <path d="M 327.401789 331.64 
L 327.401789 23.76 
" clip-path="url(#p64f204f127)" style="fill: none; stroke-dasharray: 5.12,1.28,0.8,1.28; stroke-dashoffset: 0; stroke: #b0b0b0; stroke-width: 0.8"/>
     </g>
     <g id="line2d_6">
      <g>
       <use xlink:href="#mc294971f33" x="327.401789" y="331.64" style="stroke: #000000; stroke-width: 0.8"/>
      </g>
     </g>
     <g id="text_3">
      <!-- 50 -->
      <g transform="translate(313.404289 355.356563)scale(0.22 -0.22)">
       <use xlink:href="#DejaVuSans-35"/>
       <use xlink:href="#DejaVuSans-30" x="63.623047"/>
      </g>
     </g>
    </g>
    <g id="xtick_4">
     <g id="line2d_7">
      <path d="M 429.229388 331.64 
L 429.229388 23.76 
" clip-path="url(#p64f204f127)" style="fill: none; stroke-dasharray: 5.12,1.28,0.8,1.28; stroke-dashoffset: 0; stroke: #b0b0b0; stroke-width: 0.8"/>
     </g>
     <g id="line2d_8">
      <g>
       <use xlink:href="#mc294971f33" x="429.229388" y="331.64" style="stroke: #000000; stroke-width: 0.8"/>
      </g>
     </g>
     <g id="text_4">
      <!-- 75 -->
      <g transform="translate(415.231888 355.356563)scale(0.22 -0.22)">
       <defs>
        <path id="DejaVuSans-37" d="M 525 4666 
L 3525 4666 
L 3525 4397 
L 1831 0 
L 1172 0 
L 2766 4134 
L 525 4134 
L 525 4666 
z
" transform="scale(0.015625)"/>
       </defs>
       <use xlink:href="#DejaVuSans-37"/>
       <use xlink:href="#DejaVuSans-35" x="63.623047"/>
      </g>
     </g>
    </g>
    <g id="xtick_5">
     <g id="line2d_9">
      <path d="M 531.056988 331.64 
L 531.056988 23.76 
" clip-path="url(#p64f204f127)" style="fill: none; stroke-dasharray: 5.12,1.28,0.8,1.28; stroke-dashoffset: 0; stroke: #b0b0b0; stroke-width: 0.8"/>
     </g>
     <g id="line2d_10">
      <g>
       <use xlink:href="#mc294971f33" x="531.056988" y="331.64" style="stroke: #000000; stroke-width: 0.8"/>
      </g>
     </g>
     <g id="text_5">
      <!-- 100 -->
      <g transform="translate(510.060738 355.356563)scale(0.22 -0.22)">
       <defs>
        <path id="DejaVuSans-31" d="M 794 531 
L 1825 531 
L 1825 4091 
L 703 3866 
L 703 4441 
L 1819 4666 
L 2450 4666 
L 2450 531 
L 3481 531 
L 3481 0 
L 794 0 
L 794 531 
z
" transform="scale(0.015625)"/>
       </defs>
       <use xlink:href="#DejaVuSans-31"/>
       <use xlink:href="#DejaVuSans-30" x="63.623047"/>
       <use xlink:href="#DejaVuSans-30" x="127.246094"/>
      </g>
     </g>
    </g>
    <g id="xtick_6">
     <g id="line2d_11">
      <path d="M 632.884587 331.64 
L 632.884587 23.76 
" clip-path="url(#p64f204f127)" style="fill: none; stroke-dasharray: 5.12,1.28,0.8,1.28; stroke-dashoffset: 0; stroke: #b0b0b0; stroke-width: 0.8"/>
     </g>
     <g id="line2d_12">
      <g>
       <use xlink:href="#mc294971f33" x="632.884587" y="331.64" style="stroke: #000000; stroke-width: 0.8"/>
      </g>
     </g>
     <g id="text_6">
      <!-- 125 -->
      <g transform="translate(611.888337 355.356563)scale(0.22 -0.22)">
       <use xlink:href="#DejaVuSans-31"/>
       <use xlink:href="#DejaVuSans-32" x="63.623047"/>
       <use xlink:href="#DejaVuSans-35" x="127.246094"/>
      </g>
     </g>
    </g>
    <g id="xtick_7">
     <g id="line2d_13">
      <path d="M 734.712186 331.64 
L 734.712186 23.76 
" clip-path="url(#p64f204f127)" style="fill: none; stroke-dasharray: 5.12,1.28,0.8,1.28; stroke-dashoffset: 0; stroke: #b0b0b0; stroke-width: 0.8"/>
     </g>
     <g id="line2d_14">
      <g>
       <use xlink:href="#mc294971f33" x="734.712186" y="331.64" style="stroke: #000000; stroke-width: 0.8"/>
      </g>
     </g>
     <g id="text_7">
      <!-- 150 -->
      <g transform="translate(713.715936 355.356563)scale(0.22 -0.22)">
       <use xlink:href="#DejaVuSans-31"/>
       <use xlink:href="#DejaVuSans-35" x="63.623047"/>
       <use xlink:href="#DejaVuSans-30" x="127.246094"/>
      </g>
     </g>
    </g>
    <g id="xtick_8">
     <g id="line2d_15">
      <path d="M 836.539785 331.64 
L 836.539785 23.76 
" clip-path="url(#p64f204f127)" style="fill: none; stroke-dasharray: 5.12,1.28,0.8,1.28; stroke-dashoffset: 0; stroke: #b0b0b0; stroke-width: 0.8"/>
     </g>
     <g id="line2d_16">
      <g>
       <use xlink:href="#mc294971f33" x="836.539785" y="331.64" style="stroke: #000000; stroke-width: 0.8"/>
      </g>
     </g>
     <g id="text_8">
      <!-- 175 -->
      <g transform="translate(815.543535 355.356563)scale(0.22 -0.22)">
       <use xlink:href="#DejaVuSans-31"/>
       <use xlink:href="#DejaVuSans-37" x="63.623047"/>
       <use xlink:href="#DejaVuSans-35" x="127.246094"/>
      </g>
     </g>
    </g>
    <g id="text_9">
     <!-- Time (s) -->
     <g transform="translate(443.573125 382.168125)scale(0.24 -0.24)">
      <defs>
       <path id="DejaVuSans-54" d="M -19 4666 
L 3928 4666 
L 3928 4134 
L 2272 4134 
L 2272 0 
L 1638 0 
L 1638 4134 
L -19 4134 
L -19 4666 
z
" transform="scale(0.015625)"/>
       <path id="DejaVuSans-69" d="M 603 3500 
L 1178 3500 
L 1178 0 
L 603 0 
L 603 3500 
z
M 603 4863 
L 1178 4863 
L 1178 4134 
L 603 4134 
L 603 4863 
z
" transform="scale(0.015625)"/>
       <path id="DejaVuSans-6d" d="M 3328 2828 
Q 3544 3216 3844 3400 
Q 4144 3584 4550 3584 
Q 5097 3584 5394 3201 
Q 5691 2819 5691 2113 
L 5691 0 
L 5113 0 
L 5113 2094 
Q 5113 2597 4934 2840 
Q 4756 3084 4391 3084 
Q 3944 3084 3684 2787 
Q 3425 2491 3425 1978 
L 3425 0 
L 2847 0 
L 2847 2094 
Q 2847 2600 2669 2842 
Q 2491 3084 2119 3084 
Q 1678 3084 1418 2786 
Q 1159 2488 1159 1978 
L 1159 0 
L 581 0 
L 581 3500 
L 1159 3500 
L 1159 2956 
Q 1356 3278 1631 3431 
Q 1906 3584 2284 3584 
Q 2666 3584 2933 3390 
Q 3200 3197 3328 2828 
z
" transform="scale(0.015625)"/>
       <path id="DejaVuSans-65" d="M 3597 1894 
L 3597 1613 
L 953 1613 
Q 991 1019 1311 708 
Q 1631 397 2203 397 
Q 2534 397 2845 478 
Q 3156 559 3463 722 
L 3463 178 
Q 3153 47 2828 -22 
Q 2503 -91 2169 -91 
Q 1331 -91 842 396 
Q 353 884 353 1716 
Q 353 2575 817 3079 
Q 1281 3584 2069 3584 
Q 2775 3584 3186 3129 
Q 3597 2675 3597 1894 
z
M 3022 2063 
Q 3016 2534 2758 2815 
Q 2500 3097 2075 3097 
Q 1594 3097 1305 2825 
Q 1016 2553 972 2059 
L 3022 2063 
z
" transform="scale(0.015625)"/>
       <path id="DejaVuSans-20" transform="scale(0.015625)"/>
       <path id="DejaVuSans-28" d="M 1984 4856 
Q 1566 4138 1362 3434 
Q 1159 2731 1159 2009 
Q 1159 1288 1364 580 
Q 1569 -128 1984 -844 
L 1484 -844 
Q 1016 -109 783 600 
Q 550 1309 550 2009 
Q 550 2706 781 3412 
Q 1013 4119 1484 4856 
L 1984 4856 
z
" transform="scale(0.015625)"/>
       <path id="DejaVuSans-73" d="M 2834 3397 
L 2834 2853 
Q 2591 2978 2328 3040 
Q 2066 3103 1784 3103 
Q 1356 3103 1142 2972 
Q 928 2841 928 2578 
Q 928 2378 1081 2264 
Q 1234 2150 1697 2047 
L 1894 2003 
Q 2506 1872 2764 1633 
Q 3022 1394 3022 966 
Q 3022 478 2636 193 
Q 2250 -91 1575 -91 
Q 1294 -91 989 -36 
Q 684 19 347 128 
L 347 722 
Q 666 556 975 473 
Q 1284 391 1588 391 
Q 1994 391 2212 530 
Q 2431 669 2431 922 
Q 2431 1156 2273 1281 
Q 2116 1406 1581 1522 
L 1381 1569 
Q 847 1681 609 1914 
Q 372 2147 372 2553 
Q 372 3047 722 3315 
Q 1072 3584 1716 3584 
Q 2034 3584 2315 3537 
Q 2597 3491 2834 3397 
z
" transform="scale(0.015625)"/>
       <path id="DejaVuSans-29" d="M 513 4856 
L 1013 4856 
Q 1481 4119 1714 3412 
Q 1947 2706 1947 2009 
Q 1947 1309 1714 600 
Q 1481 -109 1013 -844 
L 513 -844 
Q 928 -128 1133 580 
Q 1338 1288 1338 2009 
Q 1338 2731 1133 3434 
Q 928 4138 513 4856 
z
" transform="scale(0.015625)"/>
      </defs>
      <use xlink:href="#DejaVuSans-54"/>
      <use xlink:href="#DejaVuSans-69" x="57.958984"/>
      <use xlink:href="#DejaVuSans-6d" x="85.742188"/>
      <use xlink:href="#DejaVuSans-65" x="183.154297"/>
      <use xlink:href="#DejaVuSans-20" x="244.677734"/>
      <use xlink:href="#DejaVuSans-28" x="276.464844"/>
      <use xlink:href="#DejaVuSans-73" x="315.478516"/>
      <use xlink:href="#DejaVuSans-29" x="367.578125"/>
     </g>
    </g>
   </g>
   <g id="matplotlib.axis_2">
    <g id="ytick_1">
     <g id="line2d_17">
      <path d="M 86.885 331.64 
L 897.84 331.64 
" clip-path="url(#p64f204f127)" style="fill: none; stroke-dasharray: 5.12,1.28,0.8,1.28; stroke-dashoffset: 0; stroke: #b0b0b0; stroke-width: 0.8"/>
     </g>
     <g id="line2d_18">
      <defs>
       <path id="m433dfc4351" d="M 0 0 
L -3.5 0 
" style="stroke: #000000; stroke-width: 0.8"/>
      </defs>
      <g>
       <use xlink:href="#m433dfc4351" x="86.885" y="331.64" style="stroke: #000000; stroke-width: 0.8"/>
      </g>
     </g>
     <g id="text_10">
      <!-- 0 -->
      <g transform="translate(65.8875 339.998281)scale(0.22 -0.22)">
       <use xlink:href="#DejaVuSans-30"/>
      </g>
     </g>
    </g>
    <g id="ytick_2">
     <g id="line2d_19">
      <path d="M 86.885 260.978569 
L 897.84 260.978569 
" clip-path="url(#p64f204f127)" style="fill: none; stroke-dasharray: 5.12,1.28,0.8,1.28; stroke-dashoffset: 0; stroke: #b0b0b0; stroke-width: 0.8"/>
     </g>
     <g id="line2d_20">
      <g>
       <use xlink:href="#m433dfc4351" x="86.885" y="260.978569" style="stroke: #000000; stroke-width: 0.8"/>
      </g>
     </g>
     <g id="text_11">
      <!-- 5 -->
      <g transform="translate(65.8875 269.33685)scale(0.22 -0.22)">
       <use xlink:href="#DejaVuSans-35"/>
      </g>
     </g>
    </g>
    <g id="ytick_3">
     <g id="line2d_21">
      <path d="M 86.885 190.317138 
L 897.84 190.317138 
" clip-path="url(#p64f204f127)" style="fill: none; stroke-dasharray: 5.12,1.28,0.8,1.28; stroke-dashoffset: 0; stroke: #b0b0b0; stroke-width: 0.8"/>
     </g>
     <g id="line2d_22">
      <g>
       <use xlink:href="#m433dfc4351" x="86.885" y="190.317138" style="stroke: #000000; stroke-width: 0.8"/>
      </g>
     </g>
     <g id="text_12">
      <!-- 10 -->
      <g transform="translate(51.89 198.67542)scale(0.22 -0.22)">
       <use xlink:href="#DejaVuSans-31"/>
       <use xlink:href="#DejaVuSans-30" x="63.623047"/>
      </g>
     </g>
    </g>
    <g id="ytick_4">
     <g id="line2d_23">
      <path d="M 86.885 119.655707 
L 897.84 119.655707 
" clip-path="url(#p64f204f127)" style="fill: none; stroke-dasharray: 5.12,1.28,0.8,1.28; stroke-dashoffset: 0; stroke: #b0b0b0; stroke-width: 0.8"/>
     </g>
     <g id="line2d_24">
      <g>
       <use xlink:href="#m433dfc4351" x="86.885" y="119.655707" style="stroke: #000000; stroke-width: 0.8"/>
      </g>
     </g>
     <g id="text_13">
      <!-- 15 -->
      <g transform="translate(51.89 128.013989)scale(0.22 -0.22)">
       <use xlink:href="#DejaVuSans-31"/>
       <use xlink:href="#DejaVuSans-35" x="63.623047"/>
      </g>
     </g>
    </g>
    <g id="ytick_5">
     <g id="line2d_25">
      <path d="M 86.885 48.994277 
L 897.84 48.994277 
" clip-path="url(#p64f204f127)" style="fill: none; stroke-dasharray: 5.12,1.28,0.8,1.28; stroke-dashoffset: 0; stroke: #b0b0b0; stroke-width: 0.8"/>
     </g>
     <g id="line2d_26">
      <g>
       <use xlink:href="#m433dfc4351" x="86.885" y="48.994277" style="stroke: #000000; stroke-width: 0.8"/>
      </g>
     </g>
     <g id="text_14">
      <!-- 20 -->
      <g transform="translate(51.89 57.352558)scale(0.22 -0.22)">
       <use xlink:href="#DejaVuSans-32"/>
       <use xlink:href="#DejaVuSans-30" x="63.623047"/>
      </g>
     </g>
    </g>
    <g id="text_15">
     <!-- Throughput (Mbps) -->
     <g transform="translate(42.89875 292.414375)rotate(-90)scale(0.24 -0.24)">
      <defs>
       <path id="DejaVuSans-68" d="M 3513 2113 
L 3513 0 
L 2938 0 
L 2938 2094 
Q 2938 2591 2744 2837 
Q 2550 3084 2163 3084 
Q 1697 3084 1428 2787 
Q 1159 2491 1159 1978 
L 1159 0 
L 581 0 
L 581 4863 
L 1159 4863 
L 1159 2956 
Q 1366 3272 1645 3428 
Q 1925 3584 2291 3584 
Q 2894 3584 3203 3211 
Q 3513 2838 3513 2113 
z
" transform="scale(0.015625)"/>
       <path id="DejaVuSans-72" d="M 2631 2963 
Q 2534 3019 2420 3045 
Q 2306 3072 2169 3072 
Q 1681 3072 1420 2755 
Q 1159 2438 1159 1844 
L 1159 0 
L 581 0 
L 581 3500 
L 1159 3500 
L 1159 2956 
Q 1341 3275 1631 3429 
Q 1922 3584 2338 3584 
Q 2397 3584 2469 3576 
Q 2541 3569 2628 3553 
L 2631 2963 
z
" transform="scale(0.015625)"/>
       <path id="DejaVuSans-6f" d="M 1959 3097 
Q 1497 3097 1228 2736 
Q 959 2375 959 1747 
Q 959 1119 1226 758 
Q 1494 397 1959 397 
Q 2419 397 2687 759 
Q 2956 1122 2956 1747 
Q 2956 2369 2687 2733 
Q 2419 3097 1959 3097 
z
M 1959 3584 
Q 2709 3584 3137 3096 
Q 3566 2609 3566 1747 
Q 3566 888 3137 398 
Q 2709 -91 1959 -91 
Q 1206 -91 779 398 
Q 353 888 353 1747 
Q 353 2609 779 3096 
Q 1206 3584 1959 3584 
z
" transform="scale(0.015625)"/>
       <path id="DejaVuSans-75" d="M 544 1381 
L 544 3500 
L 1119 3500 
L 1119 1403 
Q 1119 906 1312 657 
Q 1506 409 1894 409 
Q 2359 409 2629 706 
Q 2900 1003 2900 1516 
L 2900 3500 
L 3475 3500 
L 3475 0 
L 2900 0 
L 2900 538 
Q 2691 219 2414 64 
Q 2138 -91 1772 -91 
Q 1169 -91 856 284 
Q 544 659 544 1381 
z
M 1991 3584 
L 1991 3584 
z
" transform="scale(0.015625)"/>
       <path id="DejaVuSans-67" d="M 2906 1791 
Q 2906 2416 2648 2759 
Q 2391 3103 1925 3103 
Q 1463 3103 1205 2759 
Q 947 2416 947 1791 
Q 947 1169 1205 825 
Q 1463 481 1925 481 
Q 2391 481 2648 825 
Q 2906 1169 2906 1791 
z
M 3481 434 
Q 3481 -459 3084 -895 
Q 2688 -1331 1869 -1331 
Q 1566 -1331 1297 -1286 
Q 1028 -1241 775 -1147 
L 775 -588 
Q 1028 -725 1275 -790 
Q 1522 -856 1778 -856 
Q 2344 -856 2625 -561 
Q 2906 -266 2906 331 
L 2906 616 
Q 2728 306 2450 153 
Q 2172 0 1784 0 
Q 1141 0 747 490 
Q 353 981 353 1791 
Q 353 2603 747 3093 
Q 1141 3584 1784 3584 
Q 2172 3584 2450 3431 
Q 2728 3278 2906 2969 
L 2906 3500 
L 3481 3500 
L 3481 434 
z
" transform="scale(0.015625)"/>
       <path id="DejaVuSans-70" d="M 1159 525 
L 1159 -1331 
L 581 -1331 
L 581 3500 
L 1159 3500 
L 1159 2969 
Q 1341 3281 1617 3432 
Q 1894 3584 2278 3584 
Q 2916 3584 3314 3078 
Q 3713 2572 3713 1747 
Q 3713 922 3314 415 
Q 2916 -91 2278 -91 
Q 1894 -91 1617 61 
Q 1341 213 1159 525 
z
M 3116 1747 
Q 3116 2381 2855 2742 
Q 2594 3103 2138 3103 
Q 1681 3103 1420 2742 
Q 1159 2381 1159 1747 
Q 1159 1113 1420 752 
Q 1681 391 2138 391 
Q 2594 391 2855 752 
Q 3116 1113 3116 1747 
z
" transform="scale(0.015625)"/>
       <path id="DejaVuSans-74" d="M 1172 4494 
L 1172 3500 
L 2356 3500 
L 2356 3053 
L 1172 3053 
L 1172 1153 
Q 1172 725 1289 603 
Q 1406 481 1766 481 
L 2356 481 
L 2356 0 
L 1766 0 
Q 1100 0 847 248 
Q 594 497 594 1153 
L 594 3053 
L 172 3053 
L 172 3500 
L 594 3500 
L 594 4494 
L 1172 4494 
z
" transform="scale(0.015625)"/>
       <path id="DejaVuSans-4d" d="M 628 4666 
L 1569 4666 
L 2759 1491 
L 3956 4666 
L 4897 4666 
L 4897 0 
L 4281 0 
L 4281 4097 
L 3078 897 
L 2444 897 
L 1241 4097 
L 1241 0 
L 628 0 
L 628 4666 
z
" transform="scale(0.015625)"/>
       <path id="DejaVuSans-62" d="M 3116 1747 
Q 3116 2381 2855 2742 
Q 2594 3103 2138 3103 
Q 1681 3103 1420 2742 
Q 1159 2381 1159 1747 
Q 1159 1113 1420 752 
Q 1681 391 2138 391 
Q 2594 391 2855 752 
Q 3116 1113 3116 1747 
z
M 1159 2969 
Q 1341 3281 1617 3432 
Q 1894 3584 2278 3584 
Q 2916 3584 3314 3078 
Q 3713 2572 3713 1747 
Q 3713 922 3314 415 
Q 2916 -91 2278 -91 
Q 1894 -91 1617 61 
Q 1341 213 1159 525 
L 1159 0 
L 581 0 
L 581 4863 
L 1159 4863 
L 1159 2969 
z
" transform="scale(0.015625)"/>
      </defs>
      <use xlink:href="#DejaVuSans-54"/>
      <use xlink:href="#DejaVuSans-68" x="61.083984"/>
      <use xlink:href="#DejaVuSans-72" x="124.462891"/>
      <use xlink:href="#DejaVuSans-6f" x="163.326172"/>
      <use xlink:href="#DejaVuSans-75" x="224.507812"/>
      <use xlink:href="#DejaVuSans-67" x="287.886719"/>
      <use xlink:href="#DejaVuSans-68" x="351.363281"/>
      <use xlink:href="#DejaVuSans-70" x="414.742188"/>
      <use xlink:href="#DejaVuSans-75" x="478.21875"/>
      <use xlink:href="#DejaVuSans-74" x="541.597656"/>
      <use xlink:href="#DejaVuSans-20" x="580.806641"/>
      <use xlink:href="#DejaVuSans-28" x="612.59375"/>
      <use xlink:href="#DejaVuSans-4d" x="651.607422"/>
      <use xlink:href="#DejaVuSans-62" x="737.886719"/>
      <use xlink:href="#DejaVuSans-70" x="801.363281"/>
      <use xlink:href="#DejaVuSans-73" x="864.839844"/>
      <use xlink:href="#DejaVuSans-29" x="916.939453"/>
     </g>
    </g>
   </g>
   <g id="patch_3">
    <path d="M 86.885 331.64 
L 86.885 23.76 
" style="fill: none; stroke: #000000; stroke-width: 0.8; stroke-linejoin: miter; stroke-linecap: square"/>
   </g>
   <g id="patch_4">
    <path d="M 897.84 331.64 
L 897.84 23.76 
" style="fill: none; stroke: #000000; stroke-width: 0.8; stroke-linejoin: miter; stroke-linecap: square"/>
   </g>
   <g id="patch_5">
    <path d="M 86.885 331.64 
L 897.84 331.64 
" style="fill: none; stroke: #000000; stroke-width: 0.8; stroke-linejoin: miter; stroke-linecap: square"/>
   </g>
   <g id="patch_6">
    <path d="M 86.885 23.76 
L 897.84 23.76 
" style="fill: none; stroke: #000000; stroke-width: 0.8; stroke-linejoin: miter; stroke-linecap: square"/>
   </g>
   <g id="legend_1">
    <g id="patch_7">
     <path d="M 756.24 148.6425 
L 881.04 148.6425 
Q 885.84 148.6425 885.84 143.8425 
L 885.84 40.56 
Q 885.84 35.76 881.04 35.76 
L 756.24 35.76 
Q 751.44 35.76 751.44 40.56 
L 751.44 143.8425 
Q 751.44 148.6425 756.24 148.6425 
z
" style="fill: #ffffff; opacity: 0.8; stroke: #cccccc; stroke-linejoin: miter"/>
    </g>
    <g id="patch_8">
     <path d="M 761.04 63.59625 
L 809.04 63.59625 
L 809.04 46.79625 
L 761.04 46.79625 
z
" style="fill: #1f77b4"/>
    </g>
    <g id="text_16">
     <!-- UE1 -->
     <g transform="translate(828.24 63.59625)scale(0.24 -0.24)">
      <defs>
       <path id="DejaVuSans-55" d="M 556 4666 
L 1191 4666 
L 1191 1831 
Q 1191 1081 1462 751 
Q 1734 422 2344 422 
Q 2950 422 3222 751 
Q 3494 1081 3494 1831 
L 3494 4666 
L 4128 4666 
L 4128 1753 
Q 4128 841 3676 375 
Q 3225 -91 2344 -91 
Q 1459 -91 1007 375 
Q 556 841 556 1753 
L 556 4666 
z
" transform="scale(0.015625)"/>
       <path id="DejaVuSans-45" d="M 628 4666 
L 3578 4666 
L 3578 4134 
L 1259 4134 
L 1259 2753 
L 3481 2753 
L 3481 2222 
L 1259 2222 
L 1259 531 
L 3634 531 
L 3634 0 
L 628 0 
L 628 4666 
z
" transform="scale(0.015625)"/>
      </defs>
      <use xlink:href="#DejaVuSans-55"/>
      <use xlink:href="#DejaVuSans-45" x="73.193359"/>
      <use xlink:href="#DejaVuSans-31" x="136.376953"/>
     </g>
    </g>
    <g id="patch_9">
     <path d="M 761.04 98.82375 
L 809.04 98.82375 
L 809.04 82.02375 
L 761.04 82.02375 
z
" style="fill: #ff7f0e"/>
    </g>
    <g id="text_17">
     <!-- UE2 -->
     <g transform="translate(828.24 98.82375)scale(0.24 -0.24)">
      <use xlink:href="#DejaVuSans-55"/>
      <use xlink:href="#DejaVuSans-45" x="73.193359"/>
      <use xlink:href="#DejaVuSans-32" x="136.376953"/>
     </g>
    </g>
    <g id="patch_10">
     <path d="M 761.04 134.05125 
L 809.04 134.05125 
L 809.04 117.25125 
L 761.04 117.25125 
z
" style="fill: #2ca02c"/>
    </g>
    <g id="text_18">
     <!-- UE3 -->
     <g transform="translate(828.24 134.05125)scale(0.24 -0.24)">
      <defs>
       <path id="DejaVuSans-33" d="M 2597 2516 
Q 3050 2419 3304 2112 
Q 3559 1806 3559 1356 
Q 3559 666 3084 287 
Q 2609 -91 1734 -91 
Q 1441 -91 1130 -33 
Q 819 25 488 141 
L 488 750 
Q 750 597 1062 519 
Q 1375 441 1716 441 
Q 2309 441 2620 675 
Q 2931 909 2931 1356 
Q 2931 1769 2642 2001 
Q 2353 2234 1838 2234 
L 1294 2234 
L 1294 2753 
L 1863 2753 
Q 2328 2753 2575 2939 
Q 2822 3125 2822 3475 
Q 2822 3834 2567 4026 
Q 2313 4219 1838 4219 
Q 1578 4219 1281 4162 
Q 984 4106 628 3988 
L 628 4550 
Q 988 4650 1302 4700 
Q 1616 4750 1894 4750 
Q 2613 4750 3031 4423 
Q 3450 4097 3450 3541 
Q 3450 3153 3228 2886 
Q 3006 2619 2597 2516 
z
" transform="scale(0.015625)"/>
      </defs>
      <use xlink:href="#DejaVuSans-55"/>
      <use xlink:href="#DejaVuSans-45" x="73.193359"/>
      <use xlink:href="#DejaVuSans-33" x="136.376953"/>
     </g>
    </g>
   </g>
  </g>
 </g>
 <defs>
  <clipPath id="p64f204f127">
   <rect x="86.885" y="23.76" width="810.955" height="307.88"/>
  </clipPath>
 </defs>
</svg>
