<?xml version="1.0" encoding="utf-8" standalone="no"?>
<!DOCTYPE svg PUBLIC "-//W3C//DTD SVG 1.1//EN"
  "http://www.w3.org/Graphics/SVG/1.1/DTD/svg11.dtd">
<svg xmlns:xlink="http://www.w3.org/1999/xlink" width="921.6pt" height="410.4pt" viewBox="0 0 921.6 410.4" xmlns="http://www.w3.org/2000/svg" version="1.1">
 <metadata>
  <rdf:RDF xmlns:dc="http://purl.org/dc/elements/1.1/" xmlns:cc="http://creativecommons.org/ns#" xmlns:rdf="http://www.w3.org/1999/02/22-rdf-syntax-ns#">
   <cc:Work>
    <dc:type rdf:resource="http://purl.org/dc/dcmitype/StillImage"/>
    <dc:date>2023-04-11T15:20:41.048834</dc:date>
    <dc:format>image/svg+xml</dc:format>
    <dc:creator>
     <cc:Agent>
      <dc:title>Matplotlib v3.5.3, https://matplotlib.org/</dc:title>
     </cc:Agent>
    </dc:creator>
   </cc:Work>
  </rdf:RDF>
 </metadata>
 <defs>
  <style type="text/css">*{stroke-linejoin: round; stroke-linecap: butt}</style>
 </defs>
 <g id="figure_1">
  <g id="patch_1">
   <path d="M 0 410.4 
L 921.6 410.4 
L 921.6 0 
L 0 0 
L 0 410.4 
z
" style="fill: none"/>
  </g>
  <g id="axes_1">
   <g id="patch_2">
    <path d="M 101.01 331.64 
L 897.84 331.64 
L 897.84 23.76 
L 101.01 23.76 
z
" style="fill: #ffffff"/>
   </g>
   <g id="PolyCollection_1">
    <path d="M 137.229545 191.971089 
L 137.229545 331.64 
L 141.231705 331.64 
L 145.233865 331.64 
L 149.236025 331.64 
L 153.238184 331.64 
L 157.240344 331.64 
L 161.242504 331.64 
L 165.244663 331.64 
L 169.246823 331.64 
L 173.248983 331.64 
L 177.251143 331.64 
L 181.253302 331.64 
L 185.255462 331.64 
L 189.257622 331.64 
L 193.259782 331.64 
L 197.261941 331.64 
L 201.264101 331.64 
L 205.266261 331.64 
L 209.26842 331.64 
L 213.27058 331.64 
L 217.27274 331.64 
L 221.2749 331.64 
L 225.277059 331.64 
L 229.279219 331.64 
L 233.281379 331.64 
L 237.283538 331.64 
L 241.285698 331.64 
L 245.287858 331.64 
L 249.290018 331.64 
L 253.292177 331.64 
L 257.294337 331.64 
L 261.296497 331.64 
L 265.298656 331.64 
L 269.300816 331.64 
L 273.302976 331.64 
L 277.305136 331.64 
L 281.307295 331.64 
L 285.309455 331.64 
L 289.311615 331.64 
L 293.313774 331.64 
L 297.315934 331.64 
L 301.318094 331.64 
L 305.320254 331.64 
L 309.322413 331.64 
L 313.324573 331.64 
L 317.326733 331.64 
L 321.328893 331.64 
L 325.331052 331.64 
L 329.333212 331.64 
L 333.335372 331.64 
L 337.337531 331.64 
L 341.339691 331.64 
L 345.341851 331.64 
L 349.344011 331.64 
L 353.34617 331.64 
L 357.34833 331.64 
L 361.35049 331.64 
L 365.352649 331.64 
L 369.354809 331.64 
L 373.356969 331.64 
L 377.359129 331.64 
L 381.361288 331.64 
L 385.363448 331.64 
L 389.365608 331.64 
L 393.367767 331.64 
L 397.369927 331.64 
L 401.372087 331.64 
L 405.374247 331.64 
L 409.376406 331.64 
L 413.378566 331.64 
L 417.380726 331.64 
L 421.382885 331.64 
L 425.385045 331.64 
L 429.387205 331.64 
L 433.389365 331.64 
L 437.391524 331.64 
L 441.393684 331.64 
L 445.395844 331.64 
L 449.398004 331.64 
L 453.400163 331.64 
L 457.402323 331.64 
L 461.404483 331.64 
L 465.406642 331.64 
L 469.408802 331.64 
L 473.410962 331.64 
L 477.413122 331.64 
L 481.415281 331.64 
L 485.417441 331.64 
L 489.419601 331.64 
L 493.42176 331.64 
L 497.42392 331.64 
L 501.42608 331.64 
L 505.42824 331.64 
L 509.430399 331.64 
L 513.432559 331.64 
L 517.434719 331.64 
L 521.436878 331.64 
L 525.439038 331.64 
L 529.441198 331.64 
L 533.443358 331.64 
L 537.445517 331.64 
L 541.447677 331.64 
L 545.449837 331.64 
L 549.451996 331.64 
L 553.454156 331.64 
L 557.456316 331.64 
L 561.458476 331.64 
L 565.460635 331.64 
L 569.462795 331.64 
L 573.464955 331.64 
L 577.467115 331.64 
L 581.469274 331.64 
L 585.471434 331.64 
L 589.473594 331.64 
L 593.475753 331.64 
L 597.477913 331.64 
L 601.480073 331.64 
L 605.482233 331.64 
L 609.484392 331.64 
L 613.486552 331.64 
L 617.488712 331.64 
L 621.490871 331.64 
L 625.493031 331.64 
L 629.495191 331.64 
L 633.497351 331.64 
L 637.49951 331.64 
L 641.50167 331.64 
L 645.50383 331.64 
L 649.505989 331.64 
L 653.508149 331.64 
L 657.510309 331.64 
L 661.512469 331.64 
L 665.514628 331.64 
L 669.516788 331.64 
L 673.518948 331.64 
L 677.521107 331.64 
L 681.523267 331.64 
L 685.525427 331.64 
L 689.527587 331.64 
L 693.529746 331.64 
L 697.531906 331.64 
L 701.534066 331.64 
L 705.536226 331.64 
L 709.538385 331.64 
L 713.540545 331.64 
L 717.542705 331.64 
L 721.544864 331.64 
L 725.547024 331.64 
L 729.549184 331.64 
L 733.551344 331.64 
L 737.553503 331.64 
L 741.555663 331.64 
L 745.557823 331.64 
L 749.559982 331.64 
L 753.562142 331.64 
L 757.564302 331.64 
L 761.566462 331.64 
L 765.568621 331.64 
L 769.570781 331.64 
L 773.572941 331.64 
L 777.5751 331.64 
L 781.57726 331.64 
L 785.57942 331.64 
L 789.58158 331.64 
L 793.583739 331.64 
L 797.585899 331.64 
L 801.588059 331.64 
L 805.590218 331.64 
L 809.592378 331.64 
L 813.594538 331.64 
L 817.596698 331.64 
L 821.598857 331.64 
L 825.601017 331.64 
L 829.603177 331.64 
L 833.605337 331.64 
L 837.607496 331.64 
L 841.609656 331.64 
L 845.611816 331.64 
L 849.613975 331.64 
L 853.616135 331.64 
L 857.618295 331.64 
L 861.620455 331.64 
L 861.620455 185.270423 
L 861.620455 185.270423 
L 857.618295 185.072546 
L 853.616135 185.228391 
L 849.613975 185.166235 
L 845.611816 185.493532 
L 841.609656 185.554682 
L 837.607496 185.165371 
L 833.605337 185.104789 
L 829.603177 185.114294 
L 825.601017 185.064278 
L 821.598857 185.064026 
L 817.596698 185.265982 
L 813.594538 185.619747 
L 809.592378 185.532359 
L 805.590218 185.276755 
L 801.588059 185.253033 
L 797.585899 185.585918 
L 793.583739 185.152279 
L 789.58158 185.263871 
L 785.57942 185.2921 
L 781.57726 185.467927 
L 777.5751 185.749802 
L 773.572941 185.15358 
L 769.570781 185.129956 
L 765.568621 185.337074 
L 761.566462 185.310584 
L 757.564302 185.389398 
L 753.562142 185.140138 
L 749.559982 185.404787 
L 745.557823 185.521596 
L 741.555663 185.241406 
L 737.553503 185.340574 
L 733.551344 185.182137 
L 729.549184 185.168302 
L 725.547024 185.208452 
L 721.544864 185.308823 
L 717.542705 185.528224 
L 713.540545 185.19477 
L 709.538385 185.146865 
L 705.536226 185.077501 
L 701.534066 185.375387 
L 697.531906 187.306433 
L 693.529746 185.433672 
L 689.527587 185.185298 
L 685.525427 186.65826 
L 681.523267 185.63203 
L 677.521107 185.738077 
L 673.518948 185.094618 
L 669.516788 185.388698 
L 665.514628 185.56633 
L 661.512469 185.738066 
L 657.510309 185.154072 
L 653.508149 185.631188 
L 649.505989 185.273945 
L 645.50383 185.359069 
L 641.50167 185.343855 
L 637.49951 185.580997 
L 633.497351 187.324961 
L 629.495191 186.222214 
L 625.493031 185.160339 
L 621.490871 188.251094 
L 617.488712 186.201936 
L 613.486552 186.354216 
L 609.484392 186.020302 
L 605.482233 188.367991 
L 601.480073 193.684331 
L 597.477913 188.607341 
L 593.475753 194.329846 
L 589.473594 186.36512 
L 585.471434 188.214344 
L 581.469274 186.030156 
L 577.467115 186.357694 
L 573.464955 185.122726 
L 569.462795 185.460589 
L 565.460635 185.334274 
L 561.458476 185.180934 
L 557.456316 185.460512 
L 553.454156 185.544455 
L 549.451996 185.362722 
L 545.449837 185.153591 
L 541.447677 185.293303 
L 537.445517 185.177719 
L 533.443358 185.328565 
L 529.441198 185.144305 
L 525.439038 185.587526 
L 521.436878 185.592054 
L 517.434719 186.047306 
L 513.432559 185.605474 
L 509.430399 186.956103 
L 505.42824 187.03682 
L 501.42608 186.517574 
L 497.42392 185.584114 
L 493.42176 185.610429 
L 489.419601 185.635967 
L 485.417441 185.124717 
L 481.415281 185.382683 
L 477.413122 185.180081 
L 473.410962 185.17563 
L 469.408802 185.320789 
L 465.406642 190.764985 
L 461.404483 189.020889 
L 457.402323 185.558422 
L 453.400163 185.30785 
L 449.398004 185.203662 
L 445.395844 184.961205 
L 441.393684 185.101114 
L 437.391524 185.150223 
L 433.389365 185.253612 
L 429.387205 186.621915 
L 425.385045 186.046135 
L 421.382885 190.486118 
L 417.380726 194.576962 
L 413.378566 188.488946 
L 409.376406 185.754352 
L 405.374247 188.846834 
L 401.372087 185.346141 
L 397.369927 185.226739 
L 393.367767 185.581172 
L 389.365608 185.181186 
L 385.363448 185.19465 
L 381.361288 185.058328 
L 377.359129 185.444358 
L 373.356969 184.820465 
L 369.354809 185.332032 
L 365.352649 185.329035 
L 361.35049 185.350221 
L 357.34833 185.184303 
L 353.34617 185.289355 
L 349.344011 185.335357 
L 345.341851 185.277477 
L 341.339691 185.16315 
L 337.337531 185.206363 
L 333.335372 185.637378 
L 329.333212 185.453578 
L 325.331052 186.00966 
L 321.328893 185.157015 
L 317.326733 185.458084 
L 313.324573 185.154215 
L 309.322413 185.385231 
L 305.320254 185.065011 
L 301.318094 185.293621 
L 297.315934 185.238366 
L 293.313774 185.259529 
L 289.311615 185.285779 
L 285.309455 185.320833 
L 281.307295 185.310552 
L 277.305136 185.049097 
L 273.302976 185.586148 
L 269.300816 185.446786 
L 265.298656 185.197734 
L 261.296497 185.199549 
L 257.294337 185.111888 
L 253.292177 185.263117 
L 249.290018 185.040139 
L 245.287858 185.745405 
L 241.285698 185.070271 
L 237.283538 185.301594 
L 233.281379 185.583884 
L 229.279219 185.339634 
L 225.277059 185.687624 
L 221.2749 185.262646 
L 217.27274 185.276952 
L 213.27058 187.334728 
L 209.26842 185.450122 
L 205.266261 185.270992 
L 201.264101 185.463728 
L 197.261941 185.29338 
L 193.259782 185.317026 
L 189.257622 185.22184 
L 185.255462 185.05485 
L 181.253302 185.0475 
L 177.251143 184.978924 
L 173.248983 185.565006 
L 169.246823 185.526824 
L 165.244663 185.330381 
L 161.242504 185.327406 
L 157.240344 185.276066 
L 153.238184 185.38405 
L 149.236025 185.220013 
L 145.233865 185.567358 
L 141.231705 190.0588 
L 137.229545 191.971089 
z
" clip-path="url(#pb986c89ef4)" style="fill: #1f77b4"/>
   </g>
   <g id="PolyCollection_2">
    <path d="M 137.229545 45.456692 
L 137.229545 191.971089 
L 141.231705 190.0588 
L 145.233865 185.567358 
L 149.236025 185.220013 
L 153.238184 185.38405 
L 157.240344 185.276066 
L 161.242504 185.327406 
L 165.244663 185.330381 
L 169.246823 185.526824 
L 173.248983 185.565006 
L 177.251143 184.978924 
L 181.253302 185.0475 
L 185.255462 185.05485 
L 189.257622 185.22184 
L 193.259782 185.317026 
L 197.261941 185.29338 
L 201.264101 185.463728 
L 205.266261 185.270992 
L 209.26842 185.450122 
L 213.27058 187.334728 
L 217.27274 185.276952 
L 221.2749 185.262646 
L 225.277059 185.687624 
L 229.279219 185.339634 
L 233.281379 185.583884 
L 237.283538 185.301594 
L 241.285698 185.070271 
L 245.287858 185.745405 
L 249.290018 185.040139 
L 253.292177 185.263117 
L 257.294337 185.111888 
L 261.296497 185.199549 
L 265.298656 185.197734 
L 269.300816 185.446786 
L 273.302976 185.586148 
L 277.305136 185.049097 
L 281.307295 185.310552 
L 285.309455 185.320833 
L 289.311615 185.285779 
L 293.313774 185.259529 
L 297.315934 185.238366 
L 301.318094 185.293621 
L 305.320254 185.065011 
L 309.322413 185.385231 
L 313.324573 185.154215 
L 317.326733 185.458084 
L 321.328893 185.157015 
L 325.331052 186.00966 
L 329.333212 185.453578 
L 333.335372 185.637378 
L 337.337531 185.206363 
L 341.339691 185.16315 
L 345.341851 185.277477 
L 349.344011 185.335357 
L 353.34617 185.289355 
L 357.34833 185.184303 
L 361.35049 185.350221 
L 365.352649 185.329035 
L 369.354809 185.332032 
L 373.356969 184.820465 
L 377.359129 185.444358 
L 381.361288 185.058328 
L 385.363448 185.19465 
L 389.365608 185.181186 
L 393.367767 185.581172 
L 397.369927 185.226739 
L 401.372087 185.346141 
L 405.374247 188.846834 
L 409.376406 185.754352 
L 413.378566 188.488946 
L 417.380726 194.576962 
L 421.382885 190.486118 
L 425.385045 186.046135 
L 429.387205 186.621915 
L 433.389365 185.253612 
L 437.391524 185.150223 
L 441.393684 185.101114 
L 445.395844 184.961205 
L 449.398004 185.203662 
L 453.400163 185.30785 
L 457.402323 185.558422 
L 461.404483 189.020889 
L 465.406642 190.764985 
L 469.408802 185.320789 
L 473.410962 185.17563 
L 477.413122 185.180081 
L 481.415281 185.382683 
L 485.417441 185.124717 
L 489.419601 185.635967 
L 493.42176 185.610429 
L 497.42392 185.584114 
L 501.42608 186.517574 
L 505.42824 187.03682 
L 509.430399 186.956103 
L 513.432559 185.605474 
L 517.434719 186.047306 
L 521.436878 185.592054 
L 525.439038 185.587526 
L 529.441198 185.144305 
L 533.443358 185.328565 
L 537.445517 185.177719 
L 541.447677 185.293303 
L 545.449837 185.153591 
L 549.451996 185.362722 
L 553.454156 185.544455 
L 557.456316 185.460512 
L 561.458476 185.180934 
L 565.460635 185.334274 
L 569.462795 185.460589 
L 573.464955 185.122726 
L 577.467115 186.357694 
L 581.469274 186.030156 
L 585.471434 188.214344 
L 589.473594 186.36512 
L 593.475753 194.329846 
L 597.477913 188.607341 
L 601.480073 193.684331 
L 605.482233 188.367991 
L 609.484392 186.020302 
L 613.486552 186.354216 
L 617.488712 186.201936 
L 621.490871 188.251094 
L 625.493031 185.160339 
L 629.495191 186.222214 
L 633.497351 187.324961 
L 637.49951 185.580997 
L 641.50167 185.343855 
L 645.50383 185.359069 
L 649.505989 185.273945 
L 653.508149 185.631188 
L 657.510309 185.154072 
L 661.512469 185.738066 
L 665.514628 185.56633 
L 669.516788 185.388698 
L 673.518948 185.094618 
L 677.521107 185.738077 
L 681.523267 185.63203 
L 685.525427 186.65826 
L 689.527587 185.185298 
L 693.529746 185.433672 
L 697.531906 187.306433 
L 701.534066 185.375387 
L 705.536226 185.077501 
L 709.538385 185.146865 
L 713.540545 185.19477 
L 717.542705 185.528224 
L 721.544864 185.308823 
L 725.547024 185.208452 
L 729.549184 185.168302 
L 733.551344 185.182137 
L 737.553503 185.340574 
L 741.555663 185.241406 
L 745.557823 185.521596 
L 749.559982 185.404787 
L 753.562142 185.140138 
L 757.564302 185.389398 
L 761.566462 185.310584 
L 765.568621 185.337074 
L 769.570781 185.129956 
L 773.572941 185.15358 
L 777.5751 185.749802 
L 781.57726 185.467927 
L 785.57942 185.2921 
L 789.58158 185.263871 
L 793.583739 185.152279 
L 797.585899 185.585918 
L 801.588059 185.253033 
L 805.590218 185.276755 
L 809.592378 185.532359 
L 813.594538 185.619747 
L 817.596698 185.265982 
L 821.598857 185.064026 
L 825.601017 185.064278 
L 829.603177 185.114294 
L 833.605337 185.104789 
L 837.607496 185.165371 
L 841.609656 185.554682 
L 845.611816 185.493532 
L 849.613975 185.166235 
L 853.616135 185.228391 
L 857.618295 185.072546 
L 861.620455 185.270423 
L 861.620455 38.741862 
L 861.620455 38.741862 
L 857.618295 39.173445 
L 853.616135 38.597742 
L 849.613975 38.710417 
L 845.611816 39.029577 
L 841.609656 39.453679 
L 837.607496 38.544182 
L 833.605337 38.532731 
L 829.603177 38.459845 
L 825.601017 38.760991 
L 821.598857 38.44986 
L 817.596698 39.046628 
L 813.594538 39.227114 
L 809.592378 39.179789 
L 805.590218 38.781859 
L 801.588059 38.811127 
L 797.585899 39.505992 
L 793.583739 38.965353 
L 789.58158 38.844366 
L 785.57942 39.050904 
L 781.57726 39.148858 
L 777.5751 39.370611 
L 773.572941 38.95901 
L 769.570781 38.544478 
L 765.568621 38.897247 
L 761.566462 38.92389 
L 757.564302 38.789833 
L 753.562142 38.621312 
L 749.559982 39.177405 
L 745.557823 39.068502 
L 741.555663 38.754757 
L 737.553503 39.029205 
L 733.551344 38.708153 
L 729.549184 38.90521 
L 725.547024 38.738395 
L 721.544864 38.976159 
L 717.542705 39.167889 
L 713.540545 38.658673 
L 709.538385 38.649563 
L 705.536226 38.525534 
L 701.534066 38.860925 
L 697.531906 41.189309 
L 693.529746 40.257861 
L 689.527587 38.697511 
L 685.525427 41.011295 
L 681.523267 39.401859 
L 677.521107 39.745966 
L 673.518948 38.643317 
L 669.516788 39.024185 
L 665.514628 39.593184 
L 661.512469 39.881369 
L 657.510309 38.518261 
L 653.508149 39.488131 
L 649.505989 38.603079 
L 645.50383 38.942899 
L 641.50167 39.084854 
L 637.49951 39.644742 
L 633.497351 41.839845 
L 629.495191 41.709135 
L 625.493031 38.83882 
L 621.490871 44.380106 
L 617.488712 40.535995 
L 613.486552 40.463143 
L 609.484392 40.284844 
L 605.482233 43.790666 
L 601.480073 53.695155 
L 597.477913 43.009638 
L 593.475753 52.681262 
L 589.473594 41.586517 
L 585.471434 43.677848 
L 581.469274 40.592202 
L 577.467115 40.894015 
L 573.464955 38.680931 
L 569.462795 39.504811 
L 565.460635 38.836556 
L 561.458476 38.780295 
L 557.456316 39.104388 
L 553.454156 38.987939 
L 549.451996 39.036905 
L 545.449837 38.608996 
L 541.447677 39.005198 
L 537.445517 38.974869 
L 533.443358 38.884123 
L 529.441198 38.635421 
L 525.439038 39.462899 
L 521.436878 39.14526 
L 517.434719 40.195005 
L 513.432559 39.396631 
L 509.430399 41.229209 
L 505.42824 44.099577 
L 501.42608 39.837697 
L 497.42392 39.396652 
L 493.42176 39.500534 
L 489.419601 39.126043 
L 485.417441 38.778174 
L 481.415281 39.041017 
L 477.413122 38.495544 
L 473.410962 38.986276 
L 469.408802 38.928123 
L 465.406642 48.228078 
L 461.404483 45.887498 
L 457.402323 39.132518 
L 453.400163 39.065199 
L 449.398004 38.7639 
L 445.395844 38.438354 
L 441.393684 38.619398 
L 437.391524 38.482442 
L 433.389365 38.662862 
L 429.387205 41.319288 
L 425.385045 39.78744 
L 421.382885 47.518405 
L 417.380726 53.627027 
L 413.378566 45.923679 
L 409.376406 40.28679 
L 405.374247 45.43695 
L 401.372087 39.115423 
L 397.369927 38.647649 
L 393.367767 38.870309 
L 389.365608 39.035155 
L 385.363448 38.574424 
L 381.361288 38.371133 
L 377.359129 39.411483 
L 373.356969 38.160985 
L 369.354809 38.999062 
L 365.352649 38.622996 
L 361.35049 38.861111 
L 357.34833 38.778469 
L 353.34617 38.86566 
L 349.344011 39.16171 
L 345.341851 38.906424 
L 341.339691 38.774477 
L 337.337531 38.643974 
L 333.335372 39.307973 
L 329.333212 39.300131 
L 325.331052 40.18899 
L 321.328893 38.587078 
L 317.326733 39.168031 
L 313.324573 38.923267 
L 309.322413 38.959983 
L 305.320254 38.494177 
L 301.318094 38.809027 
L 297.315934 38.591344 
L 293.313774 39.049975 
L 289.311615 38.543253 
L 285.309455 38.851781 
L 281.307295 39.286547 
L 277.305136 38.294518 
L 273.302976 39.60178 
L 269.300816 38.990739 
L 265.298656 38.521203 
L 261.296497 38.616171 
L 257.294337 38.617035 
L 253.292177 38.895968 
L 249.290018 38.567883 
L 245.287858 39.821706 
L 241.285698 38.443013 
L 237.283538 38.753346 
L 233.281379 39.34796 
L 229.279219 38.784309 
L 225.277059 39.486119 
L 221.2749 38.831372 
L 217.27274 39.08446 
L 213.27058 41.139818 
L 209.26842 40.845672 
L 205.266261 39.074299 
L 201.264101 38.972681 
L 197.261941 38.760991 
L 193.259782 39.037944 
L 189.257622 38.675134 
L 185.255462 38.755347 
L 181.253302 38.445769 
L 177.251143 38.310705 
L 173.248983 38.978872 
L 169.246823 39.352553 
L 165.244663 38.96146 
L 161.242504 38.677693 
L 157.240344 38.900474 
L 153.238184 39.320157 
L 149.236025 38.735267 
L 145.233865 39.531727 
L 141.231705 47.420516 
L 137.229545 45.456692 
z
" clip-path="url(#pb986c89ef4)" style="fill: #ff7f0e"/>
   </g>
   <g id="matplotlib.axis_1">
    <g id="xtick_1">
     <g id="line2d_1">
      <path d="M 137.229545 331.64 
L 137.229545 23.76 
" clip-path="url(#pb986c89ef4)" style="fill: none; stroke-dasharray: 5.12,1.28,0.8,1.28; stroke-dashoffset: 0; stroke: #b0b0b0; stroke-width: 0.8"/>
     </g>
     <g id="line2d_2">
      <defs>
       <path id="med790044ba" d="M 0 0 
L 0 3.5 
" style="stroke: #000000; stroke-width: 0.8"/>
      </defs>
      <g>
       <use xlink:href="#med790044ba" x="137.229545" y="331.64" style="stroke: #000000; stroke-width: 0.8"/>
      </g>
     </g>
     <g id="text_1">
      <!-- 0 -->
      <g transform="translate(130.230795 355.356563)scale(0.22 -0.22)">
       <defs>
        <path id="DejaVuSans-30" d="M 2034 4250 
Q 1547 4250 1301 3770 
Q 1056 3291 1056 2328 
Q 1056 1369 1301 889 
Q 1547 409 2034 409 
Q 2525 409 2770 889 
Q 3016 1369 3016 2328 
Q 3016 3291 2770 3770 
Q 2525 4250 2034 4250 
z
M 2034 4750 
Q 2819 4750 3233 4129 
Q 3647 3509 3647 2328 
Q 3647 1150 3233 529 
Q 2819 -91 2034 -91 
Q 1250 -91 836 529 
Q 422 1150 422 2328 
Q 422 3509 836 4129 
Q 1250 4750 2034 4750 
z
" transform="scale(0.015625)"/>
       </defs>
       <use xlink:href="#DejaVuSans-30"/>
      </g>
     </g>
    </g>
    <g id="xtick_2">
     <g id="line2d_3">
      <path d="M 237.283538 331.64 
L 237.283538 23.76 
" clip-path="url(#pb986c89ef4)" style="fill: none; stroke-dasharray: 5.12,1.28,0.8,1.28; stroke-dashoffset: 0; stroke: #b0b0b0; stroke-width: 0.8"/>
     </g>
     <g id="line2d_4">
      <g>
       <use xlink:href="#med790044ba" x="237.283538" y="331.64" style="stroke: #000000; stroke-width: 0.8"/>
      </g>
     </g>
     <g id="text_2">
      <!-- 25 -->
      <g transform="translate(223.286038 355.356563)scale(0.22 -0.22)">
       <defs>
        <path id="DejaVuSans-32" d="M 1228 531 
L 3431 531 
L 3431 0 
L 469 0 
L 469 531 
Q 828 903 1448 1529 
Q 2069 2156 2228 2338 
Q 2531 2678 2651 2914 
Q 2772 3150 2772 3378 
Q 2772 3750 2511 3984 
Q 2250 4219 1831 4219 
Q 1534 4219 1204 4116 
Q 875 4013 500 3803 
L 500 4441 
Q 881 4594 1212 4672 
Q 1544 4750 1819 4750 
Q 2544 4750 2975 4387 
Q 3406 4025 3406 3419 
Q 3406 3131 3298 2873 
Q 3191 2616 2906 2266 
Q 2828 2175 2409 1742 
Q 1991 1309 1228 531 
z
" transform="scale(0.015625)"/>
        <path id="DejaVuSans-35" d="M 691 4666 
L 3169 4666 
L 3169 4134 
L 1269 4134 
L 1269 2991 
Q 1406 3038 1543 3061 
Q 1681 3084 1819 3084 
Q 2600 3084 3056 2656 
Q 3513 2228 3513 1497 
Q 3513 744 3044 326 
Q 2575 -91 1722 -91 
Q 1428 -91 1123 -41 
Q 819 9 494 109 
L 494 744 
Q 775 591 1075 516 
Q 1375 441 1709 441 
Q 2250 441 2565 725 
Q 2881 1009 2881 1497 
Q 2881 1984 2565 2268 
Q 2250 2553 1709 2553 
Q 1456 2553 1204 2497 
Q 953 2441 691 2322 
L 691 4666 
z
" transform="scale(0.015625)"/>
       </defs>
       <use xlink:href="#DejaVuSans-32"/>
       <use xlink:href="#DejaVuSans-35" x="63.623047"/>
      </g>
     </g>
    </g>
    <g id="xtick_3">
     <g id="line2d_5">
      <path d="M 337.337531 331.64 
L 337.337531 23.76 
" clip-path="url(#pb986c89ef4)" style="fill: none; stroke-dasharray: 5.12,1.28,0.8,1.28; stroke-dashoffset: 0; stroke: #b0b0b0; stroke-width: 0.8"/>
     </g>
     <g id="line2d_6">
      <g>
       <use xlink:href="#med790044ba" x="337.337531" y="331.64" style="stroke: #000000; stroke-width: 0.8"/>
      </g>
     </g>
     <g id="text_3">
      <!-- 50 -->
      <g transform="translate(323.340031 355.356563)scale(0.22 -0.22)">
       <use xlink:href="#DejaVuSans-35"/>
       <use xlink:href="#DejaVuSans-30" x="63.623047"/>
      </g>
     </g>
    </g>
    <g id="xtick_4">
     <g id="line2d_7">
      <path d="M 437.391524 331.64 
L 437.391524 23.76 
" clip-path="url(#pb986c89ef4)" style="fill: none; stroke-dasharray: 5.12,1.28,0.8,1.28; stroke-dashoffset: 0; stroke: #b0b0b0; stroke-width: 0.8"/>
     </g>
     <g id="line2d_8">
      <g>
       <use xlink:href="#med790044ba" x="437.391524" y="331.64" style="stroke: #000000; stroke-width: 0.8"/>
      </g>
     </g>
     <g id="text_4">
      <!-- 75 -->
      <g transform="translate(423.394024 355.356563)scale(0.22 -0.22)">
       <defs>
        <path id="DejaVuSans-37" d="M 525 4666 
L 3525 4666 
L 3525 4397 
L 1831 0 
L 1172 0 
L 2766 4134 
L 525 4134 
L 525 4666 
z
" transform="scale(0.015625)"/>
       </defs>
       <use xlink:href="#DejaVuSans-37"/>
       <use xlink:href="#DejaVuSans-35" x="63.623047"/>
      </g>
     </g>
    </g>
    <g id="xtick_5">
     <g id="line2d_9">
      <path d="M 537.445517 331.64 
L 537.445517 23.76 
" clip-path="url(#pb986c89ef4)" style="fill: none; stroke-dasharray: 5.12,1.28,0.8,1.28; stroke-dashoffset: 0; stroke: #b0b0b0; stroke-width: 0.8"/>
     </g>
     <g id="line2d_10">
      <g>
       <use xlink:href="#med790044ba" x="537.445517" y="331.64" style="stroke: #000000; stroke-width: 0.8"/>
      </g>
     </g>
     <g id="text_5">
      <!-- 100 -->
      <g transform="translate(516.449267 355.356563)scale(0.22 -0.22)">
       <defs>
        <path id="DejaVuSans-31" d="M 794 531 
L 1825 531 
L 1825 4091 
L 703 3866 
L 703 4441 
L 1819 4666 
L 2450 4666 
L 2450 531 
L 3481 531 
L 3481 0 
L 794 0 
L 794 531 
z
" transform="scale(0.015625)"/>
       </defs>
       <use xlink:href="#DejaVuSans-31"/>
       <use xlink:href="#DejaVuSans-30" x="63.623047"/>
       <use xlink:href="#DejaVuSans-30" x="127.246094"/>
      </g>
     </g>
    </g>
    <g id="xtick_6">
     <g id="line2d_11">
      <path d="M 637.49951 331.64 
L 637.49951 23.76 
" clip-path="url(#pb986c89ef4)" style="fill: none; stroke-dasharray: 5.12,1.28,0.8,1.28; stroke-dashoffset: 0; stroke: #b0b0b0; stroke-width: 0.8"/>
     </g>
     <g id="line2d_12">
      <g>
       <use xlink:href="#med790044ba" x="637.49951" y="331.64" style="stroke: #000000; stroke-width: 0.8"/>
      </g>
     </g>
     <g id="text_6">
      <!-- 125 -->
      <g transform="translate(616.50326 355.356563)scale(0.22 -0.22)">
       <use xlink:href="#DejaVuSans-31"/>
       <use xlink:href="#DejaVuSans-32" x="63.623047"/>
       <use xlink:href="#DejaVuSans-35" x="127.246094"/>
      </g>
     </g>
    </g>
    <g id="xtick_7">
     <g id="line2d_13">
      <path d="M 737.553503 331.64 
L 737.553503 23.76 
" clip-path="url(#pb986c89ef4)" style="fill: none; stroke-dasharray: 5.12,1.28,0.8,1.28; stroke-dashoffset: 0; stroke: #b0b0b0; stroke-width: 0.8"/>
     </g>
     <g id="line2d_14">
      <g>
       <use xlink:href="#med790044ba" x="737.553503" y="331.64" style="stroke: #000000; stroke-width: 0.8"/>
      </g>
     </g>
     <g id="text_7">
      <!-- 150 -->
      <g transform="translate(716.557253 355.356563)scale(0.22 -0.22)">
       <use xlink:href="#DejaVuSans-31"/>
       <use xlink:href="#DejaVuSans-35" x="63.623047"/>
       <use xlink:href="#DejaVuSans-30" x="127.246094"/>
      </g>
     </g>
    </g>
    <g id="xtick_8">
     <g id="line2d_15">
      <path d="M 837.607496 331.64 
L 837.607496 23.76 
" clip-path="url(#pb986c89ef4)" style="fill: none; stroke-dasharray: 5.12,1.28,0.8,1.28; stroke-dashoffset: 0; stroke: #b0b0b0; stroke-width: 0.8"/>
     </g>
     <g id="line2d_16">
      <g>
       <use xlink:href="#med790044ba" x="837.607496" y="331.64" style="stroke: #000000; stroke-width: 0.8"/>
      </g>
     </g>
     <g id="text_8">
      <!-- 175 -->
      <g transform="translate(816.611246 355.356563)scale(0.22 -0.22)">
       <use xlink:href="#DejaVuSans-31"/>
       <use xlink:href="#DejaVuSans-37" x="63.623047"/>
       <use xlink:href="#DejaVuSans-35" x="127.246094"/>
      </g>
     </g>
    </g>
    <g id="text_9">
     <!-- Time (s) -->
     <g transform="translate(450.635625 382.168125)scale(0.24 -0.24)">
      <defs>
       <path id="DejaVuSans-54" d="M -19 4666 
L 3928 4666 
L 3928 4134 
L 2272 4134 
L 2272 0 
L 1638 0 
L 1638 4134 
L -19 4134 
L -19 4666 
z
" transform="scale(0.015625)"/>
       <path id="DejaVuSans-69" d="M 603 3500 
L 1178 3500 
L 1178 0 
L 603 0 
L 603 3500 
z
M 603 4863 
L 1178 4863 
L 1178 4134 
L 603 4134 
L 603 4863 
z
" transform="scale(0.015625)"/>
       <path id="DejaVuSans-6d" d="M 3328 2828 
Q 3544 3216 3844 3400 
Q 4144 3584 4550 3584 
Q 5097 3584 5394 3201 
Q 5691 2819 5691 2113 
L 5691 0 
L 5113 0 
L 5113 2094 
Q 5113 2597 4934 2840 
Q 4756 3084 4391 3084 
Q 3944 3084 3684 2787 
Q 3425 2491 3425 1978 
L 3425 0 
L 2847 0 
L 2847 2094 
Q 2847 2600 2669 2842 
Q 2491 3084 2119 3084 
Q 1678 3084 1418 2786 
Q 1159 2488 1159 1978 
L 1159 0 
L 581 0 
L 581 3500 
L 1159 3500 
L 1159 2956 
Q 1356 3278 1631 3431 
Q 1906 3584 2284 3584 
Q 2666 3584 2933 3390 
Q 3200 3197 3328 2828 
z
" transform="scale(0.015625)"/>
       <path id="DejaVuSans-65" d="M 3597 1894 
L 3597 1613 
L 953 1613 
Q 991 1019 1311 708 
Q 1631 397 2203 397 
Q 2534 397 2845 478 
Q 3156 559 3463 722 
L 3463 178 
Q 3153 47 2828 -22 
Q 2503 -91 2169 -91 
Q 1331 -91 842 396 
Q 353 884 353 1716 
Q 353 2575 817 3079 
Q 1281 3584 2069 3584 
Q 2775 3584 3186 3129 
Q 3597 2675 3597 1894 
z
M 3022 2063 
Q 3016 2534 2758 2815 
Q 2500 3097 2075 3097 
Q 1594 3097 1305 2825 
Q 1016 2553 972 2059 
L 3022 2063 
z
" transform="scale(0.015625)"/>
       <path id="DejaVuSans-20" transform="scale(0.015625)"/>
       <path id="DejaVuSans-28" d="M 1984 4856 
Q 1566 4138 1362 3434 
Q 1159 2731 1159 2009 
Q 1159 1288 1364 580 
Q 1569 -128 1984 -844 
L 1484 -844 
Q 1016 -109 783 600 
Q 550 1309 550 2009 
Q 550 2706 781 3412 
Q 1013 4119 1484 4856 
L 1984 4856 
z
" transform="scale(0.015625)"/>
       <path id="DejaVuSans-73" d="M 2834 3397 
L 2834 2853 
Q 2591 2978 2328 3040 
Q 2066 3103 1784 3103 
Q 1356 3103 1142 2972 
Q 928 2841 928 2578 
Q 928 2378 1081 2264 
Q 1234 2150 1697 2047 
L 1894 2003 
Q 2506 1872 2764 1633 
Q 3022 1394 3022 966 
Q 3022 478 2636 193 
Q 2250 -91 1575 -91 
Q 1294 -91 989 -36 
Q 684 19 347 128 
L 347 722 
Q 666 556 975 473 
Q 1284 391 1588 391 
Q 1994 391 2212 530 
Q 2431 669 2431 922 
Q 2431 1156 2273 1281 
Q 2116 1406 1581 1522 
L 1381 1569 
Q 847 1681 609 1914 
Q 372 2147 372 2553 
Q 372 3047 722 3315 
Q 1072 3584 1716 3584 
Q 2034 3584 2315 3537 
Q 2597 3491 2834 3397 
z
" transform="scale(0.015625)"/>
       <path id="DejaVuSans-29" d="M 513 4856 
L 1013 4856 
Q 1481 4119 1714 3412 
Q 1947 2706 1947 2009 
Q 1947 1309 1714 600 
Q 1481 -109 1013 -844 
L 513 -844 
Q 928 -128 1133 580 
Q 1338 1288 1338 2009 
Q 1338 2731 1133 3434 
Q 928 4138 513 4856 
z
" transform="scale(0.015625)"/>
      </defs>
      <use xlink:href="#DejaVuSans-54"/>
      <use xlink:href="#DejaVuSans-69" x="57.958984"/>
      <use xlink:href="#DejaVuSans-6d" x="85.742188"/>
      <use xlink:href="#DejaVuSans-65" x="183.154297"/>
      <use xlink:href="#DejaVuSans-20" x="244.677734"/>
      <use xlink:href="#DejaVuSans-28" x="276.464844"/>
      <use xlink:href="#DejaVuSans-73" x="315.478516"/>
      <use xlink:href="#DejaVuSans-29" x="367.578125"/>
     </g>
    </g>
   </g>
   <g id="matplotlib.axis_2">
    <g id="ytick_1">
     <g id="line2d_17">
      <path d="M 101.01 331.64 
L 897.84 331.64 
" clip-path="url(#pb986c89ef4)" style="fill: none; stroke-dasharray: 5.12,1.28,0.8,1.28; stroke-dashoffset: 0; stroke: #b0b0b0; stroke-width: 0.8"/>
     </g>
     <g id="line2d_18">
      <defs>
       <path id="m3169292329" d="M 0 0 
L -3.5 0 
" style="stroke: #000000; stroke-width: 0.8"/>
      </defs>
      <g>
       <use xlink:href="#m3169292329" x="101.01" y="331.64" style="stroke: #000000; stroke-width: 0.8"/>
      </g>
     </g>
     <g id="text_10">
      <!-- 0 -->
      <g transform="translate(80.0125 339.998281)scale(0.22 -0.22)">
       <use xlink:href="#DejaVuSans-30"/>
      </g>
     </g>
    </g>
    <g id="ytick_2">
     <g id="line2d_19">
      <path d="M 101.01 263.282263 
L 897.84 263.282263 
" clip-path="url(#pb986c89ef4)" style="fill: none; stroke-dasharray: 5.12,1.28,0.8,1.28; stroke-dashoffset: 0; stroke: #b0b0b0; stroke-width: 0.8"/>
     </g>
     <g id="line2d_20">
      <g>
       <use xlink:href="#m3169292329" x="101.01" y="263.282263" style="stroke: #000000; stroke-width: 0.8"/>
      </g>
     </g>
     <g id="text_11">
      <!-- 50 -->
      <g transform="translate(66.015 271.640544)scale(0.22 -0.22)">
       <use xlink:href="#DejaVuSans-35"/>
       <use xlink:href="#DejaVuSans-30" x="63.623047"/>
      </g>
     </g>
    </g>
    <g id="ytick_3">
     <g id="line2d_21">
      <path d="M 101.01 194.924526 
L 897.84 194.924526 
" clip-path="url(#pb986c89ef4)" style="fill: none; stroke-dasharray: 5.12,1.28,0.8,1.28; stroke-dashoffset: 0; stroke: #b0b0b0; stroke-width: 0.8"/>
     </g>
     <g id="line2d_22">
      <g>
       <use xlink:href="#m3169292329" x="101.01" y="194.924526" style="stroke: #000000; stroke-width: 0.8"/>
      </g>
     </g>
     <g id="text_12">
      <!-- 100 -->
      <g transform="translate(52.0175 203.282807)scale(0.22 -0.22)">
       <use xlink:href="#DejaVuSans-31"/>
       <use xlink:href="#DejaVuSans-30" x="63.623047"/>
       <use xlink:href="#DejaVuSans-30" x="127.246094"/>
      </g>
     </g>
    </g>
    <g id="ytick_4">
     <g id="line2d_23">
      <path d="M 101.01 126.566789 
L 897.84 126.566789 
" clip-path="url(#pb986c89ef4)" style="fill: none; stroke-dasharray: 5.12,1.28,0.8,1.28; stroke-dashoffset: 0; stroke: #b0b0b0; stroke-width: 0.8"/>
     </g>
     <g id="line2d_24">
      <g>
       <use xlink:href="#m3169292329" x="101.01" y="126.566789" style="stroke: #000000; stroke-width: 0.8"/>
      </g>
     </g>
     <g id="text_13">
      <!-- 150 -->
      <g transform="translate(52.0175 134.92507)scale(0.22 -0.22)">
       <use xlink:href="#DejaVuSans-31"/>
       <use xlink:href="#DejaVuSans-35" x="63.623047"/>
       <use xlink:href="#DejaVuSans-30" x="127.246094"/>
      </g>
     </g>
    </g>
    <g id="ytick_5">
     <g id="line2d_25">
      <path d="M 101.01 58.209052 
L 897.84 58.209052 
" clip-path="url(#pb986c89ef4)" style="fill: none; stroke-dasharray: 5.12,1.28,0.8,1.28; stroke-dashoffset: 0; stroke: #b0b0b0; stroke-width: 0.8"/>
     </g>
     <g id="line2d_26">
      <g>
       <use xlink:href="#m3169292329" x="101.01" y="58.209052" style="stroke: #000000; stroke-width: 0.8"/>
      </g>
     </g>
     <g id="text_14">
      <!-- 200 -->
      <g transform="translate(52.0175 66.567333)scale(0.22 -0.22)">
       <use xlink:href="#DejaVuSans-32"/>
       <use xlink:href="#DejaVuSans-30" x="63.623047"/>
       <use xlink:href="#DejaVuSans-30" x="127.246094"/>
      </g>
     </g>
    </g>
    <g id="text_15">
     <!-- Throughput (Mbps) -->
     <g transform="translate(43.02625 292.414375)rotate(-90)scale(0.24 -0.24)">
      <defs>
       <path id="DejaVuSans-68" d="M 3513 2113 
L 3513 0 
L 2938 0 
L 2938 2094 
Q 2938 2591 2744 2837 
Q 2550 3084 2163 3084 
Q 1697 3084 1428 2787 
Q 1159 2491 1159 1978 
L 1159 0 
L 581 0 
L 581 4863 
L 1159 4863 
L 1159 2956 
Q 1366 3272 1645 3428 
Q 1925 3584 2291 3584 
Q 2894 3584 3203 3211 
Q 3513 2838 3513 2113 
z
" transform="scale(0.015625)"/>
       <path id="DejaVuSans-72" d="M 2631 2963 
Q 2534 3019 2420 3045 
Q 2306 3072 2169 3072 
Q 1681 3072 1420 2755 
Q 1159 2438 1159 1844 
L 1159 0 
L 581 0 
L 581 3500 
L 1159 3500 
L 1159 2956 
Q 1341 3275 1631 3429 
Q 1922 3584 2338 3584 
Q 2397 3584 2469 3576 
Q 2541 3569 2628 3553 
L 2631 2963 
z
" transform="scale(0.015625)"/>
       <path id="DejaVuSans-6f" d="M 1959 3097 
Q 1497 3097 1228 2736 
Q 959 2375 959 1747 
Q 959 1119 1226 758 
Q 1494 397 1959 397 
Q 2419 397 2687 759 
Q 2956 1122 2956 1747 
Q 2956 2369 2687 2733 
Q 2419 3097 1959 3097 
z
M 1959 3584 
Q 2709 3584 3137 3096 
Q 3566 2609 3566 1747 
Q 3566 888 3137 398 
Q 2709 -91 1959 -91 
Q 1206 -91 779 398 
Q 353 888 353 1747 
Q 353 2609 779 3096 
Q 1206 3584 1959 3584 
z
" transform="scale(0.015625)"/>
       <path id="DejaVuSans-75" d="M 544 1381 
L 544 3500 
L 1119 3500 
L 1119 1403 
Q 1119 906 1312 657 
Q 1506 409 1894 409 
Q 2359 409 2629 706 
Q 2900 1003 2900 1516 
L 2900 3500 
L 3475 3500 
L 3475 0 
L 2900 0 
L 2900 538 
Q 2691 219 2414 64 
Q 2138 -91 1772 -91 
Q 1169 -91 856 284 
Q 544 659 544 1381 
z
M 1991 3584 
L 1991 3584 
z
" transform="scale(0.015625)"/>
       <path id="DejaVuSans-67" d="M 2906 1791 
Q 2906 2416 2648 2759 
Q 2391 3103 1925 3103 
Q 1463 3103 1205 2759 
Q 947 2416 947 1791 
Q 947 1169 1205 825 
Q 1463 481 1925 481 
Q 2391 481 2648 825 
Q 2906 1169 2906 1791 
z
M 3481 434 
Q 3481 -459 3084 -895 
Q 2688 -1331 1869 -1331 
Q 1566 -1331 1297 -1286 
Q 1028 -1241 775 -1147 
L 775 -588 
Q 1028 -725 1275 -790 
Q 1522 -856 1778 -856 
Q 2344 -856 2625 -561 
Q 2906 -266 2906 331 
L 2906 616 
Q 2728 306 2450 153 
Q 2172 0 1784 0 
Q 1141 0 747 490 
Q 353 981 353 1791 
Q 353 2603 747 3093 
Q 1141 3584 1784 3584 
Q 2172 3584 2450 3431 
Q 2728 3278 2906 2969 
L 2906 3500 
L 3481 3500 
L 3481 434 
z
" transform="scale(0.015625)"/>
       <path id="DejaVuSans-70" d="M 1159 525 
L 1159 -1331 
L 581 -1331 
L 581 3500 
L 1159 3500 
L 1159 2969 
Q 1341 3281 1617 3432 
Q 1894 3584 2278 3584 
Q 2916 3584 3314 3078 
Q 3713 2572 3713 1747 
Q 3713 922 3314 415 
Q 2916 -91 2278 -91 
Q 1894 -91 1617 61 
Q 1341 213 1159 525 
z
M 3116 1747 
Q 3116 2381 2855 2742 
Q 2594 3103 2138 3103 
Q 1681 3103 1420 2742 
Q 1159 2381 1159 1747 
Q 1159 1113 1420 752 
Q 1681 391 2138 391 
Q 2594 391 2855 752 
Q 3116 1113 3116 1747 
z
" transform="scale(0.015625)"/>
       <path id="DejaVuSans-74" d="M 1172 4494 
L 1172 3500 
L 2356 3500 
L 2356 3053 
L 1172 3053 
L 1172 1153 
Q 1172 725 1289 603 
Q 1406 481 1766 481 
L 2356 481 
L 2356 0 
L 1766 0 
Q 1100 0 847 248 
Q 594 497 594 1153 
L 594 3053 
L 172 3053 
L 172 3500 
L 594 3500 
L 594 4494 
L 1172 4494 
z
" transform="scale(0.015625)"/>
       <path id="DejaVuSans-4d" d="M 628 4666 
L 1569 4666 
L 2759 1491 
L 3956 4666 
L 4897 4666 
L 4897 0 
L 4281 0 
L 4281 4097 
L 3078 897 
L 2444 897 
L 1241 4097 
L 1241 0 
L 628 0 
L 628 4666 
z
" transform="scale(0.015625)"/>
       <path id="DejaVuSans-62" d="M 3116 1747 
Q 3116 2381 2855 2742 
Q 2594 3103 2138 3103 
Q 1681 3103 1420 2742 
Q 1159 2381 1159 1747 
Q 1159 1113 1420 752 
Q 1681 391 2138 391 
Q 2594 391 2855 752 
Q 3116 1113 3116 1747 
z
M 1159 2969 
Q 1341 3281 1617 3432 
Q 1894 3584 2278 3584 
Q 2916 3584 3314 3078 
Q 3713 2572 3713 1747 
Q 3713 922 3314 415 
Q 2916 -91 2278 -91 
Q 1894 -91 1617 61 
Q 1341 213 1159 525 
L 1159 0 
L 581 0 
L 581 4863 
L 1159 4863 
L 1159 2969 
z
" transform="scale(0.015625)"/>
      </defs>
      <use xlink:href="#DejaVuSans-54"/>
      <use xlink:href="#DejaVuSans-68" x="61.083984"/>
      <use xlink:href="#DejaVuSans-72" x="124.462891"/>
      <use xlink:href="#DejaVuSans-6f" x="163.326172"/>
      <use xlink:href="#DejaVuSans-75" x="224.507812"/>
      <use xlink:href="#DejaVuSans-67" x="287.886719"/>
      <use xlink:href="#DejaVuSans-68" x="351.363281"/>
      <use xlink:href="#DejaVuSans-70" x="414.742188"/>
      <use xlink:href="#DejaVuSans-75" x="478.21875"/>
      <use xlink:href="#DejaVuSans-74" x="541.597656"/>
      <use xlink:href="#DejaVuSans-20" x="580.806641"/>
      <use xlink:href="#DejaVuSans-28" x="612.59375"/>
      <use xlink:href="#DejaVuSans-4d" x="651.607422"/>
      <use xlink:href="#DejaVuSans-62" x="737.886719"/>
      <use xlink:href="#DejaVuSans-70" x="801.363281"/>
      <use xlink:href="#DejaVuSans-73" x="864.839844"/>
      <use xlink:href="#DejaVuSans-29" x="916.939453"/>
     </g>
    </g>
   </g>
   <g id="patch_3">
    <path d="M 101.01 331.64 
L 101.01 23.76 
" style="fill: none; stroke: #000000; stroke-width: 0.8; stroke-linejoin: miter; stroke-linecap: square"/>
   </g>
   <g id="patch_4">
    <path d="M 897.84 331.64 
L 897.84 23.76 
" style="fill: none; stroke: #000000; stroke-width: 0.8; stroke-linejoin: miter; stroke-linecap: square"/>
   </g>
   <g id="patch_5">
    <path d="M 101.01 331.64 
L 897.84 331.64 
" style="fill: none; stroke: #000000; stroke-width: 0.8; stroke-linejoin: miter; stroke-linecap: square"/>
   </g>
   <g id="patch_6">
    <path d="M 101.01 23.76 
L 897.84 23.76 
" style="fill: none; stroke: #000000; stroke-width: 0.8; stroke-linejoin: miter; stroke-linecap: square"/>
   </g>
   <g id="legend_1">
    <g id="patch_7">
     <path d="M 756.24 113.415 
L 881.04 113.415 
Q 885.84 113.415 885.84 108.615 
L 885.84 40.56 
Q 885.84 35.76 881.04 35.76 
L 756.24 35.76 
Q 751.44 35.76 751.44 40.56 
L 751.44 108.615 
Q 751.44 113.415 756.24 113.415 
z
" style="fill: #ffffff; opacity: 0.8; stroke: #cccccc; stroke-linejoin: miter"/>
    </g>
    <g id="patch_8">
     <path d="M 761.04 63.59625 
L 809.04 63.59625 
L 809.04 46.79625 
L 761.04 46.79625 
z
" style="fill: #1f77b4"/>
    </g>
    <g id="text_16">
     <!-- UE1 -->
     <g transform="translate(828.24 63.59625)scale(0.24 -0.24)">
      <defs>
       <path id="DejaVuSans-55" d="M 556 4666 
L 1191 4666 
L 1191 1831 
Q 1191 1081 1462 751 
Q 1734 422 2344 422 
Q 2950 422 3222 751 
Q 3494 1081 3494 1831 
L 3494 4666 
L 4128 4666 
L 4128 1753 
Q 4128 841 3676 375 
Q 3225 -91 2344 -91 
Q 1459 -91 1007 375 
Q 556 841 556 1753 
L 556 4666 
z
" transform="scale(0.015625)"/>
       <path id="DejaVuSans-45" d="M 628 4666 
L 3578 4666 
L 3578 4134 
L 1259 4134 
L 1259 2753 
L 3481 2753 
L 3481 2222 
L 1259 2222 
L 1259 531 
L 3634 531 
L 3634 0 
L 628 0 
L 628 4666 
z
" transform="scale(0.015625)"/>
      </defs>
      <use xlink:href="#DejaVuSans-55"/>
      <use xlink:href="#DejaVuSans-45" x="73.193359"/>
      <use xlink:href="#DejaVuSans-31" x="136.376953"/>
     </g>
    </g>
    <g id="patch_9">
     <path d="M 761.04 98.82375 
L 809.04 98.82375 
L 809.04 82.02375 
L 761.04 82.02375 
z
" style="fill: #ff7f0e"/>
    </g>
    <g id="text_17">
     <!-- UE2 -->
     <g transform="translate(828.24 98.82375)scale(0.24 -0.24)">
      <use xlink:href="#DejaVuSans-55"/>
      <use xlink:href="#DejaVuSans-45" x="73.193359"/>
      <use xlink:href="#DejaVuSans-32" x="136.376953"/>
     </g>
    </g>
   </g>
  </g>
 </g>
 <defs>
  <clipPath id="pb986c89ef4">
   <rect x="101.01" y="23.76" width="796.83" height="307.88"/>
  </clipPath>
 </defs>
</svg>
