<?xml version="1.0" encoding="utf-8" standalone="no"?>
<!DOCTYPE svg PUBLIC "-//W3C//DTD SVG 1.1//EN"
  "http://www.w3.org/Graphics/SVG/1.1/DTD/svg11.dtd">
<svg xmlns:xlink="http://www.w3.org/1999/xlink" width="921.6pt" height="410.4pt" viewBox="0 0 921.6 410.4" xmlns="http://www.w3.org/2000/svg" version="1.1">
 <metadata>
  <rdf:RDF xmlns:dc="http://purl.org/dc/elements/1.1/" xmlns:cc="http://creativecommons.org/ns#" xmlns:rdf="http://www.w3.org/1999/02/22-rdf-syntax-ns#">
   <cc:Work>
    <dc:type rdf:resource="http://purl.org/dc/dcmitype/StillImage"/>
    <dc:date>2023-04-11T15:21:01.306225</dc:date>
    <dc:format>image/svg+xml</dc:format>
    <dc:creator>
     <cc:Agent>
      <dc:title>Matplotlib v3.5.3, https://matplotlib.org/</dc:title>
     </cc:Agent>
    </dc:creator>
   </cc:Work>
  </rdf:RDF>
 </metadata>
 <defs>
  <style type="text/css">*{stroke-linejoin: round; stroke-linecap: butt}</style>
 </defs>
 <g id="figure_1">
  <g id="patch_1">
   <path d="M 0 410.4 
L 921.6 410.4 
L 921.6 0 
L 0 0 
L 0 410.4 
z
" style="fill: none"/>
  </g>
  <g id="axes_1">
   <g id="patch_2">
    <path d="M 101.01 331.64 
L 897.84 331.64 
L 897.84 23.76 
L 101.01 23.76 
z
" style="fill: #ffffff"/>
   </g>
   <g id="PolyCollection_1">
    <path d="M 137.229545 53.729497 
L 137.229545 331.64 
L 141.322149 331.64 
L 145.414753 331.64 
L 149.507357 331.64 
L 153.599961 331.64 
L 157.692565 331.64 
L 161.785169 331.64 
L 165.877773 331.64 
L 169.970378 331.64 
L 174.062982 331.64 
L 178.155586 331.64 
L 182.24819 331.64 
L 186.340794 331.64 
L 190.433398 331.64 
L 194.526002 331.64 
L 198.618606 331.64 
L 202.71121 331.64 
L 206.803814 331.64 
L 210.896418 331.64 
L 214.989022 331.64 
L 219.081626 331.64 
L 223.17423 331.64 
L 227.266834 331.64 
L 231.359438 331.64 
L 235.452042 331.64 
L 239.544646 331.64 
L 243.63725 331.64 
L 247.729854 331.64 
L 251.822458 331.64 
L 255.915062 331.64 
L 260.007666 331.64 
L 264.10027 331.64 
L 268.192874 331.64 
L 272.285478 331.64 
L 276.378082 331.64 
L 280.470686 331.64 
L 284.56329 331.64 
L 288.655894 331.64 
L 292.748498 331.64 
L 296.841102 331.64 
L 300.933706 331.64 
L 305.02631 331.64 
L 309.118914 331.64 
L 313.211518 331.64 
L 317.304122 331.64 
L 321.396726 331.64 
L 325.48933 331.64 
L 329.581934 331.64 
L 333.674538 331.64 
L 337.767142 331.64 
L 341.859746 331.64 
L 345.95235 331.64 
L 350.044954 331.64 
L 354.137558 331.64 
L 358.230162 331.64 
L 362.322766 331.64 
L 366.41537 331.64 
L 370.507974 331.64 
L 374.600578 331.64 
L 378.693182 331.64 
L 382.785786 331.64 
L 386.87839 331.64 
L 390.970994 331.64 
L 395.063598 331.64 
L 399.156202 331.64 
L 403.248806 331.64 
L 407.34141 331.64 
L 411.434014 331.64 
L 415.526618 331.64 
L 419.619222 331.64 
L 423.711826 331.64 
L 427.80443 331.64 
L 431.897034 331.64 
L 435.989638 331.64 
L 440.082242 331.64 
L 444.174846 331.64 
L 448.26745 331.64 
L 452.360054 331.64 
L 456.452658 331.64 
L 460.545262 331.64 
L 464.637866 331.64 
L 468.73047 331.64 
L 472.823074 331.64 
L 476.915678 331.64 
L 481.008282 331.64 
L 485.100886 331.64 
L 489.19349 331.64 
L 493.286094 331.64 
L 497.378698 331.64 
L 501.471302 331.64 
L 505.563906 331.64 
L 509.65651 331.64 
L 513.749114 331.64 
L 517.841718 331.64 
L 521.934322 331.64 
L 526.026926 331.64 
L 530.11953 331.64 
L 534.212134 331.64 
L 538.304738 331.64 
L 542.397342 331.64 
L 546.489946 331.64 
L 550.58255 331.64 
L 554.675154 331.64 
L 558.767758 331.64 
L 562.860362 331.64 
L 566.952966 331.64 
L 571.04557 331.64 
L 575.138174 331.64 
L 579.230778 331.64 
L 583.323382 331.64 
L 587.415986 331.64 
L 591.50859 331.64 
L 595.601194 331.64 
L 599.693798 331.64 
L 603.786402 331.64 
L 607.879006 331.64 
L 611.97161 331.64 
L 616.064214 331.64 
L 620.156818 331.64 
L 624.249422 331.64 
L 628.342026 331.64 
L 632.43463 331.64 
L 636.527234 331.64 
L 640.619838 331.64 
L 644.712442 331.64 
L 648.805046 331.64 
L 652.89765 331.64 
L 656.990254 331.64 
L 661.082858 331.64 
L 665.175462 331.64 
L 669.268066 331.64 
L 673.36067 331.64 
L 677.453274 331.64 
L 681.545878 331.64 
L 685.638482 331.64 
L 689.731086 331.64 
L 693.82369 331.64 
L 697.916294 331.64 
L 702.008898 331.64 
L 706.101502 331.64 
L 710.194106 331.64 
L 714.28671 331.64 
L 718.379314 331.64 
L 722.471918 331.64 
L 726.564522 331.64 
L 730.657126 331.64 
L 734.74973 331.64 
L 738.842334 331.64 
L 742.934938 331.64 
L 747.027542 331.64 
L 751.120146 331.64 
L 755.21275 331.64 
L 759.305354 331.64 
L 763.397958 331.64 
L 767.490562 331.64 
L 771.583166 331.64 
L 775.67577 331.64 
L 779.768374 331.64 
L 783.860978 331.64 
L 787.953582 331.64 
L 792.046186 331.64 
L 796.13879 331.64 
L 800.231394 331.64 
L 804.323998 331.64 
L 808.416602 331.64 
L 812.509206 331.64 
L 816.60181 331.64 
L 820.694414 331.64 
L 824.787018 331.64 
L 828.879622 331.64 
L 832.972227 331.64 
L 837.064831 331.64 
L 841.157435 331.64 
L 845.250039 331.64 
L 849.342643 331.64 
L 853.435247 331.64 
L 857.527851 331.64 
L 861.620455 331.64 
L 861.620455 43.187673 
L 861.620455 43.187673 
L 857.527851 45.340281 
L 853.435247 42.059659 
L 849.342643 45.668776 
L 845.250039 43.366786 
L 841.157435 44.128534 
L 837.064831 45.075029 
L 832.972227 43.321647 
L 828.879622 45.21883 
L 824.787018 43.463416 
L 820.694414 44.693225 
L 816.60181 44.187115 
L 812.509206 44.926673 
L 808.416602 44.379915 
L 804.323998 44.640729 
L 800.231394 44.104258 
L 796.13879 44.791374 
L 792.046186 43.33619 
L 787.953582 45.111977 
L 783.860978 43.879077 
L 779.768374 44.697107 
L 775.67577 46.128871 
L 771.583166 45.390296 
L 767.490562 44.739198 
L 763.397958 43.606468 
L 759.305354 45.480596 
L 755.21275 43.529205 
L 751.120146 45.114661 
L 747.027542 43.886509 
L 742.934938 44.68067 
L 738.842334 43.202025 
L 734.74973 44.682135 
L 730.657126 42.385428 
L 726.564522 46.36435 
L 722.471918 46.123107 
L 718.379314 44.141965 
L 714.28671 45.051631 
L 710.194106 42.093976 
L 706.101502 44.137837 
L 702.008898 41.238132 
L 697.916294 42.878737 
L 693.82369 39.227647 
L 689.731086 41.581556 
L 685.638482 40.017809 
L 681.545878 41.282555 
L 677.453274 40.350763 
L 673.36067 40.448174 
L 669.268066 40.104451 
L 665.175462 43.521537 
L 661.082858 40.262784 
L 656.990254 46.125609 
L 652.89765 42.696342 
L 648.805046 41.660456 
L 644.712442 41.679609 
L 640.619838 44.868958 
L 636.527234 41.317438 
L 632.43463 39.660461 
L 628.342026 55.381993 
L 624.249422 60.290975 
L 620.156818 50.281163 
L 616.064214 51.032848 
L 611.97161 50.388925 
L 607.879006 50.285857 
L 603.786402 46.453922 
L 599.693798 45.900748 
L 595.601194 45.983776 
L 591.50859 44.084261 
L 587.415986 43.88421 
L 583.323382 44.270089 
L 579.230778 43.406385 
L 575.138174 44.032577 
L 571.04557 44.680136 
L 566.952966 44.366804 
L 562.860362 43.011235 
L 558.767758 44.854243 
L 554.675154 44.778883 
L 550.58255 46.424803 
L 546.489946 44.17101 
L 542.397342 45.017625 
L 538.304738 43.464528 
L 534.212134 44.769088 
L 530.11953 43.940439 
L 526.026926 44.493602 
L 521.934322 44.884261 
L 517.841718 45.688293 
L 513.749114 43.613665 
L 509.65651 44.379552 
L 505.563906 45.860251 
L 501.471302 43.332544 
L 497.378698 44.398469 
L 493.286094 43.78512 
L 489.19349 44.654898 
L 485.100886 43.57444 
L 481.008282 44.775803 
L 476.915678 43.041338 
L 472.823074 44.767933 
L 468.73047 44.224533 
L 464.637866 43.635128 
L 460.545262 44.477283 
L 456.452658 42.6678 
L 452.360054 44.683504 
L 448.26745 43.748419 
L 444.174846 44.471391 
L 440.082242 43.278058 
L 435.989638 44.953643 
L 431.897034 44.973651 
L 427.80443 44.527994 
L 423.711826 42.568892 
L 419.619222 46.116198 
L 415.526618 43.193994 
L 411.434014 45.497963 
L 407.34141 44.559198 
L 403.248806 44.757934 
L 399.156202 44.473487 
L 395.063598 43.151528 
L 390.970994 44.47292 
L 386.87839 43.84845 
L 382.785786 43.825511 
L 378.693182 43.658205 
L 374.600578 44.509119 
L 370.507974 44.1328 
L 366.41537 44.233377 
L 362.322766 42.50691 
L 358.230162 45.005947 
L 354.137558 43.088413 
L 350.044954 45.515222 
L 345.95235 46.396261 
L 341.859746 43.54007 
L 337.767142 45.926146 
L 333.674538 42.476443 
L 329.581934 45.679556 
L 325.48933 44.24668 
L 321.396726 47.455877 
L 317.304122 46.021023 
L 313.211518 47.112988 
L 309.118914 45.850049 
L 305.02631 47.679561 
L 300.933706 46.573106 
L 296.841102 47.301628 
L 292.748498 45.637304 
L 288.655894 47.67585 
L 284.56329 47.944 
L 280.470686 47.78311 
L 276.378082 47.384495 
L 272.285478 48.057623 
L 268.192874 47.095578 
L 264.10027 48.042876 
L 260.007666 46.173368 
L 255.915062 43.881216 
L 251.822458 44.66788 
L 247.729854 44.110931 
L 243.63725 46.67426 
L 239.544646 47.001493 
L 235.452042 47.710499 
L 231.359438 45.767684 
L 227.266834 48.434155 
L 223.17423 47.295907 
L 219.081626 46.707079 
L 214.989022 48.131464 
L 210.896418 50.629025 
L 206.803814 47.51942 
L 202.71121 40.981628 
L 198.618606 51.326032 
L 194.526002 49.872848 
L 190.433398 47.280037 
L 186.340794 47.747189 
L 182.24819 47.016924 
L 178.155586 47.566773 
L 174.062982 46.9623 
L 169.970378 47.677679 
L 165.877773 46.835459 
L 161.785169 47.451557 
L 157.692565 42.520331 
L 153.599961 39.096689 
L 149.507357 41.314252 
L 145.414753 39.532605 
L 141.322149 40.693096 
L 137.229545 53.729497 
z
" clip-path="url(#p3fb1bb0729)" style="fill: #1f77b4"/>
   </g>
   <g id="matplotlib.axis_1">
    <g id="xtick_1">
     <g id="line2d_1">
      <path d="M 137.229545 331.64 
L 137.229545 23.76 
" clip-path="url(#p3fb1bb0729)" style="fill: none; stroke-dasharray: 5.12,1.28,0.8,1.28; stroke-dashoffset: 0; stroke: #b0b0b0; stroke-width: 0.8"/>
     </g>
     <g id="line2d_2">
      <defs>
       <path id="me9aff0fe5a" d="M 0 0 
L 0 3.5 
" style="stroke: #000000; stroke-width: 0.8"/>
      </defs>
      <g>
       <use xlink:href="#me9aff0fe5a" x="137.229545" y="331.64" style="stroke: #000000; stroke-width: 0.8"/>
      </g>
     </g>
     <g id="text_1">
      <!-- 0 -->
      <g transform="translate(130.230795 355.356563)scale(0.22 -0.22)">
       <defs>
        <path id="DejaVuSans-30" d="M 2034 4250 
Q 1547 4250 1301 3770 
Q 1056 3291 1056 2328 
Q 1056 1369 1301 889 
Q 1547 409 2034 409 
Q 2525 409 2770 889 
Q 3016 1369 3016 2328 
Q 3016 3291 2770 3770 
Q 2525 4250 2034 4250 
z
M 2034 4750 
Q 2819 4750 3233 4129 
Q 3647 3509 3647 2328 
Q 3647 1150 3233 529 
Q 2819 -91 2034 -91 
Q 1250 -91 836 529 
Q 422 1150 422 2328 
Q 422 3509 836 4129 
Q 1250 4750 2034 4750 
z
" transform="scale(0.015625)"/>
       </defs>
       <use xlink:href="#DejaVuSans-30"/>
      </g>
     </g>
    </g>
    <g id="xtick_2">
     <g id="line2d_3">
      <path d="M 239.544646 331.64 
L 239.544646 23.76 
" clip-path="url(#p3fb1bb0729)" style="fill: none; stroke-dasharray: 5.12,1.28,0.8,1.28; stroke-dashoffset: 0; stroke: #b0b0b0; stroke-width: 0.8"/>
     </g>
     <g id="line2d_4">
      <g>
       <use xlink:href="#me9aff0fe5a" x="239.544646" y="331.64" style="stroke: #000000; stroke-width: 0.8"/>
      </g>
     </g>
     <g id="text_2">
      <!-- 25 -->
      <g transform="translate(225.547146 355.356563)scale(0.22 -0.22)">
       <defs>
        <path id="DejaVuSans-32" d="M 1228 531 
L 3431 531 
L 3431 0 
L 469 0 
L 469 531 
Q 828 903 1448 1529 
Q 2069 2156 2228 2338 
Q 2531 2678 2651 2914 
Q 2772 3150 2772 3378 
Q 2772 3750 2511 3984 
Q 2250 4219 1831 4219 
Q 1534 4219 1204 4116 
Q 875 4013 500 3803 
L 500 4441 
Q 881 4594 1212 4672 
Q 1544 4750 1819 4750 
Q 2544 4750 2975 4387 
Q 3406 4025 3406 3419 
Q 3406 3131 3298 2873 
Q 3191 2616 2906 2266 
Q 2828 2175 2409 1742 
Q 1991 1309 1228 531 
z
" transform="scale(0.015625)"/>
        <path id="DejaVuSans-35" d="M 691 4666 
L 3169 4666 
L 3169 4134 
L 1269 4134 
L 1269 2991 
Q 1406 3038 1543 3061 
Q 1681 3084 1819 3084 
Q 2600 3084 3056 2656 
Q 3513 2228 3513 1497 
Q 3513 744 3044 326 
Q 2575 -91 1722 -91 
Q 1428 -91 1123 -41 
Q 819 9 494 109 
L 494 744 
Q 775 591 1075 516 
Q 1375 441 1709 441 
Q 2250 441 2565 725 
Q 2881 1009 2881 1497 
Q 2881 1984 2565 2268 
Q 2250 2553 1709 2553 
Q 1456 2553 1204 2497 
Q 953 2441 691 2322 
L 691 4666 
z
" transform="scale(0.015625)"/>
       </defs>
       <use xlink:href="#DejaVuSans-32"/>
       <use xlink:href="#DejaVuSans-35" x="63.623047"/>
      </g>
     </g>
    </g>
    <g id="xtick_3">
     <g id="line2d_5">
      <path d="M 341.859746 331.64 
L 341.859746 23.76 
" clip-path="url(#p3fb1bb0729)" style="fill: none; stroke-dasharray: 5.12,1.28,0.8,1.28; stroke-dashoffset: 0; stroke: #b0b0b0; stroke-width: 0.8"/>
     </g>
     <g id="line2d_6">
      <g>
       <use xlink:href="#me9aff0fe5a" x="341.859746" y="331.64" style="stroke: #000000; stroke-width: 0.8"/>
      </g>
     </g>
     <g id="text_3">
      <!-- 50 -->
      <g transform="translate(327.862246 355.356563)scale(0.22 -0.22)">
       <use xlink:href="#DejaVuSans-35"/>
       <use xlink:href="#DejaVuSans-30" x="63.623047"/>
      </g>
     </g>
    </g>
    <g id="xtick_4">
     <g id="line2d_7">
      <path d="M 444.174846 331.64 
L 444.174846 23.76 
" clip-path="url(#p3fb1bb0729)" style="fill: none; stroke-dasharray: 5.12,1.28,0.8,1.28; stroke-dashoffset: 0; stroke: #b0b0b0; stroke-width: 0.8"/>
     </g>
     <g id="line2d_8">
      <g>
       <use xlink:href="#me9aff0fe5a" x="444.174846" y="331.64" style="stroke: #000000; stroke-width: 0.8"/>
      </g>
     </g>
     <g id="text_4">
      <!-- 75 -->
      <g transform="translate(430.177346 355.356563)scale(0.22 -0.22)">
       <defs>
        <path id="DejaVuSans-37" d="M 525 4666 
L 3525 4666 
L 3525 4397 
L 1831 0 
L 1172 0 
L 2766 4134 
L 525 4134 
L 525 4666 
z
" transform="scale(0.015625)"/>
       </defs>
       <use xlink:href="#DejaVuSans-37"/>
       <use xlink:href="#DejaVuSans-35" x="63.623047"/>
      </g>
     </g>
    </g>
    <g id="xtick_5">
     <g id="line2d_9">
      <path d="M 546.489946 331.64 
L 546.489946 23.76 
" clip-path="url(#p3fb1bb0729)" style="fill: none; stroke-dasharray: 5.12,1.28,0.8,1.28; stroke-dashoffset: 0; stroke: #b0b0b0; stroke-width: 0.8"/>
     </g>
     <g id="line2d_10">
      <g>
       <use xlink:href="#me9aff0fe5a" x="546.489946" y="331.64" style="stroke: #000000; stroke-width: 0.8"/>
      </g>
     </g>
     <g id="text_5">
      <!-- 100 -->
      <g transform="translate(525.493696 355.356563)scale(0.22 -0.22)">
       <defs>
        <path id="DejaVuSans-31" d="M 794 531 
L 1825 531 
L 1825 4091 
L 703 3866 
L 703 4441 
L 1819 4666 
L 2450 4666 
L 2450 531 
L 3481 531 
L 3481 0 
L 794 0 
L 794 531 
z
" transform="scale(0.015625)"/>
       </defs>
       <use xlink:href="#DejaVuSans-31"/>
       <use xlink:href="#DejaVuSans-30" x="63.623047"/>
       <use xlink:href="#DejaVuSans-30" x="127.246094"/>
      </g>
     </g>
    </g>
    <g id="xtick_6">
     <g id="line2d_11">
      <path d="M 648.805046 331.64 
L 648.805046 23.76 
" clip-path="url(#p3fb1bb0729)" style="fill: none; stroke-dasharray: 5.12,1.28,0.8,1.28; stroke-dashoffset: 0; stroke: #b0b0b0; stroke-width: 0.8"/>
     </g>
     <g id="line2d_12">
      <g>
       <use xlink:href="#me9aff0fe5a" x="648.805046" y="331.64" style="stroke: #000000; stroke-width: 0.8"/>
      </g>
     </g>
     <g id="text_6">
      <!-- 125 -->
      <g transform="translate(627.808796 355.356563)scale(0.22 -0.22)">
       <use xlink:href="#DejaVuSans-31"/>
       <use xlink:href="#DejaVuSans-32" x="63.623047"/>
       <use xlink:href="#DejaVuSans-35" x="127.246094"/>
      </g>
     </g>
    </g>
    <g id="xtick_7">
     <g id="line2d_13">
      <path d="M 751.120146 331.64 
L 751.120146 23.76 
" clip-path="url(#p3fb1bb0729)" style="fill: none; stroke-dasharray: 5.12,1.28,0.8,1.28; stroke-dashoffset: 0; stroke: #b0b0b0; stroke-width: 0.8"/>
     </g>
     <g id="line2d_14">
      <g>
       <use xlink:href="#me9aff0fe5a" x="751.120146" y="331.64" style="stroke: #000000; stroke-width: 0.8"/>
      </g>
     </g>
     <g id="text_7">
      <!-- 150 -->
      <g transform="translate(730.123896 355.356563)scale(0.22 -0.22)">
       <use xlink:href="#DejaVuSans-31"/>
       <use xlink:href="#DejaVuSans-35" x="63.623047"/>
       <use xlink:href="#DejaVuSans-30" x="127.246094"/>
      </g>
     </g>
    </g>
    <g id="xtick_8">
     <g id="line2d_15">
      <path d="M 853.435247 331.64 
L 853.435247 23.76 
" clip-path="url(#p3fb1bb0729)" style="fill: none; stroke-dasharray: 5.12,1.28,0.8,1.28; stroke-dashoffset: 0; stroke: #b0b0b0; stroke-width: 0.8"/>
     </g>
     <g id="line2d_16">
      <g>
       <use xlink:href="#me9aff0fe5a" x="853.435247" y="331.64" style="stroke: #000000; stroke-width: 0.8"/>
      </g>
     </g>
     <g id="text_8">
      <!-- 175 -->
      <g transform="translate(832.438997 355.356563)scale(0.22 -0.22)">
       <use xlink:href="#DejaVuSans-31"/>
       <use xlink:href="#DejaVuSans-37" x="63.623047"/>
       <use xlink:href="#DejaVuSans-35" x="127.246094"/>
      </g>
     </g>
    </g>
    <g id="text_9">
     <!-- Time (s) -->
     <g transform="translate(450.635625 382.168125)scale(0.24 -0.24)">
      <defs>
       <path id="DejaVuSans-54" d="M -19 4666 
L 3928 4666 
L 3928 4134 
L 2272 4134 
L 2272 0 
L 1638 0 
L 1638 4134 
L -19 4134 
L -19 4666 
z
" transform="scale(0.015625)"/>
       <path id="DejaVuSans-69" d="M 603 3500 
L 1178 3500 
L 1178 0 
L 603 0 
L 603 3500 
z
M 603 4863 
L 1178 4863 
L 1178 4134 
L 603 4134 
L 603 4863 
z
" transform="scale(0.015625)"/>
       <path id="DejaVuSans-6d" d="M 3328 2828 
Q 3544 3216 3844 3400 
Q 4144 3584 4550 3584 
Q 5097 3584 5394 3201 
Q 5691 2819 5691 2113 
L 5691 0 
L 5113 0 
L 5113 2094 
Q 5113 2597 4934 2840 
Q 4756 3084 4391 3084 
Q 3944 3084 3684 2787 
Q 3425 2491 3425 1978 
L 3425 0 
L 2847 0 
L 2847 2094 
Q 2847 2600 2669 2842 
Q 2491 3084 2119 3084 
Q 1678 3084 1418 2786 
Q 1159 2488 1159 1978 
L 1159 0 
L 581 0 
L 581 3500 
L 1159 3500 
L 1159 2956 
Q 1356 3278 1631 3431 
Q 1906 3584 2284 3584 
Q 2666 3584 2933 3390 
Q 3200 3197 3328 2828 
z
" transform="scale(0.015625)"/>
       <path id="DejaVuSans-65" d="M 3597 1894 
L 3597 1613 
L 953 1613 
Q 991 1019 1311 708 
Q 1631 397 2203 397 
Q 2534 397 2845 478 
Q 3156 559 3463 722 
L 3463 178 
Q 3153 47 2828 -22 
Q 2503 -91 2169 -91 
Q 1331 -91 842 396 
Q 353 884 353 1716 
Q 353 2575 817 3079 
Q 1281 3584 2069 3584 
Q 2775 3584 3186 3129 
Q 3597 2675 3597 1894 
z
M 3022 2063 
Q 3016 2534 2758 2815 
Q 2500 3097 2075 3097 
Q 1594 3097 1305 2825 
Q 1016 2553 972 2059 
L 3022 2063 
z
" transform="scale(0.015625)"/>
       <path id="DejaVuSans-20" transform="scale(0.015625)"/>
       <path id="DejaVuSans-28" d="M 1984 4856 
Q 1566 4138 1362 3434 
Q 1159 2731 1159 2009 
Q 1159 1288 1364 580 
Q 1569 -128 1984 -844 
L 1484 -844 
Q 1016 -109 783 600 
Q 550 1309 550 2009 
Q 550 2706 781 3412 
Q 1013 4119 1484 4856 
L 1984 4856 
z
" transform="scale(0.015625)"/>
       <path id="DejaVuSans-73" d="M 2834 3397 
L 2834 2853 
Q 2591 2978 2328 3040 
Q 2066 3103 1784 3103 
Q 1356 3103 1142 2972 
Q 928 2841 928 2578 
Q 928 2378 1081 2264 
Q 1234 2150 1697 2047 
L 1894 2003 
Q 2506 1872 2764 1633 
Q 3022 1394 3022 966 
Q 3022 478 2636 193 
Q 2250 -91 1575 -91 
Q 1294 -91 989 -36 
Q 684 19 347 128 
L 347 722 
Q 666 556 975 473 
Q 1284 391 1588 391 
Q 1994 391 2212 530 
Q 2431 669 2431 922 
Q 2431 1156 2273 1281 
Q 2116 1406 1581 1522 
L 1381 1569 
Q 847 1681 609 1914 
Q 372 2147 372 2553 
Q 372 3047 722 3315 
Q 1072 3584 1716 3584 
Q 2034 3584 2315 3537 
Q 2597 3491 2834 3397 
z
" transform="scale(0.015625)"/>
       <path id="DejaVuSans-29" d="M 513 4856 
L 1013 4856 
Q 1481 4119 1714 3412 
Q 1947 2706 1947 2009 
Q 1947 1309 1714 600 
Q 1481 -109 1013 -844 
L 513 -844 
Q 928 -128 1133 580 
Q 1338 1288 1338 2009 
Q 1338 2731 1133 3434 
Q 928 4138 513 4856 
z
" transform="scale(0.015625)"/>
      </defs>
      <use xlink:href="#DejaVuSans-54"/>
      <use xlink:href="#DejaVuSans-69" x="57.958984"/>
      <use xlink:href="#DejaVuSans-6d" x="85.742188"/>
      <use xlink:href="#DejaVuSans-65" x="183.154297"/>
      <use xlink:href="#DejaVuSans-20" x="244.677734"/>
      <use xlink:href="#DejaVuSans-28" x="276.464844"/>
      <use xlink:href="#DejaVuSans-73" x="315.478516"/>
      <use xlink:href="#DejaVuSans-29" x="367.578125"/>
     </g>
    </g>
   </g>
   <g id="matplotlib.axis_2">
    <g id="ytick_1">
     <g id="line2d_17">
      <path d="M 101.01 331.64 
L 897.84 331.64 
" clip-path="url(#p3fb1bb0729)" style="fill: none; stroke-dasharray: 5.12,1.28,0.8,1.28; stroke-dashoffset: 0; stroke: #b0b0b0; stroke-width: 0.8"/>
     </g>
     <g id="line2d_18">
      <defs>
       <path id="md45e5093c6" d="M 0 0 
L -3.5 0 
" style="stroke: #000000; stroke-width: 0.8"/>
      </defs>
      <g>
       <use xlink:href="#md45e5093c6" x="101.01" y="331.64" style="stroke: #000000; stroke-width: 0.8"/>
      </g>
     </g>
     <g id="text_10">
      <!-- 0 -->
      <g transform="translate(80.0125 339.998281)scale(0.22 -0.22)">
       <use xlink:href="#DejaVuSans-30"/>
      </g>
     </g>
    </g>
    <g id="ytick_2">
     <g id="line2d_19">
      <path d="M 101.01 264.803116 
L 897.84 264.803116 
" clip-path="url(#p3fb1bb0729)" style="fill: none; stroke-dasharray: 5.12,1.28,0.8,1.28; stroke-dashoffset: 0; stroke: #b0b0b0; stroke-width: 0.8"/>
     </g>
     <g id="line2d_20">
      <g>
       <use xlink:href="#md45e5093c6" x="101.01" y="264.803116" style="stroke: #000000; stroke-width: 0.8"/>
      </g>
     </g>
     <g id="text_11">
      <!-- 50 -->
      <g transform="translate(66.015 273.161397)scale(0.22 -0.22)">
       <use xlink:href="#DejaVuSans-35"/>
       <use xlink:href="#DejaVuSans-30" x="63.623047"/>
      </g>
     </g>
    </g>
    <g id="ytick_3">
     <g id="line2d_21">
      <path d="M 101.01 197.966231 
L 897.84 197.966231 
" clip-path="url(#p3fb1bb0729)" style="fill: none; stroke-dasharray: 5.12,1.28,0.8,1.28; stroke-dashoffset: 0; stroke: #b0b0b0; stroke-width: 0.8"/>
     </g>
     <g id="line2d_22">
      <g>
       <use xlink:href="#md45e5093c6" x="101.01" y="197.966231" style="stroke: #000000; stroke-width: 0.8"/>
      </g>
     </g>
     <g id="text_12">
      <!-- 100 -->
      <g transform="translate(52.0175 206.324512)scale(0.22 -0.22)">
       <use xlink:href="#DejaVuSans-31"/>
       <use xlink:href="#DejaVuSans-30" x="63.623047"/>
       <use xlink:href="#DejaVuSans-30" x="127.246094"/>
      </g>
     </g>
    </g>
    <g id="ytick_4">
     <g id="line2d_23">
      <path d="M 101.01 131.129347 
L 897.84 131.129347 
" clip-path="url(#p3fb1bb0729)" style="fill: none; stroke-dasharray: 5.12,1.28,0.8,1.28; stroke-dashoffset: 0; stroke: #b0b0b0; stroke-width: 0.8"/>
     </g>
     <g id="line2d_24">
      <g>
       <use xlink:href="#md45e5093c6" x="101.01" y="131.129347" style="stroke: #000000; stroke-width: 0.8"/>
      </g>
     </g>
     <g id="text_13">
      <!-- 150 -->
      <g transform="translate(52.0175 139.487628)scale(0.22 -0.22)">
       <use xlink:href="#DejaVuSans-31"/>
       <use xlink:href="#DejaVuSans-35" x="63.623047"/>
       <use xlink:href="#DejaVuSans-30" x="127.246094"/>
      </g>
     </g>
    </g>
    <g id="ytick_5">
     <g id="line2d_25">
      <path d="M 101.01 64.292462 
L 897.84 64.292462 
" clip-path="url(#p3fb1bb0729)" style="fill: none; stroke-dasharray: 5.12,1.28,0.8,1.28; stroke-dashoffset: 0; stroke: #b0b0b0; stroke-width: 0.8"/>
     </g>
     <g id="line2d_26">
      <g>
       <use xlink:href="#md45e5093c6" x="101.01" y="64.292462" style="stroke: #000000; stroke-width: 0.8"/>
      </g>
     </g>
     <g id="text_14">
      <!-- 200 -->
      <g transform="translate(52.0175 72.650744)scale(0.22 -0.22)">
       <use xlink:href="#DejaVuSans-32"/>
       <use xlink:href="#DejaVuSans-30" x="63.623047"/>
       <use xlink:href="#DejaVuSans-30" x="127.246094"/>
      </g>
     </g>
    </g>
    <g id="text_15">
     <!-- Throughput (Mbps) -->
     <g transform="translate(43.02625 292.414375)rotate(-90)scale(0.24 -0.24)">
      <defs>
       <path id="DejaVuSans-68" d="M 3513 2113 
L 3513 0 
L 2938 0 
L 2938 2094 
Q 2938 2591 2744 2837 
Q 2550 3084 2163 3084 
Q 1697 3084 1428 2787 
Q 1159 2491 1159 1978 
L 1159 0 
L 581 0 
L 581 4863 
L 1159 4863 
L 1159 2956 
Q 1366 3272 1645 3428 
Q 1925 3584 2291 3584 
Q 2894 3584 3203 3211 
Q 3513 2838 3513 2113 
z
" transform="scale(0.015625)"/>
       <path id="DejaVuSans-72" d="M 2631 2963 
Q 2534 3019 2420 3045 
Q 2306 3072 2169 3072 
Q 1681 3072 1420 2755 
Q 1159 2438 1159 1844 
L 1159 0 
L 581 0 
L 581 3500 
L 1159 3500 
L 1159 2956 
Q 1341 3275 1631 3429 
Q 1922 3584 2338 3584 
Q 2397 3584 2469 3576 
Q 2541 3569 2628 3553 
L 2631 2963 
z
" transform="scale(0.015625)"/>
       <path id="DejaVuSans-6f" d="M 1959 3097 
Q 1497 3097 1228 2736 
Q 959 2375 959 1747 
Q 959 1119 1226 758 
Q 1494 397 1959 397 
Q 2419 397 2687 759 
Q 2956 1122 2956 1747 
Q 2956 2369 2687 2733 
Q 2419 3097 1959 3097 
z
M 1959 3584 
Q 2709 3584 3137 3096 
Q 3566 2609 3566 1747 
Q 3566 888 3137 398 
Q 2709 -91 1959 -91 
Q 1206 -91 779 398 
Q 353 888 353 1747 
Q 353 2609 779 3096 
Q 1206 3584 1959 3584 
z
" transform="scale(0.015625)"/>
       <path id="DejaVuSans-75" d="M 544 1381 
L 544 3500 
L 1119 3500 
L 1119 1403 
Q 1119 906 1312 657 
Q 1506 409 1894 409 
Q 2359 409 2629 706 
Q 2900 1003 2900 1516 
L 2900 3500 
L 3475 3500 
L 3475 0 
L 2900 0 
L 2900 538 
Q 2691 219 2414 64 
Q 2138 -91 1772 -91 
Q 1169 -91 856 284 
Q 544 659 544 1381 
z
M 1991 3584 
L 1991 3584 
z
" transform="scale(0.015625)"/>
       <path id="DejaVuSans-67" d="M 2906 1791 
Q 2906 2416 2648 2759 
Q 2391 3103 1925 3103 
Q 1463 3103 1205 2759 
Q 947 2416 947 1791 
Q 947 1169 1205 825 
Q 1463 481 1925 481 
Q 2391 481 2648 825 
Q 2906 1169 2906 1791 
z
M 3481 434 
Q 3481 -459 3084 -895 
Q 2688 -1331 1869 -1331 
Q 1566 -1331 1297 -1286 
Q 1028 -1241 775 -1147 
L 775 -588 
Q 1028 -725 1275 -790 
Q 1522 -856 1778 -856 
Q 2344 -856 2625 -561 
Q 2906 -266 2906 331 
L 2906 616 
Q 2728 306 2450 153 
Q 2172 0 1784 0 
Q 1141 0 747 490 
Q 353 981 353 1791 
Q 353 2603 747 3093 
Q 1141 3584 1784 3584 
Q 2172 3584 2450 3431 
Q 2728 3278 2906 2969 
L 2906 3500 
L 3481 3500 
L 3481 434 
z
" transform="scale(0.015625)"/>
       <path id="DejaVuSans-70" d="M 1159 525 
L 1159 -1331 
L 581 -1331 
L 581 3500 
L 1159 3500 
L 1159 2969 
Q 1341 3281 1617 3432 
Q 1894 3584 2278 3584 
Q 2916 3584 3314 3078 
Q 3713 2572 3713 1747 
Q 3713 922 3314 415 
Q 2916 -91 2278 -91 
Q 1894 -91 1617 61 
Q 1341 213 1159 525 
z
M 3116 1747 
Q 3116 2381 2855 2742 
Q 2594 3103 2138 3103 
Q 1681 3103 1420 2742 
Q 1159 2381 1159 1747 
Q 1159 1113 1420 752 
Q 1681 391 2138 391 
Q 2594 391 2855 752 
Q 3116 1113 3116 1747 
z
" transform="scale(0.015625)"/>
       <path id="DejaVuSans-74" d="M 1172 4494 
L 1172 3500 
L 2356 3500 
L 2356 3053 
L 1172 3053 
L 1172 1153 
Q 1172 725 1289 603 
Q 1406 481 1766 481 
L 2356 481 
L 2356 0 
L 1766 0 
Q 1100 0 847 248 
Q 594 497 594 1153 
L 594 3053 
L 172 3053 
L 172 3500 
L 594 3500 
L 594 4494 
L 1172 4494 
z
" transform="scale(0.015625)"/>
       <path id="DejaVuSans-4d" d="M 628 4666 
L 1569 4666 
L 2759 1491 
L 3956 4666 
L 4897 4666 
L 4897 0 
L 4281 0 
L 4281 4097 
L 3078 897 
L 2444 897 
L 1241 4097 
L 1241 0 
L 628 0 
L 628 4666 
z
" transform="scale(0.015625)"/>
       <path id="DejaVuSans-62" d="M 3116 1747 
Q 3116 2381 2855 2742 
Q 2594 3103 2138 3103 
Q 1681 3103 1420 2742 
Q 1159 2381 1159 1747 
Q 1159 1113 1420 752 
Q 1681 391 2138 391 
Q 2594 391 2855 752 
Q 3116 1113 3116 1747 
z
M 1159 2969 
Q 1341 3281 1617 3432 
Q 1894 3584 2278 3584 
Q 2916 3584 3314 3078 
Q 3713 2572 3713 1747 
Q 3713 922 3314 415 
Q 2916 -91 2278 -91 
Q 1894 -91 1617 61 
Q 1341 213 1159 525 
L 1159 0 
L 581 0 
L 581 4863 
L 1159 4863 
L 1159 2969 
z
" transform="scale(0.015625)"/>
      </defs>
      <use xlink:href="#DejaVuSans-54"/>
      <use xlink:href="#DejaVuSans-68" x="61.083984"/>
      <use xlink:href="#DejaVuSans-72" x="124.462891"/>
      <use xlink:href="#DejaVuSans-6f" x="163.326172"/>
      <use xlink:href="#DejaVuSans-75" x="224.507812"/>
      <use xlink:href="#DejaVuSans-67" x="287.886719"/>
      <use xlink:href="#DejaVuSans-68" x="351.363281"/>
      <use xlink:href="#DejaVuSans-70" x="414.742188"/>
      <use xlink:href="#DejaVuSans-75" x="478.21875"/>
      <use xlink:href="#DejaVuSans-74" x="541.597656"/>
      <use xlink:href="#DejaVuSans-20" x="580.806641"/>
      <use xlink:href="#DejaVuSans-28" x="612.59375"/>
      <use xlink:href="#DejaVuSans-4d" x="651.607422"/>
      <use xlink:href="#DejaVuSans-62" x="737.886719"/>
      <use xlink:href="#DejaVuSans-70" x="801.363281"/>
      <use xlink:href="#DejaVuSans-73" x="864.839844"/>
      <use xlink:href="#DejaVuSans-29" x="916.939453"/>
     </g>
    </g>
   </g>
   <g id="patch_3">
    <path d="M 101.01 331.64 
L 101.01 23.76 
" style="fill: none; stroke: #000000; stroke-width: 0.8; stroke-linejoin: miter; stroke-linecap: square"/>
   </g>
   <g id="patch_4">
    <path d="M 897.84 331.64 
L 897.84 23.76 
" style="fill: none; stroke: #000000; stroke-width: 0.8; stroke-linejoin: miter; stroke-linecap: square"/>
   </g>
   <g id="patch_5">
    <path d="M 101.01 331.64 
L 897.84 331.64 
" style="fill: none; stroke: #000000; stroke-width: 0.8; stroke-linejoin: miter; stroke-linecap: square"/>
   </g>
   <g id="patch_6">
    <path d="M 101.01 23.76 
L 897.84 23.76 
" style="fill: none; stroke: #000000; stroke-width: 0.8; stroke-linejoin: miter; stroke-linecap: square"/>
   </g>
   <g id="legend_1">
    <g id="patch_7">
     <path d="M 756.24 78.1875 
L 881.04 78.1875 
Q 885.84 78.1875 885.84 73.3875 
L 885.84 40.56 
Q 885.84 35.76 881.04 35.76 
L 756.24 35.76 
Q 751.44 35.76 751.44 40.56 
L 751.44 73.3875 
Q 751.44 78.1875 756.24 78.1875 
z
" style="fill: #ffffff; opacity: 0.8; stroke: #cccccc; stroke-linejoin: miter"/>
    </g>
    <g id="patch_8">
     <path d="M 761.04 63.59625 
L 809.04 63.59625 
L 809.04 46.79625 
L 761.04 46.79625 
z
" style="fill: #1f77b4"/>
    </g>
    <g id="text_16">
     <!-- UE1 -->
     <g transform="translate(828.24 63.59625)scale(0.24 -0.24)">
      <defs>
       <path id="DejaVuSans-55" d="M 556 4666 
L 1191 4666 
L 1191 1831 
Q 1191 1081 1462 751 
Q 1734 422 2344 422 
Q 2950 422 3222 751 
Q 3494 1081 3494 1831 
L 3494 4666 
L 4128 4666 
L 4128 1753 
Q 4128 841 3676 375 
Q 3225 -91 2344 -91 
Q 1459 -91 1007 375 
Q 556 841 556 1753 
L 556 4666 
z
" transform="scale(0.015625)"/>
       <path id="DejaVuSans-45" d="M 628 4666 
L 3578 4666 
L 3578 4134 
L 1259 4134 
L 1259 2753 
L 3481 2753 
L 3481 2222 
L 1259 2222 
L 1259 531 
L 3634 531 
L 3634 0 
L 628 0 
L 628 4666 
z
" transform="scale(0.015625)"/>
      </defs>
      <use xlink:href="#DejaVuSans-55"/>
      <use xlink:href="#DejaVuSans-45" x="73.193359"/>
      <use xlink:href="#DejaVuSans-31" x="136.376953"/>
     </g>
    </g>
   </g>
  </g>
 </g>
 <defs>
  <clipPath id="p3fb1bb0729">
   <rect x="101.01" y="23.76" width="796.83" height="307.88"/>
  </clipPath>
 </defs>
</svg>
