<?xml version="1.0" encoding="utf-8" standalone="no"?>
<!DOCTYPE svg PUBLIC "-//W3C//DTD SVG 1.1//EN"
  "http://www.w3.org/Graphics/SVG/1.1/DTD/svg11.dtd">
<svg xmlns:xlink="http://www.w3.org/1999/xlink" width="921.6pt" height="410.4pt" viewBox="0 0 921.6 410.4" xmlns="http://www.w3.org/2000/svg" version="1.1">
 <metadata>
  <rdf:RDF xmlns:dc="http://purl.org/dc/elements/1.1/" xmlns:cc="http://creativecommons.org/ns#" xmlns:rdf="http://www.w3.org/1999/02/22-rdf-syntax-ns#">
   <cc:Work>
    <dc:type rdf:resource="http://purl.org/dc/dcmitype/StillImage"/>
    <dc:date>2023-04-11T17:41:49.886156</dc:date>
    <dc:format>image/svg+xml</dc:format>
    <dc:creator>
     <cc:Agent>
      <dc:title>Matplotlib v3.5.3, https://matplotlib.org/</dc:title>
     </cc:Agent>
    </dc:creator>
   </cc:Work>
  </rdf:RDF>
 </metadata>
 <defs>
  <style type="text/css">*{stroke-linejoin: round; stroke-linecap: butt}</style>
 </defs>
 <g id="figure_1">
  <g id="patch_1">
   <path d="M 0 410.4 
L 921.6 410.4 
L 921.6 0 
L 0 0 
L 0 410.4 
z
" style="fill: none"/>
  </g>
  <g id="axes_1">
   <g id="patch_2">
    <path d="M 86.885 331.64 
L 897.84 331.64 
L 897.84 23.76 
L 86.885 23.76 
z
" style="fill: #ffffff"/>
   </g>
   <g id="PolyCollection_1">
    <path d="M 123.746591 189.837573 
L 123.746591 331.64 
L 127.842323 331.64 
L 131.938056 331.64 
L 136.033788 331.64 
L 140.12952 331.64 
L 144.225253 331.64 
L 148.320985 331.64 
L 152.416717 331.64 
L 156.512449 331.64 
L 160.608182 331.64 
L 164.703914 331.64 
L 168.799646 331.64 
L 172.895379 331.64 
L 176.991111 331.64 
L 181.086843 331.64 
L 185.182576 331.64 
L 189.278308 331.64 
L 193.37404 331.64 
L 197.469773 331.64 
L 201.565505 331.64 
L 205.661237 331.64 
L 209.75697 331.64 
L 213.852702 331.64 
L 217.948434 331.64 
L 222.044167 331.64 
L 226.139899 331.64 
L 230.235631 331.64 
L 234.331364 331.64 
L 238.427096 331.64 
L 242.522828 331.64 
L 246.618561 331.64 
L 250.714293 331.64 
L 254.810025 331.64 
L 258.905758 331.64 
L 263.00149 331.64 
L 267.097222 331.64 
L 271.192955 331.64 
L 275.288687 331.64 
L 279.384419 331.64 
L 283.480152 331.64 
L 287.575884 331.64 
L 291.671616 331.64 
L 295.767348 331.64 
L 299.863081 331.64 
L 303.958813 331.64 
L 308.054545 331.64 
L 312.150278 331.64 
L 316.24601 331.64 
L 320.341742 331.64 
L 324.437475 331.64 
L 328.533207 331.64 
L 332.628939 331.64 
L 336.724672 331.64 
L 340.820404 331.64 
L 344.916136 331.64 
L 349.011869 331.64 
L 353.107601 331.64 
L 357.203333 331.64 
L 361.299066 331.64 
L 365.394798 331.64 
L 369.49053 331.64 
L 373.586263 331.64 
L 377.681995 331.64 
L 381.777727 331.64 
L 385.87346 331.64 
L 389.969192 331.64 
L 394.064924 331.64 
L 398.160657 331.64 
L 402.256389 331.64 
L 406.352121 331.64 
L 410.447854 331.64 
L 414.543586 331.64 
L 418.639318 331.64 
L 422.735051 331.64 
L 426.830783 331.64 
L 430.926515 331.64 
L 435.022247 331.64 
L 439.11798 331.64 
L 443.213712 331.64 
L 447.309444 331.64 
L 451.405177 331.64 
L 455.500909 331.64 
L 459.596641 331.64 
L 463.692374 331.64 
L 467.788106 331.64 
L 471.883838 331.64 
L 475.979571 331.64 
L 480.075303 331.64 
L 484.171035 331.64 
L 488.266768 331.64 
L 492.3625 331.64 
L 496.458232 331.64 
L 500.553965 331.64 
L 504.649697 331.64 
L 508.745429 331.64 
L 512.841162 331.64 
L 516.936894 331.64 
L 521.032626 331.64 
L 525.128359 331.64 
L 529.224091 331.64 
L 533.319823 331.64 
L 537.415556 331.64 
L 541.511288 331.64 
L 545.60702 331.64 
L 549.702753 331.64 
L 553.798485 331.64 
L 557.894217 331.64 
L 561.989949 331.64 
L 566.085682 331.64 
L 570.181414 331.64 
L 574.277146 331.64 
L 578.372879 331.64 
L 582.468611 331.64 
L 586.564343 331.64 
L 590.660076 331.64 
L 594.755808 331.64 
L 598.85154 331.64 
L 602.947273 331.64 
L 607.043005 331.64 
L 611.138737 331.64 
L 615.23447 331.64 
L 619.330202 331.64 
L 623.425934 331.64 
L 627.521667 331.64 
L 631.617399 331.64 
L 635.713131 331.64 
L 639.808864 331.64 
L 643.904596 331.64 
L 648.000328 331.64 
L 652.096061 331.64 
L 656.191793 331.64 
L 660.287525 331.64 
L 664.383258 331.64 
L 668.47899 331.64 
L 672.574722 331.64 
L 676.670455 331.64 
L 680.766187 331.64 
L 684.861919 331.64 
L 688.957652 331.64 
L 693.053384 331.64 
L 697.149116 331.64 
L 701.244848 331.64 
L 705.340581 331.64 
L 709.436313 331.64 
L 713.532045 331.64 
L 717.627778 331.64 
L 721.72351 331.64 
L 725.819242 331.64 
L 729.914975 331.64 
L 734.010707 331.64 
L 738.106439 331.64 
L 742.202172 331.64 
L 746.297904 331.64 
L 750.393636 331.64 
L 754.489369 331.64 
L 758.585101 331.64 
L 762.680833 331.64 
L 766.776566 331.64 
L 770.872298 331.64 
L 774.96803 331.64 
L 779.063763 331.64 
L 783.159495 331.64 
L 787.255227 331.64 
L 791.35096 331.64 
L 795.446692 331.64 
L 799.542424 331.64 
L 803.638157 331.64 
L 807.733889 331.64 
L 811.829621 331.64 
L 815.925354 331.64 
L 820.021086 331.64 
L 824.116818 331.64 
L 828.212551 331.64 
L 832.308283 331.64 
L 836.404015 331.64 
L 840.499747 331.64 
L 844.59548 331.64 
L 848.691212 331.64 
L 852.786944 331.64 
L 856.882677 331.64 
L 860.978409 331.64 
L 860.978409 190.025153 
L 860.978409 190.025153 
L 856.882677 192.567102 
L 852.786944 190.158018 
L 848.691212 188.060455 
L 844.59548 189.302567 
L 840.499747 188.600836 
L 836.404015 190.506518 
L 832.308283 190.479537 
L 828.212551 192.674383 
L 824.116818 188.523332 
L 820.021086 189.059412 
L 815.925354 190.541992 
L 811.829621 188.961161 
L 807.733889 187.15803 
L 803.638157 186.40255 
L 799.542424 187.735819 
L 795.446692 190.94983 
L 791.35096 192.788436 
L 787.255227 190.905327 
L 783.159495 188.874735 
L 779.063763 187.244241 
L 774.96803 188.039709 
L 770.872298 188.814537 
L 766.776566 191.835594 
L 762.680833 191.680908 
L 758.585101 187.530395 
L 754.489369 187.704752 
L 750.393636 192.317497 
L 746.297904 188.156019 
L 742.202172 189.894331 
L 738.106439 190.319154 
L 734.010707 190.108892 
L 729.914975 187.437841 
L 725.819242 188.642974 
L 721.72351 188.907091 
L 717.627778 186.17079 
L 713.532045 186.895203 
L 709.436313 191.867521 
L 705.340581 191.167509 
L 701.244848 193.89865 
L 697.149116 190.282068 
L 693.053384 188.073355 
L 688.957652 189.326969 
L 684.861919 189.376739 
L 680.766187 187.786772 
L 676.670455 188.01305 
L 672.574722 190.666042 
L 668.47899 192.197102 
L 664.383258 189.902178 
L 660.287525 188.269212 
L 656.191793 188.623195 
L 652.096061 187.371731 
L 648.000328 193.397613 
L 643.904596 191.030775 
L 639.808864 192.112611 
L 635.713131 187.666484 
L 631.617399 187.71174 
L 627.521667 192.715876 
L 623.425934 189.500789 
L 619.330202 191.030345 
L 615.23447 187.243596 
L 611.138737 189.120577 
L 607.043005 191.513752 
L 602.947273 188.57106 
L 598.85154 190.039987 
L 594.755808 188.952024 
L 590.660076 190.512431 
L 586.564343 188.336074 
L 582.468611 188.384985 
L 578.372879 190.046867 
L 574.277146 188.670708 
L 570.181414 188.307588 
L 566.085682 191.232221 
L 561.989949 190.186611 
L 557.894217 193.382994 
L 553.798485 190.461908 
L 549.702753 188.583744 
L 545.60702 189.201522 
L 541.511288 187.51943 
L 537.415556 189.79221 
L 533.319823 193.736762 
L 529.224091 189.963988 
L 525.128359 188.904941 
L 521.032626 189.343631 
L 516.936894 188.349404 
L 512.841162 189.957753 
L 508.745429 190.730754 
L 504.649697 191.128703 
L 500.553965 189.837358 
L 496.458232 189.406301 
L 492.3625 188.80024 
L 488.266768 189.944316 
L 484.171035 191.435388 
L 480.075303 188.622658 
L 475.979571 191.730571 
L 471.883838 189.134444 
L 467.788106 190.572306 
L 463.692374 189.183677 
L 459.596641 186.166167 
L 455.500909 189.070914 
L 451.405177 187.668741 
L 447.309444 189.6128 
L 443.213712 191.980176 
L 439.11798 190.870176 
L 435.022247 192.68223 
L 430.926515 189.660528 
L 426.830783 188.618895 
L 422.735051 187.063004 
L 418.639318 188.539241 
L 414.543586 189.166048 
L 410.447854 192.507765 
L 406.352121 193.064269 
L 402.256389 190.393648 
L 398.160657 187.456975 
L 394.064924 188.587829 
L 389.969192 187.823428 
L 385.87346 190.105882 
L 381.777727 188.612553 
L 377.681995 190.03386 
L 373.586263 190.871574 
L 369.49053 190.445783 
L 365.394798 192.513247 
L 361.299066 189.303212 
L 357.203333 187.38764 
L 353.107601 187.832027 
L 349.011869 188.263622 
L 344.916136 188.92515 
L 340.820404 193.613465 
L 336.724672 190.517161 
L 332.628939 190.543927 
L 328.533207 187.895127 
L 324.437475 188.498608 
L 320.341742 189.610972 
L 316.24601 187.6452 
L 312.150278 190.543712 
L 308.054545 188.634912 
L 303.958813 189.140679 
L 299.863081 190.986164 
L 295.767348 189.709331 
L 291.671616 188.26416 
L 287.575884 187.494491 
L 283.480152 190.261106 
L 279.384419 193.352035 
L 275.288687 189.005664 
L 271.192955 187.789244 
L 267.097222 188.699624 
L 263.00149 188.68737 
L 258.905758 188.341557 
L 254.810025 189.072634 
L 250.714293 191.058293 
L 246.618561 190.573596 
L 242.522828 203.122635 
L 238.427096 191.145902 
L 234.331364 188.493985 
L 230.235631 188.224494 
L 226.139899 187.822245 
L 222.044167 188.961484 
L 217.948434 192.279551 
L 213.852702 191.837744 
L 209.75697 192.063915 
L 205.661237 190.181129 
L 201.565505 188.417556 
L 197.469773 191.128058 
L 193.37404 189.269244 
L 189.278308 192.246658 
L 185.182576 191.591794 
L 181.086843 190.474377 
L 176.991111 189.00416 
L 172.895379 188.614165 
L 168.799646 188.758102 
L 164.703914 189.73986 
L 160.608182 188.914723 
L 156.512449 194.361742 
L 152.416717 191.313488 
L 148.320985 189.673965 
L 144.225253 188.596751 
L 140.12952 190.27293 
L 136.033788 189.650316 
L 131.938056 190.485127 
L 127.842323 188.142152 
L 123.746591 189.837573 
z
" clip-path="url(#pa8c577cdc7)" style="fill: #1f77b4"/>
   </g>
   <g id="PolyCollection_2">
    <path d="M 123.746591 46.311346 
L 123.746591 189.837573 
L 127.842323 188.142152 
L 131.938056 190.485127 
L 136.033788 189.650316 
L 140.12952 190.27293 
L 144.225253 188.596751 
L 148.320985 189.673965 
L 152.416717 191.313488 
L 156.512449 194.361742 
L 160.608182 188.914723 
L 164.703914 189.73986 
L 168.799646 188.758102 
L 172.895379 188.614165 
L 176.991111 189.00416 
L 181.086843 190.474377 
L 185.182576 191.591794 
L 189.278308 192.246658 
L 193.37404 189.269244 
L 197.469773 191.128058 
L 201.565505 188.417556 
L 205.661237 190.181129 
L 209.75697 192.063915 
L 213.852702 191.837744 
L 217.948434 192.279551 
L 222.044167 188.961484 
L 226.139899 187.822245 
L 230.235631 188.224494 
L 234.331364 188.493985 
L 238.427096 191.145902 
L 242.522828 203.122635 
L 246.618561 190.573596 
L 250.714293 191.058293 
L 254.810025 189.072634 
L 258.905758 188.341557 
L 263.00149 188.68737 
L 267.097222 188.699624 
L 271.192955 187.789244 
L 275.288687 189.005664 
L 279.384419 193.352035 
L 283.480152 190.261106 
L 287.575884 187.494491 
L 291.671616 188.26416 
L 295.767348 189.709331 
L 299.863081 190.986164 
L 303.958813 189.140679 
L 308.054545 188.634912 
L 312.150278 190.543712 
L 316.24601 187.6452 
L 320.341742 189.610972 
L 324.437475 188.498608 
L 328.533207 187.895127 
L 332.628939 190.543927 
L 336.724672 190.517161 
L 340.820404 193.613465 
L 344.916136 188.92515 
L 349.011869 188.263622 
L 353.107601 187.832027 
L 357.203333 187.38764 
L 361.299066 189.303212 
L 365.394798 192.513247 
L 369.49053 190.445783 
L 373.586263 190.871574 
L 377.681995 190.03386 
L 381.777727 188.612553 
L 385.87346 190.105882 
L 389.969192 187.823428 
L 394.064924 188.587829 
L 398.160657 187.456975 
L 402.256389 190.393648 
L 406.352121 193.064269 
L 410.447854 192.507765 
L 414.543586 189.166048 
L 418.639318 188.539241 
L 422.735051 187.063004 
L 426.830783 188.618895 
L 430.926515 189.660528 
L 435.022247 192.68223 
L 439.11798 190.870176 
L 443.213712 191.980176 
L 447.309444 189.6128 
L 451.405177 187.668741 
L 455.500909 189.070914 
L 459.596641 186.166167 
L 463.692374 189.183677 
L 467.788106 190.572306 
L 471.883838 189.134444 
L 475.979571 191.730571 
L 480.075303 188.622658 
L 484.171035 191.435388 
L 488.266768 189.944316 
L 492.3625 188.80024 
L 496.458232 189.406301 
L 500.553965 189.837358 
L 504.649697 191.128703 
L 508.745429 190.730754 
L 512.841162 189.957753 
L 516.936894 188.349404 
L 521.032626 189.343631 
L 525.128359 188.904941 
L 529.224091 189.963988 
L 533.319823 193.736762 
L 537.415556 189.79221 
L 541.511288 187.51943 
L 545.60702 189.201522 
L 549.702753 188.583744 
L 553.798485 190.461908 
L 557.894217 193.382994 
L 561.989949 190.186611 
L 566.085682 191.232221 
L 570.181414 188.307588 
L 574.277146 188.670708 
L 578.372879 190.046867 
L 582.468611 188.384985 
L 586.564343 188.336074 
L 590.660076 190.512431 
L 594.755808 188.952024 
L 598.85154 190.039987 
L 602.947273 188.57106 
L 607.043005 191.513752 
L 611.138737 189.120577 
L 615.23447 187.243596 
L 619.330202 191.030345 
L 623.425934 189.500789 
L 627.521667 192.715876 
L 631.617399 187.71174 
L 635.713131 187.666484 
L 639.808864 192.112611 
L 643.904596 191.030775 
L 648.000328 193.397613 
L 652.096061 187.371731 
L 656.191793 188.623195 
L 660.287525 188.269212 
L 664.383258 189.902178 
L 668.47899 192.197102 
L 672.574722 190.666042 
L 676.670455 188.01305 
L 680.766187 187.786772 
L 684.861919 189.376739 
L 688.957652 189.326969 
L 693.053384 188.073355 
L 697.149116 190.282068 
L 701.244848 193.89865 
L 705.340581 191.167509 
L 709.436313 191.867521 
L 713.532045 186.895203 
L 717.627778 186.17079 
L 721.72351 188.907091 
L 725.819242 188.642974 
L 729.914975 187.437841 
L 734.010707 190.108892 
L 738.106439 190.319154 
L 742.202172 189.894331 
L 746.297904 188.156019 
L 750.393636 192.317497 
L 754.489369 187.704752 
L 758.585101 187.530395 
L 762.680833 191.680908 
L 766.776566 191.835594 
L 770.872298 188.814537 
L 774.96803 188.039709 
L 779.063763 187.244241 
L 783.159495 188.874735 
L 787.255227 190.905327 
L 791.35096 192.788436 
L 795.446692 190.94983 
L 799.542424 187.735819 
L 803.638157 186.40255 
L 807.733889 187.15803 
L 811.829621 188.961161 
L 815.925354 190.541992 
L 820.021086 189.059412 
L 824.116818 188.523332 
L 828.212551 192.674383 
L 832.308283 190.479537 
L 836.404015 190.506518 
L 840.499747 188.600836 
L 844.59548 189.302567 
L 848.691212 188.060455 
L 852.786944 190.158018 
L 856.882677 192.567102 
L 860.978409 190.025153 
L 860.978409 190.025153 
L 860.978409 190.025153 
L 856.882677 49.773243 
L 852.786944 48.376015 
L 848.691212 41.046103 
L 844.59548 43.430356 
L 840.499747 42.894168 
L 836.404015 46.27856 
L 832.308283 47.94184 
L 828.212551 49.620599 
L 824.116818 44.902831 
L 820.021086 43.433366 
L 815.925354 45.738932 
L 811.829621 44.741265 
L 807.733889 39.674996 
L 803.638157 38.619282 
L 799.542424 41.502852 
L 795.446692 44.99173 
L 791.35096 51.935625 
L 787.255227 47.969681 
L 783.159495 45.413435 
L 779.063763 38.816751 
L 774.96803 41.17413 
L 770.872298 42.090316 
L 766.776566 48.625727 
L 762.680833 52.410971 
L 758.585101 40.32599 
L 754.489369 41.299255 
L 750.393636 49.24329 
L 746.297904 40.771344 
L 742.202172 43.929673 
L 738.106439 48.493078 
L 734.010707 48.586384 
L 729.914975 40.208927 
L 725.819242 41.633567 
L 721.72351 43.635673 
L 717.627778 38.692594 
L 713.532045 39.235124 
L 709.436313 46.966855 
L 705.340581 48.366555 
L 701.244848 52.144489 
L 697.149116 47.657407 
L 693.053384 41.73515 
L 688.957652 45.127497 
L 684.861919 42.23823 
L 680.766187 42.48074 
L 676.670455 40.432196 
L 672.574722 46.442814 
L 668.47899 48.812447 
L 664.383258 44.49123 
L 660.287525 43.167099 
L 656.191793 42.945873 
L 652.096061 40.429616 
L 648.000328 50.140878 
L 643.904596 47.40318 
L 639.808864 51.697415 
L 635.713131 41.994215 
L 631.617399 41.059218 
L 627.521667 46.454316 
L 623.425934 47.957857 
L 619.330202 48.158121 
L 615.23447 39.915249 
L 611.138737 43.413694 
L 607.043005 47.423819 
L 602.947273 44.619043 
L 598.85154 44.463389 
L 594.755808 44.029967 
L 590.660076 44.993235 
L 586.564343 43.226114 
L 582.468611 42.545237 
L 578.372879 44.041791 
L 574.277146 44.034374 
L 570.181414 41.849525 
L 566.085682 46.7868 
L 561.989949 45.237035 
L 557.894217 50.526142 
L 553.798485 47.583342 
L 549.702753 44.99431 
L 545.60702 42.904917 
L 541.511288 40.348349 
L 537.415556 44.027172 
L 533.319823 51.845651 
L 529.224091 48.490928 
L 525.128359 42.04721 
L 521.032626 43.903229 
L 516.936894 42.23436 
L 512.841162 45.149211 
L 508.745429 45.280571 
L 504.649697 49.314882 
L 500.553965 44.284516 
L 496.458232 43.800786 
L 492.3625 45.233918 
L 488.266768 44.053723 
L 484.171035 50.57688 
L 480.075303 41.643994 
L 475.979571 48.394182 
L 471.883838 42.622204 
L 467.788106 47.532174 
L 463.692374 43.792294 
L 459.596641 39.069259 
L 455.500909 43.349949 
L 451.405177 40.606661 
L 447.309444 44.278282 
L 443.213712 48.641529 
L 439.11798 48.452874 
L 435.022247 49.689504 
L 430.926515 46.663717 
L 426.830783 42.302727 
L 422.735051 40.515935 
L 418.639318 40.556461 
L 414.543586 43.129153 
L 410.447854 49.902883 
L 406.352121 52.649611 
L 402.256389 47.93281 
L 398.160657 40.229351 
L 394.064924 42.310144 
L 389.969192 40.477774 
L 385.87346 45.541355 
L 381.777727 43.157962 
L 377.681995 45.246602 
L 373.586263 45.542108 
L 369.49053 47.685356 
L 365.394798 51.392557 
L 361.299066 44.686443 
L 357.203333 40.591612 
L 353.107601 40.323732 
L 349.011869 42.591138 
L 344.916136 41.461574 
L 340.820404 52.225971 
L 336.724672 47.346099 
L 332.628939 46.936004 
L 328.533207 41.56434 
L 324.437475 42.281335 
L 320.341742 44.039641 
L 316.24601 41.749124 
L 312.150278 45.273584 
L 308.054545 42.637361 
L 303.958813 44.630867 
L 299.863081 45.563392 
L 295.767348 45.532648 
L 291.671616 42.122134 
L 287.575884 40.846269 
L 283.480152 44.107901 
L 279.384419 51.328705 
L 275.288687 45.563714 
L 271.192955 40.846484 
L 267.097222 42.691324 
L 263.00149 42.824726 
L 258.905758 42.493639 
L 254.810025 41.576487 
L 250.714293 48.012572 
L 246.618561 47.620321 
L 242.522828 72.780317 
L 238.427096 46.387131 
L 234.331364 42.769473 
L 230.235631 41.74633 
L 226.139899 41.129305 
L 222.044167 43.585365 
L 217.948434 48.199077 
L 213.852702 51.39073 
L 209.75697 49.598778 
L 205.661237 46.465065 
L 201.565505 41.207669 
L 197.469773 47.284074 
L 193.37404 43.344575 
L 189.278308 49.150091 
L 185.182576 49.940399 
L 181.086843 46.843235 
L 176.991111 44.763517 
L 172.895379 41.251635 
L 168.799646 43.223642 
L 164.703914 44.865315 
L 160.608182 43.636425 
L 156.512449 50.964832 
L 152.416717 48.797935 
L 148.320985 46.290492 
L 144.225253 43.522802 
L 140.12952 44.874882 
L 136.033788 44.883804 
L 131.938056 46.190736 
L 127.842323 41.901123 
L 123.746591 46.311346 
z
" clip-path="url(#pa8c577cdc7)" style="fill: #ff7f0e"/>
   </g>
   <g id="matplotlib.axis_1">
    <g id="xtick_1">
     <g id="line2d_1">
      <path d="M 123.746591 331.64 
L 123.746591 23.76 
" clip-path="url(#pa8c577cdc7)" style="fill: none; stroke-dasharray: 5.12,1.28,0.8,1.28; stroke-dashoffset: 0; stroke: #b0b0b0; stroke-width: 0.8"/>
     </g>
     <g id="line2d_2">
      <defs>
       <path id="m6c4a0ad7da" d="M 0 0 
L 0 3.5 
" style="stroke: #000000; stroke-width: 0.8"/>
      </defs>
      <g>
       <use xlink:href="#m6c4a0ad7da" x="123.746591" y="331.64" style="stroke: #000000; stroke-width: 0.8"/>
      </g>
     </g>
     <g id="text_1">
      <!-- 0 -->
      <g transform="translate(116.747841 355.356563)scale(0.22 -0.22)">
       <defs>
        <path id="DejaVuSans-30" d="M 2034 4250 
Q 1547 4250 1301 3770 
Q 1056 3291 1056 2328 
Q 1056 1369 1301 889 
Q 1547 409 2034 409 
Q 2525 409 2770 889 
Q 3016 1369 3016 2328 
Q 3016 3291 2770 3770 
Q 2525 4250 2034 4250 
z
M 2034 4750 
Q 2819 4750 3233 4129 
Q 3647 3509 3647 2328 
Q 3647 1150 3233 529 
Q 2819 -91 2034 -91 
Q 1250 -91 836 529 
Q 422 1150 422 2328 
Q 422 3509 836 4129 
Q 1250 4750 2034 4750 
z
" transform="scale(0.015625)"/>
       </defs>
       <use xlink:href="#DejaVuSans-30"/>
      </g>
     </g>
    </g>
    <g id="xtick_2">
     <g id="line2d_3">
      <path d="M 226.139899 331.64 
L 226.139899 23.76 
" clip-path="url(#pa8c577cdc7)" style="fill: none; stroke-dasharray: 5.12,1.28,0.8,1.28; stroke-dashoffset: 0; stroke: #b0b0b0; stroke-width: 0.8"/>
     </g>
     <g id="line2d_4">
      <g>
       <use xlink:href="#m6c4a0ad7da" x="226.139899" y="331.64" style="stroke: #000000; stroke-width: 0.8"/>
      </g>
     </g>
     <g id="text_2">
      <!-- 25 -->
      <g transform="translate(212.142399 355.356563)scale(0.22 -0.22)">
       <defs>
        <path id="DejaVuSans-32" d="M 1228 531 
L 3431 531 
L 3431 0 
L 469 0 
L 469 531 
Q 828 903 1448 1529 
Q 2069 2156 2228 2338 
Q 2531 2678 2651 2914 
Q 2772 3150 2772 3378 
Q 2772 3750 2511 3984 
Q 2250 4219 1831 4219 
Q 1534 4219 1204 4116 
Q 875 4013 500 3803 
L 500 4441 
Q 881 4594 1212 4672 
Q 1544 4750 1819 4750 
Q 2544 4750 2975 4387 
Q 3406 4025 3406 3419 
Q 3406 3131 3298 2873 
Q 3191 2616 2906 2266 
Q 2828 2175 2409 1742 
Q 1991 1309 1228 531 
z
" transform="scale(0.015625)"/>
        <path id="DejaVuSans-35" d="M 691 4666 
L 3169 4666 
L 3169 4134 
L 1269 4134 
L 1269 2991 
Q 1406 3038 1543 3061 
Q 1681 3084 1819 3084 
Q 2600 3084 3056 2656 
Q 3513 2228 3513 1497 
Q 3513 744 3044 326 
Q 2575 -91 1722 -91 
Q 1428 -91 1123 -41 
Q 819 9 494 109 
L 494 744 
Q 775 591 1075 516 
Q 1375 441 1709 441 
Q 2250 441 2565 725 
Q 2881 1009 2881 1497 
Q 2881 1984 2565 2268 
Q 2250 2553 1709 2553 
Q 1456 2553 1204 2497 
Q 953 2441 691 2322 
L 691 4666 
z
" transform="scale(0.015625)"/>
       </defs>
       <use xlink:href="#DejaVuSans-32"/>
       <use xlink:href="#DejaVuSans-35" x="63.623047"/>
      </g>
     </g>
    </g>
    <g id="xtick_3">
     <g id="line2d_5">
      <path d="M 328.533207 331.64 
L 328.533207 23.76 
" clip-path="url(#pa8c577cdc7)" style="fill: none; stroke-dasharray: 5.12,1.28,0.8,1.28; stroke-dashoffset: 0; stroke: #b0b0b0; stroke-width: 0.8"/>
     </g>
     <g id="line2d_6">
      <g>
       <use xlink:href="#m6c4a0ad7da" x="328.533207" y="331.64" style="stroke: #000000; stroke-width: 0.8"/>
      </g>
     </g>
     <g id="text_3">
      <!-- 50 -->
      <g transform="translate(314.535707 355.356563)scale(0.22 -0.22)">
       <use xlink:href="#DejaVuSans-35"/>
       <use xlink:href="#DejaVuSans-30" x="63.623047"/>
      </g>
     </g>
    </g>
    <g id="xtick_4">
     <g id="line2d_7">
      <path d="M 430.926515 331.64 
L 430.926515 23.76 
" clip-path="url(#pa8c577cdc7)" style="fill: none; stroke-dasharray: 5.12,1.28,0.8,1.28; stroke-dashoffset: 0; stroke: #b0b0b0; stroke-width: 0.8"/>
     </g>
     <g id="line2d_8">
      <g>
       <use xlink:href="#m6c4a0ad7da" x="430.926515" y="331.64" style="stroke: #000000; stroke-width: 0.8"/>
      </g>
     </g>
     <g id="text_4">
      <!-- 75 -->
      <g transform="translate(416.929015 355.356563)scale(0.22 -0.22)">
       <defs>
        <path id="DejaVuSans-37" d="M 525 4666 
L 3525 4666 
L 3525 4397 
L 1831 0 
L 1172 0 
L 2766 4134 
L 525 4134 
L 525 4666 
z
" transform="scale(0.015625)"/>
       </defs>
       <use xlink:href="#DejaVuSans-37"/>
       <use xlink:href="#DejaVuSans-35" x="63.623047"/>
      </g>
     </g>
    </g>
    <g id="xtick_5">
     <g id="line2d_9">
      <path d="M 533.319823 331.64 
L 533.319823 23.76 
" clip-path="url(#pa8c577cdc7)" style="fill: none; stroke-dasharray: 5.12,1.28,0.8,1.28; stroke-dashoffset: 0; stroke: #b0b0b0; stroke-width: 0.8"/>
     </g>
     <g id="line2d_10">
      <g>
       <use xlink:href="#m6c4a0ad7da" x="533.319823" y="331.64" style="stroke: #000000; stroke-width: 0.8"/>
      </g>
     </g>
     <g id="text_5">
      <!-- 100 -->
      <g transform="translate(512.323573 355.356563)scale(0.22 -0.22)">
       <defs>
        <path id="DejaVuSans-31" d="M 794 531 
L 1825 531 
L 1825 4091 
L 703 3866 
L 703 4441 
L 1819 4666 
L 2450 4666 
L 2450 531 
L 3481 531 
L 3481 0 
L 794 0 
L 794 531 
z
" transform="scale(0.015625)"/>
       </defs>
       <use xlink:href="#DejaVuSans-31"/>
       <use xlink:href="#DejaVuSans-30" x="63.623047"/>
       <use xlink:href="#DejaVuSans-30" x="127.246094"/>
      </g>
     </g>
    </g>
    <g id="xtick_6">
     <g id="line2d_11">
      <path d="M 635.713131 331.64 
L 635.713131 23.76 
" clip-path="url(#pa8c577cdc7)" style="fill: none; stroke-dasharray: 5.12,1.28,0.8,1.28; stroke-dashoffset: 0; stroke: #b0b0b0; stroke-width: 0.8"/>
     </g>
     <g id="line2d_12">
      <g>
       <use xlink:href="#m6c4a0ad7da" x="635.713131" y="331.64" style="stroke: #000000; stroke-width: 0.8"/>
      </g>
     </g>
     <g id="text_6">
      <!-- 125 -->
      <g transform="translate(614.716881 355.356563)scale(0.22 -0.22)">
       <use xlink:href="#DejaVuSans-31"/>
       <use xlink:href="#DejaVuSans-32" x="63.623047"/>
       <use xlink:href="#DejaVuSans-35" x="127.246094"/>
      </g>
     </g>
    </g>
    <g id="xtick_7">
     <g id="line2d_13">
      <path d="M 738.106439 331.64 
L 738.106439 23.76 
" clip-path="url(#pa8c577cdc7)" style="fill: none; stroke-dasharray: 5.12,1.28,0.8,1.28; stroke-dashoffset: 0; stroke: #b0b0b0; stroke-width: 0.8"/>
     </g>
     <g id="line2d_14">
      <g>
       <use xlink:href="#m6c4a0ad7da" x="738.106439" y="331.64" style="stroke: #000000; stroke-width: 0.8"/>
      </g>
     </g>
     <g id="text_7">
      <!-- 150 -->
      <g transform="translate(717.110189 355.356563)scale(0.22 -0.22)">
       <use xlink:href="#DejaVuSans-31"/>
       <use xlink:href="#DejaVuSans-35" x="63.623047"/>
       <use xlink:href="#DejaVuSans-30" x="127.246094"/>
      </g>
     </g>
    </g>
    <g id="xtick_8">
     <g id="line2d_15">
      <path d="M 840.499747 331.64 
L 840.499747 23.76 
" clip-path="url(#pa8c577cdc7)" style="fill: none; stroke-dasharray: 5.12,1.28,0.8,1.28; stroke-dashoffset: 0; stroke: #b0b0b0; stroke-width: 0.8"/>
     </g>
     <g id="line2d_16">
      <g>
       <use xlink:href="#m6c4a0ad7da" x="840.499747" y="331.64" style="stroke: #000000; stroke-width: 0.8"/>
      </g>
     </g>
     <g id="text_8">
      <!-- 175 -->
      <g transform="translate(819.503497 355.356563)scale(0.22 -0.22)">
       <use xlink:href="#DejaVuSans-31"/>
       <use xlink:href="#DejaVuSans-37" x="63.623047"/>
       <use xlink:href="#DejaVuSans-35" x="127.246094"/>
      </g>
     </g>
    </g>
    <g id="text_9">
     <!-- Time (s) -->
     <g transform="translate(443.573125 382.168125)scale(0.24 -0.24)">
      <defs>
       <path id="DejaVuSans-54" d="M -19 4666 
L 3928 4666 
L 3928 4134 
L 2272 4134 
L 2272 0 
L 1638 0 
L 1638 4134 
L -19 4134 
L -19 4666 
z
" transform="scale(0.015625)"/>
       <path id="DejaVuSans-69" d="M 603 3500 
L 1178 3500 
L 1178 0 
L 603 0 
L 603 3500 
z
M 603 4863 
L 1178 4863 
L 1178 4134 
L 603 4134 
L 603 4863 
z
" transform="scale(0.015625)"/>
       <path id="DejaVuSans-6d" d="M 3328 2828 
Q 3544 3216 3844 3400 
Q 4144 3584 4550 3584 
Q 5097 3584 5394 3201 
Q 5691 2819 5691 2113 
L 5691 0 
L 5113 0 
L 5113 2094 
Q 5113 2597 4934 2840 
Q 4756 3084 4391 3084 
Q 3944 3084 3684 2787 
Q 3425 2491 3425 1978 
L 3425 0 
L 2847 0 
L 2847 2094 
Q 2847 2600 2669 2842 
Q 2491 3084 2119 3084 
Q 1678 3084 1418 2786 
Q 1159 2488 1159 1978 
L 1159 0 
L 581 0 
L 581 3500 
L 1159 3500 
L 1159 2956 
Q 1356 3278 1631 3431 
Q 1906 3584 2284 3584 
Q 2666 3584 2933 3390 
Q 3200 3197 3328 2828 
z
" transform="scale(0.015625)"/>
       <path id="DejaVuSans-65" d="M 3597 1894 
L 3597 1613 
L 953 1613 
Q 991 1019 1311 708 
Q 1631 397 2203 397 
Q 2534 397 2845 478 
Q 3156 559 3463 722 
L 3463 178 
Q 3153 47 2828 -22 
Q 2503 -91 2169 -91 
Q 1331 -91 842 396 
Q 353 884 353 1716 
Q 353 2575 817 3079 
Q 1281 3584 2069 3584 
Q 2775 3584 3186 3129 
Q 3597 2675 3597 1894 
z
M 3022 2063 
Q 3016 2534 2758 2815 
Q 2500 3097 2075 3097 
Q 1594 3097 1305 2825 
Q 1016 2553 972 2059 
L 3022 2063 
z
" transform="scale(0.015625)"/>
       <path id="DejaVuSans-20" transform="scale(0.015625)"/>
       <path id="DejaVuSans-28" d="M 1984 4856 
Q 1566 4138 1362 3434 
Q 1159 2731 1159 2009 
Q 1159 1288 1364 580 
Q 1569 -128 1984 -844 
L 1484 -844 
Q 1016 -109 783 600 
Q 550 1309 550 2009 
Q 550 2706 781 3412 
Q 1013 4119 1484 4856 
L 1984 4856 
z
" transform="scale(0.015625)"/>
       <path id="DejaVuSans-73" d="M 2834 3397 
L 2834 2853 
Q 2591 2978 2328 3040 
Q 2066 3103 1784 3103 
Q 1356 3103 1142 2972 
Q 928 2841 928 2578 
Q 928 2378 1081 2264 
Q 1234 2150 1697 2047 
L 1894 2003 
Q 2506 1872 2764 1633 
Q 3022 1394 3022 966 
Q 3022 478 2636 193 
Q 2250 -91 1575 -91 
Q 1294 -91 989 -36 
Q 684 19 347 128 
L 347 722 
Q 666 556 975 473 
Q 1284 391 1588 391 
Q 1994 391 2212 530 
Q 2431 669 2431 922 
Q 2431 1156 2273 1281 
Q 2116 1406 1581 1522 
L 1381 1569 
Q 847 1681 609 1914 
Q 372 2147 372 2553 
Q 372 3047 722 3315 
Q 1072 3584 1716 3584 
Q 2034 3584 2315 3537 
Q 2597 3491 2834 3397 
z
" transform="scale(0.015625)"/>
       <path id="DejaVuSans-29" d="M 513 4856 
L 1013 4856 
Q 1481 4119 1714 3412 
Q 1947 2706 1947 2009 
Q 1947 1309 1714 600 
Q 1481 -109 1013 -844 
L 513 -844 
Q 928 -128 1133 580 
Q 1338 1288 1338 2009 
Q 1338 2731 1133 3434 
Q 928 4138 513 4856 
z
" transform="scale(0.015625)"/>
      </defs>
      <use xlink:href="#DejaVuSans-54"/>
      <use xlink:href="#DejaVuSans-69" x="57.958984"/>
      <use xlink:href="#DejaVuSans-6d" x="85.742188"/>
      <use xlink:href="#DejaVuSans-65" x="183.154297"/>
      <use xlink:href="#DejaVuSans-20" x="244.677734"/>
      <use xlink:href="#DejaVuSans-28" x="276.464844"/>
      <use xlink:href="#DejaVuSans-73" x="315.478516"/>
      <use xlink:href="#DejaVuSans-29" x="367.578125"/>
     </g>
    </g>
   </g>
   <g id="matplotlib.axis_2">
    <g id="ytick_1">
     <g id="line2d_17">
      <path d="M 86.885 331.64 
L 897.84 331.64 
" clip-path="url(#pa8c577cdc7)" style="fill: none; stroke-dasharray: 5.12,1.28,0.8,1.28; stroke-dashoffset: 0; stroke: #b0b0b0; stroke-width: 0.8"/>
     </g>
     <g id="line2d_18">
      <defs>
       <path id="m7d0bae4b08" d="M 0 0 
L -3.5 0 
" style="stroke: #000000; stroke-width: 0.8"/>
      </defs>
      <g>
       <use xlink:href="#m7d0bae4b08" x="86.885" y="331.64" style="stroke: #000000; stroke-width: 0.8"/>
      </g>
     </g>
     <g id="text_10">
      <!-- 0 -->
      <g transform="translate(65.8875 339.998281)scale(0.22 -0.22)">
       <use xlink:href="#DejaVuSans-30"/>
      </g>
     </g>
    </g>
    <g id="ytick_2">
     <g id="line2d_19">
      <path d="M 86.885 264.455233 
L 897.84 264.455233 
" clip-path="url(#pa8c577cdc7)" style="fill: none; stroke-dasharray: 5.12,1.28,0.8,1.28; stroke-dashoffset: 0; stroke: #b0b0b0; stroke-width: 0.8"/>
     </g>
     <g id="line2d_20">
      <g>
       <use xlink:href="#m7d0bae4b08" x="86.885" y="264.455233" style="stroke: #000000; stroke-width: 0.8"/>
      </g>
     </g>
     <g id="text_11">
      <!-- 5 -->
      <g transform="translate(65.8875 272.813514)scale(0.22 -0.22)">
       <use xlink:href="#DejaVuSans-35"/>
      </g>
     </g>
    </g>
    <g id="ytick_3">
     <g id="line2d_21">
      <path d="M 86.885 197.270466 
L 897.84 197.270466 
" clip-path="url(#pa8c577cdc7)" style="fill: none; stroke-dasharray: 5.12,1.28,0.8,1.28; stroke-dashoffset: 0; stroke: #b0b0b0; stroke-width: 0.8"/>
     </g>
     <g id="line2d_22">
      <g>
       <use xlink:href="#m7d0bae4b08" x="86.885" y="197.270466" style="stroke: #000000; stroke-width: 0.8"/>
      </g>
     </g>
     <g id="text_12">
      <!-- 10 -->
      <g transform="translate(51.89 205.628747)scale(0.22 -0.22)">
       <use xlink:href="#DejaVuSans-31"/>
       <use xlink:href="#DejaVuSans-30" x="63.623047"/>
      </g>
     </g>
    </g>
    <g id="ytick_4">
     <g id="line2d_23">
      <path d="M 86.885 130.085699 
L 897.84 130.085699 
" clip-path="url(#pa8c577cdc7)" style="fill: none; stroke-dasharray: 5.12,1.28,0.8,1.28; stroke-dashoffset: 0; stroke: #b0b0b0; stroke-width: 0.8"/>
     </g>
     <g id="line2d_24">
      <g>
       <use xlink:href="#m7d0bae4b08" x="86.885" y="130.085699" style="stroke: #000000; stroke-width: 0.8"/>
      </g>
     </g>
     <g id="text_13">
      <!-- 15 -->
      <g transform="translate(51.89 138.44398)scale(0.22 -0.22)">
       <use xlink:href="#DejaVuSans-31"/>
       <use xlink:href="#DejaVuSans-35" x="63.623047"/>
      </g>
     </g>
    </g>
    <g id="ytick_5">
     <g id="line2d_25">
      <path d="M 86.885 62.900932 
L 897.84 62.900932 
" clip-path="url(#pa8c577cdc7)" style="fill: none; stroke-dasharray: 5.12,1.28,0.8,1.28; stroke-dashoffset: 0; stroke: #b0b0b0; stroke-width: 0.8"/>
     </g>
     <g id="line2d_26">
      <g>
       <use xlink:href="#m7d0bae4b08" x="86.885" y="62.900932" style="stroke: #000000; stroke-width: 0.8"/>
      </g>
     </g>
     <g id="text_14">
      <!-- 20 -->
      <g transform="translate(51.89 71.259213)scale(0.22 -0.22)">
       <use xlink:href="#DejaVuSans-32"/>
       <use xlink:href="#DejaVuSans-30" x="63.623047"/>
      </g>
     </g>
    </g>
    <g id="text_15">
     <!-- Throughput (Mbps) -->
     <g transform="translate(42.89875 292.414375)rotate(-90)scale(0.24 -0.24)">
      <defs>
       <path id="DejaVuSans-68" d="M 3513 2113 
L 3513 0 
L 2938 0 
L 2938 2094 
Q 2938 2591 2744 2837 
Q 2550 3084 2163 3084 
Q 1697 3084 1428 2787 
Q 1159 2491 1159 1978 
L 1159 0 
L 581 0 
L 581 4863 
L 1159 4863 
L 1159 2956 
Q 1366 3272 1645 3428 
Q 1925 3584 2291 3584 
Q 2894 3584 3203 3211 
Q 3513 2838 3513 2113 
z
" transform="scale(0.015625)"/>
       <path id="DejaVuSans-72" d="M 2631 2963 
Q 2534 3019 2420 3045 
Q 2306 3072 2169 3072 
Q 1681 3072 1420 2755 
Q 1159 2438 1159 1844 
L 1159 0 
L 581 0 
L 581 3500 
L 1159 3500 
L 1159 2956 
Q 1341 3275 1631 3429 
Q 1922 3584 2338 3584 
Q 2397 3584 2469 3576 
Q 2541 3569 2628 3553 
L 2631 2963 
z
" transform="scale(0.015625)"/>
       <path id="DejaVuSans-6f" d="M 1959 3097 
Q 1497 3097 1228 2736 
Q 959 2375 959 1747 
Q 959 1119 1226 758 
Q 1494 397 1959 397 
Q 2419 397 2687 759 
Q 2956 1122 2956 1747 
Q 2956 2369 2687 2733 
Q 2419 3097 1959 3097 
z
M 1959 3584 
Q 2709 3584 3137 3096 
Q 3566 2609 3566 1747 
Q 3566 888 3137 398 
Q 2709 -91 1959 -91 
Q 1206 -91 779 398 
Q 353 888 353 1747 
Q 353 2609 779 3096 
Q 1206 3584 1959 3584 
z
" transform="scale(0.015625)"/>
       <path id="DejaVuSans-75" d="M 544 1381 
L 544 3500 
L 1119 3500 
L 1119 1403 
Q 1119 906 1312 657 
Q 1506 409 1894 409 
Q 2359 409 2629 706 
Q 2900 1003 2900 1516 
L 2900 3500 
L 3475 3500 
L 3475 0 
L 2900 0 
L 2900 538 
Q 2691 219 2414 64 
Q 2138 -91 1772 -91 
Q 1169 -91 856 284 
Q 544 659 544 1381 
z
M 1991 3584 
L 1991 3584 
z
" transform="scale(0.015625)"/>
       <path id="DejaVuSans-67" d="M 2906 1791 
Q 2906 2416 2648 2759 
Q 2391 3103 1925 3103 
Q 1463 3103 1205 2759 
Q 947 2416 947 1791 
Q 947 1169 1205 825 
Q 1463 481 1925 481 
Q 2391 481 2648 825 
Q 2906 1169 2906 1791 
z
M 3481 434 
Q 3481 -459 3084 -895 
Q 2688 -1331 1869 -1331 
Q 1566 -1331 1297 -1286 
Q 1028 -1241 775 -1147 
L 775 -588 
Q 1028 -725 1275 -790 
Q 1522 -856 1778 -856 
Q 2344 -856 2625 -561 
Q 2906 -266 2906 331 
L 2906 616 
Q 2728 306 2450 153 
Q 2172 0 1784 0 
Q 1141 0 747 490 
Q 353 981 353 1791 
Q 353 2603 747 3093 
Q 1141 3584 1784 3584 
Q 2172 3584 2450 3431 
Q 2728 3278 2906 2969 
L 2906 3500 
L 3481 3500 
L 3481 434 
z
" transform="scale(0.015625)"/>
       <path id="DejaVuSans-70" d="M 1159 525 
L 1159 -1331 
L 581 -1331 
L 581 3500 
L 1159 3500 
L 1159 2969 
Q 1341 3281 1617 3432 
Q 1894 3584 2278 3584 
Q 2916 3584 3314 3078 
Q 3713 2572 3713 1747 
Q 3713 922 3314 415 
Q 2916 -91 2278 -91 
Q 1894 -91 1617 61 
Q 1341 213 1159 525 
z
M 3116 1747 
Q 3116 2381 2855 2742 
Q 2594 3103 2138 3103 
Q 1681 3103 1420 2742 
Q 1159 2381 1159 1747 
Q 1159 1113 1420 752 
Q 1681 391 2138 391 
Q 2594 391 2855 752 
Q 3116 1113 3116 1747 
z
" transform="scale(0.015625)"/>
       <path id="DejaVuSans-74" d="M 1172 4494 
L 1172 3500 
L 2356 3500 
L 2356 3053 
L 1172 3053 
L 1172 1153 
Q 1172 725 1289 603 
Q 1406 481 1766 481 
L 2356 481 
L 2356 0 
L 1766 0 
Q 1100 0 847 248 
Q 594 497 594 1153 
L 594 3053 
L 172 3053 
L 172 3500 
L 594 3500 
L 594 4494 
L 1172 4494 
z
" transform="scale(0.015625)"/>
       <path id="DejaVuSans-4d" d="M 628 4666 
L 1569 4666 
L 2759 1491 
L 3956 4666 
L 4897 4666 
L 4897 0 
L 4281 0 
L 4281 4097 
L 3078 897 
L 2444 897 
L 1241 4097 
L 1241 0 
L 628 0 
L 628 4666 
z
" transform="scale(0.015625)"/>
       <path id="DejaVuSans-62" d="M 3116 1747 
Q 3116 2381 2855 2742 
Q 2594 3103 2138 3103 
Q 1681 3103 1420 2742 
Q 1159 2381 1159 1747 
Q 1159 1113 1420 752 
Q 1681 391 2138 391 
Q 2594 391 2855 752 
Q 3116 1113 3116 1747 
z
M 1159 2969 
Q 1341 3281 1617 3432 
Q 1894 3584 2278 3584 
Q 2916 3584 3314 3078 
Q 3713 2572 3713 1747 
Q 3713 922 3314 415 
Q 2916 -91 2278 -91 
Q 1894 -91 1617 61 
Q 1341 213 1159 525 
L 1159 0 
L 581 0 
L 581 4863 
L 1159 4863 
L 1159 2969 
z
" transform="scale(0.015625)"/>
      </defs>
      <use xlink:href="#DejaVuSans-54"/>
      <use xlink:href="#DejaVuSans-68" x="61.083984"/>
      <use xlink:href="#DejaVuSans-72" x="124.462891"/>
      <use xlink:href="#DejaVuSans-6f" x="163.326172"/>
      <use xlink:href="#DejaVuSans-75" x="224.507812"/>
      <use xlink:href="#DejaVuSans-67" x="287.886719"/>
      <use xlink:href="#DejaVuSans-68" x="351.363281"/>
      <use xlink:href="#DejaVuSans-70" x="414.742188"/>
      <use xlink:href="#DejaVuSans-75" x="478.21875"/>
      <use xlink:href="#DejaVuSans-74" x="541.597656"/>
      <use xlink:href="#DejaVuSans-20" x="580.806641"/>
      <use xlink:href="#DejaVuSans-28" x="612.59375"/>
      <use xlink:href="#DejaVuSans-4d" x="651.607422"/>
      <use xlink:href="#DejaVuSans-62" x="737.886719"/>
      <use xlink:href="#DejaVuSans-70" x="801.363281"/>
      <use xlink:href="#DejaVuSans-73" x="864.839844"/>
      <use xlink:href="#DejaVuSans-29" x="916.939453"/>
     </g>
    </g>
   </g>
   <g id="patch_3">
    <path d="M 86.885 331.64 
L 86.885 23.76 
" style="fill: none; stroke: #000000; stroke-width: 0.8; stroke-linejoin: miter; stroke-linecap: square"/>
   </g>
   <g id="patch_4">
    <path d="M 897.84 331.64 
L 897.84 23.76 
" style="fill: none; stroke: #000000; stroke-width: 0.8; stroke-linejoin: miter; stroke-linecap: square"/>
   </g>
   <g id="patch_5">
    <path d="M 86.885 331.64 
L 897.84 331.64 
" style="fill: none; stroke: #000000; stroke-width: 0.8; stroke-linejoin: miter; stroke-linecap: square"/>
   </g>
   <g id="patch_6">
    <path d="M 86.885 23.76 
L 897.84 23.76 
" style="fill: none; stroke: #000000; stroke-width: 0.8; stroke-linejoin: miter; stroke-linecap: square"/>
   </g>
   <g id="legend_1">
    <g id="patch_7">
     <path d="M 756.24 113.415 
L 881.04 113.415 
Q 885.84 113.415 885.84 108.615 
L 885.84 40.56 
Q 885.84 35.76 881.04 35.76 
L 756.24 35.76 
Q 751.44 35.76 751.44 40.56 
L 751.44 108.615 
Q 751.44 113.415 756.24 113.415 
z
" style="fill: #ffffff; opacity: 0.8; stroke: #cccccc; stroke-linejoin: miter"/>
    </g>
    <g id="patch_8">
     <path d="M 761.04 63.59625 
L 809.04 63.59625 
L 809.04 46.79625 
L 761.04 46.79625 
z
" style="fill: #1f77b4"/>
    </g>
    <g id="text_16">
     <!-- UE1 -->
     <g transform="translate(828.24 63.59625)scale(0.24 -0.24)">
      <defs>
       <path id="DejaVuSans-55" d="M 556 4666 
L 1191 4666 
L 1191 1831 
Q 1191 1081 1462 751 
Q 1734 422 2344 422 
Q 2950 422 3222 751 
Q 3494 1081 3494 1831 
L 3494 4666 
L 4128 4666 
L 4128 1753 
Q 4128 841 3676 375 
Q 3225 -91 2344 -91 
Q 1459 -91 1007 375 
Q 556 841 556 1753 
L 556 4666 
z
" transform="scale(0.015625)"/>
       <path id="DejaVuSans-45" d="M 628 4666 
L 3578 4666 
L 3578 4134 
L 1259 4134 
L 1259 2753 
L 3481 2753 
L 3481 2222 
L 1259 2222 
L 1259 531 
L 3634 531 
L 3634 0 
L 628 0 
L 628 4666 
z
" transform="scale(0.015625)"/>
      </defs>
      <use xlink:href="#DejaVuSans-55"/>
      <use xlink:href="#DejaVuSans-45" x="73.193359"/>
      <use xlink:href="#DejaVuSans-31" x="136.376953"/>
     </g>
    </g>
    <g id="patch_9">
     <path d="M 761.04 98.82375 
L 809.04 98.82375 
L 809.04 82.02375 
L 761.04 82.02375 
z
" style="fill: #ff7f0e"/>
    </g>
    <g id="text_17">
     <!-- UE2 -->
     <g transform="translate(828.24 98.82375)scale(0.24 -0.24)">
      <use xlink:href="#DejaVuSans-55"/>
      <use xlink:href="#DejaVuSans-45" x="73.193359"/>
      <use xlink:href="#DejaVuSans-32" x="136.376953"/>
     </g>
    </g>
   </g>
  </g>
 </g>
 <defs>
  <clipPath id="pa8c577cdc7">
   <rect x="86.885" y="23.76" width="810.955" height="307.88"/>
  </clipPath>
 </defs>
</svg>
