<?xml version="1.0" encoding="utf-8" standalone="no"?>
<!DOCTYPE svg PUBLIC "-//W3C//DTD SVG 1.1//EN"
  "http://www.w3.org/Graphics/SVG/1.1/DTD/svg11.dtd">
<svg xmlns:xlink="http://www.w3.org/1999/xlink" width="921.6pt" height="410.4pt" viewBox="0 0 921.6 410.4" xmlns="http://www.w3.org/2000/svg" version="1.1">
 <metadata>
  <rdf:RDF xmlns:dc="http://purl.org/dc/elements/1.1/" xmlns:cc="http://creativecommons.org/ns#" xmlns:rdf="http://www.w3.org/1999/02/22-rdf-syntax-ns#">
   <cc:Work>
    <dc:type rdf:resource="http://purl.org/dc/dcmitype/StillImage"/>
    <dc:date>2023-04-11T17:40:58.727763</dc:date>
    <dc:format>image/svg+xml</dc:format>
    <dc:creator>
     <cc:Agent>
      <dc:title>Matplotlib v3.5.3, https://matplotlib.org/</dc:title>
     </cc:Agent>
    </dc:creator>
   </cc:Work>
  </rdf:RDF>
 </metadata>
 <defs>
  <style type="text/css">*{stroke-linejoin: round; stroke-linecap: butt}</style>
 </defs>
 <g id="figure_1">
  <g id="patch_1">
   <path d="M 0 410.4 
L 921.6 410.4 
L 921.6 0 
L 0 0 
L 0 410.4 
z
" style="fill: none"/>
  </g>
  <g id="axes_1">
   <g id="patch_2">
    <path d="M 108.01 331.64 
L 897.84 331.64 
L 897.84 23.76 
L 108.01 23.76 
z
" style="fill: #ffffff"/>
   </g>
   <g id="PolyCollection_1">
    <path d="M 143.911364 240.219716 
L 143.911364 331.64 
L 147.878365 331.64 
L 151.845367 331.64 
L 155.812368 331.64 
L 159.77937 331.64 
L 163.746371 331.64 
L 167.713373 331.64 
L 171.680374 331.64 
L 175.647376 331.64 
L 179.614377 331.64 
L 183.581379 331.64 
L 187.54838 331.64 
L 191.515382 331.64 
L 195.482383 331.64 
L 199.449385 331.64 
L 203.416386 331.64 
L 207.383388 331.64 
L 211.350389 331.64 
L 215.317391 331.64 
L 219.284392 331.64 
L 223.251394 331.64 
L 227.218395 331.64 
L 231.185397 331.64 
L 235.152398 331.64 
L 239.1194 331.64 
L 243.086401 331.64 
L 247.053403 331.64 
L 251.020404 331.64 
L 254.987406 331.64 
L 258.954407 331.64 
L 262.921409 331.64 
L 266.88841 331.64 
L 270.855412 331.64 
L 274.822413 331.64 
L 278.789415 331.64 
L 282.756416 331.64 
L 286.723418 331.64 
L 290.690419 331.64 
L 294.657421 331.64 
L 298.624422 331.64 
L 302.591424 331.64 
L 306.558425 331.64 
L 310.525427 331.64 
L 314.492428 331.64 
L 318.45943 331.64 
L 322.426431 331.64 
L 326.393433 331.64 
L 330.360434 331.64 
L 334.327436 331.64 
L 338.294437 331.64 
L 342.261439 331.64 
L 346.22844 331.64 
L 350.195442 331.64 
L 354.162443 331.64 
L 358.129445 331.64 
L 362.096447 331.64 
L 366.063448 331.64 
L 370.03045 331.64 
L 373.997451 331.64 
L 377.964453 331.64 
L 381.931454 331.64 
L 385.898456 331.64 
L 389.865457 331.64 
L 393.832459 331.64 
L 397.79946 331.64 
L 401.766462 331.64 
L 405.733463 331.64 
L 409.700465 331.64 
L 413.667466 331.64 
L 417.634468 331.64 
L 421.601469 331.64 
L 425.568471 331.64 
L 429.535472 331.64 
L 433.502474 331.64 
L 437.469475 331.64 
L 441.436477 331.64 
L 445.403478 331.64 
L 449.37048 331.64 
L 453.337481 331.64 
L 457.304483 331.64 
L 461.271484 331.64 
L 465.238486 331.64 
L 469.205487 331.64 
L 473.172489 331.64 
L 477.13949 331.64 
L 481.106492 331.64 
L 485.073493 331.64 
L 489.040495 331.64 
L 493.007496 331.64 
L 496.974498 331.64 
L 500.941499 331.64 
L 504.908501 331.64 
L 508.875502 331.64 
L 512.842504 331.64 
L 516.809505 331.64 
L 520.776507 331.64 
L 524.743508 331.64 
L 528.71051 331.64 
L 532.677511 331.64 
L 536.644513 331.64 
L 540.611514 331.64 
L 544.578516 331.64 
L 548.545517 331.64 
L 552.512519 331.64 
L 556.47952 331.64 
L 560.446522 331.64 
L 564.413523 331.64 
L 568.380525 331.64 
L 572.347526 331.64 
L 576.314528 331.64 
L 580.281529 331.64 
L 584.248531 331.64 
L 588.215532 331.64 
L 592.182534 331.64 
L 596.149535 331.64 
L 600.116537 331.64 
L 604.083538 331.64 
L 608.05054 331.64 
L 612.017541 331.64 
L 615.984543 331.64 
L 619.951544 331.64 
L 623.918546 331.64 
L 627.885547 331.64 
L 631.852549 331.64 
L 635.81955 331.64 
L 639.786552 331.64 
L 643.753553 331.64 
L 647.720555 331.64 
L 651.687557 331.64 
L 655.654558 331.64 
L 659.62156 331.64 
L 663.588561 331.64 
L 667.555563 331.64 
L 671.522564 331.64 
L 675.489566 331.64 
L 679.456567 331.64 
L 683.423569 331.64 
L 687.39057 331.64 
L 691.357572 331.64 
L 695.324573 331.64 
L 699.291575 331.64 
L 703.258576 331.64 
L 707.225578 331.64 
L 711.192579 331.64 
L 715.159581 331.64 
L 719.126582 331.64 
L 723.093584 331.64 
L 727.060585 331.64 
L 731.027587 331.64 
L 734.994588 331.64 
L 738.96159 331.64 
L 742.928591 331.64 
L 746.895593 331.64 
L 750.862594 331.64 
L 754.829596 331.64 
L 758.796597 331.64 
L 762.763599 331.64 
L 766.7306 331.64 
L 770.697602 331.64 
L 774.664603 331.64 
L 778.631605 331.64 
L 782.598606 331.64 
L 786.565608 331.64 
L 790.532609 331.64 
L 794.499611 331.64 
L 798.466612 331.64 
L 802.433614 331.64 
L 806.400615 331.64 
L 810.367617 331.64 
L 814.334618 331.64 
L 818.30162 331.64 
L 822.268621 331.64 
L 826.235623 331.64 
L 830.202624 331.64 
L 834.169626 331.64 
L 838.136627 331.64 
L 842.103629 331.64 
L 846.07063 331.64 
L 850.037632 331.64 
L 854.004633 331.64 
L 857.971635 331.64 
L 861.938636 331.64 
L 861.938636 235.091436 
L 861.938636 235.091436 
L 857.971635 235.394187 
L 854.004633 235.465037 
L 850.037632 235.064085 
L 846.07063 235.279691 
L 842.103629 234.870011 
L 838.136627 236.121457 
L 834.169626 235.563093 
L 830.202624 235.436231 
L 826.235623 234.801488 
L 822.268621 234.807308 
L 818.30162 236.39802 
L 814.334618 237.924138 
L 810.367617 236.609262 
L 806.400615 235.714977 
L 802.433614 236.704262 
L 798.466612 237.223346 
L 794.499611 238.462426 
L 790.532609 234.858372 
L 786.565608 235.712649 
L 782.598606 234.399955 
L 778.631605 236.520226 
L 774.664603 234.030719 
L 770.697602 234.236141 
L 766.7306 236.506114 
L 762.763599 235.119515 
L 758.796597 233.26315 
L 754.829596 233.4725 
L 750.862594 235.486568 
L 746.895593 235.139009 
L 742.928591 235.239393 
L 738.96159 235.837619 
L 734.994588 235.545926 
L 731.027587 234.643057 
L 727.060585 236.812356 
L 723.093584 234.954682 
L 719.126582 235.578077 
L 715.159581 235.505918 
L 711.192579 234.40461 
L 707.225578 237.396762 
L 703.258576 235.934365 
L 699.291575 235.854932 
L 695.324573 235.437686 
L 691.357572 237.026798 
L 687.39057 235.896103 
L 683.423569 236.65538 
L 679.456567 237.841795 
L 675.489566 239.12321 
L 671.522564 237.477505 
L 667.555563 238.042416 
L 663.588561 235.861042 
L 659.62156 236.892226 
L 655.654558 236.907648 
L 651.687557 237.201378 
L 647.720555 239.064435 
L 643.753553 237.027671 
L 639.786552 240.193093 
L 635.81955 238.483957 
L 631.852549 236.74267 
L 627.885547 237.328821 
L 623.918546 235.488896 
L 619.951544 236.798972 
L 615.984543 237.598838 
L 612.017541 237.129218 
L 608.05054 236.525027 
L 604.083538 236.27145 
L 600.116537 236.826177 
L 596.149535 237.94567 
L 592.182534 237.528424 
L 588.215532 235.967972 
L 584.248531 236.755909 
L 580.281529 237.465866 
L 576.314528 237.033054 
L 572.347526 235.959098 
L 568.380525 237.185229 
L 564.413523 235.63598 
L 560.446522 237.702422 
L 556.47952 237.553156 
L 552.512519 236.193034 
L 548.545517 237.764689 
L 544.578516 236.262284 
L 540.611514 238.460243 
L 536.644513 238.357969 
L 532.677511 238.538368 
L 528.71051 237.115834 
L 524.743508 237.71537 
L 520.776507 236.619591 
L 516.809505 240.163123 
L 512.842504 238.125196 
L 508.875502 237.046584 
L 504.908501 236.555724 
L 500.941499 239.602722 
L 496.974498 238.607327 
L 493.007496 236.704262 
L 489.040495 239.396136 
L 485.073493 235.95997 
L 481.106492 237.107105 
L 477.13949 237.635791 
L 473.172489 237.266991 
L 469.205487 237.279211 
L 465.238486 237.703877 
L 461.271484 238.329891 
L 457.304483 237.556939 
L 453.337481 237.534534 
L 449.37048 237.938832 
L 445.403478 238.614601 
L 441.436477 237.635645 
L 437.469475 237.629535 
L 433.502474 237.71246 
L 429.535472 238.651117 
L 425.568471 236.136878 
L 421.601469 237.359955 
L 417.634468 237.653249 
L 413.667466 238.000662 
L 409.700465 239.001004 
L 405.733463 236.944164 
L 401.766462 235.482786 
L 397.79946 236.64956 
L 393.832459 236.910412 
L 389.865457 235.698246 
L 385.898456 236.212093 
L 381.931454 235.893921 
L 377.964453 237.225383 
L 373.997451 236.500586 
L 370.03045 237.681036 
L 366.063448 236.137314 
L 362.096447 235.522357 
L 358.129445 237.293323 
L 354.162443 236.109673 
L 350.195442 235.983393 
L 346.22844 235.640781 
L 342.261439 237.048912 
L 338.294437 236.16452 
L 334.327436 236.395256 
L 330.360434 236.686222 
L 326.393433 235.895521 
L 322.426431 236.532301 
L 318.45943 235.781172 
L 314.492428 236.508587 
L 310.525427 236.471198 
L 306.558425 235.603246 
L 302.591424 235.660566 
L 298.624422 237.199196 
L 294.657421 236.981553 
L 290.690419 237.644229 
L 286.723418 237.395889 
L 282.756416 236.454613 
L 278.789415 238.154147 
L 274.822413 238.474501 
L 270.855412 237.575561 
L 266.88841 237.535262 
L 262.921409 237.014432 
L 258.954407 239.416358 
L 254.987406 237.108269 
L 251.020404 236.946346 
L 247.053403 235.520611 
L 243.086401 236.230715 
L 239.1194 237.370575 
L 235.152398 236.569836 
L 231.185397 238.066275 
L 227.218395 238.880253 
L 223.251394 238.311414 
L 219.284392 236.901537 
L 215.317391 237.124126 
L 211.350389 238.818277 
L 207.383388 237.421494 
L 203.416386 235.859442 
L 199.449385 237.211416 
L 195.482383 236.795335 
L 191.515382 236.594422 
L 187.54838 236.450685 
L 183.581379 237.149877 
L 179.614377 237.777637 
L 175.647376 237.737192 
L 171.680374 238.518437 
L 167.713373 237.085719 
L 163.746371 239.49652 
L 159.77937 240.756113 
L 155.812368 240.400115 
L 151.845367 242.318892 
L 147.878365 237.33144 
L 143.911364 240.219716 
z
" clip-path="url(#p38bc9bddef)" style="fill: #1f77b4"/>
   </g>
   <g id="PolyCollection_2">
    <path d="M 143.911364 147.192135 
L 143.911364 240.219716 
L 147.878365 237.33144 
L 151.845367 242.318892 
L 155.812368 240.400115 
L 159.77937 240.756113 
L 163.746371 239.49652 
L 167.713373 237.085719 
L 171.680374 238.518437 
L 175.647376 237.737192 
L 179.614377 237.777637 
L 183.581379 237.149877 
L 187.54838 236.450685 
L 191.515382 236.594422 
L 195.482383 236.795335 
L 199.449385 237.211416 
L 203.416386 235.859442 
L 207.383388 237.421494 
L 211.350389 238.818277 
L 215.317391 237.124126 
L 219.284392 236.901537 
L 223.251394 238.311414 
L 227.218395 238.880253 
L 231.185397 238.066275 
L 235.152398 236.569836 
L 239.1194 237.370575 
L 243.086401 236.230715 
L 247.053403 235.520611 
L 251.020404 236.946346 
L 254.987406 237.108269 
L 258.954407 239.416358 
L 262.921409 237.014432 
L 266.88841 237.535262 
L 270.855412 237.575561 
L 274.822413 238.474501 
L 278.789415 238.154147 
L 282.756416 236.454613 
L 286.723418 237.395889 
L 290.690419 237.644229 
L 294.657421 236.981553 
L 298.624422 237.199196 
L 302.591424 235.660566 
L 306.558425 235.603246 
L 310.525427 236.471198 
L 314.492428 236.508587 
L 318.45943 235.781172 
L 322.426431 236.532301 
L 326.393433 235.895521 
L 330.360434 236.686222 
L 334.327436 236.395256 
L 338.294437 236.16452 
L 342.261439 237.048912 
L 346.22844 235.640781 
L 350.195442 235.983393 
L 354.162443 236.109673 
L 358.129445 237.293323 
L 362.096447 235.522357 
L 366.063448 236.137314 
L 370.03045 237.681036 
L 373.997451 236.500586 
L 377.964453 237.225383 
L 381.931454 235.893921 
L 385.898456 236.212093 
L 389.865457 235.698246 
L 393.832459 236.910412 
L 397.79946 236.64956 
L 401.766462 235.482786 
L 405.733463 236.944164 
L 409.700465 239.001004 
L 413.667466 238.000662 
L 417.634468 237.653249 
L 421.601469 237.359955 
L 425.568471 236.136878 
L 429.535472 238.651117 
L 433.502474 237.71246 
L 437.469475 237.629535 
L 441.436477 237.635645 
L 445.403478 238.614601 
L 449.37048 237.938832 
L 453.337481 237.534534 
L 457.304483 237.556939 
L 461.271484 238.329891 
L 465.238486 237.703877 
L 469.205487 237.279211 
L 473.172489 237.266991 
L 477.13949 237.635791 
L 481.106492 237.107105 
L 485.073493 235.95997 
L 489.040495 239.396136 
L 493.007496 236.704262 
L 496.974498 238.607327 
L 500.941499 239.602722 
L 504.908501 236.555724 
L 508.875502 237.046584 
L 512.842504 238.125196 
L 516.809505 240.163123 
L 520.776507 236.619591 
L 524.743508 237.71537 
L 528.71051 237.115834 
L 532.677511 238.538368 
L 536.644513 238.357969 
L 540.611514 238.460243 
L 544.578516 236.262284 
L 548.545517 237.764689 
L 552.512519 236.193034 
L 556.47952 237.553156 
L 560.446522 237.702422 
L 564.413523 235.63598 
L 568.380525 237.185229 
L 572.347526 235.959098 
L 576.314528 237.033054 
L 580.281529 237.465866 
L 584.248531 236.755909 
L 588.215532 235.967972 
L 592.182534 237.528424 
L 596.149535 237.94567 
L 600.116537 236.826177 
L 604.083538 236.27145 
L 608.05054 236.525027 
L 612.017541 237.129218 
L 615.984543 237.598838 
L 619.951544 236.798972 
L 623.918546 235.488896 
L 627.885547 237.328821 
L 631.852549 236.74267 
L 635.81955 238.483957 
L 639.786552 240.193093 
L 643.753553 237.027671 
L 647.720555 239.064435 
L 651.687557 237.201378 
L 655.654558 236.907648 
L 659.62156 236.892226 
L 663.588561 235.861042 
L 667.555563 238.042416 
L 671.522564 237.477505 
L 675.489566 239.12321 
L 679.456567 237.841795 
L 683.423569 236.65538 
L 687.39057 235.896103 
L 691.357572 237.026798 
L 695.324573 235.437686 
L 699.291575 235.854932 
L 703.258576 235.934365 
L 707.225578 237.396762 
L 711.192579 234.40461 
L 715.159581 235.505918 
L 719.126582 235.578077 
L 723.093584 234.954682 
L 727.060585 236.812356 
L 731.027587 234.643057 
L 734.994588 235.545926 
L 738.96159 235.837619 
L 742.928591 235.239393 
L 746.895593 235.139009 
L 750.862594 235.486568 
L 754.829596 233.4725 
L 758.796597 233.26315 
L 762.763599 235.119515 
L 766.7306 236.506114 
L 770.697602 234.236141 
L 774.664603 234.030719 
L 778.631605 236.520226 
L 782.598606 234.399955 
L 786.565608 235.712649 
L 790.532609 234.858372 
L 794.499611 238.462426 
L 798.466612 237.223346 
L 802.433614 236.704262 
L 806.400615 235.714977 
L 810.367617 236.609262 
L 814.334618 237.924138 
L 818.30162 236.39802 
L 822.268621 234.807308 
L 826.235623 234.801488 
L 830.202624 235.436231 
L 834.169626 235.563093 
L 838.136627 236.121457 
L 842.103629 234.870011 
L 846.07063 235.279691 
L 850.037632 235.064085 
L 854.004633 235.465037 
L 857.971635 235.394187 
L 861.938636 235.091436 
L 861.938636 235.091436 
L 861.938636 235.091436 
L 857.971635 140.002068 
L 854.004633 139.995958 
L 850.037632 140.721482 
L 846.07063 139.059047 
L 842.103629 139.927144 
L 838.136627 140.256227 
L 834.169626 141.904551 
L 830.202624 139.789954 
L 826.235623 139.54496 
L 822.268621 139.019766 
L 818.30162 141.683999 
L 814.334618 142.95974 
L 810.367617 144.033987 
L 806.400615 141.695928 
L 802.433614 142.153618 
L 798.466612 143.038883 
L 794.499611 146.305561 
L 790.532609 141.626242 
L 786.565608 139.80072 
L 782.598606 140.77502 
L 778.631605 140.707516 
L 774.664603 139.334883 
L 770.697602 137.520999 
L 766.7306 140.375814 
L 762.763599 141.882438 
L 758.796597 136.690872 
L 754.829596 137.340455 
L 750.862594 139.572457 
L 746.895593 140.106816 
L 742.928591 138.813471 
L 738.96159 141.234165 
L 734.994588 140.086303 
L 731.027587 139.566201 
L 727.060585 141.279556 
L 723.093584 140.366794 
L 719.126582 140.177666 
L 715.159581 140.441573 
L 711.192579 139.280181 
L 707.225578 141.381685 
L 703.258576 143.09824 
L 699.291575 141.58056 
L 695.324573 139.987374 
L 691.357572 142.476009 
L 687.39057 141.164187 
L 683.423569 141.580269 
L 679.456567 144.356524 
L 675.489566 146.266571 
L 671.522564 145.899372 
L 667.555563 144.643562 
L 663.588561 142.83186 
L 659.62156 141.832973 
L 655.654558 143.61165 
L 651.687557 143.929094 
L 647.720555 145.332424 
L 643.753553 144.855531 
L 639.786552 148.871301 
L 635.81955 147.392756 
L 631.852549 144.623049 
L 627.885547 142.37708 
L 623.918546 142.249782 
L 619.951544 141.372228 
L 615.984543 144.339357 
L 612.017541 144.81625 
L 608.05054 141.911534 
L 604.083538 142.760574 
L 600.116537 141.759213 
L 596.149535 144.233881 
L 592.182534 144.895393 
L 588.215532 141.997369 
L 584.248531 142.641278 
L 580.281529 142.364714 
L 576.314528 143.758879 
L 572.347526 141.241875 
L 568.380525 142.055417 
L 564.413523 142.003043 
L 560.446522 143.461075 
L 556.47952 144.027295 
L 552.512519 142.664118 
L 548.545517 144.077487 
L 544.578516 142.22185 
L 540.611514 144.432466 
L 536.644513 145.123511 
L 532.677511 147.673684 
L 528.71051 143.658205 
L 524.743508 144.207112 
L 520.776507 142.984036 
L 516.809505 148.161053 
L 512.842504 148.106642 
L 508.875502 142.850191 
L 504.908501 142.100662 
L 500.941499 146.601765 
L 496.974498 147.797781 
L 493.007496 142.741806 
L 489.040495 145.717809 
L 485.073493 144.056974 
L 481.106492 142.617418 
L 477.13949 144.240573 
L 473.172489 144.952422 
L 469.205487 142.462042 
L 465.238486 145.269576 
L 461.271484 145.841761 
L 457.304483 144.411807 
L 453.337481 144.377619 
L 449.37048 143.634491 
L 445.403478 146.553901 
L 441.436477 144.803884 
L 437.469475 145.4379 
L 433.502474 144.423446 
L 429.535472 144.600062 
L 425.568471 144.324517 
L 421.601469 142.452295 
L 417.634468 145.743269 
L 413.667466 145.348864 
L 409.700465 146.053148 
L 405.733463 146.002374 
L 401.766462 140.12762 
L 397.79946 141.792965 
L 393.832459 143.450309 
L 389.865457 139.555144 
L 385.898456 141.680071 
L 381.931454 141.267917 
L 377.964453 142.733223 
L 373.997451 142.228978 
L 370.03045 144.039516 
L 366.063448 141.829045 
L 362.096447 141.346187 
L 358.129445 142.759701 
L 354.162443 143.676972 
L 350.195442 139.980682 
L 346.22844 142.172094 
L 342.261439 142.320633 
L 338.294437 142.284989 
L 334.327436 141.989513 
L 330.360434 140.101579 
L 326.393433 141.981221 
L 322.426431 142.067929 
L 318.45943 141.211906 
L 314.492428 142.861248 
L 310.525427 142.006971 
L 306.558425 141.177426 
L 302.591424 140.160499 
L 298.624422 142.772794 
L 294.657421 143.469949 
L 290.690419 142.964687 
L 286.723418 145.652487 
L 282.756416 142.395557 
L 278.789415 145.629646 
L 274.822413 145.046695 
L 270.855412 145.69555 
L 266.88841 144.968862 
L 262.921409 142.915222 
L 258.954407 146.35648 
L 254.987406 144.929291 
L 251.020404 143.12981 
L 247.053403 141.748884 
L 243.086401 141.182955 
L 239.1194 142.823713 
L 235.152398 143.195132 
L 231.185397 144.331355 
L 227.218395 146.720915 
L 223.251394 146.006302 
L 219.284392 143.999217 
L 215.317391 143.721635 
L 211.350389 145.847289 
L 207.383388 144.673386 
L 203.416386 141.581724 
L 199.449385 142.53362 
L 195.482383 143.792049 
L 191.515382 141.593363 
L 187.54838 142.6647 
L 183.581379 142.885835 
L 179.614377 143.943933 
L 175.647376 144.986465 
L 171.680374 144.696809 
L 167.713373 144.753692 
L 163.746371 146.723243 
L 159.77937 150.204945 
L 155.812368 150.484564 
L 151.845367 152.374389 
L 147.878365 148.365165 
L 143.911364 147.192135 
z
" clip-path="url(#p38bc9bddef)" style="fill: #ff7f0e"/>
   </g>
   <g id="PolyCollection_3">
    <path d="M 143.911364 52.117024 
L 143.911364 147.192135 
L 147.878365 148.365165 
L 151.845367 152.374389 
L 155.812368 150.484564 
L 159.77937 150.204945 
L 163.746371 146.723243 
L 167.713373 144.753692 
L 171.680374 144.696809 
L 175.647376 144.986465 
L 179.614377 143.943933 
L 183.581379 142.885835 
L 187.54838 142.6647 
L 191.515382 141.593363 
L 195.482383 143.792049 
L 199.449385 142.53362 
L 203.416386 141.581724 
L 207.383388 144.673386 
L 211.350389 145.847289 
L 215.317391 143.721635 
L 219.284392 143.999217 
L 223.251394 146.006302 
L 227.218395 146.720915 
L 231.185397 144.331355 
L 235.152398 143.195132 
L 239.1194 142.823713 
L 243.086401 141.182955 
L 247.053403 141.748884 
L 251.020404 143.12981 
L 254.987406 144.929291 
L 258.954407 146.35648 
L 262.921409 142.915222 
L 266.88841 144.968862 
L 270.855412 145.69555 
L 274.822413 145.046695 
L 278.789415 145.629646 
L 282.756416 142.395557 
L 286.723418 145.652487 
L 290.690419 142.964687 
L 294.657421 143.469949 
L 298.624422 142.772794 
L 302.591424 140.160499 
L 306.558425 141.177426 
L 310.525427 142.006971 
L 314.492428 142.861248 
L 318.45943 141.211906 
L 322.426431 142.067929 
L 326.393433 141.981221 
L 330.360434 140.101579 
L 334.327436 141.989513 
L 338.294437 142.284989 
L 342.261439 142.320633 
L 346.22844 142.172094 
L 350.195442 139.980682 
L 354.162443 143.676972 
L 358.129445 142.759701 
L 362.096447 141.346187 
L 366.063448 141.829045 
L 370.03045 144.039516 
L 373.997451 142.228978 
L 377.964453 142.733223 
L 381.931454 141.267917 
L 385.898456 141.680071 
L 389.865457 139.555144 
L 393.832459 143.450309 
L 397.79946 141.792965 
L 401.766462 140.12762 
L 405.733463 146.002374 
L 409.700465 146.053148 
L 413.667466 145.348864 
L 417.634468 145.743269 
L 421.601469 142.452295 
L 425.568471 144.324517 
L 429.535472 144.600062 
L 433.502474 144.423446 
L 437.469475 145.4379 
L 441.436477 144.803884 
L 445.403478 146.553901 
L 449.37048 143.634491 
L 453.337481 144.377619 
L 457.304483 144.411807 
L 461.271484 145.841761 
L 465.238486 145.269576 
L 469.205487 142.462042 
L 473.172489 144.952422 
L 477.13949 144.240573 
L 481.106492 142.617418 
L 485.073493 144.056974 
L 489.040495 145.717809 
L 493.007496 142.741806 
L 496.974498 147.797781 
L 500.941499 146.601765 
L 504.908501 142.100662 
L 508.875502 142.850191 
L 512.842504 148.106642 
L 516.809505 148.161053 
L 520.776507 142.984036 
L 524.743508 144.207112 
L 528.71051 143.658205 
L 532.677511 147.673684 
L 536.644513 145.123511 
L 540.611514 144.432466 
L 544.578516 142.22185 
L 548.545517 144.077487 
L 552.512519 142.664118 
L 556.47952 144.027295 
L 560.446522 143.461075 
L 564.413523 142.003043 
L 568.380525 142.055417 
L 572.347526 141.241875 
L 576.314528 143.758879 
L 580.281529 142.364714 
L 584.248531 142.641278 
L 588.215532 141.997369 
L 592.182534 144.895393 
L 596.149535 144.233881 
L 600.116537 141.759213 
L 604.083538 142.760574 
L 608.05054 141.911534 
L 612.017541 144.81625 
L 615.984543 144.339357 
L 619.951544 141.372228 
L 623.918546 142.249782 
L 627.885547 142.37708 
L 631.852549 144.623049 
L 635.81955 147.392756 
L 639.786552 148.871301 
L 643.753553 144.855531 
L 647.720555 145.332424 
L 651.687557 143.929094 
L 655.654558 143.61165 
L 659.62156 141.832973 
L 663.588561 142.83186 
L 667.555563 144.643562 
L 671.522564 145.899372 
L 675.489566 146.266571 
L 679.456567 144.356524 
L 683.423569 141.580269 
L 687.39057 141.164187 
L 691.357572 142.476009 
L 695.324573 139.987374 
L 699.291575 141.58056 
L 703.258576 143.09824 
L 707.225578 141.381685 
L 711.192579 139.280181 
L 715.159581 140.441573 
L 719.126582 140.177666 
L 723.093584 140.366794 
L 727.060585 141.279556 
L 731.027587 139.566201 
L 734.994588 140.086303 
L 738.96159 141.234165 
L 742.928591 138.813471 
L 746.895593 140.106816 
L 750.862594 139.572457 
L 754.829596 137.340455 
L 758.796597 136.690872 
L 762.763599 141.882438 
L 766.7306 140.375814 
L 770.697602 137.520999 
L 774.664603 139.334883 
L 778.631605 140.707516 
L 782.598606 140.77502 
L 786.565608 139.80072 
L 790.532609 141.626242 
L 794.499611 146.305561 
L 798.466612 143.038883 
L 802.433614 142.153618 
L 806.400615 141.695928 
L 810.367617 144.033987 
L 814.334618 142.95974 
L 818.30162 141.683999 
L 822.268621 139.019766 
L 826.235623 139.54496 
L 830.202624 139.789954 
L 834.169626 141.904551 
L 838.136627 140.256227 
L 842.103629 139.927144 
L 846.07063 139.059047 
L 850.037632 140.721482 
L 854.004633 139.995958 
L 857.971635 140.002068 
L 861.938636 235.091436 
L 861.938636 138.711487 
L 861.938636 138.711487 
L 857.971635 43.99281 
L 854.004633 43.663437 
L 850.037632 44.511603 
L 846.07063 41.339198 
L 842.103629 44.585072 
L 838.136627 44.387943 
L 834.169626 46.924004 
L 830.202624 43.761056 
L 826.235623 42.832728 
L 822.268621 42.154049 
L 818.30162 45.46219 
L 814.334618 48.063428 
L 810.367617 49.209253 
L 806.400615 45.684052 
L 802.433614 47.823236 
L 798.466612 46.257983 
L 794.499611 54.768891 
L 790.532609 45.992621 
L 786.565608 42.973701 
L 782.598606 45.622949 
L 778.631605 43.956876 
L 774.664603 42.943586 
L 770.697602 39.550338 
L 766.7306 43.180869 
L 762.763599 47.349252 
L 758.796597 38.84329 
L 754.829596 39.22722 
L 750.862594 43.785933 
L 746.895593 43.784624 
L 742.928591 42.798539 
L 738.96159 44.467376 
L 734.994588 44.535462 
L 731.027587 43.71712 
L 727.060585 44.858726 
L 723.093584 45.653791 
L 719.126582 42.907215 
L 715.159581 44.963183 
L 711.192579 43.154537 
L 707.225578 43.626629 
L 703.258576 48.6586 
L 699.291575 45.856886 
L 695.324573 43.27136 
L 691.357572 47.825418 
L 687.39057 44.954454 
L 683.423569 46.338871 
L 679.456567 49.835122 
L 675.489566 52.791339 
L 671.522564 53.857002 
L 667.555563 49.265992 
L 663.588561 48.430337 
L 659.62156 46.328105 
L 655.654558 49.032346 
L 651.687557 49.299744 
L 647.720555 50.665976 
L 643.753553 51.021973 
L 639.786552 56.066455 
L 635.81955 54.736884 
L 631.852549 50.739736 
L 627.885547 46.221903 
L 623.918546 47.989232 
L 619.951544 44.823374 
L 615.984543 49.959364 
L 612.017541 50.398141 
L 608.05054 47.206387 
L 604.083538 48.215313 
L 600.116537 45.887292 
L 596.149535 49.108724 
L 592.182534 51.287771 
L 588.215532 46.60045 
L 584.248531 47.573005 
L 580.281529 47.133936 
L 576.314528 49.764271 
L 572.347526 46.063908 
L 568.380525 45.615966 
L 564.413523 47.147321 
L 560.446522 48.655835 
L 556.47952 49.571943 
L 552.512519 47.945296 
L 548.545517 48.279616 
L 544.578516 48.067793 
L 540.611514 48.850201 
L 536.644513 51.248054 
L 532.677511 54.644503 
L 528.71051 49.104796 
L 524.743508 50.853503 
L 520.776507 48.026912 
L 516.809505 54.963984 
L 512.842504 56.707599 
L 508.875502 47.567476 
L 504.908501 47.086509 
L 500.941499 52.132591 
L 496.974498 55.013302 
L 493.007496 48.2914 
L 489.040495 50.978764 
L 485.073493 50.59047 
L 481.106492 46.858391 
L 477.13949 50.044181 
L 473.172489 51.498721 
L 469.205487 46.782304 
L 465.238486 52.124298 
L 461.271484 51.650169 
L 457.304483 50.657974 
L 453.337481 50.352314 
L 449.37048 48.402695 
L 445.403478 52.846913 
L 441.436477 50.444114 
L 437.469475 51.7635 
L 433.502474 50.620585 
L 429.535472 49.095485 
L 425.568471 51.849044 
L 421.601469 46.161527 
L 417.634468 52.593627 
L 413.667466 51.028083 
L 409.700465 51.630529 
L 405.733463 53.369198 
L 401.766462 43.876569 
L 397.79946 46.671446 
L 393.832459 48.632995 
L 389.865457 43.280671 
L 385.898456 46.090677 
L 381.931454 45.706747 
L 377.964453 46.840643 
L 373.997451 47.513938 
L 370.03045 48.799136 
L 366.063448 47.23141 
L 362.096447 44.948053 
L 358.129445 47.093201 
L 354.162443 49.054896 
L 350.195442 43.778077 
L 346.22844 47.826291 
L 342.261439 45.168023 
L 338.294437 47.282766 
L 334.327436 46.894471 
L 330.360434 43.929234 
L 326.393433 46.996746 
L 322.426431 45.40356 
L 318.45943 45.710384 
L 314.492428 48.08816 
L 310.525427 46.430526 
L 306.558425 45.268115 
L 302.591424 44.150805 
L 298.624422 47.79734 
L 294.657421 48.896901 
L 290.690419 48.948402 
L 286.723418 51.752444 
L 282.756416 47.132627 
L 278.789415 51.567826 
L 274.822413 51.771647 
L 270.855412 52.050393 
L 266.88841 50.411526 
L 262.921409 47.741329 
L 258.954407 51.164255 
L 254.987406 51.313667 
L 251.020404 47.989959 
L 247.053403 46.234123 
L 243.086401 44.06046 
L 239.1194 47.817853 
L 235.152398 47.492261 
L 231.185397 50.667721 
L 227.218395 52.870772 
L 223.251394 51.679411 
L 219.284392 49.978277 
L 215.317391 48.376071 
L 211.350389 51.220848 
L 207.383388 51.157418 
L 203.416386 45.596907 
L 199.449385 47.301824 
L 195.482383 50.182535 
L 191.515382 45.620767 
L 187.54838 47.629016 
L 183.581379 46.642931 
L 179.614377 49.438826 
L 175.647376 50.963489 
L 171.680374 49.474032 
L 167.713373 51.184041 
L 163.746371 52.411337 
L 159.77937 58.418335 
L 155.812368 59.587583 
L 151.845367 61.382553 
L 147.878365 57.794503 
L 143.911364 52.117024 
z
" clip-path="url(#p38bc9bddef)" style="fill: #2ca02c"/>
   </g>
   <g id="matplotlib.axis_1">
    <g id="xtick_1">
     <g id="line2d_1">
      <path d="M 143.911364 331.64 
L 143.911364 23.76 
" clip-path="url(#p38bc9bddef)" style="fill: none; stroke-dasharray: 5.12,1.28,0.8,1.28; stroke-dashoffset: 0; stroke: #b0b0b0; stroke-width: 0.8"/>
     </g>
     <g id="line2d_2">
      <defs>
       <path id="mb1775f31d9" d="M 0 0 
L 0 3.5 
" style="stroke: #000000; stroke-width: 0.8"/>
      </defs>
      <g>
       <use xlink:href="#mb1775f31d9" x="143.911364" y="331.64" style="stroke: #000000; stroke-width: 0.8"/>
      </g>
     </g>
     <g id="text_1">
      <!-- 0 -->
      <g transform="translate(136.912614 355.356563)scale(0.22 -0.22)">
       <defs>
        <path id="DejaVuSans-30" d="M 2034 4250 
Q 1547 4250 1301 3770 
Q 1056 3291 1056 2328 
Q 1056 1369 1301 889 
Q 1547 409 2034 409 
Q 2525 409 2770 889 
Q 3016 1369 3016 2328 
Q 3016 3291 2770 3770 
Q 2525 4250 2034 4250 
z
M 2034 4750 
Q 2819 4750 3233 4129 
Q 3647 3509 3647 2328 
Q 3647 1150 3233 529 
Q 2819 -91 2034 -91 
Q 1250 -91 836 529 
Q 422 1150 422 2328 
Q 422 3509 836 4129 
Q 1250 4750 2034 4750 
z
" transform="scale(0.015625)"/>
       </defs>
       <use xlink:href="#DejaVuSans-30"/>
      </g>
     </g>
    </g>
    <g id="xtick_2">
     <g id="line2d_3">
      <path d="M 243.086401 331.64 
L 243.086401 23.76 
" clip-path="url(#p38bc9bddef)" style="fill: none; stroke-dasharray: 5.12,1.28,0.8,1.28; stroke-dashoffset: 0; stroke: #b0b0b0; stroke-width: 0.8"/>
     </g>
     <g id="line2d_4">
      <g>
       <use xlink:href="#mb1775f31d9" x="243.086401" y="331.64" style="stroke: #000000; stroke-width: 0.8"/>
      </g>
     </g>
     <g id="text_2">
      <!-- 25 -->
      <g transform="translate(229.088901 355.356563)scale(0.22 -0.22)">
       <defs>
        <path id="DejaVuSans-32" d="M 1228 531 
L 3431 531 
L 3431 0 
L 469 0 
L 469 531 
Q 828 903 1448 1529 
Q 2069 2156 2228 2338 
Q 2531 2678 2651 2914 
Q 2772 3150 2772 3378 
Q 2772 3750 2511 3984 
Q 2250 4219 1831 4219 
Q 1534 4219 1204 4116 
Q 875 4013 500 3803 
L 500 4441 
Q 881 4594 1212 4672 
Q 1544 4750 1819 4750 
Q 2544 4750 2975 4387 
Q 3406 4025 3406 3419 
Q 3406 3131 3298 2873 
Q 3191 2616 2906 2266 
Q 2828 2175 2409 1742 
Q 1991 1309 1228 531 
z
" transform="scale(0.015625)"/>
        <path id="DejaVuSans-35" d="M 691 4666 
L 3169 4666 
L 3169 4134 
L 1269 4134 
L 1269 2991 
Q 1406 3038 1543 3061 
Q 1681 3084 1819 3084 
Q 2600 3084 3056 2656 
Q 3513 2228 3513 1497 
Q 3513 744 3044 326 
Q 2575 -91 1722 -91 
Q 1428 -91 1123 -41 
Q 819 9 494 109 
L 494 744 
Q 775 591 1075 516 
Q 1375 441 1709 441 
Q 2250 441 2565 725 
Q 2881 1009 2881 1497 
Q 2881 1984 2565 2268 
Q 2250 2553 1709 2553 
Q 1456 2553 1204 2497 
Q 953 2441 691 2322 
L 691 4666 
z
" transform="scale(0.015625)"/>
       </defs>
       <use xlink:href="#DejaVuSans-32"/>
       <use xlink:href="#DejaVuSans-35" x="63.623047"/>
      </g>
     </g>
    </g>
    <g id="xtick_3">
     <g id="line2d_5">
      <path d="M 342.261439 331.64 
L 342.261439 23.76 
" clip-path="url(#p38bc9bddef)" style="fill: none; stroke-dasharray: 5.12,1.28,0.8,1.28; stroke-dashoffset: 0; stroke: #b0b0b0; stroke-width: 0.8"/>
     </g>
     <g id="line2d_6">
      <g>
       <use xlink:href="#mb1775f31d9" x="342.261439" y="331.64" style="stroke: #000000; stroke-width: 0.8"/>
      </g>
     </g>
     <g id="text_3">
      <!-- 50 -->
      <g transform="translate(328.263939 355.356563)scale(0.22 -0.22)">
       <use xlink:href="#DejaVuSans-35"/>
       <use xlink:href="#DejaVuSans-30" x="63.623047"/>
      </g>
     </g>
    </g>
    <g id="xtick_4">
     <g id="line2d_7">
      <path d="M 441.436477 331.64 
L 441.436477 23.76 
" clip-path="url(#p38bc9bddef)" style="fill: none; stroke-dasharray: 5.12,1.28,0.8,1.28; stroke-dashoffset: 0; stroke: #b0b0b0; stroke-width: 0.8"/>
     </g>
     <g id="line2d_8">
      <g>
       <use xlink:href="#mb1775f31d9" x="441.436477" y="331.64" style="stroke: #000000; stroke-width: 0.8"/>
      </g>
     </g>
     <g id="text_4">
      <!-- 75 -->
      <g transform="translate(427.438977 355.356563)scale(0.22 -0.22)">
       <defs>
        <path id="DejaVuSans-37" d="M 525 4666 
L 3525 4666 
L 3525 4397 
L 1831 0 
L 1172 0 
L 2766 4134 
L 525 4134 
L 525 4666 
z
" transform="scale(0.015625)"/>
       </defs>
       <use xlink:href="#DejaVuSans-37"/>
       <use xlink:href="#DejaVuSans-35" x="63.623047"/>
      </g>
     </g>
    </g>
    <g id="xtick_5">
     <g id="line2d_9">
      <path d="M 540.611514 331.64 
L 540.611514 23.76 
" clip-path="url(#p38bc9bddef)" style="fill: none; stroke-dasharray: 5.12,1.28,0.8,1.28; stroke-dashoffset: 0; stroke: #b0b0b0; stroke-width: 0.8"/>
     </g>
     <g id="line2d_10">
      <g>
       <use xlink:href="#mb1775f31d9" x="540.611514" y="331.64" style="stroke: #000000; stroke-width: 0.8"/>
      </g>
     </g>
     <g id="text_5">
      <!-- 100 -->
      <g transform="translate(519.615264 355.356563)scale(0.22 -0.22)">
       <defs>
        <path id="DejaVuSans-31" d="M 794 531 
L 1825 531 
L 1825 4091 
L 703 3866 
L 703 4441 
L 1819 4666 
L 2450 4666 
L 2450 531 
L 3481 531 
L 3481 0 
L 794 0 
L 794 531 
z
" transform="scale(0.015625)"/>
       </defs>
       <use xlink:href="#DejaVuSans-31"/>
       <use xlink:href="#DejaVuSans-30" x="63.623047"/>
       <use xlink:href="#DejaVuSans-30" x="127.246094"/>
      </g>
     </g>
    </g>
    <g id="xtick_6">
     <g id="line2d_11">
      <path d="M 639.786552 331.64 
L 639.786552 23.76 
" clip-path="url(#p38bc9bddef)" style="fill: none; stroke-dasharray: 5.12,1.28,0.8,1.28; stroke-dashoffset: 0; stroke: #b0b0b0; stroke-width: 0.8"/>
     </g>
     <g id="line2d_12">
      <g>
       <use xlink:href="#mb1775f31d9" x="639.786552" y="331.64" style="stroke: #000000; stroke-width: 0.8"/>
      </g>
     </g>
     <g id="text_6">
      <!-- 125 -->
      <g transform="translate(618.790302 355.356563)scale(0.22 -0.22)">
       <use xlink:href="#DejaVuSans-31"/>
       <use xlink:href="#DejaVuSans-32" x="63.623047"/>
       <use xlink:href="#DejaVuSans-35" x="127.246094"/>
      </g>
     </g>
    </g>
    <g id="xtick_7">
     <g id="line2d_13">
      <path d="M 738.96159 331.64 
L 738.96159 23.76 
" clip-path="url(#p38bc9bddef)" style="fill: none; stroke-dasharray: 5.12,1.28,0.8,1.28; stroke-dashoffset: 0; stroke: #b0b0b0; stroke-width: 0.8"/>
     </g>
     <g id="line2d_14">
      <g>
       <use xlink:href="#mb1775f31d9" x="738.96159" y="331.64" style="stroke: #000000; stroke-width: 0.8"/>
      </g>
     </g>
     <g id="text_7">
      <!-- 150 -->
      <g transform="translate(717.96534 355.356563)scale(0.22 -0.22)">
       <use xlink:href="#DejaVuSans-31"/>
       <use xlink:href="#DejaVuSans-35" x="63.623047"/>
       <use xlink:href="#DejaVuSans-30" x="127.246094"/>
      </g>
     </g>
    </g>
    <g id="xtick_8">
     <g id="line2d_15">
      <path d="M 838.136627 331.64 
L 838.136627 23.76 
" clip-path="url(#p38bc9bddef)" style="fill: none; stroke-dasharray: 5.12,1.28,0.8,1.28; stroke-dashoffset: 0; stroke: #b0b0b0; stroke-width: 0.8"/>
     </g>
     <g id="line2d_16">
      <g>
       <use xlink:href="#mb1775f31d9" x="838.136627" y="331.64" style="stroke: #000000; stroke-width: 0.8"/>
      </g>
     </g>
     <g id="text_8">
      <!-- 175 -->
      <g transform="translate(817.140377 355.356563)scale(0.22 -0.22)">
       <use xlink:href="#DejaVuSans-31"/>
       <use xlink:href="#DejaVuSans-37" x="63.623047"/>
       <use xlink:href="#DejaVuSans-35" x="127.246094"/>
      </g>
     </g>
    </g>
    <g id="text_9">
     <!-- Time (s) -->
     <g transform="translate(454.135625 382.168125)scale(0.24 -0.24)">
      <defs>
       <path id="DejaVuSans-54" d="M -19 4666 
L 3928 4666 
L 3928 4134 
L 2272 4134 
L 2272 0 
L 1638 0 
L 1638 4134 
L -19 4134 
L -19 4666 
z
" transform="scale(0.015625)"/>
       <path id="DejaVuSans-69" d="M 603 3500 
L 1178 3500 
L 1178 0 
L 603 0 
L 603 3500 
z
M 603 4863 
L 1178 4863 
L 1178 4134 
L 603 4134 
L 603 4863 
z
" transform="scale(0.015625)"/>
       <path id="DejaVuSans-6d" d="M 3328 2828 
Q 3544 3216 3844 3400 
Q 4144 3584 4550 3584 
Q 5097 3584 5394 3201 
Q 5691 2819 5691 2113 
L 5691 0 
L 5113 0 
L 5113 2094 
Q 5113 2597 4934 2840 
Q 4756 3084 4391 3084 
Q 3944 3084 3684 2787 
Q 3425 2491 3425 1978 
L 3425 0 
L 2847 0 
L 2847 2094 
Q 2847 2600 2669 2842 
Q 2491 3084 2119 3084 
Q 1678 3084 1418 2786 
Q 1159 2488 1159 1978 
L 1159 0 
L 581 0 
L 581 3500 
L 1159 3500 
L 1159 2956 
Q 1356 3278 1631 3431 
Q 1906 3584 2284 3584 
Q 2666 3584 2933 3390 
Q 3200 3197 3328 2828 
z
" transform="scale(0.015625)"/>
       <path id="DejaVuSans-65" d="M 3597 1894 
L 3597 1613 
L 953 1613 
Q 991 1019 1311 708 
Q 1631 397 2203 397 
Q 2534 397 2845 478 
Q 3156 559 3463 722 
L 3463 178 
Q 3153 47 2828 -22 
Q 2503 -91 2169 -91 
Q 1331 -91 842 396 
Q 353 884 353 1716 
Q 353 2575 817 3079 
Q 1281 3584 2069 3584 
Q 2775 3584 3186 3129 
Q 3597 2675 3597 1894 
z
M 3022 2063 
Q 3016 2534 2758 2815 
Q 2500 3097 2075 3097 
Q 1594 3097 1305 2825 
Q 1016 2553 972 2059 
L 3022 2063 
z
" transform="scale(0.015625)"/>
       <path id="DejaVuSans-20" transform="scale(0.015625)"/>
       <path id="DejaVuSans-28" d="M 1984 4856 
Q 1566 4138 1362 3434 
Q 1159 2731 1159 2009 
Q 1159 1288 1364 580 
Q 1569 -128 1984 -844 
L 1484 -844 
Q 1016 -109 783 600 
Q 550 1309 550 2009 
Q 550 2706 781 3412 
Q 1013 4119 1484 4856 
L 1984 4856 
z
" transform="scale(0.015625)"/>
       <path id="DejaVuSans-73" d="M 2834 3397 
L 2834 2853 
Q 2591 2978 2328 3040 
Q 2066 3103 1784 3103 
Q 1356 3103 1142 2972 
Q 928 2841 928 2578 
Q 928 2378 1081 2264 
Q 1234 2150 1697 2047 
L 1894 2003 
Q 2506 1872 2764 1633 
Q 3022 1394 3022 966 
Q 3022 478 2636 193 
Q 2250 -91 1575 -91 
Q 1294 -91 989 -36 
Q 684 19 347 128 
L 347 722 
Q 666 556 975 473 
Q 1284 391 1588 391 
Q 1994 391 2212 530 
Q 2431 669 2431 922 
Q 2431 1156 2273 1281 
Q 2116 1406 1581 1522 
L 1381 1569 
Q 847 1681 609 1914 
Q 372 2147 372 2553 
Q 372 3047 722 3315 
Q 1072 3584 1716 3584 
Q 2034 3584 2315 3537 
Q 2597 3491 2834 3397 
z
" transform="scale(0.015625)"/>
       <path id="DejaVuSans-29" d="M 513 4856 
L 1013 4856 
Q 1481 4119 1714 3412 
Q 1947 2706 1947 2009 
Q 1947 1309 1714 600 
Q 1481 -109 1013 -844 
L 513 -844 
Q 928 -128 1133 580 
Q 1338 1288 1338 2009 
Q 1338 2731 1133 3434 
Q 928 4138 513 4856 
z
" transform="scale(0.015625)"/>
      </defs>
      <use xlink:href="#DejaVuSans-54"/>
      <use xlink:href="#DejaVuSans-69" x="57.958984"/>
      <use xlink:href="#DejaVuSans-6d" x="85.742188"/>
      <use xlink:href="#DejaVuSans-65" x="183.154297"/>
      <use xlink:href="#DejaVuSans-20" x="244.677734"/>
      <use xlink:href="#DejaVuSans-28" x="276.464844"/>
      <use xlink:href="#DejaVuSans-73" x="315.478516"/>
      <use xlink:href="#DejaVuSans-29" x="367.578125"/>
     </g>
    </g>
   </g>
   <g id="matplotlib.axis_2">
    <g id="ytick_1">
     <g id="line2d_17">
      <path d="M 108.01 331.64 
L 897.84 331.64 
" clip-path="url(#p38bc9bddef)" style="fill: none; stroke-dasharray: 5.12,1.28,0.8,1.28; stroke-dashoffset: 0; stroke: #b0b0b0; stroke-width: 0.8"/>
     </g>
     <g id="line2d_18">
      <defs>
       <path id="m2071769710" d="M 0 0 
L -3.5 0 
" style="stroke: #000000; stroke-width: 0.8"/>
      </defs>
      <g>
       <use xlink:href="#m2071769710" x="108.01" y="331.64" style="stroke: #000000; stroke-width: 0.8"/>
      </g>
     </g>
     <g id="text_10">
      <!-- 0 -->
      <g transform="translate(87.0125 339.998281)scale(0.22 -0.22)">
       <use xlink:href="#DejaVuSans-30"/>
      </g>
     </g>
    </g>
    <g id="ytick_2">
     <g id="line2d_19">
      <path d="M 108.01 240.71305 
L 897.84 240.71305 
" clip-path="url(#p38bc9bddef)" style="fill: none; stroke-dasharray: 5.12,1.28,0.8,1.28; stroke-dashoffset: 0; stroke: #b0b0b0; stroke-width: 0.8"/>
     </g>
     <g id="line2d_20">
      <g>
       <use xlink:href="#m2071769710" x="108.01" y="240.71305" style="stroke: #000000; stroke-width: 0.8"/>
      </g>
     </g>
     <g id="text_11">
      <!-- 5 -->
      <g transform="translate(87.0125 249.071331)scale(0.22 -0.22)">
       <use xlink:href="#DejaVuSans-35"/>
      </g>
     </g>
    </g>
    <g id="ytick_3">
     <g id="line2d_21">
      <path d="M 108.01 149.786099 
L 897.84 149.786099 
" clip-path="url(#p38bc9bddef)" style="fill: none; stroke-dasharray: 5.12,1.28,0.8,1.28; stroke-dashoffset: 0; stroke: #b0b0b0; stroke-width: 0.8"/>
     </g>
     <g id="line2d_22">
      <g>
       <use xlink:href="#m2071769710" x="108.01" y="149.786099" style="stroke: #000000; stroke-width: 0.8"/>
      </g>
     </g>
     <g id="text_12">
      <!-- 10 -->
      <g transform="translate(73.015 158.14438)scale(0.22 -0.22)">
       <use xlink:href="#DejaVuSans-31"/>
       <use xlink:href="#DejaVuSans-30" x="63.623047"/>
      </g>
     </g>
    </g>
    <g id="ytick_4">
     <g id="line2d_23">
      <path d="M 108.01 58.859149 
L 897.84 58.859149 
" clip-path="url(#p38bc9bddef)" style="fill: none; stroke-dasharray: 5.12,1.28,0.8,1.28; stroke-dashoffset: 0; stroke: #b0b0b0; stroke-width: 0.8"/>
     </g>
     <g id="line2d_24">
      <g>
       <use xlink:href="#m2071769710" x="108.01" y="58.859149" style="stroke: #000000; stroke-width: 0.8"/>
      </g>
     </g>
     <g id="text_13">
      <!-- 15 -->
      <g transform="translate(73.015 67.21743)scale(0.22 -0.22)">
       <use xlink:href="#DejaVuSans-31"/>
       <use xlink:href="#DejaVuSans-35" x="63.623047"/>
      </g>
     </g>
    </g>
    <g id="text_14">
     <!-- Throughput (Mbps) -->
     <g transform="translate(64.02375 292.414375)rotate(-90)scale(0.24 -0.24)">
      <defs>
       <path id="DejaVuSans-68" d="M 3513 2113 
L 3513 0 
L 2938 0 
L 2938 2094 
Q 2938 2591 2744 2837 
Q 2550 3084 2163 3084 
Q 1697 3084 1428 2787 
Q 1159 2491 1159 1978 
L 1159 0 
L 581 0 
L 581 4863 
L 1159 4863 
L 1159 2956 
Q 1366 3272 1645 3428 
Q 1925 3584 2291 3584 
Q 2894 3584 3203 3211 
Q 3513 2838 3513 2113 
z
" transform="scale(0.015625)"/>
       <path id="DejaVuSans-72" d="M 2631 2963 
Q 2534 3019 2420 3045 
Q 2306 3072 2169 3072 
Q 1681 3072 1420 2755 
Q 1159 2438 1159 1844 
L 1159 0 
L 581 0 
L 581 3500 
L 1159 3500 
L 1159 2956 
Q 1341 3275 1631 3429 
Q 1922 3584 2338 3584 
Q 2397 3584 2469 3576 
Q 2541 3569 2628 3553 
L 2631 2963 
z
" transform="scale(0.015625)"/>
       <path id="DejaVuSans-6f" d="M 1959 3097 
Q 1497 3097 1228 2736 
Q 959 2375 959 1747 
Q 959 1119 1226 758 
Q 1494 397 1959 397 
Q 2419 397 2687 759 
Q 2956 1122 2956 1747 
Q 2956 2369 2687 2733 
Q 2419 3097 1959 3097 
z
M 1959 3584 
Q 2709 3584 3137 3096 
Q 3566 2609 3566 1747 
Q 3566 888 3137 398 
Q 2709 -91 1959 -91 
Q 1206 -91 779 398 
Q 353 888 353 1747 
Q 353 2609 779 3096 
Q 1206 3584 1959 3584 
z
" transform="scale(0.015625)"/>
       <path id="DejaVuSans-75" d="M 544 1381 
L 544 3500 
L 1119 3500 
L 1119 1403 
Q 1119 906 1312 657 
Q 1506 409 1894 409 
Q 2359 409 2629 706 
Q 2900 1003 2900 1516 
L 2900 3500 
L 3475 3500 
L 3475 0 
L 2900 0 
L 2900 538 
Q 2691 219 2414 64 
Q 2138 -91 1772 -91 
Q 1169 -91 856 284 
Q 544 659 544 1381 
z
M 1991 3584 
L 1991 3584 
z
" transform="scale(0.015625)"/>
       <path id="DejaVuSans-67" d="M 2906 1791 
Q 2906 2416 2648 2759 
Q 2391 3103 1925 3103 
Q 1463 3103 1205 2759 
Q 947 2416 947 1791 
Q 947 1169 1205 825 
Q 1463 481 1925 481 
Q 2391 481 2648 825 
Q 2906 1169 2906 1791 
z
M 3481 434 
Q 3481 -459 3084 -895 
Q 2688 -1331 1869 -1331 
Q 1566 -1331 1297 -1286 
Q 1028 -1241 775 -1147 
L 775 -588 
Q 1028 -725 1275 -790 
Q 1522 -856 1778 -856 
Q 2344 -856 2625 -561 
Q 2906 -266 2906 331 
L 2906 616 
Q 2728 306 2450 153 
Q 2172 0 1784 0 
Q 1141 0 747 490 
Q 353 981 353 1791 
Q 353 2603 747 3093 
Q 1141 3584 1784 3584 
Q 2172 3584 2450 3431 
Q 2728 3278 2906 2969 
L 2906 3500 
L 3481 3500 
L 3481 434 
z
" transform="scale(0.015625)"/>
       <path id="DejaVuSans-70" d="M 1159 525 
L 1159 -1331 
L 581 -1331 
L 581 3500 
L 1159 3500 
L 1159 2969 
Q 1341 3281 1617 3432 
Q 1894 3584 2278 3584 
Q 2916 3584 3314 3078 
Q 3713 2572 3713 1747 
Q 3713 922 3314 415 
Q 2916 -91 2278 -91 
Q 1894 -91 1617 61 
Q 1341 213 1159 525 
z
M 3116 1747 
Q 3116 2381 2855 2742 
Q 2594 3103 2138 3103 
Q 1681 3103 1420 2742 
Q 1159 2381 1159 1747 
Q 1159 1113 1420 752 
Q 1681 391 2138 391 
Q 2594 391 2855 752 
Q 3116 1113 3116 1747 
z
" transform="scale(0.015625)"/>
       <path id="DejaVuSans-74" d="M 1172 4494 
L 1172 3500 
L 2356 3500 
L 2356 3053 
L 1172 3053 
L 1172 1153 
Q 1172 725 1289 603 
Q 1406 481 1766 481 
L 2356 481 
L 2356 0 
L 1766 0 
Q 1100 0 847 248 
Q 594 497 594 1153 
L 594 3053 
L 172 3053 
L 172 3500 
L 594 3500 
L 594 4494 
L 1172 4494 
z
" transform="scale(0.015625)"/>
       <path id="DejaVuSans-4d" d="M 628 4666 
L 1569 4666 
L 2759 1491 
L 3956 4666 
L 4897 4666 
L 4897 0 
L 4281 0 
L 4281 4097 
L 3078 897 
L 2444 897 
L 1241 4097 
L 1241 0 
L 628 0 
L 628 4666 
z
" transform="scale(0.015625)"/>
       <path id="DejaVuSans-62" d="M 3116 1747 
Q 3116 2381 2855 2742 
Q 2594 3103 2138 3103 
Q 1681 3103 1420 2742 
Q 1159 2381 1159 1747 
Q 1159 1113 1420 752 
Q 1681 391 2138 391 
Q 2594 391 2855 752 
Q 3116 1113 3116 1747 
z
M 1159 2969 
Q 1341 3281 1617 3432 
Q 1894 3584 2278 3584 
Q 2916 3584 3314 3078 
Q 3713 2572 3713 1747 
Q 3713 922 3314 415 
Q 2916 -91 2278 -91 
Q 1894 -91 1617 61 
Q 1341 213 1159 525 
L 1159 0 
L 581 0 
L 581 4863 
L 1159 4863 
L 1159 2969 
z
" transform="scale(0.015625)"/>
      </defs>
      <use xlink:href="#DejaVuSans-54"/>
      <use xlink:href="#DejaVuSans-68" x="61.083984"/>
      <use xlink:href="#DejaVuSans-72" x="124.462891"/>
      <use xlink:href="#DejaVuSans-6f" x="163.326172"/>
      <use xlink:href="#DejaVuSans-75" x="224.507812"/>
      <use xlink:href="#DejaVuSans-67" x="287.886719"/>
      <use xlink:href="#DejaVuSans-68" x="351.363281"/>
      <use xlink:href="#DejaVuSans-70" x="414.742188"/>
      <use xlink:href="#DejaVuSans-75" x="478.21875"/>
      <use xlink:href="#DejaVuSans-74" x="541.597656"/>
      <use xlink:href="#DejaVuSans-20" x="580.806641"/>
      <use xlink:href="#DejaVuSans-28" x="612.59375"/>
      <use xlink:href="#DejaVuSans-4d" x="651.607422"/>
      <use xlink:href="#DejaVuSans-62" x="737.886719"/>
      <use xlink:href="#DejaVuSans-70" x="801.363281"/>
      <use xlink:href="#DejaVuSans-73" x="864.839844"/>
      <use xlink:href="#DejaVuSans-29" x="916.939453"/>
     </g>
    </g>
   </g>
   <g id="patch_3">
    <path d="M 108.01 331.64 
L 108.01 23.76 
" style="fill: none; stroke: #000000; stroke-width: 0.8; stroke-linejoin: miter; stroke-linecap: square"/>
   </g>
   <g id="patch_4">
    <path d="M 897.84 331.64 
L 897.84 23.76 
" style="fill: none; stroke: #000000; stroke-width: 0.8; stroke-linejoin: miter; stroke-linecap: square"/>
   </g>
   <g id="patch_5">
    <path d="M 108.01 331.64 
L 897.84 331.64 
" style="fill: none; stroke: #000000; stroke-width: 0.8; stroke-linejoin: miter; stroke-linecap: square"/>
   </g>
   <g id="patch_6">
    <path d="M 108.01 23.76 
L 897.84 23.76 
" style="fill: none; stroke: #000000; stroke-width: 0.8; stroke-linejoin: miter; stroke-linecap: square"/>
   </g>
   <g id="legend_1">
    <g id="patch_7">
     <path d="M 756.24 148.6425 
L 881.04 148.6425 
Q 885.84 148.6425 885.84 143.8425 
L 885.84 40.56 
Q 885.84 35.76 881.04 35.76 
L 756.24 35.76 
Q 751.44 35.76 751.44 40.56 
L 751.44 143.8425 
Q 751.44 148.6425 756.24 148.6425 
z
" style="fill: #ffffff; opacity: 0.8; stroke: #cccccc; stroke-linejoin: miter"/>
    </g>
    <g id="patch_8">
     <path d="M 761.04 63.59625 
L 809.04 63.59625 
L 809.04 46.79625 
L 761.04 46.79625 
z
" style="fill: #1f77b4"/>
    </g>
    <g id="text_15">
     <!-- UE1 -->
     <g transform="translate(828.24 63.59625)scale(0.24 -0.24)">
      <defs>
       <path id="DejaVuSans-55" d="M 556 4666 
L 1191 4666 
L 1191 1831 
Q 1191 1081 1462 751 
Q 1734 422 2344 422 
Q 2950 422 3222 751 
Q 3494 1081 3494 1831 
L 3494 4666 
L 4128 4666 
L 4128 1753 
Q 4128 841 3676 375 
Q 3225 -91 2344 -91 
Q 1459 -91 1007 375 
Q 556 841 556 1753 
L 556 4666 
z
" transform="scale(0.015625)"/>
       <path id="DejaVuSans-45" d="M 628 4666 
L 3578 4666 
L 3578 4134 
L 1259 4134 
L 1259 2753 
L 3481 2753 
L 3481 2222 
L 1259 2222 
L 1259 531 
L 3634 531 
L 3634 0 
L 628 0 
L 628 4666 
z
" transform="scale(0.015625)"/>
      </defs>
      <use xlink:href="#DejaVuSans-55"/>
      <use xlink:href="#DejaVuSans-45" x="73.193359"/>
      <use xlink:href="#DejaVuSans-31" x="136.376953"/>
     </g>
    </g>
    <g id="patch_9">
     <path d="M 761.04 98.82375 
L 809.04 98.82375 
L 809.04 82.02375 
L 761.04 82.02375 
z
" style="fill: #ff7f0e"/>
    </g>
    <g id="text_16">
     <!-- UE2 -->
     <g transform="translate(828.24 98.82375)scale(0.24 -0.24)">
      <use xlink:href="#DejaVuSans-55"/>
      <use xlink:href="#DejaVuSans-45" x="73.193359"/>
      <use xlink:href="#DejaVuSans-32" x="136.376953"/>
     </g>
    </g>
    <g id="patch_10">
     <path d="M 761.04 134.05125 
L 809.04 134.05125 
L 809.04 117.25125 
L 761.04 117.25125 
z
" style="fill: #2ca02c"/>
    </g>
    <g id="text_17">
     <!-- UE3 -->
     <g transform="translate(828.24 134.05125)scale(0.24 -0.24)">
      <defs>
       <path id="DejaVuSans-33" d="M 2597 2516 
Q 3050 2419 3304 2112 
Q 3559 1806 3559 1356 
Q 3559 666 3084 287 
Q 2609 -91 1734 -91 
Q 1441 -91 1130 -33 
Q 819 25 488 141 
L 488 750 
Q 750 597 1062 519 
Q 1375 441 1716 441 
Q 2309 441 2620 675 
Q 2931 909 2931 1356 
Q 2931 1769 2642 2001 
Q 2353 2234 1838 2234 
L 1294 2234 
L 1294 2753 
L 1863 2753 
Q 2328 2753 2575 2939 
Q 2822 3125 2822 3475 
Q 2822 3834 2567 4026 
Q 2313 4219 1838 4219 
Q 1578 4219 1281 4162 
Q 984 4106 628 3988 
L 628 4550 
Q 988 4650 1302 4700 
Q 1616 4750 1894 4750 
Q 2613 4750 3031 4423 
Q 3450 4097 3450 3541 
Q 3450 3153 3228 2886 
Q 3006 2619 2597 2516 
z
" transform="scale(0.015625)"/>
      </defs>
      <use xlink:href="#DejaVuSans-55"/>
      <use xlink:href="#DejaVuSans-45" x="73.193359"/>
      <use xlink:href="#DejaVuSans-33" x="136.376953"/>
     </g>
    </g>
   </g>
  </g>
 </g>
 <defs>
  <clipPath id="p38bc9bddef">
   <rect x="108.01" y="23.76" width="789.83" height="307.88"/>
  </clipPath>
 </defs>
</svg>
