<?xml version="1.0" encoding="utf-8" standalone="no"?>
<!DOCTYPE svg PUBLIC "-//W3C//DTD SVG 1.1//EN"
  "http://www.w3.org/Graphics/SVG/1.1/DTD/svg11.dtd">
<svg xmlns:xlink="http://www.w3.org/1999/xlink" width="921.6pt" height="410.4pt" viewBox="0 0 921.6 410.4" xmlns="http://www.w3.org/2000/svg" version="1.1">
 <metadata>
  <rdf:RDF xmlns:dc="http://purl.org/dc/elements/1.1/" xmlns:cc="http://creativecommons.org/ns#" xmlns:rdf="http://www.w3.org/1999/02/22-rdf-syntax-ns#">
   <cc:Work>
    <dc:type rdf:resource="http://purl.org/dc/dcmitype/StillImage"/>
    <dc:date>2023-04-11T15:18:51.649725</dc:date>
    <dc:format>image/svg+xml</dc:format>
    <dc:creator>
     <cc:Agent>
      <dc:title>Matplotlib v3.5.3, https://matplotlib.org/</dc:title>
     </cc:Agent>
    </dc:creator>
   </cc:Work>
  </rdf:RDF>
 </metadata>
 <defs>
  <style type="text/css">*{stroke-linejoin: round; stroke-linecap: butt}</style>
 </defs>
 <g id="figure_1">
  <g id="patch_1">
   <path d="M 0 410.4 
L 921.6 410.4 
L 921.6 0 
L 0 0 
L 0 410.4 
z
" style="fill: none"/>
  </g>
  <g id="axes_1">
   <g id="patch_2">
    <path d="M 101.01 331.64 
L 897.84 331.64 
L 897.84 23.76 
L 101.01 23.76 
z
" style="fill: #ffffff"/>
   </g>
   <g id="PolyCollection_1">
    <path d="M 137.229545 231.700908 
L 137.229545 331.64 
L 141.187966 331.64 
L 145.146386 331.64 
L 149.104806 331.64 
L 153.063227 331.64 
L 157.021647 331.64 
L 160.980067 331.64 
L 164.938487 331.64 
L 168.896908 331.64 
L 172.855328 331.64 
L 176.813748 331.64 
L 180.772168 331.64 
L 184.730589 331.64 
L 188.689009 331.64 
L 192.647429 331.64 
L 196.605849 331.64 
L 200.56427 331.64 
L 204.52269 331.64 
L 208.48111 331.64 
L 212.439531 331.64 
L 216.397951 331.64 
L 220.356371 331.64 
L 224.314791 331.64 
L 228.273212 331.64 
L 232.231632 331.64 
L 236.190052 331.64 
L 240.148472 331.64 
L 244.106893 331.64 
L 248.065313 331.64 
L 252.023733 331.64 
L 255.982154 331.64 
L 259.940574 331.64 
L 263.898994 331.64 
L 267.857414 331.64 
L 271.815835 331.64 
L 275.774255 331.64 
L 279.732675 331.64 
L 283.691095 331.64 
L 287.649516 331.64 
L 291.607936 331.64 
L 295.566356 331.64 
L 299.524776 331.64 
L 303.483197 331.64 
L 307.441617 331.64 
L 311.400037 331.64 
L 315.358458 331.64 
L 319.316878 331.64 
L 323.275298 331.64 
L 327.233718 331.64 
L 331.192139 331.64 
L 335.150559 331.64 
L 339.108979 331.64 
L 343.067399 331.64 
L 347.02582 331.64 
L 350.98424 331.64 
L 354.94266 331.64 
L 358.90108 331.64 
L 362.859501 331.64 
L 366.817921 331.64 
L 370.776341 331.64 
L 374.734762 331.64 
L 378.693182 331.64 
L 382.651602 331.64 
L 386.610022 331.64 
L 390.568443 331.64 
L 394.526863 331.64 
L 398.485283 331.64 
L 402.443703 331.64 
L 406.402124 331.64 
L 410.360544 331.64 
L 414.318964 331.64 
L 418.277385 331.64 
L 422.235805 331.64 
L 426.194225 331.64 
L 430.152645 331.64 
L 434.111066 331.64 
L 438.069486 331.64 
L 442.027906 331.64 
L 445.986326 331.64 
L 449.944747 331.64 
L 453.903167 331.64 
L 457.861587 331.64 
L 461.820007 331.64 
L 465.778428 331.64 
L 469.736848 331.64 
L 473.695268 331.64 
L 477.653689 331.64 
L 481.612109 331.64 
L 485.570529 331.64 
L 489.528949 331.64 
L 493.48737 331.64 
L 497.44579 331.64 
L 501.40421 331.64 
L 505.36263 331.64 
L 509.321051 331.64 
L 513.279471 331.64 
L 517.237891 331.64 
L 521.196311 331.64 
L 525.154732 331.64 
L 529.113152 331.64 
L 533.071572 331.64 
L 537.029993 331.64 
L 540.988413 331.64 
L 544.946833 331.64 
L 548.905253 331.64 
L 552.863674 331.64 
L 556.822094 331.64 
L 560.780514 331.64 
L 564.738934 331.64 
L 568.697355 331.64 
L 572.655775 331.64 
L 576.614195 331.64 
L 580.572615 331.64 
L 584.531036 331.64 
L 588.489456 331.64 
L 592.447876 331.64 
L 596.406297 331.64 
L 600.364717 331.64 
L 604.323137 331.64 
L 608.281557 331.64 
L 612.239978 331.64 
L 616.198398 331.64 
L 620.156818 331.64 
L 624.115238 331.64 
L 628.073659 331.64 
L 632.032079 331.64 
L 635.990499 331.64 
L 639.94892 331.64 
L 643.90734 331.64 
L 647.86576 331.64 
L 651.82418 331.64 
L 655.782601 331.64 
L 659.741021 331.64 
L 663.699441 331.64 
L 667.657861 331.64 
L 671.616282 331.64 
L 675.574702 331.64 
L 679.533122 331.64 
L 683.491542 331.64 
L 687.449963 331.64 
L 691.408383 331.64 
L 695.366803 331.64 
L 699.325224 331.64 
L 703.283644 331.64 
L 707.242064 331.64 
L 711.200484 331.64 
L 715.158905 331.64 
L 719.117325 331.64 
L 723.075745 331.64 
L 727.034165 331.64 
L 730.992586 331.64 
L 734.951006 331.64 
L 738.909426 331.64 
L 742.867846 331.64 
L 746.826267 331.64 
L 750.784687 331.64 
L 754.743107 331.64 
L 758.701528 331.64 
L 762.659948 331.64 
L 766.618368 331.64 
L 770.576788 331.64 
L 774.535209 331.64 
L 778.493629 331.64 
L 782.452049 331.64 
L 786.410469 331.64 
L 790.36889 331.64 
L 794.32731 331.64 
L 798.28573 331.64 
L 802.244151 331.64 
L 806.202571 331.64 
L 810.160991 331.64 
L 814.119411 331.64 
L 818.077832 331.64 
L 822.036252 331.64 
L 825.994672 331.64 
L 829.953092 331.64 
L 833.911513 331.64 
L 837.869933 331.64 
L 841.828353 331.64 
L 845.786773 331.64 
L 849.745194 331.64 
L 853.703614 331.64 
L 857.662034 331.64 
L 861.620455 331.64 
L 861.620455 234.137585 
L 861.620455 234.137585 
L 857.662034 234.57299 
L 853.703614 233.881374 
L 849.745194 234.8232 
L 845.786773 233.750001 
L 841.828353 233.829042 
L 837.869933 234.24546 
L 833.911513 234.01149 
L 829.953092 234.699678 
L 825.994672 233.936382 
L 822.036252 233.903643 
L 818.077832 234.231867 
L 814.119411 233.963148 
L 810.160991 234.065847 
L 806.202571 233.950524 
L 802.244151 234.261829 
L 798.28573 234.227254 
L 794.32731 234.320062 
L 790.36889 234.264114 
L 786.410469 233.950293 
L 782.452049 234.090545 
L 778.493629 233.91741 
L 774.535209 234.474471 
L 770.576788 234.635951 
L 766.618368 234.719359 
L 762.659948 234.943062 
L 758.701528 234.619813 
L 754.743107 234.619003 
L 750.784687 236.105208 
L 746.826267 242.281827 
L 742.867846 264.363309 
L 738.909426 228.612439 
L 734.951006 265.292785 
L 730.992586 237.47314 
L 727.034165 236.622444 
L 723.075745 234.624889 
L 719.117325 234.574957 
L 715.158905 234.444292 
L 711.200484 234.32385 
L 707.242064 234.30041 
L 703.283644 234.331992 
L 699.325224 234.152841 
L 695.366803 233.855273 
L 691.408383 234.333308 
L 687.449963 234.223437 
L 683.491542 233.864586 
L 679.533122 233.980284 
L 675.574702 234.608346 
L 671.616282 234.607522 
L 667.657861 234.233617 
L 663.699441 234.070243 
L 659.741021 234.303288 
L 655.782601 234.155241 
L 651.82418 234.005416 
L 647.86576 234.502683 
L 643.90734 234.501787 
L 639.94892 234.201052 
L 635.990499 234.879914 
L 632.032079 234.43709 
L 628.073659 234.170743 
L 624.115238 234.052268 
L 620.156818 234.325123 
L 616.198398 234.465664 
L 612.239978 234.338065 
L 608.281557 234.462555 
L 604.323137 234.006038 
L 600.364717 234.048855 
L 596.406297 234.28018 
L 592.447876 234.294004 
L 588.489456 234.501931 
L 584.531036 234.269638 
L 580.572615 234.14911 
L 576.614195 234.39423 
L 572.655775 234.428848 
L 568.697355 234.91245 
L 564.738934 236.116993 
L 560.780514 237.301624 
L 556.822094 238.731389 
L 552.863674 236.081926 
L 548.905253 237.386637 
L 544.946833 237.692202 
L 540.988413 237.03425 
L 537.029993 236.967457 
L 533.071572 236.935297 
L 529.113152 237.630311 
L 525.154732 236.936338 
L 521.196311 237.703076 
L 517.237891 236.603053 
L 513.279471 237.501034 
L 509.321051 237.346683 
L 505.36263 237.36768 
L 501.40421 234.861274 
L 497.44579 234.353277 
L 493.48737 234.323764 
L 489.528949 234.04647 
L 485.570529 234.075853 
L 481.612109 234.496581 
L 477.653689 233.985287 
L 473.695268 234.687748 
L 469.736848 234.31905 
L 465.778428 234.53574 
L 461.820007 234.62003 
L 457.861587 234.388561 
L 453.903167 234.102576 
L 449.944747 234.425348 
L 445.986326 234.560077 
L 442.027906 234.112756 
L 438.069486 235.810257 
L 434.111066 234.68101 
L 430.152645 234.268669 
L 426.194225 234.459215 
L 422.235805 234.14068 
L 418.277385 234.496017 
L 414.318964 234.164004 
L 410.360544 234.04151 
L 406.402124 233.975483 
L 402.443703 234.088014 
L 398.485283 234.315203 
L 394.526863 233.89796 
L 390.568443 234.378222 
L 386.610022 234.334059 
L 382.651602 234.138698 
L 378.693182 233.940836 
L 374.734762 234.326612 
L 370.776341 234.36071 
L 366.817921 234.266544 
L 362.859501 234.377571 
L 358.90108 234.059903 
L 354.94266 235.183193 
L 350.98424 234.440662 
L 347.02582 234.77159 
L 343.067399 234.270694 
L 339.108979 234.312571 
L 335.150559 234.682369 
L 331.192139 235.095404 
L 327.233718 234.582592 
L 323.275298 235.733747 
L 319.316878 234.102909 
L 315.358458 234.26475 
L 311.400037 234.585715 
L 307.441617 234.305037 
L 303.483197 234.439534 
L 299.524776 234.781264 
L 295.566356 234.361462 
L 291.607936 237.027511 
L 287.649516 234.664467 
L 283.691095 234.664192 
L 279.732675 234.335202 
L 275.774255 234.47314 
L 271.815835 234.088506 
L 267.857414 234.612785 
L 263.898994 234.686765 
L 259.940574 234.70419 
L 255.982154 234.554596 
L 252.023733 234.479315 
L 248.065313 234.353277 
L 244.106893 234.498576 
L 240.148472 234.66305 
L 236.190052 233.779327 
L 232.231632 234.522494 
L 228.273212 234.270766 
L 224.314791 234.904019 
L 220.356371 234.378034 
L 216.397951 234.213604 
L 212.439531 235.755828 
L 208.48111 234.728339 
L 204.52269 234.313019 
L 200.56427 235.262639 
L 196.605849 234.243016 
L 192.647429 235.766688 
L 188.689009 234.896182 
L 184.730589 234.378366 
L 180.772168 243.108677 
L 176.813748 234.711044 
L 172.855328 231.103603 
L 168.896908 231.001773 
L 164.938487 231.75392 
L 160.980067 231.645423 
L 157.021647 232.190019 
L 153.063227 233.29399 
L 149.104806 230.911814 
L 145.146386 230.592021 
L 141.187966 231.230682 
L 137.229545 231.700908 
z
" clip-path="url(#p5c568d4857)" style="fill: #1f77b4"/>
   </g>
   <g id="PolyCollection_2">
    <path d="M 137.229545 181.485642 
L 137.229545 231.700908 
L 141.187966 231.230682 
L 145.146386 230.592021 
L 149.104806 230.911814 
L 153.063227 233.29399 
L 157.021647 232.190019 
L 160.980067 231.645423 
L 164.938487 231.75392 
L 168.896908 231.001773 
L 172.855328 231.103603 
L 176.813748 234.711044 
L 180.772168 243.108677 
L 184.730589 234.378366 
L 188.689009 234.896182 
L 192.647429 235.766688 
L 196.605849 234.243016 
L 200.56427 235.262639 
L 204.52269 234.313019 
L 208.48111 234.728339 
L 212.439531 235.755828 
L 216.397951 234.213604 
L 220.356371 234.378034 
L 224.314791 234.904019 
L 228.273212 234.270766 
L 232.231632 234.522494 
L 236.190052 233.779327 
L 240.148472 234.66305 
L 244.106893 234.498576 
L 248.065313 234.353277 
L 252.023733 234.479315 
L 255.982154 234.554596 
L 259.940574 234.70419 
L 263.898994 234.686765 
L 267.857414 234.612785 
L 271.815835 234.088506 
L 275.774255 234.47314 
L 279.732675 234.335202 
L 283.691095 234.664192 
L 287.649516 234.664467 
L 291.607936 237.027511 
L 295.566356 234.361462 
L 299.524776 234.781264 
L 303.483197 234.439534 
L 307.441617 234.305037 
L 311.400037 234.585715 
L 315.358458 234.26475 
L 319.316878 234.102909 
L 323.275298 235.733747 
L 327.233718 234.582592 
L 331.192139 235.095404 
L 335.150559 234.682369 
L 339.108979 234.312571 
L 343.067399 234.270694 
L 347.02582 234.77159 
L 350.98424 234.440662 
L 354.94266 235.183193 
L 358.90108 234.059903 
L 362.859501 234.377571 
L 366.817921 234.266544 
L 370.776341 234.36071 
L 374.734762 234.326612 
L 378.693182 233.940836 
L 382.651602 234.138698 
L 386.610022 234.334059 
L 390.568443 234.378222 
L 394.526863 233.89796 
L 398.485283 234.315203 
L 402.443703 234.088014 
L 406.402124 233.975483 
L 410.360544 234.04151 
L 414.318964 234.164004 
L 418.277385 234.496017 
L 422.235805 234.14068 
L 426.194225 234.459215 
L 430.152645 234.268669 
L 434.111066 234.68101 
L 438.069486 235.810257 
L 442.027906 234.112756 
L 445.986326 234.560077 
L 449.944747 234.425348 
L 453.903167 234.102576 
L 457.861587 234.388561 
L 461.820007 234.62003 
L 465.778428 234.53574 
L 469.736848 234.31905 
L 473.695268 234.687748 
L 477.653689 233.985287 
L 481.612109 234.496581 
L 485.570529 234.075853 
L 489.528949 234.04647 
L 493.48737 234.323764 
L 497.44579 234.353277 
L 501.40421 234.861274 
L 505.36263 237.36768 
L 509.321051 237.346683 
L 513.279471 237.501034 
L 517.237891 236.603053 
L 521.196311 237.703076 
L 525.154732 236.936338 
L 529.113152 237.630311 
L 533.071572 236.935297 
L 537.029993 236.967457 
L 540.988413 237.03425 
L 544.946833 237.692202 
L 548.905253 237.386637 
L 552.863674 236.081926 
L 556.822094 238.731389 
L 560.780514 237.301624 
L 564.738934 236.116993 
L 568.697355 234.91245 
L 572.655775 234.428848 
L 576.614195 234.39423 
L 580.572615 234.14911 
L 584.531036 234.269638 
L 588.489456 234.501931 
L 592.447876 234.294004 
L 596.406297 234.28018 
L 600.364717 234.048855 
L 604.323137 234.006038 
L 608.281557 234.462555 
L 612.239978 234.338065 
L 616.198398 234.465664 
L 620.156818 234.325123 
L 624.115238 234.052268 
L 628.073659 234.170743 
L 632.032079 234.43709 
L 635.990499 234.879914 
L 639.94892 234.201052 
L 643.90734 234.501787 
L 647.86576 234.502683 
L 651.82418 234.005416 
L 655.782601 234.155241 
L 659.741021 234.303288 
L 663.699441 234.070243 
L 667.657861 234.233617 
L 671.616282 234.607522 
L 675.574702 234.608346 
L 679.533122 233.980284 
L 683.491542 233.864586 
L 687.449963 234.223437 
L 691.408383 234.333308 
L 695.366803 233.855273 
L 699.325224 234.152841 
L 703.283644 234.331992 
L 707.242064 234.30041 
L 711.200484 234.32385 
L 715.158905 234.444292 
L 719.117325 234.574957 
L 723.075745 234.624889 
L 727.034165 236.622444 
L 730.992586 237.47314 
L 734.951006 265.292785 
L 738.909426 228.612439 
L 742.867846 264.363309 
L 746.826267 242.281827 
L 750.784687 236.105208 
L 754.743107 234.619003 
L 758.701528 234.619813 
L 762.659948 234.943062 
L 766.618368 234.719359 
L 770.576788 234.635951 
L 774.535209 234.474471 
L 778.493629 233.91741 
L 782.452049 234.090545 
L 786.410469 233.950293 
L 790.36889 234.264114 
L 794.32731 234.320062 
L 798.28573 234.227254 
L 802.244151 234.261829 
L 806.202571 233.950524 
L 810.160991 234.065847 
L 814.119411 233.963148 
L 818.077832 234.231867 
L 822.036252 233.903643 
L 825.994672 233.936382 
L 829.953092 234.699678 
L 833.911513 234.01149 
L 837.869933 234.24546 
L 841.828353 233.829042 
L 845.786773 233.750001 
L 849.745194 234.8232 
L 853.703614 233.881374 
L 857.662034 234.57299 
L 861.620455 234.137585 
L 861.620455 136.72549 
L 861.620455 136.72549 
L 857.662034 137.131179 
L 853.703614 136.726618 
L 849.745194 137.645596 
L 845.786773 136.292977 
L 841.828353 135.980819 
L 837.869933 136.74225 
L 833.911513 136.473444 
L 829.953092 137.620536 
L 825.994672 136.230725 
L 822.036252 136.712346 
L 818.077832 136.701515 
L 814.119411 136.47502 
L 810.160991 136.671856 
L 806.202571 136.387983 
L 802.244151 136.744144 
L 798.28573 136.889313 
L 794.32731 136.816721 
L 790.36889 136.963567 
L 786.410469 136.526745 
L 782.452049 136.487022 
L 778.493629 136.527222 
L 774.535209 137.356184 
L 770.576788 137.624238 
L 766.618368 138.18581 
L 762.659948 138.074566 
L 758.701528 137.350327 
L 754.743107 138.136833 
L 750.784687 140.760556 
L 746.826267 146.229089 
L 742.867846 164.167702 
L 738.909426 154.520178 
L 734.951006 170.114111 
L 730.992586 143.459445 
L 727.034165 140.660634 
L 723.075745 137.40869 
L 719.117325 137.79626 
L 715.158905 136.834522 
L 711.200484 137.235988 
L 707.242064 137.345555 
L 703.283644 136.807799 
L 699.325224 136.518344 
L 695.366803 136.539803 
L 691.408383 136.885221 
L 687.449963 136.62632 
L 683.491542 136.391757 
L 679.533122 136.771272 
L 675.574702 137.105613 
L 671.616282 137.481209 
L 667.657861 137.020643 
L 663.699441 136.930641 
L 659.741021 136.977421 
L 655.782601 136.566454 
L 651.82418 136.647201 
L 647.86576 137.440373 
L 643.90734 137.123544 
L 639.94892 137.189209 
L 635.990499 137.775118 
L 632.032079 137.34959 
L 628.073659 136.827509 
L 624.115238 136.404453 
L 620.156818 137.429947 
L 616.198398 137.323344 
L 612.239978 137.027367 
L 608.281557 136.936801 
L 604.323137 136.68422 
L 600.364717 136.954804 
L 596.406297 136.704725 
L 592.447876 137.030505 
L 588.489456 137.37679 
L 584.531036 136.726372 
L 580.572615 136.663252 
L 576.614195 137.263695 
L 572.655775 136.727818 
L 568.697355 139.36366 
L 564.738934 140.7252 
L 560.780514 143.169513 
L 556.822094 145.005747 
L 552.863674 141.518169 
L 548.905253 143.1318 
L 544.946833 143.397945 
L 540.988413 142.215193 
L 537.029993 142.864035 
L 533.071572 142.016478 
L 529.113152 143.71755 
L 525.154732 142.261698 
L 521.196311 143.576893 
L 517.237891 142.671089 
L 513.279471 142.897757 
L 509.321051 142.685708 
L 505.36263 143.579482 
L 501.40421 137.555883 
L 497.44579 137.080336 
L 493.48737 137.17819 
L 489.528949 136.687604 
L 485.570529 136.702585 
L 481.612109 137.051024 
L 477.653689 136.474962 
L 473.695268 137.797922 
L 469.736848 137.311385 
L 465.778428 137.210798 
L 461.820007 137.91955 
L 457.861587 136.977493 
L 453.903167 136.69414 
L 449.944747 137.338397 
L 445.986326 136.95479 
L 442.027906 137.898235 
L 438.069486 139.263984 
L 434.111066 137.585802 
L 430.152645 137.526817 
L 426.194225 136.912363 
L 422.235805 136.80028 
L 418.277385 137.171581 
L 414.318964 136.708701 
L 410.360544 136.688254 
L 406.402124 136.459952 
L 402.443703 136.490074 
L 398.485283 137.146088 
L 394.526863 136.313728 
L 390.568443 136.893723 
L 386.610022 136.963278 
L 382.651602 136.412898 
L 378.693182 136.657815 
L 374.734762 137.226951 
L 370.776341 137.105396 
L 366.817921 137.042579 
L 362.859501 137.039658 
L 358.90108 136.894591 
L 354.94266 138.384237 
L 350.98424 137.277649 
L 347.02582 138.071385 
L 343.067399 137.298559 
L 339.108979 136.958145 
L 335.150559 137.886565 
L 331.192139 138.284113 
L 327.233718 137.75 
L 323.275298 139.583343 
L 319.316878 136.488006 
L 315.358458 136.873956 
L 311.400037 137.767049 
L 307.441617 137.411466 
L 303.483197 137.30093 
L 299.524776 137.888084 
L 295.566356 137.207819 
L 291.607936 142.676945 
L 287.649516 137.426042 
L 283.691095 137.814769 
L 279.732675 137.092063 
L 275.774255 137.431812 
L 271.815835 136.842287 
L 267.857414 137.712707 
L 263.898994 137.567365 
L 259.940574 137.468498 
L 255.982154 137.898047 
L 252.023733 137.418089 
L 248.065313 137.18568 
L 244.106893 137.327075 
L 240.148472 137.607767 
L 236.190052 136.472027 
L 232.231632 137.014757 
L 228.273212 137.070676 
L 224.314791 137.93696 
L 220.356371 137.29331 
L 216.397951 137.962569 
L 212.439531 138.99029 
L 208.48111 137.987557 
L 204.52269 137.429556 
L 200.56427 138.441602 
L 196.605849 137.44218 
L 192.647429 139.638264 
L 188.689009 138.07004 
L 184.730589 137.058602 
L 180.772168 173.609685 
L 176.813748 186.188218 
L 172.855328 180.601962 
L 168.896908 180.730227 
L 164.938487 181.658531 
L 160.980067 181.908047 
L 157.021647 182.416839 
L 153.063227 183.828124 
L 149.104806 180.532798 
L 145.146386 180.269935 
L 141.187966 181.070554 
L 137.229545 181.485642 
z
" clip-path="url(#p5c568d4857)" style="fill: #ff7f0e"/>
   </g>
   <g id="PolyCollection_3">
    <path d="M 137.229545 81.198877 
L 137.229545 181.485642 
L 141.187966 181.070554 
L 145.146386 180.269935 
L 149.104806 180.532798 
L 153.063227 183.828124 
L 157.021647 182.416839 
L 160.980067 181.908047 
L 164.938487 181.658531 
L 168.896908 180.730227 
L 172.855328 180.601962 
L 176.813748 186.188218 
L 180.772168 173.609685 
L 184.730589 137.058602 
L 188.689009 138.07004 
L 192.647429 139.638264 
L 196.605849 137.44218 
L 200.56427 138.441602 
L 204.52269 137.429556 
L 208.48111 137.987557 
L 212.439531 138.99029 
L 216.397951 137.962569 
L 220.356371 137.29331 
L 224.314791 137.93696 
L 228.273212 137.070676 
L 232.231632 137.014757 
L 236.190052 136.472027 
L 240.148472 137.607767 
L 244.106893 137.327075 
L 248.065313 137.18568 
L 252.023733 137.418089 
L 255.982154 137.898047 
L 259.940574 137.468498 
L 263.898994 137.567365 
L 267.857414 137.712707 
L 271.815835 136.842287 
L 275.774255 137.431812 
L 279.732675 137.092063 
L 283.691095 137.814769 
L 287.649516 137.426042 
L 291.607936 142.676945 
L 295.566356 137.207819 
L 299.524776 137.888084 
L 303.483197 137.30093 
L 307.441617 137.411466 
L 311.400037 137.767049 
L 315.358458 136.873956 
L 319.316878 136.488006 
L 323.275298 139.583343 
L 327.233718 137.75 
L 331.192139 138.284113 
L 335.150559 137.886565 
L 339.108979 136.958145 
L 343.067399 137.298559 
L 347.02582 138.071385 
L 350.98424 137.277649 
L 354.94266 138.384237 
L 358.90108 136.894591 
L 362.859501 137.039658 
L 366.817921 137.042579 
L 370.776341 137.105396 
L 374.734762 137.226951 
L 378.693182 136.657815 
L 382.651602 136.412898 
L 386.610022 136.963278 
L 390.568443 136.893723 
L 394.526863 136.313728 
L 398.485283 137.146088 
L 402.443703 136.490074 
L 406.402124 136.459952 
L 410.360544 136.688254 
L 414.318964 136.708701 
L 418.277385 137.171581 
L 422.235805 136.80028 
L 426.194225 136.912363 
L 430.152645 137.526817 
L 434.111066 137.585802 
L 438.069486 139.263984 
L 442.027906 137.898235 
L 445.986326 136.95479 
L 449.944747 137.338397 
L 453.903167 136.69414 
L 457.861587 136.977493 
L 461.820007 137.91955 
L 465.778428 137.210798 
L 469.736848 137.311385 
L 473.695268 137.797922 
L 477.653689 136.474962 
L 481.612109 137.051024 
L 485.570529 136.702585 
L 489.528949 136.687604 
L 493.48737 137.17819 
L 497.44579 137.080336 
L 501.40421 137.555883 
L 505.36263 143.579482 
L 509.321051 142.685708 
L 513.279471 142.897757 
L 517.237891 142.671089 
L 521.196311 143.576893 
L 525.154732 142.261698 
L 529.113152 143.71755 
L 533.071572 142.016478 
L 537.029993 142.864035 
L 540.988413 142.215193 
L 544.946833 143.397945 
L 548.905253 143.1318 
L 552.863674 141.518169 
L 556.822094 145.005747 
L 560.780514 143.169513 
L 564.738934 140.7252 
L 568.697355 139.36366 
L 572.655775 136.727818 
L 576.614195 137.263695 
L 580.572615 136.663252 
L 584.531036 136.726372 
L 588.489456 137.37679 
L 592.447876 137.030505 
L 596.406297 136.704725 
L 600.364717 136.954804 
L 604.323137 136.68422 
L 608.281557 136.936801 
L 612.239978 137.027367 
L 616.198398 137.323344 
L 620.156818 137.429947 
L 624.115238 136.404453 
L 628.073659 136.827509 
L 632.032079 137.34959 
L 635.990499 137.775118 
L 639.94892 137.189209 
L 643.90734 137.123544 
L 647.86576 137.440373 
L 651.82418 136.647201 
L 655.782601 136.566454 
L 659.741021 136.977421 
L 663.699441 136.930641 
L 667.657861 137.020643 
L 671.616282 137.481209 
L 675.574702 137.105613 
L 679.533122 136.771272 
L 683.491542 136.391757 
L 687.449963 136.62632 
L 691.408383 136.885221 
L 695.366803 136.539803 
L 699.325224 136.518344 
L 703.283644 136.807799 
L 707.242064 137.345555 
L 711.200484 137.235988 
L 715.158905 136.834522 
L 719.117325 137.79626 
L 723.075745 137.40869 
L 727.034165 140.660634 
L 730.992586 143.459445 
L 734.951006 170.114111 
L 738.909426 154.520178 
L 742.867846 164.167702 
L 746.826267 146.229089 
L 750.784687 140.760556 
L 754.743107 138.136833 
L 758.701528 137.350327 
L 762.659948 138.074566 
L 766.618368 138.18581 
L 770.576788 137.624238 
L 774.535209 137.356184 
L 778.493629 136.527222 
L 782.452049 136.487022 
L 786.410469 136.526745 
L 790.36889 136.963567 
L 794.32731 136.816721 
L 798.28573 136.889313 
L 802.244151 136.744144 
L 806.202571 136.387983 
L 810.160991 136.671856 
L 814.119411 136.47502 
L 818.077832 136.701515 
L 822.036252 136.712346 
L 825.994672 136.230725 
L 829.953092 137.620536 
L 833.911513 136.473444 
L 837.869933 136.74225 
L 841.828353 135.980819 
L 845.786773 136.292977 
L 849.745194 137.645596 
L 853.703614 136.726618 
L 857.662034 137.131179 
L 861.620455 136.72549 
L 861.620455 39.498909 
L 861.620455 39.498909 
L 857.662034 39.479604 
L 853.703614 39.192578 
L 849.745194 40.619451 
L 845.786773 39.07286 
L 841.828353 38.045558 
L 837.869933 38.91819 
L 833.911513 39.439823 
L 829.953092 40.201167 
L 825.994672 38.724507 
L 822.036252 38.875416 
L 818.077832 39.630094 
L 814.119411 38.814176 
L 810.160991 39.215209 
L 806.202571 38.632061 
L 802.244151 39.461557 
L 798.28573 39.39099 
L 794.32731 39.341752 
L 790.36889 39.468296 
L 786.410469 38.922283 
L 782.452049 38.937495 
L 778.493629 38.764461 
L 774.535209 39.782464 
L 770.576788 41.006139 
L 766.618368 40.989712 
L 762.659948 41.827421 
L 758.701528 40.055753 
L 754.743107 40.811385 
L 750.784687 43.796967 
L 746.826267 51.352263 
L 742.867846 65.696189 
L 738.909426 92.539535 
L 734.951006 82.013999 
L 730.992586 49.768725 
L 727.034165 46.044993 
L 723.075745 41.023983 
L 719.117325 40.940994 
L 715.158905 39.726473 
L 711.200484 39.536303 
L 707.242064 40.571934 
L 703.283644 39.813829 
L 699.325224 38.803721 
L 695.366803 38.962136 
L 691.408383 39.318731 
L 687.449963 38.989018 
L 683.491542 39.168328 
L 679.533122 39.1022 
L 675.574702 40.026716 
L 671.616282 39.740095 
L 667.657861 39.785588 
L 663.699441 39.765271 
L 659.741021 39.856343 
L 655.782601 39.005546 
L 651.82418 39.062867 
L 647.86576 39.850616 
L 643.90734 40.027078 
L 639.94892 40.156803 
L 635.990499 40.568145 
L 632.032079 39.935919 
L 628.073659 39.793599 
L 624.115238 38.962107 
L 620.156818 40.029912 
L 616.198398 40.253442 
L 612.239978 39.475165 
L 608.281557 39.952143 
L 604.323137 39.238475 
L 600.364717 39.640289 
L 596.406297 39.347927 
L 592.447876 39.463452 
L 588.489456 39.867448 
L 584.531036 39.406072 
L 580.572615 39.424726 
L 576.614195 39.876732 
L 572.655775 39.448774 
L 568.697355 41.654691 
L 564.738934 45.15203 
L 560.780514 47.844658 
L 556.822094 50.933734 
L 552.863674 47.469177 
L 548.905253 49.31147 
L 544.946833 49.766093 
L 540.988413 47.638494 
L 537.029993 48.646448 
L 533.071572 48.583096 
L 529.113152 49.358424 
L 525.154732 49.27892 
L 521.196311 49.181254 
L 517.237891 49.128357 
L 513.279471 49.471837 
L 509.321051 48.831252 
L 505.36263 48.790879 
L 501.40421 43.345916 
L 497.44579 40.039007 
L 493.48737 39.821507 
L 489.528949 39.27707 
L 485.570529 39.123674 
L 481.612109 39.913071 
L 477.653689 38.89971 
L 473.695268 40.512024 
L 469.736848 40.076142 
L 465.778428 40.256363 
L 461.820007 40.632408 
L 457.861587 39.945636 
L 453.903167 39.184914 
L 449.944747 40.378612 
L 445.986326 39.414257 
L 442.027906 40.486386 
L 438.069486 43.357759 
L 434.111066 40.339308 
L 430.152645 40.353407 
L 426.194225 40.151828 
L 422.235805 39.075217 
L 418.277385 40.204218 
L 414.318964 38.869054 
L 410.360544 39.502018 
L 406.402124 38.811631 
L 402.443703 38.756681 
L 398.485283 39.736248 
L 394.526863 38.926129 
L 390.568443 39.266818 
L 386.610022 39.762393 
L 382.651602 38.987904 
L 378.693182 39.075665 
L 374.734762 39.647447 
L 370.776341 39.63783 
L 366.817921 39.906492 
L 362.859501 39.678956 
L 358.90108 39.457928 
L 354.94266 41.729191 
L 350.98424 40.087841 
L 347.02582 41.108201 
L 343.067399 39.938449 
L 339.108979 40.11332 
L 335.150559 40.548913 
L 331.192139 41.558486 
L 327.233718 41.072266 
L 323.275298 42.402225 
L 319.316878 40.308883 
L 315.358458 39.089995 
L 311.400037 40.671841 
L 307.441617 39.999704 
L 303.483197 40.350515 
L 299.524776 41.107174 
L 295.566356 40.3386 
L 291.607936 45.76887 
L 287.649516 42.16785 
L 283.691095 41.201919 
L 279.732675 39.944711 
L 275.774255 39.891279 
L 271.815835 39.648358 
L 267.857414 40.797966 
L 263.898994 40.060727 
L 259.940574 40.614665 
L 255.982154 40.824081 
L 252.023733 40.484882 
L 248.065313 39.662862 
L 244.106893 40.196916 
L 240.148472 40.317907 
L 236.190052 39.502958 
L 232.231632 39.539745 
L 228.273212 39.555174 
L 224.314791 41.167821 
L 220.356371 40.108259 
L 216.397951 40.586843 
L 212.439531 42.660649 
L 208.48111 41.198694 
L 204.52269 40.663093 
L 200.56427 41.664423 
L 196.605849 40.694226 
L 192.647429 42.936728 
L 188.689009 41.342056 
L 184.730589 40.169542 
L 180.772168 76.322326 
L 176.813748 89.708578 
L 172.855328 82.042125 
L 168.896908 80.066404 
L 164.938487 81.314387 
L 160.980067 81.562413 
L 157.021647 82.970039 
L 153.063227 85.003761 
L 149.104806 81.17373 
L 145.146386 79.345318 
L 141.187966 80.424243 
L 137.229545 81.198877 
z
" clip-path="url(#p5c568d4857)" style="fill: #2ca02c"/>
   </g>
   <g id="matplotlib.axis_1">
    <g id="xtick_1">
     <g id="line2d_1">
      <path d="M 137.229545 331.64 
L 137.229545 23.76 
" clip-path="url(#p5c568d4857)" style="fill: none; stroke-dasharray: 5.12,1.28,0.8,1.28; stroke-dashoffset: 0; stroke: #b0b0b0; stroke-width: 0.8"/>
     </g>
     <g id="line2d_2">
      <defs>
       <path id="m6716b85f3d" d="M 0 0 
L 0 3.5 
" style="stroke: #000000; stroke-width: 0.8"/>
      </defs>
      <g>
       <use xlink:href="#m6716b85f3d" x="137.229545" y="331.64" style="stroke: #000000; stroke-width: 0.8"/>
      </g>
     </g>
     <g id="text_1">
      <!-- 0 -->
      <g transform="translate(130.230795 355.356563)scale(0.22 -0.22)">
       <defs>
        <path id="DejaVuSans-30" d="M 2034 4250 
Q 1547 4250 1301 3770 
Q 1056 3291 1056 2328 
Q 1056 1369 1301 889 
Q 1547 409 2034 409 
Q 2525 409 2770 889 
Q 3016 1369 3016 2328 
Q 3016 3291 2770 3770 
Q 2525 4250 2034 4250 
z
M 2034 4750 
Q 2819 4750 3233 4129 
Q 3647 3509 3647 2328 
Q 3647 1150 3233 529 
Q 2819 -91 2034 -91 
Q 1250 -91 836 529 
Q 422 1150 422 2328 
Q 422 3509 836 4129 
Q 1250 4750 2034 4750 
z
" transform="scale(0.015625)"/>
       </defs>
       <use xlink:href="#DejaVuSans-30"/>
      </g>
     </g>
    </g>
    <g id="xtick_2">
     <g id="line2d_3">
      <path d="M 236.190052 331.64 
L 236.190052 23.76 
" clip-path="url(#p5c568d4857)" style="fill: none; stroke-dasharray: 5.12,1.28,0.8,1.28; stroke-dashoffset: 0; stroke: #b0b0b0; stroke-width: 0.8"/>
     </g>
     <g id="line2d_4">
      <g>
       <use xlink:href="#m6716b85f3d" x="236.190052" y="331.64" style="stroke: #000000; stroke-width: 0.8"/>
      </g>
     </g>
     <g id="text_2">
      <!-- 25 -->
      <g transform="translate(222.192552 355.356563)scale(0.22 -0.22)">
       <defs>
        <path id="DejaVuSans-32" d="M 1228 531 
L 3431 531 
L 3431 0 
L 469 0 
L 469 531 
Q 828 903 1448 1529 
Q 2069 2156 2228 2338 
Q 2531 2678 2651 2914 
Q 2772 3150 2772 3378 
Q 2772 3750 2511 3984 
Q 2250 4219 1831 4219 
Q 1534 4219 1204 4116 
Q 875 4013 500 3803 
L 500 4441 
Q 881 4594 1212 4672 
Q 1544 4750 1819 4750 
Q 2544 4750 2975 4387 
Q 3406 4025 3406 3419 
Q 3406 3131 3298 2873 
Q 3191 2616 2906 2266 
Q 2828 2175 2409 1742 
Q 1991 1309 1228 531 
z
" transform="scale(0.015625)"/>
        <path id="DejaVuSans-35" d="M 691 4666 
L 3169 4666 
L 3169 4134 
L 1269 4134 
L 1269 2991 
Q 1406 3038 1543 3061 
Q 1681 3084 1819 3084 
Q 2600 3084 3056 2656 
Q 3513 2228 3513 1497 
Q 3513 744 3044 326 
Q 2575 -91 1722 -91 
Q 1428 -91 1123 -41 
Q 819 9 494 109 
L 494 744 
Q 775 591 1075 516 
Q 1375 441 1709 441 
Q 2250 441 2565 725 
Q 2881 1009 2881 1497 
Q 2881 1984 2565 2268 
Q 2250 2553 1709 2553 
Q 1456 2553 1204 2497 
Q 953 2441 691 2322 
L 691 4666 
z
" transform="scale(0.015625)"/>
       </defs>
       <use xlink:href="#DejaVuSans-32"/>
       <use xlink:href="#DejaVuSans-35" x="63.623047"/>
      </g>
     </g>
    </g>
    <g id="xtick_3">
     <g id="line2d_5">
      <path d="M 335.150559 331.64 
L 335.150559 23.76 
" clip-path="url(#p5c568d4857)" style="fill: none; stroke-dasharray: 5.12,1.28,0.8,1.28; stroke-dashoffset: 0; stroke: #b0b0b0; stroke-width: 0.8"/>
     </g>
     <g id="line2d_6">
      <g>
       <use xlink:href="#m6716b85f3d" x="335.150559" y="331.64" style="stroke: #000000; stroke-width: 0.8"/>
      </g>
     </g>
     <g id="text_3">
      <!-- 50 -->
      <g transform="translate(321.153059 355.356563)scale(0.22 -0.22)">
       <use xlink:href="#DejaVuSans-35"/>
       <use xlink:href="#DejaVuSans-30" x="63.623047"/>
      </g>
     </g>
    </g>
    <g id="xtick_4">
     <g id="line2d_7">
      <path d="M 434.111066 331.64 
L 434.111066 23.76 
" clip-path="url(#p5c568d4857)" style="fill: none; stroke-dasharray: 5.12,1.28,0.8,1.28; stroke-dashoffset: 0; stroke: #b0b0b0; stroke-width: 0.8"/>
     </g>
     <g id="line2d_8">
      <g>
       <use xlink:href="#m6716b85f3d" x="434.111066" y="331.64" style="stroke: #000000; stroke-width: 0.8"/>
      </g>
     </g>
     <g id="text_4">
      <!-- 75 -->
      <g transform="translate(420.113566 355.356563)scale(0.22 -0.22)">
       <defs>
        <path id="DejaVuSans-37" d="M 525 4666 
L 3525 4666 
L 3525 4397 
L 1831 0 
L 1172 0 
L 2766 4134 
L 525 4134 
L 525 4666 
z
" transform="scale(0.015625)"/>
       </defs>
       <use xlink:href="#DejaVuSans-37"/>
       <use xlink:href="#DejaVuSans-35" x="63.623047"/>
      </g>
     </g>
    </g>
    <g id="xtick_5">
     <g id="line2d_9">
      <path d="M 533.071572 331.64 
L 533.071572 23.76 
" clip-path="url(#p5c568d4857)" style="fill: none; stroke-dasharray: 5.12,1.28,0.8,1.28; stroke-dashoffset: 0; stroke: #b0b0b0; stroke-width: 0.8"/>
     </g>
     <g id="line2d_10">
      <g>
       <use xlink:href="#m6716b85f3d" x="533.071572" y="331.64" style="stroke: #000000; stroke-width: 0.8"/>
      </g>
     </g>
     <g id="text_5">
      <!-- 100 -->
      <g transform="translate(512.075322 355.356563)scale(0.22 -0.22)">
       <defs>
        <path id="DejaVuSans-31" d="M 794 531 
L 1825 531 
L 1825 4091 
L 703 3866 
L 703 4441 
L 1819 4666 
L 2450 4666 
L 2450 531 
L 3481 531 
L 3481 0 
L 794 0 
L 794 531 
z
" transform="scale(0.015625)"/>
       </defs>
       <use xlink:href="#DejaVuSans-31"/>
       <use xlink:href="#DejaVuSans-30" x="63.623047"/>
       <use xlink:href="#DejaVuSans-30" x="127.246094"/>
      </g>
     </g>
    </g>
    <g id="xtick_6">
     <g id="line2d_11">
      <path d="M 632.032079 331.64 
L 632.032079 23.76 
" clip-path="url(#p5c568d4857)" style="fill: none; stroke-dasharray: 5.12,1.28,0.8,1.28; stroke-dashoffset: 0; stroke: #b0b0b0; stroke-width: 0.8"/>
     </g>
     <g id="line2d_12">
      <g>
       <use xlink:href="#m6716b85f3d" x="632.032079" y="331.64" style="stroke: #000000; stroke-width: 0.8"/>
      </g>
     </g>
     <g id="text_6">
      <!-- 125 -->
      <g transform="translate(611.035829 355.356563)scale(0.22 -0.22)">
       <use xlink:href="#DejaVuSans-31"/>
       <use xlink:href="#DejaVuSans-32" x="63.623047"/>
       <use xlink:href="#DejaVuSans-35" x="127.246094"/>
      </g>
     </g>
    </g>
    <g id="xtick_7">
     <g id="line2d_13">
      <path d="M 730.992586 331.64 
L 730.992586 23.76 
" clip-path="url(#p5c568d4857)" style="fill: none; stroke-dasharray: 5.12,1.28,0.8,1.28; stroke-dashoffset: 0; stroke: #b0b0b0; stroke-width: 0.8"/>
     </g>
     <g id="line2d_14">
      <g>
       <use xlink:href="#m6716b85f3d" x="730.992586" y="331.64" style="stroke: #000000; stroke-width: 0.8"/>
      </g>
     </g>
     <g id="text_7">
      <!-- 150 -->
      <g transform="translate(709.996336 355.356563)scale(0.22 -0.22)">
       <use xlink:href="#DejaVuSans-31"/>
       <use xlink:href="#DejaVuSans-35" x="63.623047"/>
       <use xlink:href="#DejaVuSans-30" x="127.246094"/>
      </g>
     </g>
    </g>
    <g id="xtick_8">
     <g id="line2d_15">
      <path d="M 829.953092 331.64 
L 829.953092 23.76 
" clip-path="url(#p5c568d4857)" style="fill: none; stroke-dasharray: 5.12,1.28,0.8,1.28; stroke-dashoffset: 0; stroke: #b0b0b0; stroke-width: 0.8"/>
     </g>
     <g id="line2d_16">
      <g>
       <use xlink:href="#m6716b85f3d" x="829.953092" y="331.64" style="stroke: #000000; stroke-width: 0.8"/>
      </g>
     </g>
     <g id="text_8">
      <!-- 175 -->
      <g transform="translate(808.956842 355.356563)scale(0.22 -0.22)">
       <use xlink:href="#DejaVuSans-31"/>
       <use xlink:href="#DejaVuSans-37" x="63.623047"/>
       <use xlink:href="#DejaVuSans-35" x="127.246094"/>
      </g>
     </g>
    </g>
    <g id="text_9">
     <!-- Time (s) -->
     <g transform="translate(450.635625 382.168125)scale(0.24 -0.24)">
      <defs>
       <path id="DejaVuSans-54" d="M -19 4666 
L 3928 4666 
L 3928 4134 
L 2272 4134 
L 2272 0 
L 1638 0 
L 1638 4134 
L -19 4134 
L -19 4666 
z
" transform="scale(0.015625)"/>
       <path id="DejaVuSans-69" d="M 603 3500 
L 1178 3500 
L 1178 0 
L 603 0 
L 603 3500 
z
M 603 4863 
L 1178 4863 
L 1178 4134 
L 603 4134 
L 603 4863 
z
" transform="scale(0.015625)"/>
       <path id="DejaVuSans-6d" d="M 3328 2828 
Q 3544 3216 3844 3400 
Q 4144 3584 4550 3584 
Q 5097 3584 5394 3201 
Q 5691 2819 5691 2113 
L 5691 0 
L 5113 0 
L 5113 2094 
Q 5113 2597 4934 2840 
Q 4756 3084 4391 3084 
Q 3944 3084 3684 2787 
Q 3425 2491 3425 1978 
L 3425 0 
L 2847 0 
L 2847 2094 
Q 2847 2600 2669 2842 
Q 2491 3084 2119 3084 
Q 1678 3084 1418 2786 
Q 1159 2488 1159 1978 
L 1159 0 
L 581 0 
L 581 3500 
L 1159 3500 
L 1159 2956 
Q 1356 3278 1631 3431 
Q 1906 3584 2284 3584 
Q 2666 3584 2933 3390 
Q 3200 3197 3328 2828 
z
" transform="scale(0.015625)"/>
       <path id="DejaVuSans-65" d="M 3597 1894 
L 3597 1613 
L 953 1613 
Q 991 1019 1311 708 
Q 1631 397 2203 397 
Q 2534 397 2845 478 
Q 3156 559 3463 722 
L 3463 178 
Q 3153 47 2828 -22 
Q 2503 -91 2169 -91 
Q 1331 -91 842 396 
Q 353 884 353 1716 
Q 353 2575 817 3079 
Q 1281 3584 2069 3584 
Q 2775 3584 3186 3129 
Q 3597 2675 3597 1894 
z
M 3022 2063 
Q 3016 2534 2758 2815 
Q 2500 3097 2075 3097 
Q 1594 3097 1305 2825 
Q 1016 2553 972 2059 
L 3022 2063 
z
" transform="scale(0.015625)"/>
       <path id="DejaVuSans-20" transform="scale(0.015625)"/>
       <path id="DejaVuSans-28" d="M 1984 4856 
Q 1566 4138 1362 3434 
Q 1159 2731 1159 2009 
Q 1159 1288 1364 580 
Q 1569 -128 1984 -844 
L 1484 -844 
Q 1016 -109 783 600 
Q 550 1309 550 2009 
Q 550 2706 781 3412 
Q 1013 4119 1484 4856 
L 1984 4856 
z
" transform="scale(0.015625)"/>
       <path id="DejaVuSans-73" d="M 2834 3397 
L 2834 2853 
Q 2591 2978 2328 3040 
Q 2066 3103 1784 3103 
Q 1356 3103 1142 2972 
Q 928 2841 928 2578 
Q 928 2378 1081 2264 
Q 1234 2150 1697 2047 
L 1894 2003 
Q 2506 1872 2764 1633 
Q 3022 1394 3022 966 
Q 3022 478 2636 193 
Q 2250 -91 1575 -91 
Q 1294 -91 989 -36 
Q 684 19 347 128 
L 347 722 
Q 666 556 975 473 
Q 1284 391 1588 391 
Q 1994 391 2212 530 
Q 2431 669 2431 922 
Q 2431 1156 2273 1281 
Q 2116 1406 1581 1522 
L 1381 1569 
Q 847 1681 609 1914 
Q 372 2147 372 2553 
Q 372 3047 722 3315 
Q 1072 3584 1716 3584 
Q 2034 3584 2315 3537 
Q 2597 3491 2834 3397 
z
" transform="scale(0.015625)"/>
       <path id="DejaVuSans-29" d="M 513 4856 
L 1013 4856 
Q 1481 4119 1714 3412 
Q 1947 2706 1947 2009 
Q 1947 1309 1714 600 
Q 1481 -109 1013 -844 
L 513 -844 
Q 928 -128 1133 580 
Q 1338 1288 1338 2009 
Q 1338 2731 1133 3434 
Q 928 4138 513 4856 
z
" transform="scale(0.015625)"/>
      </defs>
      <use xlink:href="#DejaVuSans-54"/>
      <use xlink:href="#DejaVuSans-69" x="57.958984"/>
      <use xlink:href="#DejaVuSans-6d" x="85.742188"/>
      <use xlink:href="#DejaVuSans-65" x="183.154297"/>
      <use xlink:href="#DejaVuSans-20" x="244.677734"/>
      <use xlink:href="#DejaVuSans-28" x="276.464844"/>
      <use xlink:href="#DejaVuSans-73" x="315.478516"/>
      <use xlink:href="#DejaVuSans-29" x="367.578125"/>
     </g>
    </g>
   </g>
   <g id="matplotlib.axis_2">
    <g id="ytick_1">
     <g id="line2d_17">
      <path d="M 101.01 331.64 
L 897.84 331.64 
" clip-path="url(#p5c568d4857)" style="fill: none; stroke-dasharray: 5.12,1.28,0.8,1.28; stroke-dashoffset: 0; stroke: #b0b0b0; stroke-width: 0.8"/>
     </g>
     <g id="line2d_18">
      <defs>
       <path id="mcf22f7de2d" d="M 0 0 
L -3.5 0 
" style="stroke: #000000; stroke-width: 0.8"/>
      </defs>
      <g>
       <use xlink:href="#mcf22f7de2d" x="101.01" y="331.64" style="stroke: #000000; stroke-width: 0.8"/>
      </g>
     </g>
     <g id="text_10">
      <!-- 0 -->
      <g transform="translate(80.0125 339.998281)scale(0.22 -0.22)">
       <use xlink:href="#DejaVuSans-30"/>
      </g>
     </g>
    </g>
    <g id="ytick_2">
     <g id="line2d_19">
      <path d="M 101.01 241.262016 
L 897.84 241.262016 
" clip-path="url(#p5c568d4857)" style="fill: none; stroke-dasharray: 5.12,1.28,0.8,1.28; stroke-dashoffset: 0; stroke: #b0b0b0; stroke-width: 0.8"/>
     </g>
     <g id="line2d_20">
      <g>
       <use xlink:href="#mcf22f7de2d" x="101.01" y="241.262016" style="stroke: #000000; stroke-width: 0.8"/>
      </g>
     </g>
     <g id="text_11">
      <!-- 50 -->
      <g transform="translate(66.015 249.620298)scale(0.22 -0.22)">
       <use xlink:href="#DejaVuSans-35"/>
       <use xlink:href="#DejaVuSans-30" x="63.623047"/>
      </g>
     </g>
    </g>
    <g id="ytick_3">
     <g id="line2d_21">
      <path d="M 101.01 150.884033 
L 897.84 150.884033 
" clip-path="url(#p5c568d4857)" style="fill: none; stroke-dasharray: 5.12,1.28,0.8,1.28; stroke-dashoffset: 0; stroke: #b0b0b0; stroke-width: 0.8"/>
     </g>
     <g id="line2d_22">
      <g>
       <use xlink:href="#mcf22f7de2d" x="101.01" y="150.884033" style="stroke: #000000; stroke-width: 0.8"/>
      </g>
     </g>
     <g id="text_12">
      <!-- 100 -->
      <g transform="translate(52.0175 159.242314)scale(0.22 -0.22)">
       <use xlink:href="#DejaVuSans-31"/>
       <use xlink:href="#DejaVuSans-30" x="63.623047"/>
       <use xlink:href="#DejaVuSans-30" x="127.246094"/>
      </g>
     </g>
    </g>
    <g id="ytick_4">
     <g id="line2d_23">
      <path d="M 101.01 60.506049 
L 897.84 60.506049 
" clip-path="url(#p5c568d4857)" style="fill: none; stroke-dasharray: 5.12,1.28,0.8,1.28; stroke-dashoffset: 0; stroke: #b0b0b0; stroke-width: 0.8"/>
     </g>
     <g id="line2d_24">
      <g>
       <use xlink:href="#mcf22f7de2d" x="101.01" y="60.506049" style="stroke: #000000; stroke-width: 0.8"/>
      </g>
     </g>
     <g id="text_13">
      <!-- 150 -->
      <g transform="translate(52.0175 68.86433)scale(0.22 -0.22)">
       <use xlink:href="#DejaVuSans-31"/>
       <use xlink:href="#DejaVuSans-35" x="63.623047"/>
       <use xlink:href="#DejaVuSans-30" x="127.246094"/>
      </g>
     </g>
    </g>
    <g id="text_14">
     <!-- Throughput (Mbps) -->
     <g transform="translate(43.02625 292.414375)rotate(-90)scale(0.24 -0.24)">
      <defs>
       <path id="DejaVuSans-68" d="M 3513 2113 
L 3513 0 
L 2938 0 
L 2938 2094 
Q 2938 2591 2744 2837 
Q 2550 3084 2163 3084 
Q 1697 3084 1428 2787 
Q 1159 2491 1159 1978 
L 1159 0 
L 581 0 
L 581 4863 
L 1159 4863 
L 1159 2956 
Q 1366 3272 1645 3428 
Q 1925 3584 2291 3584 
Q 2894 3584 3203 3211 
Q 3513 2838 3513 2113 
z
" transform="scale(0.015625)"/>
       <path id="DejaVuSans-72" d="M 2631 2963 
Q 2534 3019 2420 3045 
Q 2306 3072 2169 3072 
Q 1681 3072 1420 2755 
Q 1159 2438 1159 1844 
L 1159 0 
L 581 0 
L 581 3500 
L 1159 3500 
L 1159 2956 
Q 1341 3275 1631 3429 
Q 1922 3584 2338 3584 
Q 2397 3584 2469 3576 
Q 2541 3569 2628 3553 
L 2631 2963 
z
" transform="scale(0.015625)"/>
       <path id="DejaVuSans-6f" d="M 1959 3097 
Q 1497 3097 1228 2736 
Q 959 2375 959 1747 
Q 959 1119 1226 758 
Q 1494 397 1959 397 
Q 2419 397 2687 759 
Q 2956 1122 2956 1747 
Q 2956 2369 2687 2733 
Q 2419 3097 1959 3097 
z
M 1959 3584 
Q 2709 3584 3137 3096 
Q 3566 2609 3566 1747 
Q 3566 888 3137 398 
Q 2709 -91 1959 -91 
Q 1206 -91 779 398 
Q 353 888 353 1747 
Q 353 2609 779 3096 
Q 1206 3584 1959 3584 
z
" transform="scale(0.015625)"/>
       <path id="DejaVuSans-75" d="M 544 1381 
L 544 3500 
L 1119 3500 
L 1119 1403 
Q 1119 906 1312 657 
Q 1506 409 1894 409 
Q 2359 409 2629 706 
Q 2900 1003 2900 1516 
L 2900 3500 
L 3475 3500 
L 3475 0 
L 2900 0 
L 2900 538 
Q 2691 219 2414 64 
Q 2138 -91 1772 -91 
Q 1169 -91 856 284 
Q 544 659 544 1381 
z
M 1991 3584 
L 1991 3584 
z
" transform="scale(0.015625)"/>
       <path id="DejaVuSans-67" d="M 2906 1791 
Q 2906 2416 2648 2759 
Q 2391 3103 1925 3103 
Q 1463 3103 1205 2759 
Q 947 2416 947 1791 
Q 947 1169 1205 825 
Q 1463 481 1925 481 
Q 2391 481 2648 825 
Q 2906 1169 2906 1791 
z
M 3481 434 
Q 3481 -459 3084 -895 
Q 2688 -1331 1869 -1331 
Q 1566 -1331 1297 -1286 
Q 1028 -1241 775 -1147 
L 775 -588 
Q 1028 -725 1275 -790 
Q 1522 -856 1778 -856 
Q 2344 -856 2625 -561 
Q 2906 -266 2906 331 
L 2906 616 
Q 2728 306 2450 153 
Q 2172 0 1784 0 
Q 1141 0 747 490 
Q 353 981 353 1791 
Q 353 2603 747 3093 
Q 1141 3584 1784 3584 
Q 2172 3584 2450 3431 
Q 2728 3278 2906 2969 
L 2906 3500 
L 3481 3500 
L 3481 434 
z
" transform="scale(0.015625)"/>
       <path id="DejaVuSans-70" d="M 1159 525 
L 1159 -1331 
L 581 -1331 
L 581 3500 
L 1159 3500 
L 1159 2969 
Q 1341 3281 1617 3432 
Q 1894 3584 2278 3584 
Q 2916 3584 3314 3078 
Q 3713 2572 3713 1747 
Q 3713 922 3314 415 
Q 2916 -91 2278 -91 
Q 1894 -91 1617 61 
Q 1341 213 1159 525 
z
M 3116 1747 
Q 3116 2381 2855 2742 
Q 2594 3103 2138 3103 
Q 1681 3103 1420 2742 
Q 1159 2381 1159 1747 
Q 1159 1113 1420 752 
Q 1681 391 2138 391 
Q 2594 391 2855 752 
Q 3116 1113 3116 1747 
z
" transform="scale(0.015625)"/>
       <path id="DejaVuSans-74" d="M 1172 4494 
L 1172 3500 
L 2356 3500 
L 2356 3053 
L 1172 3053 
L 1172 1153 
Q 1172 725 1289 603 
Q 1406 481 1766 481 
L 2356 481 
L 2356 0 
L 1766 0 
Q 1100 0 847 248 
Q 594 497 594 1153 
L 594 3053 
L 172 3053 
L 172 3500 
L 594 3500 
L 594 4494 
L 1172 4494 
z
" transform="scale(0.015625)"/>
       <path id="DejaVuSans-4d" d="M 628 4666 
L 1569 4666 
L 2759 1491 
L 3956 4666 
L 4897 4666 
L 4897 0 
L 4281 0 
L 4281 4097 
L 3078 897 
L 2444 897 
L 1241 4097 
L 1241 0 
L 628 0 
L 628 4666 
z
" transform="scale(0.015625)"/>
       <path id="DejaVuSans-62" d="M 3116 1747 
Q 3116 2381 2855 2742 
Q 2594 3103 2138 3103 
Q 1681 3103 1420 2742 
Q 1159 2381 1159 1747 
Q 1159 1113 1420 752 
Q 1681 391 2138 391 
Q 2594 391 2855 752 
Q 3116 1113 3116 1747 
z
M 1159 2969 
Q 1341 3281 1617 3432 
Q 1894 3584 2278 3584 
Q 2916 3584 3314 3078 
Q 3713 2572 3713 1747 
Q 3713 922 3314 415 
Q 2916 -91 2278 -91 
Q 1894 -91 1617 61 
Q 1341 213 1159 525 
L 1159 0 
L 581 0 
L 581 4863 
L 1159 4863 
L 1159 2969 
z
" transform="scale(0.015625)"/>
      </defs>
      <use xlink:href="#DejaVuSans-54"/>
      <use xlink:href="#DejaVuSans-68" x="61.083984"/>
      <use xlink:href="#DejaVuSans-72" x="124.462891"/>
      <use xlink:href="#DejaVuSans-6f" x="163.326172"/>
      <use xlink:href="#DejaVuSans-75" x="224.507812"/>
      <use xlink:href="#DejaVuSans-67" x="287.886719"/>
      <use xlink:href="#DejaVuSans-68" x="351.363281"/>
      <use xlink:href="#DejaVuSans-70" x="414.742188"/>
      <use xlink:href="#DejaVuSans-75" x="478.21875"/>
      <use xlink:href="#DejaVuSans-74" x="541.597656"/>
      <use xlink:href="#DejaVuSans-20" x="580.806641"/>
      <use xlink:href="#DejaVuSans-28" x="612.59375"/>
      <use xlink:href="#DejaVuSans-4d" x="651.607422"/>
      <use xlink:href="#DejaVuSans-62" x="737.886719"/>
      <use xlink:href="#DejaVuSans-70" x="801.363281"/>
      <use xlink:href="#DejaVuSans-73" x="864.839844"/>
      <use xlink:href="#DejaVuSans-29" x="916.939453"/>
     </g>
    </g>
   </g>
   <g id="patch_3">
    <path d="M 101.01 331.64 
L 101.01 23.76 
" style="fill: none; stroke: #000000; stroke-width: 0.8; stroke-linejoin: miter; stroke-linecap: square"/>
   </g>
   <g id="patch_4">
    <path d="M 897.84 331.64 
L 897.84 23.76 
" style="fill: none; stroke: #000000; stroke-width: 0.8; stroke-linejoin: miter; stroke-linecap: square"/>
   </g>
   <g id="patch_5">
    <path d="M 101.01 331.64 
L 897.84 331.64 
" style="fill: none; stroke: #000000; stroke-width: 0.8; stroke-linejoin: miter; stroke-linecap: square"/>
   </g>
   <g id="patch_6">
    <path d="M 101.01 23.76 
L 897.84 23.76 
" style="fill: none; stroke: #000000; stroke-width: 0.8; stroke-linejoin: miter; stroke-linecap: square"/>
   </g>
   <g id="legend_1">
    <g id="patch_7">
     <path d="M 756.24 148.6425 
L 881.04 148.6425 
Q 885.84 148.6425 885.84 143.8425 
L 885.84 40.56 
Q 885.84 35.76 881.04 35.76 
L 756.24 35.76 
Q 751.44 35.76 751.44 40.56 
L 751.44 143.8425 
Q 751.44 148.6425 756.24 148.6425 
z
" style="fill: #ffffff; opacity: 0.8; stroke: #cccccc; stroke-linejoin: miter"/>
    </g>
    <g id="patch_8">
     <path d="M 761.04 63.59625 
L 809.04 63.59625 
L 809.04 46.79625 
L 761.04 46.79625 
z
" style="fill: #1f77b4"/>
    </g>
    <g id="text_15">
     <!-- UE1 -->
     <g transform="translate(828.24 63.59625)scale(0.24 -0.24)">
      <defs>
       <path id="DejaVuSans-55" d="M 556 4666 
L 1191 4666 
L 1191 1831 
Q 1191 1081 1462 751 
Q 1734 422 2344 422 
Q 2950 422 3222 751 
Q 3494 1081 3494 1831 
L 3494 4666 
L 4128 4666 
L 4128 1753 
Q 4128 841 3676 375 
Q 3225 -91 2344 -91 
Q 1459 -91 1007 375 
Q 556 841 556 1753 
L 556 4666 
z
" transform="scale(0.015625)"/>
       <path id="DejaVuSans-45" d="M 628 4666 
L 3578 4666 
L 3578 4134 
L 1259 4134 
L 1259 2753 
L 3481 2753 
L 3481 2222 
L 1259 2222 
L 1259 531 
L 3634 531 
L 3634 0 
L 628 0 
L 628 4666 
z
" transform="scale(0.015625)"/>
      </defs>
      <use xlink:href="#DejaVuSans-55"/>
      <use xlink:href="#DejaVuSans-45" x="73.193359"/>
      <use xlink:href="#DejaVuSans-31" x="136.376953"/>
     </g>
    </g>
    <g id="patch_9">
     <path d="M 761.04 98.82375 
L 809.04 98.82375 
L 809.04 82.02375 
L 761.04 82.02375 
z
" style="fill: #ff7f0e"/>
    </g>
    <g id="text_16">
     <!-- UE2 -->
     <g transform="translate(828.24 98.82375)scale(0.24 -0.24)">
      <use xlink:href="#DejaVuSans-55"/>
      <use xlink:href="#DejaVuSans-45" x="73.193359"/>
      <use xlink:href="#DejaVuSans-32" x="136.376953"/>
     </g>
    </g>
    <g id="patch_10">
     <path d="M 761.04 134.05125 
L 809.04 134.05125 
L 809.04 117.25125 
L 761.04 117.25125 
z
" style="fill: #2ca02c"/>
    </g>
    <g id="text_17">
     <!-- UE3 -->
     <g transform="translate(828.24 134.05125)scale(0.24 -0.24)">
      <defs>
       <path id="DejaVuSans-33" d="M 2597 2516 
Q 3050 2419 3304 2112 
Q 3559 1806 3559 1356 
Q 3559 666 3084 287 
Q 2609 -91 1734 -91 
Q 1441 -91 1130 -33 
Q 819 25 488 141 
L 488 750 
Q 750 597 1062 519 
Q 1375 441 1716 441 
Q 2309 441 2620 675 
Q 2931 909 2931 1356 
Q 2931 1769 2642 2001 
Q 2353 2234 1838 2234 
L 1294 2234 
L 1294 2753 
L 1863 2753 
Q 2328 2753 2575 2939 
Q 2822 3125 2822 3475 
Q 2822 3834 2567 4026 
Q 2313 4219 1838 4219 
Q 1578 4219 1281 4162 
Q 984 4106 628 3988 
L 628 4550 
Q 988 4650 1302 4700 
Q 1616 4750 1894 4750 
Q 2613 4750 3031 4423 
Q 3450 4097 3450 3541 
Q 3450 3153 3228 2886 
Q 3006 2619 2597 2516 
z
" transform="scale(0.015625)"/>
      </defs>
      <use xlink:href="#DejaVuSans-55"/>
      <use xlink:href="#DejaVuSans-45" x="73.193359"/>
      <use xlink:href="#DejaVuSans-33" x="136.376953"/>
     </g>
    </g>
   </g>
  </g>
 </g>
 <defs>
  <clipPath id="p5c568d4857">
   <rect x="101.01" y="23.76" width="796.83" height="307.88"/>
  </clipPath>
 </defs>
</svg>
