<?xml version="1.0" encoding="utf-8" standalone="no"?>
<!DOCTYPE svg PUBLIC "-//W3C//DTD SVG 1.1//EN"
  "http://www.w3.org/Graphics/SVG/1.1/DTD/svg11.dtd">
<svg xmlns:xlink="http://www.w3.org/1999/xlink" width="921.6pt" height="410.4pt" viewBox="0 0 921.6 410.4" xmlns="http://www.w3.org/2000/svg" version="1.1">
 <metadata>
  <rdf:RDF xmlns:dc="http://purl.org/dc/elements/1.1/" xmlns:cc="http://creativecommons.org/ns#" xmlns:rdf="http://www.w3.org/1999/02/22-rdf-syntax-ns#">
   <cc:Work>
    <dc:type rdf:resource="http://purl.org/dc/dcmitype/StillImage"/>
    <dc:date>2023-04-11T15:20:42.009531</dc:date>
    <dc:format>image/svg+xml</dc:format>
    <dc:creator>
     <cc:Agent>
      <dc:title>Matplotlib v3.5.3, https://matplotlib.org/</dc:title>
     </cc:Agent>
    </dc:creator>
   </cc:Work>
  </rdf:RDF>
 </metadata>
 <defs>
  <style type="text/css">*{stroke-linejoin: round; stroke-linecap: butt}</style>
 </defs>
 <g id="figure_1">
  <g id="patch_1">
   <path d="M 0 410.4 
L 921.6 410.4 
L 921.6 0 
L 0 0 
L 0 410.4 
z
" style="fill: none"/>
  </g>
  <g id="axes_1">
   <g id="patch_2">
    <path d="M 101.01 331.64 
L 897.84 331.64 
L 897.84 23.76 
L 101.01 23.76 
z
" style="fill: #ffffff"/>
   </g>
   <g id="PolyCollection_1">
    <path d="M 137.229545 187.611345 
L 137.229545 331.64 
L 141.209715 331.64 
L 145.189885 331.64 
L 149.170055 331.64 
L 153.150225 331.64 
L 157.130395 331.64 
L 161.110564 331.64 
L 165.090734 331.64 
L 169.070904 331.64 
L 173.051074 331.64 
L 177.031244 331.64 
L 181.011414 331.64 
L 184.991583 331.64 
L 188.971753 331.64 
L 192.951923 331.64 
L 196.932093 331.64 
L 200.912263 331.64 
L 204.892433 331.64 
L 208.872602 331.64 
L 212.852772 331.64 
L 216.832942 331.64 
L 220.813112 331.64 
L 224.793282 331.64 
L 228.773452 331.64 
L 232.753621 331.64 
L 236.733791 331.64 
L 240.713961 331.64 
L 244.694131 331.64 
L 248.674301 331.64 
L 252.654471 331.64 
L 256.63464 331.64 
L 260.61481 331.64 
L 264.59498 331.64 
L 268.57515 331.64 
L 272.55532 331.64 
L 276.53549 331.64 
L 280.515659 331.64 
L 284.495829 331.64 
L 288.475999 331.64 
L 292.456169 331.64 
L 296.436339 331.64 
L 300.416508 331.64 
L 304.396678 331.64 
L 308.376848 331.64 
L 312.357018 331.64 
L 316.337188 331.64 
L 320.317358 331.64 
L 324.297527 331.64 
L 328.277697 331.64 
L 332.257867 331.64 
L 336.238037 331.64 
L 340.218207 331.64 
L 344.198377 331.64 
L 348.178546 331.64 
L 352.158716 331.64 
L 356.138886 331.64 
L 360.119056 331.64 
L 364.099226 331.64 
L 368.079396 331.64 
L 372.059565 331.64 
L 376.039735 331.64 
L 380.019905 331.64 
L 384.000075 331.64 
L 387.980245 331.64 
L 391.960415 331.64 
L 395.940584 331.64 
L 399.920754 331.64 
L 403.900924 331.64 
L 407.881094 331.64 
L 411.861264 331.64 
L 415.841434 331.64 
L 419.821603 331.64 
L 423.801773 331.64 
L 427.781943 331.64 
L 431.762113 331.64 
L 435.742283 331.64 
L 439.722453 331.64 
L 443.702622 331.64 
L 447.682792 331.64 
L 451.662962 331.64 
L 455.643132 331.64 
L 459.623302 331.64 
L 463.603472 331.64 
L 467.583641 331.64 
L 471.563811 331.64 
L 475.543981 331.64 
L 479.524151 331.64 
L 483.504321 331.64 
L 487.484491 331.64 
L 491.46466 331.64 
L 495.44483 331.64 
L 499.425 331.64 
L 503.40517 331.64 
L 507.38534 331.64 
L 511.365509 331.64 
L 515.345679 331.64 
L 519.325849 331.64 
L 523.306019 331.64 
L 527.286189 331.64 
L 531.266359 331.64 
L 535.246528 331.64 
L 539.226698 331.64 
L 543.206868 331.64 
L 547.187038 331.64 
L 551.167208 331.64 
L 555.147378 331.64 
L 559.127547 331.64 
L 563.107717 331.64 
L 567.087887 331.64 
L 571.068057 331.64 
L 575.048227 331.64 
L 579.028397 331.64 
L 583.008566 331.64 
L 586.988736 331.64 
L 590.968906 331.64 
L 594.949076 331.64 
L 598.929246 331.64 
L 602.909416 331.64 
L 606.889585 331.64 
L 610.869755 331.64 
L 614.849925 331.64 
L 618.830095 331.64 
L 622.810265 331.64 
L 626.790435 331.64 
L 630.770604 331.64 
L 634.750774 331.64 
L 638.730944 331.64 
L 642.711114 331.64 
L 646.691284 331.64 
L 650.671454 331.64 
L 654.651623 331.64 
L 658.631793 331.64 
L 662.611963 331.64 
L 666.592133 331.64 
L 670.572303 331.64 
L 674.552473 331.64 
L 678.532642 331.64 
L 682.512812 331.64 
L 686.492982 331.64 
L 690.473152 331.64 
L 694.453322 331.64 
L 698.433492 331.64 
L 702.413661 331.64 
L 706.393831 331.64 
L 710.374001 331.64 
L 714.354171 331.64 
L 718.334341 331.64 
L 722.31451 331.64 
L 726.29468 331.64 
L 730.27485 331.64 
L 734.25502 331.64 
L 738.23519 331.64 
L 742.21536 331.64 
L 746.195529 331.64 
L 750.175699 331.64 
L 754.155869 331.64 
L 758.136039 331.64 
L 762.116209 331.64 
L 766.096379 331.64 
L 770.076548 331.64 
L 774.056718 331.64 
L 778.036888 331.64 
L 782.017058 331.64 
L 785.997228 331.64 
L 789.977398 331.64 
L 793.957567 331.64 
L 797.937737 331.64 
L 801.917907 331.64 
L 805.898077 331.64 
L 809.878247 331.64 
L 813.858417 331.64 
L 817.838586 331.64 
L 821.818756 331.64 
L 825.798926 331.64 
L 829.779096 331.64 
L 833.759266 331.64 
L 837.739436 331.64 
L 841.719605 331.64 
L 845.699775 331.64 
L 849.679945 331.64 
L 853.660115 331.64 
L 857.640285 331.64 
L 861.620455 331.64 
L 861.620455 185.757775 
L 861.620455 185.757775 
L 857.640285 185.207093 
L 853.660115 185.465673 
L 849.679945 185.322499 
L 845.699775 185.299701 
L 841.719605 185.32802 
L 837.739436 184.895657 
L 833.759266 185.344368 
L 829.779096 185.706804 
L 825.798926 185.565746 
L 821.818756 185.306817 
L 817.838586 185.435919 
L 813.858417 185.026092 
L 809.878247 185.304499 
L 805.898077 185.703847 
L 801.917907 185.302962 
L 797.937737 185.618775 
L 793.957567 185.314701 
L 789.977398 185.312122 
L 785.997228 184.891411 
L 782.017058 185.700905 
L 778.036888 185.290832 
L 774.056718 185.353789 
L 770.076548 184.941179 
L 766.096379 185.862717 
L 762.116209 185.466195 
L 758.136039 184.905295 
L 754.155869 185.391383 
L 750.175699 185.637804 
L 746.195529 185.226238 
L 742.21536 185.068672 
L 738.23519 185.736181 
L 734.25502 185.500803 
L 730.27485 185.476876 
L 726.29468 185.202527 
L 722.31451 185.309615 
L 718.334341 185.455977 
L 714.354171 185.133991 
L 710.374001 185.04115 
L 706.393831 185.58092 
L 702.413661 185.73176 
L 698.433492 185.315484 
L 694.453322 185.557296 
L 690.473152 185.328354 
L 686.492982 185.303658 
L 682.512812 185.449847 
L 678.532642 185.43431 
L 674.552473 185.142861 
L 670.572303 185.64763 
L 666.592133 185.40789 
L 662.611963 185.297817 
L 658.631793 185.359455 
L 654.651623 185.56718 
L 650.671454 185.261093 
L 646.691284 184.980846 
L 642.711114 185.508861 
L 638.730944 186.006689 
L 634.750774 185.582224 
L 630.770604 185.140034 
L 626.790435 185.09615 
L 622.810265 185.322209 
L 618.830095 185.60047 
L 614.849925 186.54611 
L 610.869755 185.443818 
L 606.889585 185.576311 
L 602.909416 185.554441 
L 598.929246 185.892341 
L 594.949076 185.838253 
L 590.968906 185.146947 
L 586.988736 185.800906 
L 583.008566 185.797935 
L 579.028397 185.697978 
L 575.048227 185.572093 
L 571.068057 185.242614 
L 567.087887 185.547209 
L 563.107717 186.654618 
L 559.127547 185.629978 
L 555.147378 185.03615 
L 551.167208 187.265576 
L 547.187038 185.149614 
L 543.206868 185.279006 
L 539.226698 185.096005 
L 535.246528 185.032005 
L 531.266359 185.333267 
L 527.286189 185.341673 
L 523.306019 184.96257 
L 519.325849 184.921063 
L 515.345679 184.807005 
L 511.365509 185.414137 
L 507.38534 185.334673 
L 503.40517 185.017179 
L 499.425 185.351991 
L 495.44483 185.283513 
L 491.46466 185.024498 
L 487.484491 185.19615 
L 483.504321 185.274484 
L 479.524151 185.437122 
L 475.543981 185.166629 
L 471.563811 185.007802 
L 467.583641 185.462963 
L 463.603472 185.014237 
L 459.623302 185.321368 
L 455.643132 185.235672 
L 451.662962 185.041411 
L 447.682792 185.422731 
L 443.702622 185.182832 
L 439.722453 185.393296 
L 435.742283 185.152861 
L 431.762113 185.145426 
L 427.781943 185.059686 
L 423.801773 185.480542 
L 419.821603 185.100556 
L 415.841434 185.412586 
L 411.861264 185.381673 
L 407.881094 184.921846 
L 403.900924 185.337716 
L 399.920754 185.363803 
L 395.940584 185.090657 
L 391.960415 185.129759 
L 387.980245 185.261412 
L 384.000075 185.837572 
L 380.019905 184.876498 
L 376.039735 185.368803 
L 372.059565 185.247296 
L 368.079396 185.172948 
L 364.099226 185.348223 
L 360.119056 185.00257 
L 356.138886 185.554528 
L 352.158716 185.331238 
L 348.178546 185.107136 
L 344.198377 186.120283 
L 340.218207 185.300296 
L 336.238037 185.185556 
L 332.257867 187.238634 
L 328.277697 185.437122 
L 324.297527 185.142658 
L 320.317358 185.51034 
L 316.337188 185.047686 
L 312.357018 185.135034 
L 308.376848 185.530456 
L 304.396678 185.212484 
L 300.416508 185.026324 
L 296.436339 185.182498 
L 292.456169 185.502963 
L 288.475999 185.574659 
L 284.495829 185.164803 
L 280.515659 185.096165 
L 276.53549 185.364629 
L 272.55532 185.369354 
L 268.57515 187.033865 
L 264.59498 185.060512 
L 260.61481 185.484253 
L 256.63464 185.346962 
L 252.654471 185.313832 
L 248.674301 185.159672 
L 244.694131 185.020541 
L 240.713961 185.691949 
L 236.733791 184.699975 
L 232.753621 185.423238 
L 228.773452 185.241933 
L 224.793282 185.748181 
L 220.813112 185.181556 
L 216.832942 185.30447 
L 212.852772 185.000527 
L 208.872602 185.393354 
L 204.892433 185.1306 
L 200.912263 185.235803 
L 196.932093 185.230397 
L 192.951923 185.450122 
L 188.971753 185.331991 
L 184.991583 185.178658 
L 181.011414 185.076556 
L 177.031244 185.094382 
L 173.051074 185.308672 
L 169.070904 185.176962 
L 165.090734 185.377267 
L 161.110564 185.710659 
L 157.130395 185.199411 
L 153.150225 185.158904 
L 149.170055 185.38318 
L 145.189885 186.634255 
L 141.209715 187.611345 
L 137.229545 187.611345 
z
" clip-path="url(#pdbbe78625d)" style="fill: #1f77b4"/>
   </g>
   <g id="PolyCollection_2">
    <path d="M 137.229545 43.523631 
L 137.229545 187.611345 
L 141.209715 187.611345 
L 145.189885 186.634255 
L 149.170055 185.38318 
L 153.150225 185.158904 
L 157.130395 185.199411 
L 161.110564 185.710659 
L 165.090734 185.377267 
L 169.070904 185.176962 
L 173.051074 185.308672 
L 177.031244 185.094382 
L 181.011414 185.076556 
L 184.991583 185.178658 
L 188.971753 185.331991 
L 192.951923 185.450122 
L 196.932093 185.230397 
L 200.912263 185.235803 
L 204.892433 185.1306 
L 208.872602 185.393354 
L 212.852772 185.000527 
L 216.832942 185.30447 
L 220.813112 185.181556 
L 224.793282 185.748181 
L 228.773452 185.241933 
L 232.753621 185.423238 
L 236.733791 184.699975 
L 240.713961 185.691949 
L 244.694131 185.020541 
L 248.674301 185.159672 
L 252.654471 185.313832 
L 256.63464 185.346962 
L 260.61481 185.484253 
L 264.59498 185.060512 
L 268.57515 187.033865 
L 272.55532 185.369354 
L 276.53549 185.364629 
L 280.515659 185.096165 
L 284.495829 185.164803 
L 288.475999 185.574659 
L 292.456169 185.502963 
L 296.436339 185.182498 
L 300.416508 185.026324 
L 304.396678 185.212484 
L 308.376848 185.530456 
L 312.357018 185.135034 
L 316.337188 185.047686 
L 320.317358 185.51034 
L 324.297527 185.142658 
L 328.277697 185.437122 
L 332.257867 187.238634 
L 336.238037 185.185556 
L 340.218207 185.300296 
L 344.198377 186.120283 
L 348.178546 185.107136 
L 352.158716 185.331238 
L 356.138886 185.554528 
L 360.119056 185.00257 
L 364.099226 185.348223 
L 368.079396 185.172948 
L 372.059565 185.247296 
L 376.039735 185.368803 
L 380.019905 184.876498 
L 384.000075 185.837572 
L 387.980245 185.261412 
L 391.960415 185.129759 
L 395.940584 185.090657 
L 399.920754 185.363803 
L 403.900924 185.337716 
L 407.881094 184.921846 
L 411.861264 185.381673 
L 415.841434 185.412586 
L 419.821603 185.100556 
L 423.801773 185.480542 
L 427.781943 185.059686 
L 431.762113 185.145426 
L 435.742283 185.152861 
L 439.722453 185.393296 
L 443.702622 185.182832 
L 447.682792 185.422731 
L 451.662962 185.041411 
L 455.643132 185.235672 
L 459.623302 185.321368 
L 463.603472 185.014237 
L 467.583641 185.462963 
L 471.563811 185.007802 
L 475.543981 185.166629 
L 479.524151 185.437122 
L 483.504321 185.274484 
L 487.484491 185.19615 
L 491.46466 185.024498 
L 495.44483 185.283513 
L 499.425 185.351991 
L 503.40517 185.017179 
L 507.38534 185.334673 
L 511.365509 185.414137 
L 515.345679 184.807005 
L 519.325849 184.921063 
L 523.306019 184.96257 
L 527.286189 185.341673 
L 531.266359 185.333267 
L 535.246528 185.032005 
L 539.226698 185.096005 
L 543.206868 185.279006 
L 547.187038 185.149614 
L 551.167208 187.265576 
L 555.147378 185.03615 
L 559.127547 185.629978 
L 563.107717 186.654618 
L 567.087887 185.547209 
L 571.068057 185.242614 
L 575.048227 185.572093 
L 579.028397 185.697978 
L 583.008566 185.797935 
L 586.988736 185.800906 
L 590.968906 185.146947 
L 594.949076 185.838253 
L 598.929246 185.892341 
L 602.909416 185.554441 
L 606.889585 185.576311 
L 610.869755 185.443818 
L 614.849925 186.54611 
L 618.830095 185.60047 
L 622.810265 185.322209 
L 626.790435 185.09615 
L 630.770604 185.140034 
L 634.750774 185.582224 
L 638.730944 186.006689 
L 642.711114 185.508861 
L 646.691284 184.980846 
L 650.671454 185.261093 
L 654.651623 185.56718 
L 658.631793 185.359455 
L 662.611963 185.297817 
L 666.592133 185.40789 
L 670.572303 185.64763 
L 674.552473 185.142861 
L 678.532642 185.43431 
L 682.512812 185.449847 
L 686.492982 185.303658 
L 690.473152 185.328354 
L 694.453322 185.557296 
L 698.433492 185.315484 
L 702.413661 185.73176 
L 706.393831 185.58092 
L 710.374001 185.04115 
L 714.354171 185.133991 
L 718.334341 185.455977 
L 722.31451 185.309615 
L 726.29468 185.202527 
L 730.27485 185.476876 
L 734.25502 185.500803 
L 738.23519 185.736181 
L 742.21536 185.068672 
L 746.195529 185.226238 
L 750.175699 185.637804 
L 754.155869 185.391383 
L 758.136039 184.905295 
L 762.116209 185.466195 
L 766.096379 185.862717 
L 770.076548 184.941179 
L 774.056718 185.353789 
L 778.036888 185.290832 
L 782.017058 185.700905 
L 785.997228 184.891411 
L 789.977398 185.312122 
L 793.957567 185.314701 
L 797.937737 185.618775 
L 801.917907 185.302962 
L 805.898077 185.703847 
L 809.878247 185.304499 
L 813.858417 185.026092 
L 817.838586 185.435919 
L 821.818756 185.306817 
L 825.798926 185.565746 
L 829.779096 185.706804 
L 833.759266 185.344368 
L 837.739436 184.895657 
L 841.719605 185.32802 
L 845.699775 185.299701 
L 849.679945 185.322499 
L 853.660115 185.465673 
L 857.640285 185.207093 
L 861.620455 185.757775 
L 861.620455 185.757775 
L 861.620455 185.757775 
L 857.640285 38.744446 
L 853.660115 39.251679 
L 849.679945 38.709968 
L 845.699775 39.387969 
L 841.719605 39.135519 
L 837.739436 38.567257 
L 833.759266 38.94907 
L 829.779096 39.307969 
L 825.798926 39.374317 
L 821.818756 38.829171 
L 817.838586 39.356505 
L 813.858417 38.903446 
L 809.878247 39.085273 
L 805.898077 39.412491 
L 801.917907 38.961954 
L 797.937737 39.466404 
L 793.957567 38.860229 
L 789.977398 39.109563 
L 785.997228 38.68346 
L 782.017058 39.545259 
L 778.036888 38.975722 
L 774.056718 39.012345 
L 770.076548 38.616793 
L 766.096379 39.151563 
L 762.116209 39.499346 
L 758.136039 38.470764 
L 754.155869 39.287983 
L 750.175699 39.452853 
L 746.195529 38.90533 
L 742.21536 38.707736 
L 738.23519 39.418172 
L 734.25502 39.210041 
L 730.27485 38.79291 
L 726.29468 39.057664 
L 722.31451 39.260549 
L 718.334341 39.138244 
L 714.354171 38.956461 
L 710.374001 38.692315 
L 706.393831 39.251389 
L 702.413661 39.298085 
L 698.433492 39.04536 
L 694.453322 39.177143 
L 690.473152 39.539129 
L 686.492982 39.139505 
L 682.512812 38.976273 
L 678.532642 39.25952 
L 674.552473 39.055273 
L 670.572303 39.35136 
L 666.592133 38.951417 
L 662.611963 39.076548 
L 658.631793 39.18478 
L 654.651623 39.321723 
L 650.671454 39.205795 
L 646.691284 38.566112 
L 642.711114 39.271041 
L 638.730944 39.732347 
L 634.750774 39.543129 
L 630.770604 38.933432 
L 626.790435 39.052113 
L 622.810265 39.149737 
L 618.830095 39.290389 
L 614.849925 40.223188 
L 610.869755 40.61932 
L 606.889585 39.257534 
L 602.909416 39.175157 
L 598.929246 39.699666 
L 594.949076 40.619088 
L 590.968906 39.135142 
L 586.988736 39.950449 
L 583.008566 39.438839 
L 579.028397 39.838579 
L 575.048227 39.873043 
L 571.068057 38.979722 
L 567.087887 39.163534 
L 563.107717 40.536073 
L 559.127547 41.110176 
L 555.147378 38.691243 
L 551.167208 42.962296 
L 547.187038 38.439083 
L 543.206868 38.673402 
L 539.226698 38.577532 
L 535.246528 38.265952 
L 531.266359 38.946171 
L 527.286189 38.918693 
L 523.306019 39.002113 
L 519.325849 38.380387 
L 515.345679 38.332097 
L 511.365509 39.274259 
L 507.38534 38.95749 
L 503.40517 38.758634 
L 499.425 39.327781 
L 495.44483 39.327114 
L 491.46466 38.812098 
L 487.484491 39.016722 
L 483.504321 39.067939 
L 479.524151 39.398882 
L 475.543981 38.857924 
L 471.563811 38.83775 
L 467.583641 39.428534 
L 463.603472 39.053635 
L 459.623302 39.088229 
L 455.643132 39.243186 
L 451.662962 38.641518 
L 447.682792 39.330723 
L 443.702622 38.961867 
L 439.722453 39.105592 
L 435.742283 39.121824 
L 431.762113 39.316418 
L 427.781943 38.669475 
L 423.801773 39.437172 
L 419.821603 38.884287 
L 415.841434 39.203548 
L 411.861264 39.183577 
L 407.881094 38.634228 
L 403.900924 39.277404 
L 399.920754 39.415621 
L 395.940584 38.727098 
L 391.960415 38.8802 
L 387.980245 39.193519 
L 384.000075 39.484969 
L 380.019905 38.48559 
L 376.039735 39.214128 
L 372.059565 39.154345 
L 368.079396 39.055751 
L 364.099226 39.159287 
L 360.119056 38.849011 
L 356.138886 39.39723 
L 352.158716 38.934388 
L 348.178546 38.823982 
L 344.198377 39.944565 
L 340.218207 40.081087 
L 336.238037 39.388665 
L 332.257867 41.004045 
L 328.277697 41.264031 
L 324.297527 38.899939 
L 320.317358 39.26323 
L 316.337188 38.706185 
L 312.357018 39.002012 
L 308.376848 39.57881 
L 304.396678 39.148911 
L 300.416508 38.615576 
L 296.436339 39.003751 
L 292.456169 39.355447 
L 288.475999 39.108084 
L 284.495829 38.984171 
L 280.515659 38.83691 
L 276.53549 39.346708 
L 272.55532 39.337824 
L 268.57515 42.435686 
L 264.59498 38.976983 
L 260.61481 39.225201 
L 256.63464 39.270389 
L 252.654471 38.88849 
L 248.674301 39.016939 
L 244.694131 38.82875 
L 240.713961 39.749622 
L 236.733791 38.330517 
L 232.753621 39.293621 
L 228.773452 38.917185 
L 224.793282 39.374795 
L 220.813112 39.033664 
L 216.832942 39.052838 
L 212.852772 38.821982 
L 208.872602 39.434187 
L 204.892433 39.102258 
L 200.912263 38.929475 
L 196.932093 38.903881 
L 192.951923 39.214983 
L 188.971753 39.113432 
L 184.991583 38.964954 
L 181.011414 39.016794 
L 177.031244 38.995244 
L 173.051074 39.222389 
L 169.070904 38.978577 
L 165.090734 39.487042 
L 161.110564 39.342694 
L 157.130395 39.230027 
L 153.150225 38.904417 
L 149.170055 39.42252 
L 145.189885 40.682595 
L 141.209715 42.870485 
L 137.229545 43.523631 
z
" clip-path="url(#pdbbe78625d)" style="fill: #ff7f0e"/>
   </g>
   <g id="matplotlib.axis_1">
    <g id="xtick_1">
     <g id="line2d_1">
      <path d="M 137.229545 331.64 
L 137.229545 23.76 
" clip-path="url(#pdbbe78625d)" style="fill: none; stroke-dasharray: 5.12,1.28,0.8,1.28; stroke-dashoffset: 0; stroke: #b0b0b0; stroke-width: 0.8"/>
     </g>
     <g id="line2d_2">
      <defs>
       <path id="m58369f16bf" d="M 0 0 
L 0 3.5 
" style="stroke: #000000; stroke-width: 0.8"/>
      </defs>
      <g>
       <use xlink:href="#m58369f16bf" x="137.229545" y="331.64" style="stroke: #000000; stroke-width: 0.8"/>
      </g>
     </g>
     <g id="text_1">
      <!-- 0 -->
      <g transform="translate(130.230795 355.356563)scale(0.22 -0.22)">
       <defs>
        <path id="DejaVuSans-30" d="M 2034 4250 
Q 1547 4250 1301 3770 
Q 1056 3291 1056 2328 
Q 1056 1369 1301 889 
Q 1547 409 2034 409 
Q 2525 409 2770 889 
Q 3016 1369 3016 2328 
Q 3016 3291 2770 3770 
Q 2525 4250 2034 4250 
z
M 2034 4750 
Q 2819 4750 3233 4129 
Q 3647 3509 3647 2328 
Q 3647 1150 3233 529 
Q 2819 -91 2034 -91 
Q 1250 -91 836 529 
Q 422 1150 422 2328 
Q 422 3509 836 4129 
Q 1250 4750 2034 4750 
z
" transform="scale(0.015625)"/>
       </defs>
       <use xlink:href="#DejaVuSans-30"/>
      </g>
     </g>
    </g>
    <g id="xtick_2">
     <g id="line2d_3">
      <path d="M 236.733791 331.64 
L 236.733791 23.76 
" clip-path="url(#pdbbe78625d)" style="fill: none; stroke-dasharray: 5.12,1.28,0.8,1.28; stroke-dashoffset: 0; stroke: #b0b0b0; stroke-width: 0.8"/>
     </g>
     <g id="line2d_4">
      <g>
       <use xlink:href="#m58369f16bf" x="236.733791" y="331.64" style="stroke: #000000; stroke-width: 0.8"/>
      </g>
     </g>
     <g id="text_2">
      <!-- 25 -->
      <g transform="translate(222.736291 355.356563)scale(0.22 -0.22)">
       <defs>
        <path id="DejaVuSans-32" d="M 1228 531 
L 3431 531 
L 3431 0 
L 469 0 
L 469 531 
Q 828 903 1448 1529 
Q 2069 2156 2228 2338 
Q 2531 2678 2651 2914 
Q 2772 3150 2772 3378 
Q 2772 3750 2511 3984 
Q 2250 4219 1831 4219 
Q 1534 4219 1204 4116 
Q 875 4013 500 3803 
L 500 4441 
Q 881 4594 1212 4672 
Q 1544 4750 1819 4750 
Q 2544 4750 2975 4387 
Q 3406 4025 3406 3419 
Q 3406 3131 3298 2873 
Q 3191 2616 2906 2266 
Q 2828 2175 2409 1742 
Q 1991 1309 1228 531 
z
" transform="scale(0.015625)"/>
        <path id="DejaVuSans-35" d="M 691 4666 
L 3169 4666 
L 3169 4134 
L 1269 4134 
L 1269 2991 
Q 1406 3038 1543 3061 
Q 1681 3084 1819 3084 
Q 2600 3084 3056 2656 
Q 3513 2228 3513 1497 
Q 3513 744 3044 326 
Q 2575 -91 1722 -91 
Q 1428 -91 1123 -41 
Q 819 9 494 109 
L 494 744 
Q 775 591 1075 516 
Q 1375 441 1709 441 
Q 2250 441 2565 725 
Q 2881 1009 2881 1497 
Q 2881 1984 2565 2268 
Q 2250 2553 1709 2553 
Q 1456 2553 1204 2497 
Q 953 2441 691 2322 
L 691 4666 
z
" transform="scale(0.015625)"/>
       </defs>
       <use xlink:href="#DejaVuSans-32"/>
       <use xlink:href="#DejaVuSans-35" x="63.623047"/>
      </g>
     </g>
    </g>
    <g id="xtick_3">
     <g id="line2d_5">
      <path d="M 336.238037 331.64 
L 336.238037 23.76 
" clip-path="url(#pdbbe78625d)" style="fill: none; stroke-dasharray: 5.12,1.28,0.8,1.28; stroke-dashoffset: 0; stroke: #b0b0b0; stroke-width: 0.8"/>
     </g>
     <g id="line2d_6">
      <g>
       <use xlink:href="#m58369f16bf" x="336.238037" y="331.64" style="stroke: #000000; stroke-width: 0.8"/>
      </g>
     </g>
     <g id="text_3">
      <!-- 50 -->
      <g transform="translate(322.240537 355.356563)scale(0.22 -0.22)">
       <use xlink:href="#DejaVuSans-35"/>
       <use xlink:href="#DejaVuSans-30" x="63.623047"/>
      </g>
     </g>
    </g>
    <g id="xtick_4">
     <g id="line2d_7">
      <path d="M 435.742283 331.64 
L 435.742283 23.76 
" clip-path="url(#pdbbe78625d)" style="fill: none; stroke-dasharray: 5.12,1.28,0.8,1.28; stroke-dashoffset: 0; stroke: #b0b0b0; stroke-width: 0.8"/>
     </g>
     <g id="line2d_8">
      <g>
       <use xlink:href="#m58369f16bf" x="435.742283" y="331.64" style="stroke: #000000; stroke-width: 0.8"/>
      </g>
     </g>
     <g id="text_4">
      <!-- 75 -->
      <g transform="translate(421.744783 355.356563)scale(0.22 -0.22)">
       <defs>
        <path id="DejaVuSans-37" d="M 525 4666 
L 3525 4666 
L 3525 4397 
L 1831 0 
L 1172 0 
L 2766 4134 
L 525 4134 
L 525 4666 
z
" transform="scale(0.015625)"/>
       </defs>
       <use xlink:href="#DejaVuSans-37"/>
       <use xlink:href="#DejaVuSans-35" x="63.623047"/>
      </g>
     </g>
    </g>
    <g id="xtick_5">
     <g id="line2d_9">
      <path d="M 535.246528 331.64 
L 535.246528 23.76 
" clip-path="url(#pdbbe78625d)" style="fill: none; stroke-dasharray: 5.12,1.28,0.8,1.28; stroke-dashoffset: 0; stroke: #b0b0b0; stroke-width: 0.8"/>
     </g>
     <g id="line2d_10">
      <g>
       <use xlink:href="#m58369f16bf" x="535.246528" y="331.64" style="stroke: #000000; stroke-width: 0.8"/>
      </g>
     </g>
     <g id="text_5">
      <!-- 100 -->
      <g transform="translate(514.250278 355.356563)scale(0.22 -0.22)">
       <defs>
        <path id="DejaVuSans-31" d="M 794 531 
L 1825 531 
L 1825 4091 
L 703 3866 
L 703 4441 
L 1819 4666 
L 2450 4666 
L 2450 531 
L 3481 531 
L 3481 0 
L 794 0 
L 794 531 
z
" transform="scale(0.015625)"/>
       </defs>
       <use xlink:href="#DejaVuSans-31"/>
       <use xlink:href="#DejaVuSans-30" x="63.623047"/>
       <use xlink:href="#DejaVuSans-30" x="127.246094"/>
      </g>
     </g>
    </g>
    <g id="xtick_6">
     <g id="line2d_11">
      <path d="M 634.750774 331.64 
L 634.750774 23.76 
" clip-path="url(#pdbbe78625d)" style="fill: none; stroke-dasharray: 5.12,1.28,0.8,1.28; stroke-dashoffset: 0; stroke: #b0b0b0; stroke-width: 0.8"/>
     </g>
     <g id="line2d_12">
      <g>
       <use xlink:href="#m58369f16bf" x="634.750774" y="331.64" style="stroke: #000000; stroke-width: 0.8"/>
      </g>
     </g>
     <g id="text_6">
      <!-- 125 -->
      <g transform="translate(613.754524 355.356563)scale(0.22 -0.22)">
       <use xlink:href="#DejaVuSans-31"/>
       <use xlink:href="#DejaVuSans-32" x="63.623047"/>
       <use xlink:href="#DejaVuSans-35" x="127.246094"/>
      </g>
     </g>
    </g>
    <g id="xtick_7">
     <g id="line2d_13">
      <path d="M 734.25502 331.64 
L 734.25502 23.76 
" clip-path="url(#pdbbe78625d)" style="fill: none; stroke-dasharray: 5.12,1.28,0.8,1.28; stroke-dashoffset: 0; stroke: #b0b0b0; stroke-width: 0.8"/>
     </g>
     <g id="line2d_14">
      <g>
       <use xlink:href="#m58369f16bf" x="734.25502" y="331.64" style="stroke: #000000; stroke-width: 0.8"/>
      </g>
     </g>
     <g id="text_7">
      <!-- 150 -->
      <g transform="translate(713.25877 355.356563)scale(0.22 -0.22)">
       <use xlink:href="#DejaVuSans-31"/>
       <use xlink:href="#DejaVuSans-35" x="63.623047"/>
       <use xlink:href="#DejaVuSans-30" x="127.246094"/>
      </g>
     </g>
    </g>
    <g id="xtick_8">
     <g id="line2d_15">
      <path d="M 833.759266 331.64 
L 833.759266 23.76 
" clip-path="url(#pdbbe78625d)" style="fill: none; stroke-dasharray: 5.12,1.28,0.8,1.28; stroke-dashoffset: 0; stroke: #b0b0b0; stroke-width: 0.8"/>
     </g>
     <g id="line2d_16">
      <g>
       <use xlink:href="#m58369f16bf" x="833.759266" y="331.64" style="stroke: #000000; stroke-width: 0.8"/>
      </g>
     </g>
     <g id="text_8">
      <!-- 175 -->
      <g transform="translate(812.763016 355.356563)scale(0.22 -0.22)">
       <use xlink:href="#DejaVuSans-31"/>
       <use xlink:href="#DejaVuSans-37" x="63.623047"/>
       <use xlink:href="#DejaVuSans-35" x="127.246094"/>
      </g>
     </g>
    </g>
    <g id="text_9">
     <!-- Time (s) -->
     <g transform="translate(450.635625 382.168125)scale(0.24 -0.24)">
      <defs>
       <path id="DejaVuSans-54" d="M -19 4666 
L 3928 4666 
L 3928 4134 
L 2272 4134 
L 2272 0 
L 1638 0 
L 1638 4134 
L -19 4134 
L -19 4666 
z
" transform="scale(0.015625)"/>
       <path id="DejaVuSans-69" d="M 603 3500 
L 1178 3500 
L 1178 0 
L 603 0 
L 603 3500 
z
M 603 4863 
L 1178 4863 
L 1178 4134 
L 603 4134 
L 603 4863 
z
" transform="scale(0.015625)"/>
       <path id="DejaVuSans-6d" d="M 3328 2828 
Q 3544 3216 3844 3400 
Q 4144 3584 4550 3584 
Q 5097 3584 5394 3201 
Q 5691 2819 5691 2113 
L 5691 0 
L 5113 0 
L 5113 2094 
Q 5113 2597 4934 2840 
Q 4756 3084 4391 3084 
Q 3944 3084 3684 2787 
Q 3425 2491 3425 1978 
L 3425 0 
L 2847 0 
L 2847 2094 
Q 2847 2600 2669 2842 
Q 2491 3084 2119 3084 
Q 1678 3084 1418 2786 
Q 1159 2488 1159 1978 
L 1159 0 
L 581 0 
L 581 3500 
L 1159 3500 
L 1159 2956 
Q 1356 3278 1631 3431 
Q 1906 3584 2284 3584 
Q 2666 3584 2933 3390 
Q 3200 3197 3328 2828 
z
" transform="scale(0.015625)"/>
       <path id="DejaVuSans-65" d="M 3597 1894 
L 3597 1613 
L 953 1613 
Q 991 1019 1311 708 
Q 1631 397 2203 397 
Q 2534 397 2845 478 
Q 3156 559 3463 722 
L 3463 178 
Q 3153 47 2828 -22 
Q 2503 -91 2169 -91 
Q 1331 -91 842 396 
Q 353 884 353 1716 
Q 353 2575 817 3079 
Q 1281 3584 2069 3584 
Q 2775 3584 3186 3129 
Q 3597 2675 3597 1894 
z
M 3022 2063 
Q 3016 2534 2758 2815 
Q 2500 3097 2075 3097 
Q 1594 3097 1305 2825 
Q 1016 2553 972 2059 
L 3022 2063 
z
" transform="scale(0.015625)"/>
       <path id="DejaVuSans-20" transform="scale(0.015625)"/>
       <path id="DejaVuSans-28" d="M 1984 4856 
Q 1566 4138 1362 3434 
Q 1159 2731 1159 2009 
Q 1159 1288 1364 580 
Q 1569 -128 1984 -844 
L 1484 -844 
Q 1016 -109 783 600 
Q 550 1309 550 2009 
Q 550 2706 781 3412 
Q 1013 4119 1484 4856 
L 1984 4856 
z
" transform="scale(0.015625)"/>
       <path id="DejaVuSans-73" d="M 2834 3397 
L 2834 2853 
Q 2591 2978 2328 3040 
Q 2066 3103 1784 3103 
Q 1356 3103 1142 2972 
Q 928 2841 928 2578 
Q 928 2378 1081 2264 
Q 1234 2150 1697 2047 
L 1894 2003 
Q 2506 1872 2764 1633 
Q 3022 1394 3022 966 
Q 3022 478 2636 193 
Q 2250 -91 1575 -91 
Q 1294 -91 989 -36 
Q 684 19 347 128 
L 347 722 
Q 666 556 975 473 
Q 1284 391 1588 391 
Q 1994 391 2212 530 
Q 2431 669 2431 922 
Q 2431 1156 2273 1281 
Q 2116 1406 1581 1522 
L 1381 1569 
Q 847 1681 609 1914 
Q 372 2147 372 2553 
Q 372 3047 722 3315 
Q 1072 3584 1716 3584 
Q 2034 3584 2315 3537 
Q 2597 3491 2834 3397 
z
" transform="scale(0.015625)"/>
       <path id="DejaVuSans-29" d="M 513 4856 
L 1013 4856 
Q 1481 4119 1714 3412 
Q 1947 2706 1947 2009 
Q 1947 1309 1714 600 
Q 1481 -109 1013 -844 
L 513 -844 
Q 928 -128 1133 580 
Q 1338 1288 1338 2009 
Q 1338 2731 1133 3434 
Q 928 4138 513 4856 
z
" transform="scale(0.015625)"/>
      </defs>
      <use xlink:href="#DejaVuSans-54"/>
      <use xlink:href="#DejaVuSans-69" x="57.958984"/>
      <use xlink:href="#DejaVuSans-6d" x="85.742188"/>
      <use xlink:href="#DejaVuSans-65" x="183.154297"/>
      <use xlink:href="#DejaVuSans-20" x="244.677734"/>
      <use xlink:href="#DejaVuSans-28" x="276.464844"/>
      <use xlink:href="#DejaVuSans-73" x="315.478516"/>
      <use xlink:href="#DejaVuSans-29" x="367.578125"/>
     </g>
    </g>
   </g>
   <g id="matplotlib.axis_2">
    <g id="ytick_1">
     <g id="line2d_17">
      <path d="M 101.01 331.64 
L 897.84 331.64 
" clip-path="url(#pdbbe78625d)" style="fill: none; stroke-dasharray: 5.12,1.28,0.8,1.28; stroke-dashoffset: 0; stroke: #b0b0b0; stroke-width: 0.8"/>
     </g>
     <g id="line2d_18">
      <defs>
       <path id="m4667037c2d" d="M 0 0 
L -3.5 0 
" style="stroke: #000000; stroke-width: 0.8"/>
      </defs>
      <g>
       <use xlink:href="#m4667037c2d" x="101.01" y="331.64" style="stroke: #000000; stroke-width: 0.8"/>
      </g>
     </g>
     <g id="text_10">
      <!-- 0 -->
      <g transform="translate(80.0125 339.998281)scale(0.22 -0.22)">
       <use xlink:href="#DejaVuSans-30"/>
      </g>
     </g>
    </g>
    <g id="ytick_2">
     <g id="line2d_19">
      <path d="M 101.01 241.060078 
L 897.84 241.060078 
" clip-path="url(#pdbbe78625d)" style="fill: none; stroke-dasharray: 5.12,1.28,0.8,1.28; stroke-dashoffset: 0; stroke: #b0b0b0; stroke-width: 0.8"/>
     </g>
     <g id="line2d_20">
      <g>
       <use xlink:href="#m4667037c2d" x="101.01" y="241.060078" style="stroke: #000000; stroke-width: 0.8"/>
      </g>
     </g>
     <g id="text_11">
      <!-- 50 -->
      <g transform="translate(66.015 249.418359)scale(0.22 -0.22)">
       <use xlink:href="#DejaVuSans-35"/>
       <use xlink:href="#DejaVuSans-30" x="63.623047"/>
      </g>
     </g>
    </g>
    <g id="ytick_3">
     <g id="line2d_21">
      <path d="M 101.01 150.480156 
L 897.84 150.480156 
" clip-path="url(#pdbbe78625d)" style="fill: none; stroke-dasharray: 5.12,1.28,0.8,1.28; stroke-dashoffset: 0; stroke: #b0b0b0; stroke-width: 0.8"/>
     </g>
     <g id="line2d_22">
      <g>
       <use xlink:href="#m4667037c2d" x="101.01" y="150.480156" style="stroke: #000000; stroke-width: 0.8"/>
      </g>
     </g>
     <g id="text_12">
      <!-- 100 -->
      <g transform="translate(52.0175 158.838438)scale(0.22 -0.22)">
       <use xlink:href="#DejaVuSans-31"/>
       <use xlink:href="#DejaVuSans-30" x="63.623047"/>
       <use xlink:href="#DejaVuSans-30" x="127.246094"/>
      </g>
     </g>
    </g>
    <g id="ytick_4">
     <g id="line2d_23">
      <path d="M 101.01 59.900234 
L 897.84 59.900234 
" clip-path="url(#pdbbe78625d)" style="fill: none; stroke-dasharray: 5.12,1.28,0.8,1.28; stroke-dashoffset: 0; stroke: #b0b0b0; stroke-width: 0.8"/>
     </g>
     <g id="line2d_24">
      <g>
       <use xlink:href="#m4667037c2d" x="101.01" y="59.900234" style="stroke: #000000; stroke-width: 0.8"/>
      </g>
     </g>
     <g id="text_13">
      <!-- 150 -->
      <g transform="translate(52.0175 68.258516)scale(0.22 -0.22)">
       <use xlink:href="#DejaVuSans-31"/>
       <use xlink:href="#DejaVuSans-35" x="63.623047"/>
       <use xlink:href="#DejaVuSans-30" x="127.246094"/>
      </g>
     </g>
    </g>
    <g id="text_14">
     <!-- Throughput (Mbps) -->
     <g transform="translate(43.02625 292.414375)rotate(-90)scale(0.24 -0.24)">
      <defs>
       <path id="DejaVuSans-68" d="M 3513 2113 
L 3513 0 
L 2938 0 
L 2938 2094 
Q 2938 2591 2744 2837 
Q 2550 3084 2163 3084 
Q 1697 3084 1428 2787 
Q 1159 2491 1159 1978 
L 1159 0 
L 581 0 
L 581 4863 
L 1159 4863 
L 1159 2956 
Q 1366 3272 1645 3428 
Q 1925 3584 2291 3584 
Q 2894 3584 3203 3211 
Q 3513 2838 3513 2113 
z
" transform="scale(0.015625)"/>
       <path id="DejaVuSans-72" d="M 2631 2963 
Q 2534 3019 2420 3045 
Q 2306 3072 2169 3072 
Q 1681 3072 1420 2755 
Q 1159 2438 1159 1844 
L 1159 0 
L 581 0 
L 581 3500 
L 1159 3500 
L 1159 2956 
Q 1341 3275 1631 3429 
Q 1922 3584 2338 3584 
Q 2397 3584 2469 3576 
Q 2541 3569 2628 3553 
L 2631 2963 
z
" transform="scale(0.015625)"/>
       <path id="DejaVuSans-6f" d="M 1959 3097 
Q 1497 3097 1228 2736 
Q 959 2375 959 1747 
Q 959 1119 1226 758 
Q 1494 397 1959 397 
Q 2419 397 2687 759 
Q 2956 1122 2956 1747 
Q 2956 2369 2687 2733 
Q 2419 3097 1959 3097 
z
M 1959 3584 
Q 2709 3584 3137 3096 
Q 3566 2609 3566 1747 
Q 3566 888 3137 398 
Q 2709 -91 1959 -91 
Q 1206 -91 779 398 
Q 353 888 353 1747 
Q 353 2609 779 3096 
Q 1206 3584 1959 3584 
z
" transform="scale(0.015625)"/>
       <path id="DejaVuSans-75" d="M 544 1381 
L 544 3500 
L 1119 3500 
L 1119 1403 
Q 1119 906 1312 657 
Q 1506 409 1894 409 
Q 2359 409 2629 706 
Q 2900 1003 2900 1516 
L 2900 3500 
L 3475 3500 
L 3475 0 
L 2900 0 
L 2900 538 
Q 2691 219 2414 64 
Q 2138 -91 1772 -91 
Q 1169 -91 856 284 
Q 544 659 544 1381 
z
M 1991 3584 
L 1991 3584 
z
" transform="scale(0.015625)"/>
       <path id="DejaVuSans-67" d="M 2906 1791 
Q 2906 2416 2648 2759 
Q 2391 3103 1925 3103 
Q 1463 3103 1205 2759 
Q 947 2416 947 1791 
Q 947 1169 1205 825 
Q 1463 481 1925 481 
Q 2391 481 2648 825 
Q 2906 1169 2906 1791 
z
M 3481 434 
Q 3481 -459 3084 -895 
Q 2688 -1331 1869 -1331 
Q 1566 -1331 1297 -1286 
Q 1028 -1241 775 -1147 
L 775 -588 
Q 1028 -725 1275 -790 
Q 1522 -856 1778 -856 
Q 2344 -856 2625 -561 
Q 2906 -266 2906 331 
L 2906 616 
Q 2728 306 2450 153 
Q 2172 0 1784 0 
Q 1141 0 747 490 
Q 353 981 353 1791 
Q 353 2603 747 3093 
Q 1141 3584 1784 3584 
Q 2172 3584 2450 3431 
Q 2728 3278 2906 2969 
L 2906 3500 
L 3481 3500 
L 3481 434 
z
" transform="scale(0.015625)"/>
       <path id="DejaVuSans-70" d="M 1159 525 
L 1159 -1331 
L 581 -1331 
L 581 3500 
L 1159 3500 
L 1159 2969 
Q 1341 3281 1617 3432 
Q 1894 3584 2278 3584 
Q 2916 3584 3314 3078 
Q 3713 2572 3713 1747 
Q 3713 922 3314 415 
Q 2916 -91 2278 -91 
Q 1894 -91 1617 61 
Q 1341 213 1159 525 
z
M 3116 1747 
Q 3116 2381 2855 2742 
Q 2594 3103 2138 3103 
Q 1681 3103 1420 2742 
Q 1159 2381 1159 1747 
Q 1159 1113 1420 752 
Q 1681 391 2138 391 
Q 2594 391 2855 752 
Q 3116 1113 3116 1747 
z
" transform="scale(0.015625)"/>
       <path id="DejaVuSans-74" d="M 1172 4494 
L 1172 3500 
L 2356 3500 
L 2356 3053 
L 1172 3053 
L 1172 1153 
Q 1172 725 1289 603 
Q 1406 481 1766 481 
L 2356 481 
L 2356 0 
L 1766 0 
Q 1100 0 847 248 
Q 594 497 594 1153 
L 594 3053 
L 172 3053 
L 172 3500 
L 594 3500 
L 594 4494 
L 1172 4494 
z
" transform="scale(0.015625)"/>
       <path id="DejaVuSans-4d" d="M 628 4666 
L 1569 4666 
L 2759 1491 
L 3956 4666 
L 4897 4666 
L 4897 0 
L 4281 0 
L 4281 4097 
L 3078 897 
L 2444 897 
L 1241 4097 
L 1241 0 
L 628 0 
L 628 4666 
z
" transform="scale(0.015625)"/>
       <path id="DejaVuSans-62" d="M 3116 1747 
Q 3116 2381 2855 2742 
Q 2594 3103 2138 3103 
Q 1681 3103 1420 2742 
Q 1159 2381 1159 1747 
Q 1159 1113 1420 752 
Q 1681 391 2138 391 
Q 2594 391 2855 752 
Q 3116 1113 3116 1747 
z
M 1159 2969 
Q 1341 3281 1617 3432 
Q 1894 3584 2278 3584 
Q 2916 3584 3314 3078 
Q 3713 2572 3713 1747 
Q 3713 922 3314 415 
Q 2916 -91 2278 -91 
Q 1894 -91 1617 61 
Q 1341 213 1159 525 
L 1159 0 
L 581 0 
L 581 4863 
L 1159 4863 
L 1159 2969 
z
" transform="scale(0.015625)"/>
      </defs>
      <use xlink:href="#DejaVuSans-54"/>
      <use xlink:href="#DejaVuSans-68" x="61.083984"/>
      <use xlink:href="#DejaVuSans-72" x="124.462891"/>
      <use xlink:href="#DejaVuSans-6f" x="163.326172"/>
      <use xlink:href="#DejaVuSans-75" x="224.507812"/>
      <use xlink:href="#DejaVuSans-67" x="287.886719"/>
      <use xlink:href="#DejaVuSans-68" x="351.363281"/>
      <use xlink:href="#DejaVuSans-70" x="414.742188"/>
      <use xlink:href="#DejaVuSans-75" x="478.21875"/>
      <use xlink:href="#DejaVuSans-74" x="541.597656"/>
      <use xlink:href="#DejaVuSans-20" x="580.806641"/>
      <use xlink:href="#DejaVuSans-28" x="612.59375"/>
      <use xlink:href="#DejaVuSans-4d" x="651.607422"/>
      <use xlink:href="#DejaVuSans-62" x="737.886719"/>
      <use xlink:href="#DejaVuSans-70" x="801.363281"/>
      <use xlink:href="#DejaVuSans-73" x="864.839844"/>
      <use xlink:href="#DejaVuSans-29" x="916.939453"/>
     </g>
    </g>
   </g>
   <g id="patch_3">
    <path d="M 101.01 331.64 
L 101.01 23.76 
" style="fill: none; stroke: #000000; stroke-width: 0.8; stroke-linejoin: miter; stroke-linecap: square"/>
   </g>
   <g id="patch_4">
    <path d="M 897.84 331.64 
L 897.84 23.76 
" style="fill: none; stroke: #000000; stroke-width: 0.8; stroke-linejoin: miter; stroke-linecap: square"/>
   </g>
   <g id="patch_5">
    <path d="M 101.01 331.64 
L 897.84 331.64 
" style="fill: none; stroke: #000000; stroke-width: 0.8; stroke-linejoin: miter; stroke-linecap: square"/>
   </g>
   <g id="patch_6">
    <path d="M 101.01 23.76 
L 897.84 23.76 
" style="fill: none; stroke: #000000; stroke-width: 0.8; stroke-linejoin: miter; stroke-linecap: square"/>
   </g>
   <g id="legend_1">
    <g id="patch_7">
     <path d="M 756.24 113.415 
L 881.04 113.415 
Q 885.84 113.415 885.84 108.615 
L 885.84 40.56 
Q 885.84 35.76 881.04 35.76 
L 756.24 35.76 
Q 751.44 35.76 751.44 40.56 
L 751.44 108.615 
Q 751.44 113.415 756.24 113.415 
z
" style="fill: #ffffff; opacity: 0.8; stroke: #cccccc; stroke-linejoin: miter"/>
    </g>
    <g id="patch_8">
     <path d="M 761.04 63.59625 
L 809.04 63.59625 
L 809.04 46.79625 
L 761.04 46.79625 
z
" style="fill: #1f77b4"/>
    </g>
    <g id="text_15">
     <!-- UE1 -->
     <g transform="translate(828.24 63.59625)scale(0.24 -0.24)">
      <defs>
       <path id="DejaVuSans-55" d="M 556 4666 
L 1191 4666 
L 1191 1831 
Q 1191 1081 1462 751 
Q 1734 422 2344 422 
Q 2950 422 3222 751 
Q 3494 1081 3494 1831 
L 3494 4666 
L 4128 4666 
L 4128 1753 
Q 4128 841 3676 375 
Q 3225 -91 2344 -91 
Q 1459 -91 1007 375 
Q 556 841 556 1753 
L 556 4666 
z
" transform="scale(0.015625)"/>
       <path id="DejaVuSans-45" d="M 628 4666 
L 3578 4666 
L 3578 4134 
L 1259 4134 
L 1259 2753 
L 3481 2753 
L 3481 2222 
L 1259 2222 
L 1259 531 
L 3634 531 
L 3634 0 
L 628 0 
L 628 4666 
z
" transform="scale(0.015625)"/>
      </defs>
      <use xlink:href="#DejaVuSans-55"/>
      <use xlink:href="#DejaVuSans-45" x="73.193359"/>
      <use xlink:href="#DejaVuSans-31" x="136.376953"/>
     </g>
    </g>
    <g id="patch_9">
     <path d="M 761.04 98.82375 
L 809.04 98.82375 
L 809.04 82.02375 
L 761.04 82.02375 
z
" style="fill: #ff7f0e"/>
    </g>
    <g id="text_16">
     <!-- UE2 -->
     <g transform="translate(828.24 98.82375)scale(0.24 -0.24)">
      <use xlink:href="#DejaVuSans-55"/>
      <use xlink:href="#DejaVuSans-45" x="73.193359"/>
      <use xlink:href="#DejaVuSans-32" x="136.376953"/>
     </g>
    </g>
   </g>
  </g>
 </g>
 <defs>
  <clipPath id="pdbbe78625d">
   <rect x="101.01" y="23.76" width="796.83" height="307.88"/>
  </clipPath>
 </defs>
</svg>
