<?xml version="1.0" encoding="utf-8" standalone="no"?>
<!DOCTYPE svg PUBLIC "-//W3C//DTD SVG 1.1//EN"
  "http://www.w3.org/Graphics/SVG/1.1/DTD/svg11.dtd">
<svg xmlns:xlink="http://www.w3.org/1999/xlink" width="921.6pt" height="410.4pt" viewBox="0 0 921.6 410.4" xmlns="http://www.w3.org/2000/svg" version="1.1">
 <metadata>
  <rdf:RDF xmlns:dc="http://purl.org/dc/elements/1.1/" xmlns:cc="http://creativecommons.org/ns#" xmlns:rdf="http://www.w3.org/1999/02/22-rdf-syntax-ns#">
   <cc:Work>
    <dc:type rdf:resource="http://purl.org/dc/dcmitype/StillImage"/>
    <dc:date>2023-04-11T17:41:50.226153</dc:date>
    <dc:format>image/svg+xml</dc:format>
    <dc:creator>
     <cc:Agent>
      <dc:title>Matplotlib v3.5.3, https://matplotlib.org/</dc:title>
     </cc:Agent>
    </dc:creator>
   </cc:Work>
  </rdf:RDF>
 </metadata>
 <defs>
  <style type="text/css">*{stroke-linejoin: round; stroke-linecap: butt}</style>
 </defs>
 <g id="figure_1">
  <g id="patch_1">
   <path d="M 0 410.4 
L 921.6 410.4 
L 921.6 0 
L 0 0 
L 0 410.4 
z
" style="fill: none"/>
  </g>
  <g id="axes_1">
   <g id="patch_2">
    <path d="M 108.01 331.64 
L 897.84 331.64 
L 897.84 23.76 
L 108.01 23.76 
z
" style="fill: #ffffff"/>
   </g>
   <g id="PolyCollection_1">
    <path d="M 143.911364 186.253099 
L 143.911364 331.64 
L 147.878365 331.64 
L 151.845367 331.64 
L 155.812368 331.64 
L 159.77937 331.64 
L 163.746371 331.64 
L 167.713373 331.64 
L 171.680374 331.64 
L 175.647376 331.64 
L 179.614377 331.64 
L 183.581379 331.64 
L 187.54838 331.64 
L 191.515382 331.64 
L 195.482383 331.64 
L 199.449385 331.64 
L 203.416386 331.64 
L 207.383388 331.64 
L 211.350389 331.64 
L 215.317391 331.64 
L 219.284392 331.64 
L 223.251394 331.64 
L 227.218395 331.64 
L 231.185397 331.64 
L 235.152398 331.64 
L 239.1194 331.64 
L 243.086401 331.64 
L 247.053403 331.64 
L 251.020404 331.64 
L 254.987406 331.64 
L 258.954407 331.64 
L 262.921409 331.64 
L 266.88841 331.64 
L 270.855412 331.64 
L 274.822413 331.64 
L 278.789415 331.64 
L 282.756416 331.64 
L 286.723418 331.64 
L 290.690419 331.64 
L 294.657421 331.64 
L 298.624422 331.64 
L 302.591424 331.64 
L 306.558425 331.64 
L 310.525427 331.64 
L 314.492428 331.64 
L 318.45943 331.64 
L 322.426431 331.64 
L 326.393433 331.64 
L 330.360434 331.64 
L 334.327436 331.64 
L 338.294437 331.64 
L 342.261439 331.64 
L 346.22844 331.64 
L 350.195442 331.64 
L 354.162443 331.64 
L 358.129445 331.64 
L 362.096447 331.64 
L 366.063448 331.64 
L 370.03045 331.64 
L 373.997451 331.64 
L 377.964453 331.64 
L 381.931454 331.64 
L 385.898456 331.64 
L 389.865457 331.64 
L 393.832459 331.64 
L 397.79946 331.64 
L 401.766462 331.64 
L 405.733463 331.64 
L 409.700465 331.64 
L 413.667466 331.64 
L 417.634468 331.64 
L 421.601469 331.64 
L 425.568471 331.64 
L 429.535472 331.64 
L 433.502474 331.64 
L 437.469475 331.64 
L 441.436477 331.64 
L 445.403478 331.64 
L 449.37048 331.64 
L 453.337481 331.64 
L 457.304483 331.64 
L 461.271484 331.64 
L 465.238486 331.64 
L 469.205487 331.64 
L 473.172489 331.64 
L 477.13949 331.64 
L 481.106492 331.64 
L 485.073493 331.64 
L 489.040495 331.64 
L 493.007496 331.64 
L 496.974498 331.64 
L 500.941499 331.64 
L 504.908501 331.64 
L 508.875502 331.64 
L 512.842504 331.64 
L 516.809505 331.64 
L 520.776507 331.64 
L 524.743508 331.64 
L 528.71051 331.64 
L 532.677511 331.64 
L 536.644513 331.64 
L 540.611514 331.64 
L 544.578516 331.64 
L 548.545517 331.64 
L 552.512519 331.64 
L 556.47952 331.64 
L 560.446522 331.64 
L 564.413523 331.64 
L 568.380525 331.64 
L 572.347526 331.64 
L 576.314528 331.64 
L 580.281529 331.64 
L 584.248531 331.64 
L 588.215532 331.64 
L 592.182534 331.64 
L 596.149535 331.64 
L 600.116537 331.64 
L 604.083538 331.64 
L 608.05054 331.64 
L 612.017541 331.64 
L 615.984543 331.64 
L 619.951544 331.64 
L 623.918546 331.64 
L 627.885547 331.64 
L 631.852549 331.64 
L 635.81955 331.64 
L 639.786552 331.64 
L 643.753553 331.64 
L 647.720555 331.64 
L 651.687557 331.64 
L 655.654558 331.64 
L 659.62156 331.64 
L 663.588561 331.64 
L 667.555563 331.64 
L 671.522564 331.64 
L 675.489566 331.64 
L 679.456567 331.64 
L 683.423569 331.64 
L 687.39057 331.64 
L 691.357572 331.64 
L 695.324573 331.64 
L 699.291575 331.64 
L 703.258576 331.64 
L 707.225578 331.64 
L 711.192579 331.64 
L 715.159581 331.64 
L 719.126582 331.64 
L 723.093584 331.64 
L 727.060585 331.64 
L 731.027587 331.64 
L 734.994588 331.64 
L 738.96159 331.64 
L 742.928591 331.64 
L 746.895593 331.64 
L 750.862594 331.64 
L 754.829596 331.64 
L 758.796597 331.64 
L 762.763599 331.64 
L 766.7306 331.64 
L 770.697602 331.64 
L 774.664603 331.64 
L 778.631605 331.64 
L 782.598606 331.64 
L 786.565608 331.64 
L 790.532609 331.64 
L 794.499611 331.64 
L 798.466612 331.64 
L 802.433614 331.64 
L 806.400615 331.64 
L 810.367617 331.64 
L 814.334618 331.64 
L 818.30162 331.64 
L 822.268621 331.64 
L 826.235623 331.64 
L 830.202624 331.64 
L 834.169626 331.64 
L 838.136627 331.64 
L 842.103629 331.64 
L 846.07063 331.64 
L 850.037632 331.64 
L 854.004633 331.64 
L 857.971635 331.64 
L 861.938636 331.64 
L 861.938636 186.529387 
L 861.938636 186.529387 
L 857.971635 187.396855 
L 854.004633 186.035296 
L 850.037632 186.629933 
L 846.07063 187.061219 
L 842.103629 186.776432 
L 838.136627 186.07563 
L 834.169626 187.224283 
L 830.202624 186.632382 
L 826.235623 186.858829 
L 822.268621 186.361857 
L 818.30162 186.341978 
L 814.334618 187.091901 
L 810.367617 186.30683 
L 806.400615 187.051711 
L 802.433614 186.959808 
L 798.466612 186.857532 
L 794.499611 186.901756 
L 790.532609 186.3826 
L 786.565608 187.292563 
L 782.598606 186.474216 
L 778.631605 186.105736 
L 774.664603 186.914288 
L 770.697602 187.502731 
L 766.7306 190.834604 
L 762.763599 187.385475 
L 758.796597 186.73509 
L 754.829596 186.301788 
L 750.862594 186.419333 
L 746.895593 187.525059 
L 742.928591 186.257853 
L 738.96159 187.374815 
L 734.994588 186.817054 
L 731.027587 187.478099 
L 727.060585 187.152834 
L 723.093584 186.732209 
L 719.126582 186.800056 
L 715.159581 187.134108 
L 711.192579 186.525353 
L 707.225578 187.674871 
L 703.258576 186.401326 
L 699.291575 186.55618 
L 695.324573 187.470464 
L 691.357572 186.303373 
L 687.39057 187.519729 
L 683.423569 186.810572 
L 679.456567 186.939785 
L 675.489566 186.334775 
L 671.522564 188.350609 
L 667.555563 187.215208 
L 663.588561 187.102705 
L 659.62156 187.322957 
L 655.654558 187.356521 
L 651.687557 187.858967 
L 647.720555 186.70167 
L 643.753553 186.454769 
L 639.786552 186.700518 
L 635.81955 186.214206 
L 631.852549 187.371502 
L 627.885547 186.808843 
L 623.918546 187.552861 
L 619.951544 186.410978 
L 615.984543 187.504604 
L 612.017541 186.923795 
L 608.05054 186.449151 
L 604.083538 187.259143 
L 600.116537 188.143897 
L 596.149535 186.427399 
L 592.182534 187.29602 
L 588.215532 186.944106 
L 584.248531 187.097951 
L 580.281529 188.088438 
L 576.314528 186.838518 
L 572.347526 186.490781 
L 568.380525 187.022613 
L 564.413523 186.724718 
L 560.446522 187.275133 
L 556.47952 186.940649 
L 552.512519 187.061075 
L 548.545517 186.635984 
L 544.578516 187.258279 
L 540.611514 185.841117 
L 536.644513 186.720685 
L 532.677511 186.677614 
L 528.71051 186.714347 
L 524.743508 185.975515 
L 520.776507 187.089596 
L 516.809505 186.78882 
L 512.842504 186.790693 
L 508.875502 187.427537 
L 504.908501 186.937768 
L 500.941499 187.138717 
L 496.974498 186.448863 
L 493.007496 186.914432 
L 489.040495 186.230051 
L 485.073493 187.388212 
L 481.106492 187.156148 
L 477.13949 186.146502 
L 473.172489 186.295018 
L 469.205487 186.452464 
L 465.238486 186.59104 
L 461.271484 186.553587 
L 457.304483 185.938926 
L 453.337481 187.22097 
L 449.37048 186.633247 
L 445.403478 186.821088 
L 441.436477 186.930133 
L 437.469475 186.479545 
L 433.502474 186.493518 
L 429.535472 186.236389 
L 425.568471 186.738259 
L 421.601469 187.175018 
L 417.634468 186.164364 
L 413.667466 186.625324 
L 409.700465 186.28479 
L 405.733463 186.375541 
L 401.766462 186.622443 
L 397.79946 187.265337 
L 393.832459 186.743589 
L 389.865457 186.443245 
L 385.898456 186.633967 
L 381.931454 186.359408 
L 377.964453 186.720973 
L 373.997451 186.937192 
L 370.03045 186.712186 
L 366.063448 187.128634 
L 362.096447 186.219247 
L 358.129445 186.825409 
L 354.162443 187.099392 
L 350.195442 186.912991 
L 346.22844 187.171129 
L 342.261439 185.92481 
L 338.294437 186.524345 
L 334.327436 187.293859 
L 330.360434 186.806971 
L 326.393433 186.362865 
L 322.426431 186.700374 
L 318.45943 187.376544 
L 314.492428 186.614088 
L 310.525427 186.715787 
L 306.558425 186.910975 
L 302.591424 186.368627 
L 298.624422 186.834052 
L 294.657421 185.788971 
L 290.690419 186.59104 
L 286.723418 186.236389 
L 282.756416 186.593345 
L 278.789415 186.193318 
L 274.822413 186.516854 
L 270.855412 186.898586 
L 266.88841 186.447134 
L 262.921409 186.892968 
L 258.954407 186.528522 
L 254.987406 186.892824 
L 251.020404 187.361563 
L 247.053403 186.344571 
L 243.086401 186.73437 
L 239.1194 186.75857 
L 235.152398 186.692739 
L 231.185397 186.511092 
L 227.218395 186.869776 
L 223.251394 187.981697 
L 219.284392 187.363147 
L 215.317391 187.064244 
L 211.350389 187.341828 
L 207.383388 186.521176 
L 203.416386 187.325982 
L 199.449385 186.982567 
L 195.482383 186.777873 
L 191.515382 188.595205 
L 187.54838 186.441948 
L 183.581379 186.781906 
L 179.614377 186.220832 
L 175.647376 186.250938 
L 171.680374 186.014697 
L 167.713373 188.12229 
L 163.746371 186.264047 
L 159.77937 187.018436 
L 155.812368 186.354366 
L 151.845367 186.052438 
L 147.878365 186.285654 
L 143.911364 186.253099 
z
" clip-path="url(#p5df53d3257)" style="fill: #1f77b4"/>
   </g>
   <g id="PolyCollection_2">
    <path d="M 143.911364 38.89502 
L 143.911364 186.253099 
L 147.878365 186.285654 
L 151.845367 186.052438 
L 155.812368 186.354366 
L 159.77937 187.018436 
L 163.746371 186.264047 
L 167.713373 188.12229 
L 171.680374 186.014697 
L 175.647376 186.250938 
L 179.614377 186.220832 
L 183.581379 186.781906 
L 187.54838 186.441948 
L 191.515382 188.595205 
L 195.482383 186.777873 
L 199.449385 186.982567 
L 203.416386 187.325982 
L 207.383388 186.521176 
L 211.350389 187.341828 
L 215.317391 187.064244 
L 219.284392 187.363147 
L 223.251394 187.981697 
L 227.218395 186.869776 
L 231.185397 186.511092 
L 235.152398 186.692739 
L 239.1194 186.75857 
L 243.086401 186.73437 
L 247.053403 186.344571 
L 251.020404 187.361563 
L 254.987406 186.892824 
L 258.954407 186.528522 
L 262.921409 186.892968 
L 266.88841 186.447134 
L 270.855412 186.898586 
L 274.822413 186.516854 
L 278.789415 186.193318 
L 282.756416 186.593345 
L 286.723418 186.236389 
L 290.690419 186.59104 
L 294.657421 185.788971 
L 298.624422 186.834052 
L 302.591424 186.368627 
L 306.558425 186.910975 
L 310.525427 186.715787 
L 314.492428 186.614088 
L 318.45943 187.376544 
L 322.426431 186.700374 
L 326.393433 186.362865 
L 330.360434 186.806971 
L 334.327436 187.293859 
L 338.294437 186.524345 
L 342.261439 185.92481 
L 346.22844 187.171129 
L 350.195442 186.912991 
L 354.162443 187.099392 
L 358.129445 186.825409 
L 362.096447 186.219247 
L 366.063448 187.128634 
L 370.03045 186.712186 
L 373.997451 186.937192 
L 377.964453 186.720973 
L 381.931454 186.359408 
L 385.898456 186.633967 
L 389.865457 186.443245 
L 393.832459 186.743589 
L 397.79946 187.265337 
L 401.766462 186.622443 
L 405.733463 186.375541 
L 409.700465 186.28479 
L 413.667466 186.625324 
L 417.634468 186.164364 
L 421.601469 187.175018 
L 425.568471 186.738259 
L 429.535472 186.236389 
L 433.502474 186.493518 
L 437.469475 186.479545 
L 441.436477 186.930133 
L 445.403478 186.821088 
L 449.37048 186.633247 
L 453.337481 187.22097 
L 457.304483 185.938926 
L 461.271484 186.553587 
L 465.238486 186.59104 
L 469.205487 186.452464 
L 473.172489 186.295018 
L 477.13949 186.146502 
L 481.106492 187.156148 
L 485.073493 187.388212 
L 489.040495 186.230051 
L 493.007496 186.914432 
L 496.974498 186.448863 
L 500.941499 187.138717 
L 504.908501 186.937768 
L 508.875502 187.427537 
L 512.842504 186.790693 
L 516.809505 186.78882 
L 520.776507 187.089596 
L 524.743508 185.975515 
L 528.71051 186.714347 
L 532.677511 186.677614 
L 536.644513 186.720685 
L 540.611514 185.841117 
L 544.578516 187.258279 
L 548.545517 186.635984 
L 552.512519 187.061075 
L 556.47952 186.940649 
L 560.446522 187.275133 
L 564.413523 186.724718 
L 568.380525 187.022613 
L 572.347526 186.490781 
L 576.314528 186.838518 
L 580.281529 188.088438 
L 584.248531 187.097951 
L 588.215532 186.944106 
L 592.182534 187.29602 
L 596.149535 186.427399 
L 600.116537 188.143897 
L 604.083538 187.259143 
L 608.05054 186.449151 
L 612.017541 186.923795 
L 615.984543 187.504604 
L 619.951544 186.410978 
L 623.918546 187.552861 
L 627.885547 186.808843 
L 631.852549 187.371502 
L 635.81955 186.214206 
L 639.786552 186.700518 
L 643.753553 186.454769 
L 647.720555 186.70167 
L 651.687557 187.858967 
L 655.654558 187.356521 
L 659.62156 187.322957 
L 663.588561 187.102705 
L 667.555563 187.215208 
L 671.522564 188.350609 
L 675.489566 186.334775 
L 679.456567 186.939785 
L 683.423569 186.810572 
L 687.39057 187.519729 
L 691.357572 186.303373 
L 695.324573 187.470464 
L 699.291575 186.55618 
L 703.258576 186.401326 
L 707.225578 187.674871 
L 711.192579 186.525353 
L 715.159581 187.134108 
L 719.126582 186.800056 
L 723.093584 186.732209 
L 727.060585 187.152834 
L 731.027587 187.478099 
L 734.994588 186.817054 
L 738.96159 187.374815 
L 742.928591 186.257853 
L 746.895593 187.525059 
L 750.862594 186.419333 
L 754.829596 186.301788 
L 758.796597 186.73509 
L 762.763599 187.385475 
L 766.7306 190.834604 
L 770.697602 187.502731 
L 774.664603 186.914288 
L 778.631605 186.105736 
L 782.598606 186.474216 
L 786.565608 187.292563 
L 790.532609 186.3826 
L 794.499611 186.901756 
L 798.466612 186.857532 
L 802.433614 186.959808 
L 806.400615 187.051711 
L 810.367617 186.30683 
L 814.334618 187.091901 
L 818.30162 186.341978 
L 822.268621 186.361857 
L 826.235623 186.858829 
L 830.202624 186.632382 
L 834.169626 187.224283 
L 838.136627 186.07563 
L 842.103629 186.776432 
L 846.07063 187.061219 
L 850.037632 186.629933 
L 854.004633 186.035296 
L 857.971635 187.396855 
L 861.938636 186.529387 
L 861.938636 39.815355 
L 861.938636 39.815355 
L 857.971635 40.557067 
L 854.004633 40.19579 
L 850.037632 41.059945 
L 846.07063 40.995267 
L 842.103629 40.33451 
L 838.136627 39.025818 
L 834.169626 40.391842 
L 830.202624 40.488644 
L 826.235623 40.989649 
L 822.268621 40.814628 
L 818.30162 40.112818 
L 814.334618 40.116851 
L 810.367617 39.616854 
L 806.400615 41.209469 
L 802.433614 41.306991 
L 798.466612 41.705721 
L 794.499611 40.045114 
L 790.532609 40.427422 
L 786.565608 41.461268 
L 782.598606 39.765802 
L 778.631605 39.950762 
L 774.664603 40.508234 
L 770.697602 41.058649 
L 766.7306 52.65394 
L 762.763599 40.975532 
L 758.796597 40.631973 
L 754.829596 40.29749 
L 750.862594 40.472798 
L 746.895593 40.940528 
L 742.928591 39.955803 
L 738.96159 42.309722 
L 734.994588 40.395876 
L 731.027587 42.939363 
L 727.060585 41.220849 
L 723.093584 40.498727 
L 719.126582 40.863749 
L 715.159581 40.338976 
L 711.192579 41.408834 
L 707.225578 41.992092 
L 703.258576 40.26479 
L 699.291575 40.220135 
L 695.324573 41.035745 
L 691.357572 40.53474 
L 687.39057 42.553454 
L 683.423569 40.187291 
L 679.456567 41.048133 
L 675.489566 39.728925 
L 671.522564 42.963132 
L 667.555563 41.276452 
L 663.588561 41.700679 
L 659.62156 41.863455 
L 655.654558 41.711771 
L 651.687557 41.671005 
L 647.720555 40.950611 
L 643.753553 40.757729 
L 639.786552 41.103736 
L 635.81955 39.872687 
L 631.852549 40.915463 
L 627.885547 41.141622 
L 623.918546 41.872674 
L 619.951544 39.570038 
L 615.984543 42.264778 
L 612.017541 41.142486 
L 608.05054 40.527249 
L 604.083538 41.205724 
L 600.116537 42.512688 
L 596.149535 40.300947 
L 592.182534 42.192897 
L 588.215532 41.814766 
L 584.248531 40.497719 
L 580.281529 41.798489 
L 576.314528 41.801082 
L 572.347526 40.420364 
L 568.380525 41.169423 
L 564.413523 40.300082 
L 560.446522 41.172736 
L 556.47952 41.065851 
L 552.512519 41.813902 
L 548.545517 40.492677 
L 544.578516 41.069597 
L 540.611514 39.630395 
L 536.644513 40.233819 
L 532.677511 39.779342 
L 528.71051 40.384928 
L 524.743508 39.940678 
L 520.776507 41.389243 
L 516.809505 40.123621 
L 512.842504 40.751823 
L 508.875502 42.172442 
L 504.908501 39.949465 
L 500.941499 41.220561 
L 496.974498 41.331335 
L 493.007496 40.641625 
L 489.040495 39.421378 
L 485.073493 41.916322 
L 481.106492 40.531859 
L 477.13949 39.603169 
L 473.172489 38.970358 
L 469.205487 40.662368 
L 465.238486 40.126214 
L 461.271484 40.31103 
L 457.304483 38.663532 
L 453.337481 41.044964 
L 449.37048 39.976691 
L 445.403478 41.835654 
L 441.436477 40.835804 
L 437.469475 39.973233 
L 433.502474 40.193197 
L 429.535472 39.735407 
L 425.568471 40.117139 
L 421.601469 40.612815 
L 417.634468 39.841572 
L 413.667466 40.437074 
L 409.700465 39.609508 
L 405.733463 39.99873 
L 401.766462 40.618433 
L 397.79946 41.545681 
L 393.832459 40.277899 
L 389.865457 40.222872 
L 385.898456 41.202987 
L 381.931454 39.468051 
L 377.964453 40.892271 
L 373.997451 40.448886 
L 370.03045 40.822119 
L 366.063448 40.787259 
L 362.096447 40.637303 
L 358.129445 40.234252 
L 354.162443 41.35251 
L 350.195442 40.562109 
L 346.22844 40.664384 
L 342.261439 39.778766 
L 338.294437 40.672451 
L 334.327436 41.466454 
L 330.360434 40.796478 
L 326.393433 39.979572 
L 322.426431 39.966031 
L 318.45943 41.129953 
L 314.492428 40.99181 
L 310.525427 40.873545 
L 306.558425 41.004054 
L 302.591424 39.9002 
L 298.624422 39.289861 
L 294.657421 39.110231 
L 290.690419 40.002331 
L 286.723418 39.896887 
L 282.756416 39.914605 
L 278.789415 39.296775 
L 274.822413 39.811321 
L 270.855412 41.741733 
L 266.88841 40.327884 
L 262.921409 40.543815 
L 258.954407 39.933332 
L 254.987406 41.182676 
L 251.020404 41.363746 
L 247.053403 40.585157 
L 243.086401 40.70976 
L 239.1194 41.232517 
L 235.152398 40.438514 
L 231.185397 39.866636 
L 227.218395 40.569023 
L 223.251394 42.660483 
L 219.284392 42.166968 
L 215.317391 40.381038 
L 211.350389 42.657458 
L 207.383388 40.315928 
L 203.416386 41.933463 
L 199.449385 41.330903 
L 195.482383 40.852514 
L 191.515382 44.667385 
L 187.54838 39.329763 
L 183.581379 40.923386 
L 179.614377 39.739008 
L 175.647376 40.057791 
L 171.680374 38.174789 
L 167.713373 41.792871 
L 163.746371 40.691178 
L 159.77937 41.767518 
L 155.812368 39.347625 
L 151.845367 39.031292 
L 147.878365 39.615702 
L 143.911364 38.89502 
z
" clip-path="url(#p5df53d3257)" style="fill: #ff7f0e"/>
   </g>
   <g id="matplotlib.axis_1">
    <g id="xtick_1">
     <g id="line2d_1">
      <path d="M 143.911364 331.64 
L 143.911364 23.76 
" clip-path="url(#p5df53d3257)" style="fill: none; stroke-dasharray: 5.12,1.28,0.8,1.28; stroke-dashoffset: 0; stroke: #b0b0b0; stroke-width: 0.8"/>
     </g>
     <g id="line2d_2">
      <defs>
       <path id="m80ee1ebd18" d="M 0 0 
L 0 3.5 
" style="stroke: #000000; stroke-width: 0.8"/>
      </defs>
      <g>
       <use xlink:href="#m80ee1ebd18" x="143.911364" y="331.64" style="stroke: #000000; stroke-width: 0.8"/>
      </g>
     </g>
     <g id="text_1">
      <!-- 0 -->
      <g transform="translate(136.912614 355.356563)scale(0.22 -0.22)">
       <defs>
        <path id="DejaVuSans-30" d="M 2034 4250 
Q 1547 4250 1301 3770 
Q 1056 3291 1056 2328 
Q 1056 1369 1301 889 
Q 1547 409 2034 409 
Q 2525 409 2770 889 
Q 3016 1369 3016 2328 
Q 3016 3291 2770 3770 
Q 2525 4250 2034 4250 
z
M 2034 4750 
Q 2819 4750 3233 4129 
Q 3647 3509 3647 2328 
Q 3647 1150 3233 529 
Q 2819 -91 2034 -91 
Q 1250 -91 836 529 
Q 422 1150 422 2328 
Q 422 3509 836 4129 
Q 1250 4750 2034 4750 
z
" transform="scale(0.015625)"/>
       </defs>
       <use xlink:href="#DejaVuSans-30"/>
      </g>
     </g>
    </g>
    <g id="xtick_2">
     <g id="line2d_3">
      <path d="M 243.086401 331.64 
L 243.086401 23.76 
" clip-path="url(#p5df53d3257)" style="fill: none; stroke-dasharray: 5.12,1.28,0.8,1.28; stroke-dashoffset: 0; stroke: #b0b0b0; stroke-width: 0.8"/>
     </g>
     <g id="line2d_4">
      <g>
       <use xlink:href="#m80ee1ebd18" x="243.086401" y="331.64" style="stroke: #000000; stroke-width: 0.8"/>
      </g>
     </g>
     <g id="text_2">
      <!-- 25 -->
      <g transform="translate(229.088901 355.356563)scale(0.22 -0.22)">
       <defs>
        <path id="DejaVuSans-32" d="M 1228 531 
L 3431 531 
L 3431 0 
L 469 0 
L 469 531 
Q 828 903 1448 1529 
Q 2069 2156 2228 2338 
Q 2531 2678 2651 2914 
Q 2772 3150 2772 3378 
Q 2772 3750 2511 3984 
Q 2250 4219 1831 4219 
Q 1534 4219 1204 4116 
Q 875 4013 500 3803 
L 500 4441 
Q 881 4594 1212 4672 
Q 1544 4750 1819 4750 
Q 2544 4750 2975 4387 
Q 3406 4025 3406 3419 
Q 3406 3131 3298 2873 
Q 3191 2616 2906 2266 
Q 2828 2175 2409 1742 
Q 1991 1309 1228 531 
z
" transform="scale(0.015625)"/>
        <path id="DejaVuSans-35" d="M 691 4666 
L 3169 4666 
L 3169 4134 
L 1269 4134 
L 1269 2991 
Q 1406 3038 1543 3061 
Q 1681 3084 1819 3084 
Q 2600 3084 3056 2656 
Q 3513 2228 3513 1497 
Q 3513 744 3044 326 
Q 2575 -91 1722 -91 
Q 1428 -91 1123 -41 
Q 819 9 494 109 
L 494 744 
Q 775 591 1075 516 
Q 1375 441 1709 441 
Q 2250 441 2565 725 
Q 2881 1009 2881 1497 
Q 2881 1984 2565 2268 
Q 2250 2553 1709 2553 
Q 1456 2553 1204 2497 
Q 953 2441 691 2322 
L 691 4666 
z
" transform="scale(0.015625)"/>
       </defs>
       <use xlink:href="#DejaVuSans-32"/>
       <use xlink:href="#DejaVuSans-35" x="63.623047"/>
      </g>
     </g>
    </g>
    <g id="xtick_3">
     <g id="line2d_5">
      <path d="M 342.261439 331.64 
L 342.261439 23.76 
" clip-path="url(#p5df53d3257)" style="fill: none; stroke-dasharray: 5.12,1.28,0.8,1.28; stroke-dashoffset: 0; stroke: #b0b0b0; stroke-width: 0.8"/>
     </g>
     <g id="line2d_6">
      <g>
       <use xlink:href="#m80ee1ebd18" x="342.261439" y="331.64" style="stroke: #000000; stroke-width: 0.8"/>
      </g>
     </g>
     <g id="text_3">
      <!-- 50 -->
      <g transform="translate(328.263939 355.356563)scale(0.22 -0.22)">
       <use xlink:href="#DejaVuSans-35"/>
       <use xlink:href="#DejaVuSans-30" x="63.623047"/>
      </g>
     </g>
    </g>
    <g id="xtick_4">
     <g id="line2d_7">
      <path d="M 441.436477 331.64 
L 441.436477 23.76 
" clip-path="url(#p5df53d3257)" style="fill: none; stroke-dasharray: 5.12,1.28,0.8,1.28; stroke-dashoffset: 0; stroke: #b0b0b0; stroke-width: 0.8"/>
     </g>
     <g id="line2d_8">
      <g>
       <use xlink:href="#m80ee1ebd18" x="441.436477" y="331.64" style="stroke: #000000; stroke-width: 0.8"/>
      </g>
     </g>
     <g id="text_4">
      <!-- 75 -->
      <g transform="translate(427.438977 355.356563)scale(0.22 -0.22)">
       <defs>
        <path id="DejaVuSans-37" d="M 525 4666 
L 3525 4666 
L 3525 4397 
L 1831 0 
L 1172 0 
L 2766 4134 
L 525 4134 
L 525 4666 
z
" transform="scale(0.015625)"/>
       </defs>
       <use xlink:href="#DejaVuSans-37"/>
       <use xlink:href="#DejaVuSans-35" x="63.623047"/>
      </g>
     </g>
    </g>
    <g id="xtick_5">
     <g id="line2d_9">
      <path d="M 540.611514 331.64 
L 540.611514 23.76 
" clip-path="url(#p5df53d3257)" style="fill: none; stroke-dasharray: 5.12,1.28,0.8,1.28; stroke-dashoffset: 0; stroke: #b0b0b0; stroke-width: 0.8"/>
     </g>
     <g id="line2d_10">
      <g>
       <use xlink:href="#m80ee1ebd18" x="540.611514" y="331.64" style="stroke: #000000; stroke-width: 0.8"/>
      </g>
     </g>
     <g id="text_5">
      <!-- 100 -->
      <g transform="translate(519.615264 355.356563)scale(0.22 -0.22)">
       <defs>
        <path id="DejaVuSans-31" d="M 794 531 
L 1825 531 
L 1825 4091 
L 703 3866 
L 703 4441 
L 1819 4666 
L 2450 4666 
L 2450 531 
L 3481 531 
L 3481 0 
L 794 0 
L 794 531 
z
" transform="scale(0.015625)"/>
       </defs>
       <use xlink:href="#DejaVuSans-31"/>
       <use xlink:href="#DejaVuSans-30" x="63.623047"/>
       <use xlink:href="#DejaVuSans-30" x="127.246094"/>
      </g>
     </g>
    </g>
    <g id="xtick_6">
     <g id="line2d_11">
      <path d="M 639.786552 331.64 
L 639.786552 23.76 
" clip-path="url(#p5df53d3257)" style="fill: none; stroke-dasharray: 5.12,1.28,0.8,1.28; stroke-dashoffset: 0; stroke: #b0b0b0; stroke-width: 0.8"/>
     </g>
     <g id="line2d_12">
      <g>
       <use xlink:href="#m80ee1ebd18" x="639.786552" y="331.64" style="stroke: #000000; stroke-width: 0.8"/>
      </g>
     </g>
     <g id="text_6">
      <!-- 125 -->
      <g transform="translate(618.790302 355.356563)scale(0.22 -0.22)">
       <use xlink:href="#DejaVuSans-31"/>
       <use xlink:href="#DejaVuSans-32" x="63.623047"/>
       <use xlink:href="#DejaVuSans-35" x="127.246094"/>
      </g>
     </g>
    </g>
    <g id="xtick_7">
     <g id="line2d_13">
      <path d="M 738.96159 331.64 
L 738.96159 23.76 
" clip-path="url(#p5df53d3257)" style="fill: none; stroke-dasharray: 5.12,1.28,0.8,1.28; stroke-dashoffset: 0; stroke: #b0b0b0; stroke-width: 0.8"/>
     </g>
     <g id="line2d_14">
      <g>
       <use xlink:href="#m80ee1ebd18" x="738.96159" y="331.64" style="stroke: #000000; stroke-width: 0.8"/>
      </g>
     </g>
     <g id="text_7">
      <!-- 150 -->
      <g transform="translate(717.96534 355.356563)scale(0.22 -0.22)">
       <use xlink:href="#DejaVuSans-31"/>
       <use xlink:href="#DejaVuSans-35" x="63.623047"/>
       <use xlink:href="#DejaVuSans-30" x="127.246094"/>
      </g>
     </g>
    </g>
    <g id="xtick_8">
     <g id="line2d_15">
      <path d="M 838.136627 331.64 
L 838.136627 23.76 
" clip-path="url(#p5df53d3257)" style="fill: none; stroke-dasharray: 5.12,1.28,0.8,1.28; stroke-dashoffset: 0; stroke: #b0b0b0; stroke-width: 0.8"/>
     </g>
     <g id="line2d_16">
      <g>
       <use xlink:href="#m80ee1ebd18" x="838.136627" y="331.64" style="stroke: #000000; stroke-width: 0.8"/>
      </g>
     </g>
     <g id="text_8">
      <!-- 175 -->
      <g transform="translate(817.140377 355.356563)scale(0.22 -0.22)">
       <use xlink:href="#DejaVuSans-31"/>
       <use xlink:href="#DejaVuSans-37" x="63.623047"/>
       <use xlink:href="#DejaVuSans-35" x="127.246094"/>
      </g>
     </g>
    </g>
    <g id="text_9">
     <!-- Time (s) -->
     <g transform="translate(454.135625 382.168125)scale(0.24 -0.24)">
      <defs>
       <path id="DejaVuSans-54" d="M -19 4666 
L 3928 4666 
L 3928 4134 
L 2272 4134 
L 2272 0 
L 1638 0 
L 1638 4134 
L -19 4134 
L -19 4666 
z
" transform="scale(0.015625)"/>
       <path id="DejaVuSans-69" d="M 603 3500 
L 1178 3500 
L 1178 0 
L 603 0 
L 603 3500 
z
M 603 4863 
L 1178 4863 
L 1178 4134 
L 603 4134 
L 603 4863 
z
" transform="scale(0.015625)"/>
       <path id="DejaVuSans-6d" d="M 3328 2828 
Q 3544 3216 3844 3400 
Q 4144 3584 4550 3584 
Q 5097 3584 5394 3201 
Q 5691 2819 5691 2113 
L 5691 0 
L 5113 0 
L 5113 2094 
Q 5113 2597 4934 2840 
Q 4756 3084 4391 3084 
Q 3944 3084 3684 2787 
Q 3425 2491 3425 1978 
L 3425 0 
L 2847 0 
L 2847 2094 
Q 2847 2600 2669 2842 
Q 2491 3084 2119 3084 
Q 1678 3084 1418 2786 
Q 1159 2488 1159 1978 
L 1159 0 
L 581 0 
L 581 3500 
L 1159 3500 
L 1159 2956 
Q 1356 3278 1631 3431 
Q 1906 3584 2284 3584 
Q 2666 3584 2933 3390 
Q 3200 3197 3328 2828 
z
" transform="scale(0.015625)"/>
       <path id="DejaVuSans-65" d="M 3597 1894 
L 3597 1613 
L 953 1613 
Q 991 1019 1311 708 
Q 1631 397 2203 397 
Q 2534 397 2845 478 
Q 3156 559 3463 722 
L 3463 178 
Q 3153 47 2828 -22 
Q 2503 -91 2169 -91 
Q 1331 -91 842 396 
Q 353 884 353 1716 
Q 353 2575 817 3079 
Q 1281 3584 2069 3584 
Q 2775 3584 3186 3129 
Q 3597 2675 3597 1894 
z
M 3022 2063 
Q 3016 2534 2758 2815 
Q 2500 3097 2075 3097 
Q 1594 3097 1305 2825 
Q 1016 2553 972 2059 
L 3022 2063 
z
" transform="scale(0.015625)"/>
       <path id="DejaVuSans-20" transform="scale(0.015625)"/>
       <path id="DejaVuSans-28" d="M 1984 4856 
Q 1566 4138 1362 3434 
Q 1159 2731 1159 2009 
Q 1159 1288 1364 580 
Q 1569 -128 1984 -844 
L 1484 -844 
Q 1016 -109 783 600 
Q 550 1309 550 2009 
Q 550 2706 781 3412 
Q 1013 4119 1484 4856 
L 1984 4856 
z
" transform="scale(0.015625)"/>
       <path id="DejaVuSans-73" d="M 2834 3397 
L 2834 2853 
Q 2591 2978 2328 3040 
Q 2066 3103 1784 3103 
Q 1356 3103 1142 2972 
Q 928 2841 928 2578 
Q 928 2378 1081 2264 
Q 1234 2150 1697 2047 
L 1894 2003 
Q 2506 1872 2764 1633 
Q 3022 1394 3022 966 
Q 3022 478 2636 193 
Q 2250 -91 1575 -91 
Q 1294 -91 989 -36 
Q 684 19 347 128 
L 347 722 
Q 666 556 975 473 
Q 1284 391 1588 391 
Q 1994 391 2212 530 
Q 2431 669 2431 922 
Q 2431 1156 2273 1281 
Q 2116 1406 1581 1522 
L 1381 1569 
Q 847 1681 609 1914 
Q 372 2147 372 2553 
Q 372 3047 722 3315 
Q 1072 3584 1716 3584 
Q 2034 3584 2315 3537 
Q 2597 3491 2834 3397 
z
" transform="scale(0.015625)"/>
       <path id="DejaVuSans-29" d="M 513 4856 
L 1013 4856 
Q 1481 4119 1714 3412 
Q 1947 2706 1947 2009 
Q 1947 1309 1714 600 
Q 1481 -109 1013 -844 
L 513 -844 
Q 928 -128 1133 580 
Q 1338 1288 1338 2009 
Q 1338 2731 1133 3434 
Q 928 4138 513 4856 
z
" transform="scale(0.015625)"/>
      </defs>
      <use xlink:href="#DejaVuSans-54"/>
      <use xlink:href="#DejaVuSans-69" x="57.958984"/>
      <use xlink:href="#DejaVuSans-6d" x="85.742188"/>
      <use xlink:href="#DejaVuSans-65" x="183.154297"/>
      <use xlink:href="#DejaVuSans-20" x="244.677734"/>
      <use xlink:href="#DejaVuSans-28" x="276.464844"/>
      <use xlink:href="#DejaVuSans-73" x="315.478516"/>
      <use xlink:href="#DejaVuSans-29" x="367.578125"/>
     </g>
    </g>
   </g>
   <g id="matplotlib.axis_2">
    <g id="ytick_1">
     <g id="line2d_17">
      <path d="M 108.01 331.64 
L 897.84 331.64 
" clip-path="url(#p5df53d3257)" style="fill: none; stroke-dasharray: 5.12,1.28,0.8,1.28; stroke-dashoffset: 0; stroke: #b0b0b0; stroke-width: 0.8"/>
     </g>
     <g id="line2d_18">
      <defs>
       <path id="me6990c16bc" d="M 0 0 
L -3.5 0 
" style="stroke: #000000; stroke-width: 0.8"/>
      </defs>
      <g>
       <use xlink:href="#me6990c16bc" x="108.01" y="331.64" style="stroke: #000000; stroke-width: 0.8"/>
      </g>
     </g>
     <g id="text_10">
      <!-- 0 -->
      <g transform="translate(87.0125 339.998281)scale(0.22 -0.22)">
       <use xlink:href="#DejaVuSans-30"/>
      </g>
     </g>
    </g>
    <g id="ytick_2">
     <g id="line2d_19">
      <path d="M 108.01 241.608856 
L 897.84 241.608856 
" clip-path="url(#p5df53d3257)" style="fill: none; stroke-dasharray: 5.12,1.28,0.8,1.28; stroke-dashoffset: 0; stroke: #b0b0b0; stroke-width: 0.8"/>
     </g>
     <g id="line2d_20">
      <g>
       <use xlink:href="#me6990c16bc" x="108.01" y="241.608856" style="stroke: #000000; stroke-width: 0.8"/>
      </g>
     </g>
     <g id="text_11">
      <!-- 5 -->
      <g transform="translate(87.0125 249.967137)scale(0.22 -0.22)">
       <use xlink:href="#DejaVuSans-35"/>
      </g>
     </g>
    </g>
    <g id="ytick_3">
     <g id="line2d_21">
      <path d="M 108.01 151.577712 
L 897.84 151.577712 
" clip-path="url(#p5df53d3257)" style="fill: none; stroke-dasharray: 5.12,1.28,0.8,1.28; stroke-dashoffset: 0; stroke: #b0b0b0; stroke-width: 0.8"/>
     </g>
     <g id="line2d_22">
      <g>
       <use xlink:href="#me6990c16bc" x="108.01" y="151.577712" style="stroke: #000000; stroke-width: 0.8"/>
      </g>
     </g>
     <g id="text_12">
      <!-- 10 -->
      <g transform="translate(73.015 159.935993)scale(0.22 -0.22)">
       <use xlink:href="#DejaVuSans-31"/>
       <use xlink:href="#DejaVuSans-30" x="63.623047"/>
      </g>
     </g>
    </g>
    <g id="ytick_4">
     <g id="line2d_23">
      <path d="M 108.01 61.546568 
L 897.84 61.546568 
" clip-path="url(#p5df53d3257)" style="fill: none; stroke-dasharray: 5.12,1.28,0.8,1.28; stroke-dashoffset: 0; stroke: #b0b0b0; stroke-width: 0.8"/>
     </g>
     <g id="line2d_24">
      <g>
       <use xlink:href="#me6990c16bc" x="108.01" y="61.546568" style="stroke: #000000; stroke-width: 0.8"/>
      </g>
     </g>
     <g id="text_13">
      <!-- 15 -->
      <g transform="translate(73.015 69.904849)scale(0.22 -0.22)">
       <use xlink:href="#DejaVuSans-31"/>
       <use xlink:href="#DejaVuSans-35" x="63.623047"/>
      </g>
     </g>
    </g>
    <g id="text_14">
     <!-- Throughput (Mbps) -->
     <g transform="translate(64.02375 292.414375)rotate(-90)scale(0.24 -0.24)">
      <defs>
       <path id="DejaVuSans-68" d="M 3513 2113 
L 3513 0 
L 2938 0 
L 2938 2094 
Q 2938 2591 2744 2837 
Q 2550 3084 2163 3084 
Q 1697 3084 1428 2787 
Q 1159 2491 1159 1978 
L 1159 0 
L 581 0 
L 581 4863 
L 1159 4863 
L 1159 2956 
Q 1366 3272 1645 3428 
Q 1925 3584 2291 3584 
Q 2894 3584 3203 3211 
Q 3513 2838 3513 2113 
z
" transform="scale(0.015625)"/>
       <path id="DejaVuSans-72" d="M 2631 2963 
Q 2534 3019 2420 3045 
Q 2306 3072 2169 3072 
Q 1681 3072 1420 2755 
Q 1159 2438 1159 1844 
L 1159 0 
L 581 0 
L 581 3500 
L 1159 3500 
L 1159 2956 
Q 1341 3275 1631 3429 
Q 1922 3584 2338 3584 
Q 2397 3584 2469 3576 
Q 2541 3569 2628 3553 
L 2631 2963 
z
" transform="scale(0.015625)"/>
       <path id="DejaVuSans-6f" d="M 1959 3097 
Q 1497 3097 1228 2736 
Q 959 2375 959 1747 
Q 959 1119 1226 758 
Q 1494 397 1959 397 
Q 2419 397 2687 759 
Q 2956 1122 2956 1747 
Q 2956 2369 2687 2733 
Q 2419 3097 1959 3097 
z
M 1959 3584 
Q 2709 3584 3137 3096 
Q 3566 2609 3566 1747 
Q 3566 888 3137 398 
Q 2709 -91 1959 -91 
Q 1206 -91 779 398 
Q 353 888 353 1747 
Q 353 2609 779 3096 
Q 1206 3584 1959 3584 
z
" transform="scale(0.015625)"/>
       <path id="DejaVuSans-75" d="M 544 1381 
L 544 3500 
L 1119 3500 
L 1119 1403 
Q 1119 906 1312 657 
Q 1506 409 1894 409 
Q 2359 409 2629 706 
Q 2900 1003 2900 1516 
L 2900 3500 
L 3475 3500 
L 3475 0 
L 2900 0 
L 2900 538 
Q 2691 219 2414 64 
Q 2138 -91 1772 -91 
Q 1169 -91 856 284 
Q 544 659 544 1381 
z
M 1991 3584 
L 1991 3584 
z
" transform="scale(0.015625)"/>
       <path id="DejaVuSans-67" d="M 2906 1791 
Q 2906 2416 2648 2759 
Q 2391 3103 1925 3103 
Q 1463 3103 1205 2759 
Q 947 2416 947 1791 
Q 947 1169 1205 825 
Q 1463 481 1925 481 
Q 2391 481 2648 825 
Q 2906 1169 2906 1791 
z
M 3481 434 
Q 3481 -459 3084 -895 
Q 2688 -1331 1869 -1331 
Q 1566 -1331 1297 -1286 
Q 1028 -1241 775 -1147 
L 775 -588 
Q 1028 -725 1275 -790 
Q 1522 -856 1778 -856 
Q 2344 -856 2625 -561 
Q 2906 -266 2906 331 
L 2906 616 
Q 2728 306 2450 153 
Q 2172 0 1784 0 
Q 1141 0 747 490 
Q 353 981 353 1791 
Q 353 2603 747 3093 
Q 1141 3584 1784 3584 
Q 2172 3584 2450 3431 
Q 2728 3278 2906 2969 
L 2906 3500 
L 3481 3500 
L 3481 434 
z
" transform="scale(0.015625)"/>
       <path id="DejaVuSans-70" d="M 1159 525 
L 1159 -1331 
L 581 -1331 
L 581 3500 
L 1159 3500 
L 1159 2969 
Q 1341 3281 1617 3432 
Q 1894 3584 2278 3584 
Q 2916 3584 3314 3078 
Q 3713 2572 3713 1747 
Q 3713 922 3314 415 
Q 2916 -91 2278 -91 
Q 1894 -91 1617 61 
Q 1341 213 1159 525 
z
M 3116 1747 
Q 3116 2381 2855 2742 
Q 2594 3103 2138 3103 
Q 1681 3103 1420 2742 
Q 1159 2381 1159 1747 
Q 1159 1113 1420 752 
Q 1681 391 2138 391 
Q 2594 391 2855 752 
Q 3116 1113 3116 1747 
z
" transform="scale(0.015625)"/>
       <path id="DejaVuSans-74" d="M 1172 4494 
L 1172 3500 
L 2356 3500 
L 2356 3053 
L 1172 3053 
L 1172 1153 
Q 1172 725 1289 603 
Q 1406 481 1766 481 
L 2356 481 
L 2356 0 
L 1766 0 
Q 1100 0 847 248 
Q 594 497 594 1153 
L 594 3053 
L 172 3053 
L 172 3500 
L 594 3500 
L 594 4494 
L 1172 4494 
z
" transform="scale(0.015625)"/>
       <path id="DejaVuSans-4d" d="M 628 4666 
L 1569 4666 
L 2759 1491 
L 3956 4666 
L 4897 4666 
L 4897 0 
L 4281 0 
L 4281 4097 
L 3078 897 
L 2444 897 
L 1241 4097 
L 1241 0 
L 628 0 
L 628 4666 
z
" transform="scale(0.015625)"/>
       <path id="DejaVuSans-62" d="M 3116 1747 
Q 3116 2381 2855 2742 
Q 2594 3103 2138 3103 
Q 1681 3103 1420 2742 
Q 1159 2381 1159 1747 
Q 1159 1113 1420 752 
Q 1681 391 2138 391 
Q 2594 391 2855 752 
Q 3116 1113 3116 1747 
z
M 1159 2969 
Q 1341 3281 1617 3432 
Q 1894 3584 2278 3584 
Q 2916 3584 3314 3078 
Q 3713 2572 3713 1747 
Q 3713 922 3314 415 
Q 2916 -91 2278 -91 
Q 1894 -91 1617 61 
Q 1341 213 1159 525 
L 1159 0 
L 581 0 
L 581 4863 
L 1159 4863 
L 1159 2969 
z
" transform="scale(0.015625)"/>
      </defs>
      <use xlink:href="#DejaVuSans-54"/>
      <use xlink:href="#DejaVuSans-68" x="61.083984"/>
      <use xlink:href="#DejaVuSans-72" x="124.462891"/>
      <use xlink:href="#DejaVuSans-6f" x="163.326172"/>
      <use xlink:href="#DejaVuSans-75" x="224.507812"/>
      <use xlink:href="#DejaVuSans-67" x="287.886719"/>
      <use xlink:href="#DejaVuSans-68" x="351.363281"/>
      <use xlink:href="#DejaVuSans-70" x="414.742188"/>
      <use xlink:href="#DejaVuSans-75" x="478.21875"/>
      <use xlink:href="#DejaVuSans-74" x="541.597656"/>
      <use xlink:href="#DejaVuSans-20" x="580.806641"/>
      <use xlink:href="#DejaVuSans-28" x="612.59375"/>
      <use xlink:href="#DejaVuSans-4d" x="651.607422"/>
      <use xlink:href="#DejaVuSans-62" x="737.886719"/>
      <use xlink:href="#DejaVuSans-70" x="801.363281"/>
      <use xlink:href="#DejaVuSans-73" x="864.839844"/>
      <use xlink:href="#DejaVuSans-29" x="916.939453"/>
     </g>
    </g>
   </g>
   <g id="patch_3">
    <path d="M 108.01 331.64 
L 108.01 23.76 
" style="fill: none; stroke: #000000; stroke-width: 0.8; stroke-linejoin: miter; stroke-linecap: square"/>
   </g>
   <g id="patch_4">
    <path d="M 897.84 331.64 
L 897.84 23.76 
" style="fill: none; stroke: #000000; stroke-width: 0.8; stroke-linejoin: miter; stroke-linecap: square"/>
   </g>
   <g id="patch_5">
    <path d="M 108.01 331.64 
L 897.84 331.64 
" style="fill: none; stroke: #000000; stroke-width: 0.8; stroke-linejoin: miter; stroke-linecap: square"/>
   </g>
   <g id="patch_6">
    <path d="M 108.01 23.76 
L 897.84 23.76 
" style="fill: none; stroke: #000000; stroke-width: 0.8; stroke-linejoin: miter; stroke-linecap: square"/>
   </g>
   <g id="legend_1">
    <g id="patch_7">
     <path d="M 756.24 113.415 
L 881.04 113.415 
Q 885.84 113.415 885.84 108.615 
L 885.84 40.56 
Q 885.84 35.76 881.04 35.76 
L 756.24 35.76 
Q 751.44 35.76 751.44 40.56 
L 751.44 108.615 
Q 751.44 113.415 756.24 113.415 
z
" style="fill: #ffffff; opacity: 0.8; stroke: #cccccc; stroke-linejoin: miter"/>
    </g>
    <g id="patch_8">
     <path d="M 761.04 63.59625 
L 809.04 63.59625 
L 809.04 46.79625 
L 761.04 46.79625 
z
" style="fill: #1f77b4"/>
    </g>
    <g id="text_15">
     <!-- UE1 -->
     <g transform="translate(828.24 63.59625)scale(0.24 -0.24)">
      <defs>
       <path id="DejaVuSans-55" d="M 556 4666 
L 1191 4666 
L 1191 1831 
Q 1191 1081 1462 751 
Q 1734 422 2344 422 
Q 2950 422 3222 751 
Q 3494 1081 3494 1831 
L 3494 4666 
L 4128 4666 
L 4128 1753 
Q 4128 841 3676 375 
Q 3225 -91 2344 -91 
Q 1459 -91 1007 375 
Q 556 841 556 1753 
L 556 4666 
z
" transform="scale(0.015625)"/>
       <path id="DejaVuSans-45" d="M 628 4666 
L 3578 4666 
L 3578 4134 
L 1259 4134 
L 1259 2753 
L 3481 2753 
L 3481 2222 
L 1259 2222 
L 1259 531 
L 3634 531 
L 3634 0 
L 628 0 
L 628 4666 
z
" transform="scale(0.015625)"/>
      </defs>
      <use xlink:href="#DejaVuSans-55"/>
      <use xlink:href="#DejaVuSans-45" x="73.193359"/>
      <use xlink:href="#DejaVuSans-31" x="136.376953"/>
     </g>
    </g>
    <g id="patch_9">
     <path d="M 761.04 98.82375 
L 809.04 98.82375 
L 809.04 82.02375 
L 761.04 82.02375 
z
" style="fill: #ff7f0e"/>
    </g>
    <g id="text_16">
     <!-- UE2 -->
     <g transform="translate(828.24 98.82375)scale(0.24 -0.24)">
      <use xlink:href="#DejaVuSans-55"/>
      <use xlink:href="#DejaVuSans-45" x="73.193359"/>
      <use xlink:href="#DejaVuSans-32" x="136.376953"/>
     </g>
    </g>
   </g>
  </g>
 </g>
 <defs>
  <clipPath id="p5df53d3257">
   <rect x="108.01" y="23.76" width="789.83" height="307.88"/>
  </clipPath>
 </defs>
</svg>
