<?xml version="1.0" encoding="utf-8" standalone="no"?>
<!DOCTYPE svg PUBLIC "-//W3C//DTD SVG 1.1//EN"
  "http://www.w3.org/Graphics/SVG/1.1/DTD/svg11.dtd">
<svg xmlns:xlink="http://www.w3.org/1999/xlink" width="921.6pt" height="410.4pt" viewBox="0 0 921.6 410.4" xmlns="http://www.w3.org/2000/svg" version="1.1">
 <metadata>
  <rdf:RDF xmlns:dc="http://purl.org/dc/elements/1.1/" xmlns:cc="http://creativecommons.org/ns#" xmlns:rdf="http://www.w3.org/1999/02/22-rdf-syntax-ns#">
   <cc:Work>
    <dc:type rdf:resource="http://purl.org/dc/dcmitype/StillImage"/>
    <dc:date>2023-04-11T15:18:51.286124</dc:date>
    <dc:format>image/svg+xml</dc:format>
    <dc:creator>
     <cc:Agent>
      <dc:title>Matplotlib v3.5.3, https://matplotlib.org/</dc:title>
     </cc:Agent>
    </dc:creator>
   </cc:Work>
  </rdf:RDF>
 </metadata>
 <defs>
  <style type="text/css">*{stroke-linejoin: round; stroke-linecap: butt}</style>
 </defs>
 <g id="figure_1">
  <g id="patch_1">
   <path d="M 0 410.4 
L 921.6 410.4 
L 921.6 0 
L 0 0 
L 0 410.4 
z
" style="fill: none"/>
  </g>
  <g id="axes_1">
   <g id="patch_2">
    <path d="M 101.01 331.64 
L 897.84 331.64 
L 897.84 23.76 
L 101.01 23.76 
z
" style="fill: #ffffff"/>
   </g>
   <g id="PolyCollection_1">
    <path d="M 137.229545 230.284986 
L 137.229545 331.64 
L 141.166453 331.64 
L 145.10336 331.64 
L 149.040267 331.64 
L 152.977174 331.64 
L 156.914081 331.64 
L 160.850988 331.64 
L 164.787895 331.64 
L 168.724802 331.64 
L 172.661709 331.64 
L 176.598617 331.64 
L 180.535524 331.64 
L 184.472431 331.64 
L 188.409338 331.64 
L 192.346245 331.64 
L 196.283152 331.64 
L 200.220059 331.64 
L 204.156966 331.64 
L 208.093874 331.64 
L 212.030781 331.64 
L 215.967688 331.64 
L 219.904595 331.64 
L 223.841502 331.64 
L 227.778409 331.64 
L 231.715316 331.64 
L 235.652223 331.64 
L 239.58913 331.64 
L 243.526038 331.64 
L 247.462945 331.64 
L 251.399852 331.64 
L 255.336759 331.64 
L 259.273666 331.64 
L 263.210573 331.64 
L 267.14748 331.64 
L 271.084387 331.64 
L 275.021294 331.64 
L 278.958202 331.64 
L 282.895109 331.64 
L 286.832016 331.64 
L 290.768923 331.64 
L 294.70583 331.64 
L 298.642737 331.64 
L 302.579644 331.64 
L 306.516551 331.64 
L 310.453458 331.64 
L 314.390366 331.64 
L 318.327273 331.64 
L 322.26418 331.64 
L 326.201087 331.64 
L 330.137994 331.64 
L 334.074901 331.64 
L 338.011808 331.64 
L 341.948715 331.64 
L 345.885623 331.64 
L 349.82253 331.64 
L 353.759437 331.64 
L 357.696344 331.64 
L 361.633251 331.64 
L 365.570158 331.64 
L 369.507065 331.64 
L 373.443972 331.64 
L 377.380879 331.64 
L 381.317787 331.64 
L 385.254694 331.64 
L 389.191601 331.64 
L 393.128508 331.64 
L 397.065415 331.64 
L 401.002322 331.64 
L 404.939229 331.64 
L 408.876136 331.64 
L 412.813043 331.64 
L 416.749951 331.64 
L 420.686858 331.64 
L 424.623765 331.64 
L 428.560672 331.64 
L 432.497579 331.64 
L 436.434486 331.64 
L 440.371393 331.64 
L 444.3083 331.64 
L 448.245208 331.64 
L 452.182115 331.64 
L 456.119022 331.64 
L 460.055929 331.64 
L 463.992836 331.64 
L 467.929743 331.64 
L 471.86665 331.64 
L 475.803557 331.64 
L 479.740464 331.64 
L 483.677372 331.64 
L 487.614279 331.64 
L 491.551186 331.64 
L 495.488093 331.64 
L 499.425 331.64 
L 503.361907 331.64 
L 507.298814 331.64 
L 511.235721 331.64 
L 515.172628 331.64 
L 519.109536 331.64 
L 523.046443 331.64 
L 526.98335 331.64 
L 530.920257 331.64 
L 534.857164 331.64 
L 538.794071 331.64 
L 542.730978 331.64 
L 546.667885 331.64 
L 550.604792 331.64 
L 554.5417 331.64 
L 558.478607 331.64 
L 562.415514 331.64 
L 566.352421 331.64 
L 570.289328 331.64 
L 574.226235 331.64 
L 578.163142 331.64 
L 582.100049 331.64 
L 586.036957 331.64 
L 589.973864 331.64 
L 593.910771 331.64 
L 597.847678 331.64 
L 601.784585 331.64 
L 605.721492 331.64 
L 609.658399 331.64 
L 613.595306 331.64 
L 617.532213 331.64 
L 621.469121 331.64 
L 625.406028 331.64 
L 629.342935 331.64 
L 633.279842 331.64 
L 637.216749 331.64 
L 641.153656 331.64 
L 645.090563 331.64 
L 649.02747 331.64 
L 652.964377 331.64 
L 656.901285 331.64 
L 660.838192 331.64 
L 664.775099 331.64 
L 668.712006 331.64 
L 672.648913 331.64 
L 676.58582 331.64 
L 680.522727 331.64 
L 684.459634 331.64 
L 688.396542 331.64 
L 692.333449 331.64 
L 696.270356 331.64 
L 700.207263 331.64 
L 704.14417 331.64 
L 708.081077 331.64 
L 712.017984 331.64 
L 715.954891 331.64 
L 719.891798 331.64 
L 723.828706 331.64 
L 727.765613 331.64 
L 731.70252 331.64 
L 735.639427 331.64 
L 739.576334 331.64 
L 743.513241 331.64 
L 747.450148 331.64 
L 751.387055 331.64 
L 755.323962 331.64 
L 759.26087 331.64 
L 763.197777 331.64 
L 767.134684 331.64 
L 771.071591 331.64 
L 775.008498 331.64 
L 778.945405 331.64 
L 782.882312 331.64 
L 786.819219 331.64 
L 790.756126 331.64 
L 794.693034 331.64 
L 798.629941 331.64 
L 802.566848 331.64 
L 806.503755 331.64 
L 810.440662 331.64 
L 814.377569 331.64 
L 818.314476 331.64 
L 822.251383 331.64 
L 826.188291 331.64 
L 830.125198 331.64 
L 834.062105 331.64 
L 837.999012 331.64 
L 841.935919 331.64 
L 845.872826 331.64 
L 849.809733 331.64 
L 853.74664 331.64 
L 857.683547 331.64 
L 861.620455 331.64 
L 861.620455 235.194669 
L 861.620455 235.194669 
L 857.683547 235.584164 
L 853.74664 235.388367 
L 849.809733 237.526038 
L 845.872826 234.398697 
L 841.935919 235.006935 
L 837.999012 234.93306 
L 834.062105 234.459904 
L 830.125198 234.623013 
L 826.188291 234.452536 
L 822.251383 234.552439 
L 818.314476 234.700492 
L 814.377569 234.572243 
L 810.440662 234.227959 
L 806.503755 234.265468 
L 802.566848 234.202784 
L 798.629941 234.330946 
L 794.693034 233.730873 
L 790.756126 234.357858 
L 786.819219 234.136987 
L 782.882312 234.265193 
L 778.945405 234.030004 
L 775.008498 234.252685 
L 771.071591 234.26955 
L 767.134684 234.934667 
L 763.197777 235.589043 
L 759.26087 236.555043 
L 755.323962 235.548175 
L 751.387055 236.011777 
L 747.450148 235.421099 
L 743.513241 234.702592 
L 739.576334 235.88098 
L 735.639427 236.039456 
L 731.70252 236.818447 
L 727.765613 235.965856 
L 723.828706 236.450218 
L 719.891798 235.574942 
L 715.954891 235.060904 
L 712.017984 235.833641 
L 708.081077 235.481741 
L 704.14417 235.313797 
L 700.207263 235.707911 
L 696.270356 236.011111 
L 692.333449 236.574008 
L 688.396542 236.04364 
L 684.459634 236.100055 
L 680.522727 235.801922 
L 676.58582 236.327209 
L 672.648913 236.11181 
L 668.712006 235.931807 
L 664.775099 236.819807 
L 660.838192 235.847596 
L 656.901285 236.668106 
L 652.964377 235.966913 
L 649.02747 236.013745 
L 645.090563 236.374302 
L 641.153656 235.786244 
L 637.216749 236.371349 
L 633.279842 236.220979 
L 629.342935 236.463044 
L 625.406028 236.702025 
L 621.469121 236.273949 
L 617.532213 235.83047 
L 613.595306 237.043588 
L 609.658399 236.125115 
L 605.721492 236.74893 
L 601.784585 236.534023 
L 597.847678 236.04765 
L 593.910771 235.535739 
L 589.973864 237.390783 
L 586.036957 235.60559 
L 582.100049 236.089705 
L 578.163142 236.79553 
L 574.226235 235.675497 
L 570.289328 235.987904 
L 566.352421 236.650836 
L 562.415514 236.823789 
L 558.478607 235.780975 
L 554.5417 235.937873 
L 550.604792 236.595998 
L 546.667885 236.168356 
L 542.730978 236.393614 
L 538.794071 235.877259 
L 534.857164 236.281086 
L 530.920257 236.170933 
L 526.98335 237.06222 
L 523.046443 236.103602 
L 519.109536 236.480821 
L 515.172628 236.247486 
L 511.235721 236.161813 
L 507.298814 236.908694 
L 503.361907 236.071348 
L 499.425 236.97093 
L 495.488093 235.456928 
L 491.551186 234.188683 
L 487.614279 234.294378 
L 483.677372 234.767273 
L 479.740464 234.191825 
L 475.803557 234.431197 
L 471.86665 234.561531 
L 467.929743 234.582768 
L 463.992836 234.681021 
L 460.055929 234.730575 
L 456.119022 234.127737 
L 452.182115 234.438551 
L 448.245208 235.086311 
L 444.3083 234.589688 
L 440.371393 234.48547 
L 436.434486 234.535907 
L 432.497579 236.487596 
L 428.560672 236.050965 
L 424.623765 236.564381 
L 420.686858 235.753368 
L 416.749951 236.46536 
L 412.813043 235.644619 
L 408.876136 236.399622 
L 404.939229 236.092788 
L 401.002322 235.799317 
L 397.065415 236.488711 
L 393.128508 235.682258 
L 389.191601 235.581978 
L 385.254694 235.418956 
L 381.317787 234.845549 
L 377.380879 236.342468 
L 373.443972 235.760056 
L 369.507065 236.057711 
L 365.570158 235.789053 
L 361.633251 234.628384 
L 357.696344 234.981051 
L 353.759437 235.223275 
L 349.82253 235.988179 
L 345.885623 235.215486 
L 341.948715 235.595123 
L 338.011808 235.881877 
L 334.074901 236.06644 
L 330.137994 234.300559 
L 326.201087 230.200051 
L 322.26418 230.326751 
L 318.327273 230.161659 
L 314.390366 230.318644 
L 310.453458 230.619499 
L 306.516551 230.003921 
L 302.579644 230.464844 
L 298.642737 230.068183 
L 294.70583 230.498329 
L 290.768923 230.310595 
L 286.832016 230.304935 
L 282.895109 230.45306 
L 278.958202 230.219218 
L 275.021294 230.357268 
L 271.084387 230.14863 
L 267.14748 230.4474 
L 263.210573 229.976937 
L 259.273666 230.412352 
L 255.336759 230.209476 
L 251.399852 230.456057 
L 247.462945 230.321279 
L 243.526038 230.258769 
L 239.58913 230.234549 
L 235.652223 230.293933 
L 231.715316 230.247607 
L 227.778409 230.224749 
L 223.841502 230.301432 
L 219.904595 230.210199 
L 215.967688 230.177728 
L 212.030781 230.420937 
L 208.093874 230.287563 
L 204.156966 230.33648 
L 200.220059 230.168289 
L 196.283152 230.134848 
L 192.346245 230.143505 
L 188.409338 230.534362 
L 184.472431 230.256742 
L 180.535524 230.344963 
L 176.598617 230.17809 
L 172.661709 230.30563 
L 168.724802 230.258334 
L 164.787895 230.165524 
L 160.850988 230.398121 
L 156.914081 230.228035 
L 152.977174 230.381169 
L 149.040267 230.179089 
L 145.10336 230.232001 
L 141.166453 230.2373 
L 137.229545 230.284986 
z
" clip-path="url(#pd5a505ff65)" style="fill: #1f77b4"/>
   </g>
   <g id="PolyCollection_2">
    <path d="M 137.229545 128.815027 
L 137.229545 230.284986 
L 141.166453 230.2373 
L 145.10336 230.232001 
L 149.040267 230.179089 
L 152.977174 230.381169 
L 156.914081 230.228035 
L 160.850988 230.398121 
L 164.787895 230.165524 
L 168.724802 230.258334 
L 172.661709 230.30563 
L 176.598617 230.17809 
L 180.535524 230.344963 
L 184.472431 230.256742 
L 188.409338 230.534362 
L 192.346245 230.143505 
L 196.283152 230.134848 
L 200.220059 230.168289 
L 204.156966 230.33648 
L 208.093874 230.287563 
L 212.030781 230.420937 
L 215.967688 230.177728 
L 219.904595 230.210199 
L 223.841502 230.301432 
L 227.778409 230.224749 
L 231.715316 230.247607 
L 235.652223 230.293933 
L 239.58913 230.234549 
L 243.526038 230.258769 
L 247.462945 230.321279 
L 251.399852 230.456057 
L 255.336759 230.209476 
L 259.273666 230.412352 
L 263.210573 229.976937 
L 267.14748 230.4474 
L 271.084387 230.14863 
L 275.021294 230.357268 
L 278.958202 230.219218 
L 282.895109 230.45306 
L 286.832016 230.304935 
L 290.768923 230.310595 
L 294.70583 230.498329 
L 298.642737 230.068183 
L 302.579644 230.464844 
L 306.516551 230.003921 
L 310.453458 230.619499 
L 314.390366 230.318644 
L 318.327273 230.161659 
L 322.26418 230.326751 
L 326.201087 230.200051 
L 330.137994 234.300559 
L 334.074901 236.06644 
L 338.011808 235.881877 
L 341.948715 235.595123 
L 345.885623 235.215486 
L 349.82253 235.988179 
L 353.759437 235.223275 
L 357.696344 234.981051 
L 361.633251 234.628384 
L 365.570158 235.789053 
L 369.507065 236.057711 
L 373.443972 235.760056 
L 377.380879 236.342468 
L 381.317787 234.845549 
L 385.254694 235.418956 
L 389.191601 235.581978 
L 393.128508 235.682258 
L 397.065415 236.488711 
L 401.002322 235.799317 
L 404.939229 236.092788 
L 408.876136 236.399622 
L 412.813043 235.644619 
L 416.749951 236.46536 
L 420.686858 235.753368 
L 424.623765 236.564381 
L 428.560672 236.050965 
L 432.497579 236.487596 
L 436.434486 234.535907 
L 440.371393 234.48547 
L 444.3083 234.589688 
L 448.245208 235.086311 
L 452.182115 234.438551 
L 456.119022 234.127737 
L 460.055929 234.730575 
L 463.992836 234.681021 
L 467.929743 234.582768 
L 471.86665 234.561531 
L 475.803557 234.431197 
L 479.740464 234.191825 
L 483.677372 234.767273 
L 487.614279 234.294378 
L 491.551186 234.188683 
L 495.488093 235.456928 
L 499.425 236.97093 
L 503.361907 236.071348 
L 507.298814 236.908694 
L 511.235721 236.161813 
L 515.172628 236.247486 
L 519.109536 236.480821 
L 523.046443 236.103602 
L 526.98335 237.06222 
L 530.920257 236.170933 
L 534.857164 236.281086 
L 538.794071 235.877259 
L 542.730978 236.393614 
L 546.667885 236.168356 
L 550.604792 236.595998 
L 554.5417 235.937873 
L 558.478607 235.780975 
L 562.415514 236.823789 
L 566.352421 236.650836 
L 570.289328 235.987904 
L 574.226235 235.675497 
L 578.163142 236.79553 
L 582.100049 236.089705 
L 586.036957 235.60559 
L 589.973864 237.390783 
L 593.910771 235.535739 
L 597.847678 236.04765 
L 601.784585 236.534023 
L 605.721492 236.74893 
L 609.658399 236.125115 
L 613.595306 237.043588 
L 617.532213 235.83047 
L 621.469121 236.273949 
L 625.406028 236.702025 
L 629.342935 236.463044 
L 633.279842 236.220979 
L 637.216749 236.371349 
L 641.153656 235.786244 
L 645.090563 236.374302 
L 649.02747 236.013745 
L 652.964377 235.966913 
L 656.901285 236.668106 
L 660.838192 235.847596 
L 664.775099 236.819807 
L 668.712006 235.931807 
L 672.648913 236.11181 
L 676.58582 236.327209 
L 680.522727 235.801922 
L 684.459634 236.100055 
L 688.396542 236.04364 
L 692.333449 236.574008 
L 696.270356 236.011111 
L 700.207263 235.707911 
L 704.14417 235.313797 
L 708.081077 235.481741 
L 712.017984 235.833641 
L 715.954891 235.060904 
L 719.891798 235.574942 
L 723.828706 236.450218 
L 727.765613 235.965856 
L 731.70252 236.818447 
L 735.639427 236.039456 
L 739.576334 235.88098 
L 743.513241 234.702592 
L 747.450148 235.421099 
L 751.387055 236.011777 
L 755.323962 235.548175 
L 759.26087 236.555043 
L 763.197777 235.589043 
L 767.134684 234.934667 
L 771.071591 234.26955 
L 775.008498 234.252685 
L 778.945405 234.030004 
L 782.882312 234.265193 
L 786.819219 234.136987 
L 790.756126 234.357858 
L 794.693034 233.730873 
L 798.629941 234.330946 
L 802.566848 234.202784 
L 806.503755 234.265468 
L 810.440662 234.227959 
L 814.377569 234.572243 
L 818.314476 234.700492 
L 822.251383 234.552439 
L 826.188291 234.452536 
L 830.125198 234.623013 
L 834.062105 234.459904 
L 837.999012 234.93306 
L 841.935919 235.006935 
L 845.872826 234.398697 
L 849.809733 237.526038 
L 853.74664 235.388367 
L 857.683547 235.584164 
L 861.620455 235.194669 
L 861.620455 138.96546 
L 861.620455 138.96546 
L 857.683547 139.166628 
L 853.74664 139.205744 
L 849.809733 143.257958 
L 845.872826 137.273323 
L 841.935919 138.182112 
L 837.999012 138.724524 
L 834.062105 137.077048 
L 830.125198 137.444466 
L 826.188291 137.528026 
L 822.251383 137.59569 
L 818.314476 137.586584 
L 814.377569 137.471002 
L 810.440662 136.910407 
L 806.503755 136.728782 
L 802.566848 137.128267 
L 798.629941 136.634119 
L 794.693034 136.317688 
L 790.756126 136.633584 
L 786.819219 136.828946 
L 782.882312 136.521838 
L 778.945405 136.781333 
L 775.008498 136.502208 
L 771.071591 137.203574 
L 767.134684 137.965946 
L 763.197777 139.548132 
L 759.26087 141.519452 
L 755.323962 139.407144 
L 751.387055 139.888508 
L 747.450148 139.583672 
L 743.513241 137.808961 
L 739.576334 140.178447 
L 735.639427 140.200872 
L 731.70252 142.352122 
L 727.765613 140.213698 
L 723.828706 141.056618 
L 719.891798 139.558613 
L 715.954891 138.627574 
L 712.017984 140.227654 
L 708.081077 139.338626 
L 704.14417 138.727478 
L 700.207263 140.007202 
L 696.270356 140.489957 
L 692.333449 141.18934 
L 688.396542 140.243578 
L 684.459634 140.501943 
L 680.522727 140.309403 
L 676.58582 140.803667 
L 672.648913 140.459237 
L 668.712006 140.442372 
L 664.775099 141.893443 
L 660.838192 140.34034 
L 656.901285 141.198012 
L 652.964377 140.845924 
L 649.02747 140.191954 
L 645.090563 140.789436 
L 641.153656 140.439578 
L 637.216749 140.938169 
L 633.279842 140.806851 
L 629.342935 141.52572 
L 625.406028 140.972971 
L 621.469121 141.207696 
L 617.532213 140.260863 
L 613.595306 142.498395 
L 609.658399 140.595998 
L 605.721492 141.662351 
L 601.784585 141.552372 
L 597.847678 140.596606 
L 593.910771 139.780555 
L 589.973864 142.257199 
L 586.036957 140.328643 
L 582.100049 140.18279 
L 578.163142 141.792815 
L 574.226235 139.730263 
L 570.289328 140.326544 
L 566.352421 141.83212 
L 562.415514 141.813517 
L 558.478607 140.127779 
L 554.5417 140.04131 
L 550.604792 141.53403 
L 546.667885 140.730834 
L 542.730978 141.417956 
L 538.794071 139.975122 
L 534.857164 141.195449 
L 530.920257 140.626718 
L 526.98335 141.776341 
L 523.046443 140.475813 
L 519.109536 141.464614 
L 515.172628 140.955151 
L 511.235721 141.23804 
L 507.298814 141.720113 
L 503.361907 140.292553 
L 499.425 142.194978 
L 495.488093 140.021737 
L 491.551186 136.496793 
L 487.614279 136.847491 
L 483.677372 138.140781 
L 479.740464 137.090236 
L 475.803557 136.561055 
L 471.86665 137.806384 
L 467.929743 137.767022 
L 463.992836 137.230009 
L 460.055929 137.330882 
L 456.119022 137.079046 
L 452.182115 137.654494 
L 448.245208 138.627502 
L 444.3083 137.270457 
L 440.371393 136.862431 
L 436.434486 137.707479 
L 432.497579 141.049046 
L 428.560672 140.543376 
L 424.623765 141.336915 
L 420.686858 139.983403 
L 416.749951 141.501125 
L 412.813043 139.75263 
L 408.876136 140.766375 
L 404.939229 140.37258 
L 401.002322 140.233401 
L 397.065415 141.152931 
L 393.128508 139.942303 
L 389.191601 139.497681 
L 385.254694 139.467439 
L 381.317787 138.220982 
L 377.380879 140.548269 
L 373.443972 139.741382 
L 369.507065 140.538063 
L 365.570158 139.816183 
L 361.633251 138.263065 
L 357.696344 137.772392 
L 353.759437 139.418768 
L 349.82253 139.751023 
L 345.885623 139.20476 
L 341.948715 139.196117 
L 338.011808 139.782235 
L 334.074901 140.553394 
L 330.137994 138.372914 
L 326.201087 128.92547 
L 322.26418 128.989992 
L 318.327273 128.945332 
L 314.390366 128.902988 
L 310.453458 129.410106 
L 306.516551 128.559832 
L 302.579644 129.115549 
L 298.642737 128.593635 
L 294.70583 129.107543 
L 290.768923 129.273171 
L 286.832016 129.007625 
L 282.895109 129.029137 
L 278.958202 128.706828 
L 275.021294 129.105169 
L 271.084387 128.867751 
L 267.14748 129.15439 
L 263.210573 128.58796 
L 259.273666 129.187411 
L 255.336759 128.785958 
L 251.399852 128.982986 
L 247.462945 129.126334 
L 243.526038 128.894171 
L 239.58913 128.707465 
L 235.652223 128.996449 
L 231.715316 128.786277 
L 227.778409 129.003601 
L 223.841502 128.878551 
L 219.904595 128.760957 
L 215.967688 128.806515 
L 212.030781 128.986084 
L 208.093874 128.893332 
L 204.156966 128.992613 
L 200.220059 128.662139 
L 196.283152 129.042427 
L 192.346245 128.739068 
L 188.409338 129.091981 
L 184.472431 128.892593 
L 180.535524 128.868157 
L 176.598617 128.760667 
L 172.661709 128.728196 
L 168.724802 129.02782 
L 164.787895 128.913729 
L 160.850988 128.779603 
L 156.914081 128.997868 
L 152.977174 129.069513 
L 149.040267 128.74884 
L 145.10336 128.939223 
L 141.166453 128.692337 
L 137.229545 128.815027 
z
" clip-path="url(#pd5a505ff65)" style="fill: #ff7f0e"/>
   </g>
   <g id="PolyCollection_3">
    <path d="M 137.229545 78.036632 
L 137.229545 128.815027 
L 141.166453 128.692337 
L 145.10336 128.939223 
L 149.040267 128.74884 
L 152.977174 129.069513 
L 156.914081 128.997868 
L 160.850988 128.779603 
L 164.787895 128.913729 
L 168.724802 129.02782 
L 172.661709 128.728196 
L 176.598617 128.760667 
L 180.535524 128.868157 
L 184.472431 128.892593 
L 188.409338 129.091981 
L 192.346245 128.739068 
L 196.283152 129.042427 
L 200.220059 128.662139 
L 204.156966 128.992613 
L 208.093874 128.893332 
L 212.030781 128.986084 
L 215.967688 128.806515 
L 219.904595 128.760957 
L 223.841502 128.878551 
L 227.778409 129.003601 
L 231.715316 128.786277 
L 235.652223 128.996449 
L 239.58913 128.707465 
L 243.526038 128.894171 
L 247.462945 129.126334 
L 251.399852 128.982986 
L 255.336759 128.785958 
L 259.273666 129.187411 
L 263.210573 128.58796 
L 267.14748 129.15439 
L 271.084387 128.867751 
L 275.021294 129.105169 
L 278.958202 128.706828 
L 282.895109 129.029137 
L 286.832016 129.007625 
L 290.768923 129.273171 
L 294.70583 129.107543 
L 298.642737 128.593635 
L 302.579644 129.115549 
L 306.516551 128.559832 
L 310.453458 129.410106 
L 314.390366 128.902988 
L 318.327273 128.945332 
L 322.26418 128.989992 
L 326.201087 128.92547 
L 330.137994 138.372914 
L 334.074901 140.553394 
L 338.011808 139.782235 
L 341.948715 139.196117 
L 345.885623 139.20476 
L 349.82253 139.751023 
L 353.759437 139.418768 
L 357.696344 137.772392 
L 361.633251 138.263065 
L 365.570158 139.816183 
L 369.507065 140.538063 
L 373.443972 139.741382 
L 377.380879 140.548269 
L 381.317787 138.220982 
L 385.254694 139.467439 
L 389.191601 139.497681 
L 393.128508 139.942303 
L 397.065415 141.152931 
L 401.002322 140.233401 
L 404.939229 140.37258 
L 408.876136 140.766375 
L 412.813043 139.75263 
L 416.749951 141.501125 
L 420.686858 139.983403 
L 424.623765 141.336915 
L 428.560672 140.543376 
L 432.497579 141.049046 
L 436.434486 137.707479 
L 440.371393 136.862431 
L 444.3083 137.270457 
L 448.245208 138.627502 
L 452.182115 137.654494 
L 456.119022 137.079046 
L 460.055929 137.330882 
L 463.992836 137.230009 
L 467.929743 137.767022 
L 471.86665 137.806384 
L 475.803557 136.561055 
L 479.740464 137.090236 
L 483.677372 138.140781 
L 487.614279 136.847491 
L 491.551186 136.496793 
L 495.488093 140.021737 
L 499.425 142.194978 
L 503.361907 140.292553 
L 507.298814 141.720113 
L 511.235721 141.23804 
L 515.172628 140.955151 
L 519.109536 141.464614 
L 523.046443 140.475813 
L 526.98335 141.776341 
L 530.920257 140.626718 
L 534.857164 141.195449 
L 538.794071 139.975122 
L 542.730978 141.417956 
L 546.667885 140.730834 
L 550.604792 141.53403 
L 554.5417 140.04131 
L 558.478607 140.127779 
L 562.415514 141.813517 
L 566.352421 141.83212 
L 570.289328 140.326544 
L 574.226235 139.730263 
L 578.163142 141.792815 
L 582.100049 140.18279 
L 586.036957 140.328643 
L 589.973864 142.257199 
L 593.910771 139.780555 
L 597.847678 140.596606 
L 601.784585 141.552372 
L 605.721492 141.662351 
L 609.658399 140.595998 
L 613.595306 142.498395 
L 617.532213 140.260863 
L 621.469121 141.207696 
L 625.406028 140.972971 
L 629.342935 141.52572 
L 633.279842 140.806851 
L 637.216749 140.938169 
L 641.153656 140.439578 
L 645.090563 140.789436 
L 649.02747 140.191954 
L 652.964377 140.845924 
L 656.901285 141.198012 
L 660.838192 140.34034 
L 664.775099 141.893443 
L 668.712006 140.442372 
L 672.648913 140.459237 
L 676.58582 140.803667 
L 680.522727 140.309403 
L 684.459634 140.501943 
L 688.396542 140.243578 
L 692.333449 141.18934 
L 696.270356 140.489957 
L 700.207263 140.007202 
L 704.14417 138.727478 
L 708.081077 139.338626 
L 712.017984 140.227654 
L 715.954891 138.627574 
L 719.891798 139.558613 
L 723.828706 141.056618 
L 727.765613 140.213698 
L 731.70252 142.352122 
L 735.639427 140.200872 
L 739.576334 140.178447 
L 743.513241 137.808961 
L 747.450148 139.583672 
L 751.387055 139.888508 
L 755.323962 139.407144 
L 759.26087 141.519452 
L 763.197777 139.548132 
L 767.134684 137.965946 
L 771.071591 137.203574 
L 775.008498 136.502208 
L 778.945405 136.781333 
L 782.882312 136.521838 
L 786.819219 136.828946 
L 790.756126 136.633584 
L 794.693034 136.317688 
L 798.629941 136.634119 
L 802.566848 137.128267 
L 806.503755 136.728782 
L 810.440662 136.910407 
L 814.377569 137.471002 
L 818.314476 137.586584 
L 822.251383 137.59569 
L 826.188291 137.528026 
L 830.125198 137.444466 
L 834.062105 137.077048 
L 837.999012 138.724524 
L 841.935919 138.182112 
L 845.872826 137.273323 
L 849.809733 143.257958 
L 853.74664 139.205744 
L 857.683547 139.166628 
L 861.620455 138.96546 
L 861.620455 42.376274 
L 861.620455 42.376274 
L 857.683547 43.418841 
L 853.74664 45.882311 
L 849.809733 47.901664 
L 845.872826 40.17987 
L 841.935919 41.966511 
L 837.999012 41.71369 
L 834.062105 40.190844 
L 830.125198 40.156259 
L 826.188291 40.519812 
L 822.251383 40.780146 
L 818.314476 40.272868 
L 814.377569 40.423846 
L 810.440662 39.359578 
L 806.503755 39.757687 
L 802.566848 39.54472 
L 798.629941 39.08743 
L 794.693034 38.717753 
L 790.756126 39.386577 
L 786.819219 39.352484 
L 782.882312 39.217127 
L 778.945405 39.123738 
L 775.008498 39.495181 
L 771.071591 40.070209 
L 767.134684 41.627597 
L 763.197777 44.413824 
L 759.26087 45.801459 
L 755.323962 43.369302 
L 751.387055 44.401693 
L 747.450148 42.877587 
L 743.513241 41.67055 
L 739.576334 44.969744 
L 735.639427 46.437941 
L 731.70252 46.754604 
L 727.765613 44.741606 
L 723.828706 45.289056 
L 719.891798 43.248813 
L 715.954891 42.951606 
L 712.017984 44.45585 
L 708.081077 42.858536 
L 704.14417 42.8818 
L 700.207263 44.83071 
L 696.270356 46.8832 
L 692.333449 47.784852 
L 688.396542 46.3363 
L 684.459634 46.263251 
L 680.522727 44.678111 
L 676.58582 46.375488 
L 672.648913 45.271351 
L 668.712006 46.323691 
L 664.775099 46.509933 
L 660.838192 44.942585 
L 656.901285 45.954347 
L 652.964377 46.417891 
L 649.02747 45.701584 
L 645.090563 47.08321 
L 641.153656 46.227537 
L 637.216749 48.621315 
L 633.279842 46.426301 
L 629.342935 46.843737 
L 625.406028 45.965016 
L 621.469121 46.888586 
L 617.532213 46.76219 
L 613.595306 46.889613 
L 609.658399 45.452237 
L 605.721492 47.010711 
L 601.784585 45.955954 
L 597.847678 45.186286 
L 593.910771 44.319885 
L 589.973864 47.853167 
L 586.036957 44.967239 
L 582.100049 44.824832 
L 578.163142 51.091502 
L 574.226235 52.676077 
L 570.289328 48.51316 
L 566.352421 51.172224 
L 562.415514 46.913732 
L 558.478607 44.2506 
L 554.5417 45.71939 
L 550.604792 46.409509 
L 546.667885 46.70644 
L 542.730978 46.446858 
L 538.794071 45.480554 
L 534.857164 45.639682 
L 530.920257 45.905778 
L 526.98335 46.78224 
L 523.046443 45.801126 
L 519.109536 46.170643 
L 515.172628 45.968158 
L 511.235721 46.178374 
L 507.298814 46.200769 
L 503.361907 45.611843 
L 499.425 47.076204 
L 495.488093 42.70779 
L 491.551186 39.477157 
L 487.614279 40.092721 
L 483.677372 40.295365 
L 479.740464 40.031701 
L 475.803557 39.778909 
L 471.86665 40.766089 
L 467.929743 40.437005 
L 463.992836 39.982278 
L 460.055929 40.591341 
L 456.119022 40.332918 
L 452.182115 41.097128 
L 448.245208 40.684209 
L 444.3083 40.627663 
L 440.371393 39.73422 
L 436.434486 42.687479 
L 432.497579 45.999746 
L 428.560672 45.197549 
L 424.623765 45.655678 
L 420.686858 45.012407 
L 416.749951 45.444087 
L 412.813043 44.22043 
L 408.876136 45.028403 
L 404.939229 45.207958 
L 401.002322 44.882276 
L 397.065415 45.722083 
L 393.128508 44.015107 
L 389.191601 43.277563 
L 385.254694 43.158869 
L 381.317787 42.293076 
L 377.380879 44.556709 
L 373.443972 44.525975 
L 369.507065 44.509428 
L 365.570158 44.042063 
L 361.633251 41.209004 
L 357.696344 41.81135 
L 353.759437 43.442366 
L 349.82253 43.288074 
L 345.885623 43.258802 
L 341.948715 43.059718 
L 338.011808 44.289412 
L 334.074901 56.994285 
L 330.137994 87.617624 
L 326.201087 78.18913 
L 322.26418 78.259298 
L 318.327273 78.26477 
L 314.390366 78.17044 
L 310.453458 78.767039 
L 306.516551 77.820336 
L 302.579644 78.450289 
L 298.642737 77.711529 
L 294.70583 78.57573 
L 290.768923 78.483093 
L 286.832016 78.173567 
L 282.895109 78.328149 
L 278.958202 78.075589 
L 275.021294 78.475971 
L 271.084387 78.063457 
L 267.14748 78.321577 
L 263.210573 77.947166 
L 259.273666 78.454053 
L 255.336759 78.05729 
L 251.399852 78.1945 
L 247.462945 78.460394 
L 243.526038 78.141965 
L 239.58913 77.896614 
L 235.652223 78.360432 
L 231.715316 77.968244 
L 227.778409 78.250323 
L 223.841502 78.218937 
L 219.904595 77.983126 
L 215.967688 78.078354 
L 212.030781 78.320665 
L 208.093874 78.028699 
L 204.156966 78.41514 
L 200.220059 77.837679 
L 196.283152 78.296387 
L 192.346245 77.993028 
L 188.409338 78.244213 
L 184.472431 78.232285 
L 180.535524 78.072766 
L 176.598617 78.105874 
L 172.661709 78.03268 
L 168.724802 78.199756 
L 164.787895 78.248354 
L 160.850988 78.083725 
L 156.914081 78.128328 
L 152.977174 78.393975 
L 149.040267 78.021765 
L 145.10336 78.231213 
L 141.166453 77.861377 
L 137.229545 78.036632 
z
" clip-path="url(#pd5a505ff65)" style="fill: #2ca02c"/>
   </g>
   <g id="matplotlib.axis_1">
    <g id="xtick_1">
     <g id="line2d_1">
      <path d="M 137.229545 331.64 
L 137.229545 23.76 
" clip-path="url(#pd5a505ff65)" style="fill: none; stroke-dasharray: 5.12,1.28,0.8,1.28; stroke-dashoffset: 0; stroke: #b0b0b0; stroke-width: 0.8"/>
     </g>
     <g id="line2d_2">
      <defs>
       <path id="mb3f7567f1f" d="M 0 0 
L 0 3.5 
" style="stroke: #000000; stroke-width: 0.8"/>
      </defs>
      <g>
       <use xlink:href="#mb3f7567f1f" x="137.229545" y="331.64" style="stroke: #000000; stroke-width: 0.8"/>
      </g>
     </g>
     <g id="text_1">
      <!-- 0 -->
      <g transform="translate(130.230795 355.356563)scale(0.22 -0.22)">
       <defs>
        <path id="DejaVuSans-30" d="M 2034 4250 
Q 1547 4250 1301 3770 
Q 1056 3291 1056 2328 
Q 1056 1369 1301 889 
Q 1547 409 2034 409 
Q 2525 409 2770 889 
Q 3016 1369 3016 2328 
Q 3016 3291 2770 3770 
Q 2525 4250 2034 4250 
z
M 2034 4750 
Q 2819 4750 3233 4129 
Q 3647 3509 3647 2328 
Q 3647 1150 3233 529 
Q 2819 -91 2034 -91 
Q 1250 -91 836 529 
Q 422 1150 422 2328 
Q 422 3509 836 4129 
Q 1250 4750 2034 4750 
z
" transform="scale(0.015625)"/>
       </defs>
       <use xlink:href="#DejaVuSans-30"/>
      </g>
     </g>
    </g>
    <g id="xtick_2">
     <g id="line2d_3">
      <path d="M 235.652223 331.64 
L 235.652223 23.76 
" clip-path="url(#pd5a505ff65)" style="fill: none; stroke-dasharray: 5.12,1.28,0.8,1.28; stroke-dashoffset: 0; stroke: #b0b0b0; stroke-width: 0.8"/>
     </g>
     <g id="line2d_4">
      <g>
       <use xlink:href="#mb3f7567f1f" x="235.652223" y="331.64" style="stroke: #000000; stroke-width: 0.8"/>
      </g>
     </g>
     <g id="text_2">
      <!-- 25 -->
      <g transform="translate(221.654723 355.356563)scale(0.22 -0.22)">
       <defs>
        <path id="DejaVuSans-32" d="M 1228 531 
L 3431 531 
L 3431 0 
L 469 0 
L 469 531 
Q 828 903 1448 1529 
Q 2069 2156 2228 2338 
Q 2531 2678 2651 2914 
Q 2772 3150 2772 3378 
Q 2772 3750 2511 3984 
Q 2250 4219 1831 4219 
Q 1534 4219 1204 4116 
Q 875 4013 500 3803 
L 500 4441 
Q 881 4594 1212 4672 
Q 1544 4750 1819 4750 
Q 2544 4750 2975 4387 
Q 3406 4025 3406 3419 
Q 3406 3131 3298 2873 
Q 3191 2616 2906 2266 
Q 2828 2175 2409 1742 
Q 1991 1309 1228 531 
z
" transform="scale(0.015625)"/>
        <path id="DejaVuSans-35" d="M 691 4666 
L 3169 4666 
L 3169 4134 
L 1269 4134 
L 1269 2991 
Q 1406 3038 1543 3061 
Q 1681 3084 1819 3084 
Q 2600 3084 3056 2656 
Q 3513 2228 3513 1497 
Q 3513 744 3044 326 
Q 2575 -91 1722 -91 
Q 1428 -91 1123 -41 
Q 819 9 494 109 
L 494 744 
Q 775 591 1075 516 
Q 1375 441 1709 441 
Q 2250 441 2565 725 
Q 2881 1009 2881 1497 
Q 2881 1984 2565 2268 
Q 2250 2553 1709 2553 
Q 1456 2553 1204 2497 
Q 953 2441 691 2322 
L 691 4666 
z
" transform="scale(0.015625)"/>
       </defs>
       <use xlink:href="#DejaVuSans-32"/>
       <use xlink:href="#DejaVuSans-35" x="63.623047"/>
      </g>
     </g>
    </g>
    <g id="xtick_3">
     <g id="line2d_5">
      <path d="M 334.074901 331.64 
L 334.074901 23.76 
" clip-path="url(#pd5a505ff65)" style="fill: none; stroke-dasharray: 5.12,1.28,0.8,1.28; stroke-dashoffset: 0; stroke: #b0b0b0; stroke-width: 0.8"/>
     </g>
     <g id="line2d_6">
      <g>
       <use xlink:href="#mb3f7567f1f" x="334.074901" y="331.64" style="stroke: #000000; stroke-width: 0.8"/>
      </g>
     </g>
     <g id="text_3">
      <!-- 50 -->
      <g transform="translate(320.077401 355.356563)scale(0.22 -0.22)">
       <use xlink:href="#DejaVuSans-35"/>
       <use xlink:href="#DejaVuSans-30" x="63.623047"/>
      </g>
     </g>
    </g>
    <g id="xtick_4">
     <g id="line2d_7">
      <path d="M 432.497579 331.64 
L 432.497579 23.76 
" clip-path="url(#pd5a505ff65)" style="fill: none; stroke-dasharray: 5.12,1.28,0.8,1.28; stroke-dashoffset: 0; stroke: #b0b0b0; stroke-width: 0.8"/>
     </g>
     <g id="line2d_8">
      <g>
       <use xlink:href="#mb3f7567f1f" x="432.497579" y="331.64" style="stroke: #000000; stroke-width: 0.8"/>
      </g>
     </g>
     <g id="text_4">
      <!-- 75 -->
      <g transform="translate(418.500079 355.356563)scale(0.22 -0.22)">
       <defs>
        <path id="DejaVuSans-37" d="M 525 4666 
L 3525 4666 
L 3525 4397 
L 1831 0 
L 1172 0 
L 2766 4134 
L 525 4134 
L 525 4666 
z
" transform="scale(0.015625)"/>
       </defs>
       <use xlink:href="#DejaVuSans-37"/>
       <use xlink:href="#DejaVuSans-35" x="63.623047"/>
      </g>
     </g>
    </g>
    <g id="xtick_5">
     <g id="line2d_9">
      <path d="M 530.920257 331.64 
L 530.920257 23.76 
" clip-path="url(#pd5a505ff65)" style="fill: none; stroke-dasharray: 5.12,1.28,0.8,1.28; stroke-dashoffset: 0; stroke: #b0b0b0; stroke-width: 0.8"/>
     </g>
     <g id="line2d_10">
      <g>
       <use xlink:href="#mb3f7567f1f" x="530.920257" y="331.64" style="stroke: #000000; stroke-width: 0.8"/>
      </g>
     </g>
     <g id="text_5">
      <!-- 100 -->
      <g transform="translate(509.924007 355.356563)scale(0.22 -0.22)">
       <defs>
        <path id="DejaVuSans-31" d="M 794 531 
L 1825 531 
L 1825 4091 
L 703 3866 
L 703 4441 
L 1819 4666 
L 2450 4666 
L 2450 531 
L 3481 531 
L 3481 0 
L 794 0 
L 794 531 
z
" transform="scale(0.015625)"/>
       </defs>
       <use xlink:href="#DejaVuSans-31"/>
       <use xlink:href="#DejaVuSans-30" x="63.623047"/>
       <use xlink:href="#DejaVuSans-30" x="127.246094"/>
      </g>
     </g>
    </g>
    <g id="xtick_6">
     <g id="line2d_11">
      <path d="M 629.342935 331.64 
L 629.342935 23.76 
" clip-path="url(#pd5a505ff65)" style="fill: none; stroke-dasharray: 5.12,1.28,0.8,1.28; stroke-dashoffset: 0; stroke: #b0b0b0; stroke-width: 0.8"/>
     </g>
     <g id="line2d_12">
      <g>
       <use xlink:href="#mb3f7567f1f" x="629.342935" y="331.64" style="stroke: #000000; stroke-width: 0.8"/>
      </g>
     </g>
     <g id="text_6">
      <!-- 125 -->
      <g transform="translate(608.346685 355.356563)scale(0.22 -0.22)">
       <use xlink:href="#DejaVuSans-31"/>
       <use xlink:href="#DejaVuSans-32" x="63.623047"/>
       <use xlink:href="#DejaVuSans-35" x="127.246094"/>
      </g>
     </g>
    </g>
    <g id="xtick_7">
     <g id="line2d_13">
      <path d="M 727.765613 331.64 
L 727.765613 23.76 
" clip-path="url(#pd5a505ff65)" style="fill: none; stroke-dasharray: 5.12,1.28,0.8,1.28; stroke-dashoffset: 0; stroke: #b0b0b0; stroke-width: 0.8"/>
     </g>
     <g id="line2d_14">
      <g>
       <use xlink:href="#mb3f7567f1f" x="727.765613" y="331.64" style="stroke: #000000; stroke-width: 0.8"/>
      </g>
     </g>
     <g id="text_7">
      <!-- 150 -->
      <g transform="translate(706.769363 355.356563)scale(0.22 -0.22)">
       <use xlink:href="#DejaVuSans-31"/>
       <use xlink:href="#DejaVuSans-35" x="63.623047"/>
       <use xlink:href="#DejaVuSans-30" x="127.246094"/>
      </g>
     </g>
    </g>
    <g id="xtick_8">
     <g id="line2d_15">
      <path d="M 826.188291 331.64 
L 826.188291 23.76 
" clip-path="url(#pd5a505ff65)" style="fill: none; stroke-dasharray: 5.12,1.28,0.8,1.28; stroke-dashoffset: 0; stroke: #b0b0b0; stroke-width: 0.8"/>
     </g>
     <g id="line2d_16">
      <g>
       <use xlink:href="#mb3f7567f1f" x="826.188291" y="331.64" style="stroke: #000000; stroke-width: 0.8"/>
      </g>
     </g>
     <g id="text_8">
      <!-- 175 -->
      <g transform="translate(805.192041 355.356563)scale(0.22 -0.22)">
       <use xlink:href="#DejaVuSans-31"/>
       <use xlink:href="#DejaVuSans-37" x="63.623047"/>
       <use xlink:href="#DejaVuSans-35" x="127.246094"/>
      </g>
     </g>
    </g>
    <g id="text_9">
     <!-- Time (s) -->
     <g transform="translate(450.635625 382.168125)scale(0.24 -0.24)">
      <defs>
       <path id="DejaVuSans-54" d="M -19 4666 
L 3928 4666 
L 3928 4134 
L 2272 4134 
L 2272 0 
L 1638 0 
L 1638 4134 
L -19 4134 
L -19 4666 
z
" transform="scale(0.015625)"/>
       <path id="DejaVuSans-69" d="M 603 3500 
L 1178 3500 
L 1178 0 
L 603 0 
L 603 3500 
z
M 603 4863 
L 1178 4863 
L 1178 4134 
L 603 4134 
L 603 4863 
z
" transform="scale(0.015625)"/>
       <path id="DejaVuSans-6d" d="M 3328 2828 
Q 3544 3216 3844 3400 
Q 4144 3584 4550 3584 
Q 5097 3584 5394 3201 
Q 5691 2819 5691 2113 
L 5691 0 
L 5113 0 
L 5113 2094 
Q 5113 2597 4934 2840 
Q 4756 3084 4391 3084 
Q 3944 3084 3684 2787 
Q 3425 2491 3425 1978 
L 3425 0 
L 2847 0 
L 2847 2094 
Q 2847 2600 2669 2842 
Q 2491 3084 2119 3084 
Q 1678 3084 1418 2786 
Q 1159 2488 1159 1978 
L 1159 0 
L 581 0 
L 581 3500 
L 1159 3500 
L 1159 2956 
Q 1356 3278 1631 3431 
Q 1906 3584 2284 3584 
Q 2666 3584 2933 3390 
Q 3200 3197 3328 2828 
z
" transform="scale(0.015625)"/>
       <path id="DejaVuSans-65" d="M 3597 1894 
L 3597 1613 
L 953 1613 
Q 991 1019 1311 708 
Q 1631 397 2203 397 
Q 2534 397 2845 478 
Q 3156 559 3463 722 
L 3463 178 
Q 3153 47 2828 -22 
Q 2503 -91 2169 -91 
Q 1331 -91 842 396 
Q 353 884 353 1716 
Q 353 2575 817 3079 
Q 1281 3584 2069 3584 
Q 2775 3584 3186 3129 
Q 3597 2675 3597 1894 
z
M 3022 2063 
Q 3016 2534 2758 2815 
Q 2500 3097 2075 3097 
Q 1594 3097 1305 2825 
Q 1016 2553 972 2059 
L 3022 2063 
z
" transform="scale(0.015625)"/>
       <path id="DejaVuSans-20" transform="scale(0.015625)"/>
       <path id="DejaVuSans-28" d="M 1984 4856 
Q 1566 4138 1362 3434 
Q 1159 2731 1159 2009 
Q 1159 1288 1364 580 
Q 1569 -128 1984 -844 
L 1484 -844 
Q 1016 -109 783 600 
Q 550 1309 550 2009 
Q 550 2706 781 3412 
Q 1013 4119 1484 4856 
L 1984 4856 
z
" transform="scale(0.015625)"/>
       <path id="DejaVuSans-73" d="M 2834 3397 
L 2834 2853 
Q 2591 2978 2328 3040 
Q 2066 3103 1784 3103 
Q 1356 3103 1142 2972 
Q 928 2841 928 2578 
Q 928 2378 1081 2264 
Q 1234 2150 1697 2047 
L 1894 2003 
Q 2506 1872 2764 1633 
Q 3022 1394 3022 966 
Q 3022 478 2636 193 
Q 2250 -91 1575 -91 
Q 1294 -91 989 -36 
Q 684 19 347 128 
L 347 722 
Q 666 556 975 473 
Q 1284 391 1588 391 
Q 1994 391 2212 530 
Q 2431 669 2431 922 
Q 2431 1156 2273 1281 
Q 2116 1406 1581 1522 
L 1381 1569 
Q 847 1681 609 1914 
Q 372 2147 372 2553 
Q 372 3047 722 3315 
Q 1072 3584 1716 3584 
Q 2034 3584 2315 3537 
Q 2597 3491 2834 3397 
z
" transform="scale(0.015625)"/>
       <path id="DejaVuSans-29" d="M 513 4856 
L 1013 4856 
Q 1481 4119 1714 3412 
Q 1947 2706 1947 2009 
Q 1947 1309 1714 600 
Q 1481 -109 1013 -844 
L 513 -844 
Q 928 -128 1133 580 
Q 1338 1288 1338 2009 
Q 1338 2731 1133 3434 
Q 928 4138 513 4856 
z
" transform="scale(0.015625)"/>
      </defs>
      <use xlink:href="#DejaVuSans-54"/>
      <use xlink:href="#DejaVuSans-69" x="57.958984"/>
      <use xlink:href="#DejaVuSans-6d" x="85.742188"/>
      <use xlink:href="#DejaVuSans-65" x="183.154297"/>
      <use xlink:href="#DejaVuSans-20" x="244.677734"/>
      <use xlink:href="#DejaVuSans-28" x="276.464844"/>
      <use xlink:href="#DejaVuSans-73" x="315.478516"/>
      <use xlink:href="#DejaVuSans-29" x="367.578125"/>
     </g>
    </g>
   </g>
   <g id="matplotlib.axis_2">
    <g id="ytick_1">
     <g id="line2d_17">
      <path d="M 101.01 331.64 
L 897.84 331.64 
" clip-path="url(#pd5a505ff65)" style="fill: none; stroke-dasharray: 5.12,1.28,0.8,1.28; stroke-dashoffset: 0; stroke: #b0b0b0; stroke-width: 0.8"/>
     </g>
     <g id="line2d_18">
      <defs>
       <path id="m1659f74a18" d="M 0 0 
L -3.5 0 
" style="stroke: #000000; stroke-width: 0.8"/>
      </defs>
      <g>
       <use xlink:href="#m1659f74a18" x="101.01" y="331.64" style="stroke: #000000; stroke-width: 0.8"/>
      </g>
     </g>
     <g id="text_10">
      <!-- 0 -->
      <g transform="translate(80.0125 339.998281)scale(0.22 -0.22)">
       <use xlink:href="#DejaVuSans-30"/>
      </g>
     </g>
    </g>
    <g id="ytick_2">
     <g id="line2d_19">
      <path d="M 101.01 241.160686 
L 897.84 241.160686 
" clip-path="url(#pd5a505ff65)" style="fill: none; stroke-dasharray: 5.12,1.28,0.8,1.28; stroke-dashoffset: 0; stroke: #b0b0b0; stroke-width: 0.8"/>
     </g>
     <g id="line2d_20">
      <g>
       <use xlink:href="#m1659f74a18" x="101.01" y="241.160686" style="stroke: #000000; stroke-width: 0.8"/>
      </g>
     </g>
     <g id="text_11">
      <!-- 50 -->
      <g transform="translate(66.015 249.518968)scale(0.22 -0.22)">
       <use xlink:href="#DejaVuSans-35"/>
       <use xlink:href="#DejaVuSans-30" x="63.623047"/>
      </g>
     </g>
    </g>
    <g id="ytick_3">
     <g id="line2d_21">
      <path d="M 101.01 150.681373 
L 897.84 150.681373 
" clip-path="url(#pd5a505ff65)" style="fill: none; stroke-dasharray: 5.12,1.28,0.8,1.28; stroke-dashoffset: 0; stroke: #b0b0b0; stroke-width: 0.8"/>
     </g>
     <g id="line2d_22">
      <g>
       <use xlink:href="#m1659f74a18" x="101.01" y="150.681373" style="stroke: #000000; stroke-width: 0.8"/>
      </g>
     </g>
     <g id="text_12">
      <!-- 100 -->
      <g transform="translate(52.0175 159.039654)scale(0.22 -0.22)">
       <use xlink:href="#DejaVuSans-31"/>
       <use xlink:href="#DejaVuSans-30" x="63.623047"/>
       <use xlink:href="#DejaVuSans-30" x="127.246094"/>
      </g>
     </g>
    </g>
    <g id="ytick_4">
     <g id="line2d_23">
      <path d="M 101.01 60.202059 
L 897.84 60.202059 
" clip-path="url(#pd5a505ff65)" style="fill: none; stroke-dasharray: 5.12,1.28,0.8,1.28; stroke-dashoffset: 0; stroke: #b0b0b0; stroke-width: 0.8"/>
     </g>
     <g id="line2d_24">
      <g>
       <use xlink:href="#m1659f74a18" x="101.01" y="60.202059" style="stroke: #000000; stroke-width: 0.8"/>
      </g>
     </g>
     <g id="text_13">
      <!-- 150 -->
      <g transform="translate(52.0175 68.560341)scale(0.22 -0.22)">
       <use xlink:href="#DejaVuSans-31"/>
       <use xlink:href="#DejaVuSans-35" x="63.623047"/>
       <use xlink:href="#DejaVuSans-30" x="127.246094"/>
      </g>
     </g>
    </g>
    <g id="text_14">
     <!-- Throughput (Mbps) -->
     <g transform="translate(43.02625 292.414375)rotate(-90)scale(0.24 -0.24)">
      <defs>
       <path id="DejaVuSans-68" d="M 3513 2113 
L 3513 0 
L 2938 0 
L 2938 2094 
Q 2938 2591 2744 2837 
Q 2550 3084 2163 3084 
Q 1697 3084 1428 2787 
Q 1159 2491 1159 1978 
L 1159 0 
L 581 0 
L 581 4863 
L 1159 4863 
L 1159 2956 
Q 1366 3272 1645 3428 
Q 1925 3584 2291 3584 
Q 2894 3584 3203 3211 
Q 3513 2838 3513 2113 
z
" transform="scale(0.015625)"/>
       <path id="DejaVuSans-72" d="M 2631 2963 
Q 2534 3019 2420 3045 
Q 2306 3072 2169 3072 
Q 1681 3072 1420 2755 
Q 1159 2438 1159 1844 
L 1159 0 
L 581 0 
L 581 3500 
L 1159 3500 
L 1159 2956 
Q 1341 3275 1631 3429 
Q 1922 3584 2338 3584 
Q 2397 3584 2469 3576 
Q 2541 3569 2628 3553 
L 2631 2963 
z
" transform="scale(0.015625)"/>
       <path id="DejaVuSans-6f" d="M 1959 3097 
Q 1497 3097 1228 2736 
Q 959 2375 959 1747 
Q 959 1119 1226 758 
Q 1494 397 1959 397 
Q 2419 397 2687 759 
Q 2956 1122 2956 1747 
Q 2956 2369 2687 2733 
Q 2419 3097 1959 3097 
z
M 1959 3584 
Q 2709 3584 3137 3096 
Q 3566 2609 3566 1747 
Q 3566 888 3137 398 
Q 2709 -91 1959 -91 
Q 1206 -91 779 398 
Q 353 888 353 1747 
Q 353 2609 779 3096 
Q 1206 3584 1959 3584 
z
" transform="scale(0.015625)"/>
       <path id="DejaVuSans-75" d="M 544 1381 
L 544 3500 
L 1119 3500 
L 1119 1403 
Q 1119 906 1312 657 
Q 1506 409 1894 409 
Q 2359 409 2629 706 
Q 2900 1003 2900 1516 
L 2900 3500 
L 3475 3500 
L 3475 0 
L 2900 0 
L 2900 538 
Q 2691 219 2414 64 
Q 2138 -91 1772 -91 
Q 1169 -91 856 284 
Q 544 659 544 1381 
z
M 1991 3584 
L 1991 3584 
z
" transform="scale(0.015625)"/>
       <path id="DejaVuSans-67" d="M 2906 1791 
Q 2906 2416 2648 2759 
Q 2391 3103 1925 3103 
Q 1463 3103 1205 2759 
Q 947 2416 947 1791 
Q 947 1169 1205 825 
Q 1463 481 1925 481 
Q 2391 481 2648 825 
Q 2906 1169 2906 1791 
z
M 3481 434 
Q 3481 -459 3084 -895 
Q 2688 -1331 1869 -1331 
Q 1566 -1331 1297 -1286 
Q 1028 -1241 775 -1147 
L 775 -588 
Q 1028 -725 1275 -790 
Q 1522 -856 1778 -856 
Q 2344 -856 2625 -561 
Q 2906 -266 2906 331 
L 2906 616 
Q 2728 306 2450 153 
Q 2172 0 1784 0 
Q 1141 0 747 490 
Q 353 981 353 1791 
Q 353 2603 747 3093 
Q 1141 3584 1784 3584 
Q 2172 3584 2450 3431 
Q 2728 3278 2906 2969 
L 2906 3500 
L 3481 3500 
L 3481 434 
z
" transform="scale(0.015625)"/>
       <path id="DejaVuSans-70" d="M 1159 525 
L 1159 -1331 
L 581 -1331 
L 581 3500 
L 1159 3500 
L 1159 2969 
Q 1341 3281 1617 3432 
Q 1894 3584 2278 3584 
Q 2916 3584 3314 3078 
Q 3713 2572 3713 1747 
Q 3713 922 3314 415 
Q 2916 -91 2278 -91 
Q 1894 -91 1617 61 
Q 1341 213 1159 525 
z
M 3116 1747 
Q 3116 2381 2855 2742 
Q 2594 3103 2138 3103 
Q 1681 3103 1420 2742 
Q 1159 2381 1159 1747 
Q 1159 1113 1420 752 
Q 1681 391 2138 391 
Q 2594 391 2855 752 
Q 3116 1113 3116 1747 
z
" transform="scale(0.015625)"/>
       <path id="DejaVuSans-74" d="M 1172 4494 
L 1172 3500 
L 2356 3500 
L 2356 3053 
L 1172 3053 
L 1172 1153 
Q 1172 725 1289 603 
Q 1406 481 1766 481 
L 2356 481 
L 2356 0 
L 1766 0 
Q 1100 0 847 248 
Q 594 497 594 1153 
L 594 3053 
L 172 3053 
L 172 3500 
L 594 3500 
L 594 4494 
L 1172 4494 
z
" transform="scale(0.015625)"/>
       <path id="DejaVuSans-4d" d="M 628 4666 
L 1569 4666 
L 2759 1491 
L 3956 4666 
L 4897 4666 
L 4897 0 
L 4281 0 
L 4281 4097 
L 3078 897 
L 2444 897 
L 1241 4097 
L 1241 0 
L 628 0 
L 628 4666 
z
" transform="scale(0.015625)"/>
       <path id="DejaVuSans-62" d="M 3116 1747 
Q 3116 2381 2855 2742 
Q 2594 3103 2138 3103 
Q 1681 3103 1420 2742 
Q 1159 2381 1159 1747 
Q 1159 1113 1420 752 
Q 1681 391 2138 391 
Q 2594 391 2855 752 
Q 3116 1113 3116 1747 
z
M 1159 2969 
Q 1341 3281 1617 3432 
Q 1894 3584 2278 3584 
Q 2916 3584 3314 3078 
Q 3713 2572 3713 1747 
Q 3713 922 3314 415 
Q 2916 -91 2278 -91 
Q 1894 -91 1617 61 
Q 1341 213 1159 525 
L 1159 0 
L 581 0 
L 581 4863 
L 1159 4863 
L 1159 2969 
z
" transform="scale(0.015625)"/>
      </defs>
      <use xlink:href="#DejaVuSans-54"/>
      <use xlink:href="#DejaVuSans-68" x="61.083984"/>
      <use xlink:href="#DejaVuSans-72" x="124.462891"/>
      <use xlink:href="#DejaVuSans-6f" x="163.326172"/>
      <use xlink:href="#DejaVuSans-75" x="224.507812"/>
      <use xlink:href="#DejaVuSans-67" x="287.886719"/>
      <use xlink:href="#DejaVuSans-68" x="351.363281"/>
      <use xlink:href="#DejaVuSans-70" x="414.742188"/>
      <use xlink:href="#DejaVuSans-75" x="478.21875"/>
      <use xlink:href="#DejaVuSans-74" x="541.597656"/>
      <use xlink:href="#DejaVuSans-20" x="580.806641"/>
      <use xlink:href="#DejaVuSans-28" x="612.59375"/>
      <use xlink:href="#DejaVuSans-4d" x="651.607422"/>
      <use xlink:href="#DejaVuSans-62" x="737.886719"/>
      <use xlink:href="#DejaVuSans-70" x="801.363281"/>
      <use xlink:href="#DejaVuSans-73" x="864.839844"/>
      <use xlink:href="#DejaVuSans-29" x="916.939453"/>
     </g>
    </g>
   </g>
   <g id="patch_3">
    <path d="M 101.01 331.64 
L 101.01 23.76 
" style="fill: none; stroke: #000000; stroke-width: 0.8; stroke-linejoin: miter; stroke-linecap: square"/>
   </g>
   <g id="patch_4">
    <path d="M 897.84 331.64 
L 897.84 23.76 
" style="fill: none; stroke: #000000; stroke-width: 0.8; stroke-linejoin: miter; stroke-linecap: square"/>
   </g>
   <g id="patch_5">
    <path d="M 101.01 331.64 
L 897.84 331.64 
" style="fill: none; stroke: #000000; stroke-width: 0.8; stroke-linejoin: miter; stroke-linecap: square"/>
   </g>
   <g id="patch_6">
    <path d="M 101.01 23.76 
L 897.84 23.76 
" style="fill: none; stroke: #000000; stroke-width: 0.8; stroke-linejoin: miter; stroke-linecap: square"/>
   </g>
   <g id="legend_1">
    <g id="patch_7">
     <path d="M 756.24 148.6425 
L 881.04 148.6425 
Q 885.84 148.6425 885.84 143.8425 
L 885.84 40.56 
Q 885.84 35.76 881.04 35.76 
L 756.24 35.76 
Q 751.44 35.76 751.44 40.56 
L 751.44 143.8425 
Q 751.44 148.6425 756.24 148.6425 
z
" style="fill: #ffffff; opacity: 0.8; stroke: #cccccc; stroke-linejoin: miter"/>
    </g>
    <g id="patch_8">
     <path d="M 761.04 63.59625 
L 809.04 63.59625 
L 809.04 46.79625 
L 761.04 46.79625 
z
" style="fill: #1f77b4"/>
    </g>
    <g id="text_15">
     <!-- UE1 -->
     <g transform="translate(828.24 63.59625)scale(0.24 -0.24)">
      <defs>
       <path id="DejaVuSans-55" d="M 556 4666 
L 1191 4666 
L 1191 1831 
Q 1191 1081 1462 751 
Q 1734 422 2344 422 
Q 2950 422 3222 751 
Q 3494 1081 3494 1831 
L 3494 4666 
L 4128 4666 
L 4128 1753 
Q 4128 841 3676 375 
Q 3225 -91 2344 -91 
Q 1459 -91 1007 375 
Q 556 841 556 1753 
L 556 4666 
z
" transform="scale(0.015625)"/>
       <path id="DejaVuSans-45" d="M 628 4666 
L 3578 4666 
L 3578 4134 
L 1259 4134 
L 1259 2753 
L 3481 2753 
L 3481 2222 
L 1259 2222 
L 1259 531 
L 3634 531 
L 3634 0 
L 628 0 
L 628 4666 
z
" transform="scale(0.015625)"/>
      </defs>
      <use xlink:href="#DejaVuSans-55"/>
      <use xlink:href="#DejaVuSans-45" x="73.193359"/>
      <use xlink:href="#DejaVuSans-31" x="136.376953"/>
     </g>
    </g>
    <g id="patch_9">
     <path d="M 761.04 98.82375 
L 809.04 98.82375 
L 809.04 82.02375 
L 761.04 82.02375 
z
" style="fill: #ff7f0e"/>
    </g>
    <g id="text_16">
     <!-- UE2 -->
     <g transform="translate(828.24 98.82375)scale(0.24 -0.24)">
      <use xlink:href="#DejaVuSans-55"/>
      <use xlink:href="#DejaVuSans-45" x="73.193359"/>
      <use xlink:href="#DejaVuSans-32" x="136.376953"/>
     </g>
    </g>
    <g id="patch_10">
     <path d="M 761.04 134.05125 
L 809.04 134.05125 
L 809.04 117.25125 
L 761.04 117.25125 
z
" style="fill: #2ca02c"/>
    </g>
    <g id="text_17">
     <!-- UE3 -->
     <g transform="translate(828.24 134.05125)scale(0.24 -0.24)">
      <defs>
       <path id="DejaVuSans-33" d="M 2597 2516 
Q 3050 2419 3304 2112 
Q 3559 1806 3559 1356 
Q 3559 666 3084 287 
Q 2609 -91 1734 -91 
Q 1441 -91 1130 -33 
Q 819 25 488 141 
L 488 750 
Q 750 597 1062 519 
Q 1375 441 1716 441 
Q 2309 441 2620 675 
Q 2931 909 2931 1356 
Q 2931 1769 2642 2001 
Q 2353 2234 1838 2234 
L 1294 2234 
L 1294 2753 
L 1863 2753 
Q 2328 2753 2575 2939 
Q 2822 3125 2822 3475 
Q 2822 3834 2567 4026 
Q 2313 4219 1838 4219 
Q 1578 4219 1281 4162 
Q 984 4106 628 3988 
L 628 4550 
Q 988 4650 1302 4700 
Q 1616 4750 1894 4750 
Q 2613 4750 3031 4423 
Q 3450 4097 3450 3541 
Q 3450 3153 3228 2886 
Q 3006 2619 2597 2516 
z
" transform="scale(0.015625)"/>
      </defs>
      <use xlink:href="#DejaVuSans-55"/>
      <use xlink:href="#DejaVuSans-45" x="73.193359"/>
      <use xlink:href="#DejaVuSans-33" x="136.376953"/>
     </g>
    </g>
   </g>
  </g>
 </g>
 <defs>
  <clipPath id="pd5a505ff65">
   <rect x="101.01" y="23.76" width="796.83" height="307.88"/>
  </clipPath>
 </defs>
</svg>
