<?xml version="1.0" encoding="utf-8" standalone="no"?>
<!DOCTYPE svg PUBLIC "-//W3C//DTD SVG 1.1//EN"
  "http://www.w3.org/Graphics/SVG/1.1/DTD/svg11.dtd">
<svg xmlns:xlink="http://www.w3.org/1999/xlink" width="921.6pt" height="410.4pt" viewBox="0 0 921.6 410.4" xmlns="http://www.w3.org/2000/svg" version="1.1">
 <metadata>
  <rdf:RDF xmlns:dc="http://purl.org/dc/elements/1.1/" xmlns:cc="http://creativecommons.org/ns#" xmlns:rdf="http://www.w3.org/1999/02/22-rdf-syntax-ns#">
   <cc:Work>
    <dc:type rdf:resource="http://purl.org/dc/dcmitype/StillImage"/>
    <dc:date>2023-04-11T17:40:58.300933</dc:date>
    <dc:format>image/svg+xml</dc:format>
    <dc:creator>
     <cc:Agent>
      <dc:title>Matplotlib v3.5.3, https://matplotlib.org/</dc:title>
     </cc:Agent>
    </dc:creator>
   </cc:Work>
  </rdf:RDF>
 </metadata>
 <defs>
  <style type="text/css">*{stroke-linejoin: round; stroke-linecap: butt}</style>
 </defs>
 <g id="figure_1">
  <g id="patch_1">
   <path d="M 0 410.4 
L 921.6 410.4 
L 921.6 0 
L 0 0 
L 0 410.4 
z
" style="fill: none"/>
  </g>
  <g id="axes_1">
   <g id="patch_2">
    <path d="M 108.01 331.64 
L 897.84 331.64 
L 897.84 23.76 
L 108.01 23.76 
z
" style="fill: #ffffff"/>
   </g>
   <g id="PolyCollection_1">
    <path d="M 143.911364 237.206262 
L 143.911364 331.64 
L 147.856568 331.64 
L 151.801773 331.64 
L 155.746978 331.64 
L 159.692183 331.64 
L 163.637388 331.64 
L 167.582592 331.64 
L 171.527797 331.64 
L 175.473002 331.64 
L 179.418207 331.64 
L 183.363412 331.64 
L 187.308616 331.64 
L 191.253821 331.64 
L 195.199026 331.64 
L 199.144231 331.64 
L 203.089436 331.64 
L 207.03464 331.64 
L 210.979845 331.64 
L 214.92505 331.64 
L 218.870255 331.64 
L 222.81546 331.64 
L 226.760664 331.64 
L 230.705869 331.64 
L 234.651074 331.64 
L 238.596279 331.64 
L 242.541484 331.64 
L 246.486688 331.64 
L 250.431893 331.64 
L 254.377098 331.64 
L 258.322303 331.64 
L 262.267507 331.64 
L 266.212712 331.64 
L 270.157917 331.64 
L 274.103122 331.64 
L 278.048327 331.64 
L 281.993531 331.64 
L 285.938736 331.64 
L 289.883941 331.64 
L 293.829146 331.64 
L 297.774351 331.64 
L 301.719555 331.64 
L 305.66476 331.64 
L 309.609965 331.64 
L 313.55517 331.64 
L 317.500375 331.64 
L 321.445579 331.64 
L 325.390784 331.64 
L 329.335989 331.64 
L 333.281194 331.64 
L 337.226399 331.64 
L 341.171603 331.64 
L 345.116808 331.64 
L 349.062013 331.64 
L 353.007218 331.64 
L 356.952423 331.64 
L 360.897627 331.64 
L 364.842832 331.64 
L 368.788037 331.64 
L 372.733242 331.64 
L 376.678447 331.64 
L 380.623651 331.64 
L 384.568856 331.64 
L 388.514061 331.64 
L 392.459266 331.64 
L 396.404471 331.64 
L 400.349675 331.64 
L 404.29488 331.64 
L 408.240085 331.64 
L 412.18529 331.64 
L 416.130495 331.64 
L 420.075699 331.64 
L 424.020904 331.64 
L 427.966109 331.64 
L 431.911314 331.64 
L 435.856518 331.64 
L 439.801723 331.64 
L 443.746928 331.64 
L 447.692133 331.64 
L 451.637338 331.64 
L 455.582542 331.64 
L 459.527747 331.64 
L 463.472952 331.64 
L 467.418157 331.64 
L 471.363362 331.64 
L 475.308566 331.64 
L 479.253771 331.64 
L 483.198976 331.64 
L 487.144181 331.64 
L 491.089386 331.64 
L 495.03459 331.64 
L 498.979795 331.64 
L 502.925 331.64 
L 506.870205 331.64 
L 510.81541 331.64 
L 514.760614 331.64 
L 518.705819 331.64 
L 522.651024 331.64 
L 526.596229 331.64 
L 530.541434 331.64 
L 534.486638 331.64 
L 538.431843 331.64 
L 542.377048 331.64 
L 546.322253 331.64 
L 550.267458 331.64 
L 554.212662 331.64 
L 558.157867 331.64 
L 562.103072 331.64 
L 566.048277 331.64 
L 569.993482 331.64 
L 573.938686 331.64 
L 577.883891 331.64 
L 581.829096 331.64 
L 585.774301 331.64 
L 589.719505 331.64 
L 593.66471 331.64 
L 597.609915 331.64 
L 601.55512 331.64 
L 605.500325 331.64 
L 609.445529 331.64 
L 613.390734 331.64 
L 617.335939 331.64 
L 621.281144 331.64 
L 625.226349 331.64 
L 629.171553 331.64 
L 633.116758 331.64 
L 637.061963 331.64 
L 641.007168 331.64 
L 644.952373 331.64 
L 648.897577 331.64 
L 652.842782 331.64 
L 656.787987 331.64 
L 660.733192 331.64 
L 664.678397 331.64 
L 668.623601 331.64 
L 672.568806 331.64 
L 676.514011 331.64 
L 680.459216 331.64 
L 684.404421 331.64 
L 688.349625 331.64 
L 692.29483 331.64 
L 696.240035 331.64 
L 700.18524 331.64 
L 704.130445 331.64 
L 708.075649 331.64 
L 712.020854 331.64 
L 715.966059 331.64 
L 719.911264 331.64 
L 723.856469 331.64 
L 727.801673 331.64 
L 731.746878 331.64 
L 735.692083 331.64 
L 739.637288 331.64 
L 743.582493 331.64 
L 747.527697 331.64 
L 751.472902 331.64 
L 755.418107 331.64 
L 759.363312 331.64 
L 763.308516 331.64 
L 767.253721 331.64 
L 771.198926 331.64 
L 775.144131 331.64 
L 779.089336 331.64 
L 783.03454 331.64 
L 786.979745 331.64 
L 790.92495 331.64 
L 794.870155 331.64 
L 798.81536 331.64 
L 802.760564 331.64 
L 806.705769 331.64 
L 810.650974 331.64 
L 814.596179 331.64 
L 818.541384 331.64 
L 822.486588 331.64 
L 826.431793 331.64 
L 830.376998 331.64 
L 834.322203 331.64 
L 838.267408 331.64 
L 842.212612 331.64 
L 846.157817 331.64 
L 850.103022 331.64 
L 854.048227 331.64 
L 857.993432 331.64 
L 861.938636 331.64 
L 861.938636 235.299049 
L 861.938636 235.299049 
L 857.993432 235.705754 
L 854.048227 235.297855 
L 850.103022 236.15292 
L 846.157817 236.86973 
L 842.212612 235.63588 
L 838.267408 235.935085 
L 834.322203 236.697881 
L 830.376998 235.245151 
L 826.431793 236.134257 
L 822.486588 236.206371 
L 818.541384 237.389159 
L 814.596179 235.522409 
L 810.650974 235.818777 
L 806.705769 236.084688 
L 802.760564 235.544506 
L 798.81536 235.662904 
L 794.870155 235.213647 
L 790.92495 235.790111 
L 786.979745 236.673694 
L 783.03454 236.067518 
L 779.089336 236.06498 
L 775.144131 236.67444 
L 771.198926 235.758011 
L 767.253721 235.834753 
L 763.308516 235.045979 
L 759.363312 235.431632 
L 755.418107 235.276057 
L 751.472902 236.177406 
L 747.527697 235.178859 
L 743.582493 235.846399 
L 739.637288 235.119735 
L 735.692083 235.551075 
L 731.746878 236.156802 
L 727.801673 234.885477 
L 723.856469 235.214394 
L 719.911264 234.781859 
L 715.966059 236.066921 
L 712.020854 235.493443 
L 708.075649 234.567011 
L 704.130445 237.239258 
L 700.18524 235.818031 
L 696.240035 235.220665 
L 692.29483 235.669175 
L 688.349625 235.420732 
L 684.404421 235.531068 
L 680.459216 236.465862 
L 676.514011 236.336714 
L 672.568806 235.527186 
L 668.623601 236.894664 
L 664.678397 236.344627 
L 660.733192 236.544396 
L 656.787987 236.344776 
L 652.842782 235.821614 
L 648.897577 235.726059 
L 644.952373 237.76242 
L 641.007168 236.392852 
L 637.061963 235.969276 
L 633.116758 236.701763 
L 629.171553 236.051991 
L 625.226349 236.053185 
L 621.281144 236.62517 
L 617.335939 236.612927 
L 613.390734 236.568583 
L 609.445529 235.971964 
L 605.500325 236.403751 
L 601.55512 235.461044 
L 597.609915 235.425809 
L 593.66471 235.126006 
L 589.719505 235.540922 
L 585.774301 235.883725 
L 581.829096 234.479369 
L 577.883891 235.35892 
L 573.938686 235.494937 
L 569.993482 236.118132 
L 566.048277 235.245748 
L 562.103072 238.192267 
L 558.157867 236.758498 
L 554.212662 236.153667 
L 550.267458 236.099917 
L 546.322253 236.011081 
L 542.377048 236.63144 
L 538.431843 236.050647 
L 534.486638 236.613524 
L 530.541434 236.095737 
L 526.596229 237.692695 
L 522.651024 236.758349 
L 518.705819 236.26878 
L 514.760614 237.023513 
L 510.81541 236.158743 
L 506.870205 235.076437 
L 502.925 236.062741 
L 498.979795 236.612628 
L 495.03459 235.955689 
L 491.089386 237.888582 
L 487.144181 237.182074 
L 483.198976 235.810864 
L 479.253771 235.75607 
L 475.308566 235.621547 
L 471.363362 236.07364 
L 467.418157 235.899103 
L 463.472952 236.555594 
L 459.527747 236.595607 
L 455.582542 236.666527 
L 451.637338 237.07144 
L 447.692133 236.706839 
L 443.746928 236.342985 
L 439.801723 236.762231 
L 435.856518 235.262918 
L 431.911314 235.468958 
L 427.966109 236.482883 
L 424.020904 237.335709 
L 420.075699 236.335071 
L 416.130495 237.138478 
L 412.18529 236.750137 
L 408.240085 237.413496 
L 404.29488 236.812546 
L 400.349675 237.452315 
L 396.404471 236.690714 
L 392.459266 237.300771 
L 388.514061 237.128474 
L 384.568856 238.23676 
L 380.623651 237.694785 
L 376.678447 236.969316 
L 372.733242 237.298681 
L 368.788037 238.00922 
L 364.842832 238.23885 
L 360.897627 236.416442 
L 356.952423 237.692546 
L 353.007218 237.097867 
L 349.062013 237.202977 
L 345.116808 235.872676 
L 341.171603 236.95991 
L 337.226399 236.948115 
L 333.281194 237.028142 
L 329.335989 236.307898 
L 325.390784 237.003656 
L 321.445579 237.297337 
L 317.500375 236.511698 
L 313.55517 236.357318 
L 309.609965 237.771528 
L 305.66476 235.772045 
L 301.719555 236.178153 
L 297.774351 236.97708 
L 293.829146 235.653796 
L 289.883941 236.261017 
L 285.938736 236.786418 
L 281.993531 236.57784 
L 278.048327 235.8031 
L 274.103122 237.679258 
L 270.157917 236.740433 
L 266.212712 235.533606 
L 262.267507 236.753123 
L 258.322303 236.983948 
L 254.377098 236.010036 
L 250.431893 235.522259 
L 246.486688 237.636855 
L 242.541484 236.70669 
L 238.596279 235.736959 
L 234.651074 236.525285 
L 230.705869 235.715011 
L 226.760664 236.200698 
L 222.81546 236.025116 
L 218.870255 236.796272 
L 214.92505 235.772792 
L 210.979845 235.90627 
L 207.03464 235.869541 
L 203.089436 235.739049 
L 199.144231 236.849723 
L 195.199026 235.252765 
L 191.253821 236.231753 
L 187.308616 236.346419 
L 183.363412 236.938858 
L 179.418207 236.366575 
L 175.473002 235.543908 
L 171.527797 235.550179 
L 167.582592 235.605272 
L 163.637388 236.776116 
L 159.692183 236.815085 
L 155.746978 236.381804 
L 151.801773 236.171434 
L 147.856568 237.815871 
L 143.911364 237.206262 
z
" clip-path="url(#p1022244311)" style="fill: #1f77b4"/>
   </g>
   <g id="PolyCollection_2">
    <path d="M 143.911364 142.246077 
L 143.911364 237.206262 
L 147.856568 237.815871 
L 151.801773 236.171434 
L 155.746978 236.381804 
L 159.692183 236.815085 
L 163.637388 236.776116 
L 167.582592 235.605272 
L 171.527797 235.550179 
L 175.473002 235.543908 
L 179.418207 236.366575 
L 183.363412 236.938858 
L 187.308616 236.346419 
L 191.253821 236.231753 
L 195.199026 235.252765 
L 199.144231 236.849723 
L 203.089436 235.739049 
L 207.03464 235.869541 
L 210.979845 235.90627 
L 214.92505 235.772792 
L 218.870255 236.796272 
L 222.81546 236.025116 
L 226.760664 236.200698 
L 230.705869 235.715011 
L 234.651074 236.525285 
L 238.596279 235.736959 
L 242.541484 236.70669 
L 246.486688 237.636855 
L 250.431893 235.522259 
L 254.377098 236.010036 
L 258.322303 236.983948 
L 262.267507 236.753123 
L 266.212712 235.533606 
L 270.157917 236.740433 
L 274.103122 237.679258 
L 278.048327 235.8031 
L 281.993531 236.57784 
L 285.938736 236.786418 
L 289.883941 236.261017 
L 293.829146 235.653796 
L 297.774351 236.97708 
L 301.719555 236.178153 
L 305.66476 235.772045 
L 309.609965 237.771528 
L 313.55517 236.357318 
L 317.500375 236.511698 
L 321.445579 237.297337 
L 325.390784 237.003656 
L 329.335989 236.307898 
L 333.281194 237.028142 
L 337.226399 236.948115 
L 341.171603 236.95991 
L 345.116808 235.872676 
L 349.062013 237.202977 
L 353.007218 237.097867 
L 356.952423 237.692546 
L 360.897627 236.416442 
L 364.842832 238.23885 
L 368.788037 238.00922 
L 372.733242 237.298681 
L 376.678447 236.969316 
L 380.623651 237.694785 
L 384.568856 238.23676 
L 388.514061 237.128474 
L 392.459266 237.300771 
L 396.404471 236.690714 
L 400.349675 237.452315 
L 404.29488 236.812546 
L 408.240085 237.413496 
L 412.18529 236.750137 
L 416.130495 237.138478 
L 420.075699 236.335071 
L 424.020904 237.335709 
L 427.966109 236.482883 
L 431.911314 235.468958 
L 435.856518 235.262918 
L 439.801723 236.762231 
L 443.746928 236.342985 
L 447.692133 236.706839 
L 451.637338 237.07144 
L 455.582542 236.666527 
L 459.527747 236.595607 
L 463.472952 236.555594 
L 467.418157 235.899103 
L 471.363362 236.07364 
L 475.308566 235.621547 
L 479.253771 235.75607 
L 483.198976 235.810864 
L 487.144181 237.182074 
L 491.089386 237.888582 
L 495.03459 235.955689 
L 498.979795 236.612628 
L 502.925 236.062741 
L 506.870205 235.076437 
L 510.81541 236.158743 
L 514.760614 237.023513 
L 518.705819 236.26878 
L 522.651024 236.758349 
L 526.596229 237.692695 
L 530.541434 236.095737 
L 534.486638 236.613524 
L 538.431843 236.050647 
L 542.377048 236.63144 
L 546.322253 236.011081 
L 550.267458 236.099917 
L 554.212662 236.153667 
L 558.157867 236.758498 
L 562.103072 238.192267 
L 566.048277 235.245748 
L 569.993482 236.118132 
L 573.938686 235.494937 
L 577.883891 235.35892 
L 581.829096 234.479369 
L 585.774301 235.883725 
L 589.719505 235.540922 
L 593.66471 235.126006 
L 597.609915 235.425809 
L 601.55512 235.461044 
L 605.500325 236.403751 
L 609.445529 235.971964 
L 613.390734 236.568583 
L 617.335939 236.612927 
L 621.281144 236.62517 
L 625.226349 236.053185 
L 629.171553 236.051991 
L 633.116758 236.701763 
L 637.061963 235.969276 
L 641.007168 236.392852 
L 644.952373 237.76242 
L 648.897577 235.726059 
L 652.842782 235.821614 
L 656.787987 236.344776 
L 660.733192 236.544396 
L 664.678397 236.344627 
L 668.623601 236.894664 
L 672.568806 235.527186 
L 676.514011 236.336714 
L 680.459216 236.465862 
L 684.404421 235.531068 
L 688.349625 235.420732 
L 692.29483 235.669175 
L 696.240035 235.220665 
L 700.18524 235.818031 
L 704.130445 237.239258 
L 708.075649 234.567011 
L 712.020854 235.493443 
L 715.966059 236.066921 
L 719.911264 234.781859 
L 723.856469 235.214394 
L 727.801673 234.885477 
L 731.746878 236.156802 
L 735.692083 235.551075 
L 739.637288 235.119735 
L 743.582493 235.846399 
L 747.527697 235.178859 
L 751.472902 236.177406 
L 755.418107 235.276057 
L 759.363312 235.431632 
L 763.308516 235.045979 
L 767.253721 235.834753 
L 771.198926 235.758011 
L 775.144131 236.67444 
L 779.089336 236.06498 
L 783.03454 236.067518 
L 786.979745 236.673694 
L 790.92495 235.790111 
L 794.870155 235.213647 
L 798.81536 235.662904 
L 802.760564 235.544506 
L 806.705769 236.084688 
L 810.650974 235.818777 
L 814.596179 235.522409 
L 818.541384 237.389159 
L 822.486588 236.206371 
L 826.431793 236.134257 
L 830.376998 235.245151 
L 834.322203 236.697881 
L 838.267408 235.935085 
L 842.212612 235.63588 
L 846.157817 236.86973 
L 850.103022 236.15292 
L 854.048227 235.297855 
L 857.993432 235.705754 
L 861.938636 235.299049 
L 861.938636 138.57797 
L 861.938636 138.57797 
L 857.993432 138.359389 
L 854.048227 139.019015 
L 850.103022 139.852879 
L 846.157817 141.484774 
L 842.212612 140.328264 
L 838.267408 139.871393 
L 834.322203 140.532064 
L 830.376998 138.46644 
L 826.431793 140.15731 
L 822.486588 140.75826 
L 818.541384 141.662596 
L 814.596179 140.045332 
L 810.650974 139.087844 
L 806.705769 140.237188 
L 802.760564 138.245022 
L 798.81536 139.302245 
L 794.870155 139.059476 
L 790.92495 139.620562 
L 786.979745 140.417249 
L 783.03454 140.842915 
L 779.089336 139.377196 
L 775.144131 140.931005 
L 771.198926 140.472044 
L 767.253721 139.911108 
L 763.308516 137.415786 
L 759.363312 139.113077 
L 755.418107 137.535229 
L 751.472902 140.531915 
L 747.527697 138.020319 
L 743.582493 139.876171 
L 739.637288 138.866127 
L 735.692083 138.387458 
L 731.746878 140.289594 
L 727.801673 138.035846 
L 723.856469 138.468679 
L 719.911264 138.252487 
L 715.966059 139.081723 
L 712.020854 139.148014 
L 708.075649 137.567927 
L 704.130445 141.491493 
L 700.18524 140.261226 
L 696.240035 138.921071 
L 692.29483 139.249541 
L 688.349625 138.704282 
L 684.404421 138.328333 
L 680.459216 141.445657 
L 676.514011 140.338715 
L 672.568806 138.381187 
L 668.623601 141.190944 
L 664.678397 141.154513 
L 660.733192 140.637324 
L 656.787987 141.651547 
L 652.842782 139.270145 
L 648.897577 139.132038 
L 644.952373 142.762072 
L 641.007168 141.827129 
L 637.061963 139.963364 
L 633.116758 140.867103 
L 629.171553 140.501307 
L 625.226349 140.370965 
L 621.281144 141.186017 
L 617.335939 140.881884 
L 613.390734 141.444761 
L 609.445529 140.172689 
L 605.500325 139.959781 
L 601.55512 139.525306 
L 597.609915 138.03077 
L 593.66471 138.178283 
L 589.719505 138.667702 
L 585.774301 139.387498 
L 581.829096 138.063169 
L 577.883891 138.053763 
L 573.938686 138.715479 
L 569.993482 139.933503 
L 566.048277 138.502124 
L 562.103072 144.521473 
L 558.157867 141.241408 
L 554.212662 140.476672 
L 550.267458 140.382312 
L 546.322253 140.210015 
L 542.377048 141.336366 
L 538.431843 141.024171 
L 534.486638 140.410829 
L 530.541434 139.294929 
L 526.596229 143.046945 
L 522.651024 141.804584 
L 518.705819 140.196876 
L 514.760614 142.278476 
L 510.81541 140.770503 
L 506.870205 138.093776 
L 502.925 139.80331 
L 498.979795 141.551215 
L 495.03459 140.427551 
L 491.089386 142.761923 
L 487.144181 142.565737 
L 483.198976 140.341253 
L 479.253771 138.709656 
L 475.308566 139.440202 
L 471.363362 139.04156 
L 467.418157 140.558491 
L 463.472952 140.6639 
L 459.527747 141.242752 
L 455.582542 141.197812 
L 451.637338 141.775171 
L 447.692133 142.608289 
L 443.746928 140.087137 
L 439.801723 141.984645 
L 435.856518 139.191461 
L 431.911314 138.882551 
L 427.966109 140.325128 
L 424.020904 141.494628 
L 420.075699 140.978484 
L 416.130495 143.240294 
L 412.18529 140.977289 
L 408.240085 141.864306 
L 404.29488 140.58238 
L 400.349675 143.734491 
L 396.404471 142.275191 
L 392.459266 142.17023 
L 388.514061 142.582459 
L 384.568856 144.062661 
L 380.623651 143.315991 
L 376.678447 141.68962 
L 372.733242 142.834335 
L 368.788037 144.368138 
L 364.842832 143.947249 
L 360.897627 141.097778 
L 356.952423 144.352013 
L 353.007218 142.290719 
L 349.062013 142.365371 
L 345.116808 140.364993 
L 341.171603 141.054181 
L 337.226399 141.640797 
L 333.281194 141.74113 
L 329.335989 141.53076 
L 325.390784 141.484028 
L 321.445579 141.763376 
L 317.500375 141.296054 
L 313.55517 140.116401 
L 309.609965 143.240144 
L 305.66476 139.63803 
L 301.719555 139.398546 
L 297.774351 141.948215 
L 293.829146 139.710891 
L 289.883941 140.76901 
L 285.938736 140.764979 
L 281.993531 140.313632 
L 278.048327 140.084002 
L 274.103122 143.799139 
L 270.157917 141.63587 
L 266.212712 139.683568 
L 262.267507 139.940371 
L 258.322303 142.40195 
L 254.377098 139.885278 
L 250.431893 138.994977 
L 246.486688 144.135074 
L 242.541484 141.028202 
L 238.596279 139.87199 
L 234.651074 140.171046 
L 230.705869 139.739408 
L 226.760664 139.302544 
L 222.81546 140.122523 
L 218.870255 141.402657 
L 214.92505 139.433334 
L 210.979845 140.533109 
L 207.03464 139.197881 
L 203.089436 139.089039 
L 199.144231 141.511351 
L 195.199026 138.226508 
L 191.253821 141.494479 
L 187.308616 139.960677 
L 183.363412 142.317146 
L 179.418207 140.718097 
L 175.473002 139.163243 
L 171.527797 138.71324 
L 167.582592 139.747769 
L 163.637388 141.334724 
L 159.692183 141.474622 
L 155.746978 141.093149 
L 151.801773 140.799319 
L 147.856568 143.732102 
L 143.911364 142.246077 
z
" clip-path="url(#p1022244311)" style="fill: #ff7f0e"/>
   </g>
   <g id="PolyCollection_3">
    <path d="M 143.911364 47.7777 
L 143.911364 142.246077 
L 147.856568 143.732102 
L 151.801773 140.799319 
L 155.746978 141.093149 
L 159.692183 141.474622 
L 163.637388 141.334724 
L 167.582592 139.747769 
L 171.527797 138.71324 
L 175.473002 139.163243 
L 179.418207 140.718097 
L 183.363412 142.317146 
L 187.308616 139.960677 
L 191.253821 141.494479 
L 195.199026 138.226508 
L 199.144231 141.511351 
L 203.089436 139.089039 
L 207.03464 139.197881 
L 210.979845 140.533109 
L 214.92505 139.433334 
L 218.870255 141.402657 
L 222.81546 140.122523 
L 226.760664 139.302544 
L 230.705869 139.739408 
L 234.651074 140.171046 
L 238.596279 139.87199 
L 242.541484 141.028202 
L 246.486688 144.135074 
L 250.431893 138.994977 
L 254.377098 139.885278 
L 258.322303 142.40195 
L 262.267507 139.940371 
L 266.212712 139.683568 
L 270.157917 141.63587 
L 274.103122 143.799139 
L 278.048327 140.084002 
L 281.993531 140.313632 
L 285.938736 140.764979 
L 289.883941 140.76901 
L 293.829146 139.710891 
L 297.774351 141.948215 
L 301.719555 139.398546 
L 305.66476 139.63803 
L 309.609965 143.240144 
L 313.55517 140.116401 
L 317.500375 141.296054 
L 321.445579 141.763376 
L 325.390784 141.484028 
L 329.335989 141.53076 
L 333.281194 141.74113 
L 337.226399 141.640797 
L 341.171603 141.054181 
L 345.116808 140.364993 
L 349.062013 142.365371 
L 353.007218 142.290719 
L 356.952423 144.352013 
L 360.897627 141.097778 
L 364.842832 143.947249 
L 368.788037 144.368138 
L 372.733242 142.834335 
L 376.678447 141.68962 
L 380.623651 143.315991 
L 384.568856 144.062661 
L 388.514061 142.582459 
L 392.459266 142.17023 
L 396.404471 142.275191 
L 400.349675 143.734491 
L 404.29488 140.58238 
L 408.240085 141.864306 
L 412.18529 140.977289 
L 416.130495 143.240294 
L 420.075699 140.978484 
L 424.020904 141.494628 
L 427.966109 140.325128 
L 431.911314 138.882551 
L 435.856518 139.191461 
L 439.801723 141.984645 
L 443.746928 140.087137 
L 447.692133 142.608289 
L 451.637338 141.775171 
L 455.582542 141.197812 
L 459.527747 141.242752 
L 463.472952 140.6639 
L 467.418157 140.558491 
L 471.363362 139.04156 
L 475.308566 139.440202 
L 479.253771 138.709656 
L 483.198976 140.341253 
L 487.144181 142.565737 
L 491.089386 142.761923 
L 495.03459 140.427551 
L 498.979795 141.551215 
L 502.925 139.80331 
L 506.870205 138.093776 
L 510.81541 140.770503 
L 514.760614 142.278476 
L 518.705819 140.196876 
L 522.651024 141.804584 
L 526.596229 143.046945 
L 530.541434 139.294929 
L 534.486638 140.410829 
L 538.431843 141.024171 
L 542.377048 141.336366 
L 546.322253 140.210015 
L 550.267458 140.382312 
L 554.212662 140.476672 
L 558.157867 141.241408 
L 562.103072 144.521473 
L 566.048277 138.502124 
L 569.993482 139.933503 
L 573.938686 138.715479 
L 577.883891 138.053763 
L 581.829096 138.063169 
L 585.774301 139.387498 
L 589.719505 138.667702 
L 593.66471 138.178283 
L 597.609915 138.03077 
L 601.55512 139.525306 
L 605.500325 139.959781 
L 609.445529 140.172689 
L 613.390734 141.444761 
L 617.335939 140.881884 
L 621.281144 141.186017 
L 625.226349 140.370965 
L 629.171553 140.501307 
L 633.116758 140.867103 
L 637.061963 139.963364 
L 641.007168 141.827129 
L 644.952373 142.762072 
L 648.897577 139.132038 
L 652.842782 139.270145 
L 656.787987 141.651547 
L 660.733192 140.637324 
L 664.678397 141.154513 
L 668.623601 141.190944 
L 672.568806 138.381187 
L 676.514011 140.338715 
L 680.459216 141.445657 
L 684.404421 138.328333 
L 688.349625 138.704282 
L 692.29483 139.249541 
L 696.240035 138.921071 
L 700.18524 140.261226 
L 704.130445 141.491493 
L 708.075649 137.567927 
L 712.020854 139.148014 
L 715.966059 139.081723 
L 719.911264 138.252487 
L 723.856469 138.468679 
L 727.801673 138.035846 
L 731.746878 140.289594 
L 735.692083 138.387458 
L 739.637288 138.866127 
L 743.582493 139.876171 
L 747.527697 138.020319 
L 751.472902 140.531915 
L 755.418107 137.535229 
L 759.363312 139.113077 
L 763.308516 137.415786 
L 767.253721 139.911108 
L 771.198926 140.472044 
L 775.144131 140.931005 
L 779.089336 139.377196 
L 783.03454 140.842915 
L 786.979745 140.417249 
L 790.92495 139.620562 
L 794.870155 139.059476 
L 798.81536 139.302245 
L 802.760564 138.245022 
L 806.705769 140.237188 
L 810.650974 139.087844 
L 814.596179 140.045332 
L 818.541384 141.662596 
L 822.486588 140.75826 
L 826.431793 140.15731 
L 830.376998 138.46644 
L 834.322203 140.532064 
L 838.267408 139.871393 
L 842.212612 140.328264 
L 846.157817 141.484774 
L 850.103022 139.852879 
L 854.048227 139.019015 
L 857.993432 138.359389 
L 861.938636 138.57797 
L 861.938636 42.132208 
L 861.938636 42.132208 
L 857.993432 42.984586 
L 854.048227 42.427382 
L 850.103022 44.676352 
L 846.157817 45.430936 
L 842.212612 45.323138 
L 838.267408 43.54597 
L 834.322203 44.781313 
L 830.376998 41.826284 
L 826.431793 45.031846 
L 822.486588 45.803002 
L 818.541384 46.670609 
L 814.596179 43.492668 
L 810.650974 43.692139 
L 806.705769 43.043262 
L 802.760564 42.180732 
L 798.81536 42.989214 
L 794.870155 43.162109 
L 790.92495 44.291147 
L 786.979745 45.445866 
L 783.03454 44.802962 
L 779.089336 43.425481 
L 775.144131 46.413358 
L 771.198926 44.748018 
L 767.253721 43.064912 
L 763.308516 41.937366 
L 759.363312 41.35075 
L 755.418107 42.119517 
L 751.472902 44.409844 
L 747.527697 42.345414 
L 743.582493 43.299767 
L 739.637288 42.34855 
L 735.692083 42.321675 
L 731.746878 44.582291 
L 727.801673 41.470641 
L 723.856469 41.71117 
L 719.911264 42.346758 
L 715.966059 43.3356 
L 712.020854 42.249412 
L 708.075649 41.489155 
L 704.130445 45.853467 
L 700.18524 44.575124 
L 696.240035 42.497854 
L 692.29483 43.585535 
L 688.349625 41.947668 
L 684.404421 42.924566 
L 680.459216 44.992131 
L 676.514011 43.770971 
L 672.568806 43.175247 
L 668.623601 46.479947 
L 664.678397 45.028113 
L 660.733192 45.759853 
L 656.787987 45.281034 
L 652.842782 43.743499 
L 648.897577 44.215898 
L 644.952373 48.47943 
L 641.007168 45.944841 
L 637.061963 43.934459 
L 633.116758 46.150284 
L 629.171553 44.639325 
L 625.226349 45.365242 
L 621.281144 46.033826 
L 617.335939 46.293019 
L 613.390734 46.119676 
L 609.445529 44.558253 
L 605.500325 43.397412 
L 601.55512 42.941586 
L 597.609915 41.146053 
L 593.66471 41.850023 
L 589.719505 42.579374 
L 585.774301 43.446384 
L 581.829096 40.572576 
L 577.883891 42.412751 
L 573.938686 42.774216 
L 569.993482 43.362624 
L 566.048277 44.291744 
L 562.103072 50.355288 
L 558.157867 45.655489 
L 554.212662 44.724876 
L 550.267458 45.098585 
L 546.322253 45.140091 
L 542.377048 46.393799 
L 538.431843 45.063349 
L 534.486638 44.958836 
L 530.541434 44.437316 
L 526.596229 48.856572 
L 522.651024 45.948275 
L 518.705819 45.466321 
L 514.760614 47.549862 
L 510.81541 45.031547 
L 506.870205 41.81628 
L 502.925 44.089736 
L 498.979795 46.168499 
L 495.03459 46.8335 
L 491.089386 47.881466 
L 487.144181 48.119308 
L 483.198976 44.150801 
L 479.253771 42.774216 
L 475.308566 43.02027 
L 471.363362 43.41921 
L 467.418157 45.392565 
L 463.472952 45.054241 
L 459.527747 45.976792 
L 455.582542 46.362594 
L 451.637338 47.959105 
L 447.692133 46.755563 
L 443.746928 45.714912 
L 439.801723 46.456805 
L 435.856518 42.714793 
L 431.911314 42.487403 
L 427.966109 45.211309 
L 424.020904 47.190636 
L 420.075699 46.012924 
L 416.130495 47.989264 
L 412.18529 46.771389 
L 408.240085 46.443816 
L 404.29488 46.488607 
L 400.349675 49.579503 
L 396.404471 48.03092 
L 392.459266 47.799797 
L 388.514061 48.743549 
L 384.568856 50.29915 
L 380.623651 48.162308 
L 376.678447 48.314897 
L 372.733242 48.977658 
L 368.788037 49.570844 
L 364.842832 49.277909 
L 360.897627 48.019871 
L 356.952423 50.394705 
L 353.007218 46.973697 
L 349.062013 47.243041 
L 345.116808 45.020797 
L 341.171603 46.814688 
L 337.226399 47.325009 
L 333.281194 46.821257 
L 329.335989 46.192089 
L 325.390784 46.386782 
L 321.445579 46.597898 
L 317.500375 46.358563 
L 313.55517 45.340756 
L 309.609965 47.621677 
L 305.66476 44.098395 
L 301.719555 44.095559 
L 297.774351 45.813155 
L 293.829146 44.499725 
L 289.883941 45.167414 
L 285.938736 45.529775 
L 281.993531 45.237736 
L 278.048327 45.570983 
L 274.103122 48.162756 
L 270.157917 46.536086 
L 266.212712 43.655559 
L 262.267507 45.575014 
L 258.322303 46.946374 
L 254.377098 43.664368 
L 250.431893 44.011948 
L 246.486688 49.912153 
L 242.541484 45.045731 
L 238.596279 43.938491 
L 234.651074 44.585725 
L 230.705869 43.94715 
L 226.760664 43.028033 
L 222.81546 45.083057 
L 218.870255 45.406749 
L 214.92505 44.56736 
L 210.979845 43.502522 
L 207.03464 43.271399 
L 203.089436 43.745739 
L 199.144231 45.603382 
L 195.199026 42.60162 
L 191.253821 45.651309 
L 187.308616 44.956148 
L 183.363412 47.206313 
L 179.418207 45.269538 
L 175.473002 42.686575 
L 171.527797 42.18551 
L 167.582592 44.120194 
L 163.637388 46.572815 
L 159.692183 46.746306 
L 155.746978 45.626972 
L 151.801773 47.003707 
L 147.856568 48.972283 
L 143.911364 47.7777 
z
" clip-path="url(#p1022244311)" style="fill: #2ca02c"/>
   </g>
   <g id="matplotlib.axis_1">
    <g id="xtick_1">
     <g id="line2d_1">
      <path d="M 143.911364 331.64 
L 143.911364 23.76 
" clip-path="url(#p1022244311)" style="fill: none; stroke-dasharray: 5.12,1.28,0.8,1.28; stroke-dashoffset: 0; stroke: #b0b0b0; stroke-width: 0.8"/>
     </g>
     <g id="line2d_2">
      <defs>
       <path id="m4ea55c8bcf" d="M 0 0 
L 0 3.5 
" style="stroke: #000000; stroke-width: 0.8"/>
      </defs>
      <g>
       <use xlink:href="#m4ea55c8bcf" x="143.911364" y="331.64" style="stroke: #000000; stroke-width: 0.8"/>
      </g>
     </g>
     <g id="text_1">
      <!-- 0 -->
      <g transform="translate(136.912614 355.356563)scale(0.22 -0.22)">
       <defs>
        <path id="DejaVuSans-30" d="M 2034 4250 
Q 1547 4250 1301 3770 
Q 1056 3291 1056 2328 
Q 1056 1369 1301 889 
Q 1547 409 2034 409 
Q 2525 409 2770 889 
Q 3016 1369 3016 2328 
Q 3016 3291 2770 3770 
Q 2525 4250 2034 4250 
z
M 2034 4750 
Q 2819 4750 3233 4129 
Q 3647 3509 3647 2328 
Q 3647 1150 3233 529 
Q 2819 -91 2034 -91 
Q 1250 -91 836 529 
Q 422 1150 422 2328 
Q 422 3509 836 4129 
Q 1250 4750 2034 4750 
z
" transform="scale(0.015625)"/>
       </defs>
       <use xlink:href="#DejaVuSans-30"/>
      </g>
     </g>
    </g>
    <g id="xtick_2">
     <g id="line2d_3">
      <path d="M 242.541484 331.64 
L 242.541484 23.76 
" clip-path="url(#p1022244311)" style="fill: none; stroke-dasharray: 5.12,1.28,0.8,1.28; stroke-dashoffset: 0; stroke: #b0b0b0; stroke-width: 0.8"/>
     </g>
     <g id="line2d_4">
      <g>
       <use xlink:href="#m4ea55c8bcf" x="242.541484" y="331.64" style="stroke: #000000; stroke-width: 0.8"/>
      </g>
     </g>
     <g id="text_2">
      <!-- 25 -->
      <g transform="translate(228.543984 355.356563)scale(0.22 -0.22)">
       <defs>
        <path id="DejaVuSans-32" d="M 1228 531 
L 3431 531 
L 3431 0 
L 469 0 
L 469 531 
Q 828 903 1448 1529 
Q 2069 2156 2228 2338 
Q 2531 2678 2651 2914 
Q 2772 3150 2772 3378 
Q 2772 3750 2511 3984 
Q 2250 4219 1831 4219 
Q 1534 4219 1204 4116 
Q 875 4013 500 3803 
L 500 4441 
Q 881 4594 1212 4672 
Q 1544 4750 1819 4750 
Q 2544 4750 2975 4387 
Q 3406 4025 3406 3419 
Q 3406 3131 3298 2873 
Q 3191 2616 2906 2266 
Q 2828 2175 2409 1742 
Q 1991 1309 1228 531 
z
" transform="scale(0.015625)"/>
        <path id="DejaVuSans-35" d="M 691 4666 
L 3169 4666 
L 3169 4134 
L 1269 4134 
L 1269 2991 
Q 1406 3038 1543 3061 
Q 1681 3084 1819 3084 
Q 2600 3084 3056 2656 
Q 3513 2228 3513 1497 
Q 3513 744 3044 326 
Q 2575 -91 1722 -91 
Q 1428 -91 1123 -41 
Q 819 9 494 109 
L 494 744 
Q 775 591 1075 516 
Q 1375 441 1709 441 
Q 2250 441 2565 725 
Q 2881 1009 2881 1497 
Q 2881 1984 2565 2268 
Q 2250 2553 1709 2553 
Q 1456 2553 1204 2497 
Q 953 2441 691 2322 
L 691 4666 
z
" transform="scale(0.015625)"/>
       </defs>
       <use xlink:href="#DejaVuSans-32"/>
       <use xlink:href="#DejaVuSans-35" x="63.623047"/>
      </g>
     </g>
    </g>
    <g id="xtick_3">
     <g id="line2d_5">
      <path d="M 341.171603 331.64 
L 341.171603 23.76 
" clip-path="url(#p1022244311)" style="fill: none; stroke-dasharray: 5.12,1.28,0.8,1.28; stroke-dashoffset: 0; stroke: #b0b0b0; stroke-width: 0.8"/>
     </g>
     <g id="line2d_6">
      <g>
       <use xlink:href="#m4ea55c8bcf" x="341.171603" y="331.64" style="stroke: #000000; stroke-width: 0.8"/>
      </g>
     </g>
     <g id="text_3">
      <!-- 50 -->
      <g transform="translate(327.174103 355.356563)scale(0.22 -0.22)">
       <use xlink:href="#DejaVuSans-35"/>
       <use xlink:href="#DejaVuSans-30" x="63.623047"/>
      </g>
     </g>
    </g>
    <g id="xtick_4">
     <g id="line2d_7">
      <path d="M 439.801723 331.64 
L 439.801723 23.76 
" clip-path="url(#p1022244311)" style="fill: none; stroke-dasharray: 5.12,1.28,0.8,1.28; stroke-dashoffset: 0; stroke: #b0b0b0; stroke-width: 0.8"/>
     </g>
     <g id="line2d_8">
      <g>
       <use xlink:href="#m4ea55c8bcf" x="439.801723" y="331.64" style="stroke: #000000; stroke-width: 0.8"/>
      </g>
     </g>
     <g id="text_4">
      <!-- 75 -->
      <g transform="translate(425.804223 355.356563)scale(0.22 -0.22)">
       <defs>
        <path id="DejaVuSans-37" d="M 525 4666 
L 3525 4666 
L 3525 4397 
L 1831 0 
L 1172 0 
L 2766 4134 
L 525 4134 
L 525 4666 
z
" transform="scale(0.015625)"/>
       </defs>
       <use xlink:href="#DejaVuSans-37"/>
       <use xlink:href="#DejaVuSans-35" x="63.623047"/>
      </g>
     </g>
    </g>
    <g id="xtick_5">
     <g id="line2d_9">
      <path d="M 538.431843 331.64 
L 538.431843 23.76 
" clip-path="url(#p1022244311)" style="fill: none; stroke-dasharray: 5.12,1.28,0.8,1.28; stroke-dashoffset: 0; stroke: #b0b0b0; stroke-width: 0.8"/>
     </g>
     <g id="line2d_10">
      <g>
       <use xlink:href="#m4ea55c8bcf" x="538.431843" y="331.64" style="stroke: #000000; stroke-width: 0.8"/>
      </g>
     </g>
     <g id="text_5">
      <!-- 100 -->
      <g transform="translate(517.435593 355.356563)scale(0.22 -0.22)">
       <defs>
        <path id="DejaVuSans-31" d="M 794 531 
L 1825 531 
L 1825 4091 
L 703 3866 
L 703 4441 
L 1819 4666 
L 2450 4666 
L 2450 531 
L 3481 531 
L 3481 0 
L 794 0 
L 794 531 
z
" transform="scale(0.015625)"/>
       </defs>
       <use xlink:href="#DejaVuSans-31"/>
       <use xlink:href="#DejaVuSans-30" x="63.623047"/>
       <use xlink:href="#DejaVuSans-30" x="127.246094"/>
      </g>
     </g>
    </g>
    <g id="xtick_6">
     <g id="line2d_11">
      <path d="M 637.061963 331.64 
L 637.061963 23.76 
" clip-path="url(#p1022244311)" style="fill: none; stroke-dasharray: 5.12,1.28,0.8,1.28; stroke-dashoffset: 0; stroke: #b0b0b0; stroke-width: 0.8"/>
     </g>
     <g id="line2d_12">
      <g>
       <use xlink:href="#m4ea55c8bcf" x="637.061963" y="331.64" style="stroke: #000000; stroke-width: 0.8"/>
      </g>
     </g>
     <g id="text_6">
      <!-- 125 -->
      <g transform="translate(616.065713 355.356563)scale(0.22 -0.22)">
       <use xlink:href="#DejaVuSans-31"/>
       <use xlink:href="#DejaVuSans-32" x="63.623047"/>
       <use xlink:href="#DejaVuSans-35" x="127.246094"/>
      </g>
     </g>
    </g>
    <g id="xtick_7">
     <g id="line2d_13">
      <path d="M 735.692083 331.64 
L 735.692083 23.76 
" clip-path="url(#p1022244311)" style="fill: none; stroke-dasharray: 5.12,1.28,0.8,1.28; stroke-dashoffset: 0; stroke: #b0b0b0; stroke-width: 0.8"/>
     </g>
     <g id="line2d_14">
      <g>
       <use xlink:href="#m4ea55c8bcf" x="735.692083" y="331.64" style="stroke: #000000; stroke-width: 0.8"/>
      </g>
     </g>
     <g id="text_7">
      <!-- 150 -->
      <g transform="translate(714.695833 355.356563)scale(0.22 -0.22)">
       <use xlink:href="#DejaVuSans-31"/>
       <use xlink:href="#DejaVuSans-35" x="63.623047"/>
       <use xlink:href="#DejaVuSans-30" x="127.246094"/>
      </g>
     </g>
    </g>
    <g id="xtick_8">
     <g id="line2d_15">
      <path d="M 834.322203 331.64 
L 834.322203 23.76 
" clip-path="url(#p1022244311)" style="fill: none; stroke-dasharray: 5.12,1.28,0.8,1.28; stroke-dashoffset: 0; stroke: #b0b0b0; stroke-width: 0.8"/>
     </g>
     <g id="line2d_16">
      <g>
       <use xlink:href="#m4ea55c8bcf" x="834.322203" y="331.64" style="stroke: #000000; stroke-width: 0.8"/>
      </g>
     </g>
     <g id="text_8">
      <!-- 175 -->
      <g transform="translate(813.325953 355.356563)scale(0.22 -0.22)">
       <use xlink:href="#DejaVuSans-31"/>
       <use xlink:href="#DejaVuSans-37" x="63.623047"/>
       <use xlink:href="#DejaVuSans-35" x="127.246094"/>
      </g>
     </g>
    </g>
    <g id="text_9">
     <!-- Time (s) -->
     <g transform="translate(454.135625 382.168125)scale(0.24 -0.24)">
      <defs>
       <path id="DejaVuSans-54" d="M -19 4666 
L 3928 4666 
L 3928 4134 
L 2272 4134 
L 2272 0 
L 1638 0 
L 1638 4134 
L -19 4134 
L -19 4666 
z
" transform="scale(0.015625)"/>
       <path id="DejaVuSans-69" d="M 603 3500 
L 1178 3500 
L 1178 0 
L 603 0 
L 603 3500 
z
M 603 4863 
L 1178 4863 
L 1178 4134 
L 603 4134 
L 603 4863 
z
" transform="scale(0.015625)"/>
       <path id="DejaVuSans-6d" d="M 3328 2828 
Q 3544 3216 3844 3400 
Q 4144 3584 4550 3584 
Q 5097 3584 5394 3201 
Q 5691 2819 5691 2113 
L 5691 0 
L 5113 0 
L 5113 2094 
Q 5113 2597 4934 2840 
Q 4756 3084 4391 3084 
Q 3944 3084 3684 2787 
Q 3425 2491 3425 1978 
L 3425 0 
L 2847 0 
L 2847 2094 
Q 2847 2600 2669 2842 
Q 2491 3084 2119 3084 
Q 1678 3084 1418 2786 
Q 1159 2488 1159 1978 
L 1159 0 
L 581 0 
L 581 3500 
L 1159 3500 
L 1159 2956 
Q 1356 3278 1631 3431 
Q 1906 3584 2284 3584 
Q 2666 3584 2933 3390 
Q 3200 3197 3328 2828 
z
" transform="scale(0.015625)"/>
       <path id="DejaVuSans-65" d="M 3597 1894 
L 3597 1613 
L 953 1613 
Q 991 1019 1311 708 
Q 1631 397 2203 397 
Q 2534 397 2845 478 
Q 3156 559 3463 722 
L 3463 178 
Q 3153 47 2828 -22 
Q 2503 -91 2169 -91 
Q 1331 -91 842 396 
Q 353 884 353 1716 
Q 353 2575 817 3079 
Q 1281 3584 2069 3584 
Q 2775 3584 3186 3129 
Q 3597 2675 3597 1894 
z
M 3022 2063 
Q 3016 2534 2758 2815 
Q 2500 3097 2075 3097 
Q 1594 3097 1305 2825 
Q 1016 2553 972 2059 
L 3022 2063 
z
" transform="scale(0.015625)"/>
       <path id="DejaVuSans-20" transform="scale(0.015625)"/>
       <path id="DejaVuSans-28" d="M 1984 4856 
Q 1566 4138 1362 3434 
Q 1159 2731 1159 2009 
Q 1159 1288 1364 580 
Q 1569 -128 1984 -844 
L 1484 -844 
Q 1016 -109 783 600 
Q 550 1309 550 2009 
Q 550 2706 781 3412 
Q 1013 4119 1484 4856 
L 1984 4856 
z
" transform="scale(0.015625)"/>
       <path id="DejaVuSans-73" d="M 2834 3397 
L 2834 2853 
Q 2591 2978 2328 3040 
Q 2066 3103 1784 3103 
Q 1356 3103 1142 2972 
Q 928 2841 928 2578 
Q 928 2378 1081 2264 
Q 1234 2150 1697 2047 
L 1894 2003 
Q 2506 1872 2764 1633 
Q 3022 1394 3022 966 
Q 3022 478 2636 193 
Q 2250 -91 1575 -91 
Q 1294 -91 989 -36 
Q 684 19 347 128 
L 347 722 
Q 666 556 975 473 
Q 1284 391 1588 391 
Q 1994 391 2212 530 
Q 2431 669 2431 922 
Q 2431 1156 2273 1281 
Q 2116 1406 1581 1522 
L 1381 1569 
Q 847 1681 609 1914 
Q 372 2147 372 2553 
Q 372 3047 722 3315 
Q 1072 3584 1716 3584 
Q 2034 3584 2315 3537 
Q 2597 3491 2834 3397 
z
" transform="scale(0.015625)"/>
       <path id="DejaVuSans-29" d="M 513 4856 
L 1013 4856 
Q 1481 4119 1714 3412 
Q 1947 2706 1947 2009 
Q 1947 1309 1714 600 
Q 1481 -109 1013 -844 
L 513 -844 
Q 928 -128 1133 580 
Q 1338 1288 1338 2009 
Q 1338 2731 1133 3434 
Q 928 4138 513 4856 
z
" transform="scale(0.015625)"/>
      </defs>
      <use xlink:href="#DejaVuSans-54"/>
      <use xlink:href="#DejaVuSans-69" x="57.958984"/>
      <use xlink:href="#DejaVuSans-6d" x="85.742188"/>
      <use xlink:href="#DejaVuSans-65" x="183.154297"/>
      <use xlink:href="#DejaVuSans-20" x="244.677734"/>
      <use xlink:href="#DejaVuSans-28" x="276.464844"/>
      <use xlink:href="#DejaVuSans-73" x="315.478516"/>
      <use xlink:href="#DejaVuSans-29" x="367.578125"/>
     </g>
    </g>
   </g>
   <g id="matplotlib.axis_2">
    <g id="ytick_1">
     <g id="line2d_17">
      <path d="M 108.01 331.64 
L 897.84 331.64 
" clip-path="url(#p1022244311)" style="fill: none; stroke-dasharray: 5.12,1.28,0.8,1.28; stroke-dashoffset: 0; stroke: #b0b0b0; stroke-width: 0.8"/>
     </g>
     <g id="line2d_18">
      <defs>
       <path id="m0f3185e0d3" d="M 0 0 
L -3.5 0 
" style="stroke: #000000; stroke-width: 0.8"/>
      </defs>
      <g>
       <use xlink:href="#m0f3185e0d3" x="108.01" y="331.64" style="stroke: #000000; stroke-width: 0.8"/>
      </g>
     </g>
     <g id="text_10">
      <!-- 0 -->
      <g transform="translate(87.0125 339.998281)scale(0.22 -0.22)">
       <use xlink:href="#DejaVuSans-30"/>
      </g>
     </g>
    </g>
    <g id="ytick_2">
     <g id="line2d_19">
      <path d="M 108.01 238.324849 
L 897.84 238.324849 
" clip-path="url(#p1022244311)" style="fill: none; stroke-dasharray: 5.12,1.28,0.8,1.28; stroke-dashoffset: 0; stroke: #b0b0b0; stroke-width: 0.8"/>
     </g>
     <g id="line2d_20">
      <g>
       <use xlink:href="#m0f3185e0d3" x="108.01" y="238.324849" style="stroke: #000000; stroke-width: 0.8"/>
      </g>
     </g>
     <g id="text_11">
      <!-- 5 -->
      <g transform="translate(87.0125 246.68313)scale(0.22 -0.22)">
       <use xlink:href="#DejaVuSans-35"/>
      </g>
     </g>
    </g>
    <g id="ytick_3">
     <g id="line2d_21">
      <path d="M 108.01 145.009698 
L 897.84 145.009698 
" clip-path="url(#p1022244311)" style="fill: none; stroke-dasharray: 5.12,1.28,0.8,1.28; stroke-dashoffset: 0; stroke: #b0b0b0; stroke-width: 0.8"/>
     </g>
     <g id="line2d_22">
      <g>
       <use xlink:href="#m0f3185e0d3" x="108.01" y="145.009698" style="stroke: #000000; stroke-width: 0.8"/>
      </g>
     </g>
     <g id="text_12">
      <!-- 10 -->
      <g transform="translate(73.015 153.367979)scale(0.22 -0.22)">
       <use xlink:href="#DejaVuSans-31"/>
       <use xlink:href="#DejaVuSans-30" x="63.623047"/>
      </g>
     </g>
    </g>
    <g id="ytick_4">
     <g id="line2d_23">
      <path d="M 108.01 51.694547 
L 897.84 51.694547 
" clip-path="url(#p1022244311)" style="fill: none; stroke-dasharray: 5.12,1.28,0.8,1.28; stroke-dashoffset: 0; stroke: #b0b0b0; stroke-width: 0.8"/>
     </g>
     <g id="line2d_24">
      <g>
       <use xlink:href="#m0f3185e0d3" x="108.01" y="51.694547" style="stroke: #000000; stroke-width: 0.8"/>
      </g>
     </g>
     <g id="text_13">
      <!-- 15 -->
      <g transform="translate(73.015 60.052829)scale(0.22 -0.22)">
       <use xlink:href="#DejaVuSans-31"/>
       <use xlink:href="#DejaVuSans-35" x="63.623047"/>
      </g>
     </g>
    </g>
    <g id="text_14">
     <!-- Throughput (Mbps) -->
     <g transform="translate(64.02375 292.414375)rotate(-90)scale(0.24 -0.24)">
      <defs>
       <path id="DejaVuSans-68" d="M 3513 2113 
L 3513 0 
L 2938 0 
L 2938 2094 
Q 2938 2591 2744 2837 
Q 2550 3084 2163 3084 
Q 1697 3084 1428 2787 
Q 1159 2491 1159 1978 
L 1159 0 
L 581 0 
L 581 4863 
L 1159 4863 
L 1159 2956 
Q 1366 3272 1645 3428 
Q 1925 3584 2291 3584 
Q 2894 3584 3203 3211 
Q 3513 2838 3513 2113 
z
" transform="scale(0.015625)"/>
       <path id="DejaVuSans-72" d="M 2631 2963 
Q 2534 3019 2420 3045 
Q 2306 3072 2169 3072 
Q 1681 3072 1420 2755 
Q 1159 2438 1159 1844 
L 1159 0 
L 581 0 
L 581 3500 
L 1159 3500 
L 1159 2956 
Q 1341 3275 1631 3429 
Q 1922 3584 2338 3584 
Q 2397 3584 2469 3576 
Q 2541 3569 2628 3553 
L 2631 2963 
z
" transform="scale(0.015625)"/>
       <path id="DejaVuSans-6f" d="M 1959 3097 
Q 1497 3097 1228 2736 
Q 959 2375 959 1747 
Q 959 1119 1226 758 
Q 1494 397 1959 397 
Q 2419 397 2687 759 
Q 2956 1122 2956 1747 
Q 2956 2369 2687 2733 
Q 2419 3097 1959 3097 
z
M 1959 3584 
Q 2709 3584 3137 3096 
Q 3566 2609 3566 1747 
Q 3566 888 3137 398 
Q 2709 -91 1959 -91 
Q 1206 -91 779 398 
Q 353 888 353 1747 
Q 353 2609 779 3096 
Q 1206 3584 1959 3584 
z
" transform="scale(0.015625)"/>
       <path id="DejaVuSans-75" d="M 544 1381 
L 544 3500 
L 1119 3500 
L 1119 1403 
Q 1119 906 1312 657 
Q 1506 409 1894 409 
Q 2359 409 2629 706 
Q 2900 1003 2900 1516 
L 2900 3500 
L 3475 3500 
L 3475 0 
L 2900 0 
L 2900 538 
Q 2691 219 2414 64 
Q 2138 -91 1772 -91 
Q 1169 -91 856 284 
Q 544 659 544 1381 
z
M 1991 3584 
L 1991 3584 
z
" transform="scale(0.015625)"/>
       <path id="DejaVuSans-67" d="M 2906 1791 
Q 2906 2416 2648 2759 
Q 2391 3103 1925 3103 
Q 1463 3103 1205 2759 
Q 947 2416 947 1791 
Q 947 1169 1205 825 
Q 1463 481 1925 481 
Q 2391 481 2648 825 
Q 2906 1169 2906 1791 
z
M 3481 434 
Q 3481 -459 3084 -895 
Q 2688 -1331 1869 -1331 
Q 1566 -1331 1297 -1286 
Q 1028 -1241 775 -1147 
L 775 -588 
Q 1028 -725 1275 -790 
Q 1522 -856 1778 -856 
Q 2344 -856 2625 -561 
Q 2906 -266 2906 331 
L 2906 616 
Q 2728 306 2450 153 
Q 2172 0 1784 0 
Q 1141 0 747 490 
Q 353 981 353 1791 
Q 353 2603 747 3093 
Q 1141 3584 1784 3584 
Q 2172 3584 2450 3431 
Q 2728 3278 2906 2969 
L 2906 3500 
L 3481 3500 
L 3481 434 
z
" transform="scale(0.015625)"/>
       <path id="DejaVuSans-70" d="M 1159 525 
L 1159 -1331 
L 581 -1331 
L 581 3500 
L 1159 3500 
L 1159 2969 
Q 1341 3281 1617 3432 
Q 1894 3584 2278 3584 
Q 2916 3584 3314 3078 
Q 3713 2572 3713 1747 
Q 3713 922 3314 415 
Q 2916 -91 2278 -91 
Q 1894 -91 1617 61 
Q 1341 213 1159 525 
z
M 3116 1747 
Q 3116 2381 2855 2742 
Q 2594 3103 2138 3103 
Q 1681 3103 1420 2742 
Q 1159 2381 1159 1747 
Q 1159 1113 1420 752 
Q 1681 391 2138 391 
Q 2594 391 2855 752 
Q 3116 1113 3116 1747 
z
" transform="scale(0.015625)"/>
       <path id="DejaVuSans-74" d="M 1172 4494 
L 1172 3500 
L 2356 3500 
L 2356 3053 
L 1172 3053 
L 1172 1153 
Q 1172 725 1289 603 
Q 1406 481 1766 481 
L 2356 481 
L 2356 0 
L 1766 0 
Q 1100 0 847 248 
Q 594 497 594 1153 
L 594 3053 
L 172 3053 
L 172 3500 
L 594 3500 
L 594 4494 
L 1172 4494 
z
" transform="scale(0.015625)"/>
       <path id="DejaVuSans-4d" d="M 628 4666 
L 1569 4666 
L 2759 1491 
L 3956 4666 
L 4897 4666 
L 4897 0 
L 4281 0 
L 4281 4097 
L 3078 897 
L 2444 897 
L 1241 4097 
L 1241 0 
L 628 0 
L 628 4666 
z
" transform="scale(0.015625)"/>
       <path id="DejaVuSans-62" d="M 3116 1747 
Q 3116 2381 2855 2742 
Q 2594 3103 2138 3103 
Q 1681 3103 1420 2742 
Q 1159 2381 1159 1747 
Q 1159 1113 1420 752 
Q 1681 391 2138 391 
Q 2594 391 2855 752 
Q 3116 1113 3116 1747 
z
M 1159 2969 
Q 1341 3281 1617 3432 
Q 1894 3584 2278 3584 
Q 2916 3584 3314 3078 
Q 3713 2572 3713 1747 
Q 3713 922 3314 415 
Q 2916 -91 2278 -91 
Q 1894 -91 1617 61 
Q 1341 213 1159 525 
L 1159 0 
L 581 0 
L 581 4863 
L 1159 4863 
L 1159 2969 
z
" transform="scale(0.015625)"/>
      </defs>
      <use xlink:href="#DejaVuSans-54"/>
      <use xlink:href="#DejaVuSans-68" x="61.083984"/>
      <use xlink:href="#DejaVuSans-72" x="124.462891"/>
      <use xlink:href="#DejaVuSans-6f" x="163.326172"/>
      <use xlink:href="#DejaVuSans-75" x="224.507812"/>
      <use xlink:href="#DejaVuSans-67" x="287.886719"/>
      <use xlink:href="#DejaVuSans-68" x="351.363281"/>
      <use xlink:href="#DejaVuSans-70" x="414.742188"/>
      <use xlink:href="#DejaVuSans-75" x="478.21875"/>
      <use xlink:href="#DejaVuSans-74" x="541.597656"/>
      <use xlink:href="#DejaVuSans-20" x="580.806641"/>
      <use xlink:href="#DejaVuSans-28" x="612.59375"/>
      <use xlink:href="#DejaVuSans-4d" x="651.607422"/>
      <use xlink:href="#DejaVuSans-62" x="737.886719"/>
      <use xlink:href="#DejaVuSans-70" x="801.363281"/>
      <use xlink:href="#DejaVuSans-73" x="864.839844"/>
      <use xlink:href="#DejaVuSans-29" x="916.939453"/>
     </g>
    </g>
   </g>
   <g id="patch_3">
    <path d="M 108.01 331.64 
L 108.01 23.76 
" style="fill: none; stroke: #000000; stroke-width: 0.8; stroke-linejoin: miter; stroke-linecap: square"/>
   </g>
   <g id="patch_4">
    <path d="M 897.84 331.64 
L 897.84 23.76 
" style="fill: none; stroke: #000000; stroke-width: 0.8; stroke-linejoin: miter; stroke-linecap: square"/>
   </g>
   <g id="patch_5">
    <path d="M 108.01 331.64 
L 897.84 331.64 
" style="fill: none; stroke: #000000; stroke-width: 0.8; stroke-linejoin: miter; stroke-linecap: square"/>
   </g>
   <g id="patch_6">
    <path d="M 108.01 23.76 
L 897.84 23.76 
" style="fill: none; stroke: #000000; stroke-width: 0.8; stroke-linejoin: miter; stroke-linecap: square"/>
   </g>
   <g id="legend_1">
    <g id="patch_7">
     <path d="M 756.24 148.6425 
L 881.04 148.6425 
Q 885.84 148.6425 885.84 143.8425 
L 885.84 40.56 
Q 885.84 35.76 881.04 35.76 
L 756.24 35.76 
Q 751.44 35.76 751.44 40.56 
L 751.44 143.8425 
Q 751.44 148.6425 756.24 148.6425 
z
" style="fill: #ffffff; opacity: 0.8; stroke: #cccccc; stroke-linejoin: miter"/>
    </g>
    <g id="patch_8">
     <path d="M 761.04 63.59625 
L 809.04 63.59625 
L 809.04 46.79625 
L 761.04 46.79625 
z
" style="fill: #1f77b4"/>
    </g>
    <g id="text_15">
     <!-- UE1 -->
     <g transform="translate(828.24 63.59625)scale(0.24 -0.24)">
      <defs>
       <path id="DejaVuSans-55" d="M 556 4666 
L 1191 4666 
L 1191 1831 
Q 1191 1081 1462 751 
Q 1734 422 2344 422 
Q 2950 422 3222 751 
Q 3494 1081 3494 1831 
L 3494 4666 
L 4128 4666 
L 4128 1753 
Q 4128 841 3676 375 
Q 3225 -91 2344 -91 
Q 1459 -91 1007 375 
Q 556 841 556 1753 
L 556 4666 
z
" transform="scale(0.015625)"/>
       <path id="DejaVuSans-45" d="M 628 4666 
L 3578 4666 
L 3578 4134 
L 1259 4134 
L 1259 2753 
L 3481 2753 
L 3481 2222 
L 1259 2222 
L 1259 531 
L 3634 531 
L 3634 0 
L 628 0 
L 628 4666 
z
" transform="scale(0.015625)"/>
      </defs>
      <use xlink:href="#DejaVuSans-55"/>
      <use xlink:href="#DejaVuSans-45" x="73.193359"/>
      <use xlink:href="#DejaVuSans-31" x="136.376953"/>
     </g>
    </g>
    <g id="patch_9">
     <path d="M 761.04 98.82375 
L 809.04 98.82375 
L 809.04 82.02375 
L 761.04 82.02375 
z
" style="fill: #ff7f0e"/>
    </g>
    <g id="text_16">
     <!-- UE2 -->
     <g transform="translate(828.24 98.82375)scale(0.24 -0.24)">
      <use xlink:href="#DejaVuSans-55"/>
      <use xlink:href="#DejaVuSans-45" x="73.193359"/>
      <use xlink:href="#DejaVuSans-32" x="136.376953"/>
     </g>
    </g>
    <g id="patch_10">
     <path d="M 761.04 134.05125 
L 809.04 134.05125 
L 809.04 117.25125 
L 761.04 117.25125 
z
" style="fill: #2ca02c"/>
    </g>
    <g id="text_17">
     <!-- UE3 -->
     <g transform="translate(828.24 134.05125)scale(0.24 -0.24)">
      <defs>
       <path id="DejaVuSans-33" d="M 2597 2516 
Q 3050 2419 3304 2112 
Q 3559 1806 3559 1356 
Q 3559 666 3084 287 
Q 2609 -91 1734 -91 
Q 1441 -91 1130 -33 
Q 819 25 488 141 
L 488 750 
Q 750 597 1062 519 
Q 1375 441 1716 441 
Q 2309 441 2620 675 
Q 2931 909 2931 1356 
Q 2931 1769 2642 2001 
Q 2353 2234 1838 2234 
L 1294 2234 
L 1294 2753 
L 1863 2753 
Q 2328 2753 2575 2939 
Q 2822 3125 2822 3475 
Q 2822 3834 2567 4026 
Q 2313 4219 1838 4219 
Q 1578 4219 1281 4162 
Q 984 4106 628 3988 
L 628 4550 
Q 988 4650 1302 4700 
Q 1616 4750 1894 4750 
Q 2613 4750 3031 4423 
Q 3450 4097 3450 3541 
Q 3450 3153 3228 2886 
Q 3006 2619 2597 2516 
z
" transform="scale(0.015625)"/>
      </defs>
      <use xlink:href="#DejaVuSans-55"/>
      <use xlink:href="#DejaVuSans-45" x="73.193359"/>
      <use xlink:href="#DejaVuSans-33" x="136.376953"/>
     </g>
    </g>
   </g>
  </g>
 </g>
 <defs>
  <clipPath id="p1022244311">
   <rect x="108.01" y="23.76" width="789.83" height="307.88"/>
  </clipPath>
 </defs>
</svg>
