<?xml version="1.0" encoding="utf-8" standalone="no"?>
<!DOCTYPE svg PUBLIC "-//W3C//DTD SVG 1.1//EN"
  "http://www.w3.org/Graphics/SVG/1.1/DTD/svg11.dtd">
<svg xmlns:xlink="http://www.w3.org/1999/xlink" width="921.6pt" height="410.4pt" viewBox="0 0 921.6 410.4" xmlns="http://www.w3.org/2000/svg" version="1.1">
 <metadata>
  <rdf:RDF xmlns:dc="http://purl.org/dc/elements/1.1/" xmlns:cc="http://creativecommons.org/ns#" xmlns:rdf="http://www.w3.org/1999/02/22-rdf-syntax-ns#">
   <cc:Work>
    <dc:type rdf:resource="http://purl.org/dc/dcmitype/StillImage"/>
    <dc:date>2023-04-11T17:42:49.590357</dc:date>
    <dc:format>image/svg+xml</dc:format>
    <dc:creator>
     <cc:Agent>
      <dc:title>Matplotlib v3.5.3, https://matplotlib.org/</dc:title>
     </cc:Agent>
    </dc:creator>
   </cc:Work>
  </rdf:RDF>
 </metadata>
 <defs>
  <style type="text/css">*{stroke-linejoin: round; stroke-linecap: butt}</style>
 </defs>
 <g id="figure_1">
  <g id="patch_1">
   <path d="M 0 410.4 
L 921.6 410.4 
L 921.6 0 
L 0 0 
L 0 410.4 
z
" style="fill: none"/>
  </g>
  <g id="axes_1">
   <g id="patch_2">
    <path d="M 86.885 331.64 
L 897.84 331.64 
L 897.84 25.220878 
L 86.885 25.220878 
z
" style="fill: #ffffff"/>
   </g>
   <g id="PolyCollection_1">
    <path d="M 123.746591 144.390325 
L 123.746591 331.64 
L 127.865204 331.64 
L 131.983818 331.64 
L 136.102431 331.64 
L 140.221045 331.64 
L 144.339658 331.64 
L 148.458272 331.64 
L 152.576885 331.64 
L 156.695499 331.64 
L 160.814112 331.64 
L 164.932726 331.64 
L 169.05134 331.64 
L 173.169953 331.64 
L 177.288567 331.64 
L 181.40718 331.64 
L 185.525794 331.64 
L 189.644407 331.64 
L 193.763021 331.64 
L 197.881634 331.64 
L 202.000248 331.64 
L 206.118861 331.64 
L 210.237475 331.64 
L 214.356088 331.64 
L 218.474702 331.64 
L 222.593315 331.64 
L 226.711929 331.64 
L 230.830542 331.64 
L 234.949156 331.64 
L 239.067769 331.64 
L 243.186383 331.64 
L 247.304996 331.64 
L 251.42361 331.64 
L 255.542223 331.64 
L 259.660837 331.64 
L 263.77945 331.64 
L 267.898064 331.64 
L 272.016677 331.64 
L 276.135291 331.64 
L 280.253904 331.64 
L 284.372518 331.64 
L 288.491131 331.64 
L 292.609745 331.64 
L 296.728358 331.64 
L 300.846972 331.64 
L 304.965585 331.64 
L 309.084199 331.64 
L 313.202812 331.64 
L 317.321426 331.64 
L 321.440039 331.64 
L 325.558653 331.64 
L 329.677266 331.64 
L 333.79588 331.64 
L 337.914493 331.64 
L 342.033107 331.64 
L 346.15172 331.64 
L 350.270334 331.64 
L 354.388947 331.64 
L 358.507561 331.64 
L 362.626174 331.64 
L 366.744788 331.64 
L 370.863401 331.64 
L 374.982015 331.64 
L 379.100628 331.64 
L 383.219242 331.64 
L 387.337856 331.64 
L 391.456469 331.64 
L 395.575083 331.64 
L 399.693696 331.64 
L 403.81231 331.64 
L 407.930923 331.64 
L 412.049537 331.64 
L 416.16815 331.64 
L 420.286764 331.64 
L 424.405377 331.64 
L 428.523991 331.64 
L 432.642604 331.64 
L 436.761218 331.64 
L 440.879831 331.64 
L 444.998445 331.64 
L 449.117058 331.64 
L 453.235672 331.64 
L 457.354285 331.64 
L 461.472899 331.64 
L 465.591512 331.64 
L 469.710126 331.64 
L 473.828739 331.64 
L 477.947353 331.64 
L 482.065966 331.64 
L 486.18458 331.64 
L 490.303193 331.64 
L 494.421807 331.64 
L 498.54042 331.64 
L 502.659034 331.64 
L 506.777647 331.64 
L 510.896261 331.64 
L 515.014874 331.64 
L 519.133488 331.64 
L 523.252101 331.64 
L 527.370715 331.64 
L 531.489328 331.64 
L 535.607942 331.64 
L 539.726555 331.64 
L 543.845169 331.64 
L 547.963782 331.64 
L 552.082396 331.64 
L 556.201009 331.64 
L 560.319623 331.64 
L 564.438236 331.64 
L 568.55685 331.64 
L 572.675463 331.64 
L 576.794077 331.64 
L 580.91269 331.64 
L 585.031304 331.64 
L 589.149917 331.64 
L 593.268531 331.64 
L 597.387144 331.64 
L 601.505758 331.64 
L 605.624372 331.64 
L 609.742985 331.64 
L 613.861599 331.64 
L 617.980212 331.64 
L 622.098826 331.64 
L 626.217439 331.64 
L 630.336053 331.64 
L 634.454666 331.64 
L 638.57328 331.64 
L 642.691893 331.64 
L 646.810507 331.64 
L 650.92912 331.64 
L 655.047734 331.64 
L 659.166347 331.64 
L 663.284961 331.64 
L 667.403574 331.64 
L 671.522188 331.64 
L 675.640801 331.64 
L 679.759415 331.64 
L 683.878028 331.64 
L 687.996642 331.64 
L 692.115255 331.64 
L 696.233869 331.64 
L 700.352482 331.64 
L 704.471096 331.64 
L 708.589709 331.64 
L 712.708323 331.64 
L 716.826936 331.64 
L 720.94555 331.64 
L 725.064163 331.64 
L 729.182777 331.64 
L 733.30139 331.64 
L 737.420004 331.64 
L 741.538617 331.64 
L 745.657231 331.64 
L 749.775844 331.64 
L 753.894458 331.64 
L 758.013071 331.64 
L 762.131685 331.64 
L 766.250298 331.64 
L 770.368912 331.64 
L 774.487525 331.64 
L 778.606139 331.64 
L 782.724752 331.64 
L 786.843366 331.64 
L 790.961979 331.64 
L 795.080593 331.64 
L 799.199206 331.64 
L 803.31782 331.64 
L 807.436433 331.64 
L 811.555047 331.64 
L 815.67366 331.64 
L 819.792274 331.64 
L 823.910888 331.64 
L 828.029501 331.64 
L 832.148115 331.64 
L 836.266728 331.64 
L 840.385342 331.64 
L 844.503955 331.64 
L 848.622569 331.64 
L 852.741182 331.64 
L 856.859796 331.64 
L 860.978409 331.64 
L 860.978409 110.336684 
L 860.978409 110.336684 
L 856.859796 109.874277 
L 852.741182 109.866838 
L 848.622569 109.871718 
L 844.503955 114.612966 
L 840.385342 109.931228 
L 836.266728 112.56681 
L 832.148115 113.677834 
L 828.029501 111.457386 
L 823.910888 111.924432 
L 819.792274 112.901797 
L 815.67366 109.887155 
L 811.555047 110.511936 
L 807.436433 109.883396 
L 803.31782 110.515776 
L 799.199206 109.92147 
L 795.080593 122.192484 
L 790.961979 111.460346 
L 786.843366 112.393478 
L 782.724752 113.021858 
L 778.606139 109.924509 
L 774.487525 109.885396 
L 770.368912 109.881396 
L 766.250298 109.881716 
L 762.131685 109.879876 
L 758.013071 109.927069 
L 753.894458 109.873317 
L 749.775844 109.874757 
L 745.657231 120.793026 
L 741.538617 112.725665 
L 737.420004 110.352122 
L 733.30139 111.629119 
L 729.182777 109.880756 
L 725.064163 111.036893 
L 720.94555 109.875557 
L 716.826936 109.868838 
L 712.708323 109.876997 
L 708.589709 113.036816 
L 704.471096 115.717031 
L 700.352482 110.333484 
L 696.233869 109.869078 
L 692.115255 111.274615 
L 687.996642 113.19951 
L 683.878028 110.520415 
L 679.759415 109.979701 
L 675.640801 123.643534 
L 671.522188 110.80605 
L 667.403574 109.876597 
L 663.284961 109.873557 
L 659.166347 109.880436 
L 655.047734 114.142881 
L 650.92912 110.574646 
L 646.810507 109.92147 
L 642.691893 109.91947 
L 638.57328 112.022817 
L 634.454666 114.316933 
L 630.336053 110.519775 
L 626.217439 112.097925 
L 622.098826 111.789974 
L 617.980212 109.877237 
L 613.861599 119.514509 
L 609.742985 112.388759 
L 605.624372 110.813008 
L 601.505758 109.875717 
L 597.387144 109.872598 
L 593.268531 113.493943 
L 589.149917 112.384039 
L 585.031304 117.11329 
L 580.91269 111.62264 
L 576.794077 111.919873 
L 572.675463 109.870198 
L 568.55685 109.879476 
L 564.438236 120.95972 
L 560.319623 109.879476 
L 556.201009 110.098162 
L 552.082396 110.151513 
L 547.963782 110.513136 
L 543.845169 110.74254 
L 539.726555 110.185508 
L 535.607942 109.879956 
L 531.489328 109.954265 
L 527.370715 110.571447 
L 523.252101 109.879077 
L 519.133488 110.527374 
L 515.014874 109.877957 
L 510.896261 111.059049 
L 506.777647 113.07625 
L 502.659034 110.80493 
L 498.54042 113.385161 
L 494.421807 111.151275 
L 490.303193 110.394995 
L 486.18458 110.570967 
L 482.065966 109.874917 
L 477.947353 56.198627 
L 473.828739 40.404651 
L 469.710126 40.998636 
L 465.591512 40.401051 
L 461.472899 39.58774 
L 457.354285 54.561046 
L 453.235672 96.261395 
L 449.117058 110.520655 
L 444.998445 109.877237 
L 440.879831 109.873237 
L 436.761218 109.877717 
L 432.642604 109.876677 
L 428.523991 109.875397 
L 424.405377 109.877957 
L 420.286764 111.159833 
L 416.16815 109.864359 
L 412.049537 109.871638 
L 407.930923 109.873557 
L 403.81231 109.868758 
L 399.693696 110.517855 
L 395.575083 112.615843 
L 391.456469 110.523454 
L 387.337856 111.62496 
L 383.219242 109.930268 
L 379.100628 109.872598 
L 374.982015 111.212945 
L 370.863401 109.880596 
L 366.744788 109.931068 
L 362.626174 110.576726 
L 358.507561 110.987701 
L 354.388947 120.620254 
L 350.270334 116.347651 
L 346.15172 111.032174 
L 342.033107 109.871718 
L 337.914493 110.818928 
L 333.79588 110.518095 
L 329.677266 109.881396 
L 325.558653 110.99378 
L 321.440039 111.200787 
L 317.321426 110.522255 
L 313.202812 110.517695 
L 309.084199 111.629759 
L 304.965585 111.040652 
L 300.846972 110.512976 
L 296.728358 110.976183 
L 292.609745 111.62384 
L 288.491131 110.510976 
L 284.372518 110.514976 
L 280.253904 110.336124 
L 276.135291 111.160713 
L 272.016677 111.159913 
L 267.898064 109.935868 
L 263.77945 110.350442 
L 259.660837 111.608002 
L 255.542223 111.161433 
L 251.42361 111.163033 
L 247.304996 111.630079 
L 243.186383 109.879876 
L 239.067769 109.870118 
L 234.949156 109.881716 
L 230.830542 111.039213 
L 226.711929 110.342683 
L 222.593315 109.868118 
L 218.474702 109.976501 
L 214.356088 110.974423 
L 210.237475 111.617041 
L 206.118861 110.391315 
L 202.000248 111.794933 
L 197.881634 111.035213 
L 193.763021 111.160953 
L 189.644407 111.341405 
L 185.525794 110.984421 
L 181.40718 110.561208 
L 177.288567 110.99258 
L 173.169953 110.515296 
L 169.05134 109.877397 
L 164.932726 111.157034 
L 160.814112 110.337564 
L 156.695499 110.345083 
L 152.576885 111.801092 
L 148.458272 109.876917 
L 144.339658 110.817408 
L 140.221045 112.271737 
L 136.102431 110.525854 
L 131.983818 119.279906 
L 127.865204 109.908832 
L 123.746591 144.390325 
z
" clip-path="url(#pb2d33e8b63)" style="fill: #1f77b4"/>
   </g>
   <g id="matplotlib.axis_1">
    <g id="xtick_1">
     <g id="line2d_1">
      <path d="M 123.746591 331.64 
L 123.746591 25.220878 
" clip-path="url(#pb2d33e8b63)" style="fill: none; stroke-dasharray: 5.12,1.28,0.8,1.28; stroke-dashoffset: 0; stroke: #b0b0b0; stroke-width: 0.8"/>
     </g>
     <g id="line2d_2">
      <defs>
       <path id="m484a452129" d="M 0 0 
L 0 3.5 
" style="stroke: #000000; stroke-width: 0.8"/>
      </defs>
      <g>
       <use xlink:href="#m484a452129" x="123.746591" y="331.64" style="stroke: #000000; stroke-width: 0.8"/>
      </g>
     </g>
     <g id="text_1">
      <!-- 0 -->
      <g transform="translate(116.747841 355.356563)scale(0.22 -0.22)">
       <defs>
        <path id="DejaVuSans-30" d="M 2034 4250 
Q 1547 4250 1301 3770 
Q 1056 3291 1056 2328 
Q 1056 1369 1301 889 
Q 1547 409 2034 409 
Q 2525 409 2770 889 
Q 3016 1369 3016 2328 
Q 3016 3291 2770 3770 
Q 2525 4250 2034 4250 
z
M 2034 4750 
Q 2819 4750 3233 4129 
Q 3647 3509 3647 2328 
Q 3647 1150 3233 529 
Q 2819 -91 2034 -91 
Q 1250 -91 836 529 
Q 422 1150 422 2328 
Q 422 3509 836 4129 
Q 1250 4750 2034 4750 
z
" transform="scale(0.015625)"/>
       </defs>
       <use xlink:href="#DejaVuSans-30"/>
      </g>
     </g>
    </g>
    <g id="xtick_2">
     <g id="line2d_3">
      <path d="M 226.711929 331.64 
L 226.711929 25.220878 
" clip-path="url(#pb2d33e8b63)" style="fill: none; stroke-dasharray: 5.12,1.28,0.8,1.28; stroke-dashoffset: 0; stroke: #b0b0b0; stroke-width: 0.8"/>
     </g>
     <g id="line2d_4">
      <g>
       <use xlink:href="#m484a452129" x="226.711929" y="331.64" style="stroke: #000000; stroke-width: 0.8"/>
      </g>
     </g>
     <g id="text_2">
      <!-- 25 -->
      <g transform="translate(212.714429 355.356563)scale(0.22 -0.22)">
       <defs>
        <path id="DejaVuSans-32" d="M 1228 531 
L 3431 531 
L 3431 0 
L 469 0 
L 469 531 
Q 828 903 1448 1529 
Q 2069 2156 2228 2338 
Q 2531 2678 2651 2914 
Q 2772 3150 2772 3378 
Q 2772 3750 2511 3984 
Q 2250 4219 1831 4219 
Q 1534 4219 1204 4116 
Q 875 4013 500 3803 
L 500 4441 
Q 881 4594 1212 4672 
Q 1544 4750 1819 4750 
Q 2544 4750 2975 4387 
Q 3406 4025 3406 3419 
Q 3406 3131 3298 2873 
Q 3191 2616 2906 2266 
Q 2828 2175 2409 1742 
Q 1991 1309 1228 531 
z
" transform="scale(0.015625)"/>
        <path id="DejaVuSans-35" d="M 691 4666 
L 3169 4666 
L 3169 4134 
L 1269 4134 
L 1269 2991 
Q 1406 3038 1543 3061 
Q 1681 3084 1819 3084 
Q 2600 3084 3056 2656 
Q 3513 2228 3513 1497 
Q 3513 744 3044 326 
Q 2575 -91 1722 -91 
Q 1428 -91 1123 -41 
Q 819 9 494 109 
L 494 744 
Q 775 591 1075 516 
Q 1375 441 1709 441 
Q 2250 441 2565 725 
Q 2881 1009 2881 1497 
Q 2881 1984 2565 2268 
Q 2250 2553 1709 2553 
Q 1456 2553 1204 2497 
Q 953 2441 691 2322 
L 691 4666 
z
" transform="scale(0.015625)"/>
       </defs>
       <use xlink:href="#DejaVuSans-32"/>
       <use xlink:href="#DejaVuSans-35" x="63.623047"/>
      </g>
     </g>
    </g>
    <g id="xtick_3">
     <g id="line2d_5">
      <path d="M 329.677266 331.64 
L 329.677266 25.220878 
" clip-path="url(#pb2d33e8b63)" style="fill: none; stroke-dasharray: 5.12,1.28,0.8,1.28; stroke-dashoffset: 0; stroke: #b0b0b0; stroke-width: 0.8"/>
     </g>
     <g id="line2d_6">
      <g>
       <use xlink:href="#m484a452129" x="329.677266" y="331.64" style="stroke: #000000; stroke-width: 0.8"/>
      </g>
     </g>
     <g id="text_3">
      <!-- 50 -->
      <g transform="translate(315.679766 355.356563)scale(0.22 -0.22)">
       <use xlink:href="#DejaVuSans-35"/>
       <use xlink:href="#DejaVuSans-30" x="63.623047"/>
      </g>
     </g>
    </g>
    <g id="xtick_4">
     <g id="line2d_7">
      <path d="M 432.642604 331.64 
L 432.642604 25.220878 
" clip-path="url(#pb2d33e8b63)" style="fill: none; stroke-dasharray: 5.12,1.28,0.8,1.28; stroke-dashoffset: 0; stroke: #b0b0b0; stroke-width: 0.8"/>
     </g>
     <g id="line2d_8">
      <g>
       <use xlink:href="#m484a452129" x="432.642604" y="331.64" style="stroke: #000000; stroke-width: 0.8"/>
      </g>
     </g>
     <g id="text_4">
      <!-- 75 -->
      <g transform="translate(418.645104 355.356563)scale(0.22 -0.22)">
       <defs>
        <path id="DejaVuSans-37" d="M 525 4666 
L 3525 4666 
L 3525 4397 
L 1831 0 
L 1172 0 
L 2766 4134 
L 525 4134 
L 525 4666 
z
" transform="scale(0.015625)"/>
       </defs>
       <use xlink:href="#DejaVuSans-37"/>
       <use xlink:href="#DejaVuSans-35" x="63.623047"/>
      </g>
     </g>
    </g>
    <g id="xtick_5">
     <g id="line2d_9">
      <path d="M 535.607942 331.64 
L 535.607942 25.220878 
" clip-path="url(#pb2d33e8b63)" style="fill: none; stroke-dasharray: 5.12,1.28,0.8,1.28; stroke-dashoffset: 0; stroke: #b0b0b0; stroke-width: 0.8"/>
     </g>
     <g id="line2d_10">
      <g>
       <use xlink:href="#m484a452129" x="535.607942" y="331.64" style="stroke: #000000; stroke-width: 0.8"/>
      </g>
     </g>
     <g id="text_5">
      <!-- 100 -->
      <g transform="translate(514.611692 355.356563)scale(0.22 -0.22)">
       <defs>
        <path id="DejaVuSans-31" d="M 794 531 
L 1825 531 
L 1825 4091 
L 703 3866 
L 703 4441 
L 1819 4666 
L 2450 4666 
L 2450 531 
L 3481 531 
L 3481 0 
L 794 0 
L 794 531 
z
" transform="scale(0.015625)"/>
       </defs>
       <use xlink:href="#DejaVuSans-31"/>
       <use xlink:href="#DejaVuSans-30" x="63.623047"/>
       <use xlink:href="#DejaVuSans-30" x="127.246094"/>
      </g>
     </g>
    </g>
    <g id="xtick_6">
     <g id="line2d_11">
      <path d="M 638.57328 331.64 
L 638.57328 25.220878 
" clip-path="url(#pb2d33e8b63)" style="fill: none; stroke-dasharray: 5.12,1.28,0.8,1.28; stroke-dashoffset: 0; stroke: #b0b0b0; stroke-width: 0.8"/>
     </g>
     <g id="line2d_12">
      <g>
       <use xlink:href="#m484a452129" x="638.57328" y="331.64" style="stroke: #000000; stroke-width: 0.8"/>
      </g>
     </g>
     <g id="text_6">
      <!-- 125 -->
      <g transform="translate(617.57703 355.356563)scale(0.22 -0.22)">
       <use xlink:href="#DejaVuSans-31"/>
       <use xlink:href="#DejaVuSans-32" x="63.623047"/>
       <use xlink:href="#DejaVuSans-35" x="127.246094"/>
      </g>
     </g>
    </g>
    <g id="xtick_7">
     <g id="line2d_13">
      <path d="M 741.538617 331.64 
L 741.538617 25.220878 
" clip-path="url(#pb2d33e8b63)" style="fill: none; stroke-dasharray: 5.12,1.28,0.8,1.28; stroke-dashoffset: 0; stroke: #b0b0b0; stroke-width: 0.8"/>
     </g>
     <g id="line2d_14">
      <g>
       <use xlink:href="#m484a452129" x="741.538617" y="331.64" style="stroke: #000000; stroke-width: 0.8"/>
      </g>
     </g>
     <g id="text_7">
      <!-- 150 -->
      <g transform="translate(720.542367 355.356563)scale(0.22 -0.22)">
       <use xlink:href="#DejaVuSans-31"/>
       <use xlink:href="#DejaVuSans-35" x="63.623047"/>
       <use xlink:href="#DejaVuSans-30" x="127.246094"/>
      </g>
     </g>
    </g>
    <g id="xtick_8">
     <g id="line2d_15">
      <path d="M 844.503955 331.64 
L 844.503955 25.220878 
" clip-path="url(#pb2d33e8b63)" style="fill: none; stroke-dasharray: 5.12,1.28,0.8,1.28; stroke-dashoffset: 0; stroke: #b0b0b0; stroke-width: 0.8"/>
     </g>
     <g id="line2d_16">
      <g>
       <use xlink:href="#m484a452129" x="844.503955" y="331.64" style="stroke: #000000; stroke-width: 0.8"/>
      </g>
     </g>
     <g id="text_8">
      <!-- 175 -->
      <g transform="translate(823.507705 355.356563)scale(0.22 -0.22)">
       <use xlink:href="#DejaVuSans-31"/>
       <use xlink:href="#DejaVuSans-37" x="63.623047"/>
       <use xlink:href="#DejaVuSans-35" x="127.246094"/>
      </g>
     </g>
    </g>
    <g id="text_9">
     <!-- Time (s) -->
     <g transform="translate(443.573125 382.168125)scale(0.24 -0.24)">
      <defs>
       <path id="DejaVuSans-54" d="M -19 4666 
L 3928 4666 
L 3928 4134 
L 2272 4134 
L 2272 0 
L 1638 0 
L 1638 4134 
L -19 4134 
L -19 4666 
z
" transform="scale(0.015625)"/>
       <path id="DejaVuSans-69" d="M 603 3500 
L 1178 3500 
L 1178 0 
L 603 0 
L 603 3500 
z
M 603 4863 
L 1178 4863 
L 1178 4134 
L 603 4134 
L 603 4863 
z
" transform="scale(0.015625)"/>
       <path id="DejaVuSans-6d" d="M 3328 2828 
Q 3544 3216 3844 3400 
Q 4144 3584 4550 3584 
Q 5097 3584 5394 3201 
Q 5691 2819 5691 2113 
L 5691 0 
L 5113 0 
L 5113 2094 
Q 5113 2597 4934 2840 
Q 4756 3084 4391 3084 
Q 3944 3084 3684 2787 
Q 3425 2491 3425 1978 
L 3425 0 
L 2847 0 
L 2847 2094 
Q 2847 2600 2669 2842 
Q 2491 3084 2119 3084 
Q 1678 3084 1418 2786 
Q 1159 2488 1159 1978 
L 1159 0 
L 581 0 
L 581 3500 
L 1159 3500 
L 1159 2956 
Q 1356 3278 1631 3431 
Q 1906 3584 2284 3584 
Q 2666 3584 2933 3390 
Q 3200 3197 3328 2828 
z
" transform="scale(0.015625)"/>
       <path id="DejaVuSans-65" d="M 3597 1894 
L 3597 1613 
L 953 1613 
Q 991 1019 1311 708 
Q 1631 397 2203 397 
Q 2534 397 2845 478 
Q 3156 559 3463 722 
L 3463 178 
Q 3153 47 2828 -22 
Q 2503 -91 2169 -91 
Q 1331 -91 842 396 
Q 353 884 353 1716 
Q 353 2575 817 3079 
Q 1281 3584 2069 3584 
Q 2775 3584 3186 3129 
Q 3597 2675 3597 1894 
z
M 3022 2063 
Q 3016 2534 2758 2815 
Q 2500 3097 2075 3097 
Q 1594 3097 1305 2825 
Q 1016 2553 972 2059 
L 3022 2063 
z
" transform="scale(0.015625)"/>
       <path id="DejaVuSans-20" transform="scale(0.015625)"/>
       <path id="DejaVuSans-28" d="M 1984 4856 
Q 1566 4138 1362 3434 
Q 1159 2731 1159 2009 
Q 1159 1288 1364 580 
Q 1569 -128 1984 -844 
L 1484 -844 
Q 1016 -109 783 600 
Q 550 1309 550 2009 
Q 550 2706 781 3412 
Q 1013 4119 1484 4856 
L 1984 4856 
z
" transform="scale(0.015625)"/>
       <path id="DejaVuSans-73" d="M 2834 3397 
L 2834 2853 
Q 2591 2978 2328 3040 
Q 2066 3103 1784 3103 
Q 1356 3103 1142 2972 
Q 928 2841 928 2578 
Q 928 2378 1081 2264 
Q 1234 2150 1697 2047 
L 1894 2003 
Q 2506 1872 2764 1633 
Q 3022 1394 3022 966 
Q 3022 478 2636 193 
Q 2250 -91 1575 -91 
Q 1294 -91 989 -36 
Q 684 19 347 128 
L 347 722 
Q 666 556 975 473 
Q 1284 391 1588 391 
Q 1994 391 2212 530 
Q 2431 669 2431 922 
Q 2431 1156 2273 1281 
Q 2116 1406 1581 1522 
L 1381 1569 
Q 847 1681 609 1914 
Q 372 2147 372 2553 
Q 372 3047 722 3315 
Q 1072 3584 1716 3584 
Q 2034 3584 2315 3537 
Q 2597 3491 2834 3397 
z
" transform="scale(0.015625)"/>
       <path id="DejaVuSans-29" d="M 513 4856 
L 1013 4856 
Q 1481 4119 1714 3412 
Q 1947 2706 1947 2009 
Q 1947 1309 1714 600 
Q 1481 -109 1013 -844 
L 513 -844 
Q 928 -128 1133 580 
Q 1338 1288 1338 2009 
Q 1338 2731 1133 3434 
Q 928 4138 513 4856 
z
" transform="scale(0.015625)"/>
      </defs>
      <use xlink:href="#DejaVuSans-54"/>
      <use xlink:href="#DejaVuSans-69" x="57.958984"/>
      <use xlink:href="#DejaVuSans-6d" x="85.742188"/>
      <use xlink:href="#DejaVuSans-65" x="183.154297"/>
      <use xlink:href="#DejaVuSans-20" x="244.677734"/>
      <use xlink:href="#DejaVuSans-28" x="276.464844"/>
      <use xlink:href="#DejaVuSans-73" x="315.478516"/>
      <use xlink:href="#DejaVuSans-29" x="367.578125"/>
     </g>
    </g>
   </g>
   <g id="matplotlib.axis_2">
    <g id="ytick_1">
     <g id="line2d_17">
      <path d="M 86.885 331.64 
L 897.84 331.64 
" clip-path="url(#pb2d33e8b63)" style="fill: none; stroke-dasharray: 5.12,1.28,0.8,1.28; stroke-dashoffset: 0; stroke: #b0b0b0; stroke-width: 0.8"/>
     </g>
     <g id="line2d_18">
      <defs>
       <path id="m1cbb2000de" d="M 0 0 
L -3.5 0 
" style="stroke: #000000; stroke-width: 0.8"/>
      </defs>
      <g>
       <use xlink:href="#m1cbb2000de" x="86.885" y="331.64" style="stroke: #000000; stroke-width: 0.8"/>
      </g>
     </g>
     <g id="text_10">
      <!-- 0 -->
      <g transform="translate(65.8875 339.998281)scale(0.22 -0.22)">
       <use xlink:href="#DejaVuSans-30"/>
      </g>
     </g>
    </g>
    <g id="ytick_2">
     <g id="line2d_19">
      <path d="M 86.885 231.655851 
L 897.84 231.655851 
" clip-path="url(#pb2d33e8b63)" style="fill: none; stroke-dasharray: 5.12,1.28,0.8,1.28; stroke-dashoffset: 0; stroke: #b0b0b0; stroke-width: 0.8"/>
     </g>
     <g id="line2d_20">
      <g>
       <use xlink:href="#m1cbb2000de" x="86.885" y="231.655851" style="stroke: #000000; stroke-width: 0.8"/>
      </g>
     </g>
     <g id="text_11">
      <!-- 10 -->
      <g transform="translate(51.89 240.014132)scale(0.22 -0.22)">
       <use xlink:href="#DejaVuSans-31"/>
       <use xlink:href="#DejaVuSans-30" x="63.623047"/>
      </g>
     </g>
    </g>
    <g id="ytick_3">
     <g id="line2d_21">
      <path d="M 86.885 131.671702 
L 897.84 131.671702 
" clip-path="url(#pb2d33e8b63)" style="fill: none; stroke-dasharray: 5.12,1.28,0.8,1.28; stroke-dashoffset: 0; stroke: #b0b0b0; stroke-width: 0.8"/>
     </g>
     <g id="line2d_22">
      <g>
       <use xlink:href="#m1cbb2000de" x="86.885" y="131.671702" style="stroke: #000000; stroke-width: 0.8"/>
      </g>
     </g>
     <g id="text_12">
      <!-- 20 -->
      <g transform="translate(51.89 140.029983)scale(0.22 -0.22)">
       <use xlink:href="#DejaVuSans-32"/>
       <use xlink:href="#DejaVuSans-30" x="63.623047"/>
      </g>
     </g>
    </g>
    <g id="ytick_4">
     <g id="line2d_23">
      <path d="M 86.885 31.687552 
L 897.84 31.687552 
" clip-path="url(#pb2d33e8b63)" style="fill: none; stroke-dasharray: 5.12,1.28,0.8,1.28; stroke-dashoffset: 0; stroke: #b0b0b0; stroke-width: 0.8"/>
     </g>
     <g id="line2d_24">
      <g>
       <use xlink:href="#m1cbb2000de" x="86.885" y="31.687552" style="stroke: #000000; stroke-width: 0.8"/>
      </g>
     </g>
     <g id="text_13">
      <!-- 30 -->
      <g transform="translate(51.89 40.045834)scale(0.22 -0.22)">
       <defs>
        <path id="DejaVuSans-33" d="M 2597 2516 
Q 3050 2419 3304 2112 
Q 3559 1806 3559 1356 
Q 3559 666 3084 287 
Q 2609 -91 1734 -91 
Q 1441 -91 1130 -33 
Q 819 25 488 141 
L 488 750 
Q 750 597 1062 519 
Q 1375 441 1716 441 
Q 2309 441 2620 675 
Q 2931 909 2931 1356 
Q 2931 1769 2642 2001 
Q 2353 2234 1838 2234 
L 1294 2234 
L 1294 2753 
L 1863 2753 
Q 2328 2753 2575 2939 
Q 2822 3125 2822 3475 
Q 2822 3834 2567 4026 
Q 2313 4219 1838 4219 
Q 1578 4219 1281 4162 
Q 984 4106 628 3988 
L 628 4550 
Q 988 4650 1302 4700 
Q 1616 4750 1894 4750 
Q 2613 4750 3031 4423 
Q 3450 4097 3450 3541 
Q 3450 3153 3228 2886 
Q 3006 2619 2597 2516 
z
" transform="scale(0.015625)"/>
       </defs>
       <use xlink:href="#DejaVuSans-33"/>
       <use xlink:href="#DejaVuSans-30" x="63.623047"/>
      </g>
     </g>
    </g>
    <g id="text_14">
     <!-- Throughput (Mbps) -->
     <g transform="translate(42.89875 293.144814)rotate(-90)scale(0.24 -0.24)">
      <defs>
       <path id="DejaVuSans-68" d="M 3513 2113 
L 3513 0 
L 2938 0 
L 2938 2094 
Q 2938 2591 2744 2837 
Q 2550 3084 2163 3084 
Q 1697 3084 1428 2787 
Q 1159 2491 1159 1978 
L 1159 0 
L 581 0 
L 581 4863 
L 1159 4863 
L 1159 2956 
Q 1366 3272 1645 3428 
Q 1925 3584 2291 3584 
Q 2894 3584 3203 3211 
Q 3513 2838 3513 2113 
z
" transform="scale(0.015625)"/>
       <path id="DejaVuSans-72" d="M 2631 2963 
Q 2534 3019 2420 3045 
Q 2306 3072 2169 3072 
Q 1681 3072 1420 2755 
Q 1159 2438 1159 1844 
L 1159 0 
L 581 0 
L 581 3500 
L 1159 3500 
L 1159 2956 
Q 1341 3275 1631 3429 
Q 1922 3584 2338 3584 
Q 2397 3584 2469 3576 
Q 2541 3569 2628 3553 
L 2631 2963 
z
" transform="scale(0.015625)"/>
       <path id="DejaVuSans-6f" d="M 1959 3097 
Q 1497 3097 1228 2736 
Q 959 2375 959 1747 
Q 959 1119 1226 758 
Q 1494 397 1959 397 
Q 2419 397 2687 759 
Q 2956 1122 2956 1747 
Q 2956 2369 2687 2733 
Q 2419 3097 1959 3097 
z
M 1959 3584 
Q 2709 3584 3137 3096 
Q 3566 2609 3566 1747 
Q 3566 888 3137 398 
Q 2709 -91 1959 -91 
Q 1206 -91 779 398 
Q 353 888 353 1747 
Q 353 2609 779 3096 
Q 1206 3584 1959 3584 
z
" transform="scale(0.015625)"/>
       <path id="DejaVuSans-75" d="M 544 1381 
L 544 3500 
L 1119 3500 
L 1119 1403 
Q 1119 906 1312 657 
Q 1506 409 1894 409 
Q 2359 409 2629 706 
Q 2900 1003 2900 1516 
L 2900 3500 
L 3475 3500 
L 3475 0 
L 2900 0 
L 2900 538 
Q 2691 219 2414 64 
Q 2138 -91 1772 -91 
Q 1169 -91 856 284 
Q 544 659 544 1381 
z
M 1991 3584 
L 1991 3584 
z
" transform="scale(0.015625)"/>
       <path id="DejaVuSans-67" d="M 2906 1791 
Q 2906 2416 2648 2759 
Q 2391 3103 1925 3103 
Q 1463 3103 1205 2759 
Q 947 2416 947 1791 
Q 947 1169 1205 825 
Q 1463 481 1925 481 
Q 2391 481 2648 825 
Q 2906 1169 2906 1791 
z
M 3481 434 
Q 3481 -459 3084 -895 
Q 2688 -1331 1869 -1331 
Q 1566 -1331 1297 -1286 
Q 1028 -1241 775 -1147 
L 775 -588 
Q 1028 -725 1275 -790 
Q 1522 -856 1778 -856 
Q 2344 -856 2625 -561 
Q 2906 -266 2906 331 
L 2906 616 
Q 2728 306 2450 153 
Q 2172 0 1784 0 
Q 1141 0 747 490 
Q 353 981 353 1791 
Q 353 2603 747 3093 
Q 1141 3584 1784 3584 
Q 2172 3584 2450 3431 
Q 2728 3278 2906 2969 
L 2906 3500 
L 3481 3500 
L 3481 434 
z
" transform="scale(0.015625)"/>
       <path id="DejaVuSans-70" d="M 1159 525 
L 1159 -1331 
L 581 -1331 
L 581 3500 
L 1159 3500 
L 1159 2969 
Q 1341 3281 1617 3432 
Q 1894 3584 2278 3584 
Q 2916 3584 3314 3078 
Q 3713 2572 3713 1747 
Q 3713 922 3314 415 
Q 2916 -91 2278 -91 
Q 1894 -91 1617 61 
Q 1341 213 1159 525 
z
M 3116 1747 
Q 3116 2381 2855 2742 
Q 2594 3103 2138 3103 
Q 1681 3103 1420 2742 
Q 1159 2381 1159 1747 
Q 1159 1113 1420 752 
Q 1681 391 2138 391 
Q 2594 391 2855 752 
Q 3116 1113 3116 1747 
z
" transform="scale(0.015625)"/>
       <path id="DejaVuSans-74" d="M 1172 4494 
L 1172 3500 
L 2356 3500 
L 2356 3053 
L 1172 3053 
L 1172 1153 
Q 1172 725 1289 603 
Q 1406 481 1766 481 
L 2356 481 
L 2356 0 
L 1766 0 
Q 1100 0 847 248 
Q 594 497 594 1153 
L 594 3053 
L 172 3053 
L 172 3500 
L 594 3500 
L 594 4494 
L 1172 4494 
z
" transform="scale(0.015625)"/>
       <path id="DejaVuSans-4d" d="M 628 4666 
L 1569 4666 
L 2759 1491 
L 3956 4666 
L 4897 4666 
L 4897 0 
L 4281 0 
L 4281 4097 
L 3078 897 
L 2444 897 
L 1241 4097 
L 1241 0 
L 628 0 
L 628 4666 
z
" transform="scale(0.015625)"/>
       <path id="DejaVuSans-62" d="M 3116 1747 
Q 3116 2381 2855 2742 
Q 2594 3103 2138 3103 
Q 1681 3103 1420 2742 
Q 1159 2381 1159 1747 
Q 1159 1113 1420 752 
Q 1681 391 2138 391 
Q 2594 391 2855 752 
Q 3116 1113 3116 1747 
z
M 1159 2969 
Q 1341 3281 1617 3432 
Q 1894 3584 2278 3584 
Q 2916 3584 3314 3078 
Q 3713 2572 3713 1747 
Q 3713 922 3314 415 
Q 2916 -91 2278 -91 
Q 1894 -91 1617 61 
Q 1341 213 1159 525 
L 1159 0 
L 581 0 
L 581 4863 
L 1159 4863 
L 1159 2969 
z
" transform="scale(0.015625)"/>
      </defs>
      <use xlink:href="#DejaVuSans-54"/>
      <use xlink:href="#DejaVuSans-68" x="61.083984"/>
      <use xlink:href="#DejaVuSans-72" x="124.462891"/>
      <use xlink:href="#DejaVuSans-6f" x="163.326172"/>
      <use xlink:href="#DejaVuSans-75" x="224.507812"/>
      <use xlink:href="#DejaVuSans-67" x="287.886719"/>
      <use xlink:href="#DejaVuSans-68" x="351.363281"/>
      <use xlink:href="#DejaVuSans-70" x="414.742188"/>
      <use xlink:href="#DejaVuSans-75" x="478.21875"/>
      <use xlink:href="#DejaVuSans-74" x="541.597656"/>
      <use xlink:href="#DejaVuSans-20" x="580.806641"/>
      <use xlink:href="#DejaVuSans-28" x="612.59375"/>
      <use xlink:href="#DejaVuSans-4d" x="651.607422"/>
      <use xlink:href="#DejaVuSans-62" x="737.886719"/>
      <use xlink:href="#DejaVuSans-70" x="801.363281"/>
      <use xlink:href="#DejaVuSans-73" x="864.839844"/>
      <use xlink:href="#DejaVuSans-29" x="916.939453"/>
     </g>
    </g>
   </g>
   <g id="patch_3">
    <path d="M 86.885 331.64 
L 86.885 25.220878 
" style="fill: none; stroke: #000000; stroke-width: 0.8; stroke-linejoin: miter; stroke-linecap: square"/>
   </g>
   <g id="patch_4">
    <path d="M 897.84 331.64 
L 897.84 25.220878 
" style="fill: none; stroke: #000000; stroke-width: 0.8; stroke-linejoin: miter; stroke-linecap: square"/>
   </g>
   <g id="patch_5">
    <path d="M 86.885 331.64 
L 897.84 331.64 
" style="fill: none; stroke: #000000; stroke-width: 0.8; stroke-linejoin: miter; stroke-linecap: square"/>
   </g>
   <g id="patch_6">
    <path d="M 86.885 25.220878 
L 897.84 25.220878 
" style="fill: none; stroke: #000000; stroke-width: 0.8; stroke-linejoin: miter; stroke-linecap: square"/>
   </g>
   <g id="legend_1">
    <g id="patch_7">
     <path d="M 756.24 79.648378 
L 881.04 79.648378 
Q 885.84 79.648378 885.84 74.848378 
L 885.84 42.020878 
Q 885.84 37.220878 881.04 37.220878 
L 756.24 37.220878 
Q 751.44 37.220878 751.44 42.020878 
L 751.44 74.848378 
Q 751.44 79.648378 756.24 79.648378 
z
" style="fill: #ffffff; opacity: 0.8; stroke: #cccccc; stroke-linejoin: miter"/>
    </g>
    <g id="patch_8">
     <path d="M 761.04 65.057128 
L 809.04 65.057128 
L 809.04 48.257128 
L 761.04 48.257128 
z
" style="fill: #1f77b4"/>
    </g>
    <g id="text_15">
     <!-- UE1 -->
     <g transform="translate(828.24 65.057128)scale(0.24 -0.24)">
      <defs>
       <path id="DejaVuSans-55" d="M 556 4666 
L 1191 4666 
L 1191 1831 
Q 1191 1081 1462 751 
Q 1734 422 2344 422 
Q 2950 422 3222 751 
Q 3494 1081 3494 1831 
L 3494 4666 
L 4128 4666 
L 4128 1753 
Q 4128 841 3676 375 
Q 3225 -91 2344 -91 
Q 1459 -91 1007 375 
Q 556 841 556 1753 
L 556 4666 
z
" transform="scale(0.015625)"/>
       <path id="DejaVuSans-45" d="M 628 4666 
L 3578 4666 
L 3578 4134 
L 1259 4134 
L 1259 2753 
L 3481 2753 
L 3481 2222 
L 1259 2222 
L 1259 531 
L 3634 531 
L 3634 0 
L 628 0 
L 628 4666 
z
" transform="scale(0.015625)"/>
      </defs>
      <use xlink:href="#DejaVuSans-55"/>
      <use xlink:href="#DejaVuSans-45" x="73.193359"/>
      <use xlink:href="#DejaVuSans-31" x="136.376953"/>
     </g>
    </g>
   </g>
  </g>
 </g>
 <defs>
  <clipPath id="pb2d33e8b63">
   <rect x="86.885" y="25.220878" width="810.955" height="306.419122"/>
  </clipPath>
 </defs>
</svg>
