<?xml version="1.0" encoding="utf-8" standalone="no"?>
<!DOCTYPE svg PUBLIC "-//W3C//DTD SVG 1.1//EN"
  "http://www.w3.org/Graphics/SVG/1.1/DTD/svg11.dtd">
<svg xmlns:xlink="http://www.w3.org/1999/xlink" width="921.6pt" height="410.4pt" viewBox="0 0 921.6 410.4" xmlns="http://www.w3.org/2000/svg" version="1.1">
 <metadata>
  <rdf:RDF xmlns:dc="http://purl.org/dc/elements/1.1/" xmlns:cc="http://creativecommons.org/ns#" xmlns:rdf="http://www.w3.org/1999/02/22-rdf-syntax-ns#">
   <cc:Work>
    <dc:type rdf:resource="http://purl.org/dc/dcmitype/StillImage"/>
    <dc:date>2023-04-11T17:41:50.947073</dc:date>
    <dc:format>image/svg+xml</dc:format>
    <dc:creator>
     <cc:Agent>
      <dc:title>Matplotlib v3.5.3, https://matplotlib.org/</dc:title>
     </cc:Agent>
    </dc:creator>
   </cc:Work>
  </rdf:RDF>
 </metadata>
 <defs>
  <style type="text/css">*{stroke-linejoin: round; stroke-linecap: butt}</style>
 </defs>
 <g id="figure_1">
  <g id="patch_1">
   <path d="M 0 410.4 
L 921.6 410.4 
L 921.6 0 
L 0 0 
L 0 410.4 
z
" style="fill: none"/>
  </g>
  <g id="axes_1">
   <g id="patch_2">
    <path d="M 108.01 331.64 
L 897.84 331.64 
L 897.84 23.76 
L 108.01 23.76 
z
" style="fill: #ffffff"/>
   </g>
   <g id="PolyCollection_1">
    <path d="M 143.911364 186.502606 
L 143.911364 331.64 
L 147.900404 331.64 
L 151.889444 331.64 
L 155.878485 331.64 
L 159.867525 331.64 
L 163.856566 331.64 
L 167.845606 331.64 
L 171.834646 331.64 
L 175.823687 331.64 
L 179.812727 331.64 
L 183.801768 331.64 
L 187.790808 331.64 
L 191.779848 331.64 
L 195.768889 331.64 
L 199.757929 331.64 
L 203.74697 331.64 
L 207.73601 331.64 
L 211.725051 331.64 
L 215.714091 331.64 
L 219.703131 331.64 
L 223.692172 331.64 
L 227.681212 331.64 
L 231.670253 331.64 
L 235.659293 331.64 
L 239.648333 331.64 
L 243.637374 331.64 
L 247.626414 331.64 
L 251.615455 331.64 
L 255.604495 331.64 
L 259.593535 331.64 
L 263.582576 331.64 
L 267.571616 331.64 
L 271.560657 331.64 
L 275.549697 331.64 
L 279.538737 331.64 
L 283.527778 331.64 
L 287.516818 331.64 
L 291.505859 331.64 
L 295.494899 331.64 
L 299.483939 331.64 
L 303.47298 331.64 
L 307.46202 331.64 
L 311.451061 331.64 
L 315.440101 331.64 
L 319.429141 331.64 
L 323.418182 331.64 
L 327.407222 331.64 
L 331.396263 331.64 
L 335.385303 331.64 
L 339.374343 331.64 
L 343.363384 331.64 
L 347.352424 331.64 
L 351.341465 331.64 
L 355.330505 331.64 
L 359.319545 331.64 
L 363.308586 331.64 
L 367.297626 331.64 
L 371.286667 331.64 
L 375.275707 331.64 
L 379.264747 331.64 
L 383.253788 331.64 
L 387.242828 331.64 
L 391.231869 331.64 
L 395.220909 331.64 
L 399.209949 331.64 
L 403.19899 331.64 
L 407.18803 331.64 
L 411.177071 331.64 
L 415.166111 331.64 
L 419.155152 331.64 
L 423.144192 331.64 
L 427.133232 331.64 
L 431.122273 331.64 
L 435.111313 331.64 
L 439.100354 331.64 
L 443.089394 331.64 
L 447.078434 331.64 
L 451.067475 331.64 
L 455.056515 331.64 
L 459.045556 331.64 
L 463.034596 331.64 
L 467.023636 331.64 
L 471.012677 331.64 
L 475.001717 331.64 
L 478.990758 331.64 
L 482.979798 331.64 
L 486.968838 331.64 
L 490.957879 331.64 
L 494.946919 331.64 
L 498.93596 331.64 
L 502.925 331.64 
L 506.91404 331.64 
L 510.903081 331.64 
L 514.892121 331.64 
L 518.881162 331.64 
L 522.870202 331.64 
L 526.859242 331.64 
L 530.848283 331.64 
L 534.837323 331.64 
L 538.826364 331.64 
L 542.815404 331.64 
L 546.804444 331.64 
L 550.793485 331.64 
L 554.782525 331.64 
L 558.771566 331.64 
L 562.760606 331.64 
L 566.749646 331.64 
L 570.738687 331.64 
L 574.727727 331.64 
L 578.716768 331.64 
L 582.705808 331.64 
L 586.694848 331.64 
L 590.683889 331.64 
L 594.672929 331.64 
L 598.66197 331.64 
L 602.65101 331.64 
L 606.640051 331.64 
L 610.629091 331.64 
L 614.618131 331.64 
L 618.607172 331.64 
L 622.596212 331.64 
L 626.585253 331.64 
L 630.574293 331.64 
L 634.563333 331.64 
L 638.552374 331.64 
L 642.541414 331.64 
L 646.530455 331.64 
L 650.519495 331.64 
L 654.508535 331.64 
L 658.497576 331.64 
L 662.486616 331.64 
L 666.475657 331.64 
L 670.464697 331.64 
L 674.453737 331.64 
L 678.442778 331.64 
L 682.431818 331.64 
L 686.420859 331.64 
L 690.409899 331.64 
L 694.398939 331.64 
L 698.38798 331.64 
L 702.37702 331.64 
L 706.366061 331.64 
L 710.355101 331.64 
L 714.344141 331.64 
L 718.333182 331.64 
L 722.322222 331.64 
L 726.311263 331.64 
L 730.300303 331.64 
L 734.289343 331.64 
L 738.278384 331.64 
L 742.267424 331.64 
L 746.256465 331.64 
L 750.245505 331.64 
L 754.234545 331.64 
L 758.223586 331.64 
L 762.212626 331.64 
L 766.201667 331.64 
L 770.190707 331.64 
L 774.179747 331.64 
L 778.168788 331.64 
L 782.157828 331.64 
L 786.146869 331.64 
L 790.135909 331.64 
L 794.124949 331.64 
L 798.11399 331.64 
L 802.10303 331.64 
L 806.092071 331.64 
L 810.081111 331.64 
L 814.070152 331.64 
L 818.059192 331.64 
L 822.048232 331.64 
L 826.037273 331.64 
L 830.026313 331.64 
L 834.015354 331.64 
L 838.004394 331.64 
L 841.993434 331.64 
L 845.982475 331.64 
L 849.971515 331.64 
L 853.960556 331.64 
L 857.949596 331.64 
L 861.938636 331.64 
L 861.938636 186.222496 
L 861.938636 186.222496 
L 857.949596 187.103564 
L 853.960556 187.015443 
L 849.971515 186.556346 
L 845.982475 186.787195 
L 841.993434 186.468947 
L 838.004394 187.121188 
L 834.015354 186.114006 
L 830.026313 186.540022 
L 826.037273 186.0581 
L 822.048232 186.839345 
L 818.059192 186.320874 
L 814.070152 187.972642 
L 810.081111 186.11155 
L 806.092071 186.286782 
L 802.10303 187.065571 
L 798.11399 187.198475 
L 794.124949 186.096237 
L 790.135909 186.401195 
L 786.146869 186.215996 
L 782.157828 187.648471 
L 778.168788 186.301517 
L 774.179747 187.738326 
L 770.190707 186.480359 
L 766.201667 190.006942 
L 762.212626 187.012265 
L 758.223586 186.367391 
L 754.234545 187.582308 
L 750.245505 186.150699 
L 746.256465 187.508055 
L 742.267424 187.850283 
L 738.278384 186.528031 
L 734.289343 187.370384 
L 730.300303 186.774771 
L 726.311263 186.541033 
L 722.322222 187.211188 
L 718.333182 186.263668 
L 714.344141 186.595784 
L 710.355101 186.755702 
L 706.366061 186.893229 
L 702.37702 186.3489 
L 698.38798 186.919087 
L 694.398939 187.022666 
L 690.409899 185.842275 
L 686.420859 186.756713 
L 682.431818 186.367246 
L 678.442778 186.532654 
L 674.453737 186.764659 
L 670.464697 187.258571 
L 666.475657 191.857921 
L 662.486616 187.977409 
L 658.497576 186.403939 
L 654.508535 186.62771 
L 650.519495 186.798174 
L 646.530455 186.174391 
L 642.541414 186.738222 
L 638.552374 186.918221 
L 634.563333 186.916921 
L 630.574293 187.0244 
L 626.585253 186.0568 
L 622.596212 187.215377 
L 618.607172 186.683616 
L 614.618131 186.774049 
L 610.629091 186.748623 
L 606.640051 186.614708 
L 602.65101 186.90233 
L 598.66197 186.223652 
L 594.672929 186.454934 
L 590.683889 186.959537 
L 586.694848 186.783583 
L 582.705808 186.719298 
L 578.716768 186.546378 
L 574.727727 186.407551 
L 570.738687 189.694328 
L 566.749646 186.122674 
L 562.760606 186.641289 
L 558.771566 186.012594 
L 554.782525 186.890051 
L 550.793485 186.606329 
L 546.804444 186.522831 
L 542.815404 186.686939 
L 538.826364 187.071205 
L 534.837323 186.968638 
L 530.848283 188.909905 
L 526.859242 187.66364 
L 522.870202 186.359879 
L 518.881162 186.377359 
L 514.892121 186.380248 
L 510.903081 186.259623 
L 506.91404 186.650101 
L 502.925 186.634788 
L 498.93596 186.581771 
L 494.946919 187.678808 
L 490.957879 186.380826 
L 486.968838 186.977305 
L 482.979798 186.128886 
L 478.990758 186.813342 
L 475.001717 186.181036 
L 471.012677 186.721031 
L 467.023636 185.956255 
L 463.034596 186.780838 
L 459.045556 186.733455 
L 455.056515 186.183925 
L 451.067475 186.477903 
L 447.078434 186.312496 
L 443.089394 186.351789 
L 439.100354 186.635799 
L 435.111313 186.290826 
L 431.122273 186.685494 
L 427.133232 186.072112 
L 423.144192 186.479781 
L 419.155152 186.702396 
L 415.166111 186.565302 
L 411.177071 186.124696 
L 407.18803 186.244166 
L 403.19899 187.055748 
L 399.209949 186.684049 
L 395.220909 186.180169 
L 391.231869 186.381259 
L 387.242828 186.907097 
L 383.253788 185.964633 
L 379.264747 187.290352 
L 375.275707 185.641041 
L 371.286667 186.35829 
L 367.297626 186.287504 
L 363.308586 186.76307 
L 359.319545 186.399606 
L 355.330505 185.907571 
L 351.341465 186.006672 
L 347.352424 186.29516 
L 343.363384 186.294582 
L 339.374343 186.602718 
L 335.385303 186.076446 
L 331.396263 186.304984 
L 327.407222 186.000604 
L 323.418182 186.010283 
L 319.429141 186.533088 
L 315.440101 185.796914 
L 311.451061 186.297038 
L 307.46202 185.874345 
L 303.47298 186.143765 
L 299.483939 186.240987 
L 295.494899 186.729988 
L 291.505859 186.262223 
L 287.516818 185.906993 
L 283.527778 187.239069 
L 279.538737 186.248644 
L 275.549697 186.622509 
L 271.560657 186.383426 
L 267.571616 186.919232 
L 263.582576 186.65299 
L 259.593535 186.287937 
L 255.604495 186.299783 
L 251.615455 186.37577 
L 247.626414 190.27015 
L 243.637374 188.740308 
L 239.648333 186.365946 
L 235.659293 186.876327 
L 231.670253 186.645045 
L 227.681212 187.06037 
L 223.692172 186.692428 
L 219.703131 186.45609 
L 215.714091 187.291219 
L 211.725051 186.227552 
L 207.73601 186.441355 
L 203.74697 186.998397 
L 199.757929 186.638111 
L 195.768889 185.976335 
L 191.779848 186.795718 
L 187.790808 188.919584 
L 183.801768 187.630991 
L 179.812727 186.009127 
L 175.823687 187.519612 
L 171.834646 186.287648 
L 167.845606 186.998397 
L 163.856566 186.647645 
L 159.867525 186.573103 
L 155.878485 186.204872 
L 151.889444 186.301372 
L 147.900404 186.534099 
L 143.911364 186.502606 
z
" clip-path="url(#p19655fe5aa)" style="fill: #1f77b4"/>
   </g>
   <g id="PolyCollection_2">
    <path d="M 143.911364 40.212558 
L 143.911364 186.502606 
L 147.900404 186.534099 
L 151.889444 186.301372 
L 155.878485 186.204872 
L 159.867525 186.573103 
L 163.856566 186.647645 
L 167.845606 186.998397 
L 171.834646 186.287648 
L 175.823687 187.519612 
L 179.812727 186.009127 
L 183.801768 187.630991 
L 187.790808 188.919584 
L 191.779848 186.795718 
L 195.768889 185.976335 
L 199.757929 186.638111 
L 203.74697 186.998397 
L 207.73601 186.441355 
L 211.725051 186.227552 
L 215.714091 187.291219 
L 219.703131 186.45609 
L 223.692172 186.692428 
L 227.681212 187.06037 
L 231.670253 186.645045 
L 235.659293 186.876327 
L 239.648333 186.365946 
L 243.637374 188.740308 
L 247.626414 190.27015 
L 251.615455 186.37577 
L 255.604495 186.299783 
L 259.593535 186.287937 
L 263.582576 186.65299 
L 267.571616 186.919232 
L 271.560657 186.383426 
L 275.549697 186.622509 
L 279.538737 186.248644 
L 283.527778 187.239069 
L 287.516818 185.906993 
L 291.505859 186.262223 
L 295.494899 186.729988 
L 299.483939 186.240987 
L 303.47298 186.143765 
L 307.46202 185.874345 
L 311.451061 186.297038 
L 315.440101 185.796914 
L 319.429141 186.533088 
L 323.418182 186.010283 
L 327.407222 186.000604 
L 331.396263 186.304984 
L 335.385303 186.076446 
L 339.374343 186.602718 
L 343.363384 186.294582 
L 347.352424 186.29516 
L 351.341465 186.006672 
L 355.330505 185.907571 
L 359.319545 186.399606 
L 363.308586 186.76307 
L 367.297626 186.287504 
L 371.286667 186.35829 
L 375.275707 185.641041 
L 379.264747 187.290352 
L 383.253788 185.964633 
L 387.242828 186.907097 
L 391.231869 186.381259 
L 395.220909 186.180169 
L 399.209949 186.684049 
L 403.19899 187.055748 
L 407.18803 186.244166 
L 411.177071 186.124696 
L 415.166111 186.565302 
L 419.155152 186.702396 
L 423.144192 186.479781 
L 427.133232 186.072112 
L 431.122273 186.685494 
L 435.111313 186.290826 
L 439.100354 186.635799 
L 443.089394 186.351789 
L 447.078434 186.312496 
L 451.067475 186.477903 
L 455.056515 186.183925 
L 459.045556 186.733455 
L 463.034596 186.780838 
L 467.023636 185.956255 
L 471.012677 186.721031 
L 475.001717 186.181036 
L 478.990758 186.813342 
L 482.979798 186.128886 
L 486.968838 186.977305 
L 490.957879 186.380826 
L 494.946919 187.678808 
L 498.93596 186.581771 
L 502.925 186.634788 
L 506.91404 186.650101 
L 510.903081 186.259623 
L 514.892121 186.380248 
L 518.881162 186.377359 
L 522.870202 186.359879 
L 526.859242 187.66364 
L 530.848283 188.909905 
L 534.837323 186.968638 
L 538.826364 187.071205 
L 542.815404 186.686939 
L 546.804444 186.522831 
L 550.793485 186.606329 
L 554.782525 186.890051 
L 558.771566 186.012594 
L 562.760606 186.641289 
L 566.749646 186.122674 
L 570.738687 189.694328 
L 574.727727 186.407551 
L 578.716768 186.546378 
L 582.705808 186.719298 
L 586.694848 186.783583 
L 590.683889 186.959537 
L 594.672929 186.454934 
L 598.66197 186.223652 
L 602.65101 186.90233 
L 606.640051 186.614708 
L 610.629091 186.748623 
L 614.618131 186.774049 
L 618.607172 186.683616 
L 622.596212 187.215377 
L 626.585253 186.0568 
L 630.574293 187.0244 
L 634.563333 186.916921 
L 638.552374 186.918221 
L 642.541414 186.738222 
L 646.530455 186.174391 
L 650.519495 186.798174 
L 654.508535 186.62771 
L 658.497576 186.403939 
L 662.486616 187.977409 
L 666.475657 191.857921 
L 670.464697 187.258571 
L 674.453737 186.764659 
L 678.442778 186.532654 
L 682.431818 186.367246 
L 686.420859 186.756713 
L 690.409899 185.842275 
L 694.398939 187.022666 
L 698.38798 186.919087 
L 702.37702 186.3489 
L 706.366061 186.893229 
L 710.355101 186.755702 
L 714.344141 186.595784 
L 718.333182 186.263668 
L 722.322222 187.211188 
L 726.311263 186.541033 
L 730.300303 186.774771 
L 734.289343 187.370384 
L 738.278384 186.528031 
L 742.267424 187.850283 
L 746.256465 187.508055 
L 750.245505 186.150699 
L 754.234545 187.582308 
L 758.223586 186.367391 
L 762.212626 187.012265 
L 766.201667 190.006942 
L 770.190707 186.480359 
L 774.179747 187.738326 
L 778.168788 186.301517 
L 782.157828 187.648471 
L 786.146869 186.215996 
L 790.135909 186.401195 
L 794.124949 186.096237 
L 798.11399 187.198475 
L 802.10303 187.065571 
L 806.092071 186.286782 
L 810.081111 186.11155 
L 814.070152 187.972642 
L 818.059192 186.320874 
L 822.048232 186.839345 
L 826.037273 186.0581 
L 830.026313 186.540022 
L 834.015354 186.114006 
L 838.004394 187.121188 
L 841.993434 186.468947 
L 845.982475 186.787195 
L 849.971515 186.556346 
L 853.960556 187.015443 
L 857.949596 187.103564 
L 861.938636 186.222496 
L 861.938636 186.222496 
L 861.938636 186.222496 
L 857.949596 41.253544 
L 853.960556 40.937175 
L 849.971515 40.669488 
L 845.982475 39.756639 
L 841.993434 39.824102 
L 838.004394 41.321441 
L 834.015354 39.466706 
L 830.026313 39.718646 
L 826.037273 39.970152 
L 822.048232 39.782931 
L 818.059192 41.247621 
L 814.070152 41.147076 
L 810.081111 38.970771 
L 806.092071 39.657539 
L 802.10303 42.077261 
L 798.11399 40.781301 
L 794.124949 40.416248 
L 790.135909 39.72558 
L 786.146869 39.106275 
L 782.157828 41.778227 
L 778.168788 40.40108 
L 774.179747 42.305076 
L 770.190707 41.24791 
L 766.201667 46.640496 
L 762.212626 40.733773 
L 758.223586 39.373673 
L 754.234545 41.98235 
L 750.245505 39.476096 
L 746.256465 43.833618 
L 742.267424 41.407973 
L 738.278384 39.37974 
L 734.289343 42.774285 
L 730.300303 40.00829 
L 726.311263 40.287678 
L 722.322222 41.705852 
L 718.333182 39.936637 
L 714.344141 40.160263 
L 710.355101 40.172831 
L 706.366061 40.835185 
L 702.37702 39.993844 
L 698.38798 41.037286 
L 694.398939 40.529361 
L 690.409899 39.025522 
L 686.420859 41.194315 
L 682.431818 39.861518 
L 678.442778 39.69351 
L 674.453737 40.217614 
L 670.464697 42.587353 
L 666.475657 51.778975 
L 662.486616 41.826621 
L 658.497576 39.624313 
L 654.508535 40.789535 
L 650.519495 40.148562 
L 646.530455 39.652916 
L 642.541414 40.172831 
L 638.552374 41.025007 
L 634.563333 41.037431 
L 630.574293 40.529217 
L 626.585253 39.383352 
L 622.596212 42.128978 
L 618.607172 40.04585 
L 614.618131 40.451352 
L 610.629091 39.881887 
L 606.640051 41.286337 
L 602.65101 40.236105 
L 598.66197 39.294364 
L 594.672929 40.444129 
L 590.683889 40.601014 
L 586.694848 40.744464 
L 582.705808 40.230616 
L 578.716768 41.134942 
L 574.727727 40.049173 
L 570.738687 46.038671 
L 566.749646 39.679208 
L 562.760606 39.765885 
L 558.771566 39.468295 
L 554.782525 40.649264 
L 550.793485 40.821028 
L 546.804444 39.546304 
L 542.815404 40.933274 
L 538.826364 40.877079 
L 534.837323 40.147839 
L 530.848283 45.124233 
L 526.859242 42.059781 
L 522.870202 40.0902 
L 518.881162 39.249292 
L 514.892121 40.056685 
L 510.903081 39.486497 
L 506.91404 39.948917 
L 502.925 40.742441 
L 498.93596 39.349403 
L 494.946919 42.750016 
L 490.957879 39.657828 
L 486.968838 41.272469 
L 482.979798 39.44547 
L 478.990758 40.315848 
L 475.001717 39.501376 
L 471.012677 39.238891 
L 467.023636 39.421923 
L 463.034596 40.938041 
L 459.045556 40.607514 
L 455.056515 39.535614 
L 451.067475 39.522034 
L 447.078434 39.551215 
L 443.089394 39.300142 
L 439.100354 40.30588 
L 435.111313 39.865129 
L 431.122273 40.413937 
L 427.133232 38.944479 
L 423.144192 40.697803 
L 419.155152 39.569995 
L 415.166111 40.327838 
L 411.177071 38.800163 
L 407.18803 39.860651 
L 403.19899 40.537884 
L 399.209949 40.349363 
L 395.220909 39.586464 
L 391.231869 40.56461 
L 387.242828 39.650749 
L 383.253788 39.141668 
L 379.264747 40.957688 
L 375.275707 38.040731 
L 371.286667 39.217222 
L 367.297626 39.893299 
L 363.308586 40.142494 
L 359.319545 39.197575 
L 355.330505 39.33698 
L 351.341465 38.686761 
L 347.352424 39.849239 
L 343.363384 39.508311 
L 339.374343 40.285222 
L 335.385303 38.439154 
L 331.396263 39.201475 
L 327.407222 38.67217 
L 323.418182 39.847216 
L 319.429141 39.593254 
L 315.440101 38.156155 
L 311.451061 38.730532 
L 307.46202 38.935234 
L 303.47298 39.206098 
L 299.483939 39.613045 
L 295.494899 39.91598 
L 291.505859 39.81009 
L 287.516818 39.142391 
L 283.527778 41.299916 
L 279.538737 39.833492 
L 275.549697 39.422356 
L 271.560657 40.774945 
L 267.571616 40.476199 
L 263.582576 40.555509 
L 259.593535 39.30072 
L 255.604495 40.034293 
L 251.615455 39.767907 
L 247.626414 48.59202 
L 243.637374 44.008272 
L 239.648333 38.916309 
L 235.659293 41.00955 
L 231.670253 39.83017 
L 227.681212 41.603862 
L 223.692172 40.341273 
L 219.703131 39.680364 
L 215.714091 42.071338 
L 211.725051 39.945883 
L 207.73601 40.149284 
L 203.74697 40.288978 
L 199.757929 40.196667 
L 195.768889 39.370495 
L 191.779848 41.170912 
L 187.790808 46.325137 
L 183.801768 40.904237 
L 179.812727 40.346184 
L 175.823687 40.858299 
L 171.834646 40.63424 
L 167.845606 40.460164 
L 163.856566 39.916413 
L 159.867525 40.054951 
L 155.878485 39.110754 
L 151.889444 40.196089 
L 147.900404 38.481193 
L 143.911364 40.212558 
z
" clip-path="url(#p19655fe5aa)" style="fill: #ff7f0e"/>
   </g>
   <g id="matplotlib.axis_1">
    <g id="xtick_1">
     <g id="line2d_1">
      <path d="M 143.911364 331.64 
L 143.911364 23.76 
" clip-path="url(#p19655fe5aa)" style="fill: none; stroke-dasharray: 5.12,1.28,0.8,1.28; stroke-dashoffset: 0; stroke: #b0b0b0; stroke-width: 0.8"/>
     </g>
     <g id="line2d_2">
      <defs>
       <path id="m37ac51e1a8" d="M 0 0 
L 0 3.5 
" style="stroke: #000000; stroke-width: 0.8"/>
      </defs>
      <g>
       <use xlink:href="#m37ac51e1a8" x="143.911364" y="331.64" style="stroke: #000000; stroke-width: 0.8"/>
      </g>
     </g>
     <g id="text_1">
      <!-- 0 -->
      <g transform="translate(136.912614 355.356563)scale(0.22 -0.22)">
       <defs>
        <path id="DejaVuSans-30" d="M 2034 4250 
Q 1547 4250 1301 3770 
Q 1056 3291 1056 2328 
Q 1056 1369 1301 889 
Q 1547 409 2034 409 
Q 2525 409 2770 889 
Q 3016 1369 3016 2328 
Q 3016 3291 2770 3770 
Q 2525 4250 2034 4250 
z
M 2034 4750 
Q 2819 4750 3233 4129 
Q 3647 3509 3647 2328 
Q 3647 1150 3233 529 
Q 2819 -91 2034 -91 
Q 1250 -91 836 529 
Q 422 1150 422 2328 
Q 422 3509 836 4129 
Q 1250 4750 2034 4750 
z
" transform="scale(0.015625)"/>
       </defs>
       <use xlink:href="#DejaVuSans-30"/>
      </g>
     </g>
    </g>
    <g id="xtick_2">
     <g id="line2d_3">
      <path d="M 243.637374 331.64 
L 243.637374 23.76 
" clip-path="url(#p19655fe5aa)" style="fill: none; stroke-dasharray: 5.12,1.28,0.8,1.28; stroke-dashoffset: 0; stroke: #b0b0b0; stroke-width: 0.8"/>
     </g>
     <g id="line2d_4">
      <g>
       <use xlink:href="#m37ac51e1a8" x="243.637374" y="331.64" style="stroke: #000000; stroke-width: 0.8"/>
      </g>
     </g>
     <g id="text_2">
      <!-- 25 -->
      <g transform="translate(229.639874 355.356563)scale(0.22 -0.22)">
       <defs>
        <path id="DejaVuSans-32" d="M 1228 531 
L 3431 531 
L 3431 0 
L 469 0 
L 469 531 
Q 828 903 1448 1529 
Q 2069 2156 2228 2338 
Q 2531 2678 2651 2914 
Q 2772 3150 2772 3378 
Q 2772 3750 2511 3984 
Q 2250 4219 1831 4219 
Q 1534 4219 1204 4116 
Q 875 4013 500 3803 
L 500 4441 
Q 881 4594 1212 4672 
Q 1544 4750 1819 4750 
Q 2544 4750 2975 4387 
Q 3406 4025 3406 3419 
Q 3406 3131 3298 2873 
Q 3191 2616 2906 2266 
Q 2828 2175 2409 1742 
Q 1991 1309 1228 531 
z
" transform="scale(0.015625)"/>
        <path id="DejaVuSans-35" d="M 691 4666 
L 3169 4666 
L 3169 4134 
L 1269 4134 
L 1269 2991 
Q 1406 3038 1543 3061 
Q 1681 3084 1819 3084 
Q 2600 3084 3056 2656 
Q 3513 2228 3513 1497 
Q 3513 744 3044 326 
Q 2575 -91 1722 -91 
Q 1428 -91 1123 -41 
Q 819 9 494 109 
L 494 744 
Q 775 591 1075 516 
Q 1375 441 1709 441 
Q 2250 441 2565 725 
Q 2881 1009 2881 1497 
Q 2881 1984 2565 2268 
Q 2250 2553 1709 2553 
Q 1456 2553 1204 2497 
Q 953 2441 691 2322 
L 691 4666 
z
" transform="scale(0.015625)"/>
       </defs>
       <use xlink:href="#DejaVuSans-32"/>
       <use xlink:href="#DejaVuSans-35" x="63.623047"/>
      </g>
     </g>
    </g>
    <g id="xtick_3">
     <g id="line2d_5">
      <path d="M 343.363384 331.64 
L 343.363384 23.76 
" clip-path="url(#p19655fe5aa)" style="fill: none; stroke-dasharray: 5.12,1.28,0.8,1.28; stroke-dashoffset: 0; stroke: #b0b0b0; stroke-width: 0.8"/>
     </g>
     <g id="line2d_6">
      <g>
       <use xlink:href="#m37ac51e1a8" x="343.363384" y="331.64" style="stroke: #000000; stroke-width: 0.8"/>
      </g>
     </g>
     <g id="text_3">
      <!-- 50 -->
      <g transform="translate(329.365884 355.356563)scale(0.22 -0.22)">
       <use xlink:href="#DejaVuSans-35"/>
       <use xlink:href="#DejaVuSans-30" x="63.623047"/>
      </g>
     </g>
    </g>
    <g id="xtick_4">
     <g id="line2d_7">
      <path d="M 443.089394 331.64 
L 443.089394 23.76 
" clip-path="url(#p19655fe5aa)" style="fill: none; stroke-dasharray: 5.12,1.28,0.8,1.28; stroke-dashoffset: 0; stroke: #b0b0b0; stroke-width: 0.8"/>
     </g>
     <g id="line2d_8">
      <g>
       <use xlink:href="#m37ac51e1a8" x="443.089394" y="331.64" style="stroke: #000000; stroke-width: 0.8"/>
      </g>
     </g>
     <g id="text_4">
      <!-- 75 -->
      <g transform="translate(429.091894 355.356563)scale(0.22 -0.22)">
       <defs>
        <path id="DejaVuSans-37" d="M 525 4666 
L 3525 4666 
L 3525 4397 
L 1831 0 
L 1172 0 
L 2766 4134 
L 525 4134 
L 525 4666 
z
" transform="scale(0.015625)"/>
       </defs>
       <use xlink:href="#DejaVuSans-37"/>
       <use xlink:href="#DejaVuSans-35" x="63.623047"/>
      </g>
     </g>
    </g>
    <g id="xtick_5">
     <g id="line2d_9">
      <path d="M 542.815404 331.64 
L 542.815404 23.76 
" clip-path="url(#p19655fe5aa)" style="fill: none; stroke-dasharray: 5.12,1.28,0.8,1.28; stroke-dashoffset: 0; stroke: #b0b0b0; stroke-width: 0.8"/>
     </g>
     <g id="line2d_10">
      <g>
       <use xlink:href="#m37ac51e1a8" x="542.815404" y="331.64" style="stroke: #000000; stroke-width: 0.8"/>
      </g>
     </g>
     <g id="text_5">
      <!-- 100 -->
      <g transform="translate(521.819154 355.356563)scale(0.22 -0.22)">
       <defs>
        <path id="DejaVuSans-31" d="M 794 531 
L 1825 531 
L 1825 4091 
L 703 3866 
L 703 4441 
L 1819 4666 
L 2450 4666 
L 2450 531 
L 3481 531 
L 3481 0 
L 794 0 
L 794 531 
z
" transform="scale(0.015625)"/>
       </defs>
       <use xlink:href="#DejaVuSans-31"/>
       <use xlink:href="#DejaVuSans-30" x="63.623047"/>
       <use xlink:href="#DejaVuSans-30" x="127.246094"/>
      </g>
     </g>
    </g>
    <g id="xtick_6">
     <g id="line2d_11">
      <path d="M 642.541414 331.64 
L 642.541414 23.76 
" clip-path="url(#p19655fe5aa)" style="fill: none; stroke-dasharray: 5.12,1.28,0.8,1.28; stroke-dashoffset: 0; stroke: #b0b0b0; stroke-width: 0.8"/>
     </g>
     <g id="line2d_12">
      <g>
       <use xlink:href="#m37ac51e1a8" x="642.541414" y="331.64" style="stroke: #000000; stroke-width: 0.8"/>
      </g>
     </g>
     <g id="text_6">
      <!-- 125 -->
      <g transform="translate(621.545164 355.356563)scale(0.22 -0.22)">
       <use xlink:href="#DejaVuSans-31"/>
       <use xlink:href="#DejaVuSans-32" x="63.623047"/>
       <use xlink:href="#DejaVuSans-35" x="127.246094"/>
      </g>
     </g>
    </g>
    <g id="xtick_7">
     <g id="line2d_13">
      <path d="M 742.267424 331.64 
L 742.267424 23.76 
" clip-path="url(#p19655fe5aa)" style="fill: none; stroke-dasharray: 5.12,1.28,0.8,1.28; stroke-dashoffset: 0; stroke: #b0b0b0; stroke-width: 0.8"/>
     </g>
     <g id="line2d_14">
      <g>
       <use xlink:href="#m37ac51e1a8" x="742.267424" y="331.64" style="stroke: #000000; stroke-width: 0.8"/>
      </g>
     </g>
     <g id="text_7">
      <!-- 150 -->
      <g transform="translate(721.271174 355.356563)scale(0.22 -0.22)">
       <use xlink:href="#DejaVuSans-31"/>
       <use xlink:href="#DejaVuSans-35" x="63.623047"/>
       <use xlink:href="#DejaVuSans-30" x="127.246094"/>
      </g>
     </g>
    </g>
    <g id="xtick_8">
     <g id="line2d_15">
      <path d="M 841.993434 331.64 
L 841.993434 23.76 
" clip-path="url(#p19655fe5aa)" style="fill: none; stroke-dasharray: 5.12,1.28,0.8,1.28; stroke-dashoffset: 0; stroke: #b0b0b0; stroke-width: 0.8"/>
     </g>
     <g id="line2d_16">
      <g>
       <use xlink:href="#m37ac51e1a8" x="841.993434" y="331.64" style="stroke: #000000; stroke-width: 0.8"/>
      </g>
     </g>
     <g id="text_8">
      <!-- 175 -->
      <g transform="translate(820.997184 355.356563)scale(0.22 -0.22)">
       <use xlink:href="#DejaVuSans-31"/>
       <use xlink:href="#DejaVuSans-37" x="63.623047"/>
       <use xlink:href="#DejaVuSans-35" x="127.246094"/>
      </g>
     </g>
    </g>
    <g id="text_9">
     <!-- Time (s) -->
     <g transform="translate(454.135625 382.168125)scale(0.24 -0.24)">
      <defs>
       <path id="DejaVuSans-54" d="M -19 4666 
L 3928 4666 
L 3928 4134 
L 2272 4134 
L 2272 0 
L 1638 0 
L 1638 4134 
L -19 4134 
L -19 4666 
z
" transform="scale(0.015625)"/>
       <path id="DejaVuSans-69" d="M 603 3500 
L 1178 3500 
L 1178 0 
L 603 0 
L 603 3500 
z
M 603 4863 
L 1178 4863 
L 1178 4134 
L 603 4134 
L 603 4863 
z
" transform="scale(0.015625)"/>
       <path id="DejaVuSans-6d" d="M 3328 2828 
Q 3544 3216 3844 3400 
Q 4144 3584 4550 3584 
Q 5097 3584 5394 3201 
Q 5691 2819 5691 2113 
L 5691 0 
L 5113 0 
L 5113 2094 
Q 5113 2597 4934 2840 
Q 4756 3084 4391 3084 
Q 3944 3084 3684 2787 
Q 3425 2491 3425 1978 
L 3425 0 
L 2847 0 
L 2847 2094 
Q 2847 2600 2669 2842 
Q 2491 3084 2119 3084 
Q 1678 3084 1418 2786 
Q 1159 2488 1159 1978 
L 1159 0 
L 581 0 
L 581 3500 
L 1159 3500 
L 1159 2956 
Q 1356 3278 1631 3431 
Q 1906 3584 2284 3584 
Q 2666 3584 2933 3390 
Q 3200 3197 3328 2828 
z
" transform="scale(0.015625)"/>
       <path id="DejaVuSans-65" d="M 3597 1894 
L 3597 1613 
L 953 1613 
Q 991 1019 1311 708 
Q 1631 397 2203 397 
Q 2534 397 2845 478 
Q 3156 559 3463 722 
L 3463 178 
Q 3153 47 2828 -22 
Q 2503 -91 2169 -91 
Q 1331 -91 842 396 
Q 353 884 353 1716 
Q 353 2575 817 3079 
Q 1281 3584 2069 3584 
Q 2775 3584 3186 3129 
Q 3597 2675 3597 1894 
z
M 3022 2063 
Q 3016 2534 2758 2815 
Q 2500 3097 2075 3097 
Q 1594 3097 1305 2825 
Q 1016 2553 972 2059 
L 3022 2063 
z
" transform="scale(0.015625)"/>
       <path id="DejaVuSans-20" transform="scale(0.015625)"/>
       <path id="DejaVuSans-28" d="M 1984 4856 
Q 1566 4138 1362 3434 
Q 1159 2731 1159 2009 
Q 1159 1288 1364 580 
Q 1569 -128 1984 -844 
L 1484 -844 
Q 1016 -109 783 600 
Q 550 1309 550 2009 
Q 550 2706 781 3412 
Q 1013 4119 1484 4856 
L 1984 4856 
z
" transform="scale(0.015625)"/>
       <path id="DejaVuSans-73" d="M 2834 3397 
L 2834 2853 
Q 2591 2978 2328 3040 
Q 2066 3103 1784 3103 
Q 1356 3103 1142 2972 
Q 928 2841 928 2578 
Q 928 2378 1081 2264 
Q 1234 2150 1697 2047 
L 1894 2003 
Q 2506 1872 2764 1633 
Q 3022 1394 3022 966 
Q 3022 478 2636 193 
Q 2250 -91 1575 -91 
Q 1294 -91 989 -36 
Q 684 19 347 128 
L 347 722 
Q 666 556 975 473 
Q 1284 391 1588 391 
Q 1994 391 2212 530 
Q 2431 669 2431 922 
Q 2431 1156 2273 1281 
Q 2116 1406 1581 1522 
L 1381 1569 
Q 847 1681 609 1914 
Q 372 2147 372 2553 
Q 372 3047 722 3315 
Q 1072 3584 1716 3584 
Q 2034 3584 2315 3537 
Q 2597 3491 2834 3397 
z
" transform="scale(0.015625)"/>
       <path id="DejaVuSans-29" d="M 513 4856 
L 1013 4856 
Q 1481 4119 1714 3412 
Q 1947 2706 1947 2009 
Q 1947 1309 1714 600 
Q 1481 -109 1013 -844 
L 513 -844 
Q 928 -128 1133 580 
Q 1338 1288 1338 2009 
Q 1338 2731 1133 3434 
Q 928 4138 513 4856 
z
" transform="scale(0.015625)"/>
      </defs>
      <use xlink:href="#DejaVuSans-54"/>
      <use xlink:href="#DejaVuSans-69" x="57.958984"/>
      <use xlink:href="#DejaVuSans-6d" x="85.742188"/>
      <use xlink:href="#DejaVuSans-65" x="183.154297"/>
      <use xlink:href="#DejaVuSans-20" x="244.677734"/>
      <use xlink:href="#DejaVuSans-28" x="276.464844"/>
      <use xlink:href="#DejaVuSans-73" x="315.478516"/>
      <use xlink:href="#DejaVuSans-29" x="367.578125"/>
     </g>
    </g>
   </g>
   <g id="matplotlib.axis_2">
    <g id="ytick_1">
     <g id="line2d_17">
      <path d="M 108.01 331.64 
L 897.84 331.64 
" clip-path="url(#p19655fe5aa)" style="fill: none; stroke-dasharray: 5.12,1.28,0.8,1.28; stroke-dashoffset: 0; stroke: #b0b0b0; stroke-width: 0.8"/>
     </g>
     <g id="line2d_18">
      <defs>
       <path id="m7e5d39dfb7" d="M 0 0 
L -3.5 0 
" style="stroke: #000000; stroke-width: 0.8"/>
      </defs>
      <g>
       <use xlink:href="#m7e5d39dfb7" x="108.01" y="331.64" style="stroke: #000000; stroke-width: 0.8"/>
      </g>
     </g>
     <g id="text_10">
      <!-- 0 -->
      <g transform="translate(87.0125 339.998281)scale(0.22 -0.22)">
       <use xlink:href="#DejaVuSans-30"/>
      </g>
     </g>
    </g>
    <g id="ytick_2">
     <g id="line2d_19">
      <path d="M 108.01 241.351858 
L 897.84 241.351858 
" clip-path="url(#p19655fe5aa)" style="fill: none; stroke-dasharray: 5.12,1.28,0.8,1.28; stroke-dashoffset: 0; stroke: #b0b0b0; stroke-width: 0.8"/>
     </g>
     <g id="line2d_20">
      <g>
       <use xlink:href="#m7e5d39dfb7" x="108.01" y="241.351858" style="stroke: #000000; stroke-width: 0.8"/>
      </g>
     </g>
     <g id="text_11">
      <!-- 5 -->
      <g transform="translate(87.0125 249.710139)scale(0.22 -0.22)">
       <use xlink:href="#DejaVuSans-35"/>
      </g>
     </g>
    </g>
    <g id="ytick_3">
     <g id="line2d_21">
      <path d="M 108.01 151.063716 
L 897.84 151.063716 
" clip-path="url(#p19655fe5aa)" style="fill: none; stroke-dasharray: 5.12,1.28,0.8,1.28; stroke-dashoffset: 0; stroke: #b0b0b0; stroke-width: 0.8"/>
     </g>
     <g id="line2d_22">
      <g>
       <use xlink:href="#m7e5d39dfb7" x="108.01" y="151.063716" style="stroke: #000000; stroke-width: 0.8"/>
      </g>
     </g>
     <g id="text_12">
      <!-- 10 -->
      <g transform="translate(73.015 159.421997)scale(0.22 -0.22)">
       <use xlink:href="#DejaVuSans-31"/>
       <use xlink:href="#DejaVuSans-30" x="63.623047"/>
      </g>
     </g>
    </g>
    <g id="ytick_4">
     <g id="line2d_23">
      <path d="M 108.01 60.775574 
L 897.84 60.775574 
" clip-path="url(#p19655fe5aa)" style="fill: none; stroke-dasharray: 5.12,1.28,0.8,1.28; stroke-dashoffset: 0; stroke: #b0b0b0; stroke-width: 0.8"/>
     </g>
     <g id="line2d_24">
      <g>
       <use xlink:href="#m7e5d39dfb7" x="108.01" y="60.775574" style="stroke: #000000; stroke-width: 0.8"/>
      </g>
     </g>
     <g id="text_13">
      <!-- 15 -->
      <g transform="translate(73.015 69.133855)scale(0.22 -0.22)">
       <use xlink:href="#DejaVuSans-31"/>
       <use xlink:href="#DejaVuSans-35" x="63.623047"/>
      </g>
     </g>
    </g>
    <g id="text_14">
     <!-- Throughput (Mbps) -->
     <g transform="translate(64.02375 292.414375)rotate(-90)scale(0.24 -0.24)">
      <defs>
       <path id="DejaVuSans-68" d="M 3513 2113 
L 3513 0 
L 2938 0 
L 2938 2094 
Q 2938 2591 2744 2837 
Q 2550 3084 2163 3084 
Q 1697 3084 1428 2787 
Q 1159 2491 1159 1978 
L 1159 0 
L 581 0 
L 581 4863 
L 1159 4863 
L 1159 2956 
Q 1366 3272 1645 3428 
Q 1925 3584 2291 3584 
Q 2894 3584 3203 3211 
Q 3513 2838 3513 2113 
z
" transform="scale(0.015625)"/>
       <path id="DejaVuSans-72" d="M 2631 2963 
Q 2534 3019 2420 3045 
Q 2306 3072 2169 3072 
Q 1681 3072 1420 2755 
Q 1159 2438 1159 1844 
L 1159 0 
L 581 0 
L 581 3500 
L 1159 3500 
L 1159 2956 
Q 1341 3275 1631 3429 
Q 1922 3584 2338 3584 
Q 2397 3584 2469 3576 
Q 2541 3569 2628 3553 
L 2631 2963 
z
" transform="scale(0.015625)"/>
       <path id="DejaVuSans-6f" d="M 1959 3097 
Q 1497 3097 1228 2736 
Q 959 2375 959 1747 
Q 959 1119 1226 758 
Q 1494 397 1959 397 
Q 2419 397 2687 759 
Q 2956 1122 2956 1747 
Q 2956 2369 2687 2733 
Q 2419 3097 1959 3097 
z
M 1959 3584 
Q 2709 3584 3137 3096 
Q 3566 2609 3566 1747 
Q 3566 888 3137 398 
Q 2709 -91 1959 -91 
Q 1206 -91 779 398 
Q 353 888 353 1747 
Q 353 2609 779 3096 
Q 1206 3584 1959 3584 
z
" transform="scale(0.015625)"/>
       <path id="DejaVuSans-75" d="M 544 1381 
L 544 3500 
L 1119 3500 
L 1119 1403 
Q 1119 906 1312 657 
Q 1506 409 1894 409 
Q 2359 409 2629 706 
Q 2900 1003 2900 1516 
L 2900 3500 
L 3475 3500 
L 3475 0 
L 2900 0 
L 2900 538 
Q 2691 219 2414 64 
Q 2138 -91 1772 -91 
Q 1169 -91 856 284 
Q 544 659 544 1381 
z
M 1991 3584 
L 1991 3584 
z
" transform="scale(0.015625)"/>
       <path id="DejaVuSans-67" d="M 2906 1791 
Q 2906 2416 2648 2759 
Q 2391 3103 1925 3103 
Q 1463 3103 1205 2759 
Q 947 2416 947 1791 
Q 947 1169 1205 825 
Q 1463 481 1925 481 
Q 2391 481 2648 825 
Q 2906 1169 2906 1791 
z
M 3481 434 
Q 3481 -459 3084 -895 
Q 2688 -1331 1869 -1331 
Q 1566 -1331 1297 -1286 
Q 1028 -1241 775 -1147 
L 775 -588 
Q 1028 -725 1275 -790 
Q 1522 -856 1778 -856 
Q 2344 -856 2625 -561 
Q 2906 -266 2906 331 
L 2906 616 
Q 2728 306 2450 153 
Q 2172 0 1784 0 
Q 1141 0 747 490 
Q 353 981 353 1791 
Q 353 2603 747 3093 
Q 1141 3584 1784 3584 
Q 2172 3584 2450 3431 
Q 2728 3278 2906 2969 
L 2906 3500 
L 3481 3500 
L 3481 434 
z
" transform="scale(0.015625)"/>
       <path id="DejaVuSans-70" d="M 1159 525 
L 1159 -1331 
L 581 -1331 
L 581 3500 
L 1159 3500 
L 1159 2969 
Q 1341 3281 1617 3432 
Q 1894 3584 2278 3584 
Q 2916 3584 3314 3078 
Q 3713 2572 3713 1747 
Q 3713 922 3314 415 
Q 2916 -91 2278 -91 
Q 1894 -91 1617 61 
Q 1341 213 1159 525 
z
M 3116 1747 
Q 3116 2381 2855 2742 
Q 2594 3103 2138 3103 
Q 1681 3103 1420 2742 
Q 1159 2381 1159 1747 
Q 1159 1113 1420 752 
Q 1681 391 2138 391 
Q 2594 391 2855 752 
Q 3116 1113 3116 1747 
z
" transform="scale(0.015625)"/>
       <path id="DejaVuSans-74" d="M 1172 4494 
L 1172 3500 
L 2356 3500 
L 2356 3053 
L 1172 3053 
L 1172 1153 
Q 1172 725 1289 603 
Q 1406 481 1766 481 
L 2356 481 
L 2356 0 
L 1766 0 
Q 1100 0 847 248 
Q 594 497 594 1153 
L 594 3053 
L 172 3053 
L 172 3500 
L 594 3500 
L 594 4494 
L 1172 4494 
z
" transform="scale(0.015625)"/>
       <path id="DejaVuSans-4d" d="M 628 4666 
L 1569 4666 
L 2759 1491 
L 3956 4666 
L 4897 4666 
L 4897 0 
L 4281 0 
L 4281 4097 
L 3078 897 
L 2444 897 
L 1241 4097 
L 1241 0 
L 628 0 
L 628 4666 
z
" transform="scale(0.015625)"/>
       <path id="DejaVuSans-62" d="M 3116 1747 
Q 3116 2381 2855 2742 
Q 2594 3103 2138 3103 
Q 1681 3103 1420 2742 
Q 1159 2381 1159 1747 
Q 1159 1113 1420 752 
Q 1681 391 2138 391 
Q 2594 391 2855 752 
Q 3116 1113 3116 1747 
z
M 1159 2969 
Q 1341 3281 1617 3432 
Q 1894 3584 2278 3584 
Q 2916 3584 3314 3078 
Q 3713 2572 3713 1747 
Q 3713 922 3314 415 
Q 2916 -91 2278 -91 
Q 1894 -91 1617 61 
Q 1341 213 1159 525 
L 1159 0 
L 581 0 
L 581 4863 
L 1159 4863 
L 1159 2969 
z
" transform="scale(0.015625)"/>
      </defs>
      <use xlink:href="#DejaVuSans-54"/>
      <use xlink:href="#DejaVuSans-68" x="61.083984"/>
      <use xlink:href="#DejaVuSans-72" x="124.462891"/>
      <use xlink:href="#DejaVuSans-6f" x="163.326172"/>
      <use xlink:href="#DejaVuSans-75" x="224.507812"/>
      <use xlink:href="#DejaVuSans-67" x="287.886719"/>
      <use xlink:href="#DejaVuSans-68" x="351.363281"/>
      <use xlink:href="#DejaVuSans-70" x="414.742188"/>
      <use xlink:href="#DejaVuSans-75" x="478.21875"/>
      <use xlink:href="#DejaVuSans-74" x="541.597656"/>
      <use xlink:href="#DejaVuSans-20" x="580.806641"/>
      <use xlink:href="#DejaVuSans-28" x="612.59375"/>
      <use xlink:href="#DejaVuSans-4d" x="651.607422"/>
      <use xlink:href="#DejaVuSans-62" x="737.886719"/>
      <use xlink:href="#DejaVuSans-70" x="801.363281"/>
      <use xlink:href="#DejaVuSans-73" x="864.839844"/>
      <use xlink:href="#DejaVuSans-29" x="916.939453"/>
     </g>
    </g>
   </g>
   <g id="patch_3">
    <path d="M 108.01 331.64 
L 108.01 23.76 
" style="fill: none; stroke: #000000; stroke-width: 0.8; stroke-linejoin: miter; stroke-linecap: square"/>
   </g>
   <g id="patch_4">
    <path d="M 897.84 331.64 
L 897.84 23.76 
" style="fill: none; stroke: #000000; stroke-width: 0.8; stroke-linejoin: miter; stroke-linecap: square"/>
   </g>
   <g id="patch_5">
    <path d="M 108.01 331.64 
L 897.84 331.64 
" style="fill: none; stroke: #000000; stroke-width: 0.8; stroke-linejoin: miter; stroke-linecap: square"/>
   </g>
   <g id="patch_6">
    <path d="M 108.01 23.76 
L 897.84 23.76 
" style="fill: none; stroke: #000000; stroke-width: 0.8; stroke-linejoin: miter; stroke-linecap: square"/>
   </g>
   <g id="legend_1">
    <g id="patch_7">
     <path d="M 756.24 113.415 
L 881.04 113.415 
Q 885.84 113.415 885.84 108.615 
L 885.84 40.56 
Q 885.84 35.76 881.04 35.76 
L 756.24 35.76 
Q 751.44 35.76 751.44 40.56 
L 751.44 108.615 
Q 751.44 113.415 756.24 113.415 
z
" style="fill: #ffffff; opacity: 0.8; stroke: #cccccc; stroke-linejoin: miter"/>
    </g>
    <g id="patch_8">
     <path d="M 761.04 63.59625 
L 809.04 63.59625 
L 809.04 46.79625 
L 761.04 46.79625 
z
" style="fill: #1f77b4"/>
    </g>
    <g id="text_15">
     <!-- UE1 -->
     <g transform="translate(828.24 63.59625)scale(0.24 -0.24)">
      <defs>
       <path id="DejaVuSans-55" d="M 556 4666 
L 1191 4666 
L 1191 1831 
Q 1191 1081 1462 751 
Q 1734 422 2344 422 
Q 2950 422 3222 751 
Q 3494 1081 3494 1831 
L 3494 4666 
L 4128 4666 
L 4128 1753 
Q 4128 841 3676 375 
Q 3225 -91 2344 -91 
Q 1459 -91 1007 375 
Q 556 841 556 1753 
L 556 4666 
z
" transform="scale(0.015625)"/>
       <path id="DejaVuSans-45" d="M 628 4666 
L 3578 4666 
L 3578 4134 
L 1259 4134 
L 1259 2753 
L 3481 2753 
L 3481 2222 
L 1259 2222 
L 1259 531 
L 3634 531 
L 3634 0 
L 628 0 
L 628 4666 
z
" transform="scale(0.015625)"/>
      </defs>
      <use xlink:href="#DejaVuSans-55"/>
      <use xlink:href="#DejaVuSans-45" x="73.193359"/>
      <use xlink:href="#DejaVuSans-31" x="136.376953"/>
     </g>
    </g>
    <g id="patch_9">
     <path d="M 761.04 98.82375 
L 809.04 98.82375 
L 809.04 82.02375 
L 761.04 82.02375 
z
" style="fill: #ff7f0e"/>
    </g>
    <g id="text_16">
     <!-- UE2 -->
     <g transform="translate(828.24 98.82375)scale(0.24 -0.24)">
      <use xlink:href="#DejaVuSans-55"/>
      <use xlink:href="#DejaVuSans-45" x="73.193359"/>
      <use xlink:href="#DejaVuSans-32" x="136.376953"/>
     </g>
    </g>
   </g>
  </g>
 </g>
 <defs>
  <clipPath id="p19655fe5aa">
   <rect x="108.01" y="23.76" width="789.83" height="307.88"/>
  </clipPath>
 </defs>
</svg>
