<?xml version="1.0" encoding="utf-8" standalone="no"?>
<!DOCTYPE svg PUBLIC "-//W3C//DTD SVG 1.1//EN"
  "http://www.w3.org/Graphics/SVG/1.1/DTD/svg11.dtd">
<svg xmlns:xlink="http://www.w3.org/1999/xlink" width="921.6pt" height="410.4pt" viewBox="0 0 921.6 410.4" xmlns="http://www.w3.org/2000/svg" version="1.1">
 <metadata>
  <rdf:RDF xmlns:dc="http://purl.org/dc/elements/1.1/" xmlns:cc="http://creativecommons.org/ns#" xmlns:rdf="http://www.w3.org/1999/02/22-rdf-syntax-ns#">
   <cc:Work>
    <dc:type rdf:resource="http://purl.org/dc/dcmitype/StillImage"/>
    <dc:date>2023-04-11T15:18:52.136387</dc:date>
    <dc:format>image/svg+xml</dc:format>
    <dc:creator>
     <cc:Agent>
      <dc:title>Matplotlib v3.5.3, https://matplotlib.org/</dc:title>
     </cc:Agent>
    </dc:creator>
   </cc:Work>
  </rdf:RDF>
 </metadata>
 <defs>
  <style type="text/css">*{stroke-linejoin: round; stroke-linecap: butt}</style>
 </defs>
 <g id="figure_1">
  <g id="patch_1">
   <path d="M 0 410.4 
L 921.6 410.4 
L 921.6 0 
L 0 0 
L 0 410.4 
z
" style="fill: none"/>
  </g>
  <g id="axes_1">
   <g id="patch_2">
    <path d="M 101.01 331.64 
L 897.84 331.64 
L 897.84 23.76 
L 101.01 23.76 
z
" style="fill: #ffffff"/>
   </g>
   <g id="PolyCollection_1">
    <path d="M 137.229545 185.190585 
L 137.229545 331.64 
L 141.209715 331.64 
L 145.189885 331.64 
L 149.170055 331.64 
L 153.150225 331.64 
L 157.130395 331.64 
L 161.110564 331.64 
L 165.090734 331.64 
L 169.070904 331.64 
L 173.051074 331.64 
L 177.031244 331.64 
L 181.011414 331.64 
L 184.991583 331.64 
L 188.971753 331.64 
L 192.951923 331.64 
L 196.932093 331.64 
L 200.912263 331.64 
L 204.892433 331.64 
L 208.872602 331.64 
L 212.852772 331.64 
L 216.832942 331.64 
L 220.813112 331.64 
L 224.793282 331.64 
L 228.773452 331.64 
L 232.753621 331.64 
L 236.733791 331.64 
L 240.713961 331.64 
L 244.694131 331.64 
L 248.674301 331.64 
L 252.654471 331.64 
L 256.63464 331.64 
L 260.61481 331.64 
L 264.59498 331.64 
L 268.57515 331.64 
L 272.55532 331.64 
L 276.53549 331.64 
L 280.515659 331.64 
L 284.495829 331.64 
L 288.475999 331.64 
L 292.456169 331.64 
L 296.436339 331.64 
L 300.416508 331.64 
L 304.396678 331.64 
L 308.376848 331.64 
L 312.357018 331.64 
L 316.337188 331.64 
L 320.317358 331.64 
L 324.297527 331.64 
L 328.277697 331.64 
L 332.257867 331.64 
L 336.238037 331.64 
L 340.218207 331.64 
L 344.198377 331.64 
L 348.178546 331.64 
L 352.158716 331.64 
L 356.138886 331.64 
L 360.119056 331.64 
L 364.099226 331.64 
L 368.079396 331.64 
L 372.059565 331.64 
L 376.039735 331.64 
L 380.019905 331.64 
L 384.000075 331.64 
L 387.980245 331.64 
L 391.960415 331.64 
L 395.940584 331.64 
L 399.920754 331.64 
L 403.900924 331.64 
L 407.881094 331.64 
L 411.861264 331.64 
L 415.841434 331.64 
L 419.821603 331.64 
L 423.801773 331.64 
L 427.781943 331.64 
L 431.762113 331.64 
L 435.742283 331.64 
L 439.722453 331.64 
L 443.702622 331.64 
L 447.682792 331.64 
L 451.662962 331.64 
L 455.643132 331.64 
L 459.623302 331.64 
L 463.603472 331.64 
L 467.583641 331.64 
L 471.563811 331.64 
L 475.543981 331.64 
L 479.524151 331.64 
L 483.504321 331.64 
L 487.484491 331.64 
L 491.46466 331.64 
L 495.44483 331.64 
L 499.425 331.64 
L 503.40517 331.64 
L 507.38534 331.64 
L 511.365509 331.64 
L 515.345679 331.64 
L 519.325849 331.64 
L 523.306019 331.64 
L 527.286189 331.64 
L 531.266359 331.64 
L 535.246528 331.64 
L 539.226698 331.64 
L 543.206868 331.64 
L 547.187038 331.64 
L 551.167208 331.64 
L 555.147378 331.64 
L 559.127547 331.64 
L 563.107717 331.64 
L 567.087887 331.64 
L 571.068057 331.64 
L 575.048227 331.64 
L 579.028397 331.64 
L 583.008566 331.64 
L 586.988736 331.64 
L 590.968906 331.64 
L 594.949076 331.64 
L 598.929246 331.64 
L 602.909416 331.64 
L 606.889585 331.64 
L 610.869755 331.64 
L 614.849925 331.64 
L 618.830095 331.64 
L 622.810265 331.64 
L 626.790435 331.64 
L 630.770604 331.64 
L 634.750774 331.64 
L 638.730944 331.64 
L 642.711114 331.64 
L 646.691284 331.64 
L 650.671454 331.64 
L 654.651623 331.64 
L 658.631793 331.64 
L 662.611963 331.64 
L 666.592133 331.64 
L 670.572303 331.64 
L 674.552473 331.64 
L 678.532642 331.64 
L 682.512812 331.64 
L 686.492982 331.64 
L 690.473152 331.64 
L 694.453322 331.64 
L 698.433492 331.64 
L 702.413661 331.64 
L 706.393831 331.64 
L 710.374001 331.64 
L 714.354171 331.64 
L 718.334341 331.64 
L 722.31451 331.64 
L 726.29468 331.64 
L 730.27485 331.64 
L 734.25502 331.64 
L 738.23519 331.64 
L 742.21536 331.64 
L 746.195529 331.64 
L 750.175699 331.64 
L 754.155869 331.64 
L 758.136039 331.64 
L 762.116209 331.64 
L 766.096379 331.64 
L 770.076548 331.64 
L 774.056718 331.64 
L 778.036888 331.64 
L 782.017058 331.64 
L 785.997228 331.64 
L 789.977398 331.64 
L 793.957567 331.64 
L 797.937737 331.64 
L 801.917907 331.64 
L 805.898077 331.64 
L 809.878247 331.64 
L 813.858417 331.64 
L 817.838586 331.64 
L 821.818756 331.64 
L 825.798926 331.64 
L 829.779096 331.64 
L 833.759266 331.64 
L 837.739436 331.64 
L 841.719605 331.64 
L 845.699775 331.64 
L 849.679945 331.64 
L 853.660115 331.64 
L 857.640285 331.64 
L 861.620455 331.64 
L 861.620455 233.893999 
L 861.620455 233.893999 
L 857.640285 233.973032 
L 853.660115 233.882931 
L 849.679945 234.142961 
L 845.699775 233.997146 
L 841.719605 233.982929 
L 837.739436 234.007963 
L 833.759266 234.119237 
L 829.779096 233.954814 
L 825.798926 234.306659 
L 821.818756 234.085365 
L 817.838586 233.918392 
L 813.858417 234.426589 
L 809.878247 233.831998 
L 805.898077 234.151491 
L 801.917907 234.376465 
L 797.937737 233.883739 
L 793.957567 234.092321 
L 789.977398 234.206564 
L 785.997228 234.12452 
L 782.017058 234.290532 
L 778.036888 233.93325 
L 774.056718 234.294685 
L 770.076548 234.176567 
L 766.096379 234.148272 
L 762.116209 234.193308 
L 758.136039 234.036133 
L 754.155869 234.134374 
L 750.175699 233.894333 
L 746.195529 234.018291 
L 742.21536 233.934923 
L 738.23519 234.206703 
L 734.25502 233.927131 
L 730.27485 234.327038 
L 726.29468 234.084891 
L 722.31451 234.246471 
L 718.334341 234.164176 
L 714.354171 233.834884 
L 710.374001 234.260633 
L 706.393831 233.892256 
L 702.413661 234.121913 
L 698.433492 234.002778 
L 694.453322 234.103932 
L 690.473152 234.105772 
L 686.492982 234.513373 
L 682.512812 234.461116 
L 678.532642 234.109354 
L 674.552473 234.346928 
L 670.572303 233.804135 
L 666.592133 234.240171 
L 662.611963 234.157388 
L 658.631793 234.329547 
L 654.651623 234.164301 
L 650.671454 233.908411 
L 646.691284 234.133008 
L 642.711114 234.042489 
L 638.730944 234.226692 
L 634.750774 234.254737 
L 630.770604 233.966397 
L 626.790435 233.993188 
L 622.810265 234.567246 
L 618.830095 233.880896 
L 614.849925 234.22534 
L 610.869755 233.899072 
L 606.889585 234.574592 
L 602.909416 234.107905 
L 598.929246 234.179648 
L 594.949076 234.065447 
L 590.968906 234.276175 
L 586.988736 233.799674 
L 583.008566 234.168497 
L 579.028397 233.753355 
L 575.048227 234.43682 
L 571.068057 234.130304 
L 567.087887 233.78016 
L 563.107717 234.296707 
L 559.127547 234.41633 
L 555.147378 234.404329 
L 551.167208 233.980141 
L 547.187038 234.262654 
L 543.206868 234.060791 
L 539.226698 233.710716 
L 535.246528 234.241439 
L 531.266359 233.92228 
L 527.286189 234.478776 
L 523.306019 234.156621 
L 519.325849 233.878038 
L 515.345679 234.839682 
L 511.365509 234.198842 
L 507.38534 234.381148 
L 503.40517 233.832249 
L 499.425 233.936944 
L 495.44483 234.401527 
L 491.46466 234.32747 
L 487.484491 234.862639 
L 483.504321 234.14126 
L 479.524151 233.941697 
L 475.543981 234.459359 
L 471.563811 234.330174 
L 467.583641 234.421306 
L 463.603472 234.184429 
L 459.623302 234.045472 
L 455.643132 234.313684 
L 451.662962 233.907394 
L 447.682792 234.344155 
L 443.702622 234.263811 
L 439.722453 234.21423 
L 435.742283 234.287172 
L 431.762113 234.460363 
L 427.781943 234.113494 
L 423.801773 234.285082 
L 419.821603 233.975708 
L 415.841434 234.467946 
L 411.861264 234.098036 
L 407.881094 234.117759 
L 403.900924 234.412497 
L 399.920754 234.180275 
L 395.940584 234.503267 
L 391.960415 234.484951 
L 387.980245 234.246527 
L 384.000075 234.067231 
L 380.019905 234.089185 
L 376.039735 234.461827 
L 372.059565 234.150474 
L 368.079396 234.072291 
L 364.099226 234.291967 
L 360.119056 234.234191 
L 356.138886 234.243976 
L 352.158716 234.594483 
L 348.178546 234.142529 
L 344.198377 233.810616 
L 340.218207 234.345646 
L 336.238037 233.92656 
L 332.257867 234.437447 
L 328.277697 234.2591 
L 324.297527 234.241495 
L 320.317358 234.442424 
L 316.337188 234.303216 
L 312.357018 234.690438 
L 308.376848 234.424986 
L 304.396678 234.393233 
L 300.416508 234.314604 
L 296.436339 234.138891 
L 292.456169 234.389317 
L 288.475999 234.132158 
L 284.495829 234.342161 
L 280.515659 233.802532 
L 276.53549 234.353717 
L 272.55532 234.360895 
L 268.57515 234.264689 
L 264.59498 234.555454 
L 260.61481 234.331094 
L 256.63464 234.471026 
L 252.654471 234.161973 
L 248.674301 234.34329 
L 244.694131 234.100433 
L 240.713961 234.320208 
L 236.733791 234.382654 
L 232.753621 234.262194 
L 228.773452 234.074953 
L 224.793282 234.053682 
L 220.813112 234.330132 
L 216.832942 234.131628 
L 212.852772 234.28826 
L 208.872602 234.414448 
L 204.892433 234.123892 
L 200.912263 234.163214 
L 196.932093 234.219555 
L 192.951923 234.31689 
L 188.971753 234.530057 
L 184.991583 234.09975 
L 181.011414 234.341729 
L 177.031244 234.151477 
L 173.051074 234.279896 
L 169.070904 234.240031 
L 165.090734 234.485355 
L 161.110564 234.050825 
L 157.130395 234.546338 
L 153.150225 234.551704 
L 149.170055 234.734792 
L 145.189885 234.710189 
L 141.209715 233.905219 
L 137.229545 185.190585 
z
" clip-path="url(#p8e2cfa9ae4)" style="fill: #1f77b4"/>
   </g>
   <g id="PolyCollection_2">
    <path d="M 137.229545 38.511876 
L 137.229545 185.190585 
L 141.209715 233.905219 
L 145.189885 234.710189 
L 149.170055 234.734792 
L 153.150225 234.551704 
L 157.130395 234.546338 
L 161.110564 234.050825 
L 165.090734 234.485355 
L 169.070904 234.240031 
L 173.051074 234.279896 
L 177.031244 234.151477 
L 181.011414 234.341729 
L 184.991583 234.09975 
L 188.971753 234.530057 
L 192.951923 234.31689 
L 196.932093 234.219555 
L 200.912263 234.163214 
L 204.892433 234.123892 
L 208.872602 234.414448 
L 212.852772 234.28826 
L 216.832942 234.131628 
L 220.813112 234.330132 
L 224.793282 234.053682 
L 228.773452 234.074953 
L 232.753621 234.262194 
L 236.733791 234.382654 
L 240.713961 234.320208 
L 244.694131 234.100433 
L 248.674301 234.34329 
L 252.654471 234.161973 
L 256.63464 234.471026 
L 260.61481 234.331094 
L 264.59498 234.555454 
L 268.57515 234.264689 
L 272.55532 234.360895 
L 276.53549 234.353717 
L 280.515659 233.802532 
L 284.495829 234.342161 
L 288.475999 234.132158 
L 292.456169 234.389317 
L 296.436339 234.138891 
L 300.416508 234.314604 
L 304.396678 234.393233 
L 308.376848 234.424986 
L 312.357018 234.690438 
L 316.337188 234.303216 
L 320.317358 234.442424 
L 324.297527 234.241495 
L 328.277697 234.2591 
L 332.257867 234.437447 
L 336.238037 233.92656 
L 340.218207 234.345646 
L 344.198377 233.810616 
L 348.178546 234.142529 
L 352.158716 234.594483 
L 356.138886 234.243976 
L 360.119056 234.234191 
L 364.099226 234.291967 
L 368.079396 234.072291 
L 372.059565 234.150474 
L 376.039735 234.461827 
L 380.019905 234.089185 
L 384.000075 234.067231 
L 387.980245 234.246527 
L 391.960415 234.484951 
L 395.940584 234.503267 
L 399.920754 234.180275 
L 403.900924 234.412497 
L 407.881094 234.117759 
L 411.861264 234.098036 
L 415.841434 234.467946 
L 419.821603 233.975708 
L 423.801773 234.285082 
L 427.781943 234.113494 
L 431.762113 234.460363 
L 435.742283 234.287172 
L 439.722453 234.21423 
L 443.702622 234.263811 
L 447.682792 234.344155 
L 451.662962 233.907394 
L 455.643132 234.313684 
L 459.623302 234.045472 
L 463.603472 234.184429 
L 467.583641 234.421306 
L 471.563811 234.330174 
L 475.543981 234.459359 
L 479.524151 233.941697 
L 483.504321 234.14126 
L 487.484491 234.862639 
L 491.46466 234.32747 
L 495.44483 234.401527 
L 499.425 233.936944 
L 503.40517 233.832249 
L 507.38534 234.381148 
L 511.365509 234.198842 
L 515.345679 234.839682 
L 519.325849 233.878038 
L 523.306019 234.156621 
L 527.286189 234.478776 
L 531.266359 233.92228 
L 535.246528 234.241439 
L 539.226698 233.710716 
L 543.206868 234.060791 
L 547.187038 234.262654 
L 551.167208 233.980141 
L 555.147378 234.404329 
L 559.127547 234.41633 
L 563.107717 234.296707 
L 567.087887 233.78016 
L 571.068057 234.130304 
L 575.048227 234.43682 
L 579.028397 233.753355 
L 583.008566 234.168497 
L 586.988736 233.799674 
L 590.968906 234.276175 
L 594.949076 234.065447 
L 598.929246 234.179648 
L 602.909416 234.107905 
L 606.889585 234.574592 
L 610.869755 233.899072 
L 614.849925 234.22534 
L 618.830095 233.880896 
L 622.810265 234.567246 
L 626.790435 233.993188 
L 630.770604 233.966397 
L 634.750774 234.254737 
L 638.730944 234.226692 
L 642.711114 234.042489 
L 646.691284 234.133008 
L 650.671454 233.908411 
L 654.651623 234.164301 
L 658.631793 234.329547 
L 662.611963 234.157388 
L 666.592133 234.240171 
L 670.572303 233.804135 
L 674.552473 234.346928 
L 678.532642 234.109354 
L 682.512812 234.461116 
L 686.492982 234.513373 
L 690.473152 234.105772 
L 694.453322 234.103932 
L 698.433492 234.002778 
L 702.413661 234.121913 
L 706.393831 233.892256 
L 710.374001 234.260633 
L 714.354171 233.834884 
L 718.334341 234.164176 
L 722.31451 234.246471 
L 726.29468 234.084891 
L 730.27485 234.327038 
L 734.25502 233.927131 
L 738.23519 234.206703 
L 742.21536 233.934923 
L 746.195529 234.018291 
L 750.175699 233.894333 
L 754.155869 234.134374 
L 758.136039 234.036133 
L 762.116209 234.193308 
L 766.096379 234.148272 
L 770.076548 234.176567 
L 774.056718 234.294685 
L 778.036888 233.93325 
L 782.017058 234.290532 
L 785.997228 234.12452 
L 789.977398 234.206564 
L 793.957567 234.092321 
L 797.937737 233.883739 
L 801.917907 234.376465 
L 805.898077 234.151491 
L 809.878247 233.831998 
L 813.858417 234.426589 
L 817.838586 233.918392 
L 821.818756 234.085365 
L 825.798926 234.306659 
L 829.779096 233.954814 
L 833.759266 234.119237 
L 837.739436 234.007963 
L 841.719605 233.982929 
L 845.699775 233.997146 
L 849.679945 234.142961 
L 853.660115 233.882931 
L 857.640285 233.973032 
L 861.620455 233.893999 
L 861.620455 136.281002 
L 861.620455 136.281002 
L 857.640285 136.506087 
L 853.660115 136.257543 
L 849.679945 136.662453 
L 845.699775 136.231561 
L 841.719605 136.437995 
L 837.739436 136.240161 
L 833.759266 136.450903 
L 829.779096 136.363311 
L 825.798926 136.895762 
L 821.818756 136.554427 
L 817.838586 136.520778 
L 813.858417 136.902369 
L 809.878247 136.301478 
L 805.898077 136.571279 
L 801.917907 137.023247 
L 797.937737 136.337301 
L 793.957567 136.652919 
L 789.977398 136.67826 
L 785.997228 136.832424 
L 782.017058 136.808128 
L 778.036888 136.309744 
L 774.056718 136.897114 
L 770.076548 136.663234 
L 766.096379 136.637781 
L 762.116209 136.629962 
L 758.136039 136.80226 
L 754.155869 136.706472 
L 750.175699 136.14599 
L 746.195529 136.229832 
L 742.21536 136.393293 
L 738.23519 136.614462 
L 734.25502 136.4734 
L 730.27485 136.725554 
L 726.29468 136.771915 
L 722.31451 136.752652 
L 718.334341 136.656195 
L 714.354171 136.302565 
L 710.374001 136.939265 
L 706.393831 136.401239 
L 702.413661 136.272569 
L 698.433492 136.439124 
L 694.453322 136.436992 
L 690.473152 136.780766 
L 686.492982 137.298261 
L 682.512812 137.321985 
L 678.532642 136.678511 
L 674.552473 136.940436 
L 670.572303 136.051415 
L 666.592133 136.743368 
L 662.611963 136.404124 
L 658.631793 137.044699 
L 654.651623 136.825566 
L 650.671454 136.213468 
L 646.691284 136.502727 
L 642.711114 136.588326 
L 638.730944 136.750143 
L 634.750774 136.801577 
L 630.770604 136.678316 
L 626.790435 136.404598 
L 622.810265 137.348441 
L 618.830095 136.406243 
L 614.849925 136.690456 
L 610.869755 136.357652 
L 606.889585 137.462559 
L 602.909416 136.39866 
L 598.929246 136.672057 
L 594.949076 136.882395 
L 590.968906 136.813174 
L 586.988736 136.069033 
L 583.008566 136.56923 
L 579.028397 136.172306 
L 575.048227 136.954445 
L 571.068057 136.611465 
L 567.087887 136.273754 
L 563.107717 137.021505 
L 559.127547 136.91897 
L 555.147378 137.468943 
L 551.167208 136.26914 
L 547.187038 136.804811 
L 543.206868 136.579782 
L 539.226698 135.975852 
L 535.246528 136.828409 
L 531.266359 136.28457 
L 527.286189 137.40651 
L 523.306019 136.728286 
L 519.325849 136.21443 
L 515.345679 137.943631 
L 511.365509 136.660362 
L 507.38534 137.281827 
L 503.40517 136.282103 
L 499.425 136.383508 
L 495.44483 137.216997 
L 491.46466 136.813091 
L 487.484491 137.975454 
L 483.504321 136.563696 
L 479.524151 136.293658 
L 475.543981 136.915151 
L 471.563811 136.707768 
L 467.583641 137.19733 
L 463.603472 136.621989 
L 459.623302 136.206359 
L 455.643132 136.661449 
L 451.662962 136.248803 
L 447.682792 136.97 
L 443.702622 136.550134 
L 439.722453 136.443878 
L 435.742283 137.265212 
L 431.762113 137.142759 
L 427.781943 136.342166 
L 423.801773 136.681089 
L 419.821603 136.184141 
L 415.841434 137.142675 
L 411.861264 136.266882 
L 407.881094 136.425339 
L 403.900924 136.969945 
L 399.920754 136.677382 
L 395.940584 136.998046 
L 391.960415 137.320494 
L 387.980245 136.5802 
L 384.000075 136.333663 
L 380.019905 136.640318 
L 376.039735 136.546342 
L 372.059565 136.810665 
L 368.079396 136.260721 
L 364.099226 136.871369 
L 360.119056 136.71694 
L 356.138886 136.559501 
L 352.158716 137.255037 
L 348.178546 136.290369 
L 344.198377 136.109749 
L 340.218207 136.953622 
L 336.238037 136.073368 
L 332.257867 136.976719 
L 328.277697 136.85375 
L 324.297527 136.654382 
L 320.317358 136.961386 
L 316.337188 136.810777 
L 312.357018 137.152837 
L 308.376848 137.03023 
L 304.396678 137.04626 
L 300.416508 136.859019 
L 296.436339 136.707852 
L 292.456169 136.650215 
L 288.475999 136.475853 
L 284.495829 136.685856 
L 280.515659 136.155468 
L 276.53549 136.742114 
L 272.55532 136.993362 
L 268.57515 136.413449 
L 264.59498 137.60907 
L 260.61481 137.018884 
L 256.63464 136.855005 
L 252.654471 136.416808 
L 248.674301 137.283611 
L 244.694131 136.261501 
L 240.713961 136.784181 
L 236.733791 136.90637 
L 232.753621 136.578931 
L 228.773452 136.320546 
L 224.793282 136.512568 
L 220.813112 136.607896 
L 216.832942 136.316922 
L 212.852772 136.915304 
L 208.872602 137.003914 
L 204.892433 136.668893 
L 200.912263 136.34059 
L 196.932093 136.757182 
L 192.951923 136.687836 
L 188.971753 137.076494 
L 184.991583 136.533602 
L 181.011414 136.841484 
L 177.031244 136.521893 
L 173.051074 136.689118 
L 169.070904 136.673967 
L 165.090734 137.056101 
L 161.110564 136.468354 
L 157.130395 137.221528 
L 153.150225 137.014256 
L 149.170055 137.773772 
L 145.189885 137.281994 
L 141.209715 141.260526 
L 137.229545 38.511876 
z
" clip-path="url(#p8e2cfa9ae4)" style="fill: #ff7f0e"/>
   </g>
   <g id="PolyCollection_3">
    <path d="M 137.229545 29.161063 
L 137.229545 38.511876 
L 141.209715 141.260526 
L 145.189885 137.281994 
L 149.170055 137.773772 
L 153.150225 137.014256 
L 157.130395 137.221528 
L 161.110564 136.468354 
L 165.090734 137.056101 
L 169.070904 136.673967 
L 173.051074 136.689118 
L 177.031244 136.521893 
L 181.011414 136.841484 
L 184.991583 136.533602 
L 188.971753 137.076494 
L 192.951923 136.687836 
L 196.932093 136.757182 
L 200.912263 136.34059 
L 204.892433 136.668893 
L 208.872602 137.003914 
L 212.852772 136.915304 
L 216.832942 136.316922 
L 220.813112 136.607896 
L 224.793282 136.512568 
L 228.773452 136.320546 
L 232.753621 136.578931 
L 236.733791 136.90637 
L 240.713961 136.784181 
L 244.694131 136.261501 
L 248.674301 137.283611 
L 252.654471 136.416808 
L 256.63464 136.855005 
L 260.61481 137.018884 
L 264.59498 137.60907 
L 268.57515 136.413449 
L 272.55532 136.993362 
L 276.53549 136.742114 
L 280.515659 136.155468 
L 284.495829 136.685856 
L 288.475999 136.475853 
L 292.456169 136.650215 
L 296.436339 136.707852 
L 300.416508 136.859019 
L 304.396678 137.04626 
L 308.376848 137.03023 
L 312.357018 137.152837 
L 316.337188 136.810777 
L 320.317358 136.961386 
L 324.297527 136.654382 
L 328.277697 136.85375 
L 332.257867 136.976719 
L 336.238037 136.073368 
L 340.218207 136.953622 
L 344.198377 136.109749 
L 348.178546 136.290369 
L 352.158716 137.255037 
L 356.138886 136.559501 
L 360.119056 136.71694 
L 364.099226 136.871369 
L 368.079396 136.260721 
L 372.059565 136.810665 
L 376.039735 136.546342 
L 380.019905 136.640318 
L 384.000075 136.333663 
L 387.980245 136.5802 
L 391.960415 137.320494 
L 395.940584 136.998046 
L 399.920754 136.677382 
L 403.900924 136.969945 
L 407.881094 136.425339 
L 411.861264 136.266882 
L 415.841434 137.142675 
L 419.821603 136.184141 
L 423.801773 136.681089 
L 427.781943 136.342166 
L 431.762113 137.142759 
L 435.742283 137.265212 
L 439.722453 136.443878 
L 443.702622 136.550134 
L 447.682792 136.97 
L 451.662962 136.248803 
L 455.643132 136.661449 
L 459.623302 136.206359 
L 463.603472 136.621989 
L 467.583641 137.19733 
L 471.563811 136.707768 
L 475.543981 136.915151 
L 479.524151 136.293658 
L 483.504321 136.563696 
L 487.484491 137.975454 
L 491.46466 136.813091 
L 495.44483 137.216997 
L 499.425 136.383508 
L 503.40517 136.282103 
L 507.38534 137.281827 
L 511.365509 136.660362 
L 515.345679 137.943631 
L 519.325849 136.21443 
L 523.306019 136.728286 
L 527.286189 137.40651 
L 531.266359 136.28457 
L 535.246528 136.828409 
L 539.226698 135.975852 
L 543.206868 136.579782 
L 547.187038 136.804811 
L 551.167208 136.26914 
L 555.147378 137.468943 
L 559.127547 136.91897 
L 563.107717 137.021505 
L 567.087887 136.273754 
L 571.068057 136.611465 
L 575.048227 136.954445 
L 579.028397 136.172306 
L 583.008566 136.56923 
L 586.988736 136.069033 
L 590.968906 136.813174 
L 594.949076 136.882395 
L 598.929246 136.672057 
L 602.909416 136.39866 
L 606.889585 137.462559 
L 610.869755 136.357652 
L 614.849925 136.690456 
L 618.830095 136.406243 
L 622.810265 137.348441 
L 626.790435 136.404598 
L 630.770604 136.678316 
L 634.750774 136.801577 
L 638.730944 136.750143 
L 642.711114 136.588326 
L 646.691284 136.502727 
L 650.671454 136.213468 
L 654.651623 136.825566 
L 658.631793 137.044699 
L 662.611963 136.404124 
L 666.592133 136.743368 
L 670.572303 136.051415 
L 674.552473 136.940436 
L 678.532642 136.678511 
L 682.512812 137.321985 
L 686.492982 137.298261 
L 690.473152 136.780766 
L 694.453322 136.436992 
L 698.433492 136.439124 
L 702.413661 136.272569 
L 706.393831 136.401239 
L 710.374001 136.939265 
L 714.354171 136.302565 
L 718.334341 136.656195 
L 722.31451 136.752652 
L 726.29468 136.771915 
L 730.27485 136.725554 
L 734.25502 136.4734 
L 738.23519 136.614462 
L 742.21536 136.393293 
L 746.195529 136.229832 
L 750.175699 136.14599 
L 754.155869 136.706472 
L 758.136039 136.80226 
L 762.116209 136.629962 
L 766.096379 136.637781 
L 770.076548 136.663234 
L 774.056718 136.897114 
L 778.036888 136.309744 
L 782.017058 136.808128 
L 785.997228 136.832424 
L 789.977398 136.67826 
L 793.957567 136.652919 
L 797.937737 136.337301 
L 801.917907 137.023247 
L 805.898077 136.571279 
L 809.878247 136.301478 
L 813.858417 136.902369 
L 817.838586 136.520778 
L 821.818756 136.554427 
L 825.798926 136.895762 
L 829.779096 136.363311 
L 833.759266 136.450903 
L 837.739436 136.240161 
L 841.719605 136.437995 
L 845.699775 136.231561 
L 849.679945 136.662453 
L 853.660115 136.257543 
L 857.640285 136.506087 
L 861.620455 136.281002 
L 861.620455 38.657188 
L 861.620455 38.657188 
L 857.640285 39.120043 
L 853.660115 38.385088 
L 849.679945 39.131138 
L 845.699775 38.697946 
L 841.719605 38.529062 
L 837.739436 38.987874 
L 833.759266 38.724179 
L 829.779096 38.87221 
L 825.798926 39.208081 
L 821.818756 39.340542 
L 817.838586 38.916075 
L 813.858417 39.2877 
L 809.878247 38.860389 
L 805.898077 39.026318 
L 801.917907 39.355763 
L 797.937737 39.231819 
L 793.957567 39.144143 
L 789.977398 39.035517 
L 785.997228 39.514248 
L 782.017058 39.381494 
L 778.036888 38.865184 
L 774.056718 39.109171 
L 770.076548 39.200456 
L 766.096379 39.383808 
L 762.116209 39.210227 
L 758.136039 39.216068 
L 754.155869 39.122677 
L 750.175699 38.438487 
L 746.195529 38.805833 
L 742.21536 38.710574 
L 738.23519 39.076707 
L 734.25502 39.072651 
L 730.27485 38.926265 
L 726.29468 39.626833 
L 722.31451 39.056593 
L 718.334341 39.233533 
L 714.354171 38.790388 
L 710.374001 39.816415 
L 706.393831 38.723733 
L 702.413661 38.629297 
L 698.433492 39.011166 
L 694.453322 38.732319 
L 690.473152 39.491918 
L 686.492982 40.122443 
L 682.512812 40.01825 
L 678.532642 39.347484 
L 674.552473 39.220166 
L 670.572303 38.493727 
L 666.592133 39.424984 
L 662.611963 38.780297 
L 658.631793 39.475902 
L 654.651623 39.528675 
L 650.671454 38.413161 
L 646.691284 39.165888 
L 642.711114 38.70557 
L 638.730944 39.800051 
L 634.750774 39.089433 
L 630.770604 39.040982 
L 626.790435 39.005019 
L 622.810265 40.162922 
L 618.830095 38.92225 
L 614.849925 39.283016 
L 610.869755 38.661551 
L 606.889585 40.592267 
L 602.909416 38.746495 
L 598.929246 39.201251 
L 594.949076 39.530013 
L 590.968906 39.519127 
L 586.988736 38.505868 
L 583.008566 38.972388 
L 579.028397 38.614006 
L 575.048227 39.245367 
L 571.068057 39.171826 
L 567.087887 38.89362 
L 563.107717 39.783798 
L 559.127547 39.405846 
L 555.147378 40.246959 
L 551.167208 38.927645 
L 547.187038 38.915155 
L 543.206868 39.299854 
L 539.226698 38.720234 
L 535.246528 39.156228 
L 531.266359 38.571771 
L 527.286189 40.341772 
L 523.306019 38.9949 
L 519.325849 38.805902 
L 515.345679 41.126614 
L 511.365509 39.124517 
L 507.38534 39.974538 
L 503.40517 39.05276 
L 499.425 38.501296 
L 495.44483 40.049487 
L 491.46466 39.345588 
L 487.484491 41.161601 
L 483.504321 39.078603 
L 479.524151 38.55871 
L 475.543981 39.361924 
L 471.563811 39.38569 
L 467.583641 39.723554 
L 463.603472 39.040368 
L 459.623302 38.399152 
L 455.643132 39.176342 
L 451.662962 38.559156 
L 447.682792 39.322784 
L 443.702622 38.761256 
L 439.722453 38.828232 
L 435.742283 39.571161 
L 431.762113 39.961477 
L 427.781943 38.626105 
L 423.801773 39.374692 
L 419.821603 38.370884 
L 415.841434 39.924846 
L 411.861264 38.173816 
L 407.881094 39.153622 
L 403.900924 39.284996 
L 399.920754 38.974758 
L 395.940584 39.724837 
L 391.960415 40.04511 
L 387.980245 39.058991 
L 384.000075 38.812886 
L 380.019905 38.535098 
L 376.039735 39.067187 
L 372.059565 39.19909 
L 368.079396 38.740682 
L 364.099226 38.972848 
L 360.119056 39.288383 
L 356.138886 39.009605 
L 352.158716 39.738134 
L 348.178546 38.869115 
L 344.198377 38.10178 
L 340.218207 39.228501 
L 336.238037 38.587327 
L 332.257867 39.256881 
L 328.277697 39.379654 
L 324.297527 39.463678 
L 320.317358 39.620504 
L 316.337188 39.155141 
L 312.357018 39.653693 
L 308.376848 39.959693 
L 304.396678 39.447091 
L 300.416508 39.149008 
L 296.436339 39.427116 
L 292.456169 38.749436 
L 288.475999 39.09965 
L 284.495829 39.175464 
L 280.515659 38.139652 
L 276.53549 39.491779 
L 272.55532 39.43449 
L 268.57515 38.700343 
L 264.59498 40.275213 
L 260.61481 39.285706 
L 256.63464 39.456973 
L 252.654471 38.776394 
L 248.674301 39.895518 
L 244.694131 38.58118 
L 240.713961 39.521078 
L 236.733791 39.236781 
L 232.753621 39.065988 
L 228.773452 38.66689 
L 224.793282 38.919797 
L 220.813112 38.959355 
L 216.832942 38.439435 
L 212.852772 39.317515 
L 208.872602 39.813418 
L 204.892433 38.834017 
L 200.912263 38.728207 
L 196.932093 39.378721 
L 192.951923 39.269565 
L 188.971753 39.521301 
L 184.991583 38.787517 
L 181.011414 39.380839 
L 177.031244 39.016296 
L 173.051074 39.128532 
L 169.070904 38.685373 
L 165.090734 39.726286 
L 161.110564 38.990133 
L 157.130395 40.144481 
L 153.150225 39.346076 
L 149.170055 40.890629 
L 145.189885 39.930756 
L 141.209715 43.858425 
L 137.229545 29.161063 
z
" clip-path="url(#p8e2cfa9ae4)" style="fill: #2ca02c"/>
   </g>
   <g id="matplotlib.axis_1">
    <g id="xtick_1">
     <g id="line2d_1">
      <path d="M 137.229545 331.64 
L 137.229545 23.76 
" clip-path="url(#p8e2cfa9ae4)" style="fill: none; stroke-dasharray: 5.12,1.28,0.8,1.28; stroke-dashoffset: 0; stroke: #b0b0b0; stroke-width: 0.8"/>
     </g>
     <g id="line2d_2">
      <defs>
       <path id="meb1a74d37a" d="M 0 0 
L 0 3.5 
" style="stroke: #000000; stroke-width: 0.8"/>
      </defs>
      <g>
       <use xlink:href="#meb1a74d37a" x="137.229545" y="331.64" style="stroke: #000000; stroke-width: 0.8"/>
      </g>
     </g>
     <g id="text_1">
      <!-- 0 -->
      <g transform="translate(130.230795 355.356563)scale(0.22 -0.22)">
       <defs>
        <path id="DejaVuSans-30" d="M 2034 4250 
Q 1547 4250 1301 3770 
Q 1056 3291 1056 2328 
Q 1056 1369 1301 889 
Q 1547 409 2034 409 
Q 2525 409 2770 889 
Q 3016 1369 3016 2328 
Q 3016 3291 2770 3770 
Q 2525 4250 2034 4250 
z
M 2034 4750 
Q 2819 4750 3233 4129 
Q 3647 3509 3647 2328 
Q 3647 1150 3233 529 
Q 2819 -91 2034 -91 
Q 1250 -91 836 529 
Q 422 1150 422 2328 
Q 422 3509 836 4129 
Q 1250 4750 2034 4750 
z
" transform="scale(0.015625)"/>
       </defs>
       <use xlink:href="#DejaVuSans-30"/>
      </g>
     </g>
    </g>
    <g id="xtick_2">
     <g id="line2d_3">
      <path d="M 236.733791 331.64 
L 236.733791 23.76 
" clip-path="url(#p8e2cfa9ae4)" style="fill: none; stroke-dasharray: 5.12,1.28,0.8,1.28; stroke-dashoffset: 0; stroke: #b0b0b0; stroke-width: 0.8"/>
     </g>
     <g id="line2d_4">
      <g>
       <use xlink:href="#meb1a74d37a" x="236.733791" y="331.64" style="stroke: #000000; stroke-width: 0.8"/>
      </g>
     </g>
     <g id="text_2">
      <!-- 25 -->
      <g transform="translate(222.736291 355.356563)scale(0.22 -0.22)">
       <defs>
        <path id="DejaVuSans-32" d="M 1228 531 
L 3431 531 
L 3431 0 
L 469 0 
L 469 531 
Q 828 903 1448 1529 
Q 2069 2156 2228 2338 
Q 2531 2678 2651 2914 
Q 2772 3150 2772 3378 
Q 2772 3750 2511 3984 
Q 2250 4219 1831 4219 
Q 1534 4219 1204 4116 
Q 875 4013 500 3803 
L 500 4441 
Q 881 4594 1212 4672 
Q 1544 4750 1819 4750 
Q 2544 4750 2975 4387 
Q 3406 4025 3406 3419 
Q 3406 3131 3298 2873 
Q 3191 2616 2906 2266 
Q 2828 2175 2409 1742 
Q 1991 1309 1228 531 
z
" transform="scale(0.015625)"/>
        <path id="DejaVuSans-35" d="M 691 4666 
L 3169 4666 
L 3169 4134 
L 1269 4134 
L 1269 2991 
Q 1406 3038 1543 3061 
Q 1681 3084 1819 3084 
Q 2600 3084 3056 2656 
Q 3513 2228 3513 1497 
Q 3513 744 3044 326 
Q 2575 -91 1722 -91 
Q 1428 -91 1123 -41 
Q 819 9 494 109 
L 494 744 
Q 775 591 1075 516 
Q 1375 441 1709 441 
Q 2250 441 2565 725 
Q 2881 1009 2881 1497 
Q 2881 1984 2565 2268 
Q 2250 2553 1709 2553 
Q 1456 2553 1204 2497 
Q 953 2441 691 2322 
L 691 4666 
z
" transform="scale(0.015625)"/>
       </defs>
       <use xlink:href="#DejaVuSans-32"/>
       <use xlink:href="#DejaVuSans-35" x="63.623047"/>
      </g>
     </g>
    </g>
    <g id="xtick_3">
     <g id="line2d_5">
      <path d="M 336.238037 331.64 
L 336.238037 23.76 
" clip-path="url(#p8e2cfa9ae4)" style="fill: none; stroke-dasharray: 5.12,1.28,0.8,1.28; stroke-dashoffset: 0; stroke: #b0b0b0; stroke-width: 0.8"/>
     </g>
     <g id="line2d_6">
      <g>
       <use xlink:href="#meb1a74d37a" x="336.238037" y="331.64" style="stroke: #000000; stroke-width: 0.8"/>
      </g>
     </g>
     <g id="text_3">
      <!-- 50 -->
      <g transform="translate(322.240537 355.356563)scale(0.22 -0.22)">
       <use xlink:href="#DejaVuSans-35"/>
       <use xlink:href="#DejaVuSans-30" x="63.623047"/>
      </g>
     </g>
    </g>
    <g id="xtick_4">
     <g id="line2d_7">
      <path d="M 435.742283 331.64 
L 435.742283 23.76 
" clip-path="url(#p8e2cfa9ae4)" style="fill: none; stroke-dasharray: 5.12,1.28,0.8,1.28; stroke-dashoffset: 0; stroke: #b0b0b0; stroke-width: 0.8"/>
     </g>
     <g id="line2d_8">
      <g>
       <use xlink:href="#meb1a74d37a" x="435.742283" y="331.64" style="stroke: #000000; stroke-width: 0.8"/>
      </g>
     </g>
     <g id="text_4">
      <!-- 75 -->
      <g transform="translate(421.744783 355.356563)scale(0.22 -0.22)">
       <defs>
        <path id="DejaVuSans-37" d="M 525 4666 
L 3525 4666 
L 3525 4397 
L 1831 0 
L 1172 0 
L 2766 4134 
L 525 4134 
L 525 4666 
z
" transform="scale(0.015625)"/>
       </defs>
       <use xlink:href="#DejaVuSans-37"/>
       <use xlink:href="#DejaVuSans-35" x="63.623047"/>
      </g>
     </g>
    </g>
    <g id="xtick_5">
     <g id="line2d_9">
      <path d="M 535.246528 331.64 
L 535.246528 23.76 
" clip-path="url(#p8e2cfa9ae4)" style="fill: none; stroke-dasharray: 5.12,1.28,0.8,1.28; stroke-dashoffset: 0; stroke: #b0b0b0; stroke-width: 0.8"/>
     </g>
     <g id="line2d_10">
      <g>
       <use xlink:href="#meb1a74d37a" x="535.246528" y="331.64" style="stroke: #000000; stroke-width: 0.8"/>
      </g>
     </g>
     <g id="text_5">
      <!-- 100 -->
      <g transform="translate(514.250278 355.356563)scale(0.22 -0.22)">
       <defs>
        <path id="DejaVuSans-31" d="M 794 531 
L 1825 531 
L 1825 4091 
L 703 3866 
L 703 4441 
L 1819 4666 
L 2450 4666 
L 2450 531 
L 3481 531 
L 3481 0 
L 794 0 
L 794 531 
z
" transform="scale(0.015625)"/>
       </defs>
       <use xlink:href="#DejaVuSans-31"/>
       <use xlink:href="#DejaVuSans-30" x="63.623047"/>
       <use xlink:href="#DejaVuSans-30" x="127.246094"/>
      </g>
     </g>
    </g>
    <g id="xtick_6">
     <g id="line2d_11">
      <path d="M 634.750774 331.64 
L 634.750774 23.76 
" clip-path="url(#p8e2cfa9ae4)" style="fill: none; stroke-dasharray: 5.12,1.28,0.8,1.28; stroke-dashoffset: 0; stroke: #b0b0b0; stroke-width: 0.8"/>
     </g>
     <g id="line2d_12">
      <g>
       <use xlink:href="#meb1a74d37a" x="634.750774" y="331.64" style="stroke: #000000; stroke-width: 0.8"/>
      </g>
     </g>
     <g id="text_6">
      <!-- 125 -->
      <g transform="translate(613.754524 355.356563)scale(0.22 -0.22)">
       <use xlink:href="#DejaVuSans-31"/>
       <use xlink:href="#DejaVuSans-32" x="63.623047"/>
       <use xlink:href="#DejaVuSans-35" x="127.246094"/>
      </g>
     </g>
    </g>
    <g id="xtick_7">
     <g id="line2d_13">
      <path d="M 734.25502 331.64 
L 734.25502 23.76 
" clip-path="url(#p8e2cfa9ae4)" style="fill: none; stroke-dasharray: 5.12,1.28,0.8,1.28; stroke-dashoffset: 0; stroke: #b0b0b0; stroke-width: 0.8"/>
     </g>
     <g id="line2d_14">
      <g>
       <use xlink:href="#meb1a74d37a" x="734.25502" y="331.64" style="stroke: #000000; stroke-width: 0.8"/>
      </g>
     </g>
     <g id="text_7">
      <!-- 150 -->
      <g transform="translate(713.25877 355.356563)scale(0.22 -0.22)">
       <use xlink:href="#DejaVuSans-31"/>
       <use xlink:href="#DejaVuSans-35" x="63.623047"/>
       <use xlink:href="#DejaVuSans-30" x="127.246094"/>
      </g>
     </g>
    </g>
    <g id="xtick_8">
     <g id="line2d_15">
      <path d="M 833.759266 331.64 
L 833.759266 23.76 
" clip-path="url(#p8e2cfa9ae4)" style="fill: none; stroke-dasharray: 5.12,1.28,0.8,1.28; stroke-dashoffset: 0; stroke: #b0b0b0; stroke-width: 0.8"/>
     </g>
     <g id="line2d_16">
      <g>
       <use xlink:href="#meb1a74d37a" x="833.759266" y="331.64" style="stroke: #000000; stroke-width: 0.8"/>
      </g>
     </g>
     <g id="text_8">
      <!-- 175 -->
      <g transform="translate(812.763016 355.356563)scale(0.22 -0.22)">
       <use xlink:href="#DejaVuSans-31"/>
       <use xlink:href="#DejaVuSans-37" x="63.623047"/>
       <use xlink:href="#DejaVuSans-35" x="127.246094"/>
      </g>
     </g>
    </g>
    <g id="text_9">
     <!-- Time (s) -->
     <g transform="translate(450.635625 382.168125)scale(0.24 -0.24)">
      <defs>
       <path id="DejaVuSans-54" d="M -19 4666 
L 3928 4666 
L 3928 4134 
L 2272 4134 
L 2272 0 
L 1638 0 
L 1638 4134 
L -19 4134 
L -19 4666 
z
" transform="scale(0.015625)"/>
       <path id="DejaVuSans-69" d="M 603 3500 
L 1178 3500 
L 1178 0 
L 603 0 
L 603 3500 
z
M 603 4863 
L 1178 4863 
L 1178 4134 
L 603 4134 
L 603 4863 
z
" transform="scale(0.015625)"/>
       <path id="DejaVuSans-6d" d="M 3328 2828 
Q 3544 3216 3844 3400 
Q 4144 3584 4550 3584 
Q 5097 3584 5394 3201 
Q 5691 2819 5691 2113 
L 5691 0 
L 5113 0 
L 5113 2094 
Q 5113 2597 4934 2840 
Q 4756 3084 4391 3084 
Q 3944 3084 3684 2787 
Q 3425 2491 3425 1978 
L 3425 0 
L 2847 0 
L 2847 2094 
Q 2847 2600 2669 2842 
Q 2491 3084 2119 3084 
Q 1678 3084 1418 2786 
Q 1159 2488 1159 1978 
L 1159 0 
L 581 0 
L 581 3500 
L 1159 3500 
L 1159 2956 
Q 1356 3278 1631 3431 
Q 1906 3584 2284 3584 
Q 2666 3584 2933 3390 
Q 3200 3197 3328 2828 
z
" transform="scale(0.015625)"/>
       <path id="DejaVuSans-65" d="M 3597 1894 
L 3597 1613 
L 953 1613 
Q 991 1019 1311 708 
Q 1631 397 2203 397 
Q 2534 397 2845 478 
Q 3156 559 3463 722 
L 3463 178 
Q 3153 47 2828 -22 
Q 2503 -91 2169 -91 
Q 1331 -91 842 396 
Q 353 884 353 1716 
Q 353 2575 817 3079 
Q 1281 3584 2069 3584 
Q 2775 3584 3186 3129 
Q 3597 2675 3597 1894 
z
M 3022 2063 
Q 3016 2534 2758 2815 
Q 2500 3097 2075 3097 
Q 1594 3097 1305 2825 
Q 1016 2553 972 2059 
L 3022 2063 
z
" transform="scale(0.015625)"/>
       <path id="DejaVuSans-20" transform="scale(0.015625)"/>
       <path id="DejaVuSans-28" d="M 1984 4856 
Q 1566 4138 1362 3434 
Q 1159 2731 1159 2009 
Q 1159 1288 1364 580 
Q 1569 -128 1984 -844 
L 1484 -844 
Q 1016 -109 783 600 
Q 550 1309 550 2009 
Q 550 2706 781 3412 
Q 1013 4119 1484 4856 
L 1984 4856 
z
" transform="scale(0.015625)"/>
       <path id="DejaVuSans-73" d="M 2834 3397 
L 2834 2853 
Q 2591 2978 2328 3040 
Q 2066 3103 1784 3103 
Q 1356 3103 1142 2972 
Q 928 2841 928 2578 
Q 928 2378 1081 2264 
Q 1234 2150 1697 2047 
L 1894 2003 
Q 2506 1872 2764 1633 
Q 3022 1394 3022 966 
Q 3022 478 2636 193 
Q 2250 -91 1575 -91 
Q 1294 -91 989 -36 
Q 684 19 347 128 
L 347 722 
Q 666 556 975 473 
Q 1284 391 1588 391 
Q 1994 391 2212 530 
Q 2431 669 2431 922 
Q 2431 1156 2273 1281 
Q 2116 1406 1581 1522 
L 1381 1569 
Q 847 1681 609 1914 
Q 372 2147 372 2553 
Q 372 3047 722 3315 
Q 1072 3584 1716 3584 
Q 2034 3584 2315 3537 
Q 2597 3491 2834 3397 
z
" transform="scale(0.015625)"/>
       <path id="DejaVuSans-29" d="M 513 4856 
L 1013 4856 
Q 1481 4119 1714 3412 
Q 1947 2706 1947 2009 
Q 1947 1309 1714 600 
Q 1481 -109 1013 -844 
L 513 -844 
Q 928 -128 1133 580 
Q 1338 1288 1338 2009 
Q 1338 2731 1133 3434 
Q 928 4138 513 4856 
z
" transform="scale(0.015625)"/>
      </defs>
      <use xlink:href="#DejaVuSans-54"/>
      <use xlink:href="#DejaVuSans-69" x="57.958984"/>
      <use xlink:href="#DejaVuSans-6d" x="85.742188"/>
      <use xlink:href="#DejaVuSans-65" x="183.154297"/>
      <use xlink:href="#DejaVuSans-20" x="244.677734"/>
      <use xlink:href="#DejaVuSans-28" x="276.464844"/>
      <use xlink:href="#DejaVuSans-73" x="315.478516"/>
      <use xlink:href="#DejaVuSans-29" x="367.578125"/>
     </g>
    </g>
   </g>
   <g id="matplotlib.axis_2">
    <g id="ytick_1">
     <g id="line2d_17">
      <path d="M 101.01 331.64 
L 897.84 331.64 
" clip-path="url(#p8e2cfa9ae4)" style="fill: none; stroke-dasharray: 5.12,1.28,0.8,1.28; stroke-dashoffset: 0; stroke: #b0b0b0; stroke-width: 0.8"/>
     </g>
     <g id="line2d_18">
      <defs>
       <path id="m3230802a1e" d="M 0 0 
L -3.5 0 
" style="stroke: #000000; stroke-width: 0.8"/>
      </defs>
      <g>
       <use xlink:href="#m3230802a1e" x="101.01" y="331.64" style="stroke: #000000; stroke-width: 0.8"/>
      </g>
     </g>
     <g id="text_10">
      <!-- 0 -->
      <g transform="translate(80.0125 339.998281)scale(0.22 -0.22)">
       <use xlink:href="#DejaVuSans-30"/>
      </g>
     </g>
    </g>
    <g id="ytick_2">
     <g id="line2d_19">
      <path d="M 101.01 244.522016 
L 897.84 244.522016 
" clip-path="url(#p8e2cfa9ae4)" style="fill: none; stroke-dasharray: 5.12,1.28,0.8,1.28; stroke-dashoffset: 0; stroke: #b0b0b0; stroke-width: 0.8"/>
     </g>
     <g id="line2d_20">
      <g>
       <use xlink:href="#m3230802a1e" x="101.01" y="244.522016" style="stroke: #000000; stroke-width: 0.8"/>
      </g>
     </g>
     <g id="text_11">
      <!-- 50 -->
      <g transform="translate(66.015 252.880297)scale(0.22 -0.22)">
       <use xlink:href="#DejaVuSans-35"/>
       <use xlink:href="#DejaVuSans-30" x="63.623047"/>
      </g>
     </g>
    </g>
    <g id="ytick_3">
     <g id="line2d_21">
      <path d="M 101.01 157.404032 
L 897.84 157.404032 
" clip-path="url(#p8e2cfa9ae4)" style="fill: none; stroke-dasharray: 5.12,1.28,0.8,1.28; stroke-dashoffset: 0; stroke: #b0b0b0; stroke-width: 0.8"/>
     </g>
     <g id="line2d_22">
      <g>
       <use xlink:href="#m3230802a1e" x="101.01" y="157.404032" style="stroke: #000000; stroke-width: 0.8"/>
      </g>
     </g>
     <g id="text_12">
      <!-- 100 -->
      <g transform="translate(52.0175 165.762314)scale(0.22 -0.22)">
       <use xlink:href="#DejaVuSans-31"/>
       <use xlink:href="#DejaVuSans-30" x="63.623047"/>
       <use xlink:href="#DejaVuSans-30" x="127.246094"/>
      </g>
     </g>
    </g>
    <g id="ytick_4">
     <g id="line2d_23">
      <path d="M 101.01 70.286049 
L 897.84 70.286049 
" clip-path="url(#p8e2cfa9ae4)" style="fill: none; stroke-dasharray: 5.12,1.28,0.8,1.28; stroke-dashoffset: 0; stroke: #b0b0b0; stroke-width: 0.8"/>
     </g>
     <g id="line2d_24">
      <g>
       <use xlink:href="#m3230802a1e" x="101.01" y="70.286049" style="stroke: #000000; stroke-width: 0.8"/>
      </g>
     </g>
     <g id="text_13">
      <!-- 150 -->
      <g transform="translate(52.0175 78.64433)scale(0.22 -0.22)">
       <use xlink:href="#DejaVuSans-31"/>
       <use xlink:href="#DejaVuSans-35" x="63.623047"/>
       <use xlink:href="#DejaVuSans-30" x="127.246094"/>
      </g>
     </g>
    </g>
    <g id="text_14">
     <!-- Throughput (Mbps) -->
     <g transform="translate(43.02625 292.414375)rotate(-90)scale(0.24 -0.24)">
      <defs>
       <path id="DejaVuSans-68" d="M 3513 2113 
L 3513 0 
L 2938 0 
L 2938 2094 
Q 2938 2591 2744 2837 
Q 2550 3084 2163 3084 
Q 1697 3084 1428 2787 
Q 1159 2491 1159 1978 
L 1159 0 
L 581 0 
L 581 4863 
L 1159 4863 
L 1159 2956 
Q 1366 3272 1645 3428 
Q 1925 3584 2291 3584 
Q 2894 3584 3203 3211 
Q 3513 2838 3513 2113 
z
" transform="scale(0.015625)"/>
       <path id="DejaVuSans-72" d="M 2631 2963 
Q 2534 3019 2420 3045 
Q 2306 3072 2169 3072 
Q 1681 3072 1420 2755 
Q 1159 2438 1159 1844 
L 1159 0 
L 581 0 
L 581 3500 
L 1159 3500 
L 1159 2956 
Q 1341 3275 1631 3429 
Q 1922 3584 2338 3584 
Q 2397 3584 2469 3576 
Q 2541 3569 2628 3553 
L 2631 2963 
z
" transform="scale(0.015625)"/>
       <path id="DejaVuSans-6f" d="M 1959 3097 
Q 1497 3097 1228 2736 
Q 959 2375 959 1747 
Q 959 1119 1226 758 
Q 1494 397 1959 397 
Q 2419 397 2687 759 
Q 2956 1122 2956 1747 
Q 2956 2369 2687 2733 
Q 2419 3097 1959 3097 
z
M 1959 3584 
Q 2709 3584 3137 3096 
Q 3566 2609 3566 1747 
Q 3566 888 3137 398 
Q 2709 -91 1959 -91 
Q 1206 -91 779 398 
Q 353 888 353 1747 
Q 353 2609 779 3096 
Q 1206 3584 1959 3584 
z
" transform="scale(0.015625)"/>
       <path id="DejaVuSans-75" d="M 544 1381 
L 544 3500 
L 1119 3500 
L 1119 1403 
Q 1119 906 1312 657 
Q 1506 409 1894 409 
Q 2359 409 2629 706 
Q 2900 1003 2900 1516 
L 2900 3500 
L 3475 3500 
L 3475 0 
L 2900 0 
L 2900 538 
Q 2691 219 2414 64 
Q 2138 -91 1772 -91 
Q 1169 -91 856 284 
Q 544 659 544 1381 
z
M 1991 3584 
L 1991 3584 
z
" transform="scale(0.015625)"/>
       <path id="DejaVuSans-67" d="M 2906 1791 
Q 2906 2416 2648 2759 
Q 2391 3103 1925 3103 
Q 1463 3103 1205 2759 
Q 947 2416 947 1791 
Q 947 1169 1205 825 
Q 1463 481 1925 481 
Q 2391 481 2648 825 
Q 2906 1169 2906 1791 
z
M 3481 434 
Q 3481 -459 3084 -895 
Q 2688 -1331 1869 -1331 
Q 1566 -1331 1297 -1286 
Q 1028 -1241 775 -1147 
L 775 -588 
Q 1028 -725 1275 -790 
Q 1522 -856 1778 -856 
Q 2344 -856 2625 -561 
Q 2906 -266 2906 331 
L 2906 616 
Q 2728 306 2450 153 
Q 2172 0 1784 0 
Q 1141 0 747 490 
Q 353 981 353 1791 
Q 353 2603 747 3093 
Q 1141 3584 1784 3584 
Q 2172 3584 2450 3431 
Q 2728 3278 2906 2969 
L 2906 3500 
L 3481 3500 
L 3481 434 
z
" transform="scale(0.015625)"/>
       <path id="DejaVuSans-70" d="M 1159 525 
L 1159 -1331 
L 581 -1331 
L 581 3500 
L 1159 3500 
L 1159 2969 
Q 1341 3281 1617 3432 
Q 1894 3584 2278 3584 
Q 2916 3584 3314 3078 
Q 3713 2572 3713 1747 
Q 3713 922 3314 415 
Q 2916 -91 2278 -91 
Q 1894 -91 1617 61 
Q 1341 213 1159 525 
z
M 3116 1747 
Q 3116 2381 2855 2742 
Q 2594 3103 2138 3103 
Q 1681 3103 1420 2742 
Q 1159 2381 1159 1747 
Q 1159 1113 1420 752 
Q 1681 391 2138 391 
Q 2594 391 2855 752 
Q 3116 1113 3116 1747 
z
" transform="scale(0.015625)"/>
       <path id="DejaVuSans-74" d="M 1172 4494 
L 1172 3500 
L 2356 3500 
L 2356 3053 
L 1172 3053 
L 1172 1153 
Q 1172 725 1289 603 
Q 1406 481 1766 481 
L 2356 481 
L 2356 0 
L 1766 0 
Q 1100 0 847 248 
Q 594 497 594 1153 
L 594 3053 
L 172 3053 
L 172 3500 
L 594 3500 
L 594 4494 
L 1172 4494 
z
" transform="scale(0.015625)"/>
       <path id="DejaVuSans-4d" d="M 628 4666 
L 1569 4666 
L 2759 1491 
L 3956 4666 
L 4897 4666 
L 4897 0 
L 4281 0 
L 4281 4097 
L 3078 897 
L 2444 897 
L 1241 4097 
L 1241 0 
L 628 0 
L 628 4666 
z
" transform="scale(0.015625)"/>
       <path id="DejaVuSans-62" d="M 3116 1747 
Q 3116 2381 2855 2742 
Q 2594 3103 2138 3103 
Q 1681 3103 1420 2742 
Q 1159 2381 1159 1747 
Q 1159 1113 1420 752 
Q 1681 391 2138 391 
Q 2594 391 2855 752 
Q 3116 1113 3116 1747 
z
M 1159 2969 
Q 1341 3281 1617 3432 
Q 1894 3584 2278 3584 
Q 2916 3584 3314 3078 
Q 3713 2572 3713 1747 
Q 3713 922 3314 415 
Q 2916 -91 2278 -91 
Q 1894 -91 1617 61 
Q 1341 213 1159 525 
L 1159 0 
L 581 0 
L 581 4863 
L 1159 4863 
L 1159 2969 
z
" transform="scale(0.015625)"/>
      </defs>
      <use xlink:href="#DejaVuSans-54"/>
      <use xlink:href="#DejaVuSans-68" x="61.083984"/>
      <use xlink:href="#DejaVuSans-72" x="124.462891"/>
      <use xlink:href="#DejaVuSans-6f" x="163.326172"/>
      <use xlink:href="#DejaVuSans-75" x="224.507812"/>
      <use xlink:href="#DejaVuSans-67" x="287.886719"/>
      <use xlink:href="#DejaVuSans-68" x="351.363281"/>
      <use xlink:href="#DejaVuSans-70" x="414.742188"/>
      <use xlink:href="#DejaVuSans-75" x="478.21875"/>
      <use xlink:href="#DejaVuSans-74" x="541.597656"/>
      <use xlink:href="#DejaVuSans-20" x="580.806641"/>
      <use xlink:href="#DejaVuSans-28" x="612.59375"/>
      <use xlink:href="#DejaVuSans-4d" x="651.607422"/>
      <use xlink:href="#DejaVuSans-62" x="737.886719"/>
      <use xlink:href="#DejaVuSans-70" x="801.363281"/>
      <use xlink:href="#DejaVuSans-73" x="864.839844"/>
      <use xlink:href="#DejaVuSans-29" x="916.939453"/>
     </g>
    </g>
   </g>
   <g id="patch_3">
    <path d="M 101.01 331.64 
L 101.01 23.76 
" style="fill: none; stroke: #000000; stroke-width: 0.8; stroke-linejoin: miter; stroke-linecap: square"/>
   </g>
   <g id="patch_4">
    <path d="M 897.84 331.64 
L 897.84 23.76 
" style="fill: none; stroke: #000000; stroke-width: 0.8; stroke-linejoin: miter; stroke-linecap: square"/>
   </g>
   <g id="patch_5">
    <path d="M 101.01 331.64 
L 897.84 331.64 
" style="fill: none; stroke: #000000; stroke-width: 0.8; stroke-linejoin: miter; stroke-linecap: square"/>
   </g>
   <g id="patch_6">
    <path d="M 101.01 23.76 
L 897.84 23.76 
" style="fill: none; stroke: #000000; stroke-width: 0.8; stroke-linejoin: miter; stroke-linecap: square"/>
   </g>
   <g id="legend_1">
    <g id="patch_7">
     <path d="M 756.24 148.6425 
L 881.04 148.6425 
Q 885.84 148.6425 885.84 143.8425 
L 885.84 40.56 
Q 885.84 35.76 881.04 35.76 
L 756.24 35.76 
Q 751.44 35.76 751.44 40.56 
L 751.44 143.8425 
Q 751.44 148.6425 756.24 148.6425 
z
" style="fill: #ffffff; opacity: 0.8; stroke: #cccccc; stroke-linejoin: miter"/>
    </g>
    <g id="patch_8">
     <path d="M 761.04 63.59625 
L 809.04 63.59625 
L 809.04 46.79625 
L 761.04 46.79625 
z
" style="fill: #1f77b4"/>
    </g>
    <g id="text_15">
     <!-- UE1 -->
     <g transform="translate(828.24 63.59625)scale(0.24 -0.24)">
      <defs>
       <path id="DejaVuSans-55" d="M 556 4666 
L 1191 4666 
L 1191 1831 
Q 1191 1081 1462 751 
Q 1734 422 2344 422 
Q 2950 422 3222 751 
Q 3494 1081 3494 1831 
L 3494 4666 
L 4128 4666 
L 4128 1753 
Q 4128 841 3676 375 
Q 3225 -91 2344 -91 
Q 1459 -91 1007 375 
Q 556 841 556 1753 
L 556 4666 
z
" transform="scale(0.015625)"/>
       <path id="DejaVuSans-45" d="M 628 4666 
L 3578 4666 
L 3578 4134 
L 1259 4134 
L 1259 2753 
L 3481 2753 
L 3481 2222 
L 1259 2222 
L 1259 531 
L 3634 531 
L 3634 0 
L 628 0 
L 628 4666 
z
" transform="scale(0.015625)"/>
      </defs>
      <use xlink:href="#DejaVuSans-55"/>
      <use xlink:href="#DejaVuSans-45" x="73.193359"/>
      <use xlink:href="#DejaVuSans-31" x="136.376953"/>
     </g>
    </g>
    <g id="patch_9">
     <path d="M 761.04 98.82375 
L 809.04 98.82375 
L 809.04 82.02375 
L 761.04 82.02375 
z
" style="fill: #ff7f0e"/>
    </g>
    <g id="text_16">
     <!-- UE2 -->
     <g transform="translate(828.24 98.82375)scale(0.24 -0.24)">
      <use xlink:href="#DejaVuSans-55"/>
      <use xlink:href="#DejaVuSans-45" x="73.193359"/>
      <use xlink:href="#DejaVuSans-32" x="136.376953"/>
     </g>
    </g>
    <g id="patch_10">
     <path d="M 761.04 134.05125 
L 809.04 134.05125 
L 809.04 117.25125 
L 761.04 117.25125 
z
" style="fill: #2ca02c"/>
    </g>
    <g id="text_17">
     <!-- UE3 -->
     <g transform="translate(828.24 134.05125)scale(0.24 -0.24)">
      <defs>
       <path id="DejaVuSans-33" d="M 2597 2516 
Q 3050 2419 3304 2112 
Q 3559 1806 3559 1356 
Q 3559 666 3084 287 
Q 2609 -91 1734 -91 
Q 1441 -91 1130 -33 
Q 819 25 488 141 
L 488 750 
Q 750 597 1062 519 
Q 1375 441 1716 441 
Q 2309 441 2620 675 
Q 2931 909 2931 1356 
Q 2931 1769 2642 2001 
Q 2353 2234 1838 2234 
L 1294 2234 
L 1294 2753 
L 1863 2753 
Q 2328 2753 2575 2939 
Q 2822 3125 2822 3475 
Q 2822 3834 2567 4026 
Q 2313 4219 1838 4219 
Q 1578 4219 1281 4162 
Q 984 4106 628 3988 
L 628 4550 
Q 988 4650 1302 4700 
Q 1616 4750 1894 4750 
Q 2613 4750 3031 4423 
Q 3450 4097 3450 3541 
Q 3450 3153 3228 2886 
Q 3006 2619 2597 2516 
z
" transform="scale(0.015625)"/>
      </defs>
      <use xlink:href="#DejaVuSans-55"/>
      <use xlink:href="#DejaVuSans-45" x="73.193359"/>
      <use xlink:href="#DejaVuSans-33" x="136.376953"/>
     </g>
    </g>
   </g>
  </g>
 </g>
 <defs>
  <clipPath id="p8e2cfa9ae4">
   <rect x="101.01" y="23.76" width="796.83" height="307.88"/>
  </clipPath>
 </defs>
</svg>
