<?xml version="1.0" encoding="utf-8" standalone="no"?>
<!DOCTYPE svg PUBLIC "-//W3C//DTD SVG 1.1//EN"
  "http://www.w3.org/Graphics/SVG/1.1/DTD/svg11.dtd">
<svg xmlns:xlink="http://www.w3.org/1999/xlink" width="921.6pt" height="410.4pt" viewBox="0 0 921.6 410.4" xmlns="http://www.w3.org/2000/svg" version="1.1">
 <metadata>
  <rdf:RDF xmlns:dc="http://purl.org/dc/elements/1.1/" xmlns:cc="http://creativecommons.org/ns#" xmlns:rdf="http://www.w3.org/1999/02/22-rdf-syntax-ns#">
   <cc:Work>
    <dc:type rdf:resource="http://purl.org/dc/dcmitype/StillImage"/>
    <dc:date>2023-04-11T17:41:51.662780</dc:date>
    <dc:format>image/svg+xml</dc:format>
    <dc:creator>
     <cc:Agent>
      <dc:title>Matplotlib v3.5.3, https://matplotlib.org/</dc:title>
     </cc:Agent>
    </dc:creator>
   </cc:Work>
  </rdf:RDF>
 </metadata>
 <defs>
  <style type="text/css">*{stroke-linejoin: round; stroke-linecap: butt}</style>
 </defs>
 <g id="figure_1">
  <g id="patch_1">
   <path d="M 0 410.4 
L 921.6 410.4 
L 921.6 0 
L 0 0 
L 0 410.4 
z
" style="fill: none"/>
  </g>
  <g id="axes_1">
   <g id="patch_2">
    <path d="M 108.01 331.64 
L 897.84 331.64 
L 897.84 23.76 
L 108.01 23.76 
z
" style="fill: #ffffff"/>
   </g>
   <g id="PolyCollection_1">
    <path d="M 143.911364 189.389755 
L 143.911364 331.64 
L 147.878365 331.64 
L 151.845367 331.64 
L 155.812368 331.64 
L 159.77937 331.64 
L 163.746371 331.64 
L 167.713373 331.64 
L 171.680374 331.64 
L 175.647376 331.64 
L 179.614377 331.64 
L 183.581379 331.64 
L 187.54838 331.64 
L 191.515382 331.64 
L 195.482383 331.64 
L 199.449385 331.64 
L 203.416386 331.64 
L 207.383388 331.64 
L 211.350389 331.64 
L 215.317391 331.64 
L 219.284392 331.64 
L 223.251394 331.64 
L 227.218395 331.64 
L 231.185397 331.64 
L 235.152398 331.64 
L 239.1194 331.64 
L 243.086401 331.64 
L 247.053403 331.64 
L 251.020404 331.64 
L 254.987406 331.64 
L 258.954407 331.64 
L 262.921409 331.64 
L 266.88841 331.64 
L 270.855412 331.64 
L 274.822413 331.64 
L 278.789415 331.64 
L 282.756416 331.64 
L 286.723418 331.64 
L 290.690419 331.64 
L 294.657421 331.64 
L 298.624422 331.64 
L 302.591424 331.64 
L 306.558425 331.64 
L 310.525427 331.64 
L 314.492428 331.64 
L 318.45943 331.64 
L 322.426431 331.64 
L 326.393433 331.64 
L 330.360434 331.64 
L 334.327436 331.64 
L 338.294437 331.64 
L 342.261439 331.64 
L 346.22844 331.64 
L 350.195442 331.64 
L 354.162443 331.64 
L 358.129445 331.64 
L 362.096447 331.64 
L 366.063448 331.64 
L 370.03045 331.64 
L 373.997451 331.64 
L 377.964453 331.64 
L 381.931454 331.64 
L 385.898456 331.64 
L 389.865457 331.64 
L 393.832459 331.64 
L 397.79946 331.64 
L 401.766462 331.64 
L 405.733463 331.64 
L 409.700465 331.64 
L 413.667466 331.64 
L 417.634468 331.64 
L 421.601469 331.64 
L 425.568471 331.64 
L 429.535472 331.64 
L 433.502474 331.64 
L 437.469475 331.64 
L 441.436477 331.64 
L 445.403478 331.64 
L 449.37048 331.64 
L 453.337481 331.64 
L 457.304483 331.64 
L 461.271484 331.64 
L 465.238486 331.64 
L 469.205487 331.64 
L 473.172489 331.64 
L 477.13949 331.64 
L 481.106492 331.64 
L 485.073493 331.64 
L 489.040495 331.64 
L 493.007496 331.64 
L 496.974498 331.64 
L 500.941499 331.64 
L 504.908501 331.64 
L 508.875502 331.64 
L 512.842504 331.64 
L 516.809505 331.64 
L 520.776507 331.64 
L 524.743508 331.64 
L 528.71051 331.64 
L 532.677511 331.64 
L 536.644513 331.64 
L 540.611514 331.64 
L 544.578516 331.64 
L 548.545517 331.64 
L 552.512519 331.64 
L 556.47952 331.64 
L 560.446522 331.64 
L 564.413523 331.64 
L 568.380525 331.64 
L 572.347526 331.64 
L 576.314528 331.64 
L 580.281529 331.64 
L 584.248531 331.64 
L 588.215532 331.64 
L 592.182534 331.64 
L 596.149535 331.64 
L 600.116537 331.64 
L 604.083538 331.64 
L 608.05054 331.64 
L 612.017541 331.64 
L 615.984543 331.64 
L 619.951544 331.64 
L 623.918546 331.64 
L 627.885547 331.64 
L 631.852549 331.64 
L 635.81955 331.64 
L 639.786552 331.64 
L 643.753553 331.64 
L 647.720555 331.64 
L 651.687557 331.64 
L 655.654558 331.64 
L 659.62156 331.64 
L 663.588561 331.64 
L 667.555563 331.64 
L 671.522564 331.64 
L 675.489566 331.64 
L 679.456567 331.64 
L 683.423569 331.64 
L 687.39057 331.64 
L 691.357572 331.64 
L 695.324573 331.64 
L 699.291575 331.64 
L 703.258576 331.64 
L 707.225578 331.64 
L 711.192579 331.64 
L 715.159581 331.64 
L 719.126582 331.64 
L 723.093584 331.64 
L 727.060585 331.64 
L 731.027587 331.64 
L 734.994588 331.64 
L 738.96159 331.64 
L 742.928591 331.64 
L 746.895593 331.64 
L 750.862594 331.64 
L 754.829596 331.64 
L 758.796597 331.64 
L 762.763599 331.64 
L 766.7306 331.64 
L 770.697602 331.64 
L 774.664603 331.64 
L 778.631605 331.64 
L 782.598606 331.64 
L 786.565608 331.64 
L 790.532609 331.64 
L 794.499611 331.64 
L 798.466612 331.64 
L 802.433614 331.64 
L 806.400615 331.64 
L 810.367617 331.64 
L 814.334618 331.64 
L 818.30162 331.64 
L 822.268621 331.64 
L 826.235623 331.64 
L 830.202624 331.64 
L 834.169626 331.64 
L 838.136627 331.64 
L 842.103629 331.64 
L 846.07063 331.64 
L 850.037632 331.64 
L 854.004633 331.64 
L 857.971635 331.64 
L 861.938636 331.64 
L 861.938636 187.135918 
L 861.938636 187.135918 
L 857.971635 189.201122 
L 854.004633 188.55432 
L 850.037632 188.605244 
L 846.07063 187.303751 
L 842.103629 188.304149 
L 838.136627 188.164002 
L 834.169626 189.318319 
L 830.202624 189.790402 
L 826.235623 189.269834 
L 822.268621 188.793446 
L 818.30162 187.89217 
L 814.334618 186.09478 
L 810.367617 188.918676 
L 806.400615 189.688268 
L 802.433614 188.25839 
L 798.466612 188.446305 
L 794.499611 188.611556 
L 790.532609 187.205776 
L 786.565608 189.759274 
L 782.598606 188.761888 
L 778.631605 188.602375 
L 774.664603 189.640644 
L 770.697602 189.483713 
L 766.7306 189.383874 
L 762.763599 188.862588 
L 758.796597 187.968483 
L 754.829596 187.520786 
L 750.862594 188.726887 
L 746.895593 189.604925 
L 742.928591 188.020842 
L 738.96159 189.148191 
L 734.994588 188.35995 
L 731.027587 190.272671 
L 727.060585 189.178888 
L 723.093584 189.314015 
L 719.126582 187.693352 
L 715.159581 188.05197 
L 711.192579 189.735319 
L 707.225578 188.522188 
L 703.258576 188.566227 
L 699.291575 189.344282 
L 695.324573 188.852977 
L 691.357572 188.479154 
L 687.39057 189.093681 
L 683.423569 188.677541 
L 679.456567 188.596207 
L 675.489566 188.740084 
L 671.522564 188.864883 
L 667.555563 188.171461 
L 663.588561 187.02948 
L 659.62156 188.694755 
L 655.654558 189.331085 
L 651.687557 189.031425 
L 647.720555 188.460219 
L 643.753553 188.169166 
L 639.786552 188.46481 
L 635.81955 188.042932 
L 631.852549 188.588604 
L 627.885547 189.423035 
L 623.918546 187.618186 
L 619.951544 188.761458 
L 615.984543 189.185917 
L 612.017541 188.723014 
L 608.05054 187.785732 
L 604.083538 189.580683 
L 600.116537 188.822853 
L 596.149535 188.45735 
L 592.182534 189.453589 
L 588.215532 189.652406 
L 584.248531 190.345685 
L 580.281529 189.876614 
L 576.314528 188.554751 
L 572.347526 189.868007 
L 568.380525 188.686722 
L 564.413523 188.694755 
L 560.446522 189.672059 
L 556.47952 188.416611 
L 552.512519 189.083066 
L 548.545517 188.757585 
L 544.578516 188.879228 
L 540.611514 187.717308 
L 536.644513 187.182538 
L 532.677511 188.168448 
L 528.71051 190.043012 
L 524.743508 188.141193 
L 520.776507 188.687152 
L 516.809505 188.952672 
L 512.842504 189.384734 
L 508.875502 187.348363 
L 504.908501 188.084389 
L 500.941499 188.482597 
L 496.974498 187.209076 
L 493.007496 187.102495 
L 489.040495 188.290952 
L 485.073493 188.474851 
L 481.106492 187.77526 
L 477.13949 187.382503 
L 473.172489 188.234864 
L 469.205487 188.636372 
L 465.238486 188.435403 
L 461.271484 187.284959 
L 457.304483 186.633136 
L 453.337481 189.325778 
L 449.37048 188.791869 
L 445.403478 188.172608 
L 441.436477 189.462052 
L 437.469475 188.417616 
L 433.502474 188.265418 
L 429.535472 188.462801 
L 425.568471 187.913256 
L 421.601469 187.253688 
L 417.634468 187.646158 
L 413.667466 186.337636 
L 409.700465 187.968197 
L 405.733463 189.46693 
L 401.766462 187.557652 
L 397.79946 189.236267 
L 393.832459 188.326957 
L 389.865457 189.558592 
L 385.898456 188.359376 
L 381.931454 187.333731 
L 377.964453 188.390074 
L 373.997451 188.841931 
L 370.03045 189.25635 
L 366.063448 188.395668 
L 362.096447 187.830774 
L 358.129445 188.231852 
L 354.162443 187.516482 
L 350.195442 188.572825 
L 346.22844 187.375617 
L 342.261439 187.896186 
L 338.294437 187.837947 
L 334.327436 189.367521 
L 330.360434 187.85057 
L 326.393433 187.307193 
L 322.426431 188.211626 
L 318.45943 187.781716 
L 314.492428 189.679661 
L 310.525427 188.338576 
L 306.558425 189.726138 
L 302.591424 188.262406 
L 298.624422 189.169421 
L 294.657421 188.817546 
L 290.690419 188.414603 
L 286.723418 189.222783 
L 282.756416 187.905654 
L 278.789415 189.003166 
L 274.822413 186.124187 
L 270.855412 188.392799 
L 266.88841 187.361416 
L 262.921409 187.132045 
L 258.954407 187.444615 
L 254.987406 189.070729 
L 251.020404 188.069327 
L 247.053403 187.868931 
L 243.086401 188.461941 
L 239.1194 189.12237 
L 235.152398 189.13112 
L 231.185397 188.808652 
L 227.218395 188.310461 
L 223.251394 189.226799 
L 219.284392 188.365401 
L 215.317391 189.01665 
L 211.350389 188.117955 
L 207.383388 188.089696 
L 203.416386 189.617262 
L 199.449385 188.372143 
L 195.482383 188.483601 
L 191.515382 187.960881 
L 187.54838 188.591043 
L 183.581379 187.814852 
L 179.614377 187.44605 
L 175.647376 188.705083 
L 171.680374 188.09859 
L 167.713373 188.878224 
L 163.746371 188.017973 
L 159.77937 189.654558 
L 155.812368 188.104901 
L 151.845367 189.005317 
L 147.878365 188.174617 
L 143.911364 189.389755 
z
" clip-path="url(#pca05fbe7f3)" style="fill: #1f77b4"/>
   </g>
   <g id="PolyCollection_2">
    <path d="M 143.911364 43.052709 
L 143.911364 189.389755 
L 147.878365 188.174617 
L 151.845367 189.005317 
L 155.812368 188.104901 
L 159.77937 189.654558 
L 163.746371 188.017973 
L 167.713373 188.878224 
L 171.680374 188.09859 
L 175.647376 188.705083 
L 179.614377 187.44605 
L 183.581379 187.814852 
L 187.54838 188.591043 
L 191.515382 187.960881 
L 195.482383 188.483601 
L 199.449385 188.372143 
L 203.416386 189.617262 
L 207.383388 188.089696 
L 211.350389 188.117955 
L 215.317391 189.01665 
L 219.284392 188.365401 
L 223.251394 189.226799 
L 227.218395 188.310461 
L 231.185397 188.808652 
L 235.152398 189.13112 
L 239.1194 189.12237 
L 243.086401 188.461941 
L 247.053403 187.868931 
L 251.020404 188.069327 
L 254.987406 189.070729 
L 258.954407 187.444615 
L 262.921409 187.132045 
L 266.88841 187.361416 
L 270.855412 188.392799 
L 274.822413 186.124187 
L 278.789415 189.003166 
L 282.756416 187.905654 
L 286.723418 189.222783 
L 290.690419 188.414603 
L 294.657421 188.817546 
L 298.624422 189.169421 
L 302.591424 188.262406 
L 306.558425 189.726138 
L 310.525427 188.338576 
L 314.492428 189.679661 
L 318.45943 187.781716 
L 322.426431 188.211626 
L 326.393433 187.307193 
L 330.360434 187.85057 
L 334.327436 189.367521 
L 338.294437 187.837947 
L 342.261439 187.896186 
L 346.22844 187.375617 
L 350.195442 188.572825 
L 354.162443 187.516482 
L 358.129445 188.231852 
L 362.096447 187.830774 
L 366.063448 188.395668 
L 370.03045 189.25635 
L 373.997451 188.841931 
L 377.964453 188.390074 
L 381.931454 187.333731 
L 385.898456 188.359376 
L 389.865457 189.558592 
L 393.832459 188.326957 
L 397.79946 189.236267 
L 401.766462 187.557652 
L 405.733463 189.46693 
L 409.700465 187.968197 
L 413.667466 186.337636 
L 417.634468 187.646158 
L 421.601469 187.253688 
L 425.568471 187.913256 
L 429.535472 188.462801 
L 433.502474 188.265418 
L 437.469475 188.417616 
L 441.436477 189.462052 
L 445.403478 188.172608 
L 449.37048 188.791869 
L 453.337481 189.325778 
L 457.304483 186.633136 
L 461.271484 187.284959 
L 465.238486 188.435403 
L 469.205487 188.636372 
L 473.172489 188.234864 
L 477.13949 187.382503 
L 481.106492 187.77526 
L 485.073493 188.474851 
L 489.040495 188.290952 
L 493.007496 187.102495 
L 496.974498 187.209076 
L 500.941499 188.482597 
L 504.908501 188.084389 
L 508.875502 187.348363 
L 512.842504 189.384734 
L 516.809505 188.952672 
L 520.776507 188.687152 
L 524.743508 188.141193 
L 528.71051 190.043012 
L 532.677511 188.168448 
L 536.644513 187.182538 
L 540.611514 187.717308 
L 544.578516 188.879228 
L 548.545517 188.757585 
L 552.512519 189.083066 
L 556.47952 188.416611 
L 560.446522 189.672059 
L 564.413523 188.694755 
L 568.380525 188.686722 
L 572.347526 189.868007 
L 576.314528 188.554751 
L 580.281529 189.876614 
L 584.248531 190.345685 
L 588.215532 189.652406 
L 592.182534 189.453589 
L 596.149535 188.45735 
L 600.116537 188.822853 
L 604.083538 189.580683 
L 608.05054 187.785732 
L 612.017541 188.723014 
L 615.984543 189.185917 
L 619.951544 188.761458 
L 623.918546 187.618186 
L 627.885547 189.423035 
L 631.852549 188.588604 
L 635.81955 188.042932 
L 639.786552 188.46481 
L 643.753553 188.169166 
L 647.720555 188.460219 
L 651.687557 189.031425 
L 655.654558 189.331085 
L 659.62156 188.694755 
L 663.588561 187.02948 
L 667.555563 188.171461 
L 671.522564 188.864883 
L 675.489566 188.740084 
L 679.456567 188.596207 
L 683.423569 188.677541 
L 687.39057 189.093681 
L 691.357572 188.479154 
L 695.324573 188.852977 
L 699.291575 189.344282 
L 703.258576 188.566227 
L 707.225578 188.522188 
L 711.192579 189.735319 
L 715.159581 188.05197 
L 719.126582 187.693352 
L 723.093584 189.314015 
L 727.060585 189.178888 
L 731.027587 190.272671 
L 734.994588 188.35995 
L 738.96159 189.148191 
L 742.928591 188.020842 
L 746.895593 189.604925 
L 750.862594 188.726887 
L 754.829596 187.520786 
L 758.796597 187.968483 
L 762.763599 188.862588 
L 766.7306 189.383874 
L 770.697602 189.483713 
L 774.664603 189.640644 
L 778.631605 188.602375 
L 782.598606 188.761888 
L 786.565608 189.759274 
L 790.532609 187.205776 
L 794.499611 188.611556 
L 798.466612 188.446305 
L 802.433614 188.25839 
L 806.400615 189.688268 
L 810.367617 188.918676 
L 814.334618 186.09478 
L 818.30162 187.89217 
L 822.268621 188.793446 
L 826.235623 189.269834 
L 830.202624 189.790402 
L 834.169626 189.318319 
L 838.136627 188.164002 
L 842.103629 188.304149 
L 846.07063 187.303751 
L 850.037632 188.605244 
L 854.004633 188.55432 
L 857.971635 189.201122 
L 861.938636 187.135918 
L 861.938636 40.804896 
L 861.938636 40.804896 
L 857.971635 43.840089 
L 854.004633 41.43938 
L 850.037632 42.710588 
L 846.07063 39.038366 
L 842.103629 41.317719 
L 838.136627 41.971836 
L 834.169626 43.381776 
L 830.202624 43.375034 
L 826.235623 44.120097 
L 822.268621 42.807128 
L 818.30162 40.540237 
L 814.334618 38.596406 
L 810.367617 41.593424 
L 806.400615 44.891841 
L 802.433614 41.031112 
L 798.466612 42.088315 
L 794.499611 41.311981 
L 790.532609 40.749239 
L 786.565608 44.274876 
L 782.598606 41.897818 
L 778.631605 43.158429 
L 774.664603 43.342184 
L 770.697602 43.647726 
L 766.7306 42.593248 
L 762.763599 43.530674 
L 758.796597 41.540922 
L 754.829596 39.960442 
L 750.862594 43.005084 
L 746.895593 42.951722 
L 742.928591 41.339092 
L 738.96159 43.187262 
L 734.994588 41.532459 
L 731.027587 44.269712 
L 727.060585 44.840057 
L 723.093584 43.773386 
L 719.126582 40.14262 
L 715.159581 42.006694 
L 711.192579 43.018568 
L 707.225578 42.495561 
L 703.258576 41.974132 
L 699.291575 43.646005 
L 695.324573 41.417414 
L 691.357572 42.737556 
L 687.39057 43.372165 
L 683.423569 41.923925 
L 679.456567 42.165777 
L 675.489566 42.719482 
L 671.522564 42.917295 
L 667.555563 40.760571 
L 663.588561 39.722302 
L 659.62156 42.863789 
L 655.654558 42.347255 
L 651.687557 42.610318 
L 647.720555 41.769576 
L 643.753553 41.644204 
L 639.786552 42.051019 
L 635.81955 41.10929 
L 631.852549 41.430468 
L 627.885547 44.425639 
L 623.918546 40.127396 
L 619.951544 42.120734 
L 615.984543 43.107505 
L 612.017541 41.887346 
L 608.05054 40.735898 
L 604.083538 42.591527 
L 600.116537 43.677707 
L 596.149535 41.93368 
L 592.182534 43.923288 
L 588.215532 44.861287 
L 584.248531 44.608964 
L 580.281529 45.782503 
L 576.314528 42.661816 
L 572.347526 44.778948 
L 568.380525 42.459986 
L 564.413523 42.141391 
L 560.446522 44.358506 
L 556.47952 41.578218 
L 552.512519 43.108653 
L 548.545517 42.017022 
L 544.578516 43.002072 
L 540.611514 40.524027 
L 536.644513 39.480182 
L 532.677511 41.390159 
L 528.71051 43.77439 
L 524.743508 42.625237 
L 520.776507 42.269489 
L 516.809505 42.707432 
L 512.842504 42.950144 
L 508.875502 40.62444 
L 504.908501 40.753542 
L 500.941499 41.852058 
L 496.974498 40.05223 
L 493.007496 39.589614 
L 489.040495 41.47465 
L 485.073493 41.423313 
L 481.106492 40.5903 
L 477.13949 40.43726 
L 473.172489 40.921662 
L 469.205487 42.099791 
L 465.238486 41.652954 
L 461.271484 39.638386 
L 457.304483 38.932484 
L 453.337481 42.651057 
L 449.37048 42.46845 
L 445.403478 41.594141 
L 441.436477 43.825027 
L 437.469475 41.438214 
L 433.502474 41.646929 
L 429.535472 41.520427 
L 425.568471 41.652667 
L 421.601469 39.827449 
L 417.634468 39.979664 
L 413.667466 38.667394 
L 409.700465 39.945524 
L 405.733463 45.078179 
L 401.766462 40.042476 
L 397.79946 42.504598 
L 393.832459 41.979152 
L 389.865457 44.849237 
L 385.898456 41.807016 
L 381.931454 40.15752 
L 377.964453 41.758101 
L 373.997451 42.404185 
L 370.03045 43.958289 
L 366.063448 41.714493 
L 362.096447 41.085622 
L 358.129445 39.851548 
L 354.162443 41.563587 
L 350.195442 42.274079 
L 346.22844 39.777243 
L 342.261439 41.105991 
L 338.294437 40.509539 
L 334.327436 43.665944 
L 330.360434 40.112621 
L 326.393433 40.934572 
L 322.426431 42.10266 
L 318.45943 40.827704 
L 314.492428 44.668781 
L 310.525427 41.394624 
L 306.558425 44.490333 
L 302.591424 40.975311 
L 298.624422 43.773673 
L 294.657421 42.972378 
L 290.690419 40.926969 
L 286.723418 44.461357 
L 282.756416 40.428635 
L 278.789415 43.217673 
L 274.822413 37.096651 
L 270.855412 42.122886 
L 266.88841 40.547409 
L 262.921409 39.652892 
L 258.954407 40.750817 
L 254.987406 42.647902 
L 251.020404 41.633732 
L 247.053403 39.884254 
L 243.086401 42.742576 
L 239.1194 43.637828 
L 235.152398 42.568575 
L 231.185397 43.07523 
L 227.218395 41.806586 
L 223.251394 43.351222 
L 219.284392 41.61365 
L 215.317391 42.879712 
L 211.350389 41.935257 
L 207.383388 41.951037 
L 203.416386 43.443028 
L 199.449385 41.23538 
L 195.482383 41.341387 
L 191.515382 41.644204 
L 187.54838 42.465724 
L 183.581379 40.553434 
L 179.614377 40.375846 
L 175.647376 41.78679 
L 171.680374 41.02021 
L 167.713373 43.246075 
L 163.746371 40.497776 
L 159.77937 44.10317 
L 155.812368 40.879202 
L 151.845367 43.835929 
L 147.878365 41.802713 
L 143.911364 43.052709 
z
" clip-path="url(#pca05fbe7f3)" style="fill: #ff7f0e"/>
   </g>
   <g id="matplotlib.axis_1">
    <g id="xtick_1">
     <g id="line2d_1">
      <path d="M 143.911364 331.64 
L 143.911364 23.76 
" clip-path="url(#pca05fbe7f3)" style="fill: none; stroke-dasharray: 5.12,1.28,0.8,1.28; stroke-dashoffset: 0; stroke: #b0b0b0; stroke-width: 0.8"/>
     </g>
     <g id="line2d_2">
      <defs>
       <path id="m8ed5886829" d="M 0 0 
L 0 3.5 
" style="stroke: #000000; stroke-width: 0.8"/>
      </defs>
      <g>
       <use xlink:href="#m8ed5886829" x="143.911364" y="331.64" style="stroke: #000000; stroke-width: 0.8"/>
      </g>
     </g>
     <g id="text_1">
      <!-- 0 -->
      <g transform="translate(136.912614 355.356563)scale(0.22 -0.22)">
       <defs>
        <path id="DejaVuSans-30" d="M 2034 4250 
Q 1547 4250 1301 3770 
Q 1056 3291 1056 2328 
Q 1056 1369 1301 889 
Q 1547 409 2034 409 
Q 2525 409 2770 889 
Q 3016 1369 3016 2328 
Q 3016 3291 2770 3770 
Q 2525 4250 2034 4250 
z
M 2034 4750 
Q 2819 4750 3233 4129 
Q 3647 3509 3647 2328 
Q 3647 1150 3233 529 
Q 2819 -91 2034 -91 
Q 1250 -91 836 529 
Q 422 1150 422 2328 
Q 422 3509 836 4129 
Q 1250 4750 2034 4750 
z
" transform="scale(0.015625)"/>
       </defs>
       <use xlink:href="#DejaVuSans-30"/>
      </g>
     </g>
    </g>
    <g id="xtick_2">
     <g id="line2d_3">
      <path d="M 243.086401 331.64 
L 243.086401 23.76 
" clip-path="url(#pca05fbe7f3)" style="fill: none; stroke-dasharray: 5.12,1.28,0.8,1.28; stroke-dashoffset: 0; stroke: #b0b0b0; stroke-width: 0.8"/>
     </g>
     <g id="line2d_4">
      <g>
       <use xlink:href="#m8ed5886829" x="243.086401" y="331.64" style="stroke: #000000; stroke-width: 0.8"/>
      </g>
     </g>
     <g id="text_2">
      <!-- 25 -->
      <g transform="translate(229.088901 355.356563)scale(0.22 -0.22)">
       <defs>
        <path id="DejaVuSans-32" d="M 1228 531 
L 3431 531 
L 3431 0 
L 469 0 
L 469 531 
Q 828 903 1448 1529 
Q 2069 2156 2228 2338 
Q 2531 2678 2651 2914 
Q 2772 3150 2772 3378 
Q 2772 3750 2511 3984 
Q 2250 4219 1831 4219 
Q 1534 4219 1204 4116 
Q 875 4013 500 3803 
L 500 4441 
Q 881 4594 1212 4672 
Q 1544 4750 1819 4750 
Q 2544 4750 2975 4387 
Q 3406 4025 3406 3419 
Q 3406 3131 3298 2873 
Q 3191 2616 2906 2266 
Q 2828 2175 2409 1742 
Q 1991 1309 1228 531 
z
" transform="scale(0.015625)"/>
        <path id="DejaVuSans-35" d="M 691 4666 
L 3169 4666 
L 3169 4134 
L 1269 4134 
L 1269 2991 
Q 1406 3038 1543 3061 
Q 1681 3084 1819 3084 
Q 2600 3084 3056 2656 
Q 3513 2228 3513 1497 
Q 3513 744 3044 326 
Q 2575 -91 1722 -91 
Q 1428 -91 1123 -41 
Q 819 9 494 109 
L 494 744 
Q 775 591 1075 516 
Q 1375 441 1709 441 
Q 2250 441 2565 725 
Q 2881 1009 2881 1497 
Q 2881 1984 2565 2268 
Q 2250 2553 1709 2553 
Q 1456 2553 1204 2497 
Q 953 2441 691 2322 
L 691 4666 
z
" transform="scale(0.015625)"/>
       </defs>
       <use xlink:href="#DejaVuSans-32"/>
       <use xlink:href="#DejaVuSans-35" x="63.623047"/>
      </g>
     </g>
    </g>
    <g id="xtick_3">
     <g id="line2d_5">
      <path d="M 342.261439 331.64 
L 342.261439 23.76 
" clip-path="url(#pca05fbe7f3)" style="fill: none; stroke-dasharray: 5.12,1.28,0.8,1.28; stroke-dashoffset: 0; stroke: #b0b0b0; stroke-width: 0.8"/>
     </g>
     <g id="line2d_6">
      <g>
       <use xlink:href="#m8ed5886829" x="342.261439" y="331.64" style="stroke: #000000; stroke-width: 0.8"/>
      </g>
     </g>
     <g id="text_3">
      <!-- 50 -->
      <g transform="translate(328.263939 355.356563)scale(0.22 -0.22)">
       <use xlink:href="#DejaVuSans-35"/>
       <use xlink:href="#DejaVuSans-30" x="63.623047"/>
      </g>
     </g>
    </g>
    <g id="xtick_4">
     <g id="line2d_7">
      <path d="M 441.436477 331.64 
L 441.436477 23.76 
" clip-path="url(#pca05fbe7f3)" style="fill: none; stroke-dasharray: 5.12,1.28,0.8,1.28; stroke-dashoffset: 0; stroke: #b0b0b0; stroke-width: 0.8"/>
     </g>
     <g id="line2d_8">
      <g>
       <use xlink:href="#m8ed5886829" x="441.436477" y="331.64" style="stroke: #000000; stroke-width: 0.8"/>
      </g>
     </g>
     <g id="text_4">
      <!-- 75 -->
      <g transform="translate(427.438977 355.356563)scale(0.22 -0.22)">
       <defs>
        <path id="DejaVuSans-37" d="M 525 4666 
L 3525 4666 
L 3525 4397 
L 1831 0 
L 1172 0 
L 2766 4134 
L 525 4134 
L 525 4666 
z
" transform="scale(0.015625)"/>
       </defs>
       <use xlink:href="#DejaVuSans-37"/>
       <use xlink:href="#DejaVuSans-35" x="63.623047"/>
      </g>
     </g>
    </g>
    <g id="xtick_5">
     <g id="line2d_9">
      <path d="M 540.611514 331.64 
L 540.611514 23.76 
" clip-path="url(#pca05fbe7f3)" style="fill: none; stroke-dasharray: 5.12,1.28,0.8,1.28; stroke-dashoffset: 0; stroke: #b0b0b0; stroke-width: 0.8"/>
     </g>
     <g id="line2d_10">
      <g>
       <use xlink:href="#m8ed5886829" x="540.611514" y="331.64" style="stroke: #000000; stroke-width: 0.8"/>
      </g>
     </g>
     <g id="text_5">
      <!-- 100 -->
      <g transform="translate(519.615264 355.356563)scale(0.22 -0.22)">
       <defs>
        <path id="DejaVuSans-31" d="M 794 531 
L 1825 531 
L 1825 4091 
L 703 3866 
L 703 4441 
L 1819 4666 
L 2450 4666 
L 2450 531 
L 3481 531 
L 3481 0 
L 794 0 
L 794 531 
z
" transform="scale(0.015625)"/>
       </defs>
       <use xlink:href="#DejaVuSans-31"/>
       <use xlink:href="#DejaVuSans-30" x="63.623047"/>
       <use xlink:href="#DejaVuSans-30" x="127.246094"/>
      </g>
     </g>
    </g>
    <g id="xtick_6">
     <g id="line2d_11">
      <path d="M 639.786552 331.64 
L 639.786552 23.76 
" clip-path="url(#pca05fbe7f3)" style="fill: none; stroke-dasharray: 5.12,1.28,0.8,1.28; stroke-dashoffset: 0; stroke: #b0b0b0; stroke-width: 0.8"/>
     </g>
     <g id="line2d_12">
      <g>
       <use xlink:href="#m8ed5886829" x="639.786552" y="331.64" style="stroke: #000000; stroke-width: 0.8"/>
      </g>
     </g>
     <g id="text_6">
      <!-- 125 -->
      <g transform="translate(618.790302 355.356563)scale(0.22 -0.22)">
       <use xlink:href="#DejaVuSans-31"/>
       <use xlink:href="#DejaVuSans-32" x="63.623047"/>
       <use xlink:href="#DejaVuSans-35" x="127.246094"/>
      </g>
     </g>
    </g>
    <g id="xtick_7">
     <g id="line2d_13">
      <path d="M 738.96159 331.64 
L 738.96159 23.76 
" clip-path="url(#pca05fbe7f3)" style="fill: none; stroke-dasharray: 5.12,1.28,0.8,1.28; stroke-dashoffset: 0; stroke: #b0b0b0; stroke-width: 0.8"/>
     </g>
     <g id="line2d_14">
      <g>
       <use xlink:href="#m8ed5886829" x="738.96159" y="331.64" style="stroke: #000000; stroke-width: 0.8"/>
      </g>
     </g>
     <g id="text_7">
      <!-- 150 -->
      <g transform="translate(717.96534 355.356563)scale(0.22 -0.22)">
       <use xlink:href="#DejaVuSans-31"/>
       <use xlink:href="#DejaVuSans-35" x="63.623047"/>
       <use xlink:href="#DejaVuSans-30" x="127.246094"/>
      </g>
     </g>
    </g>
    <g id="xtick_8">
     <g id="line2d_15">
      <path d="M 838.136627 331.64 
L 838.136627 23.76 
" clip-path="url(#pca05fbe7f3)" style="fill: none; stroke-dasharray: 5.12,1.28,0.8,1.28; stroke-dashoffset: 0; stroke: #b0b0b0; stroke-width: 0.8"/>
     </g>
     <g id="line2d_16">
      <g>
       <use xlink:href="#m8ed5886829" x="838.136627" y="331.64" style="stroke: #000000; stroke-width: 0.8"/>
      </g>
     </g>
     <g id="text_8">
      <!-- 175 -->
      <g transform="translate(817.140377 355.356563)scale(0.22 -0.22)">
       <use xlink:href="#DejaVuSans-31"/>
       <use xlink:href="#DejaVuSans-37" x="63.623047"/>
       <use xlink:href="#DejaVuSans-35" x="127.246094"/>
      </g>
     </g>
    </g>
    <g id="text_9">
     <!-- Time (s) -->
     <g transform="translate(454.135625 382.168125)scale(0.24 -0.24)">
      <defs>
       <path id="DejaVuSans-54" d="M -19 4666 
L 3928 4666 
L 3928 4134 
L 2272 4134 
L 2272 0 
L 1638 0 
L 1638 4134 
L -19 4134 
L -19 4666 
z
" transform="scale(0.015625)"/>
       <path id="DejaVuSans-69" d="M 603 3500 
L 1178 3500 
L 1178 0 
L 603 0 
L 603 3500 
z
M 603 4863 
L 1178 4863 
L 1178 4134 
L 603 4134 
L 603 4863 
z
" transform="scale(0.015625)"/>
       <path id="DejaVuSans-6d" d="M 3328 2828 
Q 3544 3216 3844 3400 
Q 4144 3584 4550 3584 
Q 5097 3584 5394 3201 
Q 5691 2819 5691 2113 
L 5691 0 
L 5113 0 
L 5113 2094 
Q 5113 2597 4934 2840 
Q 4756 3084 4391 3084 
Q 3944 3084 3684 2787 
Q 3425 2491 3425 1978 
L 3425 0 
L 2847 0 
L 2847 2094 
Q 2847 2600 2669 2842 
Q 2491 3084 2119 3084 
Q 1678 3084 1418 2786 
Q 1159 2488 1159 1978 
L 1159 0 
L 581 0 
L 581 3500 
L 1159 3500 
L 1159 2956 
Q 1356 3278 1631 3431 
Q 1906 3584 2284 3584 
Q 2666 3584 2933 3390 
Q 3200 3197 3328 2828 
z
" transform="scale(0.015625)"/>
       <path id="DejaVuSans-65" d="M 3597 1894 
L 3597 1613 
L 953 1613 
Q 991 1019 1311 708 
Q 1631 397 2203 397 
Q 2534 397 2845 478 
Q 3156 559 3463 722 
L 3463 178 
Q 3153 47 2828 -22 
Q 2503 -91 2169 -91 
Q 1331 -91 842 396 
Q 353 884 353 1716 
Q 353 2575 817 3079 
Q 1281 3584 2069 3584 
Q 2775 3584 3186 3129 
Q 3597 2675 3597 1894 
z
M 3022 2063 
Q 3016 2534 2758 2815 
Q 2500 3097 2075 3097 
Q 1594 3097 1305 2825 
Q 1016 2553 972 2059 
L 3022 2063 
z
" transform="scale(0.015625)"/>
       <path id="DejaVuSans-20" transform="scale(0.015625)"/>
       <path id="DejaVuSans-28" d="M 1984 4856 
Q 1566 4138 1362 3434 
Q 1159 2731 1159 2009 
Q 1159 1288 1364 580 
Q 1569 -128 1984 -844 
L 1484 -844 
Q 1016 -109 783 600 
Q 550 1309 550 2009 
Q 550 2706 781 3412 
Q 1013 4119 1484 4856 
L 1984 4856 
z
" transform="scale(0.015625)"/>
       <path id="DejaVuSans-73" d="M 2834 3397 
L 2834 2853 
Q 2591 2978 2328 3040 
Q 2066 3103 1784 3103 
Q 1356 3103 1142 2972 
Q 928 2841 928 2578 
Q 928 2378 1081 2264 
Q 1234 2150 1697 2047 
L 1894 2003 
Q 2506 1872 2764 1633 
Q 3022 1394 3022 966 
Q 3022 478 2636 193 
Q 2250 -91 1575 -91 
Q 1294 -91 989 -36 
Q 684 19 347 128 
L 347 722 
Q 666 556 975 473 
Q 1284 391 1588 391 
Q 1994 391 2212 530 
Q 2431 669 2431 922 
Q 2431 1156 2273 1281 
Q 2116 1406 1581 1522 
L 1381 1569 
Q 847 1681 609 1914 
Q 372 2147 372 2553 
Q 372 3047 722 3315 
Q 1072 3584 1716 3584 
Q 2034 3584 2315 3537 
Q 2597 3491 2834 3397 
z
" transform="scale(0.015625)"/>
       <path id="DejaVuSans-29" d="M 513 4856 
L 1013 4856 
Q 1481 4119 1714 3412 
Q 1947 2706 1947 2009 
Q 1947 1309 1714 600 
Q 1481 -109 1013 -844 
L 513 -844 
Q 928 -128 1133 580 
Q 1338 1288 1338 2009 
Q 1338 2731 1133 3434 
Q 928 4138 513 4856 
z
" transform="scale(0.015625)"/>
      </defs>
      <use xlink:href="#DejaVuSans-54"/>
      <use xlink:href="#DejaVuSans-69" x="57.958984"/>
      <use xlink:href="#DejaVuSans-6d" x="85.742188"/>
      <use xlink:href="#DejaVuSans-65" x="183.154297"/>
      <use xlink:href="#DejaVuSans-20" x="244.677734"/>
      <use xlink:href="#DejaVuSans-28" x="276.464844"/>
      <use xlink:href="#DejaVuSans-73" x="315.478516"/>
      <use xlink:href="#DejaVuSans-29" x="367.578125"/>
     </g>
    </g>
   </g>
   <g id="matplotlib.axis_2">
    <g id="ytick_1">
     <g id="line2d_17">
      <path d="M 108.01 331.64 
L 897.84 331.64 
" clip-path="url(#pca05fbe7f3)" style="fill: none; stroke-dasharray: 5.12,1.28,0.8,1.28; stroke-dashoffset: 0; stroke: #b0b0b0; stroke-width: 0.8"/>
     </g>
     <g id="line2d_18">
      <defs>
       <path id="m446cc8a844" d="M 0 0 
L -3.5 0 
" style="stroke: #000000; stroke-width: 0.8"/>
      </defs>
      <g>
       <use xlink:href="#m446cc8a844" x="108.01" y="331.64" style="stroke: #000000; stroke-width: 0.8"/>
      </g>
     </g>
     <g id="text_10">
      <!-- 0 -->
      <g transform="translate(87.0125 339.998281)scale(0.22 -0.22)">
       <use xlink:href="#DejaVuSans-30"/>
      </g>
     </g>
    </g>
    <g id="ytick_2">
     <g id="line2d_19">
      <path d="M 108.01 241.985701 
L 897.84 241.985701 
" clip-path="url(#pca05fbe7f3)" style="fill: none; stroke-dasharray: 5.12,1.28,0.8,1.28; stroke-dashoffset: 0; stroke: #b0b0b0; stroke-width: 0.8"/>
     </g>
     <g id="line2d_20">
      <g>
       <use xlink:href="#m446cc8a844" x="108.01" y="241.985701" style="stroke: #000000; stroke-width: 0.8"/>
      </g>
     </g>
     <g id="text_11">
      <!-- 5 -->
      <g transform="translate(87.0125 250.343982)scale(0.22 -0.22)">
       <use xlink:href="#DejaVuSans-35"/>
      </g>
     </g>
    </g>
    <g id="ytick_3">
     <g id="line2d_21">
      <path d="M 108.01 152.331402 
L 897.84 152.331402 
" clip-path="url(#pca05fbe7f3)" style="fill: none; stroke-dasharray: 5.12,1.28,0.8,1.28; stroke-dashoffset: 0; stroke: #b0b0b0; stroke-width: 0.8"/>
     </g>
     <g id="line2d_22">
      <g>
       <use xlink:href="#m446cc8a844" x="108.01" y="152.331402" style="stroke: #000000; stroke-width: 0.8"/>
      </g>
     </g>
     <g id="text_12">
      <!-- 10 -->
      <g transform="translate(73.015 160.689683)scale(0.22 -0.22)">
       <use xlink:href="#DejaVuSans-31"/>
       <use xlink:href="#DejaVuSans-30" x="63.623047"/>
      </g>
     </g>
    </g>
    <g id="ytick_4">
     <g id="line2d_23">
      <path d="M 108.01 62.677102 
L 897.84 62.677102 
" clip-path="url(#pca05fbe7f3)" style="fill: none; stroke-dasharray: 5.12,1.28,0.8,1.28; stroke-dashoffset: 0; stroke: #b0b0b0; stroke-width: 0.8"/>
     </g>
     <g id="line2d_24">
      <g>
       <use xlink:href="#m446cc8a844" x="108.01" y="62.677102" style="stroke: #000000; stroke-width: 0.8"/>
      </g>
     </g>
     <g id="text_13">
      <!-- 15 -->
      <g transform="translate(73.015 71.035384)scale(0.22 -0.22)">
       <use xlink:href="#DejaVuSans-31"/>
       <use xlink:href="#DejaVuSans-35" x="63.623047"/>
      </g>
     </g>
    </g>
    <g id="text_14">
     <!-- Throughput (Mbps) -->
     <g transform="translate(64.02375 292.414375)rotate(-90)scale(0.24 -0.24)">
      <defs>
       <path id="DejaVuSans-68" d="M 3513 2113 
L 3513 0 
L 2938 0 
L 2938 2094 
Q 2938 2591 2744 2837 
Q 2550 3084 2163 3084 
Q 1697 3084 1428 2787 
Q 1159 2491 1159 1978 
L 1159 0 
L 581 0 
L 581 4863 
L 1159 4863 
L 1159 2956 
Q 1366 3272 1645 3428 
Q 1925 3584 2291 3584 
Q 2894 3584 3203 3211 
Q 3513 2838 3513 2113 
z
" transform="scale(0.015625)"/>
       <path id="DejaVuSans-72" d="M 2631 2963 
Q 2534 3019 2420 3045 
Q 2306 3072 2169 3072 
Q 1681 3072 1420 2755 
Q 1159 2438 1159 1844 
L 1159 0 
L 581 0 
L 581 3500 
L 1159 3500 
L 1159 2956 
Q 1341 3275 1631 3429 
Q 1922 3584 2338 3584 
Q 2397 3584 2469 3576 
Q 2541 3569 2628 3553 
L 2631 2963 
z
" transform="scale(0.015625)"/>
       <path id="DejaVuSans-6f" d="M 1959 3097 
Q 1497 3097 1228 2736 
Q 959 2375 959 1747 
Q 959 1119 1226 758 
Q 1494 397 1959 397 
Q 2419 397 2687 759 
Q 2956 1122 2956 1747 
Q 2956 2369 2687 2733 
Q 2419 3097 1959 3097 
z
M 1959 3584 
Q 2709 3584 3137 3096 
Q 3566 2609 3566 1747 
Q 3566 888 3137 398 
Q 2709 -91 1959 -91 
Q 1206 -91 779 398 
Q 353 888 353 1747 
Q 353 2609 779 3096 
Q 1206 3584 1959 3584 
z
" transform="scale(0.015625)"/>
       <path id="DejaVuSans-75" d="M 544 1381 
L 544 3500 
L 1119 3500 
L 1119 1403 
Q 1119 906 1312 657 
Q 1506 409 1894 409 
Q 2359 409 2629 706 
Q 2900 1003 2900 1516 
L 2900 3500 
L 3475 3500 
L 3475 0 
L 2900 0 
L 2900 538 
Q 2691 219 2414 64 
Q 2138 -91 1772 -91 
Q 1169 -91 856 284 
Q 544 659 544 1381 
z
M 1991 3584 
L 1991 3584 
z
" transform="scale(0.015625)"/>
       <path id="DejaVuSans-67" d="M 2906 1791 
Q 2906 2416 2648 2759 
Q 2391 3103 1925 3103 
Q 1463 3103 1205 2759 
Q 947 2416 947 1791 
Q 947 1169 1205 825 
Q 1463 481 1925 481 
Q 2391 481 2648 825 
Q 2906 1169 2906 1791 
z
M 3481 434 
Q 3481 -459 3084 -895 
Q 2688 -1331 1869 -1331 
Q 1566 -1331 1297 -1286 
Q 1028 -1241 775 -1147 
L 775 -588 
Q 1028 -725 1275 -790 
Q 1522 -856 1778 -856 
Q 2344 -856 2625 -561 
Q 2906 -266 2906 331 
L 2906 616 
Q 2728 306 2450 153 
Q 2172 0 1784 0 
Q 1141 0 747 490 
Q 353 981 353 1791 
Q 353 2603 747 3093 
Q 1141 3584 1784 3584 
Q 2172 3584 2450 3431 
Q 2728 3278 2906 2969 
L 2906 3500 
L 3481 3500 
L 3481 434 
z
" transform="scale(0.015625)"/>
       <path id="DejaVuSans-70" d="M 1159 525 
L 1159 -1331 
L 581 -1331 
L 581 3500 
L 1159 3500 
L 1159 2969 
Q 1341 3281 1617 3432 
Q 1894 3584 2278 3584 
Q 2916 3584 3314 3078 
Q 3713 2572 3713 1747 
Q 3713 922 3314 415 
Q 2916 -91 2278 -91 
Q 1894 -91 1617 61 
Q 1341 213 1159 525 
z
M 3116 1747 
Q 3116 2381 2855 2742 
Q 2594 3103 2138 3103 
Q 1681 3103 1420 2742 
Q 1159 2381 1159 1747 
Q 1159 1113 1420 752 
Q 1681 391 2138 391 
Q 2594 391 2855 752 
Q 3116 1113 3116 1747 
z
" transform="scale(0.015625)"/>
       <path id="DejaVuSans-74" d="M 1172 4494 
L 1172 3500 
L 2356 3500 
L 2356 3053 
L 1172 3053 
L 1172 1153 
Q 1172 725 1289 603 
Q 1406 481 1766 481 
L 2356 481 
L 2356 0 
L 1766 0 
Q 1100 0 847 248 
Q 594 497 594 1153 
L 594 3053 
L 172 3053 
L 172 3500 
L 594 3500 
L 594 4494 
L 1172 4494 
z
" transform="scale(0.015625)"/>
       <path id="DejaVuSans-4d" d="M 628 4666 
L 1569 4666 
L 2759 1491 
L 3956 4666 
L 4897 4666 
L 4897 0 
L 4281 0 
L 4281 4097 
L 3078 897 
L 2444 897 
L 1241 4097 
L 1241 0 
L 628 0 
L 628 4666 
z
" transform="scale(0.015625)"/>
       <path id="DejaVuSans-62" d="M 3116 1747 
Q 3116 2381 2855 2742 
Q 2594 3103 2138 3103 
Q 1681 3103 1420 2742 
Q 1159 2381 1159 1747 
Q 1159 1113 1420 752 
Q 1681 391 2138 391 
Q 2594 391 2855 752 
Q 3116 1113 3116 1747 
z
M 1159 2969 
Q 1341 3281 1617 3432 
Q 1894 3584 2278 3584 
Q 2916 3584 3314 3078 
Q 3713 2572 3713 1747 
Q 3713 922 3314 415 
Q 2916 -91 2278 -91 
Q 1894 -91 1617 61 
Q 1341 213 1159 525 
L 1159 0 
L 581 0 
L 581 4863 
L 1159 4863 
L 1159 2969 
z
" transform="scale(0.015625)"/>
      </defs>
      <use xlink:href="#DejaVuSans-54"/>
      <use xlink:href="#DejaVuSans-68" x="61.083984"/>
      <use xlink:href="#DejaVuSans-72" x="124.462891"/>
      <use xlink:href="#DejaVuSans-6f" x="163.326172"/>
      <use xlink:href="#DejaVuSans-75" x="224.507812"/>
      <use xlink:href="#DejaVuSans-67" x="287.886719"/>
      <use xlink:href="#DejaVuSans-68" x="351.363281"/>
      <use xlink:href="#DejaVuSans-70" x="414.742188"/>
      <use xlink:href="#DejaVuSans-75" x="478.21875"/>
      <use xlink:href="#DejaVuSans-74" x="541.597656"/>
      <use xlink:href="#DejaVuSans-20" x="580.806641"/>
      <use xlink:href="#DejaVuSans-28" x="612.59375"/>
      <use xlink:href="#DejaVuSans-4d" x="651.607422"/>
      <use xlink:href="#DejaVuSans-62" x="737.886719"/>
      <use xlink:href="#DejaVuSans-70" x="801.363281"/>
      <use xlink:href="#DejaVuSans-73" x="864.839844"/>
      <use xlink:href="#DejaVuSans-29" x="916.939453"/>
     </g>
    </g>
   </g>
   <g id="patch_3">
    <path d="M 108.01 331.64 
L 108.01 23.76 
" style="fill: none; stroke: #000000; stroke-width: 0.8; stroke-linejoin: miter; stroke-linecap: square"/>
   </g>
   <g id="patch_4">
    <path d="M 897.84 331.64 
L 897.84 23.76 
" style="fill: none; stroke: #000000; stroke-width: 0.8; stroke-linejoin: miter; stroke-linecap: square"/>
   </g>
   <g id="patch_5">
    <path d="M 108.01 331.64 
L 897.84 331.64 
" style="fill: none; stroke: #000000; stroke-width: 0.8; stroke-linejoin: miter; stroke-linecap: square"/>
   </g>
   <g id="patch_6">
    <path d="M 108.01 23.76 
L 897.84 23.76 
" style="fill: none; stroke: #000000; stroke-width: 0.8; stroke-linejoin: miter; stroke-linecap: square"/>
   </g>
   <g id="legend_1">
    <g id="patch_7">
     <path d="M 756.24 113.415 
L 881.04 113.415 
Q 885.84 113.415 885.84 108.615 
L 885.84 40.56 
Q 885.84 35.76 881.04 35.76 
L 756.24 35.76 
Q 751.44 35.76 751.44 40.56 
L 751.44 108.615 
Q 751.44 113.415 756.24 113.415 
z
" style="fill: #ffffff; opacity: 0.8; stroke: #cccccc; stroke-linejoin: miter"/>
    </g>
    <g id="patch_8">
     <path d="M 761.04 63.59625 
L 809.04 63.59625 
L 809.04 46.79625 
L 761.04 46.79625 
z
" style="fill: #1f77b4"/>
    </g>
    <g id="text_15">
     <!-- UE1 -->
     <g transform="translate(828.24 63.59625)scale(0.24 -0.24)">
      <defs>
       <path id="DejaVuSans-55" d="M 556 4666 
L 1191 4666 
L 1191 1831 
Q 1191 1081 1462 751 
Q 1734 422 2344 422 
Q 2950 422 3222 751 
Q 3494 1081 3494 1831 
L 3494 4666 
L 4128 4666 
L 4128 1753 
Q 4128 841 3676 375 
Q 3225 -91 2344 -91 
Q 1459 -91 1007 375 
Q 556 841 556 1753 
L 556 4666 
z
" transform="scale(0.015625)"/>
       <path id="DejaVuSans-45" d="M 628 4666 
L 3578 4666 
L 3578 4134 
L 1259 4134 
L 1259 2753 
L 3481 2753 
L 3481 2222 
L 1259 2222 
L 1259 531 
L 3634 531 
L 3634 0 
L 628 0 
L 628 4666 
z
" transform="scale(0.015625)"/>
      </defs>
      <use xlink:href="#DejaVuSans-55"/>
      <use xlink:href="#DejaVuSans-45" x="73.193359"/>
      <use xlink:href="#DejaVuSans-31" x="136.376953"/>
     </g>
    </g>
    <g id="patch_9">
     <path d="M 761.04 98.82375 
L 809.04 98.82375 
L 809.04 82.02375 
L 761.04 82.02375 
z
" style="fill: #ff7f0e"/>
    </g>
    <g id="text_16">
     <!-- UE2 -->
     <g transform="translate(828.24 98.82375)scale(0.24 -0.24)">
      <use xlink:href="#DejaVuSans-55"/>
      <use xlink:href="#DejaVuSans-45" x="73.193359"/>
      <use xlink:href="#DejaVuSans-32" x="136.376953"/>
     </g>
    </g>
   </g>
  </g>
 </g>
 <defs>
  <clipPath id="pca05fbe7f3">
   <rect x="108.01" y="23.76" width="789.83" height="307.88"/>
  </clipPath>
 </defs>
</svg>
