<?xml version="1.0" encoding="utf-8" standalone="no"?>
<!DOCTYPE svg PUBLIC "-//W3C//DTD SVG 1.1//EN"
  "http://www.w3.org/Graphics/SVG/1.1/DTD/svg11.dtd">
<svg xmlns:xlink="http://www.w3.org/1999/xlink" width="921.6pt" height="410.4pt" viewBox="0 0 921.6 410.4" xmlns="http://www.w3.org/2000/svg" version="1.1">
 <metadata>
  <rdf:RDF xmlns:dc="http://purl.org/dc/elements/1.1/" xmlns:cc="http://creativecommons.org/ns#" xmlns:rdf="http://www.w3.org/1999/02/22-rdf-syntax-ns#">
   <cc:Work>
    <dc:type rdf:resource="http://purl.org/dc/dcmitype/StillImage"/>
    <dc:date>2023-04-11T15:18:52.600757</dc:date>
    <dc:format>image/svg+xml</dc:format>
    <dc:creator>
     <cc:Agent>
      <dc:title>Matplotlib v3.5.3, https://matplotlib.org/</dc:title>
     </cc:Agent>
    </dc:creator>
   </cc:Work>
  </rdf:RDF>
 </metadata>
 <defs>
  <style type="text/css">*{stroke-linejoin: round; stroke-linecap: butt}</style>
 </defs>
 <g id="figure_1">
  <g id="patch_1">
   <path d="M 0 410.4 
L 921.6 410.4 
L 921.6 0 
L 0 0 
L 0 410.4 
z
" style="fill: none"/>
  </g>
  <g id="axes_1">
   <g id="patch_2">
    <path d="M 101.01 331.64 
L 897.84 331.64 
L 897.84 23.76 
L 101.01 23.76 
z
" style="fill: #ffffff"/>
   </g>
   <g id="PolyCollection_1">
    <path d="M 137.229545 234.105377 
L 137.229545 331.64 
L 141.187966 331.64 
L 145.146386 331.64 
L 149.104806 331.64 
L 153.063227 331.64 
L 157.021647 331.64 
L 160.980067 331.64 
L 164.938487 331.64 
L 168.896908 331.64 
L 172.855328 331.64 
L 176.813748 331.64 
L 180.772168 331.64 
L 184.730589 331.64 
L 188.689009 331.64 
L 192.647429 331.64 
L 196.605849 331.64 
L 200.56427 331.64 
L 204.52269 331.64 
L 208.48111 331.64 
L 212.439531 331.64 
L 216.397951 331.64 
L 220.356371 331.64 
L 224.314791 331.64 
L 228.273212 331.64 
L 232.231632 331.64 
L 236.190052 331.64 
L 240.148472 331.64 
L 244.106893 331.64 
L 248.065313 331.64 
L 252.023733 331.64 
L 255.982154 331.64 
L 259.940574 331.64 
L 263.898994 331.64 
L 267.857414 331.64 
L 271.815835 331.64 
L 275.774255 331.64 
L 279.732675 331.64 
L 283.691095 331.64 
L 287.649516 331.64 
L 291.607936 331.64 
L 295.566356 331.64 
L 299.524776 331.64 
L 303.483197 331.64 
L 307.441617 331.64 
L 311.400037 331.64 
L 315.358458 331.64 
L 319.316878 331.64 
L 323.275298 331.64 
L 327.233718 331.64 
L 331.192139 331.64 
L 335.150559 331.64 
L 339.108979 331.64 
L 343.067399 331.64 
L 347.02582 331.64 
L 350.98424 331.64 
L 354.94266 331.64 
L 358.90108 331.64 
L 362.859501 331.64 
L 366.817921 331.64 
L 370.776341 331.64 
L 374.734762 331.64 
L 378.693182 331.64 
L 382.651602 331.64 
L 386.610022 331.64 
L 390.568443 331.64 
L 394.526863 331.64 
L 398.485283 331.64 
L 402.443703 331.64 
L 406.402124 331.64 
L 410.360544 331.64 
L 414.318964 331.64 
L 418.277385 331.64 
L 422.235805 331.64 
L 426.194225 331.64 
L 430.152645 331.64 
L 434.111066 331.64 
L 438.069486 331.64 
L 442.027906 331.64 
L 445.986326 331.64 
L 449.944747 331.64 
L 453.903167 331.64 
L 457.861587 331.64 
L 461.820007 331.64 
L 465.778428 331.64 
L 469.736848 331.64 
L 473.695268 331.64 
L 477.653689 331.64 
L 481.612109 331.64 
L 485.570529 331.64 
L 489.528949 331.64 
L 493.48737 331.64 
L 497.44579 331.64 
L 501.40421 331.64 
L 505.36263 331.64 
L 509.321051 331.64 
L 513.279471 331.64 
L 517.237891 331.64 
L 521.196311 331.64 
L 525.154732 331.64 
L 529.113152 331.64 
L 533.071572 331.64 
L 537.029993 331.64 
L 540.988413 331.64 
L 544.946833 331.64 
L 548.905253 331.64 
L 552.863674 331.64 
L 556.822094 331.64 
L 560.780514 331.64 
L 564.738934 331.64 
L 568.697355 331.64 
L 572.655775 331.64 
L 576.614195 331.64 
L 580.572615 331.64 
L 584.531036 331.64 
L 588.489456 331.64 
L 592.447876 331.64 
L 596.406297 331.64 
L 600.364717 331.64 
L 604.323137 331.64 
L 608.281557 331.64 
L 612.239978 331.64 
L 616.198398 331.64 
L 620.156818 331.64 
L 624.115238 331.64 
L 628.073659 331.64 
L 632.032079 331.64 
L 635.990499 331.64 
L 639.94892 331.64 
L 643.90734 331.64 
L 647.86576 331.64 
L 651.82418 331.64 
L 655.782601 331.64 
L 659.741021 331.64 
L 663.699441 331.64 
L 667.657861 331.64 
L 671.616282 331.64 
L 675.574702 331.64 
L 679.533122 331.64 
L 683.491542 331.64 
L 687.449963 331.64 
L 691.408383 331.64 
L 695.366803 331.64 
L 699.325224 331.64 
L 703.283644 331.64 
L 707.242064 331.64 
L 711.200484 331.64 
L 715.158905 331.64 
L 719.117325 331.64 
L 723.075745 331.64 
L 727.034165 331.64 
L 730.992586 331.64 
L 734.951006 331.64 
L 738.909426 331.64 
L 742.867846 331.64 
L 746.826267 331.64 
L 750.784687 331.64 
L 754.743107 331.64 
L 758.701528 331.64 
L 762.659948 331.64 
L 766.618368 331.64 
L 770.576788 331.64 
L 774.535209 331.64 
L 778.493629 331.64 
L 782.452049 331.64 
L 786.410469 331.64 
L 790.36889 331.64 
L 794.32731 331.64 
L 798.28573 331.64 
L 802.244151 331.64 
L 806.202571 331.64 
L 810.160991 331.64 
L 814.119411 331.64 
L 818.077832 331.64 
L 822.036252 331.64 
L 825.994672 331.64 
L 829.953092 331.64 
L 833.911513 331.64 
L 837.869933 331.64 
L 841.828353 331.64 
L 845.786773 331.64 
L 849.745194 331.64 
L 853.703614 331.64 
L 857.662034 331.64 
L 861.620455 331.64 
L 861.620455 234.906353 
L 861.620455 234.906353 
L 857.662034 234.719793 
L 853.703614 234.464061 
L 849.745194 234.888735 
L 845.786773 236.83902 
L 841.828353 238.120847 
L 837.869933 234.776097 
L 833.911513 234.814911 
L 829.953092 239.33715 
L 825.994672 238.840505 
L 822.036252 238.537207 
L 818.077832 236.071343 
L 814.119411 235.050508 
L 810.160991 234.565245 
L 806.202571 234.873577 
L 802.244151 234.070636 
L 798.28573 234.688007 
L 794.32731 234.530108 
L 790.36889 235.042844 
L 786.410469 235.089124 
L 782.452049 234.792754 
L 778.493629 235.024986 
L 774.535209 234.971848 
L 770.576788 234.853258 
L 766.618368 234.799796 
L 762.659948 234.992097 
L 758.701528 234.659897 
L 754.743107 235.648027 
L 750.784687 236.863538 
L 746.826267 237.254475 
L 742.867846 237.134796 
L 738.909426 238.381061 
L 734.951006 236.740678 
L 730.992586 236.90576 
L 727.034165 235.846181 
L 723.075745 235.238383 
L 719.117325 235.574768 
L 715.158905 237.310779 
L 711.200484 235.620327 
L 707.242064 235.011171 
L 703.283644 236.138323 
L 699.325224 235.505667 
L 695.366803 235.090297 
L 691.408383 235.082492 
L 687.449963 235.473726 
L 683.491542 237.541003 
L 679.533122 235.710227 
L 675.574702 235.914547 
L 671.616282 235.006632 
L 667.657861 235.88262 
L 663.699441 236.990923 
L 659.741021 235.410379 
L 655.782601 237.810366 
L 651.82418 235.58123 
L 647.86576 235.40092 
L 643.90734 236.351551 
L 639.94892 236.657013 
L 635.990499 235.518902 
L 632.032079 235.211928 
L 628.073659 235.85639 
L 624.115238 236.402737 
L 620.156818 234.819987 
L 616.198398 235.702748 
L 612.239978 235.048359 
L 608.281557 235.197802 
L 604.323137 234.604709 
L 600.364717 237.136902 
L 596.406297 238.363231 
L 592.447876 237.438518 
L 588.489456 235.950194 
L 584.531036 236.632056 
L 580.572615 236.15252 
L 576.614195 236.059536 
L 572.655775 236.091747 
L 568.697355 236.144686 
L 564.738934 235.291619 
L 560.780514 236.300987 
L 556.822094 236.503412 
L 552.863674 236.033802 
L 548.905253 236.177349 
L 544.946833 235.96579 
L 540.988413 236.161315 
L 537.029993 236.088169 
L 533.071572 237.58338 
L 529.113152 236.437592 
L 525.154732 237.034516 
L 521.196311 238.167706 
L 517.237891 236.753022 
L 513.279471 236.366483 
L 509.321051 236.02102 
L 505.36263 236.109803 
L 501.40421 235.948737 
L 497.44579 234.98415 
L 493.48737 235.388406 
L 489.528949 238.630487 
L 485.570529 235.073273 
L 481.612109 235.54919 
L 477.653689 234.646407 
L 473.695268 235.208633 
L 469.736848 234.069434 
L 465.778428 235.017152 
L 461.820007 234.553 
L 457.861587 234.365337 
L 453.903167 234.835555 
L 449.944747 234.144997 
L 445.986326 234.095508 
L 442.027906 233.972195 
L 438.069486 233.938867 
L 434.111066 234.827439 
L 430.152645 234.128807 
L 426.194225 234.595957 
L 422.235805 234.349755 
L 418.277385 233.880357 
L 414.318964 234.348751 
L 410.360544 234.377921 
L 406.402124 234.553523 
L 402.443703 234.071696 
L 398.485283 234.479091 
L 394.526863 234.333155 
L 390.568443 234.829659 
L 386.610022 234.97725 
L 382.651602 235.538132 
L 378.693182 235.945018 
L 374.734762 235.426697 
L 370.776341 235.340317 
L 366.817921 234.456058 
L 362.859501 234.77129 
L 358.90108 235.408598 
L 354.94266 234.945647 
L 350.98424 234.775659 
L 347.02582 234.424286 
L 343.067399 234.925484 
L 339.108979 234.548687 
L 335.150559 234.697607 
L 331.192139 235.081502 
L 327.233718 236.982708 
L 323.275298 235.080088 
L 319.316878 235.133409 
L 315.358458 235.780545 
L 311.400037 234.814162 
L 307.441617 234.42355 
L 303.483197 234.997526 
L 299.524776 235.201478 
L 295.566356 234.640384 
L 291.607936 234.680343 
L 287.649516 235.899828 
L 283.691095 235.020602 
L 279.732675 236.029914 
L 275.774255 235.490538 
L 271.815835 235.706424 
L 267.857414 234.710333 
L 263.898994 235.05113 
L 259.940574 235.904409 
L 255.982154 237.469131 
L 252.023733 234.693931 
L 248.065313 234.741101 
L 244.106893 234.706332 
L 240.148472 234.665807 
L 236.190052 234.536061 
L 232.231632 234.84254 
L 228.273212 234.709287 
L 224.314791 235.145669 
L 220.356371 236.057359 
L 216.397951 236.499481 
L 212.439531 236.553509 
L 208.48111 236.130221 
L 204.52269 234.960777 
L 200.56427 235.54984 
L 196.605849 236.494419 
L 192.647429 236.163534 
L 188.689009 234.38304 
L 184.730589 235.547464 
L 180.772168 236.012833 
L 176.813748 235.307201 
L 172.855328 235.094992 
L 168.896908 236.985819 
L 164.938487 235.224427 
L 160.980067 234.484125 
L 157.021647 236.669342 
L 153.063227 234.149734 
L 149.104806 233.959681 
L 145.146386 234.054276 
L 141.187966 234.081933 
L 137.229545 234.105377 
z
" clip-path="url(#pc165d59878)" style="fill: #1f77b4"/>
   </g>
   <g id="PolyCollection_2">
    <path d="M 137.229545 136.392735 
L 137.229545 234.105377 
L 141.187966 234.081933 
L 145.146386 234.054276 
L 149.104806 233.959681 
L 153.063227 234.149734 
L 157.021647 236.669342 
L 160.980067 234.484125 
L 164.938487 235.224427 
L 168.896908 236.985819 
L 172.855328 235.094992 
L 176.813748 235.307201 
L 180.772168 236.012833 
L 184.730589 235.547464 
L 188.689009 234.38304 
L 192.647429 236.163534 
L 196.605849 236.494419 
L 200.56427 235.54984 
L 204.52269 234.960777 
L 208.48111 236.130221 
L 212.439531 236.553509 
L 216.397951 236.499481 
L 220.356371 236.057359 
L 224.314791 235.145669 
L 228.273212 234.709287 
L 232.231632 234.84254 
L 236.190052 234.536061 
L 240.148472 234.665807 
L 244.106893 234.706332 
L 248.065313 234.741101 
L 252.023733 234.693931 
L 255.982154 237.469131 
L 259.940574 235.904409 
L 263.898994 235.05113 
L 267.857414 234.710333 
L 271.815835 235.706424 
L 275.774255 235.490538 
L 279.732675 236.029914 
L 283.691095 235.020602 
L 287.649516 235.899828 
L 291.607936 234.680343 
L 295.566356 234.640384 
L 299.524776 235.201478 
L 303.483197 234.997526 
L 307.441617 234.42355 
L 311.400037 234.814162 
L 315.358458 235.780545 
L 319.316878 235.133409 
L 323.275298 235.080088 
L 327.233718 236.982708 
L 331.192139 235.081502 
L 335.150559 234.697607 
L 339.108979 234.548687 
L 343.067399 234.925484 
L 347.02582 234.424286 
L 350.98424 234.775659 
L 354.94266 234.945647 
L 358.90108 235.408598 
L 362.859501 234.77129 
L 366.817921 234.456058 
L 370.776341 235.340317 
L 374.734762 235.426697 
L 378.693182 235.945018 
L 382.651602 235.538132 
L 386.610022 234.97725 
L 390.568443 234.829659 
L 394.526863 234.333155 
L 398.485283 234.479091 
L 402.443703 234.071696 
L 406.402124 234.553523 
L 410.360544 234.377921 
L 414.318964 234.348751 
L 418.277385 233.880357 
L 422.235805 234.349755 
L 426.194225 234.595957 
L 430.152645 234.128807 
L 434.111066 234.827439 
L 438.069486 233.938867 
L 442.027906 233.972195 
L 445.986326 234.095508 
L 449.944747 234.144997 
L 453.903167 234.835555 
L 457.861587 234.365337 
L 461.820007 234.553 
L 465.778428 235.017152 
L 469.736848 234.069434 
L 473.695268 235.208633 
L 477.653689 234.646407 
L 481.612109 235.54919 
L 485.570529 235.073273 
L 489.528949 238.630487 
L 493.48737 235.388406 
L 497.44579 234.98415 
L 501.40421 235.948737 
L 505.36263 236.109803 
L 509.321051 236.02102 
L 513.279471 236.366483 
L 517.237891 236.753022 
L 521.196311 238.167706 
L 525.154732 237.034516 
L 529.113152 236.437592 
L 533.071572 237.58338 
L 537.029993 236.088169 
L 540.988413 236.161315 
L 544.946833 235.96579 
L 548.905253 236.177349 
L 552.863674 236.033802 
L 556.822094 236.503412 
L 560.780514 236.300987 
L 564.738934 235.291619 
L 568.697355 236.144686 
L 572.655775 236.091747 
L 576.614195 236.059536 
L 580.572615 236.15252 
L 584.531036 236.632056 
L 588.489456 235.950194 
L 592.447876 237.438518 
L 596.406297 238.363231 
L 600.364717 237.136902 
L 604.323137 234.604709 
L 608.281557 235.197802 
L 612.239978 235.048359 
L 616.198398 235.702748 
L 620.156818 234.819987 
L 624.115238 236.402737 
L 628.073659 235.85639 
L 632.032079 235.211928 
L 635.990499 235.518902 
L 639.94892 236.657013 
L 643.90734 236.351551 
L 647.86576 235.40092 
L 651.82418 235.58123 
L 655.782601 237.810366 
L 659.741021 235.410379 
L 663.699441 236.990923 
L 667.657861 235.88262 
L 671.616282 235.006632 
L 675.574702 235.914547 
L 679.533122 235.710227 
L 683.491542 237.541003 
L 687.449963 235.473726 
L 691.408383 235.082492 
L 695.366803 235.090297 
L 699.325224 235.505667 
L 703.283644 236.138323 
L 707.242064 235.011171 
L 711.200484 235.620327 
L 715.158905 237.310779 
L 719.117325 235.574768 
L 723.075745 235.238383 
L 727.034165 235.846181 
L 730.992586 236.90576 
L 734.951006 236.740678 
L 738.909426 238.381061 
L 742.867846 237.134796 
L 746.826267 237.254475 
L 750.784687 236.863538 
L 754.743107 235.648027 
L 758.701528 234.659897 
L 762.659948 234.992097 
L 766.618368 234.799796 
L 770.576788 234.853258 
L 774.535209 234.971848 
L 778.493629 235.024986 
L 782.452049 234.792754 
L 786.410469 235.089124 
L 790.36889 235.042844 
L 794.32731 234.530108 
L 798.28573 234.688007 
L 802.244151 234.070636 
L 806.202571 234.873577 
L 810.160991 234.565245 
L 814.119411 235.050508 
L 818.077832 236.071343 
L 822.036252 238.537207 
L 825.994672 238.840505 
L 829.953092 239.33715 
L 833.911513 234.814911 
L 837.869933 234.776097 
L 841.828353 238.120847 
L 845.786773 236.83902 
L 849.745194 234.888735 
L 853.703614 234.464061 
L 857.662034 234.719793 
L 861.620455 234.906353 
L 861.620455 137.9587 
L 861.620455 137.9587 
L 857.662034 137.262373 
L 853.703614 137.418844 
L 849.745194 139.411364 
L 845.786773 142.302312 
L 841.828353 141.02952 
L 837.869933 138.091629 
L 833.911513 139.577507 
L 829.953092 145.913115 
L 825.994672 143.772651 
L 822.036252 143.752926 
L 818.077832 138.889988 
L 814.119411 138.048163 
L 810.160991 137.296634 
L 806.202571 137.364434 
L 802.244151 137.017359 
L 798.28573 137.663165 
L 794.32731 137.553129 
L 790.36889 138.260076 
L 786.410469 137.874244 
L 782.452049 137.884198 
L 778.493629 138.001558 
L 774.535209 138.061313 
L 770.576788 138.082834 
L 766.618368 137.773385 
L 762.659948 138.176609 
L 758.701528 137.981791 
L 754.743107 139.992707 
L 750.784687 141.611909 
L 746.826267 142.582718 
L 742.867846 141.94401 
L 738.909426 143.178723 
L 734.951006 142.39948 
L 730.992586 140.345 
L 727.034165 139.694372 
L 723.075745 138.036285 
L 719.117325 141.87464 
L 715.158905 140.826727 
L 711.200484 138.737208 
L 707.242064 139.209406 
L 703.283644 140.041715 
L 699.325224 138.933581 
L 695.366803 138.021057 
L 691.408383 138.589957 
L 687.449963 140.795507 
L 683.491542 141.439786 
L 679.533122 139.417586 
L 675.574702 139.998716 
L 671.616282 138.889635 
L 667.657861 140.318261 
L 663.699441 141.383241 
L 659.741021 140.255551 
L 655.782601 141.772226 
L 651.82418 139.105351 
L 647.86576 140.020478 
L 643.90734 141.380837 
L 639.94892 140.375471 
L 635.990499 138.839255 
L 632.032079 139.552805 
L 628.073659 139.672229 
L 624.115238 139.772494 
L 620.156818 138.38978 
L 616.198398 138.634313 
L 612.239978 138.613754 
L 608.281557 138.646643 
L 604.323137 138.767976 
L 600.364717 142.324073 
L 596.406297 143.969858 
L 592.447876 141.488229 
L 588.489456 140.371837 
L 584.531036 140.872922 
L 580.572615 140.691212 
L 576.614195 140.33711 
L 572.655775 140.514493 
L 568.697355 139.761819 
L 564.738934 139.136402 
L 560.780514 140.97709 
L 556.822094 140.520064 
L 552.863674 140.495122 
L 548.905253 140.113871 
L 544.946833 140.547877 
L 540.988413 140.554367 
L 537.029993 141.192594 
L 533.071572 142.02571 
L 529.113152 140.959274 
L 525.154732 142.436951 
L 521.196311 143.207625 
L 517.237891 141.240599 
L 513.279471 140.768288 
L 509.321051 140.174686 
L 505.36263 139.920283 
L 501.40421 139.587871 
L 497.44579 138.299101 
L 493.48737 140.937583 
L 489.528949 141.584846 
L 485.570529 138.981275 
L 481.612109 138.516444 
L 477.653689 137.906171 
L 473.695268 137.367573 
L 469.736848 137.035698 
L 465.778428 137.880833 
L 461.820007 137.259489 
L 457.861587 137.161924 
L 453.903167 137.047109 
L 449.944747 136.407511 
L 445.986326 136.509091 
L 442.027906 136.278202 
L 438.069486 136.563727 
L 434.111066 137.074809 
L 430.152645 136.76717 
L 426.194225 137.11925 
L 422.235805 136.76881 
L 418.277385 136.191695 
L 414.318964 136.815825 
L 410.360544 136.764285 
L 406.402124 136.886439 
L 402.443703 136.791292 
L 398.485283 137.028204 
L 394.526863 137.195025 
L 390.568443 137.866594 
L 386.610022 138.758305 
L 382.651602 139.646792 
L 378.693182 139.58715 
L 374.734762 138.736049 
L 370.776341 138.311757 
L 366.817921 137.120834 
L 362.859501 138.039764 
L 358.90108 138.701972 
L 354.94266 138.098599 
L 350.98424 137.295093 
L 347.02582 137.450404 
L 343.067399 137.740114 
L 339.108979 137.363925 
L 335.150559 137.311523 
L 331.192139 139.935724 
L 327.233718 140.888179 
L 323.275298 138.325797 
L 319.316878 138.754727 
L 315.358458 139.453289 
L 311.400037 137.445441 
L 307.441617 137.263108 
L 303.483197 138.369419 
L 299.524776 137.88704 
L 295.566356 137.584661 
L 291.607936 138.534104 
L 287.649516 139.408805 
L 283.691095 138.771441 
L 279.732675 139.5934 
L 275.774255 139.725974 
L 271.815835 138.605722 
L 267.857414 137.830693 
L 263.898994 138.976015 
L 259.940574 140.652851 
L 255.982154 141.20252 
L 252.023733 137.487775 
L 248.065313 137.581296 
L 244.106893 137.333312 
L 240.148472 137.519519 
L 236.190052 137.472589 
L 232.231632 137.360701 
L 228.273212 138.38418 
L 224.314791 139.420244 
L 220.356371 140.503026 
L 216.397951 140.771992 
L 212.439531 141.256492 
L 208.48111 139.202986 
L 204.52269 138.873629 
L 200.56427 139.542072 
L 196.605849 140.89351 
L 192.647429 138.700657 
L 188.689009 138.252681 
L 184.730589 139.488115 
L 180.772168 139.916027 
L 176.813748 138.071225 
L 172.855328 140.350486 
L 168.896908 140.590523 
L 164.938487 138.013195 
L 160.980067 139.177959 
L 157.021647 138.90649 
L 153.063227 136.309211 
L 149.104806 136.181444 
L 145.146386 136.423192 
L 141.187966 136.310172 
L 137.229545 136.392735 
z
" clip-path="url(#pc165d59878)" style="fill: #ff7f0e"/>
   </g>
   <g id="PolyCollection_3">
    <path d="M 137.229545 38.537832 
L 137.229545 136.392735 
L 141.187966 136.310172 
L 145.146386 136.423192 
L 149.104806 136.181444 
L 153.063227 136.309211 
L 157.021647 138.90649 
L 160.980067 139.177959 
L 164.938487 138.013195 
L 168.896908 140.590523 
L 172.855328 140.350486 
L 176.813748 138.071225 
L 180.772168 139.916027 
L 184.730589 139.488115 
L 188.689009 138.252681 
L 192.647429 138.700657 
L 196.605849 140.89351 
L 200.56427 139.542072 
L 204.52269 138.873629 
L 208.48111 139.202986 
L 212.439531 141.256492 
L 216.397951 140.771992 
L 220.356371 140.503026 
L 224.314791 139.420244 
L 228.273212 138.38418 
L 232.231632 137.360701 
L 236.190052 137.472589 
L 240.148472 137.519519 
L 244.106893 137.333312 
L 248.065313 137.581296 
L 252.023733 137.487775 
L 255.982154 141.20252 
L 259.940574 140.652851 
L 263.898994 138.976015 
L 267.857414 137.830693 
L 271.815835 138.605722 
L 275.774255 139.725974 
L 279.732675 139.5934 
L 283.691095 138.771441 
L 287.649516 139.408805 
L 291.607936 138.534104 
L 295.566356 137.584661 
L 299.524776 137.88704 
L 303.483197 138.369419 
L 307.441617 137.263108 
L 311.400037 137.445441 
L 315.358458 139.453289 
L 319.316878 138.754727 
L 323.275298 138.325797 
L 327.233718 140.888179 
L 331.192139 139.935724 
L 335.150559 137.311523 
L 339.108979 137.363925 
L 343.067399 137.740114 
L 347.02582 137.450404 
L 350.98424 137.295093 
L 354.94266 138.098599 
L 358.90108 138.701972 
L 362.859501 138.039764 
L 366.817921 137.120834 
L 370.776341 138.311757 
L 374.734762 138.736049 
L 378.693182 139.58715 
L 382.651602 139.646792 
L 386.610022 138.758305 
L 390.568443 137.866594 
L 394.526863 137.195025 
L 398.485283 137.028204 
L 402.443703 136.791292 
L 406.402124 136.886439 
L 410.360544 136.764285 
L 414.318964 136.815825 
L 418.277385 136.191695 
L 422.235805 136.76881 
L 426.194225 137.11925 
L 430.152645 136.76717 
L 434.111066 137.074809 
L 438.069486 136.563727 
L 442.027906 136.278202 
L 445.986326 136.509091 
L 449.944747 136.407511 
L 453.903167 137.047109 
L 457.861587 137.161924 
L 461.820007 137.259489 
L 465.778428 137.880833 
L 469.736848 137.035698 
L 473.695268 137.367573 
L 477.653689 137.906171 
L 481.612109 138.516444 
L 485.570529 138.981275 
L 489.528949 141.584846 
L 493.48737 140.937583 
L 497.44579 138.299101 
L 501.40421 139.587871 
L 505.36263 139.920283 
L 509.321051 140.174686 
L 513.279471 140.768288 
L 517.237891 141.240599 
L 521.196311 143.207625 
L 525.154732 142.436951 
L 529.113152 140.959274 
L 533.071572 142.02571 
L 537.029993 141.192594 
L 540.988413 140.554367 
L 544.946833 140.547877 
L 548.905253 140.113871 
L 552.863674 140.495122 
L 556.822094 140.520064 
L 560.780514 140.97709 
L 564.738934 139.136402 
L 568.697355 139.761819 
L 572.655775 140.514493 
L 576.614195 140.33711 
L 580.572615 140.691212 
L 584.531036 140.872922 
L 588.489456 140.371837 
L 592.447876 141.488229 
L 596.406297 143.969858 
L 600.364717 142.324073 
L 604.323137 138.767976 
L 608.281557 138.646643 
L 612.239978 138.613754 
L 616.198398 138.634313 
L 620.156818 138.38978 
L 624.115238 139.772494 
L 628.073659 139.672229 
L 632.032079 139.552805 
L 635.990499 138.839255 
L 639.94892 140.375471 
L 643.90734 141.380837 
L 647.86576 140.020478 
L 651.82418 139.105351 
L 655.782601 141.772226 
L 659.741021 140.255551 
L 663.699441 141.383241 
L 667.657861 140.318261 
L 671.616282 138.889635 
L 675.574702 139.998716 
L 679.533122 139.417586 
L 683.491542 141.439786 
L 687.449963 140.795507 
L 691.408383 138.589957 
L 695.366803 138.021057 
L 699.325224 138.933581 
L 703.283644 140.041715 
L 707.242064 139.209406 
L 711.200484 138.737208 
L 715.158905 140.826727 
L 719.117325 141.87464 
L 723.075745 138.036285 
L 727.034165 139.694372 
L 730.992586 140.345 
L 734.951006 142.39948 
L 738.909426 143.178723 
L 742.867846 141.94401 
L 746.826267 142.582718 
L 750.784687 141.611909 
L 754.743107 139.992707 
L 758.701528 137.981791 
L 762.659948 138.176609 
L 766.618368 137.773385 
L 770.576788 138.082834 
L 774.535209 138.061313 
L 778.493629 138.001558 
L 782.452049 137.884198 
L 786.410469 137.874244 
L 790.36889 138.260076 
L 794.32731 137.553129 
L 798.28573 137.663165 
L 802.244151 137.017359 
L 806.202571 137.364434 
L 810.160991 137.296634 
L 814.119411 138.048163 
L 818.077832 138.889988 
L 822.036252 143.752926 
L 825.994672 143.772651 
L 829.953092 145.913115 
L 833.911513 139.577507 
L 837.869933 138.091629 
L 841.828353 141.02952 
L 845.786773 142.302312 
L 849.745194 139.411364 
L 853.703614 137.418844 
L 857.662034 137.262373 
L 861.620455 137.9587 
L 861.620455 40.734262 
L 861.620455 40.734262 
L 857.662034 40.458437 
L 853.703614 40.023441 
L 849.745194 44.151718 
L 845.786773 47.817596 
L 841.828353 44.016542 
L 837.869933 41.127461 
L 833.911513 44.374278 
L 829.953092 51.85511 
L 825.994672 48.972915 
L 822.036252 49.029078 
L 818.077832 42.332523 
L 814.119411 40.999114 
L 810.160991 40.530013 
L 806.202571 39.787972 
L 802.244151 39.847316 
L 798.28573 40.397665 
L 794.32731 40.266942 
L 790.36889 41.397559 
L 786.410469 40.918814 
L 782.452049 40.504109 
L 778.493629 41.88794 
L 774.535209 41.175564 
L 770.576788 41.264079 
L 766.618368 40.256493 
L 762.659948 41.306965 
L 758.701528 41.214859 
L 754.743107 44.20962 
L 750.784687 46.531668 
L 746.826267 48.197447 
L 742.867846 46.531584 
L 738.909426 47.941998 
L 734.951006 47.668718 
L 730.992586 44.487467 
L 727.034165 43.43141 
L 723.075745 41.17712 
L 719.117325 47.561793 
L 715.158905 44.974893 
L 711.200484 41.479979 
L 707.242064 43.282589 
L 703.283644 44.365257 
L 699.325224 42.371846 
L 695.366803 41.145305 
L 691.408383 42.046475 
L 687.449963 45.679775 
L 683.491542 46.285891 
L 679.533122 42.69839 
L 675.574702 44.049997 
L 671.616282 42.382564 
L 667.657861 44.666166 
L 663.699441 46.165816 
L 659.741021 45.198655 
L 655.782601 45.99734 
L 651.82418 42.218062 
L 647.86576 44.264384 
L 643.90734 46.766049 
L 639.94892 43.542958 
L 635.990499 42.707934 
L 632.032079 43.444418 
L 628.073659 44.128755 
L 624.115238 43.077746 
L 620.156818 42.0496 
L 616.198398 41.840204 
L 612.239978 42.141466 
L 608.281557 41.857808 
L 604.323137 42.409754 
L 600.364717 47.473363 
L 596.406297 50.124529 
L 592.447876 45.315379 
L 588.489456 45.328246 
L 584.531036 45.402226 
L 580.572615 44.951209 
L 576.614195 44.331124 
L 572.655775 45.261139 
L 568.697355 43.164111 
L 564.738934 43.348339 
L 560.780514 45.26169 
L 556.822094 45.121056 
L 552.863674 44.821038 
L 548.905253 43.735189 
L 544.946833 45.645147 
L 540.988413 45.122979 
L 537.029993 45.668859 
L 533.071572 46.950206 
L 529.113152 44.916751 
L 525.154732 48.448711 
L 521.196311 48.086789 
L 517.237891 45.860397 
L 513.279471 45.389797 
L 509.321051 44.312417 
L 505.36263 43.905318 
L 501.40421 43.483529 
L 497.44579 41.486583 
L 493.48737 45.815856 
L 489.528949 45.735528 
L 485.570529 41.932353 
L 481.612109 42.331335 
L 477.653689 41.091447 
L 473.695268 39.671333 
L 469.736848 39.392171 
L 465.778428 41.167222 
L 461.820007 39.913618 
L 457.861587 40.095964 
L 453.903167 39.435509 
L 449.944747 38.988056 
L 445.986326 38.679074 
L 442.027906 38.49619 
L 438.069486 39.278473 
L 434.111066 39.435524 
L 430.152645 39.189294 
L 426.194225 39.814512 
L 422.235805 39.145842 
L 418.277385 38.492415 
L 414.318964 39.382429 
L 410.360544 39.276041 
L 406.402124 39.353287 
L 402.443703 39.280693 
L 398.485283 39.313087 
L 394.526863 40.066511 
L 390.568443 41.086908 
L 386.610022 41.542392 
L 382.651602 44.632414 
L 378.693182 43.013339 
L 374.734762 42.359417 
L 370.776341 41.230271 
L 366.817921 40.007166 
L 362.859501 40.878601 
L 358.90108 42.468887 
L 354.94266 40.83662 
L 350.98424 40.083974 
L 347.02582 40.293313 
L 343.067399 40.67011 
L 339.108979 40.064942 
L 335.150559 40.1908 
L 331.192139 43.785908 
L 327.233718 45.910282 
L 323.275298 41.201454 
L 319.316878 41.957989 
L 315.358458 43.261252 
L 311.400037 40.275893 
L 307.441617 39.821709 
L 303.483197 42.361269 
L 299.524776 40.556963 
L 295.566356 40.325439 
L 291.607936 42.411663 
L 287.649516 42.903643 
L 283.691095 42.365949 
L 279.732675 43.405393 
L 275.774255 43.544231 
L 271.815835 42.157968 
L 267.857414 40.764295 
L 263.898994 42.431699 
L 259.940574 44.820756 
L 255.982154 46.265501 
L 252.023733 40.013614 
L 248.065313 40.296226 
L 244.106893 39.988106 
L 240.148472 40.522222 
L 236.190052 40.323247 
L 232.231632 40.138808 
L 228.273212 41.443951 
L 224.314791 43.589139 
L 220.356371 44.655504 
L 216.397951 45.512799 
L 212.439531 45.448958 
L 208.48111 43.35958 
L 204.52269 42.452711 
L 200.56427 43.150933 
L 196.605849 45.936511 
L 192.647429 41.2109 
L 188.689009 41.558059 
L 184.730589 43.475017 
L 180.772168 43.970757 
L 176.813748 41.23218 
L 172.855328 45.09477 
L 168.896908 44.414039 
L 164.938487 40.803207 
L 160.980067 43.524619 
L 157.021647 41.840317 
L 153.063227 38.399347 
L 149.104806 38.504716 
L 145.146386 38.521514 
L 141.187966 38.713038 
L 137.229545 38.537832 
z
" clip-path="url(#pc165d59878)" style="fill: #2ca02c"/>
   </g>
   <g id="matplotlib.axis_1">
    <g id="xtick_1">
     <g id="line2d_1">
      <path d="M 137.229545 331.64 
L 137.229545 23.76 
" clip-path="url(#pc165d59878)" style="fill: none; stroke-dasharray: 5.12,1.28,0.8,1.28; stroke-dashoffset: 0; stroke: #b0b0b0; stroke-width: 0.8"/>
     </g>
     <g id="line2d_2">
      <defs>
       <path id="m46e9e97c57" d="M 0 0 
L 0 3.5 
" style="stroke: #000000; stroke-width: 0.8"/>
      </defs>
      <g>
       <use xlink:href="#m46e9e97c57" x="137.229545" y="331.64" style="stroke: #000000; stroke-width: 0.8"/>
      </g>
     </g>
     <g id="text_1">
      <!-- 0 -->
      <g transform="translate(130.230795 355.356563)scale(0.22 -0.22)">
       <defs>
        <path id="DejaVuSans-30" d="M 2034 4250 
Q 1547 4250 1301 3770 
Q 1056 3291 1056 2328 
Q 1056 1369 1301 889 
Q 1547 409 2034 409 
Q 2525 409 2770 889 
Q 3016 1369 3016 2328 
Q 3016 3291 2770 3770 
Q 2525 4250 2034 4250 
z
M 2034 4750 
Q 2819 4750 3233 4129 
Q 3647 3509 3647 2328 
Q 3647 1150 3233 529 
Q 2819 -91 2034 -91 
Q 1250 -91 836 529 
Q 422 1150 422 2328 
Q 422 3509 836 4129 
Q 1250 4750 2034 4750 
z
" transform="scale(0.015625)"/>
       </defs>
       <use xlink:href="#DejaVuSans-30"/>
      </g>
     </g>
    </g>
    <g id="xtick_2">
     <g id="line2d_3">
      <path d="M 236.190052 331.64 
L 236.190052 23.76 
" clip-path="url(#pc165d59878)" style="fill: none; stroke-dasharray: 5.12,1.28,0.8,1.28; stroke-dashoffset: 0; stroke: #b0b0b0; stroke-width: 0.8"/>
     </g>
     <g id="line2d_4">
      <g>
       <use xlink:href="#m46e9e97c57" x="236.190052" y="331.64" style="stroke: #000000; stroke-width: 0.8"/>
      </g>
     </g>
     <g id="text_2">
      <!-- 25 -->
      <g transform="translate(222.192552 355.356563)scale(0.22 -0.22)">
       <defs>
        <path id="DejaVuSans-32" d="M 1228 531 
L 3431 531 
L 3431 0 
L 469 0 
L 469 531 
Q 828 903 1448 1529 
Q 2069 2156 2228 2338 
Q 2531 2678 2651 2914 
Q 2772 3150 2772 3378 
Q 2772 3750 2511 3984 
Q 2250 4219 1831 4219 
Q 1534 4219 1204 4116 
Q 875 4013 500 3803 
L 500 4441 
Q 881 4594 1212 4672 
Q 1544 4750 1819 4750 
Q 2544 4750 2975 4387 
Q 3406 4025 3406 3419 
Q 3406 3131 3298 2873 
Q 3191 2616 2906 2266 
Q 2828 2175 2409 1742 
Q 1991 1309 1228 531 
z
" transform="scale(0.015625)"/>
        <path id="DejaVuSans-35" d="M 691 4666 
L 3169 4666 
L 3169 4134 
L 1269 4134 
L 1269 2991 
Q 1406 3038 1543 3061 
Q 1681 3084 1819 3084 
Q 2600 3084 3056 2656 
Q 3513 2228 3513 1497 
Q 3513 744 3044 326 
Q 2575 -91 1722 -91 
Q 1428 -91 1123 -41 
Q 819 9 494 109 
L 494 744 
Q 775 591 1075 516 
Q 1375 441 1709 441 
Q 2250 441 2565 725 
Q 2881 1009 2881 1497 
Q 2881 1984 2565 2268 
Q 2250 2553 1709 2553 
Q 1456 2553 1204 2497 
Q 953 2441 691 2322 
L 691 4666 
z
" transform="scale(0.015625)"/>
       </defs>
       <use xlink:href="#DejaVuSans-32"/>
       <use xlink:href="#DejaVuSans-35" x="63.623047"/>
      </g>
     </g>
    </g>
    <g id="xtick_3">
     <g id="line2d_5">
      <path d="M 335.150559 331.64 
L 335.150559 23.76 
" clip-path="url(#pc165d59878)" style="fill: none; stroke-dasharray: 5.12,1.28,0.8,1.28; stroke-dashoffset: 0; stroke: #b0b0b0; stroke-width: 0.8"/>
     </g>
     <g id="line2d_6">
      <g>
       <use xlink:href="#m46e9e97c57" x="335.150559" y="331.64" style="stroke: #000000; stroke-width: 0.8"/>
      </g>
     </g>
     <g id="text_3">
      <!-- 50 -->
      <g transform="translate(321.153059 355.356563)scale(0.22 -0.22)">
       <use xlink:href="#DejaVuSans-35"/>
       <use xlink:href="#DejaVuSans-30" x="63.623047"/>
      </g>
     </g>
    </g>
    <g id="xtick_4">
     <g id="line2d_7">
      <path d="M 434.111066 331.64 
L 434.111066 23.76 
" clip-path="url(#pc165d59878)" style="fill: none; stroke-dasharray: 5.12,1.28,0.8,1.28; stroke-dashoffset: 0; stroke: #b0b0b0; stroke-width: 0.8"/>
     </g>
     <g id="line2d_8">
      <g>
       <use xlink:href="#m46e9e97c57" x="434.111066" y="331.64" style="stroke: #000000; stroke-width: 0.8"/>
      </g>
     </g>
     <g id="text_4">
      <!-- 75 -->
      <g transform="translate(420.113566 355.356563)scale(0.22 -0.22)">
       <defs>
        <path id="DejaVuSans-37" d="M 525 4666 
L 3525 4666 
L 3525 4397 
L 1831 0 
L 1172 0 
L 2766 4134 
L 525 4134 
L 525 4666 
z
" transform="scale(0.015625)"/>
       </defs>
       <use xlink:href="#DejaVuSans-37"/>
       <use xlink:href="#DejaVuSans-35" x="63.623047"/>
      </g>
     </g>
    </g>
    <g id="xtick_5">
     <g id="line2d_9">
      <path d="M 533.071572 331.64 
L 533.071572 23.76 
" clip-path="url(#pc165d59878)" style="fill: none; stroke-dasharray: 5.12,1.28,0.8,1.28; stroke-dashoffset: 0; stroke: #b0b0b0; stroke-width: 0.8"/>
     </g>
     <g id="line2d_10">
      <g>
       <use xlink:href="#m46e9e97c57" x="533.071572" y="331.64" style="stroke: #000000; stroke-width: 0.8"/>
      </g>
     </g>
     <g id="text_5">
      <!-- 100 -->
      <g transform="translate(512.075322 355.356563)scale(0.22 -0.22)">
       <defs>
        <path id="DejaVuSans-31" d="M 794 531 
L 1825 531 
L 1825 4091 
L 703 3866 
L 703 4441 
L 1819 4666 
L 2450 4666 
L 2450 531 
L 3481 531 
L 3481 0 
L 794 0 
L 794 531 
z
" transform="scale(0.015625)"/>
       </defs>
       <use xlink:href="#DejaVuSans-31"/>
       <use xlink:href="#DejaVuSans-30" x="63.623047"/>
       <use xlink:href="#DejaVuSans-30" x="127.246094"/>
      </g>
     </g>
    </g>
    <g id="xtick_6">
     <g id="line2d_11">
      <path d="M 632.032079 331.64 
L 632.032079 23.76 
" clip-path="url(#pc165d59878)" style="fill: none; stroke-dasharray: 5.12,1.28,0.8,1.28; stroke-dashoffset: 0; stroke: #b0b0b0; stroke-width: 0.8"/>
     </g>
     <g id="line2d_12">
      <g>
       <use xlink:href="#m46e9e97c57" x="632.032079" y="331.64" style="stroke: #000000; stroke-width: 0.8"/>
      </g>
     </g>
     <g id="text_6">
      <!-- 125 -->
      <g transform="translate(611.035829 355.356563)scale(0.22 -0.22)">
       <use xlink:href="#DejaVuSans-31"/>
       <use xlink:href="#DejaVuSans-32" x="63.623047"/>
       <use xlink:href="#DejaVuSans-35" x="127.246094"/>
      </g>
     </g>
    </g>
    <g id="xtick_7">
     <g id="line2d_13">
      <path d="M 730.992586 331.64 
L 730.992586 23.76 
" clip-path="url(#pc165d59878)" style="fill: none; stroke-dasharray: 5.12,1.28,0.8,1.28; stroke-dashoffset: 0; stroke: #b0b0b0; stroke-width: 0.8"/>
     </g>
     <g id="line2d_14">
      <g>
       <use xlink:href="#m46e9e97c57" x="730.992586" y="331.64" style="stroke: #000000; stroke-width: 0.8"/>
      </g>
     </g>
     <g id="text_7">
      <!-- 150 -->
      <g transform="translate(709.996336 355.356563)scale(0.22 -0.22)">
       <use xlink:href="#DejaVuSans-31"/>
       <use xlink:href="#DejaVuSans-35" x="63.623047"/>
       <use xlink:href="#DejaVuSans-30" x="127.246094"/>
      </g>
     </g>
    </g>
    <g id="xtick_8">
     <g id="line2d_15">
      <path d="M 829.953092 331.64 
L 829.953092 23.76 
" clip-path="url(#pc165d59878)" style="fill: none; stroke-dasharray: 5.12,1.28,0.8,1.28; stroke-dashoffset: 0; stroke: #b0b0b0; stroke-width: 0.8"/>
     </g>
     <g id="line2d_16">
      <g>
       <use xlink:href="#m46e9e97c57" x="829.953092" y="331.64" style="stroke: #000000; stroke-width: 0.8"/>
      </g>
     </g>
     <g id="text_8">
      <!-- 175 -->
      <g transform="translate(808.956842 355.356563)scale(0.22 -0.22)">
       <use xlink:href="#DejaVuSans-31"/>
       <use xlink:href="#DejaVuSans-37" x="63.623047"/>
       <use xlink:href="#DejaVuSans-35" x="127.246094"/>
      </g>
     </g>
    </g>
    <g id="text_9">
     <!-- Time (s) -->
     <g transform="translate(450.635625 382.168125)scale(0.24 -0.24)">
      <defs>
       <path id="DejaVuSans-54" d="M -19 4666 
L 3928 4666 
L 3928 4134 
L 2272 4134 
L 2272 0 
L 1638 0 
L 1638 4134 
L -19 4134 
L -19 4666 
z
" transform="scale(0.015625)"/>
       <path id="DejaVuSans-69" d="M 603 3500 
L 1178 3500 
L 1178 0 
L 603 0 
L 603 3500 
z
M 603 4863 
L 1178 4863 
L 1178 4134 
L 603 4134 
L 603 4863 
z
" transform="scale(0.015625)"/>
       <path id="DejaVuSans-6d" d="M 3328 2828 
Q 3544 3216 3844 3400 
Q 4144 3584 4550 3584 
Q 5097 3584 5394 3201 
Q 5691 2819 5691 2113 
L 5691 0 
L 5113 0 
L 5113 2094 
Q 5113 2597 4934 2840 
Q 4756 3084 4391 3084 
Q 3944 3084 3684 2787 
Q 3425 2491 3425 1978 
L 3425 0 
L 2847 0 
L 2847 2094 
Q 2847 2600 2669 2842 
Q 2491 3084 2119 3084 
Q 1678 3084 1418 2786 
Q 1159 2488 1159 1978 
L 1159 0 
L 581 0 
L 581 3500 
L 1159 3500 
L 1159 2956 
Q 1356 3278 1631 3431 
Q 1906 3584 2284 3584 
Q 2666 3584 2933 3390 
Q 3200 3197 3328 2828 
z
" transform="scale(0.015625)"/>
       <path id="DejaVuSans-65" d="M 3597 1894 
L 3597 1613 
L 953 1613 
Q 991 1019 1311 708 
Q 1631 397 2203 397 
Q 2534 397 2845 478 
Q 3156 559 3463 722 
L 3463 178 
Q 3153 47 2828 -22 
Q 2503 -91 2169 -91 
Q 1331 -91 842 396 
Q 353 884 353 1716 
Q 353 2575 817 3079 
Q 1281 3584 2069 3584 
Q 2775 3584 3186 3129 
Q 3597 2675 3597 1894 
z
M 3022 2063 
Q 3016 2534 2758 2815 
Q 2500 3097 2075 3097 
Q 1594 3097 1305 2825 
Q 1016 2553 972 2059 
L 3022 2063 
z
" transform="scale(0.015625)"/>
       <path id="DejaVuSans-20" transform="scale(0.015625)"/>
       <path id="DejaVuSans-28" d="M 1984 4856 
Q 1566 4138 1362 3434 
Q 1159 2731 1159 2009 
Q 1159 1288 1364 580 
Q 1569 -128 1984 -844 
L 1484 -844 
Q 1016 -109 783 600 
Q 550 1309 550 2009 
Q 550 2706 781 3412 
Q 1013 4119 1484 4856 
L 1984 4856 
z
" transform="scale(0.015625)"/>
       <path id="DejaVuSans-73" d="M 2834 3397 
L 2834 2853 
Q 2591 2978 2328 3040 
Q 2066 3103 1784 3103 
Q 1356 3103 1142 2972 
Q 928 2841 928 2578 
Q 928 2378 1081 2264 
Q 1234 2150 1697 2047 
L 1894 2003 
Q 2506 1872 2764 1633 
Q 3022 1394 3022 966 
Q 3022 478 2636 193 
Q 2250 -91 1575 -91 
Q 1294 -91 989 -36 
Q 684 19 347 128 
L 347 722 
Q 666 556 975 473 
Q 1284 391 1588 391 
Q 1994 391 2212 530 
Q 2431 669 2431 922 
Q 2431 1156 2273 1281 
Q 2116 1406 1581 1522 
L 1381 1569 
Q 847 1681 609 1914 
Q 372 2147 372 2553 
Q 372 3047 722 3315 
Q 1072 3584 1716 3584 
Q 2034 3584 2315 3537 
Q 2597 3491 2834 3397 
z
" transform="scale(0.015625)"/>
       <path id="DejaVuSans-29" d="M 513 4856 
L 1013 4856 
Q 1481 4119 1714 3412 
Q 1947 2706 1947 2009 
Q 1947 1309 1714 600 
Q 1481 -109 1013 -844 
L 513 -844 
Q 928 -128 1133 580 
Q 1338 1288 1338 2009 
Q 1338 2731 1133 3434 
Q 928 4138 513 4856 
z
" transform="scale(0.015625)"/>
      </defs>
      <use xlink:href="#DejaVuSans-54"/>
      <use xlink:href="#DejaVuSans-69" x="57.958984"/>
      <use xlink:href="#DejaVuSans-6d" x="85.742188"/>
      <use xlink:href="#DejaVuSans-65" x="183.154297"/>
      <use xlink:href="#DejaVuSans-20" x="244.677734"/>
      <use xlink:href="#DejaVuSans-28" x="276.464844"/>
      <use xlink:href="#DejaVuSans-73" x="315.478516"/>
      <use xlink:href="#DejaVuSans-29" x="367.578125"/>
     </g>
    </g>
   </g>
   <g id="matplotlib.axis_2">
    <g id="ytick_1">
     <g id="line2d_17">
      <path d="M 101.01 331.64 
L 897.84 331.64 
" clip-path="url(#pc165d59878)" style="fill: none; stroke-dasharray: 5.12,1.28,0.8,1.28; stroke-dashoffset: 0; stroke: #b0b0b0; stroke-width: 0.8"/>
     </g>
     <g id="line2d_18">
      <defs>
       <path id="m0cd75a7e94" d="M 0 0 
L -3.5 0 
" style="stroke: #000000; stroke-width: 0.8"/>
      </defs>
      <g>
       <use xlink:href="#m0cd75a7e94" x="101.01" y="331.64" style="stroke: #000000; stroke-width: 0.8"/>
      </g>
     </g>
     <g id="text_10">
      <!-- 0 -->
      <g transform="translate(80.0125 339.998281)scale(0.22 -0.22)">
       <use xlink:href="#DejaVuSans-30"/>
      </g>
     </g>
    </g>
    <g id="ytick_2">
     <g id="line2d_19">
      <path d="M 101.01 243.26641 
L 897.84 243.26641 
" clip-path="url(#pc165d59878)" style="fill: none; stroke-dasharray: 5.12,1.28,0.8,1.28; stroke-dashoffset: 0; stroke: #b0b0b0; stroke-width: 0.8"/>
     </g>
     <g id="line2d_20">
      <g>
       <use xlink:href="#m0cd75a7e94" x="101.01" y="243.26641" style="stroke: #000000; stroke-width: 0.8"/>
      </g>
     </g>
     <g id="text_11">
      <!-- 50 -->
      <g transform="translate(66.015 251.624691)scale(0.22 -0.22)">
       <use xlink:href="#DejaVuSans-35"/>
       <use xlink:href="#DejaVuSans-30" x="63.623047"/>
      </g>
     </g>
    </g>
    <g id="ytick_3">
     <g id="line2d_21">
      <path d="M 101.01 154.89282 
L 897.84 154.89282 
" clip-path="url(#pc165d59878)" style="fill: none; stroke-dasharray: 5.12,1.28,0.8,1.28; stroke-dashoffset: 0; stroke: #b0b0b0; stroke-width: 0.8"/>
     </g>
     <g id="line2d_22">
      <g>
       <use xlink:href="#m0cd75a7e94" x="101.01" y="154.89282" style="stroke: #000000; stroke-width: 0.8"/>
      </g>
     </g>
     <g id="text_12">
      <!-- 100 -->
      <g transform="translate(52.0175 163.251101)scale(0.22 -0.22)">
       <use xlink:href="#DejaVuSans-31"/>
       <use xlink:href="#DejaVuSans-30" x="63.623047"/>
       <use xlink:href="#DejaVuSans-30" x="127.246094"/>
      </g>
     </g>
    </g>
    <g id="ytick_4">
     <g id="line2d_23">
      <path d="M 101.01 66.519229 
L 897.84 66.519229 
" clip-path="url(#pc165d59878)" style="fill: none; stroke-dasharray: 5.12,1.28,0.8,1.28; stroke-dashoffset: 0; stroke: #b0b0b0; stroke-width: 0.8"/>
     </g>
     <g id="line2d_24">
      <g>
       <use xlink:href="#m0cd75a7e94" x="101.01" y="66.519229" style="stroke: #000000; stroke-width: 0.8"/>
      </g>
     </g>
     <g id="text_13">
      <!-- 150 -->
      <g transform="translate(52.0175 74.877511)scale(0.22 -0.22)">
       <use xlink:href="#DejaVuSans-31"/>
       <use xlink:href="#DejaVuSans-35" x="63.623047"/>
       <use xlink:href="#DejaVuSans-30" x="127.246094"/>
      </g>
     </g>
    </g>
    <g id="text_14">
     <!-- Throughput (Mbps) -->
     <g transform="translate(43.02625 292.414375)rotate(-90)scale(0.24 -0.24)">
      <defs>
       <path id="DejaVuSans-68" d="M 3513 2113 
L 3513 0 
L 2938 0 
L 2938 2094 
Q 2938 2591 2744 2837 
Q 2550 3084 2163 3084 
Q 1697 3084 1428 2787 
Q 1159 2491 1159 1978 
L 1159 0 
L 581 0 
L 581 4863 
L 1159 4863 
L 1159 2956 
Q 1366 3272 1645 3428 
Q 1925 3584 2291 3584 
Q 2894 3584 3203 3211 
Q 3513 2838 3513 2113 
z
" transform="scale(0.015625)"/>
       <path id="DejaVuSans-72" d="M 2631 2963 
Q 2534 3019 2420 3045 
Q 2306 3072 2169 3072 
Q 1681 3072 1420 2755 
Q 1159 2438 1159 1844 
L 1159 0 
L 581 0 
L 581 3500 
L 1159 3500 
L 1159 2956 
Q 1341 3275 1631 3429 
Q 1922 3584 2338 3584 
Q 2397 3584 2469 3576 
Q 2541 3569 2628 3553 
L 2631 2963 
z
" transform="scale(0.015625)"/>
       <path id="DejaVuSans-6f" d="M 1959 3097 
Q 1497 3097 1228 2736 
Q 959 2375 959 1747 
Q 959 1119 1226 758 
Q 1494 397 1959 397 
Q 2419 397 2687 759 
Q 2956 1122 2956 1747 
Q 2956 2369 2687 2733 
Q 2419 3097 1959 3097 
z
M 1959 3584 
Q 2709 3584 3137 3096 
Q 3566 2609 3566 1747 
Q 3566 888 3137 398 
Q 2709 -91 1959 -91 
Q 1206 -91 779 398 
Q 353 888 353 1747 
Q 353 2609 779 3096 
Q 1206 3584 1959 3584 
z
" transform="scale(0.015625)"/>
       <path id="DejaVuSans-75" d="M 544 1381 
L 544 3500 
L 1119 3500 
L 1119 1403 
Q 1119 906 1312 657 
Q 1506 409 1894 409 
Q 2359 409 2629 706 
Q 2900 1003 2900 1516 
L 2900 3500 
L 3475 3500 
L 3475 0 
L 2900 0 
L 2900 538 
Q 2691 219 2414 64 
Q 2138 -91 1772 -91 
Q 1169 -91 856 284 
Q 544 659 544 1381 
z
M 1991 3584 
L 1991 3584 
z
" transform="scale(0.015625)"/>
       <path id="DejaVuSans-67" d="M 2906 1791 
Q 2906 2416 2648 2759 
Q 2391 3103 1925 3103 
Q 1463 3103 1205 2759 
Q 947 2416 947 1791 
Q 947 1169 1205 825 
Q 1463 481 1925 481 
Q 2391 481 2648 825 
Q 2906 1169 2906 1791 
z
M 3481 434 
Q 3481 -459 3084 -895 
Q 2688 -1331 1869 -1331 
Q 1566 -1331 1297 -1286 
Q 1028 -1241 775 -1147 
L 775 -588 
Q 1028 -725 1275 -790 
Q 1522 -856 1778 -856 
Q 2344 -856 2625 -561 
Q 2906 -266 2906 331 
L 2906 616 
Q 2728 306 2450 153 
Q 2172 0 1784 0 
Q 1141 0 747 490 
Q 353 981 353 1791 
Q 353 2603 747 3093 
Q 1141 3584 1784 3584 
Q 2172 3584 2450 3431 
Q 2728 3278 2906 2969 
L 2906 3500 
L 3481 3500 
L 3481 434 
z
" transform="scale(0.015625)"/>
       <path id="DejaVuSans-70" d="M 1159 525 
L 1159 -1331 
L 581 -1331 
L 581 3500 
L 1159 3500 
L 1159 2969 
Q 1341 3281 1617 3432 
Q 1894 3584 2278 3584 
Q 2916 3584 3314 3078 
Q 3713 2572 3713 1747 
Q 3713 922 3314 415 
Q 2916 -91 2278 -91 
Q 1894 -91 1617 61 
Q 1341 213 1159 525 
z
M 3116 1747 
Q 3116 2381 2855 2742 
Q 2594 3103 2138 3103 
Q 1681 3103 1420 2742 
Q 1159 2381 1159 1747 
Q 1159 1113 1420 752 
Q 1681 391 2138 391 
Q 2594 391 2855 752 
Q 3116 1113 3116 1747 
z
" transform="scale(0.015625)"/>
       <path id="DejaVuSans-74" d="M 1172 4494 
L 1172 3500 
L 2356 3500 
L 2356 3053 
L 1172 3053 
L 1172 1153 
Q 1172 725 1289 603 
Q 1406 481 1766 481 
L 2356 481 
L 2356 0 
L 1766 0 
Q 1100 0 847 248 
Q 594 497 594 1153 
L 594 3053 
L 172 3053 
L 172 3500 
L 594 3500 
L 594 4494 
L 1172 4494 
z
" transform="scale(0.015625)"/>
       <path id="DejaVuSans-4d" d="M 628 4666 
L 1569 4666 
L 2759 1491 
L 3956 4666 
L 4897 4666 
L 4897 0 
L 4281 0 
L 4281 4097 
L 3078 897 
L 2444 897 
L 1241 4097 
L 1241 0 
L 628 0 
L 628 4666 
z
" transform="scale(0.015625)"/>
       <path id="DejaVuSans-62" d="M 3116 1747 
Q 3116 2381 2855 2742 
Q 2594 3103 2138 3103 
Q 1681 3103 1420 2742 
Q 1159 2381 1159 1747 
Q 1159 1113 1420 752 
Q 1681 391 2138 391 
Q 2594 391 2855 752 
Q 3116 1113 3116 1747 
z
M 1159 2969 
Q 1341 3281 1617 3432 
Q 1894 3584 2278 3584 
Q 2916 3584 3314 3078 
Q 3713 2572 3713 1747 
Q 3713 922 3314 415 
Q 2916 -91 2278 -91 
Q 1894 -91 1617 61 
Q 1341 213 1159 525 
L 1159 0 
L 581 0 
L 581 4863 
L 1159 4863 
L 1159 2969 
z
" transform="scale(0.015625)"/>
      </defs>
      <use xlink:href="#DejaVuSans-54"/>
      <use xlink:href="#DejaVuSans-68" x="61.083984"/>
      <use xlink:href="#DejaVuSans-72" x="124.462891"/>
      <use xlink:href="#DejaVuSans-6f" x="163.326172"/>
      <use xlink:href="#DejaVuSans-75" x="224.507812"/>
      <use xlink:href="#DejaVuSans-67" x="287.886719"/>
      <use xlink:href="#DejaVuSans-68" x="351.363281"/>
      <use xlink:href="#DejaVuSans-70" x="414.742188"/>
      <use xlink:href="#DejaVuSans-75" x="478.21875"/>
      <use xlink:href="#DejaVuSans-74" x="541.597656"/>
      <use xlink:href="#DejaVuSans-20" x="580.806641"/>
      <use xlink:href="#DejaVuSans-28" x="612.59375"/>
      <use xlink:href="#DejaVuSans-4d" x="651.607422"/>
      <use xlink:href="#DejaVuSans-62" x="737.886719"/>
      <use xlink:href="#DejaVuSans-70" x="801.363281"/>
      <use xlink:href="#DejaVuSans-73" x="864.839844"/>
      <use xlink:href="#DejaVuSans-29" x="916.939453"/>
     </g>
    </g>
   </g>
   <g id="patch_3">
    <path d="M 101.01 331.64 
L 101.01 23.76 
" style="fill: none; stroke: #000000; stroke-width: 0.8; stroke-linejoin: miter; stroke-linecap: square"/>
   </g>
   <g id="patch_4">
    <path d="M 897.84 331.64 
L 897.84 23.76 
" style="fill: none; stroke: #000000; stroke-width: 0.8; stroke-linejoin: miter; stroke-linecap: square"/>
   </g>
   <g id="patch_5">
    <path d="M 101.01 331.64 
L 897.84 331.64 
" style="fill: none; stroke: #000000; stroke-width: 0.8; stroke-linejoin: miter; stroke-linecap: square"/>
   </g>
   <g id="patch_6">
    <path d="M 101.01 23.76 
L 897.84 23.76 
" style="fill: none; stroke: #000000; stroke-width: 0.8; stroke-linejoin: miter; stroke-linecap: square"/>
   </g>
   <g id="legend_1">
    <g id="patch_7">
     <path d="M 756.24 148.6425 
L 881.04 148.6425 
Q 885.84 148.6425 885.84 143.8425 
L 885.84 40.56 
Q 885.84 35.76 881.04 35.76 
L 756.24 35.76 
Q 751.44 35.76 751.44 40.56 
L 751.44 143.8425 
Q 751.44 148.6425 756.24 148.6425 
z
" style="fill: #ffffff; opacity: 0.8; stroke: #cccccc; stroke-linejoin: miter"/>
    </g>
    <g id="patch_8">
     <path d="M 761.04 63.59625 
L 809.04 63.59625 
L 809.04 46.79625 
L 761.04 46.79625 
z
" style="fill: #1f77b4"/>
    </g>
    <g id="text_15">
     <!-- UE1 -->
     <g transform="translate(828.24 63.59625)scale(0.24 -0.24)">
      <defs>
       <path id="DejaVuSans-55" d="M 556 4666 
L 1191 4666 
L 1191 1831 
Q 1191 1081 1462 751 
Q 1734 422 2344 422 
Q 2950 422 3222 751 
Q 3494 1081 3494 1831 
L 3494 4666 
L 4128 4666 
L 4128 1753 
Q 4128 841 3676 375 
Q 3225 -91 2344 -91 
Q 1459 -91 1007 375 
Q 556 841 556 1753 
L 556 4666 
z
" transform="scale(0.015625)"/>
       <path id="DejaVuSans-45" d="M 628 4666 
L 3578 4666 
L 3578 4134 
L 1259 4134 
L 1259 2753 
L 3481 2753 
L 3481 2222 
L 1259 2222 
L 1259 531 
L 3634 531 
L 3634 0 
L 628 0 
L 628 4666 
z
" transform="scale(0.015625)"/>
      </defs>
      <use xlink:href="#DejaVuSans-55"/>
      <use xlink:href="#DejaVuSans-45" x="73.193359"/>
      <use xlink:href="#DejaVuSans-31" x="136.376953"/>
     </g>
    </g>
    <g id="patch_9">
     <path d="M 761.04 98.82375 
L 809.04 98.82375 
L 809.04 82.02375 
L 761.04 82.02375 
z
" style="fill: #ff7f0e"/>
    </g>
    <g id="text_16">
     <!-- UE2 -->
     <g transform="translate(828.24 98.82375)scale(0.24 -0.24)">
      <use xlink:href="#DejaVuSans-55"/>
      <use xlink:href="#DejaVuSans-45" x="73.193359"/>
      <use xlink:href="#DejaVuSans-32" x="136.376953"/>
     </g>
    </g>
    <g id="patch_10">
     <path d="M 761.04 134.05125 
L 809.04 134.05125 
L 809.04 117.25125 
L 761.04 117.25125 
z
" style="fill: #2ca02c"/>
    </g>
    <g id="text_17">
     <!-- UE3 -->
     <g transform="translate(828.24 134.05125)scale(0.24 -0.24)">
      <defs>
       <path id="DejaVuSans-33" d="M 2597 2516 
Q 3050 2419 3304 2112 
Q 3559 1806 3559 1356 
Q 3559 666 3084 287 
Q 2609 -91 1734 -91 
Q 1441 -91 1130 -33 
Q 819 25 488 141 
L 488 750 
Q 750 597 1062 519 
Q 1375 441 1716 441 
Q 2309 441 2620 675 
Q 2931 909 2931 1356 
Q 2931 1769 2642 2001 
Q 2353 2234 1838 2234 
L 1294 2234 
L 1294 2753 
L 1863 2753 
Q 2328 2753 2575 2939 
Q 2822 3125 2822 3475 
Q 2822 3834 2567 4026 
Q 2313 4219 1838 4219 
Q 1578 4219 1281 4162 
Q 984 4106 628 3988 
L 628 4550 
Q 988 4650 1302 4700 
Q 1616 4750 1894 4750 
Q 2613 4750 3031 4423 
Q 3450 4097 3450 3541 
Q 3450 3153 3228 2886 
Q 3006 2619 2597 2516 
z
" transform="scale(0.015625)"/>
      </defs>
      <use xlink:href="#DejaVuSans-55"/>
      <use xlink:href="#DejaVuSans-45" x="73.193359"/>
      <use xlink:href="#DejaVuSans-33" x="136.376953"/>
     </g>
    </g>
   </g>
  </g>
 </g>
 <defs>
  <clipPath id="pc165d59878">
   <rect x="101.01" y="23.76" width="796.83" height="307.88"/>
  </clipPath>
 </defs>
</svg>
