<?xml version="1.0" encoding="utf-8" standalone="no"?>
<!DOCTYPE svg PUBLIC "-//W3C//DTD SVG 1.1//EN"
  "http://www.w3.org/Graphics/SVG/1.1/DTD/svg11.dtd">
<svg xmlns:xlink="http://www.w3.org/1999/xlink" width="921.6pt" height="410.4pt" viewBox="0 0 921.6 410.4" xmlns="http://www.w3.org/2000/svg" version="1.1">
 <metadata>
  <rdf:RDF xmlns:dc="http://purl.org/dc/elements/1.1/" xmlns:cc="http://creativecommons.org/ns#" xmlns:rdf="http://www.w3.org/1999/02/22-rdf-syntax-ns#">
   <cc:Work>
    <dc:type rdf:resource="http://purl.org/dc/dcmitype/StillImage"/>
    <dc:date>2023-04-11T15:20:42.976434</dc:date>
    <dc:format>image/svg+xml</dc:format>
    <dc:creator>
     <cc:Agent>
      <dc:title>Matplotlib v3.5.3, https://matplotlib.org/</dc:title>
     </cc:Agent>
    </dc:creator>
   </cc:Work>
  </rdf:RDF>
 </metadata>
 <defs>
  <style type="text/css">*{stroke-linejoin: round; stroke-linecap: butt}</style>
 </defs>
 <g id="figure_1">
  <g id="patch_1">
   <path d="M 0 410.4 
L 921.6 410.4 
L 921.6 0 
L 0 0 
L 0 410.4 
z
" style="fill: none"/>
  </g>
  <g id="axes_1">
   <g id="patch_2">
    <path d="M 101.01 331.64 
L 897.84 331.64 
L 897.84 23.76 
L 101.01 23.76 
z
" style="fill: #ffffff"/>
   </g>
   <g id="PolyCollection_1">
    <path d="M 137.229545 186.221998 
L 137.229545 331.64 
L 141.231705 331.64 
L 145.233865 331.64 
L 149.236025 331.64 
L 153.238184 331.64 
L 157.240344 331.64 
L 161.242504 331.64 
L 165.244663 331.64 
L 169.246823 331.64 
L 173.248983 331.64 
L 177.251143 331.64 
L 181.253302 331.64 
L 185.255462 331.64 
L 189.257622 331.64 
L 193.259782 331.64 
L 197.261941 331.64 
L 201.264101 331.64 
L 205.266261 331.64 
L 209.26842 331.64 
L 213.27058 331.64 
L 217.27274 331.64 
L 221.2749 331.64 
L 225.277059 331.64 
L 229.279219 331.64 
L 233.281379 331.64 
L 237.283538 331.64 
L 241.285698 331.64 
L 245.287858 331.64 
L 249.290018 331.64 
L 253.292177 331.64 
L 257.294337 331.64 
L 261.296497 331.64 
L 265.298656 331.64 
L 269.300816 331.64 
L 273.302976 331.64 
L 277.305136 331.64 
L 281.307295 331.64 
L 285.309455 331.64 
L 289.311615 331.64 
L 293.313774 331.64 
L 297.315934 331.64 
L 301.318094 331.64 
L 305.320254 331.64 
L 309.322413 331.64 
L 313.324573 331.64 
L 317.326733 331.64 
L 321.328893 331.64 
L 325.331052 331.64 
L 329.333212 331.64 
L 333.335372 331.64 
L 337.337531 331.64 
L 341.339691 331.64 
L 345.341851 331.64 
L 349.344011 331.64 
L 353.34617 331.64 
L 357.34833 331.64 
L 361.35049 331.64 
L 365.352649 331.64 
L 369.354809 331.64 
L 373.356969 331.64 
L 377.359129 331.64 
L 381.361288 331.64 
L 385.363448 331.64 
L 389.365608 331.64 
L 393.367767 331.64 
L 397.369927 331.64 
L 401.372087 331.64 
L 405.374247 331.64 
L 409.376406 331.64 
L 413.378566 331.64 
L 417.380726 331.64 
L 421.382885 331.64 
L 425.385045 331.64 
L 429.387205 331.64 
L 433.389365 331.64 
L 437.391524 331.64 
L 441.393684 331.64 
L 445.395844 331.64 
L 449.398004 331.64 
L 453.400163 331.64 
L 457.402323 331.64 
L 461.404483 331.64 
L 465.406642 331.64 
L 469.408802 331.64 
L 473.410962 331.64 
L 477.413122 331.64 
L 481.415281 331.64 
L 485.417441 331.64 
L 489.419601 331.64 
L 493.42176 331.64 
L 497.42392 331.64 
L 501.42608 331.64 
L 505.42824 331.64 
L 509.430399 331.64 
L 513.432559 331.64 
L 517.434719 331.64 
L 521.436878 331.64 
L 525.439038 331.64 
L 529.441198 331.64 
L 533.443358 331.64 
L 537.445517 331.64 
L 541.447677 331.64 
L 545.449837 331.64 
L 549.451996 331.64 
L 553.454156 331.64 
L 557.456316 331.64 
L 561.458476 331.64 
L 565.460635 331.64 
L 569.462795 331.64 
L 573.464955 331.64 
L 577.467115 331.64 
L 581.469274 331.64 
L 585.471434 331.64 
L 589.473594 331.64 
L 593.475753 331.64 
L 597.477913 331.64 
L 601.480073 331.64 
L 605.482233 331.64 
L 609.484392 331.64 
L 613.486552 331.64 
L 617.488712 331.64 
L 621.490871 331.64 
L 625.493031 331.64 
L 629.495191 331.64 
L 633.497351 331.64 
L 637.49951 331.64 
L 641.50167 331.64 
L 645.50383 331.64 
L 649.505989 331.64 
L 653.508149 331.64 
L 657.510309 331.64 
L 661.512469 331.64 
L 665.514628 331.64 
L 669.516788 331.64 
L 673.518948 331.64 
L 677.521107 331.64 
L 681.523267 331.64 
L 685.525427 331.64 
L 689.527587 331.64 
L 693.529746 331.64 
L 697.531906 331.64 
L 701.534066 331.64 
L 705.536226 331.64 
L 709.538385 331.64 
L 713.540545 331.64 
L 717.542705 331.64 
L 721.544864 331.64 
L 725.547024 331.64 
L 729.549184 331.64 
L 733.551344 331.64 
L 737.553503 331.64 
L 741.555663 331.64 
L 745.557823 331.64 
L 749.559982 331.64 
L 753.562142 331.64 
L 757.564302 331.64 
L 761.566462 331.64 
L 765.568621 331.64 
L 769.570781 331.64 
L 773.572941 331.64 
L 777.5751 331.64 
L 781.57726 331.64 
L 785.57942 331.64 
L 789.58158 331.64 
L 793.583739 331.64 
L 797.585899 331.64 
L 801.588059 331.64 
L 805.590218 331.64 
L 809.592378 331.64 
L 813.594538 331.64 
L 817.596698 331.64 
L 821.598857 331.64 
L 825.601017 331.64 
L 829.603177 331.64 
L 833.605337 331.64 
L 837.607496 331.64 
L 841.609656 331.64 
L 845.611816 331.64 
L 849.613975 331.64 
L 853.616135 331.64 
L 857.618295 331.64 
L 861.620455 331.64 
L 861.620455 187.215632 
L 861.620455 187.215632 
L 857.618295 191.495394 
L 853.616135 192.962067 
L 849.613975 190.492327 
L 845.611816 191.78576 
L 841.609656 195.069021 
L 837.607496 193.33739 
L 833.605337 187.580074 
L 829.603177 192.963709 
L 825.601017 187.810416 
L 821.598857 185.996596 
L 817.596698 190.918921 
L 813.594538 189.967752 
L 809.592378 190.14998 
L 805.590218 189.387397 
L 801.588059 191.050823 
L 797.585899 188.975008 
L 793.583739 192.595761 
L 789.58158 186.667112 
L 785.57942 186.365991 
L 781.57726 185.959864 
L 777.5751 185.842849 
L 773.572941 185.715344 
L 769.570781 185.78405 
L 765.568621 185.441508 
L 761.566462 185.533047 
L 757.564302 185.510326 
L 753.562142 185.370868 
L 749.559982 185.586364 
L 745.557823 185.208078 
L 741.555663 185.857876 
L 737.553503 185.51603 
L 733.551344 185.662486 
L 729.549184 185.401019 
L 725.547024 185.443442 
L 721.544864 186.263656 
L 717.542705 186.728193 
L 713.540545 185.275587 
L 709.538385 185.02873 
L 705.536226 185.056808 
L 701.534066 185.082994 
L 697.531906 185.142057 
L 693.529746 185.342735 
L 689.527587 185.128199 
L 685.525427 185.371244 
L 681.523267 191.337821 
L 677.521107 190.336479 
L 673.518948 189.721201 
L 669.516788 193.396495 
L 665.514628 191.587489 
L 661.512469 190.698486 
L 657.510309 191.273025 
L 653.508149 191.056277 
L 649.505989 190.596874 
L 645.50383 192.543556 
L 641.50167 191.382999 
L 637.49951 190.282257 
L 633.497351 192.661044 
L 629.495191 189.793468 
L 625.493031 190.309932 
L 621.490871 190.378944 
L 617.488712 191.237128 
L 613.486552 190.114486 
L 609.484392 191.554347 
L 605.482233 192.220619 
L 601.480073 188.760166 
L 597.477913 191.085663 
L 593.475753 188.566487 
L 589.473594 188.059931 
L 585.471434 189.670235 
L 581.469274 188.522019 
L 577.467115 187.195583 
L 573.464955 185.292659 
L 569.462795 185.369435 
L 565.460635 185.435191 
L 561.458476 185.837131 
L 557.456316 185.660608 
L 553.454156 186.013682 
L 549.451996 185.347521 
L 545.449837 185.751311 
L 541.447677 185.252351 
L 537.445517 185.688727 
L 533.443358 185.504496 
L 529.441198 185.39537 
L 525.439038 185.36572 
L 521.436878 185.580019 
L 517.434719 185.479047 
L 513.432559 185.70175 
L 509.430399 185.47934 
L 505.42824 185.495173 
L 501.42608 185.994217 
L 497.42392 185.27119 
L 493.42176 185.856749 
L 489.419601 185.316062 
L 485.417441 185.76407 
L 481.415281 185.296527 
L 477.413122 185.658757 
L 473.410962 185.764891 
L 469.408802 185.35765 
L 465.406642 185.245687 
L 461.404483 185.523265 
L 457.402323 185.59499 
L 453.400163 185.401632 
L 449.398004 185.324689 
L 445.395844 185.435539 
L 441.393684 185.671446 
L 437.391524 185.409771 
L 433.389365 185.770554 
L 429.387205 185.386299 
L 425.385045 185.880973 
L 421.382885 185.354339 
L 417.380726 185.574496 
L 413.378566 185.562585 
L 409.376406 185.539976 
L 405.374247 185.328696 
L 401.372087 185.391294 
L 397.369927 185.529763 
L 393.367767 185.594768 
L 389.365608 185.369922 
L 385.363448 185.463255 
L 381.361288 185.860367 
L 377.359129 185.430391 
L 373.356969 185.878176 
L 369.354809 185.576304 
L 365.352649 185.870691 
L 361.35049 185.467666 
L 357.34833 185.650061 
L 353.34617 185.450928 
L 349.344011 185.385074 
L 345.341851 185.30834 
L 341.339691 185.387718 
L 337.337531 185.550467 
L 333.335372 185.741961 
L 329.333212 185.393019 
L 325.331052 185.429862 
L 321.328893 185.480494 
L 317.326733 185.597411 
L 313.324573 185.829019 
L 309.322413 185.549256 
L 305.320254 185.876368 
L 301.318094 185.882114 
L 297.315934 185.868715 
L 293.313774 185.296235 
L 289.311615 185.163512 
L 285.309455 185.168326 
L 281.307295 185.163359 
L 277.305136 185.115399 
L 273.302976 185.094584 
L 269.300816 185.235627 
L 265.298656 185.25736 
L 261.296497 185.161536 
L 257.294337 187.741446 
L 253.292177 186.78087 
L 249.290018 187.333078 
L 245.287858 186.712304 
L 241.285698 186.679606 
L 237.283538 185.949317 
L 233.281379 185.543941 
L 229.279219 186.198498 
L 225.277059 185.644078 
L 221.2749 185.496982 
L 217.27274 185.803891 
L 213.27058 186.090138 
L 209.26842 185.745106 
L 205.266261 185.713299 
L 201.264101 187.174573 
L 197.261941 185.55279 
L 193.259782 187.898949 
L 189.257622 185.346533 
L 185.255462 186.588806 
L 181.253302 185.84822 
L 177.251143 188.043666 
L 173.248983 185.772516 
L 169.246823 185.408825 
L 165.244663 185.403663 
L 161.242504 185.69151 
L 157.240344 185.647751 
L 153.238184 185.237004 
L 149.236025 185.724485 
L 145.233865 185.38808 
L 141.231705 186.183833 
L 137.229545 186.221998 
z
" clip-path="url(#p84361df72e)" style="fill: #1f77b4"/>
   </g>
   <g id="PolyCollection_2">
    <path d="M 137.229545 41.786555 
L 137.229545 186.221998 
L 141.231705 186.183833 
L 145.233865 185.38808 
L 149.236025 185.724485 
L 153.238184 185.237004 
L 157.240344 185.647751 
L 161.242504 185.69151 
L 165.244663 185.403663 
L 169.246823 185.408825 
L 173.248983 185.772516 
L 177.251143 188.043666 
L 181.253302 185.84822 
L 185.255462 186.588806 
L 189.257622 185.346533 
L 193.259782 187.898949 
L 197.261941 185.55279 
L 201.264101 187.174573 
L 205.266261 185.713299 
L 209.26842 185.745106 
L 213.27058 186.090138 
L 217.27274 185.803891 
L 221.2749 185.496982 
L 225.277059 185.644078 
L 229.279219 186.198498 
L 233.281379 185.543941 
L 237.283538 185.949317 
L 241.285698 186.679606 
L 245.287858 186.712304 
L 249.290018 187.333078 
L 253.292177 186.78087 
L 257.294337 187.741446 
L 261.296497 185.161536 
L 265.298656 185.25736 
L 269.300816 185.235627 
L 273.302976 185.094584 
L 277.305136 185.115399 
L 281.307295 185.163359 
L 285.309455 185.168326 
L 289.311615 185.163512 
L 293.313774 185.296235 
L 297.315934 185.868715 
L 301.318094 185.882114 
L 305.320254 185.876368 
L 309.322413 185.549256 
L 313.324573 185.829019 
L 317.326733 185.597411 
L 321.328893 185.480494 
L 325.331052 185.429862 
L 329.333212 185.393019 
L 333.335372 185.741961 
L 337.337531 185.550467 
L 341.339691 185.387718 
L 345.341851 185.30834 
L 349.344011 185.385074 
L 353.34617 185.450928 
L 357.34833 185.650061 
L 361.35049 185.467666 
L 365.352649 185.870691 
L 369.354809 185.576304 
L 373.356969 185.878176 
L 377.359129 185.430391 
L 381.361288 185.860367 
L 385.363448 185.463255 
L 389.365608 185.369922 
L 393.367767 185.594768 
L 397.369927 185.529763 
L 401.372087 185.391294 
L 405.374247 185.328696 
L 409.376406 185.539976 
L 413.378566 185.562585 
L 417.380726 185.574496 
L 421.382885 185.354339 
L 425.385045 185.880973 
L 429.387205 185.386299 
L 433.389365 185.770554 
L 437.391524 185.409771 
L 441.393684 185.671446 
L 445.395844 185.435539 
L 449.398004 185.324689 
L 453.400163 185.401632 
L 457.402323 185.59499 
L 461.404483 185.523265 
L 465.406642 185.245687 
L 469.408802 185.35765 
L 473.410962 185.764891 
L 477.413122 185.658757 
L 481.415281 185.296527 
L 485.417441 185.76407 
L 489.419601 185.316062 
L 493.42176 185.856749 
L 497.42392 185.27119 
L 501.42608 185.994217 
L 505.42824 185.495173 
L 509.430399 185.47934 
L 513.432559 185.70175 
L 517.434719 185.479047 
L 521.436878 185.580019 
L 525.439038 185.36572 
L 529.441198 185.39537 
L 533.443358 185.504496 
L 537.445517 185.688727 
L 541.447677 185.252351 
L 545.449837 185.751311 
L 549.451996 185.347521 
L 553.454156 186.013682 
L 557.456316 185.660608 
L 561.458476 185.837131 
L 565.460635 185.435191 
L 569.462795 185.369435 
L 573.464955 185.292659 
L 577.467115 187.195583 
L 581.469274 188.522019 
L 585.471434 189.670235 
L 589.473594 188.059931 
L 593.475753 188.566487 
L 597.477913 191.085663 
L 601.480073 188.760166 
L 605.482233 192.220619 
L 609.484392 191.554347 
L 613.486552 190.114486 
L 617.488712 191.237128 
L 621.490871 190.378944 
L 625.493031 190.309932 
L 629.495191 189.793468 
L 633.497351 192.661044 
L 637.49951 190.282257 
L 641.50167 191.382999 
L 645.50383 192.543556 
L 649.505989 190.596874 
L 653.508149 191.056277 
L 657.510309 191.273025 
L 661.512469 190.698486 
L 665.514628 191.587489 
L 669.516788 193.396495 
L 673.518948 189.721201 
L 677.521107 190.336479 
L 681.523267 191.337821 
L 685.525427 185.371244 
L 689.527587 185.128199 
L 693.529746 185.342735 
L 697.531906 185.142057 
L 701.534066 185.082994 
L 705.536226 185.056808 
L 709.538385 185.02873 
L 713.540545 185.275587 
L 717.542705 186.728193 
L 721.544864 186.263656 
L 725.547024 185.443442 
L 729.549184 185.401019 
L 733.551344 185.662486 
L 737.553503 185.51603 
L 741.555663 185.857876 
L 745.557823 185.208078 
L 749.559982 185.586364 
L 753.562142 185.370868 
L 757.564302 185.510326 
L 761.566462 185.533047 
L 765.568621 185.441508 
L 769.570781 185.78405 
L 773.572941 185.715344 
L 777.5751 185.842849 
L 781.57726 185.959864 
L 785.57942 186.365991 
L 789.58158 186.667112 
L 793.583739 192.595761 
L 797.585899 188.975008 
L 801.588059 191.050823 
L 805.590218 189.387397 
L 809.592378 190.14998 
L 813.594538 189.967752 
L 817.596698 190.918921 
L 821.598857 185.996596 
L 825.601017 187.810416 
L 829.603177 192.963709 
L 833.605337 187.580074 
L 837.607496 193.33739 
L 841.609656 195.069021 
L 845.611816 191.78576 
L 849.613975 190.492327 
L 853.616135 192.962067 
L 857.618295 191.495394 
L 861.620455 187.215632 
L 861.620455 44.774443 
L 861.620455 44.774443 
L 857.618295 50.077711 
L 853.616135 52.443252 
L 849.613975 48.598808 
L 845.611816 50.990131 
L 841.609656 54.669335 
L 837.607496 50.58655 
L 833.605337 46.599407 
L 829.603177 49.854187 
L 825.601017 41.675593 
L 821.598857 44.0841 
L 817.596698 48.951326 
L 813.594538 48.25667 
L 809.592378 48.134146 
L 805.590218 47.735588 
L 801.588059 48.464861 
L 797.585899 48.595678 
L 793.583739 48.010509 
L 789.58158 41.673145 
L 785.57942 40.135679 
L 781.57726 39.976492 
L 777.5751 39.571839 
L 773.572941 39.596801 
L 769.570781 39.579715 
L 765.568621 39.03733 
L 761.566462 39.091287 
L 757.564302 39.342054 
L 753.562142 38.828012 
L 749.559982 39.136924 
L 745.557823 38.733886 
L 741.555663 39.87399 
L 737.553503 39.063112 
L 733.551344 39.535149 
L 729.549184 38.926521 
L 725.547024 39.925443 
L 721.544864 40.009106 
L 717.542705 40.899333 
L 713.540545 38.657875 
L 709.538385 38.211982 
L 705.536226 38.502083 
L 701.534066 38.430817 
L 697.531906 38.309879 
L 693.529746 38.657708 
L 689.527587 38.482994 
L 685.525427 43.148861 
L 681.523267 49.083966 
L 677.521107 46.417388 
L 673.518948 48.396753 
L 669.516788 52.705317 
L 665.514628 50.364724 
L 661.512469 49.925022 
L 657.510309 49.685275 
L 653.508149 50.138612 
L 649.505989 49.160756 
L 645.50383 52.385914 
L 641.50167 49.5657 
L 637.49951 50.818492 
L 633.497351 50.750871 
L 629.495191 48.121429 
L 625.493031 48.26179 
L 621.490871 50.259856 
L 617.488712 48.841283 
L 613.486552 48.82844 
L 609.484392 51.196305 
L 605.482233 49.772138 
L 601.480073 47.743838 
L 597.477913 48.11706 
L 593.475753 44.301474 
L 589.473594 45.653956 
L 585.471434 47.126236 
L 581.469274 44.002412 
L 577.467115 40.942243 
L 573.464955 38.830739 
L 569.462795 38.794897 
L 565.460635 39.232734 
L 561.458476 39.959517 
L 557.456316 39.27115 
L 553.454156 39.857864 
L 549.451996 39.024195 
L 545.449837 39.654543 
L 541.447677 38.73742 
L 537.445517 39.480899 
L 533.443358 39.023124 
L 529.441198 38.917769 
L 525.439038 38.967636 
L 521.436878 39.119143 
L 517.434719 39.478659 
L 513.432559 39.506389 
L 509.430399 39.113215 
L 505.42824 39.430351 
L 501.42608 39.72848 
L 497.42392 38.774458 
L 493.42176 39.634841 
L 489.419601 39.002991 
L 485.417441 39.498765 
L 481.415281 38.76867 
L 477.413122 39.626799 
L 473.410962 39.376713 
L 469.408802 38.848897 
L 465.406642 38.861168 
L 461.404483 39.061749 
L 457.402323 39.05699 
L 453.400163 38.868251 
L 449.398004 39.071029 
L 445.395844 39.041518 
L 441.393684 39.463271 
L 437.391524 38.919411 
L 433.389365 39.406572 
L 429.387205 38.977849 
L 425.385045 39.824568 
L 421.382885 38.992375 
L 417.380726 39.234112 
L 413.378566 39.215161 
L 409.376406 39.004786 
L 405.374247 39.007694 
L 401.372087 38.978002 
L 397.369927 39.152772 
L 393.367767 39.013065 
L 389.365608 39.034199 
L 385.363448 39.237214 
L 381.361288 39.680186 
L 377.359129 39.194889 
L 373.356969 39.765226 
L 369.354809 39.191536 
L 365.352649 39.745274 
L 361.35049 38.940143 
L 357.34833 39.57554 
L 353.34617 39.110321 
L 349.344011 38.967734 
L 345.341851 38.838656 
L 341.339691 38.879966 
L 337.337531 39.254147 
L 333.335372 39.231315 
L 329.333212 38.9599 
L 325.331052 39.004591 
L 321.328893 39.262092 
L 317.326733 39.524241 
L 313.324573 39.700444 
L 309.322413 39.183869 
L 305.320254 40.061213 
L 301.318094 39.438309 
L 297.315934 39.681062 
L 293.313774 38.565822 
L 289.311615 38.580334 
L 285.309455 38.552159 
L 281.307295 38.40939 
L 277.305136 38.213457 
L 273.302976 38.389257 
L 269.300816 38.515093 
L 265.298656 38.496907 
L 261.296497 39.245591 
L 257.294337 44.572541 
L 253.292177 40.915306 
L 249.290018 43.374027 
L 245.287858 41.523141 
L 241.285698 40.549974 
L 237.283538 39.786959 
L 233.281379 39.69531 
L 229.279219 39.964624 
L 225.277059 39.408576 
L 221.2749 39.446143 
L 217.27274 39.870428 
L 213.27058 40.317392 
L 209.26842 39.273362 
L 205.266261 40.630089 
L 201.264101 41.182644 
L 197.261941 41.492127 
L 193.259782 41.595214 
L 189.257622 40.015548 
L 185.255462 40.490715 
L 181.253302 41.692318 
L 177.251143 42.328328 
L 173.248983 39.557981 
L 169.246823 38.776476 
L 165.244663 39.214006 
L 161.242504 39.547296 
L 157.240344 39.411178 
L 153.238184 39.004967 
L 149.236025 39.172182 
L 145.233865 39.293259 
L 141.231705 40.117438 
L 137.229545 41.786555 
z
" clip-path="url(#p84361df72e)" style="fill: #ff7f0e"/>
   </g>
   <g id="matplotlib.axis_1">
    <g id="xtick_1">
     <g id="line2d_1">
      <path d="M 137.229545 331.64 
L 137.229545 23.76 
" clip-path="url(#p84361df72e)" style="fill: none; stroke-dasharray: 5.12,1.28,0.8,1.28; stroke-dashoffset: 0; stroke: #b0b0b0; stroke-width: 0.8"/>
     </g>
     <g id="line2d_2">
      <defs>
       <path id="mde833c2896" d="M 0 0 
L 0 3.5 
" style="stroke: #000000; stroke-width: 0.8"/>
      </defs>
      <g>
       <use xlink:href="#mde833c2896" x="137.229545" y="331.64" style="stroke: #000000; stroke-width: 0.8"/>
      </g>
     </g>
     <g id="text_1">
      <!-- 0 -->
      <g transform="translate(130.230795 355.356563)scale(0.22 -0.22)">
       <defs>
        <path id="DejaVuSans-30" d="M 2034 4250 
Q 1547 4250 1301 3770 
Q 1056 3291 1056 2328 
Q 1056 1369 1301 889 
Q 1547 409 2034 409 
Q 2525 409 2770 889 
Q 3016 1369 3016 2328 
Q 3016 3291 2770 3770 
Q 2525 4250 2034 4250 
z
M 2034 4750 
Q 2819 4750 3233 4129 
Q 3647 3509 3647 2328 
Q 3647 1150 3233 529 
Q 2819 -91 2034 -91 
Q 1250 -91 836 529 
Q 422 1150 422 2328 
Q 422 3509 836 4129 
Q 1250 4750 2034 4750 
z
" transform="scale(0.015625)"/>
       </defs>
       <use xlink:href="#DejaVuSans-30"/>
      </g>
     </g>
    </g>
    <g id="xtick_2">
     <g id="line2d_3">
      <path d="M 237.283538 331.64 
L 237.283538 23.76 
" clip-path="url(#p84361df72e)" style="fill: none; stroke-dasharray: 5.12,1.28,0.8,1.28; stroke-dashoffset: 0; stroke: #b0b0b0; stroke-width: 0.8"/>
     </g>
     <g id="line2d_4">
      <g>
       <use xlink:href="#mde833c2896" x="237.283538" y="331.64" style="stroke: #000000; stroke-width: 0.8"/>
      </g>
     </g>
     <g id="text_2">
      <!-- 25 -->
      <g transform="translate(223.286038 355.356563)scale(0.22 -0.22)">
       <defs>
        <path id="DejaVuSans-32" d="M 1228 531 
L 3431 531 
L 3431 0 
L 469 0 
L 469 531 
Q 828 903 1448 1529 
Q 2069 2156 2228 2338 
Q 2531 2678 2651 2914 
Q 2772 3150 2772 3378 
Q 2772 3750 2511 3984 
Q 2250 4219 1831 4219 
Q 1534 4219 1204 4116 
Q 875 4013 500 3803 
L 500 4441 
Q 881 4594 1212 4672 
Q 1544 4750 1819 4750 
Q 2544 4750 2975 4387 
Q 3406 4025 3406 3419 
Q 3406 3131 3298 2873 
Q 3191 2616 2906 2266 
Q 2828 2175 2409 1742 
Q 1991 1309 1228 531 
z
" transform="scale(0.015625)"/>
        <path id="DejaVuSans-35" d="M 691 4666 
L 3169 4666 
L 3169 4134 
L 1269 4134 
L 1269 2991 
Q 1406 3038 1543 3061 
Q 1681 3084 1819 3084 
Q 2600 3084 3056 2656 
Q 3513 2228 3513 1497 
Q 3513 744 3044 326 
Q 2575 -91 1722 -91 
Q 1428 -91 1123 -41 
Q 819 9 494 109 
L 494 744 
Q 775 591 1075 516 
Q 1375 441 1709 441 
Q 2250 441 2565 725 
Q 2881 1009 2881 1497 
Q 2881 1984 2565 2268 
Q 2250 2553 1709 2553 
Q 1456 2553 1204 2497 
Q 953 2441 691 2322 
L 691 4666 
z
" transform="scale(0.015625)"/>
       </defs>
       <use xlink:href="#DejaVuSans-32"/>
       <use xlink:href="#DejaVuSans-35" x="63.623047"/>
      </g>
     </g>
    </g>
    <g id="xtick_3">
     <g id="line2d_5">
      <path d="M 337.337531 331.64 
L 337.337531 23.76 
" clip-path="url(#p84361df72e)" style="fill: none; stroke-dasharray: 5.12,1.28,0.8,1.28; stroke-dashoffset: 0; stroke: #b0b0b0; stroke-width: 0.8"/>
     </g>
     <g id="line2d_6">
      <g>
       <use xlink:href="#mde833c2896" x="337.337531" y="331.64" style="stroke: #000000; stroke-width: 0.8"/>
      </g>
     </g>
     <g id="text_3">
      <!-- 50 -->
      <g transform="translate(323.340031 355.356563)scale(0.22 -0.22)">
       <use xlink:href="#DejaVuSans-35"/>
       <use xlink:href="#DejaVuSans-30" x="63.623047"/>
      </g>
     </g>
    </g>
    <g id="xtick_4">
     <g id="line2d_7">
      <path d="M 437.391524 331.64 
L 437.391524 23.76 
" clip-path="url(#p84361df72e)" style="fill: none; stroke-dasharray: 5.12,1.28,0.8,1.28; stroke-dashoffset: 0; stroke: #b0b0b0; stroke-width: 0.8"/>
     </g>
     <g id="line2d_8">
      <g>
       <use xlink:href="#mde833c2896" x="437.391524" y="331.64" style="stroke: #000000; stroke-width: 0.8"/>
      </g>
     </g>
     <g id="text_4">
      <!-- 75 -->
      <g transform="translate(423.394024 355.356563)scale(0.22 -0.22)">
       <defs>
        <path id="DejaVuSans-37" d="M 525 4666 
L 3525 4666 
L 3525 4397 
L 1831 0 
L 1172 0 
L 2766 4134 
L 525 4134 
L 525 4666 
z
" transform="scale(0.015625)"/>
       </defs>
       <use xlink:href="#DejaVuSans-37"/>
       <use xlink:href="#DejaVuSans-35" x="63.623047"/>
      </g>
     </g>
    </g>
    <g id="xtick_5">
     <g id="line2d_9">
      <path d="M 537.445517 331.64 
L 537.445517 23.76 
" clip-path="url(#p84361df72e)" style="fill: none; stroke-dasharray: 5.12,1.28,0.8,1.28; stroke-dashoffset: 0; stroke: #b0b0b0; stroke-width: 0.8"/>
     </g>
     <g id="line2d_10">
      <g>
       <use xlink:href="#mde833c2896" x="537.445517" y="331.64" style="stroke: #000000; stroke-width: 0.8"/>
      </g>
     </g>
     <g id="text_5">
      <!-- 100 -->
      <g transform="translate(516.449267 355.356563)scale(0.22 -0.22)">
       <defs>
        <path id="DejaVuSans-31" d="M 794 531 
L 1825 531 
L 1825 4091 
L 703 3866 
L 703 4441 
L 1819 4666 
L 2450 4666 
L 2450 531 
L 3481 531 
L 3481 0 
L 794 0 
L 794 531 
z
" transform="scale(0.015625)"/>
       </defs>
       <use xlink:href="#DejaVuSans-31"/>
       <use xlink:href="#DejaVuSans-30" x="63.623047"/>
       <use xlink:href="#DejaVuSans-30" x="127.246094"/>
      </g>
     </g>
    </g>
    <g id="xtick_6">
     <g id="line2d_11">
      <path d="M 637.49951 331.64 
L 637.49951 23.76 
" clip-path="url(#p84361df72e)" style="fill: none; stroke-dasharray: 5.12,1.28,0.8,1.28; stroke-dashoffset: 0; stroke: #b0b0b0; stroke-width: 0.8"/>
     </g>
     <g id="line2d_12">
      <g>
       <use xlink:href="#mde833c2896" x="637.49951" y="331.64" style="stroke: #000000; stroke-width: 0.8"/>
      </g>
     </g>
     <g id="text_6">
      <!-- 125 -->
      <g transform="translate(616.50326 355.356563)scale(0.22 -0.22)">
       <use xlink:href="#DejaVuSans-31"/>
       <use xlink:href="#DejaVuSans-32" x="63.623047"/>
       <use xlink:href="#DejaVuSans-35" x="127.246094"/>
      </g>
     </g>
    </g>
    <g id="xtick_7">
     <g id="line2d_13">
      <path d="M 737.553503 331.64 
L 737.553503 23.76 
" clip-path="url(#p84361df72e)" style="fill: none; stroke-dasharray: 5.12,1.28,0.8,1.28; stroke-dashoffset: 0; stroke: #b0b0b0; stroke-width: 0.8"/>
     </g>
     <g id="line2d_14">
      <g>
       <use xlink:href="#mde833c2896" x="737.553503" y="331.64" style="stroke: #000000; stroke-width: 0.8"/>
      </g>
     </g>
     <g id="text_7">
      <!-- 150 -->
      <g transform="translate(716.557253 355.356563)scale(0.22 -0.22)">
       <use xlink:href="#DejaVuSans-31"/>
       <use xlink:href="#DejaVuSans-35" x="63.623047"/>
       <use xlink:href="#DejaVuSans-30" x="127.246094"/>
      </g>
     </g>
    </g>
    <g id="xtick_8">
     <g id="line2d_15">
      <path d="M 837.607496 331.64 
L 837.607496 23.76 
" clip-path="url(#p84361df72e)" style="fill: none; stroke-dasharray: 5.12,1.28,0.8,1.28; stroke-dashoffset: 0; stroke: #b0b0b0; stroke-width: 0.8"/>
     </g>
     <g id="line2d_16">
      <g>
       <use xlink:href="#mde833c2896" x="837.607496" y="331.64" style="stroke: #000000; stroke-width: 0.8"/>
      </g>
     </g>
     <g id="text_8">
      <!-- 175 -->
      <g transform="translate(816.611246 355.356563)scale(0.22 -0.22)">
       <use xlink:href="#DejaVuSans-31"/>
       <use xlink:href="#DejaVuSans-37" x="63.623047"/>
       <use xlink:href="#DejaVuSans-35" x="127.246094"/>
      </g>
     </g>
    </g>
    <g id="text_9">
     <!-- Time (s) -->
     <g transform="translate(450.635625 382.168125)scale(0.24 -0.24)">
      <defs>
       <path id="DejaVuSans-54" d="M -19 4666 
L 3928 4666 
L 3928 4134 
L 2272 4134 
L 2272 0 
L 1638 0 
L 1638 4134 
L -19 4134 
L -19 4666 
z
" transform="scale(0.015625)"/>
       <path id="DejaVuSans-69" d="M 603 3500 
L 1178 3500 
L 1178 0 
L 603 0 
L 603 3500 
z
M 603 4863 
L 1178 4863 
L 1178 4134 
L 603 4134 
L 603 4863 
z
" transform="scale(0.015625)"/>
       <path id="DejaVuSans-6d" d="M 3328 2828 
Q 3544 3216 3844 3400 
Q 4144 3584 4550 3584 
Q 5097 3584 5394 3201 
Q 5691 2819 5691 2113 
L 5691 0 
L 5113 0 
L 5113 2094 
Q 5113 2597 4934 2840 
Q 4756 3084 4391 3084 
Q 3944 3084 3684 2787 
Q 3425 2491 3425 1978 
L 3425 0 
L 2847 0 
L 2847 2094 
Q 2847 2600 2669 2842 
Q 2491 3084 2119 3084 
Q 1678 3084 1418 2786 
Q 1159 2488 1159 1978 
L 1159 0 
L 581 0 
L 581 3500 
L 1159 3500 
L 1159 2956 
Q 1356 3278 1631 3431 
Q 1906 3584 2284 3584 
Q 2666 3584 2933 3390 
Q 3200 3197 3328 2828 
z
" transform="scale(0.015625)"/>
       <path id="DejaVuSans-65" d="M 3597 1894 
L 3597 1613 
L 953 1613 
Q 991 1019 1311 708 
Q 1631 397 2203 397 
Q 2534 397 2845 478 
Q 3156 559 3463 722 
L 3463 178 
Q 3153 47 2828 -22 
Q 2503 -91 2169 -91 
Q 1331 -91 842 396 
Q 353 884 353 1716 
Q 353 2575 817 3079 
Q 1281 3584 2069 3584 
Q 2775 3584 3186 3129 
Q 3597 2675 3597 1894 
z
M 3022 2063 
Q 3016 2534 2758 2815 
Q 2500 3097 2075 3097 
Q 1594 3097 1305 2825 
Q 1016 2553 972 2059 
L 3022 2063 
z
" transform="scale(0.015625)"/>
       <path id="DejaVuSans-20" transform="scale(0.015625)"/>
       <path id="DejaVuSans-28" d="M 1984 4856 
Q 1566 4138 1362 3434 
Q 1159 2731 1159 2009 
Q 1159 1288 1364 580 
Q 1569 -128 1984 -844 
L 1484 -844 
Q 1016 -109 783 600 
Q 550 1309 550 2009 
Q 550 2706 781 3412 
Q 1013 4119 1484 4856 
L 1984 4856 
z
" transform="scale(0.015625)"/>
       <path id="DejaVuSans-73" d="M 2834 3397 
L 2834 2853 
Q 2591 2978 2328 3040 
Q 2066 3103 1784 3103 
Q 1356 3103 1142 2972 
Q 928 2841 928 2578 
Q 928 2378 1081 2264 
Q 1234 2150 1697 2047 
L 1894 2003 
Q 2506 1872 2764 1633 
Q 3022 1394 3022 966 
Q 3022 478 2636 193 
Q 2250 -91 1575 -91 
Q 1294 -91 989 -36 
Q 684 19 347 128 
L 347 722 
Q 666 556 975 473 
Q 1284 391 1588 391 
Q 1994 391 2212 530 
Q 2431 669 2431 922 
Q 2431 1156 2273 1281 
Q 2116 1406 1581 1522 
L 1381 1569 
Q 847 1681 609 1914 
Q 372 2147 372 2553 
Q 372 3047 722 3315 
Q 1072 3584 1716 3584 
Q 2034 3584 2315 3537 
Q 2597 3491 2834 3397 
z
" transform="scale(0.015625)"/>
       <path id="DejaVuSans-29" d="M 513 4856 
L 1013 4856 
Q 1481 4119 1714 3412 
Q 1947 2706 1947 2009 
Q 1947 1309 1714 600 
Q 1481 -109 1013 -844 
L 513 -844 
Q 928 -128 1133 580 
Q 1338 1288 1338 2009 
Q 1338 2731 1133 3434 
Q 928 4138 513 4856 
z
" transform="scale(0.015625)"/>
      </defs>
      <use xlink:href="#DejaVuSans-54"/>
      <use xlink:href="#DejaVuSans-69" x="57.958984"/>
      <use xlink:href="#DejaVuSans-6d" x="85.742188"/>
      <use xlink:href="#DejaVuSans-65" x="183.154297"/>
      <use xlink:href="#DejaVuSans-20" x="244.677734"/>
      <use xlink:href="#DejaVuSans-28" x="276.464844"/>
      <use xlink:href="#DejaVuSans-73" x="315.478516"/>
      <use xlink:href="#DejaVuSans-29" x="367.578125"/>
     </g>
    </g>
   </g>
   <g id="matplotlib.axis_2">
    <g id="ytick_1">
     <g id="line2d_17">
      <path d="M 101.01 331.64 
L 897.84 331.64 
" clip-path="url(#p84361df72e)" style="fill: none; stroke-dasharray: 5.12,1.28,0.8,1.28; stroke-dashoffset: 0; stroke: #b0b0b0; stroke-width: 0.8"/>
     </g>
     <g id="line2d_18">
      <defs>
       <path id="m6edfe21e86" d="M 0 0 
L -3.5 0 
" style="stroke: #000000; stroke-width: 0.8"/>
      </defs>
      <g>
       <use xlink:href="#m6edfe21e86" x="101.01" y="331.64" style="stroke: #000000; stroke-width: 0.8"/>
      </g>
     </g>
     <g id="text_10">
      <!-- 0 -->
      <g transform="translate(80.0125 339.998281)scale(0.22 -0.22)">
       <use xlink:href="#DejaVuSans-30"/>
      </g>
     </g>
    </g>
    <g id="ytick_2">
     <g id="line2d_19">
      <path d="M 101.01 244.679269 
L 897.84 244.679269 
" clip-path="url(#p84361df72e)" style="fill: none; stroke-dasharray: 5.12,1.28,0.8,1.28; stroke-dashoffset: 0; stroke: #b0b0b0; stroke-width: 0.8"/>
     </g>
     <g id="line2d_20">
      <g>
       <use xlink:href="#m6edfe21e86" x="101.01" y="244.679269" style="stroke: #000000; stroke-width: 0.8"/>
      </g>
     </g>
     <g id="text_11">
      <!-- 50 -->
      <g transform="translate(66.015 253.037551)scale(0.22 -0.22)">
       <use xlink:href="#DejaVuSans-35"/>
       <use xlink:href="#DejaVuSans-30" x="63.623047"/>
      </g>
     </g>
    </g>
    <g id="ytick_3">
     <g id="line2d_21">
      <path d="M 101.01 157.718539 
L 897.84 157.718539 
" clip-path="url(#p84361df72e)" style="fill: none; stroke-dasharray: 5.12,1.28,0.8,1.28; stroke-dashoffset: 0; stroke: #b0b0b0; stroke-width: 0.8"/>
     </g>
     <g id="line2d_22">
      <g>
       <use xlink:href="#m6edfe21e86" x="101.01" y="157.718539" style="stroke: #000000; stroke-width: 0.8"/>
      </g>
     </g>
     <g id="text_12">
      <!-- 100 -->
      <g transform="translate(52.0175 166.07682)scale(0.22 -0.22)">
       <use xlink:href="#DejaVuSans-31"/>
       <use xlink:href="#DejaVuSans-30" x="63.623047"/>
       <use xlink:href="#DejaVuSans-30" x="127.246094"/>
      </g>
     </g>
    </g>
    <g id="ytick_4">
     <g id="line2d_23">
      <path d="M 101.01 70.757808 
L 897.84 70.757808 
" clip-path="url(#p84361df72e)" style="fill: none; stroke-dasharray: 5.12,1.28,0.8,1.28; stroke-dashoffset: 0; stroke: #b0b0b0; stroke-width: 0.8"/>
     </g>
     <g id="line2d_24">
      <g>
       <use xlink:href="#m6edfe21e86" x="101.01" y="70.757808" style="stroke: #000000; stroke-width: 0.8"/>
      </g>
     </g>
     <g id="text_13">
      <!-- 150 -->
      <g transform="translate(52.0175 79.116089)scale(0.22 -0.22)">
       <use xlink:href="#DejaVuSans-31"/>
       <use xlink:href="#DejaVuSans-35" x="63.623047"/>
       <use xlink:href="#DejaVuSans-30" x="127.246094"/>
      </g>
     </g>
    </g>
    <g id="text_14">
     <!-- Throughput (Mbps) -->
     <g transform="translate(43.02625 292.414375)rotate(-90)scale(0.24 -0.24)">
      <defs>
       <path id="DejaVuSans-68" d="M 3513 2113 
L 3513 0 
L 2938 0 
L 2938 2094 
Q 2938 2591 2744 2837 
Q 2550 3084 2163 3084 
Q 1697 3084 1428 2787 
Q 1159 2491 1159 1978 
L 1159 0 
L 581 0 
L 581 4863 
L 1159 4863 
L 1159 2956 
Q 1366 3272 1645 3428 
Q 1925 3584 2291 3584 
Q 2894 3584 3203 3211 
Q 3513 2838 3513 2113 
z
" transform="scale(0.015625)"/>
       <path id="DejaVuSans-72" d="M 2631 2963 
Q 2534 3019 2420 3045 
Q 2306 3072 2169 3072 
Q 1681 3072 1420 2755 
Q 1159 2438 1159 1844 
L 1159 0 
L 581 0 
L 581 3500 
L 1159 3500 
L 1159 2956 
Q 1341 3275 1631 3429 
Q 1922 3584 2338 3584 
Q 2397 3584 2469 3576 
Q 2541 3569 2628 3553 
L 2631 2963 
z
" transform="scale(0.015625)"/>
       <path id="DejaVuSans-6f" d="M 1959 3097 
Q 1497 3097 1228 2736 
Q 959 2375 959 1747 
Q 959 1119 1226 758 
Q 1494 397 1959 397 
Q 2419 397 2687 759 
Q 2956 1122 2956 1747 
Q 2956 2369 2687 2733 
Q 2419 3097 1959 3097 
z
M 1959 3584 
Q 2709 3584 3137 3096 
Q 3566 2609 3566 1747 
Q 3566 888 3137 398 
Q 2709 -91 1959 -91 
Q 1206 -91 779 398 
Q 353 888 353 1747 
Q 353 2609 779 3096 
Q 1206 3584 1959 3584 
z
" transform="scale(0.015625)"/>
       <path id="DejaVuSans-75" d="M 544 1381 
L 544 3500 
L 1119 3500 
L 1119 1403 
Q 1119 906 1312 657 
Q 1506 409 1894 409 
Q 2359 409 2629 706 
Q 2900 1003 2900 1516 
L 2900 3500 
L 3475 3500 
L 3475 0 
L 2900 0 
L 2900 538 
Q 2691 219 2414 64 
Q 2138 -91 1772 -91 
Q 1169 -91 856 284 
Q 544 659 544 1381 
z
M 1991 3584 
L 1991 3584 
z
" transform="scale(0.015625)"/>
       <path id="DejaVuSans-67" d="M 2906 1791 
Q 2906 2416 2648 2759 
Q 2391 3103 1925 3103 
Q 1463 3103 1205 2759 
Q 947 2416 947 1791 
Q 947 1169 1205 825 
Q 1463 481 1925 481 
Q 2391 481 2648 825 
Q 2906 1169 2906 1791 
z
M 3481 434 
Q 3481 -459 3084 -895 
Q 2688 -1331 1869 -1331 
Q 1566 -1331 1297 -1286 
Q 1028 -1241 775 -1147 
L 775 -588 
Q 1028 -725 1275 -790 
Q 1522 -856 1778 -856 
Q 2344 -856 2625 -561 
Q 2906 -266 2906 331 
L 2906 616 
Q 2728 306 2450 153 
Q 2172 0 1784 0 
Q 1141 0 747 490 
Q 353 981 353 1791 
Q 353 2603 747 3093 
Q 1141 3584 1784 3584 
Q 2172 3584 2450 3431 
Q 2728 3278 2906 2969 
L 2906 3500 
L 3481 3500 
L 3481 434 
z
" transform="scale(0.015625)"/>
       <path id="DejaVuSans-70" d="M 1159 525 
L 1159 -1331 
L 581 -1331 
L 581 3500 
L 1159 3500 
L 1159 2969 
Q 1341 3281 1617 3432 
Q 1894 3584 2278 3584 
Q 2916 3584 3314 3078 
Q 3713 2572 3713 1747 
Q 3713 922 3314 415 
Q 2916 -91 2278 -91 
Q 1894 -91 1617 61 
Q 1341 213 1159 525 
z
M 3116 1747 
Q 3116 2381 2855 2742 
Q 2594 3103 2138 3103 
Q 1681 3103 1420 2742 
Q 1159 2381 1159 1747 
Q 1159 1113 1420 752 
Q 1681 391 2138 391 
Q 2594 391 2855 752 
Q 3116 1113 3116 1747 
z
" transform="scale(0.015625)"/>
       <path id="DejaVuSans-74" d="M 1172 4494 
L 1172 3500 
L 2356 3500 
L 2356 3053 
L 1172 3053 
L 1172 1153 
Q 1172 725 1289 603 
Q 1406 481 1766 481 
L 2356 481 
L 2356 0 
L 1766 0 
Q 1100 0 847 248 
Q 594 497 594 1153 
L 594 3053 
L 172 3053 
L 172 3500 
L 594 3500 
L 594 4494 
L 1172 4494 
z
" transform="scale(0.015625)"/>
       <path id="DejaVuSans-4d" d="M 628 4666 
L 1569 4666 
L 2759 1491 
L 3956 4666 
L 4897 4666 
L 4897 0 
L 4281 0 
L 4281 4097 
L 3078 897 
L 2444 897 
L 1241 4097 
L 1241 0 
L 628 0 
L 628 4666 
z
" transform="scale(0.015625)"/>
       <path id="DejaVuSans-62" d="M 3116 1747 
Q 3116 2381 2855 2742 
Q 2594 3103 2138 3103 
Q 1681 3103 1420 2742 
Q 1159 2381 1159 1747 
Q 1159 1113 1420 752 
Q 1681 391 2138 391 
Q 2594 391 2855 752 
Q 3116 1113 3116 1747 
z
M 1159 2969 
Q 1341 3281 1617 3432 
Q 1894 3584 2278 3584 
Q 2916 3584 3314 3078 
Q 3713 2572 3713 1747 
Q 3713 922 3314 415 
Q 2916 -91 2278 -91 
Q 1894 -91 1617 61 
Q 1341 213 1159 525 
L 1159 0 
L 581 0 
L 581 4863 
L 1159 4863 
L 1159 2969 
z
" transform="scale(0.015625)"/>
      </defs>
      <use xlink:href="#DejaVuSans-54"/>
      <use xlink:href="#DejaVuSans-68" x="61.083984"/>
      <use xlink:href="#DejaVuSans-72" x="124.462891"/>
      <use xlink:href="#DejaVuSans-6f" x="163.326172"/>
      <use xlink:href="#DejaVuSans-75" x="224.507812"/>
      <use xlink:href="#DejaVuSans-67" x="287.886719"/>
      <use xlink:href="#DejaVuSans-68" x="351.363281"/>
      <use xlink:href="#DejaVuSans-70" x="414.742188"/>
      <use xlink:href="#DejaVuSans-75" x="478.21875"/>
      <use xlink:href="#DejaVuSans-74" x="541.597656"/>
      <use xlink:href="#DejaVuSans-20" x="580.806641"/>
      <use xlink:href="#DejaVuSans-28" x="612.59375"/>
      <use xlink:href="#DejaVuSans-4d" x="651.607422"/>
      <use xlink:href="#DejaVuSans-62" x="737.886719"/>
      <use xlink:href="#DejaVuSans-70" x="801.363281"/>
      <use xlink:href="#DejaVuSans-73" x="864.839844"/>
      <use xlink:href="#DejaVuSans-29" x="916.939453"/>
     </g>
    </g>
   </g>
   <g id="patch_3">
    <path d="M 101.01 331.64 
L 101.01 23.76 
" style="fill: none; stroke: #000000; stroke-width: 0.8; stroke-linejoin: miter; stroke-linecap: square"/>
   </g>
   <g id="patch_4">
    <path d="M 897.84 331.64 
L 897.84 23.76 
" style="fill: none; stroke: #000000; stroke-width: 0.8; stroke-linejoin: miter; stroke-linecap: square"/>
   </g>
   <g id="patch_5">
    <path d="M 101.01 331.64 
L 897.84 331.64 
" style="fill: none; stroke: #000000; stroke-width: 0.8; stroke-linejoin: miter; stroke-linecap: square"/>
   </g>
   <g id="patch_6">
    <path d="M 101.01 23.76 
L 897.84 23.76 
" style="fill: none; stroke: #000000; stroke-width: 0.8; stroke-linejoin: miter; stroke-linecap: square"/>
   </g>
   <g id="legend_1">
    <g id="patch_7">
     <path d="M 756.24 113.415 
L 881.04 113.415 
Q 885.84 113.415 885.84 108.615 
L 885.84 40.56 
Q 885.84 35.76 881.04 35.76 
L 756.24 35.76 
Q 751.44 35.76 751.44 40.56 
L 751.44 108.615 
Q 751.44 113.415 756.24 113.415 
z
" style="fill: #ffffff; opacity: 0.8; stroke: #cccccc; stroke-linejoin: miter"/>
    </g>
    <g id="patch_8">
     <path d="M 761.04 63.59625 
L 809.04 63.59625 
L 809.04 46.79625 
L 761.04 46.79625 
z
" style="fill: #1f77b4"/>
    </g>
    <g id="text_15">
     <!-- UE1 -->
     <g transform="translate(828.24 63.59625)scale(0.24 -0.24)">
      <defs>
       <path id="DejaVuSans-55" d="M 556 4666 
L 1191 4666 
L 1191 1831 
Q 1191 1081 1462 751 
Q 1734 422 2344 422 
Q 2950 422 3222 751 
Q 3494 1081 3494 1831 
L 3494 4666 
L 4128 4666 
L 4128 1753 
Q 4128 841 3676 375 
Q 3225 -91 2344 -91 
Q 1459 -91 1007 375 
Q 556 841 556 1753 
L 556 4666 
z
" transform="scale(0.015625)"/>
       <path id="DejaVuSans-45" d="M 628 4666 
L 3578 4666 
L 3578 4134 
L 1259 4134 
L 1259 2753 
L 3481 2753 
L 3481 2222 
L 1259 2222 
L 1259 531 
L 3634 531 
L 3634 0 
L 628 0 
L 628 4666 
z
" transform="scale(0.015625)"/>
      </defs>
      <use xlink:href="#DejaVuSans-55"/>
      <use xlink:href="#DejaVuSans-45" x="73.193359"/>
      <use xlink:href="#DejaVuSans-31" x="136.376953"/>
     </g>
    </g>
    <g id="patch_9">
     <path d="M 761.04 98.82375 
L 809.04 98.82375 
L 809.04 82.02375 
L 761.04 82.02375 
z
" style="fill: #ff7f0e"/>
    </g>
    <g id="text_16">
     <!-- UE2 -->
     <g transform="translate(828.24 98.82375)scale(0.24 -0.24)">
      <use xlink:href="#DejaVuSans-55"/>
      <use xlink:href="#DejaVuSans-45" x="73.193359"/>
      <use xlink:href="#DejaVuSans-32" x="136.376953"/>
     </g>
    </g>
   </g>
  </g>
 </g>
 <defs>
  <clipPath id="p84361df72e">
   <rect x="101.01" y="23.76" width="796.83" height="307.88"/>
  </clipPath>
 </defs>
</svg>
