<?xml version="1.0" encoding="utf-8" standalone="no"?>
<!DOCTYPE svg PUBLIC "-//W3C//DTD SVG 1.1//EN"
  "http://www.w3.org/Graphics/SVG/1.1/DTD/svg11.dtd">
<svg xmlns:xlink="http://www.w3.org/1999/xlink" width="921.6pt" height="410.4pt" viewBox="0 0 921.6 410.4" xmlns="http://www.w3.org/2000/svg" version="1.1">
 <metadata>
  <rdf:RDF xmlns:dc="http://purl.org/dc/elements/1.1/" xmlns:cc="http://creativecommons.org/ns#" xmlns:rdf="http://www.w3.org/1999/02/22-rdf-syntax-ns#">
   <cc:Work>
    <dc:type rdf:resource="http://purl.org/dc/dcmitype/StillImage"/>
    <dc:date>2023-04-11T15:20:42.568398</dc:date>
    <dc:format>image/svg+xml</dc:format>
    <dc:creator>
     <cc:Agent>
      <dc:title>Matplotlib v3.5.3, https://matplotlib.org/</dc:title>
     </cc:Agent>
    </dc:creator>
   </cc:Work>
  </rdf:RDF>
 </metadata>
 <defs>
  <style type="text/css">*{stroke-linejoin: round; stroke-linecap: butt}</style>
 </defs>
 <g id="figure_1">
  <g id="patch_1">
   <path d="M 0 410.4 
L 921.6 410.4 
L 921.6 0 
L 0 0 
L 0 410.4 
z
" style="fill: none"/>
  </g>
  <g id="axes_1">
   <g id="patch_2">
    <path d="M 101.01 331.64 
L 897.84 331.64 
L 897.84 23.76 
L 101.01 23.76 
z
" style="fill: #ffffff"/>
   </g>
   <g id="PolyCollection_1">
    <path d="M 137.229545 186.006072 
L 137.229545 331.64 
L 141.209715 331.64 
L 145.189885 331.64 
L 149.170055 331.64 
L 153.150225 331.64 
L 157.130395 331.64 
L 161.110564 331.64 
L 165.090734 331.64 
L 169.070904 331.64 
L 173.051074 331.64 
L 177.031244 331.64 
L 181.011414 331.64 
L 184.991583 331.64 
L 188.971753 331.64 
L 192.951923 331.64 
L 196.932093 331.64 
L 200.912263 331.64 
L 204.892433 331.64 
L 208.872602 331.64 
L 212.852772 331.64 
L 216.832942 331.64 
L 220.813112 331.64 
L 224.793282 331.64 
L 228.773452 331.64 
L 232.753621 331.64 
L 236.733791 331.64 
L 240.713961 331.64 
L 244.694131 331.64 
L 248.674301 331.64 
L 252.654471 331.64 
L 256.63464 331.64 
L 260.61481 331.64 
L 264.59498 331.64 
L 268.57515 331.64 
L 272.55532 331.64 
L 276.53549 331.64 
L 280.515659 331.64 
L 284.495829 331.64 
L 288.475999 331.64 
L 292.456169 331.64 
L 296.436339 331.64 
L 300.416508 331.64 
L 304.396678 331.64 
L 308.376848 331.64 
L 312.357018 331.64 
L 316.337188 331.64 
L 320.317358 331.64 
L 324.297527 331.64 
L 328.277697 331.64 
L 332.257867 331.64 
L 336.238037 331.64 
L 340.218207 331.64 
L 344.198377 331.64 
L 348.178546 331.64 
L 352.158716 331.64 
L 356.138886 331.64 
L 360.119056 331.64 
L 364.099226 331.64 
L 368.079396 331.64 
L 372.059565 331.64 
L 376.039735 331.64 
L 380.019905 331.64 
L 384.000075 331.64 
L 387.980245 331.64 
L 391.960415 331.64 
L 395.940584 331.64 
L 399.920754 331.64 
L 403.900924 331.64 
L 407.881094 331.64 
L 411.861264 331.64 
L 415.841434 331.64 
L 419.821603 331.64 
L 423.801773 331.64 
L 427.781943 331.64 
L 431.762113 331.64 
L 435.742283 331.64 
L 439.722453 331.64 
L 443.702622 331.64 
L 447.682792 331.64 
L 451.662962 331.64 
L 455.643132 331.64 
L 459.623302 331.64 
L 463.603472 331.64 
L 467.583641 331.64 
L 471.563811 331.64 
L 475.543981 331.64 
L 479.524151 331.64 
L 483.504321 331.64 
L 487.484491 331.64 
L 491.46466 331.64 
L 495.44483 331.64 
L 499.425 331.64 
L 503.40517 331.64 
L 507.38534 331.64 
L 511.365509 331.64 
L 515.345679 331.64 
L 519.325849 331.64 
L 523.306019 331.64 
L 527.286189 331.64 
L 531.266359 331.64 
L 535.246528 331.64 
L 539.226698 331.64 
L 543.206868 331.64 
L 547.187038 331.64 
L 551.167208 331.64 
L 555.147378 331.64 
L 559.127547 331.64 
L 563.107717 331.64 
L 567.087887 331.64 
L 571.068057 331.64 
L 575.048227 331.64 
L 579.028397 331.64 
L 583.008566 331.64 
L 586.988736 331.64 
L 590.968906 331.64 
L 594.949076 331.64 
L 598.929246 331.64 
L 602.909416 331.64 
L 606.889585 331.64 
L 610.869755 331.64 
L 614.849925 331.64 
L 618.830095 331.64 
L 622.810265 331.64 
L 626.790435 331.64 
L 630.770604 331.64 
L 634.750774 331.64 
L 638.730944 331.64 
L 642.711114 331.64 
L 646.691284 331.64 
L 650.671454 331.64 
L 654.651623 331.64 
L 658.631793 331.64 
L 662.611963 331.64 
L 666.592133 331.64 
L 670.572303 331.64 
L 674.552473 331.64 
L 678.532642 331.64 
L 682.512812 331.64 
L 686.492982 331.64 
L 690.473152 331.64 
L 694.453322 331.64 
L 698.433492 331.64 
L 702.413661 331.64 
L 706.393831 331.64 
L 710.374001 331.64 
L 714.354171 331.64 
L 718.334341 331.64 
L 722.31451 331.64 
L 726.29468 331.64 
L 730.27485 331.64 
L 734.25502 331.64 
L 738.23519 331.64 
L 742.21536 331.64 
L 746.195529 331.64 
L 750.175699 331.64 
L 754.155869 331.64 
L 758.136039 331.64 
L 762.116209 331.64 
L 766.096379 331.64 
L 770.076548 331.64 
L 774.056718 331.64 
L 778.036888 331.64 
L 782.017058 331.64 
L 785.997228 331.64 
L 789.977398 331.64 
L 793.957567 331.64 
L 797.937737 331.64 
L 801.917907 331.64 
L 805.898077 331.64 
L 809.878247 331.64 
L 813.858417 331.64 
L 817.838586 331.64 
L 821.818756 331.64 
L 825.798926 331.64 
L 829.779096 331.64 
L 833.759266 331.64 
L 837.739436 331.64 
L 841.719605 331.64 
L 845.699775 331.64 
L 849.679945 331.64 
L 853.660115 331.64 
L 857.640285 331.64 
L 861.620455 331.64 
L 861.620455 185.531314 
L 861.620455 185.531314 
L 857.640285 185.225551 
L 853.660115 185.119685 
L 849.679945 185.162882 
L 845.699775 185.243602 
L 841.719605 184.940626 
L 837.739436 185.283927 
L 833.759266 185.210539 
L 829.779096 185.36664 
L 825.798926 185.386029 
L 821.818756 185.234932 
L 817.838586 185.345704 
L 813.858417 185.234318 
L 809.878247 185.307748 
L 805.898077 185.164931 
L 801.917907 185.578567 
L 797.937737 185.544793 
L 793.957567 185.224143 
L 789.977398 185.135394 
L 785.997228 185.164945 
L 782.017058 185.380272 
L 778.036888 185.146768 
L 774.056718 185.157027 
L 770.076548 185.860146 
L 766.096379 185.200377 
L 762.116209 185.247268 
L 758.136039 185.457814 
L 754.155869 185.120814 
L 750.175699 185.629318 
L 746.195529 185.096867 
L 742.21536 185.528289 
L 738.23519 184.946508 
L 734.25502 185.865527 
L 730.27485 185.177768 
L 726.29468 185.267409 
L 722.31451 185.102038 
L 718.334341 185.060598 
L 714.354171 185.253944 
L 710.374001 185.159494 
L 706.393831 185.165655 
L 702.413661 185.23174 
L 698.433492 185.587153 
L 694.453322 185.153278 
L 690.473152 185.541448 
L 686.492982 185.164722 
L 682.512812 185.351377 
L 678.532642 185.120898 
L 674.552473 185.438899 
L 670.572303 185.125038 
L 666.592133 185.209256 
L 662.611963 185.184083 
L 658.631793 185.069603 
L 654.651623 185.047119 
L 650.671454 185.469746 
L 646.691284 185.129052 
L 642.711114 185.169781 
L 638.730944 185.689325 
L 634.750774 185.275731 
L 630.770604 185.295594 
L 626.790435 186.176684 
L 622.810265 185.465258 
L 618.830095 185.040512 
L 614.849925 185.330315 
L 610.869755 185.250766 
L 606.889585 185.113329 
L 602.909416 185.199638 
L 598.929246 185.110625 
L 594.949076 185.204169 
L 590.968906 185.224951 
L 586.988736 185.206078 
L 583.008566 185.258642 
L 579.028397 185.528749 
L 575.048227 185.225384 
L 571.068057 185.506614 
L 567.087887 185.115169 
L 563.107717 185.420793 
L 559.127547 185.038519 
L 555.147378 185.262865 
L 551.167208 185.360772 
L 547.187038 185.098247 
L 543.206868 185.230109 
L 539.226698 185.1541 
L 535.246528 185.216351 
L 531.266359 185.190439 
L 527.286189 185.16868 
L 523.306019 185.190313 
L 519.325849 185.388984 
L 515.345679 185.109245 
L 511.365509 185.608633 
L 507.38534 185.277613 
L 503.40517 186.824912 
L 499.425 185.255798 
L 495.44483 185.068711 
L 491.46466 185.132579 
L 487.484491 185.248898 
L 483.504321 185.039076 
L 479.524151 185.593077 
L 475.543981 184.78702 
L 471.563811 185.218498 
L 467.583641 185.00271 
L 463.603472 184.786922 
L 459.623302 185.275048 
L 455.643132 185.0898 
L 451.662962 185.103181 
L 447.682792 184.96336 
L 443.702622 185.598597 
L 439.722453 185.811904 
L 435.742283 185.650617 
L 431.762113 185.012565 
L 427.781943 185.070314 
L 423.801773 185.013122 
L 419.821603 184.96251 
L 415.841434 185.116061 
L 411.861264 185.093006 
L 407.881094 184.99641 
L 403.900924 184.799816 
L 399.920754 185.466373 
L 395.940584 185.158351 
L 391.960415 185.094386 
L 387.980245 185.141193 
L 384.000075 184.704404 
L 380.019905 185.449507 
L 376.039735 185.0077 
L 372.059565 185.748816 
L 368.079396 185.252077 
L 364.099226 186.783806 
L 360.119056 185.454135 
L 356.138886 185.752078 
L 352.158716 185.384008 
L 348.178546 185.855212 
L 344.198377 185.569325 
L 340.218207 185.360521 
L 336.238037 186.596105 
L 332.257867 185.320503 
L 328.277697 186.405101 
L 324.297527 186.551529 
L 320.317358 185.136175 
L 316.337188 187.001894 
L 312.357018 186.353848 
L 308.376848 185.229621 
L 304.396678 186.299096 
L 300.416508 186.350516 
L 296.436339 185.790215 
L 292.456169 185.830066 
L 288.475999 187.094532 
L 284.495829 184.847487 
L 280.515659 187.01936 
L 276.53549 185.195903 
L 272.55532 186.538649 
L 268.57515 187.866732 
L 264.59498 186.913968 
L 260.61481 185.68191 
L 256.63464 187.526679 
L 252.654471 186.853222 
L 248.674301 187.808969 
L 244.694131 186.004525 
L 240.713961 186.525672 
L 236.733791 187.985937 
L 232.753621 186.051555 
L 228.773452 184.993496 
L 224.793282 184.885582 
L 220.813112 187.245309 
L 216.832942 185.747799 
L 212.852772 187.780339 
L 208.872602 188.787674 
L 204.892433 186.758312 
L 200.912263 187.537342 
L 196.932093 184.989914 
L 192.951923 185.580142 
L 188.971753 185.779789 
L 184.991583 185.368647 
L 181.011414 185.044345 
L 177.031244 185.843322 
L 173.051074 187.163655 
L 169.070904 185.116897 
L 165.090734 185.013777 
L 161.110564 186.21057 
L 157.130395 185.436781 
L 153.150225 186.898691 
L 149.170055 185.134823 
L 145.189885 185.608563 
L 141.209715 186.054259 
L 137.229545 186.006072 
z
" clip-path="url(#p483680093b)" style="fill: #1f77b4"/>
   </g>
   <g id="PolyCollection_2">
    <path d="M 137.229545 39.606426 
L 137.229545 186.006072 
L 141.209715 186.054259 
L 145.189885 185.608563 
L 149.170055 185.134823 
L 153.150225 186.898691 
L 157.130395 185.436781 
L 161.110564 186.21057 
L 165.090734 185.013777 
L 169.070904 185.116897 
L 173.051074 187.163655 
L 177.031244 185.843322 
L 181.011414 185.044345 
L 184.991583 185.368647 
L 188.971753 185.779789 
L 192.951923 185.580142 
L 196.932093 184.989914 
L 200.912263 187.537342 
L 204.892433 186.758312 
L 208.872602 188.787674 
L 212.852772 187.780339 
L 216.832942 185.747799 
L 220.813112 187.245309 
L 224.793282 184.885582 
L 228.773452 184.993496 
L 232.753621 186.051555 
L 236.733791 187.985937 
L 240.713961 186.525672 
L 244.694131 186.004525 
L 248.674301 187.808969 
L 252.654471 186.853222 
L 256.63464 187.526679 
L 260.61481 185.68191 
L 264.59498 186.913968 
L 268.57515 187.866732 
L 272.55532 186.538649 
L 276.53549 185.195903 
L 280.515659 187.01936 
L 284.495829 184.847487 
L 288.475999 187.094532 
L 292.456169 185.830066 
L 296.436339 185.790215 
L 300.416508 186.350516 
L 304.396678 186.299096 
L 308.376848 185.229621 
L 312.357018 186.353848 
L 316.337188 187.001894 
L 320.317358 185.136175 
L 324.297527 186.551529 
L 328.277697 186.405101 
L 332.257867 185.320503 
L 336.238037 186.596105 
L 340.218207 185.360521 
L 344.198377 185.569325 
L 348.178546 185.855212 
L 352.158716 185.384008 
L 356.138886 185.752078 
L 360.119056 185.454135 
L 364.099226 186.783806 
L 368.079396 185.252077 
L 372.059565 185.748816 
L 376.039735 185.0077 
L 380.019905 185.449507 
L 384.000075 184.704404 
L 387.980245 185.141193 
L 391.960415 185.094386 
L 395.940584 185.158351 
L 399.920754 185.466373 
L 403.900924 184.799816 
L 407.881094 184.99641 
L 411.861264 185.093006 
L 415.841434 185.116061 
L 419.821603 184.96251 
L 423.801773 185.013122 
L 427.781943 185.070314 
L 431.762113 185.012565 
L 435.742283 185.650617 
L 439.722453 185.811904 
L 443.702622 185.598597 
L 447.682792 184.96336 
L 451.662962 185.103181 
L 455.643132 185.0898 
L 459.623302 185.275048 
L 463.603472 184.786922 
L 467.583641 185.00271 
L 471.563811 185.218498 
L 475.543981 184.78702 
L 479.524151 185.593077 
L 483.504321 185.039076 
L 487.484491 185.248898 
L 491.46466 185.132579 
L 495.44483 185.068711 
L 499.425 185.255798 
L 503.40517 186.824912 
L 507.38534 185.277613 
L 511.365509 185.608633 
L 515.345679 185.109245 
L 519.325849 185.388984 
L 523.306019 185.190313 
L 527.286189 185.16868 
L 531.266359 185.190439 
L 535.246528 185.216351 
L 539.226698 185.1541 
L 543.206868 185.230109 
L 547.187038 185.098247 
L 551.167208 185.360772 
L 555.147378 185.262865 
L 559.127547 185.038519 
L 563.107717 185.420793 
L 567.087887 185.115169 
L 571.068057 185.506614 
L 575.048227 185.225384 
L 579.028397 185.528749 
L 583.008566 185.258642 
L 586.988736 185.206078 
L 590.968906 185.224951 
L 594.949076 185.204169 
L 598.929246 185.110625 
L 602.909416 185.199638 
L 606.889585 185.113329 
L 610.869755 185.250766 
L 614.849925 185.330315 
L 618.830095 185.040512 
L 622.810265 185.465258 
L 626.790435 186.176684 
L 630.770604 185.295594 
L 634.750774 185.275731 
L 638.730944 185.689325 
L 642.711114 185.169781 
L 646.691284 185.129052 
L 650.671454 185.469746 
L 654.651623 185.047119 
L 658.631793 185.069603 
L 662.611963 185.184083 
L 666.592133 185.209256 
L 670.572303 185.125038 
L 674.552473 185.438899 
L 678.532642 185.120898 
L 682.512812 185.351377 
L 686.492982 185.164722 
L 690.473152 185.541448 
L 694.453322 185.153278 
L 698.433492 185.587153 
L 702.413661 185.23174 
L 706.393831 185.165655 
L 710.374001 185.159494 
L 714.354171 185.253944 
L 718.334341 185.060598 
L 722.31451 185.102038 
L 726.29468 185.267409 
L 730.27485 185.177768 
L 734.25502 185.865527 
L 738.23519 184.946508 
L 742.21536 185.528289 
L 746.195529 185.096867 
L 750.175699 185.629318 
L 754.155869 185.120814 
L 758.136039 185.457814 
L 762.116209 185.247268 
L 766.096379 185.200377 
L 770.076548 185.860146 
L 774.056718 185.157027 
L 778.036888 185.146768 
L 782.017058 185.380272 
L 785.997228 185.164945 
L 789.977398 185.135394 
L 793.957567 185.224143 
L 797.937737 185.544793 
L 801.917907 185.578567 
L 805.898077 185.164931 
L 809.878247 185.307748 
L 813.858417 185.234318 
L 817.838586 185.345704 
L 821.818756 185.234932 
L 825.798926 185.386029 
L 829.779096 185.36664 
L 833.759266 185.210539 
L 837.739436 185.283927 
L 841.719605 184.940626 
L 845.699775 185.243602 
L 849.679945 185.162882 
L 853.660115 185.119685 
L 857.640285 185.225551 
L 861.620455 185.531314 
L 861.620455 39.051812 
L 861.620455 39.051812 
L 857.640285 38.30972 
L 853.660115 38.503248 
L 849.679945 38.393479 
L 845.699775 38.592122 
L 841.719605 38.206029 
L 837.739436 38.744418 
L 833.759266 38.490326 
L 829.779096 38.565931 
L 825.798926 39.120336 
L 821.818756 38.469864 
L 817.838586 38.861142 
L 813.858417 38.631304 
L 809.878247 38.815451 
L 805.898077 38.375344 
L 801.917907 39.256491 
L 797.937737 38.924564 
L 793.957567 38.623206 
L 789.977398 38.279877 
L 785.997228 38.492682 
L 782.017058 38.961767 
L 778.036888 38.276239 
L 774.056718 38.594004 
L 770.076548 39.981577 
L 766.096379 38.476318 
L 762.116209 38.325583 
L 758.136039 39.108237 
L 754.155869 38.603775 
L 750.175699 39.279183 
L 746.195529 38.323868 
L 742.21536 39.130915 
L 738.23519 38.385659 
L 734.25502 39.624171 
L 730.27485 38.537244 
L 726.29468 38.33527 
L 722.31451 38.469139 
L 718.334341 38.483287 
L 714.354171 38.361071 
L 710.374001 38.354617 
L 706.393831 38.484096 
L 702.413661 38.677135 
L 698.433492 39.281177 
L 694.453322 38.290596 
L 690.473152 39.524271 
L 686.492982 38.276295 
L 682.512812 38.887668 
L 678.532642 38.514064 
L 674.552473 38.937597 
L 670.572303 38.467885 
L 666.592133 38.488068 
L 662.611963 38.320969 
L 658.631793 38.618327 
L 654.651623 38.329374 
L 650.671454 38.7595 
L 646.691284 38.409913 
L 642.711114 38.456037 
L 638.730944 39.62148 
L 634.750774 38.557539 
L 630.770604 38.747276 
L 626.790435 40.68984 
L 622.810265 39.000726 
L 618.830095 38.232192 
L 614.849925 38.828135 
L 610.869755 38.531348 
L 606.889585 38.443227 
L 602.909416 38.634175 
L 598.929246 38.223661 
L 594.949076 38.740181 
L 590.968906 38.477921 
L 586.988736 38.394078 
L 583.008566 38.500962 
L 579.028397 39.192442 
L 575.048227 38.49731 
L 571.068057 39.197655 
L 567.087887 38.178458 
L 563.107717 39.174976 
L 559.127547 38.325401 
L 555.147378 38.326809 
L 551.167208 38.909887 
L 547.187038 38.384962 
L 543.206868 38.426138 
L 539.226698 38.554375 
L 535.246528 38.547364 
L 531.266359 38.410247 
L 527.286189 38.589055 
L 523.306019 38.442836 
L 519.325849 38.870872 
L 515.345679 38.394901 
L 511.365509 39.067981 
L 507.38534 38.709418 
L 503.40517 41.791834 
L 499.425 38.596736 
L 495.44483 38.329151 
L 491.46466 38.414513 
L 487.484491 38.490354 
L 483.504321 38.577179 
L 479.524151 39.361172 
L 475.543981 37.983202 
L 471.563811 38.674069 
L 467.583641 38.521549 
L 463.603472 38.398692 
L 459.623302 38.688119 
L 455.643132 38.395709 
L 451.662962 38.678055 
L 447.682792 38.182249 
L 443.702622 39.470815 
L 439.722453 39.936597 
L 435.742283 39.792232 
L 431.762113 38.419071 
L 427.781943 38.670612 
L 423.801773 38.337389 
L 419.821603 38.404588 
L 415.841434 38.422095 
L 411.861264 38.427671 
L 407.881094 38.382007 
L 403.900924 38.563282 
L 399.920754 39.029622 
L 395.940584 38.38262 
L 391.960415 38.608598 
L 387.980245 38.853685 
L 384.000075 37.998716 
L 380.019905 38.854535 
L 376.039735 38.590853 
L 372.059565 39.937461 
L 368.079396 38.703243 
L 364.099226 41.922037 
L 360.119056 39.475986 
L 356.138886 39.715596 
L 352.158716 39.064608 
L 348.178546 40.008117 
L 344.198377 39.56185 
L 340.218207 39.285191 
L 336.238037 41.483394 
L 332.257867 39.205865 
L 328.277697 40.722736 
L 324.297527 41.69652 
L 320.317358 38.5482 
L 316.337188 42.423419 
L 312.357018 40.995645 
L 308.376848 39.109756 
L 304.396678 40.746543 
L 300.416508 40.98172 
L 296.436339 40.27619 
L 292.456169 39.889037 
L 288.475999 42.777341 
L 284.495829 38.150664 
L 280.515659 41.773686 
L 276.53549 39.19548 
L 272.55532 40.717314 
L 268.57515 44.512077 
L 264.59498 42.395416 
L 260.61481 40.296415 
L 256.63464 42.66576 
L 252.654471 41.707866 
L 248.674301 44.268369 
L 244.694131 40.372549 
L 240.713961 41.331042 
L 236.733791 44.245342 
L 232.753621 40.741247 
L 228.773452 38.345167 
L 224.793282 38.450071 
L 220.813112 42.362032 
L 216.832942 39.348738 
L 212.852772 43.635572 
L 208.872602 46.838504 
L 204.892433 41.470863 
L 200.912263 43.73826 
L 196.932093 38.29928 
L 192.951923 39.446784 
L 188.971753 39.892578 
L 184.991583 39.182852 
L 181.011414 38.460664 
L 177.031244 39.99751 
L 173.051074 42.539948 
L 169.070904 38.875095 
L 165.090734 38.420283 
L 161.110564 40.659244 
L 157.130395 39.08981 
L 153.150225 42.057021 
L 149.170055 38.829403 
L 145.189885 39.502749 
L 141.209715 42.453652 
L 137.229545 39.606426 
z
" clip-path="url(#p483680093b)" style="fill: #ff7f0e"/>
   </g>
   <g id="matplotlib.axis_1">
    <g id="xtick_1">
     <g id="line2d_1">
      <path d="M 137.229545 331.64 
L 137.229545 23.76 
" clip-path="url(#p483680093b)" style="fill: none; stroke-dasharray: 5.12,1.28,0.8,1.28; stroke-dashoffset: 0; stroke: #b0b0b0; stroke-width: 0.8"/>
     </g>
     <g id="line2d_2">
      <defs>
       <path id="mcb9c2f5a87" d="M 0 0 
L 0 3.5 
" style="stroke: #000000; stroke-width: 0.8"/>
      </defs>
      <g>
       <use xlink:href="#mcb9c2f5a87" x="137.229545" y="331.64" style="stroke: #000000; stroke-width: 0.8"/>
      </g>
     </g>
     <g id="text_1">
      <!-- 0 -->
      <g transform="translate(130.230795 355.356563)scale(0.22 -0.22)">
       <defs>
        <path id="DejaVuSans-30" d="M 2034 4250 
Q 1547 4250 1301 3770 
Q 1056 3291 1056 2328 
Q 1056 1369 1301 889 
Q 1547 409 2034 409 
Q 2525 409 2770 889 
Q 3016 1369 3016 2328 
Q 3016 3291 2770 3770 
Q 2525 4250 2034 4250 
z
M 2034 4750 
Q 2819 4750 3233 4129 
Q 3647 3509 3647 2328 
Q 3647 1150 3233 529 
Q 2819 -91 2034 -91 
Q 1250 -91 836 529 
Q 422 1150 422 2328 
Q 422 3509 836 4129 
Q 1250 4750 2034 4750 
z
" transform="scale(0.015625)"/>
       </defs>
       <use xlink:href="#DejaVuSans-30"/>
      </g>
     </g>
    </g>
    <g id="xtick_2">
     <g id="line2d_3">
      <path d="M 236.733791 331.64 
L 236.733791 23.76 
" clip-path="url(#p483680093b)" style="fill: none; stroke-dasharray: 5.12,1.28,0.8,1.28; stroke-dashoffset: 0; stroke: #b0b0b0; stroke-width: 0.8"/>
     </g>
     <g id="line2d_4">
      <g>
       <use xlink:href="#mcb9c2f5a87" x="236.733791" y="331.64" style="stroke: #000000; stroke-width: 0.8"/>
      </g>
     </g>
     <g id="text_2">
      <!-- 25 -->
      <g transform="translate(222.736291 355.356563)scale(0.22 -0.22)">
       <defs>
        <path id="DejaVuSans-32" d="M 1228 531 
L 3431 531 
L 3431 0 
L 469 0 
L 469 531 
Q 828 903 1448 1529 
Q 2069 2156 2228 2338 
Q 2531 2678 2651 2914 
Q 2772 3150 2772 3378 
Q 2772 3750 2511 3984 
Q 2250 4219 1831 4219 
Q 1534 4219 1204 4116 
Q 875 4013 500 3803 
L 500 4441 
Q 881 4594 1212 4672 
Q 1544 4750 1819 4750 
Q 2544 4750 2975 4387 
Q 3406 4025 3406 3419 
Q 3406 3131 3298 2873 
Q 3191 2616 2906 2266 
Q 2828 2175 2409 1742 
Q 1991 1309 1228 531 
z
" transform="scale(0.015625)"/>
        <path id="DejaVuSans-35" d="M 691 4666 
L 3169 4666 
L 3169 4134 
L 1269 4134 
L 1269 2991 
Q 1406 3038 1543 3061 
Q 1681 3084 1819 3084 
Q 2600 3084 3056 2656 
Q 3513 2228 3513 1497 
Q 3513 744 3044 326 
Q 2575 -91 1722 -91 
Q 1428 -91 1123 -41 
Q 819 9 494 109 
L 494 744 
Q 775 591 1075 516 
Q 1375 441 1709 441 
Q 2250 441 2565 725 
Q 2881 1009 2881 1497 
Q 2881 1984 2565 2268 
Q 2250 2553 1709 2553 
Q 1456 2553 1204 2497 
Q 953 2441 691 2322 
L 691 4666 
z
" transform="scale(0.015625)"/>
       </defs>
       <use xlink:href="#DejaVuSans-32"/>
       <use xlink:href="#DejaVuSans-35" x="63.623047"/>
      </g>
     </g>
    </g>
    <g id="xtick_3">
     <g id="line2d_5">
      <path d="M 336.238037 331.64 
L 336.238037 23.76 
" clip-path="url(#p483680093b)" style="fill: none; stroke-dasharray: 5.12,1.28,0.8,1.28; stroke-dashoffset: 0; stroke: #b0b0b0; stroke-width: 0.8"/>
     </g>
     <g id="line2d_6">
      <g>
       <use xlink:href="#mcb9c2f5a87" x="336.238037" y="331.64" style="stroke: #000000; stroke-width: 0.8"/>
      </g>
     </g>
     <g id="text_3">
      <!-- 50 -->
      <g transform="translate(322.240537 355.356563)scale(0.22 -0.22)">
       <use xlink:href="#DejaVuSans-35"/>
       <use xlink:href="#DejaVuSans-30" x="63.623047"/>
      </g>
     </g>
    </g>
    <g id="xtick_4">
     <g id="line2d_7">
      <path d="M 435.742283 331.64 
L 435.742283 23.76 
" clip-path="url(#p483680093b)" style="fill: none; stroke-dasharray: 5.12,1.28,0.8,1.28; stroke-dashoffset: 0; stroke: #b0b0b0; stroke-width: 0.8"/>
     </g>
     <g id="line2d_8">
      <g>
       <use xlink:href="#mcb9c2f5a87" x="435.742283" y="331.64" style="stroke: #000000; stroke-width: 0.8"/>
      </g>
     </g>
     <g id="text_4">
      <!-- 75 -->
      <g transform="translate(421.744783 355.356563)scale(0.22 -0.22)">
       <defs>
        <path id="DejaVuSans-37" d="M 525 4666 
L 3525 4666 
L 3525 4397 
L 1831 0 
L 1172 0 
L 2766 4134 
L 525 4134 
L 525 4666 
z
" transform="scale(0.015625)"/>
       </defs>
       <use xlink:href="#DejaVuSans-37"/>
       <use xlink:href="#DejaVuSans-35" x="63.623047"/>
      </g>
     </g>
    </g>
    <g id="xtick_5">
     <g id="line2d_9">
      <path d="M 535.246528 331.64 
L 535.246528 23.76 
" clip-path="url(#p483680093b)" style="fill: none; stroke-dasharray: 5.12,1.28,0.8,1.28; stroke-dashoffset: 0; stroke: #b0b0b0; stroke-width: 0.8"/>
     </g>
     <g id="line2d_10">
      <g>
       <use xlink:href="#mcb9c2f5a87" x="535.246528" y="331.64" style="stroke: #000000; stroke-width: 0.8"/>
      </g>
     </g>
     <g id="text_5">
      <!-- 100 -->
      <g transform="translate(514.250278 355.356563)scale(0.22 -0.22)">
       <defs>
        <path id="DejaVuSans-31" d="M 794 531 
L 1825 531 
L 1825 4091 
L 703 3866 
L 703 4441 
L 1819 4666 
L 2450 4666 
L 2450 531 
L 3481 531 
L 3481 0 
L 794 0 
L 794 531 
z
" transform="scale(0.015625)"/>
       </defs>
       <use xlink:href="#DejaVuSans-31"/>
       <use xlink:href="#DejaVuSans-30" x="63.623047"/>
       <use xlink:href="#DejaVuSans-30" x="127.246094"/>
      </g>
     </g>
    </g>
    <g id="xtick_6">
     <g id="line2d_11">
      <path d="M 634.750774 331.64 
L 634.750774 23.76 
" clip-path="url(#p483680093b)" style="fill: none; stroke-dasharray: 5.12,1.28,0.8,1.28; stroke-dashoffset: 0; stroke: #b0b0b0; stroke-width: 0.8"/>
     </g>
     <g id="line2d_12">
      <g>
       <use xlink:href="#mcb9c2f5a87" x="634.750774" y="331.64" style="stroke: #000000; stroke-width: 0.8"/>
      </g>
     </g>
     <g id="text_6">
      <!-- 125 -->
      <g transform="translate(613.754524 355.356563)scale(0.22 -0.22)">
       <use xlink:href="#DejaVuSans-31"/>
       <use xlink:href="#DejaVuSans-32" x="63.623047"/>
       <use xlink:href="#DejaVuSans-35" x="127.246094"/>
      </g>
     </g>
    </g>
    <g id="xtick_7">
     <g id="line2d_13">
      <path d="M 734.25502 331.64 
L 734.25502 23.76 
" clip-path="url(#p483680093b)" style="fill: none; stroke-dasharray: 5.12,1.28,0.8,1.28; stroke-dashoffset: 0; stroke: #b0b0b0; stroke-width: 0.8"/>
     </g>
     <g id="line2d_14">
      <g>
       <use xlink:href="#mcb9c2f5a87" x="734.25502" y="331.64" style="stroke: #000000; stroke-width: 0.8"/>
      </g>
     </g>
     <g id="text_7">
      <!-- 150 -->
      <g transform="translate(713.25877 355.356563)scale(0.22 -0.22)">
       <use xlink:href="#DejaVuSans-31"/>
       <use xlink:href="#DejaVuSans-35" x="63.623047"/>
       <use xlink:href="#DejaVuSans-30" x="127.246094"/>
      </g>
     </g>
    </g>
    <g id="xtick_8">
     <g id="line2d_15">
      <path d="M 833.759266 331.64 
L 833.759266 23.76 
" clip-path="url(#p483680093b)" style="fill: none; stroke-dasharray: 5.12,1.28,0.8,1.28; stroke-dashoffset: 0; stroke: #b0b0b0; stroke-width: 0.8"/>
     </g>
     <g id="line2d_16">
      <g>
       <use xlink:href="#mcb9c2f5a87" x="833.759266" y="331.64" style="stroke: #000000; stroke-width: 0.8"/>
      </g>
     </g>
     <g id="text_8">
      <!-- 175 -->
      <g transform="translate(812.763016 355.356563)scale(0.22 -0.22)">
       <use xlink:href="#DejaVuSans-31"/>
       <use xlink:href="#DejaVuSans-37" x="63.623047"/>
       <use xlink:href="#DejaVuSans-35" x="127.246094"/>
      </g>
     </g>
    </g>
    <g id="text_9">
     <!-- Time (s) -->
     <g transform="translate(450.635625 382.168125)scale(0.24 -0.24)">
      <defs>
       <path id="DejaVuSans-54" d="M -19 4666 
L 3928 4666 
L 3928 4134 
L 2272 4134 
L 2272 0 
L 1638 0 
L 1638 4134 
L -19 4134 
L -19 4666 
z
" transform="scale(0.015625)"/>
       <path id="DejaVuSans-69" d="M 603 3500 
L 1178 3500 
L 1178 0 
L 603 0 
L 603 3500 
z
M 603 4863 
L 1178 4863 
L 1178 4134 
L 603 4134 
L 603 4863 
z
" transform="scale(0.015625)"/>
       <path id="DejaVuSans-6d" d="M 3328 2828 
Q 3544 3216 3844 3400 
Q 4144 3584 4550 3584 
Q 5097 3584 5394 3201 
Q 5691 2819 5691 2113 
L 5691 0 
L 5113 0 
L 5113 2094 
Q 5113 2597 4934 2840 
Q 4756 3084 4391 3084 
Q 3944 3084 3684 2787 
Q 3425 2491 3425 1978 
L 3425 0 
L 2847 0 
L 2847 2094 
Q 2847 2600 2669 2842 
Q 2491 3084 2119 3084 
Q 1678 3084 1418 2786 
Q 1159 2488 1159 1978 
L 1159 0 
L 581 0 
L 581 3500 
L 1159 3500 
L 1159 2956 
Q 1356 3278 1631 3431 
Q 1906 3584 2284 3584 
Q 2666 3584 2933 3390 
Q 3200 3197 3328 2828 
z
" transform="scale(0.015625)"/>
       <path id="DejaVuSans-65" d="M 3597 1894 
L 3597 1613 
L 953 1613 
Q 991 1019 1311 708 
Q 1631 397 2203 397 
Q 2534 397 2845 478 
Q 3156 559 3463 722 
L 3463 178 
Q 3153 47 2828 -22 
Q 2503 -91 2169 -91 
Q 1331 -91 842 396 
Q 353 884 353 1716 
Q 353 2575 817 3079 
Q 1281 3584 2069 3584 
Q 2775 3584 3186 3129 
Q 3597 2675 3597 1894 
z
M 3022 2063 
Q 3016 2534 2758 2815 
Q 2500 3097 2075 3097 
Q 1594 3097 1305 2825 
Q 1016 2553 972 2059 
L 3022 2063 
z
" transform="scale(0.015625)"/>
       <path id="DejaVuSans-20" transform="scale(0.015625)"/>
       <path id="DejaVuSans-28" d="M 1984 4856 
Q 1566 4138 1362 3434 
Q 1159 2731 1159 2009 
Q 1159 1288 1364 580 
Q 1569 -128 1984 -844 
L 1484 -844 
Q 1016 -109 783 600 
Q 550 1309 550 2009 
Q 550 2706 781 3412 
Q 1013 4119 1484 4856 
L 1984 4856 
z
" transform="scale(0.015625)"/>
       <path id="DejaVuSans-73" d="M 2834 3397 
L 2834 2853 
Q 2591 2978 2328 3040 
Q 2066 3103 1784 3103 
Q 1356 3103 1142 2972 
Q 928 2841 928 2578 
Q 928 2378 1081 2264 
Q 1234 2150 1697 2047 
L 1894 2003 
Q 2506 1872 2764 1633 
Q 3022 1394 3022 966 
Q 3022 478 2636 193 
Q 2250 -91 1575 -91 
Q 1294 -91 989 -36 
Q 684 19 347 128 
L 347 722 
Q 666 556 975 473 
Q 1284 391 1588 391 
Q 1994 391 2212 530 
Q 2431 669 2431 922 
Q 2431 1156 2273 1281 
Q 2116 1406 1581 1522 
L 1381 1569 
Q 847 1681 609 1914 
Q 372 2147 372 2553 
Q 372 3047 722 3315 
Q 1072 3584 1716 3584 
Q 2034 3584 2315 3537 
Q 2597 3491 2834 3397 
z
" transform="scale(0.015625)"/>
       <path id="DejaVuSans-29" d="M 513 4856 
L 1013 4856 
Q 1481 4119 1714 3412 
Q 1947 2706 1947 2009 
Q 1947 1309 1714 600 
Q 1481 -109 1013 -844 
L 513 -844 
Q 928 -128 1133 580 
Q 1338 1288 1338 2009 
Q 1338 2731 1133 3434 
Q 928 4138 513 4856 
z
" transform="scale(0.015625)"/>
      </defs>
      <use xlink:href="#DejaVuSans-54"/>
      <use xlink:href="#DejaVuSans-69" x="57.958984"/>
      <use xlink:href="#DejaVuSans-6d" x="85.742188"/>
      <use xlink:href="#DejaVuSans-65" x="183.154297"/>
      <use xlink:href="#DejaVuSans-20" x="244.677734"/>
      <use xlink:href="#DejaVuSans-28" x="276.464844"/>
      <use xlink:href="#DejaVuSans-73" x="315.478516"/>
      <use xlink:href="#DejaVuSans-29" x="367.578125"/>
     </g>
    </g>
   </g>
   <g id="matplotlib.axis_2">
    <g id="ytick_1">
     <g id="line2d_17">
      <path d="M 101.01 331.64 
L 897.84 331.64 
" clip-path="url(#p483680093b)" style="fill: none; stroke-dasharray: 5.12,1.28,0.8,1.28; stroke-dashoffset: 0; stroke: #b0b0b0; stroke-width: 0.8"/>
     </g>
     <g id="line2d_18">
      <defs>
       <path id="mc2b0a91c77" d="M 0 0 
L -3.5 0 
" style="stroke: #000000; stroke-width: 0.8"/>
      </defs>
      <g>
       <use xlink:href="#mc2b0a91c77" x="101.01" y="331.64" style="stroke: #000000; stroke-width: 0.8"/>
      </g>
     </g>
     <g id="text_10">
      <!-- 0 -->
      <g transform="translate(80.0125 339.998281)scale(0.22 -0.22)">
       <use xlink:href="#DejaVuSans-30"/>
      </g>
     </g>
    </g>
    <g id="ytick_2">
     <g id="line2d_19">
      <path d="M 101.01 244.521987 
L 897.84 244.521987 
" clip-path="url(#p483680093b)" style="fill: none; stroke-dasharray: 5.12,1.28,0.8,1.28; stroke-dashoffset: 0; stroke: #b0b0b0; stroke-width: 0.8"/>
     </g>
     <g id="line2d_20">
      <g>
       <use xlink:href="#mc2b0a91c77" x="101.01" y="244.521987" style="stroke: #000000; stroke-width: 0.8"/>
      </g>
     </g>
     <g id="text_11">
      <!-- 50 -->
      <g transform="translate(66.015 252.880268)scale(0.22 -0.22)">
       <use xlink:href="#DejaVuSans-35"/>
       <use xlink:href="#DejaVuSans-30" x="63.623047"/>
      </g>
     </g>
    </g>
    <g id="ytick_3">
     <g id="line2d_21">
      <path d="M 101.01 157.403974 
L 897.84 157.403974 
" clip-path="url(#p483680093b)" style="fill: none; stroke-dasharray: 5.12,1.28,0.8,1.28; stroke-dashoffset: 0; stroke: #b0b0b0; stroke-width: 0.8"/>
     </g>
     <g id="line2d_22">
      <g>
       <use xlink:href="#mc2b0a91c77" x="101.01" y="157.403974" style="stroke: #000000; stroke-width: 0.8"/>
      </g>
     </g>
     <g id="text_12">
      <!-- 100 -->
      <g transform="translate(52.0175 165.762256)scale(0.22 -0.22)">
       <use xlink:href="#DejaVuSans-31"/>
       <use xlink:href="#DejaVuSans-30" x="63.623047"/>
       <use xlink:href="#DejaVuSans-30" x="127.246094"/>
      </g>
     </g>
    </g>
    <g id="ytick_4">
     <g id="line2d_23">
      <path d="M 101.01 70.285962 
L 897.84 70.285962 
" clip-path="url(#p483680093b)" style="fill: none; stroke-dasharray: 5.12,1.28,0.8,1.28; stroke-dashoffset: 0; stroke: #b0b0b0; stroke-width: 0.8"/>
     </g>
     <g id="line2d_24">
      <g>
       <use xlink:href="#mc2b0a91c77" x="101.01" y="70.285962" style="stroke: #000000; stroke-width: 0.8"/>
      </g>
     </g>
     <g id="text_13">
      <!-- 150 -->
      <g transform="translate(52.0175 78.644243)scale(0.22 -0.22)">
       <use xlink:href="#DejaVuSans-31"/>
       <use xlink:href="#DejaVuSans-35" x="63.623047"/>
       <use xlink:href="#DejaVuSans-30" x="127.246094"/>
      </g>
     </g>
    </g>
    <g id="text_14">
     <!-- Throughput (Mbps) -->
     <g transform="translate(43.02625 292.414375)rotate(-90)scale(0.24 -0.24)">
      <defs>
       <path id="DejaVuSans-68" d="M 3513 2113 
L 3513 0 
L 2938 0 
L 2938 2094 
Q 2938 2591 2744 2837 
Q 2550 3084 2163 3084 
Q 1697 3084 1428 2787 
Q 1159 2491 1159 1978 
L 1159 0 
L 581 0 
L 581 4863 
L 1159 4863 
L 1159 2956 
Q 1366 3272 1645 3428 
Q 1925 3584 2291 3584 
Q 2894 3584 3203 3211 
Q 3513 2838 3513 2113 
z
" transform="scale(0.015625)"/>
       <path id="DejaVuSans-72" d="M 2631 2963 
Q 2534 3019 2420 3045 
Q 2306 3072 2169 3072 
Q 1681 3072 1420 2755 
Q 1159 2438 1159 1844 
L 1159 0 
L 581 0 
L 581 3500 
L 1159 3500 
L 1159 2956 
Q 1341 3275 1631 3429 
Q 1922 3584 2338 3584 
Q 2397 3584 2469 3576 
Q 2541 3569 2628 3553 
L 2631 2963 
z
" transform="scale(0.015625)"/>
       <path id="DejaVuSans-6f" d="M 1959 3097 
Q 1497 3097 1228 2736 
Q 959 2375 959 1747 
Q 959 1119 1226 758 
Q 1494 397 1959 397 
Q 2419 397 2687 759 
Q 2956 1122 2956 1747 
Q 2956 2369 2687 2733 
Q 2419 3097 1959 3097 
z
M 1959 3584 
Q 2709 3584 3137 3096 
Q 3566 2609 3566 1747 
Q 3566 888 3137 398 
Q 2709 -91 1959 -91 
Q 1206 -91 779 398 
Q 353 888 353 1747 
Q 353 2609 779 3096 
Q 1206 3584 1959 3584 
z
" transform="scale(0.015625)"/>
       <path id="DejaVuSans-75" d="M 544 1381 
L 544 3500 
L 1119 3500 
L 1119 1403 
Q 1119 906 1312 657 
Q 1506 409 1894 409 
Q 2359 409 2629 706 
Q 2900 1003 2900 1516 
L 2900 3500 
L 3475 3500 
L 3475 0 
L 2900 0 
L 2900 538 
Q 2691 219 2414 64 
Q 2138 -91 1772 -91 
Q 1169 -91 856 284 
Q 544 659 544 1381 
z
M 1991 3584 
L 1991 3584 
z
" transform="scale(0.015625)"/>
       <path id="DejaVuSans-67" d="M 2906 1791 
Q 2906 2416 2648 2759 
Q 2391 3103 1925 3103 
Q 1463 3103 1205 2759 
Q 947 2416 947 1791 
Q 947 1169 1205 825 
Q 1463 481 1925 481 
Q 2391 481 2648 825 
Q 2906 1169 2906 1791 
z
M 3481 434 
Q 3481 -459 3084 -895 
Q 2688 -1331 1869 -1331 
Q 1566 -1331 1297 -1286 
Q 1028 -1241 775 -1147 
L 775 -588 
Q 1028 -725 1275 -790 
Q 1522 -856 1778 -856 
Q 2344 -856 2625 -561 
Q 2906 -266 2906 331 
L 2906 616 
Q 2728 306 2450 153 
Q 2172 0 1784 0 
Q 1141 0 747 490 
Q 353 981 353 1791 
Q 353 2603 747 3093 
Q 1141 3584 1784 3584 
Q 2172 3584 2450 3431 
Q 2728 3278 2906 2969 
L 2906 3500 
L 3481 3500 
L 3481 434 
z
" transform="scale(0.015625)"/>
       <path id="DejaVuSans-70" d="M 1159 525 
L 1159 -1331 
L 581 -1331 
L 581 3500 
L 1159 3500 
L 1159 2969 
Q 1341 3281 1617 3432 
Q 1894 3584 2278 3584 
Q 2916 3584 3314 3078 
Q 3713 2572 3713 1747 
Q 3713 922 3314 415 
Q 2916 -91 2278 -91 
Q 1894 -91 1617 61 
Q 1341 213 1159 525 
z
M 3116 1747 
Q 3116 2381 2855 2742 
Q 2594 3103 2138 3103 
Q 1681 3103 1420 2742 
Q 1159 2381 1159 1747 
Q 1159 1113 1420 752 
Q 1681 391 2138 391 
Q 2594 391 2855 752 
Q 3116 1113 3116 1747 
z
" transform="scale(0.015625)"/>
       <path id="DejaVuSans-74" d="M 1172 4494 
L 1172 3500 
L 2356 3500 
L 2356 3053 
L 1172 3053 
L 1172 1153 
Q 1172 725 1289 603 
Q 1406 481 1766 481 
L 2356 481 
L 2356 0 
L 1766 0 
Q 1100 0 847 248 
Q 594 497 594 1153 
L 594 3053 
L 172 3053 
L 172 3500 
L 594 3500 
L 594 4494 
L 1172 4494 
z
" transform="scale(0.015625)"/>
       <path id="DejaVuSans-4d" d="M 628 4666 
L 1569 4666 
L 2759 1491 
L 3956 4666 
L 4897 4666 
L 4897 0 
L 4281 0 
L 4281 4097 
L 3078 897 
L 2444 897 
L 1241 4097 
L 1241 0 
L 628 0 
L 628 4666 
z
" transform="scale(0.015625)"/>
       <path id="DejaVuSans-62" d="M 3116 1747 
Q 3116 2381 2855 2742 
Q 2594 3103 2138 3103 
Q 1681 3103 1420 2742 
Q 1159 2381 1159 1747 
Q 1159 1113 1420 752 
Q 1681 391 2138 391 
Q 2594 391 2855 752 
Q 3116 1113 3116 1747 
z
M 1159 2969 
Q 1341 3281 1617 3432 
Q 1894 3584 2278 3584 
Q 2916 3584 3314 3078 
Q 3713 2572 3713 1747 
Q 3713 922 3314 415 
Q 2916 -91 2278 -91 
Q 1894 -91 1617 61 
Q 1341 213 1159 525 
L 1159 0 
L 581 0 
L 581 4863 
L 1159 4863 
L 1159 2969 
z
" transform="scale(0.015625)"/>
      </defs>
      <use xlink:href="#DejaVuSans-54"/>
      <use xlink:href="#DejaVuSans-68" x="61.083984"/>
      <use xlink:href="#DejaVuSans-72" x="124.462891"/>
      <use xlink:href="#DejaVuSans-6f" x="163.326172"/>
      <use xlink:href="#DejaVuSans-75" x="224.507812"/>
      <use xlink:href="#DejaVuSans-67" x="287.886719"/>
      <use xlink:href="#DejaVuSans-68" x="351.363281"/>
      <use xlink:href="#DejaVuSans-70" x="414.742188"/>
      <use xlink:href="#DejaVuSans-75" x="478.21875"/>
      <use xlink:href="#DejaVuSans-74" x="541.597656"/>
      <use xlink:href="#DejaVuSans-20" x="580.806641"/>
      <use xlink:href="#DejaVuSans-28" x="612.59375"/>
      <use xlink:href="#DejaVuSans-4d" x="651.607422"/>
      <use xlink:href="#DejaVuSans-62" x="737.886719"/>
      <use xlink:href="#DejaVuSans-70" x="801.363281"/>
      <use xlink:href="#DejaVuSans-73" x="864.839844"/>
      <use xlink:href="#DejaVuSans-29" x="916.939453"/>
     </g>
    </g>
   </g>
   <g id="patch_3">
    <path d="M 101.01 331.64 
L 101.01 23.76 
" style="fill: none; stroke: #000000; stroke-width: 0.8; stroke-linejoin: miter; stroke-linecap: square"/>
   </g>
   <g id="patch_4">
    <path d="M 897.84 331.64 
L 897.84 23.76 
" style="fill: none; stroke: #000000; stroke-width: 0.8; stroke-linejoin: miter; stroke-linecap: square"/>
   </g>
   <g id="patch_5">
    <path d="M 101.01 331.64 
L 897.84 331.64 
" style="fill: none; stroke: #000000; stroke-width: 0.8; stroke-linejoin: miter; stroke-linecap: square"/>
   </g>
   <g id="patch_6">
    <path d="M 101.01 23.76 
L 897.84 23.76 
" style="fill: none; stroke: #000000; stroke-width: 0.8; stroke-linejoin: miter; stroke-linecap: square"/>
   </g>
   <g id="legend_1">
    <g id="patch_7">
     <path d="M 756.24 113.415 
L 881.04 113.415 
Q 885.84 113.415 885.84 108.615 
L 885.84 40.56 
Q 885.84 35.76 881.04 35.76 
L 756.24 35.76 
Q 751.44 35.76 751.44 40.56 
L 751.44 108.615 
Q 751.44 113.415 756.24 113.415 
z
" style="fill: #ffffff; opacity: 0.8; stroke: #cccccc; stroke-linejoin: miter"/>
    </g>
    <g id="patch_8">
     <path d="M 761.04 63.59625 
L 809.04 63.59625 
L 809.04 46.79625 
L 761.04 46.79625 
z
" style="fill: #1f77b4"/>
    </g>
    <g id="text_15">
     <!-- UE1 -->
     <g transform="translate(828.24 63.59625)scale(0.24 -0.24)">
      <defs>
       <path id="DejaVuSans-55" d="M 556 4666 
L 1191 4666 
L 1191 1831 
Q 1191 1081 1462 751 
Q 1734 422 2344 422 
Q 2950 422 3222 751 
Q 3494 1081 3494 1831 
L 3494 4666 
L 4128 4666 
L 4128 1753 
Q 4128 841 3676 375 
Q 3225 -91 2344 -91 
Q 1459 -91 1007 375 
Q 556 841 556 1753 
L 556 4666 
z
" transform="scale(0.015625)"/>
       <path id="DejaVuSans-45" d="M 628 4666 
L 3578 4666 
L 3578 4134 
L 1259 4134 
L 1259 2753 
L 3481 2753 
L 3481 2222 
L 1259 2222 
L 1259 531 
L 3634 531 
L 3634 0 
L 628 0 
L 628 4666 
z
" transform="scale(0.015625)"/>
      </defs>
      <use xlink:href="#DejaVuSans-55"/>
      <use xlink:href="#DejaVuSans-45" x="73.193359"/>
      <use xlink:href="#DejaVuSans-31" x="136.376953"/>
     </g>
    </g>
    <g id="patch_9">
     <path d="M 761.04 98.82375 
L 809.04 98.82375 
L 809.04 82.02375 
L 761.04 82.02375 
z
" style="fill: #ff7f0e"/>
    </g>
    <g id="text_16">
     <!-- UE2 -->
     <g transform="translate(828.24 98.82375)scale(0.24 -0.24)">
      <use xlink:href="#DejaVuSans-55"/>
      <use xlink:href="#DejaVuSans-45" x="73.193359"/>
      <use xlink:href="#DejaVuSans-32" x="136.376953"/>
     </g>
    </g>
   </g>
  </g>
 </g>
 <defs>
  <clipPath id="p483680093b">
   <rect x="101.01" y="23.76" width="796.83" height="307.88"/>
  </clipPath>
 </defs>
</svg>
