<?xml version="1.0" encoding="utf-8" standalone="no"?>
<!DOCTYPE svg PUBLIC "-//W3C//DTD SVG 1.1//EN"
  "http://www.w3.org/Graphics/SVG/1.1/DTD/svg11.dtd">
<svg xmlns:xlink="http://www.w3.org/1999/xlink" width="921.6pt" height="410.4pt" viewBox="0 0 921.6 410.4" xmlns="http://www.w3.org/2000/svg" version="1.1">
 <metadata>
  <rdf:RDF xmlns:dc="http://purl.org/dc/elements/1.1/" xmlns:cc="http://creativecommons.org/ns#" xmlns:rdf="http://www.w3.org/1999/02/22-rdf-syntax-ns#">
   <cc:Work>
    <dc:type rdf:resource="http://purl.org/dc/dcmitype/StillImage"/>
    <dc:date>2023-04-11T17:40:59.257476</dc:date>
    <dc:format>image/svg+xml</dc:format>
    <dc:creator>
     <cc:Agent>
      <dc:title>Matplotlib v3.5.3, https://matplotlib.org/</dc:title>
     </cc:Agent>
    </dc:creator>
   </cc:Work>
  </rdf:RDF>
 </metadata>
 <defs>
  <style type="text/css">*{stroke-linejoin: round; stroke-linecap: butt}</style>
 </defs>
 <g id="figure_1">
  <g id="patch_1">
   <path d="M 0 410.4 
L 921.6 410.4 
L 921.6 0 
L 0 0 
L 0 410.4 
z
" style="fill: none"/>
  </g>
  <g id="axes_1">
   <g id="patch_2">
    <path d="M 108.01 331.64 
L 897.84 331.64 
L 897.84 23.76 
L 108.01 23.76 
z
" style="fill: #ffffff"/>
   </g>
   <g id="PolyCollection_1">
    <path d="M 143.911364 237.631506 
L 143.911364 331.64 
L 147.83501 331.64 
L 151.758656 331.64 
L 155.682303 331.64 
L 159.605949 331.64 
L 163.529595 331.64 
L 167.453241 331.64 
L 171.376888 331.64 
L 175.300534 331.64 
L 179.22418 331.64 
L 183.147827 331.64 
L 187.071473 331.64 
L 190.995119 331.64 
L 194.918766 331.64 
L 198.842412 331.64 
L 202.766058 331.64 
L 206.689704 331.64 
L 210.613351 331.64 
L 214.536997 331.64 
L 218.460643 331.64 
L 222.38429 331.64 
L 226.307936 331.64 
L 230.231582 331.64 
L 234.155229 331.64 
L 238.078875 331.64 
L 242.002521 331.64 
L 245.926167 331.64 
L 249.849814 331.64 
L 253.77346 331.64 
L 257.697106 331.64 
L 261.620753 331.64 
L 265.544399 331.64 
L 269.468045 331.64 
L 273.391692 331.64 
L 277.315338 331.64 
L 281.238984 331.64 
L 285.16263 331.64 
L 289.086277 331.64 
L 293.009923 331.64 
L 296.933569 331.64 
L 300.857216 331.64 
L 304.780862 331.64 
L 308.704508 331.64 
L 312.628154 331.64 
L 316.551801 331.64 
L 320.475447 331.64 
L 324.399093 331.64 
L 328.32274 331.64 
L 332.246386 331.64 
L 336.170032 331.64 
L 340.093679 331.64 
L 344.017325 331.64 
L 347.940971 331.64 
L 351.864617 331.64 
L 355.788264 331.64 
L 359.71191 331.64 
L 363.635556 331.64 
L 367.559203 331.64 
L 371.482849 331.64 
L 375.406495 331.64 
L 379.330142 331.64 
L 383.253788 331.64 
L 387.177434 331.64 
L 391.10108 331.64 
L 395.024727 331.64 
L 398.948373 331.64 
L 402.872019 331.64 
L 406.795666 331.64 
L 410.719312 331.64 
L 414.642958 331.64 
L 418.566605 331.64 
L 422.490251 331.64 
L 426.413897 331.64 
L 430.337543 331.64 
L 434.26119 331.64 
L 438.184836 331.64 
L 442.108482 331.64 
L 446.032129 331.64 
L 449.955775 331.64 
L 453.879421 331.64 
L 457.803068 331.64 
L 461.726714 331.64 
L 465.65036 331.64 
L 469.574006 331.64 
L 473.497653 331.64 
L 477.421299 331.64 
L 481.344945 331.64 
L 485.268592 331.64 
L 489.192238 331.64 
L 493.115884 331.64 
L 497.039531 331.64 
L 500.963177 331.64 
L 504.886823 331.64 
L 508.810469 331.64 
L 512.734116 331.64 
L 516.657762 331.64 
L 520.581408 331.64 
L 524.505055 331.64 
L 528.428701 331.64 
L 532.352347 331.64 
L 536.275994 331.64 
L 540.19964 331.64 
L 544.123286 331.64 
L 548.046932 331.64 
L 551.970579 331.64 
L 555.894225 331.64 
L 559.817871 331.64 
L 563.741518 331.64 
L 567.665164 331.64 
L 571.58881 331.64 
L 575.512457 331.64 
L 579.436103 331.64 
L 583.359749 331.64 
L 587.283395 331.64 
L 591.207042 331.64 
L 595.130688 331.64 
L 599.054334 331.64 
L 602.977981 331.64 
L 606.901627 331.64 
L 610.825273 331.64 
L 614.74892 331.64 
L 618.672566 331.64 
L 622.596212 331.64 
L 626.519858 331.64 
L 630.443505 331.64 
L 634.367151 331.64 
L 638.290797 331.64 
L 642.214444 331.64 
L 646.13809 331.64 
L 650.061736 331.64 
L 653.985383 331.64 
L 657.909029 331.64 
L 661.832675 331.64 
L 665.756321 331.64 
L 669.679968 331.64 
L 673.603614 331.64 
L 677.52726 331.64 
L 681.450907 331.64 
L 685.374553 331.64 
L 689.298199 331.64 
L 693.221846 331.64 
L 697.145492 331.64 
L 701.069138 331.64 
L 704.992784 331.64 
L 708.916431 331.64 
L 712.840077 331.64 
L 716.763723 331.64 
L 720.68737 331.64 
L 724.611016 331.64 
L 728.534662 331.64 
L 732.458308 331.64 
L 736.381955 331.64 
L 740.305601 331.64 
L 744.229247 331.64 
L 748.152894 331.64 
L 752.07654 331.64 
L 756.000186 331.64 
L 759.923833 331.64 
L 763.847479 331.64 
L 767.771125 331.64 
L 771.694771 331.64 
L 775.618418 331.64 
L 779.542064 331.64 
L 783.46571 331.64 
L 787.389357 331.64 
L 791.313003 331.64 
L 795.236649 331.64 
L 799.160296 331.64 
L 803.083942 331.64 
L 807.007588 331.64 
L 810.931234 331.64 
L 814.854881 331.64 
L 818.778527 331.64 
L 822.702173 331.64 
L 826.62582 331.64 
L 830.549466 331.64 
L 834.473112 331.64 
L 838.396759 331.64 
L 842.320405 331.64 
L 846.244051 331.64 
L 850.167697 331.64 
L 854.091344 331.64 
L 858.01499 331.64 
L 861.938636 331.64 
L 861.938636 331.64 
L 861.938636 331.64 
L 858.01499 237.649843 
L 854.091344 237.391471 
L 850.167697 237.017666 
L 846.244051 236.979639 
L 842.320405 236.545562 
L 838.396759 237.059901 
L 834.473112 236.491453 
L 830.549466 237.072978 
L 826.62582 237.566876 
L 822.702173 237.621436 
L 818.778527 237.517276 
L 814.854881 235.821098 
L 810.931234 236.869016 
L 807.007588 236.904187 
L 803.083942 237.007596 
L 799.160296 236.954989 
L 795.236649 237.17308 
L 791.313003 237.18796 
L 787.389357 237.442875 
L 783.46571 237.734615 
L 779.542064 237.240566 
L 775.618418 238.330719 
L 771.694771 238.653271 
L 767.771125 237.867032 
L 763.847479 237.282651 
L 759.923833 237.764675 
L 756.000186 236.19806 
L 752.07654 236.936803 
L 748.152894 237.327292 
L 744.229247 237.62324 
L 740.305601 236.758392 
L 736.381955 236.914257 
L 732.458308 237.280096 
L 728.534662 236.883295 
L 724.611016 237.183451 
L 720.68737 237.819987 
L 716.763723 236.976483 
L 712.840077 237.413716 
L 708.916431 237.674643 
L 704.992784 237.769635 
L 701.069138 238.316891 
L 697.145492 236.710746 
L 693.221846 236.834296 
L 689.298199 237.073729 
L 685.374553 237.289866 
L 681.450907 236.951683 
L 677.52726 237.207349 
L 673.603614 237.110704 
L 669.679968 237.824496 
L 665.756321 236.749825 
L 661.832675 237.226738 
L 657.909029 236.43088 
L 653.985383 237.101235 
L 650.061736 236.755536 
L 646.13809 236.111034 
L 642.214444 237.047576 
L 638.290797 237.233803 
L 634.367151 236.734494 
L 630.443505 237.632709 
L 626.519858 237.196227 
L 622.596212 237.260106 
L 618.672566 237.586866 
L 614.74892 236.783192 
L 610.825273 237.997796 
L 606.901627 237.452194 
L 602.977981 237.394477 
L 599.054334 236.575473 
L 595.130688 238.221448 
L 591.207042 236.856991 
L 587.283395 238.525513 
L 583.359749 236.652879 
L 579.436103 238.446152 
L 575.512457 237.493377 
L 571.58881 237.620985 
L 567.665164 237.097327 
L 563.741518 237.397934 
L 559.817871 238.010422 
L 555.894225 237.014209 
L 551.970579 236.645965 
L 548.046932 237.027586 
L 544.123286 237.893335 
L 540.19964 237.767231 
L 536.275994 237.754304 
L 532.352347 236.659492 
L 528.428701 237.708612 
L 524.505055 237.419728 
L 520.581408 236.35648 
L 516.657762 237.483006 
L 512.734116 237.241168 
L 508.810469 236.208431 
L 504.886823 235.914587 
L 500.963177 237.330749 
L 497.039531 236.172959 
L 493.115884 237.562066 
L 489.192238 236.534891 
L 485.268592 237.007596 
L 481.344945 236.807992 
L 477.421299 237.193672 
L 473.497653 236.099311 
L 469.574006 237.620684 
L 465.65036 236.028067 
L 461.726714 237.273182 
L 457.803068 235.922403 
L 453.879421 237.297832 
L 449.955775 236.66806 
L 446.032129 236.806489 
L 442.108482 237.745587 
L 438.184836 237.148581 
L 434.26119 236.425169 
L 430.337543 236.192799 
L 426.413897 236.773873 
L 422.490251 236.579982 
L 418.566605 237.851401 
L 414.642958 236.486192 
L 410.719312 236.532486 
L 406.795666 235.881821 
L 402.872019 236.189342 
L 398.948373 236.684894 
L 395.024727 236.114792 
L 391.10108 237.050733 
L 387.177434 236.365047 
L 383.253788 236.623269 
L 379.330142 236.20317 
L 375.406495 236.690154 
L 371.482849 237.037807 
L 367.559203 235.959227 
L 363.635556 237.926552 
L 359.71191 237.581756 
L 355.788264 235.885278 
L 351.864617 236.827682 
L 347.940971 237.453697 
L 344.017325 237.118971 
L 340.093679 236.481382 
L 336.170032 236.661446 
L 332.246386 236.200014 
L 328.32274 237.367122 
L 324.399093 236.399617 
L 320.475447 237.452795 
L 316.551801 237.041113 
L 312.628154 236.837302 
L 308.704508 237.127388 
L 304.780862 235.824104 
L 300.857216 236.115694 
L 296.933569 236.344756 
L 293.009923 237.21276 
L 289.086277 237.111756 
L 285.16263 235.88633 
L 281.238984 236.60373 
L 277.315338 235.519589 
L 273.391692 237.157448 
L 269.468045 237.127688 
L 265.544399 237.502546 
L 261.620753 235.160514 
L 257.697106 236.64356 
L 253.77346 236.868565 
L 249.849814 237.221929 
L 245.926167 236.722319 
L 242.002521 236.989559 
L 238.078875 236.085633 
L 234.155229 237.108149 
L 230.231582 236.62372 
L 226.307936 236.476422 
L 222.38429 236.03453 
L 218.460643 236.370007 
L 214.536997 236.898175 
L 210.613351 237.392223 
L 206.689704 236.748322 
L 202.766058 236.676326 
L 198.842412 236.547065 
L 194.918766 236.593359 
L 190.995119 237.716127 
L 187.071473 236.639953 
L 183.147827 237.154743 
L 179.22418 235.596394 
L 175.300534 237.706658 
L 171.376888 236.237139 
L 167.453241 236.921923 
L 163.529595 236.565102 
L 159.605949 237.802853 
L 155.682303 236.704583 
L 151.758656 236.840458 
L 147.83501 236.781088 
L 143.911364 237.631506 
z
" clip-path="url(#p11e4b856d6)" style="fill: #1f77b4"/>
   </g>
   <g id="PolyCollection_2">
    <path d="M 143.911364 140.72651 
L 143.911364 237.631506 
L 147.83501 236.781088 
L 151.758656 236.840458 
L 155.682303 236.704583 
L 159.605949 237.802853 
L 163.529595 236.565102 
L 167.453241 236.921923 
L 171.376888 236.237139 
L 175.300534 237.706658 
L 179.22418 235.596394 
L 183.147827 237.154743 
L 187.071473 236.639953 
L 190.995119 237.716127 
L 194.918766 236.593359 
L 198.842412 236.547065 
L 202.766058 236.676326 
L 206.689704 236.748322 
L 210.613351 237.392223 
L 214.536997 236.898175 
L 218.460643 236.370007 
L 222.38429 236.03453 
L 226.307936 236.476422 
L 230.231582 236.62372 
L 234.155229 237.108149 
L 238.078875 236.085633 
L 242.002521 236.989559 
L 245.926167 236.722319 
L 249.849814 237.221929 
L 253.77346 236.868565 
L 257.697106 236.64356 
L 261.620753 235.160514 
L 265.544399 237.502546 
L 269.468045 237.127688 
L 273.391692 237.157448 
L 277.315338 235.519589 
L 281.238984 236.60373 
L 285.16263 235.88633 
L 289.086277 237.111756 
L 293.009923 237.21276 
L 296.933569 236.344756 
L 300.857216 236.115694 
L 304.780862 235.824104 
L 308.704508 237.127388 
L 312.628154 236.837302 
L 316.551801 237.041113 
L 320.475447 237.452795 
L 324.399093 236.399617 
L 328.32274 237.367122 
L 332.246386 236.200014 
L 336.170032 236.661446 
L 340.093679 236.481382 
L 344.017325 237.118971 
L 347.940971 237.453697 
L 351.864617 236.827682 
L 355.788264 235.885278 
L 359.71191 237.581756 
L 363.635556 237.926552 
L 367.559203 235.959227 
L 371.482849 237.037807 
L 375.406495 236.690154 
L 379.330142 236.20317 
L 383.253788 236.623269 
L 387.177434 236.365047 
L 391.10108 237.050733 
L 395.024727 236.114792 
L 398.948373 236.684894 
L 402.872019 236.189342 
L 406.795666 235.881821 
L 410.719312 236.532486 
L 414.642958 236.486192 
L 418.566605 237.851401 
L 422.490251 236.579982 
L 426.413897 236.773873 
L 430.337543 236.192799 
L 434.26119 236.425169 
L 438.184836 237.148581 
L 442.108482 237.745587 
L 446.032129 236.806489 
L 449.955775 236.66806 
L 453.879421 237.297832 
L 457.803068 235.922403 
L 461.726714 237.273182 
L 465.65036 236.028067 
L 469.574006 237.620684 
L 473.497653 236.099311 
L 477.421299 237.193672 
L 481.344945 236.807992 
L 485.268592 237.007596 
L 489.192238 236.534891 
L 493.115884 237.562066 
L 497.039531 236.172959 
L 500.963177 237.330749 
L 504.886823 235.914587 
L 508.810469 236.208431 
L 512.734116 237.241168 
L 516.657762 237.483006 
L 520.581408 236.35648 
L 524.505055 237.419728 
L 528.428701 237.708612 
L 532.352347 236.659492 
L 536.275994 237.754304 
L 540.19964 237.767231 
L 544.123286 237.893335 
L 548.046932 237.027586 
L 551.970579 236.645965 
L 555.894225 237.014209 
L 559.817871 238.010422 
L 563.741518 237.397934 
L 567.665164 237.097327 
L 571.58881 237.620985 
L 575.512457 237.493377 
L 579.436103 238.446152 
L 583.359749 236.652879 
L 587.283395 238.525513 
L 591.207042 236.856991 
L 595.130688 238.221448 
L 599.054334 236.575473 
L 602.977981 237.394477 
L 606.901627 237.452194 
L 610.825273 237.997796 
L 614.74892 236.783192 
L 618.672566 237.586866 
L 622.596212 237.260106 
L 626.519858 237.196227 
L 630.443505 237.632709 
L 634.367151 236.734494 
L 638.290797 237.233803 
L 642.214444 237.047576 
L 646.13809 236.111034 
L 650.061736 236.755536 
L 653.985383 237.101235 
L 657.909029 236.43088 
L 661.832675 237.226738 
L 665.756321 236.749825 
L 669.679968 237.824496 
L 673.603614 237.110704 
L 677.52726 237.207349 
L 681.450907 236.951683 
L 685.374553 237.289866 
L 689.298199 237.073729 
L 693.221846 236.834296 
L 697.145492 236.710746 
L 701.069138 238.316891 
L 704.992784 237.769635 
L 708.916431 237.674643 
L 712.840077 237.413716 
L 716.763723 236.976483 
L 720.68737 237.819987 
L 724.611016 237.183451 
L 728.534662 236.883295 
L 732.458308 237.280096 
L 736.381955 236.914257 
L 740.305601 236.758392 
L 744.229247 237.62324 
L 748.152894 237.327292 
L 752.07654 236.936803 
L 756.000186 236.19806 
L 759.923833 237.764675 
L 763.847479 237.282651 
L 767.771125 237.867032 
L 771.694771 238.653271 
L 775.618418 238.330719 
L 779.542064 237.240566 
L 783.46571 237.734615 
L 787.389357 237.442875 
L 791.313003 237.18796 
L 795.236649 237.17308 
L 799.160296 236.954989 
L 803.083942 237.007596 
L 807.007588 236.904187 
L 810.931234 236.869016 
L 814.854881 235.821098 
L 818.778527 237.517276 
L 822.702173 237.621436 
L 826.62582 237.566876 
L 830.549466 237.072978 
L 834.473112 236.491453 
L 838.396759 237.059901 
L 842.320405 236.545562 
L 846.244051 236.979639 
L 850.167697 237.017666 
L 854.091344 237.391471 
L 858.01499 237.649843 
L 861.938636 331.64 
L 861.938636 237.87605 
L 861.938636 237.87605 
L 858.01499 142.778757 
L 854.091344 143.139786 
L 850.167697 140.772804 
L 846.244051 142.786422 
L 842.320405 140.709376 
L 838.396759 142.005444 
L 834.473112 141.348016 
L 830.549466 141.831242 
L 826.62582 142.209557 
L 822.702173 142.92365 
L 818.778527 141.966365 
L 814.854881 140.099594 
L 810.931234 140.911684 
L 807.007588 142.601248 
L 803.083942 140.87997 
L 799.160296 142.337465 
L 795.236649 142.207152 
L 791.313003 142.828958 
L 787.389357 142.841584 
L 783.46571 142.987679 
L 779.542064 142.138463 
L 775.618418 146.063794 
L 771.694771 143.634586 
L 767.771125 143.539895 
L 763.847479 142.796192 
L 759.923833 142.555706 
L 756.000186 141.352826 
L 752.07654 141.679285 
L 748.152894 141.219807 
L 744.229247 143.82442 
L 740.305601 141.328927 
L 736.381955 142.649496 
L 732.458308 141.971325 
L 728.534662 141.950283 
L 724.611016 141.715358 
L 720.68737 144.015756 
L 716.763723 142.048431 
L 712.840077 142.71127 
L 708.916431 144.255641 
L 704.992784 142.338818 
L 701.069138 146.029525 
L 697.145492 140.838787 
L 693.221846 141.862656 
L 689.298199 142.341674 
L 685.374553 141.308636 
L 681.450907 141.991466 
L 677.52726 141.935253 
L 673.603614 142.608613 
L 669.679968 143.412888 
L 665.756321 141.326673 
L 661.832675 142.768386 
L 657.909029 139.745478 
L 653.985383 142.612521 
L 650.061736 141.338397 
L 646.13809 139.403537 
L 642.214444 142.209557 
L 638.290797 143.100557 
L 634.367151 140.816843 
L 630.443505 142.546688 
L 626.519858 142.833167 
L 622.596212 142.209557 
L 618.672566 143.024954 
L 614.74892 141.443158 
L 610.825273 143.618203 
L 606.901627 142.495735 
L 602.977981 143.587842 
L 599.054334 141.98335 
L 595.130688 143.796313 
L 591.207042 142.22594 
L 587.283395 143.977278 
L 583.359749 141.459391 
L 579.436103 144.588413 
L 575.512457 143.231472 
L 571.58881 143.60678 
L 567.665164 142.605006 
L 563.741518 142.789729 
L 559.817871 143.53283 
L 555.894225 141.499222 
L 551.970579 142.20625 
L 548.046932 141.686199 
L 544.123286 143.591299 
L 540.19964 143.078162 
L 536.275994 143.293246 
L 532.352347 139.603892 
L 528.428701 141.073411 
L 524.505055 140.421544 
L 520.581408 137.810468 
L 516.657762 141.042449 
L 512.734116 140.290028 
L 508.810469 137.927405 
L 504.886823 137.859016 
L 500.963177 140.779868 
L 497.039531 138.293544 
L 493.115884 141.492608 
L 489.192238 139.638612 
L 485.268592 139.34567 
L 481.344945 139.744426 
L 477.421299 139.718574 
L 473.497653 138.452265 
L 469.574006 140.344739 
L 465.65036 137.696989 
L 461.726714 141.304879 
L 457.803068 137.944239 
L 453.879421 140.093281 
L 449.955775 140.057058 
L 446.032129 139.085344 
L 442.108482 141.668764 
L 438.184836 139.471024 
L 434.26119 137.832563 
L 430.337543 138.727922 
L 426.413897 139.00388 
L 422.490251 139.567969 
L 418.566605 141.507338 
L 414.642958 138.300909 
L 410.719312 138.653522 
L 406.795666 138.292192 
L 402.872019 138.084322 
L 398.948373 139.192661 
L 395.024727 138.273704 
L 391.10108 139.311702 
L 387.177434 137.89539 
L 383.253788 139.14742 
L 379.330142 138.038329 
L 375.406495 139.308094 
L 371.482849 139.70685 
L 367.559203 138.003458 
L 363.635556 141.685598 
L 359.71191 141.568662 
L 355.788264 136.371611 
L 351.864617 140.780018 
L 347.940971 140.282814 
L 344.017325 139.267212 
L 340.093679 139.495072 
L 336.170032 139.081737 
L 332.246386 138.115435 
L 328.32274 140.861633 
L 324.399093 139.109393 
L 320.475447 140.304608 
L 316.551801 140.595145 
L 312.628154 139.757953 
L 308.704508 139.608101 
L 304.780862 136.980191 
L 300.857216 138.203362 
L 296.933569 137.738473 
L 293.009923 141.608492 
L 289.086277 139.044762 
L 285.16263 137.141467 
L 281.238984 139.06851 
L 277.315338 136.571365 
L 273.391692 140.914991 
L 269.468045 139.735408 
L 265.544399 140.007006 
L 261.620753 136.278874 
L 257.697106 139.111347 
L 253.77346 139.72669 
L 249.849814 139.937867 
L 245.926167 138.933838 
L 242.002521 140.291231 
L 238.078875 137.207901 
L 234.155229 140.628663 
L 230.231582 138.545453 
L 226.307936 139.080835 
L 222.38429 136.760297 
L 218.460643 138.597909 
L 214.536997 139.993028 
L 210.613351 140.475653 
L 206.689704 139.260448 
L 202.766058 138.787743 
L 198.842412 139.828596 
L 194.918766 137.995793 
L 190.995119 142.07759 
L 187.071473 139.165156 
L 183.147827 140.215327 
L 179.22418 137.223382 
L 175.300534 141.965313 
L 171.376888 137.929659 
L 167.453241 138.990653 
L 163.529595 139.014251 
L 159.605949 141.140146 
L 155.682303 138.932485 
L 151.758656 138.763694 
L 147.83501 140.390582 
L 143.911364 140.72651 
z
" clip-path="url(#p11e4b856d6)" style="fill: #ff7f0e"/>
   </g>
   <g id="PolyCollection_3">
    <path d="M 143.911364 45.281715 
L 143.911364 140.72651 
L 147.83501 140.390582 
L 151.758656 138.763694 
L 155.682303 138.932485 
L 159.605949 141.140146 
L 163.529595 139.014251 
L 167.453241 138.990653 
L 171.376888 137.929659 
L 175.300534 141.965313 
L 179.22418 137.223382 
L 183.147827 140.215327 
L 187.071473 139.165156 
L 190.995119 142.07759 
L 194.918766 137.995793 
L 198.842412 139.828596 
L 202.766058 138.787743 
L 206.689704 139.260448 
L 210.613351 140.475653 
L 214.536997 139.993028 
L 218.460643 138.597909 
L 222.38429 136.760297 
L 226.307936 139.080835 
L 230.231582 138.545453 
L 234.155229 140.628663 
L 238.078875 137.207901 
L 242.002521 140.291231 
L 245.926167 138.933838 
L 249.849814 139.937867 
L 253.77346 139.72669 
L 257.697106 139.111347 
L 261.620753 136.278874 
L 265.544399 140.007006 
L 269.468045 139.735408 
L 273.391692 140.914991 
L 277.315338 136.571365 
L 281.238984 139.06851 
L 285.16263 137.141467 
L 289.086277 139.044762 
L 293.009923 141.608492 
L 296.933569 137.738473 
L 300.857216 138.203362 
L 304.780862 136.980191 
L 308.704508 139.608101 
L 312.628154 139.757953 
L 316.551801 140.595145 
L 320.475447 140.304608 
L 324.399093 139.109393 
L 328.32274 140.861633 
L 332.246386 138.115435 
L 336.170032 139.081737 
L 340.093679 139.495072 
L 344.017325 139.267212 
L 347.940971 140.282814 
L 351.864617 140.780018 
L 355.788264 136.371611 
L 359.71191 141.568662 
L 363.635556 141.685598 
L 367.559203 138.003458 
L 371.482849 139.70685 
L 375.406495 139.308094 
L 379.330142 138.038329 
L 383.253788 139.14742 
L 387.177434 137.89539 
L 391.10108 139.311702 
L 395.024727 138.273704 
L 398.948373 139.192661 
L 402.872019 138.084322 
L 406.795666 138.292192 
L 410.719312 138.653522 
L 414.642958 138.300909 
L 418.566605 141.507338 
L 422.490251 139.567969 
L 426.413897 139.00388 
L 430.337543 138.727922 
L 434.26119 137.832563 
L 438.184836 139.471024 
L 442.108482 141.668764 
L 446.032129 139.085344 
L 449.955775 140.057058 
L 453.879421 140.093281 
L 457.803068 137.944239 
L 461.726714 141.304879 
L 465.65036 137.696989 
L 469.574006 140.344739 
L 473.497653 138.452265 
L 477.421299 139.718574 
L 481.344945 139.744426 
L 485.268592 139.34567 
L 489.192238 139.638612 
L 493.115884 141.492608 
L 497.039531 138.293544 
L 500.963177 140.779868 
L 504.886823 137.859016 
L 508.810469 137.927405 
L 512.734116 140.290028 
L 516.657762 141.042449 
L 520.581408 137.810468 
L 524.505055 140.421544 
L 528.428701 141.073411 
L 532.352347 139.603892 
L 536.275994 143.293246 
L 540.19964 143.078162 
L 544.123286 143.591299 
L 548.046932 141.686199 
L 551.970579 142.20625 
L 555.894225 141.499222 
L 559.817871 143.53283 
L 563.741518 142.789729 
L 567.665164 142.605006 
L 571.58881 143.60678 
L 575.512457 143.231472 
L 579.436103 144.588413 
L 583.359749 141.459391 
L 587.283395 143.977278 
L 591.207042 142.22594 
L 595.130688 143.796313 
L 599.054334 141.98335 
L 602.977981 143.587842 
L 606.901627 142.495735 
L 610.825273 143.618203 
L 614.74892 141.443158 
L 618.672566 143.024954 
L 622.596212 142.209557 
L 626.519858 142.833167 
L 630.443505 142.546688 
L 634.367151 140.816843 
L 638.290797 143.100557 
L 642.214444 142.209557 
L 646.13809 139.403537 
L 650.061736 141.338397 
L 653.985383 142.612521 
L 657.909029 139.745478 
L 661.832675 142.768386 
L 665.756321 141.326673 
L 669.679968 143.412888 
L 673.603614 142.608613 
L 677.52726 141.935253 
L 681.450907 141.991466 
L 685.374553 141.308636 
L 689.298199 142.341674 
L 693.221846 141.862656 
L 697.145492 140.838787 
L 701.069138 146.029525 
L 704.992784 142.338818 
L 708.916431 144.255641 
L 712.840077 142.71127 
L 716.763723 142.048431 
L 720.68737 144.015756 
L 724.611016 141.715358 
L 728.534662 141.950283 
L 732.458308 141.971325 
L 736.381955 142.649496 
L 740.305601 141.328927 
L 744.229247 143.82442 
L 748.152894 141.219807 
L 752.07654 141.679285 
L 756.000186 141.352826 
L 759.923833 142.555706 
L 763.847479 142.796192 
L 767.771125 143.539895 
L 771.694771 143.634586 
L 775.618418 146.063794 
L 779.542064 142.138463 
L 783.46571 142.987679 
L 787.389357 142.841584 
L 791.313003 142.828958 
L 795.236649 142.207152 
L 799.160296 142.337465 
L 803.083942 140.87997 
L 807.007588 142.601248 
L 810.931234 140.911684 
L 814.854881 140.099594 
L 818.778527 141.966365 
L 822.702173 142.92365 
L 826.62582 142.209557 
L 830.549466 141.831242 
L 834.473112 141.348016 
L 838.396759 142.005444 
L 842.320405 140.709376 
L 846.244051 142.786422 
L 850.167697 140.772804 
L 854.091344 143.139786 
L 858.01499 142.778757 
L 861.938636 237.87605 
L 861.938636 237.87605 
L 861.938636 237.87605 
L 858.01499 49.193969 
L 854.091344 48.376618 
L 850.167697 46.621672 
L 846.244051 48.301767 
L 842.320405 46.311445 
L 838.396759 47.037111 
L 834.473112 46.064496 
L 830.549466 47.261214 
L 826.62582 47.985678 
L 822.702173 49.651343 
L 818.778527 47.142925 
L 814.854881 45.144487 
L 810.931234 45.746003 
L 807.007588 47.8483 
L 803.083942 46.423121 
L 799.160296 47.628105 
L 795.236649 48.427721 
L 791.313003 48.629278 
L 787.389357 47.9717 
L 783.46571 49.143317 
L 779.542064 47.901808 
L 775.618418 52.417232 
L 771.694771 51.879596 
L 767.771125 48.659339 
L 763.847479 48.925978 
L 759.923833 48.0461 
L 756.000186 47.05109 
L 752.07654 47.192826 
L 748.152894 46.589056 
L 744.229247 49.803451 
L 740.305601 47.399493 
L 736.381955 48.053014 
L 732.458308 47.527252 
L 728.534662 47.357258 
L 724.611016 46.929644 
L 720.68737 49.68907 
L 716.763723 48.032573 
L 712.840077 49.067714 
L 708.916431 49.767678 
L 704.992784 48.999777 
L 701.069138 52.54514 
L 697.145492 48.227667 
L 693.221846 46.761755 
L 689.298199 47.723248 
L 685.374553 46.445366 
L 681.450907 46.929644 
L 677.52726 48.196404 
L 673.603614 47.863481 
L 669.679968 49.948494 
L 665.756321 46.470316 
L 661.832675 48.550519 
L 657.909029 44.931958 
L 653.985383 48.235483 
L 650.061736 46.548173 
L 646.13809 43.519253 
L 642.214444 46.832247 
L 638.290797 50.076853 
L 634.367151 45.806575 
L 630.443505 48.406979 
L 626.519858 48.192345 
L 622.596212 47.865886 
L 618.672566 49.252287 
L 614.74892 46.030527 
L 610.825273 50.034918 
L 606.901627 47.295784 
L 602.977981 49.231545 
L 599.054334 47.890085 
L 595.130688 50.145692 
L 591.207042 48.057824 
L 587.283395 49.646083 
L 583.359749 47.790584 
L 579.436103 50.476961 
L 575.512457 48.537142 
L 571.58881 49.965929 
L 567.665164 48.249461 
L 563.741518 49.250634 
L 559.817871 48.891708 
L 555.894225 47.166372 
L 551.970579 47.450897 
L 548.046932 47.297287 
L 544.123286 48.895316 
L 540.19964 49.948945 
L 536.275994 48.801226 
L 532.352347 44.821785 
L 528.428701 44.866726 
L 524.505055 44.128284 
L 520.581408 41.16655 
L 516.657762 43.865703 
L 512.734116 45.032511 
L 508.810469 41.647672 
L 504.886823 40.481616 
L 500.963177 43.951978 
L 497.039531 41.926485 
L 493.115884 45.437579 
L 489.192238 43.204668 
L 485.268592 43.25502 
L 481.344945 43.182122 
L 477.421299 43.531428 
L 473.497653 42.367025 
L 469.574006 43.535486 
L 465.65036 41.002268 
L 461.726714 45.101951 
L 457.803068 40.852716 
L 453.879421 44.006839 
L 449.955775 43.767705 
L 446.032129 43.18588 
L 442.108482 45.529716 
L 438.184836 43.247204 
L 434.26119 40.445844 
L 430.337543 42.382507 
L 426.413897 42.567681 
L 422.490251 42.286312 
L 418.566605 46.122964 
L 414.642958 42.075436 
L 410.719312 41.282284 
L 406.795666 41.808798 
L 402.872019 41.829389 
L 398.948373 41.779037 
L 395.024727 41.76055 
L 391.10108 43.332576 
L 387.177434 40.806122 
L 383.253788 42.131199 
L 379.330142 41.664205 
L 375.406495 42.800652 
L 371.482849 43.504674 
L 367.559203 41.398168 
L 363.635556 45.631321 
L 359.71191 44.788869 
L 355.788264 41.051117 
L 351.864617 44.25484 
L 347.940971 43.582381 
L 344.017325 43.020396 
L 340.093679 42.884671 
L 336.170032 42.071228 
L 332.246386 42.280751 
L 328.32274 44.45309 
L 324.399093 42.169677 
L 320.475447 44.505847 
L 316.551801 44.181642 
L 312.628154 43.24555 
L 308.704508 43.069244 
L 304.780862 39.523129 
L 300.857216 41.722072 
L 296.933569 41.133934 
L 293.009923 44.631501 
L 289.086277 43.495205 
L 285.16263 40.057008 
L 281.238984 41.937007 
L 277.315338 39.781201 
L 273.391692 44.015556 
L 269.468045 43.68098 
L 265.544399 43.033472 
L 261.620753 38.801371 
L 257.697106 41.655638 
L 253.77346 43.692854 
L 249.849814 43.851425 
L 245.926167 41.887106 
L 242.002521 44.093414 
L 238.078875 39.967427 
L 234.155229 44.360804 
L 230.231582 41.885452 
L 226.307936 42.085056 
L 222.38429 40.842946 
L 218.460643 41.073812 
L 214.536997 43.656631 
L 210.613351 44.713116 
L 206.689704 42.288867 
L 202.766058 42.904511 
L 198.842412 43.510386 
L 194.918766 41.441455 
L 190.995119 45.71489 
L 187.071473 43.126961 
L 183.147827 43.612742 
L 179.22418 40.646499 
L 175.300534 46.008583 
L 171.376888 41.846674 
L 167.453241 42.402647 
L 163.529595 42.415573 
L 159.605949 45.431116 
L 155.682303 42.269929 
L 151.758656 42.023431 
L 147.83501 43.926576 
L 143.911364 45.281715 
z
" clip-path="url(#p11e4b856d6)" style="fill: #2ca02c"/>
   </g>
   <g id="matplotlib.axis_1">
    <g id="xtick_1">
     <g id="line2d_1">
      <path d="M 143.911364 331.64 
L 143.911364 23.76 
" clip-path="url(#p11e4b856d6)" style="fill: none; stroke-dasharray: 5.12,1.28,0.8,1.28; stroke-dashoffset: 0; stroke: #b0b0b0; stroke-width: 0.8"/>
     </g>
     <g id="line2d_2">
      <defs>
       <path id="m5b531459d8" d="M 0 0 
L 0 3.5 
" style="stroke: #000000; stroke-width: 0.8"/>
      </defs>
      <g>
       <use xlink:href="#m5b531459d8" x="143.911364" y="331.64" style="stroke: #000000; stroke-width: 0.8"/>
      </g>
     </g>
     <g id="text_1">
      <!-- 0 -->
      <g transform="translate(136.912614 355.356563)scale(0.22 -0.22)">
       <defs>
        <path id="DejaVuSans-30" d="M 2034 4250 
Q 1547 4250 1301 3770 
Q 1056 3291 1056 2328 
Q 1056 1369 1301 889 
Q 1547 409 2034 409 
Q 2525 409 2770 889 
Q 3016 1369 3016 2328 
Q 3016 3291 2770 3770 
Q 2525 4250 2034 4250 
z
M 2034 4750 
Q 2819 4750 3233 4129 
Q 3647 3509 3647 2328 
Q 3647 1150 3233 529 
Q 2819 -91 2034 -91 
Q 1250 -91 836 529 
Q 422 1150 422 2328 
Q 422 3509 836 4129 
Q 1250 4750 2034 4750 
z
" transform="scale(0.015625)"/>
       </defs>
       <use xlink:href="#DejaVuSans-30"/>
      </g>
     </g>
    </g>
    <g id="xtick_2">
     <g id="line2d_3">
      <path d="M 242.002521 331.64 
L 242.002521 23.76 
" clip-path="url(#p11e4b856d6)" style="fill: none; stroke-dasharray: 5.12,1.28,0.8,1.28; stroke-dashoffset: 0; stroke: #b0b0b0; stroke-width: 0.8"/>
     </g>
     <g id="line2d_4">
      <g>
       <use xlink:href="#m5b531459d8" x="242.002521" y="331.64" style="stroke: #000000; stroke-width: 0.8"/>
      </g>
     </g>
     <g id="text_2">
      <!-- 25 -->
      <g transform="translate(228.005021 355.356563)scale(0.22 -0.22)">
       <defs>
        <path id="DejaVuSans-32" d="M 1228 531 
L 3431 531 
L 3431 0 
L 469 0 
L 469 531 
Q 828 903 1448 1529 
Q 2069 2156 2228 2338 
Q 2531 2678 2651 2914 
Q 2772 3150 2772 3378 
Q 2772 3750 2511 3984 
Q 2250 4219 1831 4219 
Q 1534 4219 1204 4116 
Q 875 4013 500 3803 
L 500 4441 
Q 881 4594 1212 4672 
Q 1544 4750 1819 4750 
Q 2544 4750 2975 4387 
Q 3406 4025 3406 3419 
Q 3406 3131 3298 2873 
Q 3191 2616 2906 2266 
Q 2828 2175 2409 1742 
Q 1991 1309 1228 531 
z
" transform="scale(0.015625)"/>
        <path id="DejaVuSans-35" d="M 691 4666 
L 3169 4666 
L 3169 4134 
L 1269 4134 
L 1269 2991 
Q 1406 3038 1543 3061 
Q 1681 3084 1819 3084 
Q 2600 3084 3056 2656 
Q 3513 2228 3513 1497 
Q 3513 744 3044 326 
Q 2575 -91 1722 -91 
Q 1428 -91 1123 -41 
Q 819 9 494 109 
L 494 744 
Q 775 591 1075 516 
Q 1375 441 1709 441 
Q 2250 441 2565 725 
Q 2881 1009 2881 1497 
Q 2881 1984 2565 2268 
Q 2250 2553 1709 2553 
Q 1456 2553 1204 2497 
Q 953 2441 691 2322 
L 691 4666 
z
" transform="scale(0.015625)"/>
       </defs>
       <use xlink:href="#DejaVuSans-32"/>
       <use xlink:href="#DejaVuSans-35" x="63.623047"/>
      </g>
     </g>
    </g>
    <g id="xtick_3">
     <g id="line2d_5">
      <path d="M 340.093679 331.64 
L 340.093679 23.76 
" clip-path="url(#p11e4b856d6)" style="fill: none; stroke-dasharray: 5.12,1.28,0.8,1.28; stroke-dashoffset: 0; stroke: #b0b0b0; stroke-width: 0.8"/>
     </g>
     <g id="line2d_6">
      <g>
       <use xlink:href="#m5b531459d8" x="340.093679" y="331.64" style="stroke: #000000; stroke-width: 0.8"/>
      </g>
     </g>
     <g id="text_3">
      <!-- 50 -->
      <g transform="translate(326.096179 355.356563)scale(0.22 -0.22)">
       <use xlink:href="#DejaVuSans-35"/>
       <use xlink:href="#DejaVuSans-30" x="63.623047"/>
      </g>
     </g>
    </g>
    <g id="xtick_4">
     <g id="line2d_7">
      <path d="M 438.184836 331.64 
L 438.184836 23.76 
" clip-path="url(#p11e4b856d6)" style="fill: none; stroke-dasharray: 5.12,1.28,0.8,1.28; stroke-dashoffset: 0; stroke: #b0b0b0; stroke-width: 0.8"/>
     </g>
     <g id="line2d_8">
      <g>
       <use xlink:href="#m5b531459d8" x="438.184836" y="331.64" style="stroke: #000000; stroke-width: 0.8"/>
      </g>
     </g>
     <g id="text_4">
      <!-- 75 -->
      <g transform="translate(424.187336 355.356563)scale(0.22 -0.22)">
       <defs>
        <path id="DejaVuSans-37" d="M 525 4666 
L 3525 4666 
L 3525 4397 
L 1831 0 
L 1172 0 
L 2766 4134 
L 525 4134 
L 525 4666 
z
" transform="scale(0.015625)"/>
       </defs>
       <use xlink:href="#DejaVuSans-37"/>
       <use xlink:href="#DejaVuSans-35" x="63.623047"/>
      </g>
     </g>
    </g>
    <g id="xtick_5">
     <g id="line2d_9">
      <path d="M 536.275994 331.64 
L 536.275994 23.76 
" clip-path="url(#p11e4b856d6)" style="fill: none; stroke-dasharray: 5.12,1.28,0.8,1.28; stroke-dashoffset: 0; stroke: #b0b0b0; stroke-width: 0.8"/>
     </g>
     <g id="line2d_10">
      <g>
       <use xlink:href="#m5b531459d8" x="536.275994" y="331.64" style="stroke: #000000; stroke-width: 0.8"/>
      </g>
     </g>
     <g id="text_5">
      <!-- 100 -->
      <g transform="translate(515.279744 355.356563)scale(0.22 -0.22)">
       <defs>
        <path id="DejaVuSans-31" d="M 794 531 
L 1825 531 
L 1825 4091 
L 703 3866 
L 703 4441 
L 1819 4666 
L 2450 4666 
L 2450 531 
L 3481 531 
L 3481 0 
L 794 0 
L 794 531 
z
" transform="scale(0.015625)"/>
       </defs>
       <use xlink:href="#DejaVuSans-31"/>
       <use xlink:href="#DejaVuSans-30" x="63.623047"/>
       <use xlink:href="#DejaVuSans-30" x="127.246094"/>
      </g>
     </g>
    </g>
    <g id="xtick_6">
     <g id="line2d_11">
      <path d="M 634.367151 331.64 
L 634.367151 23.76 
" clip-path="url(#p11e4b856d6)" style="fill: none; stroke-dasharray: 5.12,1.28,0.8,1.28; stroke-dashoffset: 0; stroke: #b0b0b0; stroke-width: 0.8"/>
     </g>
     <g id="line2d_12">
      <g>
       <use xlink:href="#m5b531459d8" x="634.367151" y="331.64" style="stroke: #000000; stroke-width: 0.8"/>
      </g>
     </g>
     <g id="text_6">
      <!-- 125 -->
      <g transform="translate(613.370901 355.356563)scale(0.22 -0.22)">
       <use xlink:href="#DejaVuSans-31"/>
       <use xlink:href="#DejaVuSans-32" x="63.623047"/>
       <use xlink:href="#DejaVuSans-35" x="127.246094"/>
      </g>
     </g>
    </g>
    <g id="xtick_7">
     <g id="line2d_13">
      <path d="M 732.458308 331.64 
L 732.458308 23.76 
" clip-path="url(#p11e4b856d6)" style="fill: none; stroke-dasharray: 5.12,1.28,0.8,1.28; stroke-dashoffset: 0; stroke: #b0b0b0; stroke-width: 0.8"/>
     </g>
     <g id="line2d_14">
      <g>
       <use xlink:href="#m5b531459d8" x="732.458308" y="331.64" style="stroke: #000000; stroke-width: 0.8"/>
      </g>
     </g>
     <g id="text_7">
      <!-- 150 -->
      <g transform="translate(711.462058 355.356563)scale(0.22 -0.22)">
       <use xlink:href="#DejaVuSans-31"/>
       <use xlink:href="#DejaVuSans-35" x="63.623047"/>
       <use xlink:href="#DejaVuSans-30" x="127.246094"/>
      </g>
     </g>
    </g>
    <g id="xtick_8">
     <g id="line2d_15">
      <path d="M 830.549466 331.64 
L 830.549466 23.76 
" clip-path="url(#p11e4b856d6)" style="fill: none; stroke-dasharray: 5.12,1.28,0.8,1.28; stroke-dashoffset: 0; stroke: #b0b0b0; stroke-width: 0.8"/>
     </g>
     <g id="line2d_16">
      <g>
       <use xlink:href="#m5b531459d8" x="830.549466" y="331.64" style="stroke: #000000; stroke-width: 0.8"/>
      </g>
     </g>
     <g id="text_8">
      <!-- 175 -->
      <g transform="translate(809.553216 355.356563)scale(0.22 -0.22)">
       <use xlink:href="#DejaVuSans-31"/>
       <use xlink:href="#DejaVuSans-37" x="63.623047"/>
       <use xlink:href="#DejaVuSans-35" x="127.246094"/>
      </g>
     </g>
    </g>
    <g id="text_9">
     <!-- Time (s) -->
     <g transform="translate(454.135625 382.168125)scale(0.24 -0.24)">
      <defs>
       <path id="DejaVuSans-54" d="M -19 4666 
L 3928 4666 
L 3928 4134 
L 2272 4134 
L 2272 0 
L 1638 0 
L 1638 4134 
L -19 4134 
L -19 4666 
z
" transform="scale(0.015625)"/>
       <path id="DejaVuSans-69" d="M 603 3500 
L 1178 3500 
L 1178 0 
L 603 0 
L 603 3500 
z
M 603 4863 
L 1178 4863 
L 1178 4134 
L 603 4134 
L 603 4863 
z
" transform="scale(0.015625)"/>
       <path id="DejaVuSans-6d" d="M 3328 2828 
Q 3544 3216 3844 3400 
Q 4144 3584 4550 3584 
Q 5097 3584 5394 3201 
Q 5691 2819 5691 2113 
L 5691 0 
L 5113 0 
L 5113 2094 
Q 5113 2597 4934 2840 
Q 4756 3084 4391 3084 
Q 3944 3084 3684 2787 
Q 3425 2491 3425 1978 
L 3425 0 
L 2847 0 
L 2847 2094 
Q 2847 2600 2669 2842 
Q 2491 3084 2119 3084 
Q 1678 3084 1418 2786 
Q 1159 2488 1159 1978 
L 1159 0 
L 581 0 
L 581 3500 
L 1159 3500 
L 1159 2956 
Q 1356 3278 1631 3431 
Q 1906 3584 2284 3584 
Q 2666 3584 2933 3390 
Q 3200 3197 3328 2828 
z
" transform="scale(0.015625)"/>
       <path id="DejaVuSans-65" d="M 3597 1894 
L 3597 1613 
L 953 1613 
Q 991 1019 1311 708 
Q 1631 397 2203 397 
Q 2534 397 2845 478 
Q 3156 559 3463 722 
L 3463 178 
Q 3153 47 2828 -22 
Q 2503 -91 2169 -91 
Q 1331 -91 842 396 
Q 353 884 353 1716 
Q 353 2575 817 3079 
Q 1281 3584 2069 3584 
Q 2775 3584 3186 3129 
Q 3597 2675 3597 1894 
z
M 3022 2063 
Q 3016 2534 2758 2815 
Q 2500 3097 2075 3097 
Q 1594 3097 1305 2825 
Q 1016 2553 972 2059 
L 3022 2063 
z
" transform="scale(0.015625)"/>
       <path id="DejaVuSans-20" transform="scale(0.015625)"/>
       <path id="DejaVuSans-28" d="M 1984 4856 
Q 1566 4138 1362 3434 
Q 1159 2731 1159 2009 
Q 1159 1288 1364 580 
Q 1569 -128 1984 -844 
L 1484 -844 
Q 1016 -109 783 600 
Q 550 1309 550 2009 
Q 550 2706 781 3412 
Q 1013 4119 1484 4856 
L 1984 4856 
z
" transform="scale(0.015625)"/>
       <path id="DejaVuSans-73" d="M 2834 3397 
L 2834 2853 
Q 2591 2978 2328 3040 
Q 2066 3103 1784 3103 
Q 1356 3103 1142 2972 
Q 928 2841 928 2578 
Q 928 2378 1081 2264 
Q 1234 2150 1697 2047 
L 1894 2003 
Q 2506 1872 2764 1633 
Q 3022 1394 3022 966 
Q 3022 478 2636 193 
Q 2250 -91 1575 -91 
Q 1294 -91 989 -36 
Q 684 19 347 128 
L 347 722 
Q 666 556 975 473 
Q 1284 391 1588 391 
Q 1994 391 2212 530 
Q 2431 669 2431 922 
Q 2431 1156 2273 1281 
Q 2116 1406 1581 1522 
L 1381 1569 
Q 847 1681 609 1914 
Q 372 2147 372 2553 
Q 372 3047 722 3315 
Q 1072 3584 1716 3584 
Q 2034 3584 2315 3537 
Q 2597 3491 2834 3397 
z
" transform="scale(0.015625)"/>
       <path id="DejaVuSans-29" d="M 513 4856 
L 1013 4856 
Q 1481 4119 1714 3412 
Q 1947 2706 1947 2009 
Q 1947 1309 1714 600 
Q 1481 -109 1013 -844 
L 513 -844 
Q 928 -128 1133 580 
Q 1338 1288 1338 2009 
Q 1338 2731 1133 3434 
Q 928 4138 513 4856 
z
" transform="scale(0.015625)"/>
      </defs>
      <use xlink:href="#DejaVuSans-54"/>
      <use xlink:href="#DejaVuSans-69" x="57.958984"/>
      <use xlink:href="#DejaVuSans-6d" x="85.742188"/>
      <use xlink:href="#DejaVuSans-65" x="183.154297"/>
      <use xlink:href="#DejaVuSans-20" x="244.677734"/>
      <use xlink:href="#DejaVuSans-28" x="276.464844"/>
      <use xlink:href="#DejaVuSans-73" x="315.478516"/>
      <use xlink:href="#DejaVuSans-29" x="367.578125"/>
     </g>
    </g>
   </g>
   <g id="matplotlib.axis_2">
    <g id="ytick_1">
     <g id="line2d_17">
      <path d="M 108.01 331.64 
L 897.84 331.64 
" clip-path="url(#p11e4b856d6)" style="fill: none; stroke-dasharray: 5.12,1.28,0.8,1.28; stroke-dashoffset: 0; stroke: #b0b0b0; stroke-width: 0.8"/>
     </g>
     <g id="line2d_18">
      <defs>
       <path id="mba5a3e87d0" d="M 0 0 
L -3.5 0 
" style="stroke: #000000; stroke-width: 0.8"/>
      </defs>
      <g>
       <use xlink:href="#mba5a3e87d0" x="108.01" y="331.64" style="stroke: #000000; stroke-width: 0.8"/>
      </g>
     </g>
     <g id="text_10">
      <!-- 0 -->
      <g transform="translate(87.0125 339.998281)scale(0.22 -0.22)">
       <use xlink:href="#DejaVuSans-30"/>
      </g>
     </g>
    </g>
    <g id="ytick_2">
     <g id="line2d_19">
      <path d="M 108.01 237.700195 
L 897.84 237.700195 
" clip-path="url(#p11e4b856d6)" style="fill: none; stroke-dasharray: 5.12,1.28,0.8,1.28; stroke-dashoffset: 0; stroke: #b0b0b0; stroke-width: 0.8"/>
     </g>
     <g id="line2d_20">
      <g>
       <use xlink:href="#mba5a3e87d0" x="108.01" y="237.700195" style="stroke: #000000; stroke-width: 0.8"/>
      </g>
     </g>
     <g id="text_11">
      <!-- 5 -->
      <g transform="translate(87.0125 246.058476)scale(0.22 -0.22)">
       <use xlink:href="#DejaVuSans-35"/>
      </g>
     </g>
    </g>
    <g id="ytick_3">
     <g id="line2d_21">
      <path d="M 108.01 143.76039 
L 897.84 143.76039 
" clip-path="url(#p11e4b856d6)" style="fill: none; stroke-dasharray: 5.12,1.28,0.8,1.28; stroke-dashoffset: 0; stroke: #b0b0b0; stroke-width: 0.8"/>
     </g>
     <g id="line2d_22">
      <g>
       <use xlink:href="#mba5a3e87d0" x="108.01" y="143.76039" style="stroke: #000000; stroke-width: 0.8"/>
      </g>
     </g>
     <g id="text_12">
      <!-- 10 -->
      <g transform="translate(73.015 152.118671)scale(0.22 -0.22)">
       <use xlink:href="#DejaVuSans-31"/>
       <use xlink:href="#DejaVuSans-30" x="63.623047"/>
      </g>
     </g>
    </g>
    <g id="ytick_4">
     <g id="line2d_23">
      <path d="M 108.01 49.820585 
L 897.84 49.820585 
" clip-path="url(#p11e4b856d6)" style="fill: none; stroke-dasharray: 5.12,1.28,0.8,1.28; stroke-dashoffset: 0; stroke: #b0b0b0; stroke-width: 0.8"/>
     </g>
     <g id="line2d_24">
      <g>
       <use xlink:href="#mba5a3e87d0" x="108.01" y="49.820585" style="stroke: #000000; stroke-width: 0.8"/>
      </g>
     </g>
     <g id="text_13">
      <!-- 15 -->
      <g transform="translate(73.015 58.178867)scale(0.22 -0.22)">
       <use xlink:href="#DejaVuSans-31"/>
       <use xlink:href="#DejaVuSans-35" x="63.623047"/>
      </g>
     </g>
    </g>
    <g id="text_14">
     <!-- Throughput (Mbps) -->
     <g transform="translate(64.02375 292.414375)rotate(-90)scale(0.24 -0.24)">
      <defs>
       <path id="DejaVuSans-68" d="M 3513 2113 
L 3513 0 
L 2938 0 
L 2938 2094 
Q 2938 2591 2744 2837 
Q 2550 3084 2163 3084 
Q 1697 3084 1428 2787 
Q 1159 2491 1159 1978 
L 1159 0 
L 581 0 
L 581 4863 
L 1159 4863 
L 1159 2956 
Q 1366 3272 1645 3428 
Q 1925 3584 2291 3584 
Q 2894 3584 3203 3211 
Q 3513 2838 3513 2113 
z
" transform="scale(0.015625)"/>
       <path id="DejaVuSans-72" d="M 2631 2963 
Q 2534 3019 2420 3045 
Q 2306 3072 2169 3072 
Q 1681 3072 1420 2755 
Q 1159 2438 1159 1844 
L 1159 0 
L 581 0 
L 581 3500 
L 1159 3500 
L 1159 2956 
Q 1341 3275 1631 3429 
Q 1922 3584 2338 3584 
Q 2397 3584 2469 3576 
Q 2541 3569 2628 3553 
L 2631 2963 
z
" transform="scale(0.015625)"/>
       <path id="DejaVuSans-6f" d="M 1959 3097 
Q 1497 3097 1228 2736 
Q 959 2375 959 1747 
Q 959 1119 1226 758 
Q 1494 397 1959 397 
Q 2419 397 2687 759 
Q 2956 1122 2956 1747 
Q 2956 2369 2687 2733 
Q 2419 3097 1959 3097 
z
M 1959 3584 
Q 2709 3584 3137 3096 
Q 3566 2609 3566 1747 
Q 3566 888 3137 398 
Q 2709 -91 1959 -91 
Q 1206 -91 779 398 
Q 353 888 353 1747 
Q 353 2609 779 3096 
Q 1206 3584 1959 3584 
z
" transform="scale(0.015625)"/>
       <path id="DejaVuSans-75" d="M 544 1381 
L 544 3500 
L 1119 3500 
L 1119 1403 
Q 1119 906 1312 657 
Q 1506 409 1894 409 
Q 2359 409 2629 706 
Q 2900 1003 2900 1516 
L 2900 3500 
L 3475 3500 
L 3475 0 
L 2900 0 
L 2900 538 
Q 2691 219 2414 64 
Q 2138 -91 1772 -91 
Q 1169 -91 856 284 
Q 544 659 544 1381 
z
M 1991 3584 
L 1991 3584 
z
" transform="scale(0.015625)"/>
       <path id="DejaVuSans-67" d="M 2906 1791 
Q 2906 2416 2648 2759 
Q 2391 3103 1925 3103 
Q 1463 3103 1205 2759 
Q 947 2416 947 1791 
Q 947 1169 1205 825 
Q 1463 481 1925 481 
Q 2391 481 2648 825 
Q 2906 1169 2906 1791 
z
M 3481 434 
Q 3481 -459 3084 -895 
Q 2688 -1331 1869 -1331 
Q 1566 -1331 1297 -1286 
Q 1028 -1241 775 -1147 
L 775 -588 
Q 1028 -725 1275 -790 
Q 1522 -856 1778 -856 
Q 2344 -856 2625 -561 
Q 2906 -266 2906 331 
L 2906 616 
Q 2728 306 2450 153 
Q 2172 0 1784 0 
Q 1141 0 747 490 
Q 353 981 353 1791 
Q 353 2603 747 3093 
Q 1141 3584 1784 3584 
Q 2172 3584 2450 3431 
Q 2728 3278 2906 2969 
L 2906 3500 
L 3481 3500 
L 3481 434 
z
" transform="scale(0.015625)"/>
       <path id="DejaVuSans-70" d="M 1159 525 
L 1159 -1331 
L 581 -1331 
L 581 3500 
L 1159 3500 
L 1159 2969 
Q 1341 3281 1617 3432 
Q 1894 3584 2278 3584 
Q 2916 3584 3314 3078 
Q 3713 2572 3713 1747 
Q 3713 922 3314 415 
Q 2916 -91 2278 -91 
Q 1894 -91 1617 61 
Q 1341 213 1159 525 
z
M 3116 1747 
Q 3116 2381 2855 2742 
Q 2594 3103 2138 3103 
Q 1681 3103 1420 2742 
Q 1159 2381 1159 1747 
Q 1159 1113 1420 752 
Q 1681 391 2138 391 
Q 2594 391 2855 752 
Q 3116 1113 3116 1747 
z
" transform="scale(0.015625)"/>
       <path id="DejaVuSans-74" d="M 1172 4494 
L 1172 3500 
L 2356 3500 
L 2356 3053 
L 1172 3053 
L 1172 1153 
Q 1172 725 1289 603 
Q 1406 481 1766 481 
L 2356 481 
L 2356 0 
L 1766 0 
Q 1100 0 847 248 
Q 594 497 594 1153 
L 594 3053 
L 172 3053 
L 172 3500 
L 594 3500 
L 594 4494 
L 1172 4494 
z
" transform="scale(0.015625)"/>
       <path id="DejaVuSans-4d" d="M 628 4666 
L 1569 4666 
L 2759 1491 
L 3956 4666 
L 4897 4666 
L 4897 0 
L 4281 0 
L 4281 4097 
L 3078 897 
L 2444 897 
L 1241 4097 
L 1241 0 
L 628 0 
L 628 4666 
z
" transform="scale(0.015625)"/>
       <path id="DejaVuSans-62" d="M 3116 1747 
Q 3116 2381 2855 2742 
Q 2594 3103 2138 3103 
Q 1681 3103 1420 2742 
Q 1159 2381 1159 1747 
Q 1159 1113 1420 752 
Q 1681 391 2138 391 
Q 2594 391 2855 752 
Q 3116 1113 3116 1747 
z
M 1159 2969 
Q 1341 3281 1617 3432 
Q 1894 3584 2278 3584 
Q 2916 3584 3314 3078 
Q 3713 2572 3713 1747 
Q 3713 922 3314 415 
Q 2916 -91 2278 -91 
Q 1894 -91 1617 61 
Q 1341 213 1159 525 
L 1159 0 
L 581 0 
L 581 4863 
L 1159 4863 
L 1159 2969 
z
" transform="scale(0.015625)"/>
      </defs>
      <use xlink:href="#DejaVuSans-54"/>
      <use xlink:href="#DejaVuSans-68" x="61.083984"/>
      <use xlink:href="#DejaVuSans-72" x="124.462891"/>
      <use xlink:href="#DejaVuSans-6f" x="163.326172"/>
      <use xlink:href="#DejaVuSans-75" x="224.507812"/>
      <use xlink:href="#DejaVuSans-67" x="287.886719"/>
      <use xlink:href="#DejaVuSans-68" x="351.363281"/>
      <use xlink:href="#DejaVuSans-70" x="414.742188"/>
      <use xlink:href="#DejaVuSans-75" x="478.21875"/>
      <use xlink:href="#DejaVuSans-74" x="541.597656"/>
      <use xlink:href="#DejaVuSans-20" x="580.806641"/>
      <use xlink:href="#DejaVuSans-28" x="612.59375"/>
      <use xlink:href="#DejaVuSans-4d" x="651.607422"/>
      <use xlink:href="#DejaVuSans-62" x="737.886719"/>
      <use xlink:href="#DejaVuSans-70" x="801.363281"/>
      <use xlink:href="#DejaVuSans-73" x="864.839844"/>
      <use xlink:href="#DejaVuSans-29" x="916.939453"/>
     </g>
    </g>
   </g>
   <g id="patch_3">
    <path d="M 108.01 331.64 
L 108.01 23.76 
" style="fill: none; stroke: #000000; stroke-width: 0.8; stroke-linejoin: miter; stroke-linecap: square"/>
   </g>
   <g id="patch_4">
    <path d="M 897.84 331.64 
L 897.84 23.76 
" style="fill: none; stroke: #000000; stroke-width: 0.8; stroke-linejoin: miter; stroke-linecap: square"/>
   </g>
   <g id="patch_5">
    <path d="M 108.01 331.64 
L 897.84 331.64 
" style="fill: none; stroke: #000000; stroke-width: 0.8; stroke-linejoin: miter; stroke-linecap: square"/>
   </g>
   <g id="patch_6">
    <path d="M 108.01 23.76 
L 897.84 23.76 
" style="fill: none; stroke: #000000; stroke-width: 0.8; stroke-linejoin: miter; stroke-linecap: square"/>
   </g>
   <g id="legend_1">
    <g id="patch_7">
     <path d="M 756.24 148.6425 
L 881.04 148.6425 
Q 885.84 148.6425 885.84 143.8425 
L 885.84 40.56 
Q 885.84 35.76 881.04 35.76 
L 756.24 35.76 
Q 751.44 35.76 751.44 40.56 
L 751.44 143.8425 
Q 751.44 148.6425 756.24 148.6425 
z
" style="fill: #ffffff; opacity: 0.8; stroke: #cccccc; stroke-linejoin: miter"/>
    </g>
    <g id="patch_8">
     <path d="M 761.04 63.59625 
L 809.04 63.59625 
L 809.04 46.79625 
L 761.04 46.79625 
z
" style="fill: #1f77b4"/>
    </g>
    <g id="text_15">
     <!-- UE1 -->
     <g transform="translate(828.24 63.59625)scale(0.24 -0.24)">
      <defs>
       <path id="DejaVuSans-55" d="M 556 4666 
L 1191 4666 
L 1191 1831 
Q 1191 1081 1462 751 
Q 1734 422 2344 422 
Q 2950 422 3222 751 
Q 3494 1081 3494 1831 
L 3494 4666 
L 4128 4666 
L 4128 1753 
Q 4128 841 3676 375 
Q 3225 -91 2344 -91 
Q 1459 -91 1007 375 
Q 556 841 556 1753 
L 556 4666 
z
" transform="scale(0.015625)"/>
       <path id="DejaVuSans-45" d="M 628 4666 
L 3578 4666 
L 3578 4134 
L 1259 4134 
L 1259 2753 
L 3481 2753 
L 3481 2222 
L 1259 2222 
L 1259 531 
L 3634 531 
L 3634 0 
L 628 0 
L 628 4666 
z
" transform="scale(0.015625)"/>
      </defs>
      <use xlink:href="#DejaVuSans-55"/>
      <use xlink:href="#DejaVuSans-45" x="73.193359"/>
      <use xlink:href="#DejaVuSans-31" x="136.376953"/>
     </g>
    </g>
    <g id="patch_9">
     <path d="M 761.04 98.82375 
L 809.04 98.82375 
L 809.04 82.02375 
L 761.04 82.02375 
z
" style="fill: #ff7f0e"/>
    </g>
    <g id="text_16">
     <!-- UE2 -->
     <g transform="translate(828.24 98.82375)scale(0.24 -0.24)">
      <use xlink:href="#DejaVuSans-55"/>
      <use xlink:href="#DejaVuSans-45" x="73.193359"/>
      <use xlink:href="#DejaVuSans-32" x="136.376953"/>
     </g>
    </g>
    <g id="patch_10">
     <path d="M 761.04 134.05125 
L 809.04 134.05125 
L 809.04 117.25125 
L 761.04 117.25125 
z
" style="fill: #2ca02c"/>
    </g>
    <g id="text_17">
     <!-- UE3 -->
     <g transform="translate(828.24 134.05125)scale(0.24 -0.24)">
      <defs>
       <path id="DejaVuSans-33" d="M 2597 2516 
Q 3050 2419 3304 2112 
Q 3559 1806 3559 1356 
Q 3559 666 3084 287 
Q 2609 -91 1734 -91 
Q 1441 -91 1130 -33 
Q 819 25 488 141 
L 488 750 
Q 750 597 1062 519 
Q 1375 441 1716 441 
Q 2309 441 2620 675 
Q 2931 909 2931 1356 
Q 2931 1769 2642 2001 
Q 2353 2234 1838 2234 
L 1294 2234 
L 1294 2753 
L 1863 2753 
Q 2328 2753 2575 2939 
Q 2822 3125 2822 3475 
Q 2822 3834 2567 4026 
Q 2313 4219 1838 4219 
Q 1578 4219 1281 4162 
Q 984 4106 628 3988 
L 628 4550 
Q 988 4650 1302 4700 
Q 1616 4750 1894 4750 
Q 2613 4750 3031 4423 
Q 3450 4097 3450 3541 
Q 3450 3153 3228 2886 
Q 3006 2619 2597 2516 
z
" transform="scale(0.015625)"/>
      </defs>
      <use xlink:href="#DejaVuSans-55"/>
      <use xlink:href="#DejaVuSans-45" x="73.193359"/>
      <use xlink:href="#DejaVuSans-33" x="136.376953"/>
     </g>
    </g>
   </g>
  </g>
 </g>
 <defs>
  <clipPath id="p11e4b856d6">
   <rect x="108.01" y="23.76" width="789.83" height="307.88"/>
  </clipPath>
 </defs>
</svg>
