<?xml version="1.0" encoding="utf-8" standalone="no"?>
<!DOCTYPE svg PUBLIC "-//W3C//DTD SVG 1.1//EN"
  "http://www.w3.org/Graphics/SVG/1.1/DTD/svg11.dtd">
<svg xmlns:xlink="http://www.w3.org/1999/xlink" width="921.6pt" height="410.4pt" viewBox="0 0 921.6 410.4" xmlns="http://www.w3.org/2000/svg" version="1.1">
 <metadata>
  <rdf:RDF xmlns:dc="http://purl.org/dc/elements/1.1/" xmlns:cc="http://creativecommons.org/ns#" xmlns:rdf="http://www.w3.org/1999/02/22-rdf-syntax-ns#">
   <cc:Work>
    <dc:type rdf:resource="http://purl.org/dc/dcmitype/StillImage"/>
    <dc:date>2023-04-11T17:40:59.737606</dc:date>
    <dc:format>image/svg+xml</dc:format>
    <dc:creator>
     <cc:Agent>
      <dc:title>Matplotlib v3.5.3, https://matplotlib.org/</dc:title>
     </cc:Agent>
    </dc:creator>
   </cc:Work>
  </rdf:RDF>
 </metadata>
 <defs>
  <style type="text/css">*{stroke-linejoin: round; stroke-linecap: butt}</style>
 </defs>
 <g id="figure_1">
  <g id="patch_1">
   <path d="M 0 410.4 
L 921.6 410.4 
L 921.6 0 
L 0 0 
L 0 410.4 
z
" style="fill: none"/>
  </g>
  <g id="axes_1">
   <g id="patch_2">
    <path d="M 108.01 331.64 
L 897.84 331.64 
L 897.84 23.76 
L 108.01 23.76 
z
" style="fill: #ffffff"/>
   </g>
   <g id="PolyCollection_1">
    <path d="M 143.911364 236.955437 
L 143.911364 331.64 
L 147.856568 331.64 
L 151.801773 331.64 
L 155.746978 331.64 
L 159.692183 331.64 
L 163.637388 331.64 
L 167.582592 331.64 
L 171.527797 331.64 
L 175.473002 331.64 
L 179.418207 331.64 
L 183.363412 331.64 
L 187.308616 331.64 
L 191.253821 331.64 
L 195.199026 331.64 
L 199.144231 331.64 
L 203.089436 331.64 
L 207.03464 331.64 
L 210.979845 331.64 
L 214.92505 331.64 
L 218.870255 331.64 
L 222.81546 331.64 
L 226.760664 331.64 
L 230.705869 331.64 
L 234.651074 331.64 
L 238.596279 331.64 
L 242.541484 331.64 
L 246.486688 331.64 
L 250.431893 331.64 
L 254.377098 331.64 
L 258.322303 331.64 
L 262.267507 331.64 
L 266.212712 331.64 
L 270.157917 331.64 
L 274.103122 331.64 
L 278.048327 331.64 
L 281.993531 331.64 
L 285.938736 331.64 
L 289.883941 331.64 
L 293.829146 331.64 
L 297.774351 331.64 
L 301.719555 331.64 
L 305.66476 331.64 
L 309.609965 331.64 
L 313.55517 331.64 
L 317.500375 331.64 
L 321.445579 331.64 
L 325.390784 331.64 
L 329.335989 331.64 
L 333.281194 331.64 
L 337.226399 331.64 
L 341.171603 331.64 
L 345.116808 331.64 
L 349.062013 331.64 
L 353.007218 331.64 
L 356.952423 331.64 
L 360.897627 331.64 
L 364.842832 331.64 
L 368.788037 331.64 
L 372.733242 331.64 
L 376.678447 331.64 
L 380.623651 331.64 
L 384.568856 331.64 
L 388.514061 331.64 
L 392.459266 331.64 
L 396.404471 331.64 
L 400.349675 331.64 
L 404.29488 331.64 
L 408.240085 331.64 
L 412.18529 331.64 
L 416.130495 331.64 
L 420.075699 331.64 
L 424.020904 331.64 
L 427.966109 331.64 
L 431.911314 331.64 
L 435.856518 331.64 
L 439.801723 331.64 
L 443.746928 331.64 
L 447.692133 331.64 
L 451.637338 331.64 
L 455.582542 331.64 
L 459.527747 331.64 
L 463.472952 331.64 
L 467.418157 331.64 
L 471.363362 331.64 
L 475.308566 331.64 
L 479.253771 331.64 
L 483.198976 331.64 
L 487.144181 331.64 
L 491.089386 331.64 
L 495.03459 331.64 
L 498.979795 331.64 
L 502.925 331.64 
L 506.870205 331.64 
L 510.81541 331.64 
L 514.760614 331.64 
L 518.705819 331.64 
L 522.651024 331.64 
L 526.596229 331.64 
L 530.541434 331.64 
L 534.486638 331.64 
L 538.431843 331.64 
L 542.377048 331.64 
L 546.322253 331.64 
L 550.267458 331.64 
L 554.212662 331.64 
L 558.157867 331.64 
L 562.103072 331.64 
L 566.048277 331.64 
L 569.993482 331.64 
L 573.938686 331.64 
L 577.883891 331.64 
L 581.829096 331.64 
L 585.774301 331.64 
L 589.719505 331.64 
L 593.66471 331.64 
L 597.609915 331.64 
L 601.55512 331.64 
L 605.500325 331.64 
L 609.445529 331.64 
L 613.390734 331.64 
L 617.335939 331.64 
L 621.281144 331.64 
L 625.226349 331.64 
L 629.171553 331.64 
L 633.116758 331.64 
L 637.061963 331.64 
L 641.007168 331.64 
L 644.952373 331.64 
L 648.897577 331.64 
L 652.842782 331.64 
L 656.787987 331.64 
L 660.733192 331.64 
L 664.678397 331.64 
L 668.623601 331.64 
L 672.568806 331.64 
L 676.514011 331.64 
L 680.459216 331.64 
L 684.404421 331.64 
L 688.349625 331.64 
L 692.29483 331.64 
L 696.240035 331.64 
L 700.18524 331.64 
L 704.130445 331.64 
L 708.075649 331.64 
L 712.020854 331.64 
L 715.966059 331.64 
L 719.911264 331.64 
L 723.856469 331.64 
L 727.801673 331.64 
L 731.746878 331.64 
L 735.692083 331.64 
L 739.637288 331.64 
L 743.582493 331.64 
L 747.527697 331.64 
L 751.472902 331.64 
L 755.418107 331.64 
L 759.363312 331.64 
L 763.308516 331.64 
L 767.253721 331.64 
L 771.198926 331.64 
L 775.144131 331.64 
L 779.089336 331.64 
L 783.03454 331.64 
L 786.979745 331.64 
L 790.92495 331.64 
L 794.870155 331.64 
L 798.81536 331.64 
L 802.760564 331.64 
L 806.705769 331.64 
L 810.650974 331.64 
L 814.596179 331.64 
L 818.541384 331.64 
L 822.486588 331.64 
L 826.431793 331.64 
L 830.376998 331.64 
L 834.322203 331.64 
L 838.267408 331.64 
L 842.212612 331.64 
L 846.157817 331.64 
L 850.103022 331.64 
L 854.048227 331.64 
L 857.993432 331.64 
L 861.938636 331.64 
L 861.938636 235.890297 
L 861.938636 235.890297 
L 857.993432 234.930529 
L 854.048227 235.628995 
L 850.103022 236.784411 
L 846.157817 235.395245 
L 842.212612 236.02366 
L 838.267408 235.512779 
L 834.322203 235.666806 
L 830.376998 235.314348 
L 826.431793 236.038754 
L 822.486588 235.636469 
L 818.541384 235.639693 
L 814.596179 236.052091 
L 810.650974 235.164719 
L 806.705769 235.798849 
L 802.760564 235.788151 
L 798.81536 235.57565 
L 794.870155 235.332667 
L 790.92495 235.830504 
L 786.979745 235.824642 
L 783.03454 235.462219 
L 779.089336 235.511607 
L 775.144131 235.957271 
L 771.198926 234.768589 
L 767.253721 236.23191 
L 763.308516 235.628995 
L 759.363312 235.441409 
L 755.418107 234.621304 
L 751.472902 236.455841 
L 747.527697 235.168236 
L 743.582493 236.202453 
L 739.637288 236.613971 
L 735.692083 235.86934 
L 731.746878 236.728721 
L 727.801673 236.141194 
L 723.856469 236.472402 
L 719.911264 235.777159 
L 715.966059 235.889271 
L 712.020854 236.476505 
L 708.075649 234.683002 
L 704.130445 236.90385 
L 700.18524 236.255798 
L 696.240035 235.677211 
L 692.29483 235.547219 
L 688.349625 235.650392 
L 684.404421 235.741987 
L 680.459216 234.983434 
L 676.514011 235.153141 
L 672.568806 235.875935 
L 668.623601 235.208391 
L 664.678397 234.74939 
L 660.733192 236.276901 
L 656.787987 235.327538 
L 652.842782 235.705495 
L 648.897577 235.478779 
L 644.952373 235.250598 
L 641.007168 236.095617 
L 637.061963 235.488598 
L 633.116758 235.38396 
L 629.171553 234.791451 
L 625.226349 236.078763 
L 621.281144 235.266865 
L 617.335939 235.896013 
L 613.390734 235.971487 
L 609.445529 236.228099 
L 605.500325 234.998968 
L 601.55512 236.860178 
L 597.609915 235.329443 
L 593.66471 236.192927 
L 589.719505 235.409021 
L 585.774301 236.266056 
L 581.829096 235.982039 
L 577.883891 235.901582 
L 573.938686 235.872418 
L 569.993482 235.599831 
L 566.048277 235.806176 
L 562.103072 236.052384 
L 558.157867 235.779504 
L 554.212662 240.332433 
L 550.267458 239.77026 
L 546.322253 235.274046 
L 542.377048 235.560995 
L 538.431843 236.032892 
L 534.486638 235.254848 
L 530.541434 236.283496 
L 526.596229 235.081477 
L 522.651024 235.623426 
L 518.705819 234.708356 
L 514.760614 236.527798 
L 510.81541 235.726306 
L 506.870205 235.362857 
L 502.925 235.62753 
L 498.979795 235.674133 
L 495.03459 236.272944 
L 491.089386 235.171167 
L 487.144181 235.04015 
L 483.198976 239.297776 
L 479.253771 237.892929 
L 475.308566 236.279979 
L 471.363362 234.773278 
L 467.418157 235.626357 
L 463.472952 235.982478 
L 459.527747 235.232426 
L 455.582542 235.661383 
L 451.637338 235.118701 
L 447.692133 236.013401 
L 443.746928 236.659548 
L 439.801723 235.210736 
L 435.856518 236.037875 
L 431.911314 234.63127 
L 427.966109 236.52941 
L 424.020904 235.803685 
L 420.075699 235.453426 
L 416.130495 235.477607 
L 412.18529 235.642624 
L 408.240085 235.94672 
L 404.29488 235.107124 
L 400.349675 235.275952 
L 396.404471 234.526338 
L 392.459266 235.883409 
L 388.514061 235.457383 
L 384.568856 235.292512 
L 380.623651 236.339186 
L 376.678447 235.58928 
L 372.733242 235.703004 
L 368.788037 235.715168 
L 364.842832 234.969072 
L 360.897627 235.923711 
L 356.952423 235.2994 
L 353.007218 235.797237 
L 349.062013 235.51234 
L 345.116808 236.062789 
L 341.171603 236.19278 
L 337.226399 234.865167 
L 333.281194 235.446391 
L 329.335989 235.452107 
L 325.390784 235.429098 
L 321.445579 236.494971 
L 317.500375 236.058979 
L 313.55517 235.521866 
L 309.609965 235.825521 
L 305.66476 235.886487 
L 301.719555 235.849556 
L 297.774351 235.527874 
L 293.829146 235.54678 
L 289.883941 235.979987 
L 285.938736 235.627237 
L 281.993531 234.802882 
L 278.048327 235.416495 
L 274.103122 237.07092 
L 270.157917 236.126979 
L 266.212712 235.670469 
L 262.267507 235.115624 
L 258.322303 236.437082 
L 254.377098 235.288702 
L 250.431893 236.128884 
L 246.486688 235.42265 
L 242.541484 235.4014 
L 238.596279 235.492116 
L 234.651074 236.035677 
L 230.705869 235.169262 
L 226.760664 236.245686 
L 222.81546 235.934409 
L 218.870255 235.694211 
L 214.92505 235.808375 
L 210.979845 234.946942 
L 207.03464 235.565685 
L 203.089436 235.874909 
L 199.144231 235.445366 
L 195.199026 235.73759 
L 191.253821 236.276022 
L 187.308616 235.526409 
L 183.363412 235.066236 
L 179.418207 235.744478 
L 175.473002 235.65728 
L 171.527797 236.289358 
L 167.582592 235.071805 
L 163.637388 235.851608 
L 159.692183 235.5629 
L 155.746978 235.664461 
L 151.801773 235.562461 
L 147.856568 236.375677 
L 143.911364 236.955437 
z
" clip-path="url(#p9111ec42bc)" style="fill: #1f77b4"/>
   </g>
   <g id="PolyCollection_2">
    <path d="M 143.911364 140.992794 
L 143.911364 236.955437 
L 147.856568 236.375677 
L 151.801773 235.562461 
L 155.746978 235.664461 
L 159.692183 235.5629 
L 163.637388 235.851608 
L 167.582592 235.071805 
L 171.527797 236.289358 
L 175.473002 235.65728 
L 179.418207 235.744478 
L 183.363412 235.066236 
L 187.308616 235.526409 
L 191.253821 236.276022 
L 195.199026 235.73759 
L 199.144231 235.445366 
L 203.089436 235.874909 
L 207.03464 235.565685 
L 210.979845 234.946942 
L 214.92505 235.808375 
L 218.870255 235.694211 
L 222.81546 235.934409 
L 226.760664 236.245686 
L 230.705869 235.169262 
L 234.651074 236.035677 
L 238.596279 235.492116 
L 242.541484 235.4014 
L 246.486688 235.42265 
L 250.431893 236.128884 
L 254.377098 235.288702 
L 258.322303 236.437082 
L 262.267507 235.115624 
L 266.212712 235.670469 
L 270.157917 236.126979 
L 274.103122 237.07092 
L 278.048327 235.416495 
L 281.993531 234.802882 
L 285.938736 235.627237 
L 289.883941 235.979987 
L 293.829146 235.54678 
L 297.774351 235.527874 
L 301.719555 235.849556 
L 305.66476 235.886487 
L 309.609965 235.825521 
L 313.55517 235.521866 
L 317.500375 236.058979 
L 321.445579 236.494971 
L 325.390784 235.429098 
L 329.335989 235.452107 
L 333.281194 235.446391 
L 337.226399 234.865167 
L 341.171603 236.19278 
L 345.116808 236.062789 
L 349.062013 235.51234 
L 353.007218 235.797237 
L 356.952423 235.2994 
L 360.897627 235.923711 
L 364.842832 234.969072 
L 368.788037 235.715168 
L 372.733242 235.703004 
L 376.678447 235.58928 
L 380.623651 236.339186 
L 384.568856 235.292512 
L 388.514061 235.457383 
L 392.459266 235.883409 
L 396.404471 234.526338 
L 400.349675 235.275952 
L 404.29488 235.107124 
L 408.240085 235.94672 
L 412.18529 235.642624 
L 416.130495 235.477607 
L 420.075699 235.453426 
L 424.020904 235.803685 
L 427.966109 236.52941 
L 431.911314 234.63127 
L 435.856518 236.037875 
L 439.801723 235.210736 
L 443.746928 236.659548 
L 447.692133 236.013401 
L 451.637338 235.118701 
L 455.582542 235.661383 
L 459.527747 235.232426 
L 463.472952 235.982478 
L 467.418157 235.626357 
L 471.363362 234.773278 
L 475.308566 236.279979 
L 479.253771 237.892929 
L 483.198976 239.297776 
L 487.144181 235.04015 
L 491.089386 235.171167 
L 495.03459 236.272944 
L 498.979795 235.674133 
L 502.925 235.62753 
L 506.870205 235.362857 
L 510.81541 235.726306 
L 514.760614 236.527798 
L 518.705819 234.708356 
L 522.651024 235.623426 
L 526.596229 235.081477 
L 530.541434 236.283496 
L 534.486638 235.254848 
L 538.431843 236.032892 
L 542.377048 235.560995 
L 546.322253 235.274046 
L 550.267458 239.77026 
L 554.212662 240.332433 
L 558.157867 235.779504 
L 562.103072 236.052384 
L 566.048277 235.806176 
L 569.993482 235.599831 
L 573.938686 235.872418 
L 577.883891 235.901582 
L 581.829096 235.982039 
L 585.774301 236.266056 
L 589.719505 235.409021 
L 593.66471 236.192927 
L 597.609915 235.329443 
L 601.55512 236.860178 
L 605.500325 234.998968 
L 609.445529 236.228099 
L 613.390734 235.971487 
L 617.335939 235.896013 
L 621.281144 235.266865 
L 625.226349 236.078763 
L 629.171553 234.791451 
L 633.116758 235.38396 
L 637.061963 235.488598 
L 641.007168 236.095617 
L 644.952373 235.250598 
L 648.897577 235.478779 
L 652.842782 235.705495 
L 656.787987 235.327538 
L 660.733192 236.276901 
L 664.678397 234.74939 
L 668.623601 235.208391 
L 672.568806 235.875935 
L 676.514011 235.153141 
L 680.459216 234.983434 
L 684.404421 235.741987 
L 688.349625 235.650392 
L 692.29483 235.547219 
L 696.240035 235.677211 
L 700.18524 236.255798 
L 704.130445 236.90385 
L 708.075649 234.683002 
L 712.020854 236.476505 
L 715.966059 235.889271 
L 719.911264 235.777159 
L 723.856469 236.472402 
L 727.801673 236.141194 
L 731.746878 236.728721 
L 735.692083 235.86934 
L 739.637288 236.613971 
L 743.582493 236.202453 
L 747.527697 235.168236 
L 751.472902 236.455841 
L 755.418107 234.621304 
L 759.363312 235.441409 
L 763.308516 235.628995 
L 767.253721 236.23191 
L 771.198926 234.768589 
L 775.144131 235.957271 
L 779.089336 235.511607 
L 783.03454 235.462219 
L 786.979745 235.824642 
L 790.92495 235.830504 
L 794.870155 235.332667 
L 798.81536 235.57565 
L 802.760564 235.788151 
L 806.705769 235.798849 
L 810.650974 235.164719 
L 814.596179 236.052091 
L 818.541384 235.639693 
L 822.486588 235.636469 
L 826.431793 236.038754 
L 830.376998 235.314348 
L 834.322203 235.666806 
L 838.267408 235.512779 
L 842.212612 236.02366 
L 846.157817 235.395245 
L 850.103022 236.784411 
L 854.048227 235.628995 
L 857.993432 234.930529 
L 861.938636 235.890297 
L 861.938636 235.890297 
L 861.938636 235.890297 
L 857.993432 138.463015 
L 854.048227 137.847643 
L 850.103022 139.239886 
L 846.157817 138.149393 
L 842.212612 138.518851 
L 838.267408 137.927074 
L 834.322203 138.493644 
L 830.376998 137.841781 
L 826.431793 138.923334 
L 822.486588 137.588832 
L 818.541384 138.495549 
L 814.596179 138.605903 
L 810.650974 137.114151 
L 806.705769 138.316463 
L 802.760564 138.388713 
L 798.81536 138.517239 
L 794.870155 138.006945 
L 790.92495 138.32467 
L 786.979745 137.928833 
L 783.03454 138.733403 
L 779.089336 138.188523 
L 775.144131 138.38754 
L 771.198926 137.142875 
L 767.253721 139.768792 
L 763.308516 137.781695 
L 759.363312 137.501487 
L 755.418107 136.509331 
L 751.472902 138.435756 
L 747.527697 138.199075 
L 743.582493 138.348558 
L 739.637288 140.670087 
L 735.692083 138.341963 
L 731.746878 139.343205 
L 727.801673 139.446085 
L 723.856469 138.83892 
L 719.911264 139.028412 
L 715.966059 137.570513 
L 712.020854 139.245748 
L 708.075649 137.163832 
L 704.130445 139.575344 
L 700.18524 139.054498 
L 696.240035 139.342033 
L 692.29483 138.124773 
L 688.349625 138.084031 
L 684.404421 137.994195 
L 680.459216 137.572419 
L 676.514011 136.989875 
L 672.568806 138.098247 
L 668.623601 136.305184 
L 664.678397 136.85153 
L 660.733192 139.30349 
L 656.787987 137.398901 
L 652.842782 137.989798 
L 648.897577 138.064686 
L 644.952373 137.176289 
L 641.007168 138.955136 
L 637.061963 137.236228 
L 633.116758 137.979979 
L 629.171553 136.786314 
L 625.226349 137.985109 
L 621.281144 137.48097 
L 617.335939 137.953307 
L 613.390734 138.711567 
L 609.445529 138.758903 
L 605.500325 137.063444 
L 601.55512 140.241715 
L 597.609915 138.189842 
L 593.66471 138.66892 
L 589.719505 137.192409 
L 585.774301 138.726075 
L 581.829096 139.778172 
L 577.883891 136.899892 
L 573.938686 139.158843 
L 569.993482 137.093047 
L 566.048277 139.482137 
L 562.103072 138.943851 
L 558.157867 137.492401 
L 554.212662 144.056169 
L 550.267458 149.705013 
L 546.322253 137.824781 
L 542.377048 138.153057 
L 538.431843 138.146169 
L 534.486638 138.057212 
L 530.541434 137.930005 
L 526.596229 137.301591 
L 522.651024 137.202228 
L 518.705819 137.216737 
L 514.760614 139.384826 
L 510.81541 137.347022 
L 506.870205 137.938945 
L 502.925 138.547575 
L 498.979795 137.660057 
L 495.03459 138.082712 
L 491.089386 137.84779 
L 487.144181 137.437151 
L 483.198976 142.58171 
L 479.253771 144.296661 
L 475.308566 138.516799 
L 471.363362 137.349953 
L 467.418157 137.087332 
L 463.472952 138.079781 
L 459.527747 137.526401 
L 455.582542 138.212264 
L 451.637338 137.482436 
L 447.692133 139.260697 
L 443.746928 139.412525 
L 439.801723 137.833574 
L 435.856518 138.46917 
L 431.911314 136.233667 
L 427.966109 139.254981 
L 424.020904 138.561351 
L 420.075699 137.094806 
L 416.130495 137.768652 
L 412.18529 138.411721 
L 408.240085 137.795177 
L 404.29488 137.677496 
L 400.349675 137.526987 
L 396.404471 137.256746 
L 392.459266 137.762496 
L 388.514061 138.375816 
L 384.568856 137.388642 
L 380.623651 140.087982 
L 376.678447 137.757367 
L 372.733242 138.801989 
L 368.788037 137.228608 
L 364.842832 137.394651 
L 360.897627 138.261945 
L 356.952423 137.062711 
L 353.007218 138.918058 
L 349.062013 137.806608 
L 345.116808 139.265093 
L 341.171603 137.742565 
L 337.226399 137.161927 
L 333.281194 137.654927 
L 329.335989 138.089454 
L 325.390784 137.307013 
L 321.445579 139.741827 
L 317.500375 138.184712 
L 313.55517 138.186031 
L 309.609965 138.330971 
L 305.66476 138.20523 
L 301.719555 137.769971 
L 297.774351 137.755169 
L 293.829146 138.11935 
L 289.883941 138.339764 
L 285.938736 137.281953 
L 281.993531 136.464486 
L 278.048327 137.93616 
L 274.103122 140.191595 
L 270.157917 139.280335 
L 266.212712 138.284954 
L 262.267507 136.971849 
L 258.322303 138.76667 
L 254.377098 137.800746 
L 250.431893 139.380283 
L 246.486688 138.049738 
L 242.541484 137.939971 
L 238.596279 137.362116 
L 234.651074 138.585532 
L 230.705869 138.569997 
L 226.760664 139.142722 
L 222.81546 138.589635 
L 218.870255 138.179437 
L 214.92505 138.340058 
L 210.979845 136.806098 
L 207.03464 138.117885 
L 203.089436 138.517092 
L 199.144231 137.811298 
L 195.199026 138.548454 
L 191.253821 138.463601 
L 187.308616 137.095392 
L 183.363412 138.902377 
L 179.418207 137.496211 
L 175.473002 138.266782 
L 171.527797 139.042921 
L 167.582592 136.826909 
L 163.637388 138.798325 
L 159.692183 138.050911 
L 155.746978 137.41766 
L 151.801773 137.997712 
L 147.856568 139.779491 
L 143.911364 140.992794 
z
" clip-path="url(#p9111ec42bc)" style="fill: #ff7f0e"/>
   </g>
   <g id="PolyCollection_3">
    <path d="M 143.911364 44.20565 
L 143.911364 140.992794 
L 147.856568 139.779491 
L 151.801773 137.997712 
L 155.746978 137.41766 
L 159.692183 138.050911 
L 163.637388 138.798325 
L 167.582592 136.826909 
L 171.527797 139.042921 
L 175.473002 138.266782 
L 179.418207 137.496211 
L 183.363412 138.902377 
L 187.308616 137.095392 
L 191.253821 138.463601 
L 195.199026 138.548454 
L 199.144231 137.811298 
L 203.089436 138.517092 
L 207.03464 138.117885 
L 210.979845 136.806098 
L 214.92505 138.340058 
L 218.870255 138.179437 
L 222.81546 138.589635 
L 226.760664 139.142722 
L 230.705869 138.569997 
L 234.651074 138.585532 
L 238.596279 137.362116 
L 242.541484 137.939971 
L 246.486688 138.049738 
L 250.431893 139.380283 
L 254.377098 137.800746 
L 258.322303 138.76667 
L 262.267507 136.971849 
L 266.212712 138.284954 
L 270.157917 139.280335 
L 274.103122 140.191595 
L 278.048327 137.93616 
L 281.993531 136.464486 
L 285.938736 137.281953 
L 289.883941 138.339764 
L 293.829146 138.11935 
L 297.774351 137.755169 
L 301.719555 137.769971 
L 305.66476 138.20523 
L 309.609965 138.330971 
L 313.55517 138.186031 
L 317.500375 138.184712 
L 321.445579 139.741827 
L 325.390784 137.307013 
L 329.335989 138.089454 
L 333.281194 137.654927 
L 337.226399 137.161927 
L 341.171603 137.742565 
L 345.116808 139.265093 
L 349.062013 137.806608 
L 353.007218 138.918058 
L 356.952423 137.062711 
L 360.897627 138.261945 
L 364.842832 137.394651 
L 368.788037 137.228608 
L 372.733242 138.801989 
L 376.678447 137.757367 
L 380.623651 140.087982 
L 384.568856 137.388642 
L 388.514061 138.375816 
L 392.459266 137.762496 
L 396.404471 137.256746 
L 400.349675 137.526987 
L 404.29488 137.677496 
L 408.240085 137.795177 
L 412.18529 138.411721 
L 416.130495 137.768652 
L 420.075699 137.094806 
L 424.020904 138.561351 
L 427.966109 139.254981 
L 431.911314 136.233667 
L 435.856518 138.46917 
L 439.801723 137.833574 
L 443.746928 139.412525 
L 447.692133 139.260697 
L 451.637338 137.482436 
L 455.582542 138.212264 
L 459.527747 137.526401 
L 463.472952 138.079781 
L 467.418157 137.087332 
L 471.363362 137.349953 
L 475.308566 138.516799 
L 479.253771 144.296661 
L 483.198976 142.58171 
L 487.144181 137.437151 
L 491.089386 137.84779 
L 495.03459 138.082712 
L 498.979795 137.660057 
L 502.925 138.547575 
L 506.870205 137.938945 
L 510.81541 137.347022 
L 514.760614 139.384826 
L 518.705819 137.216737 
L 522.651024 137.202228 
L 526.596229 137.301591 
L 530.541434 137.930005 
L 534.486638 138.057212 
L 538.431843 138.146169 
L 542.377048 138.153057 
L 546.322253 137.824781 
L 550.267458 149.705013 
L 554.212662 144.056169 
L 558.157867 137.492401 
L 562.103072 138.943851 
L 566.048277 139.482137 
L 569.993482 137.093047 
L 573.938686 139.158843 
L 577.883891 136.899892 
L 581.829096 139.778172 
L 585.774301 138.726075 
L 589.719505 137.192409 
L 593.66471 138.66892 
L 597.609915 138.189842 
L 601.55512 140.241715 
L 605.500325 137.063444 
L 609.445529 138.758903 
L 613.390734 138.711567 
L 617.335939 137.953307 
L 621.281144 137.48097 
L 625.226349 137.985109 
L 629.171553 136.786314 
L 633.116758 137.979979 
L 637.061963 137.236228 
L 641.007168 138.955136 
L 644.952373 137.176289 
L 648.897577 138.064686 
L 652.842782 137.989798 
L 656.787987 137.398901 
L 660.733192 139.30349 
L 664.678397 136.85153 
L 668.623601 136.305184 
L 672.568806 138.098247 
L 676.514011 136.989875 
L 680.459216 137.572419 
L 684.404421 137.994195 
L 688.349625 138.084031 
L 692.29483 138.124773 
L 696.240035 139.342033 
L 700.18524 139.054498 
L 704.130445 139.575344 
L 708.075649 137.163832 
L 712.020854 139.245748 
L 715.966059 137.570513 
L 719.911264 139.028412 
L 723.856469 138.83892 
L 727.801673 139.446085 
L 731.746878 139.343205 
L 735.692083 138.341963 
L 739.637288 140.670087 
L 743.582493 138.348558 
L 747.527697 138.199075 
L 751.472902 138.435756 
L 755.418107 136.509331 
L 759.363312 137.501487 
L 763.308516 137.781695 
L 767.253721 139.768792 
L 771.198926 137.142875 
L 775.144131 138.38754 
L 779.089336 138.188523 
L 783.03454 138.733403 
L 786.979745 137.928833 
L 790.92495 138.32467 
L 794.870155 138.006945 
L 798.81536 138.517239 
L 802.760564 138.388713 
L 806.705769 138.316463 
L 810.650974 137.114151 
L 814.596179 138.605903 
L 818.541384 138.495549 
L 822.486588 137.588832 
L 826.431793 138.923334 
L 830.376998 137.841781 
L 834.322203 138.493644 
L 838.267408 137.927074 
L 842.212612 138.518851 
L 846.157817 138.149393 
L 850.103022 139.239886 
L 854.048227 137.847643 
L 857.993432 138.463015 
L 861.938636 235.890297 
L 861.938636 138.475471 
L 861.938636 138.475471 
L 857.993432 41.145939 
L 854.048227 40.983706 
L 850.103022 42.492458 
L 846.157817 40.711412 
L 842.212612 41.582664 
L 838.267408 40.460369 
L 834.322203 41.317258 
L 830.376998 40.28436 
L 826.431793 42.148794 
L 822.486588 40.59505 
L 818.541384 40.992353 
L 814.596179 40.790844 
L 810.650974 39.118246 
L 806.705769 40.771499 
L 802.760564 40.689869 
L 798.81536 41.018292 
L 794.870155 40.191886 
L 790.92495 41.520379 
L 786.979745 40.34474 
L 783.03454 42.06482 
L 779.089336 40.675361 
L 775.144131 41.021809 
L 771.198926 39.872842 
L 767.253721 42.537303 
L 763.308516 40.964215 
L 759.363312 40.168291 
L 755.418107 38.742487 
L 751.472902 40.984439 
L 747.527697 41.037344 
L 743.582493 41.168508 
L 739.637288 44.26515 
L 735.692083 40.411128 
L 731.746878 41.805276 
L 727.801673 42.632855 
L 723.856469 41.683638 
L 719.911264 41.678069 
L 715.966059 40.234386 
L 712.020854 42.291682 
L 708.075649 39.657851 
L 704.130445 42.644432 
L 700.18524 42.946916 
L 696.240035 42.323484 
L 692.29483 40.675361 
L 688.349625 39.548523 
L 684.404421 41.287215 
L 680.459216 39.351264 
L 676.514011 39.124841 
L 672.568806 40.110256 
L 668.623601 39.08835 
L 664.678397 39.494152 
L 660.733192 41.622379 
L 656.787987 39.132902 
L 652.842782 40.395153 
L 648.897577 40.441757 
L 644.952373 39.529911 
L 641.007168 41.578414 
L 637.061963 39.1521 
L 633.116758 40.57043 
L 629.171553 38.727686 
L 625.226349 40.132093 
L 621.281144 39.419411 
L 617.335939 40.780145 
L 613.390734 41.71075 
L 609.445529 41.055516 
L 605.500325 38.733548 
L 601.55512 43.599951 
L 597.609915 41.19518 
L 593.66471 40.997482 
L 589.719505 39.814954 
L 585.774301 42.229984 
L 581.829096 41.849242 
L 577.883891 39.198997 
L 573.938686 41.457362 
L 569.993482 39.597764 
L 566.048277 41.876793 
L 562.103072 41.837371 
L 558.157867 39.679833 
L 554.212662 55.806261 
L 550.267458 51.698411 
L 546.322253 39.718377 
L 542.377048 40.7523 
L 538.431843 40.280403 
L 534.486638 41.128353 
L 530.541434 40.985171 
L 526.596229 39.567721 
L 522.651024 39.895118 
L 518.705819 40.206834 
L 514.760614 41.599224 
L 510.81541 40.06717 
L 506.870205 39.911972 
L 502.925 41.615931 
L 498.979795 39.65492 
L 495.03459 41.088051 
L 491.089386 40.407757 
L 487.144181 39.983636 
L 483.198976 50.26059 
L 479.253771 46.991749 
L 475.308566 40.331843 
L 471.363362 39.97748 
L 467.418157 39.078384 
L 463.472952 40.154662 
L 459.527747 39.880463 
L 455.582542 41.390388 
L 451.637338 40.345033 
L 447.692133 42.263251 
L 443.746928 41.590724 
L 439.801723 40.360567 
L 435.856518 41.114723 
L 431.911314 38.344452 
L 427.966109 42.493044 
L 424.020904 41.443439 
L 420.075699 39.697859 
L 416.130495 40.400722 
L 412.18529 40.552404 
L 408.240085 40.556654 
L 404.29488 39.85423 
L 400.349675 40.359395 
L 396.404471 39.507635 
L 392.459266 40.039325 
L 388.514061 41.094499 
L 384.568856 40.130188 
L 380.623651 43.076468 
L 376.678447 40.68049 
L 372.733242 42.091199 
L 368.788037 39.323273 
L 364.842832 39.653454 
L 360.897627 40.477662 
L 356.952423 38.89285 
L 353.007218 41.401672 
L 349.062013 39.975575 
L 345.116808 42.203311 
L 341.171603 39.936446 
L 337.226399 39.326057 
L 333.281194 39.784178 
L 329.335989 41.041887 
L 325.390784 40.058377 
L 321.445579 42.531587 
L 317.500375 40.317041 
L 313.55517 40.61293 
L 309.609965 42.266328 
L 305.66476 40.530567 
L 301.719555 39.963851 
L 297.774351 40.344886 
L 293.829146 41.022689 
L 289.883941 40.662464 
L 285.938736 38.906919 
L 281.993531 39.112677 
L 278.048327 40.161843 
L 274.103122 43.187261 
L 270.157917 42.158613 
L 266.212712 40.618645 
L 262.267507 39.566695 
L 258.322303 41.717198 
L 254.377098 40.388412 
L 250.431893 41.24237 
L 246.486688 41.405776 
L 242.541484 39.767765 
L 238.596279 39.58179 
L 234.651074 42.409949 
L 230.705869 41.041887 
L 226.760664 42.534812 
L 222.81546 40.269998 
L 218.870255 40.455093 
L 214.92505 40.543024 
L 210.979845 39.051419 
L 207.03464 40.87599 
L 203.089436 41.133189 
L 199.144231 40.769594 
L 195.199026 41.167482 
L 191.253821 40.465791 
L 187.308616 40.360567 
L 183.363412 41.603181 
L 179.418207 40.475464 
L 175.473002 40.872033 
L 171.527797 41.80088 
L 167.582592 40.036101 
L 163.637388 40.926844 
L 159.692183 41.226249 
L 155.746978 39.35654 
L 151.801773 40.483231 
L 147.856568 43.798675 
L 143.911364 44.20565 
z
" clip-path="url(#p9111ec42bc)" style="fill: #2ca02c"/>
   </g>
   <g id="matplotlib.axis_1">
    <g id="xtick_1">
     <g id="line2d_1">
      <path d="M 143.911364 331.64 
L 143.911364 23.76 
" clip-path="url(#p9111ec42bc)" style="fill: none; stroke-dasharray: 5.12,1.28,0.8,1.28; stroke-dashoffset: 0; stroke: #b0b0b0; stroke-width: 0.8"/>
     </g>
     <g id="line2d_2">
      <defs>
       <path id="md8a8b22f0a" d="M 0 0 
L 0 3.5 
" style="stroke: #000000; stroke-width: 0.8"/>
      </defs>
      <g>
       <use xlink:href="#md8a8b22f0a" x="143.911364" y="331.64" style="stroke: #000000; stroke-width: 0.8"/>
      </g>
     </g>
     <g id="text_1">
      <!-- 0 -->
      <g transform="translate(136.912614 355.356563)scale(0.22 -0.22)">
       <defs>
        <path id="DejaVuSans-30" d="M 2034 4250 
Q 1547 4250 1301 3770 
Q 1056 3291 1056 2328 
Q 1056 1369 1301 889 
Q 1547 409 2034 409 
Q 2525 409 2770 889 
Q 3016 1369 3016 2328 
Q 3016 3291 2770 3770 
Q 2525 4250 2034 4250 
z
M 2034 4750 
Q 2819 4750 3233 4129 
Q 3647 3509 3647 2328 
Q 3647 1150 3233 529 
Q 2819 -91 2034 -91 
Q 1250 -91 836 529 
Q 422 1150 422 2328 
Q 422 3509 836 4129 
Q 1250 4750 2034 4750 
z
" transform="scale(0.015625)"/>
       </defs>
       <use xlink:href="#DejaVuSans-30"/>
      </g>
     </g>
    </g>
    <g id="xtick_2">
     <g id="line2d_3">
      <path d="M 242.541484 331.64 
L 242.541484 23.76 
" clip-path="url(#p9111ec42bc)" style="fill: none; stroke-dasharray: 5.12,1.28,0.8,1.28; stroke-dashoffset: 0; stroke: #b0b0b0; stroke-width: 0.8"/>
     </g>
     <g id="line2d_4">
      <g>
       <use xlink:href="#md8a8b22f0a" x="242.541484" y="331.64" style="stroke: #000000; stroke-width: 0.8"/>
      </g>
     </g>
     <g id="text_2">
      <!-- 25 -->
      <g transform="translate(228.543984 355.356563)scale(0.22 -0.22)">
       <defs>
        <path id="DejaVuSans-32" d="M 1228 531 
L 3431 531 
L 3431 0 
L 469 0 
L 469 531 
Q 828 903 1448 1529 
Q 2069 2156 2228 2338 
Q 2531 2678 2651 2914 
Q 2772 3150 2772 3378 
Q 2772 3750 2511 3984 
Q 2250 4219 1831 4219 
Q 1534 4219 1204 4116 
Q 875 4013 500 3803 
L 500 4441 
Q 881 4594 1212 4672 
Q 1544 4750 1819 4750 
Q 2544 4750 2975 4387 
Q 3406 4025 3406 3419 
Q 3406 3131 3298 2873 
Q 3191 2616 2906 2266 
Q 2828 2175 2409 1742 
Q 1991 1309 1228 531 
z
" transform="scale(0.015625)"/>
        <path id="DejaVuSans-35" d="M 691 4666 
L 3169 4666 
L 3169 4134 
L 1269 4134 
L 1269 2991 
Q 1406 3038 1543 3061 
Q 1681 3084 1819 3084 
Q 2600 3084 3056 2656 
Q 3513 2228 3513 1497 
Q 3513 744 3044 326 
Q 2575 -91 1722 -91 
Q 1428 -91 1123 -41 
Q 819 9 494 109 
L 494 744 
Q 775 591 1075 516 
Q 1375 441 1709 441 
Q 2250 441 2565 725 
Q 2881 1009 2881 1497 
Q 2881 1984 2565 2268 
Q 2250 2553 1709 2553 
Q 1456 2553 1204 2497 
Q 953 2441 691 2322 
L 691 4666 
z
" transform="scale(0.015625)"/>
       </defs>
       <use xlink:href="#DejaVuSans-32"/>
       <use xlink:href="#DejaVuSans-35" x="63.623047"/>
      </g>
     </g>
    </g>
    <g id="xtick_3">
     <g id="line2d_5">
      <path d="M 341.171603 331.64 
L 341.171603 23.76 
" clip-path="url(#p9111ec42bc)" style="fill: none; stroke-dasharray: 5.12,1.28,0.8,1.28; stroke-dashoffset: 0; stroke: #b0b0b0; stroke-width: 0.8"/>
     </g>
     <g id="line2d_6">
      <g>
       <use xlink:href="#md8a8b22f0a" x="341.171603" y="331.64" style="stroke: #000000; stroke-width: 0.8"/>
      </g>
     </g>
     <g id="text_3">
      <!-- 50 -->
      <g transform="translate(327.174103 355.356563)scale(0.22 -0.22)">
       <use xlink:href="#DejaVuSans-35"/>
       <use xlink:href="#DejaVuSans-30" x="63.623047"/>
      </g>
     </g>
    </g>
    <g id="xtick_4">
     <g id="line2d_7">
      <path d="M 439.801723 331.64 
L 439.801723 23.76 
" clip-path="url(#p9111ec42bc)" style="fill: none; stroke-dasharray: 5.12,1.28,0.8,1.28; stroke-dashoffset: 0; stroke: #b0b0b0; stroke-width: 0.8"/>
     </g>
     <g id="line2d_8">
      <g>
       <use xlink:href="#md8a8b22f0a" x="439.801723" y="331.64" style="stroke: #000000; stroke-width: 0.8"/>
      </g>
     </g>
     <g id="text_4">
      <!-- 75 -->
      <g transform="translate(425.804223 355.356563)scale(0.22 -0.22)">
       <defs>
        <path id="DejaVuSans-37" d="M 525 4666 
L 3525 4666 
L 3525 4397 
L 1831 0 
L 1172 0 
L 2766 4134 
L 525 4134 
L 525 4666 
z
" transform="scale(0.015625)"/>
       </defs>
       <use xlink:href="#DejaVuSans-37"/>
       <use xlink:href="#DejaVuSans-35" x="63.623047"/>
      </g>
     </g>
    </g>
    <g id="xtick_5">
     <g id="line2d_9">
      <path d="M 538.431843 331.64 
L 538.431843 23.76 
" clip-path="url(#p9111ec42bc)" style="fill: none; stroke-dasharray: 5.12,1.28,0.8,1.28; stroke-dashoffset: 0; stroke: #b0b0b0; stroke-width: 0.8"/>
     </g>
     <g id="line2d_10">
      <g>
       <use xlink:href="#md8a8b22f0a" x="538.431843" y="331.64" style="stroke: #000000; stroke-width: 0.8"/>
      </g>
     </g>
     <g id="text_5">
      <!-- 100 -->
      <g transform="translate(517.435593 355.356563)scale(0.22 -0.22)">
       <defs>
        <path id="DejaVuSans-31" d="M 794 531 
L 1825 531 
L 1825 4091 
L 703 3866 
L 703 4441 
L 1819 4666 
L 2450 4666 
L 2450 531 
L 3481 531 
L 3481 0 
L 794 0 
L 794 531 
z
" transform="scale(0.015625)"/>
       </defs>
       <use xlink:href="#DejaVuSans-31"/>
       <use xlink:href="#DejaVuSans-30" x="63.623047"/>
       <use xlink:href="#DejaVuSans-30" x="127.246094"/>
      </g>
     </g>
    </g>
    <g id="xtick_6">
     <g id="line2d_11">
      <path d="M 637.061963 331.64 
L 637.061963 23.76 
" clip-path="url(#p9111ec42bc)" style="fill: none; stroke-dasharray: 5.12,1.28,0.8,1.28; stroke-dashoffset: 0; stroke: #b0b0b0; stroke-width: 0.8"/>
     </g>
     <g id="line2d_12">
      <g>
       <use xlink:href="#md8a8b22f0a" x="637.061963" y="331.64" style="stroke: #000000; stroke-width: 0.8"/>
      </g>
     </g>
     <g id="text_6">
      <!-- 125 -->
      <g transform="translate(616.065713 355.356563)scale(0.22 -0.22)">
       <use xlink:href="#DejaVuSans-31"/>
       <use xlink:href="#DejaVuSans-32" x="63.623047"/>
       <use xlink:href="#DejaVuSans-35" x="127.246094"/>
      </g>
     </g>
    </g>
    <g id="xtick_7">
     <g id="line2d_13">
      <path d="M 735.692083 331.64 
L 735.692083 23.76 
" clip-path="url(#p9111ec42bc)" style="fill: none; stroke-dasharray: 5.12,1.28,0.8,1.28; stroke-dashoffset: 0; stroke: #b0b0b0; stroke-width: 0.8"/>
     </g>
     <g id="line2d_14">
      <g>
       <use xlink:href="#md8a8b22f0a" x="735.692083" y="331.64" style="stroke: #000000; stroke-width: 0.8"/>
      </g>
     </g>
     <g id="text_7">
      <!-- 150 -->
      <g transform="translate(714.695833 355.356563)scale(0.22 -0.22)">
       <use xlink:href="#DejaVuSans-31"/>
       <use xlink:href="#DejaVuSans-35" x="63.623047"/>
       <use xlink:href="#DejaVuSans-30" x="127.246094"/>
      </g>
     </g>
    </g>
    <g id="xtick_8">
     <g id="line2d_15">
      <path d="M 834.322203 331.64 
L 834.322203 23.76 
" clip-path="url(#p9111ec42bc)" style="fill: none; stroke-dasharray: 5.12,1.28,0.8,1.28; stroke-dashoffset: 0; stroke: #b0b0b0; stroke-width: 0.8"/>
     </g>
     <g id="line2d_16">
      <g>
       <use xlink:href="#md8a8b22f0a" x="834.322203" y="331.64" style="stroke: #000000; stroke-width: 0.8"/>
      </g>
     </g>
     <g id="text_8">
      <!-- 175 -->
      <g transform="translate(813.325953 355.356563)scale(0.22 -0.22)">
       <use xlink:href="#DejaVuSans-31"/>
       <use xlink:href="#DejaVuSans-37" x="63.623047"/>
       <use xlink:href="#DejaVuSans-35" x="127.246094"/>
      </g>
     </g>
    </g>
    <g id="text_9">
     <!-- Time (s) -->
     <g transform="translate(454.135625 382.168125)scale(0.24 -0.24)">
      <defs>
       <path id="DejaVuSans-54" d="M -19 4666 
L 3928 4666 
L 3928 4134 
L 2272 4134 
L 2272 0 
L 1638 0 
L 1638 4134 
L -19 4134 
L -19 4666 
z
" transform="scale(0.015625)"/>
       <path id="DejaVuSans-69" d="M 603 3500 
L 1178 3500 
L 1178 0 
L 603 0 
L 603 3500 
z
M 603 4863 
L 1178 4863 
L 1178 4134 
L 603 4134 
L 603 4863 
z
" transform="scale(0.015625)"/>
       <path id="DejaVuSans-6d" d="M 3328 2828 
Q 3544 3216 3844 3400 
Q 4144 3584 4550 3584 
Q 5097 3584 5394 3201 
Q 5691 2819 5691 2113 
L 5691 0 
L 5113 0 
L 5113 2094 
Q 5113 2597 4934 2840 
Q 4756 3084 4391 3084 
Q 3944 3084 3684 2787 
Q 3425 2491 3425 1978 
L 3425 0 
L 2847 0 
L 2847 2094 
Q 2847 2600 2669 2842 
Q 2491 3084 2119 3084 
Q 1678 3084 1418 2786 
Q 1159 2488 1159 1978 
L 1159 0 
L 581 0 
L 581 3500 
L 1159 3500 
L 1159 2956 
Q 1356 3278 1631 3431 
Q 1906 3584 2284 3584 
Q 2666 3584 2933 3390 
Q 3200 3197 3328 2828 
z
" transform="scale(0.015625)"/>
       <path id="DejaVuSans-65" d="M 3597 1894 
L 3597 1613 
L 953 1613 
Q 991 1019 1311 708 
Q 1631 397 2203 397 
Q 2534 397 2845 478 
Q 3156 559 3463 722 
L 3463 178 
Q 3153 47 2828 -22 
Q 2503 -91 2169 -91 
Q 1331 -91 842 396 
Q 353 884 353 1716 
Q 353 2575 817 3079 
Q 1281 3584 2069 3584 
Q 2775 3584 3186 3129 
Q 3597 2675 3597 1894 
z
M 3022 2063 
Q 3016 2534 2758 2815 
Q 2500 3097 2075 3097 
Q 1594 3097 1305 2825 
Q 1016 2553 972 2059 
L 3022 2063 
z
" transform="scale(0.015625)"/>
       <path id="DejaVuSans-20" transform="scale(0.015625)"/>
       <path id="DejaVuSans-28" d="M 1984 4856 
Q 1566 4138 1362 3434 
Q 1159 2731 1159 2009 
Q 1159 1288 1364 580 
Q 1569 -128 1984 -844 
L 1484 -844 
Q 1016 -109 783 600 
Q 550 1309 550 2009 
Q 550 2706 781 3412 
Q 1013 4119 1484 4856 
L 1984 4856 
z
" transform="scale(0.015625)"/>
       <path id="DejaVuSans-73" d="M 2834 3397 
L 2834 2853 
Q 2591 2978 2328 3040 
Q 2066 3103 1784 3103 
Q 1356 3103 1142 2972 
Q 928 2841 928 2578 
Q 928 2378 1081 2264 
Q 1234 2150 1697 2047 
L 1894 2003 
Q 2506 1872 2764 1633 
Q 3022 1394 3022 966 
Q 3022 478 2636 193 
Q 2250 -91 1575 -91 
Q 1294 -91 989 -36 
Q 684 19 347 128 
L 347 722 
Q 666 556 975 473 
Q 1284 391 1588 391 
Q 1994 391 2212 530 
Q 2431 669 2431 922 
Q 2431 1156 2273 1281 
Q 2116 1406 1581 1522 
L 1381 1569 
Q 847 1681 609 1914 
Q 372 2147 372 2553 
Q 372 3047 722 3315 
Q 1072 3584 1716 3584 
Q 2034 3584 2315 3537 
Q 2597 3491 2834 3397 
z
" transform="scale(0.015625)"/>
       <path id="DejaVuSans-29" d="M 513 4856 
L 1013 4856 
Q 1481 4119 1714 3412 
Q 1947 2706 1947 2009 
Q 1947 1309 1714 600 
Q 1481 -109 1013 -844 
L 513 -844 
Q 928 -128 1133 580 
Q 1338 1288 1338 2009 
Q 1338 2731 1133 3434 
Q 928 4138 513 4856 
z
" transform="scale(0.015625)"/>
      </defs>
      <use xlink:href="#DejaVuSans-54"/>
      <use xlink:href="#DejaVuSans-69" x="57.958984"/>
      <use xlink:href="#DejaVuSans-6d" x="85.742188"/>
      <use xlink:href="#DejaVuSans-65" x="183.154297"/>
      <use xlink:href="#DejaVuSans-20" x="244.677734"/>
      <use xlink:href="#DejaVuSans-28" x="276.464844"/>
      <use xlink:href="#DejaVuSans-73" x="315.478516"/>
      <use xlink:href="#DejaVuSans-29" x="367.578125"/>
     </g>
    </g>
   </g>
   <g id="matplotlib.axis_2">
    <g id="ytick_1">
     <g id="line2d_17">
      <path d="M 108.01 331.64 
L 897.84 331.64 
" clip-path="url(#p9111ec42bc)" style="fill: none; stroke-dasharray: 5.12,1.28,0.8,1.28; stroke-dashoffset: 0; stroke: #b0b0b0; stroke-width: 0.8"/>
     </g>
     <g id="line2d_18">
      <defs>
       <path id="m4fbaeec3eb" d="M 0 0 
L -3.5 0 
" style="stroke: #000000; stroke-width: 0.8"/>
      </defs>
      <g>
       <use xlink:href="#m4fbaeec3eb" x="108.01" y="331.64" style="stroke: #000000; stroke-width: 0.8"/>
      </g>
     </g>
     <g id="text_10">
      <!-- 0 -->
      <g transform="translate(87.0125 339.998281)scale(0.22 -0.22)">
       <use xlink:href="#DejaVuSans-30"/>
      </g>
     </g>
    </g>
    <g id="ytick_2">
     <g id="line2d_19">
      <path d="M 108.01 240.045044 
L 897.84 240.045044 
" clip-path="url(#p9111ec42bc)" style="fill: none; stroke-dasharray: 5.12,1.28,0.8,1.28; stroke-dashoffset: 0; stroke: #b0b0b0; stroke-width: 0.8"/>
     </g>
     <g id="line2d_20">
      <g>
       <use xlink:href="#m4fbaeec3eb" x="108.01" y="240.045044" style="stroke: #000000; stroke-width: 0.8"/>
      </g>
     </g>
     <g id="text_11">
      <!-- 5 -->
      <g transform="translate(87.0125 248.403326)scale(0.22 -0.22)">
       <use xlink:href="#DejaVuSans-35"/>
      </g>
     </g>
    </g>
    <g id="ytick_3">
     <g id="line2d_21">
      <path d="M 108.01 148.450089 
L 897.84 148.450089 
" clip-path="url(#p9111ec42bc)" style="fill: none; stroke-dasharray: 5.12,1.28,0.8,1.28; stroke-dashoffset: 0; stroke: #b0b0b0; stroke-width: 0.8"/>
     </g>
     <g id="line2d_22">
      <g>
       <use xlink:href="#m4fbaeec3eb" x="108.01" y="148.450089" style="stroke: #000000; stroke-width: 0.8"/>
      </g>
     </g>
     <g id="text_12">
      <!-- 10 -->
      <g transform="translate(73.015 156.80837)scale(0.22 -0.22)">
       <use xlink:href="#DejaVuSans-31"/>
       <use xlink:href="#DejaVuSans-30" x="63.623047"/>
      </g>
     </g>
    </g>
    <g id="ytick_4">
     <g id="line2d_23">
      <path d="M 108.01 56.855133 
L 897.84 56.855133 
" clip-path="url(#p9111ec42bc)" style="fill: none; stroke-dasharray: 5.12,1.28,0.8,1.28; stroke-dashoffset: 0; stroke: #b0b0b0; stroke-width: 0.8"/>
     </g>
     <g id="line2d_24">
      <g>
       <use xlink:href="#m4fbaeec3eb" x="108.01" y="56.855133" style="stroke: #000000; stroke-width: 0.8"/>
      </g>
     </g>
     <g id="text_13">
      <!-- 15 -->
      <g transform="translate(73.015 65.213415)scale(0.22 -0.22)">
       <use xlink:href="#DejaVuSans-31"/>
       <use xlink:href="#DejaVuSans-35" x="63.623047"/>
      </g>
     </g>
    </g>
    <g id="text_14">
     <!-- Throughput (Mbps) -->
     <g transform="translate(64.02375 292.414375)rotate(-90)scale(0.24 -0.24)">
      <defs>
       <path id="DejaVuSans-68" d="M 3513 2113 
L 3513 0 
L 2938 0 
L 2938 2094 
Q 2938 2591 2744 2837 
Q 2550 3084 2163 3084 
Q 1697 3084 1428 2787 
Q 1159 2491 1159 1978 
L 1159 0 
L 581 0 
L 581 4863 
L 1159 4863 
L 1159 2956 
Q 1366 3272 1645 3428 
Q 1925 3584 2291 3584 
Q 2894 3584 3203 3211 
Q 3513 2838 3513 2113 
z
" transform="scale(0.015625)"/>
       <path id="DejaVuSans-72" d="M 2631 2963 
Q 2534 3019 2420 3045 
Q 2306 3072 2169 3072 
Q 1681 3072 1420 2755 
Q 1159 2438 1159 1844 
L 1159 0 
L 581 0 
L 581 3500 
L 1159 3500 
L 1159 2956 
Q 1341 3275 1631 3429 
Q 1922 3584 2338 3584 
Q 2397 3584 2469 3576 
Q 2541 3569 2628 3553 
L 2631 2963 
z
" transform="scale(0.015625)"/>
       <path id="DejaVuSans-6f" d="M 1959 3097 
Q 1497 3097 1228 2736 
Q 959 2375 959 1747 
Q 959 1119 1226 758 
Q 1494 397 1959 397 
Q 2419 397 2687 759 
Q 2956 1122 2956 1747 
Q 2956 2369 2687 2733 
Q 2419 3097 1959 3097 
z
M 1959 3584 
Q 2709 3584 3137 3096 
Q 3566 2609 3566 1747 
Q 3566 888 3137 398 
Q 2709 -91 1959 -91 
Q 1206 -91 779 398 
Q 353 888 353 1747 
Q 353 2609 779 3096 
Q 1206 3584 1959 3584 
z
" transform="scale(0.015625)"/>
       <path id="DejaVuSans-75" d="M 544 1381 
L 544 3500 
L 1119 3500 
L 1119 1403 
Q 1119 906 1312 657 
Q 1506 409 1894 409 
Q 2359 409 2629 706 
Q 2900 1003 2900 1516 
L 2900 3500 
L 3475 3500 
L 3475 0 
L 2900 0 
L 2900 538 
Q 2691 219 2414 64 
Q 2138 -91 1772 -91 
Q 1169 -91 856 284 
Q 544 659 544 1381 
z
M 1991 3584 
L 1991 3584 
z
" transform="scale(0.015625)"/>
       <path id="DejaVuSans-67" d="M 2906 1791 
Q 2906 2416 2648 2759 
Q 2391 3103 1925 3103 
Q 1463 3103 1205 2759 
Q 947 2416 947 1791 
Q 947 1169 1205 825 
Q 1463 481 1925 481 
Q 2391 481 2648 825 
Q 2906 1169 2906 1791 
z
M 3481 434 
Q 3481 -459 3084 -895 
Q 2688 -1331 1869 -1331 
Q 1566 -1331 1297 -1286 
Q 1028 -1241 775 -1147 
L 775 -588 
Q 1028 -725 1275 -790 
Q 1522 -856 1778 -856 
Q 2344 -856 2625 -561 
Q 2906 -266 2906 331 
L 2906 616 
Q 2728 306 2450 153 
Q 2172 0 1784 0 
Q 1141 0 747 490 
Q 353 981 353 1791 
Q 353 2603 747 3093 
Q 1141 3584 1784 3584 
Q 2172 3584 2450 3431 
Q 2728 3278 2906 2969 
L 2906 3500 
L 3481 3500 
L 3481 434 
z
" transform="scale(0.015625)"/>
       <path id="DejaVuSans-70" d="M 1159 525 
L 1159 -1331 
L 581 -1331 
L 581 3500 
L 1159 3500 
L 1159 2969 
Q 1341 3281 1617 3432 
Q 1894 3584 2278 3584 
Q 2916 3584 3314 3078 
Q 3713 2572 3713 1747 
Q 3713 922 3314 415 
Q 2916 -91 2278 -91 
Q 1894 -91 1617 61 
Q 1341 213 1159 525 
z
M 3116 1747 
Q 3116 2381 2855 2742 
Q 2594 3103 2138 3103 
Q 1681 3103 1420 2742 
Q 1159 2381 1159 1747 
Q 1159 1113 1420 752 
Q 1681 391 2138 391 
Q 2594 391 2855 752 
Q 3116 1113 3116 1747 
z
" transform="scale(0.015625)"/>
       <path id="DejaVuSans-74" d="M 1172 4494 
L 1172 3500 
L 2356 3500 
L 2356 3053 
L 1172 3053 
L 1172 1153 
Q 1172 725 1289 603 
Q 1406 481 1766 481 
L 2356 481 
L 2356 0 
L 1766 0 
Q 1100 0 847 248 
Q 594 497 594 1153 
L 594 3053 
L 172 3053 
L 172 3500 
L 594 3500 
L 594 4494 
L 1172 4494 
z
" transform="scale(0.015625)"/>
       <path id="DejaVuSans-4d" d="M 628 4666 
L 1569 4666 
L 2759 1491 
L 3956 4666 
L 4897 4666 
L 4897 0 
L 4281 0 
L 4281 4097 
L 3078 897 
L 2444 897 
L 1241 4097 
L 1241 0 
L 628 0 
L 628 4666 
z
" transform="scale(0.015625)"/>
       <path id="DejaVuSans-62" d="M 3116 1747 
Q 3116 2381 2855 2742 
Q 2594 3103 2138 3103 
Q 1681 3103 1420 2742 
Q 1159 2381 1159 1747 
Q 1159 1113 1420 752 
Q 1681 391 2138 391 
Q 2594 391 2855 752 
Q 3116 1113 3116 1747 
z
M 1159 2969 
Q 1341 3281 1617 3432 
Q 1894 3584 2278 3584 
Q 2916 3584 3314 3078 
Q 3713 2572 3713 1747 
Q 3713 922 3314 415 
Q 2916 -91 2278 -91 
Q 1894 -91 1617 61 
Q 1341 213 1159 525 
L 1159 0 
L 581 0 
L 581 4863 
L 1159 4863 
L 1159 2969 
z
" transform="scale(0.015625)"/>
      </defs>
      <use xlink:href="#DejaVuSans-54"/>
      <use xlink:href="#DejaVuSans-68" x="61.083984"/>
      <use xlink:href="#DejaVuSans-72" x="124.462891"/>
      <use xlink:href="#DejaVuSans-6f" x="163.326172"/>
      <use xlink:href="#DejaVuSans-75" x="224.507812"/>
      <use xlink:href="#DejaVuSans-67" x="287.886719"/>
      <use xlink:href="#DejaVuSans-68" x="351.363281"/>
      <use xlink:href="#DejaVuSans-70" x="414.742188"/>
      <use xlink:href="#DejaVuSans-75" x="478.21875"/>
      <use xlink:href="#DejaVuSans-74" x="541.597656"/>
      <use xlink:href="#DejaVuSans-20" x="580.806641"/>
      <use xlink:href="#DejaVuSans-28" x="612.59375"/>
      <use xlink:href="#DejaVuSans-4d" x="651.607422"/>
      <use xlink:href="#DejaVuSans-62" x="737.886719"/>
      <use xlink:href="#DejaVuSans-70" x="801.363281"/>
      <use xlink:href="#DejaVuSans-73" x="864.839844"/>
      <use xlink:href="#DejaVuSans-29" x="916.939453"/>
     </g>
    </g>
   </g>
   <g id="patch_3">
    <path d="M 108.01 331.64 
L 108.01 23.76 
" style="fill: none; stroke: #000000; stroke-width: 0.8; stroke-linejoin: miter; stroke-linecap: square"/>
   </g>
   <g id="patch_4">
    <path d="M 897.84 331.64 
L 897.84 23.76 
" style="fill: none; stroke: #000000; stroke-width: 0.8; stroke-linejoin: miter; stroke-linecap: square"/>
   </g>
   <g id="patch_5">
    <path d="M 108.01 331.64 
L 897.84 331.64 
" style="fill: none; stroke: #000000; stroke-width: 0.8; stroke-linejoin: miter; stroke-linecap: square"/>
   </g>
   <g id="patch_6">
    <path d="M 108.01 23.76 
L 897.84 23.76 
" style="fill: none; stroke: #000000; stroke-width: 0.8; stroke-linejoin: miter; stroke-linecap: square"/>
   </g>
   <g id="legend_1">
    <g id="patch_7">
     <path d="M 756.24 148.6425 
L 881.04 148.6425 
Q 885.84 148.6425 885.84 143.8425 
L 885.84 40.56 
Q 885.84 35.76 881.04 35.76 
L 756.24 35.76 
Q 751.44 35.76 751.44 40.56 
L 751.44 143.8425 
Q 751.44 148.6425 756.24 148.6425 
z
" style="fill: #ffffff; opacity: 0.8; stroke: #cccccc; stroke-linejoin: miter"/>
    </g>
    <g id="patch_8">
     <path d="M 761.04 63.59625 
L 809.04 63.59625 
L 809.04 46.79625 
L 761.04 46.79625 
z
" style="fill: #1f77b4"/>
    </g>
    <g id="text_15">
     <!-- UE1 -->
     <g transform="translate(828.24 63.59625)scale(0.24 -0.24)">
      <defs>
       <path id="DejaVuSans-55" d="M 556 4666 
L 1191 4666 
L 1191 1831 
Q 1191 1081 1462 751 
Q 1734 422 2344 422 
Q 2950 422 3222 751 
Q 3494 1081 3494 1831 
L 3494 4666 
L 4128 4666 
L 4128 1753 
Q 4128 841 3676 375 
Q 3225 -91 2344 -91 
Q 1459 -91 1007 375 
Q 556 841 556 1753 
L 556 4666 
z
" transform="scale(0.015625)"/>
       <path id="DejaVuSans-45" d="M 628 4666 
L 3578 4666 
L 3578 4134 
L 1259 4134 
L 1259 2753 
L 3481 2753 
L 3481 2222 
L 1259 2222 
L 1259 531 
L 3634 531 
L 3634 0 
L 628 0 
L 628 4666 
z
" transform="scale(0.015625)"/>
      </defs>
      <use xlink:href="#DejaVuSans-55"/>
      <use xlink:href="#DejaVuSans-45" x="73.193359"/>
      <use xlink:href="#DejaVuSans-31" x="136.376953"/>
     </g>
    </g>
    <g id="patch_9">
     <path d="M 761.04 98.82375 
L 809.04 98.82375 
L 809.04 82.02375 
L 761.04 82.02375 
z
" style="fill: #ff7f0e"/>
    </g>
    <g id="text_16">
     <!-- UE2 -->
     <g transform="translate(828.24 98.82375)scale(0.24 -0.24)">
      <use xlink:href="#DejaVuSans-55"/>
      <use xlink:href="#DejaVuSans-45" x="73.193359"/>
      <use xlink:href="#DejaVuSans-32" x="136.376953"/>
     </g>
    </g>
    <g id="patch_10">
     <path d="M 761.04 134.05125 
L 809.04 134.05125 
L 809.04 117.25125 
L 761.04 117.25125 
z
" style="fill: #2ca02c"/>
    </g>
    <g id="text_17">
     <!-- UE3 -->
     <g transform="translate(828.24 134.05125)scale(0.24 -0.24)">
      <defs>
       <path id="DejaVuSans-33" d="M 2597 2516 
Q 3050 2419 3304 2112 
Q 3559 1806 3559 1356 
Q 3559 666 3084 287 
Q 2609 -91 1734 -91 
Q 1441 -91 1130 -33 
Q 819 25 488 141 
L 488 750 
Q 750 597 1062 519 
Q 1375 441 1716 441 
Q 2309 441 2620 675 
Q 2931 909 2931 1356 
Q 2931 1769 2642 2001 
Q 2353 2234 1838 2234 
L 1294 2234 
L 1294 2753 
L 1863 2753 
Q 2328 2753 2575 2939 
Q 2822 3125 2822 3475 
Q 2822 3834 2567 4026 
Q 2313 4219 1838 4219 
Q 1578 4219 1281 4162 
Q 984 4106 628 3988 
L 628 4550 
Q 988 4650 1302 4700 
Q 1616 4750 1894 4750 
Q 2613 4750 3031 4423 
Q 3450 4097 3450 3541 
Q 3450 3153 3228 2886 
Q 3006 2619 2597 2516 
z
" transform="scale(0.015625)"/>
      </defs>
      <use xlink:href="#DejaVuSans-55"/>
      <use xlink:href="#DejaVuSans-45" x="73.193359"/>
      <use xlink:href="#DejaVuSans-33" x="136.376953"/>
     </g>
    </g>
   </g>
  </g>
 </g>
 <defs>
  <clipPath id="p9111ec42bc">
   <rect x="108.01" y="23.76" width="789.83" height="307.88"/>
  </clipPath>
 </defs>
</svg>
