<?xml version="1.0" encoding="utf-8" standalone="no"?>
<!DOCTYPE svg PUBLIC "-//W3C//DTD SVG 1.1//EN"
  "http://www.w3.org/Graphics/SVG/1.1/DTD/svg11.dtd">
<svg xmlns:xlink="http://www.w3.org/1999/xlink" width="921.6pt" height="410.4pt" viewBox="0 0 921.6 410.4" xmlns="http://www.w3.org/2000/svg" version="1.1">
 <metadata>
  <rdf:RDF xmlns:dc="http://purl.org/dc/elements/1.1/" xmlns:cc="http://creativecommons.org/ns#" xmlns:rdf="http://www.w3.org/1999/02/22-rdf-syntax-ns#">
   <cc:Work>
    <dc:type rdf:resource="http://purl.org/dc/dcmitype/StillImage"/>
    <dc:date>2023-05-08T14:05:22.391272</dc:date>
    <dc:format>image/svg+xml</dc:format>
    <dc:creator>
     <cc:Agent>
      <dc:title>Matplotlib v3.7.1, https://matplotlib.org/</dc:title>
     </cc:Agent>
    </dc:creator>
   </cc:Work>
  </rdf:RDF>
 </metadata>
 <defs>
  <style type="text/css">*{stroke-linejoin: round; stroke-linecap: butt}</style>
 </defs>
 <g id="figure_1">
  <g id="patch_1">
   <path d="M 0 410.4 
L 921.6 410.4 
L 921.6 0 
L 0 0 
z
" style="fill: #ffffff"/>
  </g>
  <g id="axes_1">
   <g id="patch_2">
    <path d="M 100.37 331 
L 897.84 331 
L 897.84 23.76 
L 100.37 23.76 
z
" style="fill: #ffffff"/>
   </g>
   <g id="PolyCollection_1">
    <path d="M 136.618636 279.390076 
L 136.618636 331 
L 140.537408 331 
L 144.456179 331 
L 148.374951 331 
L 152.293722 331 
L 156.212494 331 
L 160.131265 331 
L 164.050037 331 
L 167.968808 331 
L 171.88758 331 
L 175.806351 331 
L 179.725123 331 
L 183.643894 331 
L 187.562666 331 
L 191.481437 331 
L 195.400209 331 
L 199.31898 331 
L 203.237752 331 
L 207.156523 331 
L 211.075295 331 
L 214.994066 331 
L 218.912838 331 
L 222.831609 331 
L 226.750381 331 
L 230.669152 331 
L 234.587924 331 
L 238.506695 331 
L 242.425467 331 
L 246.344238 331 
L 250.26301 331 
L 254.181781 331 
L 258.100553 331 
L 262.019324 331 
L 265.938096 331 
L 269.856867 331 
L 273.775639 331 
L 277.69441 331 
L 281.613182 331 
L 285.531953 331 
L 289.450725 331 
L 293.369496 331 
L 297.288268 331 
L 301.207039 331 
L 305.125811 331 
L 309.044582 331 
L 312.963354 331 
L 316.882125 331 
L 320.800897 331 
L 324.719668 331 
L 328.63844 331 
L 332.557211 331 
L 336.475983 331 
L 340.394754 331 
L 344.313526 331 
L 348.232297 331 
L 352.151069 331 
L 356.06984 331 
L 359.988612 331 
L 363.907383 331 
L 367.826155 331 
L 371.744926 331 
L 375.663698 331 
L 379.582469 331 
L 383.501241 331 
L 387.420012 331 
L 391.338784 331 
L 395.257555 331 
L 399.176327 331 
L 403.095098 331 
L 407.01387 331 
L 410.932641 331 
L 414.851413 331 
L 418.770184 331 
L 422.688956 331 
L 426.607727 331 
L 430.526499 331 
L 434.44527 331 
L 438.364042 331 
L 442.282813 331 
L 446.201585 331 
L 450.120356 331 
L 454.039128 331 
L 457.957899 331 
L 461.876671 331 
L 465.795442 331 
L 469.714214 331 
L 473.632985 331 
L 477.551757 331 
L 481.470528 331 
L 485.3893 331 
L 489.308071 331 
L 493.226843 331 
L 497.145614 331 
L 501.064386 331 
L 504.983157 331 
L 508.901929 331 
L 512.8207 331 
L 516.739472 331 
L 520.658243 331 
L 524.577015 331 
L 528.495786 331 
L 532.414558 331 
L 536.333329 331 
L 540.252101 331 
L 544.170872 331 
L 548.089644 331 
L 552.008415 331 
L 555.927187 331 
L 559.845958 331 
L 563.76473 331 
L 567.683501 331 
L 571.602273 331 
L 575.521044 331 
L 579.439816 331 
L 583.358587 331 
L 587.277359 331 
L 591.19613 331 
L 595.114902 331 
L 599.033673 331 
L 602.952445 331 
L 606.871216 331 
L 610.789988 331 
L 614.708759 331 
L 618.627531 331 
L 622.546302 331 
L 626.465074 331 
L 630.383845 331 
L 634.302617 331 
L 638.221388 331 
L 642.14016 331 
L 646.058931 331 
L 649.977703 331 
L 653.896474 331 
L 657.815246 331 
L 661.734017 331 
L 665.652789 331 
L 669.57156 331 
L 673.490332 331 
L 677.409103 331 
L 681.327875 331 
L 685.246646 331 
L 689.165418 331 
L 693.084189 331 
L 697.002961 331 
L 700.921732 331 
L 704.840504 331 
L 708.759275 331 
L 712.678047 331 
L 716.596818 331 
L 720.51559 331 
L 724.434361 331 
L 728.353133 331 
L 732.271904 331 
L 736.190676 331 
L 740.109447 331 
L 744.028219 331 
L 747.94699 331 
L 751.865762 331 
L 755.784533 331 
L 759.703305 331 
L 763.622076 331 
L 767.540848 331 
L 771.459619 331 
L 775.378391 331 
L 779.297162 331 
L 783.215934 331 
L 787.134705 331 
L 791.053477 331 
L 794.972248 331 
L 798.89102 331 
L 802.809791 331 
L 806.728563 331 
L 810.647334 331 
L 814.566106 331 
L 818.484877 331 
L 822.403649 331 
L 826.32242 331 
L 830.241192 331 
L 834.159963 331 
L 838.078735 331 
L 841.997506 331 
L 845.916278 331 
L 849.835049 331 
L 853.753821 331 
L 857.672592 331 
L 861.591364 331 
L 861.591364 237.504026 
L 861.591364 237.504026 
L 857.672592 237.397142 
L 853.753821 237.432835 
L 849.835049 237.344911 
L 845.916278 237.768412 
L 841.997506 237.909567 
L 838.078735 236.999214 
L 834.159963 237.586337 
L 830.241192 237.711357 
L 826.32242 237.195687 
L 822.403649 237.114955 
L 818.484877 235.64419 
L 814.566106 235.184295 
L 810.647334 237.316164 
L 806.728563 237.512217 
L 802.809791 234.995889 
L 798.89102 233.690923 
L 794.972248 233.636306 
L 791.053477 233.651512 
L 787.134705 233.763798 
L 783.215934 234.565022 
L 779.297162 237.089049 
L 775.378391 238.056264 
L 771.459619 240.23612 
L 767.540848 241.056077 
L 763.622076 240.672828 
L 759.703305 238.221834 
L 755.784533 234.020098 
L 751.865762 233.822344 
L 747.94699 235.07885 
L 744.028219 237.664632 
L 740.109447 237.704692 
L 736.190676 237.735175 
L 732.271904 237.662896 
L 728.353133 240.014285 
L 724.434361 241.581515 
L 720.51559 239.447208 
L 716.596818 233.884976 
L 712.678047 235.558265 
L 708.759275 239.013587 
L 704.840504 235.751354 
L 700.921732 234.131629 
L 697.002961 233.571674 
L 693.084189 233.741277 
L 689.165418 234.131927 
L 685.246646 233.915827 
L 681.327875 234.052984 
L 677.409103 236.373469 
L 673.490332 235.586083 
L 669.57156 236.334953 
L 665.652789 238.057878 
L 661.734017 236.771468 
L 657.815246 238.100884 
L 653.896474 238.286168 
L 649.977703 234.650403 
L 646.058931 234.106355 
L 642.14016 234.045266 
L 638.221388 233.537876 
L 634.302617 233.361905 
L 630.383845 233.720195 
L 626.465074 234.037163 
L 622.546302 233.808172 
L 618.627531 234.086992 
L 614.708759 234.116195 
L 610.789988 233.835691 
L 606.871216 233.749223 
L 602.952445 233.588073 
L 599.033673 233.7615 
L 595.114902 233.777022 
L 591.19613 233.890624 
L 587.277359 233.915985 
L 583.358587 233.402666 
L 579.439816 233.550223 
L 575.521044 233.723773 
L 571.602273 233.461089 
L 567.683501 233.835077 
L 563.76473 233.642286 
L 559.845958 233.831253 
L 555.927187 233.813434 
L 552.008415 233.566184 
L 548.089644 233.681539 
L 544.170872 233.6965 
L 540.252101 233.794281 
L 536.333329 233.637989 
L 532.414558 233.797122 
L 528.495786 233.799858 
L 524.577015 235.586486 
L 520.658243 237.80698 
L 516.739472 237.74091 
L 512.8207 239.683373 
L 508.901929 240.323202 
L 504.983157 241.20551 
L 501.064386 239.463064 
L 497.145614 237.657038 
L 493.226843 237.200581 
L 489.308071 234.006207 
L 485.3893 233.658703 
L 481.470528 233.396843 
L 477.551757 233.612733 
L 473.632985 233.96299 
L 469.714214 236.740195 
L 465.795442 237.869174 
L 461.876671 235.271149 
L 457.957899 235.852941 
L 454.039128 235.385733 
L 450.120356 233.978232 
L 446.201585 234.302163 
L 442.282813 234.153466 
L 438.364042 233.737805 
L 434.44527 233.680574 
L 430.526499 233.801016 
L 426.607727 234.256613 
L 422.688956 233.435096 
L 418.770184 233.708392 
L 414.851413 233.849687 
L 410.932641 233.795 
L 407.01387 233.747556 
L 403.095098 234.384474 
L 399.176327 235.951967 
L 395.257555 234.05116 
L 391.338784 233.772655 
L 387.420012 233.741541 
L 383.501241 233.258477 
L 379.582469 233.619503 
L 375.663698 233.657177 
L 371.744926 234.092429 
L 367.826155 236.126868 
L 363.907383 233.587775 
L 359.988612 233.835217 
L 356.06984 234.751148 
L 352.151069 235.164458 
L 348.232297 237.828764 
L 344.313526 238.161482 
L 340.394754 234.419552 
L 336.475983 233.278699 
L 332.557211 233.735016 
L 328.63844 234.338469 
L 324.719668 233.571323 
L 320.800897 233.725369 
L 316.882125 233.815608 
L 312.963354 233.500324 
L 309.044582 233.976829 
L 305.125811 233.816047 
L 301.207039 236.643028 
L 297.288268 237.495537 
L 293.369496 237.334563 
L 289.450725 237.166204 
L 285.531953 234.033813 
L 281.613182 233.840339 
L 277.69441 234.852296 
L 273.775639 235.428423 
L 269.856867 237.038045 
L 265.938096 237.591564 
L 262.019324 237.510814 
L 258.100553 236.945579 
L 254.181781 233.92144 
L 250.26301 234.022623 
L 246.344238 233.985405 
L 242.425467 234.05044 
L 238.506695 237.300344 
L 234.587924 236.719008 
L 230.669152 235.711014 
L 226.750381 273.285111 
L 222.831609 280.356116 
L 218.912838 280.339366 
L 214.994066 280.445899 
L 211.075295 280.487625 
L 207.156523 280.4141 
L 203.237752 280.44397 
L 199.31898 280.311058 
L 195.400209 280.557413 
L 191.481437 280.338524 
L 187.562666 280.452195 
L 183.643894 280.406927 
L 179.725123 280.386792 
L 175.806351 280.529561 
L 171.88758 280.508636 
L 167.968808 280.26828 
L 164.050037 280.532016 
L 160.131265 280.248495 
L 156.212494 280.484573 
L 152.293722 280.613871 
L 148.374951 280.238814 
L 144.456179 280.539804 
L 140.537408 281.226181 
L 136.618636 279.390076 
z
" clip-path="url(#pe83e5cfc15)" style="fill: #1f77b4"/>
   </g>
   <g id="PolyCollection_2">
    <path d="M 136.618636 226.923293 
L 136.618636 279.390076 
L 140.537408 281.226181 
L 144.456179 280.539804 
L 148.374951 280.238814 
L 152.293722 280.613871 
L 156.212494 280.484573 
L 160.131265 280.248495 
L 164.050037 280.532016 
L 167.968808 280.26828 
L 171.88758 280.508636 
L 175.806351 280.529561 
L 179.725123 280.386792 
L 183.643894 280.406927 
L 187.562666 280.452195 
L 191.481437 280.338524 
L 195.400209 280.557413 
L 199.31898 280.311058 
L 203.237752 280.44397 
L 207.156523 280.4141 
L 211.075295 280.487625 
L 214.994066 280.445899 
L 218.912838 280.339366 
L 222.831609 280.356116 
L 226.750381 273.285111 
L 230.669152 235.711014 
L 234.587924 236.719008 
L 238.506695 237.300344 
L 242.425467 234.05044 
L 246.344238 233.985405 
L 250.26301 234.022623 
L 254.181781 233.92144 
L 258.100553 236.945579 
L 262.019324 237.510814 
L 265.938096 237.591564 
L 269.856867 237.038045 
L 273.775639 235.428423 
L 277.69441 234.852296 
L 281.613182 233.840339 
L 285.531953 234.033813 
L 289.450725 237.166204 
L 293.369496 237.334563 
L 297.288268 237.495537 
L 301.207039 236.643028 
L 305.125811 233.816047 
L 309.044582 233.976829 
L 312.963354 233.500324 
L 316.882125 233.815608 
L 320.800897 233.725369 
L 324.719668 233.571323 
L 328.63844 234.338469 
L 332.557211 233.735016 
L 336.475983 233.278699 
L 340.394754 234.419552 
L 344.313526 238.161482 
L 348.232297 237.828764 
L 352.151069 235.164458 
L 356.06984 234.751148 
L 359.988612 233.835217 
L 363.907383 233.587775 
L 367.826155 236.126868 
L 371.744926 234.092429 
L 375.663698 233.657177 
L 379.582469 233.619503 
L 383.501241 233.258477 
L 387.420012 233.741541 
L 391.338784 233.772655 
L 395.257555 234.05116 
L 399.176327 235.951967 
L 403.095098 234.384474 
L 407.01387 233.747556 
L 410.932641 233.795 
L 414.851413 233.849687 
L 418.770184 233.708392 
L 422.688956 233.435096 
L 426.607727 234.256613 
L 430.526499 233.801016 
L 434.44527 233.680574 
L 438.364042 233.737805 
L 442.282813 234.153466 
L 446.201585 234.302163 
L 450.120356 233.978232 
L 454.039128 235.385733 
L 457.957899 235.852941 
L 461.876671 235.271149 
L 465.795442 237.869174 
L 469.714214 236.740195 
L 473.632985 233.96299 
L 477.551757 233.612733 
L 481.470528 233.396843 
L 485.3893 233.658703 
L 489.308071 234.006207 
L 493.226843 237.200581 
L 497.145614 237.657038 
L 501.064386 239.463064 
L 504.983157 241.20551 
L 508.901929 240.323202 
L 512.8207 239.683373 
L 516.739472 237.74091 
L 520.658243 237.80698 
L 524.577015 235.586486 
L 528.495786 233.799858 
L 532.414558 233.797122 
L 536.333329 233.637989 
L 540.252101 233.794281 
L 544.170872 233.6965 
L 548.089644 233.681539 
L 552.008415 233.566184 
L 555.927187 233.813434 
L 559.845958 233.831253 
L 563.76473 233.642286 
L 567.683501 233.835077 
L 571.602273 233.461089 
L 575.521044 233.723773 
L 579.439816 233.550223 
L 583.358587 233.402666 
L 587.277359 233.915985 
L 591.19613 233.890624 
L 595.114902 233.777022 
L 599.033673 233.7615 
L 602.952445 233.588073 
L 606.871216 233.749223 
L 610.789988 233.835691 
L 614.708759 234.116195 
L 618.627531 234.086992 
L 622.546302 233.808172 
L 626.465074 234.037163 
L 630.383845 233.720195 
L 634.302617 233.361905 
L 638.221388 233.537876 
L 642.14016 234.045266 
L 646.058931 234.106355 
L 649.977703 234.650403 
L 653.896474 238.286168 
L 657.815246 238.100884 
L 661.734017 236.771468 
L 665.652789 238.057878 
L 669.57156 236.334953 
L 673.490332 235.586083 
L 677.409103 236.373469 
L 681.327875 234.052984 
L 685.246646 233.915827 
L 689.165418 234.131927 
L 693.084189 233.741277 
L 697.002961 233.571674 
L 700.921732 234.131629 
L 704.840504 235.751354 
L 708.759275 239.013587 
L 712.678047 235.558265 
L 716.596818 233.884976 
L 720.51559 239.447208 
L 724.434361 241.581515 
L 728.353133 240.014285 
L 732.271904 237.662896 
L 736.190676 237.735175 
L 740.109447 237.704692 
L 744.028219 237.664632 
L 747.94699 235.07885 
L 751.865762 233.822344 
L 755.784533 234.020098 
L 759.703305 238.221834 
L 763.622076 240.672828 
L 767.540848 241.056077 
L 771.459619 240.23612 
L 775.378391 238.056264 
L 779.297162 237.089049 
L 783.215934 234.565022 
L 787.134705 233.763798 
L 791.053477 233.651512 
L 794.972248 233.636306 
L 798.89102 233.690923 
L 802.809791 234.995889 
L 806.728563 237.512217 
L 810.647334 237.316164 
L 814.566106 235.184295 
L 818.484877 235.64419 
L 822.403649 237.114955 
L 826.32242 237.195687 
L 830.241192 237.711357 
L 834.159963 237.586337 
L 838.078735 236.999214 
L 841.997506 237.909567 
L 845.916278 237.768412 
L 849.835049 237.344911 
L 853.753821 237.432835 
L 857.672592 237.397142 
L 861.591364 237.504026 
L 861.591364 140.583459 
L 861.591364 140.583459 
L 857.672592 140.390738 
L 853.753821 140.628517 
L 849.835049 140.408839 
L 845.916278 140.788334 
L 841.997506 140.708425 
L 838.078735 139.96494 
L 834.159963 140.799384 
L 830.241192 140.586405 
L 826.32242 139.989565 
L 822.403649 140.560062 
L 818.484877 138.415073 
L 814.566106 138.497893 
L 810.647334 140.115216 
L 806.728563 141.411395 
L 802.809791 137.732116 
L 798.89102 137.733115 
L 794.972248 140.022837 
L 791.053477 140.482503 
L 787.134705 140.932138 
L 783.215934 141.230496 
L 779.297162 145.882919 
L 775.378391 146.719591 
L 771.459619 149.656946 
L 767.540848 147.537828 
L 763.622076 148.110236 
L 759.703305 145.570301 
L 755.784533 140.992385 
L 751.865762 142.964963 
L 747.94699 145.225201 
L 744.028219 148.192881 
L 740.109447 148.099467 
L 736.190676 146.694843 
L 732.271904 146.001116 
L 728.353133 148.635692 
L 724.434361 150.402852 
L 720.51559 146.326029 
L 716.596818 140.445689 
L 712.678047 143.467337 
L 708.759275 143.953663 
L 704.840504 138.64503 
L 700.921732 136.564305 
L 697.002961 136.496376 
L 693.084189 136.699935 
L 689.165418 136.91672 
L 685.246646 137.092111 
L 681.327875 136.905828 
L 677.409103 139.444833 
L 673.490332 138.57247 
L 669.57156 139.245992 
L 665.652789 141.1371 
L 661.734017 139.849129 
L 657.815246 141.014993 
L 653.896474 142.869567 
L 649.977703 137.93778 
L 646.058931 136.901618 
L 642.14016 136.818255 
L 638.221388 135.81312 
L 634.302617 136.225133 
L 630.383845 136.541013 
L 626.465074 136.608328 
L 622.546302 137.027304 
L 618.627531 136.949518 
L 614.708759 137.049035 
L 610.789988 136.518335 
L 606.871216 136.443179 
L 602.952445 136.498656 
L 599.033673 136.231482 
L 595.114902 136.6493 
L 591.19613 136.71323 
L 587.277359 136.232394 
L 583.358587 136.200981 
L 579.439816 136.016592 
L 575.521044 136.566515 
L 571.602273 136.332858 
L 567.683501 136.317687 
L 563.76473 136.270103 
L 559.845958 136.404032 
L 555.927187 136.445161 
L 552.008415 136.469821 
L 548.089644 136.45779 
L 544.170872 137.351814 
L 540.252101 137.833089 
L 536.333329 137.713016 
L 532.414558 140.141366 
L 528.495786 140.566183 
L 524.577015 142.009692 
L 520.658243 145.206995 
L 516.739472 145.069698 
L 512.8207 146.752108 
L 508.901929 148.655091 
L 504.983157 151.870705 
L 501.064386 149.836477 
L 497.145614 151.744879 
L 493.226843 152.17408 
L 489.308071 146.55125 
L 485.3893 146.0926 
L 481.470528 143.612123 
L 477.551757 143.964169 
L 473.632985 145.911824 
L 469.714214 148.391723 
L 465.795442 147.885174 
L 461.876671 142.127222 
L 457.957899 143.881788 
L 454.039128 141.847489 
L 450.120356 143.040679 
L 446.201585 137.828669 
L 442.282813 136.859296 
L 438.364042 136.405049 
L 434.44527 136.300604 
L 430.526499 137.213026 
L 426.607727 136.791718 
L 422.688956 136.030816 
L 418.770184 136.389983 
L 414.851413 136.792893 
L 410.932641 137.514174 
L 407.01387 137.475062 
L 403.095098 141.795082 
L 399.176327 143.079739 
L 395.257555 140.899936 
L 391.338784 141.471414 
L 387.420012 143.255446 
L 383.501241 143.295067 
L 379.582469 143.84364 
L 375.663698 144.616363 
L 371.744926 147.653236 
L 367.826155 151.358158 
L 363.907383 147.910378 
L 359.988612 147.248467 
L 356.06984 141.452735 
L 352.151069 143.825031 
L 348.232297 147.784078 
L 344.313526 149.328472 
L 340.394754 144.889168 
L 336.475983 144.72914 
L 332.557211 145.008609 
L 328.63844 141.063102 
L 324.719668 140.120004 
L 320.800897 140.69143 
L 316.882125 142.486073 
L 312.963354 143.679035 
L 309.044582 141.505721 
L 305.125811 143.49005 
L 301.207039 145.918471 
L 297.288268 145.254807 
L 293.369496 144.263808 
L 289.450725 144.422099 
L 285.531953 140.56706 
L 281.613182 143.062849 
L 277.69441 143.402898 
L 273.775639 144.736612 
L 269.856867 147.380993 
L 265.938096 147.829364 
L 262.019324 148.145525 
L 258.100553 152.822942 
L 254.181781 146.707296 
L 250.26301 144.677066 
L 246.344238 144.410944 
L 242.425467 143.721041 
L 238.506695 141.070153 
L 234.587924 140.238007 
L 230.669152 139.639816 
L 226.750381 172.746686 
L 222.831609 179.190718 
L 218.912838 179.504213 
L 214.994066 179.516421 
L 211.075295 179.944587 
L 207.156523 179.719349 
L 203.237752 179.45691 
L 199.31898 179.580895 
L 195.400209 179.935502 
L 191.481437 179.645474 
L 187.562666 179.757917 
L 183.643894 179.72896 
L 179.725123 179.761916 
L 175.806351 180.155601 
L 171.88758 179.518929 
L 167.968808 179.753726 
L 164.050037 180.142499 
L 160.131265 179.494111 
L 156.212494 180.031914 
L 152.293722 179.743202 
L 148.374951 179.517175 
L 144.456179 179.71442 
L 140.537408 219.703433 
L 136.618636 226.923293 
z
" clip-path="url(#pe83e5cfc15)" style="fill: #ff7f0e"/>
   </g>
   <g id="PolyCollection_3">
    <path d="M 136.618636 122.604457 
L 136.618636 226.923293 
L 140.537408 219.703433 
L 144.456179 179.71442 
L 148.374951 179.517175 
L 152.293722 179.743202 
L 156.212494 180.031914 
L 160.131265 179.494111 
L 164.050037 180.142499 
L 167.968808 179.753726 
L 171.88758 179.518929 
L 175.806351 180.155601 
L 179.725123 179.761916 
L 183.643894 179.72896 
L 187.562666 179.757917 
L 191.481437 179.645474 
L 195.400209 179.935502 
L 199.31898 179.580895 
L 203.237752 179.45691 
L 207.156523 179.719349 
L 211.075295 179.944587 
L 214.994066 179.516421 
L 218.912838 179.504213 
L 222.831609 179.190718 
L 226.750381 172.746686 
L 230.669152 139.639816 
L 234.587924 140.238007 
L 238.506695 141.070153 
L 242.425467 143.721041 
L 246.344238 144.410944 
L 250.26301 144.677066 
L 254.181781 146.707296 
L 258.100553 152.822942 
L 262.019324 148.145525 
L 265.938096 147.829364 
L 269.856867 147.380993 
L 273.775639 144.736612 
L 277.69441 143.402898 
L 281.613182 143.062849 
L 285.531953 140.56706 
L 289.450725 144.422099 
L 293.369496 144.263808 
L 297.288268 145.254807 
L 301.207039 145.918471 
L 305.125811 143.49005 
L 309.044582 141.505721 
L 312.963354 143.679035 
L 316.882125 142.486073 
L 320.800897 140.69143 
L 324.719668 140.120004 
L 328.63844 141.063102 
L 332.557211 145.008609 
L 336.475983 144.72914 
L 340.394754 144.889168 
L 344.313526 149.328472 
L 348.232297 147.784078 
L 352.151069 143.825031 
L 356.06984 141.452735 
L 359.988612 147.248467 
L 363.907383 147.910378 
L 367.826155 151.358158 
L 371.744926 147.653236 
L 375.663698 144.616363 
L 379.582469 143.84364 
L 383.501241 143.295067 
L 387.420012 143.255446 
L 391.338784 141.471414 
L 395.257555 140.899936 
L 399.176327 143.079739 
L 403.095098 141.795082 
L 407.01387 137.475062 
L 410.932641 137.514174 
L 414.851413 136.792893 
L 418.770184 136.389983 
L 422.688956 136.030816 
L 426.607727 136.791718 
L 430.526499 137.213026 
L 434.44527 136.300604 
L 438.364042 136.405049 
L 442.282813 136.859296 
L 446.201585 137.828669 
L 450.120356 143.040679 
L 454.039128 141.847489 
L 457.957899 143.881788 
L 461.876671 142.127222 
L 465.795442 147.885174 
L 469.714214 148.391723 
L 473.632985 145.911824 
L 477.551757 143.964169 
L 481.470528 143.612123 
L 485.3893 146.0926 
L 489.308071 146.55125 
L 493.226843 152.17408 
L 497.145614 151.744879 
L 501.064386 149.836477 
L 504.983157 151.870705 
L 508.901929 148.655091 
L 512.8207 146.752108 
L 516.739472 145.069698 
L 520.658243 145.206995 
L 524.577015 142.009692 
L 528.495786 140.566183 
L 532.414558 140.141366 
L 536.333329 137.713016 
L 540.252101 137.833089 
L 544.170872 137.351814 
L 548.089644 136.45779 
L 552.008415 136.469821 
L 555.927187 136.445161 
L 559.845958 136.404032 
L 563.76473 136.270103 
L 567.683501 136.317687 
L 571.602273 136.332858 
L 575.521044 136.566515 
L 579.439816 136.016592 
L 583.358587 136.200981 
L 587.277359 136.232394 
L 591.19613 136.71323 
L 595.114902 136.6493 
L 599.033673 136.231482 
L 602.952445 136.498656 
L 606.871216 136.443179 
L 610.789988 136.518335 
L 614.708759 137.049035 
L 618.627531 136.949518 
L 622.546302 137.027304 
L 626.465074 136.608328 
L 630.383845 136.541013 
L 634.302617 136.225133 
L 638.221388 135.81312 
L 642.14016 136.818255 
L 646.058931 136.901618 
L 649.977703 137.93778 
L 653.896474 142.869567 
L 657.815246 141.014993 
L 661.734017 139.849129 
L 665.652789 141.1371 
L 669.57156 139.245992 
L 673.490332 138.57247 
L 677.409103 139.444833 
L 681.327875 136.905828 
L 685.246646 137.092111 
L 689.165418 136.91672 
L 693.084189 136.699935 
L 697.002961 136.496376 
L 700.921732 136.564305 
L 704.840504 138.64503 
L 708.759275 143.953663 
L 712.678047 143.467337 
L 716.596818 140.445689 
L 720.51559 146.326029 
L 724.434361 150.402852 
L 728.353133 148.635692 
L 732.271904 146.001116 
L 736.190676 146.694843 
L 740.109447 148.099467 
L 744.028219 148.192881 
L 747.94699 145.225201 
L 751.865762 142.964963 
L 755.784533 140.992385 
L 759.703305 145.570301 
L 763.622076 148.110236 
L 767.540848 147.537828 
L 771.459619 149.656946 
L 775.378391 146.719591 
L 779.297162 145.882919 
L 783.215934 141.230496 
L 787.134705 140.932138 
L 791.053477 140.482503 
L 794.972248 140.022837 
L 798.89102 137.733115 
L 802.809791 137.732116 
L 806.728563 141.411395 
L 810.647334 140.115216 
L 814.566106 138.497893 
L 818.484877 138.415073 
L 822.403649 140.560062 
L 826.32242 139.989565 
L 830.241192 140.586405 
L 834.159963 140.799384 
L 838.078735 139.96494 
L 841.997506 140.708425 
L 845.916278 140.788334 
L 849.835049 140.408839 
L 853.753821 140.628517 
L 857.672592 140.390738 
L 861.591364 140.583459 
L 861.591364 43.941957 
L 861.591364 43.941957 
L 857.672592 43.522473 
L 853.753821 43.948026 
L 849.835049 43.830987 
L 845.916278 43.993242 
L 841.997506 43.665575 
L 838.078735 43.121738 
L 834.159963 43.783122 
L 830.241192 43.878957 
L 826.32242 42.903849 
L 822.403649 43.97465 
L 818.484877 41.79739 
L 814.566106 41.412686 
L 810.647334 43.345397 
L 806.728563 45.145548 
L 802.809791 41.137321 
L 798.89102 40.658677 
L 794.972248 42.993719 
L 791.053477 43.354833 
L 787.134705 44.284813 
L 783.215934 44.235914 
L 779.297162 48.985013 
L 775.378391 50.270704 
L 771.459619 57.248576 
L 767.540848 50.716655 
L 763.622076 51.525509 
L 759.703305 49.445679 
L 755.784533 43.985595 
L 751.865762 45.928409 
L 747.94699 48.144816 
L 744.028219 51.108778 
L 740.109447 50.990494 
L 736.190676 49.766488 
L 732.271904 49.339023 
L 728.353133 51.595508 
L 724.434361 54.444255 
L 720.51559 49.669988 
L 716.596818 43.223676 
L 712.678047 46.561994 
L 708.759275 49.731515 
L 704.840504 41.650815 
L 700.921732 39.008065 
L 697.002961 39.634495 
L 693.084189 39.637827 
L 689.165418 40.15311 
L 685.246646 40.025688 
L 681.327875 40.073518 
L 677.409103 42.734403 
L 673.490332 41.686911 
L 669.57156 42.041202 
L 665.652789 44.928255 
L 661.734017 42.56422 
L 657.815246 44.199625 
L 653.896474 47.25223 
L 649.977703 41.48521 
L 646.058931 40.004185 
L 642.14016 39.985138 
L 638.221388 38.6486 
L 634.302617 39.239214 
L 630.383845 39.075311 
L 626.465074 39.616447 
L 622.546302 40.292845 
L 618.627531 39.864924 
L 614.708759 40.199291 
L 610.789988 39.425024 
L 606.871216 39.279888 
L 602.952445 39.656366 
L 599.033673 38.959973 
L 595.114902 39.275433 
L 591.19613 39.366724 
L 587.277359 38.909513 
L 583.358587 39.013397 
L 579.439816 38.792772 
L 575.521044 39.838949 
L 571.602273 39.257771 
L 567.683501 38.789177 
L 563.76473 39.231076 
L 559.845958 39.43218 
L 555.927187 39.365233 
L 552.008415 39.38728 
L 548.089644 39.270223 
L 544.170872 40.574805 
L 540.252101 40.910715 
L 536.333329 40.335044 
L 532.414558 42.807436 
L 528.495786 43.545116 
L 524.577015 45.100262 
L 520.658243 48.422286 
L 516.739472 48.554566 
L 512.8207 50.239502 
L 508.901929 51.891604 
L 504.983157 54.689137 
L 501.064386 53.034965 
L 497.145614 54.928284 
L 493.226843 56.004277 
L 489.308071 49.359948 
L 485.3893 48.856012 
L 481.470528 46.575604 
L 477.551757 46.735228 
L 473.632985 49.05787 
L 469.714214 51.636725 
L 465.795442 51.051987 
L 461.876671 45.546791 
L 457.957899 48.980628 
L 454.039128 44.304895 
L 450.120356 46.147648 
L 446.201585 41.882192 
L 442.282813 39.513579 
L 438.364042 39.245721 
L 434.44527 39.145625 
L 430.526499 40.357372 
L 426.607727 40.033984 
L 422.688956 38.423134 
L 418.770184 39.640212 
L 414.851413 39.841334 
L 410.932641 40.1864 
L 407.01387 40.591099 
L 403.095098 45.880071 
L 399.176327 46.001372 
L 395.257555 43.968266 
L 391.338784 44.07529 
L 387.420012 46.251112 
L 383.501241 46.24229 
L 379.582469 46.512218 
L 375.663698 47.301901 
L 371.744926 50.855811 
L 367.826155 54.893907 
L 363.907383 50.633134 
L 359.988612 50.730195 
L 356.06984 45.053958 
L 352.151069 46.873875 
L 348.232297 50.515656 
L 344.313526 53.966488 
L 340.394754 48.120332 
L 336.475983 47.624903 
L 332.557211 48.127873 
L 328.63844 44.468834 
L 324.719668 42.886783 
L 320.800897 43.804345 
L 316.882125 45.401935 
L 312.963354 46.221383 
L 309.044582 44.384769 
L 305.125811 46.661634 
L 301.207039 48.796554 
L 297.288268 48.607009 
L 293.369496 47.585124 
L 289.450725 48.204853 
L 285.531953 43.72626 
L 281.613182 46.110343 
L 277.69441 46.744752 
L 273.775639 47.716913 
L 269.856867 50.529793 
L 265.938096 50.670527 
L 262.019324 50.972867 
L 258.100553 56.496549 
L 254.181781 49.554966 
L 250.26301 47.894094 
L 246.344238 47.132297 
L 242.425467 47.802031 
L 238.506695 45.14539 
L 234.587924 44.211306 
L 230.669152 44.566422 
L 226.750381 72.088188 
L 222.831609 78.489144 
L 218.912838 78.439561 
L 214.994066 78.565176 
L 211.075295 79.369505 
L 207.156523 79.120782 
L 203.237752 78.424109 
L 199.31898 79.003708 
L 195.400209 79.067709 
L 191.481437 79.038559 
L 187.562666 78.980416 
L 183.643894 78.689161 
L 179.725123 78.975523 
L 175.806351 79.566733 
L 171.88758 78.711856 
L 167.968808 79.190606 
L 164.050037 79.490543 
L 160.131265 78.508963 
L 156.212494 79.588219 
L 152.293722 78.760878 
L 148.374951 78.47071 
L 144.456179 79.232419 
L 140.537408 118.914759 
L 136.618636 122.604457 
z
" clip-path="url(#pe83e5cfc15)" style="fill: #2ca02c"/>
   </g>
   <g id="matplotlib.axis_1">
    <g id="xtick_1">
     <g id="line2d_1">
      <path d="M 136.618636 331 
L 136.618636 23.76 
" clip-path="url(#pe83e5cfc15)" style="fill: none; stroke-dasharray: 5.12,1.28,0.8,1.28; stroke-dashoffset: 0; stroke: #b0b0b0; stroke-width: 0.8"/>
     </g>
     <g id="line2d_2">
      <defs>
       <path id="mad0f37eee1" d="M 0 0 
L 0 3.5 
" style="stroke: #000000; stroke-width: 0.8"/>
      </defs>
      <g>
       <use xlink:href="#mad0f37eee1" x="136.618636" y="331" style="stroke: #000000; stroke-width: 0.8"/>
      </g>
     </g>
     <g id="text_1">
      <!-- 0 -->
      <g transform="translate(129.619886 354.716563) scale(0.22 -0.22)">
       <defs>
        <path id="DejaVuSans-30" d="M 2034 4250 
Q 1547 4250 1301 3770 
Q 1056 3291 1056 2328 
Q 1056 1369 1301 889 
Q 1547 409 2034 409 
Q 2525 409 2770 889 
Q 3016 1369 3016 2328 
Q 3016 3291 2770 3770 
Q 2525 4250 2034 4250 
z
M 2034 4750 
Q 2819 4750 3233 4129 
Q 3647 3509 3647 2328 
Q 3647 1150 3233 529 
Q 2819 -91 2034 -91 
Q 1250 -91 836 529 
Q 422 1150 422 2328 
Q 422 3509 836 4129 
Q 1250 4750 2034 4750 
z
" transform="scale(0.015625)"/>
       </defs>
       <use xlink:href="#DejaVuSans-30"/>
      </g>
     </g>
    </g>
    <g id="xtick_2">
     <g id="line2d_3">
      <path d="M 234.587924 331 
L 234.587924 23.76 
" clip-path="url(#pe83e5cfc15)" style="fill: none; stroke-dasharray: 5.12,1.28,0.8,1.28; stroke-dashoffset: 0; stroke: #b0b0b0; stroke-width: 0.8"/>
     </g>
     <g id="line2d_4">
      <g>
       <use xlink:href="#mad0f37eee1" x="234.587924" y="331" style="stroke: #000000; stroke-width: 0.8"/>
      </g>
     </g>
     <g id="text_2">
      <!-- 25 -->
      <g transform="translate(220.590424 354.716563) scale(0.22 -0.22)">
       <defs>
        <path id="DejaVuSans-32" d="M 1228 531 
L 3431 531 
L 3431 0 
L 469 0 
L 469 531 
Q 828 903 1448 1529 
Q 2069 2156 2228 2338 
Q 2531 2678 2651 2914 
Q 2772 3150 2772 3378 
Q 2772 3750 2511 3984 
Q 2250 4219 1831 4219 
Q 1534 4219 1204 4116 
Q 875 4013 500 3803 
L 500 4441 
Q 881 4594 1212 4672 
Q 1544 4750 1819 4750 
Q 2544 4750 2975 4387 
Q 3406 4025 3406 3419 
Q 3406 3131 3298 2873 
Q 3191 2616 2906 2266 
Q 2828 2175 2409 1742 
Q 1991 1309 1228 531 
z
" transform="scale(0.015625)"/>
        <path id="DejaVuSans-35" d="M 691 4666 
L 3169 4666 
L 3169 4134 
L 1269 4134 
L 1269 2991 
Q 1406 3038 1543 3061 
Q 1681 3084 1819 3084 
Q 2600 3084 3056 2656 
Q 3513 2228 3513 1497 
Q 3513 744 3044 326 
Q 2575 -91 1722 -91 
Q 1428 -91 1123 -41 
Q 819 9 494 109 
L 494 744 
Q 775 591 1075 516 
Q 1375 441 1709 441 
Q 2250 441 2565 725 
Q 2881 1009 2881 1497 
Q 2881 1984 2565 2268 
Q 2250 2553 1709 2553 
Q 1456 2553 1204 2497 
Q 953 2441 691 2322 
L 691 4666 
z
" transform="scale(0.015625)"/>
       </defs>
       <use xlink:href="#DejaVuSans-32"/>
       <use xlink:href="#DejaVuSans-35" x="63.623047"/>
      </g>
     </g>
    </g>
    <g id="xtick_3">
     <g id="line2d_5">
      <path d="M 332.557211 331 
L 332.557211 23.76 
" clip-path="url(#pe83e5cfc15)" style="fill: none; stroke-dasharray: 5.12,1.28,0.8,1.28; stroke-dashoffset: 0; stroke: #b0b0b0; stroke-width: 0.8"/>
     </g>
     <g id="line2d_6">
      <g>
       <use xlink:href="#mad0f37eee1" x="332.557211" y="331" style="stroke: #000000; stroke-width: 0.8"/>
      </g>
     </g>
     <g id="text_3">
      <!-- 50 -->
      <g transform="translate(318.559711 354.716563) scale(0.22 -0.22)">
       <use xlink:href="#DejaVuSans-35"/>
       <use xlink:href="#DejaVuSans-30" x="63.623047"/>
      </g>
     </g>
    </g>
    <g id="xtick_4">
     <g id="line2d_7">
      <path d="M 430.526499 331 
L 430.526499 23.76 
" clip-path="url(#pe83e5cfc15)" style="fill: none; stroke-dasharray: 5.12,1.28,0.8,1.28; stroke-dashoffset: 0; stroke: #b0b0b0; stroke-width: 0.8"/>
     </g>
     <g id="line2d_8">
      <g>
       <use xlink:href="#mad0f37eee1" x="430.526499" y="331" style="stroke: #000000; stroke-width: 0.8"/>
      </g>
     </g>
     <g id="text_4">
      <!-- 75 -->
      <g transform="translate(416.528999 354.716563) scale(0.22 -0.22)">
       <defs>
        <path id="DejaVuSans-37" d="M 525 4666 
L 3525 4666 
L 3525 4397 
L 1831 0 
L 1172 0 
L 2766 4134 
L 525 4134 
L 525 4666 
z
" transform="scale(0.015625)"/>
       </defs>
       <use xlink:href="#DejaVuSans-37"/>
       <use xlink:href="#DejaVuSans-35" x="63.623047"/>
      </g>
     </g>
    </g>
    <g id="xtick_5">
     <g id="line2d_9">
      <path d="M 528.495786 331 
L 528.495786 23.76 
" clip-path="url(#pe83e5cfc15)" style="fill: none; stroke-dasharray: 5.12,1.28,0.8,1.28; stroke-dashoffset: 0; stroke: #b0b0b0; stroke-width: 0.8"/>
     </g>
     <g id="line2d_10">
      <g>
       <use xlink:href="#mad0f37eee1" x="528.495786" y="331" style="stroke: #000000; stroke-width: 0.8"/>
      </g>
     </g>
     <g id="text_5">
      <!-- 100 -->
      <g transform="translate(507.499536 354.716563) scale(0.22 -0.22)">
       <defs>
        <path id="DejaVuSans-31" d="M 794 531 
L 1825 531 
L 1825 4091 
L 703 3866 
L 703 4441 
L 1819 4666 
L 2450 4666 
L 2450 531 
L 3481 531 
L 3481 0 
L 794 0 
L 794 531 
z
" transform="scale(0.015625)"/>
       </defs>
       <use xlink:href="#DejaVuSans-31"/>
       <use xlink:href="#DejaVuSans-30" x="63.623047"/>
       <use xlink:href="#DejaVuSans-30" x="127.246094"/>
      </g>
     </g>
    </g>
    <g id="xtick_6">
     <g id="line2d_11">
      <path d="M 626.465074 331 
L 626.465074 23.76 
" clip-path="url(#pe83e5cfc15)" style="fill: none; stroke-dasharray: 5.12,1.28,0.8,1.28; stroke-dashoffset: 0; stroke: #b0b0b0; stroke-width: 0.8"/>
     </g>
     <g id="line2d_12">
      <g>
       <use xlink:href="#mad0f37eee1" x="626.465074" y="331" style="stroke: #000000; stroke-width: 0.8"/>
      </g>
     </g>
     <g id="text_6">
      <!-- 125 -->
      <g transform="translate(605.468824 354.716563) scale(0.22 -0.22)">
       <use xlink:href="#DejaVuSans-31"/>
       <use xlink:href="#DejaVuSans-32" x="63.623047"/>
       <use xlink:href="#DejaVuSans-35" x="127.246094"/>
      </g>
     </g>
    </g>
    <g id="xtick_7">
     <g id="line2d_13">
      <path d="M 724.434361 331 
L 724.434361 23.76 
" clip-path="url(#pe83e5cfc15)" style="fill: none; stroke-dasharray: 5.12,1.28,0.8,1.28; stroke-dashoffset: 0; stroke: #b0b0b0; stroke-width: 0.8"/>
     </g>
     <g id="line2d_14">
      <g>
       <use xlink:href="#mad0f37eee1" x="724.434361" y="331" style="stroke: #000000; stroke-width: 0.8"/>
      </g>
     </g>
     <g id="text_7">
      <!-- 150 -->
      <g transform="translate(703.438111 354.716563) scale(0.22 -0.22)">
       <use xlink:href="#DejaVuSans-31"/>
       <use xlink:href="#DejaVuSans-35" x="63.623047"/>
       <use xlink:href="#DejaVuSans-30" x="127.246094"/>
      </g>
     </g>
    </g>
    <g id="xtick_8">
     <g id="line2d_15">
      <path d="M 822.403649 331 
L 822.403649 23.76 
" clip-path="url(#pe83e5cfc15)" style="fill: none; stroke-dasharray: 5.12,1.28,0.8,1.28; stroke-dashoffset: 0; stroke: #b0b0b0; stroke-width: 0.8"/>
     </g>
     <g id="line2d_16">
      <g>
       <use xlink:href="#mad0f37eee1" x="822.403649" y="331" style="stroke: #000000; stroke-width: 0.8"/>
      </g>
     </g>
     <g id="text_8">
      <!-- 175 -->
      <g transform="translate(801.407399 354.716563) scale(0.22 -0.22)">
       <use xlink:href="#DejaVuSans-31"/>
       <use xlink:href="#DejaVuSans-37" x="63.623047"/>
       <use xlink:href="#DejaVuSans-35" x="127.246094"/>
      </g>
     </g>
    </g>
    <g id="text_9">
     <!-- Time (s) -->
     <g transform="translate(450.315625 381.528125) scale(0.24 -0.24)">
      <defs>
       <path id="DejaVuSans-54" d="M -19 4666 
L 3928 4666 
L 3928 4134 
L 2272 4134 
L 2272 0 
L 1638 0 
L 1638 4134 
L -19 4134 
L -19 4666 
z
" transform="scale(0.015625)"/>
       <path id="DejaVuSans-69" d="M 603 3500 
L 1178 3500 
L 1178 0 
L 603 0 
L 603 3500 
z
M 603 4863 
L 1178 4863 
L 1178 4134 
L 603 4134 
L 603 4863 
z
" transform="scale(0.015625)"/>
       <path id="DejaVuSans-6d" d="M 3328 2828 
Q 3544 3216 3844 3400 
Q 4144 3584 4550 3584 
Q 5097 3584 5394 3201 
Q 5691 2819 5691 2113 
L 5691 0 
L 5113 0 
L 5113 2094 
Q 5113 2597 4934 2840 
Q 4756 3084 4391 3084 
Q 3944 3084 3684 2787 
Q 3425 2491 3425 1978 
L 3425 0 
L 2847 0 
L 2847 2094 
Q 2847 2600 2669 2842 
Q 2491 3084 2119 3084 
Q 1678 3084 1418 2786 
Q 1159 2488 1159 1978 
L 1159 0 
L 581 0 
L 581 3500 
L 1159 3500 
L 1159 2956 
Q 1356 3278 1631 3431 
Q 1906 3584 2284 3584 
Q 2666 3584 2933 3390 
Q 3200 3197 3328 2828 
z
" transform="scale(0.015625)"/>
       <path id="DejaVuSans-65" d="M 3597 1894 
L 3597 1613 
L 953 1613 
Q 991 1019 1311 708 
Q 1631 397 2203 397 
Q 2534 397 2845 478 
Q 3156 559 3463 722 
L 3463 178 
Q 3153 47 2828 -22 
Q 2503 -91 2169 -91 
Q 1331 -91 842 396 
Q 353 884 353 1716 
Q 353 2575 817 3079 
Q 1281 3584 2069 3584 
Q 2775 3584 3186 3129 
Q 3597 2675 3597 1894 
z
M 3022 2063 
Q 3016 2534 2758 2815 
Q 2500 3097 2075 3097 
Q 1594 3097 1305 2825 
Q 1016 2553 972 2059 
L 3022 2063 
z
" transform="scale(0.015625)"/>
       <path id="DejaVuSans-20" transform="scale(0.015625)"/>
       <path id="DejaVuSans-28" d="M 1984 4856 
Q 1566 4138 1362 3434 
Q 1159 2731 1159 2009 
Q 1159 1288 1364 580 
Q 1569 -128 1984 -844 
L 1484 -844 
Q 1016 -109 783 600 
Q 550 1309 550 2009 
Q 550 2706 781 3412 
Q 1013 4119 1484 4856 
L 1984 4856 
z
" transform="scale(0.015625)"/>
       <path id="DejaVuSans-73" d="M 2834 3397 
L 2834 2853 
Q 2591 2978 2328 3040 
Q 2066 3103 1784 3103 
Q 1356 3103 1142 2972 
Q 928 2841 928 2578 
Q 928 2378 1081 2264 
Q 1234 2150 1697 2047 
L 1894 2003 
Q 2506 1872 2764 1633 
Q 3022 1394 3022 966 
Q 3022 478 2636 193 
Q 2250 -91 1575 -91 
Q 1294 -91 989 -36 
Q 684 19 347 128 
L 347 722 
Q 666 556 975 473 
Q 1284 391 1588 391 
Q 1994 391 2212 530 
Q 2431 669 2431 922 
Q 2431 1156 2273 1281 
Q 2116 1406 1581 1522 
L 1381 1569 
Q 847 1681 609 1914 
Q 372 2147 372 2553 
Q 372 3047 722 3315 
Q 1072 3584 1716 3584 
Q 2034 3584 2315 3537 
Q 2597 3491 2834 3397 
z
" transform="scale(0.015625)"/>
       <path id="DejaVuSans-29" d="M 513 4856 
L 1013 4856 
Q 1481 4119 1714 3412 
Q 1947 2706 1947 2009 
Q 1947 1309 1714 600 
Q 1481 -109 1013 -844 
L 513 -844 
Q 928 -128 1133 580 
Q 1338 1288 1338 2009 
Q 1338 2731 1133 3434 
Q 928 4138 513 4856 
z
" transform="scale(0.015625)"/>
      </defs>
      <use xlink:href="#DejaVuSans-54"/>
      <use xlink:href="#DejaVuSans-69" x="57.958984"/>
      <use xlink:href="#DejaVuSans-6d" x="85.742188"/>
      <use xlink:href="#DejaVuSans-65" x="183.154297"/>
      <use xlink:href="#DejaVuSans-20" x="244.677734"/>
      <use xlink:href="#DejaVuSans-28" x="276.464844"/>
      <use xlink:href="#DejaVuSans-73" x="315.478516"/>
      <use xlink:href="#DejaVuSans-29" x="367.578125"/>
     </g>
    </g>
   </g>
   <g id="matplotlib.axis_2">
    <g id="ytick_1">
     <g id="line2d_17">
      <path d="M 100.37 331 
L 897.84 331 
" clip-path="url(#pe83e5cfc15)" style="fill: none; stroke-dasharray: 5.12,1.28,0.8,1.28; stroke-dashoffset: 0; stroke: #b0b0b0; stroke-width: 0.8"/>
     </g>
     <g id="line2d_18">
      <defs>
       <path id="m57aeb79a82" d="M 0 0 
L -3.5 0 
" style="stroke: #000000; stroke-width: 0.8"/>
      </defs>
      <g>
       <use xlink:href="#m57aeb79a82" x="100.37" y="331" style="stroke: #000000; stroke-width: 0.8"/>
      </g>
     </g>
     <g id="text_10">
      <!-- 0 -->
      <g transform="translate(79.3725 339.358281) scale(0.22 -0.22)">
       <use xlink:href="#DejaVuSans-30"/>
      </g>
     </g>
    </g>
    <g id="ytick_2">
     <g id="line2d_19">
      <path d="M 100.37 276.190089 
L 897.84 276.190089 
" clip-path="url(#pe83e5cfc15)" style="fill: none; stroke-dasharray: 5.12,1.28,0.8,1.28; stroke-dashoffset: 0; stroke: #b0b0b0; stroke-width: 0.8"/>
     </g>
     <g id="line2d_20">
      <g>
       <use xlink:href="#m57aeb79a82" x="100.37" y="276.190089" style="stroke: #000000; stroke-width: 0.8"/>
      </g>
     </g>
     <g id="text_11">
      <!-- 25 -->
      <g transform="translate(65.375 284.54837) scale(0.22 -0.22)">
       <use xlink:href="#DejaVuSans-32"/>
       <use xlink:href="#DejaVuSans-35" x="63.623047"/>
      </g>
     </g>
    </g>
    <g id="ytick_3">
     <g id="line2d_21">
      <path d="M 100.37 221.380178 
L 897.84 221.380178 
" clip-path="url(#pe83e5cfc15)" style="fill: none; stroke-dasharray: 5.12,1.28,0.8,1.28; stroke-dashoffset: 0; stroke: #b0b0b0; stroke-width: 0.8"/>
     </g>
     <g id="line2d_22">
      <g>
       <use xlink:href="#m57aeb79a82" x="100.37" y="221.380178" style="stroke: #000000; stroke-width: 0.8"/>
      </g>
     </g>
     <g id="text_12">
      <!-- 50 -->
      <g transform="translate(65.375 229.738459) scale(0.22 -0.22)">
       <use xlink:href="#DejaVuSans-35"/>
       <use xlink:href="#DejaVuSans-30" x="63.623047"/>
      </g>
     </g>
    </g>
    <g id="ytick_4">
     <g id="line2d_23">
      <path d="M 100.37 166.570267 
L 897.84 166.570267 
" clip-path="url(#pe83e5cfc15)" style="fill: none; stroke-dasharray: 5.12,1.28,0.8,1.28; stroke-dashoffset: 0; stroke: #b0b0b0; stroke-width: 0.8"/>
     </g>
     <g id="line2d_24">
      <g>
       <use xlink:href="#m57aeb79a82" x="100.37" y="166.570267" style="stroke: #000000; stroke-width: 0.8"/>
      </g>
     </g>
     <g id="text_13">
      <!-- 75 -->
      <g transform="translate(65.375 174.928548) scale(0.22 -0.22)">
       <use xlink:href="#DejaVuSans-37"/>
       <use xlink:href="#DejaVuSans-35" x="63.623047"/>
      </g>
     </g>
    </g>
    <g id="ytick_5">
     <g id="line2d_25">
      <path d="M 100.37 111.760356 
L 897.84 111.760356 
" clip-path="url(#pe83e5cfc15)" style="fill: none; stroke-dasharray: 5.12,1.28,0.8,1.28; stroke-dashoffset: 0; stroke: #b0b0b0; stroke-width: 0.8"/>
     </g>
     <g id="line2d_26">
      <g>
       <use xlink:href="#m57aeb79a82" x="100.37" y="111.760356" style="stroke: #000000; stroke-width: 0.8"/>
      </g>
     </g>
     <g id="text_14">
      <!-- 100 -->
      <g transform="translate(51.3775 120.118637) scale(0.22 -0.22)">
       <use xlink:href="#DejaVuSans-31"/>
       <use xlink:href="#DejaVuSans-30" x="63.623047"/>
       <use xlink:href="#DejaVuSans-30" x="127.246094"/>
      </g>
     </g>
    </g>
    <g id="ytick_6">
     <g id="line2d_27">
      <path d="M 100.37 56.950445 
L 897.84 56.950445 
" clip-path="url(#pe83e5cfc15)" style="fill: none; stroke-dasharray: 5.12,1.28,0.8,1.28; stroke-dashoffset: 0; stroke: #b0b0b0; stroke-width: 0.8"/>
     </g>
     <g id="line2d_28">
      <g>
       <use xlink:href="#m57aeb79a82" x="100.37" y="56.950445" style="stroke: #000000; stroke-width: 0.8"/>
      </g>
     </g>
     <g id="text_15">
      <!-- 125 -->
      <g transform="translate(51.3775 65.308726) scale(0.22 -0.22)">
       <use xlink:href="#DejaVuSans-31"/>
       <use xlink:href="#DejaVuSans-32" x="63.623047"/>
       <use xlink:href="#DejaVuSans-35" x="127.246094"/>
      </g>
     </g>
    </g>
    <g id="text_16">
     <!-- Throughput (Mbps) -->
     <g transform="translate(42.38625 292.094375) rotate(-90) scale(0.24 -0.24)">
      <defs>
       <path id="DejaVuSans-68" d="M 3513 2113 
L 3513 0 
L 2938 0 
L 2938 2094 
Q 2938 2591 2744 2837 
Q 2550 3084 2163 3084 
Q 1697 3084 1428 2787 
Q 1159 2491 1159 1978 
L 1159 0 
L 581 0 
L 581 4863 
L 1159 4863 
L 1159 2956 
Q 1366 3272 1645 3428 
Q 1925 3584 2291 3584 
Q 2894 3584 3203 3211 
Q 3513 2838 3513 2113 
z
" transform="scale(0.015625)"/>
       <path id="DejaVuSans-72" d="M 2631 2963 
Q 2534 3019 2420 3045 
Q 2306 3072 2169 3072 
Q 1681 3072 1420 2755 
Q 1159 2438 1159 1844 
L 1159 0 
L 581 0 
L 581 3500 
L 1159 3500 
L 1159 2956 
Q 1341 3275 1631 3429 
Q 1922 3584 2338 3584 
Q 2397 3584 2469 3576 
Q 2541 3569 2628 3553 
L 2631 2963 
z
" transform="scale(0.015625)"/>
       <path id="DejaVuSans-6f" d="M 1959 3097 
Q 1497 3097 1228 2736 
Q 959 2375 959 1747 
Q 959 1119 1226 758 
Q 1494 397 1959 397 
Q 2419 397 2687 759 
Q 2956 1122 2956 1747 
Q 2956 2369 2687 2733 
Q 2419 3097 1959 3097 
z
M 1959 3584 
Q 2709 3584 3137 3096 
Q 3566 2609 3566 1747 
Q 3566 888 3137 398 
Q 2709 -91 1959 -91 
Q 1206 -91 779 398 
Q 353 888 353 1747 
Q 353 2609 779 3096 
Q 1206 3584 1959 3584 
z
" transform="scale(0.015625)"/>
       <path id="DejaVuSans-75" d="M 544 1381 
L 544 3500 
L 1119 3500 
L 1119 1403 
Q 1119 906 1312 657 
Q 1506 409 1894 409 
Q 2359 409 2629 706 
Q 2900 1003 2900 1516 
L 2900 3500 
L 3475 3500 
L 3475 0 
L 2900 0 
L 2900 538 
Q 2691 219 2414 64 
Q 2138 -91 1772 -91 
Q 1169 -91 856 284 
Q 544 659 544 1381 
z
M 1991 3584 
L 1991 3584 
z
" transform="scale(0.015625)"/>
       <path id="DejaVuSans-67" d="M 2906 1791 
Q 2906 2416 2648 2759 
Q 2391 3103 1925 3103 
Q 1463 3103 1205 2759 
Q 947 2416 947 1791 
Q 947 1169 1205 825 
Q 1463 481 1925 481 
Q 2391 481 2648 825 
Q 2906 1169 2906 1791 
z
M 3481 434 
Q 3481 -459 3084 -895 
Q 2688 -1331 1869 -1331 
Q 1566 -1331 1297 -1286 
Q 1028 -1241 775 -1147 
L 775 -588 
Q 1028 -725 1275 -790 
Q 1522 -856 1778 -856 
Q 2344 -856 2625 -561 
Q 2906 -266 2906 331 
L 2906 616 
Q 2728 306 2450 153 
Q 2172 0 1784 0 
Q 1141 0 747 490 
Q 353 981 353 1791 
Q 353 2603 747 3093 
Q 1141 3584 1784 3584 
Q 2172 3584 2450 3431 
Q 2728 3278 2906 2969 
L 2906 3500 
L 3481 3500 
L 3481 434 
z
" transform="scale(0.015625)"/>
       <path id="DejaVuSans-70" d="M 1159 525 
L 1159 -1331 
L 581 -1331 
L 581 3500 
L 1159 3500 
L 1159 2969 
Q 1341 3281 1617 3432 
Q 1894 3584 2278 3584 
Q 2916 3584 3314 3078 
Q 3713 2572 3713 1747 
Q 3713 922 3314 415 
Q 2916 -91 2278 -91 
Q 1894 -91 1617 61 
Q 1341 213 1159 525 
z
M 3116 1747 
Q 3116 2381 2855 2742 
Q 2594 3103 2138 3103 
Q 1681 3103 1420 2742 
Q 1159 2381 1159 1747 
Q 1159 1113 1420 752 
Q 1681 391 2138 391 
Q 2594 391 2855 752 
Q 3116 1113 3116 1747 
z
" transform="scale(0.015625)"/>
       <path id="DejaVuSans-74" d="M 1172 4494 
L 1172 3500 
L 2356 3500 
L 2356 3053 
L 1172 3053 
L 1172 1153 
Q 1172 725 1289 603 
Q 1406 481 1766 481 
L 2356 481 
L 2356 0 
L 1766 0 
Q 1100 0 847 248 
Q 594 497 594 1153 
L 594 3053 
L 172 3053 
L 172 3500 
L 594 3500 
L 594 4494 
L 1172 4494 
z
" transform="scale(0.015625)"/>
       <path id="DejaVuSans-4d" d="M 628 4666 
L 1569 4666 
L 2759 1491 
L 3956 4666 
L 4897 4666 
L 4897 0 
L 4281 0 
L 4281 4097 
L 3078 897 
L 2444 897 
L 1241 4097 
L 1241 0 
L 628 0 
L 628 4666 
z
" transform="scale(0.015625)"/>
       <path id="DejaVuSans-62" d="M 3116 1747 
Q 3116 2381 2855 2742 
Q 2594 3103 2138 3103 
Q 1681 3103 1420 2742 
Q 1159 2381 1159 1747 
Q 1159 1113 1420 752 
Q 1681 391 2138 391 
Q 2594 391 2855 752 
Q 3116 1113 3116 1747 
z
M 1159 2969 
Q 1341 3281 1617 3432 
Q 1894 3584 2278 3584 
Q 2916 3584 3314 3078 
Q 3713 2572 3713 1747 
Q 3713 922 3314 415 
Q 2916 -91 2278 -91 
Q 1894 -91 1617 61 
Q 1341 213 1159 525 
L 1159 0 
L 581 0 
L 581 4863 
L 1159 4863 
L 1159 2969 
z
" transform="scale(0.015625)"/>
      </defs>
      <use xlink:href="#DejaVuSans-54"/>
      <use xlink:href="#DejaVuSans-68" x="61.083984"/>
      <use xlink:href="#DejaVuSans-72" x="124.462891"/>
      <use xlink:href="#DejaVuSans-6f" x="163.326172"/>
      <use xlink:href="#DejaVuSans-75" x="224.507812"/>
      <use xlink:href="#DejaVuSans-67" x="287.886719"/>
      <use xlink:href="#DejaVuSans-68" x="351.363281"/>
      <use xlink:href="#DejaVuSans-70" x="414.742188"/>
      <use xlink:href="#DejaVuSans-75" x="478.21875"/>
      <use xlink:href="#DejaVuSans-74" x="541.597656"/>
      <use xlink:href="#DejaVuSans-20" x="580.806641"/>
      <use xlink:href="#DejaVuSans-28" x="612.59375"/>
      <use xlink:href="#DejaVuSans-4d" x="651.607422"/>
      <use xlink:href="#DejaVuSans-62" x="737.886719"/>
      <use xlink:href="#DejaVuSans-70" x="801.363281"/>
      <use xlink:href="#DejaVuSans-73" x="864.839844"/>
      <use xlink:href="#DejaVuSans-29" x="916.939453"/>
     </g>
    </g>
   </g>
   <g id="patch_3">
    <path d="M 100.37 331 
L 100.37 23.76 
" style="fill: none; stroke: #000000; stroke-width: 0.8; stroke-linejoin: miter; stroke-linecap: square"/>
   </g>
   <g id="patch_4">
    <path d="M 897.84 331 
L 897.84 23.76 
" style="fill: none; stroke: #000000; stroke-width: 0.8; stroke-linejoin: miter; stroke-linecap: square"/>
   </g>
   <g id="patch_5">
    <path d="M 100.37 331 
L 897.84 331 
" style="fill: none; stroke: #000000; stroke-width: 0.8; stroke-linejoin: miter; stroke-linecap: square"/>
   </g>
   <g id="patch_6">
    <path d="M 100.37 23.76 
L 897.84 23.76 
" style="fill: none; stroke: #000000; stroke-width: 0.8; stroke-linejoin: miter; stroke-linecap: square"/>
   </g>
   <g id="legend_1">
    <g id="patch_7">
     <path d="M 756.24 148.6425 
L 881.04 148.6425 
Q 885.84 148.6425 885.84 143.8425 
L 885.84 40.56 
Q 885.84 35.76 881.04 35.76 
L 756.24 35.76 
Q 751.44 35.76 751.44 40.56 
L 751.44 143.8425 
Q 751.44 148.6425 756.24 148.6425 
z
" style="fill: #ffffff; opacity: 0.8; stroke: #cccccc; stroke-linejoin: miter"/>
    </g>
    <g id="patch_8">
     <path d="M 761.04 63.59625 
L 809.04 63.59625 
L 809.04 46.79625 
L 761.04 46.79625 
z
" style="fill: #1f77b4"/>
    </g>
    <g id="text_17">
     <!-- UE1 -->
     <g transform="translate(828.24 63.59625) scale(0.24 -0.24)">
      <defs>
       <path id="DejaVuSans-55" d="M 556 4666 
L 1191 4666 
L 1191 1831 
Q 1191 1081 1462 751 
Q 1734 422 2344 422 
Q 2950 422 3222 751 
Q 3494 1081 3494 1831 
L 3494 4666 
L 4128 4666 
L 4128 1753 
Q 4128 841 3676 375 
Q 3225 -91 2344 -91 
Q 1459 -91 1007 375 
Q 556 841 556 1753 
L 556 4666 
z
" transform="scale(0.015625)"/>
       <path id="DejaVuSans-45" d="M 628 4666 
L 3578 4666 
L 3578 4134 
L 1259 4134 
L 1259 2753 
L 3481 2753 
L 3481 2222 
L 1259 2222 
L 1259 531 
L 3634 531 
L 3634 0 
L 628 0 
L 628 4666 
z
" transform="scale(0.015625)"/>
      </defs>
      <use xlink:href="#DejaVuSans-55"/>
      <use xlink:href="#DejaVuSans-45" x="73.193359"/>
      <use xlink:href="#DejaVuSans-31" x="136.376953"/>
     </g>
    </g>
    <g id="patch_9">
     <path d="M 761.04 98.82375 
L 809.04 98.82375 
L 809.04 82.02375 
L 761.04 82.02375 
z
" style="fill: #ff7f0e"/>
    </g>
    <g id="text_18">
     <!-- UE2 -->
     <g transform="translate(828.24 98.82375) scale(0.24 -0.24)">
      <use xlink:href="#DejaVuSans-55"/>
      <use xlink:href="#DejaVuSans-45" x="73.193359"/>
      <use xlink:href="#DejaVuSans-32" x="136.376953"/>
     </g>
    </g>
    <g id="patch_10">
     <path d="M 761.04 134.05125 
L 809.04 134.05125 
L 809.04 117.25125 
L 761.04 117.25125 
z
" style="fill: #2ca02c"/>
    </g>
    <g id="text_19">
     <!-- UE3 -->
     <g transform="translate(828.24 134.05125) scale(0.24 -0.24)">
      <defs>
       <path id="DejaVuSans-33" d="M 2597 2516 
Q 3050 2419 3304 2112 
Q 3559 1806 3559 1356 
Q 3559 666 3084 287 
Q 2609 -91 1734 -91 
Q 1441 -91 1130 -33 
Q 819 25 488 141 
L 488 750 
Q 750 597 1062 519 
Q 1375 441 1716 441 
Q 2309 441 2620 675 
Q 2931 909 2931 1356 
Q 2931 1769 2642 2001 
Q 2353 2234 1838 2234 
L 1294 2234 
L 1294 2753 
L 1863 2753 
Q 2328 2753 2575 2939 
Q 2822 3125 2822 3475 
Q 2822 3834 2567 4026 
Q 2313 4219 1838 4219 
Q 1578 4219 1281 4162 
Q 984 4106 628 3988 
L 628 4550 
Q 988 4650 1302 4700 
Q 1616 4750 1894 4750 
Q 2613 4750 3031 4423 
Q 3450 4097 3450 3541 
Q 3450 3153 3228 2886 
Q 3006 2619 2597 2516 
z
" transform="scale(0.015625)"/>
      </defs>
      <use xlink:href="#DejaVuSans-55"/>
      <use xlink:href="#DejaVuSans-45" x="73.193359"/>
      <use xlink:href="#DejaVuSans-33" x="136.376953"/>
     </g>
    </g>
   </g>
  </g>
 </g>
 <defs>
  <clipPath id="pe83e5cfc15">
   <rect x="100.37" y="23.76" width="797.47" height="307.24"/>
  </clipPath>
 </defs>
</svg>
