<?xml version="1.0" encoding="utf-8" standalone="no"?>
<!DOCTYPE svg PUBLIC "-//W3C//DTD SVG 1.1//EN"
  "http://www.w3.org/Graphics/SVG/1.1/DTD/svg11.dtd">
<svg xmlns:xlink="http://www.w3.org/1999/xlink" width="921.6pt" height="410.4pt" viewBox="0 0 921.6 410.4" xmlns="http://www.w3.org/2000/svg" version="1.1">
 <metadata>
  <rdf:RDF xmlns:dc="http://purl.org/dc/elements/1.1/" xmlns:cc="http://creativecommons.org/ns#" xmlns:rdf="http://www.w3.org/1999/02/22-rdf-syntax-ns#">
   <cc:Work>
    <dc:type rdf:resource="http://purl.org/dc/dcmitype/StillImage"/>
    <dc:date>2023-05-08T14:07:11.683998</dc:date>
    <dc:format>image/svg+xml</dc:format>
    <dc:creator>
     <cc:Agent>
      <dc:title>Matplotlib v3.7.1, https://matplotlib.org/</dc:title>
     </cc:Agent>
    </dc:creator>
   </cc:Work>
  </rdf:RDF>
 </metadata>
 <defs>
  <style type="text/css">*{stroke-linejoin: round; stroke-linecap: butt}</style>
 </defs>
 <g id="figure_1">
  <g id="patch_1">
   <path d="M 0 410.4 
L 921.6 410.4 
L 921.6 0 
L 0 0 
z
" style="fill: #ffffff"/>
  </g>
  <g id="axes_1">
   <g id="patch_2">
    <path d="M 86.42 331 
L 897.84 331 
L 897.84 23.76 
L 86.42 23.76 
z
" style="fill: #ffffff"/>
   </g>
   <g id="PolyCollection_1">
    <path d="M 123.302727 239.791214 
L 123.302727 331 
L 127.355774 331 
L 131.408821 331 
L 135.461868 331 
L 139.514915 331 
L 143.567962 331 
L 147.621009 331 
L 151.674056 331 
L 155.727103 331 
L 159.78015 331 
L 163.833197 331 
L 167.886244 331 
L 171.939291 331 
L 175.992338 331 
L 180.045385 331 
L 184.098432 331 
L 188.151479 331 
L 192.204525 331 
L 196.257572 331 
L 200.310619 331 
L 204.363666 331 
L 208.416713 331 
L 212.46976 331 
L 216.522807 331 
L 220.575854 331 
L 224.628901 331 
L 228.681948 331 
L 232.734995 331 
L 236.788042 331 
L 240.841089 331 
L 244.894136 331 
L 248.947183 331 
L 253.00023 331 
L 257.053277 331 
L 261.106324 331 
L 265.159371 331 
L 269.212418 331 
L 273.265465 331 
L 277.318511 331 
L 281.371558 331 
L 285.424605 331 
L 289.477652 331 
L 293.530699 331 
L 297.583746 331 
L 301.636793 331 
L 305.68984 331 
L 309.742887 331 
L 313.795934 331 
L 317.848981 331 
L 321.902028 331 
L 325.955075 331 
L 330.008122 331 
L 334.061169 331 
L 338.114216 331 
L 342.167263 331 
L 346.22031 331 
L 350.273357 331 
L 354.326404 331 
L 358.379451 331 
L 362.432498 331 
L 366.485544 331 
L 370.538591 331 
L 374.591638 331 
L 378.644685 331 
L 382.697732 331 
L 386.750779 331 
L 390.803826 331 
L 394.856873 331 
L 398.90992 331 
L 402.962967 331 
L 407.016014 331 
L 411.069061 331 
L 415.122108 331 
L 419.175155 331 
L 423.228202 331 
L 427.281249 331 
L 431.334296 331 
L 435.387343 331 
L 439.44039 331 
L 443.493437 331 
L 447.546484 331 
L 451.59953 331 
L 455.652577 331 
L 459.705624 331 
L 463.758671 331 
L 467.811718 331 
L 471.864765 331 
L 475.917812 331 
L 479.970859 331 
L 484.023906 331 
L 488.076953 331 
L 492.13 331 
L 496.183047 331 
L 500.236094 331 
L 504.289141 331 
L 508.342188 331 
L 512.395235 331 
L 516.448282 331 
L 520.501329 331 
L 524.554376 331 
L 528.607423 331 
L 532.66047 331 
L 536.713516 331 
L 540.766563 331 
L 544.81961 331 
L 548.872657 331 
L 552.925704 331 
L 556.978751 331 
L 561.031798 331 
L 565.084845 331 
L 569.137892 331 
L 573.190939 331 
L 577.243986 331 
L 581.297033 331 
L 585.35008 331 
L 589.403127 331 
L 593.456174 331 
L 597.509221 331 
L 601.562268 331 
L 605.615315 331 
L 609.668362 331 
L 613.721409 331 
L 617.774456 331 
L 621.827502 331 
L 625.880549 331 
L 629.933596 331 
L 633.986643 331 
L 638.03969 331 
L 642.092737 331 
L 646.145784 331 
L 650.198831 331 
L 654.251878 331 
L 658.304925 331 
L 662.357972 331 
L 666.411019 331 
L 670.464066 331 
L 674.517113 331 
L 678.57016 331 
L 682.623207 331 
L 686.676254 331 
L 690.729301 331 
L 694.782348 331 
L 698.835395 331 
L 702.888442 331 
L 706.941489 331 
L 710.994535 331 
L 715.047582 331 
L 719.100629 331 
L 723.153676 331 
L 727.206723 331 
L 731.25977 331 
L 735.312817 331 
L 739.365864 331 
L 743.418911 331 
L 747.471958 331 
L 751.525005 331 
L 755.578052 331 
L 759.631099 331 
L 763.684146 331 
L 767.737193 331 
L 771.79024 331 
L 775.843287 331 
L 779.896334 331 
L 783.949381 331 
L 788.002428 331 
L 792.055475 331 
L 796.108521 331 
L 800.161568 331 
L 804.214615 331 
L 808.267662 331 
L 812.320709 331 
L 816.373756 331 
L 820.426803 331 
L 824.47985 331 
L 828.532897 331 
L 832.585944 331 
L 836.638991 331 
L 840.692038 331 
L 844.745085 331 
L 848.798132 331 
L 852.851179 331 
L 856.904226 331 
L 860.957273 331 
L 860.957273 256.00756 
L 860.957273 256.00756 
L 856.904226 252.787496 
L 852.851179 251.860467 
L 848.798132 254.812184 
L 844.745085 254.100706 
L 840.692038 243.72084 
L 836.638991 243.348389 
L 832.585944 237.687651 
L 828.532897 243.643348 
L 824.47985 242.203894 
L 820.426803 240.020816 
L 816.373756 238.171762 
L 812.320709 244.480644 
L 808.267662 244.767832 
L 804.214615 239.825703 
L 800.161568 240.959234 
L 796.108521 237.939393 
L 792.055475 242.524825 
L 788.002428 244.433489 
L 783.949381 245.846225 
L 779.896334 247.642269 
L 775.843287 242.374845 
L 771.79024 243.585868 
L 767.737193 242.693115 
L 763.684146 239.259203 
L 759.631099 239.37097 
L 755.578052 242.02017 
L 751.525005 242.970617 
L 747.471958 246.487342 
L 743.418911 245.527955 
L 739.365864 245.646215 
L 735.312817 242.796366 
L 731.25977 242.225928 
L 727.206723 243.316882 
L 723.153676 245.572236 
L 719.100629 246.255186 
L 715.047582 244.495972 
L 710.994535 246.089451 
L 706.941489 247.828335 
L 702.888442 241.873383 
L 698.835395 239.811865 
L 694.782348 241.696684 
L 690.729301 237.452195 
L 686.676254 242.165042 
L 682.623207 242.5723 
L 678.57016 235.24325 
L 674.517113 238.728575 
L 670.464066 230.13049 
L 666.411019 235.235161 
L 662.357972 234.81002 
L 658.304925 232.772878 
L 654.251878 233.72822 
L 650.198831 237.643689 
L 646.145784 237.383112 
L 642.092737 239.814313 
L 638.03969 238.297048 
L 633.986643 234.726354 
L 629.933596 238.409134 
L 625.880549 234.139098 
L 621.827502 241.87317 
L 617.774456 241.2444 
L 613.721409 238.538145 
L 609.668362 237.990806 
L 605.615315 237.088472 
L 601.562268 235.956644 
L 597.509221 236.359857 
L 593.456174 241.223643 
L 589.403127 236.335481 
L 585.35008 231.585379 
L 581.297033 225.077977 
L 577.243986 236.314938 
L 573.190939 232.073215 
L 569.137892 233.76505 
L 565.084845 226.497633 
L 561.031798 230.12091 
L 556.978751 230.979707 
L 552.925704 237.315732 
L 548.872657 233.487868 
L 544.81961 225.463627 
L 540.766563 226.038642 
L 536.713516 235.751099 
L 532.66047 232.664197 
L 528.607423 232.533483 
L 524.554376 232.342734 
L 520.501329 237.497327 
L 516.448282 232.126012 
L 512.395235 235.527139 
L 508.342188 241.05397 
L 504.289141 238.238184 
L 500.236094 238.49578 
L 496.183047 245.157101 
L 492.13 246.359715 
L 488.076953 247.510065 
L 484.023906 251.305144 
L 479.970859 251.384552 
L 475.917812 252.391201 
L 471.864765 257.2519 
L 467.811718 263.171513 
L 463.758671 266.037435 
L 459.705624 263.514798 
L 455.652577 257.860765 
L 451.59953 260.88199 
L 447.546484 265.40611 
L 443.493437 261.361844 
L 439.44039 267.880209 
L 435.387343 265.555346 
L 431.334296 270.141843 
L 427.281249 269.385339 
L 423.228202 268.445005 
L 419.175155 262.880599 
L 415.122108 261.629659 
L 411.069061 258.358927 
L 407.016014 256.842194 
L 402.962967 256.592474 
L 398.90992 258.597683 
L 394.856873 261.799013 
L 390.803826 267.888937 
L 386.750779 267.321799 
L 382.697732 264.337829 
L 378.644685 271.536803 
L 374.591638 268.480132 
L 370.538591 266.031048 
L 366.485544 270.678538 
L 362.432498 270.888767 
L 358.379451 274.054437 
L 354.326404 277.207335 
L 350.273357 277.184343 
L 346.22031 275.137833 
L 342.167263 275.244491 
L 338.114216 276.286374 
L 334.061169 278.203552 
L 330.008122 275.189459 
L 325.955075 269.47273 
L 321.902028 265.580786 
L 317.848981 259.766661 
L 313.795934 258.870927 
L 309.742887 261.76197 
L 305.68984 261.695868 
L 301.636793 257.805627 
L 297.583746 255.995744 
L 293.530699 254.031836 
L 289.477652 253.268946 
L 285.424605 254.128275 
L 281.371558 250.236438 
L 277.318511 252.276028 
L 273.265465 254.666673 
L 269.212418 260.050123 
L 265.159371 258.279093 
L 261.106324 257.400072 
L 257.053277 258.088238 
L 253.00023 256.753951 
L 248.947183 246.797097 
L 244.894136 250.499995 
L 240.841089 245.339015 
L 236.788042 248.246663 
L 232.734995 246.128091 
L 228.681948 241.578317 
L 224.628901 243.720946 
L 220.575854 246.554829 
L 216.522807 240.344089 
L 212.46976 246.081575 
L 208.416713 244.931225 
L 204.363666 244.734834 
L 200.310619 245.951712 
L 196.257572 244.504168 
L 192.204525 249.263106 
L 188.151479 249.653013 
L 184.098432 249.380514 
L 180.045385 252.631554 
L 175.992338 249.693036 
L 171.939291 253.227539 
L 167.886244 246.113827 
L 163.833197 238.455331 
L 159.78015 247.199672 
L 155.727103 247.147088 
L 151.674056 241.995688 
L 147.621009 241.395445 
L 143.567962 242.919097 
L 139.514915 243.73042 
L 135.461868 246.052409 
L 131.408821 242.707591 
L 127.355774 245.387128 
L 123.302727 239.791214 
z
" clip-path="url(#p1840f8310d)" style="fill: #1f77b4"/>
   </g>
   <g id="PolyCollection_2">
    <path d="M 123.302727 149.731821 
L 123.302727 239.791214 
L 127.355774 245.387128 
L 131.408821 242.707591 
L 135.461868 246.052409 
L 139.514915 243.73042 
L 143.567962 242.919097 
L 147.621009 241.395445 
L 151.674056 241.995688 
L 155.727103 247.147088 
L 159.78015 247.199672 
L 163.833197 238.455331 
L 167.886244 246.113827 
L 171.939291 253.227539 
L 175.992338 249.693036 
L 180.045385 252.631554 
L 184.098432 249.380514 
L 188.151479 249.653013 
L 192.204525 249.263106 
L 196.257572 244.504168 
L 200.310619 245.951712 
L 204.363666 244.734834 
L 208.416713 244.931225 
L 212.46976 246.081575 
L 216.522807 240.344089 
L 220.575854 246.554829 
L 224.628901 243.720946 
L 228.681948 241.578317 
L 232.734995 246.128091 
L 236.788042 248.246663 
L 240.841089 245.339015 
L 244.894136 250.499995 
L 248.947183 246.797097 
L 253.00023 256.753951 
L 257.053277 258.088238 
L 261.106324 257.400072 
L 265.159371 258.279093 
L 269.212418 260.050123 
L 273.265465 254.666673 
L 277.318511 252.276028 
L 281.371558 250.236438 
L 285.424605 254.128275 
L 289.477652 253.268946 
L 293.530699 254.031836 
L 297.583746 255.995744 
L 301.636793 257.805627 
L 305.68984 261.695868 
L 309.742887 261.76197 
L 313.795934 258.870927 
L 317.848981 259.766661 
L 321.902028 265.580786 
L 325.955075 269.47273 
L 330.008122 275.189459 
L 334.061169 278.203552 
L 338.114216 276.286374 
L 342.167263 275.244491 
L 346.22031 275.137833 
L 350.273357 277.184343 
L 354.326404 277.207335 
L 358.379451 274.054437 
L 362.432498 270.888767 
L 366.485544 270.678538 
L 370.538591 266.031048 
L 374.591638 268.480132 
L 378.644685 271.536803 
L 382.697732 264.337829 
L 386.750779 267.321799 
L 390.803826 267.888937 
L 394.856873 261.799013 
L 398.90992 258.597683 
L 402.962967 256.592474 
L 407.016014 256.842194 
L 411.069061 258.358927 
L 415.122108 261.629659 
L 419.175155 262.880599 
L 423.228202 268.445005 
L 427.281249 269.385339 
L 431.334296 270.141843 
L 435.387343 265.555346 
L 439.44039 267.880209 
L 443.493437 261.361844 
L 447.546484 265.40611 
L 451.59953 260.88199 
L 455.652577 257.860765 
L 459.705624 263.514798 
L 463.758671 266.037435 
L 467.811718 263.171513 
L 471.864765 257.2519 
L 475.917812 252.391201 
L 479.970859 251.384552 
L 484.023906 251.305144 
L 488.076953 247.510065 
L 492.13 246.359715 
L 496.183047 245.157101 
L 500.236094 238.49578 
L 504.289141 238.238184 
L 508.342188 241.05397 
L 512.395235 235.527139 
L 516.448282 232.126012 
L 520.501329 237.497327 
L 524.554376 232.342734 
L 528.607423 232.533483 
L 532.66047 232.664197 
L 536.713516 235.751099 
L 540.766563 226.038642 
L 544.81961 225.463627 
L 548.872657 233.487868 
L 552.925704 237.315732 
L 556.978751 230.979707 
L 561.031798 230.12091 
L 565.084845 226.497633 
L 569.137892 233.76505 
L 573.190939 232.073215 
L 577.243986 236.314938 
L 581.297033 225.077977 
L 585.35008 231.585379 
L 589.403127 236.335481 
L 593.456174 241.223643 
L 597.509221 236.359857 
L 601.562268 235.956644 
L 605.615315 237.088472 
L 609.668362 237.990806 
L 613.721409 238.538145 
L 617.774456 241.2444 
L 621.827502 241.87317 
L 625.880549 234.139098 
L 629.933596 238.409134 
L 633.986643 234.726354 
L 638.03969 238.297048 
L 642.092737 239.814313 
L 646.145784 237.383112 
L 650.198831 237.643689 
L 654.251878 233.72822 
L 658.304925 232.772878 
L 662.357972 234.81002 
L 666.411019 235.235161 
L 670.464066 230.13049 
L 674.517113 238.728575 
L 678.57016 235.24325 
L 682.623207 242.5723 
L 686.676254 242.165042 
L 690.729301 237.452195 
L 694.782348 241.696684 
L 698.835395 239.811865 
L 702.888442 241.873383 
L 706.941489 247.828335 
L 710.994535 246.089451 
L 715.047582 244.495972 
L 719.100629 246.255186 
L 723.153676 245.572236 
L 727.206723 243.316882 
L 731.25977 242.225928 
L 735.312817 242.796366 
L 739.365864 245.646215 
L 743.418911 245.527955 
L 747.471958 246.487342 
L 751.525005 242.970617 
L 755.578052 242.02017 
L 759.631099 239.37097 
L 763.684146 239.259203 
L 767.737193 242.693115 
L 771.79024 243.585868 
L 775.843287 242.374845 
L 779.896334 247.642269 
L 783.949381 245.846225 
L 788.002428 244.433489 
L 792.055475 242.524825 
L 796.108521 237.939393 
L 800.161568 240.959234 
L 804.214615 239.825703 
L 808.267662 244.767832 
L 812.320709 244.480644 
L 816.373756 238.171762 
L 820.426803 240.020816 
L 824.47985 242.203894 
L 828.532897 243.643348 
L 832.585944 237.687651 
L 836.638991 243.348389 
L 840.692038 243.72084 
L 844.745085 254.100706 
L 848.798132 254.812184 
L 852.851179 251.860467 
L 856.904226 252.787496 
L 860.957273 256.00756 
L 860.957273 256.00756 
L 860.957273 256.00756 
L 856.904226 170.431518 
L 852.851179 166.927459 
L 848.798132 175.579086 
L 844.745085 182.391984 
L 840.692038 159.754671 
L 836.638991 158.452211 
L 832.585944 153.431951 
L 828.532897 156.853835 
L 824.47985 150.956575 
L 820.426803 149.334462 
L 816.373756 143.496067 
L 812.320709 155.416616 
L 808.267662 158.590589 
L 804.214615 153.968753 
L 800.161568 153.317629 
L 796.108521 152.786256 
L 792.055475 159.718586 
L 788.002428 161.259056 
L 783.949381 161.267252 
L 779.896334 167.561338 
L 775.843287 164.109437 
L 771.79024 161.732949 
L 767.737193 158.962188 
L 763.684146 159.032442 
L 759.631099 162.897668 
L 755.578052 164.463792 
L 751.525005 165.884086 
L 747.471958 173.103071 
L 743.418911 175.212702 
L 739.365864 169.949216 
L 735.312817 167.825108 
L 731.25977 170.778528 
L 727.206723 169.500231 
L 723.153676 173.136282 
L 719.100629 177.396738 
L 715.047582 176.149737 
L 710.994535 181.622281 
L 706.941489 177.593874 
L 702.888442 170.479099 
L 698.835395 168.269942 
L 694.782348 163.925074 
L 690.729301 160.341182 
L 686.676254 167.731224 
L 682.623207 164.020343 
L 678.57016 152.084785 
L 674.517113 157.888266 
L 670.464066 146.102689 
L 666.411019 151.736071 
L 662.357972 146.969257 
L 658.304925 141.061992 
L 654.251878 146.586268 
L 650.198831 146.61735 
L 646.145784 144.868567 
L 642.092737 150.955511 
L 638.03969 147.063993 
L 633.986643 147.128605 
L 629.933596 153.454092 
L 625.880549 148.264478 
L 621.827502 155.260993 
L 617.774456 156.978056 
L 613.721409 153.69636 
L 609.668362 152.122998 
L 605.615315 152.255096 
L 601.562268 144.241607 
L 597.509221 147.059841 
L 593.456174 155.894447 
L 589.403127 149.992611 
L 585.35008 144.570734 
L 581.297033 134.715535 
L 577.243986 140.05002 
L 573.190939 141.961025 
L 569.137892 143.449018 
L 565.084845 133.374223 
L 561.031798 142.844411 
L 556.978751 139.461486 
L 552.925704 150.376025 
L 548.872657 151.926714 
L 544.81961 146.825982 
L 540.766563 136.693494 
L 536.713516 146.139838 
L 532.66047 144.864841 
L 528.607423 146.388919 
L 524.554376 145.094762 
L 520.501329 150.530157 
L 516.448282 144.926154 
L 512.395235 144.77447 
L 508.342188 151.505512 
L 504.289141 156.54706 
L 500.236094 154.488523 
L 496.183047 164.379701 
L 492.13 170.011167 
L 488.076953 173.767287 
L 484.023906 175.569293 
L 479.970859 176.169429 
L 475.917812 180.491943 
L 471.864765 187.759254 
L 467.811718 202.865166 
L 463.758671 205.915664 
L 459.705624 200.659203 
L 455.652577 187.331558 
L 451.59953 191.056065 
L 447.546484 199.548663 
L 443.493437 198.559045 
L 439.44039 203.026324 
L 435.387343 202.095783 
L 431.334296 202.548386 
L 427.281249 202.630242 
L 423.228202 204.801292 
L 419.175155 195.62883 
L 415.122108 195.657145 
L 411.069061 181.103256 
L 407.016014 174.761802 
L 402.962967 176.15293 
L 398.90992 179.031838 
L 394.856873 186.971136 
L 390.803826 195.516637 
L 386.750779 195.860561 
L 382.697732 194.75215 
L 378.644685 203.137026 
L 374.591638 199.1215 
L 370.538591 201.90365 
L 366.485544 209.862427 
L 362.432498 208.354209 
L 358.379451 210.237113 
L 354.326404 213.07174 
L 350.273357 218.158209 
L 346.22031 214.012287 
L 342.167263 213.072804 
L 338.114216 217.899015 
L 334.061169 222.641986 
L 330.008122 217.66143 
L 325.955075 213.676467 
L 321.902028 201.398888 
L 317.848981 194.379806 
L 313.795934 191.530596 
L 309.742887 189.329742 
L 305.68984 185.761071 
L 301.636793 188.82977 
L 297.583746 187.706777 
L 293.530699 183.871248 
L 289.477652 188.11776 
L 285.424605 179.955567 
L 281.371558 177.530965 
L 277.318511 177.094541 
L 273.265465 173.73876 
L 269.212418 184.427636 
L 265.159371 181.273035 
L 261.106324 189.769572 
L 257.053277 190.096784 
L 253.00023 186.376535 
L 248.947183 170.783212 
L 244.894136 173.253159 
L 240.841089 166.020123 
L 236.788042 168.396079 
L 232.734995 171.497989 
L 228.681948 166.469107 
L 224.628901 166.709034 
L 220.575854 168.111445 
L 216.522807 164.526169 
L 212.46976 170.26227 
L 208.416713 166.041412 
L 204.363666 160.778457 
L 200.310619 163.63746 
L 196.257572 157.869532 
L 192.204525 166.879984 
L 188.151479 169.181429 
L 184.098432 168.519555 
L 180.045385 168.90595 
L 175.992338 165.113319 
L 171.939291 169.348973 
L 167.886244 160.900975 
L 163.833197 151.166272 
L 159.78015 168.547869 
L 155.727103 163.698666 
L 151.674056 158.531832 
L 147.621009 158.517887 
L 143.567962 157.106854 
L 139.514915 161.921888 
L 135.461868 166.538509 
L 131.408821 160.430063 
L 127.355774 156.217507 
L 123.302727 149.731821 
z
" clip-path="url(#p1840f8310d)" style="fill: #ff7f0e"/>
   </g>
   <g id="PolyCollection_3">
    <path d="M 123.302727 43.695902 
L 123.302727 149.731821 
L 127.355774 156.217507 
L 131.408821 160.430063 
L 135.461868 166.538509 
L 139.514915 161.921888 
L 143.567962 157.106854 
L 147.621009 158.517887 
L 151.674056 158.531832 
L 155.727103 163.698666 
L 159.78015 168.547869 
L 163.833197 151.166272 
L 167.886244 160.900975 
L 171.939291 169.348973 
L 175.992338 165.113319 
L 180.045385 168.90595 
L 184.098432 168.519555 
L 188.151479 169.181429 
L 192.204525 166.879984 
L 196.257572 157.869532 
L 200.310619 163.63746 
L 204.363666 160.778457 
L 208.416713 166.041412 
L 212.46976 170.26227 
L 216.522807 164.526169 
L 220.575854 168.111445 
L 224.628901 166.709034 
L 228.681948 166.469107 
L 232.734995 171.497989 
L 236.788042 168.396079 
L 240.841089 166.020123 
L 244.894136 173.253159 
L 248.947183 170.783212 
L 253.00023 186.376535 
L 257.053277 190.096784 
L 261.106324 189.769572 
L 265.159371 181.273035 
L 269.212418 184.427636 
L 273.265465 173.73876 
L 277.318511 177.094541 
L 281.371558 177.530965 
L 285.424605 179.955567 
L 289.477652 188.11776 
L 293.530699 183.871248 
L 297.583746 187.706777 
L 301.636793 188.82977 
L 305.68984 185.761071 
L 309.742887 189.329742 
L 313.795934 191.530596 
L 317.848981 194.379806 
L 321.902028 201.398888 
L 325.955075 213.676467 
L 330.008122 217.66143 
L 334.061169 222.641986 
L 338.114216 217.899015 
L 342.167263 213.072804 
L 346.22031 214.012287 
L 350.273357 218.158209 
L 354.326404 213.07174 
L 358.379451 210.237113 
L 362.432498 208.354209 
L 366.485544 209.862427 
L 370.538591 201.90365 
L 374.591638 199.1215 
L 378.644685 203.137026 
L 382.697732 194.75215 
L 386.750779 195.860561 
L 390.803826 195.516637 
L 394.856873 186.971136 
L 398.90992 179.031838 
L 402.962967 176.15293 
L 407.016014 174.761802 
L 411.069061 181.103256 
L 415.122108 195.657145 
L 419.175155 195.62883 
L 423.228202 204.801292 
L 427.281249 202.630242 
L 431.334296 202.548386 
L 435.387343 202.095783 
L 439.44039 203.026324 
L 443.493437 198.559045 
L 447.546484 199.548663 
L 451.59953 191.056065 
L 455.652577 187.331558 
L 459.705624 200.659203 
L 463.758671 205.915664 
L 467.811718 202.865166 
L 471.864765 187.759254 
L 475.917812 180.491943 
L 479.970859 176.169429 
L 484.023906 175.569293 
L 488.076953 173.767287 
L 492.13 170.011167 
L 496.183047 164.379701 
L 500.236094 154.488523 
L 504.289141 156.54706 
L 508.342188 151.505512 
L 512.395235 144.77447 
L 516.448282 144.926154 
L 520.501329 150.530157 
L 524.554376 145.094762 
L 528.607423 146.388919 
L 532.66047 144.864841 
L 536.713516 146.139838 
L 540.766563 136.693494 
L 544.81961 146.825982 
L 548.872657 151.926714 
L 552.925704 150.376025 
L 556.978751 139.461486 
L 561.031798 142.844411 
L 565.084845 133.374223 
L 569.137892 143.449018 
L 573.190939 141.961025 
L 577.243986 140.05002 
L 581.297033 134.715535 
L 585.35008 144.570734 
L 589.403127 149.992611 
L 593.456174 155.894447 
L 597.509221 147.059841 
L 601.562268 144.241607 
L 605.615315 152.255096 
L 609.668362 152.122998 
L 613.721409 153.69636 
L 617.774456 156.978056 
L 621.827502 155.260993 
L 625.880549 148.264478 
L 629.933596 153.454092 
L 633.986643 147.128605 
L 638.03969 147.063993 
L 642.092737 150.955511 
L 646.145784 144.868567 
L 650.198831 146.61735 
L 654.251878 146.586268 
L 658.304925 141.061992 
L 662.357972 146.969257 
L 666.411019 151.736071 
L 670.464066 146.102689 
L 674.517113 157.888266 
L 678.57016 152.084785 
L 682.623207 164.020343 
L 686.676254 167.731224 
L 690.729301 160.341182 
L 694.782348 163.925074 
L 698.835395 168.269942 
L 702.888442 170.479099 
L 706.941489 177.593874 
L 710.994535 181.622281 
L 715.047582 176.149737 
L 719.100629 177.396738 
L 723.153676 173.136282 
L 727.206723 169.500231 
L 731.25977 170.778528 
L 735.312817 167.825108 
L 739.365864 169.949216 
L 743.418911 175.212702 
L 747.471958 173.103071 
L 751.525005 165.884086 
L 755.578052 164.463792 
L 759.631099 162.897668 
L 763.684146 159.032442 
L 767.737193 158.962188 
L 771.79024 161.732949 
L 775.843287 164.109437 
L 779.896334 167.561338 
L 783.949381 161.267252 
L 788.002428 161.259056 
L 792.055475 159.718586 
L 796.108521 152.786256 
L 800.161568 153.317629 
L 804.214615 153.968753 
L 808.267662 158.590589 
L 812.320709 155.416616 
L 816.373756 143.496067 
L 820.426803 149.334462 
L 824.47985 150.956575 
L 828.532897 156.853835 
L 832.585944 153.431951 
L 836.638991 158.452211 
L 840.692038 159.754671 
L 844.745085 182.391984 
L 848.798132 175.579086 
L 852.851179 166.927459 
L 856.904226 170.431518 
L 860.957273 256.00756 
L 860.957273 182.45468 
L 860.957273 182.45468 
L 856.904226 93.767573 
L 852.851179 92.062752 
L 848.798132 103.596694 
L 844.745085 102.597496 
L 840.692038 75.404767 
L 836.638991 71.34315 
L 832.585944 64.860337 
L 828.532897 67.773095 
L 824.47985 63.176486 
L 820.426803 62.462241 
L 816.373756 53.975497 
L 812.320709 64.114904 
L 808.267662 66.71631 
L 804.214615 58.385402 
L 800.161568 61.168297 
L 796.108521 56.161236 
L 792.055475 68.028563 
L 788.002428 71.497601 
L 783.949381 77.721646 
L 779.896334 83.63583 
L 775.843287 77.03348 
L 771.79024 81.1067 
L 767.737193 78.264409 
L 763.684146 79.905363 
L 759.631099 83.774741 
L 755.578052 91.241849 
L 751.525005 88.59382 
L 747.471958 98.871393 
L 743.418911 98.629763 
L 739.365864 97.839942 
L 735.312817 88.570402 
L 731.25977 96.736108 
L 727.206723 94.624987 
L 723.153676 102.286889 
L 719.100629 104.857533 
L 715.047582 102.34437 
L 710.994535 108.05535 
L 706.941489 99.94606 
L 702.888442 89.555017 
L 698.835395 87.746519 
L 694.782348 85.387381 
L 690.729301 77.766566 
L 686.676254 88.3441 
L 682.623207 84.316758 
L 678.57016 67.017869 
L 674.517113 73.445117 
L 670.464066 56.733377 
L 666.411019 63.313906 
L 662.357972 56.938922 
L 658.304925 53.0077 
L 654.251878 63.999837 
L 650.198831 65.757987 
L 646.145784 65.411722 
L 642.092737 66.578677 
L 638.03969 61.130509 
L 633.986643 57.545339 
L 629.933596 65.507948 
L 625.880549 61.908834 
L 621.827502 72.339687 
L 617.774456 76.864978 
L 613.721409 71.74796 
L 609.668362 70.85031 
L 605.615315 64.721746 
L 601.562268 55.621028 
L 597.509221 55.450716 
L 593.456174 63.291021 
L 589.403127 57.992833 
L 585.35008 52.537533 
L 581.297033 41.828433 
L 577.243986 45.695895 
L 573.190939 50.328802 
L 569.137892 56.219994 
L 565.084845 39.028507 
L 561.031798 50.110057 
L 556.978751 48.185002 
L 552.925704 60.588385 
L 548.872657 63.138911 
L 544.81961 52.192545 
L 540.766563 41.797777 
L 536.713516 53.171838 
L 532.66047 50.33423 
L 528.607423 48.444195 
L 524.554376 50.021708 
L 520.501329 56.613946 
L 516.448282 47.766248 
L 512.395235 51.315652 
L 508.342188 59.851041 
L 504.289141 66.093608 
L 500.236094 61.699776 
L 496.183047 77.305766 
L 492.13 86.908798 
L 488.076953 93.795994 
L 484.023906 99.32208 
L 479.970859 101.791282 
L 475.917812 109.361429 
L 471.864765 123.692423 
L 467.811718 135.526858 
L 463.758671 140.420342 
L 459.705624 129.995556 
L 455.652577 110.889552 
L 451.59953 115.460082 
L 447.546484 126.932498 
L 443.493437 123.40747 
L 439.44039 126.810512 
L 435.387343 130.470407 
L 431.334296 133.622878 
L 427.281249 138.065355 
L 423.228202 138.992171 
L 419.175155 121.705522 
L 415.122108 120.868653 
L 411.069061 103.665883 
L 407.016014 98.580053 
L 402.962967 95.41534 
L 398.90992 101.811507 
L 394.856873 114.865374 
L 390.803826 123.054498 
L 386.750779 118.351231 
L 382.697732 121.126782 
L 378.644685 130.557053 
L 374.591638 128.516079 
L 370.538591 136.63463 
L 366.485544 142.309526 
L 362.432498 141.891836 
L 358.379451 146.143883 
L 354.326404 152.241259 
L 350.273357 157.431511 
L 346.22031 152.019002 
L 342.167263 152.74634 
L 338.114216 159.172098 
L 334.061169 162.784837 
L 330.008122 154.289152 
L 325.955075 140.033428 
L 321.902028 120.674284 
L 317.848981 110.718495 
L 313.795934 110.667188 
L 309.742887 108.758312 
L 305.68984 103.009011 
L 301.636793 110.170623 
L 297.583746 107.26819 
L 293.530699 101.08981 
L 289.477652 102.041108 
L 285.424605 95.237151 
L 281.371558 93.688059 
L 277.318511 94.110007 
L 273.265465 90.546551 
L 269.212418 103.231588 
L 265.159371 99.015838 
L 261.106324 107.237002 
L 257.053277 106.58524 
L 253.00023 102.326806 
L 248.947183 82.820676 
L 244.894136 83.906094 
L 240.841089 76.875942 
L 236.788042 81.071041 
L 232.734995 82.253431 
L 228.681948 74.278793 
L 224.628901 78.213102 
L 220.575854 81.992002 
L 216.522807 77.025603 
L 212.46976 81.260087 
L 208.416713 79.087654 
L 204.363666 70.06943 
L 200.310619 71.016577 
L 196.257572 69.059269 
L 192.204525 76.93438 
L 188.151479 85.257944 
L 184.098432 82.704438 
L 180.045385 81.972948 
L 175.992338 73.549007 
L 171.939291 78.047048 
L 167.886244 65.183078 
L 163.833197 51.125648 
L 159.78015 72.293809 
L 155.727103 65.95491 
L 151.674056 49.009963 
L 147.621009 50.353497 
L 143.567962 49.781249 
L 139.514915 66.400808 
L 135.461868 71.500156 
L 131.408821 62.715579 
L 127.355774 54.263111 
L 123.302727 43.695902 
z
" clip-path="url(#p1840f8310d)" style="fill: #2ca02c"/>
   </g>
   <g id="matplotlib.axis_1">
    <g id="xtick_1">
     <g id="line2d_1">
      <path d="M 123.302727 331 
L 123.302727 23.76 
" clip-path="url(#p1840f8310d)" style="fill: none; stroke-dasharray: 5.12,1.28,0.8,1.28; stroke-dashoffset: 0; stroke: #b0b0b0; stroke-width: 0.8"/>
     </g>
     <g id="line2d_2">
      <defs>
       <path id="mf2570ea543" d="M 0 0 
L 0 3.5 
" style="stroke: #000000; stroke-width: 0.8"/>
      </defs>
      <g>
       <use xlink:href="#mf2570ea543" x="123.302727" y="331" style="stroke: #000000; stroke-width: 0.8"/>
      </g>
     </g>
     <g id="text_1">
      <!-- 0 -->
      <g transform="translate(116.303977 354.716563) scale(0.22 -0.22)">
       <defs>
        <path id="DejaVuSans-30" d="M 2034 4250 
Q 1547 4250 1301 3770 
Q 1056 3291 1056 2328 
Q 1056 1369 1301 889 
Q 1547 409 2034 409 
Q 2525 409 2770 889 
Q 3016 1369 3016 2328 
Q 3016 3291 2770 3770 
Q 2525 4250 2034 4250 
z
M 2034 4750 
Q 2819 4750 3233 4129 
Q 3647 3509 3647 2328 
Q 3647 1150 3233 529 
Q 2819 -91 2034 -91 
Q 1250 -91 836 529 
Q 422 1150 422 2328 
Q 422 3509 836 4129 
Q 1250 4750 2034 4750 
z
" transform="scale(0.015625)"/>
       </defs>
       <use xlink:href="#DejaVuSans-30"/>
      </g>
     </g>
    </g>
    <g id="xtick_2">
     <g id="line2d_3">
      <path d="M 224.628901 331 
L 224.628901 23.76 
" clip-path="url(#p1840f8310d)" style="fill: none; stroke-dasharray: 5.12,1.28,0.8,1.28; stroke-dashoffset: 0; stroke: #b0b0b0; stroke-width: 0.8"/>
     </g>
     <g id="line2d_4">
      <g>
       <use xlink:href="#mf2570ea543" x="224.628901" y="331" style="stroke: #000000; stroke-width: 0.8"/>
      </g>
     </g>
     <g id="text_2">
      <!-- 25 -->
      <g transform="translate(210.631401 354.716563) scale(0.22 -0.22)">
       <defs>
        <path id="DejaVuSans-32" d="M 1228 531 
L 3431 531 
L 3431 0 
L 469 0 
L 469 531 
Q 828 903 1448 1529 
Q 2069 2156 2228 2338 
Q 2531 2678 2651 2914 
Q 2772 3150 2772 3378 
Q 2772 3750 2511 3984 
Q 2250 4219 1831 4219 
Q 1534 4219 1204 4116 
Q 875 4013 500 3803 
L 500 4441 
Q 881 4594 1212 4672 
Q 1544 4750 1819 4750 
Q 2544 4750 2975 4387 
Q 3406 4025 3406 3419 
Q 3406 3131 3298 2873 
Q 3191 2616 2906 2266 
Q 2828 2175 2409 1742 
Q 1991 1309 1228 531 
z
" transform="scale(0.015625)"/>
        <path id="DejaVuSans-35" d="M 691 4666 
L 3169 4666 
L 3169 4134 
L 1269 4134 
L 1269 2991 
Q 1406 3038 1543 3061 
Q 1681 3084 1819 3084 
Q 2600 3084 3056 2656 
Q 3513 2228 3513 1497 
Q 3513 744 3044 326 
Q 2575 -91 1722 -91 
Q 1428 -91 1123 -41 
Q 819 9 494 109 
L 494 744 
Q 775 591 1075 516 
Q 1375 441 1709 441 
Q 2250 441 2565 725 
Q 2881 1009 2881 1497 
Q 2881 1984 2565 2268 
Q 2250 2553 1709 2553 
Q 1456 2553 1204 2497 
Q 953 2441 691 2322 
L 691 4666 
z
" transform="scale(0.015625)"/>
       </defs>
       <use xlink:href="#DejaVuSans-32"/>
       <use xlink:href="#DejaVuSans-35" x="63.623047"/>
      </g>
     </g>
    </g>
    <g id="xtick_3">
     <g id="line2d_5">
      <path d="M 325.955075 331 
L 325.955075 23.76 
" clip-path="url(#p1840f8310d)" style="fill: none; stroke-dasharray: 5.12,1.28,0.8,1.28; stroke-dashoffset: 0; stroke: #b0b0b0; stroke-width: 0.8"/>
     </g>
     <g id="line2d_6">
      <g>
       <use xlink:href="#mf2570ea543" x="325.955075" y="331" style="stroke: #000000; stroke-width: 0.8"/>
      </g>
     </g>
     <g id="text_3">
      <!-- 50 -->
      <g transform="translate(311.957575 354.716563) scale(0.22 -0.22)">
       <use xlink:href="#DejaVuSans-35"/>
       <use xlink:href="#DejaVuSans-30" x="63.623047"/>
      </g>
     </g>
    </g>
    <g id="xtick_4">
     <g id="line2d_7">
      <path d="M 427.281249 331 
L 427.281249 23.76 
" clip-path="url(#p1840f8310d)" style="fill: none; stroke-dasharray: 5.12,1.28,0.8,1.28; stroke-dashoffset: 0; stroke: #b0b0b0; stroke-width: 0.8"/>
     </g>
     <g id="line2d_8">
      <g>
       <use xlink:href="#mf2570ea543" x="427.281249" y="331" style="stroke: #000000; stroke-width: 0.8"/>
      </g>
     </g>
     <g id="text_4">
      <!-- 75 -->
      <g transform="translate(413.283749 354.716563) scale(0.22 -0.22)">
       <defs>
        <path id="DejaVuSans-37" d="M 525 4666 
L 3525 4666 
L 3525 4397 
L 1831 0 
L 1172 0 
L 2766 4134 
L 525 4134 
L 525 4666 
z
" transform="scale(0.015625)"/>
       </defs>
       <use xlink:href="#DejaVuSans-37"/>
       <use xlink:href="#DejaVuSans-35" x="63.623047"/>
      </g>
     </g>
    </g>
    <g id="xtick_5">
     <g id="line2d_9">
      <path d="M 528.607423 331 
L 528.607423 23.76 
" clip-path="url(#p1840f8310d)" style="fill: none; stroke-dasharray: 5.12,1.28,0.8,1.28; stroke-dashoffset: 0; stroke: #b0b0b0; stroke-width: 0.8"/>
     </g>
     <g id="line2d_10">
      <g>
       <use xlink:href="#mf2570ea543" x="528.607423" y="331" style="stroke: #000000; stroke-width: 0.8"/>
      </g>
     </g>
     <g id="text_5">
      <!-- 100 -->
      <g transform="translate(507.611173 354.716563) scale(0.22 -0.22)">
       <defs>
        <path id="DejaVuSans-31" d="M 794 531 
L 1825 531 
L 1825 4091 
L 703 3866 
L 703 4441 
L 1819 4666 
L 2450 4666 
L 2450 531 
L 3481 531 
L 3481 0 
L 794 0 
L 794 531 
z
" transform="scale(0.015625)"/>
       </defs>
       <use xlink:href="#DejaVuSans-31"/>
       <use xlink:href="#DejaVuSans-30" x="63.623047"/>
       <use xlink:href="#DejaVuSans-30" x="127.246094"/>
      </g>
     </g>
    </g>
    <g id="xtick_6">
     <g id="line2d_11">
      <path d="M 629.933596 331 
L 629.933596 23.76 
" clip-path="url(#p1840f8310d)" style="fill: none; stroke-dasharray: 5.12,1.28,0.8,1.28; stroke-dashoffset: 0; stroke: #b0b0b0; stroke-width: 0.8"/>
     </g>
     <g id="line2d_12">
      <g>
       <use xlink:href="#mf2570ea543" x="629.933596" y="331" style="stroke: #000000; stroke-width: 0.8"/>
      </g>
     </g>
     <g id="text_6">
      <!-- 125 -->
      <g transform="translate(608.937346 354.716563) scale(0.22 -0.22)">
       <use xlink:href="#DejaVuSans-31"/>
       <use xlink:href="#DejaVuSans-32" x="63.623047"/>
       <use xlink:href="#DejaVuSans-35" x="127.246094"/>
      </g>
     </g>
    </g>
    <g id="xtick_7">
     <g id="line2d_13">
      <path d="M 731.25977 331 
L 731.25977 23.76 
" clip-path="url(#p1840f8310d)" style="fill: none; stroke-dasharray: 5.12,1.28,0.8,1.28; stroke-dashoffset: 0; stroke: #b0b0b0; stroke-width: 0.8"/>
     </g>
     <g id="line2d_14">
      <g>
       <use xlink:href="#mf2570ea543" x="731.25977" y="331" style="stroke: #000000; stroke-width: 0.8"/>
      </g>
     </g>
     <g id="text_7">
      <!-- 150 -->
      <g transform="translate(710.26352 354.716563) scale(0.22 -0.22)">
       <use xlink:href="#DejaVuSans-31"/>
       <use xlink:href="#DejaVuSans-35" x="63.623047"/>
       <use xlink:href="#DejaVuSans-30" x="127.246094"/>
      </g>
     </g>
    </g>
    <g id="xtick_8">
     <g id="line2d_15">
      <path d="M 832.585944 331 
L 832.585944 23.76 
" clip-path="url(#p1840f8310d)" style="fill: none; stroke-dasharray: 5.12,1.28,0.8,1.28; stroke-dashoffset: 0; stroke: #b0b0b0; stroke-width: 0.8"/>
     </g>
     <g id="line2d_16">
      <g>
       <use xlink:href="#mf2570ea543" x="832.585944" y="331" style="stroke: #000000; stroke-width: 0.8"/>
      </g>
     </g>
     <g id="text_8">
      <!-- 175 -->
      <g transform="translate(811.589694 354.716563) scale(0.22 -0.22)">
       <use xlink:href="#DejaVuSans-31"/>
       <use xlink:href="#DejaVuSans-37" x="63.623047"/>
       <use xlink:href="#DejaVuSans-35" x="127.246094"/>
      </g>
     </g>
    </g>
    <g id="text_9">
     <!-- Time (s) -->
     <g transform="translate(443.340625 381.528125) scale(0.24 -0.24)">
      <defs>
       <path id="DejaVuSans-54" d="M -19 4666 
L 3928 4666 
L 3928 4134 
L 2272 4134 
L 2272 0 
L 1638 0 
L 1638 4134 
L -19 4134 
L -19 4666 
z
" transform="scale(0.015625)"/>
       <path id="DejaVuSans-69" d="M 603 3500 
L 1178 3500 
L 1178 0 
L 603 0 
L 603 3500 
z
M 603 4863 
L 1178 4863 
L 1178 4134 
L 603 4134 
L 603 4863 
z
" transform="scale(0.015625)"/>
       <path id="DejaVuSans-6d" d="M 3328 2828 
Q 3544 3216 3844 3400 
Q 4144 3584 4550 3584 
Q 5097 3584 5394 3201 
Q 5691 2819 5691 2113 
L 5691 0 
L 5113 0 
L 5113 2094 
Q 5113 2597 4934 2840 
Q 4756 3084 4391 3084 
Q 3944 3084 3684 2787 
Q 3425 2491 3425 1978 
L 3425 0 
L 2847 0 
L 2847 2094 
Q 2847 2600 2669 2842 
Q 2491 3084 2119 3084 
Q 1678 3084 1418 2786 
Q 1159 2488 1159 1978 
L 1159 0 
L 581 0 
L 581 3500 
L 1159 3500 
L 1159 2956 
Q 1356 3278 1631 3431 
Q 1906 3584 2284 3584 
Q 2666 3584 2933 3390 
Q 3200 3197 3328 2828 
z
" transform="scale(0.015625)"/>
       <path id="DejaVuSans-65" d="M 3597 1894 
L 3597 1613 
L 953 1613 
Q 991 1019 1311 708 
Q 1631 397 2203 397 
Q 2534 397 2845 478 
Q 3156 559 3463 722 
L 3463 178 
Q 3153 47 2828 -22 
Q 2503 -91 2169 -91 
Q 1331 -91 842 396 
Q 353 884 353 1716 
Q 353 2575 817 3079 
Q 1281 3584 2069 3584 
Q 2775 3584 3186 3129 
Q 3597 2675 3597 1894 
z
M 3022 2063 
Q 3016 2534 2758 2815 
Q 2500 3097 2075 3097 
Q 1594 3097 1305 2825 
Q 1016 2553 972 2059 
L 3022 2063 
z
" transform="scale(0.015625)"/>
       <path id="DejaVuSans-20" transform="scale(0.015625)"/>
       <path id="DejaVuSans-28" d="M 1984 4856 
Q 1566 4138 1362 3434 
Q 1159 2731 1159 2009 
Q 1159 1288 1364 580 
Q 1569 -128 1984 -844 
L 1484 -844 
Q 1016 -109 783 600 
Q 550 1309 550 2009 
Q 550 2706 781 3412 
Q 1013 4119 1484 4856 
L 1984 4856 
z
" transform="scale(0.015625)"/>
       <path id="DejaVuSans-73" d="M 2834 3397 
L 2834 2853 
Q 2591 2978 2328 3040 
Q 2066 3103 1784 3103 
Q 1356 3103 1142 2972 
Q 928 2841 928 2578 
Q 928 2378 1081 2264 
Q 1234 2150 1697 2047 
L 1894 2003 
Q 2506 1872 2764 1633 
Q 3022 1394 3022 966 
Q 3022 478 2636 193 
Q 2250 -91 1575 -91 
Q 1294 -91 989 -36 
Q 684 19 347 128 
L 347 722 
Q 666 556 975 473 
Q 1284 391 1588 391 
Q 1994 391 2212 530 
Q 2431 669 2431 922 
Q 2431 1156 2273 1281 
Q 2116 1406 1581 1522 
L 1381 1569 
Q 847 1681 609 1914 
Q 372 2147 372 2553 
Q 372 3047 722 3315 
Q 1072 3584 1716 3584 
Q 2034 3584 2315 3537 
Q 2597 3491 2834 3397 
z
" transform="scale(0.015625)"/>
       <path id="DejaVuSans-29" d="M 513 4856 
L 1013 4856 
Q 1481 4119 1714 3412 
Q 1947 2706 1947 2009 
Q 1947 1309 1714 600 
Q 1481 -109 1013 -844 
L 513 -844 
Q 928 -128 1133 580 
Q 1338 1288 1338 2009 
Q 1338 2731 1133 3434 
Q 928 4138 513 4856 
z
" transform="scale(0.015625)"/>
      </defs>
      <use xlink:href="#DejaVuSans-54"/>
      <use xlink:href="#DejaVuSans-69" x="57.958984"/>
      <use xlink:href="#DejaVuSans-6d" x="85.742188"/>
      <use xlink:href="#DejaVuSans-65" x="183.154297"/>
      <use xlink:href="#DejaVuSans-20" x="244.677734"/>
      <use xlink:href="#DejaVuSans-28" x="276.464844"/>
      <use xlink:href="#DejaVuSans-73" x="315.478516"/>
      <use xlink:href="#DejaVuSans-29" x="367.578125"/>
     </g>
    </g>
   </g>
   <g id="matplotlib.axis_2">
    <g id="ytick_1">
     <g id="line2d_17">
      <path d="M 86.42 331 
L 897.84 331 
" clip-path="url(#p1840f8310d)" style="fill: none; stroke-dasharray: 5.12,1.28,0.8,1.28; stroke-dashoffset: 0; stroke: #b0b0b0; stroke-width: 0.8"/>
     </g>
     <g id="line2d_18">
      <defs>
       <path id="maa47ab4adc" d="M 0 0 
L -3.5 0 
" style="stroke: #000000; stroke-width: 0.8"/>
      </defs>
      <g>
       <use xlink:href="#maa47ab4adc" x="86.42" y="331" style="stroke: #000000; stroke-width: 0.8"/>
      </g>
     </g>
     <g id="text_10">
      <!-- 0 -->
      <g transform="translate(65.4225 339.358281) scale(0.22 -0.22)">
       <use xlink:href="#DejaVuSans-30"/>
      </g>
     </g>
    </g>
    <g id="ytick_2">
     <g id="line2d_19">
      <path d="M 86.42 264.47195 
L 897.84 264.47195 
" clip-path="url(#p1840f8310d)" style="fill: none; stroke-dasharray: 5.12,1.28,0.8,1.28; stroke-dashoffset: 0; stroke: #b0b0b0; stroke-width: 0.8"/>
     </g>
     <g id="line2d_20">
      <g>
       <use xlink:href="#maa47ab4adc" x="86.42" y="264.47195" style="stroke: #000000; stroke-width: 0.8"/>
      </g>
     </g>
     <g id="text_11">
      <!-- 5 -->
      <g transform="translate(65.4225 272.830231) scale(0.22 -0.22)">
       <use xlink:href="#DejaVuSans-35"/>
      </g>
     </g>
    </g>
    <g id="ytick_3">
     <g id="line2d_21">
      <path d="M 86.42 197.9439 
L 897.84 197.9439 
" clip-path="url(#p1840f8310d)" style="fill: none; stroke-dasharray: 5.12,1.28,0.8,1.28; stroke-dashoffset: 0; stroke: #b0b0b0; stroke-width: 0.8"/>
     </g>
     <g id="line2d_22">
      <g>
       <use xlink:href="#maa47ab4adc" x="86.42" y="197.9439" style="stroke: #000000; stroke-width: 0.8"/>
      </g>
     </g>
     <g id="text_12">
      <!-- 10 -->
      <g transform="translate(51.425 206.302181) scale(0.22 -0.22)">
       <use xlink:href="#DejaVuSans-31"/>
       <use xlink:href="#DejaVuSans-30" x="63.623047"/>
      </g>
     </g>
    </g>
    <g id="ytick_4">
     <g id="line2d_23">
      <path d="M 86.42 131.41585 
L 897.84 131.41585 
" clip-path="url(#p1840f8310d)" style="fill: none; stroke-dasharray: 5.12,1.28,0.8,1.28; stroke-dashoffset: 0; stroke: #b0b0b0; stroke-width: 0.8"/>
     </g>
     <g id="line2d_24">
      <g>
       <use xlink:href="#maa47ab4adc" x="86.42" y="131.41585" style="stroke: #000000; stroke-width: 0.8"/>
      </g>
     </g>
     <g id="text_13">
      <!-- 15 -->
      <g transform="translate(51.425 139.774131) scale(0.22 -0.22)">
       <use xlink:href="#DejaVuSans-31"/>
       <use xlink:href="#DejaVuSans-35" x="63.623047"/>
      </g>
     </g>
    </g>
    <g id="ytick_5">
     <g id="line2d_25">
      <path d="M 86.42 64.8878 
L 897.84 64.8878 
" clip-path="url(#p1840f8310d)" style="fill: none; stroke-dasharray: 5.12,1.28,0.8,1.28; stroke-dashoffset: 0; stroke: #b0b0b0; stroke-width: 0.8"/>
     </g>
     <g id="line2d_26">
      <g>
       <use xlink:href="#maa47ab4adc" x="86.42" y="64.8878" style="stroke: #000000; stroke-width: 0.8"/>
      </g>
     </g>
     <g id="text_14">
      <!-- 20 -->
      <g transform="translate(51.425 73.246081) scale(0.22 -0.22)">
       <use xlink:href="#DejaVuSans-32"/>
       <use xlink:href="#DejaVuSans-30" x="63.623047"/>
      </g>
     </g>
    </g>
    <g id="text_15">
     <!-- Throughput (Mbps) -->
     <g transform="translate(42.43375 292.094375) rotate(-90) scale(0.24 -0.24)">
      <defs>
       <path id="DejaVuSans-68" d="M 3513 2113 
L 3513 0 
L 2938 0 
L 2938 2094 
Q 2938 2591 2744 2837 
Q 2550 3084 2163 3084 
Q 1697 3084 1428 2787 
Q 1159 2491 1159 1978 
L 1159 0 
L 581 0 
L 581 4863 
L 1159 4863 
L 1159 2956 
Q 1366 3272 1645 3428 
Q 1925 3584 2291 3584 
Q 2894 3584 3203 3211 
Q 3513 2838 3513 2113 
z
" transform="scale(0.015625)"/>
       <path id="DejaVuSans-72" d="M 2631 2963 
Q 2534 3019 2420 3045 
Q 2306 3072 2169 3072 
Q 1681 3072 1420 2755 
Q 1159 2438 1159 1844 
L 1159 0 
L 581 0 
L 581 3500 
L 1159 3500 
L 1159 2956 
Q 1341 3275 1631 3429 
Q 1922 3584 2338 3584 
Q 2397 3584 2469 3576 
Q 2541 3569 2628 3553 
L 2631 2963 
z
" transform="scale(0.015625)"/>
       <path id="DejaVuSans-6f" d="M 1959 3097 
Q 1497 3097 1228 2736 
Q 959 2375 959 1747 
Q 959 1119 1226 758 
Q 1494 397 1959 397 
Q 2419 397 2687 759 
Q 2956 1122 2956 1747 
Q 2956 2369 2687 2733 
Q 2419 3097 1959 3097 
z
M 1959 3584 
Q 2709 3584 3137 3096 
Q 3566 2609 3566 1747 
Q 3566 888 3137 398 
Q 2709 -91 1959 -91 
Q 1206 -91 779 398 
Q 353 888 353 1747 
Q 353 2609 779 3096 
Q 1206 3584 1959 3584 
z
" transform="scale(0.015625)"/>
       <path id="DejaVuSans-75" d="M 544 1381 
L 544 3500 
L 1119 3500 
L 1119 1403 
Q 1119 906 1312 657 
Q 1506 409 1894 409 
Q 2359 409 2629 706 
Q 2900 1003 2900 1516 
L 2900 3500 
L 3475 3500 
L 3475 0 
L 2900 0 
L 2900 538 
Q 2691 219 2414 64 
Q 2138 -91 1772 -91 
Q 1169 -91 856 284 
Q 544 659 544 1381 
z
M 1991 3584 
L 1991 3584 
z
" transform="scale(0.015625)"/>
       <path id="DejaVuSans-67" d="M 2906 1791 
Q 2906 2416 2648 2759 
Q 2391 3103 1925 3103 
Q 1463 3103 1205 2759 
Q 947 2416 947 1791 
Q 947 1169 1205 825 
Q 1463 481 1925 481 
Q 2391 481 2648 825 
Q 2906 1169 2906 1791 
z
M 3481 434 
Q 3481 -459 3084 -895 
Q 2688 -1331 1869 -1331 
Q 1566 -1331 1297 -1286 
Q 1028 -1241 775 -1147 
L 775 -588 
Q 1028 -725 1275 -790 
Q 1522 -856 1778 -856 
Q 2344 -856 2625 -561 
Q 2906 -266 2906 331 
L 2906 616 
Q 2728 306 2450 153 
Q 2172 0 1784 0 
Q 1141 0 747 490 
Q 353 981 353 1791 
Q 353 2603 747 3093 
Q 1141 3584 1784 3584 
Q 2172 3584 2450 3431 
Q 2728 3278 2906 2969 
L 2906 3500 
L 3481 3500 
L 3481 434 
z
" transform="scale(0.015625)"/>
       <path id="DejaVuSans-70" d="M 1159 525 
L 1159 -1331 
L 581 -1331 
L 581 3500 
L 1159 3500 
L 1159 2969 
Q 1341 3281 1617 3432 
Q 1894 3584 2278 3584 
Q 2916 3584 3314 3078 
Q 3713 2572 3713 1747 
Q 3713 922 3314 415 
Q 2916 -91 2278 -91 
Q 1894 -91 1617 61 
Q 1341 213 1159 525 
z
M 3116 1747 
Q 3116 2381 2855 2742 
Q 2594 3103 2138 3103 
Q 1681 3103 1420 2742 
Q 1159 2381 1159 1747 
Q 1159 1113 1420 752 
Q 1681 391 2138 391 
Q 2594 391 2855 752 
Q 3116 1113 3116 1747 
z
" transform="scale(0.015625)"/>
       <path id="DejaVuSans-74" d="M 1172 4494 
L 1172 3500 
L 2356 3500 
L 2356 3053 
L 1172 3053 
L 1172 1153 
Q 1172 725 1289 603 
Q 1406 481 1766 481 
L 2356 481 
L 2356 0 
L 1766 0 
Q 1100 0 847 248 
Q 594 497 594 1153 
L 594 3053 
L 172 3053 
L 172 3500 
L 594 3500 
L 594 4494 
L 1172 4494 
z
" transform="scale(0.015625)"/>
       <path id="DejaVuSans-4d" d="M 628 4666 
L 1569 4666 
L 2759 1491 
L 3956 4666 
L 4897 4666 
L 4897 0 
L 4281 0 
L 4281 4097 
L 3078 897 
L 2444 897 
L 1241 4097 
L 1241 0 
L 628 0 
L 628 4666 
z
" transform="scale(0.015625)"/>
       <path id="DejaVuSans-62" d="M 3116 1747 
Q 3116 2381 2855 2742 
Q 2594 3103 2138 3103 
Q 1681 3103 1420 2742 
Q 1159 2381 1159 1747 
Q 1159 1113 1420 752 
Q 1681 391 2138 391 
Q 2594 391 2855 752 
Q 3116 1113 3116 1747 
z
M 1159 2969 
Q 1341 3281 1617 3432 
Q 1894 3584 2278 3584 
Q 2916 3584 3314 3078 
Q 3713 2572 3713 1747 
Q 3713 922 3314 415 
Q 2916 -91 2278 -91 
Q 1894 -91 1617 61 
Q 1341 213 1159 525 
L 1159 0 
L 581 0 
L 581 4863 
L 1159 4863 
L 1159 2969 
z
" transform="scale(0.015625)"/>
      </defs>
      <use xlink:href="#DejaVuSans-54"/>
      <use xlink:href="#DejaVuSans-68" x="61.083984"/>
      <use xlink:href="#DejaVuSans-72" x="124.462891"/>
      <use xlink:href="#DejaVuSans-6f" x="163.326172"/>
      <use xlink:href="#DejaVuSans-75" x="224.507812"/>
      <use xlink:href="#DejaVuSans-67" x="287.886719"/>
      <use xlink:href="#DejaVuSans-68" x="351.363281"/>
      <use xlink:href="#DejaVuSans-70" x="414.742188"/>
      <use xlink:href="#DejaVuSans-75" x="478.21875"/>
      <use xlink:href="#DejaVuSans-74" x="541.597656"/>
      <use xlink:href="#DejaVuSans-20" x="580.806641"/>
      <use xlink:href="#DejaVuSans-28" x="612.59375"/>
      <use xlink:href="#DejaVuSans-4d" x="651.607422"/>
      <use xlink:href="#DejaVuSans-62" x="737.886719"/>
      <use xlink:href="#DejaVuSans-70" x="801.363281"/>
      <use xlink:href="#DejaVuSans-73" x="864.839844"/>
      <use xlink:href="#DejaVuSans-29" x="916.939453"/>
     </g>
    </g>
   </g>
   <g id="patch_3">
    <path d="M 86.42 331 
L 86.42 23.76 
" style="fill: none; stroke: #000000; stroke-width: 0.8; stroke-linejoin: miter; stroke-linecap: square"/>
   </g>
   <g id="patch_4">
    <path d="M 897.84 331 
L 897.84 23.76 
" style="fill: none; stroke: #000000; stroke-width: 0.8; stroke-linejoin: miter; stroke-linecap: square"/>
   </g>
   <g id="patch_5">
    <path d="M 86.42 331 
L 897.84 331 
" style="fill: none; stroke: #000000; stroke-width: 0.8; stroke-linejoin: miter; stroke-linecap: square"/>
   </g>
   <g id="patch_6">
    <path d="M 86.42 23.76 
L 897.84 23.76 
" style="fill: none; stroke: #000000; stroke-width: 0.8; stroke-linejoin: miter; stroke-linecap: square"/>
   </g>
   <g id="legend_1">
    <g id="patch_7">
     <path d="M 756.24 148.6425 
L 881.04 148.6425 
Q 885.84 148.6425 885.84 143.8425 
L 885.84 40.56 
Q 885.84 35.76 881.04 35.76 
L 756.24 35.76 
Q 751.44 35.76 751.44 40.56 
L 751.44 143.8425 
Q 751.44 148.6425 756.24 148.6425 
z
" style="fill: #ffffff; opacity: 0.8; stroke: #cccccc; stroke-linejoin: miter"/>
    </g>
    <g id="patch_8">
     <path d="M 761.04 63.59625 
L 809.04 63.59625 
L 809.04 46.79625 
L 761.04 46.79625 
z
" style="fill: #1f77b4"/>
    </g>
    <g id="text_16">
     <!-- UE1 -->
     <g transform="translate(828.24 63.59625) scale(0.24 -0.24)">
      <defs>
       <path id="DejaVuSans-55" d="M 556 4666 
L 1191 4666 
L 1191 1831 
Q 1191 1081 1462 751 
Q 1734 422 2344 422 
Q 2950 422 3222 751 
Q 3494 1081 3494 1831 
L 3494 4666 
L 4128 4666 
L 4128 1753 
Q 4128 841 3676 375 
Q 3225 -91 2344 -91 
Q 1459 -91 1007 375 
Q 556 841 556 1753 
L 556 4666 
z
" transform="scale(0.015625)"/>
       <path id="DejaVuSans-45" d="M 628 4666 
L 3578 4666 
L 3578 4134 
L 1259 4134 
L 1259 2753 
L 3481 2753 
L 3481 2222 
L 1259 2222 
L 1259 531 
L 3634 531 
L 3634 0 
L 628 0 
L 628 4666 
z
" transform="scale(0.015625)"/>
      </defs>
      <use xlink:href="#DejaVuSans-55"/>
      <use xlink:href="#DejaVuSans-45" x="73.193359"/>
      <use xlink:href="#DejaVuSans-31" x="136.376953"/>
     </g>
    </g>
    <g id="patch_9">
     <path d="M 761.04 98.82375 
L 809.04 98.82375 
L 809.04 82.02375 
L 761.04 82.02375 
z
" style="fill: #ff7f0e"/>
    </g>
    <g id="text_17">
     <!-- UE2 -->
     <g transform="translate(828.24 98.82375) scale(0.24 -0.24)">
      <use xlink:href="#DejaVuSans-55"/>
      <use xlink:href="#DejaVuSans-45" x="73.193359"/>
      <use xlink:href="#DejaVuSans-32" x="136.376953"/>
     </g>
    </g>
    <g id="patch_10">
     <path d="M 761.04 134.05125 
L 809.04 134.05125 
L 809.04 117.25125 
L 761.04 117.25125 
z
" style="fill: #2ca02c"/>
    </g>
    <g id="text_18">
     <!-- UE3 -->
     <g transform="translate(828.24 134.05125) scale(0.24 -0.24)">
      <defs>
       <path id="DejaVuSans-33" d="M 2597 2516 
Q 3050 2419 3304 2112 
Q 3559 1806 3559 1356 
Q 3559 666 3084 287 
Q 2609 -91 1734 -91 
Q 1441 -91 1130 -33 
Q 819 25 488 141 
L 488 750 
Q 750 597 1062 519 
Q 1375 441 1716 441 
Q 2309 441 2620 675 
Q 2931 909 2931 1356 
Q 2931 1769 2642 2001 
Q 2353 2234 1838 2234 
L 1294 2234 
L 1294 2753 
L 1863 2753 
Q 2328 2753 2575 2939 
Q 2822 3125 2822 3475 
Q 2822 3834 2567 4026 
Q 2313 4219 1838 4219 
Q 1578 4219 1281 4162 
Q 984 4106 628 3988 
L 628 4550 
Q 988 4650 1302 4700 
Q 1616 4750 1894 4750 
Q 2613 4750 3031 4423 
Q 3450 4097 3450 3541 
Q 3450 3153 3228 2886 
Q 3006 2619 2597 2516 
z
" transform="scale(0.015625)"/>
      </defs>
      <use xlink:href="#DejaVuSans-55"/>
      <use xlink:href="#DejaVuSans-45" x="73.193359"/>
      <use xlink:href="#DejaVuSans-33" x="136.376953"/>
     </g>
    </g>
   </g>
  </g>
 </g>
 <defs>
  <clipPath id="p1840f8310d">
   <rect x="86.42" y="23.76" width="811.42" height="307.24"/>
  </clipPath>
 </defs>
</svg>
