<?xml version="1.0" encoding="utf-8" standalone="no"?>
<!DOCTYPE svg PUBLIC "-//W3C//DTD SVG 1.1//EN"
  "http://www.w3.org/Graphics/SVG/1.1/DTD/svg11.dtd">
<svg xmlns:xlink="http://www.w3.org/1999/xlink" width="921.6pt" height="410.4pt" viewBox="0 0 921.6 410.4" xmlns="http://www.w3.org/2000/svg" version="1.1">
 <metadata>
  <rdf:RDF xmlns:dc="http://purl.org/dc/elements/1.1/" xmlns:cc="http://creativecommons.org/ns#" xmlns:rdf="http://www.w3.org/1999/02/22-rdf-syntax-ns#">
   <cc:Work>
    <dc:type rdf:resource="http://purl.org/dc/dcmitype/StillImage"/>
    <dc:date>2023-05-08T14:05:00.640703</dc:date>
    <dc:format>image/svg+xml</dc:format>
    <dc:creator>
     <cc:Agent>
      <dc:title>Matplotlib v3.7.1, https://matplotlib.org/</dc:title>
     </cc:Agent>
    </dc:creator>
   </cc:Work>
  </rdf:RDF>
 </metadata>
 <defs>
  <style type="text/css">*{stroke-linejoin: round; stroke-linecap: butt}</style>
 </defs>
 <g id="figure_1">
  <g id="patch_1">
   <path d="M 0 410.4 
L 921.6 410.4 
L 921.6 0 
L 0 0 
z
" style="fill: #ffffff"/>
  </g>
  <g id="axes_1">
   <g id="patch_2">
    <path d="M 100.37 331 
L 897.84 331 
L 897.84 23.76 
L 100.37 23.76 
z
" style="fill: #ffffff"/>
   </g>
   <g id="PolyCollection_1">
    <path d="M 136.618636 186.097707 
L 136.618636 331 
L 140.602003 331 
L 144.58537 331 
L 148.568736 331 
L 152.552103 331 
L 156.53547 331 
L 160.518836 331 
L 164.502203 331 
L 168.485569 331 
L 172.468936 331 
L 176.452303 331 
L 180.435669 331 
L 184.419036 331 
L 188.402403 331 
L 192.385769 331 
L 196.369136 331 
L 200.352502 331 
L 204.335869 331 
L 208.319236 331 
L 212.302602 331 
L 216.285969 331 
L 220.269336 331 
L 224.252702 331 
L 228.236069 331 
L 232.219436 331 
L 236.202802 331 
L 240.186169 331 
L 244.169535 331 
L 248.152902 331 
L 252.136269 331 
L 256.119635 331 
L 260.103002 331 
L 264.086369 331 
L 268.069735 331 
L 272.053102 331 
L 276.036469 331 
L 280.019835 331 
L 284.003202 331 
L 287.986568 331 
L 291.969935 331 
L 295.953302 331 
L 299.936668 331 
L 303.920035 331 
L 307.903402 331 
L 311.886768 331 
L 315.870135 331 
L 319.853501 331 
L 323.836868 331 
L 327.820235 331 
L 331.803601 331 
L 335.786968 331 
L 339.770335 331 
L 343.753701 331 
L 347.737068 331 
L 351.720435 331 
L 355.703801 331 
L 359.687168 331 
L 363.670534 331 
L 367.653901 331 
L 371.637268 331 
L 375.620634 331 
L 379.604001 331 
L 383.587368 331 
L 387.570734 331 
L 391.554101 331 
L 395.537468 331 
L 399.520834 331 
L 403.504201 331 
L 407.487567 331 
L 411.470934 331 
L 415.454301 331 
L 419.437667 331 
L 423.421034 331 
L 427.404401 331 
L 431.387767 331 
L 435.371134 331 
L 439.3545 331 
L 443.337867 331 
L 447.321234 331 
L 451.3046 331 
L 455.287967 331 
L 459.271334 331 
L 463.2547 331 
L 467.238067 331 
L 471.221434 331 
L 475.2048 331 
L 479.188167 331 
L 483.171533 331 
L 487.1549 331 
L 491.138267 331 
L 495.121633 331 
L 499.105 331 
L 503.088367 331 
L 507.071733 331 
L 511.0551 331 
L 515.038467 331 
L 519.021833 331 
L 523.0052 331 
L 526.988566 331 
L 530.971933 331 
L 534.9553 331 
L 538.938666 331 
L 542.922033 331 
L 546.9054 331 
L 550.888766 331 
L 554.872133 331 
L 558.8555 331 
L 562.838866 331 
L 566.822233 331 
L 570.805599 331 
L 574.788966 331 
L 578.772333 331 
L 582.755699 331 
L 586.739066 331 
L 590.722433 331 
L 594.705799 331 
L 598.689166 331 
L 602.672532 331 
L 606.655899 331 
L 610.639266 331 
L 614.622632 331 
L 618.605999 331 
L 622.589366 331 
L 626.572732 331 
L 630.556099 331 
L 634.539466 331 
L 638.522832 331 
L 642.506199 331 
L 646.489565 331 
L 650.472932 331 
L 654.456299 331 
L 658.439665 331 
L 662.423032 331 
L 666.406399 331 
L 670.389765 331 
L 674.373132 331 
L 678.356499 331 
L 682.339865 331 
L 686.323232 331 
L 690.306598 331 
L 694.289965 331 
L 698.273332 331 
L 702.256698 331 
L 706.240065 331 
L 710.223432 331 
L 714.206798 331 
L 718.190165 331 
L 722.173531 331 
L 726.156898 331 
L 730.140265 331 
L 734.123631 331 
L 738.106998 331 
L 742.090365 331 
L 746.073731 331 
L 750.057098 331 
L 754.040465 331 
L 758.023831 331 
L 762.007198 331 
L 765.990564 331 
L 769.973931 331 
L 773.957298 331 
L 777.940664 331 
L 781.924031 331 
L 785.907398 331 
L 789.890764 331 
L 793.874131 331 
L 797.857498 331 
L 801.840864 331 
L 805.824231 331 
L 809.807597 331 
L 813.790964 331 
L 817.774331 331 
L 821.757697 331 
L 825.741064 331 
L 829.724431 331 
L 833.707797 331 
L 837.691164 331 
L 841.67453 331 
L 845.657897 331 
L 849.641264 331 
L 853.62463 331 
L 857.607997 331 
L 861.591364 331 
L 861.591364 186.078163 
L 861.591364 186.078163 
L 857.607997 186.487161 
L 853.62463 185.736403 
L 849.641264 186.157995 
L 845.657897 186.759003 
L 841.67453 189.579745 
L 837.691164 185.244963 
L 833.707797 187.930383 
L 829.724431 188.909505 
L 825.741064 188.801418 
L 821.757697 190.080215 
L 817.774331 189.350217 
L 813.790964 190.882689 
L 809.807597 188.958328 
L 805.824231 187.555427 
L 801.840864 184.823109 
L 797.857498 187.387105 
L 793.874131 185.220852 
L 789.890764 185.337212 
L 785.907398 185.66848 
L 781.924031 184.846251 
L 777.940664 185.385594 
L 773.957298 185.293522 
L 769.973931 185.165644 
L 765.990564 184.886588 
L 762.007198 186.53228 
L 758.023831 190.904384 
L 754.040465 186.030963 
L 750.057098 185.052849 
L 746.073731 184.923222 
L 742.090365 185.511108 
L 738.106998 186.641391 
L 734.123631 185.706453 
L 730.140265 185.736244 
L 726.156898 187.851946 
L 722.173531 188.100999 
L 718.190165 187.183929 
L 714.206798 187.626704 
L 710.223432 187.21409 
L 706.240065 186.7653 
L 702.256698 184.655137 
L 698.273332 184.126128 
L 694.289965 185.497051 
L 690.306598 184.948851 
L 686.323232 184.768834 
L 682.339865 185.486838 
L 678.356499 185.927834 
L 674.373132 192.521855 
L 670.389765 188.992688 
L 666.406399 189.824971 
L 662.423032 195.377679 
L 658.439665 195.745192 
L 654.456299 194.952754 
L 650.472932 192.393413 
L 646.489565 191.523525 
L 642.506199 191.19651 
L 638.522832 192.185739 
L 634.539466 192.450314 
L 630.556099 190.985379 
L 626.572732 187.967724 
L 622.589366 188.488408 
L 618.605999 187.612576 
L 614.622632 191.038277 
L 610.639266 191.968258 
L 606.655899 188.696575 
L 602.672532 185.74397 
L 598.689166 185.071878 
L 594.705799 185.143422 
L 590.722433 185.077737 
L 586.739066 185.202561 
L 582.755699 184.929819 
L 578.772333 185.670083 
L 574.788966 185.126469 
L 570.805599 185.474368 
L 566.822233 185.166014 
L 562.838866 185.946969 
L 558.8555 184.738708 
L 554.872133 185.146085 
L 550.888766 184.245187 
L 546.9054 184.056 
L 542.922033 185.211415 
L 538.938666 185.437803 
L 534.9553 184.935763 
L 530.971933 185.569632 
L 526.988566 185.125428 
L 523.0052 186.72258 
L 519.021833 191.535519 
L 515.038467 191.872535 
L 511.0551 193.31043 
L 507.071733 191.841368 
L 503.088367 189.512331 
L 499.105 185.621031 
L 495.121633 184.828187 
L 491.138267 184.918002 
L 487.1549 184.530699 
L 483.171533 185.769157 
L 479.188167 184.844167 
L 475.2048 185.033674 
L 471.221434 184.81958 
L 467.238067 185.681442 
L 463.2547 184.72495 
L 459.271334 184.966207 
L 455.287967 185.188629 
L 451.3046 188.085336 
L 447.321234 185.408824 
L 443.337867 185.805581 
L 439.3545 185.695006 
L 435.371134 185.368114 
L 431.387767 185.163192 
L 427.404401 185.207852 
L 423.421034 184.996298 
L 419.437667 185.106908 
L 415.454301 184.502444 
L 411.470934 185.306063 
L 407.487567 185.016371 
L 403.504201 185.563036 
L 399.520834 184.719925 
L 395.537468 184.908512 
L 391.554101 188.301441 
L 387.570734 191.692942 
L 383.587368 188.716383 
L 379.604001 185.575453 
L 375.620634 185.107949 
L 371.637268 185.287368 
L 367.653901 185.068633 
L 363.670534 185.243305 
L 359.687168 185.101672 
L 355.703801 185.299237 
L 351.720435 185.151533 
L 347.737068 185.173178 
L 343.753701 185.929702 
L 339.770335 193.785501 
L 335.786968 191.382119 
L 331.803601 193.670235 
L 327.820235 194.183652 
L 323.836868 191.41071 
L 319.853501 191.606743 
L 315.870135 192.825887 
L 311.886768 192.112293 
L 307.903402 190.473197 
L 303.920035 190.311224 
L 299.936668 191.458069 
L 295.953302 192.456646 
L 291.969935 192.578139 
L 287.986568 193.36899 
L 284.003202 191.45276 
L 280.019835 190.365674 
L 276.036469 186.357096 
L 272.053102 185.863278 
L 268.069735 185.659167 
L 264.086369 184.936698 
L 260.103002 185.258122 
L 256.119635 186.685416 
L 252.136269 186.225461 
L 248.152902 185.425404 
L 244.169535 187.496621 
L 240.186169 190.553699 
L 236.202802 191.480576 
L 232.219436 191.131531 
L 228.236069 192.559937 
L 224.252702 191.151197 
L 220.269336 191.946263 
L 216.285969 188.573707 
L 212.302602 184.785855 
L 208.319236 186.132031 
L 204.335869 184.976984 
L 200.352502 185.511849 
L 196.369136 186.652274 
L 192.385769 185.692801 
L 188.402403 185.504 
L 184.419036 185.91642 
L 180.435669 185.098583 
L 176.452303 186.428443 
L 172.468936 186.613928 
L 168.485569 186.091465 
L 164.502203 185.080486 
L 160.518836 187.633495 
L 156.53547 191.655054 
L 152.552103 190.507239 
L 148.568736 185.516365 
L 144.58537 186.490691 
L 140.602003 186.955883 
L 136.618636 186.097707 
z
" clip-path="url(#p68a6ccaec9)" style="fill: #1f77b4"/>
   </g>
   <g id="PolyCollection_2">
    <path d="M 136.618636 42.627435 
L 136.618636 186.097707 
L 140.602003 186.955883 
L 144.58537 186.490691 
L 148.568736 185.516365 
L 152.552103 190.507239 
L 156.53547 191.655054 
L 160.518836 187.633495 
L 164.502203 185.080486 
L 168.485569 186.091465 
L 172.468936 186.613928 
L 176.452303 186.428443 
L 180.435669 185.098583 
L 184.419036 185.91642 
L 188.402403 185.504 
L 192.385769 185.692801 
L 196.369136 186.652274 
L 200.352502 185.511849 
L 204.335869 184.976984 
L 208.319236 186.132031 
L 212.302602 184.785855 
L 216.285969 188.573707 
L 220.269336 191.946263 
L 224.252702 191.151197 
L 228.236069 192.559937 
L 232.219436 191.131531 
L 236.202802 191.480576 
L 240.186169 190.553699 
L 244.169535 187.496621 
L 248.152902 185.425404 
L 252.136269 186.225461 
L 256.119635 186.685416 
L 260.103002 185.258122 
L 264.086369 184.936698 
L 268.069735 185.659167 
L 272.053102 185.863278 
L 276.036469 186.357096 
L 280.019835 190.365674 
L 284.003202 191.45276 
L 287.986568 193.36899 
L 291.969935 192.578139 
L 295.953302 192.456646 
L 299.936668 191.458069 
L 303.920035 190.311224 
L 307.903402 190.473197 
L 311.886768 192.112293 
L 315.870135 192.825887 
L 319.853501 191.606743 
L 323.836868 191.41071 
L 327.820235 194.183652 
L 331.803601 193.670235 
L 335.786968 191.382119 
L 339.770335 193.785501 
L 343.753701 185.929702 
L 347.737068 185.173178 
L 351.720435 185.151533 
L 355.703801 185.299237 
L 359.687168 185.101672 
L 363.670534 185.243305 
L 367.653901 185.068633 
L 371.637268 185.287368 
L 375.620634 185.107949 
L 379.604001 185.575453 
L 383.587368 188.716383 
L 387.570734 191.692942 
L 391.554101 188.301441 
L 395.537468 184.908512 
L 399.520834 184.719925 
L 403.504201 185.563036 
L 407.487567 185.016371 
L 411.470934 185.306063 
L 415.454301 184.502444 
L 419.437667 185.106908 
L 423.421034 184.996298 
L 427.404401 185.207852 
L 431.387767 185.163192 
L 435.371134 185.368114 
L 439.3545 185.695006 
L 443.337867 185.805581 
L 447.321234 185.408824 
L 451.3046 188.085336 
L 455.287967 185.188629 
L 459.271334 184.966207 
L 463.2547 184.72495 
L 467.238067 185.681442 
L 471.221434 184.81958 
L 475.2048 185.033674 
L 479.188167 184.844167 
L 483.171533 185.769157 
L 487.1549 184.530699 
L 491.138267 184.918002 
L 495.121633 184.828187 
L 499.105 185.621031 
L 503.088367 189.512331 
L 507.071733 191.841368 
L 511.0551 193.31043 
L 515.038467 191.872535 
L 519.021833 191.535519 
L 523.0052 186.72258 
L 526.988566 185.125428 
L 530.971933 185.569632 
L 534.9553 184.935763 
L 538.938666 185.437803 
L 542.922033 185.211415 
L 546.9054 184.056 
L 550.888766 184.245187 
L 554.872133 185.146085 
L 558.8555 184.738708 
L 562.838866 185.946969 
L 566.822233 185.166014 
L 570.805599 185.474368 
L 574.788966 185.126469 
L 578.772333 185.670083 
L 582.755699 184.929819 
L 586.739066 185.202561 
L 590.722433 185.077737 
L 594.705799 185.143422 
L 598.689166 185.071878 
L 602.672532 185.74397 
L 606.655899 188.696575 
L 610.639266 191.968258 
L 614.622632 191.038277 
L 618.605999 187.612576 
L 622.589366 188.488408 
L 626.572732 187.967724 
L 630.556099 190.985379 
L 634.539466 192.450314 
L 638.522832 192.185739 
L 642.506199 191.19651 
L 646.489565 191.523525 
L 650.472932 192.393413 
L 654.456299 194.952754 
L 658.439665 195.745192 
L 662.423032 195.377679 
L 666.406399 189.824971 
L 670.389765 188.992688 
L 674.373132 192.521855 
L 678.356499 185.927834 
L 682.339865 185.486838 
L 686.323232 184.768834 
L 690.306598 184.948851 
L 694.289965 185.497051 
L 698.273332 184.126128 
L 702.256698 184.655137 
L 706.240065 186.7653 
L 710.223432 187.21409 
L 714.206798 187.626704 
L 718.190165 187.183929 
L 722.173531 188.100999 
L 726.156898 187.851946 
L 730.140265 185.736244 
L 734.123631 185.706453 
L 738.106998 186.641391 
L 742.090365 185.511108 
L 746.073731 184.923222 
L 750.057098 185.052849 
L 754.040465 186.030963 
L 758.023831 190.904384 
L 762.007198 186.53228 
L 765.990564 184.886588 
L 769.973931 185.165644 
L 773.957298 185.293522 
L 777.940664 185.385594 
L 781.924031 184.846251 
L 785.907398 185.66848 
L 789.890764 185.337212 
L 793.874131 185.220852 
L 797.857498 187.387105 
L 801.840864 184.823109 
L 805.824231 187.555427 
L 809.807597 188.958328 
L 813.790964 190.882689 
L 817.774331 189.350217 
L 821.757697 190.080215 
L 825.741064 188.801418 
L 829.724431 188.909505 
L 833.707797 187.930383 
L 837.691164 185.244963 
L 841.67453 189.579745 
L 845.657897 186.759003 
L 849.641264 186.157995 
L 853.62463 185.736403 
L 857.607997 186.487161 
L 861.591364 186.078163 
L 861.591364 41.584533 
L 861.591364 41.584533 
L 857.607997 41.041695 
L 853.62463 40.259258 
L 849.641264 41.148143 
L 845.657897 41.031959 
L 841.67453 44.317894 
L 837.691164 39.578277 
L 833.707797 43.101783 
L 829.724431 43.996065 
L 825.741064 43.579412 
L 821.757697 44.527155 
L 817.774331 44.335426 
L 813.790964 46.070263 
L 809.807597 45.681549 
L 805.824231 41.556294 
L 801.840864 41.227958 
L 797.857498 41.229246 
L 793.874131 39.394451 
L 789.890764 39.810133 
L 785.907398 39.647263 
L 781.924031 38.758291 
L 777.940664 39.886701 
L 773.957298 39.452798 
L 769.973931 39.594822 
L 765.990564 39.028085 
L 762.007198 42.321939 
L 758.023831 46.912406 
L 754.040465 40.145809 
L 750.057098 38.738767 
L 746.073731 39.215809 
L 742.090365 41.318829 
L 738.106998 42.921854 
L 734.123631 41.99496 
L 730.140265 41.777673 
L 726.156898 43.625748 
L 722.173531 45.481866 
L 718.190165 47.299532 
L 714.206798 48.309115 
L 710.223432 53.288719 
L 706.240065 52.944842 
L 702.256698 56.993177 
L 698.273332 61.157166 
L 694.289965 58.702032 
L 690.306598 57.62507 
L 686.323232 58.465802 
L 682.339865 52.4101 
L 678.356499 51.531643 
L 674.373132 64.598106 
L 670.389765 60.352258 
L 666.406399 63.969211 
L 662.423032 63.588594 
L 658.439665 55.52191 
L 654.456299 57.024061 
L 650.472932 57.305781 
L 646.489565 56.974339 
L 642.506199 57.432918 
L 638.522832 57.425016 
L 634.539466 59.407583 
L 630.556099 45.978226 
L 626.572732 42.890652 
L 622.589366 43.231674 
L 618.605999 41.294702 
L 614.622632 46.259787 
L 610.639266 49.255183 
L 606.655899 42.949902 
L 602.672532 39.582387 
L 598.689166 39.114759 
L 594.705799 39.087599 
L 590.722433 39.342349 
L 586.739066 39.234524 
L 582.755699 39.334921 
L 578.772333 40.422925 
L 574.788966 40.229026 
L 570.805599 45.235458 
L 566.822233 45.781894 
L 562.838866 50.131879 
L 558.8555 49.844551 
L 554.872133 55.565373 
L 550.888766 56.490907 
L 546.9054 57.493667 
L 542.922033 56.396877 
L 538.938666 58.885718 
L 534.9553 63.040517 
L 530.971933 66.648264 
L 526.988566 59.637676 
L 523.0052 55.943448 
L 519.021833 55.333585 
L 515.038467 52.892192 
L 511.0551 54.040994 
L 507.071733 53.96709 
L 503.088367 52.759833 
L 499.105 51.059497 
L 495.121633 49.344892 
L 491.138267 56.042752 
L 487.1549 54.878057 
L 483.171533 52.286244 
L 479.188167 49.975145 
L 475.2048 51.608032 
L 471.221434 53.548655 
L 467.238067 50.657696 
L 463.2547 50.14315 
L 459.271334 49.910571 
L 455.287967 49.971337 
L 451.3046 42.862113 
L 447.321234 39.690104 
L 443.337867 40.537009 
L 439.3545 39.709121 
L 435.371134 40.021917 
L 431.387767 38.894845 
L 427.404401 39.277367 
L 423.421034 38.951111 
L 419.437667 39.350143 
L 415.454301 38.323841 
L 411.470934 38.873399 
L 407.487567 39.644194 
L 403.504201 39.562421 
L 399.520834 38.479517 
L 395.537468 39.402353 
L 391.554101 42.716914 
L 387.570734 49.500533 
L 383.587368 43.410013 
L 379.604001 39.322557 
L 375.620634 39.273346 
L 371.637268 39.62899 
L 367.653901 38.82893 
L 363.670534 39.720778 
L 359.687168 41.085811 
L 355.703801 45.730478 
L 351.720435 45.113224 
L 347.737068 47.212418 
L 343.753701 48.899647 
L 339.770335 48.00048 
L 335.786968 45.784028 
L 331.803601 49.357697 
L 327.820235 48.4241 
L 323.836868 46.32937 
L 319.853501 46.410066 
L 315.870135 47.844045 
L 311.886768 47.210282 
L 307.903402 44.667556 
L 303.920035 44.834309 
L 299.936668 45.9369 
L 295.953302 46.905068 
L 291.969935 48.003708 
L 287.986568 47.839777 
L 284.003202 47.105546 
L 280.019835 46.225392 
L 276.036469 41.282194 
L 272.053102 40.166221 
L 268.069735 39.849665 
L 264.086369 39.155927 
L 260.103002 39.67774 
L 256.119635 43.163817 
L 252.136269 40.897061 
L 248.152902 39.382227 
L 244.169535 46.723675 
L 240.186169 50.511721 
L 236.202802 52.231495 
L 232.219436 52.460017 
L 228.236069 47.290501 
L 224.252702 45.374254 
L 220.269336 48.997046 
L 216.285969 42.269906 
L 212.302602 38.908902 
L 208.319236 40.620353 
L 204.335869 39.455217 
L 200.352502 41.133997 
L 196.369136 41.851807 
L 192.385769 39.958666 
L 188.402403 40.197368 
L 184.419036 40.146146 
L 180.435669 39.513829 
L 176.452303 42.030748 
L 172.468936 41.460447 
L 168.485569 40.088222 
L 164.502203 40.05222 
L 160.518836 42.330161 
L 156.53547 47.150649 
L 152.552103 44.513768 
L 148.568736 40.587649 
L 144.58537 42.301269 
L 140.602003 41.355164 
L 136.618636 42.627435 
z
" clip-path="url(#p68a6ccaec9)" style="fill: #ff7f0e"/>
   </g>
   <g id="matplotlib.axis_1">
    <g id="xtick_1">
     <g id="line2d_1">
      <path d="M 136.618636 331 
L 136.618636 23.76 
" clip-path="url(#p68a6ccaec9)" style="fill: none; stroke-dasharray: 5.12,1.28,0.8,1.28; stroke-dashoffset: 0; stroke: #b0b0b0; stroke-width: 0.8"/>
     </g>
     <g id="line2d_2">
      <defs>
       <path id="md92f6df0e3" d="M 0 0 
L 0 3.5 
" style="stroke: #000000; stroke-width: 0.8"/>
      </defs>
      <g>
       <use xlink:href="#md92f6df0e3" x="136.618636" y="331" style="stroke: #000000; stroke-width: 0.8"/>
      </g>
     </g>
     <g id="text_1">
      <!-- 0 -->
      <g transform="translate(129.619886 354.716563) scale(0.22 -0.22)">
       <defs>
        <path id="DejaVuSans-30" d="M 2034 4250 
Q 1547 4250 1301 3770 
Q 1056 3291 1056 2328 
Q 1056 1369 1301 889 
Q 1547 409 2034 409 
Q 2525 409 2770 889 
Q 3016 1369 3016 2328 
Q 3016 3291 2770 3770 
Q 2525 4250 2034 4250 
z
M 2034 4750 
Q 2819 4750 3233 4129 
Q 3647 3509 3647 2328 
Q 3647 1150 3233 529 
Q 2819 -91 2034 -91 
Q 1250 -91 836 529 
Q 422 1150 422 2328 
Q 422 3509 836 4129 
Q 1250 4750 2034 4750 
z
" transform="scale(0.015625)"/>
       </defs>
       <use xlink:href="#DejaVuSans-30"/>
      </g>
     </g>
    </g>
    <g id="xtick_2">
     <g id="line2d_3">
      <path d="M 236.202802 331 
L 236.202802 23.76 
" clip-path="url(#p68a6ccaec9)" style="fill: none; stroke-dasharray: 5.12,1.28,0.8,1.28; stroke-dashoffset: 0; stroke: #b0b0b0; stroke-width: 0.8"/>
     </g>
     <g id="line2d_4">
      <g>
       <use xlink:href="#md92f6df0e3" x="236.202802" y="331" style="stroke: #000000; stroke-width: 0.8"/>
      </g>
     </g>
     <g id="text_2">
      <!-- 25 -->
      <g transform="translate(222.205302 354.716563) scale(0.22 -0.22)">
       <defs>
        <path id="DejaVuSans-32" d="M 1228 531 
L 3431 531 
L 3431 0 
L 469 0 
L 469 531 
Q 828 903 1448 1529 
Q 2069 2156 2228 2338 
Q 2531 2678 2651 2914 
Q 2772 3150 2772 3378 
Q 2772 3750 2511 3984 
Q 2250 4219 1831 4219 
Q 1534 4219 1204 4116 
Q 875 4013 500 3803 
L 500 4441 
Q 881 4594 1212 4672 
Q 1544 4750 1819 4750 
Q 2544 4750 2975 4387 
Q 3406 4025 3406 3419 
Q 3406 3131 3298 2873 
Q 3191 2616 2906 2266 
Q 2828 2175 2409 1742 
Q 1991 1309 1228 531 
z
" transform="scale(0.015625)"/>
        <path id="DejaVuSans-35" d="M 691 4666 
L 3169 4666 
L 3169 4134 
L 1269 4134 
L 1269 2991 
Q 1406 3038 1543 3061 
Q 1681 3084 1819 3084 
Q 2600 3084 3056 2656 
Q 3513 2228 3513 1497 
Q 3513 744 3044 326 
Q 2575 -91 1722 -91 
Q 1428 -91 1123 -41 
Q 819 9 494 109 
L 494 744 
Q 775 591 1075 516 
Q 1375 441 1709 441 
Q 2250 441 2565 725 
Q 2881 1009 2881 1497 
Q 2881 1984 2565 2268 
Q 2250 2553 1709 2553 
Q 1456 2553 1204 2497 
Q 953 2441 691 2322 
L 691 4666 
z
" transform="scale(0.015625)"/>
       </defs>
       <use xlink:href="#DejaVuSans-32"/>
       <use xlink:href="#DejaVuSans-35" x="63.623047"/>
      </g>
     </g>
    </g>
    <g id="xtick_3">
     <g id="line2d_5">
      <path d="M 335.786968 331 
L 335.786968 23.76 
" clip-path="url(#p68a6ccaec9)" style="fill: none; stroke-dasharray: 5.12,1.28,0.8,1.28; stroke-dashoffset: 0; stroke: #b0b0b0; stroke-width: 0.8"/>
     </g>
     <g id="line2d_6">
      <g>
       <use xlink:href="#md92f6df0e3" x="335.786968" y="331" style="stroke: #000000; stroke-width: 0.8"/>
      </g>
     </g>
     <g id="text_3">
      <!-- 50 -->
      <g transform="translate(321.789468 354.716563) scale(0.22 -0.22)">
       <use xlink:href="#DejaVuSans-35"/>
       <use xlink:href="#DejaVuSans-30" x="63.623047"/>
      </g>
     </g>
    </g>
    <g id="xtick_4">
     <g id="line2d_7">
      <path d="M 435.371134 331 
L 435.371134 23.76 
" clip-path="url(#p68a6ccaec9)" style="fill: none; stroke-dasharray: 5.12,1.28,0.8,1.28; stroke-dashoffset: 0; stroke: #b0b0b0; stroke-width: 0.8"/>
     </g>
     <g id="line2d_8">
      <g>
       <use xlink:href="#md92f6df0e3" x="435.371134" y="331" style="stroke: #000000; stroke-width: 0.8"/>
      </g>
     </g>
     <g id="text_4">
      <!-- 75 -->
      <g transform="translate(421.373634 354.716563) scale(0.22 -0.22)">
       <defs>
        <path id="DejaVuSans-37" d="M 525 4666 
L 3525 4666 
L 3525 4397 
L 1831 0 
L 1172 0 
L 2766 4134 
L 525 4134 
L 525 4666 
z
" transform="scale(0.015625)"/>
       </defs>
       <use xlink:href="#DejaVuSans-37"/>
       <use xlink:href="#DejaVuSans-35" x="63.623047"/>
      </g>
     </g>
    </g>
    <g id="xtick_5">
     <g id="line2d_9">
      <path d="M 534.9553 331 
L 534.9553 23.76 
" clip-path="url(#p68a6ccaec9)" style="fill: none; stroke-dasharray: 5.12,1.28,0.8,1.28; stroke-dashoffset: 0; stroke: #b0b0b0; stroke-width: 0.8"/>
     </g>
     <g id="line2d_10">
      <g>
       <use xlink:href="#md92f6df0e3" x="534.9553" y="331" style="stroke: #000000; stroke-width: 0.8"/>
      </g>
     </g>
     <g id="text_5">
      <!-- 100 -->
      <g transform="translate(513.95905 354.716563) scale(0.22 -0.22)">
       <defs>
        <path id="DejaVuSans-31" d="M 794 531 
L 1825 531 
L 1825 4091 
L 703 3866 
L 703 4441 
L 1819 4666 
L 2450 4666 
L 2450 531 
L 3481 531 
L 3481 0 
L 794 0 
L 794 531 
z
" transform="scale(0.015625)"/>
       </defs>
       <use xlink:href="#DejaVuSans-31"/>
       <use xlink:href="#DejaVuSans-30" x="63.623047"/>
       <use xlink:href="#DejaVuSans-30" x="127.246094"/>
      </g>
     </g>
    </g>
    <g id="xtick_6">
     <g id="line2d_11">
      <path d="M 634.539466 331 
L 634.539466 23.76 
" clip-path="url(#p68a6ccaec9)" style="fill: none; stroke-dasharray: 5.12,1.28,0.8,1.28; stroke-dashoffset: 0; stroke: #b0b0b0; stroke-width: 0.8"/>
     </g>
     <g id="line2d_12">
      <g>
       <use xlink:href="#md92f6df0e3" x="634.539466" y="331" style="stroke: #000000; stroke-width: 0.8"/>
      </g>
     </g>
     <g id="text_6">
      <!-- 125 -->
      <g transform="translate(613.543216 354.716563) scale(0.22 -0.22)">
       <use xlink:href="#DejaVuSans-31"/>
       <use xlink:href="#DejaVuSans-32" x="63.623047"/>
       <use xlink:href="#DejaVuSans-35" x="127.246094"/>
      </g>
     </g>
    </g>
    <g id="xtick_7">
     <g id="line2d_13">
      <path d="M 734.123631 331 
L 734.123631 23.76 
" clip-path="url(#p68a6ccaec9)" style="fill: none; stroke-dasharray: 5.12,1.28,0.8,1.28; stroke-dashoffset: 0; stroke: #b0b0b0; stroke-width: 0.8"/>
     </g>
     <g id="line2d_14">
      <g>
       <use xlink:href="#md92f6df0e3" x="734.123631" y="331" style="stroke: #000000; stroke-width: 0.8"/>
      </g>
     </g>
     <g id="text_7">
      <!-- 150 -->
      <g transform="translate(713.127381 354.716563) scale(0.22 -0.22)">
       <use xlink:href="#DejaVuSans-31"/>
       <use xlink:href="#DejaVuSans-35" x="63.623047"/>
       <use xlink:href="#DejaVuSans-30" x="127.246094"/>
      </g>
     </g>
    </g>
    <g id="xtick_8">
     <g id="line2d_15">
      <path d="M 833.707797 331 
L 833.707797 23.76 
" clip-path="url(#p68a6ccaec9)" style="fill: none; stroke-dasharray: 5.12,1.28,0.8,1.28; stroke-dashoffset: 0; stroke: #b0b0b0; stroke-width: 0.8"/>
     </g>
     <g id="line2d_16">
      <g>
       <use xlink:href="#md92f6df0e3" x="833.707797" y="331" style="stroke: #000000; stroke-width: 0.8"/>
      </g>
     </g>
     <g id="text_8">
      <!-- 175 -->
      <g transform="translate(812.711547 354.716563) scale(0.22 -0.22)">
       <use xlink:href="#DejaVuSans-31"/>
       <use xlink:href="#DejaVuSans-37" x="63.623047"/>
       <use xlink:href="#DejaVuSans-35" x="127.246094"/>
      </g>
     </g>
    </g>
    <g id="text_9">
     <!-- Time (s) -->
     <g transform="translate(450.315625 381.528125) scale(0.24 -0.24)">
      <defs>
       <path id="DejaVuSans-54" d="M -19 4666 
L 3928 4666 
L 3928 4134 
L 2272 4134 
L 2272 0 
L 1638 0 
L 1638 4134 
L -19 4134 
L -19 4666 
z
" transform="scale(0.015625)"/>
       <path id="DejaVuSans-69" d="M 603 3500 
L 1178 3500 
L 1178 0 
L 603 0 
L 603 3500 
z
M 603 4863 
L 1178 4863 
L 1178 4134 
L 603 4134 
L 603 4863 
z
" transform="scale(0.015625)"/>
       <path id="DejaVuSans-6d" d="M 3328 2828 
Q 3544 3216 3844 3400 
Q 4144 3584 4550 3584 
Q 5097 3584 5394 3201 
Q 5691 2819 5691 2113 
L 5691 0 
L 5113 0 
L 5113 2094 
Q 5113 2597 4934 2840 
Q 4756 3084 4391 3084 
Q 3944 3084 3684 2787 
Q 3425 2491 3425 1978 
L 3425 0 
L 2847 0 
L 2847 2094 
Q 2847 2600 2669 2842 
Q 2491 3084 2119 3084 
Q 1678 3084 1418 2786 
Q 1159 2488 1159 1978 
L 1159 0 
L 581 0 
L 581 3500 
L 1159 3500 
L 1159 2956 
Q 1356 3278 1631 3431 
Q 1906 3584 2284 3584 
Q 2666 3584 2933 3390 
Q 3200 3197 3328 2828 
z
" transform="scale(0.015625)"/>
       <path id="DejaVuSans-65" d="M 3597 1894 
L 3597 1613 
L 953 1613 
Q 991 1019 1311 708 
Q 1631 397 2203 397 
Q 2534 397 2845 478 
Q 3156 559 3463 722 
L 3463 178 
Q 3153 47 2828 -22 
Q 2503 -91 2169 -91 
Q 1331 -91 842 396 
Q 353 884 353 1716 
Q 353 2575 817 3079 
Q 1281 3584 2069 3584 
Q 2775 3584 3186 3129 
Q 3597 2675 3597 1894 
z
M 3022 2063 
Q 3016 2534 2758 2815 
Q 2500 3097 2075 3097 
Q 1594 3097 1305 2825 
Q 1016 2553 972 2059 
L 3022 2063 
z
" transform="scale(0.015625)"/>
       <path id="DejaVuSans-20" transform="scale(0.015625)"/>
       <path id="DejaVuSans-28" d="M 1984 4856 
Q 1566 4138 1362 3434 
Q 1159 2731 1159 2009 
Q 1159 1288 1364 580 
Q 1569 -128 1984 -844 
L 1484 -844 
Q 1016 -109 783 600 
Q 550 1309 550 2009 
Q 550 2706 781 3412 
Q 1013 4119 1484 4856 
L 1984 4856 
z
" transform="scale(0.015625)"/>
       <path id="DejaVuSans-73" d="M 2834 3397 
L 2834 2853 
Q 2591 2978 2328 3040 
Q 2066 3103 1784 3103 
Q 1356 3103 1142 2972 
Q 928 2841 928 2578 
Q 928 2378 1081 2264 
Q 1234 2150 1697 2047 
L 1894 2003 
Q 2506 1872 2764 1633 
Q 3022 1394 3022 966 
Q 3022 478 2636 193 
Q 2250 -91 1575 -91 
Q 1294 -91 989 -36 
Q 684 19 347 128 
L 347 722 
Q 666 556 975 473 
Q 1284 391 1588 391 
Q 1994 391 2212 530 
Q 2431 669 2431 922 
Q 2431 1156 2273 1281 
Q 2116 1406 1581 1522 
L 1381 1569 
Q 847 1681 609 1914 
Q 372 2147 372 2553 
Q 372 3047 722 3315 
Q 1072 3584 1716 3584 
Q 2034 3584 2315 3537 
Q 2597 3491 2834 3397 
z
" transform="scale(0.015625)"/>
       <path id="DejaVuSans-29" d="M 513 4856 
L 1013 4856 
Q 1481 4119 1714 3412 
Q 1947 2706 1947 2009 
Q 1947 1309 1714 600 
Q 1481 -109 1013 -844 
L 513 -844 
Q 928 -128 1133 580 
Q 1338 1288 1338 2009 
Q 1338 2731 1133 3434 
Q 928 4138 513 4856 
z
" transform="scale(0.015625)"/>
      </defs>
      <use xlink:href="#DejaVuSans-54"/>
      <use xlink:href="#DejaVuSans-69" x="57.958984"/>
      <use xlink:href="#DejaVuSans-6d" x="85.742188"/>
      <use xlink:href="#DejaVuSans-65" x="183.154297"/>
      <use xlink:href="#DejaVuSans-20" x="244.677734"/>
      <use xlink:href="#DejaVuSans-28" x="276.464844"/>
      <use xlink:href="#DejaVuSans-73" x="315.478516"/>
      <use xlink:href="#DejaVuSans-29" x="367.578125"/>
     </g>
    </g>
   </g>
   <g id="matplotlib.axis_2">
    <g id="ytick_1">
     <g id="line2d_17">
      <path d="M 100.37 331 
L 897.84 331 
" clip-path="url(#p68a6ccaec9)" style="fill: none; stroke-dasharray: 5.12,1.28,0.8,1.28; stroke-dashoffset: 0; stroke: #b0b0b0; stroke-width: 0.8"/>
     </g>
     <g id="line2d_18">
      <defs>
       <path id="m0801f68ecb" d="M 0 0 
L -3.5 0 
" style="stroke: #000000; stroke-width: 0.8"/>
      </defs>
      <g>
       <use xlink:href="#m0801f68ecb" x="100.37" y="331" style="stroke: #000000; stroke-width: 0.8"/>
      </g>
     </g>
     <g id="text_10">
      <!-- 0 -->
      <g transform="translate(79.3725 339.358281) scale(0.22 -0.22)">
       <use xlink:href="#DejaVuSans-30"/>
      </g>
     </g>
    </g>
    <g id="ytick_2">
     <g id="line2d_19">
      <path d="M 100.37 275.880182 
L 897.84 275.880182 
" clip-path="url(#p68a6ccaec9)" style="fill: none; stroke-dasharray: 5.12,1.28,0.8,1.28; stroke-dashoffset: 0; stroke: #b0b0b0; stroke-width: 0.8"/>
     </g>
     <g id="line2d_20">
      <g>
       <use xlink:href="#m0801f68ecb" x="100.37" y="275.880182" style="stroke: #000000; stroke-width: 0.8"/>
      </g>
     </g>
     <g id="text_11">
      <!-- 25 -->
      <g transform="translate(65.375 284.238463) scale(0.22 -0.22)">
       <use xlink:href="#DejaVuSans-32"/>
       <use xlink:href="#DejaVuSans-35" x="63.623047"/>
      </g>
     </g>
    </g>
    <g id="ytick_3">
     <g id="line2d_21">
      <path d="M 100.37 220.760364 
L 897.84 220.760364 
" clip-path="url(#p68a6ccaec9)" style="fill: none; stroke-dasharray: 5.12,1.28,0.8,1.28; stroke-dashoffset: 0; stroke: #b0b0b0; stroke-width: 0.8"/>
     </g>
     <g id="line2d_22">
      <g>
       <use xlink:href="#m0801f68ecb" x="100.37" y="220.760364" style="stroke: #000000; stroke-width: 0.8"/>
      </g>
     </g>
     <g id="text_12">
      <!-- 50 -->
      <g transform="translate(65.375 229.118645) scale(0.22 -0.22)">
       <use xlink:href="#DejaVuSans-35"/>
       <use xlink:href="#DejaVuSans-30" x="63.623047"/>
      </g>
     </g>
    </g>
    <g id="ytick_4">
     <g id="line2d_23">
      <path d="M 100.37 165.640546 
L 897.84 165.640546 
" clip-path="url(#p68a6ccaec9)" style="fill: none; stroke-dasharray: 5.12,1.28,0.8,1.28; stroke-dashoffset: 0; stroke: #b0b0b0; stroke-width: 0.8"/>
     </g>
     <g id="line2d_24">
      <g>
       <use xlink:href="#m0801f68ecb" x="100.37" y="165.640546" style="stroke: #000000; stroke-width: 0.8"/>
      </g>
     </g>
     <g id="text_13">
      <!-- 75 -->
      <g transform="translate(65.375 173.998828) scale(0.22 -0.22)">
       <use xlink:href="#DejaVuSans-37"/>
       <use xlink:href="#DejaVuSans-35" x="63.623047"/>
      </g>
     </g>
    </g>
    <g id="ytick_5">
     <g id="line2d_25">
      <path d="M 100.37 110.520728 
L 897.84 110.520728 
" clip-path="url(#p68a6ccaec9)" style="fill: none; stroke-dasharray: 5.12,1.28,0.8,1.28; stroke-dashoffset: 0; stroke: #b0b0b0; stroke-width: 0.8"/>
     </g>
     <g id="line2d_26">
      <g>
       <use xlink:href="#m0801f68ecb" x="100.37" y="110.520728" style="stroke: #000000; stroke-width: 0.8"/>
      </g>
     </g>
     <g id="text_14">
      <!-- 100 -->
      <g transform="translate(51.3775 118.87901) scale(0.22 -0.22)">
       <use xlink:href="#DejaVuSans-31"/>
       <use xlink:href="#DejaVuSans-30" x="63.623047"/>
       <use xlink:href="#DejaVuSans-30" x="127.246094"/>
      </g>
     </g>
    </g>
    <g id="ytick_6">
     <g id="line2d_27">
      <path d="M 100.37 55.400911 
L 897.84 55.400911 
" clip-path="url(#p68a6ccaec9)" style="fill: none; stroke-dasharray: 5.12,1.28,0.8,1.28; stroke-dashoffset: 0; stroke: #b0b0b0; stroke-width: 0.8"/>
     </g>
     <g id="line2d_28">
      <g>
       <use xlink:href="#m0801f68ecb" x="100.37" y="55.400911" style="stroke: #000000; stroke-width: 0.8"/>
      </g>
     </g>
     <g id="text_15">
      <!-- 125 -->
      <g transform="translate(51.3775 63.759192) scale(0.22 -0.22)">
       <use xlink:href="#DejaVuSans-31"/>
       <use xlink:href="#DejaVuSans-32" x="63.623047"/>
       <use xlink:href="#DejaVuSans-35" x="127.246094"/>
      </g>
     </g>
    </g>
    <g id="text_16">
     <!-- Throughput (Mbps) -->
     <g transform="translate(42.38625 292.094375) rotate(-90) scale(0.24 -0.24)">
      <defs>
       <path id="DejaVuSans-68" d="M 3513 2113 
L 3513 0 
L 2938 0 
L 2938 2094 
Q 2938 2591 2744 2837 
Q 2550 3084 2163 3084 
Q 1697 3084 1428 2787 
Q 1159 2491 1159 1978 
L 1159 0 
L 581 0 
L 581 4863 
L 1159 4863 
L 1159 2956 
Q 1366 3272 1645 3428 
Q 1925 3584 2291 3584 
Q 2894 3584 3203 3211 
Q 3513 2838 3513 2113 
z
" transform="scale(0.015625)"/>
       <path id="DejaVuSans-72" d="M 2631 2963 
Q 2534 3019 2420 3045 
Q 2306 3072 2169 3072 
Q 1681 3072 1420 2755 
Q 1159 2438 1159 1844 
L 1159 0 
L 581 0 
L 581 3500 
L 1159 3500 
L 1159 2956 
Q 1341 3275 1631 3429 
Q 1922 3584 2338 3584 
Q 2397 3584 2469 3576 
Q 2541 3569 2628 3553 
L 2631 2963 
z
" transform="scale(0.015625)"/>
       <path id="DejaVuSans-6f" d="M 1959 3097 
Q 1497 3097 1228 2736 
Q 959 2375 959 1747 
Q 959 1119 1226 758 
Q 1494 397 1959 397 
Q 2419 397 2687 759 
Q 2956 1122 2956 1747 
Q 2956 2369 2687 2733 
Q 2419 3097 1959 3097 
z
M 1959 3584 
Q 2709 3584 3137 3096 
Q 3566 2609 3566 1747 
Q 3566 888 3137 398 
Q 2709 -91 1959 -91 
Q 1206 -91 779 398 
Q 353 888 353 1747 
Q 353 2609 779 3096 
Q 1206 3584 1959 3584 
z
" transform="scale(0.015625)"/>
       <path id="DejaVuSans-75" d="M 544 1381 
L 544 3500 
L 1119 3500 
L 1119 1403 
Q 1119 906 1312 657 
Q 1506 409 1894 409 
Q 2359 409 2629 706 
Q 2900 1003 2900 1516 
L 2900 3500 
L 3475 3500 
L 3475 0 
L 2900 0 
L 2900 538 
Q 2691 219 2414 64 
Q 2138 -91 1772 -91 
Q 1169 -91 856 284 
Q 544 659 544 1381 
z
M 1991 3584 
L 1991 3584 
z
" transform="scale(0.015625)"/>
       <path id="DejaVuSans-67" d="M 2906 1791 
Q 2906 2416 2648 2759 
Q 2391 3103 1925 3103 
Q 1463 3103 1205 2759 
Q 947 2416 947 1791 
Q 947 1169 1205 825 
Q 1463 481 1925 481 
Q 2391 481 2648 825 
Q 2906 1169 2906 1791 
z
M 3481 434 
Q 3481 -459 3084 -895 
Q 2688 -1331 1869 -1331 
Q 1566 -1331 1297 -1286 
Q 1028 -1241 775 -1147 
L 775 -588 
Q 1028 -725 1275 -790 
Q 1522 -856 1778 -856 
Q 2344 -856 2625 -561 
Q 2906 -266 2906 331 
L 2906 616 
Q 2728 306 2450 153 
Q 2172 0 1784 0 
Q 1141 0 747 490 
Q 353 981 353 1791 
Q 353 2603 747 3093 
Q 1141 3584 1784 3584 
Q 2172 3584 2450 3431 
Q 2728 3278 2906 2969 
L 2906 3500 
L 3481 3500 
L 3481 434 
z
" transform="scale(0.015625)"/>
       <path id="DejaVuSans-70" d="M 1159 525 
L 1159 -1331 
L 581 -1331 
L 581 3500 
L 1159 3500 
L 1159 2969 
Q 1341 3281 1617 3432 
Q 1894 3584 2278 3584 
Q 2916 3584 3314 3078 
Q 3713 2572 3713 1747 
Q 3713 922 3314 415 
Q 2916 -91 2278 -91 
Q 1894 -91 1617 61 
Q 1341 213 1159 525 
z
M 3116 1747 
Q 3116 2381 2855 2742 
Q 2594 3103 2138 3103 
Q 1681 3103 1420 2742 
Q 1159 2381 1159 1747 
Q 1159 1113 1420 752 
Q 1681 391 2138 391 
Q 2594 391 2855 752 
Q 3116 1113 3116 1747 
z
" transform="scale(0.015625)"/>
       <path id="DejaVuSans-74" d="M 1172 4494 
L 1172 3500 
L 2356 3500 
L 2356 3053 
L 1172 3053 
L 1172 1153 
Q 1172 725 1289 603 
Q 1406 481 1766 481 
L 2356 481 
L 2356 0 
L 1766 0 
Q 1100 0 847 248 
Q 594 497 594 1153 
L 594 3053 
L 172 3053 
L 172 3500 
L 594 3500 
L 594 4494 
L 1172 4494 
z
" transform="scale(0.015625)"/>
       <path id="DejaVuSans-4d" d="M 628 4666 
L 1569 4666 
L 2759 1491 
L 3956 4666 
L 4897 4666 
L 4897 0 
L 4281 0 
L 4281 4097 
L 3078 897 
L 2444 897 
L 1241 4097 
L 1241 0 
L 628 0 
L 628 4666 
z
" transform="scale(0.015625)"/>
       <path id="DejaVuSans-62" d="M 3116 1747 
Q 3116 2381 2855 2742 
Q 2594 3103 2138 3103 
Q 1681 3103 1420 2742 
Q 1159 2381 1159 1747 
Q 1159 1113 1420 752 
Q 1681 391 2138 391 
Q 2594 391 2855 752 
Q 3116 1113 3116 1747 
z
M 1159 2969 
Q 1341 3281 1617 3432 
Q 1894 3584 2278 3584 
Q 2916 3584 3314 3078 
Q 3713 2572 3713 1747 
Q 3713 922 3314 415 
Q 2916 -91 2278 -91 
Q 1894 -91 1617 61 
Q 1341 213 1159 525 
L 1159 0 
L 581 0 
L 581 4863 
L 1159 4863 
L 1159 2969 
z
" transform="scale(0.015625)"/>
      </defs>
      <use xlink:href="#DejaVuSans-54"/>
      <use xlink:href="#DejaVuSans-68" x="61.083984"/>
      <use xlink:href="#DejaVuSans-72" x="124.462891"/>
      <use xlink:href="#DejaVuSans-6f" x="163.326172"/>
      <use xlink:href="#DejaVuSans-75" x="224.507812"/>
      <use xlink:href="#DejaVuSans-67" x="287.886719"/>
      <use xlink:href="#DejaVuSans-68" x="351.363281"/>
      <use xlink:href="#DejaVuSans-70" x="414.742188"/>
      <use xlink:href="#DejaVuSans-75" x="478.21875"/>
      <use xlink:href="#DejaVuSans-74" x="541.597656"/>
      <use xlink:href="#DejaVuSans-20" x="580.806641"/>
      <use xlink:href="#DejaVuSans-28" x="612.59375"/>
      <use xlink:href="#DejaVuSans-4d" x="651.607422"/>
      <use xlink:href="#DejaVuSans-62" x="737.886719"/>
      <use xlink:href="#DejaVuSans-70" x="801.363281"/>
      <use xlink:href="#DejaVuSans-73" x="864.839844"/>
      <use xlink:href="#DejaVuSans-29" x="916.939453"/>
     </g>
    </g>
   </g>
   <g id="patch_3">
    <path d="M 100.37 331 
L 100.37 23.76 
" style="fill: none; stroke: #000000; stroke-width: 0.8; stroke-linejoin: miter; stroke-linecap: square"/>
   </g>
   <g id="patch_4">
    <path d="M 897.84 331 
L 897.84 23.76 
" style="fill: none; stroke: #000000; stroke-width: 0.8; stroke-linejoin: miter; stroke-linecap: square"/>
   </g>
   <g id="patch_5">
    <path d="M 100.37 331 
L 897.84 331 
" style="fill: none; stroke: #000000; stroke-width: 0.8; stroke-linejoin: miter; stroke-linecap: square"/>
   </g>
   <g id="patch_6">
    <path d="M 100.37 23.76 
L 897.84 23.76 
" style="fill: none; stroke: #000000; stroke-width: 0.8; stroke-linejoin: miter; stroke-linecap: square"/>
   </g>
   <g id="legend_1">
    <g id="patch_7">
     <path d="M 756.24 113.415 
L 881.04 113.415 
Q 885.84 113.415 885.84 108.615 
L 885.84 40.56 
Q 885.84 35.76 881.04 35.76 
L 756.24 35.76 
Q 751.44 35.76 751.44 40.56 
L 751.44 108.615 
Q 751.44 113.415 756.24 113.415 
z
" style="fill: #ffffff; opacity: 0.8; stroke: #cccccc; stroke-linejoin: miter"/>
    </g>
    <g id="patch_8">
     <path d="M 761.04 63.59625 
L 809.04 63.59625 
L 809.04 46.79625 
L 761.04 46.79625 
z
" style="fill: #1f77b4"/>
    </g>
    <g id="text_17">
     <!-- UE1 -->
     <g transform="translate(828.24 63.59625) scale(0.24 -0.24)">
      <defs>
       <path id="DejaVuSans-55" d="M 556 4666 
L 1191 4666 
L 1191 1831 
Q 1191 1081 1462 751 
Q 1734 422 2344 422 
Q 2950 422 3222 751 
Q 3494 1081 3494 1831 
L 3494 4666 
L 4128 4666 
L 4128 1753 
Q 4128 841 3676 375 
Q 3225 -91 2344 -91 
Q 1459 -91 1007 375 
Q 556 841 556 1753 
L 556 4666 
z
" transform="scale(0.015625)"/>
       <path id="DejaVuSans-45" d="M 628 4666 
L 3578 4666 
L 3578 4134 
L 1259 4134 
L 1259 2753 
L 3481 2753 
L 3481 2222 
L 1259 2222 
L 1259 531 
L 3634 531 
L 3634 0 
L 628 0 
L 628 4666 
z
" transform="scale(0.015625)"/>
      </defs>
      <use xlink:href="#DejaVuSans-55"/>
      <use xlink:href="#DejaVuSans-45" x="73.193359"/>
      <use xlink:href="#DejaVuSans-31" x="136.376953"/>
     </g>
    </g>
    <g id="patch_9">
     <path d="M 761.04 98.82375 
L 809.04 98.82375 
L 809.04 82.02375 
L 761.04 82.02375 
z
" style="fill: #ff7f0e"/>
    </g>
    <g id="text_18">
     <!-- UE2 -->
     <g transform="translate(828.24 98.82375) scale(0.24 -0.24)">
      <use xlink:href="#DejaVuSans-55"/>
      <use xlink:href="#DejaVuSans-45" x="73.193359"/>
      <use xlink:href="#DejaVuSans-32" x="136.376953"/>
     </g>
    </g>
   </g>
  </g>
 </g>
 <defs>
  <clipPath id="p68a6ccaec9">
   <rect x="100.37" y="23.76" width="797.47" height="307.24"/>
  </clipPath>
 </defs>
</svg>
