<?xml version="1.0" encoding="utf-8" standalone="no"?>
<!DOCTYPE svg PUBLIC "-//W3C//DTD SVG 1.1//EN"
  "http://www.w3.org/Graphics/SVG/1.1/DTD/svg11.dtd">
<svg xmlns:xlink="http://www.w3.org/1999/xlink" width="921.6pt" height="410.4pt" viewBox="0 0 921.6 410.4" xmlns="http://www.w3.org/2000/svg" version="1.1">
 <metadata>
  <rdf:RDF xmlns:dc="http://purl.org/dc/elements/1.1/" xmlns:cc="http://creativecommons.org/ns#" xmlns:rdf="http://www.w3.org/1999/02/22-rdf-syntax-ns#">
   <cc:Work>
    <dc:type rdf:resource="http://purl.org/dc/dcmitype/StillImage"/>
    <dc:date>2023-05-08T14:07:34.009924</dc:date>
    <dc:format>image/svg+xml</dc:format>
    <dc:creator>
     <cc:Agent>
      <dc:title>Matplotlib v3.7.1, https://matplotlib.org/</dc:title>
     </cc:Agent>
    </dc:creator>
   </cc:Work>
  </rdf:RDF>
 </metadata>
 <defs>
  <style type="text/css">*{stroke-linejoin: round; stroke-linecap: butt}</style>
 </defs>
 <g id="figure_1">
  <g id="patch_1">
   <path d="M 0 410.4 
L 921.6 410.4 
L 921.6 0 
L 0 0 
z
" style="fill: #ffffff"/>
  </g>
  <g id="axes_1">
   <g id="patch_2">
    <path d="M 86.51 331 
L 897.84 331 
L 897.84 23.76 
L 86.51 23.76 
z
" style="fill: #ffffff"/>
   </g>
   <g id="PolyCollection_1">
    <path d="M 123.388636 243.710215 
L 123.388636 331 
L 127.509154 331 
L 131.629672 331 
L 135.75019 331 
L 139.870708 331 
L 143.991227 331 
L 148.111745 331 
L 152.232263 331 
L 156.352781 331 
L 160.473299 331 
L 164.593817 331 
L 168.714335 331 
L 172.834853 331 
L 176.955371 331 
L 181.075889 331 
L 185.196407 331 
L 189.316925 331 
L 193.437443 331 
L 197.557961 331 
L 201.678479 331 
L 205.798997 331 
L 209.919515 331 
L 214.040033 331 
L 218.160551 331 
L 222.281069 331 
L 226.401587 331 
L 230.522105 331 
L 234.642623 331 
L 238.763141 331 
L 242.883659 331 
L 247.004177 331 
L 251.124695 331 
L 255.245213 331 
L 259.365731 331 
L 263.486249 331 
L 267.606767 331 
L 271.727285 331 
L 275.847803 331 
L 279.968321 331 
L 284.08884 331 
L 288.209358 331 
L 292.329876 331 
L 296.450394 331 
L 300.570912 331 
L 304.69143 331 
L 308.811948 331 
L 312.932466 331 
L 317.052984 331 
L 321.173502 331 
L 325.29402 331 
L 329.414538 331 
L 333.535056 331 
L 337.655574 331 
L 341.776092 331 
L 345.89661 331 
L 350.017128 331 
L 354.137646 331 
L 358.258164 331 
L 362.378682 331 
L 366.4992 331 
L 370.619718 331 
L 374.740236 331 
L 378.860754 331 
L 382.981272 331 
L 387.10179 331 
L 391.222308 331 
L 395.342826 331 
L 399.463344 331 
L 403.583862 331 
L 407.70438 331 
L 411.824898 331 
L 415.945416 331 
L 420.065934 331 
L 424.186453 331 
L 428.306971 331 
L 432.427489 331 
L 436.548007 331 
L 440.668525 331 
L 444.789043 331 
L 448.909561 331 
L 453.030079 331 
L 457.150597 331 
L 461.271115 331 
L 465.391633 331 
L 469.512151 331 
L 473.632669 331 
L 477.753187 331 
L 481.873705 331 
L 485.994223 331 
L 490.114741 331 
L 494.235259 331 
L 498.355777 331 
L 502.476295 331 
L 506.596813 331 
L 510.717331 331 
L 514.837849 331 
L 518.958367 331 
L 523.078885 331 
L 527.199403 331 
L 531.319921 331 
L 535.440439 331 
L 539.560957 331 
L 543.681475 331 
L 547.801993 331 
L 551.922511 331 
L 556.043029 331 
L 560.163547 331 
L 564.284066 331 
L 568.404584 331 
L 572.525102 331 
L 576.64562 331 
L 580.766138 331 
L 584.886656 331 
L 589.007174 331 
L 593.127692 331 
L 597.24821 331 
L 601.368728 331 
L 605.489246 331 
L 609.609764 331 
L 613.730282 331 
L 617.8508 331 
L 621.971318 331 
L 626.091836 331 
L 630.212354 331 
L 634.332872 331 
L 638.45339 331 
L 642.573908 331 
L 646.694426 331 
L 650.814944 331 
L 654.935462 331 
L 659.05598 331 
L 663.176498 331 
L 667.297016 331 
L 671.417534 331 
L 675.538052 331 
L 679.65857 331 
L 683.779088 331 
L 687.899606 331 
L 692.020124 331 
L 696.140642 331 
L 700.26116 331 
L 704.381679 331 
L 708.502197 331 
L 712.622715 331 
L 716.743233 331 
L 720.863751 331 
L 724.984269 331 
L 729.104787 331 
L 733.225305 331 
L 737.345823 331 
L 741.466341 331 
L 745.586859 331 
L 749.707377 331 
L 753.827895 331 
L 757.948413 331 
L 762.068931 331 
L 766.189449 331 
L 770.309967 331 
L 774.430485 331 
L 778.551003 331 
L 782.671521 331 
L 786.792039 331 
L 790.912557 331 
L 795.033075 331 
L 799.153593 331 
L 803.274111 331 
L 807.394629 331 
L 811.515147 331 
L 815.635665 331 
L 819.756183 331 
L 823.876701 331 
L 827.997219 331 
L 832.117737 331 
L 836.238255 331 
L 840.358773 331 
L 844.479292 331 
L 848.59981 331 
L 852.720328 331 
L 856.840846 331 
L 860.961364 331 
L 860.961364 209.204372 
L 860.961364 209.204372 
L 856.840846 207.890374 
L 852.720328 208.659326 
L 848.59981 204.920883 
L 844.479292 195.797375 
L 840.358773 197.274625 
L 836.238255 200.199624 
L 832.117737 202.028479 
L 827.997219 202.84763 
L 823.876701 203.445146 
L 819.756183 193.551449 
L 815.635665 194.456971 
L 811.515147 199.606648 
L 807.394629 197.442829 
L 803.274111 193.012798 
L 799.153593 192.782223 
L 795.033075 195.658948 
L 790.912557 194.312011 
L 786.792039 185.893914 
L 782.671521 184.213457 
L 778.551003 184.308631 
L 774.430485 182.390723 
L 770.309967 186.473893 
L 766.189449 185.42733 
L 762.068931 182.87773 
L 757.948413 184.355255 
L 753.827895 186.654475 
L 749.707377 187.108276 
L 745.586859 192.237314 
L 741.466341 188.300067 
L 737.345823 188.819119 
L 733.225305 187.239337 
L 729.104787 183.513135 
L 724.984269 186.3988 
L 720.863751 182.971046 
L 716.743233 194.944666 
L 712.622715 186.861876 
L 708.502197 193.281402 
L 704.381679 194.205697 
L 700.26116 191.718124 
L 696.140642 192.882485 
L 692.020124 185.450642 
L 687.899606 204.133365 
L 683.779088 198.694868 
L 679.65857 213.935808 
L 675.538052 212.492735 
L 671.417534 204.778054 
L 667.297016 212.386078 
L 663.176498 202.996786 
L 659.05598 202.881533 
L 654.935462 202.986333 
L 650.814944 204.764645 
L 646.694426 205.777031 
L 642.573908 202.533503 
L 638.45339 203.0278 
L 634.332872 205.310998 
L 630.212354 201.662915 
L 626.091836 199.977645 
L 621.971318 201.070488 
L 617.8508 199.521445 
L 613.730282 202.087963 
L 609.609764 202.599588 
L 605.489246 210.166145 
L 601.368728 204.177307 
L 597.24821 200.119511 
L 593.127692 204.489577 
L 589.007174 207.577623 
L 584.886656 208.527912 
L 580.766138 209.982813 
L 576.64562 210.701564 
L 572.525102 208.003427 
L 568.404584 203.429948 
L 564.284066 206.78756 
L 560.163547 209.764272 
L 556.043029 207.697758 
L 551.922511 205.503614 
L 547.801993 207.045298 
L 543.681475 207.26824 
L 539.560957 209.886539 
L 535.440439 212.379132 
L 531.319921 212.340073 
L 527.199403 211.156457 
L 523.078885 213.996942 
L 518.958367 213.147258 
L 514.837849 213.417374 
L 510.717331 216.099214 
L 506.596813 215.853097 
L 502.476295 219.318673 
L 498.355777 221.417919 
L 494.235259 221.894886 
L 490.114741 220.736027 
L 485.994223 224.14432 
L 481.873705 227.11388 
L 477.753187 230.509382 
L 473.632669 228.3959 
L 469.512151 223.122925 
L 465.391633 215.080776 
L 461.271115 219.980279 
L 457.150597 222.365664 
L 453.030079 227.790958 
L 448.909561 221.719393 
L 444.789043 221.898737 
L 440.668525 220.069745 
L 436.548007 223.070387 
L 432.427489 226.457912 
L 428.306971 217.120264 
L 424.186453 217.286818 
L 420.065934 211.750809 
L 415.945416 215.881979 
L 411.824898 215.5094 
L 407.70438 218.640631 
L 403.583862 216.96547 
L 399.463344 216.094469 
L 395.342826 220.303346 
L 391.222308 225.222103 
L 387.10179 228.311386 
L 382.981272 229.102205 
L 378.860754 229.310637 
L 374.740236 235.913977 
L 370.619718 238.388965 
L 366.4992 242.240117 
L 362.378682 239.231085 
L 358.258164 234.62226 
L 354.137646 223.827511 
L 350.017128 225.477228 
L 345.89661 230.147393 
L 341.776092 232.920486 
L 337.655574 232.442419 
L 333.535056 236.320183 
L 329.414538 238.884706 
L 325.29402 241.727941 
L 321.173502 241.247536 
L 317.052984 252.257388 
L 312.932466 257.893727 
L 308.811948 257.715277 
L 304.69143 263.178118 
L 300.570912 262.812966 
L 296.450394 263.649377 
L 292.329876 262.528065 
L 288.209358 264.358845 
L 284.08884 262.705689 
L 279.968321 258.307979 
L 275.847803 259.438584 
L 271.727285 261.069382 
L 267.606767 255.872119 
L 263.486249 254.421206 
L 259.365731 256.531799 
L 255.245213 251.421595 
L 251.124695 255.746 
L 247.004177 248.995775 
L 242.883659 255.770275 
L 238.763141 263.764424 
L 234.642623 264.883743 
L 230.522105 257.649261 
L 226.401587 257.86402 
L 222.281069 266.621963 
L 218.160551 262.674469 
L 214.040033 263.37094 
L 209.919515 262.75197 
L 205.798997 261.596273 
L 201.678479 263.099724 
L 197.557961 262.002892 
L 193.437443 264.12043 
L 189.316925 260.038368 
L 185.196407 259.1327 
L 181.075889 257.387603 
L 176.955371 266.979207 
L 172.834853 260.274093 
L 168.714335 267.680079 
L 164.593817 268.028383 
L 160.473299 269.192056 
L 156.352781 262.990453 
L 152.232263 264.476918 
L 148.111745 261.636227 
L 143.991227 259.879096 
L 139.870708 257.122575 
L 135.75019 255.05448 
L 131.629672 248.958847 
L 127.509154 254.31785 
L 123.388636 243.710215 
z
" clip-path="url(#pd002d218eb)" style="fill: #1f77b4"/>
   </g>
   <g id="PolyCollection_2">
    <path d="M 123.388636 156.578732 
L 123.388636 243.710215 
L 127.509154 254.31785 
L 131.629672 248.958847 
L 135.75019 255.05448 
L 139.870708 257.122575 
L 143.991227 259.879096 
L 148.111745 261.636227 
L 152.232263 264.476918 
L 156.352781 262.990453 
L 160.473299 269.192056 
L 164.593817 268.028383 
L 168.714335 267.680079 
L 172.834853 260.274093 
L 176.955371 266.979207 
L 181.075889 257.387603 
L 185.196407 259.1327 
L 189.316925 260.038368 
L 193.437443 264.12043 
L 197.557961 262.002892 
L 201.678479 263.099724 
L 205.798997 261.596273 
L 209.919515 262.75197 
L 214.040033 263.37094 
L 218.160551 262.674469 
L 222.281069 266.621963 
L 226.401587 257.86402 
L 230.522105 257.649261 
L 234.642623 264.883743 
L 238.763141 263.764424 
L 242.883659 255.770275 
L 247.004177 248.995775 
L 251.124695 255.746 
L 255.245213 251.421595 
L 259.365731 256.531799 
L 263.486249 254.421206 
L 267.606767 255.872119 
L 271.727285 261.069382 
L 275.847803 259.438584 
L 279.968321 258.307979 
L 284.08884 262.705689 
L 288.209358 264.358845 
L 292.329876 262.528065 
L 296.450394 263.649377 
L 300.570912 262.812966 
L 304.69143 263.178118 
L 308.811948 257.715277 
L 312.932466 257.893727 
L 317.052984 252.257388 
L 321.173502 241.247536 
L 325.29402 241.727941 
L 329.414538 238.884706 
L 333.535056 236.320183 
L 337.655574 232.442419 
L 341.776092 232.920486 
L 345.89661 230.147393 
L 350.017128 225.477228 
L 354.137646 223.827511 
L 358.258164 234.62226 
L 362.378682 239.231085 
L 366.4992 242.240117 
L 370.619718 238.388965 
L 374.740236 235.913977 
L 378.860754 229.310637 
L 382.981272 229.102205 
L 387.10179 228.311386 
L 391.222308 225.222103 
L 395.342826 220.303346 
L 399.463344 216.094469 
L 403.583862 216.96547 
L 407.70438 218.640631 
L 411.824898 215.5094 
L 415.945416 215.881979 
L 420.065934 211.750809 
L 424.186453 217.286818 
L 428.306971 217.120264 
L 432.427489 226.457912 
L 436.548007 223.070387 
L 440.668525 220.069745 
L 444.789043 221.898737 
L 448.909561 221.719393 
L 453.030079 227.790958 
L 457.150597 222.365664 
L 461.271115 219.980279 
L 465.391633 215.080776 
L 469.512151 223.122925 
L 473.632669 228.3959 
L 477.753187 230.509382 
L 481.873705 227.11388 
L 485.994223 224.14432 
L 490.114741 220.736027 
L 494.235259 221.894886 
L 498.355777 221.417919 
L 502.476295 219.318673 
L 506.596813 215.853097 
L 510.717331 216.099214 
L 514.837849 213.417374 
L 518.958367 213.147258 
L 523.078885 213.996942 
L 527.199403 211.156457 
L 531.319921 212.340073 
L 535.440439 212.379132 
L 539.560957 209.886539 
L 543.681475 207.26824 
L 547.801993 207.045298 
L 551.922511 205.503614 
L 556.043029 207.697758 
L 560.163547 209.764272 
L 564.284066 206.78756 
L 568.404584 203.429948 
L 572.525102 208.003427 
L 576.64562 210.701564 
L 580.766138 209.982813 
L 584.886656 208.527912 
L 589.007174 207.577623 
L 593.127692 204.489577 
L 597.24821 200.119511 
L 601.368728 204.177307 
L 605.489246 210.166145 
L 609.609764 202.599588 
L 613.730282 202.087963 
L 617.8508 199.521445 
L 621.971318 201.070488 
L 626.091836 199.977645 
L 630.212354 201.662915 
L 634.332872 205.310998 
L 638.45339 203.0278 
L 642.573908 202.533503 
L 646.694426 205.777031 
L 650.814944 204.764645 
L 654.935462 202.986333 
L 659.05598 202.881533 
L 663.176498 202.996786 
L 667.297016 212.386078 
L 671.417534 204.778054 
L 675.538052 212.492735 
L 679.65857 213.935808 
L 683.779088 198.694868 
L 687.899606 204.133365 
L 692.020124 185.450642 
L 696.140642 192.882485 
L 700.26116 191.718124 
L 704.381679 194.205697 
L 708.502197 193.281402 
L 712.622715 186.861876 
L 716.743233 194.944666 
L 720.863751 182.971046 
L 724.984269 186.3988 
L 729.104787 183.513135 
L 733.225305 187.239337 
L 737.345823 188.819119 
L 741.466341 188.300067 
L 745.586859 192.237314 
L 749.707377 187.108276 
L 753.827895 186.654475 
L 757.948413 184.355255 
L 762.068931 182.87773 
L 766.189449 185.42733 
L 770.309967 186.473893 
L 774.430485 182.390723 
L 778.551003 184.308631 
L 782.671521 184.213457 
L 786.792039 185.893914 
L 790.912557 194.312011 
L 795.033075 195.658948 
L 799.153593 192.782223 
L 803.274111 193.012798 
L 807.394629 197.442829 
L 811.515147 199.606648 
L 815.635665 194.456971 
L 819.756183 193.551449 
L 823.876701 203.445146 
L 827.997219 202.84763 
L 832.117737 202.028479 
L 836.238255 200.199624 
L 840.358773 197.274625 
L 844.479292 195.797375 
L 848.59981 204.920883 
L 852.720328 208.659326 
L 856.840846 207.890374 
L 860.961364 209.204372 
L 860.961364 209.204372 
L 860.961364 209.204372 
L 856.840846 96.253539 
L 852.720328 99.458695 
L 848.59981 96.31653 
L 844.479292 78.855932 
L 840.358773 82.199515 
L 836.238255 83.950114 
L 832.117737 88.379319 
L 827.997219 91.270485 
L 823.876701 94.072667 
L 819.756183 74.518255 
L 815.635665 71.935921 
L 811.515147 75.629665 
L 807.394629 71.745024 
L 803.274111 61.299817 
L 799.153593 65.058684 
L 795.033075 63.539073 
L 790.912557 67.679527 
L 786.792039 49.053881 
L 782.671521 44.919754 
L 778.551003 50.640814 
L 774.430485 37.896317 
L 770.309967 45.239391 
L 766.189449 45.493476 
L 762.068931 43.196043 
L 757.948413 41.811353 
L 753.827895 44.738209 
L 749.707377 47.11707 
L 745.586859 54.596216 
L 741.466341 49.993099 
L 737.345823 50.191285 
L 733.225305 45.41852 
L 729.104787 42.135589 
L 724.984269 45.640018 
L 720.863751 46.863037 
L 716.743233 56.211412 
L 712.622715 50.656286 
L 708.502197 57.731298 
L 704.381679 63.749706 
L 700.26116 57.497765 
L 696.140642 63.557021 
L 692.020124 54.533432 
L 687.899606 73.655437 
L 683.779088 70.124052 
L 679.65857 109.023067 
L 675.538052 106.364058 
L 671.417534 95.958254 
L 667.297016 102.182757 
L 663.176498 84.981204 
L 659.05598 82.510823 
L 654.935462 81.538459 
L 650.814944 80.837862 
L 646.694426 81.499331 
L 642.573908 77.525156 
L 638.45339 77.968014 
L 634.332872 82.09217 
L 630.212354 77.012498 
L 626.091836 75.167758 
L 621.971318 77.971453 
L 617.8508 75.550377 
L 613.730282 78.116826 
L 609.609764 78.691098 
L 605.489246 91.275299 
L 601.368728 88.606456 
L 597.24821 83.828671 
L 593.127692 92.05594 
L 589.007174 93.049003 
L 584.886656 96.580319 
L 580.766138 101.923231 
L 576.64562 100.223038 
L 572.525102 94.174373 
L 568.404584 89.780651 
L 564.284066 95.553217 
L 560.163547 99.219455 
L 556.043029 91.506218 
L 551.922511 87.789781 
L 547.801993 86.926825 
L 543.681475 91.278737 
L 539.560957 95.681468 
L 535.440439 102.328474 
L 531.319921 99.975615 
L 527.199403 97.690011 
L 523.078885 97.369557 
L 518.958367 99.688307 
L 514.837849 107.917295 
L 510.717331 110.393522 
L 506.596813 115.004135 
L 502.476295 118.902185 
L 498.355777 121.481081 
L 494.235259 121.555418 
L 490.114741 113.887429 
L 485.994223 124.948375 
L 481.873705 129.062216 
L 477.753187 138.920704 
L 473.632669 129.931498 
L 469.512151 124.855196 
L 465.391633 114.280363 
L 461.271115 124.572564 
L 457.150597 122.924085 
L 453.030079 133.22048 
L 448.909561 123.367287 
L 444.789043 122.834756 
L 440.668525 117.973282 
L 436.548007 118.9136 
L 432.427489 122.149288 
L 428.306971 100.253021 
L 424.186453 104.409635 
L 420.065934 97.679489 
L 415.945416 102.750152 
L 411.824898 103.733725 
L 407.70438 111.335216 
L 403.583862 105.677283 
L 399.463344 104.7032 
L 395.342826 117.766363 
L 391.222308 128.913955 
L 387.10179 129.262259 
L 382.981272 136.345178 
L 378.860754 138.17871 
L 374.740236 143.160526 
L 370.619718 151.826046 
L 366.4992 156.216949 
L 362.378682 152.218499 
L 358.258164 144.468059 
L 354.137646 129.587939 
L 350.017128 125.087422 
L 345.89661 132.198536 
L 341.776092 138.971042 
L 337.655574 139.496902 
L 333.535056 147.399248 
L 329.414538 150.476978 
L 325.29402 154.298559 
L 321.173502 155.688338 
L 317.052984 166.150393 
L 312.932466 172.007818 
L 308.811948 174.93543 
L 304.69143 189.62988 
L 300.570912 191.483354 
L 296.450394 183.975386 
L 292.329876 188.571489 
L 288.209358 186.106885 
L 284.08884 185.683762 
L 279.968321 173.185588 
L 275.847803 178.528921 
L 271.727285 181.782961 
L 267.606767 182.883162 
L 263.486249 175.456615 
L 259.365731 175.468649 
L 255.245213 164.848774 
L 251.124695 173.457218 
L 247.004177 164.384185 
L 242.883659 173.45096 
L 238.763141 175.995953 
L 234.642623 181.216253 
L 230.522105 174.126663 
L 226.401587 182.334402 
L 222.281069 199.326973 
L 218.160551 188.875508 
L 214.040033 187.194501 
L 209.919515 190.709589 
L 205.798997 183.444781 
L 201.678479 185.940262 
L 197.557961 182.102245 
L 193.437443 189.974884 
L 189.316925 177.241467 
L 185.196407 180.242583 
L 181.075889 174.58245 
L 176.955371 193.411096 
L 172.834853 181.668258 
L 168.714335 197.932862 
L 164.593817 196.761624 
L 160.473299 199.139033 
L 156.352781 188.438632 
L 152.232263 192.100743 
L 148.111745 185.775153 
L 143.991227 179.310929 
L 139.870708 178.853423 
L 135.75019 174.811581 
L 131.629672 163.737157 
L 127.509154 170.979891 
L 123.388636 156.578732 
z
" clip-path="url(#pd002d218eb)" style="fill: #ff7f0e"/>
   </g>
   <g id="matplotlib.axis_1">
    <g id="xtick_1">
     <g id="line2d_1">
      <path d="M 123.388636 331 
L 123.388636 23.76 
" clip-path="url(#pd002d218eb)" style="fill: none; stroke-dasharray: 5.12,1.28,0.8,1.28; stroke-dashoffset: 0; stroke: #b0b0b0; stroke-width: 0.8"/>
     </g>
     <g id="line2d_2">
      <defs>
       <path id="m2c078ae9c8" d="M 0 0 
L 0 3.5 
" style="stroke: #000000; stroke-width: 0.8"/>
      </defs>
      <g>
       <use xlink:href="#m2c078ae9c8" x="123.388636" y="331" style="stroke: #000000; stroke-width: 0.8"/>
      </g>
     </g>
     <g id="text_1">
      <!-- 0 -->
      <g transform="translate(116.389886 354.716563) scale(0.22 -0.22)">
       <defs>
        <path id="DejaVuSans-30" d="M 2034 4250 
Q 1547 4250 1301 3770 
Q 1056 3291 1056 2328 
Q 1056 1369 1301 889 
Q 1547 409 2034 409 
Q 2525 409 2770 889 
Q 3016 1369 3016 2328 
Q 3016 3291 2770 3770 
Q 2525 4250 2034 4250 
z
M 2034 4750 
Q 2819 4750 3233 4129 
Q 3647 3509 3647 2328 
Q 3647 1150 3233 529 
Q 2819 -91 2034 -91 
Q 1250 -91 836 529 
Q 422 1150 422 2328 
Q 422 3509 836 4129 
Q 1250 4750 2034 4750 
z
" transform="scale(0.015625)"/>
       </defs>
       <use xlink:href="#DejaVuSans-30"/>
      </g>
     </g>
    </g>
    <g id="xtick_2">
     <g id="line2d_3">
      <path d="M 226.401587 331 
L 226.401587 23.76 
" clip-path="url(#pd002d218eb)" style="fill: none; stroke-dasharray: 5.12,1.28,0.8,1.28; stroke-dashoffset: 0; stroke: #b0b0b0; stroke-width: 0.8"/>
     </g>
     <g id="line2d_4">
      <g>
       <use xlink:href="#m2c078ae9c8" x="226.401587" y="331" style="stroke: #000000; stroke-width: 0.8"/>
      </g>
     </g>
     <g id="text_2">
      <!-- 25 -->
      <g transform="translate(212.404087 354.716563) scale(0.22 -0.22)">
       <defs>
        <path id="DejaVuSans-32" d="M 1228 531 
L 3431 531 
L 3431 0 
L 469 0 
L 469 531 
Q 828 903 1448 1529 
Q 2069 2156 2228 2338 
Q 2531 2678 2651 2914 
Q 2772 3150 2772 3378 
Q 2772 3750 2511 3984 
Q 2250 4219 1831 4219 
Q 1534 4219 1204 4116 
Q 875 4013 500 3803 
L 500 4441 
Q 881 4594 1212 4672 
Q 1544 4750 1819 4750 
Q 2544 4750 2975 4387 
Q 3406 4025 3406 3419 
Q 3406 3131 3298 2873 
Q 3191 2616 2906 2266 
Q 2828 2175 2409 1742 
Q 1991 1309 1228 531 
z
" transform="scale(0.015625)"/>
        <path id="DejaVuSans-35" d="M 691 4666 
L 3169 4666 
L 3169 4134 
L 1269 4134 
L 1269 2991 
Q 1406 3038 1543 3061 
Q 1681 3084 1819 3084 
Q 2600 3084 3056 2656 
Q 3513 2228 3513 1497 
Q 3513 744 3044 326 
Q 2575 -91 1722 -91 
Q 1428 -91 1123 -41 
Q 819 9 494 109 
L 494 744 
Q 775 591 1075 516 
Q 1375 441 1709 441 
Q 2250 441 2565 725 
Q 2881 1009 2881 1497 
Q 2881 1984 2565 2268 
Q 2250 2553 1709 2553 
Q 1456 2553 1204 2497 
Q 953 2441 691 2322 
L 691 4666 
z
" transform="scale(0.015625)"/>
       </defs>
       <use xlink:href="#DejaVuSans-32"/>
       <use xlink:href="#DejaVuSans-35" x="63.623047"/>
      </g>
     </g>
    </g>
    <g id="xtick_3">
     <g id="line2d_5">
      <path d="M 329.414538 331 
L 329.414538 23.76 
" clip-path="url(#pd002d218eb)" style="fill: none; stroke-dasharray: 5.12,1.28,0.8,1.28; stroke-dashoffset: 0; stroke: #b0b0b0; stroke-width: 0.8"/>
     </g>
     <g id="line2d_6">
      <g>
       <use xlink:href="#m2c078ae9c8" x="329.414538" y="331" style="stroke: #000000; stroke-width: 0.8"/>
      </g>
     </g>
     <g id="text_3">
      <!-- 50 -->
      <g transform="translate(315.417038 354.716563) scale(0.22 -0.22)">
       <use xlink:href="#DejaVuSans-35"/>
       <use xlink:href="#DejaVuSans-30" x="63.623047"/>
      </g>
     </g>
    </g>
    <g id="xtick_4">
     <g id="line2d_7">
      <path d="M 432.427489 331 
L 432.427489 23.76 
" clip-path="url(#pd002d218eb)" style="fill: none; stroke-dasharray: 5.12,1.28,0.8,1.28; stroke-dashoffset: 0; stroke: #b0b0b0; stroke-width: 0.8"/>
     </g>
     <g id="line2d_8">
      <g>
       <use xlink:href="#m2c078ae9c8" x="432.427489" y="331" style="stroke: #000000; stroke-width: 0.8"/>
      </g>
     </g>
     <g id="text_4">
      <!-- 75 -->
      <g transform="translate(418.429989 354.716563) scale(0.22 -0.22)">
       <defs>
        <path id="DejaVuSans-37" d="M 525 4666 
L 3525 4666 
L 3525 4397 
L 1831 0 
L 1172 0 
L 2766 4134 
L 525 4134 
L 525 4666 
z
" transform="scale(0.015625)"/>
       </defs>
       <use xlink:href="#DejaVuSans-37"/>
       <use xlink:href="#DejaVuSans-35" x="63.623047"/>
      </g>
     </g>
    </g>
    <g id="xtick_5">
     <g id="line2d_9">
      <path d="M 535.440439 331 
L 535.440439 23.76 
" clip-path="url(#pd002d218eb)" style="fill: none; stroke-dasharray: 5.12,1.28,0.8,1.28; stroke-dashoffset: 0; stroke: #b0b0b0; stroke-width: 0.8"/>
     </g>
     <g id="line2d_10">
      <g>
       <use xlink:href="#m2c078ae9c8" x="535.440439" y="331" style="stroke: #000000; stroke-width: 0.8"/>
      </g>
     </g>
     <g id="text_5">
      <!-- 100 -->
      <g transform="translate(514.444189 354.716563) scale(0.22 -0.22)">
       <defs>
        <path id="DejaVuSans-31" d="M 794 531 
L 1825 531 
L 1825 4091 
L 703 3866 
L 703 4441 
L 1819 4666 
L 2450 4666 
L 2450 531 
L 3481 531 
L 3481 0 
L 794 0 
L 794 531 
z
" transform="scale(0.015625)"/>
       </defs>
       <use xlink:href="#DejaVuSans-31"/>
       <use xlink:href="#DejaVuSans-30" x="63.623047"/>
       <use xlink:href="#DejaVuSans-30" x="127.246094"/>
      </g>
     </g>
    </g>
    <g id="xtick_6">
     <g id="line2d_11">
      <path d="M 638.45339 331 
L 638.45339 23.76 
" clip-path="url(#pd002d218eb)" style="fill: none; stroke-dasharray: 5.12,1.28,0.8,1.28; stroke-dashoffset: 0; stroke: #b0b0b0; stroke-width: 0.8"/>
     </g>
     <g id="line2d_12">
      <g>
       <use xlink:href="#m2c078ae9c8" x="638.45339" y="331" style="stroke: #000000; stroke-width: 0.8"/>
      </g>
     </g>
     <g id="text_6">
      <!-- 125 -->
      <g transform="translate(617.45714 354.716563) scale(0.22 -0.22)">
       <use xlink:href="#DejaVuSans-31"/>
       <use xlink:href="#DejaVuSans-32" x="63.623047"/>
       <use xlink:href="#DejaVuSans-35" x="127.246094"/>
      </g>
     </g>
    </g>
    <g id="xtick_7">
     <g id="line2d_13">
      <path d="M 741.466341 331 
L 741.466341 23.76 
" clip-path="url(#pd002d218eb)" style="fill: none; stroke-dasharray: 5.12,1.28,0.8,1.28; stroke-dashoffset: 0; stroke: #b0b0b0; stroke-width: 0.8"/>
     </g>
     <g id="line2d_14">
      <g>
       <use xlink:href="#m2c078ae9c8" x="741.466341" y="331" style="stroke: #000000; stroke-width: 0.8"/>
      </g>
     </g>
     <g id="text_7">
      <!-- 150 -->
      <g transform="translate(720.470091 354.716563) scale(0.22 -0.22)">
       <use xlink:href="#DejaVuSans-31"/>
       <use xlink:href="#DejaVuSans-35" x="63.623047"/>
       <use xlink:href="#DejaVuSans-30" x="127.246094"/>
      </g>
     </g>
    </g>
    <g id="xtick_8">
     <g id="line2d_15">
      <path d="M 844.479292 331 
L 844.479292 23.76 
" clip-path="url(#pd002d218eb)" style="fill: none; stroke-dasharray: 5.12,1.28,0.8,1.28; stroke-dashoffset: 0; stroke: #b0b0b0; stroke-width: 0.8"/>
     </g>
     <g id="line2d_16">
      <g>
       <use xlink:href="#m2c078ae9c8" x="844.479292" y="331" style="stroke: #000000; stroke-width: 0.8"/>
      </g>
     </g>
     <g id="text_8">
      <!-- 175 -->
      <g transform="translate(823.483042 354.716563) scale(0.22 -0.22)">
       <use xlink:href="#DejaVuSans-31"/>
       <use xlink:href="#DejaVuSans-37" x="63.623047"/>
       <use xlink:href="#DejaVuSans-35" x="127.246094"/>
      </g>
     </g>
    </g>
    <g id="text_9">
     <!-- Time (s) -->
     <g transform="translate(443.385625 381.528125) scale(0.24 -0.24)">
      <defs>
       <path id="DejaVuSans-54" d="M -19 4666 
L 3928 4666 
L 3928 4134 
L 2272 4134 
L 2272 0 
L 1638 0 
L 1638 4134 
L -19 4134 
L -19 4666 
z
" transform="scale(0.015625)"/>
       <path id="DejaVuSans-69" d="M 603 3500 
L 1178 3500 
L 1178 0 
L 603 0 
L 603 3500 
z
M 603 4863 
L 1178 4863 
L 1178 4134 
L 603 4134 
L 603 4863 
z
" transform="scale(0.015625)"/>
       <path id="DejaVuSans-6d" d="M 3328 2828 
Q 3544 3216 3844 3400 
Q 4144 3584 4550 3584 
Q 5097 3584 5394 3201 
Q 5691 2819 5691 2113 
L 5691 0 
L 5113 0 
L 5113 2094 
Q 5113 2597 4934 2840 
Q 4756 3084 4391 3084 
Q 3944 3084 3684 2787 
Q 3425 2491 3425 1978 
L 3425 0 
L 2847 0 
L 2847 2094 
Q 2847 2600 2669 2842 
Q 2491 3084 2119 3084 
Q 1678 3084 1418 2786 
Q 1159 2488 1159 1978 
L 1159 0 
L 581 0 
L 581 3500 
L 1159 3500 
L 1159 2956 
Q 1356 3278 1631 3431 
Q 1906 3584 2284 3584 
Q 2666 3584 2933 3390 
Q 3200 3197 3328 2828 
z
" transform="scale(0.015625)"/>
       <path id="DejaVuSans-65" d="M 3597 1894 
L 3597 1613 
L 953 1613 
Q 991 1019 1311 708 
Q 1631 397 2203 397 
Q 2534 397 2845 478 
Q 3156 559 3463 722 
L 3463 178 
Q 3153 47 2828 -22 
Q 2503 -91 2169 -91 
Q 1331 -91 842 396 
Q 353 884 353 1716 
Q 353 2575 817 3079 
Q 1281 3584 2069 3584 
Q 2775 3584 3186 3129 
Q 3597 2675 3597 1894 
z
M 3022 2063 
Q 3016 2534 2758 2815 
Q 2500 3097 2075 3097 
Q 1594 3097 1305 2825 
Q 1016 2553 972 2059 
L 3022 2063 
z
" transform="scale(0.015625)"/>
       <path id="DejaVuSans-20" transform="scale(0.015625)"/>
       <path id="DejaVuSans-28" d="M 1984 4856 
Q 1566 4138 1362 3434 
Q 1159 2731 1159 2009 
Q 1159 1288 1364 580 
Q 1569 -128 1984 -844 
L 1484 -844 
Q 1016 -109 783 600 
Q 550 1309 550 2009 
Q 550 2706 781 3412 
Q 1013 4119 1484 4856 
L 1984 4856 
z
" transform="scale(0.015625)"/>
       <path id="DejaVuSans-73" d="M 2834 3397 
L 2834 2853 
Q 2591 2978 2328 3040 
Q 2066 3103 1784 3103 
Q 1356 3103 1142 2972 
Q 928 2841 928 2578 
Q 928 2378 1081 2264 
Q 1234 2150 1697 2047 
L 1894 2003 
Q 2506 1872 2764 1633 
Q 3022 1394 3022 966 
Q 3022 478 2636 193 
Q 2250 -91 1575 -91 
Q 1294 -91 989 -36 
Q 684 19 347 128 
L 347 722 
Q 666 556 975 473 
Q 1284 391 1588 391 
Q 1994 391 2212 530 
Q 2431 669 2431 922 
Q 2431 1156 2273 1281 
Q 2116 1406 1581 1522 
L 1381 1569 
Q 847 1681 609 1914 
Q 372 2147 372 2553 
Q 372 3047 722 3315 
Q 1072 3584 1716 3584 
Q 2034 3584 2315 3537 
Q 2597 3491 2834 3397 
z
" transform="scale(0.015625)"/>
       <path id="DejaVuSans-29" d="M 513 4856 
L 1013 4856 
Q 1481 4119 1714 3412 
Q 1947 2706 1947 2009 
Q 1947 1309 1714 600 
Q 1481 -109 1013 -844 
L 513 -844 
Q 928 -128 1133 580 
Q 1338 1288 1338 2009 
Q 1338 2731 1133 3434 
Q 928 4138 513 4856 
z
" transform="scale(0.015625)"/>
      </defs>
      <use xlink:href="#DejaVuSans-54"/>
      <use xlink:href="#DejaVuSans-69" x="57.958984"/>
      <use xlink:href="#DejaVuSans-6d" x="85.742188"/>
      <use xlink:href="#DejaVuSans-65" x="183.154297"/>
      <use xlink:href="#DejaVuSans-20" x="244.677734"/>
      <use xlink:href="#DejaVuSans-28" x="276.464844"/>
      <use xlink:href="#DejaVuSans-73" x="315.478516"/>
      <use xlink:href="#DejaVuSans-29" x="367.578125"/>
     </g>
    </g>
   </g>
   <g id="matplotlib.axis_2">
    <g id="ytick_1">
     <g id="line2d_17">
      <path d="M 86.51 331 
L 897.84 331 
" clip-path="url(#pd002d218eb)" style="fill: none; stroke-dasharray: 5.12,1.28,0.8,1.28; stroke-dashoffset: 0; stroke: #b0b0b0; stroke-width: 0.8"/>
     </g>
     <g id="line2d_18">
      <defs>
       <path id="m6549d08b2c" d="M 0 0 
L -3.5 0 
" style="stroke: #000000; stroke-width: 0.8"/>
      </defs>
      <g>
       <use xlink:href="#m6549d08b2c" x="86.51" y="331" style="stroke: #000000; stroke-width: 0.8"/>
      </g>
     </g>
     <g id="text_10">
      <!-- 0 -->
      <g transform="translate(65.5125 339.358281) scale(0.22 -0.22)">
       <use xlink:href="#DejaVuSans-30"/>
      </g>
     </g>
    </g>
    <g id="ytick_2">
     <g id="line2d_19">
      <path d="M 86.51 245.041404 
L 897.84 245.041404 
" clip-path="url(#pd002d218eb)" style="fill: none; stroke-dasharray: 5.12,1.28,0.8,1.28; stroke-dashoffset: 0; stroke: #b0b0b0; stroke-width: 0.8"/>
     </g>
     <g id="line2d_20">
      <g>
       <use xlink:href="#m6549d08b2c" x="86.51" y="245.041404" style="stroke: #000000; stroke-width: 0.8"/>
      </g>
     </g>
     <g id="text_11">
      <!-- 10 -->
      <g transform="translate(51.515 253.399686) scale(0.22 -0.22)">
       <use xlink:href="#DejaVuSans-31"/>
       <use xlink:href="#DejaVuSans-30" x="63.623047"/>
      </g>
     </g>
    </g>
    <g id="ytick_3">
     <g id="line2d_21">
      <path d="M 86.51 159.082809 
L 897.84 159.082809 
" clip-path="url(#pd002d218eb)" style="fill: none; stroke-dasharray: 5.12,1.28,0.8,1.28; stroke-dashoffset: 0; stroke: #b0b0b0; stroke-width: 0.8"/>
     </g>
     <g id="line2d_22">
      <g>
       <use xlink:href="#m6549d08b2c" x="86.51" y="159.082809" style="stroke: #000000; stroke-width: 0.8"/>
      </g>
     </g>
     <g id="text_12">
      <!-- 20 -->
      <g transform="translate(51.515 167.44109) scale(0.22 -0.22)">
       <use xlink:href="#DejaVuSans-32"/>
       <use xlink:href="#DejaVuSans-30" x="63.623047"/>
      </g>
     </g>
    </g>
    <g id="ytick_4">
     <g id="line2d_23">
      <path d="M 86.51 73.124213 
L 897.84 73.124213 
" clip-path="url(#pd002d218eb)" style="fill: none; stroke-dasharray: 5.12,1.28,0.8,1.28; stroke-dashoffset: 0; stroke: #b0b0b0; stroke-width: 0.8"/>
     </g>
     <g id="line2d_24">
      <g>
       <use xlink:href="#m6549d08b2c" x="86.51" y="73.124213" style="stroke: #000000; stroke-width: 0.8"/>
      </g>
     </g>
     <g id="text_13">
      <!-- 30 -->
      <g transform="translate(51.515 81.482494) scale(0.22 -0.22)">
       <defs>
        <path id="DejaVuSans-33" d="M 2597 2516 
Q 3050 2419 3304 2112 
Q 3559 1806 3559 1356 
Q 3559 666 3084 287 
Q 2609 -91 1734 -91 
Q 1441 -91 1130 -33 
Q 819 25 488 141 
L 488 750 
Q 750 597 1062 519 
Q 1375 441 1716 441 
Q 2309 441 2620 675 
Q 2931 909 2931 1356 
Q 2931 1769 2642 2001 
Q 2353 2234 1838 2234 
L 1294 2234 
L 1294 2753 
L 1863 2753 
Q 2328 2753 2575 2939 
Q 2822 3125 2822 3475 
Q 2822 3834 2567 4026 
Q 2313 4219 1838 4219 
Q 1578 4219 1281 4162 
Q 984 4106 628 3988 
L 628 4550 
Q 988 4650 1302 4700 
Q 1616 4750 1894 4750 
Q 2613 4750 3031 4423 
Q 3450 4097 3450 3541 
Q 3450 3153 3228 2886 
Q 3006 2619 2597 2516 
z
" transform="scale(0.015625)"/>
       </defs>
       <use xlink:href="#DejaVuSans-33"/>
       <use xlink:href="#DejaVuSans-30" x="63.623047"/>
      </g>
     </g>
    </g>
    <g id="text_14">
     <!-- Throughput (Mbps) -->
     <g transform="translate(42.52375 292.094375) rotate(-90) scale(0.24 -0.24)">
      <defs>
       <path id="DejaVuSans-68" d="M 3513 2113 
L 3513 0 
L 2938 0 
L 2938 2094 
Q 2938 2591 2744 2837 
Q 2550 3084 2163 3084 
Q 1697 3084 1428 2787 
Q 1159 2491 1159 1978 
L 1159 0 
L 581 0 
L 581 4863 
L 1159 4863 
L 1159 2956 
Q 1366 3272 1645 3428 
Q 1925 3584 2291 3584 
Q 2894 3584 3203 3211 
Q 3513 2838 3513 2113 
z
" transform="scale(0.015625)"/>
       <path id="DejaVuSans-72" d="M 2631 2963 
Q 2534 3019 2420 3045 
Q 2306 3072 2169 3072 
Q 1681 3072 1420 2755 
Q 1159 2438 1159 1844 
L 1159 0 
L 581 0 
L 581 3500 
L 1159 3500 
L 1159 2956 
Q 1341 3275 1631 3429 
Q 1922 3584 2338 3584 
Q 2397 3584 2469 3576 
Q 2541 3569 2628 3553 
L 2631 2963 
z
" transform="scale(0.015625)"/>
       <path id="DejaVuSans-6f" d="M 1959 3097 
Q 1497 3097 1228 2736 
Q 959 2375 959 1747 
Q 959 1119 1226 758 
Q 1494 397 1959 397 
Q 2419 397 2687 759 
Q 2956 1122 2956 1747 
Q 2956 2369 2687 2733 
Q 2419 3097 1959 3097 
z
M 1959 3584 
Q 2709 3584 3137 3096 
Q 3566 2609 3566 1747 
Q 3566 888 3137 398 
Q 2709 -91 1959 -91 
Q 1206 -91 779 398 
Q 353 888 353 1747 
Q 353 2609 779 3096 
Q 1206 3584 1959 3584 
z
" transform="scale(0.015625)"/>
       <path id="DejaVuSans-75" d="M 544 1381 
L 544 3500 
L 1119 3500 
L 1119 1403 
Q 1119 906 1312 657 
Q 1506 409 1894 409 
Q 2359 409 2629 706 
Q 2900 1003 2900 1516 
L 2900 3500 
L 3475 3500 
L 3475 0 
L 2900 0 
L 2900 538 
Q 2691 219 2414 64 
Q 2138 -91 1772 -91 
Q 1169 -91 856 284 
Q 544 659 544 1381 
z
M 1991 3584 
L 1991 3584 
z
" transform="scale(0.015625)"/>
       <path id="DejaVuSans-67" d="M 2906 1791 
Q 2906 2416 2648 2759 
Q 2391 3103 1925 3103 
Q 1463 3103 1205 2759 
Q 947 2416 947 1791 
Q 947 1169 1205 825 
Q 1463 481 1925 481 
Q 2391 481 2648 825 
Q 2906 1169 2906 1791 
z
M 3481 434 
Q 3481 -459 3084 -895 
Q 2688 -1331 1869 -1331 
Q 1566 -1331 1297 -1286 
Q 1028 -1241 775 -1147 
L 775 -588 
Q 1028 -725 1275 -790 
Q 1522 -856 1778 -856 
Q 2344 -856 2625 -561 
Q 2906 -266 2906 331 
L 2906 616 
Q 2728 306 2450 153 
Q 2172 0 1784 0 
Q 1141 0 747 490 
Q 353 981 353 1791 
Q 353 2603 747 3093 
Q 1141 3584 1784 3584 
Q 2172 3584 2450 3431 
Q 2728 3278 2906 2969 
L 2906 3500 
L 3481 3500 
L 3481 434 
z
" transform="scale(0.015625)"/>
       <path id="DejaVuSans-70" d="M 1159 525 
L 1159 -1331 
L 581 -1331 
L 581 3500 
L 1159 3500 
L 1159 2969 
Q 1341 3281 1617 3432 
Q 1894 3584 2278 3584 
Q 2916 3584 3314 3078 
Q 3713 2572 3713 1747 
Q 3713 922 3314 415 
Q 2916 -91 2278 -91 
Q 1894 -91 1617 61 
Q 1341 213 1159 525 
z
M 3116 1747 
Q 3116 2381 2855 2742 
Q 2594 3103 2138 3103 
Q 1681 3103 1420 2742 
Q 1159 2381 1159 1747 
Q 1159 1113 1420 752 
Q 1681 391 2138 391 
Q 2594 391 2855 752 
Q 3116 1113 3116 1747 
z
" transform="scale(0.015625)"/>
       <path id="DejaVuSans-74" d="M 1172 4494 
L 1172 3500 
L 2356 3500 
L 2356 3053 
L 1172 3053 
L 1172 1153 
Q 1172 725 1289 603 
Q 1406 481 1766 481 
L 2356 481 
L 2356 0 
L 1766 0 
Q 1100 0 847 248 
Q 594 497 594 1153 
L 594 3053 
L 172 3053 
L 172 3500 
L 594 3500 
L 594 4494 
L 1172 4494 
z
" transform="scale(0.015625)"/>
       <path id="DejaVuSans-4d" d="M 628 4666 
L 1569 4666 
L 2759 1491 
L 3956 4666 
L 4897 4666 
L 4897 0 
L 4281 0 
L 4281 4097 
L 3078 897 
L 2444 897 
L 1241 4097 
L 1241 0 
L 628 0 
L 628 4666 
z
" transform="scale(0.015625)"/>
       <path id="DejaVuSans-62" d="M 3116 1747 
Q 3116 2381 2855 2742 
Q 2594 3103 2138 3103 
Q 1681 3103 1420 2742 
Q 1159 2381 1159 1747 
Q 1159 1113 1420 752 
Q 1681 391 2138 391 
Q 2594 391 2855 752 
Q 3116 1113 3116 1747 
z
M 1159 2969 
Q 1341 3281 1617 3432 
Q 1894 3584 2278 3584 
Q 2916 3584 3314 3078 
Q 3713 2572 3713 1747 
Q 3713 922 3314 415 
Q 2916 -91 2278 -91 
Q 1894 -91 1617 61 
Q 1341 213 1159 525 
L 1159 0 
L 581 0 
L 581 4863 
L 1159 4863 
L 1159 2969 
z
" transform="scale(0.015625)"/>
      </defs>
      <use xlink:href="#DejaVuSans-54"/>
      <use xlink:href="#DejaVuSans-68" x="61.083984"/>
      <use xlink:href="#DejaVuSans-72" x="124.462891"/>
      <use xlink:href="#DejaVuSans-6f" x="163.326172"/>
      <use xlink:href="#DejaVuSans-75" x="224.507812"/>
      <use xlink:href="#DejaVuSans-67" x="287.886719"/>
      <use xlink:href="#DejaVuSans-68" x="351.363281"/>
      <use xlink:href="#DejaVuSans-70" x="414.742188"/>
      <use xlink:href="#DejaVuSans-75" x="478.21875"/>
      <use xlink:href="#DejaVuSans-74" x="541.597656"/>
      <use xlink:href="#DejaVuSans-20" x="580.806641"/>
      <use xlink:href="#DejaVuSans-28" x="612.59375"/>
      <use xlink:href="#DejaVuSans-4d" x="651.607422"/>
      <use xlink:href="#DejaVuSans-62" x="737.886719"/>
      <use xlink:href="#DejaVuSans-70" x="801.363281"/>
      <use xlink:href="#DejaVuSans-73" x="864.839844"/>
      <use xlink:href="#DejaVuSans-29" x="916.939453"/>
     </g>
    </g>
   </g>
   <g id="patch_3">
    <path d="M 86.51 331 
L 86.51 23.76 
" style="fill: none; stroke: #000000; stroke-width: 0.8; stroke-linejoin: miter; stroke-linecap: square"/>
   </g>
   <g id="patch_4">
    <path d="M 897.84 331 
L 897.84 23.76 
" style="fill: none; stroke: #000000; stroke-width: 0.8; stroke-linejoin: miter; stroke-linecap: square"/>
   </g>
   <g id="patch_5">
    <path d="M 86.51 331 
L 897.84 331 
" style="fill: none; stroke: #000000; stroke-width: 0.8; stroke-linejoin: miter; stroke-linecap: square"/>
   </g>
   <g id="patch_6">
    <path d="M 86.51 23.76 
L 897.84 23.76 
" style="fill: none; stroke: #000000; stroke-width: 0.8; stroke-linejoin: miter; stroke-linecap: square"/>
   </g>
   <g id="legend_1">
    <g id="patch_7">
     <path d="M 756.24 113.415 
L 881.04 113.415 
Q 885.84 113.415 885.84 108.615 
L 885.84 40.56 
Q 885.84 35.76 881.04 35.76 
L 756.24 35.76 
Q 751.44 35.76 751.44 40.56 
L 751.44 108.615 
Q 751.44 113.415 756.24 113.415 
z
" style="fill: #ffffff; opacity: 0.8; stroke: #cccccc; stroke-linejoin: miter"/>
    </g>
    <g id="patch_8">
     <path d="M 761.04 63.59625 
L 809.04 63.59625 
L 809.04 46.79625 
L 761.04 46.79625 
z
" style="fill: #1f77b4"/>
    </g>
    <g id="text_15">
     <!-- UE1 -->
     <g transform="translate(828.24 63.59625) scale(0.24 -0.24)">
      <defs>
       <path id="DejaVuSans-55" d="M 556 4666 
L 1191 4666 
L 1191 1831 
Q 1191 1081 1462 751 
Q 1734 422 2344 422 
Q 2950 422 3222 751 
Q 3494 1081 3494 1831 
L 3494 4666 
L 4128 4666 
L 4128 1753 
Q 4128 841 3676 375 
Q 3225 -91 2344 -91 
Q 1459 -91 1007 375 
Q 556 841 556 1753 
L 556 4666 
z
" transform="scale(0.015625)"/>
       <path id="DejaVuSans-45" d="M 628 4666 
L 3578 4666 
L 3578 4134 
L 1259 4134 
L 1259 2753 
L 3481 2753 
L 3481 2222 
L 1259 2222 
L 1259 531 
L 3634 531 
L 3634 0 
L 628 0 
L 628 4666 
z
" transform="scale(0.015625)"/>
      </defs>
      <use xlink:href="#DejaVuSans-55"/>
      <use xlink:href="#DejaVuSans-45" x="73.193359"/>
      <use xlink:href="#DejaVuSans-31" x="136.376953"/>
     </g>
    </g>
    <g id="patch_9">
     <path d="M 761.04 98.82375 
L 809.04 98.82375 
L 809.04 82.02375 
L 761.04 82.02375 
z
" style="fill: #ff7f0e"/>
    </g>
    <g id="text_16">
     <!-- UE2 -->
     <g transform="translate(828.24 98.82375) scale(0.24 -0.24)">
      <use xlink:href="#DejaVuSans-55"/>
      <use xlink:href="#DejaVuSans-45" x="73.193359"/>
      <use xlink:href="#DejaVuSans-32" x="136.376953"/>
     </g>
    </g>
   </g>
  </g>
 </g>
 <defs>
  <clipPath id="pd002d218eb">
   <rect x="86.51" y="23.76" width="811.33" height="307.24"/>
  </clipPath>
 </defs>
</svg>
