<?xml version="1.0" encoding="utf-8" standalone="no"?>
<!DOCTYPE svg PUBLIC "-//W3C//DTD SVG 1.1//EN"
  "http://www.w3.org/Graphics/SVG/1.1/DTD/svg11.dtd">
<svg xmlns:xlink="http://www.w3.org/1999/xlink" width="921.6pt" height="410.4pt" viewBox="0 0 921.6 410.4" xmlns="http://www.w3.org/2000/svg" version="1.1">
 <metadata>
  <rdf:RDF xmlns:dc="http://purl.org/dc/elements/1.1/" xmlns:cc="http://creativecommons.org/ns#" xmlns:rdf="http://www.w3.org/1999/02/22-rdf-syntax-ns#">
   <cc:Work>
    <dc:type rdf:resource="http://purl.org/dc/dcmitype/StillImage"/>
    <dc:date>2023-05-08T14:05:01.130950</dc:date>
    <dc:format>image/svg+xml</dc:format>
    <dc:creator>
     <cc:Agent>
      <dc:title>Matplotlib v3.7.1, https://matplotlib.org/</dc:title>
     </cc:Agent>
    </dc:creator>
   </cc:Work>
  </rdf:RDF>
 </metadata>
 <defs>
  <style type="text/css">*{stroke-linejoin: round; stroke-linecap: butt}</style>
 </defs>
 <g id="figure_1">
  <g id="patch_1">
   <path d="M 0 410.4 
L 921.6 410.4 
L 921.6 0 
L 0 0 
z
" style="fill: #ffffff"/>
  </g>
  <g id="axes_1">
   <g id="patch_2">
    <path d="M 86.51 331 
L 897.84 331 
L 897.84 23.76 
L 86.51 23.76 
z
" style="fill: #ffffff"/>
   </g>
   <g id="PolyCollection_1">
    <path d="M 123.388636 187.132713 
L 123.388636 331 
L 127.13266 331 
L 130.876684 331 
L 134.620708 331 
L 138.364732 331 
L 142.108756 331 
L 145.85278 331 
L 149.596804 331 
L 153.340828 331 
L 157.084852 331 
L 160.828876 331 
L 164.5729 331 
L 168.316924 331 
L 172.060948 331 
L 175.804972 331 
L 179.548996 331 
L 183.29302 331 
L 187.037044 331 
L 190.781068 331 
L 194.525092 331 
L 198.269116 331 
L 202.01314 331 
L 205.757164 331 
L 209.501188 331 
L 213.245212 331 
L 216.989236 331 
L 220.73326 331 
L 224.477284 331 
L 228.221308 331 
L 231.965332 331 
L 235.709356 331 
L 239.45338 331 
L 243.197404 331 
L 246.941428 331 
L 250.685452 331 
L 254.429476 331 
L 258.1735 331 
L 261.917524 331 
L 265.661548 331 
L 269.405572 331 
L 273.149596 331 
L 276.89362 331 
L 280.637644 331 
L 284.381668 331 
L 288.125692 331 
L 291.869716 331 
L 295.61374 331 
L 299.357764 331 
L 303.101788 331 
L 306.845812 331 
L 310.589836 331 
L 314.33386 331 
L 318.077884 331 
L 321.821908 331 
L 325.565932 331 
L 329.309956 331 
L 333.05398 331 
L 336.798004 331 
L 340.542028 331 
L 344.286052 331 
L 348.030076 331 
L 351.7741 331 
L 355.518124 331 
L 359.262148 331 
L 363.006172 331 
L 366.750196 331 
L 370.49422 331 
L 374.238244 331 
L 377.982268 331 
L 381.726292 331 
L 385.470316 331 
L 389.21434 331 
L 392.958364 331 
L 396.702388 331 
L 400.446412 331 
L 404.190436 331 
L 407.93446 331 
L 411.678484 331 
L 415.422508 331 
L 419.166532 331 
L 422.910556 331 
L 426.65458 331 
L 430.398604 331 
L 434.142628 331 
L 437.886652 331 
L 441.630676 331 
L 445.3747 331 
L 449.118724 331 
L 452.862748 331 
L 456.606772 331 
L 460.350796 331 
L 464.09482 331 
L 467.838844 331 
L 471.582868 331 
L 475.326892 331 
L 479.070916 331 
L 482.81494 331 
L 486.558964 331 
L 490.302988 331 
L 494.047012 331 
L 497.791036 331 
L 501.53506 331 
L 505.279084 331 
L 509.023108 331 
L 512.767132 331 
L 516.511156 331 
L 520.25518 331 
L 523.999204 331 
L 527.743228 331 
L 531.487252 331 
L 535.231276 331 
L 538.9753 331 
L 542.719324 331 
L 546.463348 331 
L 550.207372 331 
L 553.951396 331 
L 557.69542 331 
L 561.439444 331 
L 565.183468 331 
L 568.927492 331 
L 572.671516 331 
L 576.41554 331 
L 580.159564 331 
L 583.903588 331 
L 587.647612 331 
L 591.391636 331 
L 595.13566 331 
L 598.879684 331 
L 602.623708 331 
L 606.367732 331 
L 610.111756 331 
L 613.85578 331 
L 617.599804 331 
L 621.343828 331 
L 625.087852 331 
L 628.831876 331 
L 632.5759 331 
L 636.319924 331 
L 640.063948 331 
L 643.807972 331 
L 647.551996 331 
L 651.29602 331 
L 655.040044 331 
L 658.784068 331 
L 662.528092 331 
L 666.272116 331 
L 670.01614 331 
L 673.760164 331 
L 677.504188 331 
L 681.248212 331 
L 684.992236 331 
L 688.73626 331 
L 692.480284 331 
L 696.224308 331 
L 699.968332 331 
L 703.712356 331 
L 707.45638 331 
L 711.200404 331 
L 714.944428 331 
L 718.688452 331 
L 722.432476 331 
L 726.1765 331 
L 729.920524 331 
L 733.664548 331 
L 737.408572 331 
L 741.152596 331 
L 744.89662 331 
L 748.640644 331 
L 752.384668 331 
L 756.128692 331 
L 759.872716 331 
L 763.61674 331 
L 767.360764 331 
L 771.104788 331 
L 774.848812 331 
L 778.592836 331 
L 782.33686 331 
L 786.080884 331 
L 789.824908 331 
L 793.568932 331 
L 797.312956 331 
L 801.05698 331 
L 804.801004 331 
L 808.545028 331 
L 812.289052 331 
L 816.033076 331 
L 819.7771 331 
L 823.521124 331 
L 827.265148 331 
L 831.009172 331 
L 834.753196 331 
L 838.49722 331 
L 842.241244 331 
L 845.985268 331 
L 849.729292 331 
L 853.473316 331 
L 857.21734 331 
L 860.961364 331 
L 860.961364 331 
L 860.961364 331 
L 857.21734 185.051225 
L 853.473316 185.060444 
L 849.729292 184.945608 
L 845.985268 184.934989 
L 842.241244 184.875918 
L 838.49722 184.865045 
L 834.753196 185.173437 
L 831.009172 185.365212 
L 827.265148 184.970979 
L 823.521124 184.89989 
L 819.7771 184.92418 
L 816.033076 184.906693 
L 812.289052 184.877507 
L 808.545028 184.59207 
L 804.801004 185.170512 
L 801.05698 185.162818 
L 797.312956 185.361397 
L 793.568932 185.087341 
L 789.824908 184.874964 
L 786.080884 184.917185 
L 782.33686 184.895057 
L 778.592836 184.905231 
L 774.848812 185.141453 
L 771.104788 184.701565 
L 767.360764 185.313135 
L 763.61674 184.791857 
L 759.872716 184.892132 
L 756.128692 184.658326 
L 752.384668 184.870831 
L 748.640644 185.462181 
L 744.89662 184.897601 
L 741.152596 185.126701 
L 737.408572 185.258579 
L 733.664548 185.11055 
L 729.920524 185.026044 
L 726.1765 184.875028 
L 722.432476 184.903832 
L 718.688452 184.969453 
L 714.944428 185.0827 
L 711.200404 184.872421 
L 707.45638 185.246179 
L 703.712356 184.902497 
L 699.968332 184.902433 
L 696.224308 184.912162 
L 692.480284 184.600845 
L 688.73626 185.102856 
L 684.992236 187.26014 
L 681.248212 184.961377 
L 677.504188 185.317968 
L 673.760164 184.884375 
L 670.01614 184.527021 
L 666.272116 185.214577 
L 662.528092 185.009894 
L 658.784068 184.629649 
L 655.040044 185.199253 
L 651.29602 184.876744 
L 647.551996 185.287256 
L 643.807972 186.554844 
L 640.063948 184.93696 
L 636.319924 185.299337 
L 632.5759 185.595012 
L 628.831876 186.132441 
L 625.087852 185.276192 
L 621.343828 184.677148 
L 617.599804 185.120851 
L 613.85578 185.03253 
L 610.111756 184.946244 
L 606.367732 185.140499 
L 602.623708 184.876236 
L 598.879684 184.714918 
L 595.13566 185.267226 
L 591.391636 184.97365 
L 587.647612 185.026871 
L 583.903588 185.156269 
L 580.159564 184.874773 
L 576.41554 184.639886 
L 572.671516 185.18342 
L 568.927492 185.03927 
L 565.183468 184.933145 
L 561.439444 185.142788 
L 557.69542 185.052623 
L 553.951396 184.818818 
L 550.207372 185.142788 
L 546.463348 184.651904 
L 542.719324 184.898554 
L 538.9753 185.234098 
L 535.231276 184.869559 
L 531.487252 184.721849 
L 527.743228 184.937151 
L 523.999204 185.205802 
L 520.25518 184.825303 
L 516.511156 185.180749 
L 512.767132 184.634227 
L 509.023108 185.393572 
L 505.279084 184.924625 
L 501.53506 185.23785 
L 497.791036 185.345183 
L 494.047012 184.643892 
L 490.302988 184.94014 
L 486.558964 184.92418 
L 482.81494 185.159384 
L 479.070916 184.775961 
L 475.326892 185.223861 
L 471.582868 184.945163 
L 467.838844 185.105463 
L 464.09482 185.137066 
L 460.350796 185.230919 
L 456.606772 184.755931 
L 452.862748 184.978228 
L 449.118724 185.296539 
L 445.3747 184.615406 
L 441.630676 185.575746 
L 437.886652 184.984459 
L 434.142628 185.188252 
L 430.398604 185.186917 
L 426.65458 184.834333 
L 422.910556 185.276383 
L 419.166532 184.661061 
L 415.422508 184.756694 
L 411.678484 185.018541 
L 407.93446 185.219092 
L 404.190436 185.342576 
L 400.446412 184.930347 
L 396.702388 184.912416 
L 392.958364 184.61655 
L 389.21434 184.888635 
L 385.470316 184.962713 
L 381.726292 185.20523 
L 377.982268 185.135985 
L 374.238244 184.937596 
L 370.49422 184.907075 
L 366.750196 185.311864 
L 363.006172 185.588654 
L 359.262148 184.926151 
L 355.518124 184.775961 
L 351.7741 185.216803 
L 348.030076 185.209299 
L 344.286052 184.997812 
L 340.542028 184.856015 
L 336.798004 184.929712 
L 333.05398 185.052814 
L 329.309956 185.161673 
L 325.565932 184.641858 
L 321.821908 184.934862 
L 318.077884 185.026044 
L 314.33386 184.890225 
L 310.589836 184.99228 
L 306.845812 184.927677 
L 303.101788 184.592451 
L 299.357764 184.828928 
L 295.61374 184.978228 
L 291.869716 187.128453 
L 288.125692 184.957244 
L 284.381668 184.802603 
L 280.637644 185.117608 
L 276.89362 184.940712 
L 273.149596 184.568479 
L 269.405572 185.276192 
L 265.661548 186.528137 
L 261.917524 184.36316 
L 258.1735 185.181322 
L 254.429476 184.301927 
L 250.685452 184.857541 
L 246.941428 184.371363 
L 243.197404 184.847558 
L 239.45338 184.897219 
L 235.709356 184.684333 
L 231.965332 185.043721 
L 228.221308 184.965065 
L 224.477284 184.936134 
L 220.73326 184.756185 
L 216.989236 185.19105 
L 213.245212 184.732722 
L 209.501188 184.85964 
L 205.757164 184.585838 
L 202.01314 185.018732 
L 198.269116 184.721404 
L 194.525092 185.239694 
L 190.781068 184.751098 
L 187.037044 184.787851 
L 183.29302 184.554808 
L 179.548996 185.011483 
L 175.804972 184.521426 
L 172.060948 185.034311 
L 168.316924 184.815893 
L 164.5729 185.011674 
L 160.828876 184.684079 
L 157.084852 184.788741 
L 153.340828 185.121614 
L 149.596804 184.753896 
L 145.85278 184.7256 
L 142.108756 184.811124 
L 138.364732 185.093001 
L 134.620708 184.788042 
L 130.876684 184.43196 
L 127.13266 184.791666 
L 123.388636 187.132713 
z
" clip-path="url(#pfef2cfa2b2)" style="fill: #1f77b4"/>
   </g>
   <g id="PolyCollection_2">
    <path d="M 123.388636 43.349615 
L 123.388636 187.132713 
L 127.13266 184.791666 
L 130.876684 184.43196 
L 134.620708 184.788042 
L 138.364732 185.093001 
L 142.108756 184.811124 
L 145.85278 184.7256 
L 149.596804 184.753896 
L 153.340828 185.121614 
L 157.084852 184.788741 
L 160.828876 184.684079 
L 164.5729 185.011674 
L 168.316924 184.815893 
L 172.060948 185.034311 
L 175.804972 184.521426 
L 179.548996 185.011483 
L 183.29302 184.554808 
L 187.037044 184.787851 
L 190.781068 184.751098 
L 194.525092 185.239694 
L 198.269116 184.721404 
L 202.01314 185.018732 
L 205.757164 184.585838 
L 209.501188 184.85964 
L 213.245212 184.732722 
L 216.989236 185.19105 
L 220.73326 184.756185 
L 224.477284 184.936134 
L 228.221308 184.965065 
L 231.965332 185.043721 
L 235.709356 184.684333 
L 239.45338 184.897219 
L 243.197404 184.847558 
L 246.941428 184.371363 
L 250.685452 184.857541 
L 254.429476 184.301927 
L 258.1735 185.181322 
L 261.917524 184.36316 
L 265.661548 186.528137 
L 269.405572 185.276192 
L 273.149596 184.568479 
L 276.89362 184.940712 
L 280.637644 185.117608 
L 284.381668 184.802603 
L 288.125692 184.957244 
L 291.869716 187.128453 
L 295.61374 184.978228 
L 299.357764 184.828928 
L 303.101788 184.592451 
L 306.845812 184.927677 
L 310.589836 184.99228 
L 314.33386 184.890225 
L 318.077884 185.026044 
L 321.821908 184.934862 
L 325.565932 184.641858 
L 329.309956 185.161673 
L 333.05398 185.052814 
L 336.798004 184.929712 
L 340.542028 184.856015 
L 344.286052 184.997812 
L 348.030076 185.209299 
L 351.7741 185.216803 
L 355.518124 184.775961 
L 359.262148 184.926151 
L 363.006172 185.588654 
L 366.750196 185.311864 
L 370.49422 184.907075 
L 374.238244 184.937596 
L 377.982268 185.135985 
L 381.726292 185.20523 
L 385.470316 184.962713 
L 389.21434 184.888635 
L 392.958364 184.61655 
L 396.702388 184.912416 
L 400.446412 184.930347 
L 404.190436 185.342576 
L 407.93446 185.219092 
L 411.678484 185.018541 
L 415.422508 184.756694 
L 419.166532 184.661061 
L 422.910556 185.276383 
L 426.65458 184.834333 
L 430.398604 185.186917 
L 434.142628 185.188252 
L 437.886652 184.984459 
L 441.630676 185.575746 
L 445.3747 184.615406 
L 449.118724 185.296539 
L 452.862748 184.978228 
L 456.606772 184.755931 
L 460.350796 185.230919 
L 464.09482 185.137066 
L 467.838844 185.105463 
L 471.582868 184.945163 
L 475.326892 185.223861 
L 479.070916 184.775961 
L 482.81494 185.159384 
L 486.558964 184.92418 
L 490.302988 184.94014 
L 494.047012 184.643892 
L 497.791036 185.345183 
L 501.53506 185.23785 
L 505.279084 184.924625 
L 509.023108 185.393572 
L 512.767132 184.634227 
L 516.511156 185.180749 
L 520.25518 184.825303 
L 523.999204 185.205802 
L 527.743228 184.937151 
L 531.487252 184.721849 
L 535.231276 184.869559 
L 538.9753 185.234098 
L 542.719324 184.898554 
L 546.463348 184.651904 
L 550.207372 185.142788 
L 553.951396 184.818818 
L 557.69542 185.052623 
L 561.439444 185.142788 
L 565.183468 184.933145 
L 568.927492 185.03927 
L 572.671516 185.18342 
L 576.41554 184.639886 
L 580.159564 184.874773 
L 583.903588 185.156269 
L 587.647612 185.026871 
L 591.391636 184.97365 
L 595.13566 185.267226 
L 598.879684 184.714918 
L 602.623708 184.876236 
L 606.367732 185.140499 
L 610.111756 184.946244 
L 613.85578 185.03253 
L 617.599804 185.120851 
L 621.343828 184.677148 
L 625.087852 185.276192 
L 628.831876 186.132441 
L 632.5759 185.595012 
L 636.319924 185.299337 
L 640.063948 184.93696 
L 643.807972 186.554844 
L 647.551996 185.287256 
L 651.29602 184.876744 
L 655.040044 185.199253 
L 658.784068 184.629649 
L 662.528092 185.009894 
L 666.272116 185.214577 
L 670.01614 184.527021 
L 673.760164 184.884375 
L 677.504188 185.317968 
L 681.248212 184.961377 
L 684.992236 187.26014 
L 688.73626 185.102856 
L 692.480284 184.600845 
L 696.224308 184.912162 
L 699.968332 184.902433 
L 703.712356 184.902497 
L 707.45638 185.246179 
L 711.200404 184.872421 
L 714.944428 185.0827 
L 718.688452 184.969453 
L 722.432476 184.903832 
L 726.1765 184.875028 
L 729.920524 185.026044 
L 733.664548 185.11055 
L 737.408572 185.258579 
L 741.152596 185.126701 
L 744.89662 184.897601 
L 748.640644 185.462181 
L 752.384668 184.870831 
L 756.128692 184.658326 
L 759.872716 184.892132 
L 763.61674 184.791857 
L 767.360764 185.313135 
L 771.104788 184.701565 
L 774.848812 185.141453 
L 778.592836 184.905231 
L 782.33686 184.895057 
L 786.080884 184.917185 
L 789.824908 184.874964 
L 793.568932 185.087341 
L 797.312956 185.361397 
L 801.05698 185.162818 
L 804.801004 185.170512 
L 808.545028 184.59207 
L 812.289052 184.877507 
L 816.033076 184.906693 
L 819.7771 184.92418 
L 823.521124 184.89989 
L 827.265148 184.970979 
L 831.009172 185.365212 
L 834.753196 185.173437 
L 838.49722 184.865045 
L 842.241244 184.875918 
L 845.985268 184.934989 
L 849.729292 184.945608 
L 853.473316 185.060444 
L 857.21734 185.051225 
L 860.961364 331 
L 860.961364 184.900589 
L 860.961364 184.900589 
L 857.21734 38.962687 
L 853.473316 38.995307 
L 849.729292 38.81167 
L 845.985268 39.042551 
L 842.241244 38.977185 
L 838.49722 39.008596 
L 834.753196 39.48441 
L 831.009172 38.987613 
L 827.265148 38.862475 
L 823.521124 38.857643 
L 819.7771 38.798508 
L 816.033076 39.029325 
L 812.289052 38.956646 
L 808.545028 38.448276 
L 804.801004 39.84507 
L 801.05698 38.793802 
L 797.312956 39.532227 
L 793.568932 38.73702 
L 789.824908 39.040198 
L 786.080884 38.583205 
L 782.33686 39.179452 
L 778.592836 38.744714 
L 774.848812 39.305861 
L 771.104788 38.604507 
L 767.360764 38.939923 
L 763.61674 38.716673 
L 759.872716 39.039308 
L 756.128692 38.550777 
L 752.384668 38.493486 
L 748.640644 39.966583 
L 744.89662 38.625999 
L 741.152596 39.787398 
L 737.408572 38.916778 
L 733.664548 39.124259 
L 729.920524 38.94342 
L 726.1765 38.781785 
L 722.432476 38.805629 
L 718.688452 39.755414 
L 714.944428 38.665613 
L 711.200404 38.768114 
L 707.45638 39.404864 
L 703.712356 38.796409 
L 699.968332 38.787889 
L 696.224308 38.573222 
L 692.480284 39.136277 
L 688.73626 41.375904 
L 684.992236 41.106363 
L 681.248212 38.522672 
L 677.504188 39.293652 
L 673.760164 38.86292 
L 670.01614 38.408153 
L 666.272116 39.499925 
L 662.528092 38.539268 
L 658.784068 39.195221 
L 655.040044 39.124958 
L 651.29602 38.480832 
L 647.551996 41.049453 
L 643.807972 40.749836 
L 640.063948 38.62371 
L 636.319924 39.400159 
L 632.5759 41.303607 
L 628.831876 40.748437 
L 625.087852 39.14289 
L 621.343828 38.538441 
L 617.599804 38.993717 
L 613.85578 39.267836 
L 610.111756 38.811098 
L 606.367732 39.042742 
L 602.623708 38.754761 
L 598.879684 38.79323 
L 595.13566 39.525678 
L 591.391636 38.858533 
L 587.647612 38.965739 
L 583.903588 39.081338 
L 580.159564 38.489607 
L 576.41554 38.751454 
L 572.671516 39.242402 
L 568.927492 38.933565 
L 565.183468 38.854146 
L 561.439444 39.337209 
L 557.69542 38.971207 
L 553.951396 38.696007 
L 550.207372 38.831954 
L 546.463348 38.818092 
L 542.719324 38.79164 
L 538.9753 39.245518 
L 535.231276 39.102958 
L 531.487252 38.299421 
L 527.743228 39.094946 
L 523.999204 38.874811 
L 520.25518 38.977884 
L 516.511156 39.090749 
L 512.767132 38.717881 
L 509.023108 39.629959 
L 505.279084 39.135959 
L 501.53506 38.977502 
L 497.791036 39.288375 
L 494.047012 38.719852 
L 490.302988 38.55917 
L 486.558964 39.063852 
L 482.81494 38.815104 
L 479.070916 39.382164 
L 475.326892 39.048401 
L 471.582868 38.486555 
L 467.838844 39.72324 
L 464.09482 39.006625 
L 460.350796 39.067477 
L 456.606772 38.804803 
L 452.862748 38.871695 
L 449.118724 39.734876 
L 445.3747 38.941767 
L 441.630676 39.353932 
L 437.886652 38.84359 
L 434.142628 39.698886 
L 430.398604 38.834307 
L 426.65458 39.115675 
L 422.910556 38.833544 
L 419.166532 39.003891 
L 415.422508 38.96523 
L 411.678484 39.038164 
L 407.93446 39.111097 
L 404.190436 39.523007 
L 400.446412 38.824832 
L 396.702388 38.573858 
L 392.958364 38.734032 
L 389.21434 39.216904 
L 385.470316 38.766206 
L 381.726292 39.536678 
L 377.982268 38.654167 
L 374.238244 39.146832 
L 370.49422 38.850521 
L 366.750196 39.900835 
L 363.006172 39.203869 
L 359.262148 39.14219 
L 355.518124 39.083882 
L 351.7741 39.135514 
L 348.030076 39.057239 
L 344.286052 38.632103 
L 340.542028 38.739182 
L 336.798004 39.181359 
L 333.05398 39.40391 
L 329.309956 38.966629 
L 325.565932 38.705291 
L 321.821908 38.73702 
L 318.077884 38.987931 
L 314.33386 39.210482 
L 310.589836 39.037909 
L 306.845812 38.810716 
L 303.101788 38.978329 
L 299.357764 38.734286 
L 295.61374 41.540656 
L 291.869716 40.88661 
L 288.125692 39.217413 
L 284.381668 38.510781 
L 280.637644 39.35355 
L 276.89362 39.150774 
L 273.149596 38.795328 
L 269.405572 41.313336 
L 265.661548 40.324382 
L 261.917524 38.177081 
L 258.1735 38.802514 
L 254.429476 38.090922 
L 250.685452 38.808109 
L 246.941428 38.187064 
L 243.197404 38.767096 
L 239.45338 39.352024 
L 235.709356 38.8661 
L 231.965332 39.06735 
L 228.221308 38.952895 
L 224.477284 38.829729 
L 220.73326 39.171186 
L 216.989236 39.203296 
L 213.245212 38.726338 
L 209.501188 39.377586 
L 205.757164 38.588038 
L 202.01314 38.970508 
L 198.269116 38.554592 
L 194.525092 39.491977 
L 190.781068 38.813323 
L 187.037044 38.50226 
L 183.29302 38.53914 
L 179.548996 39.733413 
L 175.804972 38.351943 
L 172.060948 39.316098 
L 168.316924 38.868325 
L 164.5729 39.127502 
L 160.828876 38.766651 
L 157.084852 38.618178 
L 153.340828 39.131317 
L 149.596804 39.233182 
L 145.85278 38.949207 
L 142.108756 38.899355 
L 138.364732 39.140473 
L 134.620708 38.571696 
L 130.876684 38.726592 
L 127.13266 39.823324 
L 123.388636 43.349615 
z
" clip-path="url(#pfef2cfa2b2)" style="fill: #ff7f0e"/>
   </g>
   <g id="matplotlib.axis_1">
    <g id="xtick_1">
     <g id="line2d_1">
      <path d="M 123.388636 331 
L 123.388636 23.76 
" clip-path="url(#pfef2cfa2b2)" style="fill: none; stroke-dasharray: 5.12,1.28,0.8,1.28; stroke-dashoffset: 0; stroke: #b0b0b0; stroke-width: 0.8"/>
     </g>
     <g id="line2d_2">
      <defs>
       <path id="me22a90f495" d="M 0 0 
L 0 3.5 
" style="stroke: #000000; stroke-width: 0.8"/>
      </defs>
      <g>
       <use xlink:href="#me22a90f495" x="123.388636" y="331" style="stroke: #000000; stroke-width: 0.8"/>
      </g>
     </g>
     <g id="text_1">
      <!-- 0 -->
      <g transform="translate(116.389886 354.716563) scale(0.22 -0.22)">
       <defs>
        <path id="DejaVuSans-30" d="M 2034 4250 
Q 1547 4250 1301 3770 
Q 1056 3291 1056 2328 
Q 1056 1369 1301 889 
Q 1547 409 2034 409 
Q 2525 409 2770 889 
Q 3016 1369 3016 2328 
Q 3016 3291 2770 3770 
Q 2525 4250 2034 4250 
z
M 2034 4750 
Q 2819 4750 3233 4129 
Q 3647 3509 3647 2328 
Q 3647 1150 3233 529 
Q 2819 -91 2034 -91 
Q 1250 -91 836 529 
Q 422 1150 422 2328 
Q 422 3509 836 4129 
Q 1250 4750 2034 4750 
z
" transform="scale(0.015625)"/>
       </defs>
       <use xlink:href="#DejaVuSans-30"/>
      </g>
     </g>
    </g>
    <g id="xtick_2">
     <g id="line2d_3">
      <path d="M 216.989236 331 
L 216.989236 23.76 
" clip-path="url(#pfef2cfa2b2)" style="fill: none; stroke-dasharray: 5.12,1.28,0.8,1.28; stroke-dashoffset: 0; stroke: #b0b0b0; stroke-width: 0.8"/>
     </g>
     <g id="line2d_4">
      <g>
       <use xlink:href="#me22a90f495" x="216.989236" y="331" style="stroke: #000000; stroke-width: 0.8"/>
      </g>
     </g>
     <g id="text_2">
      <!-- 25 -->
      <g transform="translate(202.991736 354.716563) scale(0.22 -0.22)">
       <defs>
        <path id="DejaVuSans-32" d="M 1228 531 
L 3431 531 
L 3431 0 
L 469 0 
L 469 531 
Q 828 903 1448 1529 
Q 2069 2156 2228 2338 
Q 2531 2678 2651 2914 
Q 2772 3150 2772 3378 
Q 2772 3750 2511 3984 
Q 2250 4219 1831 4219 
Q 1534 4219 1204 4116 
Q 875 4013 500 3803 
L 500 4441 
Q 881 4594 1212 4672 
Q 1544 4750 1819 4750 
Q 2544 4750 2975 4387 
Q 3406 4025 3406 3419 
Q 3406 3131 3298 2873 
Q 3191 2616 2906 2266 
Q 2828 2175 2409 1742 
Q 1991 1309 1228 531 
z
" transform="scale(0.015625)"/>
        <path id="DejaVuSans-35" d="M 691 4666 
L 3169 4666 
L 3169 4134 
L 1269 4134 
L 1269 2991 
Q 1406 3038 1543 3061 
Q 1681 3084 1819 3084 
Q 2600 3084 3056 2656 
Q 3513 2228 3513 1497 
Q 3513 744 3044 326 
Q 2575 -91 1722 -91 
Q 1428 -91 1123 -41 
Q 819 9 494 109 
L 494 744 
Q 775 591 1075 516 
Q 1375 441 1709 441 
Q 2250 441 2565 725 
Q 2881 1009 2881 1497 
Q 2881 1984 2565 2268 
Q 2250 2553 1709 2553 
Q 1456 2553 1204 2497 
Q 953 2441 691 2322 
L 691 4666 
z
" transform="scale(0.015625)"/>
       </defs>
       <use xlink:href="#DejaVuSans-32"/>
       <use xlink:href="#DejaVuSans-35" x="63.623047"/>
      </g>
     </g>
    </g>
    <g id="xtick_3">
     <g id="line2d_5">
      <path d="M 310.589836 331 
L 310.589836 23.76 
" clip-path="url(#pfef2cfa2b2)" style="fill: none; stroke-dasharray: 5.12,1.28,0.8,1.28; stroke-dashoffset: 0; stroke: #b0b0b0; stroke-width: 0.8"/>
     </g>
     <g id="line2d_6">
      <g>
       <use xlink:href="#me22a90f495" x="310.589836" y="331" style="stroke: #000000; stroke-width: 0.8"/>
      </g>
     </g>
     <g id="text_3">
      <!-- 50 -->
      <g transform="translate(296.592336 354.716563) scale(0.22 -0.22)">
       <use xlink:href="#DejaVuSans-35"/>
       <use xlink:href="#DejaVuSans-30" x="63.623047"/>
      </g>
     </g>
    </g>
    <g id="xtick_4">
     <g id="line2d_7">
      <path d="M 404.190436 331 
L 404.190436 23.76 
" clip-path="url(#pfef2cfa2b2)" style="fill: none; stroke-dasharray: 5.12,1.28,0.8,1.28; stroke-dashoffset: 0; stroke: #b0b0b0; stroke-width: 0.8"/>
     </g>
     <g id="line2d_8">
      <g>
       <use xlink:href="#me22a90f495" x="404.190436" y="331" style="stroke: #000000; stroke-width: 0.8"/>
      </g>
     </g>
     <g id="text_4">
      <!-- 75 -->
      <g transform="translate(390.192936 354.716563) scale(0.22 -0.22)">
       <defs>
        <path id="DejaVuSans-37" d="M 525 4666 
L 3525 4666 
L 3525 4397 
L 1831 0 
L 1172 0 
L 2766 4134 
L 525 4134 
L 525 4666 
z
" transform="scale(0.015625)"/>
       </defs>
       <use xlink:href="#DejaVuSans-37"/>
       <use xlink:href="#DejaVuSans-35" x="63.623047"/>
      </g>
     </g>
    </g>
    <g id="xtick_5">
     <g id="line2d_9">
      <path d="M 497.791036 331 
L 497.791036 23.76 
" clip-path="url(#pfef2cfa2b2)" style="fill: none; stroke-dasharray: 5.12,1.28,0.8,1.28; stroke-dashoffset: 0; stroke: #b0b0b0; stroke-width: 0.8"/>
     </g>
     <g id="line2d_10">
      <g>
       <use xlink:href="#me22a90f495" x="497.791036" y="331" style="stroke: #000000; stroke-width: 0.8"/>
      </g>
     </g>
     <g id="text_5">
      <!-- 100 -->
      <g transform="translate(476.794786 354.716563) scale(0.22 -0.22)">
       <defs>
        <path id="DejaVuSans-31" d="M 794 531 
L 1825 531 
L 1825 4091 
L 703 3866 
L 703 4441 
L 1819 4666 
L 2450 4666 
L 2450 531 
L 3481 531 
L 3481 0 
L 794 0 
L 794 531 
z
" transform="scale(0.015625)"/>
       </defs>
       <use xlink:href="#DejaVuSans-31"/>
       <use xlink:href="#DejaVuSans-30" x="63.623047"/>
       <use xlink:href="#DejaVuSans-30" x="127.246094"/>
      </g>
     </g>
    </g>
    <g id="xtick_6">
     <g id="line2d_11">
      <path d="M 591.391636 331 
L 591.391636 23.76 
" clip-path="url(#pfef2cfa2b2)" style="fill: none; stroke-dasharray: 5.12,1.28,0.8,1.28; stroke-dashoffset: 0; stroke: #b0b0b0; stroke-width: 0.8"/>
     </g>
     <g id="line2d_12">
      <g>
       <use xlink:href="#me22a90f495" x="591.391636" y="331" style="stroke: #000000; stroke-width: 0.8"/>
      </g>
     </g>
     <g id="text_6">
      <!-- 125 -->
      <g transform="translate(570.395386 354.716563) scale(0.22 -0.22)">
       <use xlink:href="#DejaVuSans-31"/>
       <use xlink:href="#DejaVuSans-32" x="63.623047"/>
       <use xlink:href="#DejaVuSans-35" x="127.246094"/>
      </g>
     </g>
    </g>
    <g id="xtick_7">
     <g id="line2d_13">
      <path d="M 684.992236 331 
L 684.992236 23.76 
" clip-path="url(#pfef2cfa2b2)" style="fill: none; stroke-dasharray: 5.12,1.28,0.8,1.28; stroke-dashoffset: 0; stroke: #b0b0b0; stroke-width: 0.8"/>
     </g>
     <g id="line2d_14">
      <g>
       <use xlink:href="#me22a90f495" x="684.992236" y="331" style="stroke: #000000; stroke-width: 0.8"/>
      </g>
     </g>
     <g id="text_7">
      <!-- 150 -->
      <g transform="translate(663.995986 354.716563) scale(0.22 -0.22)">
       <use xlink:href="#DejaVuSans-31"/>
       <use xlink:href="#DejaVuSans-35" x="63.623047"/>
       <use xlink:href="#DejaVuSans-30" x="127.246094"/>
      </g>
     </g>
    </g>
    <g id="xtick_8">
     <g id="line2d_15">
      <path d="M 778.592836 331 
L 778.592836 23.76 
" clip-path="url(#pfef2cfa2b2)" style="fill: none; stroke-dasharray: 5.12,1.28,0.8,1.28; stroke-dashoffset: 0; stroke: #b0b0b0; stroke-width: 0.8"/>
     </g>
     <g id="line2d_16">
      <g>
       <use xlink:href="#me22a90f495" x="778.592836" y="331" style="stroke: #000000; stroke-width: 0.8"/>
      </g>
     </g>
     <g id="text_8">
      <!-- 175 -->
      <g transform="translate(757.596586 354.716563) scale(0.22 -0.22)">
       <use xlink:href="#DejaVuSans-31"/>
       <use xlink:href="#DejaVuSans-37" x="63.623047"/>
       <use xlink:href="#DejaVuSans-35" x="127.246094"/>
      </g>
     </g>
    </g>
    <g id="xtick_9">
     <g id="line2d_17">
      <path d="M 872.193436 331 
L 872.193436 23.76 
" clip-path="url(#pfef2cfa2b2)" style="fill: none; stroke-dasharray: 5.12,1.28,0.8,1.28; stroke-dashoffset: 0; stroke: #b0b0b0; stroke-width: 0.8"/>
     </g>
     <g id="line2d_18">
      <g>
       <use xlink:href="#me22a90f495" x="872.193436" y="331" style="stroke: #000000; stroke-width: 0.8"/>
      </g>
     </g>
     <g id="text_9">
      <!-- 200 -->
      <g transform="translate(851.197186 354.716563) scale(0.22 -0.22)">
       <use xlink:href="#DejaVuSans-32"/>
       <use xlink:href="#DejaVuSans-30" x="63.623047"/>
       <use xlink:href="#DejaVuSans-30" x="127.246094"/>
      </g>
     </g>
    </g>
    <g id="text_10">
     <!-- Time (s) -->
     <g transform="translate(443.385625 381.528125) scale(0.24 -0.24)">
      <defs>
       <path id="DejaVuSans-54" d="M -19 4666 
L 3928 4666 
L 3928 4134 
L 2272 4134 
L 2272 0 
L 1638 0 
L 1638 4134 
L -19 4134 
L -19 4666 
z
" transform="scale(0.015625)"/>
       <path id="DejaVuSans-69" d="M 603 3500 
L 1178 3500 
L 1178 0 
L 603 0 
L 603 3500 
z
M 603 4863 
L 1178 4863 
L 1178 4134 
L 603 4134 
L 603 4863 
z
" transform="scale(0.015625)"/>
       <path id="DejaVuSans-6d" d="M 3328 2828 
Q 3544 3216 3844 3400 
Q 4144 3584 4550 3584 
Q 5097 3584 5394 3201 
Q 5691 2819 5691 2113 
L 5691 0 
L 5113 0 
L 5113 2094 
Q 5113 2597 4934 2840 
Q 4756 3084 4391 3084 
Q 3944 3084 3684 2787 
Q 3425 2491 3425 1978 
L 3425 0 
L 2847 0 
L 2847 2094 
Q 2847 2600 2669 2842 
Q 2491 3084 2119 3084 
Q 1678 3084 1418 2786 
Q 1159 2488 1159 1978 
L 1159 0 
L 581 0 
L 581 3500 
L 1159 3500 
L 1159 2956 
Q 1356 3278 1631 3431 
Q 1906 3584 2284 3584 
Q 2666 3584 2933 3390 
Q 3200 3197 3328 2828 
z
" transform="scale(0.015625)"/>
       <path id="DejaVuSans-65" d="M 3597 1894 
L 3597 1613 
L 953 1613 
Q 991 1019 1311 708 
Q 1631 397 2203 397 
Q 2534 397 2845 478 
Q 3156 559 3463 722 
L 3463 178 
Q 3153 47 2828 -22 
Q 2503 -91 2169 -91 
Q 1331 -91 842 396 
Q 353 884 353 1716 
Q 353 2575 817 3079 
Q 1281 3584 2069 3584 
Q 2775 3584 3186 3129 
Q 3597 2675 3597 1894 
z
M 3022 2063 
Q 3016 2534 2758 2815 
Q 2500 3097 2075 3097 
Q 1594 3097 1305 2825 
Q 1016 2553 972 2059 
L 3022 2063 
z
" transform="scale(0.015625)"/>
       <path id="DejaVuSans-20" transform="scale(0.015625)"/>
       <path id="DejaVuSans-28" d="M 1984 4856 
Q 1566 4138 1362 3434 
Q 1159 2731 1159 2009 
Q 1159 1288 1364 580 
Q 1569 -128 1984 -844 
L 1484 -844 
Q 1016 -109 783 600 
Q 550 1309 550 2009 
Q 550 2706 781 3412 
Q 1013 4119 1484 4856 
L 1984 4856 
z
" transform="scale(0.015625)"/>
       <path id="DejaVuSans-73" d="M 2834 3397 
L 2834 2853 
Q 2591 2978 2328 3040 
Q 2066 3103 1784 3103 
Q 1356 3103 1142 2972 
Q 928 2841 928 2578 
Q 928 2378 1081 2264 
Q 1234 2150 1697 2047 
L 1894 2003 
Q 2506 1872 2764 1633 
Q 3022 1394 3022 966 
Q 3022 478 2636 193 
Q 2250 -91 1575 -91 
Q 1294 -91 989 -36 
Q 684 19 347 128 
L 347 722 
Q 666 556 975 473 
Q 1284 391 1588 391 
Q 1994 391 2212 530 
Q 2431 669 2431 922 
Q 2431 1156 2273 1281 
Q 2116 1406 1581 1522 
L 1381 1569 
Q 847 1681 609 1914 
Q 372 2147 372 2553 
Q 372 3047 722 3315 
Q 1072 3584 1716 3584 
Q 2034 3584 2315 3537 
Q 2597 3491 2834 3397 
z
" transform="scale(0.015625)"/>
       <path id="DejaVuSans-29" d="M 513 4856 
L 1013 4856 
Q 1481 4119 1714 3412 
Q 1947 2706 1947 2009 
Q 1947 1309 1714 600 
Q 1481 -109 1013 -844 
L 513 -844 
Q 928 -128 1133 580 
Q 1338 1288 1338 2009 
Q 1338 2731 1133 3434 
Q 928 4138 513 4856 
z
" transform="scale(0.015625)"/>
      </defs>
      <use xlink:href="#DejaVuSans-54"/>
      <use xlink:href="#DejaVuSans-69" x="57.958984"/>
      <use xlink:href="#DejaVuSans-6d" x="85.742188"/>
      <use xlink:href="#DejaVuSans-65" x="183.154297"/>
      <use xlink:href="#DejaVuSans-20" x="244.677734"/>
      <use xlink:href="#DejaVuSans-28" x="276.464844"/>
      <use xlink:href="#DejaVuSans-73" x="315.478516"/>
      <use xlink:href="#DejaVuSans-29" x="367.578125"/>
     </g>
    </g>
   </g>
   <g id="matplotlib.axis_2">
    <g id="ytick_1">
     <g id="line2d_19">
      <path d="M 86.51 331 
L 897.84 331 
" clip-path="url(#pfef2cfa2b2)" style="fill: none; stroke-dasharray: 5.12,1.28,0.8,1.28; stroke-dashoffset: 0; stroke: #b0b0b0; stroke-width: 0.8"/>
     </g>
     <g id="line2d_20">
      <defs>
       <path id="mcf1ceea1b3" d="M 0 0 
L -3.5 0 
" style="stroke: #000000; stroke-width: 0.8"/>
      </defs>
      <g>
       <use xlink:href="#mcf1ceea1b3" x="86.51" y="331" style="stroke: #000000; stroke-width: 0.8"/>
      </g>
     </g>
     <g id="text_11">
      <!-- 0 -->
      <g transform="translate(65.5125 339.358281) scale(0.22 -0.22)">
       <use xlink:href="#DejaVuSans-30"/>
      </g>
     </g>
    </g>
    <g id="ytick_2">
     <g id="line2d_21">
      <path d="M 86.51 251.517454 
L 897.84 251.517454 
" clip-path="url(#pfef2cfa2b2)" style="fill: none; stroke-dasharray: 5.12,1.28,0.8,1.28; stroke-dashoffset: 0; stroke: #b0b0b0; stroke-width: 0.8"/>
     </g>
     <g id="line2d_22">
      <g>
       <use xlink:href="#mcf1ceea1b3" x="86.51" y="251.517454" style="stroke: #000000; stroke-width: 0.8"/>
      </g>
     </g>
     <g id="text_12">
      <!-- 10 -->
      <g transform="translate(51.515 259.875735) scale(0.22 -0.22)">
       <use xlink:href="#DejaVuSans-31"/>
       <use xlink:href="#DejaVuSans-30" x="63.623047"/>
      </g>
     </g>
    </g>
    <g id="ytick_3">
     <g id="line2d_23">
      <path d="M 86.51 172.034908 
L 897.84 172.034908 
" clip-path="url(#pfef2cfa2b2)" style="fill: none; stroke-dasharray: 5.12,1.28,0.8,1.28; stroke-dashoffset: 0; stroke: #b0b0b0; stroke-width: 0.8"/>
     </g>
     <g id="line2d_24">
      <g>
       <use xlink:href="#mcf1ceea1b3" x="86.51" y="172.034908" style="stroke: #000000; stroke-width: 0.8"/>
      </g>
     </g>
     <g id="text_13">
      <!-- 20 -->
      <g transform="translate(51.515 180.39319) scale(0.22 -0.22)">
       <use xlink:href="#DejaVuSans-32"/>
       <use xlink:href="#DejaVuSans-30" x="63.623047"/>
      </g>
     </g>
    </g>
    <g id="ytick_4">
     <g id="line2d_25">
      <path d="M 86.51 92.552363 
L 897.84 92.552363 
" clip-path="url(#pfef2cfa2b2)" style="fill: none; stroke-dasharray: 5.12,1.28,0.8,1.28; stroke-dashoffset: 0; stroke: #b0b0b0; stroke-width: 0.8"/>
     </g>
     <g id="line2d_26">
      <g>
       <use xlink:href="#mcf1ceea1b3" x="86.51" y="92.552363" style="stroke: #000000; stroke-width: 0.8"/>
      </g>
     </g>
     <g id="text_14">
      <!-- 30 -->
      <g transform="translate(51.515 100.910644) scale(0.22 -0.22)">
       <defs>
        <path id="DejaVuSans-33" d="M 2597 2516 
Q 3050 2419 3304 2112 
Q 3559 1806 3559 1356 
Q 3559 666 3084 287 
Q 2609 -91 1734 -91 
Q 1441 -91 1130 -33 
Q 819 25 488 141 
L 488 750 
Q 750 597 1062 519 
Q 1375 441 1716 441 
Q 2309 441 2620 675 
Q 2931 909 2931 1356 
Q 2931 1769 2642 2001 
Q 2353 2234 1838 2234 
L 1294 2234 
L 1294 2753 
L 1863 2753 
Q 2328 2753 2575 2939 
Q 2822 3125 2822 3475 
Q 2822 3834 2567 4026 
Q 2313 4219 1838 4219 
Q 1578 4219 1281 4162 
Q 984 4106 628 3988 
L 628 4550 
Q 988 4650 1302 4700 
Q 1616 4750 1894 4750 
Q 2613 4750 3031 4423 
Q 3450 4097 3450 3541 
Q 3450 3153 3228 2886 
Q 3006 2619 2597 2516 
z
" transform="scale(0.015625)"/>
       </defs>
       <use xlink:href="#DejaVuSans-33"/>
       <use xlink:href="#DejaVuSans-30" x="63.623047"/>
      </g>
     </g>
    </g>
    <g id="text_15">
     <!-- Throughput (Mbps) -->
     <g transform="translate(42.52375 292.094375) rotate(-90) scale(0.24 -0.24)">
      <defs>
       <path id="DejaVuSans-68" d="M 3513 2113 
L 3513 0 
L 2938 0 
L 2938 2094 
Q 2938 2591 2744 2837 
Q 2550 3084 2163 3084 
Q 1697 3084 1428 2787 
Q 1159 2491 1159 1978 
L 1159 0 
L 581 0 
L 581 4863 
L 1159 4863 
L 1159 2956 
Q 1366 3272 1645 3428 
Q 1925 3584 2291 3584 
Q 2894 3584 3203 3211 
Q 3513 2838 3513 2113 
z
" transform="scale(0.015625)"/>
       <path id="DejaVuSans-72" d="M 2631 2963 
Q 2534 3019 2420 3045 
Q 2306 3072 2169 3072 
Q 1681 3072 1420 2755 
Q 1159 2438 1159 1844 
L 1159 0 
L 581 0 
L 581 3500 
L 1159 3500 
L 1159 2956 
Q 1341 3275 1631 3429 
Q 1922 3584 2338 3584 
Q 2397 3584 2469 3576 
Q 2541 3569 2628 3553 
L 2631 2963 
z
" transform="scale(0.015625)"/>
       <path id="DejaVuSans-6f" d="M 1959 3097 
Q 1497 3097 1228 2736 
Q 959 2375 959 1747 
Q 959 1119 1226 758 
Q 1494 397 1959 397 
Q 2419 397 2687 759 
Q 2956 1122 2956 1747 
Q 2956 2369 2687 2733 
Q 2419 3097 1959 3097 
z
M 1959 3584 
Q 2709 3584 3137 3096 
Q 3566 2609 3566 1747 
Q 3566 888 3137 398 
Q 2709 -91 1959 -91 
Q 1206 -91 779 398 
Q 353 888 353 1747 
Q 353 2609 779 3096 
Q 1206 3584 1959 3584 
z
" transform="scale(0.015625)"/>
       <path id="DejaVuSans-75" d="M 544 1381 
L 544 3500 
L 1119 3500 
L 1119 1403 
Q 1119 906 1312 657 
Q 1506 409 1894 409 
Q 2359 409 2629 706 
Q 2900 1003 2900 1516 
L 2900 3500 
L 3475 3500 
L 3475 0 
L 2900 0 
L 2900 538 
Q 2691 219 2414 64 
Q 2138 -91 1772 -91 
Q 1169 -91 856 284 
Q 544 659 544 1381 
z
M 1991 3584 
L 1991 3584 
z
" transform="scale(0.015625)"/>
       <path id="DejaVuSans-67" d="M 2906 1791 
Q 2906 2416 2648 2759 
Q 2391 3103 1925 3103 
Q 1463 3103 1205 2759 
Q 947 2416 947 1791 
Q 947 1169 1205 825 
Q 1463 481 1925 481 
Q 2391 481 2648 825 
Q 2906 1169 2906 1791 
z
M 3481 434 
Q 3481 -459 3084 -895 
Q 2688 -1331 1869 -1331 
Q 1566 -1331 1297 -1286 
Q 1028 -1241 775 -1147 
L 775 -588 
Q 1028 -725 1275 -790 
Q 1522 -856 1778 -856 
Q 2344 -856 2625 -561 
Q 2906 -266 2906 331 
L 2906 616 
Q 2728 306 2450 153 
Q 2172 0 1784 0 
Q 1141 0 747 490 
Q 353 981 353 1791 
Q 353 2603 747 3093 
Q 1141 3584 1784 3584 
Q 2172 3584 2450 3431 
Q 2728 3278 2906 2969 
L 2906 3500 
L 3481 3500 
L 3481 434 
z
" transform="scale(0.015625)"/>
       <path id="DejaVuSans-70" d="M 1159 525 
L 1159 -1331 
L 581 -1331 
L 581 3500 
L 1159 3500 
L 1159 2969 
Q 1341 3281 1617 3432 
Q 1894 3584 2278 3584 
Q 2916 3584 3314 3078 
Q 3713 2572 3713 1747 
Q 3713 922 3314 415 
Q 2916 -91 2278 -91 
Q 1894 -91 1617 61 
Q 1341 213 1159 525 
z
M 3116 1747 
Q 3116 2381 2855 2742 
Q 2594 3103 2138 3103 
Q 1681 3103 1420 2742 
Q 1159 2381 1159 1747 
Q 1159 1113 1420 752 
Q 1681 391 2138 391 
Q 2594 391 2855 752 
Q 3116 1113 3116 1747 
z
" transform="scale(0.015625)"/>
       <path id="DejaVuSans-74" d="M 1172 4494 
L 1172 3500 
L 2356 3500 
L 2356 3053 
L 1172 3053 
L 1172 1153 
Q 1172 725 1289 603 
Q 1406 481 1766 481 
L 2356 481 
L 2356 0 
L 1766 0 
Q 1100 0 847 248 
Q 594 497 594 1153 
L 594 3053 
L 172 3053 
L 172 3500 
L 594 3500 
L 594 4494 
L 1172 4494 
z
" transform="scale(0.015625)"/>
       <path id="DejaVuSans-4d" d="M 628 4666 
L 1569 4666 
L 2759 1491 
L 3956 4666 
L 4897 4666 
L 4897 0 
L 4281 0 
L 4281 4097 
L 3078 897 
L 2444 897 
L 1241 4097 
L 1241 0 
L 628 0 
L 628 4666 
z
" transform="scale(0.015625)"/>
       <path id="DejaVuSans-62" d="M 3116 1747 
Q 3116 2381 2855 2742 
Q 2594 3103 2138 3103 
Q 1681 3103 1420 2742 
Q 1159 2381 1159 1747 
Q 1159 1113 1420 752 
Q 1681 391 2138 391 
Q 2594 391 2855 752 
Q 3116 1113 3116 1747 
z
M 1159 2969 
Q 1341 3281 1617 3432 
Q 1894 3584 2278 3584 
Q 2916 3584 3314 3078 
Q 3713 2572 3713 1747 
Q 3713 922 3314 415 
Q 2916 -91 2278 -91 
Q 1894 -91 1617 61 
Q 1341 213 1159 525 
L 1159 0 
L 581 0 
L 581 4863 
L 1159 4863 
L 1159 2969 
z
" transform="scale(0.015625)"/>
      </defs>
      <use xlink:href="#DejaVuSans-54"/>
      <use xlink:href="#DejaVuSans-68" x="61.083984"/>
      <use xlink:href="#DejaVuSans-72" x="124.462891"/>
      <use xlink:href="#DejaVuSans-6f" x="163.326172"/>
      <use xlink:href="#DejaVuSans-75" x="224.507812"/>
      <use xlink:href="#DejaVuSans-67" x="287.886719"/>
      <use xlink:href="#DejaVuSans-68" x="351.363281"/>
      <use xlink:href="#DejaVuSans-70" x="414.742188"/>
      <use xlink:href="#DejaVuSans-75" x="478.21875"/>
      <use xlink:href="#DejaVuSans-74" x="541.597656"/>
      <use xlink:href="#DejaVuSans-20" x="580.806641"/>
      <use xlink:href="#DejaVuSans-28" x="612.59375"/>
      <use xlink:href="#DejaVuSans-4d" x="651.607422"/>
      <use xlink:href="#DejaVuSans-62" x="737.886719"/>
      <use xlink:href="#DejaVuSans-70" x="801.363281"/>
      <use xlink:href="#DejaVuSans-73" x="864.839844"/>
      <use xlink:href="#DejaVuSans-29" x="916.939453"/>
     </g>
    </g>
   </g>
   <g id="patch_3">
    <path d="M 86.51 331 
L 86.51 23.76 
" style="fill: none; stroke: #000000; stroke-width: 0.8; stroke-linejoin: miter; stroke-linecap: square"/>
   </g>
   <g id="patch_4">
    <path d="M 897.84 331 
L 897.84 23.76 
" style="fill: none; stroke: #000000; stroke-width: 0.8; stroke-linejoin: miter; stroke-linecap: square"/>
   </g>
   <g id="patch_5">
    <path d="M 86.51 331 
L 897.84 331 
" style="fill: none; stroke: #000000; stroke-width: 0.8; stroke-linejoin: miter; stroke-linecap: square"/>
   </g>
   <g id="patch_6">
    <path d="M 86.51 23.76 
L 897.84 23.76 
" style="fill: none; stroke: #000000; stroke-width: 0.8; stroke-linejoin: miter; stroke-linecap: square"/>
   </g>
   <g id="legend_1">
    <g id="patch_7">
     <path d="M 756.24 113.415 
L 881.04 113.415 
Q 885.84 113.415 885.84 108.615 
L 885.84 40.56 
Q 885.84 35.76 881.04 35.76 
L 756.24 35.76 
Q 751.44 35.76 751.44 40.56 
L 751.44 108.615 
Q 751.44 113.415 756.24 113.415 
z
" style="fill: #ffffff; opacity: 0.8; stroke: #cccccc; stroke-linejoin: miter"/>
    </g>
    <g id="patch_8">
     <path d="M 761.04 63.59625 
L 809.04 63.59625 
L 809.04 46.79625 
L 761.04 46.79625 
z
" style="fill: #1f77b4"/>
    </g>
    <g id="text_16">
     <!-- UE1 -->
     <g transform="translate(828.24 63.59625) scale(0.24 -0.24)">
      <defs>
       <path id="DejaVuSans-55" d="M 556 4666 
L 1191 4666 
L 1191 1831 
Q 1191 1081 1462 751 
Q 1734 422 2344 422 
Q 2950 422 3222 751 
Q 3494 1081 3494 1831 
L 3494 4666 
L 4128 4666 
L 4128 1753 
Q 4128 841 3676 375 
Q 3225 -91 2344 -91 
Q 1459 -91 1007 375 
Q 556 841 556 1753 
L 556 4666 
z
" transform="scale(0.015625)"/>
       <path id="DejaVuSans-45" d="M 628 4666 
L 3578 4666 
L 3578 4134 
L 1259 4134 
L 1259 2753 
L 3481 2753 
L 3481 2222 
L 1259 2222 
L 1259 531 
L 3634 531 
L 3634 0 
L 628 0 
L 628 4666 
z
" transform="scale(0.015625)"/>
      </defs>
      <use xlink:href="#DejaVuSans-55"/>
      <use xlink:href="#DejaVuSans-45" x="73.193359"/>
      <use xlink:href="#DejaVuSans-31" x="136.376953"/>
     </g>
    </g>
    <g id="patch_9">
     <path d="M 761.04 98.82375 
L 809.04 98.82375 
L 809.04 82.02375 
L 761.04 82.02375 
z
" style="fill: #ff7f0e"/>
    </g>
    <g id="text_17">
     <!-- UE2 -->
     <g transform="translate(828.24 98.82375) scale(0.24 -0.24)">
      <use xlink:href="#DejaVuSans-55"/>
      <use xlink:href="#DejaVuSans-45" x="73.193359"/>
      <use xlink:href="#DejaVuSans-32" x="136.376953"/>
     </g>
    </g>
   </g>
  </g>
 </g>
 <defs>
  <clipPath id="pfef2cfa2b2">
   <rect x="86.51" y="23.76" width="811.33" height="307.24"/>
  </clipPath>
 </defs>
</svg>
