<?xml version="1.0" encoding="utf-8" standalone="no"?>
<!DOCTYPE svg PUBLIC "-//W3C//DTD SVG 1.1//EN"
  "http://www.w3.org/Graphics/SVG/1.1/DTD/svg11.dtd">
<svg xmlns:xlink="http://www.w3.org/1999/xlink" width="921.6pt" height="410.4pt" viewBox="0 0 921.6 410.4" xmlns="http://www.w3.org/2000/svg" version="1.1">
 <metadata>
  <rdf:RDF xmlns:dc="http://purl.org/dc/elements/1.1/" xmlns:cc="http://creativecommons.org/ns#" xmlns:rdf="http://www.w3.org/1999/02/22-rdf-syntax-ns#">
   <cc:Work>
    <dc:type rdf:resource="http://purl.org/dc/dcmitype/StillImage"/>
    <dc:date>2023-05-08T14:07:12.214814</dc:date>
    <dc:format>image/svg+xml</dc:format>
    <dc:creator>
     <cc:Agent>
      <dc:title>Matplotlib v3.7.1, https://matplotlib.org/</dc:title>
     </cc:Agent>
    </dc:creator>
   </cc:Work>
  </rdf:RDF>
 </metadata>
 <defs>
  <style type="text/css">*{stroke-linejoin: round; stroke-linecap: butt}</style>
 </defs>
 <g id="figure_1">
  <g id="patch_1">
   <path d="M 0 410.4 
L 921.6 410.4 
L 921.6 0 
L 0 0 
z
" style="fill: #ffffff"/>
  </g>
  <g id="axes_1">
   <g id="patch_2">
    <path d="M 107.3 331 
L 897.84 331 
L 897.84 23.76 
L 107.3 23.76 
z
" style="fill: #ffffff"/>
   </g>
   <g id="PolyCollection_1">
    <path d="M 143.233636 237.488576 
L 143.233636 331 
L 147.139466 331 
L 151.045296 331 
L 154.951126 331 
L 158.856957 331 
L 162.762787 331 
L 166.668617 331 
L 170.574447 331 
L 174.480277 331 
L 178.386107 331 
L 182.291937 331 
L 186.197767 331 
L 190.103597 331 
L 194.009427 331 
L 197.915257 331 
L 201.821087 331 
L 205.726917 331 
L 209.632747 331 
L 213.538577 331 
L 217.444407 331 
L 221.350237 331 
L 225.256067 331 
L 229.161897 331 
L 233.067727 331 
L 236.973557 331 
L 240.879387 331 
L 244.785217 331 
L 248.691047 331 
L 252.596877 331 
L 256.502708 331 
L 260.408538 331 
L 264.314368 331 
L 268.220198 331 
L 272.126028 331 
L 276.031858 331 
L 279.937688 331 
L 283.843518 331 
L 287.749348 331 
L 291.655178 331 
L 295.561008 331 
L 299.466838 331 
L 303.372668 331 
L 307.278498 331 
L 311.184328 331 
L 315.090158 331 
L 318.995988 331 
L 322.901818 331 
L 326.807648 331 
L 330.713478 331 
L 334.619308 331 
L 338.525138 331 
L 342.430968 331 
L 346.336798 331 
L 350.242628 331 
L 354.148458 331 
L 358.054289 331 
L 361.960119 331 
L 365.865949 331 
L 369.771779 331 
L 373.677609 331 
L 377.583439 331 
L 381.489269 331 
L 385.395099 331 
L 389.300929 331 
L 393.206759 331 
L 397.112589 331 
L 401.018419 331 
L 404.924249 331 
L 408.830079 331 
L 412.735909 331 
L 416.641739 331 
L 420.547569 331 
L 424.453399 331 
L 428.359229 331 
L 432.265059 331 
L 436.170889 331 
L 440.076719 331 
L 443.982549 331 
L 447.888379 331 
L 451.794209 331 
L 455.70004 331 
L 459.60587 331 
L 463.5117 331 
L 467.41753 331 
L 471.32336 331 
L 475.22919 331 
L 479.13502 331 
L 483.04085 331 
L 486.94668 331 
L 490.85251 331 
L 494.75834 331 
L 498.66417 331 
L 502.57 331 
L 506.47583 331 
L 510.38166 331 
L 514.28749 331 
L 518.19332 331 
L 522.09915 331 
L 526.00498 331 
L 529.91081 331 
L 533.81664 331 
L 537.72247 331 
L 541.6283 331 
L 545.53413 331 
L 549.43996 331 
L 553.345791 331 
L 557.251621 331 
L 561.157451 331 
L 565.063281 331 
L 568.969111 331 
L 572.874941 331 
L 576.780771 331 
L 580.686601 331 
L 584.592431 331 
L 588.498261 331 
L 592.404091 331 
L 596.309921 331 
L 600.215751 331 
L 604.121581 331 
L 608.027411 331 
L 611.933241 331 
L 615.839071 331 
L 619.744901 331 
L 623.650731 331 
L 627.556561 331 
L 631.462391 331 
L 635.368221 331 
L 639.274051 331 
L 643.179881 331 
L 647.085711 331 
L 650.991542 331 
L 654.897372 331 
L 658.803202 331 
L 662.709032 331 
L 666.614862 331 
L 670.520692 331 
L 674.426522 331 
L 678.332352 331 
L 682.238182 331 
L 686.144012 331 
L 690.049842 331 
L 693.955672 331 
L 697.861502 331 
L 701.767332 331 
L 705.673162 331 
L 709.578992 331 
L 713.484822 331 
L 717.390652 331 
L 721.296482 331 
L 725.202312 331 
L 729.108142 331 
L 733.013972 331 
L 736.919802 331 
L 740.825632 331 
L 744.731462 331 
L 748.637292 331 
L 752.543123 331 
L 756.448953 331 
L 760.354783 331 
L 764.260613 331 
L 768.166443 331 
L 772.072273 331 
L 775.978103 331 
L 779.883933 331 
L 783.789763 331 
L 787.695593 331 
L 791.601423 331 
L 795.507253 331 
L 799.413083 331 
L 803.318913 331 
L 807.224743 331 
L 811.130573 331 
L 815.036403 331 
L 818.942233 331 
L 822.848063 331 
L 826.753893 331 
L 830.659723 331 
L 834.565553 331 
L 838.471383 331 
L 842.377213 331 
L 846.283043 331 
L 850.188874 331 
L 854.094704 331 
L 858.000534 331 
L 861.906364 331 
L 861.906364 234.585181 
L 861.906364 234.585181 
L 858.000534 235.350942 
L 854.094704 235.553666 
L 850.188874 235.137764 
L 846.283043 235.270802 
L 842.377213 234.998391 
L 838.471383 234.463072 
L 834.565553 234.343813 
L 830.659723 234.850782 
L 826.753893 234.363768 
L 822.848063 235.238176 
L 818.942233 235.136655 
L 815.036403 233.652966 
L 811.130573 234.812138 
L 807.224743 233.391958 
L 803.318913 236.515182 
L 799.413083 233.430761 
L 795.507253 237.480816 
L 791.601423 240.313732 
L 787.695593 234.466873 
L 783.789763 235.427597 
L 779.883933 233.698262 
L 775.978103 234.025472 
L 772.072273 233.864718 
L 768.166443 233.290596 
L 764.260613 236.008371 
L 760.354783 234.243559 
L 756.448953 235.858861 
L 752.543123 235.442484 
L 748.637292 235.022465 
L 744.731462 235.064276 
L 740.825632 235.464182 
L 736.919802 234.758448 
L 733.013972 234.782363 
L 729.108142 235.57473 
L 725.202312 234.211883 
L 721.296482 235.084232 
L 717.390652 234.247518 
L 713.484822 235.946762 
L 709.578992 236.119236 
L 705.673162 234.825758 
L 701.767332 234.423635 
L 697.861502 236.53007 
L 693.955672 235.020564 
L 690.049842 235.403523 
L 686.144012 233.915557 
L 682.238182 238.771442 
L 678.332352 239.768593 
L 674.426522 239.27081 
L 670.520692 235.304062 
L 666.614862 238.885633 
L 662.709032 237.522786 
L 658.803202 237.591522 
L 654.897372 240.350318 
L 650.991542 235.584867 
L 647.085711 235.502193 
L 643.179881 239.335745 
L 639.274051 236.142359 
L 635.368221 234.998549 
L 631.462391 234.206498 
L 627.556561 234.68496 
L 623.650731 237.642679 
L 619.744901 240.072997 
L 615.839071 237.412713 
L 611.933241 237.226618 
L 608.027411 238.052562 
L 604.121581 236.368207 
L 600.215751 238.840812 
L 596.309921 234.445333 
L 592.404091 234.634912 
L 588.498261 235.505677 
L 584.592431 235.085816 
L 580.686601 234.062374 
L 576.780771 235.288699 
L 572.874941 236.660732 
L 568.969111 234.799943 
L 565.063281 235.739761 
L 561.157451 238.525164 
L 557.251621 234.693037 
L 553.345791 234.378339 
L 549.43996 235.282047 
L 545.53413 236.681163 
L 541.6283 241.518042 
L 537.72247 238.068083 
L 533.81664 240.915095 
L 529.91081 240.572048 
L 526.00498 236.305964 
L 522.09915 236.591679 
L 518.19332 237.837959 
L 514.28749 235.345082 
L 510.38166 236.657406 
L 506.47583 235.880243 
L 502.57 234.216635 
L 498.66417 235.545114 
L 494.75834 234.1829 
L 490.85251 235.529909 
L 486.94668 234.570927 
L 483.04085 236.779357 
L 479.13502 238.925069 
L 475.22919 234.443749 
L 471.32336 236.029118 
L 467.41753 234.701748 
L 463.5117 235.555567 
L 459.60587 234.066967 
L 455.70004 233.876438 
L 451.794209 235.033393 
L 447.888379 234.486353 
L 443.982549 234.794083 
L 440.076719 234.155817 
L 436.170889 233.914765 
L 432.265059 233.329082 
L 428.359229 233.314352 
L 424.453399 233.140136 
L 420.547569 237.998238 
L 416.641739 234.820374 
L 412.735909 238.291239 
L 408.830079 238.721078 
L 404.924249 236.131431 
L 401.018419 234.020245 
L 397.112589 234.712835 
L 393.206759 237.182747 
L 389.300929 238.56951 
L 385.395099 234.63222 
L 381.489269 236.2575 
L 377.583439 237.304065 
L 373.677609 233.430444 
L 369.771779 234.307386 
L 365.865949 236.105774 
L 361.960119 235.482079 
L 358.054289 237.246257 
L 354.148458 236.599756 
L 350.242628 235.567603 
L 346.336798 240.7271 
L 342.430968 235.675142 
L 338.525138 239.413509 
L 334.619308 235.061584 
L 330.713478 235.711886 
L 326.807648 238.752754 
L 322.901818 235.184803 
L 318.995988 233.589614 
L 315.090158 235.398455 
L 311.184328 237.35633 
L 307.278498 234.512486 
L 303.372668 234.633329 
L 299.466838 233.576152 
L 295.561008 234.446125 
L 291.655178 235.013595 
L 287.749348 236.187022 
L 283.843518 233.668962 
L 279.937688 233.495696 
L 276.031858 233.962596 
L 272.126028 235.787116 
L 268.220198 233.226294 
L 264.314368 234.024046 
L 260.408538 234.130952 
L 256.502708 234.755438 
L 252.596877 233.189867 
L 248.691047 234.679733 
L 244.785217 234.994115 
L 240.879387 234.859493 
L 236.973557 235.341756 
L 233.067727 235.277929 
L 229.161897 234.848565 
L 225.256067 237.355697 
L 221.350237 237.382463 
L 217.444407 236.58281 
L 213.538577 234.409223 
L 209.632747 233.834467 
L 205.726917 234.026105 
L 201.821087 237.437103 
L 197.915257 242.766223 
L 194.009427 235.078055 
L 190.103597 234.977643 
L 186.197767 234.36551 
L 182.291937 234.706024 
L 178.386107 234.941375 
L 174.480277 235.048439 
L 170.574447 236.322752 
L 166.668617 235.337163 
L 162.762787 234.423794 
L 158.856957 234.202856 
L 154.951126 234.307069 
L 151.045296 234.19953 
L 147.139466 234.730098 
L 143.233636 237.488576 
z
" clip-path="url(#p2e627d9cdb)" style="fill: #1f77b4"/>
   </g>
   <g id="PolyCollection_2">
    <path d="M 143.233636 142.528148 
L 143.233636 237.488576 
L 147.139466 234.730098 
L 151.045296 234.19953 
L 154.951126 234.307069 
L 158.856957 234.202856 
L 162.762787 234.423794 
L 166.668617 235.337163 
L 170.574447 236.322752 
L 174.480277 235.048439 
L 178.386107 234.941375 
L 182.291937 234.706024 
L 186.197767 234.36551 
L 190.103597 234.977643 
L 194.009427 235.078055 
L 197.915257 242.766223 
L 201.821087 237.437103 
L 205.726917 234.026105 
L 209.632747 233.834467 
L 213.538577 234.409223 
L 217.444407 236.58281 
L 221.350237 237.382463 
L 225.256067 237.355697 
L 229.161897 234.848565 
L 233.067727 235.277929 
L 236.973557 235.341756 
L 240.879387 234.859493 
L 244.785217 234.994115 
L 248.691047 234.679733 
L 252.596877 233.189867 
L 256.502708 234.755438 
L 260.408538 234.130952 
L 264.314368 234.024046 
L 268.220198 233.226294 
L 272.126028 235.787116 
L 276.031858 233.962596 
L 279.937688 233.495696 
L 283.843518 233.668962 
L 287.749348 236.187022 
L 291.655178 235.013595 
L 295.561008 234.446125 
L 299.466838 233.576152 
L 303.372668 234.633329 
L 307.278498 234.512486 
L 311.184328 237.35633 
L 315.090158 235.398455 
L 318.995988 233.589614 
L 322.901818 235.184803 
L 326.807648 238.752754 
L 330.713478 235.711886 
L 334.619308 235.061584 
L 338.525138 239.413509 
L 342.430968 235.675142 
L 346.336798 240.7271 
L 350.242628 235.567603 
L 354.148458 236.599756 
L 358.054289 237.246257 
L 361.960119 235.482079 
L 365.865949 236.105774 
L 369.771779 234.307386 
L 373.677609 233.430444 
L 377.583439 237.304065 
L 381.489269 236.2575 
L 385.395099 234.63222 
L 389.300929 238.56951 
L 393.206759 237.182747 
L 397.112589 234.712835 
L 401.018419 234.020245 
L 404.924249 236.131431 
L 408.830079 238.721078 
L 412.735909 238.291239 
L 416.641739 234.820374 
L 420.547569 237.998238 
L 424.453399 233.140136 
L 428.359229 233.314352 
L 432.265059 233.329082 
L 436.170889 233.914765 
L 440.076719 234.155817 
L 443.982549 234.794083 
L 447.888379 234.486353 
L 451.794209 235.033393 
L 455.70004 233.876438 
L 459.60587 234.066967 
L 463.5117 235.555567 
L 467.41753 234.701748 
L 471.32336 236.029118 
L 475.22919 234.443749 
L 479.13502 238.925069 
L 483.04085 236.779357 
L 486.94668 234.570927 
L 490.85251 235.529909 
L 494.75834 234.1829 
L 498.66417 235.545114 
L 502.57 234.216635 
L 506.47583 235.880243 
L 510.38166 236.657406 
L 514.28749 235.345082 
L 518.19332 237.837959 
L 522.09915 236.591679 
L 526.00498 236.305964 
L 529.91081 240.572048 
L 533.81664 240.915095 
L 537.72247 238.068083 
L 541.6283 241.518042 
L 545.53413 236.681163 
L 549.43996 235.282047 
L 553.345791 234.378339 
L 557.251621 234.693037 
L 561.157451 238.525164 
L 565.063281 235.739761 
L 568.969111 234.799943 
L 572.874941 236.660732 
L 576.780771 235.288699 
L 580.686601 234.062374 
L 584.592431 235.085816 
L 588.498261 235.505677 
L 592.404091 234.634912 
L 596.309921 234.445333 
L 600.215751 238.840812 
L 604.121581 236.368207 
L 608.027411 238.052562 
L 611.933241 237.226618 
L 615.839071 237.412713 
L 619.744901 240.072997 
L 623.650731 237.642679 
L 627.556561 234.68496 
L 631.462391 234.206498 
L 635.368221 234.998549 
L 639.274051 236.142359 
L 643.179881 239.335745 
L 647.085711 235.502193 
L 650.991542 235.584867 
L 654.897372 240.350318 
L 658.803202 237.591522 
L 662.709032 237.522786 
L 666.614862 238.885633 
L 670.520692 235.304062 
L 674.426522 239.27081 
L 678.332352 239.768593 
L 682.238182 238.771442 
L 686.144012 233.915557 
L 690.049842 235.403523 
L 693.955672 235.020564 
L 697.861502 236.53007 
L 701.767332 234.423635 
L 705.673162 234.825758 
L 709.578992 236.119236 
L 713.484822 235.946762 
L 717.390652 234.247518 
L 721.296482 235.084232 
L 725.202312 234.211883 
L 729.108142 235.57473 
L 733.013972 234.782363 
L 736.919802 234.758448 
L 740.825632 235.464182 
L 744.731462 235.064276 
L 748.637292 235.022465 
L 752.543123 235.442484 
L 756.448953 235.858861 
L 760.354783 234.243559 
L 764.260613 236.008371 
L 768.166443 233.290596 
L 772.072273 233.864718 
L 775.978103 234.025472 
L 779.883933 233.698262 
L 783.789763 235.427597 
L 787.695593 234.466873 
L 791.601423 240.313732 
L 795.507253 237.480816 
L 799.413083 233.430761 
L 803.318913 236.515182 
L 807.224743 233.391958 
L 811.130573 234.812138 
L 815.036403 233.652966 
L 818.942233 235.136655 
L 822.848063 235.238176 
L 826.753893 234.363768 
L 830.659723 234.850782 
L 834.565553 234.343813 
L 838.471383 234.463072 
L 842.377213 234.998391 
L 846.283043 235.270802 
L 850.188874 235.137764 
L 854.094704 235.553666 
L 858.000534 235.350942 
L 861.906364 234.585181 
L 861.906364 234.585181 
L 861.906364 234.585181 
L 858.000534 138.404446 
L 854.094704 141.401126 
L 850.188874 139.658012 
L 846.283043 139.519431 
L 842.377213 139.808947 
L 838.471383 137.513884 
L 834.565553 138.211858 
L 830.659723 138.472074 
L 826.753893 137.846954 
L 822.848063 139.833654 
L 818.942233 138.774894 
L 815.036403 136.947047 
L 811.130573 138.935965 
L 807.224743 135.830479 
L 803.318913 141.270781 
L 799.413083 136.602574 
L 795.507253 143.502651 
L 791.601423 148.076464 
L 787.695593 139.511987 
L 783.789763 139.98158 
L 779.883933 136.972071 
L 775.978103 137.033047 
L 772.072273 136.435801 
L 768.166443 136.007863 
L 764.260613 140.558869 
L 760.354783 137.49567 
L 756.448953 141.021018 
L 752.543123 140.46891 
L 748.637292 138.707266 
L 744.731462 139.315123 
L 740.825632 139.410308 
L 736.919802 138.637896 
L 733.013972 139.45893 
L 729.108142 139.577714 
L 725.202312 138.380373 
L 721.296482 139.070586 
L 717.390652 137.559814 
L 713.484822 138.668147 
L 709.578992 142.855358 
L 705.673162 138.210591 
L 701.767332 137.867385 
L 697.861502 140.689056 
L 693.955672 141.065839 
L 690.049842 138.708058 
L 686.144012 139.847275 
L 682.238182 144.959733 
L 678.332352 149.245614 
L 674.426522 148.640766 
L 670.520692 140.402708 
L 666.614862 145.440253 
L 662.709032 144.649311 
L 658.803202 144.755108 
L 654.897372 149.989834 
L 650.991542 140.758426 
L 647.085711 140.0831 
L 643.179881 146.153432 
L 639.274051 143.044778 
L 635.368221 138.830485 
L 631.462391 137.879738 
L 627.556561 138.739417 
L 623.650731 141.772524 
L 619.744901 150.801999 
L 615.839071 144.61225 
L 611.933241 142.360425 
L 608.027411 146.570917 
L 604.121581 142.117947 
L 600.215751 147.358375 
L 596.309921 137.659909 
L 592.404091 139.062351 
L 588.498261 139.289941 
L 584.592431 140.181612 
L 580.686601 137.384489 
L 576.780771 139.032259 
L 572.874941 142.090389 
L 568.969111 138.759689 
L 565.063281 139.757157 
L 561.157451 144.007878 
L 557.251621 142.433912 
L 553.345791 137.130925 
L 549.43996 139.481262 
L 545.53413 141.153581 
L 541.6283 149.418721 
L 537.72247 149.264936 
L 533.81664 150.455942 
L 529.91081 148.90415 
L 526.00498 143.335561 
L 522.09915 142.492037 
L 518.19332 143.35029 
L 514.28749 142.034957 
L 510.38166 142.542402 
L 506.47583 139.783448 
L 502.57 138.431371 
L 498.66417 139.581832 
L 494.75834 137.643279 
L 490.85251 139.707426 
L 486.94668 139.883385 
L 483.04085 141.937079 
L 479.13502 145.03227 
L 475.22919 140.628397 
L 471.32336 141.411896 
L 467.41753 138.810846 
L 463.5117 140.719148 
L 459.60587 136.63425 
L 455.70004 137.101942 
L 451.794209 139.042237 
L 447.888379 137.927252 
L 443.982549 139.295325 
L 440.076719 136.994719 
L 436.170889 137.514834 
L 432.265059 136.182713 
L 428.359229 136.53463 
L 424.453399 134.906023 
L 420.547569 144.739745 
L 416.641739 140.360263 
L 412.735909 144.226757 
L 408.830079 147.622392 
L 404.924249 141.59419 
L 401.018419 137.737198 
L 397.112589 137.997572 
L 393.206759 143.287889 
L 389.300929 147.099902 
L 385.395099 138.595292 
L 381.489269 141.021334 
L 377.583439 144.261759 
L 373.677609 136.156739 
L 369.771779 137.404444 
L 365.865949 141.368025 
L 361.960119 140.014206 
L 358.054289 142.70569 
L 354.148458 143.161187 
L 350.242628 140.111133 
L 346.336798 147.609405 
L 342.430968 142.425993 
L 338.525138 149.740388 
L 334.619308 139.403023 
L 330.713478 140.06647 
L 326.807648 145.855997 
L 322.901818 140.304355 
L 318.995988 136.832065 
L 315.090158 139.254939 
L 311.184328 144.105281 
L 307.278498 137.933745 
L 303.372668 138.380373 
L 299.466838 136.716923 
L 295.561008 138.040176 
L 291.655178 137.663235 
L 287.749348 141.939455 
L 283.843518 136.954649 
L 279.937688 136.317968 
L 276.031858 137.072166 
L 272.126028 140.262543 
L 268.220198 136.29136 
L 264.314368 136.58341 
L 260.408538 137.115245 
L 256.502708 138.811321 
L 252.596877 135.225948 
L 248.691047 138.750503 
L 244.785217 139.335712 
L 240.879387 138.886867 
L 236.973557 138.777269 
L 233.067727 138.671156 
L 229.161897 140.920289 
L 225.256067 142.604486 
L 221.350237 143.788365 
L 217.444407 142.397485 
L 213.538577 138.863269 
L 209.632747 137.467162 
L 205.726917 136.601307 
L 201.821087 142.855674 
L 197.915257 155.297415 
L 194.009427 139.987915 
L 190.103597 138.419651 
L 186.197767 137.853289 
L 182.291937 139.114299 
L 178.386107 138.553481 
L 174.480277 139.011353 
L 170.574447 140.76492 
L 166.668617 140.740846 
L 162.762787 138.059181 
L 158.856957 137.314327 
L 154.951126 138.300075 
L 151.045296 137.335075 
L 147.139466 138.470807 
L 143.233636 142.528148 
z
" clip-path="url(#p2e627d9cdb)" style="fill: #ff7f0e"/>
   </g>
   <g id="PolyCollection_3">
    <path d="M 143.233636 47.081814 
L 143.233636 142.528148 
L 147.139466 138.470807 
L 151.045296 137.335075 
L 154.951126 138.300075 
L 158.856957 137.314327 
L 162.762787 138.059181 
L 166.668617 140.740846 
L 170.574447 140.76492 
L 174.480277 139.011353 
L 178.386107 138.553481 
L 182.291937 139.114299 
L 186.197767 137.853289 
L 190.103597 138.419651 
L 194.009427 139.987915 
L 197.915257 155.297415 
L 201.821087 142.855674 
L 205.726917 136.601307 
L 209.632747 137.467162 
L 213.538577 138.863269 
L 217.444407 142.397485 
L 221.350237 143.788365 
L 225.256067 142.604486 
L 229.161897 140.920289 
L 233.067727 138.671156 
L 236.973557 138.777269 
L 240.879387 138.886867 
L 244.785217 139.335712 
L 248.691047 138.750503 
L 252.596877 135.225948 
L 256.502708 138.811321 
L 260.408538 137.115245 
L 264.314368 136.58341 
L 268.220198 136.29136 
L 272.126028 140.262543 
L 276.031858 137.072166 
L 279.937688 136.317968 
L 283.843518 136.954649 
L 287.749348 141.939455 
L 291.655178 137.663235 
L 295.561008 138.040176 
L 299.466838 136.716923 
L 303.372668 138.380373 
L 307.278498 137.933745 
L 311.184328 144.105281 
L 315.090158 139.254939 
L 318.995988 136.832065 
L 322.901818 140.304355 
L 326.807648 145.855997 
L 330.713478 140.06647 
L 334.619308 139.403023 
L 338.525138 149.740388 
L 342.430968 142.425993 
L 346.336798 147.609405 
L 350.242628 140.111133 
L 354.148458 143.161187 
L 358.054289 142.70569 
L 361.960119 140.014206 
L 365.865949 141.368025 
L 369.771779 137.404444 
L 373.677609 136.156739 
L 377.583439 144.261759 
L 381.489269 141.021334 
L 385.395099 138.595292 
L 389.300929 147.099902 
L 393.206759 143.287889 
L 397.112589 137.997572 
L 401.018419 137.737198 
L 404.924249 141.59419 
L 408.830079 147.622392 
L 412.735909 144.226757 
L 416.641739 140.360263 
L 420.547569 144.739745 
L 424.453399 134.906023 
L 428.359229 136.53463 
L 432.265059 136.182713 
L 436.170889 137.514834 
L 440.076719 136.994719 
L 443.982549 139.295325 
L 447.888379 137.927252 
L 451.794209 139.042237 
L 455.70004 137.101942 
L 459.60587 136.63425 
L 463.5117 140.719148 
L 467.41753 138.810846 
L 471.32336 141.411896 
L 475.22919 140.628397 
L 479.13502 145.03227 
L 483.04085 141.937079 
L 486.94668 139.883385 
L 490.85251 139.707426 
L 494.75834 137.643279 
L 498.66417 139.581832 
L 502.57 138.431371 
L 506.47583 139.783448 
L 510.38166 142.542402 
L 514.28749 142.034957 
L 518.19332 143.35029 
L 522.09915 142.492037 
L 526.00498 143.335561 
L 529.91081 148.90415 
L 533.81664 150.455942 
L 537.72247 149.264936 
L 541.6283 149.418721 
L 545.53413 141.153581 
L 549.43996 139.481262 
L 553.345791 137.130925 
L 557.251621 142.433912 
L 561.157451 144.007878 
L 565.063281 139.757157 
L 568.969111 138.759689 
L 572.874941 142.090389 
L 576.780771 139.032259 
L 580.686601 137.384489 
L 584.592431 140.181612 
L 588.498261 139.289941 
L 592.404091 139.062351 
L 596.309921 137.659909 
L 600.215751 147.358375 
L 604.121581 142.117947 
L 608.027411 146.570917 
L 611.933241 142.360425 
L 615.839071 144.61225 
L 619.744901 150.801999 
L 623.650731 141.772524 
L 627.556561 138.739417 
L 631.462391 137.879738 
L 635.368221 138.830485 
L 639.274051 143.044778 
L 643.179881 146.153432 
L 647.085711 140.0831 
L 650.991542 140.758426 
L 654.897372 149.989834 
L 658.803202 144.755108 
L 662.709032 144.649311 
L 666.614862 145.440253 
L 670.520692 140.402708 
L 674.426522 148.640766 
L 678.332352 149.245614 
L 682.238182 144.959733 
L 686.144012 139.847275 
L 690.049842 138.708058 
L 693.955672 141.065839 
L 697.861502 140.689056 
L 701.767332 137.867385 
L 705.673162 138.210591 
L 709.578992 142.855358 
L 713.484822 138.668147 
L 717.390652 137.559814 
L 721.296482 139.070586 
L 725.202312 138.380373 
L 729.108142 139.577714 
L 733.013972 139.45893 
L 736.919802 138.637896 
L 740.825632 139.410308 
L 744.731462 139.315123 
L 748.637292 138.707266 
L 752.543123 140.46891 
L 756.448953 141.021018 
L 760.354783 137.49567 
L 764.260613 140.558869 
L 768.166443 136.007863 
L 772.072273 136.435801 
L 775.978103 137.033047 
L 779.883933 136.972071 
L 783.789763 139.98158 
L 787.695593 139.511987 
L 791.601423 148.076464 
L 795.507253 143.502651 
L 799.413083 136.602574 
L 803.318913 141.270781 
L 807.224743 135.830479 
L 811.130573 138.935965 
L 815.036403 136.947047 
L 818.942233 138.774894 
L 822.848063 139.833654 
L 826.753893 137.846954 
L 830.659723 138.472074 
L 834.565553 138.211858 
L 838.471383 137.513884 
L 842.377213 139.808947 
L 846.283043 139.519431 
L 850.188874 139.658012 
L 854.094704 141.401126 
L 858.000534 138.404446 
L 861.906364 234.585181 
L 861.906364 234.585181 
L 861.906364 234.585181 
L 858.000534 42.002615 
L 854.094704 46.996923 
L 850.188874 44.215163 
L 846.283043 43.17715 
L 842.377213 45.119821 
L 838.471383 40.900934 
L 834.565553 41.539833 
L 830.659723 42.441165 
L 826.753893 41.367675 
L 822.848063 44.48789 
L 818.942233 42.859284 
L 815.036403 40.1971 
L 811.130573 41.951934 
L 807.224743 39.261716 
L 803.318913 45.829515 
L 799.413083 40.503562 
L 795.507253 48.244154 
L 791.601423 55.006282 
L 787.695593 47.267117 
L 783.789763 44.385103 
L 779.883933 40.160514 
L 775.978103 40.232577 
L 772.072273 38.992315 
L 768.166443 39.033968 
L 764.260613 44.7858 
L 760.354783 40.944171 
L 756.448953 44.944971 
L 752.543123 46.053462 
L 748.637292 43.007368 
L 744.731462 43.396979 
L 740.825632 43.505944 
L 736.919802 42.645632 
L 733.013972 44.064861 
L 729.108142 42.691403 
L 725.202312 43.110473 
L 721.296482 42.778194 
L 717.390652 40.92675 
L 713.484822 41.372427 
L 709.578992 50.218975 
L 705.673162 41.676355 
L 701.767332 41.195993 
L 697.861502 44.74288 
L 693.955672 46.826824 
L 690.049842 42.636129 
L 686.144012 43.847408 
L 682.238182 49.517992 
L 678.332352 57.554909 
L 674.426522 57.631248 
L 670.520692 47.203132 
L 666.614862 51.596235 
L 662.709032 52.077864 
L 658.803202 51.045078 
L 654.897372 58.785035 
L 650.991542 46.7413 
L 647.085711 43.942593 
L 643.179881 52.650877 
L 639.274051 51.912833 
L 635.368221 42.83331 
L 631.462391 41.236221 
L 627.556561 41.843128 
L 623.650731 46.618873 
L 619.744901 61.092452 
L 615.839071 49.898892 
L 611.933241 49.269813 
L 608.027411 54.269664 
L 604.121581 47.611431 
L 600.215751 55.965106 
L 596.309921 41.886365 
L 592.404091 42.572936 
L 588.498261 43.097169 
L 584.592431 44.217538 
L 580.686601 41.759662 
L 576.780771 42.065966 
L 572.874941 47.39572 
L 568.969111 43.991215 
L 565.063281 43.858336 
L 561.157451 49.653564 
L 557.251621 50.265855 
L 553.345791 39.864822 
L 549.43996 43.907592 
L 545.53413 46.089731 
L 541.6283 55.343312 
L 537.72247 59.569642 
L 533.81664 62.240379 
L 529.91081 56.33682 
L 526.00498 50.077385 
L 522.09915 49.522585 
L 518.19332 47.720079 
L 514.28749 49.11381 
L 510.38166 47.50611 
L 506.47583 45.125522 
L 502.57 42.039042 
L 498.66417 43.80718 
L 494.75834 41.204546 
L 490.85251 43.437999 
L 486.94668 45.569141 
L 483.04085 46.192993 
L 479.13502 51.442132 
L 475.22919 47.643107 
L 471.32336 45.93547 
L 467.41753 44.084342 
L 463.5117 45.656407 
L 459.60587 39.28183 
L 455.70004 40.3143 
L 451.794209 42.310186 
L 447.888379 42.072777 
L 443.982549 44.060744 
L 440.076719 39.038403 
L 436.170889 41.382405 
L 432.265059 38.788323 
L 428.359229 39.990416 
L 424.453399 37.239064 
L 420.547569 49.452898 
L 416.641739 46.367051 
L 412.735909 48.67716 
L 408.830079 57.483639 
L 404.924249 47.882259 
L 401.018419 41.002138 
L 397.112589 40.826179 
L 393.206759 48.379726 
L 389.300929 56.019271 
L 385.395099 43.805279 
L 381.489269 44.377025 
L 377.583439 52.162438 
L 373.677609 39.39808 
L 369.771779 39.985189 
L 365.865949 46.593849 
L 361.960119 44.337272 
L 358.054289 46.87117 
L 354.148458 50.695219 
L 350.242628 44.090994 
L 346.336798 53.947839 
L 342.430968 50.646439 
L 338.525138 59.879431 
L 334.619308 43.236067 
L 330.713478 44.174776 
L 326.807648 51.80862 
L 322.901818 46.731956 
L 318.995988 40.54775 
L 315.090158 41.694885 
L 311.184328 51.370229 
L 307.278498 41.38383 
L 303.372668 42.144522 
L 299.466838 39.596529 
L 295.561008 41.813669 
L 291.655178 40.296403 
L 287.749348 47.02258 
L 283.843518 40.246831 
L 279.937688 39.349933 
L 276.031858 39.711986 
L 272.126028 44.095587 
L 268.220198 40.258392 
L 264.314368 39.047113 
L 260.408538 40.682213 
L 256.502708 41.508474 
L 252.596877 38.25047 
L 248.691047 42.161152 
L 244.785217 42.611263 
L 240.879387 44.068187 
L 236.973557 41.766789 
L 233.067727 42.247943 
L 229.161897 46.560748 
L 225.256067 46.264739 
L 221.350237 51.578655 
L 217.444407 46.422009 
L 213.538577 44.262518 
L 209.632747 40.943696 
L 205.726917 38.697889 
L 201.821087 47.798793 
L 197.915257 66.744189 
L 194.009427 46.628059 
L 190.103597 42.572936 
L 186.197767 41.042999 
L 182.291937 42.599227 
L 178.386107 42.332992 
L 174.480277 42.216901 
L 170.574447 45.713582 
L 166.668617 46.361667 
L 162.762787 41.363399 
L 158.856957 40.445754 
L 154.951126 42.125992 
L 151.045296 40.43055 
L 147.139466 42.031123 
L 143.233636 47.081814 
z
" clip-path="url(#p2e627d9cdb)" style="fill: #2ca02c"/>
   </g>
   <g id="matplotlib.axis_1">
    <g id="xtick_1">
     <g id="line2d_1">
      <path d="M 143.233636 331 
L 143.233636 23.76 
" clip-path="url(#p2e627d9cdb)" style="fill: none; stroke-dasharray: 5.12,1.28,0.8,1.28; stroke-dashoffset: 0; stroke: #b0b0b0; stroke-width: 0.8"/>
     </g>
     <g id="line2d_2">
      <defs>
       <path id="ma330f7f7cc" d="M 0 0 
L 0 3.5 
" style="stroke: #000000; stroke-width: 0.8"/>
      </defs>
      <g>
       <use xlink:href="#ma330f7f7cc" x="143.233636" y="331" style="stroke: #000000; stroke-width: 0.8"/>
      </g>
     </g>
     <g id="text_1">
      <!-- 0 -->
      <g transform="translate(136.234886 354.716563) scale(0.22 -0.22)">
       <defs>
        <path id="DejaVuSans-30" d="M 2034 4250 
Q 1547 4250 1301 3770 
Q 1056 3291 1056 2328 
Q 1056 1369 1301 889 
Q 1547 409 2034 409 
Q 2525 409 2770 889 
Q 3016 1369 3016 2328 
Q 3016 3291 2770 3770 
Q 2525 4250 2034 4250 
z
M 2034 4750 
Q 2819 4750 3233 4129 
Q 3647 3509 3647 2328 
Q 3647 1150 3233 529 
Q 2819 -91 2034 -91 
Q 1250 -91 836 529 
Q 422 1150 422 2328 
Q 422 3509 836 4129 
Q 1250 4750 2034 4750 
z
" transform="scale(0.015625)"/>
       </defs>
       <use xlink:href="#DejaVuSans-30"/>
      </g>
     </g>
    </g>
    <g id="xtick_2">
     <g id="line2d_3">
      <path d="M 240.879387 331 
L 240.879387 23.76 
" clip-path="url(#p2e627d9cdb)" style="fill: none; stroke-dasharray: 5.12,1.28,0.8,1.28; stroke-dashoffset: 0; stroke: #b0b0b0; stroke-width: 0.8"/>
     </g>
     <g id="line2d_4">
      <g>
       <use xlink:href="#ma330f7f7cc" x="240.879387" y="331" style="stroke: #000000; stroke-width: 0.8"/>
      </g>
     </g>
     <g id="text_2">
      <!-- 25 -->
      <g transform="translate(226.881887 354.716563) scale(0.22 -0.22)">
       <defs>
        <path id="DejaVuSans-32" d="M 1228 531 
L 3431 531 
L 3431 0 
L 469 0 
L 469 531 
Q 828 903 1448 1529 
Q 2069 2156 2228 2338 
Q 2531 2678 2651 2914 
Q 2772 3150 2772 3378 
Q 2772 3750 2511 3984 
Q 2250 4219 1831 4219 
Q 1534 4219 1204 4116 
Q 875 4013 500 3803 
L 500 4441 
Q 881 4594 1212 4672 
Q 1544 4750 1819 4750 
Q 2544 4750 2975 4387 
Q 3406 4025 3406 3419 
Q 3406 3131 3298 2873 
Q 3191 2616 2906 2266 
Q 2828 2175 2409 1742 
Q 1991 1309 1228 531 
z
" transform="scale(0.015625)"/>
        <path id="DejaVuSans-35" d="M 691 4666 
L 3169 4666 
L 3169 4134 
L 1269 4134 
L 1269 2991 
Q 1406 3038 1543 3061 
Q 1681 3084 1819 3084 
Q 2600 3084 3056 2656 
Q 3513 2228 3513 1497 
Q 3513 744 3044 326 
Q 2575 -91 1722 -91 
Q 1428 -91 1123 -41 
Q 819 9 494 109 
L 494 744 
Q 775 591 1075 516 
Q 1375 441 1709 441 
Q 2250 441 2565 725 
Q 2881 1009 2881 1497 
Q 2881 1984 2565 2268 
Q 2250 2553 1709 2553 
Q 1456 2553 1204 2497 
Q 953 2441 691 2322 
L 691 4666 
z
" transform="scale(0.015625)"/>
       </defs>
       <use xlink:href="#DejaVuSans-32"/>
       <use xlink:href="#DejaVuSans-35" x="63.623047"/>
      </g>
     </g>
    </g>
    <g id="xtick_3">
     <g id="line2d_5">
      <path d="M 338.525138 331 
L 338.525138 23.76 
" clip-path="url(#p2e627d9cdb)" style="fill: none; stroke-dasharray: 5.12,1.28,0.8,1.28; stroke-dashoffset: 0; stroke: #b0b0b0; stroke-width: 0.8"/>
     </g>
     <g id="line2d_6">
      <g>
       <use xlink:href="#ma330f7f7cc" x="338.525138" y="331" style="stroke: #000000; stroke-width: 0.8"/>
      </g>
     </g>
     <g id="text_3">
      <!-- 50 -->
      <g transform="translate(324.527638 354.716563) scale(0.22 -0.22)">
       <use xlink:href="#DejaVuSans-35"/>
       <use xlink:href="#DejaVuSans-30" x="63.623047"/>
      </g>
     </g>
    </g>
    <g id="xtick_4">
     <g id="line2d_7">
      <path d="M 436.170889 331 
L 436.170889 23.76 
" clip-path="url(#p2e627d9cdb)" style="fill: none; stroke-dasharray: 5.12,1.28,0.8,1.28; stroke-dashoffset: 0; stroke: #b0b0b0; stroke-width: 0.8"/>
     </g>
     <g id="line2d_8">
      <g>
       <use xlink:href="#ma330f7f7cc" x="436.170889" y="331" style="stroke: #000000; stroke-width: 0.8"/>
      </g>
     </g>
     <g id="text_4">
      <!-- 75 -->
      <g transform="translate(422.173389 354.716563) scale(0.22 -0.22)">
       <defs>
        <path id="DejaVuSans-37" d="M 525 4666 
L 3525 4666 
L 3525 4397 
L 1831 0 
L 1172 0 
L 2766 4134 
L 525 4134 
L 525 4666 
z
" transform="scale(0.015625)"/>
       </defs>
       <use xlink:href="#DejaVuSans-37"/>
       <use xlink:href="#DejaVuSans-35" x="63.623047"/>
      </g>
     </g>
    </g>
    <g id="xtick_5">
     <g id="line2d_9">
      <path d="M 533.81664 331 
L 533.81664 23.76 
" clip-path="url(#p2e627d9cdb)" style="fill: none; stroke-dasharray: 5.12,1.28,0.8,1.28; stroke-dashoffset: 0; stroke: #b0b0b0; stroke-width: 0.8"/>
     </g>
     <g id="line2d_10">
      <g>
       <use xlink:href="#ma330f7f7cc" x="533.81664" y="331" style="stroke: #000000; stroke-width: 0.8"/>
      </g>
     </g>
     <g id="text_5">
      <!-- 100 -->
      <g transform="translate(512.82039 354.716563) scale(0.22 -0.22)">
       <defs>
        <path id="DejaVuSans-31" d="M 794 531 
L 1825 531 
L 1825 4091 
L 703 3866 
L 703 4441 
L 1819 4666 
L 2450 4666 
L 2450 531 
L 3481 531 
L 3481 0 
L 794 0 
L 794 531 
z
" transform="scale(0.015625)"/>
       </defs>
       <use xlink:href="#DejaVuSans-31"/>
       <use xlink:href="#DejaVuSans-30" x="63.623047"/>
       <use xlink:href="#DejaVuSans-30" x="127.246094"/>
      </g>
     </g>
    </g>
    <g id="xtick_6">
     <g id="line2d_11">
      <path d="M 631.462391 331 
L 631.462391 23.76 
" clip-path="url(#p2e627d9cdb)" style="fill: none; stroke-dasharray: 5.12,1.28,0.8,1.28; stroke-dashoffset: 0; stroke: #b0b0b0; stroke-width: 0.8"/>
     </g>
     <g id="line2d_12">
      <g>
       <use xlink:href="#ma330f7f7cc" x="631.462391" y="331" style="stroke: #000000; stroke-width: 0.8"/>
      </g>
     </g>
     <g id="text_6">
      <!-- 125 -->
      <g transform="translate(610.466141 354.716563) scale(0.22 -0.22)">
       <use xlink:href="#DejaVuSans-31"/>
       <use xlink:href="#DejaVuSans-32" x="63.623047"/>
       <use xlink:href="#DejaVuSans-35" x="127.246094"/>
      </g>
     </g>
    </g>
    <g id="xtick_7">
     <g id="line2d_13">
      <path d="M 729.108142 331 
L 729.108142 23.76 
" clip-path="url(#p2e627d9cdb)" style="fill: none; stroke-dasharray: 5.12,1.28,0.8,1.28; stroke-dashoffset: 0; stroke: #b0b0b0; stroke-width: 0.8"/>
     </g>
     <g id="line2d_14">
      <g>
       <use xlink:href="#ma330f7f7cc" x="729.108142" y="331" style="stroke: #000000; stroke-width: 0.8"/>
      </g>
     </g>
     <g id="text_7">
      <!-- 150 -->
      <g transform="translate(708.111892 354.716563) scale(0.22 -0.22)">
       <use xlink:href="#DejaVuSans-31"/>
       <use xlink:href="#DejaVuSans-35" x="63.623047"/>
       <use xlink:href="#DejaVuSans-30" x="127.246094"/>
      </g>
     </g>
    </g>
    <g id="xtick_8">
     <g id="line2d_15">
      <path d="M 826.753893 331 
L 826.753893 23.76 
" clip-path="url(#p2e627d9cdb)" style="fill: none; stroke-dasharray: 5.12,1.28,0.8,1.28; stroke-dashoffset: 0; stroke: #b0b0b0; stroke-width: 0.8"/>
     </g>
     <g id="line2d_16">
      <g>
       <use xlink:href="#ma330f7f7cc" x="826.753893" y="331" style="stroke: #000000; stroke-width: 0.8"/>
      </g>
     </g>
     <g id="text_8">
      <!-- 175 -->
      <g transform="translate(805.757643 354.716563) scale(0.22 -0.22)">
       <use xlink:href="#DejaVuSans-31"/>
       <use xlink:href="#DejaVuSans-37" x="63.623047"/>
       <use xlink:href="#DejaVuSans-35" x="127.246094"/>
      </g>
     </g>
    </g>
    <g id="text_9">
     <!-- Time (s) -->
     <g transform="translate(453.780625 381.528125) scale(0.24 -0.24)">
      <defs>
       <path id="DejaVuSans-54" d="M -19 4666 
L 3928 4666 
L 3928 4134 
L 2272 4134 
L 2272 0 
L 1638 0 
L 1638 4134 
L -19 4134 
L -19 4666 
z
" transform="scale(0.015625)"/>
       <path id="DejaVuSans-69" d="M 603 3500 
L 1178 3500 
L 1178 0 
L 603 0 
L 603 3500 
z
M 603 4863 
L 1178 4863 
L 1178 4134 
L 603 4134 
L 603 4863 
z
" transform="scale(0.015625)"/>
       <path id="DejaVuSans-6d" d="M 3328 2828 
Q 3544 3216 3844 3400 
Q 4144 3584 4550 3584 
Q 5097 3584 5394 3201 
Q 5691 2819 5691 2113 
L 5691 0 
L 5113 0 
L 5113 2094 
Q 5113 2597 4934 2840 
Q 4756 3084 4391 3084 
Q 3944 3084 3684 2787 
Q 3425 2491 3425 1978 
L 3425 0 
L 2847 0 
L 2847 2094 
Q 2847 2600 2669 2842 
Q 2491 3084 2119 3084 
Q 1678 3084 1418 2786 
Q 1159 2488 1159 1978 
L 1159 0 
L 581 0 
L 581 3500 
L 1159 3500 
L 1159 2956 
Q 1356 3278 1631 3431 
Q 1906 3584 2284 3584 
Q 2666 3584 2933 3390 
Q 3200 3197 3328 2828 
z
" transform="scale(0.015625)"/>
       <path id="DejaVuSans-65" d="M 3597 1894 
L 3597 1613 
L 953 1613 
Q 991 1019 1311 708 
Q 1631 397 2203 397 
Q 2534 397 2845 478 
Q 3156 559 3463 722 
L 3463 178 
Q 3153 47 2828 -22 
Q 2503 -91 2169 -91 
Q 1331 -91 842 396 
Q 353 884 353 1716 
Q 353 2575 817 3079 
Q 1281 3584 2069 3584 
Q 2775 3584 3186 3129 
Q 3597 2675 3597 1894 
z
M 3022 2063 
Q 3016 2534 2758 2815 
Q 2500 3097 2075 3097 
Q 1594 3097 1305 2825 
Q 1016 2553 972 2059 
L 3022 2063 
z
" transform="scale(0.015625)"/>
       <path id="DejaVuSans-20" transform="scale(0.015625)"/>
       <path id="DejaVuSans-28" d="M 1984 4856 
Q 1566 4138 1362 3434 
Q 1159 2731 1159 2009 
Q 1159 1288 1364 580 
Q 1569 -128 1984 -844 
L 1484 -844 
Q 1016 -109 783 600 
Q 550 1309 550 2009 
Q 550 2706 781 3412 
Q 1013 4119 1484 4856 
L 1984 4856 
z
" transform="scale(0.015625)"/>
       <path id="DejaVuSans-73" d="M 2834 3397 
L 2834 2853 
Q 2591 2978 2328 3040 
Q 2066 3103 1784 3103 
Q 1356 3103 1142 2972 
Q 928 2841 928 2578 
Q 928 2378 1081 2264 
Q 1234 2150 1697 2047 
L 1894 2003 
Q 2506 1872 2764 1633 
Q 3022 1394 3022 966 
Q 3022 478 2636 193 
Q 2250 -91 1575 -91 
Q 1294 -91 989 -36 
Q 684 19 347 128 
L 347 722 
Q 666 556 975 473 
Q 1284 391 1588 391 
Q 1994 391 2212 530 
Q 2431 669 2431 922 
Q 2431 1156 2273 1281 
Q 2116 1406 1581 1522 
L 1381 1569 
Q 847 1681 609 1914 
Q 372 2147 372 2553 
Q 372 3047 722 3315 
Q 1072 3584 1716 3584 
Q 2034 3584 2315 3537 
Q 2597 3491 2834 3397 
z
" transform="scale(0.015625)"/>
       <path id="DejaVuSans-29" d="M 513 4856 
L 1013 4856 
Q 1481 4119 1714 3412 
Q 1947 2706 1947 2009 
Q 1947 1309 1714 600 
Q 1481 -109 1013 -844 
L 513 -844 
Q 928 -128 1133 580 
Q 1338 1288 1338 2009 
Q 1338 2731 1133 3434 
Q 928 4138 513 4856 
z
" transform="scale(0.015625)"/>
      </defs>
      <use xlink:href="#DejaVuSans-54"/>
      <use xlink:href="#DejaVuSans-69" x="57.958984"/>
      <use xlink:href="#DejaVuSans-6d" x="85.742188"/>
      <use xlink:href="#DejaVuSans-65" x="183.154297"/>
      <use xlink:href="#DejaVuSans-20" x="244.677734"/>
      <use xlink:href="#DejaVuSans-28" x="276.464844"/>
      <use xlink:href="#DejaVuSans-73" x="315.478516"/>
      <use xlink:href="#DejaVuSans-29" x="367.578125"/>
     </g>
    </g>
   </g>
   <g id="matplotlib.axis_2">
    <g id="ytick_1">
     <g id="line2d_17">
      <path d="M 107.3 331 
L 897.84 331 
" clip-path="url(#p2e627d9cdb)" style="fill: none; stroke-dasharray: 5.12,1.28,0.8,1.28; stroke-dashoffset: 0; stroke: #b0b0b0; stroke-width: 0.8"/>
     </g>
     <g id="line2d_18">
      <defs>
       <path id="m44076b6fce" d="M 0 0 
L -3.5 0 
" style="stroke: #000000; stroke-width: 0.8"/>
      </defs>
      <g>
       <use xlink:href="#m44076b6fce" x="107.3" y="331" style="stroke: #000000; stroke-width: 0.8"/>
      </g>
     </g>
     <g id="text_10">
      <!-- 0 -->
      <g transform="translate(86.3025 339.358281) scale(0.22 -0.22)">
       <use xlink:href="#DejaVuSans-30"/>
      </g>
     </g>
    </g>
    <g id="ytick_2">
     <g id="line2d_19">
      <path d="M 107.3 232.013431 
L 897.84 232.013431 
" clip-path="url(#p2e627d9cdb)" style="fill: none; stroke-dasharray: 5.12,1.28,0.8,1.28; stroke-dashoffset: 0; stroke: #b0b0b0; stroke-width: 0.8"/>
     </g>
     <g id="line2d_20">
      <g>
       <use xlink:href="#m44076b6fce" x="107.3" y="232.013431" style="stroke: #000000; stroke-width: 0.8"/>
      </g>
     </g>
     <g id="text_11">
      <!-- 5 -->
      <g transform="translate(86.3025 240.371712) scale(0.22 -0.22)">
       <use xlink:href="#DejaVuSans-35"/>
      </g>
     </g>
    </g>
    <g id="ytick_3">
     <g id="line2d_21">
      <path d="M 107.3 133.026862 
L 897.84 133.026862 
" clip-path="url(#p2e627d9cdb)" style="fill: none; stroke-dasharray: 5.12,1.28,0.8,1.28; stroke-dashoffset: 0; stroke: #b0b0b0; stroke-width: 0.8"/>
     </g>
     <g id="line2d_22">
      <g>
       <use xlink:href="#m44076b6fce" x="107.3" y="133.026862" style="stroke: #000000; stroke-width: 0.8"/>
      </g>
     </g>
     <g id="text_12">
      <!-- 10 -->
      <g transform="translate(72.305 141.385144) scale(0.22 -0.22)">
       <use xlink:href="#DejaVuSans-31"/>
       <use xlink:href="#DejaVuSans-30" x="63.623047"/>
      </g>
     </g>
    </g>
    <g id="ytick_4">
     <g id="line2d_23">
      <path d="M 107.3 34.040294 
L 897.84 34.040294 
" clip-path="url(#p2e627d9cdb)" style="fill: none; stroke-dasharray: 5.12,1.28,0.8,1.28; stroke-dashoffset: 0; stroke: #b0b0b0; stroke-width: 0.8"/>
     </g>
     <g id="line2d_24">
      <g>
       <use xlink:href="#m44076b6fce" x="107.3" y="34.040294" style="stroke: #000000; stroke-width: 0.8"/>
      </g>
     </g>
     <g id="text_13">
      <!-- 15 -->
      <g transform="translate(72.305 42.398575) scale(0.22 -0.22)">
       <use xlink:href="#DejaVuSans-31"/>
       <use xlink:href="#DejaVuSans-35" x="63.623047"/>
      </g>
     </g>
    </g>
    <g id="text_14">
     <!-- Throughput (Mbps) -->
     <g transform="translate(63.31375 292.094375) rotate(-90) scale(0.24 -0.24)">
      <defs>
       <path id="DejaVuSans-68" d="M 3513 2113 
L 3513 0 
L 2938 0 
L 2938 2094 
Q 2938 2591 2744 2837 
Q 2550 3084 2163 3084 
Q 1697 3084 1428 2787 
Q 1159 2491 1159 1978 
L 1159 0 
L 581 0 
L 581 4863 
L 1159 4863 
L 1159 2956 
Q 1366 3272 1645 3428 
Q 1925 3584 2291 3584 
Q 2894 3584 3203 3211 
Q 3513 2838 3513 2113 
z
" transform="scale(0.015625)"/>
       <path id="DejaVuSans-72" d="M 2631 2963 
Q 2534 3019 2420 3045 
Q 2306 3072 2169 3072 
Q 1681 3072 1420 2755 
Q 1159 2438 1159 1844 
L 1159 0 
L 581 0 
L 581 3500 
L 1159 3500 
L 1159 2956 
Q 1341 3275 1631 3429 
Q 1922 3584 2338 3584 
Q 2397 3584 2469 3576 
Q 2541 3569 2628 3553 
L 2631 2963 
z
" transform="scale(0.015625)"/>
       <path id="DejaVuSans-6f" d="M 1959 3097 
Q 1497 3097 1228 2736 
Q 959 2375 959 1747 
Q 959 1119 1226 758 
Q 1494 397 1959 397 
Q 2419 397 2687 759 
Q 2956 1122 2956 1747 
Q 2956 2369 2687 2733 
Q 2419 3097 1959 3097 
z
M 1959 3584 
Q 2709 3584 3137 3096 
Q 3566 2609 3566 1747 
Q 3566 888 3137 398 
Q 2709 -91 1959 -91 
Q 1206 -91 779 398 
Q 353 888 353 1747 
Q 353 2609 779 3096 
Q 1206 3584 1959 3584 
z
" transform="scale(0.015625)"/>
       <path id="DejaVuSans-75" d="M 544 1381 
L 544 3500 
L 1119 3500 
L 1119 1403 
Q 1119 906 1312 657 
Q 1506 409 1894 409 
Q 2359 409 2629 706 
Q 2900 1003 2900 1516 
L 2900 3500 
L 3475 3500 
L 3475 0 
L 2900 0 
L 2900 538 
Q 2691 219 2414 64 
Q 2138 -91 1772 -91 
Q 1169 -91 856 284 
Q 544 659 544 1381 
z
M 1991 3584 
L 1991 3584 
z
" transform="scale(0.015625)"/>
       <path id="DejaVuSans-67" d="M 2906 1791 
Q 2906 2416 2648 2759 
Q 2391 3103 1925 3103 
Q 1463 3103 1205 2759 
Q 947 2416 947 1791 
Q 947 1169 1205 825 
Q 1463 481 1925 481 
Q 2391 481 2648 825 
Q 2906 1169 2906 1791 
z
M 3481 434 
Q 3481 -459 3084 -895 
Q 2688 -1331 1869 -1331 
Q 1566 -1331 1297 -1286 
Q 1028 -1241 775 -1147 
L 775 -588 
Q 1028 -725 1275 -790 
Q 1522 -856 1778 -856 
Q 2344 -856 2625 -561 
Q 2906 -266 2906 331 
L 2906 616 
Q 2728 306 2450 153 
Q 2172 0 1784 0 
Q 1141 0 747 490 
Q 353 981 353 1791 
Q 353 2603 747 3093 
Q 1141 3584 1784 3584 
Q 2172 3584 2450 3431 
Q 2728 3278 2906 2969 
L 2906 3500 
L 3481 3500 
L 3481 434 
z
" transform="scale(0.015625)"/>
       <path id="DejaVuSans-70" d="M 1159 525 
L 1159 -1331 
L 581 -1331 
L 581 3500 
L 1159 3500 
L 1159 2969 
Q 1341 3281 1617 3432 
Q 1894 3584 2278 3584 
Q 2916 3584 3314 3078 
Q 3713 2572 3713 1747 
Q 3713 922 3314 415 
Q 2916 -91 2278 -91 
Q 1894 -91 1617 61 
Q 1341 213 1159 525 
z
M 3116 1747 
Q 3116 2381 2855 2742 
Q 2594 3103 2138 3103 
Q 1681 3103 1420 2742 
Q 1159 2381 1159 1747 
Q 1159 1113 1420 752 
Q 1681 391 2138 391 
Q 2594 391 2855 752 
Q 3116 1113 3116 1747 
z
" transform="scale(0.015625)"/>
       <path id="DejaVuSans-74" d="M 1172 4494 
L 1172 3500 
L 2356 3500 
L 2356 3053 
L 1172 3053 
L 1172 1153 
Q 1172 725 1289 603 
Q 1406 481 1766 481 
L 2356 481 
L 2356 0 
L 1766 0 
Q 1100 0 847 248 
Q 594 497 594 1153 
L 594 3053 
L 172 3053 
L 172 3500 
L 594 3500 
L 594 4494 
L 1172 4494 
z
" transform="scale(0.015625)"/>
       <path id="DejaVuSans-4d" d="M 628 4666 
L 1569 4666 
L 2759 1491 
L 3956 4666 
L 4897 4666 
L 4897 0 
L 4281 0 
L 4281 4097 
L 3078 897 
L 2444 897 
L 1241 4097 
L 1241 0 
L 628 0 
L 628 4666 
z
" transform="scale(0.015625)"/>
       <path id="DejaVuSans-62" d="M 3116 1747 
Q 3116 2381 2855 2742 
Q 2594 3103 2138 3103 
Q 1681 3103 1420 2742 
Q 1159 2381 1159 1747 
Q 1159 1113 1420 752 
Q 1681 391 2138 391 
Q 2594 391 2855 752 
Q 3116 1113 3116 1747 
z
M 1159 2969 
Q 1341 3281 1617 3432 
Q 1894 3584 2278 3584 
Q 2916 3584 3314 3078 
Q 3713 2572 3713 1747 
Q 3713 922 3314 415 
Q 2916 -91 2278 -91 
Q 1894 -91 1617 61 
Q 1341 213 1159 525 
L 1159 0 
L 581 0 
L 581 4863 
L 1159 4863 
L 1159 2969 
z
" transform="scale(0.015625)"/>
      </defs>
      <use xlink:href="#DejaVuSans-54"/>
      <use xlink:href="#DejaVuSans-68" x="61.083984"/>
      <use xlink:href="#DejaVuSans-72" x="124.462891"/>
      <use xlink:href="#DejaVuSans-6f" x="163.326172"/>
      <use xlink:href="#DejaVuSans-75" x="224.507812"/>
      <use xlink:href="#DejaVuSans-67" x="287.886719"/>
      <use xlink:href="#DejaVuSans-68" x="351.363281"/>
      <use xlink:href="#DejaVuSans-70" x="414.742188"/>
      <use xlink:href="#DejaVuSans-75" x="478.21875"/>
      <use xlink:href="#DejaVuSans-74" x="541.597656"/>
      <use xlink:href="#DejaVuSans-20" x="580.806641"/>
      <use xlink:href="#DejaVuSans-28" x="612.59375"/>
      <use xlink:href="#DejaVuSans-4d" x="651.607422"/>
      <use xlink:href="#DejaVuSans-62" x="737.886719"/>
      <use xlink:href="#DejaVuSans-70" x="801.363281"/>
      <use xlink:href="#DejaVuSans-73" x="864.839844"/>
      <use xlink:href="#DejaVuSans-29" x="916.939453"/>
     </g>
    </g>
   </g>
   <g id="patch_3">
    <path d="M 107.3 331 
L 107.3 23.76 
" style="fill: none; stroke: #000000; stroke-width: 0.8; stroke-linejoin: miter; stroke-linecap: square"/>
   </g>
   <g id="patch_4">
    <path d="M 897.84 331 
L 897.84 23.76 
" style="fill: none; stroke: #000000; stroke-width: 0.8; stroke-linejoin: miter; stroke-linecap: square"/>
   </g>
   <g id="patch_5">
    <path d="M 107.3 331 
L 897.84 331 
" style="fill: none; stroke: #000000; stroke-width: 0.8; stroke-linejoin: miter; stroke-linecap: square"/>
   </g>
   <g id="patch_6">
    <path d="M 107.3 23.76 
L 897.84 23.76 
" style="fill: none; stroke: #000000; stroke-width: 0.8; stroke-linejoin: miter; stroke-linecap: square"/>
   </g>
   <g id="legend_1">
    <g id="patch_7">
     <path d="M 756.24 148.6425 
L 881.04 148.6425 
Q 885.84 148.6425 885.84 143.8425 
L 885.84 40.56 
Q 885.84 35.76 881.04 35.76 
L 756.24 35.76 
Q 751.44 35.76 751.44 40.56 
L 751.44 143.8425 
Q 751.44 148.6425 756.24 148.6425 
z
" style="fill: #ffffff; opacity: 0.8; stroke: #cccccc; stroke-linejoin: miter"/>
    </g>
    <g id="patch_8">
     <path d="M 761.04 63.59625 
L 809.04 63.59625 
L 809.04 46.79625 
L 761.04 46.79625 
z
" style="fill: #1f77b4"/>
    </g>
    <g id="text_15">
     <!-- UE1 -->
     <g transform="translate(828.24 63.59625) scale(0.24 -0.24)">
      <defs>
       <path id="DejaVuSans-55" d="M 556 4666 
L 1191 4666 
L 1191 1831 
Q 1191 1081 1462 751 
Q 1734 422 2344 422 
Q 2950 422 3222 751 
Q 3494 1081 3494 1831 
L 3494 4666 
L 4128 4666 
L 4128 1753 
Q 4128 841 3676 375 
Q 3225 -91 2344 -91 
Q 1459 -91 1007 375 
Q 556 841 556 1753 
L 556 4666 
z
" transform="scale(0.015625)"/>
       <path id="DejaVuSans-45" d="M 628 4666 
L 3578 4666 
L 3578 4134 
L 1259 4134 
L 1259 2753 
L 3481 2753 
L 3481 2222 
L 1259 2222 
L 1259 531 
L 3634 531 
L 3634 0 
L 628 0 
L 628 4666 
z
" transform="scale(0.015625)"/>
      </defs>
      <use xlink:href="#DejaVuSans-55"/>
      <use xlink:href="#DejaVuSans-45" x="73.193359"/>
      <use xlink:href="#DejaVuSans-31" x="136.376953"/>
     </g>
    </g>
    <g id="patch_9">
     <path d="M 761.04 98.82375 
L 809.04 98.82375 
L 809.04 82.02375 
L 761.04 82.02375 
z
" style="fill: #ff7f0e"/>
    </g>
    <g id="text_16">
     <!-- UE2 -->
     <g transform="translate(828.24 98.82375) scale(0.24 -0.24)">
      <use xlink:href="#DejaVuSans-55"/>
      <use xlink:href="#DejaVuSans-45" x="73.193359"/>
      <use xlink:href="#DejaVuSans-32" x="136.376953"/>
     </g>
    </g>
    <g id="patch_10">
     <path d="M 761.04 134.05125 
L 809.04 134.05125 
L 809.04 117.25125 
L 761.04 117.25125 
z
" style="fill: #2ca02c"/>
    </g>
    <g id="text_17">
     <!-- UE3 -->
     <g transform="translate(828.24 134.05125) scale(0.24 -0.24)">
      <defs>
       <path id="DejaVuSans-33" d="M 2597 2516 
Q 3050 2419 3304 2112 
Q 3559 1806 3559 1356 
Q 3559 666 3084 287 
Q 2609 -91 1734 -91 
Q 1441 -91 1130 -33 
Q 819 25 488 141 
L 488 750 
Q 750 597 1062 519 
Q 1375 441 1716 441 
Q 2309 441 2620 675 
Q 2931 909 2931 1356 
Q 2931 1769 2642 2001 
Q 2353 2234 1838 2234 
L 1294 2234 
L 1294 2753 
L 1863 2753 
Q 2328 2753 2575 2939 
Q 2822 3125 2822 3475 
Q 2822 3834 2567 4026 
Q 2313 4219 1838 4219 
Q 1578 4219 1281 4162 
Q 984 4106 628 3988 
L 628 4550 
Q 988 4650 1302 4700 
Q 1616 4750 1894 4750 
Q 2613 4750 3031 4423 
Q 3450 4097 3450 3541 
Q 3450 3153 3228 2886 
Q 3006 2619 2597 2516 
z
" transform="scale(0.015625)"/>
      </defs>
      <use xlink:href="#DejaVuSans-55"/>
      <use xlink:href="#DejaVuSans-45" x="73.193359"/>
      <use xlink:href="#DejaVuSans-33" x="136.376953"/>
     </g>
    </g>
   </g>
  </g>
 </g>
 <defs>
  <clipPath id="p2e627d9cdb">
   <rect x="107.3" y="23.76" width="790.54" height="307.24"/>
  </clipPath>
 </defs>
</svg>
