<?xml version="1.0" encoding="utf-8" standalone="no"?>
<!DOCTYPE svg PUBLIC "-//W3C//DTD SVG 1.1//EN"
  "http://www.w3.org/Graphics/SVG/1.1/DTD/svg11.dtd">
<svg xmlns:xlink="http://www.w3.org/1999/xlink" width="921.6pt" height="410.4pt" viewBox="0 0 921.6 410.4" xmlns="http://www.w3.org/2000/svg" version="1.1">
 <metadata>
  <rdf:RDF xmlns:dc="http://purl.org/dc/elements/1.1/" xmlns:cc="http://creativecommons.org/ns#" xmlns:rdf="http://www.w3.org/1999/02/22-rdf-syntax-ns#">
   <cc:Work>
    <dc:type rdf:resource="http://purl.org/dc/dcmitype/StillImage"/>
    <dc:date>2023-05-08T14:05:22.924977</dc:date>
    <dc:format>image/svg+xml</dc:format>
    <dc:creator>
     <cc:Agent>
      <dc:title>Matplotlib v3.7.1, https://matplotlib.org/</dc:title>
     </cc:Agent>
    </dc:creator>
   </cc:Work>
  </rdf:RDF>
 </metadata>
 <defs>
  <style type="text/css">*{stroke-linejoin: round; stroke-linecap: butt}</style>
 </defs>
 <g id="figure_1">
  <g id="patch_1">
   <path d="M 0 410.4 
L 921.6 410.4 
L 921.6 0 
L 0 0 
z
" style="fill: #ffffff"/>
  </g>
  <g id="axes_1">
   <g id="patch_2">
    <path d="M 86.51 331 
L 897.84 331 
L 897.84 23.76 
L 86.51 23.76 
z
" style="fill: #ffffff"/>
   </g>
   <g id="PolyCollection_1">
    <path d="M 123.388636 233.527021 
L 123.388636 331 
L 127.022 331 
L 130.655363 331 
L 134.288726 331 
L 137.922089 331 
L 141.555452 331 
L 145.188815 331 
L 148.822179 331 
L 152.455542 331 
L 156.088905 331 
L 159.722268 331 
L 163.355631 331 
L 166.988995 331 
L 170.622358 331 
L 174.255721 331 
L 177.889084 331 
L 181.522447 331 
L 185.155811 331 
L 188.789174 331 
L 192.422537 331 
L 196.0559 331 
L 199.689263 331 
L 203.322627 331 
L 206.95599 331 
L 210.589353 331 
L 214.222716 331 
L 217.856079 331 
L 221.489442 331 
L 225.122806 331 
L 228.756169 331 
L 232.389532 331 
L 236.022895 331 
L 239.656258 331 
L 243.289622 331 
L 246.922985 331 
L 250.556348 331 
L 254.189711 331 
L 257.823074 331 
L 261.456438 331 
L 265.089801 331 
L 268.723164 331 
L 272.356527 331 
L 275.98989 331 
L 279.623253 331 
L 283.256617 331 
L 286.88998 331 
L 290.523343 331 
L 294.156706 331 
L 297.790069 331 
L 301.423433 331 
L 305.056796 331 
L 308.690159 331 
L 312.323522 331 
L 315.956885 331 
L 319.590249 331 
L 323.223612 331 
L 326.856975 331 
L 330.490338 331 
L 334.123701 331 
L 337.757064 331 
L 341.390428 331 
L 345.023791 331 
L 348.657154 331 
L 352.290517 331 
L 355.92388 331 
L 359.557244 331 
L 363.190607 331 
L 366.82397 331 
L 370.457333 331 
L 374.090696 331 
L 377.72406 331 
L 381.357423 331 
L 384.990786 331 
L 388.624149 331 
L 392.257512 331 
L 395.890876 331 
L 399.524239 331 
L 403.157602 331 
L 406.790965 331 
L 410.424328 331 
L 414.057691 331 
L 417.691055 331 
L 421.324418 331 
L 424.957781 331 
L 428.591144 331 
L 432.224507 331 
L 435.857871 331 
L 439.491234 331 
L 443.124597 331 
L 446.75796 331 
L 450.391323 331 
L 454.024687 331 
L 457.65805 331 
L 461.291413 331 
L 464.924776 331 
L 468.558139 331 
L 472.191502 331 
L 475.824866 331 
L 479.458229 331 
L 483.091592 331 
L 486.724955 331 
L 490.358318 331 
L 493.991682 331 
L 497.625045 331 
L 501.258408 331 
L 504.891771 331 
L 508.525134 331 
L 512.158498 331 
L 515.791861 331 
L 519.425224 331 
L 523.058587 331 
L 526.69195 331 
L 530.325313 331 
L 533.958677 331 
L 537.59204 331 
L 541.225403 331 
L 544.858766 331 
L 548.492129 331 
L 552.125493 331 
L 555.758856 331 
L 559.392219 331 
L 563.025582 331 
L 566.658945 331 
L 570.292309 331 
L 573.925672 331 
L 577.559035 331 
L 581.192398 331 
L 584.825761 331 
L 588.459124 331 
L 592.092488 331 
L 595.725851 331 
L 599.359214 331 
L 602.992577 331 
L 606.62594 331 
L 610.259304 331 
L 613.892667 331 
L 617.52603 331 
L 621.159393 331 
L 624.792756 331 
L 628.42612 331 
L 632.059483 331 
L 635.692846 331 
L 639.326209 331 
L 642.959572 331 
L 646.592936 331 
L 650.226299 331 
L 653.859662 331 
L 657.493025 331 
L 661.126388 331 
L 664.759751 331 
L 668.393115 331 
L 672.026478 331 
L 675.659841 331 
L 679.293204 331 
L 682.926567 331 
L 686.559931 331 
L 690.193294 331 
L 693.826657 331 
L 697.46002 331 
L 701.093383 331 
L 704.726747 331 
L 708.36011 331 
L 711.993473 331 
L 715.626836 331 
L 719.260199 331 
L 722.893562 331 
L 726.526926 331 
L 730.160289 331 
L 733.793652 331 
L 737.427015 331 
L 741.060378 331 
L 744.693742 331 
L 748.327105 331 
L 751.960468 331 
L 755.593831 331 
L 759.227194 331 
L 762.860558 331 
L 766.493921 331 
L 770.127284 331 
L 773.760647 331 
L 777.39401 331 
L 781.027373 331 
L 784.660737 331 
L 788.2941 331 
L 791.927463 331 
L 795.560826 331 
L 799.194189 331 
L 802.827553 331 
L 806.460916 331 
L 810.094279 331 
L 813.727642 331 
L 817.361005 331 
L 820.994369 331 
L 824.627732 331 
L 828.261095 331 
L 831.894458 331 
L 835.527821 331 
L 839.161185 331 
L 842.794548 331 
L 846.427911 331 
L 850.061274 331 
L 853.694637 331 
L 857.328 331 
L 860.961364 331 
L 860.961364 331 
L 860.961364 331 
L 857.328 233.875894 
L 853.694637 233.56637 
L 850.061274 233.583443 
L 846.427911 233.734365 
L 842.794548 233.71945 
L 839.161185 233.634025 
L 835.527821 233.544792 
L 831.894458 233.578429 
L 828.261095 233.387079 
L 824.627732 233.975282 
L 820.994369 233.632375 
L 817.361005 234.029418 
L 813.727642 233.499604 
L 810.094279 233.461652 
L 806.460916 234.018121 
L 802.827553 233.342653 
L 799.194189 233.665695 
L 795.560826 233.567132 
L 791.927463 233.521056 
L 788.2941 233.81979 
L 784.660737 233.458796 
L 781.027373 233.895251 
L 777.39401 233.691779 
L 773.760647 233.503856 
L 770.127284 233.601086 
L 766.493921 234.690289 
L 762.860558 238.386419 
L 759.227194 234.438583 
L 755.593831 234.394791 
L 751.960468 235.009332 
L 748.327105 234.637168 
L 744.693742 233.613272 
L 741.060378 233.944691 
L 737.427015 233.861804 
L 733.793652 233.413862 
L 730.160289 233.419637 
L 726.526926 233.998129 
L 722.893562 233.494019 
L 719.260199 234.445882 
L 715.626836 233.612002 
L 711.993473 233.80075 
L 708.36011 233.915243 
L 704.726747 234.146132 
L 701.093383 234.263607 
L 697.46002 233.465015 
L 693.826657 233.318917 
L 690.193294 233.664616 
L 686.559931 233.393933 
L 682.926567 233.609464 
L 679.293204 233.525879 
L 675.659841 233.427507 
L 672.026478 233.631804 
L 668.393115 233.777458 
L 664.759751 233.689875 
L 661.126388 233.603752 
L 657.493025 233.806652 
L 653.859662 233.617651 
L 650.226299 233.608258 
L 646.592936 233.564339 
L 642.959572 233.238251 
L 639.326209 233.395076 
L 635.692846 233.372228 
L 632.059483 233.55812 
L 628.42612 233.43544 
L 624.792756 233.586616 
L 621.159393 233.336941 
L 617.52603 233.672168 
L 613.892667 233.431251 
L 610.259304 233.885921 
L 606.62594 233.636119 
L 602.992577 234.000795 
L 599.359214 233.353569 
L 595.725851 233.276394 
L 592.092488 233.616001 
L 588.459124 233.463873 
L 584.825761 233.582745 
L 581.192398 233.546315 
L 577.559035 233.368166 
L 573.925672 233.84854 
L 570.292309 233.462857 
L 566.658945 234.146068 
L 563.025582 233.466792 
L 559.392219 233.795102 
L 555.758856 233.975218 
L 552.125493 233.276268 
L 548.492129 234.070163 
L 544.858766 233.868278 
L 541.225403 233.603625 
L 537.59204 233.612891 
L 533.958677 233.486974 
L 530.325313 233.52461 
L 526.69195 233.757657 
L 523.058587 233.376988 
L 519.425224 233.442104 
L 515.791861 233.61232 
L 512.158498 234.528197 
L 508.525134 233.782535 
L 504.891771 234.208519 
L 501.258408 233.520484 
L 497.625045 233.420716 
L 493.991682 233.544284 
L 490.358318 233.774793 
L 486.724955 233.677817 
L 483.091592 233.428015 
L 479.458229 233.594232 
L 475.824866 233.53432 
L 472.191502 233.374069 
L 468.558139 233.450672 
L 464.924776 233.603815 
L 461.291413 233.548219 
L 457.65805 233.780378 
L 454.024687 233.447879 
L 450.391323 233.190462 
L 446.75796 233.697047 
L 443.124597 233.70974 
L 439.491234 233.580968 
L 435.857871 233.784376 
L 432.224507 233.689304 
L 428.591144 233.557802 
L 424.957781 233.565545 
L 421.324418 233.570178 
L 417.691055 233.734936 
L 414.057691 233.64583 
L 410.424328 233.398693 
L 406.790965 233.848857 
L 403.157602 233.894807 
L 399.524239 233.433917 
L 395.890876 233.746804 
L 392.257512 233.837243 
L 388.624149 233.499604 
L 384.990786 233.610606 
L 381.357423 233.431569 
L 377.72406 233.286993 
L 374.090696 233.690256 
L 370.457333 235.219278 
L 366.82397 233.612701 
L 363.190607 233.359218 
L 359.557244 234.042492 
L 355.92388 233.418558 
L 352.290517 234.167203 
L 348.657154 233.657952 
L 345.023791 233.295244 
L 341.390428 233.614731 
L 337.757064 233.823852 
L 334.123701 233.800687 
L 330.490338 233.312697 
L 326.856975 234.08292 
L 323.223612 233.613399 
L 319.590249 233.495479 
L 315.956885 233.430871 
L 312.323522 233.741346 
L 308.690159 233.664044 
L 305.056796 233.645259 
L 301.423433 233.674389 
L 297.790069 233.638722 
L 294.156706 234.066926 
L 290.523343 233.665568 
L 286.88998 233.440581 
L 283.256617 233.988546 
L 279.623253 233.621586 
L 275.98989 233.734492 
L 272.356527 233.301527 
L 268.723164 233.96957 
L 265.089801 233.703203 
L 261.456438 233.173072 
L 257.823074 234.420051 
L 254.189711 233.621586 
L 250.556348 233.695904 
L 246.922985 233.192112 
L 243.289622 233.784186 
L 239.656258 233.473139 
L 236.022895 233.396282 
L 232.389532 233.705043 
L 228.756169 233.346524 
L 225.122806 233.75277 
L 221.489442 233.773714 
L 217.856079 233.23622 
L 214.222716 233.98734 
L 210.589353 233.532353 
L 206.95599 233.686258 
L 203.322627 233.313903 
L 199.689263 233.737411 
L 196.0559 233.684988 
L 192.422537 233.852792 
L 188.789174 233.736142 
L 185.155811 234.183831 
L 181.522447 233.279377 
L 177.889084 233.466158 
L 174.255721 233.910419 
L 170.622358 233.537113 
L 166.988995 234.206615 
L 163.355631 233.357504 
L 159.722268 233.755943 
L 156.088905 234.051187 
L 152.455542 233.244471 
L 148.822179 233.623934 
L 145.188815 233.845811 
L 141.555452 233.517692 
L 137.922089 233.568147 
L 134.288726 233.762861 
L 130.655363 233.869293 
L 127.022 233.569099 
L 123.388636 233.527021 
z
" clip-path="url(#p52c4757cf3)" style="fill: #1f77b4"/>
   </g>
   <g id="PolyCollection_2">
    <path d="M 123.388636 136.217341 
L 123.388636 233.527021 
L 127.022 233.569099 
L 130.655363 233.869293 
L 134.288726 233.762861 
L 137.922089 233.568147 
L 141.555452 233.517692 
L 145.188815 233.845811 
L 148.822179 233.623934 
L 152.455542 233.244471 
L 156.088905 234.051187 
L 159.722268 233.755943 
L 163.355631 233.357504 
L 166.988995 234.206615 
L 170.622358 233.537113 
L 174.255721 233.910419 
L 177.889084 233.466158 
L 181.522447 233.279377 
L 185.155811 234.183831 
L 188.789174 233.736142 
L 192.422537 233.852792 
L 196.0559 233.684988 
L 199.689263 233.737411 
L 203.322627 233.313903 
L 206.95599 233.686258 
L 210.589353 233.532353 
L 214.222716 233.98734 
L 217.856079 233.23622 
L 221.489442 233.773714 
L 225.122806 233.75277 
L 228.756169 233.346524 
L 232.389532 233.705043 
L 236.022895 233.396282 
L 239.656258 233.473139 
L 243.289622 233.784186 
L 246.922985 233.192112 
L 250.556348 233.695904 
L 254.189711 233.621586 
L 257.823074 234.420051 
L 261.456438 233.173072 
L 265.089801 233.703203 
L 268.723164 233.96957 
L 272.356527 233.301527 
L 275.98989 233.734492 
L 279.623253 233.621586 
L 283.256617 233.988546 
L 286.88998 233.440581 
L 290.523343 233.665568 
L 294.156706 234.066926 
L 297.790069 233.638722 
L 301.423433 233.674389 
L 305.056796 233.645259 
L 308.690159 233.664044 
L 312.323522 233.741346 
L 315.956885 233.430871 
L 319.590249 233.495479 
L 323.223612 233.613399 
L 326.856975 234.08292 
L 330.490338 233.312697 
L 334.123701 233.800687 
L 337.757064 233.823852 
L 341.390428 233.614731 
L 345.023791 233.295244 
L 348.657154 233.657952 
L 352.290517 234.167203 
L 355.92388 233.418558 
L 359.557244 234.042492 
L 363.190607 233.359218 
L 366.82397 233.612701 
L 370.457333 235.219278 
L 374.090696 233.690256 
L 377.72406 233.286993 
L 381.357423 233.431569 
L 384.990786 233.610606 
L 388.624149 233.499604 
L 392.257512 233.837243 
L 395.890876 233.746804 
L 399.524239 233.433917 
L 403.157602 233.894807 
L 406.790965 233.848857 
L 410.424328 233.398693 
L 414.057691 233.64583 
L 417.691055 233.734936 
L 421.324418 233.570178 
L 424.957781 233.565545 
L 428.591144 233.557802 
L 432.224507 233.689304 
L 435.857871 233.784376 
L 439.491234 233.580968 
L 443.124597 233.70974 
L 446.75796 233.697047 
L 450.391323 233.190462 
L 454.024687 233.447879 
L 457.65805 233.780378 
L 461.291413 233.548219 
L 464.924776 233.603815 
L 468.558139 233.450672 
L 472.191502 233.374069 
L 475.824866 233.53432 
L 479.458229 233.594232 
L 483.091592 233.428015 
L 486.724955 233.677817 
L 490.358318 233.774793 
L 493.991682 233.544284 
L 497.625045 233.420716 
L 501.258408 233.520484 
L 504.891771 234.208519 
L 508.525134 233.782535 
L 512.158498 234.528197 
L 515.791861 233.61232 
L 519.425224 233.442104 
L 523.058587 233.376988 
L 526.69195 233.757657 
L 530.325313 233.52461 
L 533.958677 233.486974 
L 537.59204 233.612891 
L 541.225403 233.603625 
L 544.858766 233.868278 
L 548.492129 234.070163 
L 552.125493 233.276268 
L 555.758856 233.975218 
L 559.392219 233.795102 
L 563.025582 233.466792 
L 566.658945 234.146068 
L 570.292309 233.462857 
L 573.925672 233.84854 
L 577.559035 233.368166 
L 581.192398 233.546315 
L 584.825761 233.582745 
L 588.459124 233.463873 
L 592.092488 233.616001 
L 595.725851 233.276394 
L 599.359214 233.353569 
L 602.992577 234.000795 
L 606.62594 233.636119 
L 610.259304 233.885921 
L 613.892667 233.431251 
L 617.52603 233.672168 
L 621.159393 233.336941 
L 624.792756 233.586616 
L 628.42612 233.43544 
L 632.059483 233.55812 
L 635.692846 233.372228 
L 639.326209 233.395076 
L 642.959572 233.238251 
L 646.592936 233.564339 
L 650.226299 233.608258 
L 653.859662 233.617651 
L 657.493025 233.806652 
L 661.126388 233.603752 
L 664.759751 233.689875 
L 668.393115 233.777458 
L 672.026478 233.631804 
L 675.659841 233.427507 
L 679.293204 233.525879 
L 682.926567 233.609464 
L 686.559931 233.393933 
L 690.193294 233.664616 
L 693.826657 233.318917 
L 697.46002 233.465015 
L 701.093383 234.263607 
L 704.726747 234.146132 
L 708.36011 233.915243 
L 711.993473 233.80075 
L 715.626836 233.612002 
L 719.260199 234.445882 
L 722.893562 233.494019 
L 726.526926 233.998129 
L 730.160289 233.419637 
L 733.793652 233.413862 
L 737.427015 233.861804 
L 741.060378 233.944691 
L 744.693742 233.613272 
L 748.327105 234.637168 
L 751.960468 235.009332 
L 755.593831 234.394791 
L 759.227194 234.438583 
L 762.860558 238.386419 
L 766.493921 234.690289 
L 770.127284 233.601086 
L 773.760647 233.503856 
L 777.39401 233.691779 
L 781.027373 233.895251 
L 784.660737 233.458796 
L 788.2941 233.81979 
L 791.927463 233.521056 
L 795.560826 233.567132 
L 799.194189 233.665695 
L 802.827553 233.342653 
L 806.460916 234.018121 
L 810.094279 233.461652 
L 813.727642 233.499604 
L 817.361005 234.029418 
L 820.994369 233.632375 
L 824.627732 233.975282 
L 828.261095 233.387079 
L 831.894458 233.578429 
L 835.527821 233.544792 
L 839.161185 233.634025 
L 842.794548 233.71945 
L 846.427911 233.734365 
L 850.061274 233.583443 
L 853.694637 233.56637 
L 857.328 233.875894 
L 860.961364 331 
L 860.961364 331 
L 860.961364 331 
L 857.328 136.687687 
L 853.694637 136.467206 
L 850.061274 135.855331 
L 846.427911 137.167299 
L 842.794548 136.404756 
L 839.161185 136.626379 
L 835.527821 136.230732 
L 831.894458 136.345796 
L 828.261095 136.115161 
L 824.627732 136.894269 
L 820.994369 136.393776 
L 817.361005 137.174852 
L 813.727642 136.290327 
L 810.094279 135.957448 
L 806.460916 136.662555 
L 802.827553 135.858568 
L 799.194189 136.528641 
L 795.560826 136.154573 
L 791.927463 136.531497 
L 788.2941 136.598073 
L 784.660737 136.797039 
L 781.027373 136.454767 
L 777.39401 136.544571 
L 773.760647 135.909721 
L 770.127284 136.488467 
L 766.493921 138.591348 
L 762.860558 141.332443 
L 759.227194 140.2989 
L 755.593831 137.828741 
L 751.960468 139.34507 
L 748.327105 138.016728 
L 744.693742 136.678294 
L 741.060378 136.83131 
L 737.427015 136.867994 
L 733.793652 136.426144 
L 730.160289 135.90566 
L 726.526926 137.41818 
L 722.893562 136.06204 
L 719.260199 138.055061 
L 715.626836 135.9584 
L 711.993473 136.659699 
L 708.36011 136.892238 
L 704.726747 137.217564 
L 701.093383 137.941393 
L 697.46002 136.237967 
L 693.826657 136.22629 
L 690.193294 136.465937 
L 686.559931 136.231113 
L 682.926567 136.256372 
L 679.293204 136.037415 
L 675.659841 136.545714 
L 672.026478 136.097073 
L 668.393115 137.133853 
L 664.759751 136.583793 
L 661.126388 136.243172 
L 657.493025 136.710344 
L 653.859662 136.286773 
L 650.226299 136.455338 
L 646.592936 136.20598 
L 642.959572 136.203632 
L 639.326209 136.122142 
L 635.692846 136.234032 
L 632.059483 136.417893 
L 628.42612 136.261577 
L 624.792756 136.503636 
L 621.159393 135.74966 
L 617.52603 136.810367 
L 613.892667 136.267289 
L 610.259304 136.737889 
L 606.62594 136.423859 
L 602.992577 136.749312 
L 599.359214 136.29826 
L 595.725851 135.965825 
L 592.092488 136.290771 
L 588.459124 136.215754 
L 584.825761 136.317807 
L 581.192398 136.269573 
L 577.559035 136.109449 
L 573.925672 136.518995 
L 570.292309 136.095169 
L 566.658945 137.07521 
L 563.025582 136.383177 
L 559.392219 136.687052 
L 555.758856 137.508936 
L 552.125493 136.154827 
L 548.492129 136.928286 
L 544.858766 136.418845 
L 541.225403 136.646625 
L 537.59204 136.413451 
L 533.958677 136.057661 
L 530.325313 136.586903 
L 526.69195 136.249201 
L 523.058587 136.567863 
L 519.425224 136.002699 
L 515.791861 135.948118 
L 512.158498 137.412849 
L 508.525134 137.143626 
L 504.891771 137.029515 
L 501.258408 137.375341 
L 497.625045 136.05271 
L 493.991682 136.825154 
L 490.358318 136.665093 
L 486.724955 136.48834 
L 483.091592 136.04776 
L 479.458229 136.457496 
L 475.824866 136.442201 
L 472.191502 136.187068 
L 468.558139 136.163522 
L 464.924776 136.740998 
L 461.291413 136.282203 
L 457.65805 136.844511 
L 454.024687 136.03018 
L 450.391323 136.143657 
L 446.75796 136.644784 
L 443.124597 136.453688 
L 439.491234 136.469935 
L 435.857871 136.624729 
L 432.224507 136.765814 
L 428.591144 136.101071 
L 424.957781 136.323519 
L 421.324418 136.374673 
L 417.691055 136.341798 
L 414.057691 136.402979 
L 410.424328 135.884906 
L 406.790965 136.793485 
L 403.157602 136.991752 
L 399.524239 136.021739 
L 395.890876 136.426207 
L 392.257512 136.887097 
L 388.624149 136.530418 
L 384.990786 136.270018 
L 381.357423 135.848159 
L 377.72406 136.502811 
L 374.090696 136.225972 
L 370.457333 139.087271 
L 366.82397 136.352333 
L 363.190607 135.83864 
L 359.557244 136.74671 
L 355.92388 136.091551 
L 352.290517 137.201761 
L 348.657154 136.59014 
L 345.023791 136.286836 
L 341.390428 136.315713 
L 337.757064 136.276491 
L 334.123701 136.97449 
L 330.490338 135.576969 
L 326.856975 137.34456 
L 323.223612 136.087109 
L 319.590249 136.652844 
L 315.956885 136.038367 
L 312.323522 136.541398 
L 308.690159 136.352396 
L 305.056796 136.458702 
L 301.423433 136.393522 
L 297.790069 136.171709 
L 294.156706 137.410691 
L 290.523343 136.404185 
L 286.88998 136.195889 
L 283.256617 136.885003 
L 279.623253 136.394347 
L 275.98989 136.557011 
L 272.356527 135.761401 
L 268.723164 136.790121 
L 265.089801 136.43687 
L 261.456438 136.132296 
L 257.823074 137.682135 
L 254.189711 136.433442 
L 250.556348 136.091869 
L 246.922985 135.974711 
L 243.289622 136.378925 
L 239.656258 136.206298 
L 236.022895 136.083808 
L 232.389532 136.514933 
L 228.756169 136.233271 
L 225.122806 136.237777 
L 221.489442 136.57567 
L 217.856079 135.640245 
L 214.222716 137.112528 
L 210.589353 136.091869 
L 206.95599 136.610259 
L 203.322627 135.985627 
L 199.689263 136.456354 
L 196.0559 136.394982 
L 192.422537 137.17739 
L 188.789174 136.048966 
L 185.155811 137.398696 
L 181.522447 136.113193 
L 177.889084 136.416941 
L 174.255721 136.613368 
L 170.622358 136.550537 
L 166.988995 137.166601 
L 163.355631 135.991212 
L 159.722268 136.479392 
L 156.088905 137.255834 
L 152.455542 135.674517 
L 148.822179 136.267098 
L 145.188815 137.00032 
L 141.555452 136.389968 
L 137.922089 136.222926 
L 134.288726 136.56964 
L 130.655363 136.887034 
L 127.022 136.186369 
L 123.388636 136.217341 
z
" clip-path="url(#p52c4757cf3)" style="fill: #ff7f0e"/>
   </g>
   <g id="PolyCollection_3">
    <path d="M 123.388636 38.665093 
L 123.388636 136.217341 
L 127.022 136.186369 
L 130.655363 136.887034 
L 134.288726 136.56964 
L 137.922089 136.222926 
L 141.555452 136.389968 
L 145.188815 137.00032 
L 148.822179 136.267098 
L 152.455542 135.674517 
L 156.088905 137.255834 
L 159.722268 136.479392 
L 163.355631 135.991212 
L 166.988995 137.166601 
L 170.622358 136.550537 
L 174.255721 136.613368 
L 177.889084 136.416941 
L 181.522447 136.113193 
L 185.155811 137.398696 
L 188.789174 136.048966 
L 192.422537 137.17739 
L 196.0559 136.394982 
L 199.689263 136.456354 
L 203.322627 135.985627 
L 206.95599 136.610259 
L 210.589353 136.091869 
L 214.222716 137.112528 
L 217.856079 135.640245 
L 221.489442 136.57567 
L 225.122806 136.237777 
L 228.756169 136.233271 
L 232.389532 136.514933 
L 236.022895 136.083808 
L 239.656258 136.206298 
L 243.289622 136.378925 
L 246.922985 135.974711 
L 250.556348 136.091869 
L 254.189711 136.433442 
L 257.823074 137.682135 
L 261.456438 136.132296 
L 265.089801 136.43687 
L 268.723164 136.790121 
L 272.356527 135.761401 
L 275.98989 136.557011 
L 279.623253 136.394347 
L 283.256617 136.885003 
L 286.88998 136.195889 
L 290.523343 136.404185 
L 294.156706 137.410691 
L 297.790069 136.171709 
L 301.423433 136.393522 
L 305.056796 136.458702 
L 308.690159 136.352396 
L 312.323522 136.541398 
L 315.956885 136.038367 
L 319.590249 136.652844 
L 323.223612 136.087109 
L 326.856975 137.34456 
L 330.490338 135.576969 
L 334.123701 136.97449 
L 337.757064 136.276491 
L 341.390428 136.315713 
L 345.023791 136.286836 
L 348.657154 136.59014 
L 352.290517 137.201761 
L 355.92388 136.091551 
L 359.557244 136.74671 
L 363.190607 135.83864 
L 366.82397 136.352333 
L 370.457333 139.087271 
L 374.090696 136.225972 
L 377.72406 136.502811 
L 381.357423 135.848159 
L 384.990786 136.270018 
L 388.624149 136.530418 
L 392.257512 136.887097 
L 395.890876 136.426207 
L 399.524239 136.021739 
L 403.157602 136.991752 
L 406.790965 136.793485 
L 410.424328 135.884906 
L 414.057691 136.402979 
L 417.691055 136.341798 
L 421.324418 136.374673 
L 424.957781 136.323519 
L 428.591144 136.101071 
L 432.224507 136.765814 
L 435.857871 136.624729 
L 439.491234 136.469935 
L 443.124597 136.453688 
L 446.75796 136.644784 
L 450.391323 136.143657 
L 454.024687 136.03018 
L 457.65805 136.844511 
L 461.291413 136.282203 
L 464.924776 136.740998 
L 468.558139 136.163522 
L 472.191502 136.187068 
L 475.824866 136.442201 
L 479.458229 136.457496 
L 483.091592 136.04776 
L 486.724955 136.48834 
L 490.358318 136.665093 
L 493.991682 136.825154 
L 497.625045 136.05271 
L 501.258408 137.375341 
L 504.891771 137.029515 
L 508.525134 137.143626 
L 512.158498 137.412849 
L 515.791861 135.948118 
L 519.425224 136.002699 
L 523.058587 136.567863 
L 526.69195 136.249201 
L 530.325313 136.586903 
L 533.958677 136.057661 
L 537.59204 136.413451 
L 541.225403 136.646625 
L 544.858766 136.418845 
L 548.492129 136.928286 
L 552.125493 136.154827 
L 555.758856 137.508936 
L 559.392219 136.687052 
L 563.025582 136.383177 
L 566.658945 137.07521 
L 570.292309 136.095169 
L 573.925672 136.518995 
L 577.559035 136.109449 
L 581.192398 136.269573 
L 584.825761 136.317807 
L 588.459124 136.215754 
L 592.092488 136.290771 
L 595.725851 135.965825 
L 599.359214 136.29826 
L 602.992577 136.749312 
L 606.62594 136.423859 
L 610.259304 136.737889 
L 613.892667 136.267289 
L 617.52603 136.810367 
L 621.159393 135.74966 
L 624.792756 136.503636 
L 628.42612 136.261577 
L 632.059483 136.417893 
L 635.692846 136.234032 
L 639.326209 136.122142 
L 642.959572 136.203632 
L 646.592936 136.20598 
L 650.226299 136.455338 
L 653.859662 136.286773 
L 657.493025 136.710344 
L 661.126388 136.243172 
L 664.759751 136.583793 
L 668.393115 137.133853 
L 672.026478 136.097073 
L 675.659841 136.545714 
L 679.293204 136.037415 
L 682.926567 136.256372 
L 686.559931 136.231113 
L 690.193294 136.465937 
L 693.826657 136.22629 
L 697.46002 136.237967 
L 701.093383 137.941393 
L 704.726747 137.217564 
L 708.36011 136.892238 
L 711.993473 136.659699 
L 715.626836 135.9584 
L 719.260199 138.055061 
L 722.893562 136.06204 
L 726.526926 137.41818 
L 730.160289 135.90566 
L 733.793652 136.426144 
L 737.427015 136.867994 
L 741.060378 136.83131 
L 744.693742 136.678294 
L 748.327105 138.016728 
L 751.960468 139.34507 
L 755.593831 137.828741 
L 759.227194 140.2989 
L 762.860558 141.332443 
L 766.493921 138.591348 
L 770.127284 136.488467 
L 773.760647 135.909721 
L 777.39401 136.544571 
L 781.027373 136.454767 
L 784.660737 136.797039 
L 788.2941 136.598073 
L 791.927463 136.531497 
L 795.560826 136.154573 
L 799.194189 136.528641 
L 802.827553 135.858568 
L 806.460916 136.662555 
L 810.094279 135.957448 
L 813.727642 136.290327 
L 817.361005 137.174852 
L 820.994369 136.393776 
L 824.627732 136.894269 
L 828.261095 136.115161 
L 831.894458 136.345796 
L 835.527821 136.230732 
L 839.161185 136.626379 
L 842.794548 136.404756 
L 846.427911 137.167299 
L 850.061274 135.855331 
L 853.694637 136.467206 
L 857.328 136.687687 
L 860.961364 331 
L 860.961364 234.136739 
L 860.961364 234.136739 
L 857.328 39.494149 
L 853.694637 38.816587 
L 850.061274 38.843179 
L 846.427911 39.765593 
L 842.794548 39.115321 
L 839.161185 39.27297 
L 835.527821 38.425319 
L 831.894458 38.996068 
L 828.261095 38.857522 
L 824.627732 39.928701 
L 820.994369 39.041066 
L 817.361005 39.589348 
L 813.727642 38.799641 
L 810.094279 38.55828 
L 806.460916 39.061883 
L 802.827553 38.338815 
L 799.194189 39.402123 
L 795.560826 39.081684 
L 791.927463 38.785679 
L 788.2941 39.492182 
L 784.660737 39.352557 
L 781.027373 39.093869 
L 777.39401 39.096091 
L 773.760647 38.729702 
L 770.127284 40.114529 
L 766.493921 41.55216 
L 762.860558 47.401563 
L 759.227194 43.873744 
L 755.593831 41.359604 
L 751.960468 43.244035 
L 748.327105 40.977031 
L 744.693742 39.112528 
L 741.060378 39.948248 
L 737.427015 39.80088 
L 733.793652 38.622381 
L 730.160289 38.951579 
L 726.526926 40.087746 
L 722.893562 39.261991 
L 719.260199 40.42475 
L 715.626836 38.458258 
L 711.993473 40.299088 
L 708.36011 40.371376 
L 704.726747 40.445504 
L 701.093383 40.314129 
L 697.46002 38.653035 
L 693.826657 38.876562 
L 690.193294 38.807067 
L 686.559931 38.75128 
L 682.926567 38.607911 
L 679.293204 39.150164 
L 675.659841 38.899664 
L 672.026478 38.884876 
L 668.393115 39.913405 
L 664.759751 38.908993 
L 661.126388 38.678612 
L 657.493025 39.123635 
L 653.859662 38.703046 
L 650.226299 39.267893 
L 646.592936 38.524009 
L 642.959572 38.696572 
L 639.326209 38.469999 
L 635.692846 38.835119 
L 632.059483 38.652337 
L 628.42612 38.642309 
L 624.792756 39.096789 
L 621.159393 38.396632 
L 617.52603 39.359665 
L 613.892667 39.231464 
L 610.259304 39.386194 
L 606.62594 38.627902 
L 602.992577 39.339863 
L 599.359214 38.824012 
L 595.725851 38.622508 
L 592.092488 38.833088 
L 588.459124 38.87726 
L 584.825761 38.436045 
L 581.192398 39.037702 
L 577.559035 38.232129 
L 573.925672 39.170092 
L 570.292309 38.37772 
L 566.658945 40.416182 
L 563.025582 39.132012 
L 559.392219 39.69705 
L 555.758856 39.693242 
L 552.125493 38.749122 
L 548.492129 39.591887 
L 544.858766 38.657414 
L 541.225403 39.290614 
L 537.59204 39.091648 
L 533.958677 38.91534 
L 530.325313 39.129156 
L 526.69195 38.855491 
L 523.058587 38.798181 
L 519.425224 38.929048 
L 515.791861 38.30613 
L 512.158498 40.934255 
L 508.525134 39.493134 
L 504.891771 41.272402 
L 501.258408 39.945456 
L 497.625045 38.789169 
L 493.991682 39.87596 
L 490.358318 39.147054 
L 486.724955 39.396602 
L 483.091592 38.353856 
L 479.458229 38.963764 
L 475.824866 38.946311 
L 472.191502 38.637486 
L 468.558139 38.900108 
L 464.924776 39.605151 
L 461.291413 38.616098 
L 457.65805 39.426748 
L 454.024687 38.581255 
L 450.391323 39.033069 
L 446.75796 39.394508 
L 443.124597 38.718976 
L 439.491234 39.390636 
L 435.857871 39.014029 
L 432.224507 39.483487 
L 428.591144 38.868184 
L 424.957781 38.688957 
L 421.324418 38.691749 
L 417.691055 38.983058 
L 414.057691 39.036306 
L 410.424328 38.354808 
L 406.790965 39.39895 
L 403.157602 39.768005 
L 399.524239 38.63482 
L 395.890876 39.284267 
L 392.257512 39.615686 
L 388.624149 39.081367 
L 384.990786 38.939012 
L 381.357423 38.288613 
L 377.72406 38.874214 
L 374.090696 39.586048 
L 370.457333 41.524679 
L 366.82397 39.120208 
L 363.190607 38.311715 
L 359.557244 40.050746 
L 355.92388 38.540192 
L 352.290517 40.163017 
L 348.657154 39.021328 
L 345.023791 38.874785 
L 341.390428 38.808717 
L 337.757064 39.002225 
L 334.123701 39.752646 
L 330.490338 38.362424 
L 326.856975 40.207951 
L 323.223612 38.545587 
L 319.590249 38.928096 
L 315.956885 38.967636 
L 312.323522 38.730019 
L 308.690159 38.873008 
L 305.056796 39.13709 
L 301.423433 39.505954 
L 297.790069 38.893952 
L 294.156706 39.797834 
L 290.523343 39.185578 
L 286.88998 38.726655 
L 283.256617 39.707649 
L 279.623253 38.982994 
L 275.98989 39.207918 
L 272.356527 38.565706 
L 268.723164 39.343164 
L 265.089801 39.03694 
L 261.456438 39.497386 
L 257.823074 39.638471 
L 254.189711 39.084667 
L 250.556348 38.640532 
L 246.922985 38.509411 
L 243.289622 39.008444 
L 239.656258 38.959512 
L 236.022895 38.552949 
L 232.389532 39.143182 
L 228.756169 38.754136 
L 225.122806 38.593123 
L 221.489442 39.271066 
L 217.856079 38.464541 
L 214.222716 39.604707 
L 210.589353 38.716437 
L 206.95599 38.813286 
L 203.322627 38.664141 
L 199.689263 38.93768 
L 196.0559 39.522645 
L 192.422537 39.742872 
L 188.789174 39.338594 
L 185.155811 39.727831 
L 181.522447 38.541208 
L 177.889084 39.097233 
L 174.255721 39.232416 
L 170.622358 39.177137 
L 166.988995 39.972111 
L 163.355631 38.439472 
L 159.722268 39.964432 
L 156.088905 39.710695 
L 152.455542 38.195636 
L 148.822179 38.880179 
L 145.188815 39.619431 
L 141.555452 38.690734 
L 137.922089 38.888113 
L 134.288726 39.168125 
L 130.655363 39.512554 
L 127.022 38.812525 
L 123.388636 38.665093 
z
" clip-path="url(#p52c4757cf3)" style="fill: #2ca02c"/>
   </g>
   <g id="matplotlib.axis_1">
    <g id="xtick_1">
     <g id="line2d_1">
      <path d="M 123.388636 331 
L 123.388636 23.76 
" clip-path="url(#p52c4757cf3)" style="fill: none; stroke-dasharray: 5.12,1.28,0.8,1.28; stroke-dashoffset: 0; stroke: #b0b0b0; stroke-width: 0.8"/>
     </g>
     <g id="line2d_2">
      <defs>
       <path id="m2e66f63dd8" d="M 0 0 
L 0 3.5 
" style="stroke: #000000; stroke-width: 0.8"/>
      </defs>
      <g>
       <use xlink:href="#m2e66f63dd8" x="123.388636" y="331" style="stroke: #000000; stroke-width: 0.8"/>
      </g>
     </g>
     <g id="text_1">
      <!-- 0 -->
      <g transform="translate(116.389886 354.716563) scale(0.22 -0.22)">
       <defs>
        <path id="DejaVuSans-30" d="M 2034 4250 
Q 1547 4250 1301 3770 
Q 1056 3291 1056 2328 
Q 1056 1369 1301 889 
Q 1547 409 2034 409 
Q 2525 409 2770 889 
Q 3016 1369 3016 2328 
Q 3016 3291 2770 3770 
Q 2525 4250 2034 4250 
z
M 2034 4750 
Q 2819 4750 3233 4129 
Q 3647 3509 3647 2328 
Q 3647 1150 3233 529 
Q 2819 -91 2034 -91 
Q 1250 -91 836 529 
Q 422 1150 422 2328 
Q 422 3509 836 4129 
Q 1250 4750 2034 4750 
z
" transform="scale(0.015625)"/>
       </defs>
       <use xlink:href="#DejaVuSans-30"/>
      </g>
     </g>
    </g>
    <g id="xtick_2">
     <g id="line2d_3">
      <path d="M 214.222716 331 
L 214.222716 23.76 
" clip-path="url(#p52c4757cf3)" style="fill: none; stroke-dasharray: 5.12,1.28,0.8,1.28; stroke-dashoffset: 0; stroke: #b0b0b0; stroke-width: 0.8"/>
     </g>
     <g id="line2d_4">
      <g>
       <use xlink:href="#m2e66f63dd8" x="214.222716" y="331" style="stroke: #000000; stroke-width: 0.8"/>
      </g>
     </g>
     <g id="text_2">
      <!-- 25 -->
      <g transform="translate(200.225216 354.716563) scale(0.22 -0.22)">
       <defs>
        <path id="DejaVuSans-32" d="M 1228 531 
L 3431 531 
L 3431 0 
L 469 0 
L 469 531 
Q 828 903 1448 1529 
Q 2069 2156 2228 2338 
Q 2531 2678 2651 2914 
Q 2772 3150 2772 3378 
Q 2772 3750 2511 3984 
Q 2250 4219 1831 4219 
Q 1534 4219 1204 4116 
Q 875 4013 500 3803 
L 500 4441 
Q 881 4594 1212 4672 
Q 1544 4750 1819 4750 
Q 2544 4750 2975 4387 
Q 3406 4025 3406 3419 
Q 3406 3131 3298 2873 
Q 3191 2616 2906 2266 
Q 2828 2175 2409 1742 
Q 1991 1309 1228 531 
z
" transform="scale(0.015625)"/>
        <path id="DejaVuSans-35" d="M 691 4666 
L 3169 4666 
L 3169 4134 
L 1269 4134 
L 1269 2991 
Q 1406 3038 1543 3061 
Q 1681 3084 1819 3084 
Q 2600 3084 3056 2656 
Q 3513 2228 3513 1497 
Q 3513 744 3044 326 
Q 2575 -91 1722 -91 
Q 1428 -91 1123 -41 
Q 819 9 494 109 
L 494 744 
Q 775 591 1075 516 
Q 1375 441 1709 441 
Q 2250 441 2565 725 
Q 2881 1009 2881 1497 
Q 2881 1984 2565 2268 
Q 2250 2553 1709 2553 
Q 1456 2553 1204 2497 
Q 953 2441 691 2322 
L 691 4666 
z
" transform="scale(0.015625)"/>
       </defs>
       <use xlink:href="#DejaVuSans-32"/>
       <use xlink:href="#DejaVuSans-35" x="63.623047"/>
      </g>
     </g>
    </g>
    <g id="xtick_3">
     <g id="line2d_5">
      <path d="M 305.056796 331 
L 305.056796 23.76 
" clip-path="url(#p52c4757cf3)" style="fill: none; stroke-dasharray: 5.12,1.28,0.8,1.28; stroke-dashoffset: 0; stroke: #b0b0b0; stroke-width: 0.8"/>
     </g>
     <g id="line2d_6">
      <g>
       <use xlink:href="#m2e66f63dd8" x="305.056796" y="331" style="stroke: #000000; stroke-width: 0.8"/>
      </g>
     </g>
     <g id="text_3">
      <!-- 50 -->
      <g transform="translate(291.059296 354.716563) scale(0.22 -0.22)">
       <use xlink:href="#DejaVuSans-35"/>
       <use xlink:href="#DejaVuSans-30" x="63.623047"/>
      </g>
     </g>
    </g>
    <g id="xtick_4">
     <g id="line2d_7">
      <path d="M 395.890876 331 
L 395.890876 23.76 
" clip-path="url(#p52c4757cf3)" style="fill: none; stroke-dasharray: 5.12,1.28,0.8,1.28; stroke-dashoffset: 0; stroke: #b0b0b0; stroke-width: 0.8"/>
     </g>
     <g id="line2d_8">
      <g>
       <use xlink:href="#m2e66f63dd8" x="395.890876" y="331" style="stroke: #000000; stroke-width: 0.8"/>
      </g>
     </g>
     <g id="text_4">
      <!-- 75 -->
      <g transform="translate(381.893376 354.716563) scale(0.22 -0.22)">
       <defs>
        <path id="DejaVuSans-37" d="M 525 4666 
L 3525 4666 
L 3525 4397 
L 1831 0 
L 1172 0 
L 2766 4134 
L 525 4134 
L 525 4666 
z
" transform="scale(0.015625)"/>
       </defs>
       <use xlink:href="#DejaVuSans-37"/>
       <use xlink:href="#DejaVuSans-35" x="63.623047"/>
      </g>
     </g>
    </g>
    <g id="xtick_5">
     <g id="line2d_9">
      <path d="M 486.724955 331 
L 486.724955 23.76 
" clip-path="url(#p52c4757cf3)" style="fill: none; stroke-dasharray: 5.12,1.28,0.8,1.28; stroke-dashoffset: 0; stroke: #b0b0b0; stroke-width: 0.8"/>
     </g>
     <g id="line2d_10">
      <g>
       <use xlink:href="#m2e66f63dd8" x="486.724955" y="331" style="stroke: #000000; stroke-width: 0.8"/>
      </g>
     </g>
     <g id="text_5">
      <!-- 100 -->
      <g transform="translate(465.728705 354.716563) scale(0.22 -0.22)">
       <defs>
        <path id="DejaVuSans-31" d="M 794 531 
L 1825 531 
L 1825 4091 
L 703 3866 
L 703 4441 
L 1819 4666 
L 2450 4666 
L 2450 531 
L 3481 531 
L 3481 0 
L 794 0 
L 794 531 
z
" transform="scale(0.015625)"/>
       </defs>
       <use xlink:href="#DejaVuSans-31"/>
       <use xlink:href="#DejaVuSans-30" x="63.623047"/>
       <use xlink:href="#DejaVuSans-30" x="127.246094"/>
      </g>
     </g>
    </g>
    <g id="xtick_6">
     <g id="line2d_11">
      <path d="M 577.559035 331 
L 577.559035 23.76 
" clip-path="url(#p52c4757cf3)" style="fill: none; stroke-dasharray: 5.12,1.28,0.8,1.28; stroke-dashoffset: 0; stroke: #b0b0b0; stroke-width: 0.8"/>
     </g>
     <g id="line2d_12">
      <g>
       <use xlink:href="#m2e66f63dd8" x="577.559035" y="331" style="stroke: #000000; stroke-width: 0.8"/>
      </g>
     </g>
     <g id="text_6">
      <!-- 125 -->
      <g transform="translate(556.562785 354.716563) scale(0.22 -0.22)">
       <use xlink:href="#DejaVuSans-31"/>
       <use xlink:href="#DejaVuSans-32" x="63.623047"/>
       <use xlink:href="#DejaVuSans-35" x="127.246094"/>
      </g>
     </g>
    </g>
    <g id="xtick_7">
     <g id="line2d_13">
      <path d="M 668.393115 331 
L 668.393115 23.76 
" clip-path="url(#p52c4757cf3)" style="fill: none; stroke-dasharray: 5.12,1.28,0.8,1.28; stroke-dashoffset: 0; stroke: #b0b0b0; stroke-width: 0.8"/>
     </g>
     <g id="line2d_14">
      <g>
       <use xlink:href="#m2e66f63dd8" x="668.393115" y="331" style="stroke: #000000; stroke-width: 0.8"/>
      </g>
     </g>
     <g id="text_7">
      <!-- 150 -->
      <g transform="translate(647.396865 354.716563) scale(0.22 -0.22)">
       <use xlink:href="#DejaVuSans-31"/>
       <use xlink:href="#DejaVuSans-35" x="63.623047"/>
       <use xlink:href="#DejaVuSans-30" x="127.246094"/>
      </g>
     </g>
    </g>
    <g id="xtick_8">
     <g id="line2d_15">
      <path d="M 759.227194 331 
L 759.227194 23.76 
" clip-path="url(#p52c4757cf3)" style="fill: none; stroke-dasharray: 5.12,1.28,0.8,1.28; stroke-dashoffset: 0; stroke: #b0b0b0; stroke-width: 0.8"/>
     </g>
     <g id="line2d_16">
      <g>
       <use xlink:href="#m2e66f63dd8" x="759.227194" y="331" style="stroke: #000000; stroke-width: 0.8"/>
      </g>
     </g>
     <g id="text_8">
      <!-- 175 -->
      <g transform="translate(738.230944 354.716563) scale(0.22 -0.22)">
       <use xlink:href="#DejaVuSans-31"/>
       <use xlink:href="#DejaVuSans-37" x="63.623047"/>
       <use xlink:href="#DejaVuSans-35" x="127.246094"/>
      </g>
     </g>
    </g>
    <g id="xtick_9">
     <g id="line2d_17">
      <path d="M 850.061274 331 
L 850.061274 23.76 
" clip-path="url(#p52c4757cf3)" style="fill: none; stroke-dasharray: 5.12,1.28,0.8,1.28; stroke-dashoffset: 0; stroke: #b0b0b0; stroke-width: 0.8"/>
     </g>
     <g id="line2d_18">
      <g>
       <use xlink:href="#m2e66f63dd8" x="850.061274" y="331" style="stroke: #000000; stroke-width: 0.8"/>
      </g>
     </g>
     <g id="text_9">
      <!-- 200 -->
      <g transform="translate(829.065024 354.716563) scale(0.22 -0.22)">
       <use xlink:href="#DejaVuSans-32"/>
       <use xlink:href="#DejaVuSans-30" x="63.623047"/>
       <use xlink:href="#DejaVuSans-30" x="127.246094"/>
      </g>
     </g>
    </g>
    <g id="text_10">
     <!-- Time (s) -->
     <g transform="translate(443.385625 381.528125) scale(0.24 -0.24)">
      <defs>
       <path id="DejaVuSans-54" d="M -19 4666 
L 3928 4666 
L 3928 4134 
L 2272 4134 
L 2272 0 
L 1638 0 
L 1638 4134 
L -19 4134 
L -19 4666 
z
" transform="scale(0.015625)"/>
       <path id="DejaVuSans-69" d="M 603 3500 
L 1178 3500 
L 1178 0 
L 603 0 
L 603 3500 
z
M 603 4863 
L 1178 4863 
L 1178 4134 
L 603 4134 
L 603 4863 
z
" transform="scale(0.015625)"/>
       <path id="DejaVuSans-6d" d="M 3328 2828 
Q 3544 3216 3844 3400 
Q 4144 3584 4550 3584 
Q 5097 3584 5394 3201 
Q 5691 2819 5691 2113 
L 5691 0 
L 5113 0 
L 5113 2094 
Q 5113 2597 4934 2840 
Q 4756 3084 4391 3084 
Q 3944 3084 3684 2787 
Q 3425 2491 3425 1978 
L 3425 0 
L 2847 0 
L 2847 2094 
Q 2847 2600 2669 2842 
Q 2491 3084 2119 3084 
Q 1678 3084 1418 2786 
Q 1159 2488 1159 1978 
L 1159 0 
L 581 0 
L 581 3500 
L 1159 3500 
L 1159 2956 
Q 1356 3278 1631 3431 
Q 1906 3584 2284 3584 
Q 2666 3584 2933 3390 
Q 3200 3197 3328 2828 
z
" transform="scale(0.015625)"/>
       <path id="DejaVuSans-65" d="M 3597 1894 
L 3597 1613 
L 953 1613 
Q 991 1019 1311 708 
Q 1631 397 2203 397 
Q 2534 397 2845 478 
Q 3156 559 3463 722 
L 3463 178 
Q 3153 47 2828 -22 
Q 2503 -91 2169 -91 
Q 1331 -91 842 396 
Q 353 884 353 1716 
Q 353 2575 817 3079 
Q 1281 3584 2069 3584 
Q 2775 3584 3186 3129 
Q 3597 2675 3597 1894 
z
M 3022 2063 
Q 3016 2534 2758 2815 
Q 2500 3097 2075 3097 
Q 1594 3097 1305 2825 
Q 1016 2553 972 2059 
L 3022 2063 
z
" transform="scale(0.015625)"/>
       <path id="DejaVuSans-20" transform="scale(0.015625)"/>
       <path id="DejaVuSans-28" d="M 1984 4856 
Q 1566 4138 1362 3434 
Q 1159 2731 1159 2009 
Q 1159 1288 1364 580 
Q 1569 -128 1984 -844 
L 1484 -844 
Q 1016 -109 783 600 
Q 550 1309 550 2009 
Q 550 2706 781 3412 
Q 1013 4119 1484 4856 
L 1984 4856 
z
" transform="scale(0.015625)"/>
       <path id="DejaVuSans-73" d="M 2834 3397 
L 2834 2853 
Q 2591 2978 2328 3040 
Q 2066 3103 1784 3103 
Q 1356 3103 1142 2972 
Q 928 2841 928 2578 
Q 928 2378 1081 2264 
Q 1234 2150 1697 2047 
L 1894 2003 
Q 2506 1872 2764 1633 
Q 3022 1394 3022 966 
Q 3022 478 2636 193 
Q 2250 -91 1575 -91 
Q 1294 -91 989 -36 
Q 684 19 347 128 
L 347 722 
Q 666 556 975 473 
Q 1284 391 1588 391 
Q 1994 391 2212 530 
Q 2431 669 2431 922 
Q 2431 1156 2273 1281 
Q 2116 1406 1581 1522 
L 1381 1569 
Q 847 1681 609 1914 
Q 372 2147 372 2553 
Q 372 3047 722 3315 
Q 1072 3584 1716 3584 
Q 2034 3584 2315 3537 
Q 2597 3491 2834 3397 
z
" transform="scale(0.015625)"/>
       <path id="DejaVuSans-29" d="M 513 4856 
L 1013 4856 
Q 1481 4119 1714 3412 
Q 1947 2706 1947 2009 
Q 1947 1309 1714 600 
Q 1481 -109 1013 -844 
L 513 -844 
Q 928 -128 1133 580 
Q 1338 1288 1338 2009 
Q 1338 2731 1133 3434 
Q 928 4138 513 4856 
z
" transform="scale(0.015625)"/>
      </defs>
      <use xlink:href="#DejaVuSans-54"/>
      <use xlink:href="#DejaVuSans-69" x="57.958984"/>
      <use xlink:href="#DejaVuSans-6d" x="85.742188"/>
      <use xlink:href="#DejaVuSans-65" x="183.154297"/>
      <use xlink:href="#DejaVuSans-20" x="244.677734"/>
      <use xlink:href="#DejaVuSans-28" x="276.464844"/>
      <use xlink:href="#DejaVuSans-73" x="315.478516"/>
      <use xlink:href="#DejaVuSans-29" x="367.578125"/>
     </g>
    </g>
   </g>
   <g id="matplotlib.axis_2">
    <g id="ytick_1">
     <g id="line2d_19">
      <path d="M 86.51 331 
L 897.84 331 
" clip-path="url(#p52c4757cf3)" style="fill: none; stroke-dasharray: 5.12,1.28,0.8,1.28; stroke-dashoffset: 0; stroke: #b0b0b0; stroke-width: 0.8"/>
     </g>
     <g id="line2d_20">
      <defs>
       <path id="mc56a97bef4" d="M 0 0 
L -3.5 0 
" style="stroke: #000000; stroke-width: 0.8"/>
      </defs>
      <g>
       <use xlink:href="#mc56a97bef4" x="86.51" y="331" style="stroke: #000000; stroke-width: 0.8"/>
      </g>
     </g>
     <g id="text_11">
      <!-- 0 -->
      <g transform="translate(65.5125 339.358281) scale(0.22 -0.22)">
       <use xlink:href="#DejaVuSans-30"/>
      </g>
     </g>
    </g>
    <g id="ytick_2">
     <g id="line2d_21">
      <path d="M 86.51 251.667558 
L 897.84 251.667558 
" clip-path="url(#p52c4757cf3)" style="fill: none; stroke-dasharray: 5.12,1.28,0.8,1.28; stroke-dashoffset: 0; stroke: #b0b0b0; stroke-width: 0.8"/>
     </g>
     <g id="line2d_22">
      <g>
       <use xlink:href="#mc56a97bef4" x="86.51" y="251.667558" style="stroke: #000000; stroke-width: 0.8"/>
      </g>
     </g>
     <g id="text_12">
      <!-- 10 -->
      <g transform="translate(51.515 260.02584) scale(0.22 -0.22)">
       <use xlink:href="#DejaVuSans-31"/>
       <use xlink:href="#DejaVuSans-30" x="63.623047"/>
      </g>
     </g>
    </g>
    <g id="ytick_3">
     <g id="line2d_23">
      <path d="M 86.51 172.335117 
L 897.84 172.335117 
" clip-path="url(#p52c4757cf3)" style="fill: none; stroke-dasharray: 5.12,1.28,0.8,1.28; stroke-dashoffset: 0; stroke: #b0b0b0; stroke-width: 0.8"/>
     </g>
     <g id="line2d_24">
      <g>
       <use xlink:href="#mc56a97bef4" x="86.51" y="172.335117" style="stroke: #000000; stroke-width: 0.8"/>
      </g>
     </g>
     <g id="text_13">
      <!-- 20 -->
      <g transform="translate(51.515 180.693398) scale(0.22 -0.22)">
       <use xlink:href="#DejaVuSans-32"/>
       <use xlink:href="#DejaVuSans-30" x="63.623047"/>
      </g>
     </g>
    </g>
    <g id="ytick_4">
     <g id="line2d_25">
      <path d="M 86.51 93.002675 
L 897.84 93.002675 
" clip-path="url(#p52c4757cf3)" style="fill: none; stroke-dasharray: 5.12,1.28,0.8,1.28; stroke-dashoffset: 0; stroke: #b0b0b0; stroke-width: 0.8"/>
     </g>
     <g id="line2d_26">
      <g>
       <use xlink:href="#mc56a97bef4" x="86.51" y="93.002675" style="stroke: #000000; stroke-width: 0.8"/>
      </g>
     </g>
     <g id="text_14">
      <!-- 30 -->
      <g transform="translate(51.515 101.360956) scale(0.22 -0.22)">
       <defs>
        <path id="DejaVuSans-33" d="M 2597 2516 
Q 3050 2419 3304 2112 
Q 3559 1806 3559 1356 
Q 3559 666 3084 287 
Q 2609 -91 1734 -91 
Q 1441 -91 1130 -33 
Q 819 25 488 141 
L 488 750 
Q 750 597 1062 519 
Q 1375 441 1716 441 
Q 2309 441 2620 675 
Q 2931 909 2931 1356 
Q 2931 1769 2642 2001 
Q 2353 2234 1838 2234 
L 1294 2234 
L 1294 2753 
L 1863 2753 
Q 2328 2753 2575 2939 
Q 2822 3125 2822 3475 
Q 2822 3834 2567 4026 
Q 2313 4219 1838 4219 
Q 1578 4219 1281 4162 
Q 984 4106 628 3988 
L 628 4550 
Q 988 4650 1302 4700 
Q 1616 4750 1894 4750 
Q 2613 4750 3031 4423 
Q 3450 4097 3450 3541 
Q 3450 3153 3228 2886 
Q 3006 2619 2597 2516 
z
" transform="scale(0.015625)"/>
       </defs>
       <use xlink:href="#DejaVuSans-33"/>
       <use xlink:href="#DejaVuSans-30" x="63.623047"/>
      </g>
     </g>
    </g>
    <g id="text_15">
     <!-- Throughput (Mbps) -->
     <g transform="translate(42.52375 292.094375) rotate(-90) scale(0.24 -0.24)">
      <defs>
       <path id="DejaVuSans-68" d="M 3513 2113 
L 3513 0 
L 2938 0 
L 2938 2094 
Q 2938 2591 2744 2837 
Q 2550 3084 2163 3084 
Q 1697 3084 1428 2787 
Q 1159 2491 1159 1978 
L 1159 0 
L 581 0 
L 581 4863 
L 1159 4863 
L 1159 2956 
Q 1366 3272 1645 3428 
Q 1925 3584 2291 3584 
Q 2894 3584 3203 3211 
Q 3513 2838 3513 2113 
z
" transform="scale(0.015625)"/>
       <path id="DejaVuSans-72" d="M 2631 2963 
Q 2534 3019 2420 3045 
Q 2306 3072 2169 3072 
Q 1681 3072 1420 2755 
Q 1159 2438 1159 1844 
L 1159 0 
L 581 0 
L 581 3500 
L 1159 3500 
L 1159 2956 
Q 1341 3275 1631 3429 
Q 1922 3584 2338 3584 
Q 2397 3584 2469 3576 
Q 2541 3569 2628 3553 
L 2631 2963 
z
" transform="scale(0.015625)"/>
       <path id="DejaVuSans-6f" d="M 1959 3097 
Q 1497 3097 1228 2736 
Q 959 2375 959 1747 
Q 959 1119 1226 758 
Q 1494 397 1959 397 
Q 2419 397 2687 759 
Q 2956 1122 2956 1747 
Q 2956 2369 2687 2733 
Q 2419 3097 1959 3097 
z
M 1959 3584 
Q 2709 3584 3137 3096 
Q 3566 2609 3566 1747 
Q 3566 888 3137 398 
Q 2709 -91 1959 -91 
Q 1206 -91 779 398 
Q 353 888 353 1747 
Q 353 2609 779 3096 
Q 1206 3584 1959 3584 
z
" transform="scale(0.015625)"/>
       <path id="DejaVuSans-75" d="M 544 1381 
L 544 3500 
L 1119 3500 
L 1119 1403 
Q 1119 906 1312 657 
Q 1506 409 1894 409 
Q 2359 409 2629 706 
Q 2900 1003 2900 1516 
L 2900 3500 
L 3475 3500 
L 3475 0 
L 2900 0 
L 2900 538 
Q 2691 219 2414 64 
Q 2138 -91 1772 -91 
Q 1169 -91 856 284 
Q 544 659 544 1381 
z
M 1991 3584 
L 1991 3584 
z
" transform="scale(0.015625)"/>
       <path id="DejaVuSans-67" d="M 2906 1791 
Q 2906 2416 2648 2759 
Q 2391 3103 1925 3103 
Q 1463 3103 1205 2759 
Q 947 2416 947 1791 
Q 947 1169 1205 825 
Q 1463 481 1925 481 
Q 2391 481 2648 825 
Q 2906 1169 2906 1791 
z
M 3481 434 
Q 3481 -459 3084 -895 
Q 2688 -1331 1869 -1331 
Q 1566 -1331 1297 -1286 
Q 1028 -1241 775 -1147 
L 775 -588 
Q 1028 -725 1275 -790 
Q 1522 -856 1778 -856 
Q 2344 -856 2625 -561 
Q 2906 -266 2906 331 
L 2906 616 
Q 2728 306 2450 153 
Q 2172 0 1784 0 
Q 1141 0 747 490 
Q 353 981 353 1791 
Q 353 2603 747 3093 
Q 1141 3584 1784 3584 
Q 2172 3584 2450 3431 
Q 2728 3278 2906 2969 
L 2906 3500 
L 3481 3500 
L 3481 434 
z
" transform="scale(0.015625)"/>
       <path id="DejaVuSans-70" d="M 1159 525 
L 1159 -1331 
L 581 -1331 
L 581 3500 
L 1159 3500 
L 1159 2969 
Q 1341 3281 1617 3432 
Q 1894 3584 2278 3584 
Q 2916 3584 3314 3078 
Q 3713 2572 3713 1747 
Q 3713 922 3314 415 
Q 2916 -91 2278 -91 
Q 1894 -91 1617 61 
Q 1341 213 1159 525 
z
M 3116 1747 
Q 3116 2381 2855 2742 
Q 2594 3103 2138 3103 
Q 1681 3103 1420 2742 
Q 1159 2381 1159 1747 
Q 1159 1113 1420 752 
Q 1681 391 2138 391 
Q 2594 391 2855 752 
Q 3116 1113 3116 1747 
z
" transform="scale(0.015625)"/>
       <path id="DejaVuSans-74" d="M 1172 4494 
L 1172 3500 
L 2356 3500 
L 2356 3053 
L 1172 3053 
L 1172 1153 
Q 1172 725 1289 603 
Q 1406 481 1766 481 
L 2356 481 
L 2356 0 
L 1766 0 
Q 1100 0 847 248 
Q 594 497 594 1153 
L 594 3053 
L 172 3053 
L 172 3500 
L 594 3500 
L 594 4494 
L 1172 4494 
z
" transform="scale(0.015625)"/>
       <path id="DejaVuSans-4d" d="M 628 4666 
L 1569 4666 
L 2759 1491 
L 3956 4666 
L 4897 4666 
L 4897 0 
L 4281 0 
L 4281 4097 
L 3078 897 
L 2444 897 
L 1241 4097 
L 1241 0 
L 628 0 
L 628 4666 
z
" transform="scale(0.015625)"/>
       <path id="DejaVuSans-62" d="M 3116 1747 
Q 3116 2381 2855 2742 
Q 2594 3103 2138 3103 
Q 1681 3103 1420 2742 
Q 1159 2381 1159 1747 
Q 1159 1113 1420 752 
Q 1681 391 2138 391 
Q 2594 391 2855 752 
Q 3116 1113 3116 1747 
z
M 1159 2969 
Q 1341 3281 1617 3432 
Q 1894 3584 2278 3584 
Q 2916 3584 3314 3078 
Q 3713 2572 3713 1747 
Q 3713 922 3314 415 
Q 2916 -91 2278 -91 
Q 1894 -91 1617 61 
Q 1341 213 1159 525 
L 1159 0 
L 581 0 
L 581 4863 
L 1159 4863 
L 1159 2969 
z
" transform="scale(0.015625)"/>
      </defs>
      <use xlink:href="#DejaVuSans-54"/>
      <use xlink:href="#DejaVuSans-68" x="61.083984"/>
      <use xlink:href="#DejaVuSans-72" x="124.462891"/>
      <use xlink:href="#DejaVuSans-6f" x="163.326172"/>
      <use xlink:href="#DejaVuSans-75" x="224.507812"/>
      <use xlink:href="#DejaVuSans-67" x="287.886719"/>
      <use xlink:href="#DejaVuSans-68" x="351.363281"/>
      <use xlink:href="#DejaVuSans-70" x="414.742188"/>
      <use xlink:href="#DejaVuSans-75" x="478.21875"/>
      <use xlink:href="#DejaVuSans-74" x="541.597656"/>
      <use xlink:href="#DejaVuSans-20" x="580.806641"/>
      <use xlink:href="#DejaVuSans-28" x="612.59375"/>
      <use xlink:href="#DejaVuSans-4d" x="651.607422"/>
      <use xlink:href="#DejaVuSans-62" x="737.886719"/>
      <use xlink:href="#DejaVuSans-70" x="801.363281"/>
      <use xlink:href="#DejaVuSans-73" x="864.839844"/>
      <use xlink:href="#DejaVuSans-29" x="916.939453"/>
     </g>
    </g>
   </g>
   <g id="patch_3">
    <path d="M 86.51 331 
L 86.51 23.76 
" style="fill: none; stroke: #000000; stroke-width: 0.8; stroke-linejoin: miter; stroke-linecap: square"/>
   </g>
   <g id="patch_4">
    <path d="M 897.84 331 
L 897.84 23.76 
" style="fill: none; stroke: #000000; stroke-width: 0.8; stroke-linejoin: miter; stroke-linecap: square"/>
   </g>
   <g id="patch_5">
    <path d="M 86.51 331 
L 897.84 331 
" style="fill: none; stroke: #000000; stroke-width: 0.8; stroke-linejoin: miter; stroke-linecap: square"/>
   </g>
   <g id="patch_6">
    <path d="M 86.51 23.76 
L 897.84 23.76 
" style="fill: none; stroke: #000000; stroke-width: 0.8; stroke-linejoin: miter; stroke-linecap: square"/>
   </g>
   <g id="legend_1">
    <g id="patch_7">
     <path d="M 756.24 148.6425 
L 881.04 148.6425 
Q 885.84 148.6425 885.84 143.8425 
L 885.84 40.56 
Q 885.84 35.76 881.04 35.76 
L 756.24 35.76 
Q 751.44 35.76 751.44 40.56 
L 751.44 143.8425 
Q 751.44 148.6425 756.24 148.6425 
z
" style="fill: #ffffff; opacity: 0.8; stroke: #cccccc; stroke-linejoin: miter"/>
    </g>
    <g id="patch_8">
     <path d="M 761.04 63.59625 
L 809.04 63.59625 
L 809.04 46.79625 
L 761.04 46.79625 
z
" style="fill: #1f77b4"/>
    </g>
    <g id="text_16">
     <!-- UE1 -->
     <g transform="translate(828.24 63.59625) scale(0.24 -0.24)">
      <defs>
       <path id="DejaVuSans-55" d="M 556 4666 
L 1191 4666 
L 1191 1831 
Q 1191 1081 1462 751 
Q 1734 422 2344 422 
Q 2950 422 3222 751 
Q 3494 1081 3494 1831 
L 3494 4666 
L 4128 4666 
L 4128 1753 
Q 4128 841 3676 375 
Q 3225 -91 2344 -91 
Q 1459 -91 1007 375 
Q 556 841 556 1753 
L 556 4666 
z
" transform="scale(0.015625)"/>
       <path id="DejaVuSans-45" d="M 628 4666 
L 3578 4666 
L 3578 4134 
L 1259 4134 
L 1259 2753 
L 3481 2753 
L 3481 2222 
L 1259 2222 
L 1259 531 
L 3634 531 
L 3634 0 
L 628 0 
L 628 4666 
z
" transform="scale(0.015625)"/>
      </defs>
      <use xlink:href="#DejaVuSans-55"/>
      <use xlink:href="#DejaVuSans-45" x="73.193359"/>
      <use xlink:href="#DejaVuSans-31" x="136.376953"/>
     </g>
    </g>
    <g id="patch_9">
     <path d="M 761.04 98.82375 
L 809.04 98.82375 
L 809.04 82.02375 
L 761.04 82.02375 
z
" style="fill: #ff7f0e"/>
    </g>
    <g id="text_17">
     <!-- UE2 -->
     <g transform="translate(828.24 98.82375) scale(0.24 -0.24)">
      <use xlink:href="#DejaVuSans-55"/>
      <use xlink:href="#DejaVuSans-45" x="73.193359"/>
      <use xlink:href="#DejaVuSans-32" x="136.376953"/>
     </g>
    </g>
    <g id="patch_10">
     <path d="M 761.04 134.05125 
L 809.04 134.05125 
L 809.04 117.25125 
L 761.04 117.25125 
z
" style="fill: #2ca02c"/>
    </g>
    <g id="text_18">
     <!-- UE3 -->
     <g transform="translate(828.24 134.05125) scale(0.24 -0.24)">
      <use xlink:href="#DejaVuSans-55"/>
      <use xlink:href="#DejaVuSans-45" x="73.193359"/>
      <use xlink:href="#DejaVuSans-33" x="136.376953"/>
     </g>
    </g>
   </g>
  </g>
 </g>
 <defs>
  <clipPath id="p52c4757cf3">
   <rect x="86.51" y="23.76" width="811.33" height="307.24"/>
  </clipPath>
 </defs>
</svg>
