<?xml version="1.0" encoding="utf-8" standalone="no"?>
<!DOCTYPE svg PUBLIC "-//W3C//DTD SVG 1.1//EN"
  "http://www.w3.org/Graphics/SVG/1.1/DTD/svg11.dtd">
<svg xmlns:xlink="http://www.w3.org/1999/xlink" width="921.6pt" height="410.4pt" viewBox="0 0 921.6 410.4" xmlns="http://www.w3.org/2000/svg" version="1.1">
 <metadata>
  <rdf:RDF xmlns:dc="http://purl.org/dc/elements/1.1/" xmlns:cc="http://creativecommons.org/ns#" xmlns:rdf="http://www.w3.org/1999/02/22-rdf-syntax-ns#">
   <cc:Work>
    <dc:type rdf:resource="http://purl.org/dc/dcmitype/StillImage"/>
    <dc:date>2023-05-08T14:07:34.581615</dc:date>
    <dc:format>image/svg+xml</dc:format>
    <dc:creator>
     <cc:Agent>
      <dc:title>Matplotlib v3.7.1, https://matplotlib.org/</dc:title>
     </cc:Agent>
    </dc:creator>
   </cc:Work>
  </rdf:RDF>
 </metadata>
 <defs>
  <style type="text/css">*{stroke-linejoin: round; stroke-linecap: butt}</style>
 </defs>
 <g id="figure_1">
  <g id="patch_1">
   <path d="M 0 410.4 
L 921.6 410.4 
L 921.6 0 
L 0 0 
z
" style="fill: #ffffff"/>
  </g>
  <g id="axes_1">
   <g id="patch_2">
    <path d="M 86.42 331 
L 897.84 331 
L 897.84 23.76 
L 86.42 23.76 
z
" style="fill: #ffffff"/>
   </g>
   <g id="PolyCollection_1">
    <path d="M 123.302727 207.683002 
L 123.302727 331 
L 127.400808 331 
L 131.498889 331 
L 135.59697 331 
L 139.695051 331 
L 143.793131 331 
L 147.891212 331 
L 151.989293 331 
L 156.087374 331 
L 160.185455 331 
L 164.283535 331 
L 168.381616 331 
L 172.479697 331 
L 176.577778 331 
L 180.675859 331 
L 184.773939 331 
L 188.87202 331 
L 192.970101 331 
L 197.068182 331 
L 201.166263 331 
L 205.264343 331 
L 209.362424 331 
L 213.460505 331 
L 217.558586 331 
L 221.656667 331 
L 225.754747 331 
L 229.852828 331 
L 233.950909 331 
L 238.04899 331 
L 242.147071 331 
L 246.245152 331 
L 250.343232 331 
L 254.441313 331 
L 258.539394 331 
L 262.637475 331 
L 266.735556 331 
L 270.833636 331 
L 274.931717 331 
L 279.029798 331 
L 283.127879 331 
L 287.22596 331 
L 291.32404 331 
L 295.422121 331 
L 299.520202 331 
L 303.618283 331 
L 307.716364 331 
L 311.814444 331 
L 315.912525 331 
L 320.010606 331 
L 324.108687 331 
L 328.206768 331 
L 332.304848 331 
L 336.402929 331 
L 340.50101 331 
L 344.599091 331 
L 348.697172 331 
L 352.795253 331 
L 356.893333 331 
L 360.991414 331 
L 365.089495 331 
L 369.187576 331 
L 373.285657 331 
L 377.383737 331 
L 381.481818 331 
L 385.579899 331 
L 389.67798 331 
L 393.776061 331 
L 397.874141 331 
L 401.972222 331 
L 406.070303 331 
L 410.168384 331 
L 414.266465 331 
L 418.364545 331 
L 422.462626 331 
L 426.560707 331 
L 430.658788 331 
L 434.756869 331 
L 438.854949 331 
L 442.95303 331 
L 447.051111 331 
L 451.149192 331 
L 455.247273 331 
L 459.345354 331 
L 463.443434 331 
L 467.541515 331 
L 471.639596 331 
L 475.737677 331 
L 479.835758 331 
L 483.933838 331 
L 488.031919 331 
L 492.13 331 
L 496.228081 331 
L 500.326162 331 
L 504.424242 331 
L 508.522323 331 
L 512.620404 331 
L 516.718485 331 
L 520.816566 331 
L 524.914646 331 
L 529.012727 331 
L 533.110808 331 
L 537.208889 331 
L 541.30697 331 
L 545.405051 331 
L 549.503131 331 
L 553.601212 331 
L 557.699293 331 
L 561.797374 331 
L 565.895455 331 
L 569.993535 331 
L 574.091616 331 
L 578.189697 331 
L 582.287778 331 
L 586.385859 331 
L 590.483939 331 
L 594.58202 331 
L 598.680101 331 
L 602.778182 331 
L 606.876263 331 
L 610.974343 331 
L 615.072424 331 
L 619.170505 331 
L 623.268586 331 
L 627.366667 331 
L 631.464747 331 
L 635.562828 331 
L 639.660909 331 
L 643.75899 331 
L 647.857071 331 
L 651.955152 331 
L 656.053232 331 
L 660.151313 331 
L 664.249394 331 
L 668.347475 331 
L 672.445556 331 
L 676.543636 331 
L 680.641717 331 
L 684.739798 331 
L 688.837879 331 
L 692.93596 331 
L 697.03404 331 
L 701.132121 331 
L 705.230202 331 
L 709.328283 331 
L 713.426364 331 
L 717.524444 331 
L 721.622525 331 
L 725.720606 331 
L 729.818687 331 
L 733.916768 331 
L 738.014848 331 
L 742.112929 331 
L 746.21101 331 
L 750.309091 331 
L 754.407172 331 
L 758.505253 331 
L 762.603333 331 
L 766.701414 331 
L 770.799495 331 
L 774.897576 331 
L 778.995657 331 
L 783.093737 331 
L 787.191818 331 
L 791.289899 331 
L 795.38798 331 
L 799.486061 331 
L 803.584141 331 
L 807.682222 331 
L 811.780303 331 
L 815.878384 331 
L 819.976465 331 
L 824.074545 331 
L 828.172626 331 
L 832.270707 331 
L 836.368788 331 
L 840.466869 331 
L 844.564949 331 
L 848.66303 331 
L 852.761111 331 
L 856.859192 331 
L 860.957273 331 
L 860.957273 188.440083 
L 860.957273 188.440083 
L 856.859192 184.884679 
L 852.761111 185.446682 
L 848.66303 184.532522 
L 844.564949 185.946284 
L 840.466869 185.086363 
L 836.368788 185.957211 
L 832.270707 184.45485 
L 828.172626 186.937195 
L 824.074545 187.611494 
L 819.976465 188.2904 
L 815.878384 189.253402 
L 811.780303 187.389405 
L 807.682222 185.407978 
L 803.584141 187.200095 
L 799.486061 185.527119 
L 795.38798 185.265272 
L 791.289899 187.606755 
L 787.191818 186.086884 
L 783.093737 189.645317 
L 778.995657 195.800365 
L 774.897576 186.767765 
L 770.799495 191.93335 
L 766.701414 188.358725 
L 762.603333 189.106483 
L 758.505253 187.944167 
L 754.407172 188.910197 
L 750.309091 188.365834 
L 746.21101 185.614928 
L 742.112929 191.349889 
L 738.014848 189.017621 
L 733.916768 188.116626 
L 729.818687 192.593958 
L 725.720606 188.76025 
L 721.622525 196.490724 
L 717.524444 189.937706 
L 713.426364 190.256688 
L 709.328283 187.684295 
L 705.230202 185.500131 
L 701.132121 185.469326 
L 697.03404 185.114799 
L 692.93596 184.922462 
L 688.837879 187.609783 
L 684.739798 186.726691 
L 680.641717 187.325819 
L 676.543636 188.689292 
L 672.445556 186.400337 
L 668.347475 185.399026 
L 664.249394 188.81054 
L 660.151313 186.31266 
L 656.053232 185.96274 
L 651.955152 188.44061 
L 647.857071 189.202191 
L 643.75899 186.063582 
L 639.660909 184.423254 
L 635.562828 186.72419 
L 631.464747 185.83004 
L 627.366667 186.432854 
L 623.268586 189.120306 
L 619.170505 184.804637 
L 615.072424 186.495913 
L 610.974343 184.584523 
L 606.876263 184.989207 
L 602.778182 184.568462 
L 598.680101 186.13928 
L 594.58202 185.810293 
L 590.483939 186.889276 
L 586.385859 188.665464 
L 582.287778 187.556729 
L 578.189697 186.736038 
L 574.091616 195.576827 
L 569.993535 189.453769 
L 565.895455 186.068453 
L 561.797374 185.520273 
L 557.699293 186.777902 
L 553.601212 185.589651 
L 549.503131 193.243375 
L 545.405051 186.590304 
L 541.30697 185.021329 
L 537.208889 185.352949 
L 533.110808 186.679035 
L 529.012727 185.638756 
L 524.914646 185.10927 
L 520.816566 186.015399 
L 516.718485 185.415482 
L 512.620404 187.399673 
L 508.522323 184.850451 
L 504.424242 185.765006 
L 500.326162 185.711952 
L 496.228081 187.833583 
L 492.13 186.986695 
L 488.031919 185.358873 
L 483.933838 185.742099 
L 479.835758 184.323465 
L 475.737677 185.545286 
L 471.639596 187.409415 
L 467.541515 194.425455 
L 463.443434 191.140964 
L 459.345354 186.92719 
L 455.247273 185.5416 
L 451.149192 186.728929 
L 447.051111 186.11453 
L 442.95303 187.827001 
L 438.854949 186.392306 
L 434.756869 186.293966 
L 430.658788 184.588472 
L 426.560707 185.462348 
L 422.462626 185.624143 
L 418.364545 185.83162 
L 414.266465 185.035415 
L 410.168384 192.343564 
L 406.070303 186.302786 
L 401.972222 185.253819 
L 397.874141 185.627961 
L 393.776061 185.67746 
L 389.67798 185.511716 
L 385.579899 184.887443 
L 381.481818 185.695759 
L 377.383737 185.674037 
L 373.285657 186.754864 
L 369.187576 186.339384 
L 365.089495 185.5728 
L 360.991414 186.065294 
L 356.893333 185.17641 
L 352.795253 185.217089 
L 348.697172 188.923362 
L 344.599091 187.665075 
L 340.50101 185.666665 
L 336.402929 186.312133 
L 332.304848 185.534096 
L 328.206768 187.176004 
L 324.108687 185.458135 
L 320.010606 187.144672 
L 315.912525 185.688914 
L 311.814444 192.263917 
L 307.716364 186.029749 
L 303.618283 185.182992 
L 299.520202 185.465376 
L 295.422121 185.097948 
L 291.32404 185.57596 
L 287.22596 186.26158 
L 283.127879 185.131913 
L 279.029798 185.866374 
L 274.931717 185.272512 
L 270.833636 185.651131 
L 266.735556 186.368215 
L 262.637475 185.233413 
L 258.539394 185.56635 
L 254.441313 185.411269 
L 250.343232 187.513285 
L 246.245152 187.918233 
L 242.147071 186.339911 
L 238.04899 187.116368 
L 233.950909 186.28396 
L 229.852828 187.948512 
L 225.754747 187.001308 
L 221.656667 189.530388 
L 217.558586 187.29475 
L 213.460505 186.672057 
L 209.362424 187.661783 
L 205.264343 191.502995 
L 201.166263 194.890039 
L 197.068182 193.029711 
L 192.970101 187.887954 
L 188.87202 187.769603 
L 184.773939 187.444565 
L 180.675859 189.315276 
L 176.577778 189.754584 
L 172.479697 186.028038 
L 168.381616 184.851504 
L 164.283535 185.339126 
L 160.185455 185.817007 
L 156.087374 187.281454 
L 151.989293 186.312265 
L 147.891212 187.02224 
L 143.793131 190.112665 
L 139.695051 185.345577 
L 135.59697 190.536439 
L 131.498889 208.878756 
L 127.400808 212.129528 
L 123.302727 207.683002 
z
" clip-path="url(#p6393f581bc)" style="fill: #1f77b4"/>
   </g>
   <g id="PolyCollection_2">
    <path d="M 123.302727 85.472764 
L 123.302727 207.683002 
L 127.400808 212.129528 
L 131.498889 208.878756 
L 135.59697 190.536439 
L 139.695051 185.345577 
L 143.793131 190.112665 
L 147.891212 187.02224 
L 151.989293 186.312265 
L 156.087374 187.281454 
L 160.185455 185.817007 
L 164.283535 185.339126 
L 168.381616 184.851504 
L 172.479697 186.028038 
L 176.577778 189.754584 
L 180.675859 189.315276 
L 184.773939 187.444565 
L 188.87202 187.769603 
L 192.970101 187.887954 
L 197.068182 193.029711 
L 201.166263 194.890039 
L 205.264343 191.502995 
L 209.362424 187.661783 
L 213.460505 186.672057 
L 217.558586 187.29475 
L 221.656667 189.530388 
L 225.754747 187.001308 
L 229.852828 187.948512 
L 233.950909 186.28396 
L 238.04899 187.116368 
L 242.147071 186.339911 
L 246.245152 187.918233 
L 250.343232 187.513285 
L 254.441313 185.411269 
L 258.539394 185.56635 
L 262.637475 185.233413 
L 266.735556 186.368215 
L 270.833636 185.651131 
L 274.931717 185.272512 
L 279.029798 185.866374 
L 283.127879 185.131913 
L 287.22596 186.26158 
L 291.32404 185.57596 
L 295.422121 185.097948 
L 299.520202 185.465376 
L 303.618283 185.182992 
L 307.716364 186.029749 
L 311.814444 192.263917 
L 315.912525 185.688914 
L 320.010606 187.144672 
L 324.108687 185.458135 
L 328.206768 187.176004 
L 332.304848 185.534096 
L 336.402929 186.312133 
L 340.50101 185.666665 
L 344.599091 187.665075 
L 348.697172 188.923362 
L 352.795253 185.217089 
L 356.893333 185.17641 
L 360.991414 186.065294 
L 365.089495 185.5728 
L 369.187576 186.339384 
L 373.285657 186.754864 
L 377.383737 185.674037 
L 381.481818 185.695759 
L 385.579899 184.887443 
L 389.67798 185.511716 
L 393.776061 185.67746 
L 397.874141 185.627961 
L 401.972222 185.253819 
L 406.070303 186.302786 
L 410.168384 192.343564 
L 414.266465 185.035415 
L 418.364545 185.83162 
L 422.462626 185.624143 
L 426.560707 185.462348 
L 430.658788 184.588472 
L 434.756869 186.293966 
L 438.854949 186.392306 
L 442.95303 187.827001 
L 447.051111 186.11453 
L 451.149192 186.728929 
L 455.247273 185.5416 
L 459.345354 186.92719 
L 463.443434 191.140964 
L 467.541515 194.425455 
L 471.639596 187.409415 
L 475.737677 185.545286 
L 479.835758 184.323465 
L 483.933838 185.742099 
L 488.031919 185.358873 
L 492.13 186.986695 
L 496.228081 187.833583 
L 500.326162 185.711952 
L 504.424242 185.765006 
L 508.522323 184.850451 
L 512.620404 187.399673 
L 516.718485 185.415482 
L 520.816566 186.015399 
L 524.914646 185.10927 
L 529.012727 185.638756 
L 533.110808 186.679035 
L 537.208889 185.352949 
L 541.30697 185.021329 
L 545.405051 186.590304 
L 549.503131 193.243375 
L 553.601212 185.589651 
L 557.699293 186.777902 
L 561.797374 185.520273 
L 565.895455 186.068453 
L 569.993535 189.453769 
L 574.091616 195.576827 
L 578.189697 186.736038 
L 582.287778 187.556729 
L 586.385859 188.665464 
L 590.483939 186.889276 
L 594.58202 185.810293 
L 598.680101 186.13928 
L 602.778182 184.568462 
L 606.876263 184.989207 
L 610.974343 184.584523 
L 615.072424 186.495913 
L 619.170505 184.804637 
L 623.268586 189.120306 
L 627.366667 186.432854 
L 631.464747 185.83004 
L 635.562828 186.72419 
L 639.660909 184.423254 
L 643.75899 186.063582 
L 647.857071 189.202191 
L 651.955152 188.44061 
L 656.053232 185.96274 
L 660.151313 186.31266 
L 664.249394 188.81054 
L 668.347475 185.399026 
L 672.445556 186.400337 
L 676.543636 188.689292 
L 680.641717 187.325819 
L 684.739798 186.726691 
L 688.837879 187.609783 
L 692.93596 184.922462 
L 697.03404 185.114799 
L 701.132121 185.469326 
L 705.230202 185.500131 
L 709.328283 187.684295 
L 713.426364 190.256688 
L 717.524444 189.937706 
L 721.622525 196.490724 
L 725.720606 188.76025 
L 729.818687 192.593958 
L 733.916768 188.116626 
L 738.014848 189.017621 
L 742.112929 191.349889 
L 746.21101 185.614928 
L 750.309091 188.365834 
L 754.407172 188.910197 
L 758.505253 187.944167 
L 762.603333 189.106483 
L 766.701414 188.358725 
L 770.799495 191.93335 
L 774.897576 186.767765 
L 778.995657 195.800365 
L 783.093737 189.645317 
L 787.191818 186.086884 
L 791.289899 187.606755 
L 795.38798 185.265272 
L 799.486061 185.527119 
L 803.584141 187.200095 
L 807.682222 185.407978 
L 811.780303 187.389405 
L 815.878384 189.253402 
L 819.976465 188.2904 
L 824.074545 187.611494 
L 828.172626 186.937195 
L 832.270707 184.45485 
L 836.368788 185.957211 
L 840.466869 185.086363 
L 844.564949 185.946284 
L 848.66303 184.532522 
L 852.761111 185.446682 
L 856.859192 184.884679 
L 860.957273 188.440083 
L 860.957273 46.098965 
L 860.957273 46.098965 
L 856.859192 38.660222 
L 852.761111 39.998024 
L 848.66303 38.311883 
L 844.564949 41.243541 
L 840.466869 38.646531 
L 836.368788 40.242888 
L 832.270707 38.673123 
L 828.172626 41.935876 
L 824.074545 43.147691 
L 819.976465 45.739831 
L 815.878384 47.035637 
L 811.780303 44.528015 
L 807.682222 40.254342 
L 803.584141 42.630711 
L 799.486061 41.296727 
L 795.38798 40.032647 
L 791.289899 42.4181 
L 787.191818 41.669289 
L 783.093737 44.835676 
L 778.995657 66.103991 
L 774.897576 42.657304 
L 770.799495 51.348673 
L 766.701414 47.29393 
L 762.603333 46.93993 
L 758.505253 45.773138 
L 754.407172 46.810783 
L 750.309091 45.554339 
L 746.21101 39.823459 
L 742.112929 52.134609 
L 738.014848 46.186247 
L 733.916768 45.731405 
L 729.818687 52.591294 
L 725.720606 45.810262 
L 721.622525 62.673651 
L 717.524444 50.052077 
L 713.426364 50.338805 
L 709.328283 45.065137 
L 705.230202 39.354399 
L 701.132121 41.070293 
L 697.03404 39.026729 
L 692.93596 39.450107 
L 688.837879 43.053431 
L 684.739798 42.1032 
L 680.641717 43.364646 
L 676.543636 46.726266 
L 672.445556 40.610448 
L 668.347475 41.030667 
L 664.249394 46.736139 
L 660.151313 41.642038 
L 656.053232 39.903238 
L 651.955152 46.387142 
L 647.857071 48.57565 
L 643.75899 40.938777 
L 639.660909 37.843612 
L 635.562828 41.91705 
L 631.464747 41.370318 
L 627.366667 41.902569 
L 623.268586 47.850009 
L 619.170505 39.103479 
L 615.072424 40.838462 
L 610.974343 38.279629 
L 606.876263 38.915487 
L 602.778182 38.376653 
L 598.680101 40.488938 
L 594.58202 41.547647 
L 590.483939 43.58226 
L 586.385859 43.585814 
L 582.287778 45.598441 
L 578.189697 41.828846 
L 574.091616 53.176731 
L 569.993535 57.501484 
L 565.895455 40.286859 
L 561.797374 40.457211 
L 557.699293 42.029345 
L 553.601212 40.289228 
L 549.503131 55.957916 
L 545.405051 42.319233 
L 541.30697 39.275148 
L 537.208889 39.064643 
L 533.110808 41.45918 
L 529.012727 41.145596 
L 524.914646 39.458927 
L 520.816566 40.651127 
L 516.718485 40.168771 
L 512.620404 42.867808 
L 508.522323 39.677331 
L 504.424242 39.863744 
L 500.326162 40.92943 
L 496.228081 43.895186 
L 492.13 43.379522 
L 488.031919 40.401655 
L 483.933838 40.32451 
L 479.835758 38.387053 
L 475.737677 40.043837 
L 471.639596 41.815418 
L 467.541515 55.730841 
L 463.443434 52.885 
L 459.345354 44.386363 
L 455.247273 39.88744 
L 451.149192 41.490249 
L 447.051111 41.972869 
L 442.95303 43.337658 
L 438.854949 44.261824 
L 434.756869 40.814897 
L 430.658788 39.019883 
L 426.560707 39.457743 
L 422.462626 41.096754 
L 418.364545 40.20945 
L 414.266465 39.223542 
L 410.168384 52.339979 
L 406.070303 43.954032 
L 401.972222 39.200108 
L 397.874141 39.731438 
L 393.776061 41.207996 
L 389.67798 39.368749 
L 385.579899 39.048451 
L 381.481818 40.140335 
L 377.383737 41.02053 
L 373.285657 41.69891 
L 369.187576 41.925081 
L 365.089495 40.778562 
L 360.991414 40.822401 
L 356.893333 39.270277 
L 352.795253 39.644287 
L 348.697172 46.466657 
L 344.599091 44.444682 
L 340.50101 41.226032 
L 336.402929 40.86466 
L 332.304848 40.489069 
L 328.206768 41.749068 
L 324.108687 42.392298 
L 320.010606 42.409148 
L 315.912525 41.603202 
L 311.814444 51.506124 
L 307.716364 42.945612 
L 303.618283 39.253952 
L 299.520202 40.285542 
L 295.422121 39.592945 
L 291.32404 40.033701 
L 287.22596 41.243805 
L 283.127879 39.641391 
L 279.029798 40.385726 
L 274.931717 39.336759 
L 270.833636 40.641386 
L 266.735556 41.301729 
L 262.637475 39.782385 
L 258.539394 39.980515 
L 254.441313 39.207086 
L 250.343232 43.505904 
L 246.245152 46.164131 
L 242.147071 41.674555 
L 238.04899 42.897166 
L 233.950909 41.52948 
L 229.852828 44.900446 
L 225.754747 41.971684 
L 221.656667 48.445187 
L 217.558586 42.998534 
L 213.460505 42.815808 
L 209.362424 43.88913 
L 205.264343 53.013488 
L 201.166263 58.494386 
L 197.068182 56.398409 
L 192.970101 45.463634 
L 188.87202 44.654002 
L 184.773939 44.246553 
L 180.675859 47.814859 
L 176.577778 47.429527 
L 172.479697 43.789736 
L 168.381616 38.189319 
L 164.283535 40.114532 
L 160.185455 40.686672 
L 156.087374 42.904801 
L 151.989293 41.723791 
L 147.891212 42.102015 
L 143.793131 50.633827 
L 139.695051 40.105317 
L 135.59697 46.469816 
L 131.498889 85.240011 
L 127.400808 94.806574 
L 123.302727 85.472764 
z
" clip-path="url(#p6393f581bc)" style="fill: #ff7f0e"/>
   </g>
   <g id="matplotlib.axis_1">
    <g id="xtick_1">
     <g id="line2d_1">
      <path d="M 123.302727 331 
L 123.302727 23.76 
" clip-path="url(#p6393f581bc)" style="fill: none; stroke-dasharray: 5.12,1.28,0.8,1.28; stroke-dashoffset: 0; stroke: #b0b0b0; stroke-width: 0.8"/>
     </g>
     <g id="line2d_2">
      <defs>
       <path id="me9e847e7f3" d="M 0 0 
L 0 3.5 
" style="stroke: #000000; stroke-width: 0.8"/>
      </defs>
      <g>
       <use xlink:href="#me9e847e7f3" x="123.302727" y="331" style="stroke: #000000; stroke-width: 0.8"/>
      </g>
     </g>
     <g id="text_1">
      <!-- 0 -->
      <g transform="translate(116.303977 354.716563) scale(0.22 -0.22)">
       <defs>
        <path id="DejaVuSans-30" d="M 2034 4250 
Q 1547 4250 1301 3770 
Q 1056 3291 1056 2328 
Q 1056 1369 1301 889 
Q 1547 409 2034 409 
Q 2525 409 2770 889 
Q 3016 1369 3016 2328 
Q 3016 3291 2770 3770 
Q 2525 4250 2034 4250 
z
M 2034 4750 
Q 2819 4750 3233 4129 
Q 3647 3509 3647 2328 
Q 3647 1150 3233 529 
Q 2819 -91 2034 -91 
Q 1250 -91 836 529 
Q 422 1150 422 2328 
Q 422 3509 836 4129 
Q 1250 4750 2034 4750 
z
" transform="scale(0.015625)"/>
       </defs>
       <use xlink:href="#DejaVuSans-30"/>
      </g>
     </g>
    </g>
    <g id="xtick_2">
     <g id="line2d_3">
      <path d="M 225.754747 331 
L 225.754747 23.76 
" clip-path="url(#p6393f581bc)" style="fill: none; stroke-dasharray: 5.12,1.28,0.8,1.28; stroke-dashoffset: 0; stroke: #b0b0b0; stroke-width: 0.8"/>
     </g>
     <g id="line2d_4">
      <g>
       <use xlink:href="#me9e847e7f3" x="225.754747" y="331" style="stroke: #000000; stroke-width: 0.8"/>
      </g>
     </g>
     <g id="text_2">
      <!-- 25 -->
      <g transform="translate(211.757247 354.716563) scale(0.22 -0.22)">
       <defs>
        <path id="DejaVuSans-32" d="M 1228 531 
L 3431 531 
L 3431 0 
L 469 0 
L 469 531 
Q 828 903 1448 1529 
Q 2069 2156 2228 2338 
Q 2531 2678 2651 2914 
Q 2772 3150 2772 3378 
Q 2772 3750 2511 3984 
Q 2250 4219 1831 4219 
Q 1534 4219 1204 4116 
Q 875 4013 500 3803 
L 500 4441 
Q 881 4594 1212 4672 
Q 1544 4750 1819 4750 
Q 2544 4750 2975 4387 
Q 3406 4025 3406 3419 
Q 3406 3131 3298 2873 
Q 3191 2616 2906 2266 
Q 2828 2175 2409 1742 
Q 1991 1309 1228 531 
z
" transform="scale(0.015625)"/>
        <path id="DejaVuSans-35" d="M 691 4666 
L 3169 4666 
L 3169 4134 
L 1269 4134 
L 1269 2991 
Q 1406 3038 1543 3061 
Q 1681 3084 1819 3084 
Q 2600 3084 3056 2656 
Q 3513 2228 3513 1497 
Q 3513 744 3044 326 
Q 2575 -91 1722 -91 
Q 1428 -91 1123 -41 
Q 819 9 494 109 
L 494 744 
Q 775 591 1075 516 
Q 1375 441 1709 441 
Q 2250 441 2565 725 
Q 2881 1009 2881 1497 
Q 2881 1984 2565 2268 
Q 2250 2553 1709 2553 
Q 1456 2553 1204 2497 
Q 953 2441 691 2322 
L 691 4666 
z
" transform="scale(0.015625)"/>
       </defs>
       <use xlink:href="#DejaVuSans-32"/>
       <use xlink:href="#DejaVuSans-35" x="63.623047"/>
      </g>
     </g>
    </g>
    <g id="xtick_3">
     <g id="line2d_5">
      <path d="M 328.206768 331 
L 328.206768 23.76 
" clip-path="url(#p6393f581bc)" style="fill: none; stroke-dasharray: 5.12,1.28,0.8,1.28; stroke-dashoffset: 0; stroke: #b0b0b0; stroke-width: 0.8"/>
     </g>
     <g id="line2d_6">
      <g>
       <use xlink:href="#me9e847e7f3" x="328.206768" y="331" style="stroke: #000000; stroke-width: 0.8"/>
      </g>
     </g>
     <g id="text_3">
      <!-- 50 -->
      <g transform="translate(314.209268 354.716563) scale(0.22 -0.22)">
       <use xlink:href="#DejaVuSans-35"/>
       <use xlink:href="#DejaVuSans-30" x="63.623047"/>
      </g>
     </g>
    </g>
    <g id="xtick_4">
     <g id="line2d_7">
      <path d="M 430.658788 331 
L 430.658788 23.76 
" clip-path="url(#p6393f581bc)" style="fill: none; stroke-dasharray: 5.12,1.28,0.8,1.28; stroke-dashoffset: 0; stroke: #b0b0b0; stroke-width: 0.8"/>
     </g>
     <g id="line2d_8">
      <g>
       <use xlink:href="#me9e847e7f3" x="430.658788" y="331" style="stroke: #000000; stroke-width: 0.8"/>
      </g>
     </g>
     <g id="text_4">
      <!-- 75 -->
      <g transform="translate(416.661288 354.716563) scale(0.22 -0.22)">
       <defs>
        <path id="DejaVuSans-37" d="M 525 4666 
L 3525 4666 
L 3525 4397 
L 1831 0 
L 1172 0 
L 2766 4134 
L 525 4134 
L 525 4666 
z
" transform="scale(0.015625)"/>
       </defs>
       <use xlink:href="#DejaVuSans-37"/>
       <use xlink:href="#DejaVuSans-35" x="63.623047"/>
      </g>
     </g>
    </g>
    <g id="xtick_5">
     <g id="line2d_9">
      <path d="M 533.110808 331 
L 533.110808 23.76 
" clip-path="url(#p6393f581bc)" style="fill: none; stroke-dasharray: 5.12,1.28,0.8,1.28; stroke-dashoffset: 0; stroke: #b0b0b0; stroke-width: 0.8"/>
     </g>
     <g id="line2d_10">
      <g>
       <use xlink:href="#me9e847e7f3" x="533.110808" y="331" style="stroke: #000000; stroke-width: 0.8"/>
      </g>
     </g>
     <g id="text_5">
      <!-- 100 -->
      <g transform="translate(512.114558 354.716563) scale(0.22 -0.22)">
       <defs>
        <path id="DejaVuSans-31" d="M 794 531 
L 1825 531 
L 1825 4091 
L 703 3866 
L 703 4441 
L 1819 4666 
L 2450 4666 
L 2450 531 
L 3481 531 
L 3481 0 
L 794 0 
L 794 531 
z
" transform="scale(0.015625)"/>
       </defs>
       <use xlink:href="#DejaVuSans-31"/>
       <use xlink:href="#DejaVuSans-30" x="63.623047"/>
       <use xlink:href="#DejaVuSans-30" x="127.246094"/>
      </g>
     </g>
    </g>
    <g id="xtick_6">
     <g id="line2d_11">
      <path d="M 635.562828 331 
L 635.562828 23.76 
" clip-path="url(#p6393f581bc)" style="fill: none; stroke-dasharray: 5.12,1.28,0.8,1.28; stroke-dashoffset: 0; stroke: #b0b0b0; stroke-width: 0.8"/>
     </g>
     <g id="line2d_12">
      <g>
       <use xlink:href="#me9e847e7f3" x="635.562828" y="331" style="stroke: #000000; stroke-width: 0.8"/>
      </g>
     </g>
     <g id="text_6">
      <!-- 125 -->
      <g transform="translate(614.566578 354.716563) scale(0.22 -0.22)">
       <use xlink:href="#DejaVuSans-31"/>
       <use xlink:href="#DejaVuSans-32" x="63.623047"/>
       <use xlink:href="#DejaVuSans-35" x="127.246094"/>
      </g>
     </g>
    </g>
    <g id="xtick_7">
     <g id="line2d_13">
      <path d="M 738.014848 331 
L 738.014848 23.76 
" clip-path="url(#p6393f581bc)" style="fill: none; stroke-dasharray: 5.12,1.28,0.8,1.28; stroke-dashoffset: 0; stroke: #b0b0b0; stroke-width: 0.8"/>
     </g>
     <g id="line2d_14">
      <g>
       <use xlink:href="#me9e847e7f3" x="738.014848" y="331" style="stroke: #000000; stroke-width: 0.8"/>
      </g>
     </g>
     <g id="text_7">
      <!-- 150 -->
      <g transform="translate(717.018598 354.716563) scale(0.22 -0.22)">
       <use xlink:href="#DejaVuSans-31"/>
       <use xlink:href="#DejaVuSans-35" x="63.623047"/>
       <use xlink:href="#DejaVuSans-30" x="127.246094"/>
      </g>
     </g>
    </g>
    <g id="xtick_8">
     <g id="line2d_15">
      <path d="M 840.466869 331 
L 840.466869 23.76 
" clip-path="url(#p6393f581bc)" style="fill: none; stroke-dasharray: 5.12,1.28,0.8,1.28; stroke-dashoffset: 0; stroke: #b0b0b0; stroke-width: 0.8"/>
     </g>
     <g id="line2d_16">
      <g>
       <use xlink:href="#me9e847e7f3" x="840.466869" y="331" style="stroke: #000000; stroke-width: 0.8"/>
      </g>
     </g>
     <g id="text_8">
      <!-- 175 -->
      <g transform="translate(819.470619 354.716563) scale(0.22 -0.22)">
       <use xlink:href="#DejaVuSans-31"/>
       <use xlink:href="#DejaVuSans-37" x="63.623047"/>
       <use xlink:href="#DejaVuSans-35" x="127.246094"/>
      </g>
     </g>
    </g>
    <g id="text_9">
     <!-- Time (s) -->
     <g transform="translate(443.340625 381.528125) scale(0.24 -0.24)">
      <defs>
       <path id="DejaVuSans-54" d="M -19 4666 
L 3928 4666 
L 3928 4134 
L 2272 4134 
L 2272 0 
L 1638 0 
L 1638 4134 
L -19 4134 
L -19 4666 
z
" transform="scale(0.015625)"/>
       <path id="DejaVuSans-69" d="M 603 3500 
L 1178 3500 
L 1178 0 
L 603 0 
L 603 3500 
z
M 603 4863 
L 1178 4863 
L 1178 4134 
L 603 4134 
L 603 4863 
z
" transform="scale(0.015625)"/>
       <path id="DejaVuSans-6d" d="M 3328 2828 
Q 3544 3216 3844 3400 
Q 4144 3584 4550 3584 
Q 5097 3584 5394 3201 
Q 5691 2819 5691 2113 
L 5691 0 
L 5113 0 
L 5113 2094 
Q 5113 2597 4934 2840 
Q 4756 3084 4391 3084 
Q 3944 3084 3684 2787 
Q 3425 2491 3425 1978 
L 3425 0 
L 2847 0 
L 2847 2094 
Q 2847 2600 2669 2842 
Q 2491 3084 2119 3084 
Q 1678 3084 1418 2786 
Q 1159 2488 1159 1978 
L 1159 0 
L 581 0 
L 581 3500 
L 1159 3500 
L 1159 2956 
Q 1356 3278 1631 3431 
Q 1906 3584 2284 3584 
Q 2666 3584 2933 3390 
Q 3200 3197 3328 2828 
z
" transform="scale(0.015625)"/>
       <path id="DejaVuSans-65" d="M 3597 1894 
L 3597 1613 
L 953 1613 
Q 991 1019 1311 708 
Q 1631 397 2203 397 
Q 2534 397 2845 478 
Q 3156 559 3463 722 
L 3463 178 
Q 3153 47 2828 -22 
Q 2503 -91 2169 -91 
Q 1331 -91 842 396 
Q 353 884 353 1716 
Q 353 2575 817 3079 
Q 1281 3584 2069 3584 
Q 2775 3584 3186 3129 
Q 3597 2675 3597 1894 
z
M 3022 2063 
Q 3016 2534 2758 2815 
Q 2500 3097 2075 3097 
Q 1594 3097 1305 2825 
Q 1016 2553 972 2059 
L 3022 2063 
z
" transform="scale(0.015625)"/>
       <path id="DejaVuSans-20" transform="scale(0.015625)"/>
       <path id="DejaVuSans-28" d="M 1984 4856 
Q 1566 4138 1362 3434 
Q 1159 2731 1159 2009 
Q 1159 1288 1364 580 
Q 1569 -128 1984 -844 
L 1484 -844 
Q 1016 -109 783 600 
Q 550 1309 550 2009 
Q 550 2706 781 3412 
Q 1013 4119 1484 4856 
L 1984 4856 
z
" transform="scale(0.015625)"/>
       <path id="DejaVuSans-73" d="M 2834 3397 
L 2834 2853 
Q 2591 2978 2328 3040 
Q 2066 3103 1784 3103 
Q 1356 3103 1142 2972 
Q 928 2841 928 2578 
Q 928 2378 1081 2264 
Q 1234 2150 1697 2047 
L 1894 2003 
Q 2506 1872 2764 1633 
Q 3022 1394 3022 966 
Q 3022 478 2636 193 
Q 2250 -91 1575 -91 
Q 1294 -91 989 -36 
Q 684 19 347 128 
L 347 722 
Q 666 556 975 473 
Q 1284 391 1588 391 
Q 1994 391 2212 530 
Q 2431 669 2431 922 
Q 2431 1156 2273 1281 
Q 2116 1406 1581 1522 
L 1381 1569 
Q 847 1681 609 1914 
Q 372 2147 372 2553 
Q 372 3047 722 3315 
Q 1072 3584 1716 3584 
Q 2034 3584 2315 3537 
Q 2597 3491 2834 3397 
z
" transform="scale(0.015625)"/>
       <path id="DejaVuSans-29" d="M 513 4856 
L 1013 4856 
Q 1481 4119 1714 3412 
Q 1947 2706 1947 2009 
Q 1947 1309 1714 600 
Q 1481 -109 1013 -844 
L 513 -844 
Q 928 -128 1133 580 
Q 1338 1288 1338 2009 
Q 1338 2731 1133 3434 
Q 928 4138 513 4856 
z
" transform="scale(0.015625)"/>
      </defs>
      <use xlink:href="#DejaVuSans-54"/>
      <use xlink:href="#DejaVuSans-69" x="57.958984"/>
      <use xlink:href="#DejaVuSans-6d" x="85.742188"/>
      <use xlink:href="#DejaVuSans-65" x="183.154297"/>
      <use xlink:href="#DejaVuSans-20" x="244.677734"/>
      <use xlink:href="#DejaVuSans-28" x="276.464844"/>
      <use xlink:href="#DejaVuSans-73" x="315.478516"/>
      <use xlink:href="#DejaVuSans-29" x="367.578125"/>
     </g>
    </g>
   </g>
   <g id="matplotlib.axis_2">
    <g id="ytick_1">
     <g id="line2d_17">
      <path d="M 86.42 331 
L 897.84 331 
" clip-path="url(#p6393f581bc)" style="fill: none; stroke-dasharray: 5.12,1.28,0.8,1.28; stroke-dashoffset: 0; stroke: #b0b0b0; stroke-width: 0.8"/>
     </g>
     <g id="line2d_18">
      <defs>
       <path id="m4c788a5a00" d="M 0 0 
L -3.5 0 
" style="stroke: #000000; stroke-width: 0.8"/>
      </defs>
      <g>
       <use xlink:href="#m4c788a5a00" x="86.42" y="331" style="stroke: #000000; stroke-width: 0.8"/>
      </g>
     </g>
     <g id="text_10">
      <!-- 0 -->
      <g transform="translate(65.4225 339.358281) scale(0.22 -0.22)">
       <use xlink:href="#DejaVuSans-30"/>
      </g>
     </g>
    </g>
    <g id="ytick_2">
     <g id="line2d_19">
      <path d="M 86.42 248.720299 
L 897.84 248.720299 
" clip-path="url(#p6393f581bc)" style="fill: none; stroke-dasharray: 5.12,1.28,0.8,1.28; stroke-dashoffset: 0; stroke: #b0b0b0; stroke-width: 0.8"/>
     </g>
     <g id="line2d_20">
      <g>
       <use xlink:href="#m4c788a5a00" x="86.42" y="248.720299" style="stroke: #000000; stroke-width: 0.8"/>
      </g>
     </g>
     <g id="text_11">
      <!-- 5 -->
      <g transform="translate(65.4225 257.07858) scale(0.22 -0.22)">
       <use xlink:href="#DejaVuSans-35"/>
      </g>
     </g>
    </g>
    <g id="ytick_3">
     <g id="line2d_21">
      <path d="M 86.42 166.440598 
L 897.84 166.440598 
" clip-path="url(#p6393f581bc)" style="fill: none; stroke-dasharray: 5.12,1.28,0.8,1.28; stroke-dashoffset: 0; stroke: #b0b0b0; stroke-width: 0.8"/>
     </g>
     <g id="line2d_22">
      <g>
       <use xlink:href="#m4c788a5a00" x="86.42" y="166.440598" style="stroke: #000000; stroke-width: 0.8"/>
      </g>
     </g>
     <g id="text_12">
      <!-- 10 -->
      <g transform="translate(51.425 174.798879) scale(0.22 -0.22)">
       <use xlink:href="#DejaVuSans-31"/>
       <use xlink:href="#DejaVuSans-30" x="63.623047"/>
      </g>
     </g>
    </g>
    <g id="ytick_4">
     <g id="line2d_23">
      <path d="M 86.42 84.160897 
L 897.84 84.160897 
" clip-path="url(#p6393f581bc)" style="fill: none; stroke-dasharray: 5.12,1.28,0.8,1.28; stroke-dashoffset: 0; stroke: #b0b0b0; stroke-width: 0.8"/>
     </g>
     <g id="line2d_24">
      <g>
       <use xlink:href="#m4c788a5a00" x="86.42" y="84.160897" style="stroke: #000000; stroke-width: 0.8"/>
      </g>
     </g>
     <g id="text_13">
      <!-- 15 -->
      <g transform="translate(51.425 92.519178) scale(0.22 -0.22)">
       <use xlink:href="#DejaVuSans-31"/>
       <use xlink:href="#DejaVuSans-35" x="63.623047"/>
      </g>
     </g>
    </g>
    <g id="text_14">
     <!-- Throughput (Mbps) -->
     <g transform="translate(42.43375 292.094375) rotate(-90) scale(0.24 -0.24)">
      <defs>
       <path id="DejaVuSans-68" d="M 3513 2113 
L 3513 0 
L 2938 0 
L 2938 2094 
Q 2938 2591 2744 2837 
Q 2550 3084 2163 3084 
Q 1697 3084 1428 2787 
Q 1159 2491 1159 1978 
L 1159 0 
L 581 0 
L 581 4863 
L 1159 4863 
L 1159 2956 
Q 1366 3272 1645 3428 
Q 1925 3584 2291 3584 
Q 2894 3584 3203 3211 
Q 3513 2838 3513 2113 
z
" transform="scale(0.015625)"/>
       <path id="DejaVuSans-72" d="M 2631 2963 
Q 2534 3019 2420 3045 
Q 2306 3072 2169 3072 
Q 1681 3072 1420 2755 
Q 1159 2438 1159 1844 
L 1159 0 
L 581 0 
L 581 3500 
L 1159 3500 
L 1159 2956 
Q 1341 3275 1631 3429 
Q 1922 3584 2338 3584 
Q 2397 3584 2469 3576 
Q 2541 3569 2628 3553 
L 2631 2963 
z
" transform="scale(0.015625)"/>
       <path id="DejaVuSans-6f" d="M 1959 3097 
Q 1497 3097 1228 2736 
Q 959 2375 959 1747 
Q 959 1119 1226 758 
Q 1494 397 1959 397 
Q 2419 397 2687 759 
Q 2956 1122 2956 1747 
Q 2956 2369 2687 2733 
Q 2419 3097 1959 3097 
z
M 1959 3584 
Q 2709 3584 3137 3096 
Q 3566 2609 3566 1747 
Q 3566 888 3137 398 
Q 2709 -91 1959 -91 
Q 1206 -91 779 398 
Q 353 888 353 1747 
Q 353 2609 779 3096 
Q 1206 3584 1959 3584 
z
" transform="scale(0.015625)"/>
       <path id="DejaVuSans-75" d="M 544 1381 
L 544 3500 
L 1119 3500 
L 1119 1403 
Q 1119 906 1312 657 
Q 1506 409 1894 409 
Q 2359 409 2629 706 
Q 2900 1003 2900 1516 
L 2900 3500 
L 3475 3500 
L 3475 0 
L 2900 0 
L 2900 538 
Q 2691 219 2414 64 
Q 2138 -91 1772 -91 
Q 1169 -91 856 284 
Q 544 659 544 1381 
z
M 1991 3584 
L 1991 3584 
z
" transform="scale(0.015625)"/>
       <path id="DejaVuSans-67" d="M 2906 1791 
Q 2906 2416 2648 2759 
Q 2391 3103 1925 3103 
Q 1463 3103 1205 2759 
Q 947 2416 947 1791 
Q 947 1169 1205 825 
Q 1463 481 1925 481 
Q 2391 481 2648 825 
Q 2906 1169 2906 1791 
z
M 3481 434 
Q 3481 -459 3084 -895 
Q 2688 -1331 1869 -1331 
Q 1566 -1331 1297 -1286 
Q 1028 -1241 775 -1147 
L 775 -588 
Q 1028 -725 1275 -790 
Q 1522 -856 1778 -856 
Q 2344 -856 2625 -561 
Q 2906 -266 2906 331 
L 2906 616 
Q 2728 306 2450 153 
Q 2172 0 1784 0 
Q 1141 0 747 490 
Q 353 981 353 1791 
Q 353 2603 747 3093 
Q 1141 3584 1784 3584 
Q 2172 3584 2450 3431 
Q 2728 3278 2906 2969 
L 2906 3500 
L 3481 3500 
L 3481 434 
z
" transform="scale(0.015625)"/>
       <path id="DejaVuSans-70" d="M 1159 525 
L 1159 -1331 
L 581 -1331 
L 581 3500 
L 1159 3500 
L 1159 2969 
Q 1341 3281 1617 3432 
Q 1894 3584 2278 3584 
Q 2916 3584 3314 3078 
Q 3713 2572 3713 1747 
Q 3713 922 3314 415 
Q 2916 -91 2278 -91 
Q 1894 -91 1617 61 
Q 1341 213 1159 525 
z
M 3116 1747 
Q 3116 2381 2855 2742 
Q 2594 3103 2138 3103 
Q 1681 3103 1420 2742 
Q 1159 2381 1159 1747 
Q 1159 1113 1420 752 
Q 1681 391 2138 391 
Q 2594 391 2855 752 
Q 3116 1113 3116 1747 
z
" transform="scale(0.015625)"/>
       <path id="DejaVuSans-74" d="M 1172 4494 
L 1172 3500 
L 2356 3500 
L 2356 3053 
L 1172 3053 
L 1172 1153 
Q 1172 725 1289 603 
Q 1406 481 1766 481 
L 2356 481 
L 2356 0 
L 1766 0 
Q 1100 0 847 248 
Q 594 497 594 1153 
L 594 3053 
L 172 3053 
L 172 3500 
L 594 3500 
L 594 4494 
L 1172 4494 
z
" transform="scale(0.015625)"/>
       <path id="DejaVuSans-4d" d="M 628 4666 
L 1569 4666 
L 2759 1491 
L 3956 4666 
L 4897 4666 
L 4897 0 
L 4281 0 
L 4281 4097 
L 3078 897 
L 2444 897 
L 1241 4097 
L 1241 0 
L 628 0 
L 628 4666 
z
" transform="scale(0.015625)"/>
       <path id="DejaVuSans-62" d="M 3116 1747 
Q 3116 2381 2855 2742 
Q 2594 3103 2138 3103 
Q 1681 3103 1420 2742 
Q 1159 2381 1159 1747 
Q 1159 1113 1420 752 
Q 1681 391 2138 391 
Q 2594 391 2855 752 
Q 3116 1113 3116 1747 
z
M 1159 2969 
Q 1341 3281 1617 3432 
Q 1894 3584 2278 3584 
Q 2916 3584 3314 3078 
Q 3713 2572 3713 1747 
Q 3713 922 3314 415 
Q 2916 -91 2278 -91 
Q 1894 -91 1617 61 
Q 1341 213 1159 525 
L 1159 0 
L 581 0 
L 581 4863 
L 1159 4863 
L 1159 2969 
z
" transform="scale(0.015625)"/>
      </defs>
      <use xlink:href="#DejaVuSans-54"/>
      <use xlink:href="#DejaVuSans-68" x="61.083984"/>
      <use xlink:href="#DejaVuSans-72" x="124.462891"/>
      <use xlink:href="#DejaVuSans-6f" x="163.326172"/>
      <use xlink:href="#DejaVuSans-75" x="224.507812"/>
      <use xlink:href="#DejaVuSans-67" x="287.886719"/>
      <use xlink:href="#DejaVuSans-68" x="351.363281"/>
      <use xlink:href="#DejaVuSans-70" x="414.742188"/>
      <use xlink:href="#DejaVuSans-75" x="478.21875"/>
      <use xlink:href="#DejaVuSans-74" x="541.597656"/>
      <use xlink:href="#DejaVuSans-20" x="580.806641"/>
      <use xlink:href="#DejaVuSans-28" x="612.59375"/>
      <use xlink:href="#DejaVuSans-4d" x="651.607422"/>
      <use xlink:href="#DejaVuSans-62" x="737.886719"/>
      <use xlink:href="#DejaVuSans-70" x="801.363281"/>
      <use xlink:href="#DejaVuSans-73" x="864.839844"/>
      <use xlink:href="#DejaVuSans-29" x="916.939453"/>
     </g>
    </g>
   </g>
   <g id="patch_3">
    <path d="M 86.42 331 
L 86.42 23.76 
" style="fill: none; stroke: #000000; stroke-width: 0.8; stroke-linejoin: miter; stroke-linecap: square"/>
   </g>
   <g id="patch_4">
    <path d="M 897.84 331 
L 897.84 23.76 
" style="fill: none; stroke: #000000; stroke-width: 0.8; stroke-linejoin: miter; stroke-linecap: square"/>
   </g>
   <g id="patch_5">
    <path d="M 86.42 331 
L 897.84 331 
" style="fill: none; stroke: #000000; stroke-width: 0.8; stroke-linejoin: miter; stroke-linecap: square"/>
   </g>
   <g id="patch_6">
    <path d="M 86.42 23.76 
L 897.84 23.76 
" style="fill: none; stroke: #000000; stroke-width: 0.8; stroke-linejoin: miter; stroke-linecap: square"/>
   </g>
   <g id="legend_1">
    <g id="patch_7">
     <path d="M 756.24 113.415 
L 881.04 113.415 
Q 885.84 113.415 885.84 108.615 
L 885.84 40.56 
Q 885.84 35.76 881.04 35.76 
L 756.24 35.76 
Q 751.44 35.76 751.44 40.56 
L 751.44 108.615 
Q 751.44 113.415 756.24 113.415 
z
" style="fill: #ffffff; opacity: 0.8; stroke: #cccccc; stroke-linejoin: miter"/>
    </g>
    <g id="patch_8">
     <path d="M 761.04 63.59625 
L 809.04 63.59625 
L 809.04 46.79625 
L 761.04 46.79625 
z
" style="fill: #1f77b4"/>
    </g>
    <g id="text_15">
     <!-- UE1 -->
     <g transform="translate(828.24 63.59625) scale(0.24 -0.24)">
      <defs>
       <path id="DejaVuSans-55" d="M 556 4666 
L 1191 4666 
L 1191 1831 
Q 1191 1081 1462 751 
Q 1734 422 2344 422 
Q 2950 422 3222 751 
Q 3494 1081 3494 1831 
L 3494 4666 
L 4128 4666 
L 4128 1753 
Q 4128 841 3676 375 
Q 3225 -91 2344 -91 
Q 1459 -91 1007 375 
Q 556 841 556 1753 
L 556 4666 
z
" transform="scale(0.015625)"/>
       <path id="DejaVuSans-45" d="M 628 4666 
L 3578 4666 
L 3578 4134 
L 1259 4134 
L 1259 2753 
L 3481 2753 
L 3481 2222 
L 1259 2222 
L 1259 531 
L 3634 531 
L 3634 0 
L 628 0 
L 628 4666 
z
" transform="scale(0.015625)"/>
      </defs>
      <use xlink:href="#DejaVuSans-55"/>
      <use xlink:href="#DejaVuSans-45" x="73.193359"/>
      <use xlink:href="#DejaVuSans-31" x="136.376953"/>
     </g>
    </g>
    <g id="patch_9">
     <path d="M 761.04 98.82375 
L 809.04 98.82375 
L 809.04 82.02375 
L 761.04 82.02375 
z
" style="fill: #ff7f0e"/>
    </g>
    <g id="text_16">
     <!-- UE2 -->
     <g transform="translate(828.24 98.82375) scale(0.24 -0.24)">
      <use xlink:href="#DejaVuSans-55"/>
      <use xlink:href="#DejaVuSans-45" x="73.193359"/>
      <use xlink:href="#DejaVuSans-32" x="136.376953"/>
     </g>
    </g>
   </g>
  </g>
 </g>
 <defs>
  <clipPath id="p6393f581bc">
   <rect x="86.42" y="23.76" width="811.42" height="307.24"/>
  </clipPath>
 </defs>
</svg>
