<?xml version="1.0" encoding="utf-8" standalone="no"?>
<!DOCTYPE svg PUBLIC "-//W3C//DTD SVG 1.1//EN"
  "http://www.w3.org/Graphics/SVG/1.1/DTD/svg11.dtd">
<svg xmlns:xlink="http://www.w3.org/1999/xlink" width="921.6pt" height="410.4pt" viewBox="0 0 921.6 410.4" xmlns="http://www.w3.org/2000/svg" version="1.1">
 <metadata>
  <rdf:RDF xmlns:dc="http://purl.org/dc/elements/1.1/" xmlns:cc="http://creativecommons.org/ns#" xmlns:rdf="http://www.w3.org/1999/02/22-rdf-syntax-ns#">
   <cc:Work>
    <dc:type rdf:resource="http://purl.org/dc/dcmitype/StillImage"/>
    <dc:date>2023-05-08T14:07:57.024394</dc:date>
    <dc:format>image/svg+xml</dc:format>
    <dc:creator>
     <cc:Agent>
      <dc:title>Matplotlib v3.7.1, https://matplotlib.org/</dc:title>
     </cc:Agent>
    </dc:creator>
   </cc:Work>
  </rdf:RDF>
 </metadata>
 <defs>
  <style type="text/css">*{stroke-linejoin: round; stroke-linecap: butt}</style>
 </defs>
 <g id="figure_1">
  <g id="patch_1">
   <path d="M 0 410.4 
L 921.6 410.4 
L 921.6 0 
L 0 0 
z
" style="fill: #ffffff"/>
  </g>
  <g id="axes_1">
   <g id="patch_2">
    <path d="M 86.42 331 
L 897.84 331 
L 897.84 23.76 
L 86.42 23.76 
z
" style="fill: #ffffff"/>
   </g>
   <g id="PolyCollection_1">
    <path d="M 123.302727 58.30871 
L 123.302727 331 
L 127.446854 331 
L 131.590981 331 
L 135.735107 331 
L 139.879234 331 
L 144.023361 331 
L 148.167487 331 
L 152.311614 331 
L 156.455741 331 
L 160.599867 331 
L 164.743994 331 
L 168.888121 331 
L 173.032247 331 
L 177.176374 331 
L 181.320501 331 
L 185.464627 331 
L 189.608754 331 
L 193.75288 331 
L 197.897007 331 
L 202.041134 331 
L 206.18526 331 
L 210.329387 331 
L 214.473514 331 
L 218.61764 331 
L 222.761767 331 
L 226.905894 331 
L 231.05002 331 
L 235.194147 331 
L 239.338274 331 
L 243.4824 331 
L 247.626527 331 
L 251.770654 331 
L 255.91478 331 
L 260.058907 331 
L 264.203034 331 
L 268.34716 331 
L 272.491287 331 
L 276.635414 331 
L 280.77954 331 
L 284.923667 331 
L 289.067794 331 
L 293.21192 331 
L 297.356047 331 
L 301.500174 331 
L 305.6443 331 
L 309.788427 331 
L 313.932554 331 
L 318.07668 331 
L 322.220807 331 
L 326.364934 331 
L 330.50906 331 
L 334.653187 331 
L 338.797314 331 
L 342.94144 331 
L 347.085567 331 
L 351.229694 331 
L 355.37382 331 
L 359.517947 331 
L 363.662074 331 
L 367.8062 331 
L 371.950327 331 
L 376.094454 331 
L 380.23858 331 
L 384.382707 331 
L 388.526834 331 
L 392.67096 331 
L 396.815087 331 
L 400.959213 331 
L 405.10334 331 
L 409.247467 331 
L 413.391593 331 
L 417.53572 331 
L 421.679847 331 
L 425.823973 331 
L 429.9681 331 
L 434.112227 331 
L 438.256353 331 
L 442.40048 331 
L 446.544607 331 
L 450.688733 331 
L 454.83286 331 
L 458.976987 331 
L 463.121113 331 
L 467.26524 331 
L 471.409367 331 
L 475.553493 331 
L 479.69762 331 
L 483.841747 331 
L 487.985873 331 
L 492.13 331 
L 496.274127 331 
L 500.418253 331 
L 504.56238 331 
L 508.706507 331 
L 512.850633 331 
L 516.99476 331 
L 521.138887 331 
L 525.283013 331 
L 529.42714 331 
L 533.571267 331 
L 537.715393 331 
L 541.85952 331 
L 546.003647 331 
L 550.147773 331 
L 554.2919 331 
L 558.436027 331 
L 562.580153 331 
L 566.72428 331 
L 570.868407 331 
L 575.012533 331 
L 579.15666 331 
L 583.300787 331 
L 587.444913 331 
L 591.58904 331 
L 595.733166 331 
L 599.877293 331 
L 604.02142 331 
L 608.165546 331 
L 612.309673 331 
L 616.4538 331 
L 620.597926 331 
L 624.742053 331 
L 628.88618 331 
L 633.030306 331 
L 637.174433 331 
L 641.31856 331 
L 645.462686 331 
L 649.606813 331 
L 653.75094 331 
L 657.895066 331 
L 662.039193 331 
L 666.18332 331 
L 670.327446 331 
L 674.471573 331 
L 678.6157 331 
L 682.759826 331 
L 686.903953 331 
L 691.04808 331 
L 695.192206 331 
L 699.336333 331 
L 703.48046 331 
L 707.624586 331 
L 711.768713 331 
L 715.91284 331 
L 720.056966 331 
L 724.201093 331 
L 728.34522 331 
L 732.489346 331 
L 736.633473 331 
L 740.7776 331 
L 744.921726 331 
L 749.065853 331 
L 753.20998 331 
L 757.354106 331 
L 761.498233 331 
L 765.64236 331 
L 769.786486 331 
L 773.930613 331 
L 778.07474 331 
L 782.218866 331 
L 786.362993 331 
L 790.50712 331 
L 794.651246 331 
L 798.795373 331 
L 802.939499 331 
L 807.083626 331 
L 811.227753 331 
L 815.371879 331 
L 819.516006 331 
L 823.660133 331 
L 827.804259 331 
L 831.948386 331 
L 836.092513 331 
L 840.236639 331 
L 844.380766 331 
L 848.524893 331 
L 852.669019 331 
L 856.813146 331 
L 860.957273 331 
L 860.957273 47.652682 
L 860.957273 47.652682 
L 856.813146 45.704969 
L 852.669019 50.645229 
L 848.524893 63.843976 
L 844.380766 55.807467 
L 840.236639 63.356039 
L 836.092513 54.51489 
L 831.948386 43.553755 
L 827.804259 44.428918 
L 823.660133 42.132363 
L 819.516006 47.756645 
L 815.371879 51.087755 
L 811.227753 52.596714 
L 807.083626 45.614018 
L 802.939499 46.156994 
L 798.795373 49.367616 
L 794.651246 50.267891 
L 790.50712 46.702702 
L 786.362993 45.175135 
L 782.218866 44.604315 
L 778.07474 41.991968 
L 773.930613 42.394808 
L 769.786486 38.917057 
L 765.64236 40.861907 
L 761.498233 38.413116 
L 757.354106 44.937543 
L 753.20998 41.000481 
L 749.065853 46.065652 
L 744.921726 45.640562 
L 740.7776 53.273059 
L 736.633473 45.205973 
L 732.489346 41.921835 
L 728.34522 48.847801 
L 724.201093 46.662366 
L 720.056966 44.146956 
L 715.91284 62.751388 
L 711.768713 43.975983 
L 707.624586 41.518344 
L 703.48046 45.532435 
L 699.336333 45.687664 
L 695.192206 41.354788 
L 691.04808 41.011931 
L 686.903953 39.949271 
L 682.759826 40.520612 
L 678.6157 41.533047 
L 674.471573 39.477989 
L 670.327446 41.009069 
L 666.18332 42.596749 
L 662.039193 39.960981 
L 657.895066 39.965145 
L 653.75094 38.943731 
L 649.606813 42.970573 
L 645.462686 42.084871 
L 641.31856 40.88793 
L 637.174433 38.925645 
L 633.030306 39.85962 
L 628.88618 40.494588 
L 624.742053 40.42901 
L 620.597926 42.017991 
L 616.4538 39.910106 
L 612.309673 42.126899 
L 608.165546 39.388989 
L 604.02142 41.539944 
L 599.877293 42.043494 
L 595.733166 39.967487 
L 591.58904 39.950051 
L 587.444913 42.395979 
L 583.300787 43.085596 
L 579.15666 42.390514 
L 575.012533 38.385402 
L 570.868407 40.840958 
L 566.72428 42.577882 
L 562.580153 39.853245 
L 558.436027 39.421649 
L 554.2919 42.565521 
L 550.147773 43.68192 
L 546.003647 39.440906 
L 541.85952 38.927987 
L 537.715393 43.653424 
L 533.571267 48.672924 
L 529.42714 42.511262 
L 525.283013 44.07305 
L 521.138887 41.551134 
L 516.99476 43.641193 
L 512.850633 44.579332 
L 508.706507 40.94401 
L 504.56238 39.908024 
L 500.418253 39.950312 
L 496.274127 45.63874 
L 492.13 38.922522 
L 487.985873 38.927467 
L 483.841747 43.612568 
L 479.69762 42.512043 
L 475.553493 43.11175 
L 471.409367 40.526467 
L 467.26524 39.450534 
L 463.121113 42.920739 
L 458.976987 41.522248 
L 454.83286 51.192758 
L 450.688733 41.935758 
L 446.544607 46.971522 
L 442.40048 43.077789 
L 438.256353 49.163203 
L 434.112227 53.007362 
L 429.9681 47.279378 
L 425.823973 48.637793 
L 421.679847 45.676994 
L 417.53572 48.284267 
L 413.391593 44.173499 
L 409.247467 49.356166 
L 405.10334 47.77343 
L 400.959213 48.551135 
L 396.815087 47.800754 
L 392.67096 42.405868 
L 388.526834 38.920701 
L 384.382707 42.96654 
L 380.23858 41.000611 
L 376.094454 41.408656 
L 371.950327 43.115133 
L 367.8062 42.506838 
L 363.662074 39.419176 
L 359.517947 39.913489 
L 355.37382 43.068551 
L 351.229694 41.456279 
L 347.085567 39.399529 
L 342.94144 43.594742 
L 338.797314 42.920348 
L 334.653187 40.48522 
L 330.50906 42.867131 
L 326.364934 40.37319 
L 322.220807 42.402355 
L 318.07668 39.911797 
L 313.932554 40.947003 
L 309.788427 39.934177 
L 305.6443 40.9431 
L 301.500174 40.556003 
L 297.356047 45.579147 
L 293.21192 51.466003 
L 289.067794 55.998347 
L 284.923667 63.695513 
L 280.77954 40.489774 
L 276.635414 47.522175 
L 272.491287 42.008493 
L 268.34716 41.376647 
L 264.203034 44.142271 
L 260.058907 41.89412 
L 255.91478 39.991689 
L 251.770654 40.435125 
L 247.626527 41.456149 
L 243.4824 40.022136 
L 239.338274 44.651417 
L 235.194147 39.97061 
L 231.05002 38.968974 
L 226.905894 42.009664 
L 222.761767 40.990852 
L 218.61764 42.057937 
L 214.473514 42.644762 
L 210.329387 39.451966 
L 206.18526 44.493586 
L 202.041134 39.451966 
L 197.897007 40.895087 
L 193.75288 40.433043 
L 189.608754 42.990351 
L 185.464627 43.128535 
L 181.320501 41.48035 
L 177.176374 44.712051 
L 173.032247 42.528568 
L 168.888121 47.298115 
L 164.743994 39.440255 
L 160.599867 41.071004 
L 156.455741 40.42888 
L 152.311614 56.422657 
L 148.167487 38.408953 
L 144.023361 46.054982 
L 139.879234 41.541635 
L 135.735107 41.898805 
L 131.590981 39.475517 
L 127.446854 42.681715 
L 123.302727 58.30871 
z
" clip-path="url(#p4282ea3fc1)" style="fill: #1f77b4"/>
   </g>
   <g id="matplotlib.axis_1">
    <g id="xtick_1">
     <g id="line2d_1">
      <path d="M 123.302727 331 
L 123.302727 23.76 
" clip-path="url(#p4282ea3fc1)" style="fill: none; stroke-dasharray: 5.12,1.28,0.8,1.28; stroke-dashoffset: 0; stroke: #b0b0b0; stroke-width: 0.8"/>
     </g>
     <g id="line2d_2">
      <defs>
       <path id="md147999667" d="M 0 0 
L 0 3.5 
" style="stroke: #000000; stroke-width: 0.8"/>
      </defs>
      <g>
       <use xlink:href="#md147999667" x="123.302727" y="331" style="stroke: #000000; stroke-width: 0.8"/>
      </g>
     </g>
     <g id="text_1">
      <!-- 0 -->
      <g transform="translate(116.303977 354.716563) scale(0.22 -0.22)">
       <defs>
        <path id="DejaVuSans-30" d="M 2034 4250 
Q 1547 4250 1301 3770 
Q 1056 3291 1056 2328 
Q 1056 1369 1301 889 
Q 1547 409 2034 409 
Q 2525 409 2770 889 
Q 3016 1369 3016 2328 
Q 3016 3291 2770 3770 
Q 2525 4250 2034 4250 
z
M 2034 4750 
Q 2819 4750 3233 4129 
Q 3647 3509 3647 2328 
Q 3647 1150 3233 529 
Q 2819 -91 2034 -91 
Q 1250 -91 836 529 
Q 422 1150 422 2328 
Q 422 3509 836 4129 
Q 1250 4750 2034 4750 
z
" transform="scale(0.015625)"/>
       </defs>
       <use xlink:href="#DejaVuSans-30"/>
      </g>
     </g>
    </g>
    <g id="xtick_2">
     <g id="line2d_3">
      <path d="M 226.905894 331 
L 226.905894 23.76 
" clip-path="url(#p4282ea3fc1)" style="fill: none; stroke-dasharray: 5.12,1.28,0.8,1.28; stroke-dashoffset: 0; stroke: #b0b0b0; stroke-width: 0.8"/>
     </g>
     <g id="line2d_4">
      <g>
       <use xlink:href="#md147999667" x="226.905894" y="331" style="stroke: #000000; stroke-width: 0.8"/>
      </g>
     </g>
     <g id="text_2">
      <!-- 25 -->
      <g transform="translate(212.908394 354.716563) scale(0.22 -0.22)">
       <defs>
        <path id="DejaVuSans-32" d="M 1228 531 
L 3431 531 
L 3431 0 
L 469 0 
L 469 531 
Q 828 903 1448 1529 
Q 2069 2156 2228 2338 
Q 2531 2678 2651 2914 
Q 2772 3150 2772 3378 
Q 2772 3750 2511 3984 
Q 2250 4219 1831 4219 
Q 1534 4219 1204 4116 
Q 875 4013 500 3803 
L 500 4441 
Q 881 4594 1212 4672 
Q 1544 4750 1819 4750 
Q 2544 4750 2975 4387 
Q 3406 4025 3406 3419 
Q 3406 3131 3298 2873 
Q 3191 2616 2906 2266 
Q 2828 2175 2409 1742 
Q 1991 1309 1228 531 
z
" transform="scale(0.015625)"/>
        <path id="DejaVuSans-35" d="M 691 4666 
L 3169 4666 
L 3169 4134 
L 1269 4134 
L 1269 2991 
Q 1406 3038 1543 3061 
Q 1681 3084 1819 3084 
Q 2600 3084 3056 2656 
Q 3513 2228 3513 1497 
Q 3513 744 3044 326 
Q 2575 -91 1722 -91 
Q 1428 -91 1123 -41 
Q 819 9 494 109 
L 494 744 
Q 775 591 1075 516 
Q 1375 441 1709 441 
Q 2250 441 2565 725 
Q 2881 1009 2881 1497 
Q 2881 1984 2565 2268 
Q 2250 2553 1709 2553 
Q 1456 2553 1204 2497 
Q 953 2441 691 2322 
L 691 4666 
z
" transform="scale(0.015625)"/>
       </defs>
       <use xlink:href="#DejaVuSans-32"/>
       <use xlink:href="#DejaVuSans-35" x="63.623047"/>
      </g>
     </g>
    </g>
    <g id="xtick_3">
     <g id="line2d_5">
      <path d="M 330.50906 331 
L 330.50906 23.76 
" clip-path="url(#p4282ea3fc1)" style="fill: none; stroke-dasharray: 5.12,1.28,0.8,1.28; stroke-dashoffset: 0; stroke: #b0b0b0; stroke-width: 0.8"/>
     </g>
     <g id="line2d_6">
      <g>
       <use xlink:href="#md147999667" x="330.50906" y="331" style="stroke: #000000; stroke-width: 0.8"/>
      </g>
     </g>
     <g id="text_3">
      <!-- 50 -->
      <g transform="translate(316.51156 354.716563) scale(0.22 -0.22)">
       <use xlink:href="#DejaVuSans-35"/>
       <use xlink:href="#DejaVuSans-30" x="63.623047"/>
      </g>
     </g>
    </g>
    <g id="xtick_4">
     <g id="line2d_7">
      <path d="M 434.112227 331 
L 434.112227 23.76 
" clip-path="url(#p4282ea3fc1)" style="fill: none; stroke-dasharray: 5.12,1.28,0.8,1.28; stroke-dashoffset: 0; stroke: #b0b0b0; stroke-width: 0.8"/>
     </g>
     <g id="line2d_8">
      <g>
       <use xlink:href="#md147999667" x="434.112227" y="331" style="stroke: #000000; stroke-width: 0.8"/>
      </g>
     </g>
     <g id="text_4">
      <!-- 75 -->
      <g transform="translate(420.114727 354.716563) scale(0.22 -0.22)">
       <defs>
        <path id="DejaVuSans-37" d="M 525 4666 
L 3525 4666 
L 3525 4397 
L 1831 0 
L 1172 0 
L 2766 4134 
L 525 4134 
L 525 4666 
z
" transform="scale(0.015625)"/>
       </defs>
       <use xlink:href="#DejaVuSans-37"/>
       <use xlink:href="#DejaVuSans-35" x="63.623047"/>
      </g>
     </g>
    </g>
    <g id="xtick_5">
     <g id="line2d_9">
      <path d="M 537.715393 331 
L 537.715393 23.76 
" clip-path="url(#p4282ea3fc1)" style="fill: none; stroke-dasharray: 5.12,1.28,0.8,1.28; stroke-dashoffset: 0; stroke: #b0b0b0; stroke-width: 0.8"/>
     </g>
     <g id="line2d_10">
      <g>
       <use xlink:href="#md147999667" x="537.715393" y="331" style="stroke: #000000; stroke-width: 0.8"/>
      </g>
     </g>
     <g id="text_5">
      <!-- 100 -->
      <g transform="translate(516.719143 354.716563) scale(0.22 -0.22)">
       <defs>
        <path id="DejaVuSans-31" d="M 794 531 
L 1825 531 
L 1825 4091 
L 703 3866 
L 703 4441 
L 1819 4666 
L 2450 4666 
L 2450 531 
L 3481 531 
L 3481 0 
L 794 0 
L 794 531 
z
" transform="scale(0.015625)"/>
       </defs>
       <use xlink:href="#DejaVuSans-31"/>
       <use xlink:href="#DejaVuSans-30" x="63.623047"/>
       <use xlink:href="#DejaVuSans-30" x="127.246094"/>
      </g>
     </g>
    </g>
    <g id="xtick_6">
     <g id="line2d_11">
      <path d="M 641.31856 331 
L 641.31856 23.76 
" clip-path="url(#p4282ea3fc1)" style="fill: none; stroke-dasharray: 5.12,1.28,0.8,1.28; stroke-dashoffset: 0; stroke: #b0b0b0; stroke-width: 0.8"/>
     </g>
     <g id="line2d_12">
      <g>
       <use xlink:href="#md147999667" x="641.31856" y="331" style="stroke: #000000; stroke-width: 0.8"/>
      </g>
     </g>
     <g id="text_6">
      <!-- 125 -->
      <g transform="translate(620.32231 354.716563) scale(0.22 -0.22)">
       <use xlink:href="#DejaVuSans-31"/>
       <use xlink:href="#DejaVuSans-32" x="63.623047"/>
       <use xlink:href="#DejaVuSans-35" x="127.246094"/>
      </g>
     </g>
    </g>
    <g id="xtick_7">
     <g id="line2d_13">
      <path d="M 744.921726 331 
L 744.921726 23.76 
" clip-path="url(#p4282ea3fc1)" style="fill: none; stroke-dasharray: 5.12,1.28,0.8,1.28; stroke-dashoffset: 0; stroke: #b0b0b0; stroke-width: 0.8"/>
     </g>
     <g id="line2d_14">
      <g>
       <use xlink:href="#md147999667" x="744.921726" y="331" style="stroke: #000000; stroke-width: 0.8"/>
      </g>
     </g>
     <g id="text_7">
      <!-- 150 -->
      <g transform="translate(723.925476 354.716563) scale(0.22 -0.22)">
       <use xlink:href="#DejaVuSans-31"/>
       <use xlink:href="#DejaVuSans-35" x="63.623047"/>
       <use xlink:href="#DejaVuSans-30" x="127.246094"/>
      </g>
     </g>
    </g>
    <g id="xtick_8">
     <g id="line2d_15">
      <path d="M 848.524893 331 
L 848.524893 23.76 
" clip-path="url(#p4282ea3fc1)" style="fill: none; stroke-dasharray: 5.12,1.28,0.8,1.28; stroke-dashoffset: 0; stroke: #b0b0b0; stroke-width: 0.8"/>
     </g>
     <g id="line2d_16">
      <g>
       <use xlink:href="#md147999667" x="848.524893" y="331" style="stroke: #000000; stroke-width: 0.8"/>
      </g>
     </g>
     <g id="text_8">
      <!-- 175 -->
      <g transform="translate(827.528643 354.716563) scale(0.22 -0.22)">
       <use xlink:href="#DejaVuSans-31"/>
       <use xlink:href="#DejaVuSans-37" x="63.623047"/>
       <use xlink:href="#DejaVuSans-35" x="127.246094"/>
      </g>
     </g>
    </g>
    <g id="text_9">
     <!-- Time (s) -->
     <g transform="translate(443.340625 381.528125) scale(0.24 -0.24)">
      <defs>
       <path id="DejaVuSans-54" d="M -19 4666 
L 3928 4666 
L 3928 4134 
L 2272 4134 
L 2272 0 
L 1638 0 
L 1638 4134 
L -19 4134 
L -19 4666 
z
" transform="scale(0.015625)"/>
       <path id="DejaVuSans-69" d="M 603 3500 
L 1178 3500 
L 1178 0 
L 603 0 
L 603 3500 
z
M 603 4863 
L 1178 4863 
L 1178 4134 
L 603 4134 
L 603 4863 
z
" transform="scale(0.015625)"/>
       <path id="DejaVuSans-6d" d="M 3328 2828 
Q 3544 3216 3844 3400 
Q 4144 3584 4550 3584 
Q 5097 3584 5394 3201 
Q 5691 2819 5691 2113 
L 5691 0 
L 5113 0 
L 5113 2094 
Q 5113 2597 4934 2840 
Q 4756 3084 4391 3084 
Q 3944 3084 3684 2787 
Q 3425 2491 3425 1978 
L 3425 0 
L 2847 0 
L 2847 2094 
Q 2847 2600 2669 2842 
Q 2491 3084 2119 3084 
Q 1678 3084 1418 2786 
Q 1159 2488 1159 1978 
L 1159 0 
L 581 0 
L 581 3500 
L 1159 3500 
L 1159 2956 
Q 1356 3278 1631 3431 
Q 1906 3584 2284 3584 
Q 2666 3584 2933 3390 
Q 3200 3197 3328 2828 
z
" transform="scale(0.015625)"/>
       <path id="DejaVuSans-65" d="M 3597 1894 
L 3597 1613 
L 953 1613 
Q 991 1019 1311 708 
Q 1631 397 2203 397 
Q 2534 397 2845 478 
Q 3156 559 3463 722 
L 3463 178 
Q 3153 47 2828 -22 
Q 2503 -91 2169 -91 
Q 1331 -91 842 396 
Q 353 884 353 1716 
Q 353 2575 817 3079 
Q 1281 3584 2069 3584 
Q 2775 3584 3186 3129 
Q 3597 2675 3597 1894 
z
M 3022 2063 
Q 3016 2534 2758 2815 
Q 2500 3097 2075 3097 
Q 1594 3097 1305 2825 
Q 1016 2553 972 2059 
L 3022 2063 
z
" transform="scale(0.015625)"/>
       <path id="DejaVuSans-20" transform="scale(0.015625)"/>
       <path id="DejaVuSans-28" d="M 1984 4856 
Q 1566 4138 1362 3434 
Q 1159 2731 1159 2009 
Q 1159 1288 1364 580 
Q 1569 -128 1984 -844 
L 1484 -844 
Q 1016 -109 783 600 
Q 550 1309 550 2009 
Q 550 2706 781 3412 
Q 1013 4119 1484 4856 
L 1984 4856 
z
" transform="scale(0.015625)"/>
       <path id="DejaVuSans-73" d="M 2834 3397 
L 2834 2853 
Q 2591 2978 2328 3040 
Q 2066 3103 1784 3103 
Q 1356 3103 1142 2972 
Q 928 2841 928 2578 
Q 928 2378 1081 2264 
Q 1234 2150 1697 2047 
L 1894 2003 
Q 2506 1872 2764 1633 
Q 3022 1394 3022 966 
Q 3022 478 2636 193 
Q 2250 -91 1575 -91 
Q 1294 -91 989 -36 
Q 684 19 347 128 
L 347 722 
Q 666 556 975 473 
Q 1284 391 1588 391 
Q 1994 391 2212 530 
Q 2431 669 2431 922 
Q 2431 1156 2273 1281 
Q 2116 1406 1581 1522 
L 1381 1569 
Q 847 1681 609 1914 
Q 372 2147 372 2553 
Q 372 3047 722 3315 
Q 1072 3584 1716 3584 
Q 2034 3584 2315 3537 
Q 2597 3491 2834 3397 
z
" transform="scale(0.015625)"/>
       <path id="DejaVuSans-29" d="M 513 4856 
L 1013 4856 
Q 1481 4119 1714 3412 
Q 1947 2706 1947 2009 
Q 1947 1309 1714 600 
Q 1481 -109 1013 -844 
L 513 -844 
Q 928 -128 1133 580 
Q 1338 1288 1338 2009 
Q 1338 2731 1133 3434 
Q 928 4138 513 4856 
z
" transform="scale(0.015625)"/>
      </defs>
      <use xlink:href="#DejaVuSans-54"/>
      <use xlink:href="#DejaVuSans-69" x="57.958984"/>
      <use xlink:href="#DejaVuSans-6d" x="85.742188"/>
      <use xlink:href="#DejaVuSans-65" x="183.154297"/>
      <use xlink:href="#DejaVuSans-20" x="244.677734"/>
      <use xlink:href="#DejaVuSans-28" x="276.464844"/>
      <use xlink:href="#DejaVuSans-73" x="315.478516"/>
      <use xlink:href="#DejaVuSans-29" x="367.578125"/>
     </g>
    </g>
   </g>
   <g id="matplotlib.axis_2">
    <g id="ytick_1">
     <g id="line2d_17">
      <path d="M 86.42 331 
L 897.84 331 
" clip-path="url(#p4282ea3fc1)" style="fill: none; stroke-dasharray: 5.12,1.28,0.8,1.28; stroke-dashoffset: 0; stroke: #b0b0b0; stroke-width: 0.8"/>
     </g>
     <g id="line2d_18">
      <defs>
       <path id="m6f6b318867" d="M 0 0 
L -3.5 0 
" style="stroke: #000000; stroke-width: 0.8"/>
      </defs>
      <g>
       <use xlink:href="#m6f6b318867" x="86.42" y="331" style="stroke: #000000; stroke-width: 0.8"/>
      </g>
     </g>
     <g id="text_10">
      <!-- 0 -->
      <g transform="translate(65.4225 339.358281) scale(0.22 -0.22)">
       <use xlink:href="#DejaVuSans-30"/>
      </g>
     </g>
    </g>
    <g id="ytick_2">
     <g id="line2d_19">
      <path d="M 86.42 249.677253 
L 897.84 249.677253 
" clip-path="url(#p4282ea3fc1)" style="fill: none; stroke-dasharray: 5.12,1.28,0.8,1.28; stroke-dashoffset: 0; stroke: #b0b0b0; stroke-width: 0.8"/>
     </g>
     <g id="line2d_20">
      <g>
       <use xlink:href="#m6f6b318867" x="86.42" y="249.677253" style="stroke: #000000; stroke-width: 0.8"/>
      </g>
     </g>
     <g id="text_11">
      <!-- 5 -->
      <g transform="translate(65.4225 258.035534) scale(0.22 -0.22)">
       <use xlink:href="#DejaVuSans-35"/>
      </g>
     </g>
    </g>
    <g id="ytick_3">
     <g id="line2d_21">
      <path d="M 86.42 168.354505 
L 897.84 168.354505 
" clip-path="url(#p4282ea3fc1)" style="fill: none; stroke-dasharray: 5.12,1.28,0.8,1.28; stroke-dashoffset: 0; stroke: #b0b0b0; stroke-width: 0.8"/>
     </g>
     <g id="line2d_22">
      <g>
       <use xlink:href="#m6f6b318867" x="86.42" y="168.354505" style="stroke: #000000; stroke-width: 0.8"/>
      </g>
     </g>
     <g id="text_12">
      <!-- 10 -->
      <g transform="translate(51.425 176.712787) scale(0.22 -0.22)">
       <use xlink:href="#DejaVuSans-31"/>
       <use xlink:href="#DejaVuSans-30" x="63.623047"/>
      </g>
     </g>
    </g>
    <g id="ytick_4">
     <g id="line2d_23">
      <path d="M 86.42 87.031758 
L 897.84 87.031758 
" clip-path="url(#p4282ea3fc1)" style="fill: none; stroke-dasharray: 5.12,1.28,0.8,1.28; stroke-dashoffset: 0; stroke: #b0b0b0; stroke-width: 0.8"/>
     </g>
     <g id="line2d_24">
      <g>
       <use xlink:href="#m6f6b318867" x="86.42" y="87.031758" style="stroke: #000000; stroke-width: 0.8"/>
      </g>
     </g>
     <g id="text_13">
      <!-- 15 -->
      <g transform="translate(51.425 95.390039) scale(0.22 -0.22)">
       <use xlink:href="#DejaVuSans-31"/>
       <use xlink:href="#DejaVuSans-35" x="63.623047"/>
      </g>
     </g>
    </g>
    <g id="text_14">
     <!-- Throughput (Mbps) -->
     <g transform="translate(42.43375 292.094375) rotate(-90) scale(0.24 -0.24)">
      <defs>
       <path id="DejaVuSans-68" d="M 3513 2113 
L 3513 0 
L 2938 0 
L 2938 2094 
Q 2938 2591 2744 2837 
Q 2550 3084 2163 3084 
Q 1697 3084 1428 2787 
Q 1159 2491 1159 1978 
L 1159 0 
L 581 0 
L 581 4863 
L 1159 4863 
L 1159 2956 
Q 1366 3272 1645 3428 
Q 1925 3584 2291 3584 
Q 2894 3584 3203 3211 
Q 3513 2838 3513 2113 
z
" transform="scale(0.015625)"/>
       <path id="DejaVuSans-72" d="M 2631 2963 
Q 2534 3019 2420 3045 
Q 2306 3072 2169 3072 
Q 1681 3072 1420 2755 
Q 1159 2438 1159 1844 
L 1159 0 
L 581 0 
L 581 3500 
L 1159 3500 
L 1159 2956 
Q 1341 3275 1631 3429 
Q 1922 3584 2338 3584 
Q 2397 3584 2469 3576 
Q 2541 3569 2628 3553 
L 2631 2963 
z
" transform="scale(0.015625)"/>
       <path id="DejaVuSans-6f" d="M 1959 3097 
Q 1497 3097 1228 2736 
Q 959 2375 959 1747 
Q 959 1119 1226 758 
Q 1494 397 1959 397 
Q 2419 397 2687 759 
Q 2956 1122 2956 1747 
Q 2956 2369 2687 2733 
Q 2419 3097 1959 3097 
z
M 1959 3584 
Q 2709 3584 3137 3096 
Q 3566 2609 3566 1747 
Q 3566 888 3137 398 
Q 2709 -91 1959 -91 
Q 1206 -91 779 398 
Q 353 888 353 1747 
Q 353 2609 779 3096 
Q 1206 3584 1959 3584 
z
" transform="scale(0.015625)"/>
       <path id="DejaVuSans-75" d="M 544 1381 
L 544 3500 
L 1119 3500 
L 1119 1403 
Q 1119 906 1312 657 
Q 1506 409 1894 409 
Q 2359 409 2629 706 
Q 2900 1003 2900 1516 
L 2900 3500 
L 3475 3500 
L 3475 0 
L 2900 0 
L 2900 538 
Q 2691 219 2414 64 
Q 2138 -91 1772 -91 
Q 1169 -91 856 284 
Q 544 659 544 1381 
z
M 1991 3584 
L 1991 3584 
z
" transform="scale(0.015625)"/>
       <path id="DejaVuSans-67" d="M 2906 1791 
Q 2906 2416 2648 2759 
Q 2391 3103 1925 3103 
Q 1463 3103 1205 2759 
Q 947 2416 947 1791 
Q 947 1169 1205 825 
Q 1463 481 1925 481 
Q 2391 481 2648 825 
Q 2906 1169 2906 1791 
z
M 3481 434 
Q 3481 -459 3084 -895 
Q 2688 -1331 1869 -1331 
Q 1566 -1331 1297 -1286 
Q 1028 -1241 775 -1147 
L 775 -588 
Q 1028 -725 1275 -790 
Q 1522 -856 1778 -856 
Q 2344 -856 2625 -561 
Q 2906 -266 2906 331 
L 2906 616 
Q 2728 306 2450 153 
Q 2172 0 1784 0 
Q 1141 0 747 490 
Q 353 981 353 1791 
Q 353 2603 747 3093 
Q 1141 3584 1784 3584 
Q 2172 3584 2450 3431 
Q 2728 3278 2906 2969 
L 2906 3500 
L 3481 3500 
L 3481 434 
z
" transform="scale(0.015625)"/>
       <path id="DejaVuSans-70" d="M 1159 525 
L 1159 -1331 
L 581 -1331 
L 581 3500 
L 1159 3500 
L 1159 2969 
Q 1341 3281 1617 3432 
Q 1894 3584 2278 3584 
Q 2916 3584 3314 3078 
Q 3713 2572 3713 1747 
Q 3713 922 3314 415 
Q 2916 -91 2278 -91 
Q 1894 -91 1617 61 
Q 1341 213 1159 525 
z
M 3116 1747 
Q 3116 2381 2855 2742 
Q 2594 3103 2138 3103 
Q 1681 3103 1420 2742 
Q 1159 2381 1159 1747 
Q 1159 1113 1420 752 
Q 1681 391 2138 391 
Q 2594 391 2855 752 
Q 3116 1113 3116 1747 
z
" transform="scale(0.015625)"/>
       <path id="DejaVuSans-74" d="M 1172 4494 
L 1172 3500 
L 2356 3500 
L 2356 3053 
L 1172 3053 
L 1172 1153 
Q 1172 725 1289 603 
Q 1406 481 1766 481 
L 2356 481 
L 2356 0 
L 1766 0 
Q 1100 0 847 248 
Q 594 497 594 1153 
L 594 3053 
L 172 3053 
L 172 3500 
L 594 3500 
L 594 4494 
L 1172 4494 
z
" transform="scale(0.015625)"/>
       <path id="DejaVuSans-4d" d="M 628 4666 
L 1569 4666 
L 2759 1491 
L 3956 4666 
L 4897 4666 
L 4897 0 
L 4281 0 
L 4281 4097 
L 3078 897 
L 2444 897 
L 1241 4097 
L 1241 0 
L 628 0 
L 628 4666 
z
" transform="scale(0.015625)"/>
       <path id="DejaVuSans-62" d="M 3116 1747 
Q 3116 2381 2855 2742 
Q 2594 3103 2138 3103 
Q 1681 3103 1420 2742 
Q 1159 2381 1159 1747 
Q 1159 1113 1420 752 
Q 1681 391 2138 391 
Q 2594 391 2855 752 
Q 3116 1113 3116 1747 
z
M 1159 2969 
Q 1341 3281 1617 3432 
Q 1894 3584 2278 3584 
Q 2916 3584 3314 3078 
Q 3713 2572 3713 1747 
Q 3713 922 3314 415 
Q 2916 -91 2278 -91 
Q 1894 -91 1617 61 
Q 1341 213 1159 525 
L 1159 0 
L 581 0 
L 581 4863 
L 1159 4863 
L 1159 2969 
z
" transform="scale(0.015625)"/>
      </defs>
      <use xlink:href="#DejaVuSans-54"/>
      <use xlink:href="#DejaVuSans-68" x="61.083984"/>
      <use xlink:href="#DejaVuSans-72" x="124.462891"/>
      <use xlink:href="#DejaVuSans-6f" x="163.326172"/>
      <use xlink:href="#DejaVuSans-75" x="224.507812"/>
      <use xlink:href="#DejaVuSans-67" x="287.886719"/>
      <use xlink:href="#DejaVuSans-68" x="351.363281"/>
      <use xlink:href="#DejaVuSans-70" x="414.742188"/>
      <use xlink:href="#DejaVuSans-75" x="478.21875"/>
      <use xlink:href="#DejaVuSans-74" x="541.597656"/>
      <use xlink:href="#DejaVuSans-20" x="580.806641"/>
      <use xlink:href="#DejaVuSans-28" x="612.59375"/>
      <use xlink:href="#DejaVuSans-4d" x="651.607422"/>
      <use xlink:href="#DejaVuSans-62" x="737.886719"/>
      <use xlink:href="#DejaVuSans-70" x="801.363281"/>
      <use xlink:href="#DejaVuSans-73" x="864.839844"/>
      <use xlink:href="#DejaVuSans-29" x="916.939453"/>
     </g>
    </g>
   </g>
   <g id="patch_3">
    <path d="M 86.42 331 
L 86.42 23.76 
" style="fill: none; stroke: #000000; stroke-width: 0.8; stroke-linejoin: miter; stroke-linecap: square"/>
   </g>
   <g id="patch_4">
    <path d="M 897.84 331 
L 897.84 23.76 
" style="fill: none; stroke: #000000; stroke-width: 0.8; stroke-linejoin: miter; stroke-linecap: square"/>
   </g>
   <g id="patch_5">
    <path d="M 86.42 331 
L 897.84 331 
" style="fill: none; stroke: #000000; stroke-width: 0.8; stroke-linejoin: miter; stroke-linecap: square"/>
   </g>
   <g id="patch_6">
    <path d="M 86.42 23.76 
L 897.84 23.76 
" style="fill: none; stroke: #000000; stroke-width: 0.8; stroke-linejoin: miter; stroke-linecap: square"/>
   </g>
   <g id="legend_1">
    <g id="patch_7">
     <path d="M 756.24 78.1875 
L 881.04 78.1875 
Q 885.84 78.1875 885.84 73.3875 
L 885.84 40.56 
Q 885.84 35.76 881.04 35.76 
L 756.24 35.76 
Q 751.44 35.76 751.44 40.56 
L 751.44 73.3875 
Q 751.44 78.1875 756.24 78.1875 
z
" style="fill: #ffffff; opacity: 0.8; stroke: #cccccc; stroke-linejoin: miter"/>
    </g>
    <g id="patch_8">
     <path d="M 761.04 63.59625 
L 809.04 63.59625 
L 809.04 46.79625 
L 761.04 46.79625 
z
" style="fill: #1f77b4"/>
    </g>
    <g id="text_15">
     <!-- UE1 -->
     <g transform="translate(828.24 63.59625) scale(0.24 -0.24)">
      <defs>
       <path id="DejaVuSans-55" d="M 556 4666 
L 1191 4666 
L 1191 1831 
Q 1191 1081 1462 751 
Q 1734 422 2344 422 
Q 2950 422 3222 751 
Q 3494 1081 3494 1831 
L 3494 4666 
L 4128 4666 
L 4128 1753 
Q 4128 841 3676 375 
Q 3225 -91 2344 -91 
Q 1459 -91 1007 375 
Q 556 841 556 1753 
L 556 4666 
z
" transform="scale(0.015625)"/>
       <path id="DejaVuSans-45" d="M 628 4666 
L 3578 4666 
L 3578 4134 
L 1259 4134 
L 1259 2753 
L 3481 2753 
L 3481 2222 
L 1259 2222 
L 1259 531 
L 3634 531 
L 3634 0 
L 628 0 
L 628 4666 
z
" transform="scale(0.015625)"/>
      </defs>
      <use xlink:href="#DejaVuSans-55"/>
      <use xlink:href="#DejaVuSans-45" x="73.193359"/>
      <use xlink:href="#DejaVuSans-31" x="136.376953"/>
     </g>
    </g>
   </g>
  </g>
 </g>
 <defs>
  <clipPath id="p4282ea3fc1">
   <rect x="86.42" y="23.76" width="811.42" height="307.24"/>
  </clipPath>
 </defs>
</svg>
