<?xml version="1.0" encoding="utf-8" standalone="no"?>
<!DOCTYPE svg PUBLIC "-//W3C//DTD SVG 1.1//EN"
  "http://www.w3.org/Graphics/SVG/1.1/DTD/svg11.dtd">
<svg xmlns:xlink="http://www.w3.org/1999/xlink" width="921.6pt" height="410.4pt" viewBox="0 0 921.6 410.4" xmlns="http://www.w3.org/2000/svg" version="1.1">
 <metadata>
  <rdf:RDF xmlns:dc="http://purl.org/dc/elements/1.1/" xmlns:cc="http://creativecommons.org/ns#" xmlns:rdf="http://www.w3.org/1999/02/22-rdf-syntax-ns#">
   <cc:Work>
    <dc:type rdf:resource="http://purl.org/dc/dcmitype/StillImage"/>
    <dc:date>2023-04-11T17:41:03.065473</dc:date>
    <dc:format>image/svg+xml</dc:format>
    <dc:creator>
     <cc:Agent>
      <dc:title>Matplotlib v3.5.3, https://matplotlib.org/</dc:title>
     </cc:Agent>
    </dc:creator>
   </cc:Work>
  </rdf:RDF>
 </metadata>
 <defs>
  <style type="text/css">*{stroke-linejoin: round; stroke-linecap: butt}</style>
 </defs>
 <g id="figure_1">
  <g id="patch_1">
   <path d="M 0 410.4 
L 921.6 410.4 
L 921.6 0 
L 0 0 
L 0 410.4 
z
" style="fill: none"/>
  </g>
  <g id="axes_1">
   <g id="patch_2">
    <path d="M 108.01 331.64 
L 897.84 331.64 
L 897.84 23.76 
L 108.01 23.76 
z
" style="fill: #ffffff"/>
   </g>
   <g id="PolyCollection_1">
    <path d="M 143.911364 235.288572 
L 143.911364 331.64 
L 147.856568 331.64 
L 151.801773 331.64 
L 155.746978 331.64 
L 159.692183 331.64 
L 163.637388 331.64 
L 167.582592 331.64 
L 171.527797 331.64 
L 175.473002 331.64 
L 179.418207 331.64 
L 183.363412 331.64 
L 187.308616 331.64 
L 191.253821 331.64 
L 195.199026 331.64 
L 199.144231 331.64 
L 203.089436 331.64 
L 207.03464 331.64 
L 210.979845 331.64 
L 214.92505 331.64 
L 218.870255 331.64 
L 222.81546 331.64 
L 226.760664 331.64 
L 230.705869 331.64 
L 234.651074 331.64 
L 238.596279 331.64 
L 242.541484 331.64 
L 246.486688 331.64 
L 250.431893 331.64 
L 254.377098 331.64 
L 258.322303 331.64 
L 262.267507 331.64 
L 266.212712 331.64 
L 270.157917 331.64 
L 274.103122 331.64 
L 278.048327 331.64 
L 281.993531 331.64 
L 285.938736 331.64 
L 289.883941 331.64 
L 293.829146 331.64 
L 297.774351 331.64 
L 301.719555 331.64 
L 305.66476 331.64 
L 309.609965 331.64 
L 313.55517 331.64 
L 317.500375 331.64 
L 321.445579 331.64 
L 325.390784 331.64 
L 329.335989 331.64 
L 333.281194 331.64 
L 337.226399 331.64 
L 341.171603 331.64 
L 345.116808 331.64 
L 349.062013 331.64 
L 353.007218 331.64 
L 356.952423 331.64 
L 360.897627 331.64 
L 364.842832 331.64 
L 368.788037 331.64 
L 372.733242 331.64 
L 376.678447 331.64 
L 380.623651 331.64 
L 384.568856 331.64 
L 388.514061 331.64 
L 392.459266 331.64 
L 396.404471 331.64 
L 400.349675 331.64 
L 404.29488 331.64 
L 408.240085 331.64 
L 412.18529 331.64 
L 416.130495 331.64 
L 420.075699 331.64 
L 424.020904 331.64 
L 427.966109 331.64 
L 431.911314 331.64 
L 435.856518 331.64 
L 439.801723 331.64 
L 443.746928 331.64 
L 447.692133 331.64 
L 451.637338 331.64 
L 455.582542 331.64 
L 459.527747 331.64 
L 463.472952 331.64 
L 467.418157 331.64 
L 471.363362 331.64 
L 475.308566 331.64 
L 479.253771 331.64 
L 483.198976 331.64 
L 487.144181 331.64 
L 491.089386 331.64 
L 495.03459 331.64 
L 498.979795 331.64 
L 502.925 331.64 
L 506.870205 331.64 
L 510.81541 331.64 
L 514.760614 331.64 
L 518.705819 331.64 
L 522.651024 331.64 
L 526.596229 331.64 
L 530.541434 331.64 
L 534.486638 331.64 
L 538.431843 331.64 
L 542.377048 331.64 
L 546.322253 331.64 
L 550.267458 331.64 
L 554.212662 331.64 
L 558.157867 331.64 
L 562.103072 331.64 
L 566.048277 331.64 
L 569.993482 331.64 
L 573.938686 331.64 
L 577.883891 331.64 
L 581.829096 331.64 
L 585.774301 331.64 
L 589.719505 331.64 
L 593.66471 331.64 
L 597.609915 331.64 
L 601.55512 331.64 
L 605.500325 331.64 
L 609.445529 331.64 
L 613.390734 331.64 
L 617.335939 331.64 
L 621.281144 331.64 
L 625.226349 331.64 
L 629.171553 331.64 
L 633.116758 331.64 
L 637.061963 331.64 
L 641.007168 331.64 
L 644.952373 331.64 
L 648.897577 331.64 
L 652.842782 331.64 
L 656.787987 331.64 
L 660.733192 331.64 
L 664.678397 331.64 
L 668.623601 331.64 
L 672.568806 331.64 
L 676.514011 331.64 
L 680.459216 331.64 
L 684.404421 331.64 
L 688.349625 331.64 
L 692.29483 331.64 
L 696.240035 331.64 
L 700.18524 331.64 
L 704.130445 331.64 
L 708.075649 331.64 
L 712.020854 331.64 
L 715.966059 331.64 
L 719.911264 331.64 
L 723.856469 331.64 
L 727.801673 331.64 
L 731.746878 331.64 
L 735.692083 331.64 
L 739.637288 331.64 
L 743.582493 331.64 
L 747.527697 331.64 
L 751.472902 331.64 
L 755.418107 331.64 
L 759.363312 331.64 
L 763.308516 331.64 
L 767.253721 331.64 
L 771.198926 331.64 
L 775.144131 331.64 
L 779.089336 331.64 
L 783.03454 331.64 
L 786.979745 331.64 
L 790.92495 331.64 
L 794.870155 331.64 
L 798.81536 331.64 
L 802.760564 331.64 
L 806.705769 331.64 
L 810.650974 331.64 
L 814.596179 331.64 
L 818.541384 331.64 
L 822.486588 331.64 
L 826.431793 331.64 
L 830.376998 331.64 
L 834.322203 331.64 
L 838.267408 331.64 
L 842.212612 331.64 
L 846.157817 331.64 
L 850.103022 331.64 
L 854.048227 331.64 
L 857.993432 331.64 
L 861.938636 331.64 
L 861.938636 238.565956 
L 861.938636 238.565956 
L 857.993432 237.788325 
L 854.048227 237.150861 
L 850.103022 237.150861 
L 846.157817 236.931812 
L 842.212612 237.194999 
L 838.267408 236.797758 
L 834.322203 236.910638 
L 830.376998 237.659937 
L 826.431793 237.975911 
L 822.486588 235.680295 
L 818.541384 236.506687 
L 814.596179 235.848496 
L 810.650974 236.322531 
L 806.705769 237.374682 
L 802.760564 235.479737 
L 798.81536 235.485999 
L 794.870155 237.709145 
L 790.92495 238.689572 
L 786.979745 236.281077 
L 783.03454 237.161896 
L 779.089336 237.454905 
L 775.144131 235.185534 
L 771.198926 235.697444 
L 767.253721 235.990006 
L 763.308516 237.556601 
L 759.363312 237.320851 
L 755.418107 237.13088 
L 751.472902 237.325623 
L 747.527697 236.478654 
L 743.582493 236.562903 
L 739.637288 238.131139 
L 735.692083 236.043836 
L 731.746878 235.713399 
L 727.801673 235.912616 
L 723.856469 236.430788 
L 719.911264 236.587954 
L 715.966059 237.270898 
L 712.020854 235.506428 
L 708.075649 236.053678 
L 704.130445 235.252934 
L 700.18524 237.184263 
L 696.240035 235.937369 
L 692.29483 236.580051 
L 688.349625 236.991905 
L 684.404421 235.796306 
L 680.459216 237.416881 
L 676.514011 235.039998 
L 672.568806 235.408013 
L 668.623601 238.744297 
L 664.678397 235.29901 
L 660.733192 236.570806 
L 656.787987 235.037613 
L 652.842782 235.293642 
L 648.897577 235.501806 
L 644.952373 234.723578 
L 641.007168 236.222326 
L 637.061963 236.357871 
L 633.116758 236.07008 
L 629.171553 236.385755 
L 625.226349 234.881937 
L 621.281144 234.984826 
L 617.335939 235.174649 
L 613.390734 234.885814 
L 609.445529 236.669371 
L 605.500325 236.818038 
L 601.55512 238.14948 
L 597.609915 236.75377 
L 593.66471 236.098412 
L 589.719505 236.397535 
L 585.774301 237.30087 
L 581.829096 238.860457 
L 577.883891 235.478991 
L 573.938686 237.425231 
L 569.993482 236.386501 
L 566.048277 237.7084 
L 562.103072 237.170544 
L 558.157867 237.444765 
L 554.212662 235.937816 
L 550.267458 235.841041 
L 546.322253 237.698111 
L 542.377048 235.252934 
L 538.431843 237.074067 
L 534.486638 237.172035 
L 530.541434 237.442976 
L 526.596229 237.440292 
L 522.651024 238.94575 
L 518.705819 236.495205 
L 514.760614 238.975872 
L 510.81541 243.114689 
L 506.870205 239.182246 
L 502.925 236.924207 
L 498.979795 237.111197 
L 495.03459 236.764208 
L 491.089386 236.969538 
L 487.144181 236.62061 
L 483.198976 237.058858 
L 479.253771 238.687932 
L 475.308566 237.306686 
L 471.363362 236.554702 
L 467.418157 237.07705 
L 463.472952 242.042855 
L 459.527747 236.394851 
L 455.582542 237.479658 
L 451.637338 236.859193 
L 447.692133 236.22844 
L 443.746928 234.905497 
L 439.801723 236.187732 
L 435.856518 235.752765 
L 431.911314 236.623891 
L 427.966109 235.361042 
L 424.020904 236.579604 
L 420.075699 235.59023 
L 416.130495 237.189631 
L 412.18529 235.056699 
L 408.240085 237.050209 
L 404.29488 235.773194 
L 400.349675 237.06005 
L 396.404471 236.489837 
L 392.459266 235.855505 
L 388.514061 235.882942 
L 384.568856 238.020943 
L 380.623651 236.150751 
L 376.678447 235.772001 
L 372.733242 237.739266 
L 368.788037 235.483464 
L 364.842832 235.635561 
L 360.897627 235.877275 
L 356.952423 235.556978 
L 353.007218 241.482186 
L 349.062013 242.439052 
L 345.116808 240.277938 
L 341.171603 239.403979 
L 337.226399 236.366221 
L 333.281194 236.7487 
L 329.335989 236.683686 
L 325.390784 237.376471 
L 321.445579 236.348477 
L 317.500375 235.747844 
L 313.55517 236.761971 
L 309.609965 235.748292 
L 305.66476 236.610918 
L 301.719555 236.234404 
L 297.774351 234.895954 
L 293.829146 236.243649 
L 289.883941 235.674331 
L 285.938736 235.663595 
L 281.993531 235.147361 
L 278.048327 235.894573 
L 274.103122 235.589037 
L 270.157917 235.701321 
L 266.212712 235.619159 
L 262.267507 236.784934 
L 258.322303 236.879324 
L 254.377098 236.518616 
L 250.431893 236.176399 
L 246.486688 235.775579 
L 242.541484 235.479289 
L 238.596279 234.725964 
L 234.651074 234.841229 
L 230.705869 235.940202 
L 226.760664 236.695317 
L 222.81546 236.208011 
L 218.870255 235.345086 
L 214.92505 235.190455 
L 210.979845 236.106613 
L 207.03464 236.297032 
L 203.089436 235.652411 
L 199.144231 234.590568 
L 195.199026 235.281265 
L 191.253821 236.334609 
L 187.308616 236.174908 
L 183.363412 236.210397 
L 179.418207 235.932895 
L 175.473002 235.716679 
L 171.527797 236.026539 
L 167.582592 235.291107 
L 163.637388 237.436713 
L 159.692183 235.806446 
L 155.746978 236.597796 
L 151.801773 236.295989 
L 147.856568 236.151795 
L 143.911364 235.288572 
z
" clip-path="url(#p621b310ee1)" style="fill: #1f77b4"/>
   </g>
   <g id="PolyCollection_2">
    <path d="M 143.911364 138.350528 
L 143.911364 235.288572 
L 147.856568 236.151795 
L 151.801773 236.295989 
L 155.746978 236.597796 
L 159.692183 235.806446 
L 163.637388 237.436713 
L 167.582592 235.291107 
L 171.527797 236.026539 
L 175.473002 235.716679 
L 179.418207 235.932895 
L 183.363412 236.210397 
L 187.308616 236.174908 
L 191.253821 236.334609 
L 195.199026 235.281265 
L 199.144231 234.590568 
L 203.089436 235.652411 
L 207.03464 236.297032 
L 210.979845 236.106613 
L 214.92505 235.190455 
L 218.870255 235.345086 
L 222.81546 236.208011 
L 226.760664 236.695317 
L 230.705869 235.940202 
L 234.651074 234.841229 
L 238.596279 234.725964 
L 242.541484 235.479289 
L 246.486688 235.775579 
L 250.431893 236.176399 
L 254.377098 236.518616 
L 258.322303 236.879324 
L 262.267507 236.784934 
L 266.212712 235.619159 
L 270.157917 235.701321 
L 274.103122 235.589037 
L 278.048327 235.894573 
L 281.993531 235.147361 
L 285.938736 235.663595 
L 289.883941 235.674331 
L 293.829146 236.243649 
L 297.774351 234.895954 
L 301.719555 236.234404 
L 305.66476 236.610918 
L 309.609965 235.748292 
L 313.55517 236.761971 
L 317.500375 235.747844 
L 321.445579 236.348477 
L 325.390784 237.376471 
L 329.335989 236.683686 
L 333.281194 236.7487 
L 337.226399 236.366221 
L 341.171603 239.403979 
L 345.116808 240.277938 
L 349.062013 242.439052 
L 353.007218 241.482186 
L 356.952423 235.556978 
L 360.897627 235.877275 
L 364.842832 235.635561 
L 368.788037 235.483464 
L 372.733242 237.739266 
L 376.678447 235.772001 
L 380.623651 236.150751 
L 384.568856 238.020943 
L 388.514061 235.882942 
L 392.459266 235.855505 
L 396.404471 236.489837 
L 400.349675 237.06005 
L 404.29488 235.773194 
L 408.240085 237.050209 
L 412.18529 235.056699 
L 416.130495 237.189631 
L 420.075699 235.59023 
L 424.020904 236.579604 
L 427.966109 235.361042 
L 431.911314 236.623891 
L 435.856518 235.752765 
L 439.801723 236.187732 
L 443.746928 234.905497 
L 447.692133 236.22844 
L 451.637338 236.859193 
L 455.582542 237.479658 
L 459.527747 236.394851 
L 463.472952 242.042855 
L 467.418157 237.07705 
L 471.363362 236.554702 
L 475.308566 237.306686 
L 479.253771 238.687932 
L 483.198976 237.058858 
L 487.144181 236.62061 
L 491.089386 236.969538 
L 495.03459 236.764208 
L 498.979795 237.111197 
L 502.925 236.924207 
L 506.870205 239.182246 
L 510.81541 243.114689 
L 514.760614 238.975872 
L 518.705819 236.495205 
L 522.651024 238.94575 
L 526.596229 237.440292 
L 530.541434 237.442976 
L 534.486638 237.172035 
L 538.431843 237.074067 
L 542.377048 235.252934 
L 546.322253 237.698111 
L 550.267458 235.841041 
L 554.212662 235.937816 
L 558.157867 237.444765 
L 562.103072 237.170544 
L 566.048277 237.7084 
L 569.993482 236.386501 
L 573.938686 237.425231 
L 577.883891 235.478991 
L 581.829096 238.860457 
L 585.774301 237.30087 
L 589.719505 236.397535 
L 593.66471 236.098412 
L 597.609915 236.75377 
L 601.55512 238.14948 
L 605.500325 236.818038 
L 609.445529 236.669371 
L 613.390734 234.885814 
L 617.335939 235.174649 
L 621.281144 234.984826 
L 625.226349 234.881937 
L 629.171553 236.385755 
L 633.116758 236.07008 
L 637.061963 236.357871 
L 641.007168 236.222326 
L 644.952373 234.723578 
L 648.897577 235.501806 
L 652.842782 235.293642 
L 656.787987 235.037613 
L 660.733192 236.570806 
L 664.678397 235.29901 
L 668.623601 238.744297 
L 672.568806 235.408013 
L 676.514011 235.039998 
L 680.459216 237.416881 
L 684.404421 235.796306 
L 688.349625 236.991905 
L 692.29483 236.580051 
L 696.240035 235.937369 
L 700.18524 237.184263 
L 704.130445 235.252934 
L 708.075649 236.053678 
L 712.020854 235.506428 
L 715.966059 237.270898 
L 719.911264 236.587954 
L 723.856469 236.430788 
L 727.801673 235.912616 
L 731.746878 235.713399 
L 735.692083 236.043836 
L 739.637288 238.131139 
L 743.582493 236.562903 
L 747.527697 236.478654 
L 751.472902 237.325623 
L 755.418107 237.13088 
L 759.363312 237.320851 
L 763.308516 237.556601 
L 767.253721 235.990006 
L 771.198926 235.697444 
L 775.144131 235.185534 
L 779.089336 237.454905 
L 783.03454 237.161896 
L 786.979745 236.281077 
L 790.92495 238.689572 
L 794.870155 237.709145 
L 798.81536 235.485999 
L 802.760564 235.479737 
L 806.705769 237.374682 
L 810.650974 236.322531 
L 814.596179 235.848496 
L 818.541384 236.506687 
L 822.486588 235.680295 
L 826.431793 237.975911 
L 830.376998 237.659937 
L 834.322203 236.910638 
L 838.267408 236.797758 
L 842.212612 237.194999 
L 846.157817 236.931812 
L 850.103022 237.150861 
L 854.048227 237.150861 
L 857.993432 237.788325 
L 861.938636 238.565956 
L 861.938636 144.737394 
L 861.938636 144.737394 
L 857.993432 143.303958 
L 854.048227 142.598796 
L 850.103022 141.419749 
L 846.157817 141.916598 
L 842.212612 143.631711 
L 838.267408 141.733784 
L 834.322203 141.827278 
L 830.376998 143.205244 
L 826.431793 144.368932 
L 822.486588 138.002495 
L 818.541384 140.731139 
L 814.596179 139.901168 
L 810.650974 140.469592 
L 806.705769 142.758796 
L 802.760564 139.914738 
L 798.81536 138.756865 
L 794.870155 142.750445 
L 790.92495 145.023395 
L 786.979745 141.548285 
L 783.03454 141.027876 
L 779.089336 144.076221 
L 775.144131 138.335617 
L 771.198926 139.535391 
L 767.253721 139.749072 
L 763.308516 142.238983 
L 759.363312 142.846624 
L 755.418107 142.079132 
L 751.472902 143.191824 
L 747.527697 140.592015 
L 743.582493 141.782246 
L 739.637288 143.481702 
L 735.692083 141.150448 
L 731.746878 139.891923 
L 727.801673 138.159065 
L 723.856469 140.711754 
L 719.911264 140.820756 
L 715.966059 142.195889 
L 712.020854 139.563872 
L 708.075649 139.682865 
L 704.130445 138.655467 
L 700.18524 142.001891 
L 696.240035 139.824673 
L 692.29483 140.614382 
L 688.349625 142.527818 
L 684.404421 139.873135 
L 680.459216 141.983997 
L 676.514011 138.780127 
L 672.568806 139.211813 
L 668.623601 144.060564 
L 664.678397 139.116529 
L 660.733192 141.662805 
L 656.787987 138.193511 
L 652.842782 138.170845 
L 648.897577 138.192765 
L 644.952373 137.752281 
L 641.007168 139.820497 
L 637.061963 141.141352 
L 633.116758 139.677497 
L 629.171553 141.418705 
L 625.226349 138.439997 
L 621.281144 138.054984 
L 617.335939 138.207528 
L 613.390734 138.020687 
L 609.445529 140.903515 
L 605.500325 141.710074 
L 601.55512 143.950368 
L 597.609915 141.500867 
L 593.66471 140.191643 
L 589.719505 141.044875 
L 585.774301 142.859 
L 581.829096 144.986713 
L 577.883891 139.717609 
L 573.938686 142.028434 
L 569.993482 140.890691 
L 566.048277 144.323602 
L 562.103072 141.372927 
L 558.157867 143.514358 
L 554.212662 138.543482 
L 550.267458 140.450207 
L 546.322253 142.799504 
L 542.377048 138.371106 
L 538.431843 142.66545 
L 534.486638 141.095574 
L 530.541434 143.23626 
L 526.596229 143.960956 
L 522.651024 146.726579 
L 518.705819 139.922641 
L 514.760614 145.893776 
L 510.81541 151.996131 
L 506.870205 148.0953 
L 502.925 143.588617 
L 498.979795 140.383553 
L 495.03459 142.632943 
L 491.089386 141.33371 
L 487.144181 141.03235 
L 483.198976 142.518722 
L 479.253771 145.726618 
L 475.308566 142.699001 
L 471.363362 140.180758 
L 467.418157 141.969384 
L 463.472952 151.993745 
L 459.527747 141.69561 
L 455.582542 141.48685 
L 451.637338 142.327408 
L 447.692133 140.282305 
L 443.746928 138.578822 
L 439.801723 140.213563 
L 435.856518 139.396267 
L 431.911314 141.785974 
L 427.966109 138.693342 
L 424.020904 140.911418 
L 420.075699 139.843163 
L 416.130495 142.20588 
L 412.18529 138.119848 
L 408.240085 141.240812 
L 404.29488 140.01703 
L 400.349675 141.430336 
L 396.404471 140.787951 
L 392.459266 140.042529 
L 388.514061 139.741765 
L 384.568856 144.050573 
L 380.623651 140.518651 
L 376.678447 138.597312 
L 372.733242 144.491653 
L 368.788037 139.687935 
L 364.842832 138.388552 
L 360.897627 139.737888 
L 356.952423 140.109928 
L 353.007218 149.512035 
L 349.062013 152.518926 
L 345.116808 149.008774 
L 341.171603 147.168405 
L 337.226399 140.87578 
L 333.281194 141.210392 
L 329.335989 140.878016 
L 325.390784 142.912383 
L 321.445579 140.657625 
L 317.500375 139.565512 
L 313.55517 140.406069 
L 309.609965 140.247263 
L 305.66476 141.252144 
L 301.719555 139.403574 
L 297.774351 138.517238 
L 293.829146 139.371812 
L 289.883941 139.446966 
L 285.938736 140.164952 
L 281.993531 138.199028 
L 278.048327 139.477236 
L 274.103122 139.269073 
L 270.157917 138.731515 
L 266.212712 139.261766 
L 262.267507 140.238167 
L 258.322303 142.261052 
L 254.377098 139.663629 
L 250.431893 141.729758 
L 246.486688 138.866017 
L 242.541484 139.293378 
L 238.596279 136.839702 
L 234.651074 136.632134 
L 230.705869 139.690321 
L 226.760664 140.776768 
L 222.81546 140.944969 
L 218.870255 138.900909 
L 214.92505 137.102739 
L 210.979845 140.574867 
L 207.03464 140.920365 
L 203.089436 138.014424 
L 199.144231 137.528163 
L 195.199026 137.544565 
L 191.253821 140.750375 
L 187.308616 140.690729 
L 183.363412 139.88745 
L 179.418207 139.603834 
L 175.473002 138.980387 
L 171.527797 139.712688 
L 167.582592 138.106279 
L 163.637388 142.891806 
L 159.692183 138.419866 
L 155.746978 141.065751 
L 151.801773 140.10128 
L 147.856568 140.402193 
L 143.911364 138.350528 
z
" clip-path="url(#p621b310ee1)" style="fill: #ff7f0e"/>
   </g>
   <g id="PolyCollection_3">
    <path d="M 143.911364 41.408607 
L 143.911364 138.350528 
L 147.856568 140.402193 
L 151.801773 140.10128 
L 155.746978 141.065751 
L 159.692183 138.419866 
L 163.637388 142.891806 
L 167.582592 138.106279 
L 171.527797 139.712688 
L 175.473002 138.980387 
L 179.418207 139.603834 
L 183.363412 139.88745 
L 187.308616 140.690729 
L 191.253821 140.750375 
L 195.199026 137.544565 
L 199.144231 137.528163 
L 203.089436 138.014424 
L 207.03464 140.920365 
L 210.979845 140.574867 
L 214.92505 137.102739 
L 218.870255 138.900909 
L 222.81546 140.944969 
L 226.760664 140.776768 
L 230.705869 139.690321 
L 234.651074 136.632134 
L 238.596279 136.839702 
L 242.541484 139.293378 
L 246.486688 138.866017 
L 250.431893 141.729758 
L 254.377098 139.663629 
L 258.322303 142.261052 
L 262.267507 140.238167 
L 266.212712 139.261766 
L 270.157917 138.731515 
L 274.103122 139.269073 
L 278.048327 139.477236 
L 281.993531 138.199028 
L 285.938736 140.164952 
L 289.883941 139.446966 
L 293.829146 139.371812 
L 297.774351 138.517238 
L 301.719555 139.403574 
L 305.66476 141.252144 
L 309.609965 140.247263 
L 313.55517 140.406069 
L 317.500375 139.565512 
L 321.445579 140.657625 
L 325.390784 142.912383 
L 329.335989 140.878016 
L 333.281194 141.210392 
L 337.226399 140.87578 
L 341.171603 147.168405 
L 345.116808 149.008774 
L 349.062013 152.518926 
L 353.007218 149.512035 
L 356.952423 140.109928 
L 360.897627 139.737888 
L 364.842832 138.388552 
L 368.788037 139.687935 
L 372.733242 144.491653 
L 376.678447 138.597312 
L 380.623651 140.518651 
L 384.568856 144.050573 
L 388.514061 139.741765 
L 392.459266 140.042529 
L 396.404471 140.787951 
L 400.349675 141.430336 
L 404.29488 140.01703 
L 408.240085 141.240812 
L 412.18529 138.119848 
L 416.130495 142.20588 
L 420.075699 139.843163 
L 424.020904 140.911418 
L 427.966109 138.693342 
L 431.911314 141.785974 
L 435.856518 139.396267 
L 439.801723 140.213563 
L 443.746928 138.578822 
L 447.692133 140.282305 
L 451.637338 142.327408 
L 455.582542 141.48685 
L 459.527747 141.69561 
L 463.472952 151.993745 
L 467.418157 141.969384 
L 471.363362 140.180758 
L 475.308566 142.699001 
L 479.253771 145.726618 
L 483.198976 142.518722 
L 487.144181 141.03235 
L 491.089386 141.33371 
L 495.03459 142.632943 
L 498.979795 140.383553 
L 502.925 143.588617 
L 506.870205 148.0953 
L 510.81541 151.996131 
L 514.760614 145.893776 
L 518.705819 139.922641 
L 522.651024 146.726579 
L 526.596229 143.960956 
L 530.541434 143.23626 
L 534.486638 141.095574 
L 538.431843 142.66545 
L 542.377048 138.371106 
L 546.322253 142.799504 
L 550.267458 140.450207 
L 554.212662 138.543482 
L 558.157867 143.514358 
L 562.103072 141.372927 
L 566.048277 144.323602 
L 569.993482 140.890691 
L 573.938686 142.028434 
L 577.883891 139.717609 
L 581.829096 144.986713 
L 585.774301 142.859 
L 589.719505 141.044875 
L 593.66471 140.191643 
L 597.609915 141.500867 
L 601.55512 143.950368 
L 605.500325 141.710074 
L 609.445529 140.903515 
L 613.390734 138.020687 
L 617.335939 138.207528 
L 621.281144 138.054984 
L 625.226349 138.439997 
L 629.171553 141.418705 
L 633.116758 139.677497 
L 637.061963 141.141352 
L 641.007168 139.820497 
L 644.952373 137.752281 
L 648.897577 138.192765 
L 652.842782 138.170845 
L 656.787987 138.193511 
L 660.733192 141.662805 
L 664.678397 139.116529 
L 668.623601 144.060564 
L 672.568806 139.211813 
L 676.514011 138.780127 
L 680.459216 141.983997 
L 684.404421 139.873135 
L 688.349625 142.527818 
L 692.29483 140.614382 
L 696.240035 139.824673 
L 700.18524 142.001891 
L 704.130445 138.655467 
L 708.075649 139.682865 
L 712.020854 139.563872 
L 715.966059 142.195889 
L 719.911264 140.820756 
L 723.856469 140.711754 
L 727.801673 138.159065 
L 731.746878 139.891923 
L 735.692083 141.150448 
L 739.637288 143.481702 
L 743.582493 141.782246 
L 747.527697 140.592015 
L 751.472902 143.191824 
L 755.418107 142.079132 
L 759.363312 142.846624 
L 763.308516 142.238983 
L 767.253721 139.749072 
L 771.198926 139.535391 
L 775.144131 138.335617 
L 779.089336 144.076221 
L 783.03454 141.027876 
L 786.979745 141.548285 
L 790.92495 145.023395 
L 794.870155 142.750445 
L 798.81536 138.756865 
L 802.760564 139.914738 
L 806.705769 142.758796 
L 810.650974 140.469592 
L 814.596179 139.901168 
L 818.541384 140.731139 
L 822.486588 138.002495 
L 826.431793 144.368932 
L 830.376998 143.205244 
L 834.322203 141.827278 
L 838.267408 141.733784 
L 842.212612 143.631711 
L 846.157817 141.916598 
L 850.103022 141.419749 
L 854.048227 142.598796 
L 857.993432 143.303958 
L 861.938636 144.737394 
L 861.938636 50.946408 
L 861.938636 50.946408 
L 857.993432 49.188201 
L 854.048227 47.779518 
L 850.103022 46.553798 
L 846.157817 47.195586 
L 842.212612 49.472264 
L 838.267408 47.971428 
L 834.322203 47.311448 
L 830.376998 49.609896 
L 826.431793 48.098623 
L 822.486588 42.300908 
L 818.541384 44.953652 
L 814.596179 44.830185 
L 810.650974 45.691917 
L 806.705769 47.188727 
L 802.760564 44.069255 
L 798.81536 43.192462 
L 794.870155 49.180447 
L 790.92495 50.921655 
L 786.979745 45.258293 
L 783.03454 47.496499 
L 779.089336 48.621567 
L 775.144131 41.991048 
L 771.198926 42.940757 
L 767.253721 43.854083 
L 763.308516 48.967512 
L 759.363312 47.806508 
L 755.418107 47.777579 
L 751.472902 48.405351 
L 747.527697 46.353687 
L 743.582493 47.195437 
L 739.637288 48.777391 
L 735.692083 45.214751 
L 731.746878 42.761522 
L 727.801673 42.867393 
L 723.856469 46.118533 
L 719.911264 45.60394 
L 715.966059 46.498924 
L 712.020854 43.613263 
L 708.075649 43.990373 
L 704.130445 43.450878 
L 700.18524 46.176837 
L 696.240035 44.412516 
L 692.29483 45.882783 
L 688.349625 47.913124 
L 684.404421 44.279804 
L 680.459216 46.324907 
L 676.514011 42.543964 
L 672.568806 44.526588 
L 668.623601 49.282292 
L 664.678397 42.105568 
L 660.733192 46.542465 
L 656.787987 41.333305 
L 652.842782 41.987469 
L 648.897577 40.595934 
L 644.952373 41.034778 
L 641.007168 44.273989 
L 637.061963 45.882038 
L 633.116758 44.198686 
L 629.171553 45.258889 
L 625.226349 41.09845 
L 621.281144 41.238617 
L 617.335939 41.632428 
L 613.390734 41.750378 
L 609.445529 46.087368 
L 605.500325 47.207217 
L 601.55512 50.104807 
L 597.609915 45.743958 
L 593.66471 45.015385 
L 589.719505 46.404833 
L 585.774301 49.954649 
L 581.829096 49.741117 
L 577.883891 44.695982 
L 573.938686 47.345893 
L 569.993482 46.684422 
L 566.048277 49.410978 
L 562.103072 47.224216 
L 558.157867 47.520059 
L 554.212662 42.297776 
L 550.267458 46.720657 
L 546.322253 47.217506 
L 542.377048 42.476117 
L 538.431843 47.149659 
L 534.486638 48.013478 
L 530.541434 49.704733 
L 526.596229 50.090045 
L 522.651024 52.305287 
L 518.705819 46.418253 
L 514.760614 54.825171 
L 510.81541 62.387654 
L 506.870205 54.396169 
L 502.925 47.555995 
L 498.979795 46.022653 
L 495.03459 47.47279 
L 491.089386 46.101683 
L 487.144181 46.975642 
L 483.198976 49.059665 
L 479.253771 51.800237 
L 475.308566 46.825484 
L 471.363362 45.421573 
L 467.418157 52.008997 
L 463.472952 57.826992 
L 459.527747 45.517304 
L 455.582542 47.538698 
L 451.637338 46.511151 
L 447.692133 44.362861 
L 443.746928 42.94881 
L 439.801723 43.813524 
L 435.856518 44.208229 
L 431.911314 45.741125 
L 427.966109 44.181836 
L 424.020904 45.104854 
L 420.075699 45.058032 
L 416.130495 45.869065 
L 412.18529 42.02952 
L 408.240085 46.126585 
L 404.29488 44.767855 
L 400.349675 45.450203 
L 396.404471 45.197901 
L 392.459266 44.837939 
L 388.514061 45.686847 
L 384.568856 49.03685 
L 380.623651 44.271454 
L 376.678447 44.731322 
L 372.733242 48.63946 
L 368.788037 42.850692 
L 364.842832 41.678206 
L 360.897627 43.791902 
L 356.952423 48.553272 
L 353.007218 59.581322 
L 349.062013 61.561113 
L 345.116808 56.733984 
L 341.171603 52.105325 
L 337.226399 45.994917 
L 333.281194 45.373111 
L 329.335989 45.961516 
L 325.390784 47.581643 
L 321.445579 45.546978 
L 317.500375 43.723011 
L 313.55517 44.851956 
L 309.609965 44.463215 
L 305.66476 45.825374 
L 301.719555 44.061053 
L 297.774351 41.375355 
L 293.829146 43.467727 
L 289.883941 43.999767 
L 285.938736 43.914772 
L 281.993531 41.772894 
L 278.048327 43.342173 
L 274.103122 43.803086 
L 270.157917 42.111234 
L 266.212712 43.478165 
L 262.267507 45.295273 
L 258.322303 46.727218 
L 254.377098 44.918014 
L 250.431893 45.795104 
L 246.486688 42.710823 
L 242.541484 42.505791 
L 238.596279 40.378526 
L 234.651074 40.239551 
L 230.705869 44.909812 
L 226.760664 45.205655 
L 222.81546 44.59205 
L 218.870255 41.811664 
L 214.92505 41.462438 
L 210.979845 46.164162 
L 207.03464 43.346348 
L 203.089436 41.327042 
L 199.144231 40.674219 
L 195.199026 41.500462 
L 191.253821 45.38161 
L 187.308616 45.247855 
L 183.363412 44.410428 
L 179.418207 43.03962 
L 175.473002 42.741839 
L 171.527797 43.548995 
L 167.582592 43.508734 
L 163.637388 46.125392 
L 159.692183 43.65412 
L 155.746978 45.648077 
L 151.801773 44.110559 
L 147.856568 44.938591 
L 143.911364 41.408607 
z
" clip-path="url(#p621b310ee1)" style="fill: #2ca02c"/>
   </g>
   <g id="matplotlib.axis_1">
    <g id="xtick_1">
     <g id="line2d_1">
      <path d="M 143.911364 331.64 
L 143.911364 23.76 
" clip-path="url(#p621b310ee1)" style="fill: none; stroke-dasharray: 5.12,1.28,0.8,1.28; stroke-dashoffset: 0; stroke: #b0b0b0; stroke-width: 0.8"/>
     </g>
     <g id="line2d_2">
      <defs>
       <path id="m66cac6571a" d="M 0 0 
L 0 3.5 
" style="stroke: #000000; stroke-width: 0.8"/>
      </defs>
      <g>
       <use xlink:href="#m66cac6571a" x="143.911364" y="331.64" style="stroke: #000000; stroke-width: 0.8"/>
      </g>
     </g>
     <g id="text_1">
      <!-- 0 -->
      <g transform="translate(136.912614 355.356563)scale(0.22 -0.22)">
       <defs>
        <path id="DejaVuSans-30" d="M 2034 4250 
Q 1547 4250 1301 3770 
Q 1056 3291 1056 2328 
Q 1056 1369 1301 889 
Q 1547 409 2034 409 
Q 2525 409 2770 889 
Q 3016 1369 3016 2328 
Q 3016 3291 2770 3770 
Q 2525 4250 2034 4250 
z
M 2034 4750 
Q 2819 4750 3233 4129 
Q 3647 3509 3647 2328 
Q 3647 1150 3233 529 
Q 2819 -91 2034 -91 
Q 1250 -91 836 529 
Q 422 1150 422 2328 
Q 422 3509 836 4129 
Q 1250 4750 2034 4750 
z
" transform="scale(0.015625)"/>
       </defs>
       <use xlink:href="#DejaVuSans-30"/>
      </g>
     </g>
    </g>
    <g id="xtick_2">
     <g id="line2d_3">
      <path d="M 242.541484 331.64 
L 242.541484 23.76 
" clip-path="url(#p621b310ee1)" style="fill: none; stroke-dasharray: 5.12,1.28,0.8,1.28; stroke-dashoffset: 0; stroke: #b0b0b0; stroke-width: 0.8"/>
     </g>
     <g id="line2d_4">
      <g>
       <use xlink:href="#m66cac6571a" x="242.541484" y="331.64" style="stroke: #000000; stroke-width: 0.8"/>
      </g>
     </g>
     <g id="text_2">
      <!-- 25 -->
      <g transform="translate(228.543984 355.356563)scale(0.22 -0.22)">
       <defs>
        <path id="DejaVuSans-32" d="M 1228 531 
L 3431 531 
L 3431 0 
L 469 0 
L 469 531 
Q 828 903 1448 1529 
Q 2069 2156 2228 2338 
Q 2531 2678 2651 2914 
Q 2772 3150 2772 3378 
Q 2772 3750 2511 3984 
Q 2250 4219 1831 4219 
Q 1534 4219 1204 4116 
Q 875 4013 500 3803 
L 500 4441 
Q 881 4594 1212 4672 
Q 1544 4750 1819 4750 
Q 2544 4750 2975 4387 
Q 3406 4025 3406 3419 
Q 3406 3131 3298 2873 
Q 3191 2616 2906 2266 
Q 2828 2175 2409 1742 
Q 1991 1309 1228 531 
z
" transform="scale(0.015625)"/>
        <path id="DejaVuSans-35" d="M 691 4666 
L 3169 4666 
L 3169 4134 
L 1269 4134 
L 1269 2991 
Q 1406 3038 1543 3061 
Q 1681 3084 1819 3084 
Q 2600 3084 3056 2656 
Q 3513 2228 3513 1497 
Q 3513 744 3044 326 
Q 2575 -91 1722 -91 
Q 1428 -91 1123 -41 
Q 819 9 494 109 
L 494 744 
Q 775 591 1075 516 
Q 1375 441 1709 441 
Q 2250 441 2565 725 
Q 2881 1009 2881 1497 
Q 2881 1984 2565 2268 
Q 2250 2553 1709 2553 
Q 1456 2553 1204 2497 
Q 953 2441 691 2322 
L 691 4666 
z
" transform="scale(0.015625)"/>
       </defs>
       <use xlink:href="#DejaVuSans-32"/>
       <use xlink:href="#DejaVuSans-35" x="63.623047"/>
      </g>
     </g>
    </g>
    <g id="xtick_3">
     <g id="line2d_5">
      <path d="M 341.171603 331.64 
L 341.171603 23.76 
" clip-path="url(#p621b310ee1)" style="fill: none; stroke-dasharray: 5.12,1.28,0.8,1.28; stroke-dashoffset: 0; stroke: #b0b0b0; stroke-width: 0.8"/>
     </g>
     <g id="line2d_6">
      <g>
       <use xlink:href="#m66cac6571a" x="341.171603" y="331.64" style="stroke: #000000; stroke-width: 0.8"/>
      </g>
     </g>
     <g id="text_3">
      <!-- 50 -->
      <g transform="translate(327.174103 355.356563)scale(0.22 -0.22)">
       <use xlink:href="#DejaVuSans-35"/>
       <use xlink:href="#DejaVuSans-30" x="63.623047"/>
      </g>
     </g>
    </g>
    <g id="xtick_4">
     <g id="line2d_7">
      <path d="M 439.801723 331.64 
L 439.801723 23.76 
" clip-path="url(#p621b310ee1)" style="fill: none; stroke-dasharray: 5.12,1.28,0.8,1.28; stroke-dashoffset: 0; stroke: #b0b0b0; stroke-width: 0.8"/>
     </g>
     <g id="line2d_8">
      <g>
       <use xlink:href="#m66cac6571a" x="439.801723" y="331.64" style="stroke: #000000; stroke-width: 0.8"/>
      </g>
     </g>
     <g id="text_4">
      <!-- 75 -->
      <g transform="translate(425.804223 355.356563)scale(0.22 -0.22)">
       <defs>
        <path id="DejaVuSans-37" d="M 525 4666 
L 3525 4666 
L 3525 4397 
L 1831 0 
L 1172 0 
L 2766 4134 
L 525 4134 
L 525 4666 
z
" transform="scale(0.015625)"/>
       </defs>
       <use xlink:href="#DejaVuSans-37"/>
       <use xlink:href="#DejaVuSans-35" x="63.623047"/>
      </g>
     </g>
    </g>
    <g id="xtick_5">
     <g id="line2d_9">
      <path d="M 538.431843 331.64 
L 538.431843 23.76 
" clip-path="url(#p621b310ee1)" style="fill: none; stroke-dasharray: 5.12,1.28,0.8,1.28; stroke-dashoffset: 0; stroke: #b0b0b0; stroke-width: 0.8"/>
     </g>
     <g id="line2d_10">
      <g>
       <use xlink:href="#m66cac6571a" x="538.431843" y="331.64" style="stroke: #000000; stroke-width: 0.8"/>
      </g>
     </g>
     <g id="text_5">
      <!-- 100 -->
      <g transform="translate(517.435593 355.356563)scale(0.22 -0.22)">
       <defs>
        <path id="DejaVuSans-31" d="M 794 531 
L 1825 531 
L 1825 4091 
L 703 3866 
L 703 4441 
L 1819 4666 
L 2450 4666 
L 2450 531 
L 3481 531 
L 3481 0 
L 794 0 
L 794 531 
z
" transform="scale(0.015625)"/>
       </defs>
       <use xlink:href="#DejaVuSans-31"/>
       <use xlink:href="#DejaVuSans-30" x="63.623047"/>
       <use xlink:href="#DejaVuSans-30" x="127.246094"/>
      </g>
     </g>
    </g>
    <g id="xtick_6">
     <g id="line2d_11">
      <path d="M 637.061963 331.64 
L 637.061963 23.76 
" clip-path="url(#p621b310ee1)" style="fill: none; stroke-dasharray: 5.12,1.28,0.8,1.28; stroke-dashoffset: 0; stroke: #b0b0b0; stroke-width: 0.8"/>
     </g>
     <g id="line2d_12">
      <g>
       <use xlink:href="#m66cac6571a" x="637.061963" y="331.64" style="stroke: #000000; stroke-width: 0.8"/>
      </g>
     </g>
     <g id="text_6">
      <!-- 125 -->
      <g transform="translate(616.065713 355.356563)scale(0.22 -0.22)">
       <use xlink:href="#DejaVuSans-31"/>
       <use xlink:href="#DejaVuSans-32" x="63.623047"/>
       <use xlink:href="#DejaVuSans-35" x="127.246094"/>
      </g>
     </g>
    </g>
    <g id="xtick_7">
     <g id="line2d_13">
      <path d="M 735.692083 331.64 
L 735.692083 23.76 
" clip-path="url(#p621b310ee1)" style="fill: none; stroke-dasharray: 5.12,1.28,0.8,1.28; stroke-dashoffset: 0; stroke: #b0b0b0; stroke-width: 0.8"/>
     </g>
     <g id="line2d_14">
      <g>
       <use xlink:href="#m66cac6571a" x="735.692083" y="331.64" style="stroke: #000000; stroke-width: 0.8"/>
      </g>
     </g>
     <g id="text_7">
      <!-- 150 -->
      <g transform="translate(714.695833 355.356563)scale(0.22 -0.22)">
       <use xlink:href="#DejaVuSans-31"/>
       <use xlink:href="#DejaVuSans-35" x="63.623047"/>
       <use xlink:href="#DejaVuSans-30" x="127.246094"/>
      </g>
     </g>
    </g>
    <g id="xtick_8">
     <g id="line2d_15">
      <path d="M 834.322203 331.64 
L 834.322203 23.76 
" clip-path="url(#p621b310ee1)" style="fill: none; stroke-dasharray: 5.12,1.28,0.8,1.28; stroke-dashoffset: 0; stroke: #b0b0b0; stroke-width: 0.8"/>
     </g>
     <g id="line2d_16">
      <g>
       <use xlink:href="#m66cac6571a" x="834.322203" y="331.64" style="stroke: #000000; stroke-width: 0.8"/>
      </g>
     </g>
     <g id="text_8">
      <!-- 175 -->
      <g transform="translate(813.325953 355.356563)scale(0.22 -0.22)">
       <use xlink:href="#DejaVuSans-31"/>
       <use xlink:href="#DejaVuSans-37" x="63.623047"/>
       <use xlink:href="#DejaVuSans-35" x="127.246094"/>
      </g>
     </g>
    </g>
    <g id="text_9">
     <!-- Time (s) -->
     <g transform="translate(454.135625 382.168125)scale(0.24 -0.24)">
      <defs>
       <path id="DejaVuSans-54" d="M -19 4666 
L 3928 4666 
L 3928 4134 
L 2272 4134 
L 2272 0 
L 1638 0 
L 1638 4134 
L -19 4134 
L -19 4666 
z
" transform="scale(0.015625)"/>
       <path id="DejaVuSans-69" d="M 603 3500 
L 1178 3500 
L 1178 0 
L 603 0 
L 603 3500 
z
M 603 4863 
L 1178 4863 
L 1178 4134 
L 603 4134 
L 603 4863 
z
" transform="scale(0.015625)"/>
       <path id="DejaVuSans-6d" d="M 3328 2828 
Q 3544 3216 3844 3400 
Q 4144 3584 4550 3584 
Q 5097 3584 5394 3201 
Q 5691 2819 5691 2113 
L 5691 0 
L 5113 0 
L 5113 2094 
Q 5113 2597 4934 2840 
Q 4756 3084 4391 3084 
Q 3944 3084 3684 2787 
Q 3425 2491 3425 1978 
L 3425 0 
L 2847 0 
L 2847 2094 
Q 2847 2600 2669 2842 
Q 2491 3084 2119 3084 
Q 1678 3084 1418 2786 
Q 1159 2488 1159 1978 
L 1159 0 
L 581 0 
L 581 3500 
L 1159 3500 
L 1159 2956 
Q 1356 3278 1631 3431 
Q 1906 3584 2284 3584 
Q 2666 3584 2933 3390 
Q 3200 3197 3328 2828 
z
" transform="scale(0.015625)"/>
       <path id="DejaVuSans-65" d="M 3597 1894 
L 3597 1613 
L 953 1613 
Q 991 1019 1311 708 
Q 1631 397 2203 397 
Q 2534 397 2845 478 
Q 3156 559 3463 722 
L 3463 178 
Q 3153 47 2828 -22 
Q 2503 -91 2169 -91 
Q 1331 -91 842 396 
Q 353 884 353 1716 
Q 353 2575 817 3079 
Q 1281 3584 2069 3584 
Q 2775 3584 3186 3129 
Q 3597 2675 3597 1894 
z
M 3022 2063 
Q 3016 2534 2758 2815 
Q 2500 3097 2075 3097 
Q 1594 3097 1305 2825 
Q 1016 2553 972 2059 
L 3022 2063 
z
" transform="scale(0.015625)"/>
       <path id="DejaVuSans-20" transform="scale(0.015625)"/>
       <path id="DejaVuSans-28" d="M 1984 4856 
Q 1566 4138 1362 3434 
Q 1159 2731 1159 2009 
Q 1159 1288 1364 580 
Q 1569 -128 1984 -844 
L 1484 -844 
Q 1016 -109 783 600 
Q 550 1309 550 2009 
Q 550 2706 781 3412 
Q 1013 4119 1484 4856 
L 1984 4856 
z
" transform="scale(0.015625)"/>
       <path id="DejaVuSans-73" d="M 2834 3397 
L 2834 2853 
Q 2591 2978 2328 3040 
Q 2066 3103 1784 3103 
Q 1356 3103 1142 2972 
Q 928 2841 928 2578 
Q 928 2378 1081 2264 
Q 1234 2150 1697 2047 
L 1894 2003 
Q 2506 1872 2764 1633 
Q 3022 1394 3022 966 
Q 3022 478 2636 193 
Q 2250 -91 1575 -91 
Q 1294 -91 989 -36 
Q 684 19 347 128 
L 347 722 
Q 666 556 975 473 
Q 1284 391 1588 391 
Q 1994 391 2212 530 
Q 2431 669 2431 922 
Q 2431 1156 2273 1281 
Q 2116 1406 1581 1522 
L 1381 1569 
Q 847 1681 609 1914 
Q 372 2147 372 2553 
Q 372 3047 722 3315 
Q 1072 3584 1716 3584 
Q 2034 3584 2315 3537 
Q 2597 3491 2834 3397 
z
" transform="scale(0.015625)"/>
       <path id="DejaVuSans-29" d="M 513 4856 
L 1013 4856 
Q 1481 4119 1714 3412 
Q 1947 2706 1947 2009 
Q 1947 1309 1714 600 
Q 1481 -109 1013 -844 
L 513 -844 
Q 928 -128 1133 580 
Q 1338 1288 1338 2009 
Q 1338 2731 1133 3434 
Q 928 4138 513 4856 
z
" transform="scale(0.015625)"/>
      </defs>
      <use xlink:href="#DejaVuSans-54"/>
      <use xlink:href="#DejaVuSans-69" x="57.958984"/>
      <use xlink:href="#DejaVuSans-6d" x="85.742188"/>
      <use xlink:href="#DejaVuSans-65" x="183.154297"/>
      <use xlink:href="#DejaVuSans-20" x="244.677734"/>
      <use xlink:href="#DejaVuSans-28" x="276.464844"/>
      <use xlink:href="#DejaVuSans-73" x="315.478516"/>
      <use xlink:href="#DejaVuSans-29" x="367.578125"/>
     </g>
    </g>
   </g>
   <g id="matplotlib.axis_2">
    <g id="ytick_1">
     <g id="line2d_17">
      <path d="M 108.01 331.64 
L 897.84 331.64 
" clip-path="url(#p621b310ee1)" style="fill: none; stroke-dasharray: 5.12,1.28,0.8,1.28; stroke-dashoffset: 0; stroke: #b0b0b0; stroke-width: 0.8"/>
     </g>
     <g id="line2d_18">
      <defs>
       <path id="mdbfdb4f0dd" d="M 0 0 
L -3.5 0 
" style="stroke: #000000; stroke-width: 0.8"/>
      </defs>
      <g>
       <use xlink:href="#mdbfdb4f0dd" x="108.01" y="331.64" style="stroke: #000000; stroke-width: 0.8"/>
      </g>
     </g>
     <g id="text_10">
      <!-- 0 -->
      <g transform="translate(87.0125 339.998281)scale(0.22 -0.22)">
       <use xlink:href="#DejaVuSans-30"/>
      </g>
     </g>
    </g>
    <g id="ytick_2">
     <g id="line2d_19">
      <path d="M 108.01 238.443533 
L 897.84 238.443533 
" clip-path="url(#p621b310ee1)" style="fill: none; stroke-dasharray: 5.12,1.28,0.8,1.28; stroke-dashoffset: 0; stroke: #b0b0b0; stroke-width: 0.8"/>
     </g>
     <g id="line2d_20">
      <g>
       <use xlink:href="#mdbfdb4f0dd" x="108.01" y="238.443533" style="stroke: #000000; stroke-width: 0.8"/>
      </g>
     </g>
     <g id="text_11">
      <!-- 5 -->
      <g transform="translate(87.0125 246.801815)scale(0.22 -0.22)">
       <use xlink:href="#DejaVuSans-35"/>
      </g>
     </g>
    </g>
    <g id="ytick_3">
     <g id="line2d_21">
      <path d="M 108.01 145.247067 
L 897.84 145.247067 
" clip-path="url(#p621b310ee1)" style="fill: none; stroke-dasharray: 5.12,1.28,0.8,1.28; stroke-dashoffset: 0; stroke: #b0b0b0; stroke-width: 0.8"/>
     </g>
     <g id="line2d_22">
      <g>
       <use xlink:href="#mdbfdb4f0dd" x="108.01" y="145.247067" style="stroke: #000000; stroke-width: 0.8"/>
      </g>
     </g>
     <g id="text_12">
      <!-- 10 -->
      <g transform="translate(73.015 153.605348)scale(0.22 -0.22)">
       <use xlink:href="#DejaVuSans-31"/>
       <use xlink:href="#DejaVuSans-30" x="63.623047"/>
      </g>
     </g>
    </g>
    <g id="ytick_4">
     <g id="line2d_23">
      <path d="M 108.01 52.0506 
L 897.84 52.0506 
" clip-path="url(#p621b310ee1)" style="fill: none; stroke-dasharray: 5.12,1.28,0.8,1.28; stroke-dashoffset: 0; stroke: #b0b0b0; stroke-width: 0.8"/>
     </g>
     <g id="line2d_24">
      <g>
       <use xlink:href="#mdbfdb4f0dd" x="108.01" y="52.0506" style="stroke: #000000; stroke-width: 0.8"/>
      </g>
     </g>
     <g id="text_13">
      <!-- 15 -->
      <g transform="translate(73.015 60.408881)scale(0.22 -0.22)">
       <use xlink:href="#DejaVuSans-31"/>
       <use xlink:href="#DejaVuSans-35" x="63.623047"/>
      </g>
     </g>
    </g>
    <g id="text_14">
     <!-- Throughput (Mbps) -->
     <g transform="translate(64.02375 292.414375)rotate(-90)scale(0.24 -0.24)">
      <defs>
       <path id="DejaVuSans-68" d="M 3513 2113 
L 3513 0 
L 2938 0 
L 2938 2094 
Q 2938 2591 2744 2837 
Q 2550 3084 2163 3084 
Q 1697 3084 1428 2787 
Q 1159 2491 1159 1978 
L 1159 0 
L 581 0 
L 581 4863 
L 1159 4863 
L 1159 2956 
Q 1366 3272 1645 3428 
Q 1925 3584 2291 3584 
Q 2894 3584 3203 3211 
Q 3513 2838 3513 2113 
z
" transform="scale(0.015625)"/>
       <path id="DejaVuSans-72" d="M 2631 2963 
Q 2534 3019 2420 3045 
Q 2306 3072 2169 3072 
Q 1681 3072 1420 2755 
Q 1159 2438 1159 1844 
L 1159 0 
L 581 0 
L 581 3500 
L 1159 3500 
L 1159 2956 
Q 1341 3275 1631 3429 
Q 1922 3584 2338 3584 
Q 2397 3584 2469 3576 
Q 2541 3569 2628 3553 
L 2631 2963 
z
" transform="scale(0.015625)"/>
       <path id="DejaVuSans-6f" d="M 1959 3097 
Q 1497 3097 1228 2736 
Q 959 2375 959 1747 
Q 959 1119 1226 758 
Q 1494 397 1959 397 
Q 2419 397 2687 759 
Q 2956 1122 2956 1747 
Q 2956 2369 2687 2733 
Q 2419 3097 1959 3097 
z
M 1959 3584 
Q 2709 3584 3137 3096 
Q 3566 2609 3566 1747 
Q 3566 888 3137 398 
Q 2709 -91 1959 -91 
Q 1206 -91 779 398 
Q 353 888 353 1747 
Q 353 2609 779 3096 
Q 1206 3584 1959 3584 
z
" transform="scale(0.015625)"/>
       <path id="DejaVuSans-75" d="M 544 1381 
L 544 3500 
L 1119 3500 
L 1119 1403 
Q 1119 906 1312 657 
Q 1506 409 1894 409 
Q 2359 409 2629 706 
Q 2900 1003 2900 1516 
L 2900 3500 
L 3475 3500 
L 3475 0 
L 2900 0 
L 2900 538 
Q 2691 219 2414 64 
Q 2138 -91 1772 -91 
Q 1169 -91 856 284 
Q 544 659 544 1381 
z
M 1991 3584 
L 1991 3584 
z
" transform="scale(0.015625)"/>
       <path id="DejaVuSans-67" d="M 2906 1791 
Q 2906 2416 2648 2759 
Q 2391 3103 1925 3103 
Q 1463 3103 1205 2759 
Q 947 2416 947 1791 
Q 947 1169 1205 825 
Q 1463 481 1925 481 
Q 2391 481 2648 825 
Q 2906 1169 2906 1791 
z
M 3481 434 
Q 3481 -459 3084 -895 
Q 2688 -1331 1869 -1331 
Q 1566 -1331 1297 -1286 
Q 1028 -1241 775 -1147 
L 775 -588 
Q 1028 -725 1275 -790 
Q 1522 -856 1778 -856 
Q 2344 -856 2625 -561 
Q 2906 -266 2906 331 
L 2906 616 
Q 2728 306 2450 153 
Q 2172 0 1784 0 
Q 1141 0 747 490 
Q 353 981 353 1791 
Q 353 2603 747 3093 
Q 1141 3584 1784 3584 
Q 2172 3584 2450 3431 
Q 2728 3278 2906 2969 
L 2906 3500 
L 3481 3500 
L 3481 434 
z
" transform="scale(0.015625)"/>
       <path id="DejaVuSans-70" d="M 1159 525 
L 1159 -1331 
L 581 -1331 
L 581 3500 
L 1159 3500 
L 1159 2969 
Q 1341 3281 1617 3432 
Q 1894 3584 2278 3584 
Q 2916 3584 3314 3078 
Q 3713 2572 3713 1747 
Q 3713 922 3314 415 
Q 2916 -91 2278 -91 
Q 1894 -91 1617 61 
Q 1341 213 1159 525 
z
M 3116 1747 
Q 3116 2381 2855 2742 
Q 2594 3103 2138 3103 
Q 1681 3103 1420 2742 
Q 1159 2381 1159 1747 
Q 1159 1113 1420 752 
Q 1681 391 2138 391 
Q 2594 391 2855 752 
Q 3116 1113 3116 1747 
z
" transform="scale(0.015625)"/>
       <path id="DejaVuSans-74" d="M 1172 4494 
L 1172 3500 
L 2356 3500 
L 2356 3053 
L 1172 3053 
L 1172 1153 
Q 1172 725 1289 603 
Q 1406 481 1766 481 
L 2356 481 
L 2356 0 
L 1766 0 
Q 1100 0 847 248 
Q 594 497 594 1153 
L 594 3053 
L 172 3053 
L 172 3500 
L 594 3500 
L 594 4494 
L 1172 4494 
z
" transform="scale(0.015625)"/>
       <path id="DejaVuSans-4d" d="M 628 4666 
L 1569 4666 
L 2759 1491 
L 3956 4666 
L 4897 4666 
L 4897 0 
L 4281 0 
L 4281 4097 
L 3078 897 
L 2444 897 
L 1241 4097 
L 1241 0 
L 628 0 
L 628 4666 
z
" transform="scale(0.015625)"/>
       <path id="DejaVuSans-62" d="M 3116 1747 
Q 3116 2381 2855 2742 
Q 2594 3103 2138 3103 
Q 1681 3103 1420 2742 
Q 1159 2381 1159 1747 
Q 1159 1113 1420 752 
Q 1681 391 2138 391 
Q 2594 391 2855 752 
Q 3116 1113 3116 1747 
z
M 1159 2969 
Q 1341 3281 1617 3432 
Q 1894 3584 2278 3584 
Q 2916 3584 3314 3078 
Q 3713 2572 3713 1747 
Q 3713 922 3314 415 
Q 2916 -91 2278 -91 
Q 1894 -91 1617 61 
Q 1341 213 1159 525 
L 1159 0 
L 581 0 
L 581 4863 
L 1159 4863 
L 1159 2969 
z
" transform="scale(0.015625)"/>
      </defs>
      <use xlink:href="#DejaVuSans-54"/>
      <use xlink:href="#DejaVuSans-68" x="61.083984"/>
      <use xlink:href="#DejaVuSans-72" x="124.462891"/>
      <use xlink:href="#DejaVuSans-6f" x="163.326172"/>
      <use xlink:href="#DejaVuSans-75" x="224.507812"/>
      <use xlink:href="#DejaVuSans-67" x="287.886719"/>
      <use xlink:href="#DejaVuSans-68" x="351.363281"/>
      <use xlink:href="#DejaVuSans-70" x="414.742188"/>
      <use xlink:href="#DejaVuSans-75" x="478.21875"/>
      <use xlink:href="#DejaVuSans-74" x="541.597656"/>
      <use xlink:href="#DejaVuSans-20" x="580.806641"/>
      <use xlink:href="#DejaVuSans-28" x="612.59375"/>
      <use xlink:href="#DejaVuSans-4d" x="651.607422"/>
      <use xlink:href="#DejaVuSans-62" x="737.886719"/>
      <use xlink:href="#DejaVuSans-70" x="801.363281"/>
      <use xlink:href="#DejaVuSans-73" x="864.839844"/>
      <use xlink:href="#DejaVuSans-29" x="916.939453"/>
     </g>
    </g>
   </g>
   <g id="patch_3">
    <path d="M 108.01 331.64 
L 108.01 23.76 
" style="fill: none; stroke: #000000; stroke-width: 0.8; stroke-linejoin: miter; stroke-linecap: square"/>
   </g>
   <g id="patch_4">
    <path d="M 897.84 331.64 
L 897.84 23.76 
" style="fill: none; stroke: #000000; stroke-width: 0.8; stroke-linejoin: miter; stroke-linecap: square"/>
   </g>
   <g id="patch_5">
    <path d="M 108.01 331.64 
L 897.84 331.64 
" style="fill: none; stroke: #000000; stroke-width: 0.8; stroke-linejoin: miter; stroke-linecap: square"/>
   </g>
   <g id="patch_6">
    <path d="M 108.01 23.76 
L 897.84 23.76 
" style="fill: none; stroke: #000000; stroke-width: 0.8; stroke-linejoin: miter; stroke-linecap: square"/>
   </g>
   <g id="legend_1">
    <g id="patch_7">
     <path d="M 756.24 148.6425 
L 881.04 148.6425 
Q 885.84 148.6425 885.84 143.8425 
L 885.84 40.56 
Q 885.84 35.76 881.04 35.76 
L 756.24 35.76 
Q 751.44 35.76 751.44 40.56 
L 751.44 143.8425 
Q 751.44 148.6425 756.24 148.6425 
z
" style="fill: #ffffff; opacity: 0.8; stroke: #cccccc; stroke-linejoin: miter"/>
    </g>
    <g id="patch_8">
     <path d="M 761.04 63.59625 
L 809.04 63.59625 
L 809.04 46.79625 
L 761.04 46.79625 
z
" style="fill: #1f77b4"/>
    </g>
    <g id="text_15">
     <!-- UE1 -->
     <g transform="translate(828.24 63.59625)scale(0.24 -0.24)">
      <defs>
       <path id="DejaVuSans-55" d="M 556 4666 
L 1191 4666 
L 1191 1831 
Q 1191 1081 1462 751 
Q 1734 422 2344 422 
Q 2950 422 3222 751 
Q 3494 1081 3494 1831 
L 3494 4666 
L 4128 4666 
L 4128 1753 
Q 4128 841 3676 375 
Q 3225 -91 2344 -91 
Q 1459 -91 1007 375 
Q 556 841 556 1753 
L 556 4666 
z
" transform="scale(0.015625)"/>
       <path id="DejaVuSans-45" d="M 628 4666 
L 3578 4666 
L 3578 4134 
L 1259 4134 
L 1259 2753 
L 3481 2753 
L 3481 2222 
L 1259 2222 
L 1259 531 
L 3634 531 
L 3634 0 
L 628 0 
L 628 4666 
z
" transform="scale(0.015625)"/>
      </defs>
      <use xlink:href="#DejaVuSans-55"/>
      <use xlink:href="#DejaVuSans-45" x="73.193359"/>
      <use xlink:href="#DejaVuSans-31" x="136.376953"/>
     </g>
    </g>
    <g id="patch_9">
     <path d="M 761.04 98.82375 
L 809.04 98.82375 
L 809.04 82.02375 
L 761.04 82.02375 
z
" style="fill: #ff7f0e"/>
    </g>
    <g id="text_16">
     <!-- UE2 -->
     <g transform="translate(828.24 98.82375)scale(0.24 -0.24)">
      <use xlink:href="#DejaVuSans-55"/>
      <use xlink:href="#DejaVuSans-45" x="73.193359"/>
      <use xlink:href="#DejaVuSans-32" x="136.376953"/>
     </g>
    </g>
    <g id="patch_10">
     <path d="M 761.04 134.05125 
L 809.04 134.05125 
L 809.04 117.25125 
L 761.04 117.25125 
z
" style="fill: #2ca02c"/>
    </g>
    <g id="text_17">
     <!-- UE3 -->
     <g transform="translate(828.24 134.05125)scale(0.24 -0.24)">
      <defs>
       <path id="DejaVuSans-33" d="M 2597 2516 
Q 3050 2419 3304 2112 
Q 3559 1806 3559 1356 
Q 3559 666 3084 287 
Q 2609 -91 1734 -91 
Q 1441 -91 1130 -33 
Q 819 25 488 141 
L 488 750 
Q 750 597 1062 519 
Q 1375 441 1716 441 
Q 2309 441 2620 675 
Q 2931 909 2931 1356 
Q 2931 1769 2642 2001 
Q 2353 2234 1838 2234 
L 1294 2234 
L 1294 2753 
L 1863 2753 
Q 2328 2753 2575 2939 
Q 2822 3125 2822 3475 
Q 2822 3834 2567 4026 
Q 2313 4219 1838 4219 
Q 1578 4219 1281 4162 
Q 984 4106 628 3988 
L 628 4550 
Q 988 4650 1302 4700 
Q 1616 4750 1894 4750 
Q 2613 4750 3031 4423 
Q 3450 4097 3450 3541 
Q 3450 3153 3228 2886 
Q 3006 2619 2597 2516 
z
" transform="scale(0.015625)"/>
      </defs>
      <use xlink:href="#DejaVuSans-55"/>
      <use xlink:href="#DejaVuSans-45" x="73.193359"/>
      <use xlink:href="#DejaVuSans-33" x="136.376953"/>
     </g>
    </g>
   </g>
  </g>
 </g>
 <defs>
  <clipPath id="p621b310ee1">
   <rect x="108.01" y="23.76" width="789.83" height="307.88"/>
  </clipPath>
 </defs>
</svg>
