<?xml version="1.0" encoding="utf-8" standalone="no"?>
<!DOCTYPE svg PUBLIC "-//W3C//DTD SVG 1.1//EN"
  "http://www.w3.org/Graphics/SVG/1.1/DTD/svg11.dtd">
<svg xmlns:xlink="http://www.w3.org/1999/xlink" width="921.6pt" height="410.4pt" viewBox="0 0 921.6 410.4" xmlns="http://www.w3.org/2000/svg" version="1.1">
 <metadata>
  <rdf:RDF xmlns:dc="http://purl.org/dc/elements/1.1/" xmlns:cc="http://creativecommons.org/ns#" xmlns:rdf="http://www.w3.org/1999/02/22-rdf-syntax-ns#">
   <cc:Work>
    <dc:type rdf:resource="http://purl.org/dc/dcmitype/StillImage"/>
    <dc:date>2023-04-11T17:41:54.449161</dc:date>
    <dc:format>image/svg+xml</dc:format>
    <dc:creator>
     <cc:Agent>
      <dc:title>Matplotlib v3.5.3, https://matplotlib.org/</dc:title>
     </cc:Agent>
    </dc:creator>
   </cc:Work>
  </rdf:RDF>
 </metadata>
 <defs>
  <style type="text/css">*{stroke-linejoin: round; stroke-linecap: butt}</style>
 </defs>
 <g id="figure_1">
  <g id="patch_1">
   <path d="M 0 410.4 
L 921.6 410.4 
L 921.6 0 
L 0 0 
L 0 410.4 
z
" style="fill: none"/>
  </g>
  <g id="axes_1">
   <g id="patch_2">
    <path d="M 108.01 331.64 
L 897.84 331.64 
L 897.84 23.76 
L 108.01 23.76 
z
" style="fill: #ffffff"/>
   </g>
   <g id="PolyCollection_1">
    <path d="M 143.911364 186.463339 
L 143.911364 331.64 
L 147.878365 331.64 
L 151.845367 331.64 
L 155.812368 331.64 
L 159.77937 331.64 
L 163.746371 331.64 
L 167.713373 331.64 
L 171.680374 331.64 
L 175.647376 331.64 
L 179.614377 331.64 
L 183.581379 331.64 
L 187.54838 331.64 
L 191.515382 331.64 
L 195.482383 331.64 
L 199.449385 331.64 
L 203.416386 331.64 
L 207.383388 331.64 
L 211.350389 331.64 
L 215.317391 331.64 
L 219.284392 331.64 
L 223.251394 331.64 
L 227.218395 331.64 
L 231.185397 331.64 
L 235.152398 331.64 
L 239.1194 331.64 
L 243.086401 331.64 
L 247.053403 331.64 
L 251.020404 331.64 
L 254.987406 331.64 
L 258.954407 331.64 
L 262.921409 331.64 
L 266.88841 331.64 
L 270.855412 331.64 
L 274.822413 331.64 
L 278.789415 331.64 
L 282.756416 331.64 
L 286.723418 331.64 
L 290.690419 331.64 
L 294.657421 331.64 
L 298.624422 331.64 
L 302.591424 331.64 
L 306.558425 331.64 
L 310.525427 331.64 
L 314.492428 331.64 
L 318.45943 331.64 
L 322.426431 331.64 
L 326.393433 331.64 
L 330.360434 331.64 
L 334.327436 331.64 
L 338.294437 331.64 
L 342.261439 331.64 
L 346.22844 331.64 
L 350.195442 331.64 
L 354.162443 331.64 
L 358.129445 331.64 
L 362.096447 331.64 
L 366.063448 331.64 
L 370.03045 331.64 
L 373.997451 331.64 
L 377.964453 331.64 
L 381.931454 331.64 
L 385.898456 331.64 
L 389.865457 331.64 
L 393.832459 331.64 
L 397.79946 331.64 
L 401.766462 331.64 
L 405.733463 331.64 
L 409.700465 331.64 
L 413.667466 331.64 
L 417.634468 331.64 
L 421.601469 331.64 
L 425.568471 331.64 
L 429.535472 331.64 
L 433.502474 331.64 
L 437.469475 331.64 
L 441.436477 331.64 
L 445.403478 331.64 
L 449.37048 331.64 
L 453.337481 331.64 
L 457.304483 331.64 
L 461.271484 331.64 
L 465.238486 331.64 
L 469.205487 331.64 
L 473.172489 331.64 
L 477.13949 331.64 
L 481.106492 331.64 
L 485.073493 331.64 
L 489.040495 331.64 
L 493.007496 331.64 
L 496.974498 331.64 
L 500.941499 331.64 
L 504.908501 331.64 
L 508.875502 331.64 
L 512.842504 331.64 
L 516.809505 331.64 
L 520.776507 331.64 
L 524.743508 331.64 
L 528.71051 331.64 
L 532.677511 331.64 
L 536.644513 331.64 
L 540.611514 331.64 
L 544.578516 331.64 
L 548.545517 331.64 
L 552.512519 331.64 
L 556.47952 331.64 
L 560.446522 331.64 
L 564.413523 331.64 
L 568.380525 331.64 
L 572.347526 331.64 
L 576.314528 331.64 
L 580.281529 331.64 
L 584.248531 331.64 
L 588.215532 331.64 
L 592.182534 331.64 
L 596.149535 331.64 
L 600.116537 331.64 
L 604.083538 331.64 
L 608.05054 331.64 
L 612.017541 331.64 
L 615.984543 331.64 
L 619.951544 331.64 
L 623.918546 331.64 
L 627.885547 331.64 
L 631.852549 331.64 
L 635.81955 331.64 
L 639.786552 331.64 
L 643.753553 331.64 
L 647.720555 331.64 
L 651.687557 331.64 
L 655.654558 331.64 
L 659.62156 331.64 
L 663.588561 331.64 
L 667.555563 331.64 
L 671.522564 331.64 
L 675.489566 331.64 
L 679.456567 331.64 
L 683.423569 331.64 
L 687.39057 331.64 
L 691.357572 331.64 
L 695.324573 331.64 
L 699.291575 331.64 
L 703.258576 331.64 
L 707.225578 331.64 
L 711.192579 331.64 
L 715.159581 331.64 
L 719.126582 331.64 
L 723.093584 331.64 
L 727.060585 331.64 
L 731.027587 331.64 
L 734.994588 331.64 
L 738.96159 331.64 
L 742.928591 331.64 
L 746.895593 331.64 
L 750.862594 331.64 
L 754.829596 331.64 
L 758.796597 331.64 
L 762.763599 331.64 
L 766.7306 331.64 
L 770.697602 331.64 
L 774.664603 331.64 
L 778.631605 331.64 
L 782.598606 331.64 
L 786.565608 331.64 
L 790.532609 331.64 
L 794.499611 331.64 
L 798.466612 331.64 
L 802.433614 331.64 
L 806.400615 331.64 
L 810.367617 331.64 
L 814.334618 331.64 
L 818.30162 331.64 
L 822.268621 331.64 
L 826.235623 331.64 
L 830.202624 331.64 
L 834.169626 331.64 
L 838.136627 331.64 
L 842.103629 331.64 
L 846.07063 331.64 
L 850.037632 331.64 
L 854.004633 331.64 
L 857.971635 331.64 
L 861.938636 331.64 
L 861.938636 187.487846 
L 861.938636 187.487846 
L 857.971635 187.373423 
L 854.004633 187.39648 
L 850.037632 187.466795 
L 846.07063 187.251554 
L 842.103629 187.706381 
L 838.136627 187.376144 
L 834.169626 188.387476 
L 830.202624 187.46035 
L 826.235623 187.826532 
L 822.268621 187.781135 
L 818.30162 187.600407 
L 814.334618 187.418104 
L 810.367617 187.288645 
L 806.400615 187.567899 
L 802.433614 187.220048 
L 798.466612 188.149895 
L 794.499611 186.935208 
L 790.532609 187.799752 
L 786.565608 187.514483 
L 782.598606 187.317 
L 778.631605 187.419393 
L 774.664603 187.63492 
L 770.697602 186.723977 
L 766.7306 187.596827 
L 762.763599 187.83985 
L 758.796597 187.462642 
L 754.829596 188.264604 
L 750.862594 186.970008 
L 746.895593 187.826962 
L 742.928591 187.440874 
L 738.96159 187.10362 
L 734.994588 186.879787 
L 731.027587 187.420539 
L 727.060585 187.547277 
L 723.093584 187.188972 
L 719.126582 187.930358 
L 715.159581 187.273178 
L 711.192579 187.369557 
L 707.225578 187.645518 
L 703.258576 187.283632 
L 699.291575 188.362844 
L 695.324573 187.11121 
L 691.357572 188.854333 
L 687.39057 187.089872 
L 683.423569 187.224917 
L 679.456567 187.784143 
L 675.489566 187.101615 
L 671.522564 187.110351 
L 667.555563 188.074138 
L 663.588561 187.156034 
L 659.62156 187.485269 
L 655.654558 187.25542 
L 651.687557 187.6501 
L 647.720555 194.585499 
L 643.753553 187.791303 
L 639.786552 187.345068 
L 635.81955 187.506606 
L 631.852549 187.34736 
L 627.885547 187.308694 
L 623.918546 187.306689 
L 619.951544 187.319148 
L 615.984543 187.416672 
L 612.017541 187.269884 
L 608.05054 187.210596 
L 604.083538 188.147174 
L 600.116537 186.303377 
L 596.149535 186.821788 
L 592.182534 186.147567 
L 588.215532 186.468208 
L 584.248531 186.195828 
L 580.281529 187.091448 
L 576.314528 186.420377 
L 572.347526 186.894967 
L 568.380525 186.635761 
L 564.413523 187.140998 
L 560.446522 186.694476 
L 556.47952 187.405215 
L 552.512519 186.855728 
L 548.545517 187.106771 
L 544.578516 187.223915 
L 540.611514 187.17236 
L 536.644513 187.276329 
L 532.677511 187.174938 
L 528.71051 187.96573 
L 524.743508 187.196419 
L 520.776507 187.817796 
L 516.809505 187.277761 
L 512.842504 188.224936 
L 508.875502 187.15002 
L 504.908501 187.29781 
L 500.941499 187.222483 
L 496.974498 187.085863 
L 493.007496 187.573341 
L 489.040495 187.425551 
L 485.073493 187.468084 
L 481.106492 187.432425 
L 477.13949 187.87866 
L 473.172489 187.018842 
L 469.205487 188.042919 
L 465.238486 187.527515 
L 461.271484 187.360248 
L 457.304483 187.646807 
L 453.337481 187.326451 
L 449.37048 187.255993 
L 445.403478 187.574773 
L 441.436477 187.122953 
L 437.469475 187.446459 
L 433.502474 186.931055 
L 429.535472 188.127698 
L 425.568471 186.936354 
L 421.601469 187.011968 
L 417.634468 187.652105 
L 413.667466 187.383878 
L 409.700465 187.638644 
L 405.733463 186.919742 
L 401.766462 187.445314 
L 397.79946 187.153027 
L 393.832459 187.965157 
L 389.865457 187.54785 
L 385.898456 187.551717 
L 381.931454 187.53668 
L 377.964453 187.793881 
L 373.997451 187.743472 
L 370.03045 187.43042 
L 366.063448 187.238092 
L 362.096447 187.428129 
L 358.129445 187.808345 
L 354.162443 186.87234 
L 350.195442 187.435289 
L 346.22844 187.315711 
L 342.261439 187.964441 
L 338.294437 187.583652 
L 334.327436 187.726716 
L 330.360434 187.310842 
L 326.393433 187.60456 
L 322.426431 187.630767 
L 318.45943 186.666265 
L 314.492428 187.560023 
L 310.525427 187.251697 
L 306.558425 187.417818 
L 302.591424 187.203293 
L 298.624422 187.513337 
L 294.657421 187.896847 
L 290.690419 187.448607 
L 286.723418 187.496725 
L 282.756416 188.392632 
L 278.789415 187.355236 
L 274.822413 188.898441 
L 270.855412 187.203006 
L 266.88841 188.076143 
L 262.921409 187.104623 
L 258.954407 187.522789 
L 254.987406 187.193841 
L 251.020404 187.409941 
L 247.053403 187.217041 
L 243.086401 187.357527 
L 239.1194 186.719824 
L 235.152398 187.34335 
L 231.185397 188.083733 
L 227.218395 187.402495 
L 223.251394 187.803046 
L 219.284392 187.595968 
L 215.317391 187.420396 
L 211.350389 187.082139 
L 207.383388 187.425837 
L 203.416386 187.673157 
L 199.449385 188.202595 
L 195.482383 187.413235 
L 191.515382 187.549426 
L 187.54838 187.507609 
L 183.581379 187.222483 
L 179.614377 187.502883 
L 175.647376 187.457057 
L 171.680374 187.70366 
L 167.713373 187.219475 
L 163.746371 188.158774 
L 159.77937 187.062233 
L 155.812368 187.910165 
L 151.845367 187.402924 
L 147.878365 187.62017 
L 143.911364 186.463339 
z
" clip-path="url(#pe53a0b7582)" style="fill: #1f77b4"/>
   </g>
   <g id="PolyCollection_2">
    <path d="M 143.911364 40.49918 
L 143.911364 186.463339 
L 147.878365 187.62017 
L 151.845367 187.402924 
L 155.812368 187.910165 
L 159.77937 187.062233 
L 163.746371 188.158774 
L 167.713373 187.219475 
L 171.680374 187.70366 
L 175.647376 187.457057 
L 179.614377 187.502883 
L 183.581379 187.222483 
L 187.54838 187.507609 
L 191.515382 187.549426 
L 195.482383 187.413235 
L 199.449385 188.202595 
L 203.416386 187.673157 
L 207.383388 187.425837 
L 211.350389 187.082139 
L 215.317391 187.420396 
L 219.284392 187.595968 
L 223.251394 187.803046 
L 227.218395 187.402495 
L 231.185397 188.083733 
L 235.152398 187.34335 
L 239.1194 186.719824 
L 243.086401 187.357527 
L 247.053403 187.217041 
L 251.020404 187.409941 
L 254.987406 187.193841 
L 258.954407 187.522789 
L 262.921409 187.104623 
L 266.88841 188.076143 
L 270.855412 187.203006 
L 274.822413 188.898441 
L 278.789415 187.355236 
L 282.756416 188.392632 
L 286.723418 187.496725 
L 290.690419 187.448607 
L 294.657421 187.896847 
L 298.624422 187.513337 
L 302.591424 187.203293 
L 306.558425 187.417818 
L 310.525427 187.251697 
L 314.492428 187.560023 
L 318.45943 186.666265 
L 322.426431 187.630767 
L 326.393433 187.60456 
L 330.360434 187.310842 
L 334.327436 187.726716 
L 338.294437 187.583652 
L 342.261439 187.964441 
L 346.22844 187.315711 
L 350.195442 187.435289 
L 354.162443 186.87234 
L 358.129445 187.808345 
L 362.096447 187.428129 
L 366.063448 187.238092 
L 370.03045 187.43042 
L 373.997451 187.743472 
L 377.964453 187.793881 
L 381.931454 187.53668 
L 385.898456 187.551717 
L 389.865457 187.54785 
L 393.832459 187.965157 
L 397.79946 187.153027 
L 401.766462 187.445314 
L 405.733463 186.919742 
L 409.700465 187.638644 
L 413.667466 187.383878 
L 417.634468 187.652105 
L 421.601469 187.011968 
L 425.568471 186.936354 
L 429.535472 188.127698 
L 433.502474 186.931055 
L 437.469475 187.446459 
L 441.436477 187.122953 
L 445.403478 187.574773 
L 449.37048 187.255993 
L 453.337481 187.326451 
L 457.304483 187.646807 
L 461.271484 187.360248 
L 465.238486 187.527515 
L 469.205487 188.042919 
L 473.172489 187.018842 
L 477.13949 187.87866 
L 481.106492 187.432425 
L 485.073493 187.468084 
L 489.040495 187.425551 
L 493.007496 187.573341 
L 496.974498 187.085863 
L 500.941499 187.222483 
L 504.908501 187.29781 
L 508.875502 187.15002 
L 512.842504 188.224936 
L 516.809505 187.277761 
L 520.776507 187.817796 
L 524.743508 187.196419 
L 528.71051 187.96573 
L 532.677511 187.174938 
L 536.644513 187.276329 
L 540.611514 187.17236 
L 544.578516 187.223915 
L 548.545517 187.106771 
L 552.512519 186.855728 
L 556.47952 187.405215 
L 560.446522 186.694476 
L 564.413523 187.140998 
L 568.380525 186.635761 
L 572.347526 186.894967 
L 576.314528 186.420377 
L 580.281529 187.091448 
L 584.248531 186.195828 
L 588.215532 186.468208 
L 592.182534 186.147567 
L 596.149535 186.821788 
L 600.116537 186.303377 
L 604.083538 188.147174 
L 608.05054 187.210596 
L 612.017541 187.269884 
L 615.984543 187.416672 
L 619.951544 187.319148 
L 623.918546 187.306689 
L 627.885547 187.308694 
L 631.852549 187.34736 
L 635.81955 187.506606 
L 639.786552 187.345068 
L 643.753553 187.791303 
L 647.720555 194.585499 
L 651.687557 187.6501 
L 655.654558 187.25542 
L 659.62156 187.485269 
L 663.588561 187.156034 
L 667.555563 188.074138 
L 671.522564 187.110351 
L 675.489566 187.101615 
L 679.456567 187.784143 
L 683.423569 187.224917 
L 687.39057 187.089872 
L 691.357572 188.854333 
L 695.324573 187.11121 
L 699.291575 188.362844 
L 703.258576 187.283632 
L 707.225578 187.645518 
L 711.192579 187.369557 
L 715.159581 187.273178 
L 719.126582 187.930358 
L 723.093584 187.188972 
L 727.060585 187.547277 
L 731.027587 187.420539 
L 734.994588 186.879787 
L 738.96159 187.10362 
L 742.928591 187.440874 
L 746.895593 187.826962 
L 750.862594 186.970008 
L 754.829596 188.264604 
L 758.796597 187.462642 
L 762.763599 187.83985 
L 766.7306 187.596827 
L 770.697602 186.723977 
L 774.664603 187.63492 
L 778.631605 187.419393 
L 782.598606 187.317 
L 786.565608 187.514483 
L 790.532609 187.799752 
L 794.499611 186.935208 
L 798.466612 188.149895 
L 802.433614 187.220048 
L 806.400615 187.567899 
L 810.367617 187.288645 
L 814.334618 187.418104 
L 818.30162 187.600407 
L 822.268621 187.781135 
L 826.235623 187.826532 
L 830.202624 187.46035 
L 834.169626 188.387476 
L 838.136627 187.376144 
L 842.103629 187.706381 
L 846.07063 187.251554 
L 850.037632 187.466795 
L 854.004633 187.39648 
L 857.971635 187.373423 
L 861.938636 187.487846 
L 861.938636 40.954724 
L 861.938636 40.954724 
L 857.971635 42.555641 
L 854.004633 41.776162 
L 850.037632 41.641404 
L 846.07063 41.765135 
L 842.103629 42.470003 
L 838.136627 41.202616 
L 834.169626 43.09897 
L 830.202624 41.552472 
L 826.235623 43.073193 
L 822.268621 43.137207 
L 818.30162 41.919513 
L 814.334618 41.835593 
L 810.367617 41.611474 
L 806.400615 41.931829 
L 802.433614 41.108815 
L 798.466612 42.070311 
L 794.499611 41.474137 
L 790.532609 41.703413 
L 786.565608 42.834609 
L 782.598606 41.720741 
L 778.631605 41.535717 
L 774.664603 42.213088 
L 770.697602 40.319169 
L 766.7306 41.718306 
L 762.763599 42.257912 
L 758.796597 42.013028 
L 754.829596 42.764867 
L 750.862594 41.318614 
L 746.895593 41.94529 
L 742.928591 42.463272 
L 738.96159 41.74437 
L 734.994588 40.539135 
L 731.027587 40.904458 
L 727.060585 41.801653 
L 723.093584 41.472133 
L 719.126582 41.860511 
L 715.159581 41.864521 
L 711.192579 41.349261 
L 707.225578 42.134611 
L 703.258576 41.475426 
L 699.291575 43.7709 
L 695.324573 41.286106 
L 691.357572 44.31824 
L 687.39057 41.82471 
L 683.423569 40.930808 
L 679.456567 41.943429 
L 675.489566 40.99697 
L 671.522564 41.118267 
L 667.555563 42.672498 
L 663.588561 42.094369 
L 659.62156 41.254171 
L 655.654558 42.233854 
L 651.687557 41.863089 
L 647.720555 51.301613 
L 643.753553 47.126683 
L 639.786552 41.271069 
L 635.81955 41.620066 
L 631.852549 41.303577 
L 627.885547 42.269799 
L 623.918546 41.391507 
L 619.951544 41.509367 
L 615.984543 41.909059 
L 612.017541 41.075161 
L 608.05054 41.315607 
L 604.083538 42.493346 
L 600.116537 39.907447 
L 596.149535 39.734756 
L 592.182534 39.747198 
L 588.215532 39.34235 
L 584.248531 39.10305 
L 580.281529 40.165793 
L 576.314528 39.046483 
L 572.347526 40.746643 
L 568.380525 39.867778 
L 564.413523 41.032772 
L 560.446522 40.435883 
L 556.47952 40.978926 
L 552.512519 40.406525 
L 548.545517 41.30057 
L 544.578516 41.499342 
L 540.611514 40.836005 
L 536.644513 41.145333 
L 532.677511 42.242446 
L 528.71051 42.578268 
L 524.743508 40.740199 
L 520.776507 42.920963 
L 516.809505 41.312743 
L 512.842504 42.680518 
L 508.875502 41.53543 
L 504.908501 42.22254 
L 500.941499 41.629231 
L 496.974498 40.970906 
L 493.007496 41.232403 
L 489.040495 40.891283 
L 485.073493 42.326222 
L 481.106492 41.247154 
L 477.13949 43.891911 
L 473.172489 40.727024 
L 469.205487 42.516832 
L 465.238486 41.63095 
L 461.271484 41.245149 
L 457.304483 42.028637 
L 453.337481 42.988844 
L 449.37048 41.018451 
L 445.403478 41.580111 
L 441.436477 41.097215 
L 437.469475 42.178432 
L 433.502474 39.978925 
L 429.535472 42.293571 
L 425.568471 41.355848 
L 421.601469 40.901164 
L 417.634468 41.842038 
L 413.667466 42.059856 
L 409.700465 41.382914 
L 405.733463 41.437476 
L 401.766462 41.391793 
L 397.79946 41.229682 
L 393.832459 43.024932 
L 389.865457 41.977512 
L 385.898456 41.405398 
L 381.931454 41.790769 
L 377.964453 42.173563 
L 373.997451 42.345555 
L 370.03045 42.418591 
L 366.063448 41.250018 
L 362.096447 42.08277 
L 358.129445 42.805538 
L 354.162443 40.851041 
L 350.195442 41.364297 
L 346.22844 41.178127 
L 342.261439 42.487617 
L 338.294437 41.604456 
L 334.327436 42.739949 
L 330.360434 41.748523 
L 326.393433 41.988539 
L 322.426431 42.575976 
L 318.45943 40.182692 
L 314.492428 42.002287 
L 310.525427 41.077453 
L 306.558425 41.311167 
L 302.591424 41.031769 
L 298.624422 41.620066 
L 294.657421 42.245883 
L 290.690419 42.765154 
L 286.723418 41.991403 
L 282.756416 43.567546 
L 278.789415 41.633384 
L 274.822413 45.052178 
L 270.855412 41.683364 
L 266.88841 41.927246 
L 262.921409 41.060268 
L 258.954407 41.946579 
L 254.987406 41.895454 
L 251.020404 41.328639 
L 247.053403 41.740933 
L 243.086401 41.276511 
L 239.1194 40.310003 
L 235.152398 41.054396 
L 231.185397 42.057565 
L 227.218395 41.811534 
L 223.251394 42.593161 
L 219.284392 42.243305 
L 215.317391 42.101673 
L 211.350389 40.976778 
L 207.383388 41.674628 
L 203.416386 42.588722 
L 199.449385 42.876712 
L 195.482383 41.984243 
L 191.515382 41.864092 
L 187.54838 41.75955 
L 183.581379 41.79435 
L 179.614377 41.623646 
L 175.647376 42.188457 
L 171.680374 42.024771 
L 167.713373 41.261904 
L 163.746371 43.921268 
L 159.77937 40.320314 
L 155.812368 42.986982 
L 151.845367 41.657873 
L 147.878365 41.638397 
L 143.911364 40.49918 
z
" clip-path="url(#pe53a0b7582)" style="fill: #ff7f0e"/>
   </g>
   <g id="matplotlib.axis_1">
    <g id="xtick_1">
     <g id="line2d_1">
      <path d="M 143.911364 331.64 
L 143.911364 23.76 
" clip-path="url(#pe53a0b7582)" style="fill: none; stroke-dasharray: 5.12,1.28,0.8,1.28; stroke-dashoffset: 0; stroke: #b0b0b0; stroke-width: 0.8"/>
     </g>
     <g id="line2d_2">
      <defs>
       <path id="m83cffd00f8" d="M 0 0 
L 0 3.5 
" style="stroke: #000000; stroke-width: 0.8"/>
      </defs>
      <g>
       <use xlink:href="#m83cffd00f8" x="143.911364" y="331.64" style="stroke: #000000; stroke-width: 0.8"/>
      </g>
     </g>
     <g id="text_1">
      <!-- 0 -->
      <g transform="translate(136.912614 355.356563)scale(0.22 -0.22)">
       <defs>
        <path id="DejaVuSans-30" d="M 2034 4250 
Q 1547 4250 1301 3770 
Q 1056 3291 1056 2328 
Q 1056 1369 1301 889 
Q 1547 409 2034 409 
Q 2525 409 2770 889 
Q 3016 1369 3016 2328 
Q 3016 3291 2770 3770 
Q 2525 4250 2034 4250 
z
M 2034 4750 
Q 2819 4750 3233 4129 
Q 3647 3509 3647 2328 
Q 3647 1150 3233 529 
Q 2819 -91 2034 -91 
Q 1250 -91 836 529 
Q 422 1150 422 2328 
Q 422 3509 836 4129 
Q 1250 4750 2034 4750 
z
" transform="scale(0.015625)"/>
       </defs>
       <use xlink:href="#DejaVuSans-30"/>
      </g>
     </g>
    </g>
    <g id="xtick_2">
     <g id="line2d_3">
      <path d="M 243.086401 331.64 
L 243.086401 23.76 
" clip-path="url(#pe53a0b7582)" style="fill: none; stroke-dasharray: 5.12,1.28,0.8,1.28; stroke-dashoffset: 0; stroke: #b0b0b0; stroke-width: 0.8"/>
     </g>
     <g id="line2d_4">
      <g>
       <use xlink:href="#m83cffd00f8" x="243.086401" y="331.64" style="stroke: #000000; stroke-width: 0.8"/>
      </g>
     </g>
     <g id="text_2">
      <!-- 25 -->
      <g transform="translate(229.088901 355.356563)scale(0.22 -0.22)">
       <defs>
        <path id="DejaVuSans-32" d="M 1228 531 
L 3431 531 
L 3431 0 
L 469 0 
L 469 531 
Q 828 903 1448 1529 
Q 2069 2156 2228 2338 
Q 2531 2678 2651 2914 
Q 2772 3150 2772 3378 
Q 2772 3750 2511 3984 
Q 2250 4219 1831 4219 
Q 1534 4219 1204 4116 
Q 875 4013 500 3803 
L 500 4441 
Q 881 4594 1212 4672 
Q 1544 4750 1819 4750 
Q 2544 4750 2975 4387 
Q 3406 4025 3406 3419 
Q 3406 3131 3298 2873 
Q 3191 2616 2906 2266 
Q 2828 2175 2409 1742 
Q 1991 1309 1228 531 
z
" transform="scale(0.015625)"/>
        <path id="DejaVuSans-35" d="M 691 4666 
L 3169 4666 
L 3169 4134 
L 1269 4134 
L 1269 2991 
Q 1406 3038 1543 3061 
Q 1681 3084 1819 3084 
Q 2600 3084 3056 2656 
Q 3513 2228 3513 1497 
Q 3513 744 3044 326 
Q 2575 -91 1722 -91 
Q 1428 -91 1123 -41 
Q 819 9 494 109 
L 494 744 
Q 775 591 1075 516 
Q 1375 441 1709 441 
Q 2250 441 2565 725 
Q 2881 1009 2881 1497 
Q 2881 1984 2565 2268 
Q 2250 2553 1709 2553 
Q 1456 2553 1204 2497 
Q 953 2441 691 2322 
L 691 4666 
z
" transform="scale(0.015625)"/>
       </defs>
       <use xlink:href="#DejaVuSans-32"/>
       <use xlink:href="#DejaVuSans-35" x="63.623047"/>
      </g>
     </g>
    </g>
    <g id="xtick_3">
     <g id="line2d_5">
      <path d="M 342.261439 331.64 
L 342.261439 23.76 
" clip-path="url(#pe53a0b7582)" style="fill: none; stroke-dasharray: 5.12,1.28,0.8,1.28; stroke-dashoffset: 0; stroke: #b0b0b0; stroke-width: 0.8"/>
     </g>
     <g id="line2d_6">
      <g>
       <use xlink:href="#m83cffd00f8" x="342.261439" y="331.64" style="stroke: #000000; stroke-width: 0.8"/>
      </g>
     </g>
     <g id="text_3">
      <!-- 50 -->
      <g transform="translate(328.263939 355.356563)scale(0.22 -0.22)">
       <use xlink:href="#DejaVuSans-35"/>
       <use xlink:href="#DejaVuSans-30" x="63.623047"/>
      </g>
     </g>
    </g>
    <g id="xtick_4">
     <g id="line2d_7">
      <path d="M 441.436477 331.64 
L 441.436477 23.76 
" clip-path="url(#pe53a0b7582)" style="fill: none; stroke-dasharray: 5.12,1.28,0.8,1.28; stroke-dashoffset: 0; stroke: #b0b0b0; stroke-width: 0.8"/>
     </g>
     <g id="line2d_8">
      <g>
       <use xlink:href="#m83cffd00f8" x="441.436477" y="331.64" style="stroke: #000000; stroke-width: 0.8"/>
      </g>
     </g>
     <g id="text_4">
      <!-- 75 -->
      <g transform="translate(427.438977 355.356563)scale(0.22 -0.22)">
       <defs>
        <path id="DejaVuSans-37" d="M 525 4666 
L 3525 4666 
L 3525 4397 
L 1831 0 
L 1172 0 
L 2766 4134 
L 525 4134 
L 525 4666 
z
" transform="scale(0.015625)"/>
       </defs>
       <use xlink:href="#DejaVuSans-37"/>
       <use xlink:href="#DejaVuSans-35" x="63.623047"/>
      </g>
     </g>
    </g>
    <g id="xtick_5">
     <g id="line2d_9">
      <path d="M 540.611514 331.64 
L 540.611514 23.76 
" clip-path="url(#pe53a0b7582)" style="fill: none; stroke-dasharray: 5.12,1.28,0.8,1.28; stroke-dashoffset: 0; stroke: #b0b0b0; stroke-width: 0.8"/>
     </g>
     <g id="line2d_10">
      <g>
       <use xlink:href="#m83cffd00f8" x="540.611514" y="331.64" style="stroke: #000000; stroke-width: 0.8"/>
      </g>
     </g>
     <g id="text_5">
      <!-- 100 -->
      <g transform="translate(519.615264 355.356563)scale(0.22 -0.22)">
       <defs>
        <path id="DejaVuSans-31" d="M 794 531 
L 1825 531 
L 1825 4091 
L 703 3866 
L 703 4441 
L 1819 4666 
L 2450 4666 
L 2450 531 
L 3481 531 
L 3481 0 
L 794 0 
L 794 531 
z
" transform="scale(0.015625)"/>
       </defs>
       <use xlink:href="#DejaVuSans-31"/>
       <use xlink:href="#DejaVuSans-30" x="63.623047"/>
       <use xlink:href="#DejaVuSans-30" x="127.246094"/>
      </g>
     </g>
    </g>
    <g id="xtick_6">
     <g id="line2d_11">
      <path d="M 639.786552 331.64 
L 639.786552 23.76 
" clip-path="url(#pe53a0b7582)" style="fill: none; stroke-dasharray: 5.12,1.28,0.8,1.28; stroke-dashoffset: 0; stroke: #b0b0b0; stroke-width: 0.8"/>
     </g>
     <g id="line2d_12">
      <g>
       <use xlink:href="#m83cffd00f8" x="639.786552" y="331.64" style="stroke: #000000; stroke-width: 0.8"/>
      </g>
     </g>
     <g id="text_6">
      <!-- 125 -->
      <g transform="translate(618.790302 355.356563)scale(0.22 -0.22)">
       <use xlink:href="#DejaVuSans-31"/>
       <use xlink:href="#DejaVuSans-32" x="63.623047"/>
       <use xlink:href="#DejaVuSans-35" x="127.246094"/>
      </g>
     </g>
    </g>
    <g id="xtick_7">
     <g id="line2d_13">
      <path d="M 738.96159 331.64 
L 738.96159 23.76 
" clip-path="url(#pe53a0b7582)" style="fill: none; stroke-dasharray: 5.12,1.28,0.8,1.28; stroke-dashoffset: 0; stroke: #b0b0b0; stroke-width: 0.8"/>
     </g>
     <g id="line2d_14">
      <g>
       <use xlink:href="#m83cffd00f8" x="738.96159" y="331.64" style="stroke: #000000; stroke-width: 0.8"/>
      </g>
     </g>
     <g id="text_7">
      <!-- 150 -->
      <g transform="translate(717.96534 355.356563)scale(0.22 -0.22)">
       <use xlink:href="#DejaVuSans-31"/>
       <use xlink:href="#DejaVuSans-35" x="63.623047"/>
       <use xlink:href="#DejaVuSans-30" x="127.246094"/>
      </g>
     </g>
    </g>
    <g id="xtick_8">
     <g id="line2d_15">
      <path d="M 838.136627 331.64 
L 838.136627 23.76 
" clip-path="url(#pe53a0b7582)" style="fill: none; stroke-dasharray: 5.12,1.28,0.8,1.28; stroke-dashoffset: 0; stroke: #b0b0b0; stroke-width: 0.8"/>
     </g>
     <g id="line2d_16">
      <g>
       <use xlink:href="#m83cffd00f8" x="838.136627" y="331.64" style="stroke: #000000; stroke-width: 0.8"/>
      </g>
     </g>
     <g id="text_8">
      <!-- 175 -->
      <g transform="translate(817.140377 355.356563)scale(0.22 -0.22)">
       <use xlink:href="#DejaVuSans-31"/>
       <use xlink:href="#DejaVuSans-37" x="63.623047"/>
       <use xlink:href="#DejaVuSans-35" x="127.246094"/>
      </g>
     </g>
    </g>
    <g id="text_9">
     <!-- Time (s) -->
     <g transform="translate(454.135625 382.168125)scale(0.24 -0.24)">
      <defs>
       <path id="DejaVuSans-54" d="M -19 4666 
L 3928 4666 
L 3928 4134 
L 2272 4134 
L 2272 0 
L 1638 0 
L 1638 4134 
L -19 4134 
L -19 4666 
z
" transform="scale(0.015625)"/>
       <path id="DejaVuSans-69" d="M 603 3500 
L 1178 3500 
L 1178 0 
L 603 0 
L 603 3500 
z
M 603 4863 
L 1178 4863 
L 1178 4134 
L 603 4134 
L 603 4863 
z
" transform="scale(0.015625)"/>
       <path id="DejaVuSans-6d" d="M 3328 2828 
Q 3544 3216 3844 3400 
Q 4144 3584 4550 3584 
Q 5097 3584 5394 3201 
Q 5691 2819 5691 2113 
L 5691 0 
L 5113 0 
L 5113 2094 
Q 5113 2597 4934 2840 
Q 4756 3084 4391 3084 
Q 3944 3084 3684 2787 
Q 3425 2491 3425 1978 
L 3425 0 
L 2847 0 
L 2847 2094 
Q 2847 2600 2669 2842 
Q 2491 3084 2119 3084 
Q 1678 3084 1418 2786 
Q 1159 2488 1159 1978 
L 1159 0 
L 581 0 
L 581 3500 
L 1159 3500 
L 1159 2956 
Q 1356 3278 1631 3431 
Q 1906 3584 2284 3584 
Q 2666 3584 2933 3390 
Q 3200 3197 3328 2828 
z
" transform="scale(0.015625)"/>
       <path id="DejaVuSans-65" d="M 3597 1894 
L 3597 1613 
L 953 1613 
Q 991 1019 1311 708 
Q 1631 397 2203 397 
Q 2534 397 2845 478 
Q 3156 559 3463 722 
L 3463 178 
Q 3153 47 2828 -22 
Q 2503 -91 2169 -91 
Q 1331 -91 842 396 
Q 353 884 353 1716 
Q 353 2575 817 3079 
Q 1281 3584 2069 3584 
Q 2775 3584 3186 3129 
Q 3597 2675 3597 1894 
z
M 3022 2063 
Q 3016 2534 2758 2815 
Q 2500 3097 2075 3097 
Q 1594 3097 1305 2825 
Q 1016 2553 972 2059 
L 3022 2063 
z
" transform="scale(0.015625)"/>
       <path id="DejaVuSans-20" transform="scale(0.015625)"/>
       <path id="DejaVuSans-28" d="M 1984 4856 
Q 1566 4138 1362 3434 
Q 1159 2731 1159 2009 
Q 1159 1288 1364 580 
Q 1569 -128 1984 -844 
L 1484 -844 
Q 1016 -109 783 600 
Q 550 1309 550 2009 
Q 550 2706 781 3412 
Q 1013 4119 1484 4856 
L 1984 4856 
z
" transform="scale(0.015625)"/>
       <path id="DejaVuSans-73" d="M 2834 3397 
L 2834 2853 
Q 2591 2978 2328 3040 
Q 2066 3103 1784 3103 
Q 1356 3103 1142 2972 
Q 928 2841 928 2578 
Q 928 2378 1081 2264 
Q 1234 2150 1697 2047 
L 1894 2003 
Q 2506 1872 2764 1633 
Q 3022 1394 3022 966 
Q 3022 478 2636 193 
Q 2250 -91 1575 -91 
Q 1294 -91 989 -36 
Q 684 19 347 128 
L 347 722 
Q 666 556 975 473 
Q 1284 391 1588 391 
Q 1994 391 2212 530 
Q 2431 669 2431 922 
Q 2431 1156 2273 1281 
Q 2116 1406 1581 1522 
L 1381 1569 
Q 847 1681 609 1914 
Q 372 2147 372 2553 
Q 372 3047 722 3315 
Q 1072 3584 1716 3584 
Q 2034 3584 2315 3537 
Q 2597 3491 2834 3397 
z
" transform="scale(0.015625)"/>
       <path id="DejaVuSans-29" d="M 513 4856 
L 1013 4856 
Q 1481 4119 1714 3412 
Q 1947 2706 1947 2009 
Q 1947 1309 1714 600 
Q 1481 -109 1013 -844 
L 513 -844 
Q 928 -128 1133 580 
Q 1338 1288 1338 2009 
Q 1338 2731 1133 3434 
Q 928 4138 513 4856 
z
" transform="scale(0.015625)"/>
      </defs>
      <use xlink:href="#DejaVuSans-54"/>
      <use xlink:href="#DejaVuSans-69" x="57.958984"/>
      <use xlink:href="#DejaVuSans-6d" x="85.742188"/>
      <use xlink:href="#DejaVuSans-65" x="183.154297"/>
      <use xlink:href="#DejaVuSans-20" x="244.677734"/>
      <use xlink:href="#DejaVuSans-28" x="276.464844"/>
      <use xlink:href="#DejaVuSans-73" x="315.478516"/>
      <use xlink:href="#DejaVuSans-29" x="367.578125"/>
     </g>
    </g>
   </g>
   <g id="matplotlib.axis_2">
    <g id="ytick_1">
     <g id="line2d_17">
      <path d="M 108.01 331.64 
L 897.84 331.64 
" clip-path="url(#pe53a0b7582)" style="fill: none; stroke-dasharray: 5.12,1.28,0.8,1.28; stroke-dashoffset: 0; stroke: #b0b0b0; stroke-width: 0.8"/>
     </g>
     <g id="line2d_18">
      <defs>
       <path id="mb34627022b" d="M 0 0 
L -3.5 0 
" style="stroke: #000000; stroke-width: 0.8"/>
      </defs>
      <g>
       <use xlink:href="#mb34627022b" x="108.01" y="331.64" style="stroke: #000000; stroke-width: 0.8"/>
      </g>
     </g>
     <g id="text_10">
      <!-- 0 -->
      <g transform="translate(87.0125 339.998281)scale(0.22 -0.22)">
       <use xlink:href="#DejaVuSans-30"/>
      </g>
     </g>
    </g>
    <g id="ytick_2">
     <g id="line2d_19">
      <path d="M 108.01 242.135277 
L 897.84 242.135277 
" clip-path="url(#pe53a0b7582)" style="fill: none; stroke-dasharray: 5.12,1.28,0.8,1.28; stroke-dashoffset: 0; stroke: #b0b0b0; stroke-width: 0.8"/>
     </g>
     <g id="line2d_20">
      <g>
       <use xlink:href="#mb34627022b" x="108.01" y="242.135277" style="stroke: #000000; stroke-width: 0.8"/>
      </g>
     </g>
     <g id="text_11">
      <!-- 5 -->
      <g transform="translate(87.0125 250.493558)scale(0.22 -0.22)">
       <use xlink:href="#DejaVuSans-35"/>
      </g>
     </g>
    </g>
    <g id="ytick_3">
     <g id="line2d_21">
      <path d="M 108.01 152.630554 
L 897.84 152.630554 
" clip-path="url(#pe53a0b7582)" style="fill: none; stroke-dasharray: 5.12,1.28,0.8,1.28; stroke-dashoffset: 0; stroke: #b0b0b0; stroke-width: 0.8"/>
     </g>
     <g id="line2d_22">
      <g>
       <use xlink:href="#mb34627022b" x="108.01" y="152.630554" style="stroke: #000000; stroke-width: 0.8"/>
      </g>
     </g>
     <g id="text_12">
      <!-- 10 -->
      <g transform="translate(73.015 160.988835)scale(0.22 -0.22)">
       <use xlink:href="#DejaVuSans-31"/>
       <use xlink:href="#DejaVuSans-30" x="63.623047"/>
      </g>
     </g>
    </g>
    <g id="ytick_4">
     <g id="line2d_23">
      <path d="M 108.01 63.125831 
L 897.84 63.125831 
" clip-path="url(#pe53a0b7582)" style="fill: none; stroke-dasharray: 5.12,1.28,0.8,1.28; stroke-dashoffset: 0; stroke: #b0b0b0; stroke-width: 0.8"/>
     </g>
     <g id="line2d_24">
      <g>
       <use xlink:href="#mb34627022b" x="108.01" y="63.125831" style="stroke: #000000; stroke-width: 0.8"/>
      </g>
     </g>
     <g id="text_13">
      <!-- 15 -->
      <g transform="translate(73.015 71.484112)scale(0.22 -0.22)">
       <use xlink:href="#DejaVuSans-31"/>
       <use xlink:href="#DejaVuSans-35" x="63.623047"/>
      </g>
     </g>
    </g>
    <g id="text_14">
     <!-- Throughput (Mbps) -->
     <g transform="translate(64.02375 292.414375)rotate(-90)scale(0.24 -0.24)">
      <defs>
       <path id="DejaVuSans-68" d="M 3513 2113 
L 3513 0 
L 2938 0 
L 2938 2094 
Q 2938 2591 2744 2837 
Q 2550 3084 2163 3084 
Q 1697 3084 1428 2787 
Q 1159 2491 1159 1978 
L 1159 0 
L 581 0 
L 581 4863 
L 1159 4863 
L 1159 2956 
Q 1366 3272 1645 3428 
Q 1925 3584 2291 3584 
Q 2894 3584 3203 3211 
Q 3513 2838 3513 2113 
z
" transform="scale(0.015625)"/>
       <path id="DejaVuSans-72" d="M 2631 2963 
Q 2534 3019 2420 3045 
Q 2306 3072 2169 3072 
Q 1681 3072 1420 2755 
Q 1159 2438 1159 1844 
L 1159 0 
L 581 0 
L 581 3500 
L 1159 3500 
L 1159 2956 
Q 1341 3275 1631 3429 
Q 1922 3584 2338 3584 
Q 2397 3584 2469 3576 
Q 2541 3569 2628 3553 
L 2631 2963 
z
" transform="scale(0.015625)"/>
       <path id="DejaVuSans-6f" d="M 1959 3097 
Q 1497 3097 1228 2736 
Q 959 2375 959 1747 
Q 959 1119 1226 758 
Q 1494 397 1959 397 
Q 2419 397 2687 759 
Q 2956 1122 2956 1747 
Q 2956 2369 2687 2733 
Q 2419 3097 1959 3097 
z
M 1959 3584 
Q 2709 3584 3137 3096 
Q 3566 2609 3566 1747 
Q 3566 888 3137 398 
Q 2709 -91 1959 -91 
Q 1206 -91 779 398 
Q 353 888 353 1747 
Q 353 2609 779 3096 
Q 1206 3584 1959 3584 
z
" transform="scale(0.015625)"/>
       <path id="DejaVuSans-75" d="M 544 1381 
L 544 3500 
L 1119 3500 
L 1119 1403 
Q 1119 906 1312 657 
Q 1506 409 1894 409 
Q 2359 409 2629 706 
Q 2900 1003 2900 1516 
L 2900 3500 
L 3475 3500 
L 3475 0 
L 2900 0 
L 2900 538 
Q 2691 219 2414 64 
Q 2138 -91 1772 -91 
Q 1169 -91 856 284 
Q 544 659 544 1381 
z
M 1991 3584 
L 1991 3584 
z
" transform="scale(0.015625)"/>
       <path id="DejaVuSans-67" d="M 2906 1791 
Q 2906 2416 2648 2759 
Q 2391 3103 1925 3103 
Q 1463 3103 1205 2759 
Q 947 2416 947 1791 
Q 947 1169 1205 825 
Q 1463 481 1925 481 
Q 2391 481 2648 825 
Q 2906 1169 2906 1791 
z
M 3481 434 
Q 3481 -459 3084 -895 
Q 2688 -1331 1869 -1331 
Q 1566 -1331 1297 -1286 
Q 1028 -1241 775 -1147 
L 775 -588 
Q 1028 -725 1275 -790 
Q 1522 -856 1778 -856 
Q 2344 -856 2625 -561 
Q 2906 -266 2906 331 
L 2906 616 
Q 2728 306 2450 153 
Q 2172 0 1784 0 
Q 1141 0 747 490 
Q 353 981 353 1791 
Q 353 2603 747 3093 
Q 1141 3584 1784 3584 
Q 2172 3584 2450 3431 
Q 2728 3278 2906 2969 
L 2906 3500 
L 3481 3500 
L 3481 434 
z
" transform="scale(0.015625)"/>
       <path id="DejaVuSans-70" d="M 1159 525 
L 1159 -1331 
L 581 -1331 
L 581 3500 
L 1159 3500 
L 1159 2969 
Q 1341 3281 1617 3432 
Q 1894 3584 2278 3584 
Q 2916 3584 3314 3078 
Q 3713 2572 3713 1747 
Q 3713 922 3314 415 
Q 2916 -91 2278 -91 
Q 1894 -91 1617 61 
Q 1341 213 1159 525 
z
M 3116 1747 
Q 3116 2381 2855 2742 
Q 2594 3103 2138 3103 
Q 1681 3103 1420 2742 
Q 1159 2381 1159 1747 
Q 1159 1113 1420 752 
Q 1681 391 2138 391 
Q 2594 391 2855 752 
Q 3116 1113 3116 1747 
z
" transform="scale(0.015625)"/>
       <path id="DejaVuSans-74" d="M 1172 4494 
L 1172 3500 
L 2356 3500 
L 2356 3053 
L 1172 3053 
L 1172 1153 
Q 1172 725 1289 603 
Q 1406 481 1766 481 
L 2356 481 
L 2356 0 
L 1766 0 
Q 1100 0 847 248 
Q 594 497 594 1153 
L 594 3053 
L 172 3053 
L 172 3500 
L 594 3500 
L 594 4494 
L 1172 4494 
z
" transform="scale(0.015625)"/>
       <path id="DejaVuSans-4d" d="M 628 4666 
L 1569 4666 
L 2759 1491 
L 3956 4666 
L 4897 4666 
L 4897 0 
L 4281 0 
L 4281 4097 
L 3078 897 
L 2444 897 
L 1241 4097 
L 1241 0 
L 628 0 
L 628 4666 
z
" transform="scale(0.015625)"/>
       <path id="DejaVuSans-62" d="M 3116 1747 
Q 3116 2381 2855 2742 
Q 2594 3103 2138 3103 
Q 1681 3103 1420 2742 
Q 1159 2381 1159 1747 
Q 1159 1113 1420 752 
Q 1681 391 2138 391 
Q 2594 391 2855 752 
Q 3116 1113 3116 1747 
z
M 1159 2969 
Q 1341 3281 1617 3432 
Q 1894 3584 2278 3584 
Q 2916 3584 3314 3078 
Q 3713 2572 3713 1747 
Q 3713 922 3314 415 
Q 2916 -91 2278 -91 
Q 1894 -91 1617 61 
Q 1341 213 1159 525 
L 1159 0 
L 581 0 
L 581 4863 
L 1159 4863 
L 1159 2969 
z
" transform="scale(0.015625)"/>
      </defs>
      <use xlink:href="#DejaVuSans-54"/>
      <use xlink:href="#DejaVuSans-68" x="61.083984"/>
      <use xlink:href="#DejaVuSans-72" x="124.462891"/>
      <use xlink:href="#DejaVuSans-6f" x="163.326172"/>
      <use xlink:href="#DejaVuSans-75" x="224.507812"/>
      <use xlink:href="#DejaVuSans-67" x="287.886719"/>
      <use xlink:href="#DejaVuSans-68" x="351.363281"/>
      <use xlink:href="#DejaVuSans-70" x="414.742188"/>
      <use xlink:href="#DejaVuSans-75" x="478.21875"/>
      <use xlink:href="#DejaVuSans-74" x="541.597656"/>
      <use xlink:href="#DejaVuSans-20" x="580.806641"/>
      <use xlink:href="#DejaVuSans-28" x="612.59375"/>
      <use xlink:href="#DejaVuSans-4d" x="651.607422"/>
      <use xlink:href="#DejaVuSans-62" x="737.886719"/>
      <use xlink:href="#DejaVuSans-70" x="801.363281"/>
      <use xlink:href="#DejaVuSans-73" x="864.839844"/>
      <use xlink:href="#DejaVuSans-29" x="916.939453"/>
     </g>
    </g>
   </g>
   <g id="patch_3">
    <path d="M 108.01 331.64 
L 108.01 23.76 
" style="fill: none; stroke: #000000; stroke-width: 0.8; stroke-linejoin: miter; stroke-linecap: square"/>
   </g>
   <g id="patch_4">
    <path d="M 897.84 331.64 
L 897.84 23.76 
" style="fill: none; stroke: #000000; stroke-width: 0.8; stroke-linejoin: miter; stroke-linecap: square"/>
   </g>
   <g id="patch_5">
    <path d="M 108.01 331.64 
L 897.84 331.64 
" style="fill: none; stroke: #000000; stroke-width: 0.8; stroke-linejoin: miter; stroke-linecap: square"/>
   </g>
   <g id="patch_6">
    <path d="M 108.01 23.76 
L 897.84 23.76 
" style="fill: none; stroke: #000000; stroke-width: 0.8; stroke-linejoin: miter; stroke-linecap: square"/>
   </g>
   <g id="legend_1">
    <g id="patch_7">
     <path d="M 756.24 113.415 
L 881.04 113.415 
Q 885.84 113.415 885.84 108.615 
L 885.84 40.56 
Q 885.84 35.76 881.04 35.76 
L 756.24 35.76 
Q 751.44 35.76 751.44 40.56 
L 751.44 108.615 
Q 751.44 113.415 756.24 113.415 
z
" style="fill: #ffffff; opacity: 0.8; stroke: #cccccc; stroke-linejoin: miter"/>
    </g>
    <g id="patch_8">
     <path d="M 761.04 63.59625 
L 809.04 63.59625 
L 809.04 46.79625 
L 761.04 46.79625 
z
" style="fill: #1f77b4"/>
    </g>
    <g id="text_15">
     <!-- UE1 -->
     <g transform="translate(828.24 63.59625)scale(0.24 -0.24)">
      <defs>
       <path id="DejaVuSans-55" d="M 556 4666 
L 1191 4666 
L 1191 1831 
Q 1191 1081 1462 751 
Q 1734 422 2344 422 
Q 2950 422 3222 751 
Q 3494 1081 3494 1831 
L 3494 4666 
L 4128 4666 
L 4128 1753 
Q 4128 841 3676 375 
Q 3225 -91 2344 -91 
Q 1459 -91 1007 375 
Q 556 841 556 1753 
L 556 4666 
z
" transform="scale(0.015625)"/>
       <path id="DejaVuSans-45" d="M 628 4666 
L 3578 4666 
L 3578 4134 
L 1259 4134 
L 1259 2753 
L 3481 2753 
L 3481 2222 
L 1259 2222 
L 1259 531 
L 3634 531 
L 3634 0 
L 628 0 
L 628 4666 
z
" transform="scale(0.015625)"/>
      </defs>
      <use xlink:href="#DejaVuSans-55"/>
      <use xlink:href="#DejaVuSans-45" x="73.193359"/>
      <use xlink:href="#DejaVuSans-31" x="136.376953"/>
     </g>
    </g>
    <g id="patch_9">
     <path d="M 761.04 98.82375 
L 809.04 98.82375 
L 809.04 82.02375 
L 761.04 82.02375 
z
" style="fill: #ff7f0e"/>
    </g>
    <g id="text_16">
     <!-- UE2 -->
     <g transform="translate(828.24 98.82375)scale(0.24 -0.24)">
      <use xlink:href="#DejaVuSans-55"/>
      <use xlink:href="#DejaVuSans-45" x="73.193359"/>
      <use xlink:href="#DejaVuSans-32" x="136.376953"/>
     </g>
    </g>
   </g>
  </g>
 </g>
 <defs>
  <clipPath id="pe53a0b7582">
   <rect x="108.01" y="23.76" width="789.83" height="307.88"/>
  </clipPath>
 </defs>
</svg>
