<?xml version="1.0" encoding="utf-8" standalone="no"?>
<!DOCTYPE svg PUBLIC "-//W3C//DTD SVG 1.1//EN"
  "http://www.w3.org/Graphics/SVG/1.1/DTD/svg11.dtd">
<svg xmlns:xlink="http://www.w3.org/1999/xlink" width="921.6pt" height="410.4pt" viewBox="0 0 921.6 410.4" xmlns="http://www.w3.org/2000/svg" version="1.1">
 <metadata>
  <rdf:RDF xmlns:dc="http://purl.org/dc/elements/1.1/" xmlns:cc="http://creativecommons.org/ns#" xmlns:rdf="http://www.w3.org/1999/02/22-rdf-syntax-ns#">
   <cc:Work>
    <dc:type rdf:resource="http://purl.org/dc/dcmitype/StillImage"/>
    <dc:date>2023-04-11T15:18:55.334080</dc:date>
    <dc:format>image/svg+xml</dc:format>
    <dc:creator>
     <cc:Agent>
      <dc:title>Matplotlib v3.5.3, https://matplotlib.org/</dc:title>
     </cc:Agent>
    </dc:creator>
   </cc:Work>
  </rdf:RDF>
 </metadata>
 <defs>
  <style type="text/css">*{stroke-linejoin: round; stroke-linecap: butt}</style>
 </defs>
 <g id="figure_1">
  <g id="patch_1">
   <path d="M 0 410.4 
L 921.6 410.4 
L 921.6 0 
L 0 0 
L 0 410.4 
z
" style="fill: none"/>
  </g>
  <g id="axes_1">
   <g id="patch_2">
    <path d="M 101.01 331.64 
L 897.84 331.64 
L 897.84 23.76 
L 101.01 23.76 
z
" style="fill: #ffffff"/>
   </g>
   <g id="PolyCollection_1">
    <path d="M 137.229545 230.542965 
L 137.229545 331.64 
L 141.166453 331.64 
L 145.10336 331.64 
L 149.040267 331.64 
L 152.977174 331.64 
L 156.914081 331.64 
L 160.850988 331.64 
L 164.787895 331.64 
L 168.724802 331.64 
L 172.661709 331.64 
L 176.598617 331.64 
L 180.535524 331.64 
L 184.472431 331.64 
L 188.409338 331.64 
L 192.346245 331.64 
L 196.283152 331.64 
L 200.220059 331.64 
L 204.156966 331.64 
L 208.093874 331.64 
L 212.030781 331.64 
L 215.967688 331.64 
L 219.904595 331.64 
L 223.841502 331.64 
L 227.778409 331.64 
L 231.715316 331.64 
L 235.652223 331.64 
L 239.58913 331.64 
L 243.526038 331.64 
L 247.462945 331.64 
L 251.399852 331.64 
L 255.336759 331.64 
L 259.273666 331.64 
L 263.210573 331.64 
L 267.14748 331.64 
L 271.084387 331.64 
L 275.021294 331.64 
L 278.958202 331.64 
L 282.895109 331.64 
L 286.832016 331.64 
L 290.768923 331.64 
L 294.70583 331.64 
L 298.642737 331.64 
L 302.579644 331.64 
L 306.516551 331.64 
L 310.453458 331.64 
L 314.390366 331.64 
L 318.327273 331.64 
L 322.26418 331.64 
L 326.201087 331.64 
L 330.137994 331.64 
L 334.074901 331.64 
L 338.011808 331.64 
L 341.948715 331.64 
L 345.885623 331.64 
L 349.82253 331.64 
L 353.759437 331.64 
L 357.696344 331.64 
L 361.633251 331.64 
L 365.570158 331.64 
L 369.507065 331.64 
L 373.443972 331.64 
L 377.380879 331.64 
L 381.317787 331.64 
L 385.254694 331.64 
L 389.191601 331.64 
L 393.128508 331.64 
L 397.065415 331.64 
L 401.002322 331.64 
L 404.939229 331.64 
L 408.876136 331.64 
L 412.813043 331.64 
L 416.749951 331.64 
L 420.686858 331.64 
L 424.623765 331.64 
L 428.560672 331.64 
L 432.497579 331.64 
L 436.434486 331.64 
L 440.371393 331.64 
L 444.3083 331.64 
L 448.245208 331.64 
L 452.182115 331.64 
L 456.119022 331.64 
L 460.055929 331.64 
L 463.992836 331.64 
L 467.929743 331.64 
L 471.86665 331.64 
L 475.803557 331.64 
L 479.740464 331.64 
L 483.677372 331.64 
L 487.614279 331.64 
L 491.551186 331.64 
L 495.488093 331.64 
L 499.425 331.64 
L 503.361907 331.64 
L 507.298814 331.64 
L 511.235721 331.64 
L 515.172628 331.64 
L 519.109536 331.64 
L 523.046443 331.64 
L 526.98335 331.64 
L 530.920257 331.64 
L 534.857164 331.64 
L 538.794071 331.64 
L 542.730978 331.64 
L 546.667885 331.64 
L 550.604792 331.64 
L 554.5417 331.64 
L 558.478607 331.64 
L 562.415514 331.64 
L 566.352421 331.64 
L 570.289328 331.64 
L 574.226235 331.64 
L 578.163142 331.64 
L 582.100049 331.64 
L 586.036957 331.64 
L 589.973864 331.64 
L 593.910771 331.64 
L 597.847678 331.64 
L 601.784585 331.64 
L 605.721492 331.64 
L 609.658399 331.64 
L 613.595306 331.64 
L 617.532213 331.64 
L 621.469121 331.64 
L 625.406028 331.64 
L 629.342935 331.64 
L 633.279842 331.64 
L 637.216749 331.64 
L 641.153656 331.64 
L 645.090563 331.64 
L 649.02747 331.64 
L 652.964377 331.64 
L 656.901285 331.64 
L 660.838192 331.64 
L 664.775099 331.64 
L 668.712006 331.64 
L 672.648913 331.64 
L 676.58582 331.64 
L 680.522727 331.64 
L 684.459634 331.64 
L 688.396542 331.64 
L 692.333449 331.64 
L 696.270356 331.64 
L 700.207263 331.64 
L 704.14417 331.64 
L 708.081077 331.64 
L 712.017984 331.64 
L 715.954891 331.64 
L 719.891798 331.64 
L 723.828706 331.64 
L 727.765613 331.64 
L 731.70252 331.64 
L 735.639427 331.64 
L 739.576334 331.64 
L 743.513241 331.64 
L 747.450148 331.64 
L 751.387055 331.64 
L 755.323962 331.64 
L 759.26087 331.64 
L 763.197777 331.64 
L 767.134684 331.64 
L 771.071591 331.64 
L 775.008498 331.64 
L 778.945405 331.64 
L 782.882312 331.64 
L 786.819219 331.64 
L 790.756126 331.64 
L 794.693034 331.64 
L 798.629941 331.64 
L 802.566848 331.64 
L 806.503755 331.64 
L 810.440662 331.64 
L 814.377569 331.64 
L 818.314476 331.64 
L 822.251383 331.64 
L 826.188291 331.64 
L 830.125198 331.64 
L 834.062105 331.64 
L 837.999012 331.64 
L 841.935919 331.64 
L 845.872826 331.64 
L 849.809733 331.64 
L 853.74664 331.64 
L 857.683547 331.64 
L 861.620455 331.64 
L 861.620455 237.561397 
L 861.620455 237.561397 
L 857.683547 236.224337 
L 853.74664 236.040584 
L 849.809733 236.092097 
L 845.872826 235.748295 
L 841.935919 235.96078 
L 837.999012 235.779328 
L 834.062105 235.518128 
L 830.125198 236.115318 
L 826.188291 236.267229 
L 822.251383 236.344122 
L 818.314476 235.658223 
L 814.377569 236.345059 
L 810.440662 236.093887 
L 806.503755 236.192978 
L 802.566848 236.110617 
L 798.629941 236.688066 
L 794.693034 237.122395 
L 790.756126 236.226439 
L 786.819219 235.366857 
L 782.882312 235.655638 
L 778.945405 235.301298 
L 775.008498 235.284581 
L 771.071591 235.639631 
L 767.134684 237.055188 
L 763.197777 236.337887 
L 759.26087 235.311566 
L 755.323962 234.25836 
L 751.387055 234.814675 
L 747.450148 234.506834 
L 743.513241 235.579583 
L 739.576334 235.010656 
L 735.639427 236.461449 
L 731.70252 235.262283 
L 727.765613 235.018539 
L 723.828706 235.804864 
L 719.891798 235.806512 
L 715.954891 237.030405 
L 712.017984 236.307067 
L 708.081077 236.3089 
L 704.14417 236.394669 
L 700.207263 236.414538 
L 696.270356 236.373706 
L 692.333449 236.237077 
L 688.396542 236.561166 
L 684.459634 235.363434 
L 680.522727 234.124685 
L 676.58582 233.434213 
L 672.648913 234.359908 
L 668.712006 233.946769 
L 664.775099 234.589038 
L 660.838192 234.06056 
L 656.901285 233.89983 
L 652.964377 234.323166 
L 649.02747 233.939256 
L 645.090563 233.914444 
L 641.153656 234.166867 
L 637.216749 234.132695 
L 633.279842 234.085031 
L 629.342935 235.039729 
L 625.406028 234.316974 
L 621.469121 234.857709 
L 617.532213 236.550216 
L 613.595306 235.560026 
L 609.658399 236.161832 
L 605.721492 236.079585 
L 601.784585 236.552786 
L 597.847678 236.579984 
L 593.910771 236.54114 
L 589.973864 236.217904 
L 586.036957 236.143113 
L 582.100049 236.80893 
L 578.163142 236.134364 
L 574.226235 236.878863 
L 570.289328 236.478379 
L 566.352421 236.283676 
L 562.415514 237.590966 
L 558.478607 236.61336 
L 554.5417 235.846222 
L 550.604792 236.475411 
L 546.667885 236.732349 
L 542.730978 236.083888 
L 538.794071 236.925448 
L 534.857164 236.332561 
L 530.920257 236.468423 
L 526.98335 236.66848 
L 523.046443 236.652517 
L 519.109536 236.436751 
L 515.172628 236.471164 
L 511.235721 236.586134 
L 507.298814 236.876435 
L 503.361907 236.374118 
L 499.425 236.660868 
L 495.488093 236.577371 
L 491.551186 236.272143 
L 487.614279 236.354575 
L 483.677372 237.128204 
L 479.740464 236.514382 
L 475.803557 236.308062 
L 471.86665 236.883792 
L 467.929743 236.618147 
L 463.992836 236.504185 
L 460.055929 236.380126 
L 456.119022 236.242204 
L 452.182115 236.963212 
L 448.245208 237.043429 
L 444.3083 235.975892 
L 440.371393 236.344037 
L 436.434486 237.141739 
L 432.497579 236.573536 
L 428.560672 236.208544 
L 424.623765 236.006995 
L 420.686858 237.351923 
L 416.749951 236.50143 
L 412.813043 236.861508 
L 408.876136 236.303006 
L 404.939229 236.574843 
L 401.002322 236.677556 
L 397.065415 237.137379 
L 393.128508 236.368991 
L 389.191601 236.736837 
L 385.254694 236.585736 
L 381.317787 236.512565 
L 377.380879 237.640675 
L 373.443972 235.962655 
L 369.507065 237.510424 
L 365.570158 236.57899 
L 361.633251 235.86318 
L 357.696344 237.299671 
L 353.759437 236.60981 
L 349.82253 237.175399 
L 345.885623 236.507792 
L 341.948715 236.723601 
L 338.011808 237.36016 
L 334.074901 236.855741 
L 330.137994 236.224806 
L 326.201087 236.48984 
L 322.26418 237.349508 
L 318.327273 236.377129 
L 314.390366 236.581092 
L 310.453458 236.776576 
L 306.516551 236.041252 
L 302.579644 236.918801 
L 298.642737 236.341281 
L 294.70583 236.921684 
L 290.768923 236.623018 
L 286.832016 236.823445 
L 282.895109 236.534039 
L 278.958202 236.388746 
L 275.021294 236.11752 
L 271.084387 236.545358 
L 267.14748 233.898168 
L 263.210573 234.746431 
L 259.273666 234.605641 
L 255.336759 234.915101 
L 251.399852 234.323663 
L 247.462945 235.248635 
L 243.526038 234.903966 
L 239.58913 236.791645 
L 235.652223 236.08974 
L 231.715316 236.800053 
L 227.778409 236.686504 
L 223.841502 236.565597 
L 219.904595 236.641538 
L 215.967688 239.090105 
L 212.030781 229.894163 
L 208.093874 230.705911 
L 204.156966 230.106747 
L 200.220059 230.300556 
L 196.283152 229.953913 
L 192.346245 230.871357 
L 188.409338 229.69804 
L 184.472431 230.479579 
L 180.535524 230.47056 
L 176.598617 230.436247 
L 172.661709 230.051386 
L 168.724802 230.419658 
L 164.787895 230.173187 
L 160.850988 230.124529 
L 156.914081 230.403794 
L 152.977174 230.515185 
L 149.040267 230.061682 
L 145.10336 230.320056 
L 141.166453 229.956683 
L 137.229545 230.542965 
z
" clip-path="url(#p19464ce875)" style="fill: #1f77b4"/>
   </g>
   <g id="PolyCollection_2">
    <path d="M 137.229545 129.459011 
L 137.229545 230.542965 
L 141.166453 229.956683 
L 145.10336 230.320056 
L 149.040267 230.061682 
L 152.977174 230.515185 
L 156.914081 230.403794 
L 160.850988 230.124529 
L 164.787895 230.173187 
L 168.724802 230.419658 
L 172.661709 230.051386 
L 176.598617 230.436247 
L 180.535524 230.47056 
L 184.472431 230.479579 
L 188.409338 229.69804 
L 192.346245 230.871357 
L 196.283152 229.953913 
L 200.220059 230.300556 
L 204.156966 230.106747 
L 208.093874 230.705911 
L 212.030781 229.894163 
L 215.967688 239.090105 
L 219.904595 236.641538 
L 223.841502 236.565597 
L 227.778409 236.686504 
L 231.715316 236.800053 
L 235.652223 236.08974 
L 239.58913 236.791645 
L 243.526038 234.903966 
L 247.462945 235.248635 
L 251.399852 234.323663 
L 255.336759 234.915101 
L 259.273666 234.605641 
L 263.210573 234.746431 
L 267.14748 233.898168 
L 271.084387 236.545358 
L 275.021294 236.11752 
L 278.958202 236.388746 
L 282.895109 236.534039 
L 286.832016 236.823445 
L 290.768923 236.623018 
L 294.70583 236.921684 
L 298.642737 236.341281 
L 302.579644 236.918801 
L 306.516551 236.041252 
L 310.453458 236.776576 
L 314.390366 236.581092 
L 318.327273 236.377129 
L 322.26418 237.349508 
L 326.201087 236.48984 
L 330.137994 236.224806 
L 334.074901 236.855741 
L 338.011808 237.36016 
L 341.948715 236.723601 
L 345.885623 236.507792 
L 349.82253 237.175399 
L 353.759437 236.60981 
L 357.696344 237.299671 
L 361.633251 235.86318 
L 365.570158 236.57899 
L 369.507065 237.510424 
L 373.443972 235.962655 
L 377.380879 237.640675 
L 381.317787 236.512565 
L 385.254694 236.585736 
L 389.191601 236.736837 
L 393.128508 236.368991 
L 397.065415 237.137379 
L 401.002322 236.677556 
L 404.939229 236.574843 
L 408.876136 236.303006 
L 412.813043 236.861508 
L 416.749951 236.50143 
L 420.686858 237.351923 
L 424.623765 236.006995 
L 428.560672 236.208544 
L 432.497579 236.573536 
L 436.434486 237.141739 
L 440.371393 236.344037 
L 444.3083 235.975892 
L 448.245208 237.043429 
L 452.182115 236.963212 
L 456.119022 236.242204 
L 460.055929 236.380126 
L 463.992836 236.504185 
L 467.929743 236.618147 
L 471.86665 236.883792 
L 475.803557 236.308062 
L 479.740464 236.514382 
L 483.677372 237.128204 
L 487.614279 236.354575 
L 491.551186 236.272143 
L 495.488093 236.577371 
L 499.425 236.660868 
L 503.361907 236.374118 
L 507.298814 236.876435 
L 511.235721 236.586134 
L 515.172628 236.471164 
L 519.109536 236.436751 
L 523.046443 236.652517 
L 526.98335 236.66848 
L 530.920257 236.468423 
L 534.857164 236.332561 
L 538.794071 236.925448 
L 542.730978 236.083888 
L 546.667885 236.732349 
L 550.604792 236.475411 
L 554.5417 235.846222 
L 558.478607 236.61336 
L 562.415514 237.590966 
L 566.352421 236.283676 
L 570.289328 236.478379 
L 574.226235 236.878863 
L 578.163142 236.134364 
L 582.100049 236.80893 
L 586.036957 236.143113 
L 589.973864 236.217904 
L 593.910771 236.54114 
L 597.847678 236.579984 
L 601.784585 236.552786 
L 605.721492 236.079585 
L 609.658399 236.161832 
L 613.595306 235.560026 
L 617.532213 236.550216 
L 621.469121 234.857709 
L 625.406028 234.316974 
L 629.342935 235.039729 
L 633.279842 234.085031 
L 637.216749 234.132695 
L 641.153656 234.166867 
L 645.090563 233.914444 
L 649.02747 233.939256 
L 652.964377 234.323166 
L 656.901285 233.89983 
L 660.838192 234.06056 
L 664.775099 234.589038 
L 668.712006 233.946769 
L 672.648913 234.359908 
L 676.58582 233.434213 
L 680.522727 234.124685 
L 684.459634 235.363434 
L 688.396542 236.561166 
L 692.333449 236.237077 
L 696.270356 236.373706 
L 700.207263 236.414538 
L 704.14417 236.394669 
L 708.081077 236.3089 
L 712.017984 236.307067 
L 715.954891 237.030405 
L 719.891798 235.806512 
L 723.828706 235.804864 
L 727.765613 235.018539 
L 731.70252 235.262283 
L 735.639427 236.461449 
L 739.576334 235.010656 
L 743.513241 235.579583 
L 747.450148 234.506834 
L 751.387055 234.814675 
L 755.323962 234.25836 
L 759.26087 235.311566 
L 763.197777 236.337887 
L 767.134684 237.055188 
L 771.071591 235.639631 
L 775.008498 235.284581 
L 778.945405 235.301298 
L 782.882312 235.655638 
L 786.819219 235.366857 
L 790.756126 236.226439 
L 794.693034 237.122395 
L 798.629941 236.688066 
L 802.566848 236.110617 
L 806.503755 236.192978 
L 810.440662 236.093887 
L 814.377569 236.345059 
L 818.314476 235.658223 
L 822.251383 236.344122 
L 826.188291 236.267229 
L 830.125198 236.115318 
L 834.062105 235.518128 
L 837.999012 235.779328 
L 841.935919 235.96078 
L 845.872826 235.748295 
L 849.809733 236.092097 
L 853.74664 236.040584 
L 857.683547 236.224337 
L 861.620455 237.561397 
L 861.620455 142.788628 
L 861.620455 142.788628 
L 857.683547 140.774248 
L 853.74664 140.387625 
L 849.809733 140.606956 
L 845.872826 140.22333 
L 841.935919 140.394158 
L 837.999012 139.851378 
L 834.062105 139.762641 
L 830.125198 139.922633 
L 826.188291 141.184532 
L 822.251383 141.323703 
L 818.314476 139.698871 
L 814.377569 140.639394 
L 810.440662 140.726811 
L 806.503755 140.863412 
L 802.566848 140.579644 
L 798.629941 141.833135 
L 794.693034 142.082589 
L 790.756126 141.092868 
L 786.819219 139.010884 
L 782.882312 139.825771 
L 778.945405 139.122914 
L 775.008498 138.510797 
L 771.071591 139.691159 
L 767.134684 142.291296 
L 763.197777 141.191676 
L 759.26087 139.161005 
L 755.323962 136.959464 
L 751.387055 137.725977 
L 747.450148 137.663301 
L 743.513241 138.973148 
L 739.576334 139.408911 
L 735.639427 140.97912 
L 731.70252 139.104252 
L 727.765613 138.447965 
L 723.828706 139.057298 
L 719.891798 140.586987 
L 715.954891 141.591095 
L 712.017984 141.91551 
L 708.081077 140.703888 
L 704.14417 141.393381 
L 700.207263 141.135973 
L 696.270356 141.110607 
L 692.333449 140.594954 
L 688.396542 141.463655 
L 684.459634 139.434817 
L 680.522727 136.733699 
L 676.58582 135.684981 
L 672.648913 136.730064 
L 668.712006 136.417266 
L 664.775099 137.49936 
L 660.838192 136.033356 
L 656.901285 136.694202 
L 652.964377 136.33455 
L 649.02747 136.55077 
L 645.090563 136.066533 
L 641.153656 137.184617 
L 637.216749 136.470256 
L 633.279842 136.562005 
L 629.342935 138.378372 
L 625.406028 136.983977 
L 621.469121 137.589888 
L 617.532213 141.002782 
L 613.595306 140.10035 
L 609.658399 141.028218 
L 605.721492 140.39163 
L 601.784585 141.329242 
L 597.847678 141.087898 
L 593.910771 141.618307 
L 589.973864 140.929084 
L 586.036957 140.629779 
L 582.100049 141.594404 
L 578.163142 141.210878 
L 574.226235 142.025864 
L 570.289328 140.840929 
L 566.352421 141.4365 
L 562.415514 142.570917 
L 558.478607 142.571527 
L 554.5417 140.340529 
L 550.604792 141.013774 
L 546.667885 141.715964 
L 542.730978 140.829368 
L 538.794071 141.734939 
L 534.857164 141.210878 
L 530.920257 141.591081 
L 526.98335 141.655972 
L 523.046443 141.4438 
L 519.109536 141.552734 
L 515.172628 141.327325 
L 511.235721 141.610638 
L 507.298814 141.862251 
L 503.361907 141.429683 
L 499.425 141.432722 
L 495.488093 141.385314 
L 491.551186 141.436571 
L 487.614279 141.188849 
L 483.677372 142.691766 
L 479.740464 140.749393 
L 475.803557 141.326103 
L 471.86665 141.675132 
L 467.929743 141.982518 
L 463.992836 141.243955 
L 460.055929 141.190951 
L 456.119022 141.050914 
L 452.182115 142.105669 
L 448.245208 142.354242 
L 444.3083 140.446836 
L 440.371393 141.040418 
L 436.434486 142.055519 
L 432.497579 142.363971 
L 428.560672 140.854975 
L 424.623765 140.521541 
L 420.686858 142.945481 
L 416.749951 141.063015 
L 412.813043 142.165887 
L 408.876136 141.098152 
L 404.939229 141.898652 
L 401.002322 141.304984 
L 397.065415 142.727827 
L 393.128508 141.408251 
L 389.191601 141.78452 
L 385.254694 141.433432 
L 381.317787 141.212923 
L 377.380879 143.727646 
L 373.443972 140.601189 
L 369.507065 142.282647 
L 365.570158 142.43994 
L 361.633251 140.065284 
L 357.696344 142.868716 
L 353.759437 141.207114 
L 349.82253 142.6372 
L 345.885623 141.754382 
L 341.948715 142.214545 
L 338.011808 142.559938 
L 334.074901 141.826176 
L 330.137994 141.790414 
L 326.201087 141.334099 
L 322.26418 142.46238 
L 318.327273 141.430038 
L 314.390366 141.52173 
L 310.453458 141.746429 
L 306.516551 140.864903 
L 302.579644 141.73633 
L 298.642737 141.482019 
L 294.70583 141.861285 
L 290.768923 141.562235 
L 286.832016 142.115596 
L 282.895109 141.158626 
L 278.958202 140.93245 
L 275.021294 141.065131 
L 271.084387 141.78746 
L 267.14748 136.603746 
L 263.210573 137.874039 
L 259.273666 137.273057 
L 255.336759 138.10814 
L 251.399852 137.090383 
L 247.462945 138.34038 
L 243.526038 138.786867 
L 239.58913 141.219953 
L 235.652223 141.035632 
L 231.715316 141.965702 
L 227.778409 141.488566 
L 223.841502 142.084038 
L 219.904595 141.413975 
L 215.967688 144.522635 
L 212.030781 131.782823 
L 208.093874 129.517639 
L 204.156966 128.677088 
L 200.220059 128.903406 
L 196.283152 128.375951 
L 192.346245 129.747764 
L 188.409338 128.188874 
L 184.472431 129.071366 
L 180.535524 129.180726 
L 176.598617 128.994629 
L 172.661709 128.693861 
L 168.724802 129.127523 
L 164.787895 128.626328 
L 160.850988 128.962702 
L 156.914081 128.909371 
L 152.977174 129.21102 
L 149.040267 128.470682 
L 145.10336 129.118873 
L 141.166453 128.513588 
L 137.229545 129.459011 
z
" clip-path="url(#p19464ce875)" style="fill: #ff7f0e"/>
   </g>
   <g id="PolyCollection_3">
    <path d="M 137.229545 79.391059 
L 137.229545 129.459011 
L 141.166453 128.513588 
L 145.10336 129.118873 
L 149.040267 128.470682 
L 152.977174 129.21102 
L 156.914081 128.909371 
L 160.850988 128.962702 
L 164.787895 128.626328 
L 168.724802 129.127523 
L 172.661709 128.693861 
L 176.598617 128.994629 
L 180.535524 129.180726 
L 184.472431 129.071366 
L 188.409338 128.188874 
L 192.346245 129.747764 
L 196.283152 128.375951 
L 200.220059 128.903406 
L 204.156966 128.677088 
L 208.093874 129.517639 
L 212.030781 131.782823 
L 215.967688 144.522635 
L 219.904595 141.413975 
L 223.841502 142.084038 
L 227.778409 141.488566 
L 231.715316 141.965702 
L 235.652223 141.035632 
L 239.58913 141.219953 
L 243.526038 138.786867 
L 247.462945 138.34038 
L 251.399852 137.090383 
L 255.336759 138.10814 
L 259.273666 137.273057 
L 263.210573 137.874039 
L 267.14748 136.603746 
L 271.084387 141.78746 
L 275.021294 141.065131 
L 278.958202 140.93245 
L 282.895109 141.158626 
L 286.832016 142.115596 
L 290.768923 141.562235 
L 294.70583 141.861285 
L 298.642737 141.482019 
L 302.579644 141.73633 
L 306.516551 140.864903 
L 310.453458 141.746429 
L 314.390366 141.52173 
L 318.327273 141.430038 
L 322.26418 142.46238 
L 326.201087 141.334099 
L 330.137994 141.790414 
L 334.074901 141.826176 
L 338.011808 142.559938 
L 341.948715 142.214545 
L 345.885623 141.754382 
L 349.82253 142.6372 
L 353.759437 141.207114 
L 357.696344 142.868716 
L 361.633251 140.065284 
L 365.570158 142.43994 
L 369.507065 142.282647 
L 373.443972 140.601189 
L 377.380879 143.727646 
L 381.317787 141.212923 
L 385.254694 141.433432 
L 389.191601 141.78452 
L 393.128508 141.408251 
L 397.065415 142.727827 
L 401.002322 141.304984 
L 404.939229 141.898652 
L 408.876136 141.098152 
L 412.813043 142.165887 
L 416.749951 141.063015 
L 420.686858 142.945481 
L 424.623765 140.521541 
L 428.560672 140.854975 
L 432.497579 142.363971 
L 436.434486 142.055519 
L 440.371393 141.040418 
L 444.3083 140.446836 
L 448.245208 142.354242 
L 452.182115 142.105669 
L 456.119022 141.050914 
L 460.055929 141.190951 
L 463.992836 141.243955 
L 467.929743 141.982518 
L 471.86665 141.675132 
L 475.803557 141.326103 
L 479.740464 140.749393 
L 483.677372 142.691766 
L 487.614279 141.188849 
L 491.551186 141.436571 
L 495.488093 141.385314 
L 499.425 141.432722 
L 503.361907 141.429683 
L 507.298814 141.862251 
L 511.235721 141.610638 
L 515.172628 141.327325 
L 519.109536 141.552734 
L 523.046443 141.4438 
L 526.98335 141.655972 
L 530.920257 141.591081 
L 534.857164 141.210878 
L 538.794071 141.734939 
L 542.730978 140.829368 
L 546.667885 141.715964 
L 550.604792 141.013774 
L 554.5417 140.340529 
L 558.478607 142.571527 
L 562.415514 142.570917 
L 566.352421 141.4365 
L 570.289328 140.840929 
L 574.226235 142.025864 
L 578.163142 141.210878 
L 582.100049 141.594404 
L 586.036957 140.629779 
L 589.973864 140.929084 
L 593.910771 141.618307 
L 597.847678 141.087898 
L 601.784585 141.329242 
L 605.721492 140.39163 
L 609.658399 141.028218 
L 613.595306 140.10035 
L 617.532213 141.002782 
L 621.469121 137.589888 
L 625.406028 136.983977 
L 629.342935 138.378372 
L 633.279842 136.562005 
L 637.216749 136.470256 
L 641.153656 137.184617 
L 645.090563 136.066533 
L 649.02747 136.55077 
L 652.964377 136.33455 
L 656.901285 136.694202 
L 660.838192 136.033356 
L 664.775099 137.49936 
L 668.712006 136.417266 
L 672.648913 136.730064 
L 676.58582 135.684981 
L 680.522727 136.733699 
L 684.459634 139.434817 
L 688.396542 141.463655 
L 692.333449 140.594954 
L 696.270356 141.110607 
L 700.207263 141.135973 
L 704.14417 141.393381 
L 708.081077 140.703888 
L 712.017984 141.91551 
L 715.954891 141.591095 
L 719.891798 140.586987 
L 723.828706 139.057298 
L 727.765613 138.447965 
L 731.70252 139.104252 
L 735.639427 140.97912 
L 739.576334 139.408911 
L 743.513241 138.973148 
L 747.450148 137.663301 
L 751.387055 137.725977 
L 755.323962 136.959464 
L 759.26087 139.161005 
L 763.197777 141.191676 
L 767.134684 142.291296 
L 771.071591 139.691159 
L 775.008498 138.510797 
L 778.945405 139.122914 
L 782.882312 139.825771 
L 786.819219 139.010884 
L 790.756126 141.092868 
L 794.693034 142.082589 
L 798.629941 141.833135 
L 802.566848 140.579644 
L 806.503755 140.863412 
L 810.440662 140.726811 
L 814.377569 140.639394 
L 818.314476 139.698871 
L 822.251383 141.323703 
L 826.188291 141.184532 
L 830.125198 139.922633 
L 834.062105 139.762641 
L 837.999012 139.851378 
L 841.935919 140.394158 
L 845.872826 140.22333 
L 849.809733 140.606956 
L 853.74664 140.387625 
L 857.683547 140.774248 
L 861.620455 142.788628 
L 861.620455 48.016186 
L 861.620455 48.016186 
L 857.683547 44.998209 
L 853.74664 45.345902 
L 849.809733 44.853215 
L 845.872826 45.038743 
L 841.935919 44.500977 
L 837.999012 43.883335 
L 834.062105 44.039379 
L 830.125198 45.528292 
L 826.188291 47.797452 
L 822.251383 45.829869 
L 818.314476 43.980935 
L 814.377569 45.846557 
L 810.440662 44.65952 
L 806.503755 45.836502 
L 802.566848 45.837439 
L 798.629941 47.686189 
L 794.693034 47.295661 
L 790.756126 45.348075 
L 786.819219 43.325088 
L 782.882312 43.906144 
L 778.945405 42.944488 
L 775.008498 42.789921 
L 771.071591 44.187355 
L 767.134684 48.347504 
L 763.197777 45.652721 
L 759.26087 42.292902 
L 755.323962 40.027207 
L 751.387055 41.091293 
L 747.450148 41.293509 
L 743.513241 43.176899 
L 739.576334 43.414735 
L 735.639427 45.658444 
L 731.70252 42.25001 
L 727.765613 42.860593 
L 723.828706 43.319677 
L 719.891798 46.674213 
L 715.954891 46.885291 
L 712.017984 46.900517 
L 708.081077 45.434384 
L 704.14417 47.122517 
L 700.207263 47.314564 
L 696.270356 48.730277 
L 692.333449 46.815131 
L 688.396542 47.078106 
L 684.459634 41.704773 
L 680.522727 39.222787 
L 676.58582 38.109689 
L 672.648913 39.569075 
L 668.712006 39.177041 
L 664.775099 40.177172 
L 660.838192 38.631719 
L 656.901285 39.643681 
L 652.964377 38.629432 
L 649.02747 39.249829 
L 645.090563 38.386156 
L 641.153656 40.157516 
L 637.216749 39.082622 
L 633.279842 39.881901 
L 629.342935 41.549766 
L 625.406028 40.281064 
L 621.469121 41.221005 
L 617.532213 46.287192 
L 613.595306 45.675274 
L 609.658399 46.609548 
L 605.721492 46.764513 
L 601.784585 47.201753 
L 597.847678 47.054416 
L 593.910771 47.436039 
L 589.973864 47.126437 
L 586.036957 46.862411 
L 582.100049 46.642711 
L 578.163142 48.120958 
L 574.226235 46.86261 
L 570.289328 46.849813 
L 566.352421 47.528441 
L 562.415514 49.027267 
L 558.478607 47.284952 
L 554.5417 44.911758 
L 550.604792 46.083286 
L 546.667885 46.803428 
L 542.730978 47.138651 
L 538.794071 47.481913 
L 534.857164 47.613926 
L 530.920257 49.599106 
L 526.98335 47.590506 
L 523.046443 47.993661 
L 519.109536 48.642378 
L 515.172628 46.589722 
L 511.235721 47.395235 
L 507.298814 48.299953 
L 503.361907 47.687524 
L 499.425 48.65702 
L 495.488093 46.716593 
L 491.551186 47.12371 
L 487.614279 47.898404 
L 483.677372 48.406927 
L 479.740464 47.073845 
L 475.803557 46.890802 
L 471.86665 48.548172 
L 467.929743 47.369869 
L 463.992836 46.012302 
L 460.055929 48.444507 
L 456.119022 46.185346 
L 452.182115 47.968465 
L 448.245208 47.0986 
L 444.3083 46.160008 
L 440.371393 46.114773 
L 436.434486 48.930662 
L 432.497579 47.027431 
L 428.560672 46.023493 
L 424.623765 46.272905 
L 420.686858 48.520377 
L 416.749951 45.898255 
L 412.813043 47.5671 
L 408.876136 47.05372 
L 404.939229 49.538915 
L 401.002322 47.98994 
L 397.065415 49.630195 
L 393.128508 47.224009 
L 389.191601 48.812042 
L 385.254694 48.379445 
L 381.317787 48.410918 
L 377.380879 48.208531 
L 373.443972 47.655369 
L 369.507065 47.882398 
L 365.570158 47.441308 
L 361.633251 46.541163 
L 357.696344 48.597398 
L 353.759437 47.944974 
L 349.82253 49.219372 
L 345.885623 47.197237 
L 341.948715 49.056028 
L 338.011808 47.806428 
L 334.074901 47.571091 
L 330.137994 46.746305 
L 326.201087 48.139067 
L 322.26418 48.011755 
L 318.327273 46.717843 
L 314.390366 47.018185 
L 310.453458 47.991772 
L 306.516551 46.840198 
L 302.579644 47.759744 
L 298.642737 47.566703 
L 294.70583 49.071807 
L 290.768923 48.262388 
L 286.832016 48.977076 
L 282.895109 49.003847 
L 278.958202 48.09653 
L 275.021294 47.727632 
L 271.084387 44.93559 
L 267.14748 39.303614 
L 263.210573 40.743372 
L 259.273666 40.486831 
L 255.336759 41.628591 
L 251.399852 40.062245 
L 247.462945 42.611295 
L 243.526038 43.026934 
L 239.58913 49.197102 
L 235.652223 47.730146 
L 231.715316 49.753516 
L 227.778409 48.219723 
L 223.841502 50.099363 
L 219.904595 48.528629 
L 215.967688 76.233315 
L 212.030781 81.077928 
L 208.093874 78.939687 
L 204.156966 77.871383 
L 200.220059 78.339983 
L 196.283152 77.629556 
L 192.346245 79.233055 
L 188.409338 77.535222 
L 184.472431 78.522259 
L 180.535524 78.460989 
L 176.598617 78.506352 
L 172.661709 77.900499 
L 168.724802 78.594422 
L 164.787895 77.909659 
L 160.850988 78.396751 
L 156.914081 78.213793 
L 152.977174 78.651289 
L 149.040267 77.780856 
L 145.10336 78.696965 
L 141.166453 77.754951 
L 137.229545 79.391059 
z
" clip-path="url(#p19464ce875)" style="fill: #2ca02c"/>
   </g>
   <g id="matplotlib.axis_1">
    <g id="xtick_1">
     <g id="line2d_1">
      <path d="M 137.229545 331.64 
L 137.229545 23.76 
" clip-path="url(#p19464ce875)" style="fill: none; stroke-dasharray: 5.12,1.28,0.8,1.28; stroke-dashoffset: 0; stroke: #b0b0b0; stroke-width: 0.8"/>
     </g>
     <g id="line2d_2">
      <defs>
       <path id="mb806f5b516" d="M 0 0 
L 0 3.5 
" style="stroke: #000000; stroke-width: 0.8"/>
      </defs>
      <g>
       <use xlink:href="#mb806f5b516" x="137.229545" y="331.64" style="stroke: #000000; stroke-width: 0.8"/>
      </g>
     </g>
     <g id="text_1">
      <!-- 0 -->
      <g transform="translate(130.230795 355.356563)scale(0.22 -0.22)">
       <defs>
        <path id="DejaVuSans-30" d="M 2034 4250 
Q 1547 4250 1301 3770 
Q 1056 3291 1056 2328 
Q 1056 1369 1301 889 
Q 1547 409 2034 409 
Q 2525 409 2770 889 
Q 3016 1369 3016 2328 
Q 3016 3291 2770 3770 
Q 2525 4250 2034 4250 
z
M 2034 4750 
Q 2819 4750 3233 4129 
Q 3647 3509 3647 2328 
Q 3647 1150 3233 529 
Q 2819 -91 2034 -91 
Q 1250 -91 836 529 
Q 422 1150 422 2328 
Q 422 3509 836 4129 
Q 1250 4750 2034 4750 
z
" transform="scale(0.015625)"/>
       </defs>
       <use xlink:href="#DejaVuSans-30"/>
      </g>
     </g>
    </g>
    <g id="xtick_2">
     <g id="line2d_3">
      <path d="M 235.652223 331.64 
L 235.652223 23.76 
" clip-path="url(#p19464ce875)" style="fill: none; stroke-dasharray: 5.12,1.28,0.8,1.28; stroke-dashoffset: 0; stroke: #b0b0b0; stroke-width: 0.8"/>
     </g>
     <g id="line2d_4">
      <g>
       <use xlink:href="#mb806f5b516" x="235.652223" y="331.64" style="stroke: #000000; stroke-width: 0.8"/>
      </g>
     </g>
     <g id="text_2">
      <!-- 25 -->
      <g transform="translate(221.654723 355.356563)scale(0.22 -0.22)">
       <defs>
        <path id="DejaVuSans-32" d="M 1228 531 
L 3431 531 
L 3431 0 
L 469 0 
L 469 531 
Q 828 903 1448 1529 
Q 2069 2156 2228 2338 
Q 2531 2678 2651 2914 
Q 2772 3150 2772 3378 
Q 2772 3750 2511 3984 
Q 2250 4219 1831 4219 
Q 1534 4219 1204 4116 
Q 875 4013 500 3803 
L 500 4441 
Q 881 4594 1212 4672 
Q 1544 4750 1819 4750 
Q 2544 4750 2975 4387 
Q 3406 4025 3406 3419 
Q 3406 3131 3298 2873 
Q 3191 2616 2906 2266 
Q 2828 2175 2409 1742 
Q 1991 1309 1228 531 
z
" transform="scale(0.015625)"/>
        <path id="DejaVuSans-35" d="M 691 4666 
L 3169 4666 
L 3169 4134 
L 1269 4134 
L 1269 2991 
Q 1406 3038 1543 3061 
Q 1681 3084 1819 3084 
Q 2600 3084 3056 2656 
Q 3513 2228 3513 1497 
Q 3513 744 3044 326 
Q 2575 -91 1722 -91 
Q 1428 -91 1123 -41 
Q 819 9 494 109 
L 494 744 
Q 775 591 1075 516 
Q 1375 441 1709 441 
Q 2250 441 2565 725 
Q 2881 1009 2881 1497 
Q 2881 1984 2565 2268 
Q 2250 2553 1709 2553 
Q 1456 2553 1204 2497 
Q 953 2441 691 2322 
L 691 4666 
z
" transform="scale(0.015625)"/>
       </defs>
       <use xlink:href="#DejaVuSans-32"/>
       <use xlink:href="#DejaVuSans-35" x="63.623047"/>
      </g>
     </g>
    </g>
    <g id="xtick_3">
     <g id="line2d_5">
      <path d="M 334.074901 331.64 
L 334.074901 23.76 
" clip-path="url(#p19464ce875)" style="fill: none; stroke-dasharray: 5.12,1.28,0.8,1.28; stroke-dashoffset: 0; stroke: #b0b0b0; stroke-width: 0.8"/>
     </g>
     <g id="line2d_6">
      <g>
       <use xlink:href="#mb806f5b516" x="334.074901" y="331.64" style="stroke: #000000; stroke-width: 0.8"/>
      </g>
     </g>
     <g id="text_3">
      <!-- 50 -->
      <g transform="translate(320.077401 355.356563)scale(0.22 -0.22)">
       <use xlink:href="#DejaVuSans-35"/>
       <use xlink:href="#DejaVuSans-30" x="63.623047"/>
      </g>
     </g>
    </g>
    <g id="xtick_4">
     <g id="line2d_7">
      <path d="M 432.497579 331.64 
L 432.497579 23.76 
" clip-path="url(#p19464ce875)" style="fill: none; stroke-dasharray: 5.12,1.28,0.8,1.28; stroke-dashoffset: 0; stroke: #b0b0b0; stroke-width: 0.8"/>
     </g>
     <g id="line2d_8">
      <g>
       <use xlink:href="#mb806f5b516" x="432.497579" y="331.64" style="stroke: #000000; stroke-width: 0.8"/>
      </g>
     </g>
     <g id="text_4">
      <!-- 75 -->
      <g transform="translate(418.500079 355.356563)scale(0.22 -0.22)">
       <defs>
        <path id="DejaVuSans-37" d="M 525 4666 
L 3525 4666 
L 3525 4397 
L 1831 0 
L 1172 0 
L 2766 4134 
L 525 4134 
L 525 4666 
z
" transform="scale(0.015625)"/>
       </defs>
       <use xlink:href="#DejaVuSans-37"/>
       <use xlink:href="#DejaVuSans-35" x="63.623047"/>
      </g>
     </g>
    </g>
    <g id="xtick_5">
     <g id="line2d_9">
      <path d="M 530.920257 331.64 
L 530.920257 23.76 
" clip-path="url(#p19464ce875)" style="fill: none; stroke-dasharray: 5.12,1.28,0.8,1.28; stroke-dashoffset: 0; stroke: #b0b0b0; stroke-width: 0.8"/>
     </g>
     <g id="line2d_10">
      <g>
       <use xlink:href="#mb806f5b516" x="530.920257" y="331.64" style="stroke: #000000; stroke-width: 0.8"/>
      </g>
     </g>
     <g id="text_5">
      <!-- 100 -->
      <g transform="translate(509.924007 355.356563)scale(0.22 -0.22)">
       <defs>
        <path id="DejaVuSans-31" d="M 794 531 
L 1825 531 
L 1825 4091 
L 703 3866 
L 703 4441 
L 1819 4666 
L 2450 4666 
L 2450 531 
L 3481 531 
L 3481 0 
L 794 0 
L 794 531 
z
" transform="scale(0.015625)"/>
       </defs>
       <use xlink:href="#DejaVuSans-31"/>
       <use xlink:href="#DejaVuSans-30" x="63.623047"/>
       <use xlink:href="#DejaVuSans-30" x="127.246094"/>
      </g>
     </g>
    </g>
    <g id="xtick_6">
     <g id="line2d_11">
      <path d="M 629.342935 331.64 
L 629.342935 23.76 
" clip-path="url(#p19464ce875)" style="fill: none; stroke-dasharray: 5.12,1.28,0.8,1.28; stroke-dashoffset: 0; stroke: #b0b0b0; stroke-width: 0.8"/>
     </g>
     <g id="line2d_12">
      <g>
       <use xlink:href="#mb806f5b516" x="629.342935" y="331.64" style="stroke: #000000; stroke-width: 0.8"/>
      </g>
     </g>
     <g id="text_6">
      <!-- 125 -->
      <g transform="translate(608.346685 355.356563)scale(0.22 -0.22)">
       <use xlink:href="#DejaVuSans-31"/>
       <use xlink:href="#DejaVuSans-32" x="63.623047"/>
       <use xlink:href="#DejaVuSans-35" x="127.246094"/>
      </g>
     </g>
    </g>
    <g id="xtick_7">
     <g id="line2d_13">
      <path d="M 727.765613 331.64 
L 727.765613 23.76 
" clip-path="url(#p19464ce875)" style="fill: none; stroke-dasharray: 5.12,1.28,0.8,1.28; stroke-dashoffset: 0; stroke: #b0b0b0; stroke-width: 0.8"/>
     </g>
     <g id="line2d_14">
      <g>
       <use xlink:href="#mb806f5b516" x="727.765613" y="331.64" style="stroke: #000000; stroke-width: 0.8"/>
      </g>
     </g>
     <g id="text_7">
      <!-- 150 -->
      <g transform="translate(706.769363 355.356563)scale(0.22 -0.22)">
       <use xlink:href="#DejaVuSans-31"/>
       <use xlink:href="#DejaVuSans-35" x="63.623047"/>
       <use xlink:href="#DejaVuSans-30" x="127.246094"/>
      </g>
     </g>
    </g>
    <g id="xtick_8">
     <g id="line2d_15">
      <path d="M 826.188291 331.64 
L 826.188291 23.76 
" clip-path="url(#p19464ce875)" style="fill: none; stroke-dasharray: 5.12,1.28,0.8,1.28; stroke-dashoffset: 0; stroke: #b0b0b0; stroke-width: 0.8"/>
     </g>
     <g id="line2d_16">
      <g>
       <use xlink:href="#mb806f5b516" x="826.188291" y="331.64" style="stroke: #000000; stroke-width: 0.8"/>
      </g>
     </g>
     <g id="text_8">
      <!-- 175 -->
      <g transform="translate(805.192041 355.356563)scale(0.22 -0.22)">
       <use xlink:href="#DejaVuSans-31"/>
       <use xlink:href="#DejaVuSans-37" x="63.623047"/>
       <use xlink:href="#DejaVuSans-35" x="127.246094"/>
      </g>
     </g>
    </g>
    <g id="text_9">
     <!-- Time (s) -->
     <g transform="translate(450.635625 382.168125)scale(0.24 -0.24)">
      <defs>
       <path id="DejaVuSans-54" d="M -19 4666 
L 3928 4666 
L 3928 4134 
L 2272 4134 
L 2272 0 
L 1638 0 
L 1638 4134 
L -19 4134 
L -19 4666 
z
" transform="scale(0.015625)"/>
       <path id="DejaVuSans-69" d="M 603 3500 
L 1178 3500 
L 1178 0 
L 603 0 
L 603 3500 
z
M 603 4863 
L 1178 4863 
L 1178 4134 
L 603 4134 
L 603 4863 
z
" transform="scale(0.015625)"/>
       <path id="DejaVuSans-6d" d="M 3328 2828 
Q 3544 3216 3844 3400 
Q 4144 3584 4550 3584 
Q 5097 3584 5394 3201 
Q 5691 2819 5691 2113 
L 5691 0 
L 5113 0 
L 5113 2094 
Q 5113 2597 4934 2840 
Q 4756 3084 4391 3084 
Q 3944 3084 3684 2787 
Q 3425 2491 3425 1978 
L 3425 0 
L 2847 0 
L 2847 2094 
Q 2847 2600 2669 2842 
Q 2491 3084 2119 3084 
Q 1678 3084 1418 2786 
Q 1159 2488 1159 1978 
L 1159 0 
L 581 0 
L 581 3500 
L 1159 3500 
L 1159 2956 
Q 1356 3278 1631 3431 
Q 1906 3584 2284 3584 
Q 2666 3584 2933 3390 
Q 3200 3197 3328 2828 
z
" transform="scale(0.015625)"/>
       <path id="DejaVuSans-65" d="M 3597 1894 
L 3597 1613 
L 953 1613 
Q 991 1019 1311 708 
Q 1631 397 2203 397 
Q 2534 397 2845 478 
Q 3156 559 3463 722 
L 3463 178 
Q 3153 47 2828 -22 
Q 2503 -91 2169 -91 
Q 1331 -91 842 396 
Q 353 884 353 1716 
Q 353 2575 817 3079 
Q 1281 3584 2069 3584 
Q 2775 3584 3186 3129 
Q 3597 2675 3597 1894 
z
M 3022 2063 
Q 3016 2534 2758 2815 
Q 2500 3097 2075 3097 
Q 1594 3097 1305 2825 
Q 1016 2553 972 2059 
L 3022 2063 
z
" transform="scale(0.015625)"/>
       <path id="DejaVuSans-20" transform="scale(0.015625)"/>
       <path id="DejaVuSans-28" d="M 1984 4856 
Q 1566 4138 1362 3434 
Q 1159 2731 1159 2009 
Q 1159 1288 1364 580 
Q 1569 -128 1984 -844 
L 1484 -844 
Q 1016 -109 783 600 
Q 550 1309 550 2009 
Q 550 2706 781 3412 
Q 1013 4119 1484 4856 
L 1984 4856 
z
" transform="scale(0.015625)"/>
       <path id="DejaVuSans-73" d="M 2834 3397 
L 2834 2853 
Q 2591 2978 2328 3040 
Q 2066 3103 1784 3103 
Q 1356 3103 1142 2972 
Q 928 2841 928 2578 
Q 928 2378 1081 2264 
Q 1234 2150 1697 2047 
L 1894 2003 
Q 2506 1872 2764 1633 
Q 3022 1394 3022 966 
Q 3022 478 2636 193 
Q 2250 -91 1575 -91 
Q 1294 -91 989 -36 
Q 684 19 347 128 
L 347 722 
Q 666 556 975 473 
Q 1284 391 1588 391 
Q 1994 391 2212 530 
Q 2431 669 2431 922 
Q 2431 1156 2273 1281 
Q 2116 1406 1581 1522 
L 1381 1569 
Q 847 1681 609 1914 
Q 372 2147 372 2553 
Q 372 3047 722 3315 
Q 1072 3584 1716 3584 
Q 2034 3584 2315 3537 
Q 2597 3491 2834 3397 
z
" transform="scale(0.015625)"/>
       <path id="DejaVuSans-29" d="M 513 4856 
L 1013 4856 
Q 1481 4119 1714 3412 
Q 1947 2706 1947 2009 
Q 1947 1309 1714 600 
Q 1481 -109 1013 -844 
L 513 -844 
Q 928 -128 1133 580 
Q 1338 1288 1338 2009 
Q 1338 2731 1133 3434 
Q 928 4138 513 4856 
z
" transform="scale(0.015625)"/>
      </defs>
      <use xlink:href="#DejaVuSans-54"/>
      <use xlink:href="#DejaVuSans-69" x="57.958984"/>
      <use xlink:href="#DejaVuSans-6d" x="85.742188"/>
      <use xlink:href="#DejaVuSans-65" x="183.154297"/>
      <use xlink:href="#DejaVuSans-20" x="244.677734"/>
      <use xlink:href="#DejaVuSans-28" x="276.464844"/>
      <use xlink:href="#DejaVuSans-73" x="315.478516"/>
      <use xlink:href="#DejaVuSans-29" x="367.578125"/>
     </g>
    </g>
   </g>
   <g id="matplotlib.axis_2">
    <g id="ytick_1">
     <g id="line2d_17">
      <path d="M 101.01 331.64 
L 897.84 331.64 
" clip-path="url(#p19464ce875)" style="fill: none; stroke-dasharray: 5.12,1.28,0.8,1.28; stroke-dashoffset: 0; stroke: #b0b0b0; stroke-width: 0.8"/>
     </g>
     <g id="line2d_18">
      <defs>
       <path id="mde935dcb07" d="M 0 0 
L -3.5 0 
" style="stroke: #000000; stroke-width: 0.8"/>
      </defs>
      <g>
       <use xlink:href="#mde935dcb07" x="101.01" y="331.64" style="stroke: #000000; stroke-width: 0.8"/>
      </g>
     </g>
     <g id="text_10">
      <!-- 0 -->
      <g transform="translate(80.0125 339.998281)scale(0.22 -0.22)">
       <use xlink:href="#DejaVuSans-30"/>
      </g>
     </g>
    </g>
    <g id="ytick_2">
     <g id="line2d_19">
      <path d="M 101.01 242.873885 
L 897.84 242.873885 
" clip-path="url(#p19464ce875)" style="fill: none; stroke-dasharray: 5.12,1.28,0.8,1.28; stroke-dashoffset: 0; stroke: #b0b0b0; stroke-width: 0.8"/>
     </g>
     <g id="line2d_20">
      <g>
       <use xlink:href="#mde935dcb07" x="101.01" y="242.873885" style="stroke: #000000; stroke-width: 0.8"/>
      </g>
     </g>
     <g id="text_11">
      <!-- 50 -->
      <g transform="translate(66.015 251.232166)scale(0.22 -0.22)">
       <use xlink:href="#DejaVuSans-35"/>
       <use xlink:href="#DejaVuSans-30" x="63.623047"/>
      </g>
     </g>
    </g>
    <g id="ytick_3">
     <g id="line2d_21">
      <path d="M 101.01 154.10777 
L 897.84 154.10777 
" clip-path="url(#p19464ce875)" style="fill: none; stroke-dasharray: 5.12,1.28,0.8,1.28; stroke-dashoffset: 0; stroke: #b0b0b0; stroke-width: 0.8"/>
     </g>
     <g id="line2d_22">
      <g>
       <use xlink:href="#mde935dcb07" x="101.01" y="154.10777" style="stroke: #000000; stroke-width: 0.8"/>
      </g>
     </g>
     <g id="text_12">
      <!-- 100 -->
      <g transform="translate(52.0175 162.466052)scale(0.22 -0.22)">
       <use xlink:href="#DejaVuSans-31"/>
       <use xlink:href="#DejaVuSans-30" x="63.623047"/>
       <use xlink:href="#DejaVuSans-30" x="127.246094"/>
      </g>
     </g>
    </g>
    <g id="ytick_4">
     <g id="line2d_23">
      <path d="M 101.01 65.341656 
L 897.84 65.341656 
" clip-path="url(#p19464ce875)" style="fill: none; stroke-dasharray: 5.12,1.28,0.8,1.28; stroke-dashoffset: 0; stroke: #b0b0b0; stroke-width: 0.8"/>
     </g>
     <g id="line2d_24">
      <g>
       <use xlink:href="#mde935dcb07" x="101.01" y="65.341656" style="stroke: #000000; stroke-width: 0.8"/>
      </g>
     </g>
     <g id="text_13">
      <!-- 150 -->
      <g transform="translate(52.0175 73.699937)scale(0.22 -0.22)">
       <use xlink:href="#DejaVuSans-31"/>
       <use xlink:href="#DejaVuSans-35" x="63.623047"/>
       <use xlink:href="#DejaVuSans-30" x="127.246094"/>
      </g>
     </g>
    </g>
    <g id="text_14">
     <!-- Throughput (Mbps) -->
     <g transform="translate(43.02625 292.414375)rotate(-90)scale(0.24 -0.24)">
      <defs>
       <path id="DejaVuSans-68" d="M 3513 2113 
L 3513 0 
L 2938 0 
L 2938 2094 
Q 2938 2591 2744 2837 
Q 2550 3084 2163 3084 
Q 1697 3084 1428 2787 
Q 1159 2491 1159 1978 
L 1159 0 
L 581 0 
L 581 4863 
L 1159 4863 
L 1159 2956 
Q 1366 3272 1645 3428 
Q 1925 3584 2291 3584 
Q 2894 3584 3203 3211 
Q 3513 2838 3513 2113 
z
" transform="scale(0.015625)"/>
       <path id="DejaVuSans-72" d="M 2631 2963 
Q 2534 3019 2420 3045 
Q 2306 3072 2169 3072 
Q 1681 3072 1420 2755 
Q 1159 2438 1159 1844 
L 1159 0 
L 581 0 
L 581 3500 
L 1159 3500 
L 1159 2956 
Q 1341 3275 1631 3429 
Q 1922 3584 2338 3584 
Q 2397 3584 2469 3576 
Q 2541 3569 2628 3553 
L 2631 2963 
z
" transform="scale(0.015625)"/>
       <path id="DejaVuSans-6f" d="M 1959 3097 
Q 1497 3097 1228 2736 
Q 959 2375 959 1747 
Q 959 1119 1226 758 
Q 1494 397 1959 397 
Q 2419 397 2687 759 
Q 2956 1122 2956 1747 
Q 2956 2369 2687 2733 
Q 2419 3097 1959 3097 
z
M 1959 3584 
Q 2709 3584 3137 3096 
Q 3566 2609 3566 1747 
Q 3566 888 3137 398 
Q 2709 -91 1959 -91 
Q 1206 -91 779 398 
Q 353 888 353 1747 
Q 353 2609 779 3096 
Q 1206 3584 1959 3584 
z
" transform="scale(0.015625)"/>
       <path id="DejaVuSans-75" d="M 544 1381 
L 544 3500 
L 1119 3500 
L 1119 1403 
Q 1119 906 1312 657 
Q 1506 409 1894 409 
Q 2359 409 2629 706 
Q 2900 1003 2900 1516 
L 2900 3500 
L 3475 3500 
L 3475 0 
L 2900 0 
L 2900 538 
Q 2691 219 2414 64 
Q 2138 -91 1772 -91 
Q 1169 -91 856 284 
Q 544 659 544 1381 
z
M 1991 3584 
L 1991 3584 
z
" transform="scale(0.015625)"/>
       <path id="DejaVuSans-67" d="M 2906 1791 
Q 2906 2416 2648 2759 
Q 2391 3103 1925 3103 
Q 1463 3103 1205 2759 
Q 947 2416 947 1791 
Q 947 1169 1205 825 
Q 1463 481 1925 481 
Q 2391 481 2648 825 
Q 2906 1169 2906 1791 
z
M 3481 434 
Q 3481 -459 3084 -895 
Q 2688 -1331 1869 -1331 
Q 1566 -1331 1297 -1286 
Q 1028 -1241 775 -1147 
L 775 -588 
Q 1028 -725 1275 -790 
Q 1522 -856 1778 -856 
Q 2344 -856 2625 -561 
Q 2906 -266 2906 331 
L 2906 616 
Q 2728 306 2450 153 
Q 2172 0 1784 0 
Q 1141 0 747 490 
Q 353 981 353 1791 
Q 353 2603 747 3093 
Q 1141 3584 1784 3584 
Q 2172 3584 2450 3431 
Q 2728 3278 2906 2969 
L 2906 3500 
L 3481 3500 
L 3481 434 
z
" transform="scale(0.015625)"/>
       <path id="DejaVuSans-70" d="M 1159 525 
L 1159 -1331 
L 581 -1331 
L 581 3500 
L 1159 3500 
L 1159 2969 
Q 1341 3281 1617 3432 
Q 1894 3584 2278 3584 
Q 2916 3584 3314 3078 
Q 3713 2572 3713 1747 
Q 3713 922 3314 415 
Q 2916 -91 2278 -91 
Q 1894 -91 1617 61 
Q 1341 213 1159 525 
z
M 3116 1747 
Q 3116 2381 2855 2742 
Q 2594 3103 2138 3103 
Q 1681 3103 1420 2742 
Q 1159 2381 1159 1747 
Q 1159 1113 1420 752 
Q 1681 391 2138 391 
Q 2594 391 2855 752 
Q 3116 1113 3116 1747 
z
" transform="scale(0.015625)"/>
       <path id="DejaVuSans-74" d="M 1172 4494 
L 1172 3500 
L 2356 3500 
L 2356 3053 
L 1172 3053 
L 1172 1153 
Q 1172 725 1289 603 
Q 1406 481 1766 481 
L 2356 481 
L 2356 0 
L 1766 0 
Q 1100 0 847 248 
Q 594 497 594 1153 
L 594 3053 
L 172 3053 
L 172 3500 
L 594 3500 
L 594 4494 
L 1172 4494 
z
" transform="scale(0.015625)"/>
       <path id="DejaVuSans-4d" d="M 628 4666 
L 1569 4666 
L 2759 1491 
L 3956 4666 
L 4897 4666 
L 4897 0 
L 4281 0 
L 4281 4097 
L 3078 897 
L 2444 897 
L 1241 4097 
L 1241 0 
L 628 0 
L 628 4666 
z
" transform="scale(0.015625)"/>
       <path id="DejaVuSans-62" d="M 3116 1747 
Q 3116 2381 2855 2742 
Q 2594 3103 2138 3103 
Q 1681 3103 1420 2742 
Q 1159 2381 1159 1747 
Q 1159 1113 1420 752 
Q 1681 391 2138 391 
Q 2594 391 2855 752 
Q 3116 1113 3116 1747 
z
M 1159 2969 
Q 1341 3281 1617 3432 
Q 1894 3584 2278 3584 
Q 2916 3584 3314 3078 
Q 3713 2572 3713 1747 
Q 3713 922 3314 415 
Q 2916 -91 2278 -91 
Q 1894 -91 1617 61 
Q 1341 213 1159 525 
L 1159 0 
L 581 0 
L 581 4863 
L 1159 4863 
L 1159 2969 
z
" transform="scale(0.015625)"/>
      </defs>
      <use xlink:href="#DejaVuSans-54"/>
      <use xlink:href="#DejaVuSans-68" x="61.083984"/>
      <use xlink:href="#DejaVuSans-72" x="124.462891"/>
      <use xlink:href="#DejaVuSans-6f" x="163.326172"/>
      <use xlink:href="#DejaVuSans-75" x="224.507812"/>
      <use xlink:href="#DejaVuSans-67" x="287.886719"/>
      <use xlink:href="#DejaVuSans-68" x="351.363281"/>
      <use xlink:href="#DejaVuSans-70" x="414.742188"/>
      <use xlink:href="#DejaVuSans-75" x="478.21875"/>
      <use xlink:href="#DejaVuSans-74" x="541.597656"/>
      <use xlink:href="#DejaVuSans-20" x="580.806641"/>
      <use xlink:href="#DejaVuSans-28" x="612.59375"/>
      <use xlink:href="#DejaVuSans-4d" x="651.607422"/>
      <use xlink:href="#DejaVuSans-62" x="737.886719"/>
      <use xlink:href="#DejaVuSans-70" x="801.363281"/>
      <use xlink:href="#DejaVuSans-73" x="864.839844"/>
      <use xlink:href="#DejaVuSans-29" x="916.939453"/>
     </g>
    </g>
   </g>
   <g id="patch_3">
    <path d="M 101.01 331.64 
L 101.01 23.76 
" style="fill: none; stroke: #000000; stroke-width: 0.8; stroke-linejoin: miter; stroke-linecap: square"/>
   </g>
   <g id="patch_4">
    <path d="M 897.84 331.64 
L 897.84 23.76 
" style="fill: none; stroke: #000000; stroke-width: 0.8; stroke-linejoin: miter; stroke-linecap: square"/>
   </g>
   <g id="patch_5">
    <path d="M 101.01 331.64 
L 897.84 331.64 
" style="fill: none; stroke: #000000; stroke-width: 0.8; stroke-linejoin: miter; stroke-linecap: square"/>
   </g>
   <g id="patch_6">
    <path d="M 101.01 23.76 
L 897.84 23.76 
" style="fill: none; stroke: #000000; stroke-width: 0.8; stroke-linejoin: miter; stroke-linecap: square"/>
   </g>
   <g id="legend_1">
    <g id="patch_7">
     <path d="M 756.24 148.6425 
L 881.04 148.6425 
Q 885.84 148.6425 885.84 143.8425 
L 885.84 40.56 
Q 885.84 35.76 881.04 35.76 
L 756.24 35.76 
Q 751.44 35.76 751.44 40.56 
L 751.44 143.8425 
Q 751.44 148.6425 756.24 148.6425 
z
" style="fill: #ffffff; opacity: 0.8; stroke: #cccccc; stroke-linejoin: miter"/>
    </g>
    <g id="patch_8">
     <path d="M 761.04 63.59625 
L 809.04 63.59625 
L 809.04 46.79625 
L 761.04 46.79625 
z
" style="fill: #1f77b4"/>
    </g>
    <g id="text_15">
     <!-- UE1 -->
     <g transform="translate(828.24 63.59625)scale(0.24 -0.24)">
      <defs>
       <path id="DejaVuSans-55" d="M 556 4666 
L 1191 4666 
L 1191 1831 
Q 1191 1081 1462 751 
Q 1734 422 2344 422 
Q 2950 422 3222 751 
Q 3494 1081 3494 1831 
L 3494 4666 
L 4128 4666 
L 4128 1753 
Q 4128 841 3676 375 
Q 3225 -91 2344 -91 
Q 1459 -91 1007 375 
Q 556 841 556 1753 
L 556 4666 
z
" transform="scale(0.015625)"/>
       <path id="DejaVuSans-45" d="M 628 4666 
L 3578 4666 
L 3578 4134 
L 1259 4134 
L 1259 2753 
L 3481 2753 
L 3481 2222 
L 1259 2222 
L 1259 531 
L 3634 531 
L 3634 0 
L 628 0 
L 628 4666 
z
" transform="scale(0.015625)"/>
      </defs>
      <use xlink:href="#DejaVuSans-55"/>
      <use xlink:href="#DejaVuSans-45" x="73.193359"/>
      <use xlink:href="#DejaVuSans-31" x="136.376953"/>
     </g>
    </g>
    <g id="patch_9">
     <path d="M 761.04 98.82375 
L 809.04 98.82375 
L 809.04 82.02375 
L 761.04 82.02375 
z
" style="fill: #ff7f0e"/>
    </g>
    <g id="text_16">
     <!-- UE2 -->
     <g transform="translate(828.24 98.82375)scale(0.24 -0.24)">
      <use xlink:href="#DejaVuSans-55"/>
      <use xlink:href="#DejaVuSans-45" x="73.193359"/>
      <use xlink:href="#DejaVuSans-32" x="136.376953"/>
     </g>
    </g>
    <g id="patch_10">
     <path d="M 761.04 134.05125 
L 809.04 134.05125 
L 809.04 117.25125 
L 761.04 117.25125 
z
" style="fill: #2ca02c"/>
    </g>
    <g id="text_17">
     <!-- UE3 -->
     <g transform="translate(828.24 134.05125)scale(0.24 -0.24)">
      <defs>
       <path id="DejaVuSans-33" d="M 2597 2516 
Q 3050 2419 3304 2112 
Q 3559 1806 3559 1356 
Q 3559 666 3084 287 
Q 2609 -91 1734 -91 
Q 1441 -91 1130 -33 
Q 819 25 488 141 
L 488 750 
Q 750 597 1062 519 
Q 1375 441 1716 441 
Q 2309 441 2620 675 
Q 2931 909 2931 1356 
Q 2931 1769 2642 2001 
Q 2353 2234 1838 2234 
L 1294 2234 
L 1294 2753 
L 1863 2753 
Q 2328 2753 2575 2939 
Q 2822 3125 2822 3475 
Q 2822 3834 2567 4026 
Q 2313 4219 1838 4219 
Q 1578 4219 1281 4162 
Q 984 4106 628 3988 
L 628 4550 
Q 988 4650 1302 4700 
Q 1616 4750 1894 4750 
Q 2613 4750 3031 4423 
Q 3450 4097 3450 3541 
Q 3450 3153 3228 2886 
Q 3006 2619 2597 2516 
z
" transform="scale(0.015625)"/>
      </defs>
      <use xlink:href="#DejaVuSans-55"/>
      <use xlink:href="#DejaVuSans-45" x="73.193359"/>
      <use xlink:href="#DejaVuSans-33" x="136.376953"/>
     </g>
    </g>
   </g>
  </g>
 </g>
 <defs>
  <clipPath id="p19464ce875">
   <rect x="101.01" y="23.76" width="796.83" height="307.88"/>
  </clipPath>
 </defs>
</svg>
