<?xml version="1.0" encoding="utf-8" standalone="no"?>
<!DOCTYPE svg PUBLIC "-//W3C//DTD SVG 1.1//EN"
  "http://www.w3.org/Graphics/SVG/1.1/DTD/svg11.dtd">
<svg xmlns:xlink="http://www.w3.org/1999/xlink" width="921.6pt" height="410.4pt" viewBox="0 0 921.6 410.4" xmlns="http://www.w3.org/2000/svg" version="1.1">
 <metadata>
  <rdf:RDF xmlns:dc="http://purl.org/dc/elements/1.1/" xmlns:cc="http://creativecommons.org/ns#" xmlns:rdf="http://www.w3.org/1999/02/22-rdf-syntax-ns#">
   <cc:Work>
    <dc:type rdf:resource="http://purl.org/dc/dcmitype/StillImage"/>
    <dc:date>2023-04-11T15:20:45.679347</dc:date>
    <dc:format>image/svg+xml</dc:format>
    <dc:creator>
     <cc:Agent>
      <dc:title>Matplotlib v3.5.3, https://matplotlib.org/</dc:title>
     </cc:Agent>
    </dc:creator>
   </cc:Work>
  </rdf:RDF>
 </metadata>
 <defs>
  <style type="text/css">*{stroke-linejoin: round; stroke-linecap: butt}</style>
 </defs>
 <g id="figure_1">
  <g id="patch_1">
   <path d="M 0 410.4 
L 921.6 410.4 
L 921.6 0 
L 0 0 
L 0 410.4 
z
" style="fill: none"/>
  </g>
  <g id="axes_1">
   <g id="patch_2">
    <path d="M 101.01 331.64 
L 897.84 331.64 
L 897.84 23.76 
L 101.01 23.76 
z
" style="fill: #ffffff"/>
   </g>
   <g id="PolyCollection_1">
    <path d="M 137.229545 185.585155 
L 137.229545 331.64 
L 141.231705 331.64 
L 145.233865 331.64 
L 149.236025 331.64 
L 153.238184 331.64 
L 157.240344 331.64 
L 161.242504 331.64 
L 165.244663 331.64 
L 169.246823 331.64 
L 173.248983 331.64 
L 177.251143 331.64 
L 181.253302 331.64 
L 185.255462 331.64 
L 189.257622 331.64 
L 193.259782 331.64 
L 197.261941 331.64 
L 201.264101 331.64 
L 205.266261 331.64 
L 209.26842 331.64 
L 213.27058 331.64 
L 217.27274 331.64 
L 221.2749 331.64 
L 225.277059 331.64 
L 229.279219 331.64 
L 233.281379 331.64 
L 237.283538 331.64 
L 241.285698 331.64 
L 245.287858 331.64 
L 249.290018 331.64 
L 253.292177 331.64 
L 257.294337 331.64 
L 261.296497 331.64 
L 265.298656 331.64 
L 269.300816 331.64 
L 273.302976 331.64 
L 277.305136 331.64 
L 281.307295 331.64 
L 285.309455 331.64 
L 289.311615 331.64 
L 293.313774 331.64 
L 297.315934 331.64 
L 301.318094 331.64 
L 305.320254 331.64 
L 309.322413 331.64 
L 313.324573 331.64 
L 317.326733 331.64 
L 321.328893 331.64 
L 325.331052 331.64 
L 329.333212 331.64 
L 333.335372 331.64 
L 337.337531 331.64 
L 341.339691 331.64 
L 345.341851 331.64 
L 349.344011 331.64 
L 353.34617 331.64 
L 357.34833 331.64 
L 361.35049 331.64 
L 365.352649 331.64 
L 369.354809 331.64 
L 373.356969 331.64 
L 377.359129 331.64 
L 381.361288 331.64 
L 385.363448 331.64 
L 389.365608 331.64 
L 393.367767 331.64 
L 397.369927 331.64 
L 401.372087 331.64 
L 405.374247 331.64 
L 409.376406 331.64 
L 413.378566 331.64 
L 417.380726 331.64 
L 421.382885 331.64 
L 425.385045 331.64 
L 429.387205 331.64 
L 433.389365 331.64 
L 437.391524 331.64 
L 441.393684 331.64 
L 445.395844 331.64 
L 449.398004 331.64 
L 453.400163 331.64 
L 457.402323 331.64 
L 461.404483 331.64 
L 465.406642 331.64 
L 469.408802 331.64 
L 473.410962 331.64 
L 477.413122 331.64 
L 481.415281 331.64 
L 485.417441 331.64 
L 489.419601 331.64 
L 493.42176 331.64 
L 497.42392 331.64 
L 501.42608 331.64 
L 505.42824 331.64 
L 509.430399 331.64 
L 513.432559 331.64 
L 517.434719 331.64 
L 521.436878 331.64 
L 525.439038 331.64 
L 529.441198 331.64 
L 533.443358 331.64 
L 537.445517 331.64 
L 541.447677 331.64 
L 545.449837 331.64 
L 549.451996 331.64 
L 553.454156 331.64 
L 557.456316 331.64 
L 561.458476 331.64 
L 565.460635 331.64 
L 569.462795 331.64 
L 573.464955 331.64 
L 577.467115 331.64 
L 581.469274 331.64 
L 585.471434 331.64 
L 589.473594 331.64 
L 593.475753 331.64 
L 597.477913 331.64 
L 601.480073 331.64 
L 605.482233 331.64 
L 609.484392 331.64 
L 613.486552 331.64 
L 617.488712 331.64 
L 621.490871 331.64 
L 625.493031 331.64 
L 629.495191 331.64 
L 633.497351 331.64 
L 637.49951 331.64 
L 641.50167 331.64 
L 645.50383 331.64 
L 649.505989 331.64 
L 653.508149 331.64 
L 657.510309 331.64 
L 661.512469 331.64 
L 665.514628 331.64 
L 669.516788 331.64 
L 673.518948 331.64 
L 677.521107 331.64 
L 681.523267 331.64 
L 685.525427 331.64 
L 689.527587 331.64 
L 693.529746 331.64 
L 697.531906 331.64 
L 701.534066 331.64 
L 705.536226 331.64 
L 709.538385 331.64 
L 713.540545 331.64 
L 717.542705 331.64 
L 721.544864 331.64 
L 725.547024 331.64 
L 729.549184 331.64 
L 733.551344 331.64 
L 737.553503 331.64 
L 741.555663 331.64 
L 745.557823 331.64 
L 749.559982 331.64 
L 753.562142 331.64 
L 757.564302 331.64 
L 761.566462 331.64 
L 765.568621 331.64 
L 769.570781 331.64 
L 773.572941 331.64 
L 777.5751 331.64 
L 781.57726 331.64 
L 785.57942 331.64 
L 789.58158 331.64 
L 793.583739 331.64 
L 797.585899 331.64 
L 801.588059 331.64 
L 805.590218 331.64 
L 809.592378 331.64 
L 813.594538 331.64 
L 817.596698 331.64 
L 821.598857 331.64 
L 825.601017 331.64 
L 829.603177 331.64 
L 833.605337 331.64 
L 837.607496 331.64 
L 841.609656 331.64 
L 845.611816 331.64 
L 849.613975 331.64 
L 853.616135 331.64 
L 857.618295 331.64 
L 861.620455 331.64 
L 861.620455 331.64 
L 861.620455 331.64 
L 857.618295 185.50842 
L 853.616135 185.421793 
L 849.613975 185.396568 
L 845.611816 185.426246 
L 841.609656 185.431227 
L 837.607496 185.598164 
L 833.605337 185.425341 
L 829.603177 185.339354 
L 825.601017 185.72816 
L 821.598857 185.469253 
L 817.596698 185.6513 
L 813.594538 185.342638 
L 809.592378 185.66918 
L 805.590218 185.69396 
L 801.588059 185.797923 
L 797.585899 185.329392 
L 793.583739 185.528192 
L 789.58158 185.366639 
L 785.57942 185.404832 
L 781.57726 185.452612 
L 777.5751 185.347299 
L 773.572941 185.469337 
L 769.570781 185.422183 
L 765.568621 185.706482 
L 761.566462 185.344238 
L 757.564302 185.650521 
L 753.562142 185.408394 
L 749.559982 185.736995 
L 745.557823 185.208635 
L 741.555663 185.72009 
L 737.553503 185.395093 
L 733.551344 185.470185 
L 729.549184 185.386369 
L 725.547024 185.471326 
L 721.544864 185.506625 
L 717.542705 185.255218 
L 713.540545 185.383572 
L 709.538385 185.313489 
L 705.536226 185.805924 
L 701.534066 185.404192 
L 697.531906 185.976785 
L 693.529746 186.317518 
L 689.527587 185.735966 
L 685.525427 186.262114 
L 681.523267 185.310149 
L 677.521107 185.162413 
L 673.518948 185.022051 
L 669.516788 185.244143 
L 665.514628 185.07971 
L 661.512469 185.238702 
L 657.510309 185.129271 
L 653.508149 185.056251 
L 649.505989 185.409354 
L 645.50383 184.919674 
L 641.50167 185.058812 
L 637.49951 185.246703 
L 633.497351 185.365888 
L 629.495191 185.851742 
L 625.493031 185.292729 
L 621.490871 185.28875 
L 617.488712 185.248873 
L 613.486552 185.367265 
L 609.484392 185.244477 
L 605.482233 185.190992 
L 601.480073 185.390209 
L 597.477913 185.267824 
L 593.475753 185.448299 
L 589.473594 185.252338 
L 585.471434 185.493282 
L 581.469274 185.171318 
L 577.467115 185.569154 
L 573.464955 185.3323 
L 569.462795 185.844437 
L 565.460635 185.303749 
L 561.458476 185.45719 
L 557.456316 185.178609 
L 553.454156 185.539197 
L 549.451996 185.422392 
L 545.449837 185.276116 
L 541.447677 185.208162 
L 537.445517 185.313948 
L 533.443358 185.342248 
L 529.441198 185.298851 
L 525.439038 185.478088 
L 521.436878 185.331855 
L 517.434719 185.583805 
L 513.432559 185.258515 
L 509.430399 185.452362 
L 505.42824 185.229352 
L 501.42608 185.614081 
L 497.42392 185.489957 
L 493.42176 185.257987 
L 489.419601 185.175506 
L 485.417441 185.284061 
L 481.415281 185.362215 
L 477.413122 185.571783 
L 473.410962 185.324133 
L 469.408802 185.562489 
L 465.406642 185.458887 
L 461.404483 185.185385 
L 457.402323 185.589551 
L 453.400163 185.297182 
L 449.398004 185.439005 
L 445.395844 185.346798 
L 441.393684 185.554238 
L 437.391524 185.332008 
L 433.389365 185.175117 
L 429.387205 185.317287 
L 425.385045 185.29817 
L 421.382885 185.224816 
L 417.380726 185.183103 
L 413.378566 185.374556 
L 409.376406 185.263218 
L 405.374247 185.565954 
L 401.372087 185.254188 
L 397.369927 185.426079 
L 393.367767 185.341441 
L 389.365608 185.410259 
L 385.363448 185.612328 
L 381.361288 185.521513 
L 377.359129 185.332912 
L 373.356969 185.287595 
L 369.354809 185.372038 
L 365.352649 185.272666 
L 361.35049 185.197754 
L 357.34833 185.315659 
L 353.34617 185.30656 
L 349.344011 185.155109 
L 345.341851 185.612133 
L 341.339691 185.251503 
L 337.337531 185.6182 
L 333.335372 185.304111 
L 329.333212 185.434538 
L 325.331052 185.309927 
L 321.328893 185.471424 
L 317.326733 185.448842 
L 313.324573 185.3355 
L 309.322413 185.288764 
L 305.320254 185.195138 
L 301.318094 185.238382 
L 297.315934 185.310233 
L 293.313774 185.17687 
L 289.311615 185.353296 
L 285.309455 185.683553 
L 281.307295 185.29714 
L 277.305136 185.535636 
L 273.302976 185.496635 
L 269.300816 186.639162 
L 265.298656 185.533813 
L 261.296497 185.718142 
L 257.294337 185.131441 
L 253.292177 185.040612 
L 249.290018 185.250292 
L 245.287858 185.385771 
L 241.285698 185.065309 
L 237.283538 185.131386 
L 233.281379 185.192314 
L 229.279219 185.132694 
L 225.277059 185.244379 
L 221.2749 185.328418 
L 217.27274 185.31975 
L 213.27058 185.276562 
L 209.26842 185.266154 
L 205.266261 185.351877 
L 201.264101 185.261604 
L 197.261941 185.264763 
L 193.259782 185.163123 
L 189.257622 185.299394 
L 185.255462 185.56683 
L 181.253302 185.501269 
L 177.251143 185.322393 
L 173.248983 185.234681 
L 169.246823 185.262843 
L 165.244663 185.424479 
L 161.242504 185.469851 
L 157.240344 185.757393 
L 153.238184 185.339466 
L 149.236025 185.711004 
L 145.233865 185.541618 
L 141.231705 185.609601 
L 137.229545 185.585155 
z
" clip-path="url(#pc34a21f0f1)" style="fill: #1f77b4"/>
   </g>
   <g id="PolyCollection_2">
    <path d="M 137.229545 41.020387 
L 137.229545 185.585155 
L 141.231705 185.609601 
L 145.233865 185.541618 
L 149.236025 185.711004 
L 153.238184 185.339466 
L 157.240344 185.757393 
L 161.242504 185.469851 
L 165.244663 185.424479 
L 169.246823 185.262843 
L 173.248983 185.234681 
L 177.251143 185.322393 
L 181.253302 185.501269 
L 185.255462 185.56683 
L 189.257622 185.299394 
L 193.259782 185.163123 
L 197.261941 185.264763 
L 201.264101 185.261604 
L 205.266261 185.351877 
L 209.26842 185.266154 
L 213.27058 185.276562 
L 217.27274 185.31975 
L 221.2749 185.328418 
L 225.277059 185.244379 
L 229.279219 185.132694 
L 233.281379 185.192314 
L 237.283538 185.131386 
L 241.285698 185.065309 
L 245.287858 185.385771 
L 249.290018 185.250292 
L 253.292177 185.040612 
L 257.294337 185.131441 
L 261.296497 185.718142 
L 265.298656 185.533813 
L 269.300816 186.639162 
L 273.302976 185.496635 
L 277.305136 185.535636 
L 281.307295 185.29714 
L 285.309455 185.683553 
L 289.311615 185.353296 
L 293.313774 185.17687 
L 297.315934 185.310233 
L 301.318094 185.238382 
L 305.320254 185.195138 
L 309.322413 185.288764 
L 313.324573 185.3355 
L 317.326733 185.448842 
L 321.328893 185.471424 
L 325.331052 185.309927 
L 329.333212 185.434538 
L 333.335372 185.304111 
L 337.337531 185.6182 
L 341.339691 185.251503 
L 345.341851 185.612133 
L 349.344011 185.155109 
L 353.34617 185.30656 
L 357.34833 185.315659 
L 361.35049 185.197754 
L 365.352649 185.272666 
L 369.354809 185.372038 
L 373.356969 185.287595 
L 377.359129 185.332912 
L 381.361288 185.521513 
L 385.363448 185.612328 
L 389.365608 185.410259 
L 393.367767 185.341441 
L 397.369927 185.426079 
L 401.372087 185.254188 
L 405.374247 185.565954 
L 409.376406 185.263218 
L 413.378566 185.374556 
L 417.380726 185.183103 
L 421.382885 185.224816 
L 425.385045 185.29817 
L 429.387205 185.317287 
L 433.389365 185.175117 
L 437.391524 185.332008 
L 441.393684 185.554238 
L 445.395844 185.346798 
L 449.398004 185.439005 
L 453.400163 185.297182 
L 457.402323 185.589551 
L 461.404483 185.185385 
L 465.406642 185.458887 
L 469.408802 185.562489 
L 473.410962 185.324133 
L 477.413122 185.571783 
L 481.415281 185.362215 
L 485.417441 185.284061 
L 489.419601 185.175506 
L 493.42176 185.257987 
L 497.42392 185.489957 
L 501.42608 185.614081 
L 505.42824 185.229352 
L 509.430399 185.452362 
L 513.432559 185.258515 
L 517.434719 185.583805 
L 521.436878 185.331855 
L 525.439038 185.478088 
L 529.441198 185.298851 
L 533.443358 185.342248 
L 537.445517 185.313948 
L 541.447677 185.208162 
L 545.449837 185.276116 
L 549.451996 185.422392 
L 553.454156 185.539197 
L 557.456316 185.178609 
L 561.458476 185.45719 
L 565.460635 185.303749 
L 569.462795 185.844437 
L 573.464955 185.3323 
L 577.467115 185.569154 
L 581.469274 185.171318 
L 585.471434 185.493282 
L 589.473594 185.252338 
L 593.475753 185.448299 
L 597.477913 185.267824 
L 601.480073 185.390209 
L 605.482233 185.190992 
L 609.484392 185.244477 
L 613.486552 185.367265 
L 617.488712 185.248873 
L 621.490871 185.28875 
L 625.493031 185.292729 
L 629.495191 185.851742 
L 633.497351 185.365888 
L 637.49951 185.246703 
L 641.50167 185.058812 
L 645.50383 184.919674 
L 649.505989 185.409354 
L 653.508149 185.056251 
L 657.510309 185.129271 
L 661.512469 185.238702 
L 665.514628 185.07971 
L 669.516788 185.244143 
L 673.518948 185.022051 
L 677.521107 185.162413 
L 681.523267 185.310149 
L 685.525427 186.262114 
L 689.527587 185.735966 
L 693.529746 186.317518 
L 697.531906 185.976785 
L 701.534066 185.404192 
L 705.536226 185.805924 
L 709.538385 185.313489 
L 713.540545 185.383572 
L 717.542705 185.255218 
L 721.544864 185.506625 
L 725.547024 185.471326 
L 729.549184 185.386369 
L 733.551344 185.470185 
L 737.553503 185.395093 
L 741.555663 185.72009 
L 745.557823 185.208635 
L 749.559982 185.736995 
L 753.562142 185.408394 
L 757.564302 185.650521 
L 761.566462 185.344238 
L 765.568621 185.706482 
L 769.570781 185.422183 
L 773.572941 185.469337 
L 777.5751 185.347299 
L 781.57726 185.452612 
L 785.57942 185.404832 
L 789.58158 185.366639 
L 793.583739 185.528192 
L 797.585899 185.329392 
L 801.588059 185.797923 
L 805.590218 185.69396 
L 809.592378 185.66918 
L 813.594538 185.342638 
L 817.596698 185.6513 
L 821.598857 185.469253 
L 825.601017 185.72816 
L 829.603177 185.339354 
L 833.605337 185.425341 
L 837.607496 185.598164 
L 841.609656 185.431227 
L 845.611816 185.426246 
L 849.613975 185.396568 
L 853.616135 185.421793 
L 857.618295 185.50842 
L 861.620455 331.64 
L 861.620455 185.241847 
L 861.620455 185.241847 
L 857.618295 39.03978 
L 853.616135 38.985989 
L 849.613975 38.959094 
L 845.611816 38.911231 
L 841.609656 39.176218 
L 837.607496 39.098037 
L 833.605337 39.123221 
L 829.603177 39.08717 
L 825.601017 39.273934 
L 821.598857 39.254121 
L 817.596698 39.197631 
L 813.594538 39.163946 
L 809.592378 39.252605 
L 805.590218 39.878445 
L 801.588059 39.398198 
L 797.585899 38.785159 
L 793.583739 39.178792 
L 789.58158 38.879814 
L 785.57942 38.940992 
L 781.57726 39.005177 
L 777.5751 38.903425 
L 773.572941 39.01141 
L 769.570781 39.292454 
L 765.568621 39.27975 
L 761.566462 39.128411 
L 757.564302 39.242949 
L 753.562142 38.999027 
L 749.559982 39.53152 
L 745.557823 38.88915 
L 741.555663 39.31466 
L 737.553503 39.042771 
L 733.551344 38.993781 
L 729.549184 38.8969 
L 725.547024 39.007598 
L 721.544864 39.129259 
L 717.542705 38.819428 
L 713.540545 38.975053 
L 709.538385 39.161762 
L 705.536226 39.376089 
L 701.534066 39.540675 
L 697.531906 39.529655 
L 693.529746 41.078213 
L 689.527587 39.274101 
L 685.525427 40.608262 
L 681.523267 38.725176 
L 677.521107 38.357728 
L 673.518948 38.368539 
L 669.516788 38.662954 
L 665.514628 38.28073 
L 661.512469 38.552674 
L 657.510309 38.519698 
L 653.508149 38.260666 
L 649.505989 38.61203 
L 645.50383 38.400402 
L 641.50167 38.388561 
L 637.49951 38.748997 
L 633.497351 38.884684 
L 629.495191 39.865561 
L 625.493031 39.023654 
L 621.490871 38.980827 
L 617.488712 38.813264 
L 613.486552 39.255457 
L 609.484392 38.884002 
L 605.482233 38.831269 
L 601.480073 39.169039 
L 597.477913 38.973008 
L 593.475753 39.156711 
L 589.473594 39.222968 
L 585.471434 39.127506 
L 581.469274 39.199496 
L 577.467115 39.363191 
L 573.464955 39.623281 
L 569.462795 39.438868 
L 565.460635 39.299202 
L 561.458476 39.156113 
L 557.456316 38.953501 
L 553.454156 39.392229 
L 549.451996 39.212088 
L 545.449837 39.000863 
L 541.447677 38.790487 
L 537.445517 39.087476 
L 533.443358 39.044121 
L 529.441198 39.257669 
L 525.439038 39.099233 
L 521.436878 39.290033 
L 517.434719 39.271945 
L 513.432559 39.312684 
L 509.430399 39.088381 
L 505.42824 39.135507 
L 501.42608 39.551917 
L 497.42392 39.163543 
L 493.42176 38.962934 
L 489.419601 38.927524 
L 485.417441 38.914876 
L 481.415281 39.514503 
L 477.413122 39.243505 
L 473.410962 39.187182 
L 469.408802 39.389085 
L 465.406642 39.230064 
L 461.404483 39.09435 
L 457.402323 39.259297 
L 453.400163 39.255457 
L 449.398004 39.145427 
L 445.395844 39.151549 
L 441.393684 39.222384 
L 437.391524 39.121398 
L 433.389365 38.781291 
L 429.387205 38.964757 
L 425.385045 39.052414 
L 421.382885 39.044566 
L 417.380726 38.909756 
L 413.378566 38.983054 
L 409.376406 39.29461 
L 405.374247 39.223831 
L 401.372087 39.162124 
L 397.369927 39.063739 
L 393.367767 39.244131 
L 389.365608 39.301734 
L 385.363448 39.754766 
L 381.361288 39.314799 
L 377.359129 38.986824 
L 373.356969 38.955143 
L 369.354809 39.059468 
L 365.352649 38.912706 
L 361.35049 38.91791 
L 357.34833 39.123499 
L 353.34617 38.956409 
L 349.344011 39.189687 
L 345.341851 39.299063 
L 341.339691 39.165324 
L 337.337531 39.250601 
L 333.335372 39.218613 
L 329.333212 39.190897 
L 325.331052 39.213117 
L 321.328893 39.52427 
L 317.326733 39.137649 
L 313.324573 39.026882 
L 309.322413 38.993572 
L 305.320254 38.825035 
L 301.318094 39.043133 
L 297.315934 38.941744 
L 293.313774 38.906904 
L 289.311615 39.516354 
L 285.309455 39.430742 
L 281.307295 39.220881 
L 277.305136 39.234906 
L 273.302976 40.671876 
L 269.300816 40.299503 
L 265.298656 39.967354 
L 261.296497 39.152426 
L 257.294337 38.390467 
L 253.292177 38.332364 
L 249.290018 38.543908 
L 245.287858 38.63489 
L 241.285698 38.342187 
L 237.283538 38.49265 
L 233.281379 38.433433 
L 229.279219 38.471529 
L 225.277059 38.871897 
L 221.2749 38.998929 
L 217.27274 39.081925 
L 213.27058 38.95755 
L 209.26842 38.904302 
L 205.266261 39.095115 
L 201.264101 38.994463 
L 197.261941 38.887425 
L 193.259782 38.914389 
L 189.257622 39.110684 
L 185.255462 39.601965 
L 181.253302 39.249279 
L 177.251143 38.94166 
L 173.248983 39.050368 
L 169.246823 39.155417 
L 165.244663 39.331482 
L 161.242504 39.645153 
L 157.240344 39.446952 
L 153.238184 39.551778 
L 149.236025 39.540271 
L 145.233865 39.675889 
L 141.231705 39.58787 
L 137.229545 41.020387 
z
" clip-path="url(#pc34a21f0f1)" style="fill: #ff7f0e"/>
   </g>
   <g id="matplotlib.axis_1">
    <g id="xtick_1">
     <g id="line2d_1">
      <path d="M 137.229545 331.64 
L 137.229545 23.76 
" clip-path="url(#pc34a21f0f1)" style="fill: none; stroke-dasharray: 5.12,1.28,0.8,1.28; stroke-dashoffset: 0; stroke: #b0b0b0; stroke-width: 0.8"/>
     </g>
     <g id="line2d_2">
      <defs>
       <path id="m69033b064b" d="M 0 0 
L 0 3.5 
" style="stroke: #000000; stroke-width: 0.8"/>
      </defs>
      <g>
       <use xlink:href="#m69033b064b" x="137.229545" y="331.64" style="stroke: #000000; stroke-width: 0.8"/>
      </g>
     </g>
     <g id="text_1">
      <!-- 0 -->
      <g transform="translate(130.230795 355.356563)scale(0.22 -0.22)">
       <defs>
        <path id="DejaVuSans-30" d="M 2034 4250 
Q 1547 4250 1301 3770 
Q 1056 3291 1056 2328 
Q 1056 1369 1301 889 
Q 1547 409 2034 409 
Q 2525 409 2770 889 
Q 3016 1369 3016 2328 
Q 3016 3291 2770 3770 
Q 2525 4250 2034 4250 
z
M 2034 4750 
Q 2819 4750 3233 4129 
Q 3647 3509 3647 2328 
Q 3647 1150 3233 529 
Q 2819 -91 2034 -91 
Q 1250 -91 836 529 
Q 422 1150 422 2328 
Q 422 3509 836 4129 
Q 1250 4750 2034 4750 
z
" transform="scale(0.015625)"/>
       </defs>
       <use xlink:href="#DejaVuSans-30"/>
      </g>
     </g>
    </g>
    <g id="xtick_2">
     <g id="line2d_3">
      <path d="M 237.283538 331.64 
L 237.283538 23.76 
" clip-path="url(#pc34a21f0f1)" style="fill: none; stroke-dasharray: 5.12,1.28,0.8,1.28; stroke-dashoffset: 0; stroke: #b0b0b0; stroke-width: 0.8"/>
     </g>
     <g id="line2d_4">
      <g>
       <use xlink:href="#m69033b064b" x="237.283538" y="331.64" style="stroke: #000000; stroke-width: 0.8"/>
      </g>
     </g>
     <g id="text_2">
      <!-- 25 -->
      <g transform="translate(223.286038 355.356563)scale(0.22 -0.22)">
       <defs>
        <path id="DejaVuSans-32" d="M 1228 531 
L 3431 531 
L 3431 0 
L 469 0 
L 469 531 
Q 828 903 1448 1529 
Q 2069 2156 2228 2338 
Q 2531 2678 2651 2914 
Q 2772 3150 2772 3378 
Q 2772 3750 2511 3984 
Q 2250 4219 1831 4219 
Q 1534 4219 1204 4116 
Q 875 4013 500 3803 
L 500 4441 
Q 881 4594 1212 4672 
Q 1544 4750 1819 4750 
Q 2544 4750 2975 4387 
Q 3406 4025 3406 3419 
Q 3406 3131 3298 2873 
Q 3191 2616 2906 2266 
Q 2828 2175 2409 1742 
Q 1991 1309 1228 531 
z
" transform="scale(0.015625)"/>
        <path id="DejaVuSans-35" d="M 691 4666 
L 3169 4666 
L 3169 4134 
L 1269 4134 
L 1269 2991 
Q 1406 3038 1543 3061 
Q 1681 3084 1819 3084 
Q 2600 3084 3056 2656 
Q 3513 2228 3513 1497 
Q 3513 744 3044 326 
Q 2575 -91 1722 -91 
Q 1428 -91 1123 -41 
Q 819 9 494 109 
L 494 744 
Q 775 591 1075 516 
Q 1375 441 1709 441 
Q 2250 441 2565 725 
Q 2881 1009 2881 1497 
Q 2881 1984 2565 2268 
Q 2250 2553 1709 2553 
Q 1456 2553 1204 2497 
Q 953 2441 691 2322 
L 691 4666 
z
" transform="scale(0.015625)"/>
       </defs>
       <use xlink:href="#DejaVuSans-32"/>
       <use xlink:href="#DejaVuSans-35" x="63.623047"/>
      </g>
     </g>
    </g>
    <g id="xtick_3">
     <g id="line2d_5">
      <path d="M 337.337531 331.64 
L 337.337531 23.76 
" clip-path="url(#pc34a21f0f1)" style="fill: none; stroke-dasharray: 5.12,1.28,0.8,1.28; stroke-dashoffset: 0; stroke: #b0b0b0; stroke-width: 0.8"/>
     </g>
     <g id="line2d_6">
      <g>
       <use xlink:href="#m69033b064b" x="337.337531" y="331.64" style="stroke: #000000; stroke-width: 0.8"/>
      </g>
     </g>
     <g id="text_3">
      <!-- 50 -->
      <g transform="translate(323.340031 355.356563)scale(0.22 -0.22)">
       <use xlink:href="#DejaVuSans-35"/>
       <use xlink:href="#DejaVuSans-30" x="63.623047"/>
      </g>
     </g>
    </g>
    <g id="xtick_4">
     <g id="line2d_7">
      <path d="M 437.391524 331.64 
L 437.391524 23.76 
" clip-path="url(#pc34a21f0f1)" style="fill: none; stroke-dasharray: 5.12,1.28,0.8,1.28; stroke-dashoffset: 0; stroke: #b0b0b0; stroke-width: 0.8"/>
     </g>
     <g id="line2d_8">
      <g>
       <use xlink:href="#m69033b064b" x="437.391524" y="331.64" style="stroke: #000000; stroke-width: 0.8"/>
      </g>
     </g>
     <g id="text_4">
      <!-- 75 -->
      <g transform="translate(423.394024 355.356563)scale(0.22 -0.22)">
       <defs>
        <path id="DejaVuSans-37" d="M 525 4666 
L 3525 4666 
L 3525 4397 
L 1831 0 
L 1172 0 
L 2766 4134 
L 525 4134 
L 525 4666 
z
" transform="scale(0.015625)"/>
       </defs>
       <use xlink:href="#DejaVuSans-37"/>
       <use xlink:href="#DejaVuSans-35" x="63.623047"/>
      </g>
     </g>
    </g>
    <g id="xtick_5">
     <g id="line2d_9">
      <path d="M 537.445517 331.64 
L 537.445517 23.76 
" clip-path="url(#pc34a21f0f1)" style="fill: none; stroke-dasharray: 5.12,1.28,0.8,1.28; stroke-dashoffset: 0; stroke: #b0b0b0; stroke-width: 0.8"/>
     </g>
     <g id="line2d_10">
      <g>
       <use xlink:href="#m69033b064b" x="537.445517" y="331.64" style="stroke: #000000; stroke-width: 0.8"/>
      </g>
     </g>
     <g id="text_5">
      <!-- 100 -->
      <g transform="translate(516.449267 355.356563)scale(0.22 -0.22)">
       <defs>
        <path id="DejaVuSans-31" d="M 794 531 
L 1825 531 
L 1825 4091 
L 703 3866 
L 703 4441 
L 1819 4666 
L 2450 4666 
L 2450 531 
L 3481 531 
L 3481 0 
L 794 0 
L 794 531 
z
" transform="scale(0.015625)"/>
       </defs>
       <use xlink:href="#DejaVuSans-31"/>
       <use xlink:href="#DejaVuSans-30" x="63.623047"/>
       <use xlink:href="#DejaVuSans-30" x="127.246094"/>
      </g>
     </g>
    </g>
    <g id="xtick_6">
     <g id="line2d_11">
      <path d="M 637.49951 331.64 
L 637.49951 23.76 
" clip-path="url(#pc34a21f0f1)" style="fill: none; stroke-dasharray: 5.12,1.28,0.8,1.28; stroke-dashoffset: 0; stroke: #b0b0b0; stroke-width: 0.8"/>
     </g>
     <g id="line2d_12">
      <g>
       <use xlink:href="#m69033b064b" x="637.49951" y="331.64" style="stroke: #000000; stroke-width: 0.8"/>
      </g>
     </g>
     <g id="text_6">
      <!-- 125 -->
      <g transform="translate(616.50326 355.356563)scale(0.22 -0.22)">
       <use xlink:href="#DejaVuSans-31"/>
       <use xlink:href="#DejaVuSans-32" x="63.623047"/>
       <use xlink:href="#DejaVuSans-35" x="127.246094"/>
      </g>
     </g>
    </g>
    <g id="xtick_7">
     <g id="line2d_13">
      <path d="M 737.553503 331.64 
L 737.553503 23.76 
" clip-path="url(#pc34a21f0f1)" style="fill: none; stroke-dasharray: 5.12,1.28,0.8,1.28; stroke-dashoffset: 0; stroke: #b0b0b0; stroke-width: 0.8"/>
     </g>
     <g id="line2d_14">
      <g>
       <use xlink:href="#m69033b064b" x="737.553503" y="331.64" style="stroke: #000000; stroke-width: 0.8"/>
      </g>
     </g>
     <g id="text_7">
      <!-- 150 -->
      <g transform="translate(716.557253 355.356563)scale(0.22 -0.22)">
       <use xlink:href="#DejaVuSans-31"/>
       <use xlink:href="#DejaVuSans-35" x="63.623047"/>
       <use xlink:href="#DejaVuSans-30" x="127.246094"/>
      </g>
     </g>
    </g>
    <g id="xtick_8">
     <g id="line2d_15">
      <path d="M 837.607496 331.64 
L 837.607496 23.76 
" clip-path="url(#pc34a21f0f1)" style="fill: none; stroke-dasharray: 5.12,1.28,0.8,1.28; stroke-dashoffset: 0; stroke: #b0b0b0; stroke-width: 0.8"/>
     </g>
     <g id="line2d_16">
      <g>
       <use xlink:href="#m69033b064b" x="837.607496" y="331.64" style="stroke: #000000; stroke-width: 0.8"/>
      </g>
     </g>
     <g id="text_8">
      <!-- 175 -->
      <g transform="translate(816.611246 355.356563)scale(0.22 -0.22)">
       <use xlink:href="#DejaVuSans-31"/>
       <use xlink:href="#DejaVuSans-37" x="63.623047"/>
       <use xlink:href="#DejaVuSans-35" x="127.246094"/>
      </g>
     </g>
    </g>
    <g id="text_9">
     <!-- Time (s) -->
     <g transform="translate(450.635625 382.168125)scale(0.24 -0.24)">
      <defs>
       <path id="DejaVuSans-54" d="M -19 4666 
L 3928 4666 
L 3928 4134 
L 2272 4134 
L 2272 0 
L 1638 0 
L 1638 4134 
L -19 4134 
L -19 4666 
z
" transform="scale(0.015625)"/>
       <path id="DejaVuSans-69" d="M 603 3500 
L 1178 3500 
L 1178 0 
L 603 0 
L 603 3500 
z
M 603 4863 
L 1178 4863 
L 1178 4134 
L 603 4134 
L 603 4863 
z
" transform="scale(0.015625)"/>
       <path id="DejaVuSans-6d" d="M 3328 2828 
Q 3544 3216 3844 3400 
Q 4144 3584 4550 3584 
Q 5097 3584 5394 3201 
Q 5691 2819 5691 2113 
L 5691 0 
L 5113 0 
L 5113 2094 
Q 5113 2597 4934 2840 
Q 4756 3084 4391 3084 
Q 3944 3084 3684 2787 
Q 3425 2491 3425 1978 
L 3425 0 
L 2847 0 
L 2847 2094 
Q 2847 2600 2669 2842 
Q 2491 3084 2119 3084 
Q 1678 3084 1418 2786 
Q 1159 2488 1159 1978 
L 1159 0 
L 581 0 
L 581 3500 
L 1159 3500 
L 1159 2956 
Q 1356 3278 1631 3431 
Q 1906 3584 2284 3584 
Q 2666 3584 2933 3390 
Q 3200 3197 3328 2828 
z
" transform="scale(0.015625)"/>
       <path id="DejaVuSans-65" d="M 3597 1894 
L 3597 1613 
L 953 1613 
Q 991 1019 1311 708 
Q 1631 397 2203 397 
Q 2534 397 2845 478 
Q 3156 559 3463 722 
L 3463 178 
Q 3153 47 2828 -22 
Q 2503 -91 2169 -91 
Q 1331 -91 842 396 
Q 353 884 353 1716 
Q 353 2575 817 3079 
Q 1281 3584 2069 3584 
Q 2775 3584 3186 3129 
Q 3597 2675 3597 1894 
z
M 3022 2063 
Q 3016 2534 2758 2815 
Q 2500 3097 2075 3097 
Q 1594 3097 1305 2825 
Q 1016 2553 972 2059 
L 3022 2063 
z
" transform="scale(0.015625)"/>
       <path id="DejaVuSans-20" transform="scale(0.015625)"/>
       <path id="DejaVuSans-28" d="M 1984 4856 
Q 1566 4138 1362 3434 
Q 1159 2731 1159 2009 
Q 1159 1288 1364 580 
Q 1569 -128 1984 -844 
L 1484 -844 
Q 1016 -109 783 600 
Q 550 1309 550 2009 
Q 550 2706 781 3412 
Q 1013 4119 1484 4856 
L 1984 4856 
z
" transform="scale(0.015625)"/>
       <path id="DejaVuSans-73" d="M 2834 3397 
L 2834 2853 
Q 2591 2978 2328 3040 
Q 2066 3103 1784 3103 
Q 1356 3103 1142 2972 
Q 928 2841 928 2578 
Q 928 2378 1081 2264 
Q 1234 2150 1697 2047 
L 1894 2003 
Q 2506 1872 2764 1633 
Q 3022 1394 3022 966 
Q 3022 478 2636 193 
Q 2250 -91 1575 -91 
Q 1294 -91 989 -36 
Q 684 19 347 128 
L 347 722 
Q 666 556 975 473 
Q 1284 391 1588 391 
Q 1994 391 2212 530 
Q 2431 669 2431 922 
Q 2431 1156 2273 1281 
Q 2116 1406 1581 1522 
L 1381 1569 
Q 847 1681 609 1914 
Q 372 2147 372 2553 
Q 372 3047 722 3315 
Q 1072 3584 1716 3584 
Q 2034 3584 2315 3537 
Q 2597 3491 2834 3397 
z
" transform="scale(0.015625)"/>
       <path id="DejaVuSans-29" d="M 513 4856 
L 1013 4856 
Q 1481 4119 1714 3412 
Q 1947 2706 1947 2009 
Q 1947 1309 1714 600 
Q 1481 -109 1013 -844 
L 513 -844 
Q 928 -128 1133 580 
Q 1338 1288 1338 2009 
Q 1338 2731 1133 3434 
Q 928 4138 513 4856 
z
" transform="scale(0.015625)"/>
      </defs>
      <use xlink:href="#DejaVuSans-54"/>
      <use xlink:href="#DejaVuSans-69" x="57.958984"/>
      <use xlink:href="#DejaVuSans-6d" x="85.742188"/>
      <use xlink:href="#DejaVuSans-65" x="183.154297"/>
      <use xlink:href="#DejaVuSans-20" x="244.677734"/>
      <use xlink:href="#DejaVuSans-28" x="276.464844"/>
      <use xlink:href="#DejaVuSans-73" x="315.478516"/>
      <use xlink:href="#DejaVuSans-29" x="367.578125"/>
     </g>
    </g>
   </g>
   <g id="matplotlib.axis_2">
    <g id="ytick_1">
     <g id="line2d_17">
      <path d="M 101.01 331.64 
L 897.84 331.64 
" clip-path="url(#pc34a21f0f1)" style="fill: none; stroke-dasharray: 5.12,1.28,0.8,1.28; stroke-dashoffset: 0; stroke: #b0b0b0; stroke-width: 0.8"/>
     </g>
     <g id="line2d_18">
      <defs>
       <path id="mdb403ee108" d="M 0 0 
L -3.5 0 
" style="stroke: #000000; stroke-width: 0.8"/>
      </defs>
      <g>
       <use xlink:href="#mdb403ee108" x="101.01" y="331.64" style="stroke: #000000; stroke-width: 0.8"/>
      </g>
     </g>
     <g id="text_10">
      <!-- 0 -->
      <g transform="translate(80.0125 339.998281)scale(0.22 -0.22)">
       <use xlink:href="#DejaVuSans-30"/>
      </g>
     </g>
    </g>
    <g id="ytick_2">
     <g id="line2d_19">
      <path d="M 101.01 244.679104 
L 897.84 244.679104 
" clip-path="url(#pc34a21f0f1)" style="fill: none; stroke-dasharray: 5.12,1.28,0.8,1.28; stroke-dashoffset: 0; stroke: #b0b0b0; stroke-width: 0.8"/>
     </g>
     <g id="line2d_20">
      <g>
       <use xlink:href="#mdb403ee108" x="101.01" y="244.679104" style="stroke: #000000; stroke-width: 0.8"/>
      </g>
     </g>
     <g id="text_11">
      <!-- 50 -->
      <g transform="translate(66.015 253.037386)scale(0.22 -0.22)">
       <use xlink:href="#DejaVuSans-35"/>
       <use xlink:href="#DejaVuSans-30" x="63.623047"/>
      </g>
     </g>
    </g>
    <g id="ytick_3">
     <g id="line2d_21">
      <path d="M 101.01 157.718209 
L 897.84 157.718209 
" clip-path="url(#pc34a21f0f1)" style="fill: none; stroke-dasharray: 5.12,1.28,0.8,1.28; stroke-dashoffset: 0; stroke: #b0b0b0; stroke-width: 0.8"/>
     </g>
     <g id="line2d_22">
      <g>
       <use xlink:href="#mdb403ee108" x="101.01" y="157.718209" style="stroke: #000000; stroke-width: 0.8"/>
      </g>
     </g>
     <g id="text_12">
      <!-- 100 -->
      <g transform="translate(52.0175 166.07649)scale(0.22 -0.22)">
       <use xlink:href="#DejaVuSans-31"/>
       <use xlink:href="#DejaVuSans-30" x="63.623047"/>
       <use xlink:href="#DejaVuSans-30" x="127.246094"/>
      </g>
     </g>
    </g>
    <g id="ytick_4">
     <g id="line2d_23">
      <path d="M 101.01 70.757313 
L 897.84 70.757313 
" clip-path="url(#pc34a21f0f1)" style="fill: none; stroke-dasharray: 5.12,1.28,0.8,1.28; stroke-dashoffset: 0; stroke: #b0b0b0; stroke-width: 0.8"/>
     </g>
     <g id="line2d_24">
      <g>
       <use xlink:href="#mdb403ee108" x="101.01" y="70.757313" style="stroke: #000000; stroke-width: 0.8"/>
      </g>
     </g>
     <g id="text_13">
      <!-- 150 -->
      <g transform="translate(52.0175 79.115594)scale(0.22 -0.22)">
       <use xlink:href="#DejaVuSans-31"/>
       <use xlink:href="#DejaVuSans-35" x="63.623047"/>
       <use xlink:href="#DejaVuSans-30" x="127.246094"/>
      </g>
     </g>
    </g>
    <g id="text_14">
     <!-- Throughput (Mbps) -->
     <g transform="translate(43.02625 292.414375)rotate(-90)scale(0.24 -0.24)">
      <defs>
       <path id="DejaVuSans-68" d="M 3513 2113 
L 3513 0 
L 2938 0 
L 2938 2094 
Q 2938 2591 2744 2837 
Q 2550 3084 2163 3084 
Q 1697 3084 1428 2787 
Q 1159 2491 1159 1978 
L 1159 0 
L 581 0 
L 581 4863 
L 1159 4863 
L 1159 2956 
Q 1366 3272 1645 3428 
Q 1925 3584 2291 3584 
Q 2894 3584 3203 3211 
Q 3513 2838 3513 2113 
z
" transform="scale(0.015625)"/>
       <path id="DejaVuSans-72" d="M 2631 2963 
Q 2534 3019 2420 3045 
Q 2306 3072 2169 3072 
Q 1681 3072 1420 2755 
Q 1159 2438 1159 1844 
L 1159 0 
L 581 0 
L 581 3500 
L 1159 3500 
L 1159 2956 
Q 1341 3275 1631 3429 
Q 1922 3584 2338 3584 
Q 2397 3584 2469 3576 
Q 2541 3569 2628 3553 
L 2631 2963 
z
" transform="scale(0.015625)"/>
       <path id="DejaVuSans-6f" d="M 1959 3097 
Q 1497 3097 1228 2736 
Q 959 2375 959 1747 
Q 959 1119 1226 758 
Q 1494 397 1959 397 
Q 2419 397 2687 759 
Q 2956 1122 2956 1747 
Q 2956 2369 2687 2733 
Q 2419 3097 1959 3097 
z
M 1959 3584 
Q 2709 3584 3137 3096 
Q 3566 2609 3566 1747 
Q 3566 888 3137 398 
Q 2709 -91 1959 -91 
Q 1206 -91 779 398 
Q 353 888 353 1747 
Q 353 2609 779 3096 
Q 1206 3584 1959 3584 
z
" transform="scale(0.015625)"/>
       <path id="DejaVuSans-75" d="M 544 1381 
L 544 3500 
L 1119 3500 
L 1119 1403 
Q 1119 906 1312 657 
Q 1506 409 1894 409 
Q 2359 409 2629 706 
Q 2900 1003 2900 1516 
L 2900 3500 
L 3475 3500 
L 3475 0 
L 2900 0 
L 2900 538 
Q 2691 219 2414 64 
Q 2138 -91 1772 -91 
Q 1169 -91 856 284 
Q 544 659 544 1381 
z
M 1991 3584 
L 1991 3584 
z
" transform="scale(0.015625)"/>
       <path id="DejaVuSans-67" d="M 2906 1791 
Q 2906 2416 2648 2759 
Q 2391 3103 1925 3103 
Q 1463 3103 1205 2759 
Q 947 2416 947 1791 
Q 947 1169 1205 825 
Q 1463 481 1925 481 
Q 2391 481 2648 825 
Q 2906 1169 2906 1791 
z
M 3481 434 
Q 3481 -459 3084 -895 
Q 2688 -1331 1869 -1331 
Q 1566 -1331 1297 -1286 
Q 1028 -1241 775 -1147 
L 775 -588 
Q 1028 -725 1275 -790 
Q 1522 -856 1778 -856 
Q 2344 -856 2625 -561 
Q 2906 -266 2906 331 
L 2906 616 
Q 2728 306 2450 153 
Q 2172 0 1784 0 
Q 1141 0 747 490 
Q 353 981 353 1791 
Q 353 2603 747 3093 
Q 1141 3584 1784 3584 
Q 2172 3584 2450 3431 
Q 2728 3278 2906 2969 
L 2906 3500 
L 3481 3500 
L 3481 434 
z
" transform="scale(0.015625)"/>
       <path id="DejaVuSans-70" d="M 1159 525 
L 1159 -1331 
L 581 -1331 
L 581 3500 
L 1159 3500 
L 1159 2969 
Q 1341 3281 1617 3432 
Q 1894 3584 2278 3584 
Q 2916 3584 3314 3078 
Q 3713 2572 3713 1747 
Q 3713 922 3314 415 
Q 2916 -91 2278 -91 
Q 1894 -91 1617 61 
Q 1341 213 1159 525 
z
M 3116 1747 
Q 3116 2381 2855 2742 
Q 2594 3103 2138 3103 
Q 1681 3103 1420 2742 
Q 1159 2381 1159 1747 
Q 1159 1113 1420 752 
Q 1681 391 2138 391 
Q 2594 391 2855 752 
Q 3116 1113 3116 1747 
z
" transform="scale(0.015625)"/>
       <path id="DejaVuSans-74" d="M 1172 4494 
L 1172 3500 
L 2356 3500 
L 2356 3053 
L 1172 3053 
L 1172 1153 
Q 1172 725 1289 603 
Q 1406 481 1766 481 
L 2356 481 
L 2356 0 
L 1766 0 
Q 1100 0 847 248 
Q 594 497 594 1153 
L 594 3053 
L 172 3053 
L 172 3500 
L 594 3500 
L 594 4494 
L 1172 4494 
z
" transform="scale(0.015625)"/>
       <path id="DejaVuSans-4d" d="M 628 4666 
L 1569 4666 
L 2759 1491 
L 3956 4666 
L 4897 4666 
L 4897 0 
L 4281 0 
L 4281 4097 
L 3078 897 
L 2444 897 
L 1241 4097 
L 1241 0 
L 628 0 
L 628 4666 
z
" transform="scale(0.015625)"/>
       <path id="DejaVuSans-62" d="M 3116 1747 
Q 3116 2381 2855 2742 
Q 2594 3103 2138 3103 
Q 1681 3103 1420 2742 
Q 1159 2381 1159 1747 
Q 1159 1113 1420 752 
Q 1681 391 2138 391 
Q 2594 391 2855 752 
Q 3116 1113 3116 1747 
z
M 1159 2969 
Q 1341 3281 1617 3432 
Q 1894 3584 2278 3584 
Q 2916 3584 3314 3078 
Q 3713 2572 3713 1747 
Q 3713 922 3314 415 
Q 2916 -91 2278 -91 
Q 1894 -91 1617 61 
Q 1341 213 1159 525 
L 1159 0 
L 581 0 
L 581 4863 
L 1159 4863 
L 1159 2969 
z
" transform="scale(0.015625)"/>
      </defs>
      <use xlink:href="#DejaVuSans-54"/>
      <use xlink:href="#DejaVuSans-68" x="61.083984"/>
      <use xlink:href="#DejaVuSans-72" x="124.462891"/>
      <use xlink:href="#DejaVuSans-6f" x="163.326172"/>
      <use xlink:href="#DejaVuSans-75" x="224.507812"/>
      <use xlink:href="#DejaVuSans-67" x="287.886719"/>
      <use xlink:href="#DejaVuSans-68" x="351.363281"/>
      <use xlink:href="#DejaVuSans-70" x="414.742188"/>
      <use xlink:href="#DejaVuSans-75" x="478.21875"/>
      <use xlink:href="#DejaVuSans-74" x="541.597656"/>
      <use xlink:href="#DejaVuSans-20" x="580.806641"/>
      <use xlink:href="#DejaVuSans-28" x="612.59375"/>
      <use xlink:href="#DejaVuSans-4d" x="651.607422"/>
      <use xlink:href="#DejaVuSans-62" x="737.886719"/>
      <use xlink:href="#DejaVuSans-70" x="801.363281"/>
      <use xlink:href="#DejaVuSans-73" x="864.839844"/>
      <use xlink:href="#DejaVuSans-29" x="916.939453"/>
     </g>
    </g>
   </g>
   <g id="patch_3">
    <path d="M 101.01 331.64 
L 101.01 23.76 
" style="fill: none; stroke: #000000; stroke-width: 0.8; stroke-linejoin: miter; stroke-linecap: square"/>
   </g>
   <g id="patch_4">
    <path d="M 897.84 331.64 
L 897.84 23.76 
" style="fill: none; stroke: #000000; stroke-width: 0.8; stroke-linejoin: miter; stroke-linecap: square"/>
   </g>
   <g id="patch_5">
    <path d="M 101.01 331.64 
L 897.84 331.64 
" style="fill: none; stroke: #000000; stroke-width: 0.8; stroke-linejoin: miter; stroke-linecap: square"/>
   </g>
   <g id="patch_6">
    <path d="M 101.01 23.76 
L 897.84 23.76 
" style="fill: none; stroke: #000000; stroke-width: 0.8; stroke-linejoin: miter; stroke-linecap: square"/>
   </g>
   <g id="legend_1">
    <g id="patch_7">
     <path d="M 756.24 113.415 
L 881.04 113.415 
Q 885.84 113.415 885.84 108.615 
L 885.84 40.56 
Q 885.84 35.76 881.04 35.76 
L 756.24 35.76 
Q 751.44 35.76 751.44 40.56 
L 751.44 108.615 
Q 751.44 113.415 756.24 113.415 
z
" style="fill: #ffffff; opacity: 0.8; stroke: #cccccc; stroke-linejoin: miter"/>
    </g>
    <g id="patch_8">
     <path d="M 761.04 63.59625 
L 809.04 63.59625 
L 809.04 46.79625 
L 761.04 46.79625 
z
" style="fill: #1f77b4"/>
    </g>
    <g id="text_15">
     <!-- UE1 -->
     <g transform="translate(828.24 63.59625)scale(0.24 -0.24)">
      <defs>
       <path id="DejaVuSans-55" d="M 556 4666 
L 1191 4666 
L 1191 1831 
Q 1191 1081 1462 751 
Q 1734 422 2344 422 
Q 2950 422 3222 751 
Q 3494 1081 3494 1831 
L 3494 4666 
L 4128 4666 
L 4128 1753 
Q 4128 841 3676 375 
Q 3225 -91 2344 -91 
Q 1459 -91 1007 375 
Q 556 841 556 1753 
L 556 4666 
z
" transform="scale(0.015625)"/>
       <path id="DejaVuSans-45" d="M 628 4666 
L 3578 4666 
L 3578 4134 
L 1259 4134 
L 1259 2753 
L 3481 2753 
L 3481 2222 
L 1259 2222 
L 1259 531 
L 3634 531 
L 3634 0 
L 628 0 
L 628 4666 
z
" transform="scale(0.015625)"/>
      </defs>
      <use xlink:href="#DejaVuSans-55"/>
      <use xlink:href="#DejaVuSans-45" x="73.193359"/>
      <use xlink:href="#DejaVuSans-31" x="136.376953"/>
     </g>
    </g>
    <g id="patch_9">
     <path d="M 761.04 98.82375 
L 809.04 98.82375 
L 809.04 82.02375 
L 761.04 82.02375 
z
" style="fill: #ff7f0e"/>
    </g>
    <g id="text_16">
     <!-- UE2 -->
     <g transform="translate(828.24 98.82375)scale(0.24 -0.24)">
      <use xlink:href="#DejaVuSans-55"/>
      <use xlink:href="#DejaVuSans-45" x="73.193359"/>
      <use xlink:href="#DejaVuSans-32" x="136.376953"/>
     </g>
    </g>
   </g>
  </g>
 </g>
 <defs>
  <clipPath id="pc34a21f0f1">
   <rect x="101.01" y="23.76" width="796.83" height="307.88"/>
  </clipPath>
 </defs>
</svg>
