<?xml version="1.0" encoding="utf-8" standalone="no"?>
<!DOCTYPE svg PUBLIC "-//W3C//DTD SVG 1.1//EN"
  "http://www.w3.org/Graphics/SVG/1.1/DTD/svg11.dtd">
<svg xmlns:xlink="http://www.w3.org/1999/xlink" width="921.6pt" height="410.4pt" viewBox="0 0 921.6 410.4" xmlns="http://www.w3.org/2000/svg" version="1.1">
 <metadata>
  <rdf:RDF xmlns:dc="http://purl.org/dc/elements/1.1/" xmlns:cc="http://creativecommons.org/ns#" xmlns:rdf="http://www.w3.org/1999/02/22-rdf-syntax-ns#">
   <cc:Work>
    <dc:type rdf:resource="http://purl.org/dc/dcmitype/StillImage"/>
    <dc:date>2023-04-11T17:41:57.170179</dc:date>
    <dc:format>image/svg+xml</dc:format>
    <dc:creator>
     <cc:Agent>
      <dc:title>Matplotlib v3.5.3, https://matplotlib.org/</dc:title>
     </cc:Agent>
    </dc:creator>
   </cc:Work>
  </rdf:RDF>
 </metadata>
 <defs>
  <style type="text/css">*{stroke-linejoin: round; stroke-linecap: butt}</style>
 </defs>
 <g id="figure_1">
  <g id="patch_1">
   <path d="M 0 410.4 
L 921.6 410.4 
L 921.6 0 
L 0 0 
L 0 410.4 
z
" style="fill: none"/>
  </g>
  <g id="axes_1">
   <g id="patch_2">
    <path d="M 86.885 331.64 
L 897.84 331.64 
L 897.84 23.76 
L 86.885 23.76 
z
" style="fill: #ffffff"/>
   </g>
   <g id="PolyCollection_1">
    <path d="M 123.746591 196.070336 
L 123.746591 331.64 
L 127.865204 331.64 
L 131.983818 331.64 
L 136.102431 331.64 
L 140.221045 331.64 
L 144.339658 331.64 
L 148.458272 331.64 
L 152.576885 331.64 
L 156.695499 331.64 
L 160.814112 331.64 
L 164.932726 331.64 
L 169.05134 331.64 
L 173.169953 331.64 
L 177.288567 331.64 
L 181.40718 331.64 
L 185.525794 331.64 
L 189.644407 331.64 
L 193.763021 331.64 
L 197.881634 331.64 
L 202.000248 331.64 
L 206.118861 331.64 
L 210.237475 331.64 
L 214.356088 331.64 
L 218.474702 331.64 
L 222.593315 331.64 
L 226.711929 331.64 
L 230.830542 331.64 
L 234.949156 331.64 
L 239.067769 331.64 
L 243.186383 331.64 
L 247.304996 331.64 
L 251.42361 331.64 
L 255.542223 331.64 
L 259.660837 331.64 
L 263.77945 331.64 
L 267.898064 331.64 
L 272.016677 331.64 
L 276.135291 331.64 
L 280.253904 331.64 
L 284.372518 331.64 
L 288.491131 331.64 
L 292.609745 331.64 
L 296.728358 331.64 
L 300.846972 331.64 
L 304.965585 331.64 
L 309.084199 331.64 
L 313.202812 331.64 
L 317.321426 331.64 
L 321.440039 331.64 
L 325.558653 331.64 
L 329.677266 331.64 
L 333.79588 331.64 
L 337.914493 331.64 
L 342.033107 331.64 
L 346.15172 331.64 
L 350.270334 331.64 
L 354.388947 331.64 
L 358.507561 331.64 
L 362.626174 331.64 
L 366.744788 331.64 
L 370.863401 331.64 
L 374.982015 331.64 
L 379.100628 331.64 
L 383.219242 331.64 
L 387.337856 331.64 
L 391.456469 331.64 
L 395.575083 331.64 
L 399.693696 331.64 
L 403.81231 331.64 
L 407.930923 331.64 
L 412.049537 331.64 
L 416.16815 331.64 
L 420.286764 331.64 
L 424.405377 331.64 
L 428.523991 331.64 
L 432.642604 331.64 
L 436.761218 331.64 
L 440.879831 331.64 
L 444.998445 331.64 
L 449.117058 331.64 
L 453.235672 331.64 
L 457.354285 331.64 
L 461.472899 331.64 
L 465.591512 331.64 
L 469.710126 331.64 
L 473.828739 331.64 
L 477.947353 331.64 
L 482.065966 331.64 
L 486.18458 331.64 
L 490.303193 331.64 
L 494.421807 331.64 
L 498.54042 331.64 
L 502.659034 331.64 
L 506.777647 331.64 
L 510.896261 331.64 
L 515.014874 331.64 
L 519.133488 331.64 
L 523.252101 331.64 
L 527.370715 331.64 
L 531.489328 331.64 
L 535.607942 331.64 
L 539.726555 331.64 
L 543.845169 331.64 
L 547.963782 331.64 
L 552.082396 331.64 
L 556.201009 331.64 
L 560.319623 331.64 
L 564.438236 331.64 
L 568.55685 331.64 
L 572.675463 331.64 
L 576.794077 331.64 
L 580.91269 331.64 
L 585.031304 331.64 
L 589.149917 331.64 
L 593.268531 331.64 
L 597.387144 331.64 
L 601.505758 331.64 
L 605.624372 331.64 
L 609.742985 331.64 
L 613.861599 331.64 
L 617.980212 331.64 
L 622.098826 331.64 
L 626.217439 331.64 
L 630.336053 331.64 
L 634.454666 331.64 
L 638.57328 331.64 
L 642.691893 331.64 
L 646.810507 331.64 
L 650.92912 331.64 
L 655.047734 331.64 
L 659.166347 331.64 
L 663.284961 331.64 
L 667.403574 331.64 
L 671.522188 331.64 
L 675.640801 331.64 
L 679.759415 331.64 
L 683.878028 331.64 
L 687.996642 331.64 
L 692.115255 331.64 
L 696.233869 331.64 
L 700.352482 331.64 
L 704.471096 331.64 
L 708.589709 331.64 
L 712.708323 331.64 
L 716.826936 331.64 
L 720.94555 331.64 
L 725.064163 331.64 
L 729.182777 331.64 
L 733.30139 331.64 
L 737.420004 331.64 
L 741.538617 331.64 
L 745.657231 331.64 
L 749.775844 331.64 
L 753.894458 331.64 
L 758.013071 331.64 
L 762.131685 331.64 
L 766.250298 331.64 
L 770.368912 331.64 
L 774.487525 331.64 
L 778.606139 331.64 
L 782.724752 331.64 
L 786.843366 331.64 
L 790.961979 331.64 
L 795.080593 331.64 
L 799.199206 331.64 
L 803.31782 331.64 
L 807.436433 331.64 
L 811.555047 331.64 
L 815.67366 331.64 
L 819.792274 331.64 
L 823.910888 331.64 
L 828.029501 331.64 
L 832.148115 331.64 
L 836.266728 331.64 
L 840.385342 331.64 
L 844.503955 331.64 
L 848.622569 331.64 
L 852.741182 331.64 
L 856.859796 331.64 
L 860.978409 331.64 
L 860.978409 331.64 
L 860.978409 331.64 
L 856.859796 187.50229 
L 852.741182 190.305692 
L 848.622569 199.715274 
L 844.503955 196.147873 
L 840.385342 202.072511 
L 836.266728 194.034929 
L 832.148115 192.571866 
L 828.029501 194.261085 
L 823.910888 187.351365 
L 819.792274 189.554219 
L 815.67366 185.852877 
L 811.555047 189.237231 
L 807.436433 186.463031 
L 803.31782 187.663204 
L 799.199206 190.913463 
L 795.080593 187.569222 
L 790.961979 191.829539 
L 786.843366 189.198655 
L 782.724752 187.117601 
L 778.606139 186.989653 
L 774.487525 193.537738 
L 770.368912 188.76125 
L 766.250298 189.778147 
L 762.131685 187.464943 
L 758.013071 188.906565 
L 753.894458 187.482694 
L 749.775844 189.473608 
L 745.657231 189.833937 
L 741.538617 188.819345 
L 737.420004 186.480551 
L 733.30139 190.346036 
L 729.182777 190.423035 
L 725.064163 189.68624 
L 720.94555 189.215561 
L 716.826936 186.732989 
L 712.708323 186.427682 
L 708.589709 186.757656 
L 704.471096 186.037537 
L 700.352482 186.232187 
L 696.233869 187.753959 
L 692.115255 188.761404 
L 687.996642 186.624099 
L 683.878028 188.894884 
L 679.759415 192.664542 
L 675.640801 188.642293 
L 671.522188 186.492232 
L 667.403574 185.739607 
L 663.284961 187.352441 
L 659.166347 188.373872 
L 655.047734 186.944007 
L 650.92912 186.101549 
L 646.810507 188.740963 
L 642.691893 194.301045 
L 638.57328 186.881224 
L 634.454666 188.635147 
L 630.336053 185.787251 
L 626.217439 185.634021 
L 622.098826 185.871243 
L 617.980212 186.612188 
L 613.861599 189.558446 
L 609.742985 186.931712 
L 605.624372 191.275252 
L 601.505758 195.31702 
L 597.387144 201.747915 
L 593.268531 195.747047 
L 589.149917 191.349561 
L 585.031304 189.089304 
L 580.91269 194.581838 
L 576.794077 195.11384 
L 572.675463 197.046582 
L 568.55685 189.12373 
L 564.438236 189.358878 
L 560.319623 186.029007 
L 556.201009 189.030594 
L 552.082396 187.0197 
L 547.963782 186.443819 
L 543.845169 186.214435 
L 539.726555 188.750876 
L 535.607942 186.43821 
L 531.489328 185.356378 
L 527.370715 186.264615 
L 523.252101 185.935256 
L 519.133488 185.590065 
L 515.014874 185.845269 
L 510.896261 185.172256 
L 506.777647 186.09179 
L 502.659034 186.994571 
L 498.54042 185.565398 
L 494.421807 197.33068 
L 490.303193 194.833661 
L 486.18458 187.06573 
L 482.065966 186.594744 
L 477.947353 188.33591 
L 473.828739 191.153298 
L 469.710126 187.817741 
L 465.591512 189.054416 
L 461.472899 189.402142 
L 457.354285 187.870303 
L 453.235672 192.97131 
L 449.117058 189.144402 
L 444.998445 191.056396 
L 440.879831 186.560317 
L 436.761218 191.358322 
L 432.642604 189.73227 
L 428.523991 187.286431 
L 424.405377 188.44603 
L 420.286764 188.817885 
L 416.16815 193.480565 
L 412.049537 193.417859 
L 407.930923 188.189596 
L 403.81231 187.090398 
L 399.693696 188.282502 
L 395.575083 186.956917 
L 391.456469 185.738224 
L 387.337856 189.535776 
L 383.219242 187.939464 
L 379.100628 187.879985 
L 374.982015 192.572328 
L 370.863401 186.514133 
L 366.744788 188.380557 
L 362.626174 185.981132 
L 358.507561 185.363064 
L 354.388947 190.281024 
L 350.270334 195.867618 
L 346.15172 192.081438 
L 342.033107 191.831844 
L 337.914493 209.417714 
L 333.79588 202.221821 
L 329.677266 191.405121 
L 325.558653 189.059103 
L 321.440039 189.10621 
L 317.321426 189.469766 
L 313.202812 186.076113 
L 309.084199 187.458641 
L 304.965585 190.668095 
L 300.846972 188.215877 
L 296.728358 188.229248 
L 292.609745 186.283212 
L 288.491131 188.049968 
L 284.372518 185.737148 
L 280.253904 189.057874 
L 276.135291 188.507967 
L 272.016677 192.766824 
L 267.898064 190.667173 
L 263.77945 188.528024 
L 259.660837 187.453339 
L 255.542223 185.597904 
L 251.42361 192.273859 
L 247.304996 186.831659 
L 243.186383 187.508207 
L 239.067769 191.41757 
L 234.949156 193.3925 
L 230.830542 192.058154 
L 226.711929 187.924172 
L 222.593315 189.466769 
L 218.474702 189.140022 
L 214.356088 191.487115 
L 210.237475 189.552298 
L 206.118861 190.231536 
L 202.000248 188.816271 
L 197.881634 185.672828 
L 193.763021 192.758294 
L 189.644407 189.027059 
L 185.525794 188.188905 
L 181.40718 188.546851 
L 177.288567 188.006089 
L 173.169953 185.529434 
L 169.05134 185.203225 
L 164.932726 186.134439 
L 160.814112 186.51421 
L 156.695499 185.788711 
L 152.576885 188.533864 
L 148.458272 185.169336 
L 144.339658 189.12642 
L 140.221045 190.246905 
L 136.102431 190.482513 
L 131.983818 188.156706 
L 127.865204 193.286069 
L 123.746591 196.070336 
z
" clip-path="url(#pc5ec391098)" style="fill: #1f77b4"/>
   </g>
   <g id="PolyCollection_2">
    <path d="M 123.746591 54.787207 
L 123.746591 196.070336 
L 127.865204 193.286069 
L 131.983818 188.156706 
L 136.102431 190.482513 
L 140.221045 190.246905 
L 144.339658 189.12642 
L 148.458272 185.169336 
L 152.576885 188.533864 
L 156.695499 185.788711 
L 160.814112 186.51421 
L 164.932726 186.134439 
L 169.05134 185.203225 
L 173.169953 185.529434 
L 177.288567 188.006089 
L 181.40718 188.546851 
L 185.525794 188.188905 
L 189.644407 189.027059 
L 193.763021 192.758294 
L 197.881634 185.672828 
L 202.000248 188.816271 
L 206.118861 190.231536 
L 210.237475 189.552298 
L 214.356088 191.487115 
L 218.474702 189.140022 
L 222.593315 189.466769 
L 226.711929 187.924172 
L 230.830542 192.058154 
L 234.949156 193.3925 
L 239.067769 191.41757 
L 243.186383 187.508207 
L 247.304996 186.831659 
L 251.42361 192.273859 
L 255.542223 185.597904 
L 259.660837 187.453339 
L 263.77945 188.528024 
L 267.898064 190.667173 
L 272.016677 192.766824 
L 276.135291 188.507967 
L 280.253904 189.057874 
L 284.372518 185.737148 
L 288.491131 188.049968 
L 292.609745 186.283212 
L 296.728358 188.229248 
L 300.846972 188.215877 
L 304.965585 190.668095 
L 309.084199 187.458641 
L 313.202812 186.076113 
L 317.321426 189.469766 
L 321.440039 189.10621 
L 325.558653 189.059103 
L 329.677266 191.405121 
L 333.79588 202.221821 
L 337.914493 209.417714 
L 342.033107 191.831844 
L 346.15172 192.081438 
L 350.270334 195.867618 
L 354.388947 190.281024 
L 358.507561 185.363064 
L 362.626174 185.981132 
L 366.744788 188.380557 
L 370.863401 186.514133 
L 374.982015 192.572328 
L 379.100628 187.879985 
L 383.219242 187.939464 
L 387.337856 189.535776 
L 391.456469 185.738224 
L 395.575083 186.956917 
L 399.693696 188.282502 
L 403.81231 187.090398 
L 407.930923 188.189596 
L 412.049537 193.417859 
L 416.16815 193.480565 
L 420.286764 188.817885 
L 424.405377 188.44603 
L 428.523991 187.286431 
L 432.642604 189.73227 
L 436.761218 191.358322 
L 440.879831 186.560317 
L 444.998445 191.056396 
L 449.117058 189.144402 
L 453.235672 192.97131 
L 457.354285 187.870303 
L 461.472899 189.402142 
L 465.591512 189.054416 
L 469.710126 187.817741 
L 473.828739 191.153298 
L 477.947353 188.33591 
L 482.065966 186.594744 
L 486.18458 187.06573 
L 490.303193 194.833661 
L 494.421807 197.33068 
L 498.54042 185.565398 
L 502.659034 186.994571 
L 506.777647 186.09179 
L 510.896261 185.172256 
L 515.014874 185.845269 
L 519.133488 185.590065 
L 523.252101 185.935256 
L 527.370715 186.264615 
L 531.489328 185.356378 
L 535.607942 186.43821 
L 539.726555 188.750876 
L 543.845169 186.214435 
L 547.963782 186.443819 
L 552.082396 187.0197 
L 556.201009 189.030594 
L 560.319623 186.029007 
L 564.438236 189.358878 
L 568.55685 189.12373 
L 572.675463 197.046582 
L 576.794077 195.11384 
L 580.91269 194.581838 
L 585.031304 189.089304 
L 589.149917 191.349561 
L 593.268531 195.747047 
L 597.387144 201.747915 
L 601.505758 195.31702 
L 605.624372 191.275252 
L 609.742985 186.931712 
L 613.861599 189.558446 
L 617.980212 186.612188 
L 622.098826 185.871243 
L 626.217439 185.634021 
L 630.336053 185.787251 
L 634.454666 188.635147 
L 638.57328 186.881224 
L 642.691893 194.301045 
L 646.810507 188.740963 
L 650.92912 186.101549 
L 655.047734 186.944007 
L 659.166347 188.373872 
L 663.284961 187.352441 
L 667.403574 185.739607 
L 671.522188 186.492232 
L 675.640801 188.642293 
L 679.759415 192.664542 
L 683.878028 188.894884 
L 687.996642 186.624099 
L 692.115255 188.761404 
L 696.233869 187.753959 
L 700.352482 186.232187 
L 704.471096 186.037537 
L 708.589709 186.757656 
L 712.708323 186.427682 
L 716.826936 186.732989 
L 720.94555 189.215561 
L 725.064163 189.68624 
L 729.182777 190.423035 
L 733.30139 190.346036 
L 737.420004 186.480551 
L 741.538617 188.819345 
L 745.657231 189.833937 
L 749.775844 189.473608 
L 753.894458 187.482694 
L 758.013071 188.906565 
L 762.131685 187.464943 
L 766.250298 189.778147 
L 770.368912 188.76125 
L 774.487525 193.537738 
L 778.606139 186.989653 
L 782.724752 187.117601 
L 786.843366 189.198655 
L 790.961979 191.829539 
L 795.080593 187.569222 
L 799.199206 190.913463 
L 803.31782 187.663204 
L 807.436433 186.463031 
L 811.555047 189.237231 
L 815.67366 185.852877 
L 819.792274 189.554219 
L 823.910888 187.351365 
L 828.029501 194.261085 
L 832.148115 192.571866 
L 836.266728 194.034929 
L 840.385342 202.072511 
L 844.503955 196.147873 
L 848.622569 199.715274 
L 852.741182 190.305692 
L 856.859796 187.50229 
L 860.978409 331.64 
L 860.978409 186.306112 
L 860.978409 186.306112 
L 856.859796 44.132958 
L 852.741182 56.260029 
L 848.622569 66.597059 
L 844.503955 64.26011 
L 840.385342 65.180796 
L 836.266728 55.788581 
L 832.148115 54.439788 
L 828.029501 48.673837 
L 823.910888 44.929539 
L 819.792274 45.307926 
L 815.67366 39.877098 
L 811.555047 44.70515 
L 807.436433 41.605124 
L 803.31782 46.655259 
L 799.199206 47.175273 
L 795.080593 46.240908 
L 790.961979 49.854723 
L 786.843366 44.820649 
L 782.724752 40.867407 
L 778.606139 47.216692 
L 774.487525 50.987887 
L 770.368912 45.874355 
L 766.250298 46.073922 
L 762.131685 44.279656 
L 758.013071 45.178057 
L 753.894458 43.095927 
L 749.775844 46.265729 
L 745.657231 45.462693 
L 741.538617 45.219246 
L 737.420004 43.374339 
L 733.30139 48.396886 
L 729.182777 47.068534 
L 725.064163 46.9495 
L 720.94555 45.140403 
L 716.826936 40.68121 
L 712.708323 40.571705 
L 708.589709 41.022251 
L 704.471096 39.16036 
L 700.352482 42.262538 
L 696.233869 42.902123 
L 692.115255 44.199276 
L 687.996642 41.95139 
L 683.878028 50.996109 
L 679.759415 49.299283 
L 675.640801 43.488762 
L 671.522188 40.563483 
L 667.403574 39.180955 
L 663.284961 42.999717 
L 659.166347 45.392149 
L 655.047734 40.760592 
L 650.92912 41.323792 
L 646.810507 49.955851 
L 642.691893 51.041986 
L 638.57328 43.333457 
L 634.454666 42.495456 
L 630.336053 39.822845 
L 626.217439 38.883639 
L 622.098826 38.685224 
L 617.980212 45.375473 
L 613.861599 43.463326 
L 609.742985 43.741046 
L 605.624372 54.024746 
L 601.505758 61.734735 
L 597.387144 70.155853 
L 593.268531 54.047031 
L 589.149917 49.129147 
L 585.031304 47.507476 
L 580.91269 61.227631 
L 576.794077 59.290432 
L 572.675463 53.492975 
L 568.55685 45.279109 
L 564.438236 44.573898 
L 560.319623 40.91167 
L 556.201009 44.738654 
L 552.082396 41.945703 
L 547.963782 40.530823 
L 543.845169 40.775269 
L 539.726555 45.267428 
L 535.607942 39.216381 
L 531.489328 38.33135 
L 527.370715 40.192011 
L 523.252101 38.788889 
L 519.133488 39.456292 
L 515.014874 39.189869 
L 510.896261 38.684533 
L 506.777647 39.540284 
L 502.659034 40.602059 
L 498.54042 48.731779 
L 494.421807 62.559211 
L 490.303193 49.518062 
L 486.18458 40.85465 
L 482.065966 41.470491 
L 477.947353 46.188345 
L 473.828739 48.922048 
L 469.710126 43.151564 
L 465.591512 46.112806 
L 461.472899 45.949663 
L 457.354285 48.627807 
L 453.235672 50.612266 
L 449.117058 48.01773 
L 444.998445 44.981794 
L 440.879831 44.391159 
L 436.761218 49.15758 
L 432.642604 47.527071 
L 428.523991 41.266696 
L 424.405377 45.972179 
L 420.286764 48.80947 
L 416.16815 56.197553 
L 412.049537 49.422082 
L 407.930923 42.916109 
L 403.81231 42.91073 
L 399.693696 42.796998 
L 395.575083 41.317952 
L 391.456469 40.522678 
L 387.337856 46.977626 
L 383.219242 41.840656 
L 379.100628 49.152969 
L 374.982015 48.17073 
L 370.863401 42.978431 
L 366.744788 42.059819 
L 362.626174 38.738017 
L 358.507561 41.759737 
L 354.388947 54.600396 
L 350.270334 55.159293 
L 346.15172 50.658527 
L 342.033107 68.199827 
L 337.914493 80.662328 
L 333.79588 58.909893 
L 329.677266 49.389039 
L 325.558653 45.511183 
L 321.440039 45.885805 
L 317.321426 43.915331 
L 313.202812 40.37452 
L 309.084199 44.542314 
L 304.965585 48.582929 
L 300.846972 44.079858 
L 296.728358 43.383022 
L 292.609745 41.575692 
L 288.491131 40.89461 
L 284.372518 40.711334 
L 280.253904 45.372553 
L 276.135291 48.773429 
L 272.016677 51.660362 
L 267.898064 48.182256 
L 263.77945 42.814903 
L 259.660837 41.800388 
L 255.542223 44.832022 
L 251.42361 45.963265 
L 247.304996 43.902344 
L 243.186383 44.411907 
L 239.067769 52.071793 
L 234.949156 53.729582 
L 230.830542 49.175178 
L 226.711929 42.99234 
L 222.593315 48.799403 
L 218.474702 46.923219 
L 214.356088 48.073213 
L 210.237475 47.982919 
L 206.118861 46.546369 
L 202.000248 42.930479 
L 197.881634 45.299012 
L 193.763021 48.852811 
L 189.644407 45.411437 
L 185.525794 43.593656 
L 181.40718 45.73657 
L 177.288567 40.46904 
L 173.169953 39.499403 
L 169.05134 37.838386 
L 164.932726 40.559717 
L 160.814112 40.645938 
L 156.695499 41.817371 
L 152.576885 42.650992 
L 148.458272 39.249501 
L 144.339658 47.160365 
L 140.221045 47.936812 
L 136.102431 48.282309 
L 131.983818 46.94635 
L 127.865204 58.528663 
L 123.746591 54.787207 
z
" clip-path="url(#pc5ec391098)" style="fill: #ff7f0e"/>
   </g>
   <g id="matplotlib.axis_1">
    <g id="xtick_1">
     <g id="line2d_1">
      <path d="M 123.746591 331.64 
L 123.746591 23.76 
" clip-path="url(#pc5ec391098)" style="fill: none; stroke-dasharray: 5.12,1.28,0.8,1.28; stroke-dashoffset: 0; stroke: #b0b0b0; stroke-width: 0.8"/>
     </g>
     <g id="line2d_2">
      <defs>
       <path id="m4ce09d5112" d="M 0 0 
L 0 3.5 
" style="stroke: #000000; stroke-width: 0.8"/>
      </defs>
      <g>
       <use xlink:href="#m4ce09d5112" x="123.746591" y="331.64" style="stroke: #000000; stroke-width: 0.8"/>
      </g>
     </g>
     <g id="text_1">
      <!-- 0 -->
      <g transform="translate(116.747841 355.356563)scale(0.22 -0.22)">
       <defs>
        <path id="DejaVuSans-30" d="M 2034 4250 
Q 1547 4250 1301 3770 
Q 1056 3291 1056 2328 
Q 1056 1369 1301 889 
Q 1547 409 2034 409 
Q 2525 409 2770 889 
Q 3016 1369 3016 2328 
Q 3016 3291 2770 3770 
Q 2525 4250 2034 4250 
z
M 2034 4750 
Q 2819 4750 3233 4129 
Q 3647 3509 3647 2328 
Q 3647 1150 3233 529 
Q 2819 -91 2034 -91 
Q 1250 -91 836 529 
Q 422 1150 422 2328 
Q 422 3509 836 4129 
Q 1250 4750 2034 4750 
z
" transform="scale(0.015625)"/>
       </defs>
       <use xlink:href="#DejaVuSans-30"/>
      </g>
     </g>
    </g>
    <g id="xtick_2">
     <g id="line2d_3">
      <path d="M 226.711929 331.64 
L 226.711929 23.76 
" clip-path="url(#pc5ec391098)" style="fill: none; stroke-dasharray: 5.12,1.28,0.8,1.28; stroke-dashoffset: 0; stroke: #b0b0b0; stroke-width: 0.8"/>
     </g>
     <g id="line2d_4">
      <g>
       <use xlink:href="#m4ce09d5112" x="226.711929" y="331.64" style="stroke: #000000; stroke-width: 0.8"/>
      </g>
     </g>
     <g id="text_2">
      <!-- 25 -->
      <g transform="translate(212.714429 355.356563)scale(0.22 -0.22)">
       <defs>
        <path id="DejaVuSans-32" d="M 1228 531 
L 3431 531 
L 3431 0 
L 469 0 
L 469 531 
Q 828 903 1448 1529 
Q 2069 2156 2228 2338 
Q 2531 2678 2651 2914 
Q 2772 3150 2772 3378 
Q 2772 3750 2511 3984 
Q 2250 4219 1831 4219 
Q 1534 4219 1204 4116 
Q 875 4013 500 3803 
L 500 4441 
Q 881 4594 1212 4672 
Q 1544 4750 1819 4750 
Q 2544 4750 2975 4387 
Q 3406 4025 3406 3419 
Q 3406 3131 3298 2873 
Q 3191 2616 2906 2266 
Q 2828 2175 2409 1742 
Q 1991 1309 1228 531 
z
" transform="scale(0.015625)"/>
        <path id="DejaVuSans-35" d="M 691 4666 
L 3169 4666 
L 3169 4134 
L 1269 4134 
L 1269 2991 
Q 1406 3038 1543 3061 
Q 1681 3084 1819 3084 
Q 2600 3084 3056 2656 
Q 3513 2228 3513 1497 
Q 3513 744 3044 326 
Q 2575 -91 1722 -91 
Q 1428 -91 1123 -41 
Q 819 9 494 109 
L 494 744 
Q 775 591 1075 516 
Q 1375 441 1709 441 
Q 2250 441 2565 725 
Q 2881 1009 2881 1497 
Q 2881 1984 2565 2268 
Q 2250 2553 1709 2553 
Q 1456 2553 1204 2497 
Q 953 2441 691 2322 
L 691 4666 
z
" transform="scale(0.015625)"/>
       </defs>
       <use xlink:href="#DejaVuSans-32"/>
       <use xlink:href="#DejaVuSans-35" x="63.623047"/>
      </g>
     </g>
    </g>
    <g id="xtick_3">
     <g id="line2d_5">
      <path d="M 329.677266 331.64 
L 329.677266 23.76 
" clip-path="url(#pc5ec391098)" style="fill: none; stroke-dasharray: 5.12,1.28,0.8,1.28; stroke-dashoffset: 0; stroke: #b0b0b0; stroke-width: 0.8"/>
     </g>
     <g id="line2d_6">
      <g>
       <use xlink:href="#m4ce09d5112" x="329.677266" y="331.64" style="stroke: #000000; stroke-width: 0.8"/>
      </g>
     </g>
     <g id="text_3">
      <!-- 50 -->
      <g transform="translate(315.679766 355.356563)scale(0.22 -0.22)">
       <use xlink:href="#DejaVuSans-35"/>
       <use xlink:href="#DejaVuSans-30" x="63.623047"/>
      </g>
     </g>
    </g>
    <g id="xtick_4">
     <g id="line2d_7">
      <path d="M 432.642604 331.64 
L 432.642604 23.76 
" clip-path="url(#pc5ec391098)" style="fill: none; stroke-dasharray: 5.12,1.28,0.8,1.28; stroke-dashoffset: 0; stroke: #b0b0b0; stroke-width: 0.8"/>
     </g>
     <g id="line2d_8">
      <g>
       <use xlink:href="#m4ce09d5112" x="432.642604" y="331.64" style="stroke: #000000; stroke-width: 0.8"/>
      </g>
     </g>
     <g id="text_4">
      <!-- 75 -->
      <g transform="translate(418.645104 355.356563)scale(0.22 -0.22)">
       <defs>
        <path id="DejaVuSans-37" d="M 525 4666 
L 3525 4666 
L 3525 4397 
L 1831 0 
L 1172 0 
L 2766 4134 
L 525 4134 
L 525 4666 
z
" transform="scale(0.015625)"/>
       </defs>
       <use xlink:href="#DejaVuSans-37"/>
       <use xlink:href="#DejaVuSans-35" x="63.623047"/>
      </g>
     </g>
    </g>
    <g id="xtick_5">
     <g id="line2d_9">
      <path d="M 535.607942 331.64 
L 535.607942 23.76 
" clip-path="url(#pc5ec391098)" style="fill: none; stroke-dasharray: 5.12,1.28,0.8,1.28; stroke-dashoffset: 0; stroke: #b0b0b0; stroke-width: 0.8"/>
     </g>
     <g id="line2d_10">
      <g>
       <use xlink:href="#m4ce09d5112" x="535.607942" y="331.64" style="stroke: #000000; stroke-width: 0.8"/>
      </g>
     </g>
     <g id="text_5">
      <!-- 100 -->
      <g transform="translate(514.611692 355.356563)scale(0.22 -0.22)">
       <defs>
        <path id="DejaVuSans-31" d="M 794 531 
L 1825 531 
L 1825 4091 
L 703 3866 
L 703 4441 
L 1819 4666 
L 2450 4666 
L 2450 531 
L 3481 531 
L 3481 0 
L 794 0 
L 794 531 
z
" transform="scale(0.015625)"/>
       </defs>
       <use xlink:href="#DejaVuSans-31"/>
       <use xlink:href="#DejaVuSans-30" x="63.623047"/>
       <use xlink:href="#DejaVuSans-30" x="127.246094"/>
      </g>
     </g>
    </g>
    <g id="xtick_6">
     <g id="line2d_11">
      <path d="M 638.57328 331.64 
L 638.57328 23.76 
" clip-path="url(#pc5ec391098)" style="fill: none; stroke-dasharray: 5.12,1.28,0.8,1.28; stroke-dashoffset: 0; stroke: #b0b0b0; stroke-width: 0.8"/>
     </g>
     <g id="line2d_12">
      <g>
       <use xlink:href="#m4ce09d5112" x="638.57328" y="331.64" style="stroke: #000000; stroke-width: 0.8"/>
      </g>
     </g>
     <g id="text_6">
      <!-- 125 -->
      <g transform="translate(617.57703 355.356563)scale(0.22 -0.22)">
       <use xlink:href="#DejaVuSans-31"/>
       <use xlink:href="#DejaVuSans-32" x="63.623047"/>
       <use xlink:href="#DejaVuSans-35" x="127.246094"/>
      </g>
     </g>
    </g>
    <g id="xtick_7">
     <g id="line2d_13">
      <path d="M 741.538617 331.64 
L 741.538617 23.76 
" clip-path="url(#pc5ec391098)" style="fill: none; stroke-dasharray: 5.12,1.28,0.8,1.28; stroke-dashoffset: 0; stroke: #b0b0b0; stroke-width: 0.8"/>
     </g>
     <g id="line2d_14">
      <g>
       <use xlink:href="#m4ce09d5112" x="741.538617" y="331.64" style="stroke: #000000; stroke-width: 0.8"/>
      </g>
     </g>
     <g id="text_7">
      <!-- 150 -->
      <g transform="translate(720.542367 355.356563)scale(0.22 -0.22)">
       <use xlink:href="#DejaVuSans-31"/>
       <use xlink:href="#DejaVuSans-35" x="63.623047"/>
       <use xlink:href="#DejaVuSans-30" x="127.246094"/>
      </g>
     </g>
    </g>
    <g id="xtick_8">
     <g id="line2d_15">
      <path d="M 844.503955 331.64 
L 844.503955 23.76 
" clip-path="url(#pc5ec391098)" style="fill: none; stroke-dasharray: 5.12,1.28,0.8,1.28; stroke-dashoffset: 0; stroke: #b0b0b0; stroke-width: 0.8"/>
     </g>
     <g id="line2d_16">
      <g>
       <use xlink:href="#m4ce09d5112" x="844.503955" y="331.64" style="stroke: #000000; stroke-width: 0.8"/>
      </g>
     </g>
     <g id="text_8">
      <!-- 175 -->
      <g transform="translate(823.507705 355.356563)scale(0.22 -0.22)">
       <use xlink:href="#DejaVuSans-31"/>
       <use xlink:href="#DejaVuSans-37" x="63.623047"/>
       <use xlink:href="#DejaVuSans-35" x="127.246094"/>
      </g>
     </g>
    </g>
    <g id="text_9">
     <!-- Time (s) -->
     <g transform="translate(443.573125 382.168125)scale(0.24 -0.24)">
      <defs>
       <path id="DejaVuSans-54" d="M -19 4666 
L 3928 4666 
L 3928 4134 
L 2272 4134 
L 2272 0 
L 1638 0 
L 1638 4134 
L -19 4134 
L -19 4666 
z
" transform="scale(0.015625)"/>
       <path id="DejaVuSans-69" d="M 603 3500 
L 1178 3500 
L 1178 0 
L 603 0 
L 603 3500 
z
M 603 4863 
L 1178 4863 
L 1178 4134 
L 603 4134 
L 603 4863 
z
" transform="scale(0.015625)"/>
       <path id="DejaVuSans-6d" d="M 3328 2828 
Q 3544 3216 3844 3400 
Q 4144 3584 4550 3584 
Q 5097 3584 5394 3201 
Q 5691 2819 5691 2113 
L 5691 0 
L 5113 0 
L 5113 2094 
Q 5113 2597 4934 2840 
Q 4756 3084 4391 3084 
Q 3944 3084 3684 2787 
Q 3425 2491 3425 1978 
L 3425 0 
L 2847 0 
L 2847 2094 
Q 2847 2600 2669 2842 
Q 2491 3084 2119 3084 
Q 1678 3084 1418 2786 
Q 1159 2488 1159 1978 
L 1159 0 
L 581 0 
L 581 3500 
L 1159 3500 
L 1159 2956 
Q 1356 3278 1631 3431 
Q 1906 3584 2284 3584 
Q 2666 3584 2933 3390 
Q 3200 3197 3328 2828 
z
" transform="scale(0.015625)"/>
       <path id="DejaVuSans-65" d="M 3597 1894 
L 3597 1613 
L 953 1613 
Q 991 1019 1311 708 
Q 1631 397 2203 397 
Q 2534 397 2845 478 
Q 3156 559 3463 722 
L 3463 178 
Q 3153 47 2828 -22 
Q 2503 -91 2169 -91 
Q 1331 -91 842 396 
Q 353 884 353 1716 
Q 353 2575 817 3079 
Q 1281 3584 2069 3584 
Q 2775 3584 3186 3129 
Q 3597 2675 3597 1894 
z
M 3022 2063 
Q 3016 2534 2758 2815 
Q 2500 3097 2075 3097 
Q 1594 3097 1305 2825 
Q 1016 2553 972 2059 
L 3022 2063 
z
" transform="scale(0.015625)"/>
       <path id="DejaVuSans-20" transform="scale(0.015625)"/>
       <path id="DejaVuSans-28" d="M 1984 4856 
Q 1566 4138 1362 3434 
Q 1159 2731 1159 2009 
Q 1159 1288 1364 580 
Q 1569 -128 1984 -844 
L 1484 -844 
Q 1016 -109 783 600 
Q 550 1309 550 2009 
Q 550 2706 781 3412 
Q 1013 4119 1484 4856 
L 1984 4856 
z
" transform="scale(0.015625)"/>
       <path id="DejaVuSans-73" d="M 2834 3397 
L 2834 2853 
Q 2591 2978 2328 3040 
Q 2066 3103 1784 3103 
Q 1356 3103 1142 2972 
Q 928 2841 928 2578 
Q 928 2378 1081 2264 
Q 1234 2150 1697 2047 
L 1894 2003 
Q 2506 1872 2764 1633 
Q 3022 1394 3022 966 
Q 3022 478 2636 193 
Q 2250 -91 1575 -91 
Q 1294 -91 989 -36 
Q 684 19 347 128 
L 347 722 
Q 666 556 975 473 
Q 1284 391 1588 391 
Q 1994 391 2212 530 
Q 2431 669 2431 922 
Q 2431 1156 2273 1281 
Q 2116 1406 1581 1522 
L 1381 1569 
Q 847 1681 609 1914 
Q 372 2147 372 2553 
Q 372 3047 722 3315 
Q 1072 3584 1716 3584 
Q 2034 3584 2315 3537 
Q 2597 3491 2834 3397 
z
" transform="scale(0.015625)"/>
       <path id="DejaVuSans-29" d="M 513 4856 
L 1013 4856 
Q 1481 4119 1714 3412 
Q 1947 2706 1947 2009 
Q 1947 1309 1714 600 
Q 1481 -109 1013 -844 
L 513 -844 
Q 928 -128 1133 580 
Q 1338 1288 1338 2009 
Q 1338 2731 1133 3434 
Q 928 4138 513 4856 
z
" transform="scale(0.015625)"/>
      </defs>
      <use xlink:href="#DejaVuSans-54"/>
      <use xlink:href="#DejaVuSans-69" x="57.958984"/>
      <use xlink:href="#DejaVuSans-6d" x="85.742188"/>
      <use xlink:href="#DejaVuSans-65" x="183.154297"/>
      <use xlink:href="#DejaVuSans-20" x="244.677734"/>
      <use xlink:href="#DejaVuSans-28" x="276.464844"/>
      <use xlink:href="#DejaVuSans-73" x="315.478516"/>
      <use xlink:href="#DejaVuSans-29" x="367.578125"/>
     </g>
    </g>
   </g>
   <g id="matplotlib.axis_2">
    <g id="ytick_1">
     <g id="line2d_17">
      <path d="M 86.885 331.64 
L 897.84 331.64 
" clip-path="url(#pc5ec391098)" style="fill: none; stroke-dasharray: 5.12,1.28,0.8,1.28; stroke-dashoffset: 0; stroke: #b0b0b0; stroke-width: 0.8"/>
     </g>
     <g id="line2d_18">
      <defs>
       <path id="m54ad4f42f5" d="M 0 0 
L -3.5 0 
" style="stroke: #000000; stroke-width: 0.8"/>
      </defs>
      <g>
       <use xlink:href="#m54ad4f42f5" x="86.885" y="331.64" style="stroke: #000000; stroke-width: 0.8"/>
      </g>
     </g>
     <g id="text_10">
      <!-- 0 -->
      <g transform="translate(65.8875 339.998281)scale(0.22 -0.22)">
       <use xlink:href="#DejaVuSans-30"/>
      </g>
     </g>
    </g>
    <g id="ytick_2">
     <g id="line2d_19">
      <path d="M 86.885 235.583081 
L 897.84 235.583081 
" clip-path="url(#pc5ec391098)" style="fill: none; stroke-dasharray: 5.12,1.28,0.8,1.28; stroke-dashoffset: 0; stroke: #b0b0b0; stroke-width: 0.8"/>
     </g>
     <g id="line2d_20">
      <g>
       <use xlink:href="#m54ad4f42f5" x="86.885" y="235.583081" style="stroke: #000000; stroke-width: 0.8"/>
      </g>
     </g>
     <g id="text_11">
      <!-- 10 -->
      <g transform="translate(51.89 243.941362)scale(0.22 -0.22)">
       <use xlink:href="#DejaVuSans-31"/>
       <use xlink:href="#DejaVuSans-30" x="63.623047"/>
      </g>
     </g>
    </g>
    <g id="ytick_3">
     <g id="line2d_21">
      <path d="M 86.885 139.526162 
L 897.84 139.526162 
" clip-path="url(#pc5ec391098)" style="fill: none; stroke-dasharray: 5.12,1.28,0.8,1.28; stroke-dashoffset: 0; stroke: #b0b0b0; stroke-width: 0.8"/>
     </g>
     <g id="line2d_22">
      <g>
       <use xlink:href="#m54ad4f42f5" x="86.885" y="139.526162" style="stroke: #000000; stroke-width: 0.8"/>
      </g>
     </g>
     <g id="text_12">
      <!-- 20 -->
      <g transform="translate(51.89 147.884443)scale(0.22 -0.22)">
       <use xlink:href="#DejaVuSans-32"/>
       <use xlink:href="#DejaVuSans-30" x="63.623047"/>
      </g>
     </g>
    </g>
    <g id="ytick_4">
     <g id="line2d_23">
      <path d="M 86.885 43.469243 
L 897.84 43.469243 
" clip-path="url(#pc5ec391098)" style="fill: none; stroke-dasharray: 5.12,1.28,0.8,1.28; stroke-dashoffset: 0; stroke: #b0b0b0; stroke-width: 0.8"/>
     </g>
     <g id="line2d_24">
      <g>
       <use xlink:href="#m54ad4f42f5" x="86.885" y="43.469243" style="stroke: #000000; stroke-width: 0.8"/>
      </g>
     </g>
     <g id="text_13">
      <!-- 30 -->
      <g transform="translate(51.89 51.827524)scale(0.22 -0.22)">
       <defs>
        <path id="DejaVuSans-33" d="M 2597 2516 
Q 3050 2419 3304 2112 
Q 3559 1806 3559 1356 
Q 3559 666 3084 287 
Q 2609 -91 1734 -91 
Q 1441 -91 1130 -33 
Q 819 25 488 141 
L 488 750 
Q 750 597 1062 519 
Q 1375 441 1716 441 
Q 2309 441 2620 675 
Q 2931 909 2931 1356 
Q 2931 1769 2642 2001 
Q 2353 2234 1838 2234 
L 1294 2234 
L 1294 2753 
L 1863 2753 
Q 2328 2753 2575 2939 
Q 2822 3125 2822 3475 
Q 2822 3834 2567 4026 
Q 2313 4219 1838 4219 
Q 1578 4219 1281 4162 
Q 984 4106 628 3988 
L 628 4550 
Q 988 4650 1302 4700 
Q 1616 4750 1894 4750 
Q 2613 4750 3031 4423 
Q 3450 4097 3450 3541 
Q 3450 3153 3228 2886 
Q 3006 2619 2597 2516 
z
" transform="scale(0.015625)"/>
       </defs>
       <use xlink:href="#DejaVuSans-33"/>
       <use xlink:href="#DejaVuSans-30" x="63.623047"/>
      </g>
     </g>
    </g>
    <g id="text_14">
     <!-- Throughput (Mbps) -->
     <g transform="translate(42.89875 292.414375)rotate(-90)scale(0.24 -0.24)">
      <defs>
       <path id="DejaVuSans-68" d="M 3513 2113 
L 3513 0 
L 2938 0 
L 2938 2094 
Q 2938 2591 2744 2837 
Q 2550 3084 2163 3084 
Q 1697 3084 1428 2787 
Q 1159 2491 1159 1978 
L 1159 0 
L 581 0 
L 581 4863 
L 1159 4863 
L 1159 2956 
Q 1366 3272 1645 3428 
Q 1925 3584 2291 3584 
Q 2894 3584 3203 3211 
Q 3513 2838 3513 2113 
z
" transform="scale(0.015625)"/>
       <path id="DejaVuSans-72" d="M 2631 2963 
Q 2534 3019 2420 3045 
Q 2306 3072 2169 3072 
Q 1681 3072 1420 2755 
Q 1159 2438 1159 1844 
L 1159 0 
L 581 0 
L 581 3500 
L 1159 3500 
L 1159 2956 
Q 1341 3275 1631 3429 
Q 1922 3584 2338 3584 
Q 2397 3584 2469 3576 
Q 2541 3569 2628 3553 
L 2631 2963 
z
" transform="scale(0.015625)"/>
       <path id="DejaVuSans-6f" d="M 1959 3097 
Q 1497 3097 1228 2736 
Q 959 2375 959 1747 
Q 959 1119 1226 758 
Q 1494 397 1959 397 
Q 2419 397 2687 759 
Q 2956 1122 2956 1747 
Q 2956 2369 2687 2733 
Q 2419 3097 1959 3097 
z
M 1959 3584 
Q 2709 3584 3137 3096 
Q 3566 2609 3566 1747 
Q 3566 888 3137 398 
Q 2709 -91 1959 -91 
Q 1206 -91 779 398 
Q 353 888 353 1747 
Q 353 2609 779 3096 
Q 1206 3584 1959 3584 
z
" transform="scale(0.015625)"/>
       <path id="DejaVuSans-75" d="M 544 1381 
L 544 3500 
L 1119 3500 
L 1119 1403 
Q 1119 906 1312 657 
Q 1506 409 1894 409 
Q 2359 409 2629 706 
Q 2900 1003 2900 1516 
L 2900 3500 
L 3475 3500 
L 3475 0 
L 2900 0 
L 2900 538 
Q 2691 219 2414 64 
Q 2138 -91 1772 -91 
Q 1169 -91 856 284 
Q 544 659 544 1381 
z
M 1991 3584 
L 1991 3584 
z
" transform="scale(0.015625)"/>
       <path id="DejaVuSans-67" d="M 2906 1791 
Q 2906 2416 2648 2759 
Q 2391 3103 1925 3103 
Q 1463 3103 1205 2759 
Q 947 2416 947 1791 
Q 947 1169 1205 825 
Q 1463 481 1925 481 
Q 2391 481 2648 825 
Q 2906 1169 2906 1791 
z
M 3481 434 
Q 3481 -459 3084 -895 
Q 2688 -1331 1869 -1331 
Q 1566 -1331 1297 -1286 
Q 1028 -1241 775 -1147 
L 775 -588 
Q 1028 -725 1275 -790 
Q 1522 -856 1778 -856 
Q 2344 -856 2625 -561 
Q 2906 -266 2906 331 
L 2906 616 
Q 2728 306 2450 153 
Q 2172 0 1784 0 
Q 1141 0 747 490 
Q 353 981 353 1791 
Q 353 2603 747 3093 
Q 1141 3584 1784 3584 
Q 2172 3584 2450 3431 
Q 2728 3278 2906 2969 
L 2906 3500 
L 3481 3500 
L 3481 434 
z
" transform="scale(0.015625)"/>
       <path id="DejaVuSans-70" d="M 1159 525 
L 1159 -1331 
L 581 -1331 
L 581 3500 
L 1159 3500 
L 1159 2969 
Q 1341 3281 1617 3432 
Q 1894 3584 2278 3584 
Q 2916 3584 3314 3078 
Q 3713 2572 3713 1747 
Q 3713 922 3314 415 
Q 2916 -91 2278 -91 
Q 1894 -91 1617 61 
Q 1341 213 1159 525 
z
M 3116 1747 
Q 3116 2381 2855 2742 
Q 2594 3103 2138 3103 
Q 1681 3103 1420 2742 
Q 1159 2381 1159 1747 
Q 1159 1113 1420 752 
Q 1681 391 2138 391 
Q 2594 391 2855 752 
Q 3116 1113 3116 1747 
z
" transform="scale(0.015625)"/>
       <path id="DejaVuSans-74" d="M 1172 4494 
L 1172 3500 
L 2356 3500 
L 2356 3053 
L 1172 3053 
L 1172 1153 
Q 1172 725 1289 603 
Q 1406 481 1766 481 
L 2356 481 
L 2356 0 
L 1766 0 
Q 1100 0 847 248 
Q 594 497 594 1153 
L 594 3053 
L 172 3053 
L 172 3500 
L 594 3500 
L 594 4494 
L 1172 4494 
z
" transform="scale(0.015625)"/>
       <path id="DejaVuSans-4d" d="M 628 4666 
L 1569 4666 
L 2759 1491 
L 3956 4666 
L 4897 4666 
L 4897 0 
L 4281 0 
L 4281 4097 
L 3078 897 
L 2444 897 
L 1241 4097 
L 1241 0 
L 628 0 
L 628 4666 
z
" transform="scale(0.015625)"/>
       <path id="DejaVuSans-62" d="M 3116 1747 
Q 3116 2381 2855 2742 
Q 2594 3103 2138 3103 
Q 1681 3103 1420 2742 
Q 1159 2381 1159 1747 
Q 1159 1113 1420 752 
Q 1681 391 2138 391 
Q 2594 391 2855 752 
Q 3116 1113 3116 1747 
z
M 1159 2969 
Q 1341 3281 1617 3432 
Q 1894 3584 2278 3584 
Q 2916 3584 3314 3078 
Q 3713 2572 3713 1747 
Q 3713 922 3314 415 
Q 2916 -91 2278 -91 
Q 1894 -91 1617 61 
Q 1341 213 1159 525 
L 1159 0 
L 581 0 
L 581 4863 
L 1159 4863 
L 1159 2969 
z
" transform="scale(0.015625)"/>
      </defs>
      <use xlink:href="#DejaVuSans-54"/>
      <use xlink:href="#DejaVuSans-68" x="61.083984"/>
      <use xlink:href="#DejaVuSans-72" x="124.462891"/>
      <use xlink:href="#DejaVuSans-6f" x="163.326172"/>
      <use xlink:href="#DejaVuSans-75" x="224.507812"/>
      <use xlink:href="#DejaVuSans-67" x="287.886719"/>
      <use xlink:href="#DejaVuSans-68" x="351.363281"/>
      <use xlink:href="#DejaVuSans-70" x="414.742188"/>
      <use xlink:href="#DejaVuSans-75" x="478.21875"/>
      <use xlink:href="#DejaVuSans-74" x="541.597656"/>
      <use xlink:href="#DejaVuSans-20" x="580.806641"/>
      <use xlink:href="#DejaVuSans-28" x="612.59375"/>
      <use xlink:href="#DejaVuSans-4d" x="651.607422"/>
      <use xlink:href="#DejaVuSans-62" x="737.886719"/>
      <use xlink:href="#DejaVuSans-70" x="801.363281"/>
      <use xlink:href="#DejaVuSans-73" x="864.839844"/>
      <use xlink:href="#DejaVuSans-29" x="916.939453"/>
     </g>
    </g>
   </g>
   <g id="patch_3">
    <path d="M 86.885 331.64 
L 86.885 23.76 
" style="fill: none; stroke: #000000; stroke-width: 0.8; stroke-linejoin: miter; stroke-linecap: square"/>
   </g>
   <g id="patch_4">
    <path d="M 897.84 331.64 
L 897.84 23.76 
" style="fill: none; stroke: #000000; stroke-width: 0.8; stroke-linejoin: miter; stroke-linecap: square"/>
   </g>
   <g id="patch_5">
    <path d="M 86.885 331.64 
L 897.84 331.64 
" style="fill: none; stroke: #000000; stroke-width: 0.8; stroke-linejoin: miter; stroke-linecap: square"/>
   </g>
   <g id="patch_6">
    <path d="M 86.885 23.76 
L 897.84 23.76 
" style="fill: none; stroke: #000000; stroke-width: 0.8; stroke-linejoin: miter; stroke-linecap: square"/>
   </g>
   <g id="legend_1">
    <g id="patch_7">
     <path d="M 756.24 113.415 
L 881.04 113.415 
Q 885.84 113.415 885.84 108.615 
L 885.84 40.56 
Q 885.84 35.76 881.04 35.76 
L 756.24 35.76 
Q 751.44 35.76 751.44 40.56 
L 751.44 108.615 
Q 751.44 113.415 756.24 113.415 
z
" style="fill: #ffffff; opacity: 0.8; stroke: #cccccc; stroke-linejoin: miter"/>
    </g>
    <g id="patch_8">
     <path d="M 761.04 63.59625 
L 809.04 63.59625 
L 809.04 46.79625 
L 761.04 46.79625 
z
" style="fill: #1f77b4"/>
    </g>
    <g id="text_15">
     <!-- UE1 -->
     <g transform="translate(828.24 63.59625)scale(0.24 -0.24)">
      <defs>
       <path id="DejaVuSans-55" d="M 556 4666 
L 1191 4666 
L 1191 1831 
Q 1191 1081 1462 751 
Q 1734 422 2344 422 
Q 2950 422 3222 751 
Q 3494 1081 3494 1831 
L 3494 4666 
L 4128 4666 
L 4128 1753 
Q 4128 841 3676 375 
Q 3225 -91 2344 -91 
Q 1459 -91 1007 375 
Q 556 841 556 1753 
L 556 4666 
z
" transform="scale(0.015625)"/>
       <path id="DejaVuSans-45" d="M 628 4666 
L 3578 4666 
L 3578 4134 
L 1259 4134 
L 1259 2753 
L 3481 2753 
L 3481 2222 
L 1259 2222 
L 1259 531 
L 3634 531 
L 3634 0 
L 628 0 
L 628 4666 
z
" transform="scale(0.015625)"/>
      </defs>
      <use xlink:href="#DejaVuSans-55"/>
      <use xlink:href="#DejaVuSans-45" x="73.193359"/>
      <use xlink:href="#DejaVuSans-31" x="136.376953"/>
     </g>
    </g>
    <g id="patch_9">
     <path d="M 761.04 98.82375 
L 809.04 98.82375 
L 809.04 82.02375 
L 761.04 82.02375 
z
" style="fill: #ff7f0e"/>
    </g>
    <g id="text_16">
     <!-- UE2 -->
     <g transform="translate(828.24 98.82375)scale(0.24 -0.24)">
      <use xlink:href="#DejaVuSans-55"/>
      <use xlink:href="#DejaVuSans-45" x="73.193359"/>
      <use xlink:href="#DejaVuSans-32" x="136.376953"/>
     </g>
    </g>
   </g>
  </g>
 </g>
 <defs>
  <clipPath id="pc5ec391098">
   <rect x="86.885" y="23.76" width="810.955" height="307.88"/>
  </clipPath>
 </defs>
</svg>
