<?xml version="1.0" encoding="utf-8" standalone="no"?>
<!DOCTYPE svg PUBLIC "-//W3C//DTD SVG 1.1//EN"
  "http://www.w3.org/Graphics/SVG/1.1/DTD/svg11.dtd">
<svg xmlns:xlink="http://www.w3.org/1999/xlink" width="921.6pt" height="410.4pt" viewBox="0 0 921.6 410.4" xmlns="http://www.w3.org/2000/svg" version="1.1">
 <metadata>
  <rdf:RDF xmlns:dc="http://purl.org/dc/elements/1.1/" xmlns:cc="http://creativecommons.org/ns#" xmlns:rdf="http://www.w3.org/1999/02/22-rdf-syntax-ns#">
   <cc:Work>
    <dc:type rdf:resource="http://purl.org/dc/dcmitype/StillImage"/>
    <dc:date>2023-04-11T17:41:06.081859</dc:date>
    <dc:format>image/svg+xml</dc:format>
    <dc:creator>
     <cc:Agent>
      <dc:title>Matplotlib v3.5.3, https://matplotlib.org/</dc:title>
     </cc:Agent>
    </dc:creator>
   </cc:Work>
  </rdf:RDF>
 </metadata>
 <defs>
  <style type="text/css">*{stroke-linejoin: round; stroke-linecap: butt}</style>
 </defs>
 <g id="figure_1">
  <g id="patch_1">
   <path d="M 0 410.4 
L 921.6 410.4 
L 921.6 0 
L 0 0 
L 0 410.4 
z
" style="fill: none"/>
  </g>
  <g id="axes_1">
   <g id="patch_2">
    <path d="M 86.885 331.64 
L 897.84 331.64 
L 897.84 23.76 
L 86.885 23.76 
z
" style="fill: #ffffff"/>
   </g>
   <g id="PolyCollection_1">
    <path d="M 123.746591 238.947711 
L 123.746591 331.64 
L 127.842323 331.64 
L 131.938056 331.64 
L 136.033788 331.64 
L 140.12952 331.64 
L 144.225253 331.64 
L 148.320985 331.64 
L 152.416717 331.64 
L 156.512449 331.64 
L 160.608182 331.64 
L 164.703914 331.64 
L 168.799646 331.64 
L 172.895379 331.64 
L 176.991111 331.64 
L 181.086843 331.64 
L 185.182576 331.64 
L 189.278308 331.64 
L 193.37404 331.64 
L 197.469773 331.64 
L 201.565505 331.64 
L 205.661237 331.64 
L 209.75697 331.64 
L 213.852702 331.64 
L 217.948434 331.64 
L 222.044167 331.64 
L 226.139899 331.64 
L 230.235631 331.64 
L 234.331364 331.64 
L 238.427096 331.64 
L 242.522828 331.64 
L 246.618561 331.64 
L 250.714293 331.64 
L 254.810025 331.64 
L 258.905758 331.64 
L 263.00149 331.64 
L 267.097222 331.64 
L 271.192955 331.64 
L 275.288687 331.64 
L 279.384419 331.64 
L 283.480152 331.64 
L 287.575884 331.64 
L 291.671616 331.64 
L 295.767348 331.64 
L 299.863081 331.64 
L 303.958813 331.64 
L 308.054545 331.64 
L 312.150278 331.64 
L 316.24601 331.64 
L 320.341742 331.64 
L 324.437475 331.64 
L 328.533207 331.64 
L 332.628939 331.64 
L 336.724672 331.64 
L 340.820404 331.64 
L 344.916136 331.64 
L 349.011869 331.64 
L 353.107601 331.64 
L 357.203333 331.64 
L 361.299066 331.64 
L 365.394798 331.64 
L 369.49053 331.64 
L 373.586263 331.64 
L 377.681995 331.64 
L 381.777727 331.64 
L 385.87346 331.64 
L 389.969192 331.64 
L 394.064924 331.64 
L 398.160657 331.64 
L 402.256389 331.64 
L 406.352121 331.64 
L 410.447854 331.64 
L 414.543586 331.64 
L 418.639318 331.64 
L 422.735051 331.64 
L 426.830783 331.64 
L 430.926515 331.64 
L 435.022247 331.64 
L 439.11798 331.64 
L 443.213712 331.64 
L 447.309444 331.64 
L 451.405177 331.64 
L 455.500909 331.64 
L 459.596641 331.64 
L 463.692374 331.64 
L 467.788106 331.64 
L 471.883838 331.64 
L 475.979571 331.64 
L 480.075303 331.64 
L 484.171035 331.64 
L 488.266768 331.64 
L 492.3625 331.64 
L 496.458232 331.64 
L 500.553965 331.64 
L 504.649697 331.64 
L 508.745429 331.64 
L 512.841162 331.64 
L 516.936894 331.64 
L 521.032626 331.64 
L 525.128359 331.64 
L 529.224091 331.64 
L 533.319823 331.64 
L 537.415556 331.64 
L 541.511288 331.64 
L 545.60702 331.64 
L 549.702753 331.64 
L 553.798485 331.64 
L 557.894217 331.64 
L 561.989949 331.64 
L 566.085682 331.64 
L 570.181414 331.64 
L 574.277146 331.64 
L 578.372879 331.64 
L 582.468611 331.64 
L 586.564343 331.64 
L 590.660076 331.64 
L 594.755808 331.64 
L 598.85154 331.64 
L 602.947273 331.64 
L 607.043005 331.64 
L 611.138737 331.64 
L 615.23447 331.64 
L 619.330202 331.64 
L 623.425934 331.64 
L 627.521667 331.64 
L 631.617399 331.64 
L 635.713131 331.64 
L 639.808864 331.64 
L 643.904596 331.64 
L 648.000328 331.64 
L 652.096061 331.64 
L 656.191793 331.64 
L 660.287525 331.64 
L 664.383258 331.64 
L 668.47899 331.64 
L 672.574722 331.64 
L 676.670455 331.64 
L 680.766187 331.64 
L 684.861919 331.64 
L 688.957652 331.64 
L 693.053384 331.64 
L 697.149116 331.64 
L 701.244848 331.64 
L 705.340581 331.64 
L 709.436313 331.64 
L 713.532045 331.64 
L 717.627778 331.64 
L 721.72351 331.64 
L 725.819242 331.64 
L 729.914975 331.64 
L 734.010707 331.64 
L 738.106439 331.64 
L 742.202172 331.64 
L 746.297904 331.64 
L 750.393636 331.64 
L 754.489369 331.64 
L 758.585101 331.64 
L 762.680833 331.64 
L 766.776566 331.64 
L 770.872298 331.64 
L 774.96803 331.64 
L 779.063763 331.64 
L 783.159495 331.64 
L 787.255227 331.64 
L 791.35096 331.64 
L 795.446692 331.64 
L 799.542424 331.64 
L 803.638157 331.64 
L 807.733889 331.64 
L 811.829621 331.64 
L 815.925354 331.64 
L 820.021086 331.64 
L 824.116818 331.64 
L 828.212551 331.64 
L 832.308283 331.64 
L 836.404015 331.64 
L 840.499747 331.64 
L 844.59548 331.64 
L 848.691212 331.64 
L 852.786944 331.64 
L 856.882677 331.64 
L 860.978409 331.64 
L 860.978409 331.64 
L 860.978409 331.64 
L 856.882677 236.22802 
L 852.786944 235.564775 
L 848.691212 237.244588 
L 844.59548 241.984544 
L 840.499747 241.585232 
L 836.404015 242.970583 
L 832.308283 244.101342 
L 828.212551 242.699273 
L 824.116818 235.724406 
L 820.021086 237.572562 
L 815.925354 243.062642 
L 811.829621 236.20322 
L 807.733889 235.089963 
L 803.638157 236.337972 
L 799.542424 236.712485 
L 795.446692 235.610059 
L 791.35096 235.168444 
L 787.255227 234.388811 
L 783.159495 235.705099 
L 779.063763 237.618002 
L 774.96803 236.634318 
L 770.872298 239.136537 
L 766.776566 241.651705 
L 762.680833 235.934657 
L 758.585101 236.285468 
L 754.489369 237.409085 
L 750.393636 235.623793 
L 746.297904 235.848249 
L 742.202172 236.190899 
L 738.106439 235.952708 
L 734.010707 241.427641 
L 729.914975 240.372225 
L 725.819242 238.295453 
L 721.72351 236.976182 
L 717.627778 242.279869 
L 713.532045 240.528324 
L 709.436313 235.6358 
L 705.340581 236.450358 
L 701.244848 237.30549 
L 697.149116 236.365519 
L 693.053384 237.214452 
L 688.957652 239.42315 
L 684.861919 236.124817 
L 680.766187 234.752572 
L 676.670455 235.557005 
L 672.574722 236.444707 
L 668.47899 236.185012 
L 664.383258 235.354445 
L 660.287525 236.515733 
L 656.191793 235.172368 
L 652.096061 236.660766 
L 648.000328 237.178978 
L 643.904596 237.46669 
L 639.808864 237.170894 
L 635.713131 237.021231 
L 631.617399 237.106932 
L 627.521667 236.363479 
L 623.425934 238.864678 
L 619.330202 235.94792 
L 615.23447 240.167153 
L 611.138737 247.45469 
L 607.043005 248.492291 
L 602.947273 245.381528 
L 598.85154 244.709258 
L 594.755808 245.911983 
L 590.660076 234.884107 
L 586.564343 234.827443 
L 582.468611 242.572605 
L 578.372879 239.530748 
L 574.277146 235.844953 
L 570.181414 242.457708 
L 566.085682 257.615898 
L 561.989949 238.321195 
L 557.894217 240.383526 
L 553.798485 239.925745 
L 549.702753 241.217704 
L 545.60702 243.190566 
L 541.511288 236.216797 
L 537.415556 235.935677 
L 533.319823 238.04133 
L 529.224091 235.854999 
L 525.128359 236.601591 
L 521.032626 237.805573 
L 516.936894 235.873442 
L 512.841162 236.142476 
L 508.745429 235.529223 
L 504.649697 235.111231 
L 500.553965 235.487157 
L 496.458232 234.845651 
L 492.3625 234.718119 
L 488.266768 234.677936 
L 484.171035 235.42963 
L 480.075303 243.309701 
L 475.979571 239.141246 
L 471.883838 235.844875 
L 467.788106 238.365223 
L 463.692374 236.39597 
L 459.596641 237.124512 
L 455.500909 235.90452 
L 451.405177 238.253387 
L 447.309444 237.712651 
L 443.213712 237.096259 
L 439.11798 236.404839 
L 435.022247 237.654653 
L 430.926515 234.381355 
L 426.830783 238.770422 
L 422.735051 238.646892 
L 418.639318 236.041235 
L 414.543586 235.188771 
L 410.447854 234.116952 
L 406.352121 235.55779 
L 402.256389 235.259953 
L 398.160657 236.578989 
L 394.064924 235.276592 
L 389.969192 235.096163 
L 385.87346 242.186634 
L 381.777727 237.427293 
L 377.681995 237.718615 
L 373.586263 234.783337 
L 369.49053 236.204319 
L 365.394798 241.260868 
L 361.299066 238.690528 
L 357.203333 234.221881 
L 353.107601 235.931361 
L 349.011869 236.088402 
L 344.916136 236.985208 
L 340.820404 234.717334 
L 336.724672 234.41989 
L 332.628939 236.688862 
L 328.533207 237.699623 
L 324.437475 236.226294 
L 320.341742 235.166561 
L 316.24601 236.413864 
L 312.150278 234.453401 
L 308.054545 234.042395 
L 303.958813 238.032227 
L 299.863081 240.523458 
L 295.767348 239.622493 
L 291.671616 239.565437 
L 287.575884 235.124259 
L 283.480152 237.351558 
L 279.384419 237.909953 
L 275.288687 241.422304 
L 271.192955 237.027745 
L 267.097222 235.96448 
L 263.00149 238.302909 
L 258.905758 235.440225 
L 254.810025 235.932852 
L 250.714293 236.509533 
L 246.618561 235.763568 
L 242.522828 235.121042 
L 238.427096 236.094759 
L 234.331364 235.131715 
L 230.235631 240.427711 
L 226.139899 234.99814 
L 222.044167 234.368485 
L 217.948434 235.014778 
L 213.852702 235.861513 
L 209.75697 235.16091 
L 205.661237 235.868811 
L 201.565505 235.482369 
L 197.469773 236.433327 
L 193.37404 236.333734 
L 189.278308 238.129622 
L 185.182576 236.396441 
L 181.086843 237.892765 
L 176.991111 234.679192 
L 172.895379 236.254625 
L 168.799646 237.677177 
L 164.703914 235.123631 
L 160.608182 237.808869 
L 156.512449 234.528743 
L 152.416717 234.562255 
L 148.320985 234.944537 
L 144.225253 234.978206 
L 140.12952 234.61468 
L 136.033788 237.981606 
L 131.938056 236.789318 
L 127.842323 234.22816 
L 123.746591 238.947711 
z
" clip-path="url(#pca26d220ef)" style="fill: #1f77b4"/>
   </g>
   <g id="PolyCollection_2">
    <path d="M 123.746591 147.617857 
L 123.746591 238.947711 
L 127.842323 234.22816 
L 131.938056 236.789318 
L 136.033788 237.981606 
L 140.12952 234.61468 
L 144.225253 234.978206 
L 148.320985 234.944537 
L 152.416717 234.562255 
L 156.512449 234.528743 
L 160.608182 237.808869 
L 164.703914 235.123631 
L 168.799646 237.677177 
L 172.895379 236.254625 
L 176.991111 234.679192 
L 181.086843 237.892765 
L 185.182576 236.396441 
L 189.278308 238.129622 
L 193.37404 236.333734 
L 197.469773 236.433327 
L 201.565505 235.482369 
L 205.661237 235.868811 
L 209.75697 235.16091 
L 213.852702 235.861513 
L 217.948434 235.014778 
L 222.044167 234.368485 
L 226.139899 234.99814 
L 230.235631 240.427711 
L 234.331364 235.131715 
L 238.427096 236.094759 
L 242.522828 235.121042 
L 246.618561 235.763568 
L 250.714293 236.509533 
L 254.810025 235.932852 
L 258.905758 235.440225 
L 263.00149 238.302909 
L 267.097222 235.96448 
L 271.192955 237.027745 
L 275.288687 241.422304 
L 279.384419 237.909953 
L 283.480152 237.351558 
L 287.575884 235.124259 
L 291.671616 239.565437 
L 295.767348 239.622493 
L 299.863081 240.523458 
L 303.958813 238.032227 
L 308.054545 234.042395 
L 312.150278 234.453401 
L 316.24601 236.413864 
L 320.341742 235.166561 
L 324.437475 236.226294 
L 328.533207 237.699623 
L 332.628939 236.688862 
L 336.724672 234.41989 
L 340.820404 234.717334 
L 344.916136 236.985208 
L 349.011869 236.088402 
L 353.107601 235.931361 
L 357.203333 234.221881 
L 361.299066 238.690528 
L 365.394798 241.260868 
L 369.49053 236.204319 
L 373.586263 234.783337 
L 377.681995 237.718615 
L 381.777727 237.427293 
L 385.87346 242.186634 
L 389.969192 235.096163 
L 394.064924 235.276592 
L 398.160657 236.578989 
L 402.256389 235.259953 
L 406.352121 235.55779 
L 410.447854 234.116952 
L 414.543586 235.188771 
L 418.639318 236.041235 
L 422.735051 238.646892 
L 426.830783 238.770422 
L 430.926515 234.381355 
L 435.022247 237.654653 
L 439.11798 236.404839 
L 443.213712 237.096259 
L 447.309444 237.712651 
L 451.405177 238.253387 
L 455.500909 235.90452 
L 459.596641 237.124512 
L 463.692374 236.39597 
L 467.788106 238.365223 
L 471.883838 235.844875 
L 475.979571 239.141246 
L 480.075303 243.309701 
L 484.171035 235.42963 
L 488.266768 234.677936 
L 492.3625 234.718119 
L 496.458232 234.845651 
L 500.553965 235.487157 
L 504.649697 235.111231 
L 508.745429 235.529223 
L 512.841162 236.142476 
L 516.936894 235.873442 
L 521.032626 237.805573 
L 525.128359 236.601591 
L 529.224091 235.854999 
L 533.319823 238.04133 
L 537.415556 235.935677 
L 541.511288 236.216797 
L 545.60702 243.190566 
L 549.702753 241.217704 
L 553.798485 239.925745 
L 557.894217 240.383526 
L 561.989949 238.321195 
L 566.085682 257.615898 
L 570.181414 242.457708 
L 574.277146 235.844953 
L 578.372879 239.530748 
L 582.468611 242.572605 
L 586.564343 234.827443 
L 590.660076 234.884107 
L 594.755808 245.911983 
L 598.85154 244.709258 
L 602.947273 245.381528 
L 607.043005 248.492291 
L 611.138737 247.45469 
L 615.23447 240.167153 
L 619.330202 235.94792 
L 623.425934 238.864678 
L 627.521667 236.363479 
L 631.617399 237.106932 
L 635.713131 237.021231 
L 639.808864 237.170894 
L 643.904596 237.46669 
L 648.000328 237.178978 
L 652.096061 236.660766 
L 656.191793 235.172368 
L 660.287525 236.515733 
L 664.383258 235.354445 
L 668.47899 236.185012 
L 672.574722 236.444707 
L 676.670455 235.557005 
L 680.766187 234.752572 
L 684.861919 236.124817 
L 688.957652 239.42315 
L 693.053384 237.214452 
L 697.149116 236.365519 
L 701.244848 237.30549 
L 705.340581 236.450358 
L 709.436313 235.6358 
L 713.532045 240.528324 
L 717.627778 242.279869 
L 721.72351 236.976182 
L 725.819242 238.295453 
L 729.914975 240.372225 
L 734.010707 241.427641 
L 738.106439 235.952708 
L 742.202172 236.190899 
L 746.297904 235.848249 
L 750.393636 235.623793 
L 754.489369 237.409085 
L 758.585101 236.285468 
L 762.680833 235.934657 
L 766.776566 241.651705 
L 770.872298 239.136537 
L 774.96803 236.634318 
L 779.063763 237.618002 
L 783.159495 235.705099 
L 787.255227 234.388811 
L 791.35096 235.168444 
L 795.446692 235.610059 
L 799.542424 236.712485 
L 803.638157 236.337972 
L 807.733889 235.089963 
L 811.829621 236.20322 
L 815.925354 243.062642 
L 820.021086 237.572562 
L 824.116818 235.724406 
L 828.212551 242.699273 
L 832.308283 244.101342 
L 836.404015 242.970583 
L 840.499747 241.585232 
L 844.59548 241.984544 
L 848.691212 237.244588 
L 852.786944 235.564775 
L 856.882677 236.22802 
L 860.978409 331.64 
L 860.978409 239.094078 
L 860.978409 239.094078 
L 856.882677 138.998571 
L 852.786944 139.848994 
L 848.691212 148.326935 
L 844.59548 150.190552 
L 840.499747 153.291897 
L 836.404015 157.33282 
L 832.308283 153.578197 
L 828.212551 147.833366 
L 824.116818 141.292657 
L 820.021086 147.143751 
L 815.925354 150.584528 
L 811.829621 139.402435 
L 807.733889 140.179008 
L 803.638157 139.630737 
L 799.542424 141.789208 
L 795.446692 137.904777 
L 791.35096 138.523602 
L 787.255227 137.239805 
L 783.159495 140.815962 
L 779.063763 142.731298 
L 774.96803 140.283309 
L 770.872298 149.937136 
L 766.776566 146.682124 
L 762.680833 138.691159 
L 758.585101 141.939892 
L 754.489369 142.358198 
L 750.393636 139.374104 
L 746.297904 140.262904 
L 742.202172 138.895839 
L 738.106439 144.006776 
L 734.010707 152.909772 
L 729.914975 145.976028 
L 725.819242 144.977589 
L 721.72351 145.40076 
L 717.627778 152.473573 
L 713.532045 144.757449 
L 709.436313 139.963498 
L 705.340581 141.065062 
L 701.244848 141.904105 
L 697.149116 142.182792 
L 693.053384 145.405626 
L 688.957652 144.879488 
L 684.861919 138.564569 
L 680.766187 138.236596 
L 676.670455 140.043941 
L 672.574722 140.985168 
L 668.47899 139.635054 
L 664.383258 139.519765 
L 660.287525 140.108139 
L 656.191793 139.82906 
L 652.096061 142.246597 
L 648.000328 142.208926 
L 643.904596 142.215362 
L 639.808864 142.23404 
L 635.713131 142.187658 
L 631.617399 141.241723 
L 627.521667 143.38128 
L 623.425934 143.297069 
L 619.330202 140.066858 
L 615.23447 155.015268 
L 611.138737 163.256902 
L 607.043005 161.335994 
L 602.947273 161.003861 
L 598.85154 156.038193 
L 594.755808 152.554487 
L 590.660076 137.395826 
L 586.564343 144.227308 
L 582.468611 150.642997 
L 578.372879 143.480951 
L 574.277146 144.89644 
L 570.181414 165.128131 
L 566.085682 168.397505 
L 561.989949 146.730547 
L 557.894217 147.85644 
L 553.798485 149.296336 
L 549.702753 154.254313 
L 545.60702 148.259834 
L 541.511288 139.248612 
L 537.415556 143.26913 
L 533.319823 141.243293 
L 529.224091 139.946703 
L 525.128359 144.666568 
L 521.032626 140.521186 
L 516.936894 140.722962 
L 512.841162 139.764862 
L 508.745429 138.034585 
L 504.649697 138.621782 
L 500.553965 138.686294 
L 496.458232 137.275043 
L 492.3625 138.210854 
L 488.266768 136.778884 
L 484.171035 146.736041 
L 480.075303 150.660576 
L 475.979571 143.435981 
L 471.883838 141.464374 
L 467.788106 143.540047 
L 463.692374 141.525276 
L 459.596641 140.208752 
L 455.500909 144.218911 
L 451.405177 143.566417 
L 447.309444 142.928757 
L 443.213712 142.125658 
L 439.11798 141.036573 
L 435.022247 141.319733 
L 430.926515 140.779704 
L 426.830783 145.230064 
L 422.735051 143.619784 
L 418.639318 139.319088 
L 414.543586 138.063152 
L 410.447854 136.053246 
L 406.352121 140.238497 
L 402.256389 140.30034 
L 398.160657 139.315635 
L 394.064924 138.113694 
L 389.969192 145.356654 
L 385.87346 147.046278 
L 381.777727 143.794091 
L 377.681995 140.624311 
L 373.586263 137.180709 
L 369.49053 145.803291 
L 365.394798 149.62274 
L 361.299066 140.967509 
L 357.203333 138.369072 
L 353.107601 139.955807 
L 349.011869 140.139924 
L 344.916136 140.462796 
L 340.820404 137.782582 
L 336.724672 139.608056 
L 332.628939 142.513512 
L 328.533207 142.132093 
L 324.437475 139.300881 
L 320.341742 139.429825 
L 316.24601 139.229227 
L 312.150278 136.799446 
L 308.054545 138.606007 
L 303.958813 147.433818 
L 299.863081 147.705913 
L 295.767348 148.745554 
L 291.671616 142.219286 
L 287.575884 141.199971 
L 283.480152 141.321931 
L 279.384419 146.459316 
L 275.288687 148.998343 
L 271.192955 141.163085 
L 267.097222 142.861184 
L 263.00149 140.702713 
L 258.905758 139.601072 
L 254.810025 140.514986 
L 250.714293 140.426381 
L 246.618561 138.10357 
L 242.522828 140.069919 
L 238.427096 139.850014 
L 234.331364 142.783095 
L 230.235631 143.659496 
L 226.139899 137.111959 
L 222.044167 137.638254 
L 217.948434 138.992842 
L 213.852702 139.242177 
L 209.75697 137.844425 
L 205.661237 140.259608 
L 201.565505 139.755366 
L 197.469773 140.496543 
L 193.37404 141.48886 
L 189.278308 143.802803 
L 185.182576 141.372002 
L 181.086843 141.683023 
L 176.991111 138.066448 
L 172.895379 141.468691 
L 168.799646 141.97152 
L 164.703914 140.207889 
L 160.608182 141.776808 
L 156.512449 137.371575 
L 152.416717 136.898097 
L 148.320985 138.958624 
L 144.225253 137.206058 
L 140.12952 140.385414 
L 136.033788 143.551427 
L 131.938056 139.291855 
L 127.842323 139.715968 
L 123.746591 147.617857 
z
" clip-path="url(#pca26d220ef)" style="fill: #ff7f0e"/>
   </g>
   <g id="PolyCollection_3">
    <path d="M 123.746591 56.982719 
L 123.746591 147.617857 
L 127.842323 139.715968 
L 131.938056 139.291855 
L 136.033788 143.551427 
L 140.12952 140.385414 
L 144.225253 137.206058 
L 148.320985 138.958624 
L 152.416717 136.898097 
L 156.512449 137.371575 
L 160.608182 141.776808 
L 164.703914 140.207889 
L 168.799646 141.97152 
L 172.895379 141.468691 
L 176.991111 138.066448 
L 181.086843 141.683023 
L 185.182576 141.372002 
L 189.278308 143.802803 
L 193.37404 141.48886 
L 197.469773 140.496543 
L 201.565505 139.755366 
L 205.661237 140.259608 
L 209.75697 137.844425 
L 213.852702 139.242177 
L 217.948434 138.992842 
L 222.044167 137.638254 
L 226.139899 137.111959 
L 230.235631 143.659496 
L 234.331364 142.783095 
L 238.427096 139.850014 
L 242.522828 140.069919 
L 246.618561 138.10357 
L 250.714293 140.426381 
L 254.810025 140.514986 
L 258.905758 139.601072 
L 263.00149 140.702713 
L 267.097222 142.861184 
L 271.192955 141.163085 
L 275.288687 148.998343 
L 279.384419 146.459316 
L 283.480152 141.321931 
L 287.575884 141.199971 
L 291.671616 142.219286 
L 295.767348 148.745554 
L 299.863081 147.705913 
L 303.958813 147.433818 
L 308.054545 138.606007 
L 312.150278 136.799446 
L 316.24601 139.229227 
L 320.341742 139.429825 
L 324.437475 139.300881 
L 328.533207 142.132093 
L 332.628939 142.513512 
L 336.724672 139.608056 
L 340.820404 137.782582 
L 344.916136 140.462796 
L 349.011869 140.139924 
L 353.107601 139.955807 
L 357.203333 138.369072 
L 361.299066 140.967509 
L 365.394798 149.62274 
L 369.49053 145.803291 
L 373.586263 137.180709 
L 377.681995 140.624311 
L 381.777727 143.794091 
L 385.87346 147.046278 
L 389.969192 145.356654 
L 394.064924 138.113694 
L 398.160657 139.315635 
L 402.256389 140.30034 
L 406.352121 140.238497 
L 410.447854 136.053246 
L 414.543586 138.063152 
L 418.639318 139.319088 
L 422.735051 143.619784 
L 426.830783 145.230064 
L 430.926515 140.779704 
L 435.022247 141.319733 
L 439.11798 141.036573 
L 443.213712 142.125658 
L 447.309444 142.928757 
L 451.405177 143.566417 
L 455.500909 144.218911 
L 459.596641 140.208752 
L 463.692374 141.525276 
L 467.788106 143.540047 
L 471.883838 141.464374 
L 475.979571 143.435981 
L 480.075303 150.660576 
L 484.171035 146.736041 
L 488.266768 136.778884 
L 492.3625 138.210854 
L 496.458232 137.275043 
L 500.553965 138.686294 
L 504.649697 138.621782 
L 508.745429 138.034585 
L 512.841162 139.764862 
L 516.936894 140.722962 
L 521.032626 140.521186 
L 525.128359 144.666568 
L 529.224091 139.946703 
L 533.319823 141.243293 
L 537.415556 143.26913 
L 541.511288 139.248612 
L 545.60702 148.259834 
L 549.702753 154.254313 
L 553.798485 149.296336 
L 557.894217 147.85644 
L 561.989949 146.730547 
L 566.085682 168.397505 
L 570.181414 165.128131 
L 574.277146 144.89644 
L 578.372879 143.480951 
L 582.468611 150.642997 
L 586.564343 144.227308 
L 590.660076 137.395826 
L 594.755808 152.554487 
L 598.85154 156.038193 
L 602.947273 161.003861 
L 607.043005 161.335994 
L 611.138737 163.256902 
L 615.23447 155.015268 
L 619.330202 140.066858 
L 623.425934 143.297069 
L 627.521667 143.38128 
L 631.617399 141.241723 
L 635.713131 142.187658 
L 639.808864 142.23404 
L 643.904596 142.215362 
L 648.000328 142.208926 
L 652.096061 142.246597 
L 656.191793 139.82906 
L 660.287525 140.108139 
L 664.383258 139.519765 
L 668.47899 139.635054 
L 672.574722 140.985168 
L 676.670455 140.043941 
L 680.766187 138.236596 
L 684.861919 138.564569 
L 688.957652 144.879488 
L 693.053384 145.405626 
L 697.149116 142.182792 
L 701.244848 141.904105 
L 705.340581 141.065062 
L 709.436313 139.963498 
L 713.532045 144.757449 
L 717.627778 152.473573 
L 721.72351 145.40076 
L 725.819242 144.977589 
L 729.914975 145.976028 
L 734.010707 152.909772 
L 738.106439 144.006776 
L 742.202172 138.895839 
L 746.297904 140.262904 
L 750.393636 139.374104 
L 754.489369 142.358198 
L 758.585101 141.939892 
L 762.680833 138.691159 
L 766.776566 146.682124 
L 770.872298 149.937136 
L 774.96803 140.283309 
L 779.063763 142.731298 
L 783.159495 140.815962 
L 787.255227 137.239805 
L 791.35096 138.523602 
L 795.446692 137.904777 
L 799.542424 141.789208 
L 803.638157 139.630737 
L 807.733889 140.179008 
L 811.829621 139.402435 
L 815.925354 150.584528 
L 820.021086 147.143751 
L 824.116818 141.292657 
L 828.212551 147.833366 
L 832.308283 153.578197 
L 836.404015 157.33282 
L 840.499747 153.291897 
L 844.59548 150.190552 
L 848.691212 148.326935 
L 852.786944 139.848994 
L 856.882677 138.998571 
L 860.978409 239.094078 
L 860.978409 150.315259 
L 860.978409 150.315259 
L 856.882677 42.378214 
L 852.786944 44.352176 
L 848.691212 58.194078 
L 844.59548 58.012315 
L 840.499747 65.566453 
L 836.404015 70.772745 
L 832.308283 62.37666 
L 828.212551 55.447704 
L 824.116818 45.860351 
L 820.021086 55.701826 
L 815.925354 58.742427 
L 811.829621 42.991467 
L 807.733889 45.086604 
L 803.638157 43.559515 
L 799.542424 45.248354 
L 795.446692 42.480946 
L 791.35096 42.221566 
L 787.255227 39.558146 
L 783.159495 46.416155 
L 779.063763 47.97291 
L 774.96803 43.72668 
L 770.872298 58.051163 
L 766.776566 55.345129 
L 762.680833 41.074954 
L 758.585101 47.70678 
L 754.489369 48.045191 
L 750.393636 42.500881 
L 746.297904 45.845989 
L 742.202172 41.208058 
L 738.106439 50.895553 
L 734.010707 63.812004 
L 729.914975 52.798568 
L 725.819242 50.576998 
L 721.72351 53.603864 
L 717.627778 63.421717 
L 713.532045 49.550384 
L 709.436313 44.333497 
L 705.340581 45.055996 
L 701.244848 47.008218 
L 697.149116 47.20811 
L 693.053384 54.360973 
L 688.957652 50.319893 
L 684.861919 41.176666 
L 680.766187 42.224548 
L 676.670455 43.682024 
L 672.574722 46.328492 
L 668.47899 43.21043 
L 664.383258 44.391966 
L 660.287525 43.890156 
L 656.191793 43.961888 
L 652.096061 46.895127 
L 648.000328 48.292957 
L 643.904596 47.559706 
L 639.808864 48.009953 
L 635.713131 46.229213 
L 631.617399 46.17302 
L 627.521667 50.597403 
L 623.425934 48.099814 
L 619.330202 43.531575 
L 615.23447 68.446167 
L 611.138737 78.676125 
L 607.043005 73.136052 
L 602.947273 77.064982 
L 598.85154 68.154531 
L 594.755808 60.974042 
L 590.660076 40.168417 
L 586.564343 53.22323 
L 582.468611 58.722022 
L 578.372879 47.372136 
L 574.277146 51.20116 
L 570.181414 86.469317 
L 566.085682 81.414572 
L 561.989949 53.708637 
L 557.894217 55.360589 
L 553.798485 57.986495 
L 549.702753 67.257254 
L 545.60702 53.587383 
L 541.511288 43.255792 
L 537.415556 48.828592 
L 533.319823 46.739891 
L 529.224091 43.688381 
L 525.128359 51.732085 
L 521.032626 44.109119 
L 516.936894 45.527512 
L 512.841162 43.754541 
L 508.745429 41.096223 
L 504.649697 42.155642 
L 500.553965 42.170004 
L 496.458232 40.660102 
L 492.3625 41.603683 
L 488.266768 40.160019 
L 484.171035 54.219864 
L 480.075303 61.343846 
L 475.979571 47.441513 
L 471.883838 46.752291 
L 467.788106 50.285989 
L 463.692374 47.027525 
L 459.596641 43.161379 
L 455.500909 51.410077 
L 451.405177 48.918531 
L 447.309444 48.457532 
L 443.213712 47.800173 
L 439.11798 45.081346 
L 435.022247 44.796851 
L 430.926515 46.529404 
L 426.830783 51.65949 
L 422.735051 48.818938 
L 418.639318 43.269762 
L 414.543586 41.463437 
L 410.447854 38.635285 
L 406.352121 44.205023 
L 402.256389 45.229832 
L 398.160657 42.591448 
L 394.064924 41.681536 
L 389.969192 53.529778 
L 385.87346 54.653316 
L 381.777727 50.201622 
L 377.681995 43.237742 
L 373.586263 39.869482 
L 369.49053 53.468955 
L 365.394798 58.73348 
L 361.299066 44.720253 
L 357.203333 42.691198 
L 353.107601 44.012195 
L 349.011869 44.74576 
L 344.916136 44.270163 
L 340.820404 40.870589 
L 336.724672 44.12356 
L 332.628939 48.472993 
L 328.533207 47.253394 
L 324.437475 42.369738 
L 320.341742 42.923267 
L 316.24601 43.6533 
L 312.150278 39.197132 
L 308.054545 42.281839 
L 303.958813 57.215338 
L 299.863081 56.004528 
L 295.767348 58.26165 
L 291.671616 45.837356 
L 287.575884 47.290358 
L 283.480152 45.299837 
L 279.384419 54.533083 
L 275.288687 57.068813 
L 271.192955 45.828173 
L 267.097222 49.523308 
L 263.00149 44.063522 
L 258.905758 44.233748 
L 254.810025 45.964574 
L 250.714293 44.054261 
L 246.618561 41.226658 
L 242.522828 44.993525 
L 238.427096 43.880896 
L 234.331364 51.140964 
L 230.235631 46.939782 
L 226.139899 40.809217 
L 222.044167 40.145579 
L 217.948434 43.008105 
L 213.852702 43.153924 
L 209.75697 40.668264 
L 205.661237 45.112973 
L 201.565505 44.187051 
L 197.469773 45.059685 
L 193.37404 47.087249 
L 189.278308 49.718491 
L 185.182576 45.211075 
L 181.086843 46.951712 
L 176.991111 42.247386 
L 172.895379 45.839396 
L 168.799646 46.799144 
L 164.703914 44.421004 
L 160.608182 46.680323 
L 156.512449 40.87051 
L 152.416717 39.229702 
L 148.320985 42.829168 
L 144.225253 40.383063 
L 140.12952 45.34465 
L 136.033788 50.406458 
L 131.938056 41.478897 
L 127.842323 43.055586 
L 123.746591 56.982719 
z
" clip-path="url(#pca26d220ef)" style="fill: #2ca02c"/>
   </g>
   <g id="matplotlib.axis_1">
    <g id="xtick_1">
     <g id="line2d_1">
      <path d="M 123.746591 331.64 
L 123.746591 23.76 
" clip-path="url(#pca26d220ef)" style="fill: none; stroke-dasharray: 5.12,1.28,0.8,1.28; stroke-dashoffset: 0; stroke: #b0b0b0; stroke-width: 0.8"/>
     </g>
     <g id="line2d_2">
      <defs>
       <path id="md423c7987f" d="M 0 0 
L 0 3.5 
" style="stroke: #000000; stroke-width: 0.8"/>
      </defs>
      <g>
       <use xlink:href="#md423c7987f" x="123.746591" y="331.64" style="stroke: #000000; stroke-width: 0.8"/>
      </g>
     </g>
     <g id="text_1">
      <!-- 0 -->
      <g transform="translate(116.747841 355.356563)scale(0.22 -0.22)">
       <defs>
        <path id="DejaVuSans-30" d="M 2034 4250 
Q 1547 4250 1301 3770 
Q 1056 3291 1056 2328 
Q 1056 1369 1301 889 
Q 1547 409 2034 409 
Q 2525 409 2770 889 
Q 3016 1369 3016 2328 
Q 3016 3291 2770 3770 
Q 2525 4250 2034 4250 
z
M 2034 4750 
Q 2819 4750 3233 4129 
Q 3647 3509 3647 2328 
Q 3647 1150 3233 529 
Q 2819 -91 2034 -91 
Q 1250 -91 836 529 
Q 422 1150 422 2328 
Q 422 3509 836 4129 
Q 1250 4750 2034 4750 
z
" transform="scale(0.015625)"/>
       </defs>
       <use xlink:href="#DejaVuSans-30"/>
      </g>
     </g>
    </g>
    <g id="xtick_2">
     <g id="line2d_3">
      <path d="M 226.139899 331.64 
L 226.139899 23.76 
" clip-path="url(#pca26d220ef)" style="fill: none; stroke-dasharray: 5.12,1.28,0.8,1.28; stroke-dashoffset: 0; stroke: #b0b0b0; stroke-width: 0.8"/>
     </g>
     <g id="line2d_4">
      <g>
       <use xlink:href="#md423c7987f" x="226.139899" y="331.64" style="stroke: #000000; stroke-width: 0.8"/>
      </g>
     </g>
     <g id="text_2">
      <!-- 25 -->
      <g transform="translate(212.142399 355.356563)scale(0.22 -0.22)">
       <defs>
        <path id="DejaVuSans-32" d="M 1228 531 
L 3431 531 
L 3431 0 
L 469 0 
L 469 531 
Q 828 903 1448 1529 
Q 2069 2156 2228 2338 
Q 2531 2678 2651 2914 
Q 2772 3150 2772 3378 
Q 2772 3750 2511 3984 
Q 2250 4219 1831 4219 
Q 1534 4219 1204 4116 
Q 875 4013 500 3803 
L 500 4441 
Q 881 4594 1212 4672 
Q 1544 4750 1819 4750 
Q 2544 4750 2975 4387 
Q 3406 4025 3406 3419 
Q 3406 3131 3298 2873 
Q 3191 2616 2906 2266 
Q 2828 2175 2409 1742 
Q 1991 1309 1228 531 
z
" transform="scale(0.015625)"/>
        <path id="DejaVuSans-35" d="M 691 4666 
L 3169 4666 
L 3169 4134 
L 1269 4134 
L 1269 2991 
Q 1406 3038 1543 3061 
Q 1681 3084 1819 3084 
Q 2600 3084 3056 2656 
Q 3513 2228 3513 1497 
Q 3513 744 3044 326 
Q 2575 -91 1722 -91 
Q 1428 -91 1123 -41 
Q 819 9 494 109 
L 494 744 
Q 775 591 1075 516 
Q 1375 441 1709 441 
Q 2250 441 2565 725 
Q 2881 1009 2881 1497 
Q 2881 1984 2565 2268 
Q 2250 2553 1709 2553 
Q 1456 2553 1204 2497 
Q 953 2441 691 2322 
L 691 4666 
z
" transform="scale(0.015625)"/>
       </defs>
       <use xlink:href="#DejaVuSans-32"/>
       <use xlink:href="#DejaVuSans-35" x="63.623047"/>
      </g>
     </g>
    </g>
    <g id="xtick_3">
     <g id="line2d_5">
      <path d="M 328.533207 331.64 
L 328.533207 23.76 
" clip-path="url(#pca26d220ef)" style="fill: none; stroke-dasharray: 5.12,1.28,0.8,1.28; stroke-dashoffset: 0; stroke: #b0b0b0; stroke-width: 0.8"/>
     </g>
     <g id="line2d_6">
      <g>
       <use xlink:href="#md423c7987f" x="328.533207" y="331.64" style="stroke: #000000; stroke-width: 0.8"/>
      </g>
     </g>
     <g id="text_3">
      <!-- 50 -->
      <g transform="translate(314.535707 355.356563)scale(0.22 -0.22)">
       <use xlink:href="#DejaVuSans-35"/>
       <use xlink:href="#DejaVuSans-30" x="63.623047"/>
      </g>
     </g>
    </g>
    <g id="xtick_4">
     <g id="line2d_7">
      <path d="M 430.926515 331.64 
L 430.926515 23.76 
" clip-path="url(#pca26d220ef)" style="fill: none; stroke-dasharray: 5.12,1.28,0.8,1.28; stroke-dashoffset: 0; stroke: #b0b0b0; stroke-width: 0.8"/>
     </g>
     <g id="line2d_8">
      <g>
       <use xlink:href="#md423c7987f" x="430.926515" y="331.64" style="stroke: #000000; stroke-width: 0.8"/>
      </g>
     </g>
     <g id="text_4">
      <!-- 75 -->
      <g transform="translate(416.929015 355.356563)scale(0.22 -0.22)">
       <defs>
        <path id="DejaVuSans-37" d="M 525 4666 
L 3525 4666 
L 3525 4397 
L 1831 0 
L 1172 0 
L 2766 4134 
L 525 4134 
L 525 4666 
z
" transform="scale(0.015625)"/>
       </defs>
       <use xlink:href="#DejaVuSans-37"/>
       <use xlink:href="#DejaVuSans-35" x="63.623047"/>
      </g>
     </g>
    </g>
    <g id="xtick_5">
     <g id="line2d_9">
      <path d="M 533.319823 331.64 
L 533.319823 23.76 
" clip-path="url(#pca26d220ef)" style="fill: none; stroke-dasharray: 5.12,1.28,0.8,1.28; stroke-dashoffset: 0; stroke: #b0b0b0; stroke-width: 0.8"/>
     </g>
     <g id="line2d_10">
      <g>
       <use xlink:href="#md423c7987f" x="533.319823" y="331.64" style="stroke: #000000; stroke-width: 0.8"/>
      </g>
     </g>
     <g id="text_5">
      <!-- 100 -->
      <g transform="translate(512.323573 355.356563)scale(0.22 -0.22)">
       <defs>
        <path id="DejaVuSans-31" d="M 794 531 
L 1825 531 
L 1825 4091 
L 703 3866 
L 703 4441 
L 1819 4666 
L 2450 4666 
L 2450 531 
L 3481 531 
L 3481 0 
L 794 0 
L 794 531 
z
" transform="scale(0.015625)"/>
       </defs>
       <use xlink:href="#DejaVuSans-31"/>
       <use xlink:href="#DejaVuSans-30" x="63.623047"/>
       <use xlink:href="#DejaVuSans-30" x="127.246094"/>
      </g>
     </g>
    </g>
    <g id="xtick_6">
     <g id="line2d_11">
      <path d="M 635.713131 331.64 
L 635.713131 23.76 
" clip-path="url(#pca26d220ef)" style="fill: none; stroke-dasharray: 5.12,1.28,0.8,1.28; stroke-dashoffset: 0; stroke: #b0b0b0; stroke-width: 0.8"/>
     </g>
     <g id="line2d_12">
      <g>
       <use xlink:href="#md423c7987f" x="635.713131" y="331.64" style="stroke: #000000; stroke-width: 0.8"/>
      </g>
     </g>
     <g id="text_6">
      <!-- 125 -->
      <g transform="translate(614.716881 355.356563)scale(0.22 -0.22)">
       <use xlink:href="#DejaVuSans-31"/>
       <use xlink:href="#DejaVuSans-32" x="63.623047"/>
       <use xlink:href="#DejaVuSans-35" x="127.246094"/>
      </g>
     </g>
    </g>
    <g id="xtick_7">
     <g id="line2d_13">
      <path d="M 738.106439 331.64 
L 738.106439 23.76 
" clip-path="url(#pca26d220ef)" style="fill: none; stroke-dasharray: 5.12,1.28,0.8,1.28; stroke-dashoffset: 0; stroke: #b0b0b0; stroke-width: 0.8"/>
     </g>
     <g id="line2d_14">
      <g>
       <use xlink:href="#md423c7987f" x="738.106439" y="331.64" style="stroke: #000000; stroke-width: 0.8"/>
      </g>
     </g>
     <g id="text_7">
      <!-- 150 -->
      <g transform="translate(717.110189 355.356563)scale(0.22 -0.22)">
       <use xlink:href="#DejaVuSans-31"/>
       <use xlink:href="#DejaVuSans-35" x="63.623047"/>
       <use xlink:href="#DejaVuSans-30" x="127.246094"/>
      </g>
     </g>
    </g>
    <g id="xtick_8">
     <g id="line2d_15">
      <path d="M 840.499747 331.64 
L 840.499747 23.76 
" clip-path="url(#pca26d220ef)" style="fill: none; stroke-dasharray: 5.12,1.28,0.8,1.28; stroke-dashoffset: 0; stroke: #b0b0b0; stroke-width: 0.8"/>
     </g>
     <g id="line2d_16">
      <g>
       <use xlink:href="#md423c7987f" x="840.499747" y="331.64" style="stroke: #000000; stroke-width: 0.8"/>
      </g>
     </g>
     <g id="text_8">
      <!-- 175 -->
      <g transform="translate(819.503497 355.356563)scale(0.22 -0.22)">
       <use xlink:href="#DejaVuSans-31"/>
       <use xlink:href="#DejaVuSans-37" x="63.623047"/>
       <use xlink:href="#DejaVuSans-35" x="127.246094"/>
      </g>
     </g>
    </g>
    <g id="text_9">
     <!-- Time (s) -->
     <g transform="translate(443.573125 382.168125)scale(0.24 -0.24)">
      <defs>
       <path id="DejaVuSans-54" d="M -19 4666 
L 3928 4666 
L 3928 4134 
L 2272 4134 
L 2272 0 
L 1638 0 
L 1638 4134 
L -19 4134 
L -19 4666 
z
" transform="scale(0.015625)"/>
       <path id="DejaVuSans-69" d="M 603 3500 
L 1178 3500 
L 1178 0 
L 603 0 
L 603 3500 
z
M 603 4863 
L 1178 4863 
L 1178 4134 
L 603 4134 
L 603 4863 
z
" transform="scale(0.015625)"/>
       <path id="DejaVuSans-6d" d="M 3328 2828 
Q 3544 3216 3844 3400 
Q 4144 3584 4550 3584 
Q 5097 3584 5394 3201 
Q 5691 2819 5691 2113 
L 5691 0 
L 5113 0 
L 5113 2094 
Q 5113 2597 4934 2840 
Q 4756 3084 4391 3084 
Q 3944 3084 3684 2787 
Q 3425 2491 3425 1978 
L 3425 0 
L 2847 0 
L 2847 2094 
Q 2847 2600 2669 2842 
Q 2491 3084 2119 3084 
Q 1678 3084 1418 2786 
Q 1159 2488 1159 1978 
L 1159 0 
L 581 0 
L 581 3500 
L 1159 3500 
L 1159 2956 
Q 1356 3278 1631 3431 
Q 1906 3584 2284 3584 
Q 2666 3584 2933 3390 
Q 3200 3197 3328 2828 
z
" transform="scale(0.015625)"/>
       <path id="DejaVuSans-65" d="M 3597 1894 
L 3597 1613 
L 953 1613 
Q 991 1019 1311 708 
Q 1631 397 2203 397 
Q 2534 397 2845 478 
Q 3156 559 3463 722 
L 3463 178 
Q 3153 47 2828 -22 
Q 2503 -91 2169 -91 
Q 1331 -91 842 396 
Q 353 884 353 1716 
Q 353 2575 817 3079 
Q 1281 3584 2069 3584 
Q 2775 3584 3186 3129 
Q 3597 2675 3597 1894 
z
M 3022 2063 
Q 3016 2534 2758 2815 
Q 2500 3097 2075 3097 
Q 1594 3097 1305 2825 
Q 1016 2553 972 2059 
L 3022 2063 
z
" transform="scale(0.015625)"/>
       <path id="DejaVuSans-20" transform="scale(0.015625)"/>
       <path id="DejaVuSans-28" d="M 1984 4856 
Q 1566 4138 1362 3434 
Q 1159 2731 1159 2009 
Q 1159 1288 1364 580 
Q 1569 -128 1984 -844 
L 1484 -844 
Q 1016 -109 783 600 
Q 550 1309 550 2009 
Q 550 2706 781 3412 
Q 1013 4119 1484 4856 
L 1984 4856 
z
" transform="scale(0.015625)"/>
       <path id="DejaVuSans-73" d="M 2834 3397 
L 2834 2853 
Q 2591 2978 2328 3040 
Q 2066 3103 1784 3103 
Q 1356 3103 1142 2972 
Q 928 2841 928 2578 
Q 928 2378 1081 2264 
Q 1234 2150 1697 2047 
L 1894 2003 
Q 2506 1872 2764 1633 
Q 3022 1394 3022 966 
Q 3022 478 2636 193 
Q 2250 -91 1575 -91 
Q 1294 -91 989 -36 
Q 684 19 347 128 
L 347 722 
Q 666 556 975 473 
Q 1284 391 1588 391 
Q 1994 391 2212 530 
Q 2431 669 2431 922 
Q 2431 1156 2273 1281 
Q 2116 1406 1581 1522 
L 1381 1569 
Q 847 1681 609 1914 
Q 372 2147 372 2553 
Q 372 3047 722 3315 
Q 1072 3584 1716 3584 
Q 2034 3584 2315 3537 
Q 2597 3491 2834 3397 
z
" transform="scale(0.015625)"/>
       <path id="DejaVuSans-29" d="M 513 4856 
L 1013 4856 
Q 1481 4119 1714 3412 
Q 1947 2706 1947 2009 
Q 1947 1309 1714 600 
Q 1481 -109 1013 -844 
L 513 -844 
Q 928 -128 1133 580 
Q 1338 1288 1338 2009 
Q 1338 2731 1133 3434 
Q 928 4138 513 4856 
z
" transform="scale(0.015625)"/>
      </defs>
      <use xlink:href="#DejaVuSans-54"/>
      <use xlink:href="#DejaVuSans-69" x="57.958984"/>
      <use xlink:href="#DejaVuSans-6d" x="85.742188"/>
      <use xlink:href="#DejaVuSans-65" x="183.154297"/>
      <use xlink:href="#DejaVuSans-20" x="244.677734"/>
      <use xlink:href="#DejaVuSans-28" x="276.464844"/>
      <use xlink:href="#DejaVuSans-73" x="315.478516"/>
      <use xlink:href="#DejaVuSans-29" x="367.578125"/>
     </g>
    </g>
   </g>
   <g id="matplotlib.axis_2">
    <g id="ytick_1">
     <g id="line2d_17">
      <path d="M 86.885 331.64 
L 897.84 331.64 
" clip-path="url(#pca26d220ef)" style="fill: none; stroke-dasharray: 5.12,1.28,0.8,1.28; stroke-dashoffset: 0; stroke: #b0b0b0; stroke-width: 0.8"/>
     </g>
     <g id="line2d_18">
      <defs>
       <path id="m0eb7c24c8c" d="M 0 0 
L -3.5 0 
" style="stroke: #000000; stroke-width: 0.8"/>
      </defs>
      <g>
       <use xlink:href="#m0eb7c24c8c" x="86.885" y="331.64" style="stroke: #000000; stroke-width: 0.8"/>
      </g>
     </g>
     <g id="text_10">
      <!-- 0 -->
      <g transform="translate(65.8875 339.998281)scale(0.22 -0.22)">
       <use xlink:href="#DejaVuSans-30"/>
      </g>
     </g>
    </g>
    <g id="ytick_2">
     <g id="line2d_19">
      <path d="M 86.885 233.538388 
L 897.84 233.538388 
" clip-path="url(#pca26d220ef)" style="fill: none; stroke-dasharray: 5.12,1.28,0.8,1.28; stroke-dashoffset: 0; stroke: #b0b0b0; stroke-width: 0.8"/>
     </g>
     <g id="line2d_20">
      <g>
       <use xlink:href="#m0eb7c24c8c" x="86.885" y="233.538388" style="stroke: #000000; stroke-width: 0.8"/>
      </g>
     </g>
     <g id="text_11">
      <!-- 10 -->
      <g transform="translate(51.89 241.896669)scale(0.22 -0.22)">
       <use xlink:href="#DejaVuSans-31"/>
       <use xlink:href="#DejaVuSans-30" x="63.623047"/>
      </g>
     </g>
    </g>
    <g id="ytick_3">
     <g id="line2d_21">
      <path d="M 86.885 135.436776 
L 897.84 135.436776 
" clip-path="url(#pca26d220ef)" style="fill: none; stroke-dasharray: 5.12,1.28,0.8,1.28; stroke-dashoffset: 0; stroke: #b0b0b0; stroke-width: 0.8"/>
     </g>
     <g id="line2d_22">
      <g>
       <use xlink:href="#m0eb7c24c8c" x="86.885" y="135.436776" style="stroke: #000000; stroke-width: 0.8"/>
      </g>
     </g>
     <g id="text_12">
      <!-- 20 -->
      <g transform="translate(51.89 143.795057)scale(0.22 -0.22)">
       <use xlink:href="#DejaVuSans-32"/>
       <use xlink:href="#DejaVuSans-30" x="63.623047"/>
      </g>
     </g>
    </g>
    <g id="ytick_4">
     <g id="line2d_23">
      <path d="M 86.885 37.335164 
L 897.84 37.335164 
" clip-path="url(#pca26d220ef)" style="fill: none; stroke-dasharray: 5.12,1.28,0.8,1.28; stroke-dashoffset: 0; stroke: #b0b0b0; stroke-width: 0.8"/>
     </g>
     <g id="line2d_24">
      <g>
       <use xlink:href="#m0eb7c24c8c" x="86.885" y="37.335164" style="stroke: #000000; stroke-width: 0.8"/>
      </g>
     </g>
     <g id="text_13">
      <!-- 30 -->
      <g transform="translate(51.89 45.693445)scale(0.22 -0.22)">
       <defs>
        <path id="DejaVuSans-33" d="M 2597 2516 
Q 3050 2419 3304 2112 
Q 3559 1806 3559 1356 
Q 3559 666 3084 287 
Q 2609 -91 1734 -91 
Q 1441 -91 1130 -33 
Q 819 25 488 141 
L 488 750 
Q 750 597 1062 519 
Q 1375 441 1716 441 
Q 2309 441 2620 675 
Q 2931 909 2931 1356 
Q 2931 1769 2642 2001 
Q 2353 2234 1838 2234 
L 1294 2234 
L 1294 2753 
L 1863 2753 
Q 2328 2753 2575 2939 
Q 2822 3125 2822 3475 
Q 2822 3834 2567 4026 
Q 2313 4219 1838 4219 
Q 1578 4219 1281 4162 
Q 984 4106 628 3988 
L 628 4550 
Q 988 4650 1302 4700 
Q 1616 4750 1894 4750 
Q 2613 4750 3031 4423 
Q 3450 4097 3450 3541 
Q 3450 3153 3228 2886 
Q 3006 2619 2597 2516 
z
" transform="scale(0.015625)"/>
       </defs>
       <use xlink:href="#DejaVuSans-33"/>
       <use xlink:href="#DejaVuSans-30" x="63.623047"/>
      </g>
     </g>
    </g>
    <g id="text_14">
     <!-- Throughput (Mbps) -->
     <g transform="translate(42.89875 292.414375)rotate(-90)scale(0.24 -0.24)">
      <defs>
       <path id="DejaVuSans-68" d="M 3513 2113 
L 3513 0 
L 2938 0 
L 2938 2094 
Q 2938 2591 2744 2837 
Q 2550 3084 2163 3084 
Q 1697 3084 1428 2787 
Q 1159 2491 1159 1978 
L 1159 0 
L 581 0 
L 581 4863 
L 1159 4863 
L 1159 2956 
Q 1366 3272 1645 3428 
Q 1925 3584 2291 3584 
Q 2894 3584 3203 3211 
Q 3513 2838 3513 2113 
z
" transform="scale(0.015625)"/>
       <path id="DejaVuSans-72" d="M 2631 2963 
Q 2534 3019 2420 3045 
Q 2306 3072 2169 3072 
Q 1681 3072 1420 2755 
Q 1159 2438 1159 1844 
L 1159 0 
L 581 0 
L 581 3500 
L 1159 3500 
L 1159 2956 
Q 1341 3275 1631 3429 
Q 1922 3584 2338 3584 
Q 2397 3584 2469 3576 
Q 2541 3569 2628 3553 
L 2631 2963 
z
" transform="scale(0.015625)"/>
       <path id="DejaVuSans-6f" d="M 1959 3097 
Q 1497 3097 1228 2736 
Q 959 2375 959 1747 
Q 959 1119 1226 758 
Q 1494 397 1959 397 
Q 2419 397 2687 759 
Q 2956 1122 2956 1747 
Q 2956 2369 2687 2733 
Q 2419 3097 1959 3097 
z
M 1959 3584 
Q 2709 3584 3137 3096 
Q 3566 2609 3566 1747 
Q 3566 888 3137 398 
Q 2709 -91 1959 -91 
Q 1206 -91 779 398 
Q 353 888 353 1747 
Q 353 2609 779 3096 
Q 1206 3584 1959 3584 
z
" transform="scale(0.015625)"/>
       <path id="DejaVuSans-75" d="M 544 1381 
L 544 3500 
L 1119 3500 
L 1119 1403 
Q 1119 906 1312 657 
Q 1506 409 1894 409 
Q 2359 409 2629 706 
Q 2900 1003 2900 1516 
L 2900 3500 
L 3475 3500 
L 3475 0 
L 2900 0 
L 2900 538 
Q 2691 219 2414 64 
Q 2138 -91 1772 -91 
Q 1169 -91 856 284 
Q 544 659 544 1381 
z
M 1991 3584 
L 1991 3584 
z
" transform="scale(0.015625)"/>
       <path id="DejaVuSans-67" d="M 2906 1791 
Q 2906 2416 2648 2759 
Q 2391 3103 1925 3103 
Q 1463 3103 1205 2759 
Q 947 2416 947 1791 
Q 947 1169 1205 825 
Q 1463 481 1925 481 
Q 2391 481 2648 825 
Q 2906 1169 2906 1791 
z
M 3481 434 
Q 3481 -459 3084 -895 
Q 2688 -1331 1869 -1331 
Q 1566 -1331 1297 -1286 
Q 1028 -1241 775 -1147 
L 775 -588 
Q 1028 -725 1275 -790 
Q 1522 -856 1778 -856 
Q 2344 -856 2625 -561 
Q 2906 -266 2906 331 
L 2906 616 
Q 2728 306 2450 153 
Q 2172 0 1784 0 
Q 1141 0 747 490 
Q 353 981 353 1791 
Q 353 2603 747 3093 
Q 1141 3584 1784 3584 
Q 2172 3584 2450 3431 
Q 2728 3278 2906 2969 
L 2906 3500 
L 3481 3500 
L 3481 434 
z
" transform="scale(0.015625)"/>
       <path id="DejaVuSans-70" d="M 1159 525 
L 1159 -1331 
L 581 -1331 
L 581 3500 
L 1159 3500 
L 1159 2969 
Q 1341 3281 1617 3432 
Q 1894 3584 2278 3584 
Q 2916 3584 3314 3078 
Q 3713 2572 3713 1747 
Q 3713 922 3314 415 
Q 2916 -91 2278 -91 
Q 1894 -91 1617 61 
Q 1341 213 1159 525 
z
M 3116 1747 
Q 3116 2381 2855 2742 
Q 2594 3103 2138 3103 
Q 1681 3103 1420 2742 
Q 1159 2381 1159 1747 
Q 1159 1113 1420 752 
Q 1681 391 2138 391 
Q 2594 391 2855 752 
Q 3116 1113 3116 1747 
z
" transform="scale(0.015625)"/>
       <path id="DejaVuSans-74" d="M 1172 4494 
L 1172 3500 
L 2356 3500 
L 2356 3053 
L 1172 3053 
L 1172 1153 
Q 1172 725 1289 603 
Q 1406 481 1766 481 
L 2356 481 
L 2356 0 
L 1766 0 
Q 1100 0 847 248 
Q 594 497 594 1153 
L 594 3053 
L 172 3053 
L 172 3500 
L 594 3500 
L 594 4494 
L 1172 4494 
z
" transform="scale(0.015625)"/>
       <path id="DejaVuSans-4d" d="M 628 4666 
L 1569 4666 
L 2759 1491 
L 3956 4666 
L 4897 4666 
L 4897 0 
L 4281 0 
L 4281 4097 
L 3078 897 
L 2444 897 
L 1241 4097 
L 1241 0 
L 628 0 
L 628 4666 
z
" transform="scale(0.015625)"/>
       <path id="DejaVuSans-62" d="M 3116 1747 
Q 3116 2381 2855 2742 
Q 2594 3103 2138 3103 
Q 1681 3103 1420 2742 
Q 1159 2381 1159 1747 
Q 1159 1113 1420 752 
Q 1681 391 2138 391 
Q 2594 391 2855 752 
Q 3116 1113 3116 1747 
z
M 1159 2969 
Q 1341 3281 1617 3432 
Q 1894 3584 2278 3584 
Q 2916 3584 3314 3078 
Q 3713 2572 3713 1747 
Q 3713 922 3314 415 
Q 2916 -91 2278 -91 
Q 1894 -91 1617 61 
Q 1341 213 1159 525 
L 1159 0 
L 581 0 
L 581 4863 
L 1159 4863 
L 1159 2969 
z
" transform="scale(0.015625)"/>
      </defs>
      <use xlink:href="#DejaVuSans-54"/>
      <use xlink:href="#DejaVuSans-68" x="61.083984"/>
      <use xlink:href="#DejaVuSans-72" x="124.462891"/>
      <use xlink:href="#DejaVuSans-6f" x="163.326172"/>
      <use xlink:href="#DejaVuSans-75" x="224.507812"/>
      <use xlink:href="#DejaVuSans-67" x="287.886719"/>
      <use xlink:href="#DejaVuSans-68" x="351.363281"/>
      <use xlink:href="#DejaVuSans-70" x="414.742188"/>
      <use xlink:href="#DejaVuSans-75" x="478.21875"/>
      <use xlink:href="#DejaVuSans-74" x="541.597656"/>
      <use xlink:href="#DejaVuSans-20" x="580.806641"/>
      <use xlink:href="#DejaVuSans-28" x="612.59375"/>
      <use xlink:href="#DejaVuSans-4d" x="651.607422"/>
      <use xlink:href="#DejaVuSans-62" x="737.886719"/>
      <use xlink:href="#DejaVuSans-70" x="801.363281"/>
      <use xlink:href="#DejaVuSans-73" x="864.839844"/>
      <use xlink:href="#DejaVuSans-29" x="916.939453"/>
     </g>
    </g>
   </g>
   <g id="patch_3">
    <path d="M 86.885 331.64 
L 86.885 23.76 
" style="fill: none; stroke: #000000; stroke-width: 0.8; stroke-linejoin: miter; stroke-linecap: square"/>
   </g>
   <g id="patch_4">
    <path d="M 897.84 331.64 
L 897.84 23.76 
" style="fill: none; stroke: #000000; stroke-width: 0.8; stroke-linejoin: miter; stroke-linecap: square"/>
   </g>
   <g id="patch_5">
    <path d="M 86.885 331.64 
L 897.84 331.64 
" style="fill: none; stroke: #000000; stroke-width: 0.8; stroke-linejoin: miter; stroke-linecap: square"/>
   </g>
   <g id="patch_6">
    <path d="M 86.885 23.76 
L 897.84 23.76 
" style="fill: none; stroke: #000000; stroke-width: 0.8; stroke-linejoin: miter; stroke-linecap: square"/>
   </g>
   <g id="legend_1">
    <g id="patch_7">
     <path d="M 756.24 148.6425 
L 881.04 148.6425 
Q 885.84 148.6425 885.84 143.8425 
L 885.84 40.56 
Q 885.84 35.76 881.04 35.76 
L 756.24 35.76 
Q 751.44 35.76 751.44 40.56 
L 751.44 143.8425 
Q 751.44 148.6425 756.24 148.6425 
z
" style="fill: #ffffff; opacity: 0.8; stroke: #cccccc; stroke-linejoin: miter"/>
    </g>
    <g id="patch_8">
     <path d="M 761.04 63.59625 
L 809.04 63.59625 
L 809.04 46.79625 
L 761.04 46.79625 
z
" style="fill: #1f77b4"/>
    </g>
    <g id="text_15">
     <!-- UE1 -->
     <g transform="translate(828.24 63.59625)scale(0.24 -0.24)">
      <defs>
       <path id="DejaVuSans-55" d="M 556 4666 
L 1191 4666 
L 1191 1831 
Q 1191 1081 1462 751 
Q 1734 422 2344 422 
Q 2950 422 3222 751 
Q 3494 1081 3494 1831 
L 3494 4666 
L 4128 4666 
L 4128 1753 
Q 4128 841 3676 375 
Q 3225 -91 2344 -91 
Q 1459 -91 1007 375 
Q 556 841 556 1753 
L 556 4666 
z
" transform="scale(0.015625)"/>
       <path id="DejaVuSans-45" d="M 628 4666 
L 3578 4666 
L 3578 4134 
L 1259 4134 
L 1259 2753 
L 3481 2753 
L 3481 2222 
L 1259 2222 
L 1259 531 
L 3634 531 
L 3634 0 
L 628 0 
L 628 4666 
z
" transform="scale(0.015625)"/>
      </defs>
      <use xlink:href="#DejaVuSans-55"/>
      <use xlink:href="#DejaVuSans-45" x="73.193359"/>
      <use xlink:href="#DejaVuSans-31" x="136.376953"/>
     </g>
    </g>
    <g id="patch_9">
     <path d="M 761.04 98.82375 
L 809.04 98.82375 
L 809.04 82.02375 
L 761.04 82.02375 
z
" style="fill: #ff7f0e"/>
    </g>
    <g id="text_16">
     <!-- UE2 -->
     <g transform="translate(828.24 98.82375)scale(0.24 -0.24)">
      <use xlink:href="#DejaVuSans-55"/>
      <use xlink:href="#DejaVuSans-45" x="73.193359"/>
      <use xlink:href="#DejaVuSans-32" x="136.376953"/>
     </g>
    </g>
    <g id="patch_10">
     <path d="M 761.04 134.05125 
L 809.04 134.05125 
L 809.04 117.25125 
L 761.04 117.25125 
z
" style="fill: #2ca02c"/>
    </g>
    <g id="text_17">
     <!-- UE3 -->
     <g transform="translate(828.24 134.05125)scale(0.24 -0.24)">
      <use xlink:href="#DejaVuSans-55"/>
      <use xlink:href="#DejaVuSans-45" x="73.193359"/>
      <use xlink:href="#DejaVuSans-33" x="136.376953"/>
     </g>
    </g>
   </g>
  </g>
 </g>
 <defs>
  <clipPath id="pca26d220ef">
   <rect x="86.885" y="23.76" width="810.955" height="307.88"/>
  </clipPath>
 </defs>
</svg>
