<?xml version="1.0" encoding="utf-8" standalone="no"?>
<!DOCTYPE svg PUBLIC "-//W3C//DTD SVG 1.1//EN"
  "http://www.w3.org/Graphics/SVG/1.1/DTD/svg11.dtd">
<svg xmlns:xlink="http://www.w3.org/1999/xlink" width="921.6pt" height="410.4pt" viewBox="0 0 921.6 410.4" xmlns="http://www.w3.org/2000/svg" version="1.1">
 <metadata>
  <rdf:RDF xmlns:dc="http://purl.org/dc/elements/1.1/" xmlns:cc="http://creativecommons.org/ns#" xmlns:rdf="http://www.w3.org/1999/02/22-rdf-syntax-ns#">
   <cc:Work>
    <dc:type rdf:resource="http://purl.org/dc/dcmitype/StillImage"/>
    <dc:date>2023-04-11T15:18:58.297846</dc:date>
    <dc:format>image/svg+xml</dc:format>
    <dc:creator>
     <cc:Agent>
      <dc:title>Matplotlib v3.5.3, https://matplotlib.org/</dc:title>
     </cc:Agent>
    </dc:creator>
   </cc:Work>
  </rdf:RDF>
 </metadata>
 <defs>
  <style type="text/css">*{stroke-linejoin: round; stroke-linecap: butt}</style>
 </defs>
 <g id="figure_1">
  <g id="patch_1">
   <path d="M 0 410.4 
L 921.6 410.4 
L 921.6 0 
L 0 0 
L 0 410.4 
z
" style="fill: none"/>
  </g>
  <g id="axes_1">
   <g id="patch_2">
    <path d="M 101.01 331.64 
L 897.84 331.64 
L 897.84 28.920907 
L 101.01 28.920907 
z
" style="fill: #ffffff"/>
   </g>
   <g id="PolyCollection_1">
    <path d="M 137.229545 271.582381 
L 137.229545 331.64 
L 141.145172 331.64 
L 145.060799 331.64 
L 148.976425 331.64 
L 152.892052 331.64 
L 156.807678 331.64 
L 160.723305 331.64 
L 164.638931 331.64 
L 168.554558 331.64 
L 172.470184 331.64 
L 176.385811 331.64 
L 180.301437 331.64 
L 184.217064 331.64 
L 188.13269 331.64 
L 192.048317 331.64 
L 195.963943 331.64 
L 199.87957 331.64 
L 203.795197 331.64 
L 207.710823 331.64 
L 211.62645 331.64 
L 215.542076 331.64 
L 219.457703 331.64 
L 223.373329 331.64 
L 227.288956 331.64 
L 231.204582 331.64 
L 235.120209 331.64 
L 239.035835 331.64 
L 242.951462 331.64 
L 246.867088 331.64 
L 250.782715 331.64 
L 254.698342 331.64 
L 258.613968 331.64 
L 262.529595 331.64 
L 266.445221 331.64 
L 270.360848 331.64 
L 274.276474 331.64 
L 278.192101 331.64 
L 282.107727 331.64 
L 286.023354 331.64 
L 289.93898 331.64 
L 293.854607 331.64 
L 297.770233 331.64 
L 301.68586 331.64 
L 305.601486 331.64 
L 309.517113 331.64 
L 313.43274 331.64 
L 317.348366 331.64 
L 321.263993 331.64 
L 325.179619 331.64 
L 329.095246 331.64 
L 333.010872 331.64 
L 336.926499 331.64 
L 340.842125 331.64 
L 344.757752 331.64 
L 348.673378 331.64 
L 352.589005 331.64 
L 356.504631 331.64 
L 360.420258 331.64 
L 364.335885 331.64 
L 368.251511 331.64 
L 372.167138 331.64 
L 376.082764 331.64 
L 379.998391 331.64 
L 383.914017 331.64 
L 387.829644 331.64 
L 391.74527 331.64 
L 395.660897 331.64 
L 399.576523 331.64 
L 403.49215 331.64 
L 407.407776 331.64 
L 411.323403 331.64 
L 415.239029 331.64 
L 419.154656 331.64 
L 423.070283 331.64 
L 426.985909 331.64 
L 430.901536 331.64 
L 434.817162 331.64 
L 438.732789 331.64 
L 442.648415 331.64 
L 446.564042 331.64 
L 450.479668 331.64 
L 454.395295 331.64 
L 458.310921 331.64 
L 462.226548 331.64 
L 466.142174 331.64 
L 470.057801 331.64 
L 473.973428 331.64 
L 477.889054 331.64 
L 481.804681 331.64 
L 485.720307 331.64 
L 489.635934 331.64 
L 493.55156 331.64 
L 497.467187 331.64 
L 501.382813 331.64 
L 505.29844 331.64 
L 509.214066 331.64 
L 513.129693 331.64 
L 517.045319 331.64 
L 520.960946 331.64 
L 524.876572 331.64 
L 528.792199 331.64 
L 532.707826 331.64 
L 536.623452 331.64 
L 540.539079 331.64 
L 544.454705 331.64 
L 548.370332 331.64 
L 552.285958 331.64 
L 556.201585 331.64 
L 560.117211 331.64 
L 564.032838 331.64 
L 567.948464 331.64 
L 571.864091 331.64 
L 575.779717 331.64 
L 579.695344 331.64 
L 583.610971 331.64 
L 587.526597 331.64 
L 591.442224 331.64 
L 595.35785 331.64 
L 599.273477 331.64 
L 603.189103 331.64 
L 607.10473 331.64 
L 611.020356 331.64 
L 614.935983 331.64 
L 618.851609 331.64 
L 622.767236 331.64 
L 626.682862 331.64 
L 630.598489 331.64 
L 634.514115 331.64 
L 638.429742 331.64 
L 642.345369 331.64 
L 646.260995 331.64 
L 650.176622 331.64 
L 654.092248 331.64 
L 658.007875 331.64 
L 661.923501 331.64 
L 665.839128 331.64 
L 669.754754 331.64 
L 673.670381 331.64 
L 677.586007 331.64 
L 681.501634 331.64 
L 685.41726 331.64 
L 689.332887 331.64 
L 693.248514 331.64 
L 697.16414 331.64 
L 701.079767 331.64 
L 704.995393 331.64 
L 708.91102 331.64 
L 712.826646 331.64 
L 716.742273 331.64 
L 720.657899 331.64 
L 724.573526 331.64 
L 728.489152 331.64 
L 732.404779 331.64 
L 736.320405 331.64 
L 740.236032 331.64 
L 744.151658 331.64 
L 748.067285 331.64 
L 751.982912 331.64 
L 755.898538 331.64 
L 759.814165 331.64 
L 763.729791 331.64 
L 767.645418 331.64 
L 771.561044 331.64 
L 775.476671 331.64 
L 779.392297 331.64 
L 783.307924 331.64 
L 787.22355 331.64 
L 791.139177 331.64 
L 795.054803 331.64 
L 798.97043 331.64 
L 802.886057 331.64 
L 806.801683 331.64 
L 810.71731 331.64 
L 814.632936 331.64 
L 818.548563 331.64 
L 822.464189 331.64 
L 826.379816 331.64 
L 830.295442 331.64 
L 834.211069 331.64 
L 838.126695 331.64 
L 842.042322 331.64 
L 845.957948 331.64 
L 849.873575 331.64 
L 853.789201 331.64 
L 857.704828 331.64 
L 861.620455 331.64 
L 861.620455 216.596018 
L 861.620455 216.596018 
L 857.704828 216.411872 
L 853.789201 216.506495 
L 849.873575 216.371379 
L 845.957948 216.492377 
L 842.042322 217.086389 
L 838.126695 216.414651 
L 834.211069 216.479979 
L 830.295442 216.521412 
L 826.379816 216.579781 
L 822.464189 216.653128 
L 818.548563 216.2548 
L 814.632936 216.909641 
L 810.71731 216.575422 
L 806.801683 216.568163 
L 802.886057 216.429729 
L 798.97043 216.463482 
L 795.054803 216.383697 
L 791.139177 217.249299 
L 787.22355 216.633851 
L 783.307924 217.295071 
L 779.392297 216.335606 
L 775.476671 216.548347 
L 771.561044 215.949516 
L 767.645418 216.616735 
L 763.729791 216.061076 
L 759.814165 216.891884 
L 755.898538 216.31275 
L 751.982912 216.688761 
L 748.067285 216.36912 
L 744.151658 216.334826 
L 740.236032 216.538889 
L 736.320405 216.063375 
L 732.404779 216.378058 
L 728.489152 216.360441 
L 724.573526 216.251201 
L 720.657899 216.896964 
L 716.742273 216.58528 
L 712.826646 216.058076 
L 708.91102 216.97333 
L 704.995393 216.020083 
L 701.079767 216.285535 
L 697.16414 216.768707 
L 693.248514 216.359981 
L 689.332887 216.337505 
L 685.41726 216.857031 
L 681.501634 215.992468 
L 677.586007 216.394555 
L 673.670381 216.348503 
L 669.754754 216.428229 
L 665.839128 216.796262 
L 661.923501 216.456284 
L 658.007875 216.321048 
L 654.092248 216.31021 
L 650.176622 216.437587 
L 646.260995 216.407533 
L 642.345369 216.484839 
L 638.429742 216.52937 
L 634.514115 216.36498 
L 630.598489 216.998465 
L 626.682862 216.232705 
L 622.767236 216.905102 
L 618.851609 216.320329 
L 614.935983 216.080352 
L 611.020356 216.880726 
L 607.10473 216.082012 
L 603.189103 216.274337 
L 599.273477 216.997685 
L 595.35785 216.549267 
L 591.442224 216.112426 
L 587.526597 216.460863 
L 583.610971 216.582601 
L 579.695344 216.065315 
L 575.779717 216.451725 
L 571.864091 216.47836 
L 567.948464 216.448325 
L 564.032838 218.098225 
L 560.117211 216.287035 
L 556.201585 216.521712 
L 552.285958 216.636751 
L 548.370332 216.055477 
L 544.454705 216.442486 
L 540.539079 216.794262 
L 536.623452 215.880049 
L 532.707826 217.067312 
L 528.792199 216.193392 
L 524.876572 216.770367 
L 520.960946 216.068954 
L 517.045319 216.544828 
L 513.129693 216.355922 
L 509.214066 216.507874 
L 505.29844 216.901303 
L 501.382813 216.278036 
L 497.467187 216.570763 
L 493.55156 216.47618 
L 489.635934 216.03988 
L 485.720307 216.415471 
L 481.804681 216.620534 
L 477.889054 216.102328 
L 473.973428 216.542348 
L 470.057801 217.068532 
L 466.142174 216.433068 
L 462.226548 216.03938 
L 458.310921 216.501276 
L 454.395295 216.828016 
L 450.479668 216.042239 
L 446.564042 216.620614 
L 442.648415 216.427249 
L 438.732789 216.64181 
L 434.817162 216.291214 
L 430.901536 216.004986 
L 426.985909 216.466842 
L 423.070283 216.36578 
L 419.154656 216.42367 
L 415.239029 216.717736 
L 411.323403 216.028022 
L 407.407776 216.702659 
L 403.49215 216.333746 
L 399.576523 216.31145 
L 395.660897 216.567084 
L 391.74527 217.02856 
L 387.829644 216.316789 
L 383.914017 216.089231 
L 379.998391 216.662006 
L 376.082764 216.796962 
L 372.167138 216.692321 
L 368.251511 217.047696 
L 364.335885 216.071054 
L 360.420258 216.921239 
L 356.504631 216.051538 
L 352.589005 216.340125 
L 348.673378 216.727234 
L 344.757752 216.53267 
L 340.842125 216.850092 
L 336.926499 216.078353 
L 333.010872 216.490378 
L 329.095246 216.355402 
L 325.179619 216.892064 
L 321.263993 216.290934 
L 317.348366 216.701259 
L 313.43274 216.181234 
L 309.517113 216.448365 
L 305.601486 216.430049 
L 301.68586 216.378238 
L 297.770233 216.340305 
L 293.854607 216.824817 
L 289.93898 215.968573 
L 286.023354 216.510334 
L 282.107727 216.819118 
L 278.192101 216.273017 
L 274.276474 216.519912 
L 270.360848 216.42135 
L 266.445221 216.418911 
L 262.529595 216.789583 
L 258.613968 216.361381 
L 254.698342 216.337525 
L 250.782715 216.596318 
L 246.867088 216.385877 
L 242.951462 215.997747 
L 239.035835 216.484619 
L 235.120209 216.637551 
L 231.204582 216.488738 
L 227.288956 216.626453 
L 223.373329 216.464262 
L 219.457703 216.175355 
L 215.542076 216.482739 
L 211.62645 216.776225 
L 207.710823 216.472681 
L 203.795197 216.071974 
L 199.87957 216.334366 
L 195.963943 216.523971 
L 192.048317 216.25992 
L 188.13269 217.150917 
L 184.217064 216.050098 
L 180.301437 216.827496 
L 176.385811 216.399434 
L 172.470184 216.044259 
L 168.554558 216.281876 
L 164.638931 216.605797 
L 160.723305 240.930765 
L 156.807678 272.005244 
L 152.892052 271.786384 
L 148.976425 271.503875 
L 145.060799 271.649969 
L 141.145172 271.887585 
L 137.229545 271.582381 
z
" clip-path="url(#pf78e22bb88)" style="fill: #1f77b4"/>
   </g>
   <g id="PolyCollection_2">
    <path d="M 137.229545 152.165076 
L 137.229545 271.582381 
L 141.145172 271.887585 
L 145.060799 271.649969 
L 148.976425 271.503875 
L 152.892052 271.786384 
L 156.807678 272.005244 
L 160.723305 240.930765 
L 164.638931 216.605797 
L 168.554558 216.281876 
L 172.470184 216.044259 
L 176.385811 216.399434 
L 180.301437 216.827496 
L 184.217064 216.050098 
L 188.13269 217.150917 
L 192.048317 216.25992 
L 195.963943 216.523971 
L 199.87957 216.334366 
L 203.795197 216.071974 
L 207.710823 216.472681 
L 211.62645 216.776225 
L 215.542076 216.482739 
L 219.457703 216.175355 
L 223.373329 216.464262 
L 227.288956 216.626453 
L 231.204582 216.488738 
L 235.120209 216.637551 
L 239.035835 216.484619 
L 242.951462 215.997747 
L 246.867088 216.385877 
L 250.782715 216.596318 
L 254.698342 216.337525 
L 258.613968 216.361381 
L 262.529595 216.789583 
L 266.445221 216.418911 
L 270.360848 216.42135 
L 274.276474 216.519912 
L 278.192101 216.273017 
L 282.107727 216.819118 
L 286.023354 216.510334 
L 289.93898 215.968573 
L 293.854607 216.824817 
L 297.770233 216.340305 
L 301.68586 216.378238 
L 305.601486 216.430049 
L 309.517113 216.448365 
L 313.43274 216.181234 
L 317.348366 216.701259 
L 321.263993 216.290934 
L 325.179619 216.892064 
L 329.095246 216.355402 
L 333.010872 216.490378 
L 336.926499 216.078353 
L 340.842125 216.850092 
L 344.757752 216.53267 
L 348.673378 216.727234 
L 352.589005 216.340125 
L 356.504631 216.051538 
L 360.420258 216.921239 
L 364.335885 216.071054 
L 368.251511 217.047696 
L 372.167138 216.692321 
L 376.082764 216.796962 
L 379.998391 216.662006 
L 383.914017 216.089231 
L 387.829644 216.316789 
L 391.74527 217.02856 
L 395.660897 216.567084 
L 399.576523 216.31145 
L 403.49215 216.333746 
L 407.407776 216.702659 
L 411.323403 216.028022 
L 415.239029 216.717736 
L 419.154656 216.42367 
L 423.070283 216.36578 
L 426.985909 216.466842 
L 430.901536 216.004986 
L 434.817162 216.291214 
L 438.732789 216.64181 
L 442.648415 216.427249 
L 446.564042 216.620614 
L 450.479668 216.042239 
L 454.395295 216.828016 
L 458.310921 216.501276 
L 462.226548 216.03938 
L 466.142174 216.433068 
L 470.057801 217.068532 
L 473.973428 216.542348 
L 477.889054 216.102328 
L 481.804681 216.620534 
L 485.720307 216.415471 
L 489.635934 216.03988 
L 493.55156 216.47618 
L 497.467187 216.570763 
L 501.382813 216.278036 
L 505.29844 216.901303 
L 509.214066 216.507874 
L 513.129693 216.355922 
L 517.045319 216.544828 
L 520.960946 216.068954 
L 524.876572 216.770367 
L 528.792199 216.193392 
L 532.707826 217.067312 
L 536.623452 215.880049 
L 540.539079 216.794262 
L 544.454705 216.442486 
L 548.370332 216.055477 
L 552.285958 216.636751 
L 556.201585 216.521712 
L 560.117211 216.287035 
L 564.032838 218.098225 
L 567.948464 216.448325 
L 571.864091 216.47836 
L 575.779717 216.451725 
L 579.695344 216.065315 
L 583.610971 216.582601 
L 587.526597 216.460863 
L 591.442224 216.112426 
L 595.35785 216.549267 
L 599.273477 216.997685 
L 603.189103 216.274337 
L 607.10473 216.082012 
L 611.020356 216.880726 
L 614.935983 216.080352 
L 618.851609 216.320329 
L 622.767236 216.905102 
L 626.682862 216.232705 
L 630.598489 216.998465 
L 634.514115 216.36498 
L 638.429742 216.52937 
L 642.345369 216.484839 
L 646.260995 216.407533 
L 650.176622 216.437587 
L 654.092248 216.31021 
L 658.007875 216.321048 
L 661.923501 216.456284 
L 665.839128 216.796262 
L 669.754754 216.428229 
L 673.670381 216.348503 
L 677.586007 216.394555 
L 681.501634 215.992468 
L 685.41726 216.857031 
L 689.332887 216.337505 
L 693.248514 216.359981 
L 697.16414 216.768707 
L 701.079767 216.285535 
L 704.995393 216.020083 
L 708.91102 216.97333 
L 712.826646 216.058076 
L 716.742273 216.58528 
L 720.657899 216.896964 
L 724.573526 216.251201 
L 728.489152 216.360441 
L 732.404779 216.378058 
L 736.320405 216.063375 
L 740.236032 216.538889 
L 744.151658 216.334826 
L 748.067285 216.36912 
L 751.982912 216.688761 
L 755.898538 216.31275 
L 759.814165 216.891884 
L 763.729791 216.061076 
L 767.645418 216.616735 
L 771.561044 215.949516 
L 775.476671 216.548347 
L 779.392297 216.335606 
L 783.307924 217.295071 
L 787.22355 216.633851 
L 791.139177 217.249299 
L 795.054803 216.383697 
L 798.97043 216.463482 
L 802.886057 216.429729 
L 806.801683 216.568163 
L 810.71731 216.575422 
L 814.632936 216.909641 
L 818.548563 216.2548 
L 822.464189 216.653128 
L 826.379816 216.579781 
L 830.295442 216.521412 
L 834.211069 216.479979 
L 838.126695 216.414651 
L 842.042322 217.086389 
L 845.957948 216.492377 
L 849.873575 216.371379 
L 853.789201 216.506495 
L 857.704828 216.411872 
L 861.620455 216.596018 
L 861.620455 101.295303 
L 861.620455 101.295303 
L 857.704828 101.412542 
L 853.789201 102.048926 
L 849.873575 101.198961 
L 845.957948 101.7536 
L 842.042322 102.695528 
L 838.126695 101.348334 
L 834.211069 101.582411 
L 830.295442 101.777196 
L 826.379816 101.510784 
L 822.464189 102.219615 
L 818.548563 101.336316 
L 814.632936 102.123812 
L 810.71731 101.549417 
L 806.801683 101.653358 
L 802.886057 101.872258 
L 798.97043 101.232915 
L 795.054803 101.221517 
L 791.139177 102.963739 
L 787.22355 102.427777 
L 783.307924 102.600486 
L 779.392297 101.386427 
L 775.476671 101.690471 
L 771.561044 100.71299 
L 767.645418 101.737883 
L 763.729791 100.995738 
L 759.814165 101.922609 
L 755.898538 102.036428 
L 751.982912 101.380388 
L 748.067285 101.384827 
L 744.151658 101.237894 
L 740.236032 101.834505 
L 736.320405 100.841546 
L 732.404779 101.668675 
L 728.489152 101.323978 
L 724.573526 101.102519 
L 720.657899 102.095378 
L 716.742273 101.616905 
L 712.826646 100.862182 
L 708.91102 102.229913 
L 704.995393 101.003537 
L 701.079767 101.280966 
L 697.16414 102.050126 
L 693.248514 101.287505 
L 689.332887 101.377828 
L 685.41726 101.837885 
L 681.501634 101.173926 
L 677.586007 101.396285 
L 673.670381 101.223177 
L 669.754754 101.605647 
L 665.839128 102.19314 
L 661.923501 101.53232 
L 658.007875 101.466092 
L 654.092248 101.435378 
L 650.176622 101.398505 
L 646.260995 101.47803 
L 642.345369 101.552337 
L 638.429742 101.656818 
L 634.514115 101.902213 
L 630.598489 101.949584 
L 626.682862 101.457094 
L 622.767236 101.991337 
L 618.851609 101.209899 
L 614.935983 101.490908 
L 611.020356 101.685692 
L 607.10473 101.134993 
L 603.189103 101.832006 
L 599.273477 102.020271 
L 595.35785 101.555616 
L 591.442224 101.084042 
L 587.526597 101.510264 
L 583.610971 101.547517 
L 579.695344 101.141951 
L 575.779717 101.376229 
L 571.864091 101.953803 
L 567.948464 101.412882 
L 564.032838 104.705822 
L 560.117211 101.276147 
L 556.201585 101.499846 
L 552.285958 101.725365 
L 548.370332 101.005836 
L 544.454705 101.486889 
L 540.539079 101.952044 
L 536.623452 101.053088 
L 532.707826 102.229073 
L 528.792199 101.162308 
L 524.876572 101.786394 
L 520.960946 101.171846 
L 517.045319 101.858541 
L 513.129693 101.255811 
L 509.214066 101.565434 
L 505.29844 101.914531 
L 501.382813 101.470432 
L 497.467187 101.612986 
L 493.55156 101.383307 
L 489.635934 101.331897 
L 485.720307 101.417621 
L 481.804681 101.778935 
L 477.889054 101.031491 
L 473.973428 102.02813 
L 470.057801 102.234772 
L 466.142174 101.516023 
L 462.226548 101.170806 
L 458.310921 101.802911 
L 454.395295 101.507945 
L 450.479668 100.994918 
L 446.564042 102.040688 
L 442.648415 101.291684 
L 438.732789 101.837685 
L 434.817162 101.540339 
L 430.901536 100.981381 
L 426.985909 101.47907 
L 423.070283 101.42564 
L 419.154656 101.306221 
L 415.239029 101.849882 
L 411.323403 101.188243 
L 407.407776 101.821688 
L 403.49215 101.377888 
L 399.576523 101.295443 
L 395.660897 101.827466 
L 391.74527 102.516341 
L 387.829644 101.307601 
L 383.914017 101.254831 
L 379.998391 102.066403 
L 376.082764 101.994816 
L 372.167138 101.86162 
L 368.251511 102.287703 
L 364.335885 101.402944 
L 360.420258 101.788933 
L 356.504631 101.330957 
L 352.589005 101.86148 
L 348.673378 101.504385 
L 344.757752 101.783854 
L 340.842125 102.011013 
L 336.926499 101.051208 
L 333.010872 101.80991 
L 329.095246 101.268708 
L 325.179619 101.81001 
L 321.263993 101.845983 
L 317.348366 101.795072 
L 313.43274 101.252451 
L 309.517113 101.790133 
L 305.601486 101.406163 
L 301.68586 101.177505 
L 297.770233 101.215138 
L 293.854607 101.867439 
L 289.93898 101.26141 
L 286.023354 101.493027 
L 282.107727 101.994156 
L 278.192101 101.300802 
L 274.276474 101.744982 
L 270.360848 101.552717 
L 266.445221 101.551817 
L 262.529595 101.997775 
L 258.613968 101.3161 
L 254.698342 101.443556 
L 250.782715 101.747021 
L 246.867088 101.255791 
L 242.951462 101.209319 
L 239.035835 101.526941 
L 235.120209 101.688232 
L 231.204582 101.326258 
L 227.288956 101.982178 
L 223.373329 101.568274 
L 219.457703 101.270228 
L 215.542076 101.636901 
L 211.62645 101.701749 
L 207.710823 101.250012 
L 203.795197 101.408123 
L 199.87957 101.131213 
L 195.963943 101.825887 
L 192.048317 101.427739 
L 188.13269 101.989637 
L 184.217064 101.393865 
L 180.301437 101.995856 
L 176.385811 101.113257 
L 172.470184 101.58733 
L 168.554558 100.969403 
L 164.638931 102.091138 
L 160.723305 128.433819 
L 156.807678 153.614492 
L 152.892052 152.342264 
L 148.976425 152.169875 
L 145.060799 152.453964 
L 141.145172 152.556825 
L 137.229545 152.165076 
z
" clip-path="url(#pf78e22bb88)" style="fill: #ff7f0e"/>
   </g>
   <g id="PolyCollection_3">
    <path d="M 137.229545 92.296583 
L 137.229545 152.165076 
L 141.145172 152.556825 
L 145.060799 152.453964 
L 148.976425 152.169875 
L 152.892052 152.342264 
L 156.807678 153.614492 
L 160.723305 128.433819 
L 164.638931 102.091138 
L 168.554558 100.969403 
L 172.470184 101.58733 
L 176.385811 101.113257 
L 180.301437 101.995856 
L 184.217064 101.393865 
L 188.13269 101.989637 
L 192.048317 101.427739 
L 195.963943 101.825887 
L 199.87957 101.131213 
L 203.795197 101.408123 
L 207.710823 101.250012 
L 211.62645 101.701749 
L 215.542076 101.636901 
L 219.457703 101.270228 
L 223.373329 101.568274 
L 227.288956 101.982178 
L 231.204582 101.326258 
L 235.120209 101.688232 
L 239.035835 101.526941 
L 242.951462 101.209319 
L 246.867088 101.255791 
L 250.782715 101.747021 
L 254.698342 101.443556 
L 258.613968 101.3161 
L 262.529595 101.997775 
L 266.445221 101.551817 
L 270.360848 101.552717 
L 274.276474 101.744982 
L 278.192101 101.300802 
L 282.107727 101.994156 
L 286.023354 101.493027 
L 289.93898 101.26141 
L 293.854607 101.867439 
L 297.770233 101.215138 
L 301.68586 101.177505 
L 305.601486 101.406163 
L 309.517113 101.790133 
L 313.43274 101.252451 
L 317.348366 101.795072 
L 321.263993 101.845983 
L 325.179619 101.81001 
L 329.095246 101.268708 
L 333.010872 101.80991 
L 336.926499 101.051208 
L 340.842125 102.011013 
L 344.757752 101.783854 
L 348.673378 101.504385 
L 352.589005 101.86148 
L 356.504631 101.330957 
L 360.420258 101.788933 
L 364.335885 101.402944 
L 368.251511 102.287703 
L 372.167138 101.86162 
L 376.082764 101.994816 
L 379.998391 102.066403 
L 383.914017 101.254831 
L 387.829644 101.307601 
L 391.74527 102.516341 
L 395.660897 101.827466 
L 399.576523 101.295443 
L 403.49215 101.377888 
L 407.407776 101.821688 
L 411.323403 101.188243 
L 415.239029 101.849882 
L 419.154656 101.306221 
L 423.070283 101.42564 
L 426.985909 101.47907 
L 430.901536 100.981381 
L 434.817162 101.540339 
L 438.732789 101.837685 
L 442.648415 101.291684 
L 446.564042 102.040688 
L 450.479668 100.994918 
L 454.395295 101.507945 
L 458.310921 101.802911 
L 462.226548 101.170806 
L 466.142174 101.516023 
L 470.057801 102.234772 
L 473.973428 102.02813 
L 477.889054 101.031491 
L 481.804681 101.778935 
L 485.720307 101.417621 
L 489.635934 101.331897 
L 493.55156 101.383307 
L 497.467187 101.612986 
L 501.382813 101.470432 
L 505.29844 101.914531 
L 509.214066 101.565434 
L 513.129693 101.255811 
L 517.045319 101.858541 
L 520.960946 101.171846 
L 524.876572 101.786394 
L 528.792199 101.162308 
L 532.707826 102.229073 
L 536.623452 101.053088 
L 540.539079 101.952044 
L 544.454705 101.486889 
L 548.370332 101.005836 
L 552.285958 101.725365 
L 556.201585 101.499846 
L 560.117211 101.276147 
L 564.032838 104.705822 
L 567.948464 101.412882 
L 571.864091 101.953803 
L 575.779717 101.376229 
L 579.695344 101.141951 
L 583.610971 101.547517 
L 587.526597 101.510264 
L 591.442224 101.084042 
L 595.35785 101.555616 
L 599.273477 102.020271 
L 603.189103 101.832006 
L 607.10473 101.134993 
L 611.020356 101.685692 
L 614.935983 101.490908 
L 618.851609 101.209899 
L 622.767236 101.991337 
L 626.682862 101.457094 
L 630.598489 101.949584 
L 634.514115 101.902213 
L 638.429742 101.656818 
L 642.345369 101.552337 
L 646.260995 101.47803 
L 650.176622 101.398505 
L 654.092248 101.435378 
L 658.007875 101.466092 
L 661.923501 101.53232 
L 665.839128 102.19314 
L 669.754754 101.605647 
L 673.670381 101.223177 
L 677.586007 101.396285 
L 681.501634 101.173926 
L 685.41726 101.837885 
L 689.332887 101.377828 
L 693.248514 101.287505 
L 697.16414 102.050126 
L 701.079767 101.280966 
L 704.995393 101.003537 
L 708.91102 102.229913 
L 712.826646 100.862182 
L 716.742273 101.616905 
L 720.657899 102.095378 
L 724.573526 101.102519 
L 728.489152 101.323978 
L 732.404779 101.668675 
L 736.320405 100.841546 
L 740.236032 101.834505 
L 744.151658 101.237894 
L 748.067285 101.384827 
L 751.982912 101.380388 
L 755.898538 102.036428 
L 759.814165 101.922609 
L 763.729791 100.995738 
L 767.645418 101.737883 
L 771.561044 100.71299 
L 775.476671 101.690471 
L 779.392297 101.386427 
L 783.307924 102.600486 
L 787.22355 102.427777 
L 791.139177 102.963739 
L 795.054803 101.221517 
L 798.97043 101.232915 
L 802.886057 101.872258 
L 806.801683 101.653358 
L 810.71731 101.549417 
L 814.632936 102.123812 
L 818.548563 101.336316 
L 822.464189 102.219615 
L 826.379816 101.510784 
L 830.295442 101.777196 
L 834.211069 101.582411 
L 838.126695 101.348334 
L 842.042322 102.695528 
L 845.957948 101.7536 
L 849.873575 101.198961 
L 853.789201 102.048926 
L 857.704828 101.412542 
L 861.620455 101.295303 
L 861.620455 43.540425 
L 861.620455 43.540425 
L 857.704828 43.542745 
L 853.789201 44.003821 
L 849.873575 43.601634 
L 845.957948 43.7886 
L 842.042322 45.154151 
L 838.126695 43.614731 
L 834.211069 43.672801 
L 830.295442 43.833132 
L 826.379816 43.908278 
L 822.464189 44.344998 
L 818.548563 43.422487 
L 814.632936 44.273851 
L 810.71731 43.703535 
L 806.801683 44.131297 
L 802.886057 43.858807 
L 798.97043 43.40079 
L 795.054803 43.4583 
L 791.139177 45.328119 
L 787.22355 44.697834 
L 783.307924 44.978903 
L 779.392297 43.341921 
L 775.476671 44.185887 
L 771.561044 42.85553 
L 767.645418 43.669182 
L 763.729791 43.352399 
L 759.814165 43.993602 
L 755.898538 43.968067 
L 751.982912 43.442103 
L 748.067285 43.635968 
L 744.151658 43.523328 
L 740.236032 43.73109 
L 736.320405 43.007782 
L 732.404779 43.925075 
L 728.489152 43.189449 
L 724.573526 43.416708 
L 720.657899 43.986864 
L 716.742273 43.928934 
L 712.826646 42.897802 
L 708.91102 44.277731 
L 704.995393 43.117642 
L 701.079767 43.425286 
L 697.16414 44.426004 
L 693.248514 43.162514 
L 689.332887 43.481096 
L 685.41726 44.249536 
L 681.501634 43.091007 
L 677.586007 43.723732 
L 673.670381 43.334183 
L 669.754754 43.736009 
L 665.839128 44.120439 
L 661.923501 43.793619 
L 658.007875 43.627289 
L 654.092248 43.355019 
L 650.176622 43.880103 
L 646.260995 43.297709 
L 642.345369 43.912837 
L 638.429742 43.639587 
L 634.514115 44.00644 
L 630.598489 44.048312 
L 626.682862 43.759045 
L 622.767236 44.074568 
L 618.851609 43.29385 
L 614.935983 43.532886 
L 611.020356 44.050012 
L 607.10473 43.030618 
L 603.189103 44.083306 
L 599.273477 44.229759 
L 595.35785 43.439623 
L 591.442224 43.206666 
L 587.526597 43.941552 
L 583.610971 43.45836 
L 579.695344 43.267895 
L 575.779717 43.791659 
L 571.864091 43.825973 
L 567.948464 44.28205 
L 564.032838 46.983838 
L 560.117211 43.170292 
L 556.201585 43.810996 
L 552.285958 43.784261 
L 548.370332 43.324864 
L 544.454705 43.67576 
L 540.539079 43.886042 
L 536.623452 43.315646 
L 532.707826 44.17309 
L 528.792199 43.204706 
L 524.876572 43.973326 
L 520.960946 43.304328 
L 517.045319 44.024737 
L 513.129693 43.40375 
L 509.214066 43.826033 
L 505.29844 43.833572 
L 501.382813 43.582637 
L 497.467187 43.935893 
L 493.55156 43.501492 
L 489.635934 43.467078 
L 485.720307 43.500112 
L 481.804681 43.871245 
L 477.889054 43.371716 
L 473.973428 43.979305 
L 470.057801 44.319523 
L 466.142174 43.630329 
L 462.226548 43.448802 
L 458.310921 43.906998 
L 454.395295 43.610132 
L 450.479668 43.324784 
L 446.564042 43.881023 
L 442.648415 43.604493 
L 438.732789 43.904659 
L 434.817162 43.643986 
L 430.901536 43.096346 
L 426.985909 43.563301 
L 423.070283 43.792279 
L 419.154656 43.421307 
L 415.239029 43.929874 
L 411.323403 43.045975 
L 407.407776 43.955269 
L 403.49215 43.792319 
L 399.576523 43.285531 
L 395.660897 44.109801 
L 391.74527 44.60879 
L 387.829644 43.427286 
L 383.914017 43.429585 
L 379.998391 44.481134 
L 376.082764 44.016878 
L 372.167138 44.00804 
L 368.251511 44.708592 
L 364.335885 43.743208 
L 360.420258 43.919236 
L 356.504631 43.267515 
L 352.589005 44.036095 
L 348.673378 43.741708 
L 344.757752 43.942032 
L 340.842125 44.027556 
L 336.926499 43.391232 
L 333.010872 43.608193 
L 329.095246 43.600134 
L 325.179619 44.234399 
L 321.263993 43.942832 
L 317.348366 43.902079 
L 313.43274 43.465819 
L 309.517113 43.805597 
L 305.601486 43.653604 
L 301.68586 43.120422 
L 297.770233 43.256357 
L 293.854607 43.999141 
L 289.93898 43.414868 
L 286.023354 43.596695 
L 282.107727 44.261014 
L 278.192101 43.351839 
L 274.276474 44.016698 
L 270.360848 43.708654 
L 266.445221 43.626149 
L 262.529595 44.319283 
L 258.613968 43.250758 
L 254.698342 43.529567 
L 250.782715 43.823373 
L 246.867088 43.539305 
L 242.951462 43.474917 
L 239.035835 43.439543 
L 235.120209 43.790799 
L 231.204582 43.540345 
L 227.288956 43.850249 
L 223.373329 43.838111 
L 219.457703 43.360078 
L 215.542076 43.979705 
L 211.62645 43.776002 
L 207.710823 43.297469 
L 203.795197 43.51067 
L 199.87957 43.219543 
L 195.963943 44.147494 
L 192.048317 43.571679 
L 188.13269 43.89702 
L 184.217064 43.874184 
L 180.301437 43.864026 
L 176.385811 43.448982 
L 172.470184 43.517409 
L 168.554558 43.060892 
L 164.638931 45.178647 
L 160.723305 69.502195 
L 156.807678 93.609804 
L 152.892052 92.680393 
L 148.976425 91.973822 
L 145.060799 92.444636 
L 141.145172 92.575692 
L 137.229545 92.296583 
z
" clip-path="url(#pf78e22bb88)" style="fill: #2ca02c"/>
   </g>
   <g id="matplotlib.axis_1">
    <g id="xtick_1">
     <g id="line2d_1">
      <path d="M 137.229545 331.64 
L 137.229545 28.920907 
" clip-path="url(#pf78e22bb88)" style="fill: none; stroke-dasharray: 5.12,1.28,0.8,1.28; stroke-dashoffset: 0; stroke: #b0b0b0; stroke-width: 0.8"/>
     </g>
     <g id="line2d_2">
      <defs>
       <path id="m232acc3daa" d="M 0 0 
L 0 3.5 
" style="stroke: #000000; stroke-width: 0.8"/>
      </defs>
      <g>
       <use xlink:href="#m232acc3daa" x="137.229545" y="331.64" style="stroke: #000000; stroke-width: 0.8"/>
      </g>
     </g>
     <g id="text_1">
      <!-- 0 -->
      <g transform="translate(130.230795 355.356563)scale(0.22 -0.22)">
       <defs>
        <path id="DejaVuSans-30" d="M 2034 4250 
Q 1547 4250 1301 3770 
Q 1056 3291 1056 2328 
Q 1056 1369 1301 889 
Q 1547 409 2034 409 
Q 2525 409 2770 889 
Q 3016 1369 3016 2328 
Q 3016 3291 2770 3770 
Q 2525 4250 2034 4250 
z
M 2034 4750 
Q 2819 4750 3233 4129 
Q 3647 3509 3647 2328 
Q 3647 1150 3233 529 
Q 2819 -91 2034 -91 
Q 1250 -91 836 529 
Q 422 1150 422 2328 
Q 422 3509 836 4129 
Q 1250 4750 2034 4750 
z
" transform="scale(0.015625)"/>
       </defs>
       <use xlink:href="#DejaVuSans-30"/>
      </g>
     </g>
    </g>
    <g id="xtick_2">
     <g id="line2d_3">
      <path d="M 235.120209 331.64 
L 235.120209 28.920907 
" clip-path="url(#pf78e22bb88)" style="fill: none; stroke-dasharray: 5.12,1.28,0.8,1.28; stroke-dashoffset: 0; stroke: #b0b0b0; stroke-width: 0.8"/>
     </g>
     <g id="line2d_4">
      <g>
       <use xlink:href="#m232acc3daa" x="235.120209" y="331.64" style="stroke: #000000; stroke-width: 0.8"/>
      </g>
     </g>
     <g id="text_2">
      <!-- 25 -->
      <g transform="translate(221.122709 355.356563)scale(0.22 -0.22)">
       <defs>
        <path id="DejaVuSans-32" d="M 1228 531 
L 3431 531 
L 3431 0 
L 469 0 
L 469 531 
Q 828 903 1448 1529 
Q 2069 2156 2228 2338 
Q 2531 2678 2651 2914 
Q 2772 3150 2772 3378 
Q 2772 3750 2511 3984 
Q 2250 4219 1831 4219 
Q 1534 4219 1204 4116 
Q 875 4013 500 3803 
L 500 4441 
Q 881 4594 1212 4672 
Q 1544 4750 1819 4750 
Q 2544 4750 2975 4387 
Q 3406 4025 3406 3419 
Q 3406 3131 3298 2873 
Q 3191 2616 2906 2266 
Q 2828 2175 2409 1742 
Q 1991 1309 1228 531 
z
" transform="scale(0.015625)"/>
        <path id="DejaVuSans-35" d="M 691 4666 
L 3169 4666 
L 3169 4134 
L 1269 4134 
L 1269 2991 
Q 1406 3038 1543 3061 
Q 1681 3084 1819 3084 
Q 2600 3084 3056 2656 
Q 3513 2228 3513 1497 
Q 3513 744 3044 326 
Q 2575 -91 1722 -91 
Q 1428 -91 1123 -41 
Q 819 9 494 109 
L 494 744 
Q 775 591 1075 516 
Q 1375 441 1709 441 
Q 2250 441 2565 725 
Q 2881 1009 2881 1497 
Q 2881 1984 2565 2268 
Q 2250 2553 1709 2553 
Q 1456 2553 1204 2497 
Q 953 2441 691 2322 
L 691 4666 
z
" transform="scale(0.015625)"/>
       </defs>
       <use xlink:href="#DejaVuSans-32"/>
       <use xlink:href="#DejaVuSans-35" x="63.623047"/>
      </g>
     </g>
    </g>
    <g id="xtick_3">
     <g id="line2d_5">
      <path d="M 333.010872 331.64 
L 333.010872 28.920907 
" clip-path="url(#pf78e22bb88)" style="fill: none; stroke-dasharray: 5.12,1.28,0.8,1.28; stroke-dashoffset: 0; stroke: #b0b0b0; stroke-width: 0.8"/>
     </g>
     <g id="line2d_6">
      <g>
       <use xlink:href="#m232acc3daa" x="333.010872" y="331.64" style="stroke: #000000; stroke-width: 0.8"/>
      </g>
     </g>
     <g id="text_3">
      <!-- 50 -->
      <g transform="translate(319.013372 355.356563)scale(0.22 -0.22)">
       <use xlink:href="#DejaVuSans-35"/>
       <use xlink:href="#DejaVuSans-30" x="63.623047"/>
      </g>
     </g>
    </g>
    <g id="xtick_4">
     <g id="line2d_7">
      <path d="M 430.901536 331.64 
L 430.901536 28.920907 
" clip-path="url(#pf78e22bb88)" style="fill: none; stroke-dasharray: 5.12,1.28,0.8,1.28; stroke-dashoffset: 0; stroke: #b0b0b0; stroke-width: 0.8"/>
     </g>
     <g id="line2d_8">
      <g>
       <use xlink:href="#m232acc3daa" x="430.901536" y="331.64" style="stroke: #000000; stroke-width: 0.8"/>
      </g>
     </g>
     <g id="text_4">
      <!-- 75 -->
      <g transform="translate(416.904036 355.356563)scale(0.22 -0.22)">
       <defs>
        <path id="DejaVuSans-37" d="M 525 4666 
L 3525 4666 
L 3525 4397 
L 1831 0 
L 1172 0 
L 2766 4134 
L 525 4134 
L 525 4666 
z
" transform="scale(0.015625)"/>
       </defs>
       <use xlink:href="#DejaVuSans-37"/>
       <use xlink:href="#DejaVuSans-35" x="63.623047"/>
      </g>
     </g>
    </g>
    <g id="xtick_5">
     <g id="line2d_9">
      <path d="M 528.792199 331.64 
L 528.792199 28.920907 
" clip-path="url(#pf78e22bb88)" style="fill: none; stroke-dasharray: 5.12,1.28,0.8,1.28; stroke-dashoffset: 0; stroke: #b0b0b0; stroke-width: 0.8"/>
     </g>
     <g id="line2d_10">
      <g>
       <use xlink:href="#m232acc3daa" x="528.792199" y="331.64" style="stroke: #000000; stroke-width: 0.8"/>
      </g>
     </g>
     <g id="text_5">
      <!-- 100 -->
      <g transform="translate(507.795949 355.356563)scale(0.22 -0.22)">
       <defs>
        <path id="DejaVuSans-31" d="M 794 531 
L 1825 531 
L 1825 4091 
L 703 3866 
L 703 4441 
L 1819 4666 
L 2450 4666 
L 2450 531 
L 3481 531 
L 3481 0 
L 794 0 
L 794 531 
z
" transform="scale(0.015625)"/>
       </defs>
       <use xlink:href="#DejaVuSans-31"/>
       <use xlink:href="#DejaVuSans-30" x="63.623047"/>
       <use xlink:href="#DejaVuSans-30" x="127.246094"/>
      </g>
     </g>
    </g>
    <g id="xtick_6">
     <g id="line2d_11">
      <path d="M 626.682862 331.64 
L 626.682862 28.920907 
" clip-path="url(#pf78e22bb88)" style="fill: none; stroke-dasharray: 5.12,1.28,0.8,1.28; stroke-dashoffset: 0; stroke: #b0b0b0; stroke-width: 0.8"/>
     </g>
     <g id="line2d_12">
      <g>
       <use xlink:href="#m232acc3daa" x="626.682862" y="331.64" style="stroke: #000000; stroke-width: 0.8"/>
      </g>
     </g>
     <g id="text_6">
      <!-- 125 -->
      <g transform="translate(605.686612 355.356563)scale(0.22 -0.22)">
       <use xlink:href="#DejaVuSans-31"/>
       <use xlink:href="#DejaVuSans-32" x="63.623047"/>
       <use xlink:href="#DejaVuSans-35" x="127.246094"/>
      </g>
     </g>
    </g>
    <g id="xtick_7">
     <g id="line2d_13">
      <path d="M 724.573526 331.64 
L 724.573526 28.920907 
" clip-path="url(#pf78e22bb88)" style="fill: none; stroke-dasharray: 5.12,1.28,0.8,1.28; stroke-dashoffset: 0; stroke: #b0b0b0; stroke-width: 0.8"/>
     </g>
     <g id="line2d_14">
      <g>
       <use xlink:href="#m232acc3daa" x="724.573526" y="331.64" style="stroke: #000000; stroke-width: 0.8"/>
      </g>
     </g>
     <g id="text_7">
      <!-- 150 -->
      <g transform="translate(703.577276 355.356563)scale(0.22 -0.22)">
       <use xlink:href="#DejaVuSans-31"/>
       <use xlink:href="#DejaVuSans-35" x="63.623047"/>
       <use xlink:href="#DejaVuSans-30" x="127.246094"/>
      </g>
     </g>
    </g>
    <g id="xtick_8">
     <g id="line2d_15">
      <path d="M 822.464189 331.64 
L 822.464189 28.920907 
" clip-path="url(#pf78e22bb88)" style="fill: none; stroke-dasharray: 5.12,1.28,0.8,1.28; stroke-dashoffset: 0; stroke: #b0b0b0; stroke-width: 0.8"/>
     </g>
     <g id="line2d_16">
      <g>
       <use xlink:href="#m232acc3daa" x="822.464189" y="331.64" style="stroke: #000000; stroke-width: 0.8"/>
      </g>
     </g>
     <g id="text_8">
      <!-- 175 -->
      <g transform="translate(801.467939 355.356563)scale(0.22 -0.22)">
       <use xlink:href="#DejaVuSans-31"/>
       <use xlink:href="#DejaVuSans-37" x="63.623047"/>
       <use xlink:href="#DejaVuSans-35" x="127.246094"/>
      </g>
     </g>
    </g>
    <g id="text_9">
     <!-- Time (s) -->
     <g transform="translate(450.635625 382.168125)scale(0.24 -0.24)">
      <defs>
       <path id="DejaVuSans-54" d="M -19 4666 
L 3928 4666 
L 3928 4134 
L 2272 4134 
L 2272 0 
L 1638 0 
L 1638 4134 
L -19 4134 
L -19 4666 
z
" transform="scale(0.015625)"/>
       <path id="DejaVuSans-69" d="M 603 3500 
L 1178 3500 
L 1178 0 
L 603 0 
L 603 3500 
z
M 603 4863 
L 1178 4863 
L 1178 4134 
L 603 4134 
L 603 4863 
z
" transform="scale(0.015625)"/>
       <path id="DejaVuSans-6d" d="M 3328 2828 
Q 3544 3216 3844 3400 
Q 4144 3584 4550 3584 
Q 5097 3584 5394 3201 
Q 5691 2819 5691 2113 
L 5691 0 
L 5113 0 
L 5113 2094 
Q 5113 2597 4934 2840 
Q 4756 3084 4391 3084 
Q 3944 3084 3684 2787 
Q 3425 2491 3425 1978 
L 3425 0 
L 2847 0 
L 2847 2094 
Q 2847 2600 2669 2842 
Q 2491 3084 2119 3084 
Q 1678 3084 1418 2786 
Q 1159 2488 1159 1978 
L 1159 0 
L 581 0 
L 581 3500 
L 1159 3500 
L 1159 2956 
Q 1356 3278 1631 3431 
Q 1906 3584 2284 3584 
Q 2666 3584 2933 3390 
Q 3200 3197 3328 2828 
z
" transform="scale(0.015625)"/>
       <path id="DejaVuSans-65" d="M 3597 1894 
L 3597 1613 
L 953 1613 
Q 991 1019 1311 708 
Q 1631 397 2203 397 
Q 2534 397 2845 478 
Q 3156 559 3463 722 
L 3463 178 
Q 3153 47 2828 -22 
Q 2503 -91 2169 -91 
Q 1331 -91 842 396 
Q 353 884 353 1716 
Q 353 2575 817 3079 
Q 1281 3584 2069 3584 
Q 2775 3584 3186 3129 
Q 3597 2675 3597 1894 
z
M 3022 2063 
Q 3016 2534 2758 2815 
Q 2500 3097 2075 3097 
Q 1594 3097 1305 2825 
Q 1016 2553 972 2059 
L 3022 2063 
z
" transform="scale(0.015625)"/>
       <path id="DejaVuSans-20" transform="scale(0.015625)"/>
       <path id="DejaVuSans-28" d="M 1984 4856 
Q 1566 4138 1362 3434 
Q 1159 2731 1159 2009 
Q 1159 1288 1364 580 
Q 1569 -128 1984 -844 
L 1484 -844 
Q 1016 -109 783 600 
Q 550 1309 550 2009 
Q 550 2706 781 3412 
Q 1013 4119 1484 4856 
L 1984 4856 
z
" transform="scale(0.015625)"/>
       <path id="DejaVuSans-73" d="M 2834 3397 
L 2834 2853 
Q 2591 2978 2328 3040 
Q 2066 3103 1784 3103 
Q 1356 3103 1142 2972 
Q 928 2841 928 2578 
Q 928 2378 1081 2264 
Q 1234 2150 1697 2047 
L 1894 2003 
Q 2506 1872 2764 1633 
Q 3022 1394 3022 966 
Q 3022 478 2636 193 
Q 2250 -91 1575 -91 
Q 1294 -91 989 -36 
Q 684 19 347 128 
L 347 722 
Q 666 556 975 473 
Q 1284 391 1588 391 
Q 1994 391 2212 530 
Q 2431 669 2431 922 
Q 2431 1156 2273 1281 
Q 2116 1406 1581 1522 
L 1381 1569 
Q 847 1681 609 1914 
Q 372 2147 372 2553 
Q 372 3047 722 3315 
Q 1072 3584 1716 3584 
Q 2034 3584 2315 3537 
Q 2597 3491 2834 3397 
z
" transform="scale(0.015625)"/>
       <path id="DejaVuSans-29" d="M 513 4856 
L 1013 4856 
Q 1481 4119 1714 3412 
Q 1947 2706 1947 2009 
Q 1947 1309 1714 600 
Q 1481 -109 1013 -844 
L 513 -844 
Q 928 -128 1133 580 
Q 1338 1288 1338 2009 
Q 1338 2731 1133 3434 
Q 928 4138 513 4856 
z
" transform="scale(0.015625)"/>
      </defs>
      <use xlink:href="#DejaVuSans-54"/>
      <use xlink:href="#DejaVuSans-69" x="57.958984"/>
      <use xlink:href="#DejaVuSans-6d" x="85.742188"/>
      <use xlink:href="#DejaVuSans-65" x="183.154297"/>
      <use xlink:href="#DejaVuSans-20" x="244.677734"/>
      <use xlink:href="#DejaVuSans-28" x="276.464844"/>
      <use xlink:href="#DejaVuSans-73" x="315.478516"/>
      <use xlink:href="#DejaVuSans-29" x="367.578125"/>
     </g>
    </g>
   </g>
   <g id="matplotlib.axis_2">
    <g id="ytick_1">
     <g id="line2d_17">
      <path d="M 101.01 331.64 
L 897.84 331.64 
" clip-path="url(#pf78e22bb88)" style="fill: none; stroke-dasharray: 5.12,1.28,0.8,1.28; stroke-dashoffset: 0; stroke: #b0b0b0; stroke-width: 0.8"/>
     </g>
     <g id="line2d_18">
      <defs>
       <path id="ma66adb7d42" d="M 0 0 
L -3.5 0 
" style="stroke: #000000; stroke-width: 0.8"/>
      </defs>
      <g>
       <use xlink:href="#ma66adb7d42" x="101.01" y="331.64" style="stroke: #000000; stroke-width: 0.8"/>
      </g>
     </g>
     <g id="text_10">
      <!-- 0 -->
      <g transform="translate(80.0125 339.998281)scale(0.22 -0.22)">
       <use xlink:href="#DejaVuSans-30"/>
      </g>
     </g>
    </g>
    <g id="ytick_2">
     <g id="line2d_19">
      <path d="M 101.01 269.151384 
L 897.84 269.151384 
" clip-path="url(#pf78e22bb88)" style="fill: none; stroke-dasharray: 5.12,1.28,0.8,1.28; stroke-dashoffset: 0; stroke: #b0b0b0; stroke-width: 0.8"/>
     </g>
     <g id="line2d_20">
      <g>
       <use xlink:href="#ma66adb7d42" x="101.01" y="269.151384" style="stroke: #000000; stroke-width: 0.8"/>
      </g>
     </g>
     <g id="text_11">
      <!-- 25 -->
      <g transform="translate(66.015 277.509665)scale(0.22 -0.22)">
       <use xlink:href="#DejaVuSans-32"/>
       <use xlink:href="#DejaVuSans-35" x="63.623047"/>
      </g>
     </g>
    </g>
    <g id="ytick_3">
     <g id="line2d_21">
      <path d="M 101.01 206.662768 
L 897.84 206.662768 
" clip-path="url(#pf78e22bb88)" style="fill: none; stroke-dasharray: 5.12,1.28,0.8,1.28; stroke-dashoffset: 0; stroke: #b0b0b0; stroke-width: 0.8"/>
     </g>
     <g id="line2d_22">
      <g>
       <use xlink:href="#ma66adb7d42" x="101.01" y="206.662768" style="stroke: #000000; stroke-width: 0.8"/>
      </g>
     </g>
     <g id="text_12">
      <!-- 50 -->
      <g transform="translate(66.015 215.021049)scale(0.22 -0.22)">
       <use xlink:href="#DejaVuSans-35"/>
       <use xlink:href="#DejaVuSans-30" x="63.623047"/>
      </g>
     </g>
    </g>
    <g id="ytick_4">
     <g id="line2d_23">
      <path d="M 101.01 144.174152 
L 897.84 144.174152 
" clip-path="url(#pf78e22bb88)" style="fill: none; stroke-dasharray: 5.12,1.28,0.8,1.28; stroke-dashoffset: 0; stroke: #b0b0b0; stroke-width: 0.8"/>
     </g>
     <g id="line2d_24">
      <g>
       <use xlink:href="#ma66adb7d42" x="101.01" y="144.174152" style="stroke: #000000; stroke-width: 0.8"/>
      </g>
     </g>
     <g id="text_13">
      <!-- 75 -->
      <g transform="translate(66.015 152.532433)scale(0.22 -0.22)">
       <use xlink:href="#DejaVuSans-37"/>
       <use xlink:href="#DejaVuSans-35" x="63.623047"/>
      </g>
     </g>
    </g>
    <g id="ytick_5">
     <g id="line2d_25">
      <path d="M 101.01 81.685536 
L 897.84 81.685536 
" clip-path="url(#pf78e22bb88)" style="fill: none; stroke-dasharray: 5.12,1.28,0.8,1.28; stroke-dashoffset: 0; stroke: #b0b0b0; stroke-width: 0.8"/>
     </g>
     <g id="line2d_26">
      <g>
       <use xlink:href="#ma66adb7d42" x="101.01" y="81.685536" style="stroke: #000000; stroke-width: 0.8"/>
      </g>
     </g>
     <g id="text_14">
      <!-- 100 -->
      <g transform="translate(52.0175 90.043817)scale(0.22 -0.22)">
       <use xlink:href="#DejaVuSans-31"/>
       <use xlink:href="#DejaVuSans-30" x="63.623047"/>
       <use xlink:href="#DejaVuSans-30" x="127.246094"/>
      </g>
     </g>
    </g>
    <g id="text_15">
     <!-- Throughput (Mbps) -->
     <g transform="translate(43.02625 294.994829)rotate(-90)scale(0.24 -0.24)">
      <defs>
       <path id="DejaVuSans-68" d="M 3513 2113 
L 3513 0 
L 2938 0 
L 2938 2094 
Q 2938 2591 2744 2837 
Q 2550 3084 2163 3084 
Q 1697 3084 1428 2787 
Q 1159 2491 1159 1978 
L 1159 0 
L 581 0 
L 581 4863 
L 1159 4863 
L 1159 2956 
Q 1366 3272 1645 3428 
Q 1925 3584 2291 3584 
Q 2894 3584 3203 3211 
Q 3513 2838 3513 2113 
z
" transform="scale(0.015625)"/>
       <path id="DejaVuSans-72" d="M 2631 2963 
Q 2534 3019 2420 3045 
Q 2306 3072 2169 3072 
Q 1681 3072 1420 2755 
Q 1159 2438 1159 1844 
L 1159 0 
L 581 0 
L 581 3500 
L 1159 3500 
L 1159 2956 
Q 1341 3275 1631 3429 
Q 1922 3584 2338 3584 
Q 2397 3584 2469 3576 
Q 2541 3569 2628 3553 
L 2631 2963 
z
" transform="scale(0.015625)"/>
       <path id="DejaVuSans-6f" d="M 1959 3097 
Q 1497 3097 1228 2736 
Q 959 2375 959 1747 
Q 959 1119 1226 758 
Q 1494 397 1959 397 
Q 2419 397 2687 759 
Q 2956 1122 2956 1747 
Q 2956 2369 2687 2733 
Q 2419 3097 1959 3097 
z
M 1959 3584 
Q 2709 3584 3137 3096 
Q 3566 2609 3566 1747 
Q 3566 888 3137 398 
Q 2709 -91 1959 -91 
Q 1206 -91 779 398 
Q 353 888 353 1747 
Q 353 2609 779 3096 
Q 1206 3584 1959 3584 
z
" transform="scale(0.015625)"/>
       <path id="DejaVuSans-75" d="M 544 1381 
L 544 3500 
L 1119 3500 
L 1119 1403 
Q 1119 906 1312 657 
Q 1506 409 1894 409 
Q 2359 409 2629 706 
Q 2900 1003 2900 1516 
L 2900 3500 
L 3475 3500 
L 3475 0 
L 2900 0 
L 2900 538 
Q 2691 219 2414 64 
Q 2138 -91 1772 -91 
Q 1169 -91 856 284 
Q 544 659 544 1381 
z
M 1991 3584 
L 1991 3584 
z
" transform="scale(0.015625)"/>
       <path id="DejaVuSans-67" d="M 2906 1791 
Q 2906 2416 2648 2759 
Q 2391 3103 1925 3103 
Q 1463 3103 1205 2759 
Q 947 2416 947 1791 
Q 947 1169 1205 825 
Q 1463 481 1925 481 
Q 2391 481 2648 825 
Q 2906 1169 2906 1791 
z
M 3481 434 
Q 3481 -459 3084 -895 
Q 2688 -1331 1869 -1331 
Q 1566 -1331 1297 -1286 
Q 1028 -1241 775 -1147 
L 775 -588 
Q 1028 -725 1275 -790 
Q 1522 -856 1778 -856 
Q 2344 -856 2625 -561 
Q 2906 -266 2906 331 
L 2906 616 
Q 2728 306 2450 153 
Q 2172 0 1784 0 
Q 1141 0 747 490 
Q 353 981 353 1791 
Q 353 2603 747 3093 
Q 1141 3584 1784 3584 
Q 2172 3584 2450 3431 
Q 2728 3278 2906 2969 
L 2906 3500 
L 3481 3500 
L 3481 434 
z
" transform="scale(0.015625)"/>
       <path id="DejaVuSans-70" d="M 1159 525 
L 1159 -1331 
L 581 -1331 
L 581 3500 
L 1159 3500 
L 1159 2969 
Q 1341 3281 1617 3432 
Q 1894 3584 2278 3584 
Q 2916 3584 3314 3078 
Q 3713 2572 3713 1747 
Q 3713 922 3314 415 
Q 2916 -91 2278 -91 
Q 1894 -91 1617 61 
Q 1341 213 1159 525 
z
M 3116 1747 
Q 3116 2381 2855 2742 
Q 2594 3103 2138 3103 
Q 1681 3103 1420 2742 
Q 1159 2381 1159 1747 
Q 1159 1113 1420 752 
Q 1681 391 2138 391 
Q 2594 391 2855 752 
Q 3116 1113 3116 1747 
z
" transform="scale(0.015625)"/>
       <path id="DejaVuSans-74" d="M 1172 4494 
L 1172 3500 
L 2356 3500 
L 2356 3053 
L 1172 3053 
L 1172 1153 
Q 1172 725 1289 603 
Q 1406 481 1766 481 
L 2356 481 
L 2356 0 
L 1766 0 
Q 1100 0 847 248 
Q 594 497 594 1153 
L 594 3053 
L 172 3053 
L 172 3500 
L 594 3500 
L 594 4494 
L 1172 4494 
z
" transform="scale(0.015625)"/>
       <path id="DejaVuSans-4d" d="M 628 4666 
L 1569 4666 
L 2759 1491 
L 3956 4666 
L 4897 4666 
L 4897 0 
L 4281 0 
L 4281 4097 
L 3078 897 
L 2444 897 
L 1241 4097 
L 1241 0 
L 628 0 
L 628 4666 
z
" transform="scale(0.015625)"/>
       <path id="DejaVuSans-62" d="M 3116 1747 
Q 3116 2381 2855 2742 
Q 2594 3103 2138 3103 
Q 1681 3103 1420 2742 
Q 1159 2381 1159 1747 
Q 1159 1113 1420 752 
Q 1681 391 2138 391 
Q 2594 391 2855 752 
Q 3116 1113 3116 1747 
z
M 1159 2969 
Q 1341 3281 1617 3432 
Q 1894 3584 2278 3584 
Q 2916 3584 3314 3078 
Q 3713 2572 3713 1747 
Q 3713 922 3314 415 
Q 2916 -91 2278 -91 
Q 1894 -91 1617 61 
Q 1341 213 1159 525 
L 1159 0 
L 581 0 
L 581 4863 
L 1159 4863 
L 1159 2969 
z
" transform="scale(0.015625)"/>
      </defs>
      <use xlink:href="#DejaVuSans-54"/>
      <use xlink:href="#DejaVuSans-68" x="61.083984"/>
      <use xlink:href="#DejaVuSans-72" x="124.462891"/>
      <use xlink:href="#DejaVuSans-6f" x="163.326172"/>
      <use xlink:href="#DejaVuSans-75" x="224.507812"/>
      <use xlink:href="#DejaVuSans-67" x="287.886719"/>
      <use xlink:href="#DejaVuSans-68" x="351.363281"/>
      <use xlink:href="#DejaVuSans-70" x="414.742188"/>
      <use xlink:href="#DejaVuSans-75" x="478.21875"/>
      <use xlink:href="#DejaVuSans-74" x="541.597656"/>
      <use xlink:href="#DejaVuSans-20" x="580.806641"/>
      <use xlink:href="#DejaVuSans-28" x="612.59375"/>
      <use xlink:href="#DejaVuSans-4d" x="651.607422"/>
      <use xlink:href="#DejaVuSans-62" x="737.886719"/>
      <use xlink:href="#DejaVuSans-70" x="801.363281"/>
      <use xlink:href="#DejaVuSans-73" x="864.839844"/>
      <use xlink:href="#DejaVuSans-29" x="916.939453"/>
     </g>
    </g>
   </g>
   <g id="patch_3">
    <path d="M 101.01 331.64 
L 101.01 28.920907 
" style="fill: none; stroke: #000000; stroke-width: 0.8; stroke-linejoin: miter; stroke-linecap: square"/>
   </g>
   <g id="patch_4">
    <path d="M 897.84 331.64 
L 897.84 28.920907 
" style="fill: none; stroke: #000000; stroke-width: 0.8; stroke-linejoin: miter; stroke-linecap: square"/>
   </g>
   <g id="patch_5">
    <path d="M 101.01 331.64 
L 897.84 331.64 
" style="fill: none; stroke: #000000; stroke-width: 0.8; stroke-linejoin: miter; stroke-linecap: square"/>
   </g>
   <g id="patch_6">
    <path d="M 101.01 28.920907 
L 897.84 28.920907 
" style="fill: none; stroke: #000000; stroke-width: 0.8; stroke-linejoin: miter; stroke-linecap: square"/>
   </g>
   <g id="legend_1">
    <g id="patch_7">
     <path d="M 756.24 153.803407 
L 881.04 153.803407 
Q 885.84 153.803407 885.84 149.003407 
L 885.84 45.720907 
Q 885.84 40.920907 881.04 40.920907 
L 756.24 40.920907 
Q 751.44 40.920907 751.44 45.720907 
L 751.44 149.003407 
Q 751.44 153.803407 756.24 153.803407 
z
" style="fill: #ffffff; opacity: 0.8; stroke: #cccccc; stroke-linejoin: miter"/>
    </g>
    <g id="patch_8">
     <path d="M 761.04 68.757157 
L 809.04 68.757157 
L 809.04 51.957157 
L 761.04 51.957157 
z
" style="fill: #1f77b4"/>
    </g>
    <g id="text_16">
     <!-- UE1 -->
     <g transform="translate(828.24 68.757157)scale(0.24 -0.24)">
      <defs>
       <path id="DejaVuSans-55" d="M 556 4666 
L 1191 4666 
L 1191 1831 
Q 1191 1081 1462 751 
Q 1734 422 2344 422 
Q 2950 422 3222 751 
Q 3494 1081 3494 1831 
L 3494 4666 
L 4128 4666 
L 4128 1753 
Q 4128 841 3676 375 
Q 3225 -91 2344 -91 
Q 1459 -91 1007 375 
Q 556 841 556 1753 
L 556 4666 
z
" transform="scale(0.015625)"/>
       <path id="DejaVuSans-45" d="M 628 4666 
L 3578 4666 
L 3578 4134 
L 1259 4134 
L 1259 2753 
L 3481 2753 
L 3481 2222 
L 1259 2222 
L 1259 531 
L 3634 531 
L 3634 0 
L 628 0 
L 628 4666 
z
" transform="scale(0.015625)"/>
      </defs>
      <use xlink:href="#DejaVuSans-55"/>
      <use xlink:href="#DejaVuSans-45" x="73.193359"/>
      <use xlink:href="#DejaVuSans-31" x="136.376953"/>
     </g>
    </g>
    <g id="patch_9">
     <path d="M 761.04 103.984657 
L 809.04 103.984657 
L 809.04 87.184657 
L 761.04 87.184657 
z
" style="fill: #ff7f0e"/>
    </g>
    <g id="text_17">
     <!-- UE2 -->
     <g transform="translate(828.24 103.984657)scale(0.24 -0.24)">
      <use xlink:href="#DejaVuSans-55"/>
      <use xlink:href="#DejaVuSans-45" x="73.193359"/>
      <use xlink:href="#DejaVuSans-32" x="136.376953"/>
     </g>
    </g>
    <g id="patch_10">
     <path d="M 761.04 139.212157 
L 809.04 139.212157 
L 809.04 122.412157 
L 761.04 122.412157 
z
" style="fill: #2ca02c"/>
    </g>
    <g id="text_18">
     <!-- UE3 -->
     <g transform="translate(828.24 139.212157)scale(0.24 -0.24)">
      <defs>
       <path id="DejaVuSans-33" d="M 2597 2516 
Q 3050 2419 3304 2112 
Q 3559 1806 3559 1356 
Q 3559 666 3084 287 
Q 2609 -91 1734 -91 
Q 1441 -91 1130 -33 
Q 819 25 488 141 
L 488 750 
Q 750 597 1062 519 
Q 1375 441 1716 441 
Q 2309 441 2620 675 
Q 2931 909 2931 1356 
Q 2931 1769 2642 2001 
Q 2353 2234 1838 2234 
L 1294 2234 
L 1294 2753 
L 1863 2753 
Q 2328 2753 2575 2939 
Q 2822 3125 2822 3475 
Q 2822 3834 2567 4026 
Q 2313 4219 1838 4219 
Q 1578 4219 1281 4162 
Q 984 4106 628 3988 
L 628 4550 
Q 988 4650 1302 4700 
Q 1616 4750 1894 4750 
Q 2613 4750 3031 4423 
Q 3450 4097 3450 3541 
Q 3450 3153 3228 2886 
Q 3006 2619 2597 2516 
z
" transform="scale(0.015625)"/>
      </defs>
      <use xlink:href="#DejaVuSans-55"/>
      <use xlink:href="#DejaVuSans-45" x="73.193359"/>
      <use xlink:href="#DejaVuSans-33" x="136.376953"/>
     </g>
    </g>
   </g>
  </g>
 </g>
 <defs>
  <clipPath id="pf78e22bb88">
   <rect x="101.01" y="28.920907" width="796.83" height="302.719093"/>
  </clipPath>
 </defs>
</svg>
