<?xml version="1.0" encoding="utf-8" standalone="no"?>
<!DOCTYPE svg PUBLIC "-//W3C//DTD SVG 1.1//EN"
  "http://www.w3.org/Graphics/SVG/1.1/DTD/svg11.dtd">
<svg xmlns:xlink="http://www.w3.org/1999/xlink" width="921.6pt" height="410.4pt" viewBox="0 0 921.6 410.4" xmlns="http://www.w3.org/2000/svg" version="1.1">
 <metadata>
  <rdf:RDF xmlns:dc="http://purl.org/dc/elements/1.1/" xmlns:cc="http://creativecommons.org/ns#" xmlns:rdf="http://www.w3.org/1999/02/22-rdf-syntax-ns#">
   <cc:Work>
    <dc:type rdf:resource="http://purl.org/dc/dcmitype/StillImage"/>
    <dc:date>2023-04-11T15:20:48.515418</dc:date>
    <dc:format>image/svg+xml</dc:format>
    <dc:creator>
     <cc:Agent>
      <dc:title>Matplotlib v3.5.3, https://matplotlib.org/</dc:title>
     </cc:Agent>
    </dc:creator>
   </cc:Work>
  </rdf:RDF>
 </metadata>
 <defs>
  <style type="text/css">*{stroke-linejoin: round; stroke-linecap: butt}</style>
 </defs>
 <g id="figure_1">
  <g id="patch_1">
   <path d="M 0 410.4 
L 921.6 410.4 
L 921.6 0 
L 0 0 
L 0 410.4 
z
" style="fill: none"/>
  </g>
  <g id="axes_1">
   <g id="patch_2">
    <path d="M 101.01 331.64 
L 897.84 331.64 
L 897.84 23.76 
L 101.01 23.76 
z
" style="fill: #ffffff"/>
   </g>
   <g id="PolyCollection_1">
    <path d="M 137.229545 186.911553 
L 137.229545 331.64 
L 141.187966 331.64 
L 145.146386 331.64 
L 149.104806 331.64 
L 153.063227 331.64 
L 157.021647 331.64 
L 160.980067 331.64 
L 164.938487 331.64 
L 168.896908 331.64 
L 172.855328 331.64 
L 176.813748 331.64 
L 180.772168 331.64 
L 184.730589 331.64 
L 188.689009 331.64 
L 192.647429 331.64 
L 196.605849 331.64 
L 200.56427 331.64 
L 204.52269 331.64 
L 208.48111 331.64 
L 212.439531 331.64 
L 216.397951 331.64 
L 220.356371 331.64 
L 224.314791 331.64 
L 228.273212 331.64 
L 232.231632 331.64 
L 236.190052 331.64 
L 240.148472 331.64 
L 244.106893 331.64 
L 248.065313 331.64 
L 252.023733 331.64 
L 255.982154 331.64 
L 259.940574 331.64 
L 263.898994 331.64 
L 267.857414 331.64 
L 271.815835 331.64 
L 275.774255 331.64 
L 279.732675 331.64 
L 283.691095 331.64 
L 287.649516 331.64 
L 291.607936 331.64 
L 295.566356 331.64 
L 299.524776 331.64 
L 303.483197 331.64 
L 307.441617 331.64 
L 311.400037 331.64 
L 315.358458 331.64 
L 319.316878 331.64 
L 323.275298 331.64 
L 327.233718 331.64 
L 331.192139 331.64 
L 335.150559 331.64 
L 339.108979 331.64 
L 343.067399 331.64 
L 347.02582 331.64 
L 350.98424 331.64 
L 354.94266 331.64 
L 358.90108 331.64 
L 362.859501 331.64 
L 366.817921 331.64 
L 370.776341 331.64 
L 374.734762 331.64 
L 378.693182 331.64 
L 382.651602 331.64 
L 386.610022 331.64 
L 390.568443 331.64 
L 394.526863 331.64 
L 398.485283 331.64 
L 402.443703 331.64 
L 406.402124 331.64 
L 410.360544 331.64 
L 414.318964 331.64 
L 418.277385 331.64 
L 422.235805 331.64 
L 426.194225 331.64 
L 430.152645 331.64 
L 434.111066 331.64 
L 438.069486 331.64 
L 442.027906 331.64 
L 445.986326 331.64 
L 449.944747 331.64 
L 453.903167 331.64 
L 457.861587 331.64 
L 461.820007 331.64 
L 465.778428 331.64 
L 469.736848 331.64 
L 473.695268 331.64 
L 477.653689 331.64 
L 481.612109 331.64 
L 485.570529 331.64 
L 489.528949 331.64 
L 493.48737 331.64 
L 497.44579 331.64 
L 501.40421 331.64 
L 505.36263 331.64 
L 509.321051 331.64 
L 513.279471 331.64 
L 517.237891 331.64 
L 521.196311 331.64 
L 525.154732 331.64 
L 529.113152 331.64 
L 533.071572 331.64 
L 537.029993 331.64 
L 540.988413 331.64 
L 544.946833 331.64 
L 548.905253 331.64 
L 552.863674 331.64 
L 556.822094 331.64 
L 560.780514 331.64 
L 564.738934 331.64 
L 568.697355 331.64 
L 572.655775 331.64 
L 576.614195 331.64 
L 580.572615 331.64 
L 584.531036 331.64 
L 588.489456 331.64 
L 592.447876 331.64 
L 596.406297 331.64 
L 600.364717 331.64 
L 604.323137 331.64 
L 608.281557 331.64 
L 612.239978 331.64 
L 616.198398 331.64 
L 620.156818 331.64 
L 624.115238 331.64 
L 628.073659 331.64 
L 632.032079 331.64 
L 635.990499 331.64 
L 639.94892 331.64 
L 643.90734 331.64 
L 647.86576 331.64 
L 651.82418 331.64 
L 655.782601 331.64 
L 659.741021 331.64 
L 663.699441 331.64 
L 667.657861 331.64 
L 671.616282 331.64 
L 675.574702 331.64 
L 679.533122 331.64 
L 683.491542 331.64 
L 687.449963 331.64 
L 691.408383 331.64 
L 695.366803 331.64 
L 699.325224 331.64 
L 703.283644 331.64 
L 707.242064 331.64 
L 711.200484 331.64 
L 715.158905 331.64 
L 719.117325 331.64 
L 723.075745 331.64 
L 727.034165 331.64 
L 730.992586 331.64 
L 734.951006 331.64 
L 738.909426 331.64 
L 742.867846 331.64 
L 746.826267 331.64 
L 750.784687 331.64 
L 754.743107 331.64 
L 758.701528 331.64 
L 762.659948 331.64 
L 766.618368 331.64 
L 770.576788 331.64 
L 774.535209 331.64 
L 778.493629 331.64 
L 782.452049 331.64 
L 786.410469 331.64 
L 790.36889 331.64 
L 794.32731 331.64 
L 798.28573 331.64 
L 802.244151 331.64 
L 806.202571 331.64 
L 810.160991 331.64 
L 814.119411 331.64 
L 818.077832 331.64 
L 822.036252 331.64 
L 825.994672 331.64 
L 829.953092 331.64 
L 833.911513 331.64 
L 837.869933 331.64 
L 841.828353 331.64 
L 845.786773 331.64 
L 849.745194 331.64 
L 853.703614 331.64 
L 857.662034 331.64 
L 861.620455 331.64 
L 861.620455 185.43996 
L 861.620455 185.43996 
L 857.662034 185.487576 
L 853.703614 185.013628 
L 849.745194 185.69409 
L 845.786773 185.511967 
L 841.828353 185.334287 
L 837.869933 185.681822 
L 833.911513 185.097095 
L 829.953092 185.343399 
L 825.994672 185.678652 
L 822.036252 185.35216 
L 818.077832 185.210996 
L 814.119411 185.891154 
L 810.160991 185.50876 
L 806.202571 185.585298 
L 802.244151 185.410244 
L 798.28573 185.513395 
L 794.32731 188.235781 
L 790.36889 185.492106 
L 786.410469 185.335997 
L 782.452049 186.403504 
L 778.493629 185.945311 
L 774.535209 185.409081 
L 770.576788 185.452981 
L 766.618368 185.52196 
L 762.659948 185.230608 
L 758.701528 185.72181 
L 754.743107 185.73864 
L 750.784687 185.613199 
L 746.826267 185.679989 
L 742.867846 185.327978 
L 738.909426 185.127601 
L 734.951006 185.585686 
L 730.992586 185.155781 
L 727.034165 185.699657 
L 723.075745 185.088757 
L 719.117325 185.798862 
L 715.158905 185.368635 
L 711.200484 186.534869 
L 707.242064 185.299005 
L 703.283644 185.496743 
L 699.325224 185.115263 
L 695.366803 185.630133 
L 691.408383 185.446161 
L 687.449963 185.422123 
L 683.491542 185.635666 
L 679.533122 185.422581 
L 675.574702 185.419532 
L 671.616282 185.343751 
L 667.657861 185.353235 
L 663.699441 185.467221 
L 659.741021 185.404713 
L 655.782601 185.544853 
L 651.82418 185.542546 
L 647.86576 185.288116 
L 643.90734 185.302688 
L 639.94892 185.297489 
L 635.990499 185.364159 
L 632.032079 185.423991 
L 628.073659 185.409628 
L 624.115238 185.506927 
L 620.156818 185.615611 
L 616.198398 185.35533 
L 612.239978 185.449827 
L 608.281557 185.410086 
L 604.323137 185.408835 
L 600.364717 185.341319 
L 596.406297 185.397769 
L 592.447876 185.748053 
L 588.489456 185.343258 
L 584.531036 185.343698 
L 580.572615 185.402913 
L 576.614195 185.661714 
L 572.655775 185.564327 
L 568.697355 187.18054 
L 564.738934 185.499756 
L 560.780514 187.503173 
L 556.822094 185.141257 
L 552.863674 185.154228 
L 548.905253 185.079789 
L 544.946833 185.256323 
L 540.988413 185.048772 
L 537.029993 184.974627 
L 533.071572 185.148818 
L 529.113152 185.236354 
L 525.154732 187.385219 
L 521.196311 185.300999 
L 517.237891 185.484862 
L 513.279471 185.324048 
L 509.321051 186.943436 
L 505.36263 185.418792 
L 501.40421 187.433226 
L 497.44579 185.659969 
L 493.48737 185.592295 
L 489.528949 185.365498 
L 485.570529 185.369429 
L 481.612109 185.346485 
L 477.653689 185.384338 
L 473.695268 185.538543 
L 469.736848 185.280765 
L 465.778428 185.741445 
L 461.820007 185.599855 
L 457.861587 185.439394 
L 453.903167 185.610837 
L 449.944747 185.752528 
L 445.986326 185.307975 
L 442.027906 185.457951 
L 438.069486 185.292028 
L 434.111066 185.774504 
L 430.152645 185.399477 
L 426.194225 185.30045 
L 422.235805 185.620228 
L 418.277385 185.483981 
L 414.318964 185.40896 
L 410.360544 186.391802 
L 406.402124 186.581977 
L 402.443703 185.636321 
L 398.485283 185.628635 
L 394.526863 185.635279 
L 390.568443 185.297278 
L 386.610022 185.499719 
L 382.651602 185.367226 
L 378.693182 185.324735 
L 374.734762 185.431498 
L 370.776341 185.795476 
L 366.817921 185.622273 
L 362.859501 185.345196 
L 358.90108 185.347102 
L 354.94266 185.418193 
L 350.98424 185.350977 
L 347.02582 185.331064 
L 343.067399 185.325548 
L 339.108979 185.958601 
L 335.150559 185.363613 
L 331.192139 185.386823 
L 327.233718 185.353252 
L 323.275298 185.387845 
L 319.316878 185.364705 
L 315.358458 185.390612 
L 311.400037 185.504479 
L 307.441617 185.552536 
L 303.483197 185.491771 
L 299.524776 187.452506 
L 295.566356 185.372689 
L 291.607936 185.355576 
L 287.649516 185.371156 
L 283.691095 185.408746 
L 279.732675 185.502327 
L 275.774255 185.642592 
L 271.815835 185.500215 
L 267.857414 185.323801 
L 263.898994 185.367208 
L 259.940574 185.415056 
L 255.982154 185.656832 
L 252.023733 185.359086 
L 248.065313 185.332402 
L 244.106893 185.523088 
L 240.148472 186.235288 
L 236.190052 186.485067 
L 232.231632 185.273788 
L 228.273212 185.898186 
L 224.314791 185.332402 
L 220.356371 185.395212 
L 216.397951 185.429207 
L 212.439531 185.454709 
L 208.48111 185.667688 
L 204.52269 185.421226 
L 200.56427 185.616988 
L 196.605849 186.156475 
L 192.647429 185.392374 
L 188.689009 185.356599 
L 184.730589 185.355438 
L 180.772168 185.713474 
L 176.813748 185.622995 
L 172.855328 185.488986 
L 168.896908 185.370241 
L 164.938487 185.583785 
L 160.980067 185.585915 
L 157.021647 185.647791 
L 153.063227 187.143372 
L 149.104806 185.615963 
L 145.146386 185.608544 
L 141.187966 185.366873 
L 137.229545 186.911553 
z
" clip-path="url(#p9ce83529f9)" style="fill: #1f77b4"/>
   </g>
   <g id="PolyCollection_2">
    <path d="M 137.229545 49.66288 
L 137.229545 186.911553 
L 141.187966 185.366873 
L 145.146386 185.608544 
L 149.104806 185.615963 
L 153.063227 187.143372 
L 157.021647 185.647791 
L 160.980067 185.585915 
L 164.938487 185.583785 
L 168.896908 185.370241 
L 172.855328 185.488986 
L 176.813748 185.622995 
L 180.772168 185.713474 
L 184.730589 185.355438 
L 188.689009 185.356599 
L 192.647429 185.392374 
L 196.605849 186.156475 
L 200.56427 185.616988 
L 204.52269 185.421226 
L 208.48111 185.667688 
L 212.439531 185.454709 
L 216.397951 185.429207 
L 220.356371 185.395212 
L 224.314791 185.332402 
L 228.273212 185.898186 
L 232.231632 185.273788 
L 236.190052 186.485067 
L 240.148472 186.235288 
L 244.106893 185.523088 
L 248.065313 185.332402 
L 252.023733 185.359086 
L 255.982154 185.656832 
L 259.940574 185.415056 
L 263.898994 185.367208 
L 267.857414 185.323801 
L 271.815835 185.500215 
L 275.774255 185.642592 
L 279.732675 185.502327 
L 283.691095 185.408746 
L 287.649516 185.371156 
L 291.607936 185.355576 
L 295.566356 185.372689 
L 299.524776 187.452506 
L 303.483197 185.491771 
L 307.441617 185.552536 
L 311.400037 185.504479 
L 315.358458 185.390612 
L 319.316878 185.364705 
L 323.275298 185.387845 
L 327.233718 185.353252 
L 331.192139 185.386823 
L 335.150559 185.363613 
L 339.108979 185.958601 
L 343.067399 185.325548 
L 347.02582 185.331064 
L 350.98424 185.350977 
L 354.94266 185.418193 
L 358.90108 185.347102 
L 362.859501 185.345196 
L 366.817921 185.622273 
L 370.776341 185.795476 
L 374.734762 185.431498 
L 378.693182 185.324735 
L 382.651602 185.367226 
L 386.610022 185.499719 
L 390.568443 185.297278 
L 394.526863 185.635279 
L 398.485283 185.628635 
L 402.443703 185.636321 
L 406.402124 186.581977 
L 410.360544 186.391802 
L 414.318964 185.40896 
L 418.277385 185.483981 
L 422.235805 185.620228 
L 426.194225 185.30045 
L 430.152645 185.399477 
L 434.111066 185.774504 
L 438.069486 185.292028 
L 442.027906 185.457951 
L 445.986326 185.307975 
L 449.944747 185.752528 
L 453.903167 185.610837 
L 457.861587 185.439394 
L 461.820007 185.599855 
L 465.778428 185.741445 
L 469.736848 185.280765 
L 473.695268 185.538543 
L 477.653689 185.384338 
L 481.612109 185.346485 
L 485.570529 185.369429 
L 489.528949 185.365498 
L 493.48737 185.592295 
L 497.44579 185.659969 
L 501.40421 187.433226 
L 505.36263 185.418792 
L 509.321051 186.943436 
L 513.279471 185.324048 
L 517.237891 185.484862 
L 521.196311 185.300999 
L 525.154732 187.385219 
L 529.113152 185.236354 
L 533.071572 185.148818 
L 537.029993 184.974627 
L 540.988413 185.048772 
L 544.946833 185.256323 
L 548.905253 185.079789 
L 552.863674 185.154228 
L 556.822094 185.141257 
L 560.780514 187.503173 
L 564.738934 185.499756 
L 568.697355 187.18054 
L 572.655775 185.564327 
L 576.614195 185.661714 
L 580.572615 185.402913 
L 584.531036 185.343698 
L 588.489456 185.343258 
L 592.447876 185.748053 
L 596.406297 185.397769 
L 600.364717 185.341319 
L 604.323137 185.408835 
L 608.281557 185.410086 
L 612.239978 185.449827 
L 616.198398 185.35533 
L 620.156818 185.615611 
L 624.115238 185.506927 
L 628.073659 185.409628 
L 632.032079 185.423991 
L 635.990499 185.364159 
L 639.94892 185.297489 
L 643.90734 185.302688 
L 647.86576 185.288116 
L 651.82418 185.542546 
L 655.782601 185.544853 
L 659.741021 185.404713 
L 663.699441 185.467221 
L 667.657861 185.353235 
L 671.616282 185.343751 
L 675.574702 185.419532 
L 679.533122 185.422581 
L 683.491542 185.635666 
L 687.449963 185.422123 
L 691.408383 185.446161 
L 695.366803 185.630133 
L 699.325224 185.115263 
L 703.283644 185.496743 
L 707.242064 185.299005 
L 711.200484 186.534869 
L 715.158905 185.368635 
L 719.117325 185.798862 
L 723.075745 185.088757 
L 727.034165 185.699657 
L 730.992586 185.155781 
L 734.951006 185.585686 
L 738.909426 185.127601 
L 742.867846 185.327978 
L 746.826267 185.679989 
L 750.784687 185.613199 
L 754.743107 185.73864 
L 758.701528 185.72181 
L 762.659948 185.230608 
L 766.618368 185.52196 
L 770.576788 185.452981 
L 774.535209 185.409081 
L 778.493629 185.945311 
L 782.452049 186.403504 
L 786.410469 185.335997 
L 790.36889 185.492106 
L 794.32731 188.235781 
L 798.28573 185.513395 
L 802.244151 185.410244 
L 806.202571 185.585298 
L 810.160991 185.50876 
L 814.119411 185.891154 
L 818.077832 185.210996 
L 822.036252 185.35216 
L 825.994672 185.678652 
L 829.953092 185.343399 
L 833.911513 185.097095 
L 837.869933 185.681822 
L 841.828353 185.334287 
L 845.786773 185.511967 
L 849.745194 185.69409 
L 853.703614 185.013628 
L 857.662034 185.487576 
L 861.620455 185.43996 
L 861.620455 39.146689 
L 861.620455 39.146689 
L 857.662034 39.524411 
L 853.703614 38.794817 
L 849.745194 39.380993 
L 845.786773 39.205779 
L 841.828353 39.027676 
L 837.869933 39.520393 
L 833.911513 38.73111 
L 829.953092 39.062253 
L 825.994672 39.859365 
L 822.036252 39.057973 
L 818.077832 39.101838 
L 814.119411 39.576947 
L 810.160991 39.398773 
L 806.202571 39.283765 
L 802.244151 39.309636 
L 798.28573 41.065884 
L 794.32731 43.329848 
L 790.36889 39.34689 
L 786.410469 40.119926 
L 782.452049 40.231342 
L 778.493629 39.704417 
L 774.535209 39.252587 
L 770.576788 39.11456 
L 766.618368 39.566373 
L 762.659948 39.164751 
L 758.701528 39.831712 
L 754.743107 39.480264 
L 750.784687 39.337624 
L 746.826267 39.340334 
L 742.867846 39.057037 
L 738.909426 38.919049 
L 734.951006 39.190799 
L 730.992586 39.082998 
L 727.034165 39.532236 
L 723.075745 38.82416 
L 719.117325 39.524607 
L 715.158905 39.32844 
L 711.200484 41.078731 
L 707.242064 39.038003 
L 703.283644 39.161282 
L 699.325224 39.16634 
L 695.366803 39.363932 
L 691.408383 39.180808 
L 687.449963 39.139832 
L 683.491542 39.433088 
L 679.533122 39.063099 
L 675.574702 39.088124 
L 671.616282 38.977449 
L 667.657861 39.459436 
L 663.699441 39.178515 
L 659.741021 39.148205 
L 655.782601 39.338008 
L 651.82418 39.330009 
L 647.86576 38.936214 
L 643.90734 39.179802 
L 639.94892 39.115969 
L 635.990499 39.406107 
L 632.032079 39.351754 
L 628.073659 39.025616 
L 624.115238 39.220847 
L 620.156818 39.387371 
L 616.198398 39.048225 
L 612.239978 39.184067 
L 608.281557 39.143233 
L 604.323137 39.448718 
L 600.364717 39.25019 
L 596.406297 39.018937 
L 592.447876 39.526759 
L 588.489456 39.109698 
L 584.531036 39.088512 
L 580.572615 39.387336 
L 576.614195 39.41111 
L 572.655775 41.650437 
L 568.697355 40.891676 
L 564.738934 41.193022 
L 560.780514 40.838541 
L 556.822094 38.622671 
L 552.863674 38.494654 
L 548.905253 38.490638 
L 544.946833 38.611341 
L 540.988413 38.764436 
L 537.029993 38.464024 
L 533.071572 38.370602 
L 529.113152 40.70855 
L 525.154732 40.992182 
L 521.196311 39.16967 
L 517.237891 39.156876 
L 513.279471 40.431051 
L 509.321051 41.130423 
L 505.36263 41.35075 
L 501.40421 41.19027 
L 497.44579 39.421369 
L 493.48737 39.316348 
L 489.528949 39.013489 
L 485.570529 39.114912 
L 481.612109 39.111566 
L 477.653689 39.593936 
L 473.695268 39.333531 
L 469.736848 39.177337 
L 465.778428 39.440455 
L 461.820007 39.366329 
L 457.861587 39.392781 
L 453.903167 39.694304 
L 449.944747 39.360742 
L 445.986326 39.506312 
L 442.027906 39.219772 
L 438.069486 38.977927 
L 434.111066 39.479421 
L 430.152645 39.158515 
L 426.194225 39.177037 
L 422.235805 39.48363 
L 418.277385 39.154267 
L 414.318964 40.462934 
L 410.360544 41.514683 
L 406.402124 40.268177 
L 402.443703 39.596687 
L 398.485283 39.470889 
L 394.526863 39.510101 
L 390.568443 39.054851 
L 386.610022 39.158336 
L 382.651602 39.246242 
L 378.693182 39.398018 
L 374.734762 39.278513 
L 370.776341 39.730659 
L 366.817921 39.249344 
L 362.859501 39.114701 
L 358.90108 39.089378 
L 354.94266 39.075629 
L 350.98424 39.218855 
L 347.02582 39.357609 
L 343.067399 39.086558 
L 339.108979 39.859541 
L 335.150559 39.111777 
L 331.192139 39.080652 
L 327.233718 39.078222 
L 323.275298 39.108056 
L 319.316878 39.491438 
L 315.358458 39.287801 
L 311.400037 39.206592 
L 307.441617 39.270353 
L 303.483197 40.359202 
L 299.524776 42.177046 
L 295.566356 39.175396 
L 291.607936 39.001331 
L 287.649516 39.473285 
L 283.691095 39.250807 
L 279.732675 39.278493 
L 275.774255 39.425246 
L 271.815835 39.233626 
L 267.857414 38.998652 
L 263.898994 39.087648 
L 259.940574 39.528132 
L 255.982154 39.526103 
L 252.023733 39.219001 
L 248.065313 39.033474 
L 244.106893 39.492497 
L 240.148472 41.324015 
L 236.190052 40.549448 
L 232.231632 39.195418 
L 228.273212 39.735875 
L 224.314791 39.20636 
L 220.356371 39.458499 
L 216.397951 38.821607 
L 212.439531 39.549824 
L 208.48111 39.326676 
L 204.52269 39.200866 
L 200.56427 40.120635 
L 196.605849 40.116824 
L 192.647429 39.020468 
L 188.689009 39.458446 
L 184.730589 38.732168 
L 180.772168 39.779423 
L 176.813748 39.257786 
L 172.855328 39.559217 
L 168.896908 38.906625 
L 164.938487 39.491175 
L 160.980067 39.850639 
L 157.021647 41.551287 
L 153.063227 40.924898 
L 149.104806 39.196791 
L 145.146386 39.591698 
L 141.187966 40.709522 
L 137.229545 49.66288 
z
" clip-path="url(#p9ce83529f9)" style="fill: #ff7f0e"/>
   </g>
   <g id="matplotlib.axis_1">
    <g id="xtick_1">
     <g id="line2d_1">
      <path d="M 137.229545 331.64 
L 137.229545 23.76 
" clip-path="url(#p9ce83529f9)" style="fill: none; stroke-dasharray: 5.12,1.28,0.8,1.28; stroke-dashoffset: 0; stroke: #b0b0b0; stroke-width: 0.8"/>
     </g>
     <g id="line2d_2">
      <defs>
       <path id="m971a79c4cc" d="M 0 0 
L 0 3.5 
" style="stroke: #000000; stroke-width: 0.8"/>
      </defs>
      <g>
       <use xlink:href="#m971a79c4cc" x="137.229545" y="331.64" style="stroke: #000000; stroke-width: 0.8"/>
      </g>
     </g>
     <g id="text_1">
      <!-- 0 -->
      <g transform="translate(130.230795 355.356563)scale(0.22 -0.22)">
       <defs>
        <path id="DejaVuSans-30" d="M 2034 4250 
Q 1547 4250 1301 3770 
Q 1056 3291 1056 2328 
Q 1056 1369 1301 889 
Q 1547 409 2034 409 
Q 2525 409 2770 889 
Q 3016 1369 3016 2328 
Q 3016 3291 2770 3770 
Q 2525 4250 2034 4250 
z
M 2034 4750 
Q 2819 4750 3233 4129 
Q 3647 3509 3647 2328 
Q 3647 1150 3233 529 
Q 2819 -91 2034 -91 
Q 1250 -91 836 529 
Q 422 1150 422 2328 
Q 422 3509 836 4129 
Q 1250 4750 2034 4750 
z
" transform="scale(0.015625)"/>
       </defs>
       <use xlink:href="#DejaVuSans-30"/>
      </g>
     </g>
    </g>
    <g id="xtick_2">
     <g id="line2d_3">
      <path d="M 236.190052 331.64 
L 236.190052 23.76 
" clip-path="url(#p9ce83529f9)" style="fill: none; stroke-dasharray: 5.12,1.28,0.8,1.28; stroke-dashoffset: 0; stroke: #b0b0b0; stroke-width: 0.8"/>
     </g>
     <g id="line2d_4">
      <g>
       <use xlink:href="#m971a79c4cc" x="236.190052" y="331.64" style="stroke: #000000; stroke-width: 0.8"/>
      </g>
     </g>
     <g id="text_2">
      <!-- 25 -->
      <g transform="translate(222.192552 355.356563)scale(0.22 -0.22)">
       <defs>
        <path id="DejaVuSans-32" d="M 1228 531 
L 3431 531 
L 3431 0 
L 469 0 
L 469 531 
Q 828 903 1448 1529 
Q 2069 2156 2228 2338 
Q 2531 2678 2651 2914 
Q 2772 3150 2772 3378 
Q 2772 3750 2511 3984 
Q 2250 4219 1831 4219 
Q 1534 4219 1204 4116 
Q 875 4013 500 3803 
L 500 4441 
Q 881 4594 1212 4672 
Q 1544 4750 1819 4750 
Q 2544 4750 2975 4387 
Q 3406 4025 3406 3419 
Q 3406 3131 3298 2873 
Q 3191 2616 2906 2266 
Q 2828 2175 2409 1742 
Q 1991 1309 1228 531 
z
" transform="scale(0.015625)"/>
        <path id="DejaVuSans-35" d="M 691 4666 
L 3169 4666 
L 3169 4134 
L 1269 4134 
L 1269 2991 
Q 1406 3038 1543 3061 
Q 1681 3084 1819 3084 
Q 2600 3084 3056 2656 
Q 3513 2228 3513 1497 
Q 3513 744 3044 326 
Q 2575 -91 1722 -91 
Q 1428 -91 1123 -41 
Q 819 9 494 109 
L 494 744 
Q 775 591 1075 516 
Q 1375 441 1709 441 
Q 2250 441 2565 725 
Q 2881 1009 2881 1497 
Q 2881 1984 2565 2268 
Q 2250 2553 1709 2553 
Q 1456 2553 1204 2497 
Q 953 2441 691 2322 
L 691 4666 
z
" transform="scale(0.015625)"/>
       </defs>
       <use xlink:href="#DejaVuSans-32"/>
       <use xlink:href="#DejaVuSans-35" x="63.623047"/>
      </g>
     </g>
    </g>
    <g id="xtick_3">
     <g id="line2d_5">
      <path d="M 335.150559 331.64 
L 335.150559 23.76 
" clip-path="url(#p9ce83529f9)" style="fill: none; stroke-dasharray: 5.12,1.28,0.8,1.28; stroke-dashoffset: 0; stroke: #b0b0b0; stroke-width: 0.8"/>
     </g>
     <g id="line2d_6">
      <g>
       <use xlink:href="#m971a79c4cc" x="335.150559" y="331.64" style="stroke: #000000; stroke-width: 0.8"/>
      </g>
     </g>
     <g id="text_3">
      <!-- 50 -->
      <g transform="translate(321.153059 355.356563)scale(0.22 -0.22)">
       <use xlink:href="#DejaVuSans-35"/>
       <use xlink:href="#DejaVuSans-30" x="63.623047"/>
      </g>
     </g>
    </g>
    <g id="xtick_4">
     <g id="line2d_7">
      <path d="M 434.111066 331.64 
L 434.111066 23.76 
" clip-path="url(#p9ce83529f9)" style="fill: none; stroke-dasharray: 5.12,1.28,0.8,1.28; stroke-dashoffset: 0; stroke: #b0b0b0; stroke-width: 0.8"/>
     </g>
     <g id="line2d_8">
      <g>
       <use xlink:href="#m971a79c4cc" x="434.111066" y="331.64" style="stroke: #000000; stroke-width: 0.8"/>
      </g>
     </g>
     <g id="text_4">
      <!-- 75 -->
      <g transform="translate(420.113566 355.356563)scale(0.22 -0.22)">
       <defs>
        <path id="DejaVuSans-37" d="M 525 4666 
L 3525 4666 
L 3525 4397 
L 1831 0 
L 1172 0 
L 2766 4134 
L 525 4134 
L 525 4666 
z
" transform="scale(0.015625)"/>
       </defs>
       <use xlink:href="#DejaVuSans-37"/>
       <use xlink:href="#DejaVuSans-35" x="63.623047"/>
      </g>
     </g>
    </g>
    <g id="xtick_5">
     <g id="line2d_9">
      <path d="M 533.071572 331.64 
L 533.071572 23.76 
" clip-path="url(#p9ce83529f9)" style="fill: none; stroke-dasharray: 5.12,1.28,0.8,1.28; stroke-dashoffset: 0; stroke: #b0b0b0; stroke-width: 0.8"/>
     </g>
     <g id="line2d_10">
      <g>
       <use xlink:href="#m971a79c4cc" x="533.071572" y="331.64" style="stroke: #000000; stroke-width: 0.8"/>
      </g>
     </g>
     <g id="text_5">
      <!-- 100 -->
      <g transform="translate(512.075322 355.356563)scale(0.22 -0.22)">
       <defs>
        <path id="DejaVuSans-31" d="M 794 531 
L 1825 531 
L 1825 4091 
L 703 3866 
L 703 4441 
L 1819 4666 
L 2450 4666 
L 2450 531 
L 3481 531 
L 3481 0 
L 794 0 
L 794 531 
z
" transform="scale(0.015625)"/>
       </defs>
       <use xlink:href="#DejaVuSans-31"/>
       <use xlink:href="#DejaVuSans-30" x="63.623047"/>
       <use xlink:href="#DejaVuSans-30" x="127.246094"/>
      </g>
     </g>
    </g>
    <g id="xtick_6">
     <g id="line2d_11">
      <path d="M 632.032079 331.64 
L 632.032079 23.76 
" clip-path="url(#p9ce83529f9)" style="fill: none; stroke-dasharray: 5.12,1.28,0.8,1.28; stroke-dashoffset: 0; stroke: #b0b0b0; stroke-width: 0.8"/>
     </g>
     <g id="line2d_12">
      <g>
       <use xlink:href="#m971a79c4cc" x="632.032079" y="331.64" style="stroke: #000000; stroke-width: 0.8"/>
      </g>
     </g>
     <g id="text_6">
      <!-- 125 -->
      <g transform="translate(611.035829 355.356563)scale(0.22 -0.22)">
       <use xlink:href="#DejaVuSans-31"/>
       <use xlink:href="#DejaVuSans-32" x="63.623047"/>
       <use xlink:href="#DejaVuSans-35" x="127.246094"/>
      </g>
     </g>
    </g>
    <g id="xtick_7">
     <g id="line2d_13">
      <path d="M 730.992586 331.64 
L 730.992586 23.76 
" clip-path="url(#p9ce83529f9)" style="fill: none; stroke-dasharray: 5.12,1.28,0.8,1.28; stroke-dashoffset: 0; stroke: #b0b0b0; stroke-width: 0.8"/>
     </g>
     <g id="line2d_14">
      <g>
       <use xlink:href="#m971a79c4cc" x="730.992586" y="331.64" style="stroke: #000000; stroke-width: 0.8"/>
      </g>
     </g>
     <g id="text_7">
      <!-- 150 -->
      <g transform="translate(709.996336 355.356563)scale(0.22 -0.22)">
       <use xlink:href="#DejaVuSans-31"/>
       <use xlink:href="#DejaVuSans-35" x="63.623047"/>
       <use xlink:href="#DejaVuSans-30" x="127.246094"/>
      </g>
     </g>
    </g>
    <g id="xtick_8">
     <g id="line2d_15">
      <path d="M 829.953092 331.64 
L 829.953092 23.76 
" clip-path="url(#p9ce83529f9)" style="fill: none; stroke-dasharray: 5.12,1.28,0.8,1.28; stroke-dashoffset: 0; stroke: #b0b0b0; stroke-width: 0.8"/>
     </g>
     <g id="line2d_16">
      <g>
       <use xlink:href="#m971a79c4cc" x="829.953092" y="331.64" style="stroke: #000000; stroke-width: 0.8"/>
      </g>
     </g>
     <g id="text_8">
      <!-- 175 -->
      <g transform="translate(808.956842 355.356563)scale(0.22 -0.22)">
       <use xlink:href="#DejaVuSans-31"/>
       <use xlink:href="#DejaVuSans-37" x="63.623047"/>
       <use xlink:href="#DejaVuSans-35" x="127.246094"/>
      </g>
     </g>
    </g>
    <g id="text_9">
     <!-- Time (s) -->
     <g transform="translate(450.635625 382.168125)scale(0.24 -0.24)">
      <defs>
       <path id="DejaVuSans-54" d="M -19 4666 
L 3928 4666 
L 3928 4134 
L 2272 4134 
L 2272 0 
L 1638 0 
L 1638 4134 
L -19 4134 
L -19 4666 
z
" transform="scale(0.015625)"/>
       <path id="DejaVuSans-69" d="M 603 3500 
L 1178 3500 
L 1178 0 
L 603 0 
L 603 3500 
z
M 603 4863 
L 1178 4863 
L 1178 4134 
L 603 4134 
L 603 4863 
z
" transform="scale(0.015625)"/>
       <path id="DejaVuSans-6d" d="M 3328 2828 
Q 3544 3216 3844 3400 
Q 4144 3584 4550 3584 
Q 5097 3584 5394 3201 
Q 5691 2819 5691 2113 
L 5691 0 
L 5113 0 
L 5113 2094 
Q 5113 2597 4934 2840 
Q 4756 3084 4391 3084 
Q 3944 3084 3684 2787 
Q 3425 2491 3425 1978 
L 3425 0 
L 2847 0 
L 2847 2094 
Q 2847 2600 2669 2842 
Q 2491 3084 2119 3084 
Q 1678 3084 1418 2786 
Q 1159 2488 1159 1978 
L 1159 0 
L 581 0 
L 581 3500 
L 1159 3500 
L 1159 2956 
Q 1356 3278 1631 3431 
Q 1906 3584 2284 3584 
Q 2666 3584 2933 3390 
Q 3200 3197 3328 2828 
z
" transform="scale(0.015625)"/>
       <path id="DejaVuSans-65" d="M 3597 1894 
L 3597 1613 
L 953 1613 
Q 991 1019 1311 708 
Q 1631 397 2203 397 
Q 2534 397 2845 478 
Q 3156 559 3463 722 
L 3463 178 
Q 3153 47 2828 -22 
Q 2503 -91 2169 -91 
Q 1331 -91 842 396 
Q 353 884 353 1716 
Q 353 2575 817 3079 
Q 1281 3584 2069 3584 
Q 2775 3584 3186 3129 
Q 3597 2675 3597 1894 
z
M 3022 2063 
Q 3016 2534 2758 2815 
Q 2500 3097 2075 3097 
Q 1594 3097 1305 2825 
Q 1016 2553 972 2059 
L 3022 2063 
z
" transform="scale(0.015625)"/>
       <path id="DejaVuSans-20" transform="scale(0.015625)"/>
       <path id="DejaVuSans-28" d="M 1984 4856 
Q 1566 4138 1362 3434 
Q 1159 2731 1159 2009 
Q 1159 1288 1364 580 
Q 1569 -128 1984 -844 
L 1484 -844 
Q 1016 -109 783 600 
Q 550 1309 550 2009 
Q 550 2706 781 3412 
Q 1013 4119 1484 4856 
L 1984 4856 
z
" transform="scale(0.015625)"/>
       <path id="DejaVuSans-73" d="M 2834 3397 
L 2834 2853 
Q 2591 2978 2328 3040 
Q 2066 3103 1784 3103 
Q 1356 3103 1142 2972 
Q 928 2841 928 2578 
Q 928 2378 1081 2264 
Q 1234 2150 1697 2047 
L 1894 2003 
Q 2506 1872 2764 1633 
Q 3022 1394 3022 966 
Q 3022 478 2636 193 
Q 2250 -91 1575 -91 
Q 1294 -91 989 -36 
Q 684 19 347 128 
L 347 722 
Q 666 556 975 473 
Q 1284 391 1588 391 
Q 1994 391 2212 530 
Q 2431 669 2431 922 
Q 2431 1156 2273 1281 
Q 2116 1406 1581 1522 
L 1381 1569 
Q 847 1681 609 1914 
Q 372 2147 372 2553 
Q 372 3047 722 3315 
Q 1072 3584 1716 3584 
Q 2034 3584 2315 3537 
Q 2597 3491 2834 3397 
z
" transform="scale(0.015625)"/>
       <path id="DejaVuSans-29" d="M 513 4856 
L 1013 4856 
Q 1481 4119 1714 3412 
Q 1947 2706 1947 2009 
Q 1947 1309 1714 600 
Q 1481 -109 1013 -844 
L 513 -844 
Q 928 -128 1133 580 
Q 1338 1288 1338 2009 
Q 1338 2731 1133 3434 
Q 928 4138 513 4856 
z
" transform="scale(0.015625)"/>
      </defs>
      <use xlink:href="#DejaVuSans-54"/>
      <use xlink:href="#DejaVuSans-69" x="57.958984"/>
      <use xlink:href="#DejaVuSans-6d" x="85.742188"/>
      <use xlink:href="#DejaVuSans-65" x="183.154297"/>
      <use xlink:href="#DejaVuSans-20" x="244.677734"/>
      <use xlink:href="#DejaVuSans-28" x="276.464844"/>
      <use xlink:href="#DejaVuSans-73" x="315.478516"/>
      <use xlink:href="#DejaVuSans-29" x="367.578125"/>
     </g>
    </g>
   </g>
   <g id="matplotlib.axis_2">
    <g id="ytick_1">
     <g id="line2d_17">
      <path d="M 101.01 331.64 
L 897.84 331.64 
" clip-path="url(#p9ce83529f9)" style="fill: none; stroke-dasharray: 5.12,1.28,0.8,1.28; stroke-dashoffset: 0; stroke: #b0b0b0; stroke-width: 0.8"/>
     </g>
     <g id="line2d_18">
      <defs>
       <path id="mab3e5da880" d="M 0 0 
L -3.5 0 
" style="stroke: #000000; stroke-width: 0.8"/>
      </defs>
      <g>
       <use xlink:href="#mab3e5da880" x="101.01" y="331.64" style="stroke: #000000; stroke-width: 0.8"/>
      </g>
     </g>
     <g id="text_10">
      <!-- 0 -->
      <g transform="translate(80.0125 339.998281)scale(0.22 -0.22)">
       <use xlink:href="#DejaVuSans-30"/>
      </g>
     </g>
    </g>
    <g id="ytick_2">
     <g id="line2d_19">
      <path d="M 101.01 276.566636 
L 897.84 276.566636 
" clip-path="url(#p9ce83529f9)" style="fill: none; stroke-dasharray: 5.12,1.28,0.8,1.28; stroke-dashoffset: 0; stroke: #b0b0b0; stroke-width: 0.8"/>
     </g>
     <g id="line2d_20">
      <g>
       <use xlink:href="#mab3e5da880" x="101.01" y="276.566636" style="stroke: #000000; stroke-width: 0.8"/>
      </g>
     </g>
     <g id="text_11">
      <!-- 25 -->
      <g transform="translate(66.015 284.924918)scale(0.22 -0.22)">
       <use xlink:href="#DejaVuSans-32"/>
       <use xlink:href="#DejaVuSans-35" x="63.623047"/>
      </g>
     </g>
    </g>
    <g id="ytick_3">
     <g id="line2d_21">
      <path d="M 101.01 221.493273 
L 897.84 221.493273 
" clip-path="url(#p9ce83529f9)" style="fill: none; stroke-dasharray: 5.12,1.28,0.8,1.28; stroke-dashoffset: 0; stroke: #b0b0b0; stroke-width: 0.8"/>
     </g>
     <g id="line2d_22">
      <g>
       <use xlink:href="#mab3e5da880" x="101.01" y="221.493273" style="stroke: #000000; stroke-width: 0.8"/>
      </g>
     </g>
     <g id="text_12">
      <!-- 50 -->
      <g transform="translate(66.015 229.851554)scale(0.22 -0.22)">
       <use xlink:href="#DejaVuSans-35"/>
       <use xlink:href="#DejaVuSans-30" x="63.623047"/>
      </g>
     </g>
    </g>
    <g id="ytick_4">
     <g id="line2d_23">
      <path d="M 101.01 166.419909 
L 897.84 166.419909 
" clip-path="url(#p9ce83529f9)" style="fill: none; stroke-dasharray: 5.12,1.28,0.8,1.28; stroke-dashoffset: 0; stroke: #b0b0b0; stroke-width: 0.8"/>
     </g>
     <g id="line2d_24">
      <g>
       <use xlink:href="#mab3e5da880" x="101.01" y="166.419909" style="stroke: #000000; stroke-width: 0.8"/>
      </g>
     </g>
     <g id="text_13">
      <!-- 75 -->
      <g transform="translate(66.015 174.77819)scale(0.22 -0.22)">
       <use xlink:href="#DejaVuSans-37"/>
       <use xlink:href="#DejaVuSans-35" x="63.623047"/>
      </g>
     </g>
    </g>
    <g id="ytick_5">
     <g id="line2d_25">
      <path d="M 101.01 111.346545 
L 897.84 111.346545 
" clip-path="url(#p9ce83529f9)" style="fill: none; stroke-dasharray: 5.12,1.28,0.8,1.28; stroke-dashoffset: 0; stroke: #b0b0b0; stroke-width: 0.8"/>
     </g>
     <g id="line2d_26">
      <g>
       <use xlink:href="#mab3e5da880" x="101.01" y="111.346545" style="stroke: #000000; stroke-width: 0.8"/>
      </g>
     </g>
     <g id="text_14">
      <!-- 100 -->
      <g transform="translate(52.0175 119.704826)scale(0.22 -0.22)">
       <use xlink:href="#DejaVuSans-31"/>
       <use xlink:href="#DejaVuSans-30" x="63.623047"/>
       <use xlink:href="#DejaVuSans-30" x="127.246094"/>
      </g>
     </g>
    </g>
    <g id="ytick_6">
     <g id="line2d_27">
      <path d="M 101.01 56.273181 
L 897.84 56.273181 
" clip-path="url(#p9ce83529f9)" style="fill: none; stroke-dasharray: 5.12,1.28,0.8,1.28; stroke-dashoffset: 0; stroke: #b0b0b0; stroke-width: 0.8"/>
     </g>
     <g id="line2d_28">
      <g>
       <use xlink:href="#mab3e5da880" x="101.01" y="56.273181" style="stroke: #000000; stroke-width: 0.8"/>
      </g>
     </g>
     <g id="text_15">
      <!-- 125 -->
      <g transform="translate(52.0175 64.631463)scale(0.22 -0.22)">
       <use xlink:href="#DejaVuSans-31"/>
       <use xlink:href="#DejaVuSans-32" x="63.623047"/>
       <use xlink:href="#DejaVuSans-35" x="127.246094"/>
      </g>
     </g>
    </g>
    <g id="text_16">
     <!-- Throughput (Mbps) -->
     <g transform="translate(43.02625 292.414375)rotate(-90)scale(0.24 -0.24)">
      <defs>
       <path id="DejaVuSans-68" d="M 3513 2113 
L 3513 0 
L 2938 0 
L 2938 2094 
Q 2938 2591 2744 2837 
Q 2550 3084 2163 3084 
Q 1697 3084 1428 2787 
Q 1159 2491 1159 1978 
L 1159 0 
L 581 0 
L 581 4863 
L 1159 4863 
L 1159 2956 
Q 1366 3272 1645 3428 
Q 1925 3584 2291 3584 
Q 2894 3584 3203 3211 
Q 3513 2838 3513 2113 
z
" transform="scale(0.015625)"/>
       <path id="DejaVuSans-72" d="M 2631 2963 
Q 2534 3019 2420 3045 
Q 2306 3072 2169 3072 
Q 1681 3072 1420 2755 
Q 1159 2438 1159 1844 
L 1159 0 
L 581 0 
L 581 3500 
L 1159 3500 
L 1159 2956 
Q 1341 3275 1631 3429 
Q 1922 3584 2338 3584 
Q 2397 3584 2469 3576 
Q 2541 3569 2628 3553 
L 2631 2963 
z
" transform="scale(0.015625)"/>
       <path id="DejaVuSans-6f" d="M 1959 3097 
Q 1497 3097 1228 2736 
Q 959 2375 959 1747 
Q 959 1119 1226 758 
Q 1494 397 1959 397 
Q 2419 397 2687 759 
Q 2956 1122 2956 1747 
Q 2956 2369 2687 2733 
Q 2419 3097 1959 3097 
z
M 1959 3584 
Q 2709 3584 3137 3096 
Q 3566 2609 3566 1747 
Q 3566 888 3137 398 
Q 2709 -91 1959 -91 
Q 1206 -91 779 398 
Q 353 888 353 1747 
Q 353 2609 779 3096 
Q 1206 3584 1959 3584 
z
" transform="scale(0.015625)"/>
       <path id="DejaVuSans-75" d="M 544 1381 
L 544 3500 
L 1119 3500 
L 1119 1403 
Q 1119 906 1312 657 
Q 1506 409 1894 409 
Q 2359 409 2629 706 
Q 2900 1003 2900 1516 
L 2900 3500 
L 3475 3500 
L 3475 0 
L 2900 0 
L 2900 538 
Q 2691 219 2414 64 
Q 2138 -91 1772 -91 
Q 1169 -91 856 284 
Q 544 659 544 1381 
z
M 1991 3584 
L 1991 3584 
z
" transform="scale(0.015625)"/>
       <path id="DejaVuSans-67" d="M 2906 1791 
Q 2906 2416 2648 2759 
Q 2391 3103 1925 3103 
Q 1463 3103 1205 2759 
Q 947 2416 947 1791 
Q 947 1169 1205 825 
Q 1463 481 1925 481 
Q 2391 481 2648 825 
Q 2906 1169 2906 1791 
z
M 3481 434 
Q 3481 -459 3084 -895 
Q 2688 -1331 1869 -1331 
Q 1566 -1331 1297 -1286 
Q 1028 -1241 775 -1147 
L 775 -588 
Q 1028 -725 1275 -790 
Q 1522 -856 1778 -856 
Q 2344 -856 2625 -561 
Q 2906 -266 2906 331 
L 2906 616 
Q 2728 306 2450 153 
Q 2172 0 1784 0 
Q 1141 0 747 490 
Q 353 981 353 1791 
Q 353 2603 747 3093 
Q 1141 3584 1784 3584 
Q 2172 3584 2450 3431 
Q 2728 3278 2906 2969 
L 2906 3500 
L 3481 3500 
L 3481 434 
z
" transform="scale(0.015625)"/>
       <path id="DejaVuSans-70" d="M 1159 525 
L 1159 -1331 
L 581 -1331 
L 581 3500 
L 1159 3500 
L 1159 2969 
Q 1341 3281 1617 3432 
Q 1894 3584 2278 3584 
Q 2916 3584 3314 3078 
Q 3713 2572 3713 1747 
Q 3713 922 3314 415 
Q 2916 -91 2278 -91 
Q 1894 -91 1617 61 
Q 1341 213 1159 525 
z
M 3116 1747 
Q 3116 2381 2855 2742 
Q 2594 3103 2138 3103 
Q 1681 3103 1420 2742 
Q 1159 2381 1159 1747 
Q 1159 1113 1420 752 
Q 1681 391 2138 391 
Q 2594 391 2855 752 
Q 3116 1113 3116 1747 
z
" transform="scale(0.015625)"/>
       <path id="DejaVuSans-74" d="M 1172 4494 
L 1172 3500 
L 2356 3500 
L 2356 3053 
L 1172 3053 
L 1172 1153 
Q 1172 725 1289 603 
Q 1406 481 1766 481 
L 2356 481 
L 2356 0 
L 1766 0 
Q 1100 0 847 248 
Q 594 497 594 1153 
L 594 3053 
L 172 3053 
L 172 3500 
L 594 3500 
L 594 4494 
L 1172 4494 
z
" transform="scale(0.015625)"/>
       <path id="DejaVuSans-4d" d="M 628 4666 
L 1569 4666 
L 2759 1491 
L 3956 4666 
L 4897 4666 
L 4897 0 
L 4281 0 
L 4281 4097 
L 3078 897 
L 2444 897 
L 1241 4097 
L 1241 0 
L 628 0 
L 628 4666 
z
" transform="scale(0.015625)"/>
       <path id="DejaVuSans-62" d="M 3116 1747 
Q 3116 2381 2855 2742 
Q 2594 3103 2138 3103 
Q 1681 3103 1420 2742 
Q 1159 2381 1159 1747 
Q 1159 1113 1420 752 
Q 1681 391 2138 391 
Q 2594 391 2855 752 
Q 3116 1113 3116 1747 
z
M 1159 2969 
Q 1341 3281 1617 3432 
Q 1894 3584 2278 3584 
Q 2916 3584 3314 3078 
Q 3713 2572 3713 1747 
Q 3713 922 3314 415 
Q 2916 -91 2278 -91 
Q 1894 -91 1617 61 
Q 1341 213 1159 525 
L 1159 0 
L 581 0 
L 581 4863 
L 1159 4863 
L 1159 2969 
z
" transform="scale(0.015625)"/>
      </defs>
      <use xlink:href="#DejaVuSans-54"/>
      <use xlink:href="#DejaVuSans-68" x="61.083984"/>
      <use xlink:href="#DejaVuSans-72" x="124.462891"/>
      <use xlink:href="#DejaVuSans-6f" x="163.326172"/>
      <use xlink:href="#DejaVuSans-75" x="224.507812"/>
      <use xlink:href="#DejaVuSans-67" x="287.886719"/>
      <use xlink:href="#DejaVuSans-68" x="351.363281"/>
      <use xlink:href="#DejaVuSans-70" x="414.742188"/>
      <use xlink:href="#DejaVuSans-75" x="478.21875"/>
      <use xlink:href="#DejaVuSans-74" x="541.597656"/>
      <use xlink:href="#DejaVuSans-20" x="580.806641"/>
      <use xlink:href="#DejaVuSans-28" x="612.59375"/>
      <use xlink:href="#DejaVuSans-4d" x="651.607422"/>
      <use xlink:href="#DejaVuSans-62" x="737.886719"/>
      <use xlink:href="#DejaVuSans-70" x="801.363281"/>
      <use xlink:href="#DejaVuSans-73" x="864.839844"/>
      <use xlink:href="#DejaVuSans-29" x="916.939453"/>
     </g>
    </g>
   </g>
   <g id="patch_3">
    <path d="M 101.01 331.64 
L 101.01 23.76 
" style="fill: none; stroke: #000000; stroke-width: 0.8; stroke-linejoin: miter; stroke-linecap: square"/>
   </g>
   <g id="patch_4">
    <path d="M 897.84 331.64 
L 897.84 23.76 
" style="fill: none; stroke: #000000; stroke-width: 0.8; stroke-linejoin: miter; stroke-linecap: square"/>
   </g>
   <g id="patch_5">
    <path d="M 101.01 331.64 
L 897.84 331.64 
" style="fill: none; stroke: #000000; stroke-width: 0.8; stroke-linejoin: miter; stroke-linecap: square"/>
   </g>
   <g id="patch_6">
    <path d="M 101.01 23.76 
L 897.84 23.76 
" style="fill: none; stroke: #000000; stroke-width: 0.8; stroke-linejoin: miter; stroke-linecap: square"/>
   </g>
   <g id="legend_1">
    <g id="patch_7">
     <path d="M 756.24 113.415 
L 881.04 113.415 
Q 885.84 113.415 885.84 108.615 
L 885.84 40.56 
Q 885.84 35.76 881.04 35.76 
L 756.24 35.76 
Q 751.44 35.76 751.44 40.56 
L 751.44 108.615 
Q 751.44 113.415 756.24 113.415 
z
" style="fill: #ffffff; opacity: 0.8; stroke: #cccccc; stroke-linejoin: miter"/>
    </g>
    <g id="patch_8">
     <path d="M 761.04 63.59625 
L 809.04 63.59625 
L 809.04 46.79625 
L 761.04 46.79625 
z
" style="fill: #1f77b4"/>
    </g>
    <g id="text_17">
     <!-- UE1 -->
     <g transform="translate(828.24 63.59625)scale(0.24 -0.24)">
      <defs>
       <path id="DejaVuSans-55" d="M 556 4666 
L 1191 4666 
L 1191 1831 
Q 1191 1081 1462 751 
Q 1734 422 2344 422 
Q 2950 422 3222 751 
Q 3494 1081 3494 1831 
L 3494 4666 
L 4128 4666 
L 4128 1753 
Q 4128 841 3676 375 
Q 3225 -91 2344 -91 
Q 1459 -91 1007 375 
Q 556 841 556 1753 
L 556 4666 
z
" transform="scale(0.015625)"/>
       <path id="DejaVuSans-45" d="M 628 4666 
L 3578 4666 
L 3578 4134 
L 1259 4134 
L 1259 2753 
L 3481 2753 
L 3481 2222 
L 1259 2222 
L 1259 531 
L 3634 531 
L 3634 0 
L 628 0 
L 628 4666 
z
" transform="scale(0.015625)"/>
      </defs>
      <use xlink:href="#DejaVuSans-55"/>
      <use xlink:href="#DejaVuSans-45" x="73.193359"/>
      <use xlink:href="#DejaVuSans-31" x="136.376953"/>
     </g>
    </g>
    <g id="patch_9">
     <path d="M 761.04 98.82375 
L 809.04 98.82375 
L 809.04 82.02375 
L 761.04 82.02375 
z
" style="fill: #ff7f0e"/>
    </g>
    <g id="text_18">
     <!-- UE2 -->
     <g transform="translate(828.24 98.82375)scale(0.24 -0.24)">
      <use xlink:href="#DejaVuSans-55"/>
      <use xlink:href="#DejaVuSans-45" x="73.193359"/>
      <use xlink:href="#DejaVuSans-32" x="136.376953"/>
     </g>
    </g>
   </g>
  </g>
 </g>
 <defs>
  <clipPath id="p9ce83529f9">
   <rect x="101.01" y="23.76" width="796.83" height="307.88"/>
  </clipPath>
 </defs>
</svg>
