<?xml version="1.0" encoding="utf-8" standalone="no"?>
<!DOCTYPE svg PUBLIC "-//W3C//DTD SVG 1.1//EN"
  "http://www.w3.org/Graphics/SVG/1.1/DTD/svg11.dtd">
<svg xmlns:xlink="http://www.w3.org/1999/xlink" width="921.6pt" height="410.4pt" viewBox="0 0 921.6 410.4" xmlns="http://www.w3.org/2000/svg" version="1.1">
 <metadata>
  <rdf:RDF xmlns:dc="http://purl.org/dc/elements/1.1/" xmlns:cc="http://creativecommons.org/ns#" xmlns:rdf="http://www.w3.org/1999/02/22-rdf-syntax-ns#">
   <cc:Work>
    <dc:type rdf:resource="http://purl.org/dc/dcmitype/StillImage"/>
    <dc:date>2023-04-11T17:42:56.224486</dc:date>
    <dc:format>image/svg+xml</dc:format>
    <dc:creator>
     <cc:Agent>
      <dc:title>Matplotlib v3.5.3, https://matplotlib.org/</dc:title>
     </cc:Agent>
    </dc:creator>
   </cc:Work>
  </rdf:RDF>
 </metadata>
 <defs>
  <style type="text/css">*{stroke-linejoin: round; stroke-linecap: butt}</style>
 </defs>
 <g id="figure_1">
  <g id="patch_1">
   <path d="M 0 410.4 
L 921.6 410.4 
L 921.6 0 
L 0 0 
L 0 410.4 
z
" style="fill: none"/>
  </g>
  <g id="axes_1">
   <g id="patch_2">
    <path d="M 86.885 331.64 
L 897.84 331.64 
L 897.84 23.76 
L 86.885 23.76 
z
" style="fill: #ffffff"/>
   </g>
   <g id="PolyCollection_1">
    <path d="M 123.746591 114.046378 
L 123.746591 331.64 
L 127.888343 331.64 
L 132.030094 331.64 
L 136.171846 331.64 
L 140.313598 331.64 
L 144.45535 331.64 
L 148.597102 331.64 
L 152.738853 331.64 
L 156.880605 331.64 
L 161.022357 331.64 
L 165.164109 331.64 
L 169.305861 331.64 
L 173.447612 331.64 
L 177.589364 331.64 
L 181.731116 331.64 
L 185.872868 331.64 
L 190.01462 331.64 
L 194.156371 331.64 
L 198.298123 331.64 
L 202.439875 331.64 
L 206.581627 331.64 
L 210.723378 331.64 
L 214.86513 331.64 
L 219.006882 331.64 
L 223.148634 331.64 
L 227.290386 331.64 
L 231.432137 331.64 
L 235.573889 331.64 
L 239.715641 331.64 
L 243.857393 331.64 
L 247.999145 331.64 
L 252.140896 331.64 
L 256.282648 331.64 
L 260.4244 331.64 
L 264.566152 331.64 
L 268.707903 331.64 
L 272.849655 331.64 
L 276.991407 331.64 
L 281.133159 331.64 
L 285.274911 331.64 
L 289.416662 331.64 
L 293.558414 331.64 
L 297.700166 331.64 
L 301.841918 331.64 
L 305.98367 331.64 
L 310.125421 331.64 
L 314.267173 331.64 
L 318.408925 331.64 
L 322.550677 331.64 
L 326.692428 331.64 
L 330.83418 331.64 
L 334.975932 331.64 
L 339.117684 331.64 
L 343.259436 331.64 
L 347.401187 331.64 
L 351.542939 331.64 
L 355.684691 331.64 
L 359.826443 331.64 
L 363.968195 331.64 
L 368.109946 331.64 
L 372.251698 331.64 
L 376.39345 331.64 
L 380.535202 331.64 
L 384.676954 331.64 
L 388.818705 331.64 
L 392.960457 331.64 
L 397.102209 331.64 
L 401.243961 331.64 
L 405.385712 331.64 
L 409.527464 331.64 
L 413.669216 331.64 
L 417.810968 331.64 
L 421.95272 331.64 
L 426.094471 331.64 
L 430.236223 331.64 
L 434.377975 331.64 
L 438.519727 331.64 
L 442.661479 331.64 
L 446.80323 331.64 
L 450.944982 331.64 
L 455.086734 331.64 
L 459.228486 331.64 
L 463.370237 331.64 
L 467.511989 331.64 
L 471.653741 331.64 
L 475.795493 331.64 
L 479.937245 331.64 
L 484.078996 331.64 
L 488.220748 331.64 
L 492.3625 331.64 
L 496.504252 331.64 
L 500.646004 331.64 
L 504.787755 331.64 
L 508.929507 331.64 
L 513.071259 331.64 
L 517.213011 331.64 
L 521.354763 331.64 
L 525.496514 331.64 
L 529.638266 331.64 
L 533.780018 331.64 
L 537.92177 331.64 
L 542.063521 331.64 
L 546.205273 331.64 
L 550.347025 331.64 
L 554.488777 331.64 
L 558.630529 331.64 
L 562.77228 331.64 
L 566.914032 331.64 
L 571.055784 331.64 
L 575.197536 331.64 
L 579.339288 331.64 
L 583.481039 331.64 
L 587.622791 331.64 
L 591.764543 331.64 
L 595.906295 331.64 
L 600.048046 331.64 
L 604.189798 331.64 
L 608.33155 331.64 
L 612.473302 331.64 
L 616.615054 331.64 
L 620.756805 331.64 
L 624.898557 331.64 
L 629.040309 331.64 
L 633.182061 331.64 
L 637.323813 331.64 
L 641.465564 331.64 
L 645.607316 331.64 
L 649.749068 331.64 
L 653.89082 331.64 
L 658.032572 331.64 
L 662.174323 331.64 
L 666.316075 331.64 
L 670.457827 331.64 
L 674.599579 331.64 
L 678.74133 331.64 
L 682.883082 331.64 
L 687.024834 331.64 
L 691.166586 331.64 
L 695.308338 331.64 
L 699.450089 331.64 
L 703.591841 331.64 
L 707.733593 331.64 
L 711.875345 331.64 
L 716.017097 331.64 
L 720.158848 331.64 
L 724.3006 331.64 
L 728.442352 331.64 
L 732.584104 331.64 
L 736.725855 331.64 
L 740.867607 331.64 
L 745.009359 331.64 
L 749.151111 331.64 
L 753.292863 331.64 
L 757.434614 331.64 
L 761.576366 331.64 
L 765.718118 331.64 
L 769.85987 331.64 
L 774.001622 331.64 
L 778.143373 331.64 
L 782.285125 331.64 
L 786.426877 331.64 
L 790.568629 331.64 
L 794.71038 331.64 
L 798.852132 331.64 
L 802.993884 331.64 
L 807.135636 331.64 
L 811.277388 331.64 
L 815.419139 331.64 
L 819.560891 331.64 
L 823.702643 331.64 
L 827.844395 331.64 
L 831.986147 331.64 
L 836.127898 331.64 
L 840.26965 331.64 
L 844.411402 331.64 
L 848.553154 331.64 
L 852.694906 331.64 
L 856.836657 331.64 
L 860.978409 331.64 
L 860.978409 89.939198 
L 860.978409 89.939198 
L 856.836657 92.163514 
L 852.694906 101.29785 
L 848.553154 99.490399 
L 844.411402 97.279587 
L 840.26965 92.093383 
L 836.127898 89.106883 
L 831.986147 86.933097 
L 827.844395 89.566764 
L 823.702643 90.43605 
L 819.560891 90.856236 
L 815.419139 86.508554 
L 811.277388 91.295099 
L 807.135636 87.755447 
L 802.993884 91.593537 
L 798.852132 88.191479 
L 794.71038 89.01922 
L 790.568629 89.069477 
L 786.426877 88.53854 
L 782.285125 87.724302 
L 778.143373 87.759858 
L 774.001622 87.81605 
L 769.85987 86.527775 
L 765.718118 87.385354 
L 761.576366 87.337657 
L 757.434614 91.683977 
L 753.292863 91.188433 
L 749.151111 91.293466 
L 745.009359 87.756972 
L 740.867607 87.367331 
L 736.725855 94.304195 
L 732.584104 93.042818 
L 728.442352 88.64134 
L 724.3006 87.802927 
L 720.158848 90.906221 
L 716.017097 86.931191 
L 711.875345 86.978998 
L 707.733593 87.836414 
L 703.591841 87.398095 
L 699.450089 86.887142 
L 695.308338 86.94709 
L 691.166586 86.994407 
L 687.024834 86.967945 
L 682.883082 87.333301 
L 678.74133 89.115922 
L 674.599579 90.374522 
L 670.457827 89.549394 
L 666.316075 90.825146 
L 662.174323 91.732274 
L 658.032572 90.82226 
L 653.89082 89.111457 
L 649.749068 91.309474 
L 645.607316 90.888525 
L 641.465564 90.482005 
L 637.323813 89.950633 
L 633.182061 87.798136 
L 629.040309 86.925528 
L 624.898557 88.641231 
L 620.756805 88.189246 
L 616.615054 105.898129 
L 612.473302 95.243666 
L 608.33155 89.984337 
L 604.189798 86.899011 
L 600.048046 88.926275 
L 595.906295 90.827705 
L 591.764543 93.036393 
L 587.622791 97.850326 
L 583.481039 93.472153 
L 579.339288 98.576138 
L 575.197536 94.343344 
L 571.055784 94.352655 
L 566.914032 41.033003 
L 562.77228 41.90463 
L 558.630529 41.035943 
L 554.488777 38.852737 
L 550.347025 39.287951 
L 546.205273 38.853499 
L 542.063521 51.280014 
L 537.92177 88.676242 
L 533.780018 87.40011 
L 529.638266 87.365644 
L 525.496514 87.802982 
L 521.354763 87.369346 
L 517.213011 86.92836 
L 513.071259 89.145161 
L 508.929507 90.857815 
L 504.787755 90.424016 
L 500.646004 87.367114 
L 496.504252 87.753433 
L 492.3625 86.932226 
L 488.220748 87.305531 
L 484.078996 86.928632 
L 479.937245 99.149818 
L 475.795493 89.889214 
L 471.653741 90.819918 
L 467.511989 90.420259 
L 463.370237 86.957218 
L 459.228486 89.941104 
L 455.086734 88.699275 
L 450.944982 90.87219 
L 446.80323 96.53107 
L 442.661479 89.986025 
L 438.519727 92.603683 
L 434.377975 89.504419 
L 430.236223 86.926726 
L 426.094471 92.50954 
L 421.95272 96.714837 
L 417.810968 105.961502 
L 413.669216 95.087179 
L 409.527464 88.241137 
L 405.385712 108.752201 
L 401.243961 92.180502 
L 397.102209 87.368148 
L 392.960457 90.000454 
L 388.818705 86.503708 
L 384.676954 88.237053 
L 380.535202 89.146686 
L 376.39345 89.109715 
L 372.251698 88.644117 
L 368.109946 89.548578 
L 363.968195 88.625332 
L 359.826443 88.236345 
L 355.684691 92.613974 
L 351.542939 95.658027 
L 347.401187 89.53992 
L 343.259436 89.109551 
L 339.117684 88.362069 
L 334.975932 91.682344 
L 330.83418 87.814797 
L 326.692428 90.855528 
L 322.550677 87.036714 
L 318.408925 92.60009 
L 314.267173 94.784875 
L 310.125421 90.824002 
L 305.98367 88.19284 
L 301.841918 87.321648 
L 297.700166 90.023377 
L 293.558414 90.34501 
L 289.416662 90.419334 
L 285.274911 90.422437 
L 281.133159 86.928305 
L 276.991407 87.389002 
L 272.849655 94.780574 
L 268.707903 89.122129 
L 264.566152 87.365317 
L 260.4244 86.977909 
L 256.282648 87.815233 
L 252.140896 94.784113 
L 247.999145 88.631049 
L 243.857393 88.676079 
L 239.715641 89.94203 
L 235.573889 87.775757 
L 231.432137 87.347022 
L 227.290386 88.237815 
L 223.148634 89.031743 
L 219.006882 89.551518 
L 214.86513 93.993343 
L 210.723378 89.113799 
L 206.581627 94.362293 
L 202.439875 88.682069 
L 198.298123 91.750787 
L 194.156371 89.113308 
L 190.01462 86.492818 
L 185.872868 86.878756 
L 181.731116 92.167543 
L 177.589364 87.29034 
L 173.447612 86.495976 
L 169.305861 87.338528 
L 165.164109 86.497882 
L 161.022357 87.339671 
L 156.880605 86.928142 
L 152.738853 89.122129 
L 148.597102 87.814688 
L 144.45535 87.318817 
L 140.313598 86.930538 
L 136.171846 89.376354 
L 132.030094 86.983789 
L 127.888343 86.94366 
L 123.746591 114.046378 
z
" clip-path="url(#p8c328c36b9)" style="fill: #1f77b4"/>
   </g>
   <g id="matplotlib.axis_1">
    <g id="xtick_1">
     <g id="line2d_1">
      <path d="M 123.746591 331.64 
L 123.746591 23.76 
" clip-path="url(#p8c328c36b9)" style="fill: none; stroke-dasharray: 5.12,1.28,0.8,1.28; stroke-dashoffset: 0; stroke: #b0b0b0; stroke-width: 0.8"/>
     </g>
     <g id="line2d_2">
      <defs>
       <path id="m7c3fa8e6a4" d="M 0 0 
L 0 3.5 
" style="stroke: #000000; stroke-width: 0.8"/>
      </defs>
      <g>
       <use xlink:href="#m7c3fa8e6a4" x="123.746591" y="331.64" style="stroke: #000000; stroke-width: 0.8"/>
      </g>
     </g>
     <g id="text_1">
      <!-- 0 -->
      <g transform="translate(116.747841 355.356563)scale(0.22 -0.22)">
       <defs>
        <path id="DejaVuSans-30" d="M 2034 4250 
Q 1547 4250 1301 3770 
Q 1056 3291 1056 2328 
Q 1056 1369 1301 889 
Q 1547 409 2034 409 
Q 2525 409 2770 889 
Q 3016 1369 3016 2328 
Q 3016 3291 2770 3770 
Q 2525 4250 2034 4250 
z
M 2034 4750 
Q 2819 4750 3233 4129 
Q 3647 3509 3647 2328 
Q 3647 1150 3233 529 
Q 2819 -91 2034 -91 
Q 1250 -91 836 529 
Q 422 1150 422 2328 
Q 422 3509 836 4129 
Q 1250 4750 2034 4750 
z
" transform="scale(0.015625)"/>
       </defs>
       <use xlink:href="#DejaVuSans-30"/>
      </g>
     </g>
    </g>
    <g id="xtick_2">
     <g id="line2d_3">
      <path d="M 227.290386 331.64 
L 227.290386 23.76 
" clip-path="url(#p8c328c36b9)" style="fill: none; stroke-dasharray: 5.12,1.28,0.8,1.28; stroke-dashoffset: 0; stroke: #b0b0b0; stroke-width: 0.8"/>
     </g>
     <g id="line2d_4">
      <g>
       <use xlink:href="#m7c3fa8e6a4" x="227.290386" y="331.64" style="stroke: #000000; stroke-width: 0.8"/>
      </g>
     </g>
     <g id="text_2">
      <!-- 25 -->
      <g transform="translate(213.292886 355.356563)scale(0.22 -0.22)">
       <defs>
        <path id="DejaVuSans-32" d="M 1228 531 
L 3431 531 
L 3431 0 
L 469 0 
L 469 531 
Q 828 903 1448 1529 
Q 2069 2156 2228 2338 
Q 2531 2678 2651 2914 
Q 2772 3150 2772 3378 
Q 2772 3750 2511 3984 
Q 2250 4219 1831 4219 
Q 1534 4219 1204 4116 
Q 875 4013 500 3803 
L 500 4441 
Q 881 4594 1212 4672 
Q 1544 4750 1819 4750 
Q 2544 4750 2975 4387 
Q 3406 4025 3406 3419 
Q 3406 3131 3298 2873 
Q 3191 2616 2906 2266 
Q 2828 2175 2409 1742 
Q 1991 1309 1228 531 
z
" transform="scale(0.015625)"/>
        <path id="DejaVuSans-35" d="M 691 4666 
L 3169 4666 
L 3169 4134 
L 1269 4134 
L 1269 2991 
Q 1406 3038 1543 3061 
Q 1681 3084 1819 3084 
Q 2600 3084 3056 2656 
Q 3513 2228 3513 1497 
Q 3513 744 3044 326 
Q 2575 -91 1722 -91 
Q 1428 -91 1123 -41 
Q 819 9 494 109 
L 494 744 
Q 775 591 1075 516 
Q 1375 441 1709 441 
Q 2250 441 2565 725 
Q 2881 1009 2881 1497 
Q 2881 1984 2565 2268 
Q 2250 2553 1709 2553 
Q 1456 2553 1204 2497 
Q 953 2441 691 2322 
L 691 4666 
z
" transform="scale(0.015625)"/>
       </defs>
       <use xlink:href="#DejaVuSans-32"/>
       <use xlink:href="#DejaVuSans-35" x="63.623047"/>
      </g>
     </g>
    </g>
    <g id="xtick_3">
     <g id="line2d_5">
      <path d="M 330.83418 331.64 
L 330.83418 23.76 
" clip-path="url(#p8c328c36b9)" style="fill: none; stroke-dasharray: 5.12,1.28,0.8,1.28; stroke-dashoffset: 0; stroke: #b0b0b0; stroke-width: 0.8"/>
     </g>
     <g id="line2d_6">
      <g>
       <use xlink:href="#m7c3fa8e6a4" x="330.83418" y="331.64" style="stroke: #000000; stroke-width: 0.8"/>
      </g>
     </g>
     <g id="text_3">
      <!-- 50 -->
      <g transform="translate(316.83668 355.356563)scale(0.22 -0.22)">
       <use xlink:href="#DejaVuSans-35"/>
       <use xlink:href="#DejaVuSans-30" x="63.623047"/>
      </g>
     </g>
    </g>
    <g id="xtick_4">
     <g id="line2d_7">
      <path d="M 434.377975 331.64 
L 434.377975 23.76 
" clip-path="url(#p8c328c36b9)" style="fill: none; stroke-dasharray: 5.12,1.28,0.8,1.28; stroke-dashoffset: 0; stroke: #b0b0b0; stroke-width: 0.8"/>
     </g>
     <g id="line2d_8">
      <g>
       <use xlink:href="#m7c3fa8e6a4" x="434.377975" y="331.64" style="stroke: #000000; stroke-width: 0.8"/>
      </g>
     </g>
     <g id="text_4">
      <!-- 75 -->
      <g transform="translate(420.380475 355.356563)scale(0.22 -0.22)">
       <defs>
        <path id="DejaVuSans-37" d="M 525 4666 
L 3525 4666 
L 3525 4397 
L 1831 0 
L 1172 0 
L 2766 4134 
L 525 4134 
L 525 4666 
z
" transform="scale(0.015625)"/>
       </defs>
       <use xlink:href="#DejaVuSans-37"/>
       <use xlink:href="#DejaVuSans-35" x="63.623047"/>
      </g>
     </g>
    </g>
    <g id="xtick_5">
     <g id="line2d_9">
      <path d="M 537.92177 331.64 
L 537.92177 23.76 
" clip-path="url(#p8c328c36b9)" style="fill: none; stroke-dasharray: 5.12,1.28,0.8,1.28; stroke-dashoffset: 0; stroke: #b0b0b0; stroke-width: 0.8"/>
     </g>
     <g id="line2d_10">
      <g>
       <use xlink:href="#m7c3fa8e6a4" x="537.92177" y="331.64" style="stroke: #000000; stroke-width: 0.8"/>
      </g>
     </g>
     <g id="text_5">
      <!-- 100 -->
      <g transform="translate(516.92552 355.356563)scale(0.22 -0.22)">
       <defs>
        <path id="DejaVuSans-31" d="M 794 531 
L 1825 531 
L 1825 4091 
L 703 3866 
L 703 4441 
L 1819 4666 
L 2450 4666 
L 2450 531 
L 3481 531 
L 3481 0 
L 794 0 
L 794 531 
z
" transform="scale(0.015625)"/>
       </defs>
       <use xlink:href="#DejaVuSans-31"/>
       <use xlink:href="#DejaVuSans-30" x="63.623047"/>
       <use xlink:href="#DejaVuSans-30" x="127.246094"/>
      </g>
     </g>
    </g>
    <g id="xtick_6">
     <g id="line2d_11">
      <path d="M 641.465564 331.64 
L 641.465564 23.76 
" clip-path="url(#p8c328c36b9)" style="fill: none; stroke-dasharray: 5.12,1.28,0.8,1.28; stroke-dashoffset: 0; stroke: #b0b0b0; stroke-width: 0.8"/>
     </g>
     <g id="line2d_12">
      <g>
       <use xlink:href="#m7c3fa8e6a4" x="641.465564" y="331.64" style="stroke: #000000; stroke-width: 0.8"/>
      </g>
     </g>
     <g id="text_6">
      <!-- 125 -->
      <g transform="translate(620.469314 355.356563)scale(0.22 -0.22)">
       <use xlink:href="#DejaVuSans-31"/>
       <use xlink:href="#DejaVuSans-32" x="63.623047"/>
       <use xlink:href="#DejaVuSans-35" x="127.246094"/>
      </g>
     </g>
    </g>
    <g id="xtick_7">
     <g id="line2d_13">
      <path d="M 745.009359 331.64 
L 745.009359 23.76 
" clip-path="url(#p8c328c36b9)" style="fill: none; stroke-dasharray: 5.12,1.28,0.8,1.28; stroke-dashoffset: 0; stroke: #b0b0b0; stroke-width: 0.8"/>
     </g>
     <g id="line2d_14">
      <g>
       <use xlink:href="#m7c3fa8e6a4" x="745.009359" y="331.64" style="stroke: #000000; stroke-width: 0.8"/>
      </g>
     </g>
     <g id="text_7">
      <!-- 150 -->
      <g transform="translate(724.013109 355.356563)scale(0.22 -0.22)">
       <use xlink:href="#DejaVuSans-31"/>
       <use xlink:href="#DejaVuSans-35" x="63.623047"/>
       <use xlink:href="#DejaVuSans-30" x="127.246094"/>
      </g>
     </g>
    </g>
    <g id="xtick_8">
     <g id="line2d_15">
      <path d="M 848.553154 331.64 
L 848.553154 23.76 
" clip-path="url(#p8c328c36b9)" style="fill: none; stroke-dasharray: 5.12,1.28,0.8,1.28; stroke-dashoffset: 0; stroke: #b0b0b0; stroke-width: 0.8"/>
     </g>
     <g id="line2d_16">
      <g>
       <use xlink:href="#m7c3fa8e6a4" x="848.553154" y="331.64" style="stroke: #000000; stroke-width: 0.8"/>
      </g>
     </g>
     <g id="text_8">
      <!-- 175 -->
      <g transform="translate(827.556904 355.356563)scale(0.22 -0.22)">
       <use xlink:href="#DejaVuSans-31"/>
       <use xlink:href="#DejaVuSans-37" x="63.623047"/>
       <use xlink:href="#DejaVuSans-35" x="127.246094"/>
      </g>
     </g>
    </g>
    <g id="text_9">
     <!-- Time (s) -->
     <g transform="translate(443.573125 382.168125)scale(0.24 -0.24)">
      <defs>
       <path id="DejaVuSans-54" d="M -19 4666 
L 3928 4666 
L 3928 4134 
L 2272 4134 
L 2272 0 
L 1638 0 
L 1638 4134 
L -19 4134 
L -19 4666 
z
" transform="scale(0.015625)"/>
       <path id="DejaVuSans-69" d="M 603 3500 
L 1178 3500 
L 1178 0 
L 603 0 
L 603 3500 
z
M 603 4863 
L 1178 4863 
L 1178 4134 
L 603 4134 
L 603 4863 
z
" transform="scale(0.015625)"/>
       <path id="DejaVuSans-6d" d="M 3328 2828 
Q 3544 3216 3844 3400 
Q 4144 3584 4550 3584 
Q 5097 3584 5394 3201 
Q 5691 2819 5691 2113 
L 5691 0 
L 5113 0 
L 5113 2094 
Q 5113 2597 4934 2840 
Q 4756 3084 4391 3084 
Q 3944 3084 3684 2787 
Q 3425 2491 3425 1978 
L 3425 0 
L 2847 0 
L 2847 2094 
Q 2847 2600 2669 2842 
Q 2491 3084 2119 3084 
Q 1678 3084 1418 2786 
Q 1159 2488 1159 1978 
L 1159 0 
L 581 0 
L 581 3500 
L 1159 3500 
L 1159 2956 
Q 1356 3278 1631 3431 
Q 1906 3584 2284 3584 
Q 2666 3584 2933 3390 
Q 3200 3197 3328 2828 
z
" transform="scale(0.015625)"/>
       <path id="DejaVuSans-65" d="M 3597 1894 
L 3597 1613 
L 953 1613 
Q 991 1019 1311 708 
Q 1631 397 2203 397 
Q 2534 397 2845 478 
Q 3156 559 3463 722 
L 3463 178 
Q 3153 47 2828 -22 
Q 2503 -91 2169 -91 
Q 1331 -91 842 396 
Q 353 884 353 1716 
Q 353 2575 817 3079 
Q 1281 3584 2069 3584 
Q 2775 3584 3186 3129 
Q 3597 2675 3597 1894 
z
M 3022 2063 
Q 3016 2534 2758 2815 
Q 2500 3097 2075 3097 
Q 1594 3097 1305 2825 
Q 1016 2553 972 2059 
L 3022 2063 
z
" transform="scale(0.015625)"/>
       <path id="DejaVuSans-20" transform="scale(0.015625)"/>
       <path id="DejaVuSans-28" d="M 1984 4856 
Q 1566 4138 1362 3434 
Q 1159 2731 1159 2009 
Q 1159 1288 1364 580 
Q 1569 -128 1984 -844 
L 1484 -844 
Q 1016 -109 783 600 
Q 550 1309 550 2009 
Q 550 2706 781 3412 
Q 1013 4119 1484 4856 
L 1984 4856 
z
" transform="scale(0.015625)"/>
       <path id="DejaVuSans-73" d="M 2834 3397 
L 2834 2853 
Q 2591 2978 2328 3040 
Q 2066 3103 1784 3103 
Q 1356 3103 1142 2972 
Q 928 2841 928 2578 
Q 928 2378 1081 2264 
Q 1234 2150 1697 2047 
L 1894 2003 
Q 2506 1872 2764 1633 
Q 3022 1394 3022 966 
Q 3022 478 2636 193 
Q 2250 -91 1575 -91 
Q 1294 -91 989 -36 
Q 684 19 347 128 
L 347 722 
Q 666 556 975 473 
Q 1284 391 1588 391 
Q 1994 391 2212 530 
Q 2431 669 2431 922 
Q 2431 1156 2273 1281 
Q 2116 1406 1581 1522 
L 1381 1569 
Q 847 1681 609 1914 
Q 372 2147 372 2553 
Q 372 3047 722 3315 
Q 1072 3584 1716 3584 
Q 2034 3584 2315 3537 
Q 2597 3491 2834 3397 
z
" transform="scale(0.015625)"/>
       <path id="DejaVuSans-29" d="M 513 4856 
L 1013 4856 
Q 1481 4119 1714 3412 
Q 1947 2706 1947 2009 
Q 1947 1309 1714 600 
Q 1481 -109 1013 -844 
L 513 -844 
Q 928 -128 1133 580 
Q 1338 1288 1338 2009 
Q 1338 2731 1133 3434 
Q 928 4138 513 4856 
z
" transform="scale(0.015625)"/>
      </defs>
      <use xlink:href="#DejaVuSans-54"/>
      <use xlink:href="#DejaVuSans-69" x="57.958984"/>
      <use xlink:href="#DejaVuSans-6d" x="85.742188"/>
      <use xlink:href="#DejaVuSans-65" x="183.154297"/>
      <use xlink:href="#DejaVuSans-20" x="244.677734"/>
      <use xlink:href="#DejaVuSans-28" x="276.464844"/>
      <use xlink:href="#DejaVuSans-73" x="315.478516"/>
      <use xlink:href="#DejaVuSans-29" x="367.578125"/>
     </g>
    </g>
   </g>
   <g id="matplotlib.axis_2">
    <g id="ytick_1">
     <g id="line2d_17">
      <path d="M 86.885 331.64 
L 897.84 331.64 
" clip-path="url(#p8c328c36b9)" style="fill: none; stroke-dasharray: 5.12,1.28,0.8,1.28; stroke-dashoffset: 0; stroke: #b0b0b0; stroke-width: 0.8"/>
     </g>
     <g id="line2d_18">
      <defs>
       <path id="m3623d58ced" d="M 0 0 
L -3.5 0 
" style="stroke: #000000; stroke-width: 0.8"/>
      </defs>
      <g>
       <use xlink:href="#m3623d58ced" x="86.885" y="331.64" style="stroke: #000000; stroke-width: 0.8"/>
      </g>
     </g>
     <g id="text_10">
      <!-- 0 -->
      <g transform="translate(65.8875 339.998281)scale(0.22 -0.22)">
       <use xlink:href="#DejaVuSans-30"/>
      </g>
     </g>
    </g>
    <g id="ytick_2">
     <g id="line2d_19">
      <path d="M 86.885 263.578151 
L 897.84 263.578151 
" clip-path="url(#p8c328c36b9)" style="fill: none; stroke-dasharray: 5.12,1.28,0.8,1.28; stroke-dashoffset: 0; stroke: #b0b0b0; stroke-width: 0.8"/>
     </g>
     <g id="line2d_20">
      <g>
       <use xlink:href="#m3623d58ced" x="86.885" y="263.578151" style="stroke: #000000; stroke-width: 0.8"/>
      </g>
     </g>
     <g id="text_11">
      <!-- 10 -->
      <g transform="translate(51.89 271.936432)scale(0.22 -0.22)">
       <use xlink:href="#DejaVuSans-31"/>
       <use xlink:href="#DejaVuSans-30" x="63.623047"/>
      </g>
     </g>
    </g>
    <g id="ytick_3">
     <g id="line2d_21">
      <path d="M 86.885 195.516302 
L 897.84 195.516302 
" clip-path="url(#p8c328c36b9)" style="fill: none; stroke-dasharray: 5.12,1.28,0.8,1.28; stroke-dashoffset: 0; stroke: #b0b0b0; stroke-width: 0.8"/>
     </g>
     <g id="line2d_22">
      <g>
       <use xlink:href="#m3623d58ced" x="86.885" y="195.516302" style="stroke: #000000; stroke-width: 0.8"/>
      </g>
     </g>
     <g id="text_12">
      <!-- 20 -->
      <g transform="translate(51.89 203.874584)scale(0.22 -0.22)">
       <use xlink:href="#DejaVuSans-32"/>
       <use xlink:href="#DejaVuSans-30" x="63.623047"/>
      </g>
     </g>
    </g>
    <g id="ytick_4">
     <g id="line2d_23">
      <path d="M 86.885 127.454454 
L 897.84 127.454454 
" clip-path="url(#p8c328c36b9)" style="fill: none; stroke-dasharray: 5.12,1.28,0.8,1.28; stroke-dashoffset: 0; stroke: #b0b0b0; stroke-width: 0.8"/>
     </g>
     <g id="line2d_24">
      <g>
       <use xlink:href="#m3623d58ced" x="86.885" y="127.454454" style="stroke: #000000; stroke-width: 0.8"/>
      </g>
     </g>
     <g id="text_13">
      <!-- 30 -->
      <g transform="translate(51.89 135.812735)scale(0.22 -0.22)">
       <defs>
        <path id="DejaVuSans-33" d="M 2597 2516 
Q 3050 2419 3304 2112 
Q 3559 1806 3559 1356 
Q 3559 666 3084 287 
Q 2609 -91 1734 -91 
Q 1441 -91 1130 -33 
Q 819 25 488 141 
L 488 750 
Q 750 597 1062 519 
Q 1375 441 1716 441 
Q 2309 441 2620 675 
Q 2931 909 2931 1356 
Q 2931 1769 2642 2001 
Q 2353 2234 1838 2234 
L 1294 2234 
L 1294 2753 
L 1863 2753 
Q 2328 2753 2575 2939 
Q 2822 3125 2822 3475 
Q 2822 3834 2567 4026 
Q 2313 4219 1838 4219 
Q 1578 4219 1281 4162 
Q 984 4106 628 3988 
L 628 4550 
Q 988 4650 1302 4700 
Q 1616 4750 1894 4750 
Q 2613 4750 3031 4423 
Q 3450 4097 3450 3541 
Q 3450 3153 3228 2886 
Q 3006 2619 2597 2516 
z
" transform="scale(0.015625)"/>
       </defs>
       <use xlink:href="#DejaVuSans-33"/>
       <use xlink:href="#DejaVuSans-30" x="63.623047"/>
      </g>
     </g>
    </g>
    <g id="ytick_5">
     <g id="line2d_25">
      <path d="M 86.885 59.392605 
L 897.84 59.392605 
" clip-path="url(#p8c328c36b9)" style="fill: none; stroke-dasharray: 5.12,1.28,0.8,1.28; stroke-dashoffset: 0; stroke: #b0b0b0; stroke-width: 0.8"/>
     </g>
     <g id="line2d_26">
      <g>
       <use xlink:href="#m3623d58ced" x="86.885" y="59.392605" style="stroke: #000000; stroke-width: 0.8"/>
      </g>
     </g>
     <g id="text_14">
      <!-- 40 -->
      <g transform="translate(51.89 67.750886)scale(0.22 -0.22)">
       <defs>
        <path id="DejaVuSans-34" d="M 2419 4116 
L 825 1625 
L 2419 1625 
L 2419 4116 
z
M 2253 4666 
L 3047 4666 
L 3047 1625 
L 3713 1625 
L 3713 1100 
L 3047 1100 
L 3047 0 
L 2419 0 
L 2419 1100 
L 313 1100 
L 313 1709 
L 2253 4666 
z
" transform="scale(0.015625)"/>
       </defs>
       <use xlink:href="#DejaVuSans-34"/>
       <use xlink:href="#DejaVuSans-30" x="63.623047"/>
      </g>
     </g>
    </g>
    <g id="text_15">
     <!-- Throughput (Mbps) -->
     <g transform="translate(42.89875 292.414375)rotate(-90)scale(0.24 -0.24)">
      <defs>
       <path id="DejaVuSans-68" d="M 3513 2113 
L 3513 0 
L 2938 0 
L 2938 2094 
Q 2938 2591 2744 2837 
Q 2550 3084 2163 3084 
Q 1697 3084 1428 2787 
Q 1159 2491 1159 1978 
L 1159 0 
L 581 0 
L 581 4863 
L 1159 4863 
L 1159 2956 
Q 1366 3272 1645 3428 
Q 1925 3584 2291 3584 
Q 2894 3584 3203 3211 
Q 3513 2838 3513 2113 
z
" transform="scale(0.015625)"/>
       <path id="DejaVuSans-72" d="M 2631 2963 
Q 2534 3019 2420 3045 
Q 2306 3072 2169 3072 
Q 1681 3072 1420 2755 
Q 1159 2438 1159 1844 
L 1159 0 
L 581 0 
L 581 3500 
L 1159 3500 
L 1159 2956 
Q 1341 3275 1631 3429 
Q 1922 3584 2338 3584 
Q 2397 3584 2469 3576 
Q 2541 3569 2628 3553 
L 2631 2963 
z
" transform="scale(0.015625)"/>
       <path id="DejaVuSans-6f" d="M 1959 3097 
Q 1497 3097 1228 2736 
Q 959 2375 959 1747 
Q 959 1119 1226 758 
Q 1494 397 1959 397 
Q 2419 397 2687 759 
Q 2956 1122 2956 1747 
Q 2956 2369 2687 2733 
Q 2419 3097 1959 3097 
z
M 1959 3584 
Q 2709 3584 3137 3096 
Q 3566 2609 3566 1747 
Q 3566 888 3137 398 
Q 2709 -91 1959 -91 
Q 1206 -91 779 398 
Q 353 888 353 1747 
Q 353 2609 779 3096 
Q 1206 3584 1959 3584 
z
" transform="scale(0.015625)"/>
       <path id="DejaVuSans-75" d="M 544 1381 
L 544 3500 
L 1119 3500 
L 1119 1403 
Q 1119 906 1312 657 
Q 1506 409 1894 409 
Q 2359 409 2629 706 
Q 2900 1003 2900 1516 
L 2900 3500 
L 3475 3500 
L 3475 0 
L 2900 0 
L 2900 538 
Q 2691 219 2414 64 
Q 2138 -91 1772 -91 
Q 1169 -91 856 284 
Q 544 659 544 1381 
z
M 1991 3584 
L 1991 3584 
z
" transform="scale(0.015625)"/>
       <path id="DejaVuSans-67" d="M 2906 1791 
Q 2906 2416 2648 2759 
Q 2391 3103 1925 3103 
Q 1463 3103 1205 2759 
Q 947 2416 947 1791 
Q 947 1169 1205 825 
Q 1463 481 1925 481 
Q 2391 481 2648 825 
Q 2906 1169 2906 1791 
z
M 3481 434 
Q 3481 -459 3084 -895 
Q 2688 -1331 1869 -1331 
Q 1566 -1331 1297 -1286 
Q 1028 -1241 775 -1147 
L 775 -588 
Q 1028 -725 1275 -790 
Q 1522 -856 1778 -856 
Q 2344 -856 2625 -561 
Q 2906 -266 2906 331 
L 2906 616 
Q 2728 306 2450 153 
Q 2172 0 1784 0 
Q 1141 0 747 490 
Q 353 981 353 1791 
Q 353 2603 747 3093 
Q 1141 3584 1784 3584 
Q 2172 3584 2450 3431 
Q 2728 3278 2906 2969 
L 2906 3500 
L 3481 3500 
L 3481 434 
z
" transform="scale(0.015625)"/>
       <path id="DejaVuSans-70" d="M 1159 525 
L 1159 -1331 
L 581 -1331 
L 581 3500 
L 1159 3500 
L 1159 2969 
Q 1341 3281 1617 3432 
Q 1894 3584 2278 3584 
Q 2916 3584 3314 3078 
Q 3713 2572 3713 1747 
Q 3713 922 3314 415 
Q 2916 -91 2278 -91 
Q 1894 -91 1617 61 
Q 1341 213 1159 525 
z
M 3116 1747 
Q 3116 2381 2855 2742 
Q 2594 3103 2138 3103 
Q 1681 3103 1420 2742 
Q 1159 2381 1159 1747 
Q 1159 1113 1420 752 
Q 1681 391 2138 391 
Q 2594 391 2855 752 
Q 3116 1113 3116 1747 
z
" transform="scale(0.015625)"/>
       <path id="DejaVuSans-74" d="M 1172 4494 
L 1172 3500 
L 2356 3500 
L 2356 3053 
L 1172 3053 
L 1172 1153 
Q 1172 725 1289 603 
Q 1406 481 1766 481 
L 2356 481 
L 2356 0 
L 1766 0 
Q 1100 0 847 248 
Q 594 497 594 1153 
L 594 3053 
L 172 3053 
L 172 3500 
L 594 3500 
L 594 4494 
L 1172 4494 
z
" transform="scale(0.015625)"/>
       <path id="DejaVuSans-4d" d="M 628 4666 
L 1569 4666 
L 2759 1491 
L 3956 4666 
L 4897 4666 
L 4897 0 
L 4281 0 
L 4281 4097 
L 3078 897 
L 2444 897 
L 1241 4097 
L 1241 0 
L 628 0 
L 628 4666 
z
" transform="scale(0.015625)"/>
       <path id="DejaVuSans-62" d="M 3116 1747 
Q 3116 2381 2855 2742 
Q 2594 3103 2138 3103 
Q 1681 3103 1420 2742 
Q 1159 2381 1159 1747 
Q 1159 1113 1420 752 
Q 1681 391 2138 391 
Q 2594 391 2855 752 
Q 3116 1113 3116 1747 
z
M 1159 2969 
Q 1341 3281 1617 3432 
Q 1894 3584 2278 3584 
Q 2916 3584 3314 3078 
Q 3713 2572 3713 1747 
Q 3713 922 3314 415 
Q 2916 -91 2278 -91 
Q 1894 -91 1617 61 
Q 1341 213 1159 525 
L 1159 0 
L 581 0 
L 581 4863 
L 1159 4863 
L 1159 2969 
z
" transform="scale(0.015625)"/>
      </defs>
      <use xlink:href="#DejaVuSans-54"/>
      <use xlink:href="#DejaVuSans-68" x="61.083984"/>
      <use xlink:href="#DejaVuSans-72" x="124.462891"/>
      <use xlink:href="#DejaVuSans-6f" x="163.326172"/>
      <use xlink:href="#DejaVuSans-75" x="224.507812"/>
      <use xlink:href="#DejaVuSans-67" x="287.886719"/>
      <use xlink:href="#DejaVuSans-68" x="351.363281"/>
      <use xlink:href="#DejaVuSans-70" x="414.742188"/>
      <use xlink:href="#DejaVuSans-75" x="478.21875"/>
      <use xlink:href="#DejaVuSans-74" x="541.597656"/>
      <use xlink:href="#DejaVuSans-20" x="580.806641"/>
      <use xlink:href="#DejaVuSans-28" x="612.59375"/>
      <use xlink:href="#DejaVuSans-4d" x="651.607422"/>
      <use xlink:href="#DejaVuSans-62" x="737.886719"/>
      <use xlink:href="#DejaVuSans-70" x="801.363281"/>
      <use xlink:href="#DejaVuSans-73" x="864.839844"/>
      <use xlink:href="#DejaVuSans-29" x="916.939453"/>
     </g>
    </g>
   </g>
   <g id="patch_3">
    <path d="M 86.885 331.64 
L 86.885 23.76 
" style="fill: none; stroke: #000000; stroke-width: 0.8; stroke-linejoin: miter; stroke-linecap: square"/>
   </g>
   <g id="patch_4">
    <path d="M 897.84 331.64 
L 897.84 23.76 
" style="fill: none; stroke: #000000; stroke-width: 0.8; stroke-linejoin: miter; stroke-linecap: square"/>
   </g>
   <g id="patch_5">
    <path d="M 86.885 331.64 
L 897.84 331.64 
" style="fill: none; stroke: #000000; stroke-width: 0.8; stroke-linejoin: miter; stroke-linecap: square"/>
   </g>
   <g id="patch_6">
    <path d="M 86.885 23.76 
L 897.84 23.76 
" style="fill: none; stroke: #000000; stroke-width: 0.8; stroke-linejoin: miter; stroke-linecap: square"/>
   </g>
   <g id="legend_1">
    <g id="patch_7">
     <path d="M 756.24 78.1875 
L 881.04 78.1875 
Q 885.84 78.1875 885.84 73.3875 
L 885.84 40.56 
Q 885.84 35.76 881.04 35.76 
L 756.24 35.76 
Q 751.44 35.76 751.44 40.56 
L 751.44 73.3875 
Q 751.44 78.1875 756.24 78.1875 
z
" style="fill: #ffffff; opacity: 0.8; stroke: #cccccc; stroke-linejoin: miter"/>
    </g>
    <g id="patch_8">
     <path d="M 761.04 63.59625 
L 809.04 63.59625 
L 809.04 46.79625 
L 761.04 46.79625 
z
" style="fill: #1f77b4"/>
    </g>
    <g id="text_16">
     <!-- UE1 -->
     <g transform="translate(828.24 63.59625)scale(0.24 -0.24)">
      <defs>
       <path id="DejaVuSans-55" d="M 556 4666 
L 1191 4666 
L 1191 1831 
Q 1191 1081 1462 751 
Q 1734 422 2344 422 
Q 2950 422 3222 751 
Q 3494 1081 3494 1831 
L 3494 4666 
L 4128 4666 
L 4128 1753 
Q 4128 841 3676 375 
Q 3225 -91 2344 -91 
Q 1459 -91 1007 375 
Q 556 841 556 1753 
L 556 4666 
z
" transform="scale(0.015625)"/>
       <path id="DejaVuSans-45" d="M 628 4666 
L 3578 4666 
L 3578 4134 
L 1259 4134 
L 1259 2753 
L 3481 2753 
L 3481 2222 
L 1259 2222 
L 1259 531 
L 3634 531 
L 3634 0 
L 628 0 
L 628 4666 
z
" transform="scale(0.015625)"/>
      </defs>
      <use xlink:href="#DejaVuSans-55"/>
      <use xlink:href="#DejaVuSans-45" x="73.193359"/>
      <use xlink:href="#DejaVuSans-31" x="136.376953"/>
     </g>
    </g>
   </g>
  </g>
 </g>
 <defs>
  <clipPath id="p8c328c36b9">
   <rect x="86.885" y="23.76" width="810.955" height="307.88"/>
  </clipPath>
 </defs>
</svg>
