<?xml version="1.0" encoding="utf-8" standalone="no"?>
<!DOCTYPE svg PUBLIC "-//W3C//DTD SVG 1.1//EN"
  "http://www.w3.org/Graphics/SVG/1.1/DTD/svg11.dtd">
<svg xmlns:xlink="http://www.w3.org/1999/xlink" width="921.6pt" height="410.4pt" viewBox="0 0 921.6 410.4" xmlns="http://www.w3.org/2000/svg" version="1.1">
 <metadata>
  <rdf:RDF xmlns:dc="http://purl.org/dc/elements/1.1/" xmlns:cc="http://creativecommons.org/ns#" xmlns:rdf="http://www.w3.org/1999/02/22-rdf-syntax-ns#">
   <cc:Work>
    <dc:type rdf:resource="http://purl.org/dc/dcmitype/StillImage"/>
    <dc:date>2023-04-11T17:41:58.214020</dc:date>
    <dc:format>image/svg+xml</dc:format>
    <dc:creator>
     <cc:Agent>
      <dc:title>Matplotlib v3.5.3, https://matplotlib.org/</dc:title>
     </cc:Agent>
    </dc:creator>
   </cc:Work>
  </rdf:RDF>
 </metadata>
 <defs>
  <style type="text/css">*{stroke-linejoin: round; stroke-linecap: butt}</style>
 </defs>
 <g id="figure_1">
  <g id="patch_1">
   <path d="M 0 410.4 
L 921.6 410.4 
L 921.6 0 
L 0 0 
L 0 410.4 
z
" style="fill: none"/>
  </g>
  <g id="axes_1">
   <g id="patch_2">
    <path d="M 108.01 331.64 
L 897.84 331.64 
L 897.84 23.76 
L 108.01 23.76 
z
" style="fill: #ffffff"/>
   </g>
   <g id="PolyCollection_1">
    <path d="M 143.911364 187.201952 
L 143.911364 331.64 
L 147.900404 331.64 
L 151.889444 331.64 
L 155.878485 331.64 
L 159.867525 331.64 
L 163.856566 331.64 
L 167.845606 331.64 
L 171.834646 331.64 
L 175.823687 331.64 
L 179.812727 331.64 
L 183.801768 331.64 
L 187.790808 331.64 
L 191.779848 331.64 
L 195.768889 331.64 
L 199.757929 331.64 
L 203.74697 331.64 
L 207.73601 331.64 
L 211.725051 331.64 
L 215.714091 331.64 
L 219.703131 331.64 
L 223.692172 331.64 
L 227.681212 331.64 
L 231.670253 331.64 
L 235.659293 331.64 
L 239.648333 331.64 
L 243.637374 331.64 
L 247.626414 331.64 
L 251.615455 331.64 
L 255.604495 331.64 
L 259.593535 331.64 
L 263.582576 331.64 
L 267.571616 331.64 
L 271.560657 331.64 
L 275.549697 331.64 
L 279.538737 331.64 
L 283.527778 331.64 
L 287.516818 331.64 
L 291.505859 331.64 
L 295.494899 331.64 
L 299.483939 331.64 
L 303.47298 331.64 
L 307.46202 331.64 
L 311.451061 331.64 
L 315.440101 331.64 
L 319.429141 331.64 
L 323.418182 331.64 
L 327.407222 331.64 
L 331.396263 331.64 
L 335.385303 331.64 
L 339.374343 331.64 
L 343.363384 331.64 
L 347.352424 331.64 
L 351.341465 331.64 
L 355.330505 331.64 
L 359.319545 331.64 
L 363.308586 331.64 
L 367.297626 331.64 
L 371.286667 331.64 
L 375.275707 331.64 
L 379.264747 331.64 
L 383.253788 331.64 
L 387.242828 331.64 
L 391.231869 331.64 
L 395.220909 331.64 
L 399.209949 331.64 
L 403.19899 331.64 
L 407.18803 331.64 
L 411.177071 331.64 
L 415.166111 331.64 
L 419.155152 331.64 
L 423.144192 331.64 
L 427.133232 331.64 
L 431.122273 331.64 
L 435.111313 331.64 
L 439.100354 331.64 
L 443.089394 331.64 
L 447.078434 331.64 
L 451.067475 331.64 
L 455.056515 331.64 
L 459.045556 331.64 
L 463.034596 331.64 
L 467.023636 331.64 
L 471.012677 331.64 
L 475.001717 331.64 
L 478.990758 331.64 
L 482.979798 331.64 
L 486.968838 331.64 
L 490.957879 331.64 
L 494.946919 331.64 
L 498.93596 331.64 
L 502.925 331.64 
L 506.91404 331.64 
L 510.903081 331.64 
L 514.892121 331.64 
L 518.881162 331.64 
L 522.870202 331.64 
L 526.859242 331.64 
L 530.848283 331.64 
L 534.837323 331.64 
L 538.826364 331.64 
L 542.815404 331.64 
L 546.804444 331.64 
L 550.793485 331.64 
L 554.782525 331.64 
L 558.771566 331.64 
L 562.760606 331.64 
L 566.749646 331.64 
L 570.738687 331.64 
L 574.727727 331.64 
L 578.716768 331.64 
L 582.705808 331.64 
L 586.694848 331.64 
L 590.683889 331.64 
L 594.672929 331.64 
L 598.66197 331.64 
L 602.65101 331.64 
L 606.640051 331.64 
L 610.629091 331.64 
L 614.618131 331.64 
L 618.607172 331.64 
L 622.596212 331.64 
L 626.585253 331.64 
L 630.574293 331.64 
L 634.563333 331.64 
L 638.552374 331.64 
L 642.541414 331.64 
L 646.530455 331.64 
L 650.519495 331.64 
L 654.508535 331.64 
L 658.497576 331.64 
L 662.486616 331.64 
L 666.475657 331.64 
L 670.464697 331.64 
L 674.453737 331.64 
L 678.442778 331.64 
L 682.431818 331.64 
L 686.420859 331.64 
L 690.409899 331.64 
L 694.398939 331.64 
L 698.38798 331.64 
L 702.37702 331.64 
L 706.366061 331.64 
L 710.355101 331.64 
L 714.344141 331.64 
L 718.333182 331.64 
L 722.322222 331.64 
L 726.311263 331.64 
L 730.300303 331.64 
L 734.289343 331.64 
L 738.278384 331.64 
L 742.267424 331.64 
L 746.256465 331.64 
L 750.245505 331.64 
L 754.234545 331.64 
L 758.223586 331.64 
L 762.212626 331.64 
L 766.201667 331.64 
L 770.190707 331.64 
L 774.179747 331.64 
L 778.168788 331.64 
L 782.157828 331.64 
L 786.146869 331.64 
L 790.135909 331.64 
L 794.124949 331.64 
L 798.11399 331.64 
L 802.10303 331.64 
L 806.092071 331.64 
L 810.081111 331.64 
L 814.070152 331.64 
L 818.059192 331.64 
L 822.048232 331.64 
L 826.037273 331.64 
L 830.026313 331.64 
L 834.015354 331.64 
L 838.004394 331.64 
L 841.993434 331.64 
L 845.982475 331.64 
L 849.971515 331.64 
L 853.960556 331.64 
L 857.949596 331.64 
L 861.938636 331.64 
L 861.938636 186.588288 
L 861.938636 186.588288 
L 857.949596 186.920634 
L 853.960556 186.226041 
L 849.971515 185.217848 
L 845.982475 184.50585 
L 841.993434 186.994868 
L 838.004394 186.373469 
L 834.015354 188.48938 
L 830.026313 188.433295 
L 826.037273 186.573412 
L 822.048232 186.001701 
L 818.059192 187.440871 
L 814.070152 185.929698 
L 810.081111 185.088123 
L 806.092071 186.550502 
L 802.10303 186.15984 
L 798.11399 186.451572 
L 794.124949 187.37586 
L 790.135909 186.011817 
L 786.146869 186.85592 
L 782.157828 187.162231 
L 778.168788 186.835241 
L 774.179747 186.787041 
L 770.190707 186.268886 
L 766.201667 185.697472 
L 762.212626 186.714443 
L 758.223586 186.928072 
L 754.234545 186.829291 
L 750.245505 187.543223 
L 746.256465 186.34803 
L 742.267424 187.564794 
L 738.278384 186.402479 
L 734.289343 185.013442 
L 730.300303 186.636191 
L 726.311263 185.274231 
L 722.322222 185.670843 
L 718.333182 185.603601 
L 714.344141 188.010351 
L 710.355101 187.398026 
L 706.366061 186.591859 
L 702.37702 186.623249 
L 698.38798 186.976272 
L 694.398939 187.051697 
L 690.409899 186.341187 
L 686.420859 187.558695 
L 682.431818 185.611039 
L 678.442778 184.829269 
L 674.453737 185.125464 
L 670.464697 186.222471 
L 666.475657 185.837908 
L 662.486616 184.761283 
L 658.497576 186.58204 
L 654.508535 186.055554 
L 650.519495 185.904556 
L 646.530455 186.579809 
L 642.541414 186.717418 
L 638.552374 185.132605 
L 634.563333 185.493811 
L 630.574293 185.721126 
L 626.585253 185.813362 
L 622.596212 186.058232 
L 618.607172 186.998439 
L 614.618131 187.06107 
L 610.629091 187.189902 
L 606.640051 186.496797 
L 602.65101 188.270693 
L 598.66197 186.907245 
L 594.672929 187.974052 
L 590.683889 188.376169 
L 586.694848 185.866174 
L 582.705808 186.98386 
L 578.716768 185.602857 
L 574.727727 186.595132 
L 570.738687 185.98251 
L 566.749646 187.512577 
L 562.760606 185.926871 
L 558.771566 186.85235 
L 554.782525 187.045151 
L 550.793485 185.971501 
L 546.804444 186.212652 
L 542.815404 186.257728 
L 538.826364 186.190188 
L 534.837323 188.174441 
L 530.848283 184.988747 
L 526.859242 185.797741 
L 522.870202 186.869458 
L 518.881162 185.472091 
L 514.892121 186.651663 
L 510.903081 187.557356 
L 506.91404 187.40725 
L 502.925 188.024484 
L 498.93596 188.33615 
L 494.946919 188.08042 
L 490.957879 187.301774 
L 486.968838 185.895035 
L 482.979798 187.294931 
L 478.990758 185.901581 
L 475.001717 186.126516 
L 471.012677 185.658644 
L 467.023636 186.046033 
L 463.034596 187.234829 
L 459.045556 186.978206 
L 455.056515 185.896225 
L 451.067475 187.248665 
L 447.078434 185.599881 
L 443.089394 185.591699 
L 439.100354 186.816199 
L 435.111313 185.536209 
L 431.122273 187.019266 
L 427.133232 186.0621 
L 423.144192 187.898032 
L 419.155152 185.237188 
L 415.166111 186.834795 
L 411.177071 186.392214 
L 407.18803 187.900115 
L 403.19899 185.290446 
L 399.209949 185.391459 
L 395.220909 185.536507 
L 391.231869 185.654776 
L 387.242828 184.852625 
L 383.253788 185.374946 
L 379.264747 184.942629 
L 375.275707 185.183929 
L 371.286667 185.820205 
L 367.297626 186.622505 
L 363.308586 185.660132 
L 359.319545 186.366923 
L 355.330505 185.946062 
L 351.341465 185.764566 
L 347.352424 185.854421 
L 343.363384 185.23927 
L 339.374343 185.911845 
L 335.385303 186.19718 
L 331.396263 187.301923 
L 327.407222 186.671152 
L 323.418182 187.607937 
L 319.429141 187.02358 
L 315.440101 186.907393 
L 311.451061 188.417823 
L 307.46202 186.287779 
L 303.47298 186.052876 
L 299.483939 188.015111 
L 295.494899 186.638869 
L 291.505859 185.683191 
L 287.516818 187.147801 
L 283.527778 185.99932 
L 279.538737 186.04038 
L 275.549697 187.425995 
L 271.560657 186.416016 
L 267.571616 185.605088 
L 263.582576 185.754301 
L 259.593535 185.375392 
L 255.604495 184.71933 
L 251.615455 185.622196 
L 247.626414 185.442337 
L 243.637374 186.704029 
L 239.648333 185.592592 
L 235.659293 186.909327 
L 231.670253 186.423901 
L 227.681212 184.338785 
L 223.692172 185.085446 
L 219.703131 185.136919 
L 215.714091 186.599148 
L 211.725051 184.667113 
L 207.73601 185.096454 
L 203.74697 185.993221 
L 199.757929 184.317809 
L 195.768889 185.063577 
L 191.779848 186.06448 
L 187.790808 185.124422 
L 183.801768 186.131723 
L 179.812727 185.78703 
L 175.823687 185.256974 
L 171.834646 184.707578 
L 167.845606 185.874505 
L 163.856566 184.911388 
L 159.867525 184.526082 
L 155.878485 184.911983 
L 151.889444 185.865281 
L 147.900404 186.653746 
L 143.911364 187.201952 
z
" clip-path="url(#p9bbaba0ea1)" style="fill: #1f77b4"/>
   </g>
   <g id="PolyCollection_2">
    <path d="M 143.911364 45.246823 
L 143.911364 187.201952 
L 147.900404 186.653746 
L 151.889444 185.865281 
L 155.878485 184.911983 
L 159.867525 184.526082 
L 163.856566 184.911388 
L 167.845606 185.874505 
L 171.834646 184.707578 
L 175.823687 185.256974 
L 179.812727 185.78703 
L 183.801768 186.131723 
L 187.790808 185.124422 
L 191.779848 186.06448 
L 195.768889 185.063577 
L 199.757929 184.317809 
L 203.74697 185.993221 
L 207.73601 185.096454 
L 211.725051 184.667113 
L 215.714091 186.599148 
L 219.703131 185.136919 
L 223.692172 185.085446 
L 227.681212 184.338785 
L 231.670253 186.423901 
L 235.659293 186.909327 
L 239.648333 185.592592 
L 243.637374 186.704029 
L 247.626414 185.442337 
L 251.615455 185.622196 
L 255.604495 184.71933 
L 259.593535 185.375392 
L 263.582576 185.754301 
L 267.571616 185.605088 
L 271.560657 186.416016 
L 275.549697 187.425995 
L 279.538737 186.04038 
L 283.527778 185.99932 
L 287.516818 187.147801 
L 291.505859 185.683191 
L 295.494899 186.638869 
L 299.483939 188.015111 
L 303.47298 186.052876 
L 307.46202 186.287779 
L 311.451061 188.417823 
L 315.440101 186.907393 
L 319.429141 187.02358 
L 323.418182 187.607937 
L 327.407222 186.671152 
L 331.396263 187.301923 
L 335.385303 186.19718 
L 339.374343 185.911845 
L 343.363384 185.23927 
L 347.352424 185.854421 
L 351.341465 185.764566 
L 355.330505 185.946062 
L 359.319545 186.366923 
L 363.308586 185.660132 
L 367.297626 186.622505 
L 371.286667 185.820205 
L 375.275707 185.183929 
L 379.264747 184.942629 
L 383.253788 185.374946 
L 387.242828 184.852625 
L 391.231869 185.654776 
L 395.220909 185.536507 
L 399.209949 185.391459 
L 403.19899 185.290446 
L 407.18803 187.900115 
L 411.177071 186.392214 
L 415.166111 186.834795 
L 419.155152 185.237188 
L 423.144192 187.898032 
L 427.133232 186.0621 
L 431.122273 187.019266 
L 435.111313 185.536209 
L 439.100354 186.816199 
L 443.089394 185.591699 
L 447.078434 185.599881 
L 451.067475 187.248665 
L 455.056515 185.896225 
L 459.045556 186.978206 
L 463.034596 187.234829 
L 467.023636 186.046033 
L 471.012677 185.658644 
L 475.001717 186.126516 
L 478.990758 185.901581 
L 482.979798 187.294931 
L 486.968838 185.895035 
L 490.957879 187.301774 
L 494.946919 188.08042 
L 498.93596 188.33615 
L 502.925 188.024484 
L 506.91404 187.40725 
L 510.903081 187.557356 
L 514.892121 186.651663 
L 518.881162 185.472091 
L 522.870202 186.869458 
L 526.859242 185.797741 
L 530.848283 184.988747 
L 534.837323 188.174441 
L 538.826364 186.190188 
L 542.815404 186.257728 
L 546.804444 186.212652 
L 550.793485 185.971501 
L 554.782525 187.045151 
L 558.771566 186.85235 
L 562.760606 185.926871 
L 566.749646 187.512577 
L 570.738687 185.98251 
L 574.727727 186.595132 
L 578.716768 185.602857 
L 582.705808 186.98386 
L 586.694848 185.866174 
L 590.683889 188.376169 
L 594.672929 187.974052 
L 598.66197 186.907245 
L 602.65101 188.270693 
L 606.640051 186.496797 
L 610.629091 187.189902 
L 614.618131 187.06107 
L 618.607172 186.998439 
L 622.596212 186.058232 
L 626.585253 185.813362 
L 630.574293 185.721126 
L 634.563333 185.493811 
L 638.552374 185.132605 
L 642.541414 186.717418 
L 646.530455 186.579809 
L 650.519495 185.904556 
L 654.508535 186.055554 
L 658.497576 186.58204 
L 662.486616 184.761283 
L 666.475657 185.837908 
L 670.464697 186.222471 
L 674.453737 185.125464 
L 678.442778 184.829269 
L 682.431818 185.611039 
L 686.420859 187.558695 
L 690.409899 186.341187 
L 694.398939 187.051697 
L 698.38798 186.976272 
L 702.37702 186.623249 
L 706.366061 186.591859 
L 710.355101 187.398026 
L 714.344141 188.010351 
L 718.333182 185.603601 
L 722.322222 185.670843 
L 726.311263 185.274231 
L 730.300303 186.636191 
L 734.289343 185.013442 
L 738.278384 186.402479 
L 742.267424 187.564794 
L 746.256465 186.34803 
L 750.245505 187.543223 
L 754.234545 186.829291 
L 758.223586 186.928072 
L 762.212626 186.714443 
L 766.201667 185.697472 
L 770.190707 186.268886 
L 774.179747 186.787041 
L 778.168788 186.835241 
L 782.157828 187.162231 
L 786.146869 186.85592 
L 790.135909 186.011817 
L 794.124949 187.37586 
L 798.11399 186.451572 
L 802.10303 186.15984 
L 806.092071 186.550502 
L 810.081111 185.088123 
L 814.070152 185.929698 
L 818.059192 187.440871 
L 822.048232 186.001701 
L 826.037273 186.573412 
L 830.026313 188.433295 
L 834.015354 188.48938 
L 838.004394 186.373469 
L 841.993434 186.994868 
L 845.982475 184.50585 
L 849.971515 185.217848 
L 853.960556 186.226041 
L 857.949596 186.920634 
L 861.938636 186.588288 
L 861.938636 43.47977 
L 861.938636 43.47977 
L 857.949596 44.630928 
L 853.960556 41.609473 
L 849.971515 42.285618 
L 845.982475 40.013055 
L 841.993434 42.887826 
L 838.004394 42.547299 
L 834.015354 46.106249 
L 830.026313 46.426246 
L 826.037273 44.44006 
L 822.048232 43.173756 
L 818.059192 44.153237 
L 814.070152 44.099086 
L 810.081111 41.044456 
L 806.092071 42.347505 
L 802.10303 43.558021 
L 798.11399 40.697532 
L 794.124949 45.429359 
L 790.135909 42.974706 
L 786.146869 44.958364 
L 782.157828 43.148763 
L 778.168788 44.255291 
L 774.179747 43.69087 
L 770.190707 43.31687 
L 766.201667 42.182225 
L 762.212626 42.853461 
L 758.223586 44.682401 
L 754.234545 44.312418 
L 750.245505 45.436649 
L 746.256465 42.347654 
L 742.267424 43.921607 
L 738.278384 43.735649 
L 734.289343 41.847053 
L 730.300303 42.904042 
L 726.311263 41.61096 
L 722.322222 41.527353 
L 718.333182 41.380074 
L 714.344141 43.910152 
L 710.355101 45.256641 
L 706.366061 44.104293 
L 702.37702 44.360618 
L 698.38798 43.226717 
L 694.398939 43.711995 
L 690.409899 43.567393 
L 686.420859 45.311536 
L 682.431818 43.27462 
L 678.442778 41.414886 
L 674.453737 41.335147 
L 670.464697 42.297519 
L 666.475657 42.84394 
L 662.486616 41.419051 
L 658.497576 41.581504 
L 654.508535 42.686098 
L 650.519495 42.526769 
L 646.530455 43.134631 
L 642.541414 43.609197 
L 638.552374 43.409105 
L 634.563333 41.962943 
L 630.574293 41.207802 
L 626.585253 41.602034 
L 622.596212 41.4131 
L 618.607172 43.994206 
L 614.618131 44.43515 
L 610.629091 44.821796 
L 606.640051 43.592237 
L 602.65101 45.448253 
L 598.66197 43.905392 
L 594.672929 45.121412 
L 590.683889 46.092116 
L 586.694848 43.767187 
L 582.705808 45.177348 
L 578.716768 41.508906 
L 574.727727 43.207973 
L 570.738687 42.460865 
L 566.749646 43.886498 
L 562.760606 42.37101 
L 558.771566 41.988382 
L 554.782525 44.041067 
L 550.793485 42.760036 
L 546.804444 43.949129 
L 542.815404 42.322661 
L 538.826364 43.327879 
L 534.837323 44.637771 
L 530.848283 42.78726 
L 526.859242 42.639832 
L 522.870202 42.724629 
L 518.881162 43.053999 
L 514.892121 42.271634 
L 510.903081 44.562049 
L 506.91404 44.99615 
L 502.925 46.624106 
L 498.93596 45.705173 
L 494.946919 46.358409 
L 490.957879 45.783127 
L 486.968838 44.304979 
L 482.979798 43.826545 
L 478.990758 42.07541 
L 475.001717 42.570655 
L 471.012677 41.400158 
L 467.023636 42.096982 
L 463.034596 43.439156 
L 459.045556 44.373412 
L 455.056515 41.818044 
L 451.067475 44.119467 
L 447.078434 42.351373 
L 443.089394 41.355528 
L 439.100354 42.727307 
L 435.111313 41.406406 
L 431.122273 43.230436 
L 427.133232 43.725086 
L 423.144192 44.598348 
L 419.155152 42.884553 
L 415.166111 42.617071 
L 411.177071 43.255429 
L 407.18803 44.684484 
L 403.19899 43.414163 
L 399.209949 40.609164 
L 395.220909 40.658555 
L 391.231869 42.281304 
L 387.242828 41.150229 
L 383.253788 41.555321 
L 379.264747 40.242751 
L 375.275707 40.43109 
L 371.286667 41.818639 
L 367.297626 42.678809 
L 363.308586 42.1068 
L 359.319545 42.259584 
L 355.330505 43.338887 
L 351.341465 41.221637 
L 347.352424 41.91266 
L 343.363384 41.827862 
L 339.374343 40.843323 
L 335.385303 42.708562 
L 331.396263 45.346794 
L 327.407222 43.81747 
L 323.418182 46.241924 
L 319.429141 44.305426 
L 315.440101 43.073934 
L 311.451061 46.929673 
L 307.46202 44.186561 
L 303.47298 44.027827 
L 299.483939 44.750387 
L 295.494899 44.575289 
L 291.505859 42.042533 
L 287.516818 43.820297 
L 283.527778 42.78726 
L 279.538737 42.905678 
L 275.549697 44.975769 
L 271.560657 43.528714 
L 267.571616 43.05623 
L 263.582576 42.314181 
L 259.593535 42.057707 
L 255.604495 41.267904 
L 251.615455 40.686374 
L 247.626414 40.708094 
L 243.637374 41.903882 
L 239.648333 42.665569 
L 235.659293 42.562473 
L 231.670253 42.9936 
L 227.681212 41.792456 
L 223.692172 40.127755 
L 219.703131 40.799735 
L 215.714091 42.304363 
L 211.725051 41.476475 
L 207.73601 39.911596 
L 203.74697 41.594596 
L 199.757929 39.800319 
L 195.768889 41.596827 
L 191.779848 40.986735 
L 187.790808 40.581642 
L 183.801768 42.367142 
L 179.812727 42.790086 
L 175.823687 41.281739 
L 171.834646 41.580166 
L 167.845606 39.840783 
L 163.856566 41.366834 
L 159.867525 40.272654 
L 155.878485 39.885711 
L 151.889444 41.837235 
L 147.900404 42.227153 
L 143.911364 45.246823 
z
" clip-path="url(#p9bbaba0ea1)" style="fill: #ff7f0e"/>
   </g>
   <g id="matplotlib.axis_1">
    <g id="xtick_1">
     <g id="line2d_1">
      <path d="M 143.911364 331.64 
L 143.911364 23.76 
" clip-path="url(#p9bbaba0ea1)" style="fill: none; stroke-dasharray: 5.12,1.28,0.8,1.28; stroke-dashoffset: 0; stroke: #b0b0b0; stroke-width: 0.8"/>
     </g>
     <g id="line2d_2">
      <defs>
       <path id="mdd6a16f9a1" d="M 0 0 
L 0 3.5 
" style="stroke: #000000; stroke-width: 0.8"/>
      </defs>
      <g>
       <use xlink:href="#mdd6a16f9a1" x="143.911364" y="331.64" style="stroke: #000000; stroke-width: 0.8"/>
      </g>
     </g>
     <g id="text_1">
      <!-- 0 -->
      <g transform="translate(136.912614 355.356563)scale(0.22 -0.22)">
       <defs>
        <path id="DejaVuSans-30" d="M 2034 4250 
Q 1547 4250 1301 3770 
Q 1056 3291 1056 2328 
Q 1056 1369 1301 889 
Q 1547 409 2034 409 
Q 2525 409 2770 889 
Q 3016 1369 3016 2328 
Q 3016 3291 2770 3770 
Q 2525 4250 2034 4250 
z
M 2034 4750 
Q 2819 4750 3233 4129 
Q 3647 3509 3647 2328 
Q 3647 1150 3233 529 
Q 2819 -91 2034 -91 
Q 1250 -91 836 529 
Q 422 1150 422 2328 
Q 422 3509 836 4129 
Q 1250 4750 2034 4750 
z
" transform="scale(0.015625)"/>
       </defs>
       <use xlink:href="#DejaVuSans-30"/>
      </g>
     </g>
    </g>
    <g id="xtick_2">
     <g id="line2d_3">
      <path d="M 243.637374 331.64 
L 243.637374 23.76 
" clip-path="url(#p9bbaba0ea1)" style="fill: none; stroke-dasharray: 5.12,1.28,0.8,1.28; stroke-dashoffset: 0; stroke: #b0b0b0; stroke-width: 0.8"/>
     </g>
     <g id="line2d_4">
      <g>
       <use xlink:href="#mdd6a16f9a1" x="243.637374" y="331.64" style="stroke: #000000; stroke-width: 0.8"/>
      </g>
     </g>
     <g id="text_2">
      <!-- 25 -->
      <g transform="translate(229.639874 355.356563)scale(0.22 -0.22)">
       <defs>
        <path id="DejaVuSans-32" d="M 1228 531 
L 3431 531 
L 3431 0 
L 469 0 
L 469 531 
Q 828 903 1448 1529 
Q 2069 2156 2228 2338 
Q 2531 2678 2651 2914 
Q 2772 3150 2772 3378 
Q 2772 3750 2511 3984 
Q 2250 4219 1831 4219 
Q 1534 4219 1204 4116 
Q 875 4013 500 3803 
L 500 4441 
Q 881 4594 1212 4672 
Q 1544 4750 1819 4750 
Q 2544 4750 2975 4387 
Q 3406 4025 3406 3419 
Q 3406 3131 3298 2873 
Q 3191 2616 2906 2266 
Q 2828 2175 2409 1742 
Q 1991 1309 1228 531 
z
" transform="scale(0.015625)"/>
        <path id="DejaVuSans-35" d="M 691 4666 
L 3169 4666 
L 3169 4134 
L 1269 4134 
L 1269 2991 
Q 1406 3038 1543 3061 
Q 1681 3084 1819 3084 
Q 2600 3084 3056 2656 
Q 3513 2228 3513 1497 
Q 3513 744 3044 326 
Q 2575 -91 1722 -91 
Q 1428 -91 1123 -41 
Q 819 9 494 109 
L 494 744 
Q 775 591 1075 516 
Q 1375 441 1709 441 
Q 2250 441 2565 725 
Q 2881 1009 2881 1497 
Q 2881 1984 2565 2268 
Q 2250 2553 1709 2553 
Q 1456 2553 1204 2497 
Q 953 2441 691 2322 
L 691 4666 
z
" transform="scale(0.015625)"/>
       </defs>
       <use xlink:href="#DejaVuSans-32"/>
       <use xlink:href="#DejaVuSans-35" x="63.623047"/>
      </g>
     </g>
    </g>
    <g id="xtick_3">
     <g id="line2d_5">
      <path d="M 343.363384 331.64 
L 343.363384 23.76 
" clip-path="url(#p9bbaba0ea1)" style="fill: none; stroke-dasharray: 5.12,1.28,0.8,1.28; stroke-dashoffset: 0; stroke: #b0b0b0; stroke-width: 0.8"/>
     </g>
     <g id="line2d_6">
      <g>
       <use xlink:href="#mdd6a16f9a1" x="343.363384" y="331.64" style="stroke: #000000; stroke-width: 0.8"/>
      </g>
     </g>
     <g id="text_3">
      <!-- 50 -->
      <g transform="translate(329.365884 355.356563)scale(0.22 -0.22)">
       <use xlink:href="#DejaVuSans-35"/>
       <use xlink:href="#DejaVuSans-30" x="63.623047"/>
      </g>
     </g>
    </g>
    <g id="xtick_4">
     <g id="line2d_7">
      <path d="M 443.089394 331.64 
L 443.089394 23.76 
" clip-path="url(#p9bbaba0ea1)" style="fill: none; stroke-dasharray: 5.12,1.28,0.8,1.28; stroke-dashoffset: 0; stroke: #b0b0b0; stroke-width: 0.8"/>
     </g>
     <g id="line2d_8">
      <g>
       <use xlink:href="#mdd6a16f9a1" x="443.089394" y="331.64" style="stroke: #000000; stroke-width: 0.8"/>
      </g>
     </g>
     <g id="text_4">
      <!-- 75 -->
      <g transform="translate(429.091894 355.356563)scale(0.22 -0.22)">
       <defs>
        <path id="DejaVuSans-37" d="M 525 4666 
L 3525 4666 
L 3525 4397 
L 1831 0 
L 1172 0 
L 2766 4134 
L 525 4134 
L 525 4666 
z
" transform="scale(0.015625)"/>
       </defs>
       <use xlink:href="#DejaVuSans-37"/>
       <use xlink:href="#DejaVuSans-35" x="63.623047"/>
      </g>
     </g>
    </g>
    <g id="xtick_5">
     <g id="line2d_9">
      <path d="M 542.815404 331.64 
L 542.815404 23.76 
" clip-path="url(#p9bbaba0ea1)" style="fill: none; stroke-dasharray: 5.12,1.28,0.8,1.28; stroke-dashoffset: 0; stroke: #b0b0b0; stroke-width: 0.8"/>
     </g>
     <g id="line2d_10">
      <g>
       <use xlink:href="#mdd6a16f9a1" x="542.815404" y="331.64" style="stroke: #000000; stroke-width: 0.8"/>
      </g>
     </g>
     <g id="text_5">
      <!-- 100 -->
      <g transform="translate(521.819154 355.356563)scale(0.22 -0.22)">
       <defs>
        <path id="DejaVuSans-31" d="M 794 531 
L 1825 531 
L 1825 4091 
L 703 3866 
L 703 4441 
L 1819 4666 
L 2450 4666 
L 2450 531 
L 3481 531 
L 3481 0 
L 794 0 
L 794 531 
z
" transform="scale(0.015625)"/>
       </defs>
       <use xlink:href="#DejaVuSans-31"/>
       <use xlink:href="#DejaVuSans-30" x="63.623047"/>
       <use xlink:href="#DejaVuSans-30" x="127.246094"/>
      </g>
     </g>
    </g>
    <g id="xtick_6">
     <g id="line2d_11">
      <path d="M 642.541414 331.64 
L 642.541414 23.76 
" clip-path="url(#p9bbaba0ea1)" style="fill: none; stroke-dasharray: 5.12,1.28,0.8,1.28; stroke-dashoffset: 0; stroke: #b0b0b0; stroke-width: 0.8"/>
     </g>
     <g id="line2d_12">
      <g>
       <use xlink:href="#mdd6a16f9a1" x="642.541414" y="331.64" style="stroke: #000000; stroke-width: 0.8"/>
      </g>
     </g>
     <g id="text_6">
      <!-- 125 -->
      <g transform="translate(621.545164 355.356563)scale(0.22 -0.22)">
       <use xlink:href="#DejaVuSans-31"/>
       <use xlink:href="#DejaVuSans-32" x="63.623047"/>
       <use xlink:href="#DejaVuSans-35" x="127.246094"/>
      </g>
     </g>
    </g>
    <g id="xtick_7">
     <g id="line2d_13">
      <path d="M 742.267424 331.64 
L 742.267424 23.76 
" clip-path="url(#p9bbaba0ea1)" style="fill: none; stroke-dasharray: 5.12,1.28,0.8,1.28; stroke-dashoffset: 0; stroke: #b0b0b0; stroke-width: 0.8"/>
     </g>
     <g id="line2d_14">
      <g>
       <use xlink:href="#mdd6a16f9a1" x="742.267424" y="331.64" style="stroke: #000000; stroke-width: 0.8"/>
      </g>
     </g>
     <g id="text_7">
      <!-- 150 -->
      <g transform="translate(721.271174 355.356563)scale(0.22 -0.22)">
       <use xlink:href="#DejaVuSans-31"/>
       <use xlink:href="#DejaVuSans-35" x="63.623047"/>
       <use xlink:href="#DejaVuSans-30" x="127.246094"/>
      </g>
     </g>
    </g>
    <g id="xtick_8">
     <g id="line2d_15">
      <path d="M 841.993434 331.64 
L 841.993434 23.76 
" clip-path="url(#p9bbaba0ea1)" style="fill: none; stroke-dasharray: 5.12,1.28,0.8,1.28; stroke-dashoffset: 0; stroke: #b0b0b0; stroke-width: 0.8"/>
     </g>
     <g id="line2d_16">
      <g>
       <use xlink:href="#mdd6a16f9a1" x="841.993434" y="331.64" style="stroke: #000000; stroke-width: 0.8"/>
      </g>
     </g>
     <g id="text_8">
      <!-- 175 -->
      <g transform="translate(820.997184 355.356563)scale(0.22 -0.22)">
       <use xlink:href="#DejaVuSans-31"/>
       <use xlink:href="#DejaVuSans-37" x="63.623047"/>
       <use xlink:href="#DejaVuSans-35" x="127.246094"/>
      </g>
     </g>
    </g>
    <g id="text_9">
     <!-- Time (s) -->
     <g transform="translate(454.135625 382.168125)scale(0.24 -0.24)">
      <defs>
       <path id="DejaVuSans-54" d="M -19 4666 
L 3928 4666 
L 3928 4134 
L 2272 4134 
L 2272 0 
L 1638 0 
L 1638 4134 
L -19 4134 
L -19 4666 
z
" transform="scale(0.015625)"/>
       <path id="DejaVuSans-69" d="M 603 3500 
L 1178 3500 
L 1178 0 
L 603 0 
L 603 3500 
z
M 603 4863 
L 1178 4863 
L 1178 4134 
L 603 4134 
L 603 4863 
z
" transform="scale(0.015625)"/>
       <path id="DejaVuSans-6d" d="M 3328 2828 
Q 3544 3216 3844 3400 
Q 4144 3584 4550 3584 
Q 5097 3584 5394 3201 
Q 5691 2819 5691 2113 
L 5691 0 
L 5113 0 
L 5113 2094 
Q 5113 2597 4934 2840 
Q 4756 3084 4391 3084 
Q 3944 3084 3684 2787 
Q 3425 2491 3425 1978 
L 3425 0 
L 2847 0 
L 2847 2094 
Q 2847 2600 2669 2842 
Q 2491 3084 2119 3084 
Q 1678 3084 1418 2786 
Q 1159 2488 1159 1978 
L 1159 0 
L 581 0 
L 581 3500 
L 1159 3500 
L 1159 2956 
Q 1356 3278 1631 3431 
Q 1906 3584 2284 3584 
Q 2666 3584 2933 3390 
Q 3200 3197 3328 2828 
z
" transform="scale(0.015625)"/>
       <path id="DejaVuSans-65" d="M 3597 1894 
L 3597 1613 
L 953 1613 
Q 991 1019 1311 708 
Q 1631 397 2203 397 
Q 2534 397 2845 478 
Q 3156 559 3463 722 
L 3463 178 
Q 3153 47 2828 -22 
Q 2503 -91 2169 -91 
Q 1331 -91 842 396 
Q 353 884 353 1716 
Q 353 2575 817 3079 
Q 1281 3584 2069 3584 
Q 2775 3584 3186 3129 
Q 3597 2675 3597 1894 
z
M 3022 2063 
Q 3016 2534 2758 2815 
Q 2500 3097 2075 3097 
Q 1594 3097 1305 2825 
Q 1016 2553 972 2059 
L 3022 2063 
z
" transform="scale(0.015625)"/>
       <path id="DejaVuSans-20" transform="scale(0.015625)"/>
       <path id="DejaVuSans-28" d="M 1984 4856 
Q 1566 4138 1362 3434 
Q 1159 2731 1159 2009 
Q 1159 1288 1364 580 
Q 1569 -128 1984 -844 
L 1484 -844 
Q 1016 -109 783 600 
Q 550 1309 550 2009 
Q 550 2706 781 3412 
Q 1013 4119 1484 4856 
L 1984 4856 
z
" transform="scale(0.015625)"/>
       <path id="DejaVuSans-73" d="M 2834 3397 
L 2834 2853 
Q 2591 2978 2328 3040 
Q 2066 3103 1784 3103 
Q 1356 3103 1142 2972 
Q 928 2841 928 2578 
Q 928 2378 1081 2264 
Q 1234 2150 1697 2047 
L 1894 2003 
Q 2506 1872 2764 1633 
Q 3022 1394 3022 966 
Q 3022 478 2636 193 
Q 2250 -91 1575 -91 
Q 1294 -91 989 -36 
Q 684 19 347 128 
L 347 722 
Q 666 556 975 473 
Q 1284 391 1588 391 
Q 1994 391 2212 530 
Q 2431 669 2431 922 
Q 2431 1156 2273 1281 
Q 2116 1406 1581 1522 
L 1381 1569 
Q 847 1681 609 1914 
Q 372 2147 372 2553 
Q 372 3047 722 3315 
Q 1072 3584 1716 3584 
Q 2034 3584 2315 3537 
Q 2597 3491 2834 3397 
z
" transform="scale(0.015625)"/>
       <path id="DejaVuSans-29" d="M 513 4856 
L 1013 4856 
Q 1481 4119 1714 3412 
Q 1947 2706 1947 2009 
Q 1947 1309 1714 600 
Q 1481 -109 1013 -844 
L 513 -844 
Q 928 -128 1133 580 
Q 1338 1288 1338 2009 
Q 1338 2731 1133 3434 
Q 928 4138 513 4856 
z
" transform="scale(0.015625)"/>
      </defs>
      <use xlink:href="#DejaVuSans-54"/>
      <use xlink:href="#DejaVuSans-69" x="57.958984"/>
      <use xlink:href="#DejaVuSans-6d" x="85.742188"/>
      <use xlink:href="#DejaVuSans-65" x="183.154297"/>
      <use xlink:href="#DejaVuSans-20" x="244.677734"/>
      <use xlink:href="#DejaVuSans-28" x="276.464844"/>
      <use xlink:href="#DejaVuSans-73" x="315.478516"/>
      <use xlink:href="#DejaVuSans-29" x="367.578125"/>
     </g>
    </g>
   </g>
   <g id="matplotlib.axis_2">
    <g id="ytick_1">
     <g id="line2d_17">
      <path d="M 108.01 331.64 
L 897.84 331.64 
" clip-path="url(#p9bbaba0ea1)" style="fill: none; stroke-dasharray: 5.12,1.28,0.8,1.28; stroke-dashoffset: 0; stroke: #b0b0b0; stroke-width: 0.8"/>
     </g>
     <g id="line2d_18">
      <defs>
       <path id="m5e2c4a99fa" d="M 0 0 
L -3.5 0 
" style="stroke: #000000; stroke-width: 0.8"/>
      </defs>
      <g>
       <use xlink:href="#m5e2c4a99fa" x="108.01" y="331.64" style="stroke: #000000; stroke-width: 0.8"/>
      </g>
     </g>
     <g id="text_10">
      <!-- 0 -->
      <g transform="translate(87.0125 339.998281)scale(0.22 -0.22)">
       <use xlink:href="#DejaVuSans-30"/>
      </g>
     </g>
    </g>
    <g id="ytick_2">
     <g id="line2d_19">
      <path d="M 108.01 238.660708 
L 897.84 238.660708 
" clip-path="url(#p9bbaba0ea1)" style="fill: none; stroke-dasharray: 5.12,1.28,0.8,1.28; stroke-dashoffset: 0; stroke: #b0b0b0; stroke-width: 0.8"/>
     </g>
     <g id="line2d_20">
      <g>
       <use xlink:href="#m5e2c4a99fa" x="108.01" y="238.660708" style="stroke: #000000; stroke-width: 0.8"/>
      </g>
     </g>
     <g id="text_11">
      <!-- 5 -->
      <g transform="translate(87.0125 247.01899)scale(0.22 -0.22)">
       <use xlink:href="#DejaVuSans-35"/>
      </g>
     </g>
    </g>
    <g id="ytick_3">
     <g id="line2d_21">
      <path d="M 108.01 145.681417 
L 897.84 145.681417 
" clip-path="url(#p9bbaba0ea1)" style="fill: none; stroke-dasharray: 5.12,1.28,0.8,1.28; stroke-dashoffset: 0; stroke: #b0b0b0; stroke-width: 0.8"/>
     </g>
     <g id="line2d_22">
      <g>
       <use xlink:href="#m5e2c4a99fa" x="108.01" y="145.681417" style="stroke: #000000; stroke-width: 0.8"/>
      </g>
     </g>
     <g id="text_12">
      <!-- 10 -->
      <g transform="translate(73.015 154.039698)scale(0.22 -0.22)">
       <use xlink:href="#DejaVuSans-31"/>
       <use xlink:href="#DejaVuSans-30" x="63.623047"/>
      </g>
     </g>
    </g>
    <g id="ytick_4">
     <g id="line2d_23">
      <path d="M 108.01 52.702125 
L 897.84 52.702125 
" clip-path="url(#p9bbaba0ea1)" style="fill: none; stroke-dasharray: 5.12,1.28,0.8,1.28; stroke-dashoffset: 0; stroke: #b0b0b0; stroke-width: 0.8"/>
     </g>
     <g id="line2d_24">
      <g>
       <use xlink:href="#m5e2c4a99fa" x="108.01" y="52.702125" style="stroke: #000000; stroke-width: 0.8"/>
      </g>
     </g>
     <g id="text_13">
      <!-- 15 -->
      <g transform="translate(73.015 61.060407)scale(0.22 -0.22)">
       <use xlink:href="#DejaVuSans-31"/>
       <use xlink:href="#DejaVuSans-35" x="63.623047"/>
      </g>
     </g>
    </g>
    <g id="text_14">
     <!-- Throughput (Mbps) -->
     <g transform="translate(64.02375 292.414375)rotate(-90)scale(0.24 -0.24)">
      <defs>
       <path id="DejaVuSans-68" d="M 3513 2113 
L 3513 0 
L 2938 0 
L 2938 2094 
Q 2938 2591 2744 2837 
Q 2550 3084 2163 3084 
Q 1697 3084 1428 2787 
Q 1159 2491 1159 1978 
L 1159 0 
L 581 0 
L 581 4863 
L 1159 4863 
L 1159 2956 
Q 1366 3272 1645 3428 
Q 1925 3584 2291 3584 
Q 2894 3584 3203 3211 
Q 3513 2838 3513 2113 
z
" transform="scale(0.015625)"/>
       <path id="DejaVuSans-72" d="M 2631 2963 
Q 2534 3019 2420 3045 
Q 2306 3072 2169 3072 
Q 1681 3072 1420 2755 
Q 1159 2438 1159 1844 
L 1159 0 
L 581 0 
L 581 3500 
L 1159 3500 
L 1159 2956 
Q 1341 3275 1631 3429 
Q 1922 3584 2338 3584 
Q 2397 3584 2469 3576 
Q 2541 3569 2628 3553 
L 2631 2963 
z
" transform="scale(0.015625)"/>
       <path id="DejaVuSans-6f" d="M 1959 3097 
Q 1497 3097 1228 2736 
Q 959 2375 959 1747 
Q 959 1119 1226 758 
Q 1494 397 1959 397 
Q 2419 397 2687 759 
Q 2956 1122 2956 1747 
Q 2956 2369 2687 2733 
Q 2419 3097 1959 3097 
z
M 1959 3584 
Q 2709 3584 3137 3096 
Q 3566 2609 3566 1747 
Q 3566 888 3137 398 
Q 2709 -91 1959 -91 
Q 1206 -91 779 398 
Q 353 888 353 1747 
Q 353 2609 779 3096 
Q 1206 3584 1959 3584 
z
" transform="scale(0.015625)"/>
       <path id="DejaVuSans-75" d="M 544 1381 
L 544 3500 
L 1119 3500 
L 1119 1403 
Q 1119 906 1312 657 
Q 1506 409 1894 409 
Q 2359 409 2629 706 
Q 2900 1003 2900 1516 
L 2900 3500 
L 3475 3500 
L 3475 0 
L 2900 0 
L 2900 538 
Q 2691 219 2414 64 
Q 2138 -91 1772 -91 
Q 1169 -91 856 284 
Q 544 659 544 1381 
z
M 1991 3584 
L 1991 3584 
z
" transform="scale(0.015625)"/>
       <path id="DejaVuSans-67" d="M 2906 1791 
Q 2906 2416 2648 2759 
Q 2391 3103 1925 3103 
Q 1463 3103 1205 2759 
Q 947 2416 947 1791 
Q 947 1169 1205 825 
Q 1463 481 1925 481 
Q 2391 481 2648 825 
Q 2906 1169 2906 1791 
z
M 3481 434 
Q 3481 -459 3084 -895 
Q 2688 -1331 1869 -1331 
Q 1566 -1331 1297 -1286 
Q 1028 -1241 775 -1147 
L 775 -588 
Q 1028 -725 1275 -790 
Q 1522 -856 1778 -856 
Q 2344 -856 2625 -561 
Q 2906 -266 2906 331 
L 2906 616 
Q 2728 306 2450 153 
Q 2172 0 1784 0 
Q 1141 0 747 490 
Q 353 981 353 1791 
Q 353 2603 747 3093 
Q 1141 3584 1784 3584 
Q 2172 3584 2450 3431 
Q 2728 3278 2906 2969 
L 2906 3500 
L 3481 3500 
L 3481 434 
z
" transform="scale(0.015625)"/>
       <path id="DejaVuSans-70" d="M 1159 525 
L 1159 -1331 
L 581 -1331 
L 581 3500 
L 1159 3500 
L 1159 2969 
Q 1341 3281 1617 3432 
Q 1894 3584 2278 3584 
Q 2916 3584 3314 3078 
Q 3713 2572 3713 1747 
Q 3713 922 3314 415 
Q 2916 -91 2278 -91 
Q 1894 -91 1617 61 
Q 1341 213 1159 525 
z
M 3116 1747 
Q 3116 2381 2855 2742 
Q 2594 3103 2138 3103 
Q 1681 3103 1420 2742 
Q 1159 2381 1159 1747 
Q 1159 1113 1420 752 
Q 1681 391 2138 391 
Q 2594 391 2855 752 
Q 3116 1113 3116 1747 
z
" transform="scale(0.015625)"/>
       <path id="DejaVuSans-74" d="M 1172 4494 
L 1172 3500 
L 2356 3500 
L 2356 3053 
L 1172 3053 
L 1172 1153 
Q 1172 725 1289 603 
Q 1406 481 1766 481 
L 2356 481 
L 2356 0 
L 1766 0 
Q 1100 0 847 248 
Q 594 497 594 1153 
L 594 3053 
L 172 3053 
L 172 3500 
L 594 3500 
L 594 4494 
L 1172 4494 
z
" transform="scale(0.015625)"/>
       <path id="DejaVuSans-4d" d="M 628 4666 
L 1569 4666 
L 2759 1491 
L 3956 4666 
L 4897 4666 
L 4897 0 
L 4281 0 
L 4281 4097 
L 3078 897 
L 2444 897 
L 1241 4097 
L 1241 0 
L 628 0 
L 628 4666 
z
" transform="scale(0.015625)"/>
       <path id="DejaVuSans-62" d="M 3116 1747 
Q 3116 2381 2855 2742 
Q 2594 3103 2138 3103 
Q 1681 3103 1420 2742 
Q 1159 2381 1159 1747 
Q 1159 1113 1420 752 
Q 1681 391 2138 391 
Q 2594 391 2855 752 
Q 3116 1113 3116 1747 
z
M 1159 2969 
Q 1341 3281 1617 3432 
Q 1894 3584 2278 3584 
Q 2916 3584 3314 3078 
Q 3713 2572 3713 1747 
Q 3713 922 3314 415 
Q 2916 -91 2278 -91 
Q 1894 -91 1617 61 
Q 1341 213 1159 525 
L 1159 0 
L 581 0 
L 581 4863 
L 1159 4863 
L 1159 2969 
z
" transform="scale(0.015625)"/>
      </defs>
      <use xlink:href="#DejaVuSans-54"/>
      <use xlink:href="#DejaVuSans-68" x="61.083984"/>
      <use xlink:href="#DejaVuSans-72" x="124.462891"/>
      <use xlink:href="#DejaVuSans-6f" x="163.326172"/>
      <use xlink:href="#DejaVuSans-75" x="224.507812"/>
      <use xlink:href="#DejaVuSans-67" x="287.886719"/>
      <use xlink:href="#DejaVuSans-68" x="351.363281"/>
      <use xlink:href="#DejaVuSans-70" x="414.742188"/>
      <use xlink:href="#DejaVuSans-75" x="478.21875"/>
      <use xlink:href="#DejaVuSans-74" x="541.597656"/>
      <use xlink:href="#DejaVuSans-20" x="580.806641"/>
      <use xlink:href="#DejaVuSans-28" x="612.59375"/>
      <use xlink:href="#DejaVuSans-4d" x="651.607422"/>
      <use xlink:href="#DejaVuSans-62" x="737.886719"/>
      <use xlink:href="#DejaVuSans-70" x="801.363281"/>
      <use xlink:href="#DejaVuSans-73" x="864.839844"/>
      <use xlink:href="#DejaVuSans-29" x="916.939453"/>
     </g>
    </g>
   </g>
   <g id="patch_3">
    <path d="M 108.01 331.64 
L 108.01 23.76 
" style="fill: none; stroke: #000000; stroke-width: 0.8; stroke-linejoin: miter; stroke-linecap: square"/>
   </g>
   <g id="patch_4">
    <path d="M 897.84 331.64 
L 897.84 23.76 
" style="fill: none; stroke: #000000; stroke-width: 0.8; stroke-linejoin: miter; stroke-linecap: square"/>
   </g>
   <g id="patch_5">
    <path d="M 108.01 331.64 
L 897.84 331.64 
" style="fill: none; stroke: #000000; stroke-width: 0.8; stroke-linejoin: miter; stroke-linecap: square"/>
   </g>
   <g id="patch_6">
    <path d="M 108.01 23.76 
L 897.84 23.76 
" style="fill: none; stroke: #000000; stroke-width: 0.8; stroke-linejoin: miter; stroke-linecap: square"/>
   </g>
   <g id="legend_1">
    <g id="patch_7">
     <path d="M 756.24 113.415 
L 881.04 113.415 
Q 885.84 113.415 885.84 108.615 
L 885.84 40.56 
Q 885.84 35.76 881.04 35.76 
L 756.24 35.76 
Q 751.44 35.76 751.44 40.56 
L 751.44 108.615 
Q 751.44 113.415 756.24 113.415 
z
" style="fill: #ffffff; opacity: 0.8; stroke: #cccccc; stroke-linejoin: miter"/>
    </g>
    <g id="patch_8">
     <path d="M 761.04 63.59625 
L 809.04 63.59625 
L 809.04 46.79625 
L 761.04 46.79625 
z
" style="fill: #1f77b4"/>
    </g>
    <g id="text_15">
     <!-- UE1 -->
     <g transform="translate(828.24 63.59625)scale(0.24 -0.24)">
      <defs>
       <path id="DejaVuSans-55" d="M 556 4666 
L 1191 4666 
L 1191 1831 
Q 1191 1081 1462 751 
Q 1734 422 2344 422 
Q 2950 422 3222 751 
Q 3494 1081 3494 1831 
L 3494 4666 
L 4128 4666 
L 4128 1753 
Q 4128 841 3676 375 
Q 3225 -91 2344 -91 
Q 1459 -91 1007 375 
Q 556 841 556 1753 
L 556 4666 
z
" transform="scale(0.015625)"/>
       <path id="DejaVuSans-45" d="M 628 4666 
L 3578 4666 
L 3578 4134 
L 1259 4134 
L 1259 2753 
L 3481 2753 
L 3481 2222 
L 1259 2222 
L 1259 531 
L 3634 531 
L 3634 0 
L 628 0 
L 628 4666 
z
" transform="scale(0.015625)"/>
      </defs>
      <use xlink:href="#DejaVuSans-55"/>
      <use xlink:href="#DejaVuSans-45" x="73.193359"/>
      <use xlink:href="#DejaVuSans-31" x="136.376953"/>
     </g>
    </g>
    <g id="patch_9">
     <path d="M 761.04 98.82375 
L 809.04 98.82375 
L 809.04 82.02375 
L 761.04 82.02375 
z
" style="fill: #ff7f0e"/>
    </g>
    <g id="text_16">
     <!-- UE2 -->
     <g transform="translate(828.24 98.82375)scale(0.24 -0.24)">
      <use xlink:href="#DejaVuSans-55"/>
      <use xlink:href="#DejaVuSans-45" x="73.193359"/>
      <use xlink:href="#DejaVuSans-32" x="136.376953"/>
     </g>
    </g>
   </g>
  </g>
 </g>
 <defs>
  <clipPath id="p9bbaba0ea1">
   <rect x="108.01" y="23.76" width="789.83" height="307.88"/>
  </clipPath>
 </defs>
</svg>
