<?xml version="1.0" encoding="utf-8" standalone="no"?>
<!DOCTYPE svg PUBLIC "-//W3C//DTD SVG 1.1//EN"
  "http://www.w3.org/Graphics/SVG/1.1/DTD/svg11.dtd">
<svg xmlns:xlink="http://www.w3.org/1999/xlink" width="921.6pt" height="410.4pt" viewBox="0 0 921.6 410.4" xmlns="http://www.w3.org/2000/svg" version="1.1">
 <metadata>
  <rdf:RDF xmlns:dc="http://purl.org/dc/elements/1.1/" xmlns:cc="http://creativecommons.org/ns#" xmlns:rdf="http://www.w3.org/1999/02/22-rdf-syntax-ns#">
   <cc:Work>
    <dc:type rdf:resource="http://purl.org/dc/dcmitype/StillImage"/>
    <dc:date>2023-04-11T15:18:58.803054</dc:date>
    <dc:format>image/svg+xml</dc:format>
    <dc:creator>
     <cc:Agent>
      <dc:title>Matplotlib v3.5.3, https://matplotlib.org/</dc:title>
     </cc:Agent>
    </dc:creator>
   </cc:Work>
  </rdf:RDF>
 </metadata>
 <defs>
  <style type="text/css">*{stroke-linejoin: round; stroke-linecap: butt}</style>
 </defs>
 <g id="figure_1">
  <g id="patch_1">
   <path d="M 0 410.4 
L 921.6 410.4 
L 921.6 0 
L 0 0 
L 0 410.4 
z
" style="fill: none"/>
  </g>
  <g id="axes_1">
   <g id="patch_2">
    <path d="M 101.01 331.64 
L 897.84 331.64 
L 897.84 23.76 
L 101.01 23.76 
z
" style="fill: #ffffff"/>
   </g>
   <g id="PolyCollection_1">
    <path d="M 137.229545 234.960549 
L 137.229545 331.64 
L 141.187966 331.64 
L 145.146386 331.64 
L 149.104806 331.64 
L 153.063227 331.64 
L 157.021647 331.64 
L 160.980067 331.64 
L 164.938487 331.64 
L 168.896908 331.64 
L 172.855328 331.64 
L 176.813748 331.64 
L 180.772168 331.64 
L 184.730589 331.64 
L 188.689009 331.64 
L 192.647429 331.64 
L 196.605849 331.64 
L 200.56427 331.64 
L 204.52269 331.64 
L 208.48111 331.64 
L 212.439531 331.64 
L 216.397951 331.64 
L 220.356371 331.64 
L 224.314791 331.64 
L 228.273212 331.64 
L 232.231632 331.64 
L 236.190052 331.64 
L 240.148472 331.64 
L 244.106893 331.64 
L 248.065313 331.64 
L 252.023733 331.64 
L 255.982154 331.64 
L 259.940574 331.64 
L 263.898994 331.64 
L 267.857414 331.64 
L 271.815835 331.64 
L 275.774255 331.64 
L 279.732675 331.64 
L 283.691095 331.64 
L 287.649516 331.64 
L 291.607936 331.64 
L 295.566356 331.64 
L 299.524776 331.64 
L 303.483197 331.64 
L 307.441617 331.64 
L 311.400037 331.64 
L 315.358458 331.64 
L 319.316878 331.64 
L 323.275298 331.64 
L 327.233718 331.64 
L 331.192139 331.64 
L 335.150559 331.64 
L 339.108979 331.64 
L 343.067399 331.64 
L 347.02582 331.64 
L 350.98424 331.64 
L 354.94266 331.64 
L 358.90108 331.64 
L 362.859501 331.64 
L 366.817921 331.64 
L 370.776341 331.64 
L 374.734762 331.64 
L 378.693182 331.64 
L 382.651602 331.64 
L 386.610022 331.64 
L 390.568443 331.64 
L 394.526863 331.64 
L 398.485283 331.64 
L 402.443703 331.64 
L 406.402124 331.64 
L 410.360544 331.64 
L 414.318964 331.64 
L 418.277385 331.64 
L 422.235805 331.64 
L 426.194225 331.64 
L 430.152645 331.64 
L 434.111066 331.64 
L 438.069486 331.64 
L 442.027906 331.64 
L 445.986326 331.64 
L 449.944747 331.64 
L 453.903167 331.64 
L 457.861587 331.64 
L 461.820007 331.64 
L 465.778428 331.64 
L 469.736848 331.64 
L 473.695268 331.64 
L 477.653689 331.64 
L 481.612109 331.64 
L 485.570529 331.64 
L 489.528949 331.64 
L 493.48737 331.64 
L 497.44579 331.64 
L 501.40421 331.64 
L 505.36263 331.64 
L 509.321051 331.64 
L 513.279471 331.64 
L 517.237891 331.64 
L 521.196311 331.64 
L 525.154732 331.64 
L 529.113152 331.64 
L 533.071572 331.64 
L 537.029993 331.64 
L 540.988413 331.64 
L 544.946833 331.64 
L 548.905253 331.64 
L 552.863674 331.64 
L 556.822094 331.64 
L 560.780514 331.64 
L 564.738934 331.64 
L 568.697355 331.64 
L 572.655775 331.64 
L 576.614195 331.64 
L 580.572615 331.64 
L 584.531036 331.64 
L 588.489456 331.64 
L 592.447876 331.64 
L 596.406297 331.64 
L 600.364717 331.64 
L 604.323137 331.64 
L 608.281557 331.64 
L 612.239978 331.64 
L 616.198398 331.64 
L 620.156818 331.64 
L 624.115238 331.64 
L 628.073659 331.64 
L 632.032079 331.64 
L 635.990499 331.64 
L 639.94892 331.64 
L 643.90734 331.64 
L 647.86576 331.64 
L 651.82418 331.64 
L 655.782601 331.64 
L 659.741021 331.64 
L 663.699441 331.64 
L 667.657861 331.64 
L 671.616282 331.64 
L 675.574702 331.64 
L 679.533122 331.64 
L 683.491542 331.64 
L 687.449963 331.64 
L 691.408383 331.64 
L 695.366803 331.64 
L 699.325224 331.64 
L 703.283644 331.64 
L 707.242064 331.64 
L 711.200484 331.64 
L 715.158905 331.64 
L 719.117325 331.64 
L 723.075745 331.64 
L 727.034165 331.64 
L 730.992586 331.64 
L 734.951006 331.64 
L 738.909426 331.64 
L 742.867846 331.64 
L 746.826267 331.64 
L 750.784687 331.64 
L 754.743107 331.64 
L 758.701528 331.64 
L 762.659948 331.64 
L 766.618368 331.64 
L 770.576788 331.64 
L 774.535209 331.64 
L 778.493629 331.64 
L 782.452049 331.64 
L 786.410469 331.64 
L 790.36889 331.64 
L 794.32731 331.64 
L 798.28573 331.64 
L 802.244151 331.64 
L 806.202571 331.64 
L 810.160991 331.64 
L 814.119411 331.64 
L 818.077832 331.64 
L 822.036252 331.64 
L 825.994672 331.64 
L 829.953092 331.64 
L 833.911513 331.64 
L 837.869933 331.64 
L 841.828353 331.64 
L 845.786773 331.64 
L 849.745194 331.64 
L 853.703614 331.64 
L 857.662034 331.64 
L 861.620455 331.64 
L 861.620455 234.756302 
L 861.620455 234.756302 
L 857.662034 235.884303 
L 853.703614 235.551003 
L 849.745194 235.160658 
L 845.786773 236.167769 
L 841.828353 235.509906 
L 837.869933 236.142214 
L 833.911513 234.242136 
L 829.953092 236.468683 
L 825.994672 234.786907 
L 822.036252 235.84733 
L 818.077832 235.379016 
L 814.119411 235.777116 
L 810.160991 235.486848 
L 806.202571 234.662959 
L 802.244151 235.283989 
L 798.28573 237.582125 
L 794.32731 235.452442 
L 790.36889 234.939875 
L 786.410469 236.056781 
L 782.452049 234.915077 
L 778.493629 235.500481 
L 774.535209 234.875229 
L 770.576788 235.295785 
L 766.618368 235.461839 
L 762.659948 234.628623 
L 758.701528 236.357878 
L 754.743107 235.082505 
L 750.784687 235.837162 
L 746.826267 235.040231 
L 742.867846 235.084553 
L 738.909426 234.110909 
L 734.951006 234.611484 
L 730.992586 234.760622 
L 727.034165 235.378146 
L 723.075745 235.313332 
L 719.117325 235.221054 
L 715.158905 234.653113 
L 711.200484 234.60642 
L 707.242064 235.077821 
L 703.283644 234.798815 
L 699.325224 235.066165 
L 695.366803 235.375635 
L 691.408383 235.981616 
L 687.449963 235.426718 
L 683.491542 236.068254 
L 679.533122 236.43763 
L 675.574702 235.566235 
L 671.616282 235.502907 
L 667.657861 235.427433 
L 663.699441 235.08179 
L 659.741021 235.252192 
L 655.782601 234.655764 
L 651.82418 234.731841 
L 647.86576 235.644991 
L 643.90734 235.435765 
L 639.94892 235.066852 
L 635.990499 235.236175 
L 632.032079 234.7495 
L 628.073659 235.194167 
L 624.115238 234.631849 
L 620.156818 234.9123 
L 616.198398 235.081089 
L 612.239978 234.55148 
L 608.281557 234.71954 
L 604.323137 234.90084 
L 600.364717 235.585941 
L 596.406297 234.682105 
L 592.447876 235.616406 
L 588.489456 235.641064 
L 584.531036 237.53424 
L 580.572615 237.488263 
L 576.614195 235.751855 
L 572.655775 235.544298 
L 568.697355 235.408709 
L 564.738934 235.263483 
L 560.780514 235.011646 
L 556.822094 234.745194 
L 552.863674 234.777271 
L 548.905253 235.012922 
L 544.946833 234.839182 
L 540.988413 234.276135 
L 537.029993 234.945022 
L 533.071572 235.490256 
L 529.113152 234.621316 
L 525.154732 234.252291 
L 521.196311 234.653702 
L 517.237891 235.378595 
L 513.279471 235.095381 
L 509.321051 234.90171 
L 505.36263 236.032979 
L 501.40421 235.373083 
L 497.44579 235.709455 
L 493.48737 235.590163 
L 489.528949 235.386127 
L 485.570529 235.394921 
L 481.612109 235.954854 
L 477.653689 236.872086 
L 473.695268 235.267537 
L 469.736848 235.231476 
L 465.778428 234.725024 
L 461.820007 235.010328 
L 457.861587 235.410813 
L 453.903167 234.195878 
L 449.944747 235.390377 
L 445.986326 234.906044 
L 442.027906 234.836489 
L 438.069486 235.417882 
L 434.111066 235.085521 
L 430.152645 234.838649 
L 426.194225 235.905118 
L 422.235805 235.145805 
L 418.277385 235.175736 
L 414.318964 235.342197 
L 410.360544 235.689229 
L 406.402124 235.388048 
L 402.443703 236.037467 
L 398.485283 235.841327 
L 394.526863 235.474182 
L 390.568443 234.819027 
L 386.610022 235.155988 
L 382.651602 235.48724 
L 378.693182 234.770567 
L 374.734762 234.473425 
L 370.776341 234.403548 
L 366.817921 234.39624 
L 362.859501 235.134486 
L 358.90108 235.231728 
L 354.94266 235.591313 
L 350.98424 235.418008 
L 347.02582 235.504689 
L 343.067399 236.066487 
L 339.108979 235.286009 
L 335.150559 234.87802 
L 331.192139 236.104063 
L 327.233718 235.646015 
L 323.275298 234.602577 
L 319.316878 235.048029 
L 315.358458 235.090444 
L 311.400037 234.811439 
L 307.441617 234.990565 
L 303.483197 234.251506 
L 299.524776 234.118918 
L 295.566356 234.553233 
L 291.607936 235.12046 
L 287.649516 235.352548 
L 283.691095 234.904179 
L 279.732675 234.433956 
L 275.774255 234.725052 
L 271.815835 235.510383 
L 267.857414 235.084329 
L 263.898994 235.140307 
L 259.940574 235.593403 
L 255.982154 235.381358 
L 252.023733 234.895931 
L 248.065313 234.628132 
L 244.106893 235.953521 
L 240.148472 235.508532 
L 236.190052 235.836194 
L 232.231632 234.233847 
L 228.273212 235.502501 
L 224.314791 235.402102 
L 220.356371 234.330178 
L 216.397951 234.821537 
L 212.439531 234.657783 
L 208.48111 234.935569 
L 204.52269 234.79796 
L 200.56427 234.207254 
L 196.605849 235.142495 
L 192.647429 234.851202 
L 188.689009 234.628231 
L 184.730589 234.307988 
L 180.772168 235.083052 
L 176.813748 235.048492 
L 172.855328 236.037481 
L 168.896908 235.922776 
L 164.938487 235.879773 
L 160.980067 235.19909 
L 157.021647 234.811803 
L 153.063227 234.797174 
L 149.104806 234.307245 
L 145.146386 235.011127 
L 141.187966 234.909214 
L 137.229545 234.960549 
z
" clip-path="url(#pf4c2c4d4e0)" style="fill: #1f77b4"/>
   </g>
   <g id="PolyCollection_2">
    <path d="M 137.229545 138.269653 
L 137.229545 234.960549 
L 141.187966 234.909214 
L 145.146386 235.011127 
L 149.104806 234.307245 
L 153.063227 234.797174 
L 157.021647 234.811803 
L 160.980067 235.19909 
L 164.938487 235.879773 
L 168.896908 235.922776 
L 172.855328 236.037481 
L 176.813748 235.048492 
L 180.772168 235.083052 
L 184.730589 234.307988 
L 188.689009 234.628231 
L 192.647429 234.851202 
L 196.605849 235.142495 
L 200.56427 234.207254 
L 204.52269 234.79796 
L 208.48111 234.935569 
L 212.439531 234.657783 
L 216.397951 234.821537 
L 220.356371 234.330178 
L 224.314791 235.402102 
L 228.273212 235.502501 
L 232.231632 234.233847 
L 236.190052 235.836194 
L 240.148472 235.508532 
L 244.106893 235.953521 
L 248.065313 234.628132 
L 252.023733 234.895931 
L 255.982154 235.381358 
L 259.940574 235.593403 
L 263.898994 235.140307 
L 267.857414 235.084329 
L 271.815835 235.510383 
L 275.774255 234.725052 
L 279.732675 234.433956 
L 283.691095 234.904179 
L 287.649516 235.352548 
L 291.607936 235.12046 
L 295.566356 234.553233 
L 299.524776 234.118918 
L 303.483197 234.251506 
L 307.441617 234.990565 
L 311.400037 234.811439 
L 315.358458 235.090444 
L 319.316878 235.048029 
L 323.275298 234.602577 
L 327.233718 235.646015 
L 331.192139 236.104063 
L 335.150559 234.87802 
L 339.108979 235.286009 
L 343.067399 236.066487 
L 347.02582 235.504689 
L 350.98424 235.418008 
L 354.94266 235.591313 
L 358.90108 235.231728 
L 362.859501 235.134486 
L 366.817921 234.39624 
L 370.776341 234.403548 
L 374.734762 234.473425 
L 378.693182 234.770567 
L 382.651602 235.48724 
L 386.610022 235.155988 
L 390.568443 234.819027 
L 394.526863 235.474182 
L 398.485283 235.841327 
L 402.443703 236.037467 
L 406.402124 235.388048 
L 410.360544 235.689229 
L 414.318964 235.342197 
L 418.277385 235.175736 
L 422.235805 235.145805 
L 426.194225 235.905118 
L 430.152645 234.838649 
L 434.111066 235.085521 
L 438.069486 235.417882 
L 442.027906 234.836489 
L 445.986326 234.906044 
L 449.944747 235.390377 
L 453.903167 234.195878 
L 457.861587 235.410813 
L 461.820007 235.010328 
L 465.778428 234.725024 
L 469.736848 235.231476 
L 473.695268 235.267537 
L 477.653689 236.872086 
L 481.612109 235.954854 
L 485.570529 235.394921 
L 489.528949 235.386127 
L 493.48737 235.590163 
L 497.44579 235.709455 
L 501.40421 235.373083 
L 505.36263 236.032979 
L 509.321051 234.90171 
L 513.279471 235.095381 
L 517.237891 235.378595 
L 521.196311 234.653702 
L 525.154732 234.252291 
L 529.113152 234.621316 
L 533.071572 235.490256 
L 537.029993 234.945022 
L 540.988413 234.276135 
L 544.946833 234.839182 
L 548.905253 235.012922 
L 552.863674 234.777271 
L 556.822094 234.745194 
L 560.780514 235.011646 
L 564.738934 235.263483 
L 568.697355 235.408709 
L 572.655775 235.544298 
L 576.614195 235.751855 
L 580.572615 237.488263 
L 584.531036 237.53424 
L 588.489456 235.641064 
L 592.447876 235.616406 
L 596.406297 234.682105 
L 600.364717 235.585941 
L 604.323137 234.90084 
L 608.281557 234.71954 
L 612.239978 234.55148 
L 616.198398 235.081089 
L 620.156818 234.9123 
L 624.115238 234.631849 
L 628.073659 235.194167 
L 632.032079 234.7495 
L 635.990499 235.236175 
L 639.94892 235.066852 
L 643.90734 235.435765 
L 647.86576 235.644991 
L 651.82418 234.731841 
L 655.782601 234.655764 
L 659.741021 235.252192 
L 663.699441 235.08179 
L 667.657861 235.427433 
L 671.616282 235.502907 
L 675.574702 235.566235 
L 679.533122 236.43763 
L 683.491542 236.068254 
L 687.449963 235.426718 
L 691.408383 235.981616 
L 695.366803 235.375635 
L 699.325224 235.066165 
L 703.283644 234.798815 
L 707.242064 235.077821 
L 711.200484 234.60642 
L 715.158905 234.653113 
L 719.117325 235.221054 
L 723.075745 235.313332 
L 727.034165 235.378146 
L 730.992586 234.760622 
L 734.951006 234.611484 
L 738.909426 234.110909 
L 742.867846 235.084553 
L 746.826267 235.040231 
L 750.784687 235.837162 
L 754.743107 235.082505 
L 758.701528 236.357878 
L 762.659948 234.628623 
L 766.618368 235.461839 
L 770.576788 235.295785 
L 774.535209 234.875229 
L 778.493629 235.500481 
L 782.452049 234.915077 
L 786.410469 236.056781 
L 790.36889 234.939875 
L 794.32731 235.452442 
L 798.28573 237.582125 
L 802.244151 235.283989 
L 806.202571 234.662959 
L 810.160991 235.486848 
L 814.119411 235.777116 
L 818.077832 235.379016 
L 822.036252 235.84733 
L 825.994672 234.786907 
L 829.953092 236.468683 
L 833.911513 234.242136 
L 837.869933 236.142214 
L 841.828353 235.509906 
L 845.786773 236.167769 
L 849.745194 235.160658 
L 853.703614 235.551003 
L 857.662034 235.884303 
L 861.620455 234.756302 
L 861.620455 138.071087 
L 861.620455 138.071087 
L 857.662034 139.457419 
L 853.703614 139.653685 
L 849.745194 138.878256 
L 845.786773 140.291897 
L 841.828353 139.429773 
L 837.869933 140.787506 
L 833.911513 137.619771 
L 829.953092 140.183883 
L 825.994672 138.513341 
L 822.036252 139.718653 
L 818.077832 139.202608 
L 814.119411 139.603205 
L 810.160991 139.797017 
L 806.202571 138.058113 
L 802.244151 138.982624 
L 798.28573 141.995736 
L 794.32731 140.525781 
L 790.36889 138.139954 
L 786.410469 139.987715 
L 782.452049 139.018432 
L 778.493629 138.778447 
L 774.535209 138.287775 
L 770.576788 139.270101 
L 766.618368 139.014 
L 762.659948 137.369645 
L 758.701528 140.913124 
L 754.743107 138.694305 
L 750.784687 139.998332 
L 746.826267 138.347974 
L 742.867846 138.707461 
L 738.909426 136.799319 
L 734.951006 137.85813 
L 730.992586 137.684487 
L 727.034165 138.34876 
L 723.075745 139.612757 
L 719.117325 138.554367 
L 715.158905 137.707252 
L 711.200484 137.46714 
L 707.242064 138.929591 
L 703.283644 137.832967 
L 699.325224 138.645172 
L 695.366803 139.112421 
L 691.408383 139.95157 
L 687.449963 139.093345 
L 683.491542 140.306316 
L 679.533122 141.143964 
L 675.574702 140.38172 
L 671.616282 138.955736 
L 667.657861 139.356502 
L 663.699441 138.379084 
L 659.741021 139.12374 
L 655.782601 138.128692 
L 651.82418 137.49083 
L 647.86576 139.42053 
L 643.90734 139.353051 
L 639.94892 138.803708 
L 635.990499 138.617442 
L 632.032079 137.804817 
L 628.073659 138.534016 
L 624.115238 137.851187 
L 620.156818 138.246342 
L 616.198398 138.191528 
L 612.239978 137.706354 
L 608.281557 137.786092 
L 604.323137 137.878159 
L 600.364717 139.72101 
L 596.406297 137.769303 
L 592.447876 139.43558 
L 588.489456 139.486775 
L 584.531036 142.244726 
L 580.572615 144.734906 
L 576.614195 139.952579 
L 572.655775 139.110401 
L 568.697355 139.244307 
L 564.738934 139.244363 
L 560.780514 138.030804 
L 556.822094 138.375059 
L 552.863674 137.620697 
L 548.905253 138.258222 
L 544.946833 138.102729 
L 540.988413 137.003861 
L 537.029993 137.967042 
L 533.071572 138.891581 
L 529.113152 138.410825 
L 525.154732 136.614232 
L 521.196311 138.195441 
L 517.237891 138.910376 
L 513.279471 138.255781 
L 509.321051 138.265137 
L 505.36263 139.949339 
L 501.40421 139.451247 
L 497.44579 139.524323 
L 493.48737 139.793524 
L 489.528949 139.230295 
L 485.570529 138.867428 
L 481.612109 139.727307 
L 477.653689 142.652603 
L 473.695268 138.936871 
L 469.736848 138.520088 
L 465.778428 137.918063 
L 461.820007 138.612659 
L 457.861587 138.96857 
L 453.903167 137.197827 
L 449.944747 138.92976 
L 445.986326 138.337637 
L 442.027906 137.584229 
L 438.069486 139.493339 
L 434.111066 138.331466 
L 430.152645 138.367499 
L 426.194225 139.779344 
L 422.235805 138.641441 
L 418.277385 138.819375 
L 414.318964 139.027199 
L 410.360544 139.864314 
L 406.402124 139.004 
L 402.443703 140.516987 
L 398.485283 139.66945 
L 394.526863 139.44819 
L 390.568443 138.408497 
L 386.610022 138.416421 
L 382.651602 139.076472 
L 378.693182 138.274927 
L 374.734762 137.207799 
L 370.776341 137.417376 
L 366.817921 136.895762 
L 362.859501 138.245178 
L 358.90108 139.135311 
L 354.94266 139.073176 
L 350.98424 139.202818 
L 347.02582 139.736382 
L 343.067399 140.26449 
L 339.108979 139.03633 
L 335.150559 138.405173 
L 331.192139 140.303525 
L 327.233718 139.483704 
L 323.275298 137.939775 
L 319.316878 138.416814 
L 315.358458 138.685258 
L 311.400037 138.1591 
L 307.441617 137.586207 
L 303.483197 137.180448 
L 299.524776 137.063387 
L 295.566356 137.245375 
L 291.607936 138.072405 
L 287.649516 139.324691 
L 283.691095 138.616096 
L 279.732675 137.385775 
L 275.774255 137.836586 
L 271.815835 139.083976 
L 267.857414 138.535544 
L 263.898994 138.780018 
L 259.940574 139.861537 
L 255.982154 138.81002 
L 252.023733 138.108354 
L 248.065313 137.438948 
L 244.106893 140.148607 
L 240.148472 139.185693 
L 236.190052 140.164919 
L 232.231632 137.687335 
L 228.273212 138.939508 
L 224.314791 139.009862 
L 220.356371 137.258321 
L 216.397951 137.681528 
L 212.439531 137.750564 
L 208.48111 138.050118 
L 204.52269 137.922397 
L 200.56427 137.076389 
L 196.605849 138.872548 
L 192.647429 137.888692 
L 188.689009 137.161653 
L 184.730589 137.27497 
L 180.772168 137.993397 
L 176.813748 138.994588 
L 172.855328 139.977195 
L 168.896908 140.344565 
L 164.938487 140.01414 
L 160.980067 139.338254 
L 157.021647 137.682117 
L 153.063227 138.116868 
L 149.104806 136.816263 
L 145.146386 138.105941 
L 141.187966 138.453352 
L 137.229545 138.269653 
z
" clip-path="url(#pf4c2c4d4e0)" style="fill: #ff7f0e"/>
   </g>
   <g id="PolyCollection_3">
    <path d="M 137.229545 41.500366 
L 137.229545 138.269653 
L 141.187966 138.453352 
L 145.146386 138.105941 
L 149.104806 136.816263 
L 153.063227 138.116868 
L 157.021647 137.682117 
L 160.980067 139.338254 
L 164.938487 140.01414 
L 168.896908 140.344565 
L 172.855328 139.977195 
L 176.813748 138.994588 
L 180.772168 137.993397 
L 184.730589 137.27497 
L 188.689009 137.161653 
L 192.647429 137.888692 
L 196.605849 138.872548 
L 200.56427 137.076389 
L 204.52269 137.922397 
L 208.48111 138.050118 
L 212.439531 137.750564 
L 216.397951 137.681528 
L 220.356371 137.258321 
L 224.314791 139.009862 
L 228.273212 138.939508 
L 232.231632 137.687335 
L 236.190052 140.164919 
L 240.148472 139.185693 
L 244.106893 140.148607 
L 248.065313 137.438948 
L 252.023733 138.108354 
L 255.982154 138.81002 
L 259.940574 139.861537 
L 263.898994 138.780018 
L 267.857414 138.535544 
L 271.815835 139.083976 
L 275.774255 137.836586 
L 279.732675 137.385775 
L 283.691095 138.616096 
L 287.649516 139.324691 
L 291.607936 138.072405 
L 295.566356 137.245375 
L 299.524776 137.063387 
L 303.483197 137.180448 
L 307.441617 137.586207 
L 311.400037 138.1591 
L 315.358458 138.685258 
L 319.316878 138.416814 
L 323.275298 137.939775 
L 327.233718 139.483704 
L 331.192139 140.303525 
L 335.150559 138.405173 
L 339.108979 139.03633 
L 343.067399 140.26449 
L 347.02582 139.736382 
L 350.98424 139.202818 
L 354.94266 139.073176 
L 358.90108 139.135311 
L 362.859501 138.245178 
L 366.817921 136.895762 
L 370.776341 137.417376 
L 374.734762 137.207799 
L 378.693182 138.274927 
L 382.651602 139.076472 
L 386.610022 138.416421 
L 390.568443 138.408497 
L 394.526863 139.44819 
L 398.485283 139.66945 
L 402.443703 140.516987 
L 406.402124 139.004 
L 410.360544 139.864314 
L 414.318964 139.027199 
L 418.277385 138.819375 
L 422.235805 138.641441 
L 426.194225 139.779344 
L 430.152645 138.367499 
L 434.111066 138.331466 
L 438.069486 139.493339 
L 442.027906 137.584229 
L 445.986326 138.337637 
L 449.944747 138.92976 
L 453.903167 137.197827 
L 457.861587 138.96857 
L 461.820007 138.612659 
L 465.778428 137.918063 
L 469.736848 138.520088 
L 473.695268 138.936871 
L 477.653689 142.652603 
L 481.612109 139.727307 
L 485.570529 138.867428 
L 489.528949 139.230295 
L 493.48737 139.793524 
L 497.44579 139.524323 
L 501.40421 139.451247 
L 505.36263 139.949339 
L 509.321051 138.265137 
L 513.279471 138.255781 
L 517.237891 138.910376 
L 521.196311 138.195441 
L 525.154732 136.614232 
L 529.113152 138.410825 
L 533.071572 138.891581 
L 537.029993 137.967042 
L 540.988413 137.003861 
L 544.946833 138.102729 
L 548.905253 138.258222 
L 552.863674 137.620697 
L 556.822094 138.375059 
L 560.780514 138.030804 
L 564.738934 139.244363 
L 568.697355 139.244307 
L 572.655775 139.110401 
L 576.614195 139.952579 
L 580.572615 144.734906 
L 584.531036 142.244726 
L 588.489456 139.486775 
L 592.447876 139.43558 
L 596.406297 137.769303 
L 600.364717 139.72101 
L 604.323137 137.878159 
L 608.281557 137.786092 
L 612.239978 137.706354 
L 616.198398 138.191528 
L 620.156818 138.246342 
L 624.115238 137.851187 
L 628.073659 138.534016 
L 632.032079 137.804817 
L 635.990499 138.617442 
L 639.94892 138.803708 
L 643.90734 139.353051 
L 647.86576 139.42053 
L 651.82418 137.49083 
L 655.782601 138.128692 
L 659.741021 139.12374 
L 663.699441 138.379084 
L 667.657861 139.356502 
L 671.616282 138.955736 
L 675.574702 140.38172 
L 679.533122 141.143964 
L 683.491542 140.306316 
L 687.449963 139.093345 
L 691.408383 139.95157 
L 695.366803 139.112421 
L 699.325224 138.645172 
L 703.283644 137.832967 
L 707.242064 138.929591 
L 711.200484 137.46714 
L 715.158905 137.707252 
L 719.117325 138.554367 
L 723.075745 139.612757 
L 727.034165 138.34876 
L 730.992586 137.684487 
L 734.951006 137.85813 
L 738.909426 136.799319 
L 742.867846 138.707461 
L 746.826267 138.347974 
L 750.784687 139.998332 
L 754.743107 138.694305 
L 758.701528 140.913124 
L 762.659948 137.369645 
L 766.618368 139.014 
L 770.576788 139.270101 
L 774.535209 138.287775 
L 778.493629 138.778447 
L 782.452049 139.018432 
L 786.410469 139.987715 
L 790.36889 138.139954 
L 794.32731 140.525781 
L 798.28573 141.995736 
L 802.244151 138.982624 
L 806.202571 138.058113 
L 810.160991 139.797017 
L 814.119411 139.603205 
L 818.077832 139.202608 
L 822.036252 139.718653 
L 825.994672 138.513341 
L 829.953092 140.183883 
L 833.911513 137.619771 
L 837.869933 140.787506 
L 841.828353 139.429773 
L 845.786773 140.291897 
L 849.745194 138.878256 
L 853.703614 139.653685 
L 857.662034 139.457419 
L 861.620455 138.071087 
L 861.620455 41.340273 
L 861.620455 41.340273 
L 857.662034 43.318755 
L 853.703614 43.788459 
L 849.745194 42.946729 
L 845.786773 43.898549 
L 841.828353 44.015638 
L 837.869933 44.200641 
L 833.911513 41.59131 
L 829.953092 44.04881 
L 825.994672 41.922787 
L 822.036252 43.411257 
L 818.077832 43.465916 
L 814.119411 43.34605 
L 810.160991 43.401172 
L 806.202571 42.023873 
L 802.244151 43.00965 
L 798.28573 47.357647 
L 794.32731 43.544153 
L 790.36889 42.001235 
L 786.410469 44.100818 
L 782.452049 42.585349 
L 778.493629 42.002217 
L 774.535209 41.917177 
L 770.576788 42.612236 
L 766.618368 42.54968 
L 762.659948 41.280592 
L 758.701528 45.087254 
L 754.743107 42.544996 
L 750.784687 43.430276 
L 746.826267 41.948665 
L 742.867846 41.227952 
L 738.909426 40.027058 
L 734.951006 40.994349 
L 730.992586 40.794843 
L 727.034165 42.390667 
L 723.075745 43.168873 
L 719.117325 41.271363 
L 715.158905 40.400697 
L 711.200484 41.303328 
L 707.242064 42.068083 
L 703.283644 41.511544 
L 699.325224 42.448188 
L 695.366803 42.958693 
L 691.408383 43.534882 
L 687.449963 43.096457 
L 683.491542 45.175969 
L 679.533122 45.472774 
L 675.574702 44.341336 
L 671.616282 42.779188 
L 667.657861 43.077578 
L 663.699441 41.933167 
L 659.741021 42.34138 
L 655.782601 40.794113 
L 651.82418 41.075545 
L 647.86576 43.402098 
L 643.90734 43.392125 
L 639.94892 42.256074 
L 635.990499 41.435397 
L 632.032079 40.752919 
L 628.073659 41.837986 
L 624.115238 41.495414 
L 620.156818 41.305109 
L 616.198398 41.080146 
L 612.239978 41.08131 
L 608.281557 40.493956 
L 604.323137 41.894244 
L 600.364717 42.965047 
L 596.406297 41.603765 
L 592.447876 43.392434 
L 588.489456 44.286873 
L 584.531036 49.074881 
L 580.572615 48.965856 
L 576.614195 44.150877 
L 572.655775 43.096387 
L 568.697355 42.747812 
L 564.738934 42.606584 
L 560.780514 41.931483 
L 556.822094 41.586261 
L 552.863674 40.554016 
L 548.905253 42.081534 
L 544.946833 41.336177 
L 540.988413 39.870935 
L 537.029993 41.775584 
L 533.071572 42.661664 
L 529.113152 41.236354 
L 525.154732 40.319066 
L 521.196311 41.329599 
L 517.237891 43.022217 
L 513.279471 41.835461 
L 509.321051 42.256817 
L 505.36263 44.006115 
L 501.40421 43.403781 
L 497.44579 44.052625 
L 493.48737 43.847172 
L 489.528949 42.535935 
L 485.570529 42.935059 
L 481.612109 45.832499 
L 477.653689 46.748819 
L 473.695268 42.447234 
L 469.736848 41.774083 
L 465.778428 41.626403 
L 461.820007 42.432353 
L 457.861587 41.969129 
L 453.903167 40.996873 
L 449.944747 42.582684 
L 445.986326 41.185411 
L 442.027906 41.468344 
L 438.069486 43.419715 
L 434.111066 41.610989 
L 430.152645 42.583651 
L 426.194225 43.687836 
L 422.235805 42.413446 
L 418.277385 42.6088 
L 414.318964 43.229199 
L 410.360544 43.671187 
L 406.402124 43.610623 
L 402.443703 44.782904 
L 398.485283 43.989971 
L 394.526863 43.14862 
L 390.568443 41.788586 
L 386.610022 42.249103 
L 382.651602 42.733309 
L 378.693182 41.380092 
L 374.734762 40.139968 
L 370.776341 40.161512 
L 366.817921 39.960294 
L 362.859501 42.709409 
L 358.90108 42.806862 
L 354.94266 43.207795 
L 350.98424 43.354213 
L 347.02582 44.084646 
L 343.067399 44.280393 
L 339.108979 43.093834 
L 335.150559 42.316259 
L 331.192139 44.186082 
L 327.233718 43.495567 
L 323.275298 41.309906 
L 319.316878 42.036118 
L 315.358458 42.433377 
L 311.400037 40.995541 
L 307.441617 40.947853 
L 303.483197 40.031589 
L 299.524776 40.055236 
L 295.566356 40.222946 
L 291.607936 42.164484 
L 287.649516 43.011684 
L 283.691095 41.6343 
L 279.732675 40.743171 
L 275.774255 41.666714 
L 271.815835 42.532597 
L 267.857414 42.478442 
L 263.898994 43.252342 
L 259.940574 43.88817 
L 255.982154 41.695987 
L 252.023733 41.380962 
L 248.065313 41.489299 
L 244.106893 44.491106 
L 240.148472 43.301784 
L 236.190052 43.612138 
L 232.231632 41.853499 
L 228.273212 42.667373 
L 224.314791 42.230785 
L 220.356371 40.237897 
L 216.397951 40.735106 
L 212.439531 41.432213 
L 208.48111 41.26888 
L 204.52269 40.81288 
L 200.56427 41.160669 
L 196.605849 42.05574 
L 192.647429 40.744153 
L 188.689009 40.198667 
L 184.730589 40.743592 
L 180.772168 41.895843 
L 176.813748 42.528726 
L 172.855328 44.492817 
L 168.896908 44.896402 
L 164.938487 44.330508 
L 160.980067 42.59821 
L 157.021647 41.042668 
L 153.063227 40.868115 
L 149.104806 40.349011 
L 145.146386 41.882112 
L 141.187966 41.781728 
L 137.229545 41.500366 
z
" clip-path="url(#pf4c2c4d4e0)" style="fill: #2ca02c"/>
   </g>
   <g id="matplotlib.axis_1">
    <g id="xtick_1">
     <g id="line2d_1">
      <path d="M 137.229545 331.64 
L 137.229545 23.76 
" clip-path="url(#pf4c2c4d4e0)" style="fill: none; stroke-dasharray: 5.12,1.28,0.8,1.28; stroke-dashoffset: 0; stroke: #b0b0b0; stroke-width: 0.8"/>
     </g>
     <g id="line2d_2">
      <defs>
       <path id="m85f4c024d7" d="M 0 0 
L 0 3.5 
" style="stroke: #000000; stroke-width: 0.8"/>
      </defs>
      <g>
       <use xlink:href="#m85f4c024d7" x="137.229545" y="331.64" style="stroke: #000000; stroke-width: 0.8"/>
      </g>
     </g>
     <g id="text_1">
      <!-- 0 -->
      <g transform="translate(130.230795 355.356563)scale(0.22 -0.22)">
       <defs>
        <path id="DejaVuSans-30" d="M 2034 4250 
Q 1547 4250 1301 3770 
Q 1056 3291 1056 2328 
Q 1056 1369 1301 889 
Q 1547 409 2034 409 
Q 2525 409 2770 889 
Q 3016 1369 3016 2328 
Q 3016 3291 2770 3770 
Q 2525 4250 2034 4250 
z
M 2034 4750 
Q 2819 4750 3233 4129 
Q 3647 3509 3647 2328 
Q 3647 1150 3233 529 
Q 2819 -91 2034 -91 
Q 1250 -91 836 529 
Q 422 1150 422 2328 
Q 422 3509 836 4129 
Q 1250 4750 2034 4750 
z
" transform="scale(0.015625)"/>
       </defs>
       <use xlink:href="#DejaVuSans-30"/>
      </g>
     </g>
    </g>
    <g id="xtick_2">
     <g id="line2d_3">
      <path d="M 236.190052 331.64 
L 236.190052 23.76 
" clip-path="url(#pf4c2c4d4e0)" style="fill: none; stroke-dasharray: 5.12,1.28,0.8,1.28; stroke-dashoffset: 0; stroke: #b0b0b0; stroke-width: 0.8"/>
     </g>
     <g id="line2d_4">
      <g>
       <use xlink:href="#m85f4c024d7" x="236.190052" y="331.64" style="stroke: #000000; stroke-width: 0.8"/>
      </g>
     </g>
     <g id="text_2">
      <!-- 25 -->
      <g transform="translate(222.192552 355.356563)scale(0.22 -0.22)">
       <defs>
        <path id="DejaVuSans-32" d="M 1228 531 
L 3431 531 
L 3431 0 
L 469 0 
L 469 531 
Q 828 903 1448 1529 
Q 2069 2156 2228 2338 
Q 2531 2678 2651 2914 
Q 2772 3150 2772 3378 
Q 2772 3750 2511 3984 
Q 2250 4219 1831 4219 
Q 1534 4219 1204 4116 
Q 875 4013 500 3803 
L 500 4441 
Q 881 4594 1212 4672 
Q 1544 4750 1819 4750 
Q 2544 4750 2975 4387 
Q 3406 4025 3406 3419 
Q 3406 3131 3298 2873 
Q 3191 2616 2906 2266 
Q 2828 2175 2409 1742 
Q 1991 1309 1228 531 
z
" transform="scale(0.015625)"/>
        <path id="DejaVuSans-35" d="M 691 4666 
L 3169 4666 
L 3169 4134 
L 1269 4134 
L 1269 2991 
Q 1406 3038 1543 3061 
Q 1681 3084 1819 3084 
Q 2600 3084 3056 2656 
Q 3513 2228 3513 1497 
Q 3513 744 3044 326 
Q 2575 -91 1722 -91 
Q 1428 -91 1123 -41 
Q 819 9 494 109 
L 494 744 
Q 775 591 1075 516 
Q 1375 441 1709 441 
Q 2250 441 2565 725 
Q 2881 1009 2881 1497 
Q 2881 1984 2565 2268 
Q 2250 2553 1709 2553 
Q 1456 2553 1204 2497 
Q 953 2441 691 2322 
L 691 4666 
z
" transform="scale(0.015625)"/>
       </defs>
       <use xlink:href="#DejaVuSans-32"/>
       <use xlink:href="#DejaVuSans-35" x="63.623047"/>
      </g>
     </g>
    </g>
    <g id="xtick_3">
     <g id="line2d_5">
      <path d="M 335.150559 331.64 
L 335.150559 23.76 
" clip-path="url(#pf4c2c4d4e0)" style="fill: none; stroke-dasharray: 5.12,1.28,0.8,1.28; stroke-dashoffset: 0; stroke: #b0b0b0; stroke-width: 0.8"/>
     </g>
     <g id="line2d_6">
      <g>
       <use xlink:href="#m85f4c024d7" x="335.150559" y="331.64" style="stroke: #000000; stroke-width: 0.8"/>
      </g>
     </g>
     <g id="text_3">
      <!-- 50 -->
      <g transform="translate(321.153059 355.356563)scale(0.22 -0.22)">
       <use xlink:href="#DejaVuSans-35"/>
       <use xlink:href="#DejaVuSans-30" x="63.623047"/>
      </g>
     </g>
    </g>
    <g id="xtick_4">
     <g id="line2d_7">
      <path d="M 434.111066 331.64 
L 434.111066 23.76 
" clip-path="url(#pf4c2c4d4e0)" style="fill: none; stroke-dasharray: 5.12,1.28,0.8,1.28; stroke-dashoffset: 0; stroke: #b0b0b0; stroke-width: 0.8"/>
     </g>
     <g id="line2d_8">
      <g>
       <use xlink:href="#m85f4c024d7" x="434.111066" y="331.64" style="stroke: #000000; stroke-width: 0.8"/>
      </g>
     </g>
     <g id="text_4">
      <!-- 75 -->
      <g transform="translate(420.113566 355.356563)scale(0.22 -0.22)">
       <defs>
        <path id="DejaVuSans-37" d="M 525 4666 
L 3525 4666 
L 3525 4397 
L 1831 0 
L 1172 0 
L 2766 4134 
L 525 4134 
L 525 4666 
z
" transform="scale(0.015625)"/>
       </defs>
       <use xlink:href="#DejaVuSans-37"/>
       <use xlink:href="#DejaVuSans-35" x="63.623047"/>
      </g>
     </g>
    </g>
    <g id="xtick_5">
     <g id="line2d_9">
      <path d="M 533.071572 331.64 
L 533.071572 23.76 
" clip-path="url(#pf4c2c4d4e0)" style="fill: none; stroke-dasharray: 5.12,1.28,0.8,1.28; stroke-dashoffset: 0; stroke: #b0b0b0; stroke-width: 0.8"/>
     </g>
     <g id="line2d_10">
      <g>
       <use xlink:href="#m85f4c024d7" x="533.071572" y="331.64" style="stroke: #000000; stroke-width: 0.8"/>
      </g>
     </g>
     <g id="text_5">
      <!-- 100 -->
      <g transform="translate(512.075322 355.356563)scale(0.22 -0.22)">
       <defs>
        <path id="DejaVuSans-31" d="M 794 531 
L 1825 531 
L 1825 4091 
L 703 3866 
L 703 4441 
L 1819 4666 
L 2450 4666 
L 2450 531 
L 3481 531 
L 3481 0 
L 794 0 
L 794 531 
z
" transform="scale(0.015625)"/>
       </defs>
       <use xlink:href="#DejaVuSans-31"/>
       <use xlink:href="#DejaVuSans-30" x="63.623047"/>
       <use xlink:href="#DejaVuSans-30" x="127.246094"/>
      </g>
     </g>
    </g>
    <g id="xtick_6">
     <g id="line2d_11">
      <path d="M 632.032079 331.64 
L 632.032079 23.76 
" clip-path="url(#pf4c2c4d4e0)" style="fill: none; stroke-dasharray: 5.12,1.28,0.8,1.28; stroke-dashoffset: 0; stroke: #b0b0b0; stroke-width: 0.8"/>
     </g>
     <g id="line2d_12">
      <g>
       <use xlink:href="#m85f4c024d7" x="632.032079" y="331.64" style="stroke: #000000; stroke-width: 0.8"/>
      </g>
     </g>
     <g id="text_6">
      <!-- 125 -->
      <g transform="translate(611.035829 355.356563)scale(0.22 -0.22)">
       <use xlink:href="#DejaVuSans-31"/>
       <use xlink:href="#DejaVuSans-32" x="63.623047"/>
       <use xlink:href="#DejaVuSans-35" x="127.246094"/>
      </g>
     </g>
    </g>
    <g id="xtick_7">
     <g id="line2d_13">
      <path d="M 730.992586 331.64 
L 730.992586 23.76 
" clip-path="url(#pf4c2c4d4e0)" style="fill: none; stroke-dasharray: 5.12,1.28,0.8,1.28; stroke-dashoffset: 0; stroke: #b0b0b0; stroke-width: 0.8"/>
     </g>
     <g id="line2d_14">
      <g>
       <use xlink:href="#m85f4c024d7" x="730.992586" y="331.64" style="stroke: #000000; stroke-width: 0.8"/>
      </g>
     </g>
     <g id="text_7">
      <!-- 150 -->
      <g transform="translate(709.996336 355.356563)scale(0.22 -0.22)">
       <use xlink:href="#DejaVuSans-31"/>
       <use xlink:href="#DejaVuSans-35" x="63.623047"/>
       <use xlink:href="#DejaVuSans-30" x="127.246094"/>
      </g>
     </g>
    </g>
    <g id="xtick_8">
     <g id="line2d_15">
      <path d="M 829.953092 331.64 
L 829.953092 23.76 
" clip-path="url(#pf4c2c4d4e0)" style="fill: none; stroke-dasharray: 5.12,1.28,0.8,1.28; stroke-dashoffset: 0; stroke: #b0b0b0; stroke-width: 0.8"/>
     </g>
     <g id="line2d_16">
      <g>
       <use xlink:href="#m85f4c024d7" x="829.953092" y="331.64" style="stroke: #000000; stroke-width: 0.8"/>
      </g>
     </g>
     <g id="text_8">
      <!-- 175 -->
      <g transform="translate(808.956842 355.356563)scale(0.22 -0.22)">
       <use xlink:href="#DejaVuSans-31"/>
       <use xlink:href="#DejaVuSans-37" x="63.623047"/>
       <use xlink:href="#DejaVuSans-35" x="127.246094"/>
      </g>
     </g>
    </g>
    <g id="text_9">
     <!-- Time (s) -->
     <g transform="translate(450.635625 382.168125)scale(0.24 -0.24)">
      <defs>
       <path id="DejaVuSans-54" d="M -19 4666 
L 3928 4666 
L 3928 4134 
L 2272 4134 
L 2272 0 
L 1638 0 
L 1638 4134 
L -19 4134 
L -19 4666 
z
" transform="scale(0.015625)"/>
       <path id="DejaVuSans-69" d="M 603 3500 
L 1178 3500 
L 1178 0 
L 603 0 
L 603 3500 
z
M 603 4863 
L 1178 4863 
L 1178 4134 
L 603 4134 
L 603 4863 
z
" transform="scale(0.015625)"/>
       <path id="DejaVuSans-6d" d="M 3328 2828 
Q 3544 3216 3844 3400 
Q 4144 3584 4550 3584 
Q 5097 3584 5394 3201 
Q 5691 2819 5691 2113 
L 5691 0 
L 5113 0 
L 5113 2094 
Q 5113 2597 4934 2840 
Q 4756 3084 4391 3084 
Q 3944 3084 3684 2787 
Q 3425 2491 3425 1978 
L 3425 0 
L 2847 0 
L 2847 2094 
Q 2847 2600 2669 2842 
Q 2491 3084 2119 3084 
Q 1678 3084 1418 2786 
Q 1159 2488 1159 1978 
L 1159 0 
L 581 0 
L 581 3500 
L 1159 3500 
L 1159 2956 
Q 1356 3278 1631 3431 
Q 1906 3584 2284 3584 
Q 2666 3584 2933 3390 
Q 3200 3197 3328 2828 
z
" transform="scale(0.015625)"/>
       <path id="DejaVuSans-65" d="M 3597 1894 
L 3597 1613 
L 953 1613 
Q 991 1019 1311 708 
Q 1631 397 2203 397 
Q 2534 397 2845 478 
Q 3156 559 3463 722 
L 3463 178 
Q 3153 47 2828 -22 
Q 2503 -91 2169 -91 
Q 1331 -91 842 396 
Q 353 884 353 1716 
Q 353 2575 817 3079 
Q 1281 3584 2069 3584 
Q 2775 3584 3186 3129 
Q 3597 2675 3597 1894 
z
M 3022 2063 
Q 3016 2534 2758 2815 
Q 2500 3097 2075 3097 
Q 1594 3097 1305 2825 
Q 1016 2553 972 2059 
L 3022 2063 
z
" transform="scale(0.015625)"/>
       <path id="DejaVuSans-20" transform="scale(0.015625)"/>
       <path id="DejaVuSans-28" d="M 1984 4856 
Q 1566 4138 1362 3434 
Q 1159 2731 1159 2009 
Q 1159 1288 1364 580 
Q 1569 -128 1984 -844 
L 1484 -844 
Q 1016 -109 783 600 
Q 550 1309 550 2009 
Q 550 2706 781 3412 
Q 1013 4119 1484 4856 
L 1984 4856 
z
" transform="scale(0.015625)"/>
       <path id="DejaVuSans-73" d="M 2834 3397 
L 2834 2853 
Q 2591 2978 2328 3040 
Q 2066 3103 1784 3103 
Q 1356 3103 1142 2972 
Q 928 2841 928 2578 
Q 928 2378 1081 2264 
Q 1234 2150 1697 2047 
L 1894 2003 
Q 2506 1872 2764 1633 
Q 3022 1394 3022 966 
Q 3022 478 2636 193 
Q 2250 -91 1575 -91 
Q 1294 -91 989 -36 
Q 684 19 347 128 
L 347 722 
Q 666 556 975 473 
Q 1284 391 1588 391 
Q 1994 391 2212 530 
Q 2431 669 2431 922 
Q 2431 1156 2273 1281 
Q 2116 1406 1581 1522 
L 1381 1569 
Q 847 1681 609 1914 
Q 372 2147 372 2553 
Q 372 3047 722 3315 
Q 1072 3584 1716 3584 
Q 2034 3584 2315 3537 
Q 2597 3491 2834 3397 
z
" transform="scale(0.015625)"/>
       <path id="DejaVuSans-29" d="M 513 4856 
L 1013 4856 
Q 1481 4119 1714 3412 
Q 1947 2706 1947 2009 
Q 1947 1309 1714 600 
Q 1481 -109 1013 -844 
L 513 -844 
Q 928 -128 1133 580 
Q 1338 1288 1338 2009 
Q 1338 2731 1133 3434 
Q 928 4138 513 4856 
z
" transform="scale(0.015625)"/>
      </defs>
      <use xlink:href="#DejaVuSans-54"/>
      <use xlink:href="#DejaVuSans-69" x="57.958984"/>
      <use xlink:href="#DejaVuSans-6d" x="85.742188"/>
      <use xlink:href="#DejaVuSans-65" x="183.154297"/>
      <use xlink:href="#DejaVuSans-20" x="244.677734"/>
      <use xlink:href="#DejaVuSans-28" x="276.464844"/>
      <use xlink:href="#DejaVuSans-73" x="315.478516"/>
      <use xlink:href="#DejaVuSans-29" x="367.578125"/>
     </g>
    </g>
   </g>
   <g id="matplotlib.axis_2">
    <g id="ytick_1">
     <g id="line2d_17">
      <path d="M 101.01 331.64 
L 897.84 331.64 
" clip-path="url(#pf4c2c4d4e0)" style="fill: none; stroke-dasharray: 5.12,1.28,0.8,1.28; stroke-dashoffset: 0; stroke: #b0b0b0; stroke-width: 0.8"/>
     </g>
     <g id="line2d_18">
      <defs>
       <path id="m2a4d6d2278" d="M 0 0 
L -3.5 0 
" style="stroke: #000000; stroke-width: 0.8"/>
      </defs>
      <g>
       <use xlink:href="#m2a4d6d2278" x="101.01" y="331.64" style="stroke: #000000; stroke-width: 0.8"/>
      </g>
     </g>
     <g id="text_10">
      <!-- 0 -->
      <g transform="translate(80.0125 339.998281)scale(0.22 -0.22)">
       <use xlink:href="#DejaVuSans-30"/>
      </g>
     </g>
    </g>
    <g id="ytick_2">
     <g id="line2d_19">
      <path d="M 101.01 243.97736 
L 897.84 243.97736 
" clip-path="url(#pf4c2c4d4e0)" style="fill: none; stroke-dasharray: 5.12,1.28,0.8,1.28; stroke-dashoffset: 0; stroke: #b0b0b0; stroke-width: 0.8"/>
     </g>
     <g id="line2d_20">
      <g>
       <use xlink:href="#m2a4d6d2278" x="101.01" y="243.97736" style="stroke: #000000; stroke-width: 0.8"/>
      </g>
     </g>
     <g id="text_11">
      <!-- 50 -->
      <g transform="translate(66.015 252.335641)scale(0.22 -0.22)">
       <use xlink:href="#DejaVuSans-35"/>
       <use xlink:href="#DejaVuSans-30" x="63.623047"/>
      </g>
     </g>
    </g>
    <g id="ytick_3">
     <g id="line2d_21">
      <path d="M 101.01 156.31472 
L 897.84 156.31472 
" clip-path="url(#pf4c2c4d4e0)" style="fill: none; stroke-dasharray: 5.12,1.28,0.8,1.28; stroke-dashoffset: 0; stroke: #b0b0b0; stroke-width: 0.8"/>
     </g>
     <g id="line2d_22">
      <g>
       <use xlink:href="#m2a4d6d2278" x="101.01" y="156.31472" style="stroke: #000000; stroke-width: 0.8"/>
      </g>
     </g>
     <g id="text_12">
      <!-- 100 -->
      <g transform="translate(52.0175 164.673001)scale(0.22 -0.22)">
       <use xlink:href="#DejaVuSans-31"/>
       <use xlink:href="#DejaVuSans-30" x="63.623047"/>
       <use xlink:href="#DejaVuSans-30" x="127.246094"/>
      </g>
     </g>
    </g>
    <g id="ytick_4">
     <g id="line2d_23">
      <path d="M 101.01 68.65208 
L 897.84 68.65208 
" clip-path="url(#pf4c2c4d4e0)" style="fill: none; stroke-dasharray: 5.12,1.28,0.8,1.28; stroke-dashoffset: 0; stroke: #b0b0b0; stroke-width: 0.8"/>
     </g>
     <g id="line2d_24">
      <g>
       <use xlink:href="#m2a4d6d2278" x="101.01" y="68.65208" style="stroke: #000000; stroke-width: 0.8"/>
      </g>
     </g>
     <g id="text_13">
      <!-- 150 -->
      <g transform="translate(52.0175 77.010361)scale(0.22 -0.22)">
       <use xlink:href="#DejaVuSans-31"/>
       <use xlink:href="#DejaVuSans-35" x="63.623047"/>
       <use xlink:href="#DejaVuSans-30" x="127.246094"/>
      </g>
     </g>
    </g>
    <g id="text_14">
     <!-- Throughput (Mbps) -->
     <g transform="translate(43.02625 292.414375)rotate(-90)scale(0.24 -0.24)">
      <defs>
       <path id="DejaVuSans-68" d="M 3513 2113 
L 3513 0 
L 2938 0 
L 2938 2094 
Q 2938 2591 2744 2837 
Q 2550 3084 2163 3084 
Q 1697 3084 1428 2787 
Q 1159 2491 1159 1978 
L 1159 0 
L 581 0 
L 581 4863 
L 1159 4863 
L 1159 2956 
Q 1366 3272 1645 3428 
Q 1925 3584 2291 3584 
Q 2894 3584 3203 3211 
Q 3513 2838 3513 2113 
z
" transform="scale(0.015625)"/>
       <path id="DejaVuSans-72" d="M 2631 2963 
Q 2534 3019 2420 3045 
Q 2306 3072 2169 3072 
Q 1681 3072 1420 2755 
Q 1159 2438 1159 1844 
L 1159 0 
L 581 0 
L 581 3500 
L 1159 3500 
L 1159 2956 
Q 1341 3275 1631 3429 
Q 1922 3584 2338 3584 
Q 2397 3584 2469 3576 
Q 2541 3569 2628 3553 
L 2631 2963 
z
" transform="scale(0.015625)"/>
       <path id="DejaVuSans-6f" d="M 1959 3097 
Q 1497 3097 1228 2736 
Q 959 2375 959 1747 
Q 959 1119 1226 758 
Q 1494 397 1959 397 
Q 2419 397 2687 759 
Q 2956 1122 2956 1747 
Q 2956 2369 2687 2733 
Q 2419 3097 1959 3097 
z
M 1959 3584 
Q 2709 3584 3137 3096 
Q 3566 2609 3566 1747 
Q 3566 888 3137 398 
Q 2709 -91 1959 -91 
Q 1206 -91 779 398 
Q 353 888 353 1747 
Q 353 2609 779 3096 
Q 1206 3584 1959 3584 
z
" transform="scale(0.015625)"/>
       <path id="DejaVuSans-75" d="M 544 1381 
L 544 3500 
L 1119 3500 
L 1119 1403 
Q 1119 906 1312 657 
Q 1506 409 1894 409 
Q 2359 409 2629 706 
Q 2900 1003 2900 1516 
L 2900 3500 
L 3475 3500 
L 3475 0 
L 2900 0 
L 2900 538 
Q 2691 219 2414 64 
Q 2138 -91 1772 -91 
Q 1169 -91 856 284 
Q 544 659 544 1381 
z
M 1991 3584 
L 1991 3584 
z
" transform="scale(0.015625)"/>
       <path id="DejaVuSans-67" d="M 2906 1791 
Q 2906 2416 2648 2759 
Q 2391 3103 1925 3103 
Q 1463 3103 1205 2759 
Q 947 2416 947 1791 
Q 947 1169 1205 825 
Q 1463 481 1925 481 
Q 2391 481 2648 825 
Q 2906 1169 2906 1791 
z
M 3481 434 
Q 3481 -459 3084 -895 
Q 2688 -1331 1869 -1331 
Q 1566 -1331 1297 -1286 
Q 1028 -1241 775 -1147 
L 775 -588 
Q 1028 -725 1275 -790 
Q 1522 -856 1778 -856 
Q 2344 -856 2625 -561 
Q 2906 -266 2906 331 
L 2906 616 
Q 2728 306 2450 153 
Q 2172 0 1784 0 
Q 1141 0 747 490 
Q 353 981 353 1791 
Q 353 2603 747 3093 
Q 1141 3584 1784 3584 
Q 2172 3584 2450 3431 
Q 2728 3278 2906 2969 
L 2906 3500 
L 3481 3500 
L 3481 434 
z
" transform="scale(0.015625)"/>
       <path id="DejaVuSans-70" d="M 1159 525 
L 1159 -1331 
L 581 -1331 
L 581 3500 
L 1159 3500 
L 1159 2969 
Q 1341 3281 1617 3432 
Q 1894 3584 2278 3584 
Q 2916 3584 3314 3078 
Q 3713 2572 3713 1747 
Q 3713 922 3314 415 
Q 2916 -91 2278 -91 
Q 1894 -91 1617 61 
Q 1341 213 1159 525 
z
M 3116 1747 
Q 3116 2381 2855 2742 
Q 2594 3103 2138 3103 
Q 1681 3103 1420 2742 
Q 1159 2381 1159 1747 
Q 1159 1113 1420 752 
Q 1681 391 2138 391 
Q 2594 391 2855 752 
Q 3116 1113 3116 1747 
z
" transform="scale(0.015625)"/>
       <path id="DejaVuSans-74" d="M 1172 4494 
L 1172 3500 
L 2356 3500 
L 2356 3053 
L 1172 3053 
L 1172 1153 
Q 1172 725 1289 603 
Q 1406 481 1766 481 
L 2356 481 
L 2356 0 
L 1766 0 
Q 1100 0 847 248 
Q 594 497 594 1153 
L 594 3053 
L 172 3053 
L 172 3500 
L 594 3500 
L 594 4494 
L 1172 4494 
z
" transform="scale(0.015625)"/>
       <path id="DejaVuSans-4d" d="M 628 4666 
L 1569 4666 
L 2759 1491 
L 3956 4666 
L 4897 4666 
L 4897 0 
L 4281 0 
L 4281 4097 
L 3078 897 
L 2444 897 
L 1241 4097 
L 1241 0 
L 628 0 
L 628 4666 
z
" transform="scale(0.015625)"/>
       <path id="DejaVuSans-62" d="M 3116 1747 
Q 3116 2381 2855 2742 
Q 2594 3103 2138 3103 
Q 1681 3103 1420 2742 
Q 1159 2381 1159 1747 
Q 1159 1113 1420 752 
Q 1681 391 2138 391 
Q 2594 391 2855 752 
Q 3116 1113 3116 1747 
z
M 1159 2969 
Q 1341 3281 1617 3432 
Q 1894 3584 2278 3584 
Q 2916 3584 3314 3078 
Q 3713 2572 3713 1747 
Q 3713 922 3314 415 
Q 2916 -91 2278 -91 
Q 1894 -91 1617 61 
Q 1341 213 1159 525 
L 1159 0 
L 581 0 
L 581 4863 
L 1159 4863 
L 1159 2969 
z
" transform="scale(0.015625)"/>
      </defs>
      <use xlink:href="#DejaVuSans-54"/>
      <use xlink:href="#DejaVuSans-68" x="61.083984"/>
      <use xlink:href="#DejaVuSans-72" x="124.462891"/>
      <use xlink:href="#DejaVuSans-6f" x="163.326172"/>
      <use xlink:href="#DejaVuSans-75" x="224.507812"/>
      <use xlink:href="#DejaVuSans-67" x="287.886719"/>
      <use xlink:href="#DejaVuSans-68" x="351.363281"/>
      <use xlink:href="#DejaVuSans-70" x="414.742188"/>
      <use xlink:href="#DejaVuSans-75" x="478.21875"/>
      <use xlink:href="#DejaVuSans-74" x="541.597656"/>
      <use xlink:href="#DejaVuSans-20" x="580.806641"/>
      <use xlink:href="#DejaVuSans-28" x="612.59375"/>
      <use xlink:href="#DejaVuSans-4d" x="651.607422"/>
      <use xlink:href="#DejaVuSans-62" x="737.886719"/>
      <use xlink:href="#DejaVuSans-70" x="801.363281"/>
      <use xlink:href="#DejaVuSans-73" x="864.839844"/>
      <use xlink:href="#DejaVuSans-29" x="916.939453"/>
     </g>
    </g>
   </g>
   <g id="patch_3">
    <path d="M 101.01 331.64 
L 101.01 23.76 
" style="fill: none; stroke: #000000; stroke-width: 0.8; stroke-linejoin: miter; stroke-linecap: square"/>
   </g>
   <g id="patch_4">
    <path d="M 897.84 331.64 
L 897.84 23.76 
" style="fill: none; stroke: #000000; stroke-width: 0.8; stroke-linejoin: miter; stroke-linecap: square"/>
   </g>
   <g id="patch_5">
    <path d="M 101.01 331.64 
L 897.84 331.64 
" style="fill: none; stroke: #000000; stroke-width: 0.8; stroke-linejoin: miter; stroke-linecap: square"/>
   </g>
   <g id="patch_6">
    <path d="M 101.01 23.76 
L 897.84 23.76 
" style="fill: none; stroke: #000000; stroke-width: 0.8; stroke-linejoin: miter; stroke-linecap: square"/>
   </g>
   <g id="legend_1">
    <g id="patch_7">
     <path d="M 756.24 148.6425 
L 881.04 148.6425 
Q 885.84 148.6425 885.84 143.8425 
L 885.84 40.56 
Q 885.84 35.76 881.04 35.76 
L 756.24 35.76 
Q 751.44 35.76 751.44 40.56 
L 751.44 143.8425 
Q 751.44 148.6425 756.24 148.6425 
z
" style="fill: #ffffff; opacity: 0.8; stroke: #cccccc; stroke-linejoin: miter"/>
    </g>
    <g id="patch_8">
     <path d="M 761.04 63.59625 
L 809.04 63.59625 
L 809.04 46.79625 
L 761.04 46.79625 
z
" style="fill: #1f77b4"/>
    </g>
    <g id="text_15">
     <!-- UE1 -->
     <g transform="translate(828.24 63.59625)scale(0.24 -0.24)">
      <defs>
       <path id="DejaVuSans-55" d="M 556 4666 
L 1191 4666 
L 1191 1831 
Q 1191 1081 1462 751 
Q 1734 422 2344 422 
Q 2950 422 3222 751 
Q 3494 1081 3494 1831 
L 3494 4666 
L 4128 4666 
L 4128 1753 
Q 4128 841 3676 375 
Q 3225 -91 2344 -91 
Q 1459 -91 1007 375 
Q 556 841 556 1753 
L 556 4666 
z
" transform="scale(0.015625)"/>
       <path id="DejaVuSans-45" d="M 628 4666 
L 3578 4666 
L 3578 4134 
L 1259 4134 
L 1259 2753 
L 3481 2753 
L 3481 2222 
L 1259 2222 
L 1259 531 
L 3634 531 
L 3634 0 
L 628 0 
L 628 4666 
z
" transform="scale(0.015625)"/>
      </defs>
      <use xlink:href="#DejaVuSans-55"/>
      <use xlink:href="#DejaVuSans-45" x="73.193359"/>
      <use xlink:href="#DejaVuSans-31" x="136.376953"/>
     </g>
    </g>
    <g id="patch_9">
     <path d="M 761.04 98.82375 
L 809.04 98.82375 
L 809.04 82.02375 
L 761.04 82.02375 
z
" style="fill: #ff7f0e"/>
    </g>
    <g id="text_16">
     <!-- UE2 -->
     <g transform="translate(828.24 98.82375)scale(0.24 -0.24)">
      <use xlink:href="#DejaVuSans-55"/>
      <use xlink:href="#DejaVuSans-45" x="73.193359"/>
      <use xlink:href="#DejaVuSans-32" x="136.376953"/>
     </g>
    </g>
    <g id="patch_10">
     <path d="M 761.04 134.05125 
L 809.04 134.05125 
L 809.04 117.25125 
L 761.04 117.25125 
z
" style="fill: #2ca02c"/>
    </g>
    <g id="text_17">
     <!-- UE3 -->
     <g transform="translate(828.24 134.05125)scale(0.24 -0.24)">
      <defs>
       <path id="DejaVuSans-33" d="M 2597 2516 
Q 3050 2419 3304 2112 
Q 3559 1806 3559 1356 
Q 3559 666 3084 287 
Q 2609 -91 1734 -91 
Q 1441 -91 1130 -33 
Q 819 25 488 141 
L 488 750 
Q 750 597 1062 519 
Q 1375 441 1716 441 
Q 2309 441 2620 675 
Q 2931 909 2931 1356 
Q 2931 1769 2642 2001 
Q 2353 2234 1838 2234 
L 1294 2234 
L 1294 2753 
L 1863 2753 
Q 2328 2753 2575 2939 
Q 2822 3125 2822 3475 
Q 2822 3834 2567 4026 
Q 2313 4219 1838 4219 
Q 1578 4219 1281 4162 
Q 984 4106 628 3988 
L 628 4550 
Q 988 4650 1302 4700 
Q 1616 4750 1894 4750 
Q 2613 4750 3031 4423 
Q 3450 4097 3450 3541 
Q 3450 3153 3228 2886 
Q 3006 2619 2597 2516 
z
" transform="scale(0.015625)"/>
      </defs>
      <use xlink:href="#DejaVuSans-55"/>
      <use xlink:href="#DejaVuSans-45" x="73.193359"/>
      <use xlink:href="#DejaVuSans-33" x="136.376953"/>
     </g>
    </g>
   </g>
  </g>
 </g>
 <defs>
  <clipPath id="pf4c2c4d4e0">
   <rect x="101.01" y="23.76" width="796.83" height="307.88"/>
  </clipPath>
 </defs>
</svg>
