<?xml version="1.0" encoding="utf-8" standalone="no"?>
<!DOCTYPE svg PUBLIC "-//W3C//DTD SVG 1.1//EN"
  "http://www.w3.org/Graphics/SVG/1.1/DTD/svg11.dtd">
<svg xmlns:xlink="http://www.w3.org/1999/xlink" width="921.6pt" height="410.4pt" viewBox="0 0 921.6 410.4" xmlns="http://www.w3.org/2000/svg" version="1.1">
 <metadata>
  <rdf:RDF xmlns:dc="http://purl.org/dc/elements/1.1/" xmlns:cc="http://creativecommons.org/ns#" xmlns:rdf="http://www.w3.org/1999/02/22-rdf-syntax-ns#">
   <cc:Work>
    <dc:type rdf:resource="http://purl.org/dc/dcmitype/StillImage"/>
    <dc:date>2023-04-11T17:41:57.658018</dc:date>
    <dc:format>image/svg+xml</dc:format>
    <dc:creator>
     <cc:Agent>
      <dc:title>Matplotlib v3.5.3, https://matplotlib.org/</dc:title>
     </cc:Agent>
    </dc:creator>
   </cc:Work>
  </rdf:RDF>
 </metadata>
 <defs>
  <style type="text/css">*{stroke-linejoin: round; stroke-linecap: butt}</style>
 </defs>
 <g id="figure_1">
  <g id="patch_1">
   <path d="M 0 410.4 
L 921.6 410.4 
L 921.6 0 
L 0 0 
L 0 410.4 
z
" style="fill: none"/>
  </g>
  <g id="axes_1">
   <g id="patch_2">
    <path d="M 108.01 331.64 
L 897.84 331.64 
L 897.84 23.76 
L 108.01 23.76 
z
" style="fill: #ffffff"/>
   </g>
   <g id="PolyCollection_1">
    <path d="M 143.911364 190.800053 
L 143.911364 331.64 
L 147.900404 331.64 
L 151.889444 331.64 
L 155.878485 331.64 
L 159.867525 331.64 
L 163.856566 331.64 
L 167.845606 331.64 
L 171.834646 331.64 
L 175.823687 331.64 
L 179.812727 331.64 
L 183.801768 331.64 
L 187.790808 331.64 
L 191.779848 331.64 
L 195.768889 331.64 
L 199.757929 331.64 
L 203.74697 331.64 
L 207.73601 331.64 
L 211.725051 331.64 
L 215.714091 331.64 
L 219.703131 331.64 
L 223.692172 331.64 
L 227.681212 331.64 
L 231.670253 331.64 
L 235.659293 331.64 
L 239.648333 331.64 
L 243.637374 331.64 
L 247.626414 331.64 
L 251.615455 331.64 
L 255.604495 331.64 
L 259.593535 331.64 
L 263.582576 331.64 
L 267.571616 331.64 
L 271.560657 331.64 
L 275.549697 331.64 
L 279.538737 331.64 
L 283.527778 331.64 
L 287.516818 331.64 
L 291.505859 331.64 
L 295.494899 331.64 
L 299.483939 331.64 
L 303.47298 331.64 
L 307.46202 331.64 
L 311.451061 331.64 
L 315.440101 331.64 
L 319.429141 331.64 
L 323.418182 331.64 
L 327.407222 331.64 
L 331.396263 331.64 
L 335.385303 331.64 
L 339.374343 331.64 
L 343.363384 331.64 
L 347.352424 331.64 
L 351.341465 331.64 
L 355.330505 331.64 
L 359.319545 331.64 
L 363.308586 331.64 
L 367.297626 331.64 
L 371.286667 331.64 
L 375.275707 331.64 
L 379.264747 331.64 
L 383.253788 331.64 
L 387.242828 331.64 
L 391.231869 331.64 
L 395.220909 331.64 
L 399.209949 331.64 
L 403.19899 331.64 
L 407.18803 331.64 
L 411.177071 331.64 
L 415.166111 331.64 
L 419.155152 331.64 
L 423.144192 331.64 
L 427.133232 331.64 
L 431.122273 331.64 
L 435.111313 331.64 
L 439.100354 331.64 
L 443.089394 331.64 
L 447.078434 331.64 
L 451.067475 331.64 
L 455.056515 331.64 
L 459.045556 331.64 
L 463.034596 331.64 
L 467.023636 331.64 
L 471.012677 331.64 
L 475.001717 331.64 
L 478.990758 331.64 
L 482.979798 331.64 
L 486.968838 331.64 
L 490.957879 331.64 
L 494.946919 331.64 
L 498.93596 331.64 
L 502.925 331.64 
L 506.91404 331.64 
L 510.903081 331.64 
L 514.892121 331.64 
L 518.881162 331.64 
L 522.870202 331.64 
L 526.859242 331.64 
L 530.848283 331.64 
L 534.837323 331.64 
L 538.826364 331.64 
L 542.815404 331.64 
L 546.804444 331.64 
L 550.793485 331.64 
L 554.782525 331.64 
L 558.771566 331.64 
L 562.760606 331.64 
L 566.749646 331.64 
L 570.738687 331.64 
L 574.727727 331.64 
L 578.716768 331.64 
L 582.705808 331.64 
L 586.694848 331.64 
L 590.683889 331.64 
L 594.672929 331.64 
L 598.66197 331.64 
L 602.65101 331.64 
L 606.640051 331.64 
L 610.629091 331.64 
L 614.618131 331.64 
L 618.607172 331.64 
L 622.596212 331.64 
L 626.585253 331.64 
L 630.574293 331.64 
L 634.563333 331.64 
L 638.552374 331.64 
L 642.541414 331.64 
L 646.530455 331.64 
L 650.519495 331.64 
L 654.508535 331.64 
L 658.497576 331.64 
L 662.486616 331.64 
L 666.475657 331.64 
L 670.464697 331.64 
L 674.453737 331.64 
L 678.442778 331.64 
L 682.431818 331.64 
L 686.420859 331.64 
L 690.409899 331.64 
L 694.398939 331.64 
L 698.38798 331.64 
L 702.37702 331.64 
L 706.366061 331.64 
L 710.355101 331.64 
L 714.344141 331.64 
L 718.333182 331.64 
L 722.322222 331.64 
L 726.311263 331.64 
L 730.300303 331.64 
L 734.289343 331.64 
L 738.278384 331.64 
L 742.267424 331.64 
L 746.256465 331.64 
L 750.245505 331.64 
L 754.234545 331.64 
L 758.223586 331.64 
L 762.212626 331.64 
L 766.201667 331.64 
L 770.190707 331.64 
L 774.179747 331.64 
L 778.168788 331.64 
L 782.157828 331.64 
L 786.146869 331.64 
L 790.135909 331.64 
L 794.124949 331.64 
L 798.11399 331.64 
L 802.10303 331.64 
L 806.092071 331.64 
L 810.081111 331.64 
L 814.070152 331.64 
L 818.059192 331.64 
L 822.048232 331.64 
L 826.037273 331.64 
L 830.026313 331.64 
L 834.015354 331.64 
L 838.004394 331.64 
L 841.993434 331.64 
L 845.982475 331.64 
L 849.971515 331.64 
L 853.960556 331.64 
L 857.949596 331.64 
L 861.938636 331.64 
L 861.938636 190.598455 
L 861.938636 190.598455 
L 857.949596 191.482119 
L 853.960556 191.203968 
L 849.971515 191.448879 
L 845.982475 191.365851 
L 841.993434 190.033951 
L 838.004394 191.63321 
L 834.015354 188.139274 
L 830.026313 191.492048 
L 826.037273 189.967327 
L 822.048232 190.437147 
L 818.059192 190.441608 
L 814.070152 190.556437 
L 810.081111 191.191593 
L 806.092071 190.154968 
L 802.10303 189.907755 
L 798.11399 190.121728 
L 794.124949 188.973583 
L 790.135909 189.943872 
L 786.146869 192.290958 
L 782.157828 190.419592 
L 778.168788 191.141374 
L 774.179747 192.388375 
L 770.190707 191.725159 
L 766.201667 190.145471 
L 762.212626 190.167774 
L 758.223586 192.887694 
L 754.234545 191.6912 
L 750.245505 191.801136 
L 746.256465 189.9774 
L 742.267424 189.9833 
L 738.278384 189.566002 
L 734.289343 189.690184 
L 730.300303 188.77328 
L 726.311263 189.635935 
L 722.322222 190.889412 
L 718.333182 189.79825 
L 714.344141 190.161875 
L 710.355101 191.143388 
L 706.366061 191.524568 
L 702.37702 191.233179 
L 698.38798 189.384117 
L 694.398939 191.038057 
L 690.409899 192.192965 
L 686.420859 190.101582 
L 682.431818 189.71738 
L 678.442778 188.542183 
L 674.453737 189.29778 
L 670.464697 189.094455 
L 666.475657 190.127627 
L 662.486616 189.418077 
L 658.497576 188.991713 
L 654.508535 190.582482 
L 650.519495 191.012155 
L 646.530455 192.759483 
L 642.541414 191.301098 
L 638.552374 190.727385 
L 634.563333 185.621816 
L 630.574293 189.505278 
L 626.585253 191.265124 
L 622.596212 188.793857 
L 618.607172 191.158066 
L 614.618131 189.450453 
L 610.629091 189.302385 
L 606.640051 189.257921 
L 602.65101 189.477362 
L 598.66197 189.664283 
L 594.672929 188.575854 
L 590.683889 189.860269 
L 586.694848 189.132731 
L 582.705808 189.959125 
L 578.716768 189.084095 
L 574.727727 189.234178 
L 570.738687 189.400378 
L 566.749646 189.702415 
L 562.760606 189.334905 
L 558.771566 189.148128 
L 554.782525 189.699249 
L 550.793485 189.260079 
L 546.804444 189.961572 
L 542.815404 189.084526 
L 538.826364 189.925885 
L 534.837323 188.805224 
L 530.848283 190.38146 
L 526.859242 190.593418 
L 522.870202 188.93286 
L 518.881162 189.042221 
L 514.892121 189.404695 
L 510.903081 189.175181 
L 506.91404 189.855664 
L 502.925 189.751484 
L 498.93596 189.350158 
L 494.946919 188.109632 
L 490.957879 189.561541 
L 486.968838 190.358436 
L 482.979798 190.579748 
L 478.990758 189.330588 
L 475.001717 188.995455 
L 471.012677 189.599961 
L 467.023636 189.471174 
L 463.034596 190.443047 
L 459.045556 189.219213 
L 455.056515 190.271667 
L 451.067475 190.108921 
L 447.078434 192.145623 
L 443.089394 190.499886 
L 439.100354 191.202961 
L 435.111313 191.27088 
L 431.122273 190.631119 
L 427.133232 191.929204 
L 423.144192 189.872644 
L 419.155152 192.544934 
L 415.166111 189.430308 
L 411.177071 189.657664 
L 407.18803 189.459375 
L 403.19899 188.636722 
L 399.209949 188.34188 
L 395.220909 189.495061 
L 391.231869 189.818971 
L 387.242828 189.050711 
L 383.253788 189.269864 
L 379.264747 188.374688 
L 375.275707 188.51254 
L 371.286667 189.222235 
L 367.297626 188.843069 
L 363.308586 189.534201 
L 359.319545 189.274469 
L 355.330505 189.356489 
L 351.341465 190.552552 
L 347.352424 190.27066 
L 343.363384 188.268493 
L 339.374343 189.205255 
L 335.385303 190.954597 
L 331.396263 190.883368 
L 327.407222 189.93121 
L 323.418182 188.774862 
L 319.429141 187.755648 
L 315.440101 187.962858 
L 311.451061 189.978983 
L 307.46202 188.434117 
L 303.47298 189.439086 
L 299.483939 190.346781 
L 295.494899 187.73579 
L 291.505859 190.389662 
L 287.516818 190.975894 
L 283.527778 188.412101 
L 279.538737 189.94229 
L 275.549697 189.686587 
L 271.560657 190.216699 
L 267.571616 185.295317 
L 263.582576 188.484481 
L 259.593535 188.882209 
L 255.604495 191.130582 
L 251.615455 190.92035 
L 247.626414 189.21173 
L 243.637374 183.165388 
L 239.648333 194.018715 
L 235.659293 189.014737 
L 231.670253 187.744136 
L 227.681212 190.563488 
L 223.692172 192.8133 
L 219.703131 191.065972 
L 215.714091 193.58156 
L 211.725051 190.371675 
L 207.73601 191.396933 
L 203.74697 193.869783 
L 199.757929 192.949713 
L 195.768889 194.415724 
L 191.779848 192.163898 
L 187.790808 183.483398 
L 183.801768 189.664714 
L 179.812727 188.140857 
L 175.823687 192.245199 
L 171.834646 186.655132 
L 167.845606 189.229429 
L 163.856566 189.153165 
L 159.867525 190.19828 
L 155.878485 189.390161 
L 151.889444 189.532762 
L 147.900404 188.344038 
L 143.911364 190.800053 
z
" clip-path="url(#p8a94cbe9ec)" style="fill: #1f77b4"/>
   </g>
   <g id="PolyCollection_2">
    <path d="M 143.911364 51.904858 
L 143.911364 190.800053 
L 147.900404 188.344038 
L 151.889444 189.532762 
L 155.878485 189.390161 
L 159.867525 190.19828 
L 163.856566 189.153165 
L 167.845606 189.229429 
L 171.834646 186.655132 
L 175.823687 192.245199 
L 179.812727 188.140857 
L 183.801768 189.664714 
L 187.790808 183.483398 
L 191.779848 192.163898 
L 195.768889 194.415724 
L 199.757929 192.949713 
L 203.74697 193.869783 
L 207.73601 191.396933 
L 211.725051 190.371675 
L 215.714091 193.58156 
L 219.703131 191.065972 
L 223.692172 192.8133 
L 227.681212 190.563488 
L 231.670253 187.744136 
L 235.659293 189.014737 
L 239.648333 194.018715 
L 243.637374 183.165388 
L 247.626414 189.21173 
L 251.615455 190.92035 
L 255.604495 191.130582 
L 259.593535 188.882209 
L 263.582576 188.484481 
L 267.571616 185.295317 
L 271.560657 190.216699 
L 275.549697 189.686587 
L 279.538737 189.94229 
L 283.527778 188.412101 
L 287.516818 190.975894 
L 291.505859 190.389662 
L 295.494899 187.73579 
L 299.483939 190.346781 
L 303.47298 189.439086 
L 307.46202 188.434117 
L 311.451061 189.978983 
L 315.440101 187.962858 
L 319.429141 187.755648 
L 323.418182 188.774862 
L 327.407222 189.93121 
L 331.396263 190.883368 
L 335.385303 190.954597 
L 339.374343 189.205255 
L 343.363384 188.268493 
L 347.352424 190.27066 
L 351.341465 190.552552 
L 355.330505 189.356489 
L 359.319545 189.274469 
L 363.308586 189.534201 
L 367.297626 188.843069 
L 371.286667 189.222235 
L 375.275707 188.51254 
L 379.264747 188.374688 
L 383.253788 189.269864 
L 387.242828 189.050711 
L 391.231869 189.818971 
L 395.220909 189.495061 
L 399.209949 188.34188 
L 403.19899 188.636722 
L 407.18803 189.459375 
L 411.177071 189.657664 
L 415.166111 189.430308 
L 419.155152 192.544934 
L 423.144192 189.872644 
L 427.133232 191.929204 
L 431.122273 190.631119 
L 435.111313 191.27088 
L 439.100354 191.202961 
L 443.089394 190.499886 
L 447.078434 192.145623 
L 451.067475 190.108921 
L 455.056515 190.271667 
L 459.045556 189.219213 
L 463.034596 190.443047 
L 467.023636 189.471174 
L 471.012677 189.599961 
L 475.001717 188.995455 
L 478.990758 189.330588 
L 482.979798 190.579748 
L 486.968838 190.358436 
L 490.957879 189.561541 
L 494.946919 188.109632 
L 498.93596 189.350158 
L 502.925 189.751484 
L 506.91404 189.855664 
L 510.903081 189.175181 
L 514.892121 189.404695 
L 518.881162 189.042221 
L 522.870202 188.93286 
L 526.859242 190.593418 
L 530.848283 190.38146 
L 534.837323 188.805224 
L 538.826364 189.925885 
L 542.815404 189.084526 
L 546.804444 189.961572 
L 550.793485 189.260079 
L 554.782525 189.699249 
L 558.771566 189.148128 
L 562.760606 189.334905 
L 566.749646 189.702415 
L 570.738687 189.400378 
L 574.727727 189.234178 
L 578.716768 189.084095 
L 582.705808 189.959125 
L 586.694848 189.132731 
L 590.683889 189.860269 
L 594.672929 188.575854 
L 598.66197 189.664283 
L 602.65101 189.477362 
L 606.640051 189.257921 
L 610.629091 189.302385 
L 614.618131 189.450453 
L 618.607172 191.158066 
L 622.596212 188.793857 
L 626.585253 191.265124 
L 630.574293 189.505278 
L 634.563333 185.621816 
L 638.552374 190.727385 
L 642.541414 191.301098 
L 646.530455 192.759483 
L 650.519495 191.012155 
L 654.508535 190.582482 
L 658.497576 188.991713 
L 662.486616 189.418077 
L 666.475657 190.127627 
L 670.464697 189.094455 
L 674.453737 189.29778 
L 678.442778 188.542183 
L 682.431818 189.71738 
L 686.420859 190.101582 
L 690.409899 192.192965 
L 694.398939 191.038057 
L 698.38798 189.384117 
L 702.37702 191.233179 
L 706.366061 191.524568 
L 710.355101 191.143388 
L 714.344141 190.161875 
L 718.333182 189.79825 
L 722.322222 190.889412 
L 726.311263 189.635935 
L 730.300303 188.77328 
L 734.289343 189.690184 
L 738.278384 189.566002 
L 742.267424 189.9833 
L 746.256465 189.9774 
L 750.245505 191.801136 
L 754.234545 191.6912 
L 758.223586 192.887694 
L 762.212626 190.167774 
L 766.201667 190.145471 
L 770.190707 191.725159 
L 774.179747 192.388375 
L 778.168788 191.141374 
L 782.157828 190.419592 
L 786.146869 192.290958 
L 790.135909 189.943872 
L 794.124949 188.973583 
L 798.11399 190.121728 
L 802.10303 189.907755 
L 806.092071 190.154968 
L 810.081111 191.191593 
L 814.070152 190.556437 
L 818.059192 190.441608 
L 822.048232 190.437147 
L 826.037273 189.967327 
L 830.026313 191.492048 
L 834.015354 188.139274 
L 838.004394 191.63321 
L 841.993434 190.033951 
L 845.982475 191.365851 
L 849.971515 191.448879 
L 853.960556 191.203968 
L 857.949596 191.482119 
L 861.938636 190.598455 
L 861.938636 51.358342 
L 861.938636 51.358342 
L 857.949596 52.907237 
L 853.960556 52.195384 
L 849.971515 53.278776 
L 845.982475 51.831471 
L 841.993434 51.263802 
L 838.004394 53.019907 
L 834.015354 47.528553 
L 830.026313 51.066521 
L 826.037273 50.015649 
L 822.048232 52.408494 
L 818.059192 49.480645 
L 814.070152 52.721036 
L 810.081111 52.994725 
L 806.092071 50.585045 
L 802.10303 50.465324 
L 798.11399 49.769012 
L 794.124949 48.322427 
L 790.135909 49.756925 
L 786.146869 54.857314 
L 782.157828 52.16718 
L 778.168788 52.890977 
L 774.179747 55.843864 
L 770.190707 52.383888 
L 766.201667 51.376904 
L 762.212626 50.800745 
L 758.223586 55.755655 
L 754.234545 53.83479 
L 750.245505 52.925943 
L 746.256465 50.964067 
L 742.267424 49.676631 
L 738.278384 48.397828 
L 734.289343 50.710666 
L 730.300303 47.65993 
L 726.311263 49.632023 
L 722.322222 52.191067 
L 718.333182 49.314445 
L 714.344141 50.507198 
L 710.355101 52.7419 
L 706.366061 53.233305 
L 702.37702 51.897951 
L 698.38798 49.731599 
L 694.398939 51.315461 
L 690.409899 54.104594 
L 686.420859 50.457122 
L 682.431818 50.339703 
L 678.442778 48.064278 
L 674.453737 49.45719 
L 670.464697 47.874191 
L 666.475657 49.913771 
L 662.486616 49.734909 
L 658.497576 49.200767 
L 654.508535 51.628578 
L 650.519495 52.035372 
L 646.530455 55.355049 
L 642.541414 53.301224 
L 638.552374 52.68132 
L 634.563333 42.299378 
L 630.574293 49.998238 
L 626.585253 53.289568 
L 622.596212 49.15472 
L 618.607172 52.262583 
L 614.618131 48.574676 
L 610.629091 50.258114 
L 606.640051 48.765482 
L 602.65101 50.335242 
L 598.66197 50.438128 
L 594.672929 48.813256 
L 590.683889 50.664764 
L 586.694848 49.47273 
L 582.705808 50.328335 
L 578.716768 47.670003 
L 574.727727 49.885855 
L 570.738687 48.354516 
L 566.749646 51.095012 
L 562.760606 49.35934 
L 558.771566 48.98996 
L 554.782525 50.326608 
L 550.793485 50.070762 
L 546.804444 50.657425 
L 542.815404 47.998373 
L 538.826364 50.309341 
L 534.837323 47.918943 
L 530.848283 51.952488 
L 526.859242 51.294452 
L 522.870202 49.336749 
L 518.881162 48.93974 
L 514.892121 48.042549 
L 510.903081 50.085007 
L 506.91404 49.733757 
L 502.925 49.876934 
L 498.93596 49.620367 
L 494.946919 47.476463 
L 490.957879 49.40697 
L 486.968838 50.223723 
L 482.979798 51.340355 
L 478.990758 49.628426 
L 475.001717 48.951827 
L 471.012677 50.025578 
L 467.023636 49.732606 
L 463.034596 50.999034 
L 459.045556 48.76577 
L 455.056515 52.097823 
L 451.067475 50.317831 
L 447.078434 53.849611 
L 443.089394 52.524474 
L 439.100354 53.227693 
L 435.111313 52.322876 
L 431.122273 52.380002 
L 427.133232 53.837955 
L 423.144192 49.858659 
L 419.155152 55.069704 
L 415.166111 49.704978 
L 411.177071 50.556266 
L 407.18803 48.515823 
L 403.19899 48.037657 
L 399.209949 47.938369 
L 395.220909 50.034931 
L 391.231869 50.009462 
L 387.242828 47.621222 
L 383.253788 50.313658 
L 379.264747 46.55812 
L 375.275707 48.349911 
L 371.286667 48.160832 
L 367.297626 48.310771 
L 363.308586 49.409848 
L 359.319545 48.522874 
L 355.330505 50.14717 
L 351.341465 51.293589 
L 347.352424 50.983349 
L 343.363384 46.131037 
L 339.374343 49.368694 
L 335.385303 51.224519 
L 331.396263 52.551095 
L 327.407222 49.543815 
L 323.418182 47.990603 
L 319.429141 45.973327 
L 315.440101 47.18493 
L 311.451061 49.714331 
L 307.46202 48.011612 
L 303.47298 49.320488 
L 299.483939 49.862832 
L 295.494899 46.246153 
L 291.505859 50.19408 
L 287.516818 52.150632 
L 283.527778 47.641799 
L 279.538737 49.222639 
L 275.549697 50.127744 
L 271.560657 51.867589 
L 267.571616 40.120075 
L 263.582576 46.667337 
L 259.593535 46.722593 
L 255.604495 51.451586 
L 251.615455 53.077897 
L 247.626414 49.25775 
L 243.637374 35.439322 
L 239.648333 57.339805 
L 235.659293 50.553964 
L 231.670253 43.420039 
L 227.681212 50.832258 
L 223.692172 53.984873 
L 219.703131 52.420437 
L 215.714091 57.68904 
L 211.725051 50.395391 
L 207.73601 53.172149 
L 203.74697 56.469667 
L 199.757929 55.081072 
L 195.768889 57.596227 
L 191.779848 55.109851 
L 187.790808 39.031377 
L 183.801768 47.906856 
L 179.812727 47.657772 
L 175.823687 54.774429 
L 171.834646 41.85071 
L 167.845606 49.877365 
L 163.856566 47.914482 
L 159.867525 50.93169 
L 155.878485 49.669004 
L 151.889444 50.168467 
L 147.900404 48.098669 
L 143.911364 51.904858 
z
" clip-path="url(#p8a94cbe9ec)" style="fill: #ff7f0e"/>
   </g>
   <g id="matplotlib.axis_1">
    <g id="xtick_1">
     <g id="line2d_1">
      <path d="M 143.911364 331.64 
L 143.911364 23.76 
" clip-path="url(#p8a94cbe9ec)" style="fill: none; stroke-dasharray: 5.12,1.28,0.8,1.28; stroke-dashoffset: 0; stroke: #b0b0b0; stroke-width: 0.8"/>
     </g>
     <g id="line2d_2">
      <defs>
       <path id="ma0a7b6025a" d="M 0 0 
L 0 3.5 
" style="stroke: #000000; stroke-width: 0.8"/>
      </defs>
      <g>
       <use xlink:href="#ma0a7b6025a" x="143.911364" y="331.64" style="stroke: #000000; stroke-width: 0.8"/>
      </g>
     </g>
     <g id="text_1">
      <!-- 0 -->
      <g transform="translate(136.912614 355.356563)scale(0.22 -0.22)">
       <defs>
        <path id="DejaVuSans-30" d="M 2034 4250 
Q 1547 4250 1301 3770 
Q 1056 3291 1056 2328 
Q 1056 1369 1301 889 
Q 1547 409 2034 409 
Q 2525 409 2770 889 
Q 3016 1369 3016 2328 
Q 3016 3291 2770 3770 
Q 2525 4250 2034 4250 
z
M 2034 4750 
Q 2819 4750 3233 4129 
Q 3647 3509 3647 2328 
Q 3647 1150 3233 529 
Q 2819 -91 2034 -91 
Q 1250 -91 836 529 
Q 422 1150 422 2328 
Q 422 3509 836 4129 
Q 1250 4750 2034 4750 
z
" transform="scale(0.015625)"/>
       </defs>
       <use xlink:href="#DejaVuSans-30"/>
      </g>
     </g>
    </g>
    <g id="xtick_2">
     <g id="line2d_3">
      <path d="M 243.637374 331.64 
L 243.637374 23.76 
" clip-path="url(#p8a94cbe9ec)" style="fill: none; stroke-dasharray: 5.12,1.28,0.8,1.28; stroke-dashoffset: 0; stroke: #b0b0b0; stroke-width: 0.8"/>
     </g>
     <g id="line2d_4">
      <g>
       <use xlink:href="#ma0a7b6025a" x="243.637374" y="331.64" style="stroke: #000000; stroke-width: 0.8"/>
      </g>
     </g>
     <g id="text_2">
      <!-- 25 -->
      <g transform="translate(229.639874 355.356563)scale(0.22 -0.22)">
       <defs>
        <path id="DejaVuSans-32" d="M 1228 531 
L 3431 531 
L 3431 0 
L 469 0 
L 469 531 
Q 828 903 1448 1529 
Q 2069 2156 2228 2338 
Q 2531 2678 2651 2914 
Q 2772 3150 2772 3378 
Q 2772 3750 2511 3984 
Q 2250 4219 1831 4219 
Q 1534 4219 1204 4116 
Q 875 4013 500 3803 
L 500 4441 
Q 881 4594 1212 4672 
Q 1544 4750 1819 4750 
Q 2544 4750 2975 4387 
Q 3406 4025 3406 3419 
Q 3406 3131 3298 2873 
Q 3191 2616 2906 2266 
Q 2828 2175 2409 1742 
Q 1991 1309 1228 531 
z
" transform="scale(0.015625)"/>
        <path id="DejaVuSans-35" d="M 691 4666 
L 3169 4666 
L 3169 4134 
L 1269 4134 
L 1269 2991 
Q 1406 3038 1543 3061 
Q 1681 3084 1819 3084 
Q 2600 3084 3056 2656 
Q 3513 2228 3513 1497 
Q 3513 744 3044 326 
Q 2575 -91 1722 -91 
Q 1428 -91 1123 -41 
Q 819 9 494 109 
L 494 744 
Q 775 591 1075 516 
Q 1375 441 1709 441 
Q 2250 441 2565 725 
Q 2881 1009 2881 1497 
Q 2881 1984 2565 2268 
Q 2250 2553 1709 2553 
Q 1456 2553 1204 2497 
Q 953 2441 691 2322 
L 691 4666 
z
" transform="scale(0.015625)"/>
       </defs>
       <use xlink:href="#DejaVuSans-32"/>
       <use xlink:href="#DejaVuSans-35" x="63.623047"/>
      </g>
     </g>
    </g>
    <g id="xtick_3">
     <g id="line2d_5">
      <path d="M 343.363384 331.64 
L 343.363384 23.76 
" clip-path="url(#p8a94cbe9ec)" style="fill: none; stroke-dasharray: 5.12,1.28,0.8,1.28; stroke-dashoffset: 0; stroke: #b0b0b0; stroke-width: 0.8"/>
     </g>
     <g id="line2d_6">
      <g>
       <use xlink:href="#ma0a7b6025a" x="343.363384" y="331.64" style="stroke: #000000; stroke-width: 0.8"/>
      </g>
     </g>
     <g id="text_3">
      <!-- 50 -->
      <g transform="translate(329.365884 355.356563)scale(0.22 -0.22)">
       <use xlink:href="#DejaVuSans-35"/>
       <use xlink:href="#DejaVuSans-30" x="63.623047"/>
      </g>
     </g>
    </g>
    <g id="xtick_4">
     <g id="line2d_7">
      <path d="M 443.089394 331.64 
L 443.089394 23.76 
" clip-path="url(#p8a94cbe9ec)" style="fill: none; stroke-dasharray: 5.12,1.28,0.8,1.28; stroke-dashoffset: 0; stroke: #b0b0b0; stroke-width: 0.8"/>
     </g>
     <g id="line2d_8">
      <g>
       <use xlink:href="#ma0a7b6025a" x="443.089394" y="331.64" style="stroke: #000000; stroke-width: 0.8"/>
      </g>
     </g>
     <g id="text_4">
      <!-- 75 -->
      <g transform="translate(429.091894 355.356563)scale(0.22 -0.22)">
       <defs>
        <path id="DejaVuSans-37" d="M 525 4666 
L 3525 4666 
L 3525 4397 
L 1831 0 
L 1172 0 
L 2766 4134 
L 525 4134 
L 525 4666 
z
" transform="scale(0.015625)"/>
       </defs>
       <use xlink:href="#DejaVuSans-37"/>
       <use xlink:href="#DejaVuSans-35" x="63.623047"/>
      </g>
     </g>
    </g>
    <g id="xtick_5">
     <g id="line2d_9">
      <path d="M 542.815404 331.64 
L 542.815404 23.76 
" clip-path="url(#p8a94cbe9ec)" style="fill: none; stroke-dasharray: 5.12,1.28,0.8,1.28; stroke-dashoffset: 0; stroke: #b0b0b0; stroke-width: 0.8"/>
     </g>
     <g id="line2d_10">
      <g>
       <use xlink:href="#ma0a7b6025a" x="542.815404" y="331.64" style="stroke: #000000; stroke-width: 0.8"/>
      </g>
     </g>
     <g id="text_5">
      <!-- 100 -->
      <g transform="translate(521.819154 355.356563)scale(0.22 -0.22)">
       <defs>
        <path id="DejaVuSans-31" d="M 794 531 
L 1825 531 
L 1825 4091 
L 703 3866 
L 703 4441 
L 1819 4666 
L 2450 4666 
L 2450 531 
L 3481 531 
L 3481 0 
L 794 0 
L 794 531 
z
" transform="scale(0.015625)"/>
       </defs>
       <use xlink:href="#DejaVuSans-31"/>
       <use xlink:href="#DejaVuSans-30" x="63.623047"/>
       <use xlink:href="#DejaVuSans-30" x="127.246094"/>
      </g>
     </g>
    </g>
    <g id="xtick_6">
     <g id="line2d_11">
      <path d="M 642.541414 331.64 
L 642.541414 23.76 
" clip-path="url(#p8a94cbe9ec)" style="fill: none; stroke-dasharray: 5.12,1.28,0.8,1.28; stroke-dashoffset: 0; stroke: #b0b0b0; stroke-width: 0.8"/>
     </g>
     <g id="line2d_12">
      <g>
       <use xlink:href="#ma0a7b6025a" x="642.541414" y="331.64" style="stroke: #000000; stroke-width: 0.8"/>
      </g>
     </g>
     <g id="text_6">
      <!-- 125 -->
      <g transform="translate(621.545164 355.356563)scale(0.22 -0.22)">
       <use xlink:href="#DejaVuSans-31"/>
       <use xlink:href="#DejaVuSans-32" x="63.623047"/>
       <use xlink:href="#DejaVuSans-35" x="127.246094"/>
      </g>
     </g>
    </g>
    <g id="xtick_7">
     <g id="line2d_13">
      <path d="M 742.267424 331.64 
L 742.267424 23.76 
" clip-path="url(#p8a94cbe9ec)" style="fill: none; stroke-dasharray: 5.12,1.28,0.8,1.28; stroke-dashoffset: 0; stroke: #b0b0b0; stroke-width: 0.8"/>
     </g>
     <g id="line2d_14">
      <g>
       <use xlink:href="#ma0a7b6025a" x="742.267424" y="331.64" style="stroke: #000000; stroke-width: 0.8"/>
      </g>
     </g>
     <g id="text_7">
      <!-- 150 -->
      <g transform="translate(721.271174 355.356563)scale(0.22 -0.22)">
       <use xlink:href="#DejaVuSans-31"/>
       <use xlink:href="#DejaVuSans-35" x="63.623047"/>
       <use xlink:href="#DejaVuSans-30" x="127.246094"/>
      </g>
     </g>
    </g>
    <g id="xtick_8">
     <g id="line2d_15">
      <path d="M 841.993434 331.64 
L 841.993434 23.76 
" clip-path="url(#p8a94cbe9ec)" style="fill: none; stroke-dasharray: 5.12,1.28,0.8,1.28; stroke-dashoffset: 0; stroke: #b0b0b0; stroke-width: 0.8"/>
     </g>
     <g id="line2d_16">
      <g>
       <use xlink:href="#ma0a7b6025a" x="841.993434" y="331.64" style="stroke: #000000; stroke-width: 0.8"/>
      </g>
     </g>
     <g id="text_8">
      <!-- 175 -->
      <g transform="translate(820.997184 355.356563)scale(0.22 -0.22)">
       <use xlink:href="#DejaVuSans-31"/>
       <use xlink:href="#DejaVuSans-37" x="63.623047"/>
       <use xlink:href="#DejaVuSans-35" x="127.246094"/>
      </g>
     </g>
    </g>
    <g id="text_9">
     <!-- Time (s) -->
     <g transform="translate(454.135625 382.168125)scale(0.24 -0.24)">
      <defs>
       <path id="DejaVuSans-54" d="M -19 4666 
L 3928 4666 
L 3928 4134 
L 2272 4134 
L 2272 0 
L 1638 0 
L 1638 4134 
L -19 4134 
L -19 4666 
z
" transform="scale(0.015625)"/>
       <path id="DejaVuSans-69" d="M 603 3500 
L 1178 3500 
L 1178 0 
L 603 0 
L 603 3500 
z
M 603 4863 
L 1178 4863 
L 1178 4134 
L 603 4134 
L 603 4863 
z
" transform="scale(0.015625)"/>
       <path id="DejaVuSans-6d" d="M 3328 2828 
Q 3544 3216 3844 3400 
Q 4144 3584 4550 3584 
Q 5097 3584 5394 3201 
Q 5691 2819 5691 2113 
L 5691 0 
L 5113 0 
L 5113 2094 
Q 5113 2597 4934 2840 
Q 4756 3084 4391 3084 
Q 3944 3084 3684 2787 
Q 3425 2491 3425 1978 
L 3425 0 
L 2847 0 
L 2847 2094 
Q 2847 2600 2669 2842 
Q 2491 3084 2119 3084 
Q 1678 3084 1418 2786 
Q 1159 2488 1159 1978 
L 1159 0 
L 581 0 
L 581 3500 
L 1159 3500 
L 1159 2956 
Q 1356 3278 1631 3431 
Q 1906 3584 2284 3584 
Q 2666 3584 2933 3390 
Q 3200 3197 3328 2828 
z
" transform="scale(0.015625)"/>
       <path id="DejaVuSans-65" d="M 3597 1894 
L 3597 1613 
L 953 1613 
Q 991 1019 1311 708 
Q 1631 397 2203 397 
Q 2534 397 2845 478 
Q 3156 559 3463 722 
L 3463 178 
Q 3153 47 2828 -22 
Q 2503 -91 2169 -91 
Q 1331 -91 842 396 
Q 353 884 353 1716 
Q 353 2575 817 3079 
Q 1281 3584 2069 3584 
Q 2775 3584 3186 3129 
Q 3597 2675 3597 1894 
z
M 3022 2063 
Q 3016 2534 2758 2815 
Q 2500 3097 2075 3097 
Q 1594 3097 1305 2825 
Q 1016 2553 972 2059 
L 3022 2063 
z
" transform="scale(0.015625)"/>
       <path id="DejaVuSans-20" transform="scale(0.015625)"/>
       <path id="DejaVuSans-28" d="M 1984 4856 
Q 1566 4138 1362 3434 
Q 1159 2731 1159 2009 
Q 1159 1288 1364 580 
Q 1569 -128 1984 -844 
L 1484 -844 
Q 1016 -109 783 600 
Q 550 1309 550 2009 
Q 550 2706 781 3412 
Q 1013 4119 1484 4856 
L 1984 4856 
z
" transform="scale(0.015625)"/>
       <path id="DejaVuSans-73" d="M 2834 3397 
L 2834 2853 
Q 2591 2978 2328 3040 
Q 2066 3103 1784 3103 
Q 1356 3103 1142 2972 
Q 928 2841 928 2578 
Q 928 2378 1081 2264 
Q 1234 2150 1697 2047 
L 1894 2003 
Q 2506 1872 2764 1633 
Q 3022 1394 3022 966 
Q 3022 478 2636 193 
Q 2250 -91 1575 -91 
Q 1294 -91 989 -36 
Q 684 19 347 128 
L 347 722 
Q 666 556 975 473 
Q 1284 391 1588 391 
Q 1994 391 2212 530 
Q 2431 669 2431 922 
Q 2431 1156 2273 1281 
Q 2116 1406 1581 1522 
L 1381 1569 
Q 847 1681 609 1914 
Q 372 2147 372 2553 
Q 372 3047 722 3315 
Q 1072 3584 1716 3584 
Q 2034 3584 2315 3537 
Q 2597 3491 2834 3397 
z
" transform="scale(0.015625)"/>
       <path id="DejaVuSans-29" d="M 513 4856 
L 1013 4856 
Q 1481 4119 1714 3412 
Q 1947 2706 1947 2009 
Q 1947 1309 1714 600 
Q 1481 -109 1013 -844 
L 513 -844 
Q 928 -128 1133 580 
Q 1338 1288 1338 2009 
Q 1338 2731 1133 3434 
Q 928 4138 513 4856 
z
" transform="scale(0.015625)"/>
      </defs>
      <use xlink:href="#DejaVuSans-54"/>
      <use xlink:href="#DejaVuSans-69" x="57.958984"/>
      <use xlink:href="#DejaVuSans-6d" x="85.742188"/>
      <use xlink:href="#DejaVuSans-65" x="183.154297"/>
      <use xlink:href="#DejaVuSans-20" x="244.677734"/>
      <use xlink:href="#DejaVuSans-28" x="276.464844"/>
      <use xlink:href="#DejaVuSans-73" x="315.478516"/>
      <use xlink:href="#DejaVuSans-29" x="367.578125"/>
     </g>
    </g>
   </g>
   <g id="matplotlib.axis_2">
    <g id="ytick_1">
     <g id="line2d_17">
      <path d="M 108.01 331.64 
L 897.84 331.64 
" clip-path="url(#p8a94cbe9ec)" style="fill: none; stroke-dasharray: 5.12,1.28,0.8,1.28; stroke-dashoffset: 0; stroke: #b0b0b0; stroke-width: 0.8"/>
     </g>
     <g id="line2d_18">
      <defs>
       <path id="me7888340e2" d="M 0 0 
L -3.5 0 
" style="stroke: #000000; stroke-width: 0.8"/>
      </defs>
      <g>
       <use xlink:href="#me7888340e2" x="108.01" y="331.64" style="stroke: #000000; stroke-width: 0.8"/>
      </g>
     </g>
     <g id="text_10">
      <!-- 0 -->
      <g transform="translate(87.0125 339.998281)scale(0.22 -0.22)">
       <use xlink:href="#DejaVuSans-30"/>
      </g>
     </g>
    </g>
    <g id="ytick_2">
     <g id="line2d_19">
      <path d="M 108.01 241.705085 
L 897.84 241.705085 
" clip-path="url(#p8a94cbe9ec)" style="fill: none; stroke-dasharray: 5.12,1.28,0.8,1.28; stroke-dashoffset: 0; stroke: #b0b0b0; stroke-width: 0.8"/>
     </g>
     <g id="line2d_20">
      <g>
       <use xlink:href="#me7888340e2" x="108.01" y="241.705085" style="stroke: #000000; stroke-width: 0.8"/>
      </g>
     </g>
     <g id="text_11">
      <!-- 5 -->
      <g transform="translate(87.0125 250.063366)scale(0.22 -0.22)">
       <use xlink:href="#DejaVuSans-35"/>
      </g>
     </g>
    </g>
    <g id="ytick_3">
     <g id="line2d_21">
      <path d="M 108.01 151.77017 
L 897.84 151.77017 
" clip-path="url(#p8a94cbe9ec)" style="fill: none; stroke-dasharray: 5.12,1.28,0.8,1.28; stroke-dashoffset: 0; stroke: #b0b0b0; stroke-width: 0.8"/>
     </g>
     <g id="line2d_22">
      <g>
       <use xlink:href="#me7888340e2" x="108.01" y="151.77017" style="stroke: #000000; stroke-width: 0.8"/>
      </g>
     </g>
     <g id="text_12">
      <!-- 10 -->
      <g transform="translate(73.015 160.128452)scale(0.22 -0.22)">
       <use xlink:href="#DejaVuSans-31"/>
       <use xlink:href="#DejaVuSans-30" x="63.623047"/>
      </g>
     </g>
    </g>
    <g id="ytick_4">
     <g id="line2d_23">
      <path d="M 108.01 61.835256 
L 897.84 61.835256 
" clip-path="url(#p8a94cbe9ec)" style="fill: none; stroke-dasharray: 5.12,1.28,0.8,1.28; stroke-dashoffset: 0; stroke: #b0b0b0; stroke-width: 0.8"/>
     </g>
     <g id="line2d_24">
      <g>
       <use xlink:href="#me7888340e2" x="108.01" y="61.835256" style="stroke: #000000; stroke-width: 0.8"/>
      </g>
     </g>
     <g id="text_13">
      <!-- 15 -->
      <g transform="translate(73.015 70.193537)scale(0.22 -0.22)">
       <use xlink:href="#DejaVuSans-31"/>
       <use xlink:href="#DejaVuSans-35" x="63.623047"/>
      </g>
     </g>
    </g>
    <g id="text_14">
     <!-- Throughput (Mbps) -->
     <g transform="translate(64.02375 292.414375)rotate(-90)scale(0.24 -0.24)">
      <defs>
       <path id="DejaVuSans-68" d="M 3513 2113 
L 3513 0 
L 2938 0 
L 2938 2094 
Q 2938 2591 2744 2837 
Q 2550 3084 2163 3084 
Q 1697 3084 1428 2787 
Q 1159 2491 1159 1978 
L 1159 0 
L 581 0 
L 581 4863 
L 1159 4863 
L 1159 2956 
Q 1366 3272 1645 3428 
Q 1925 3584 2291 3584 
Q 2894 3584 3203 3211 
Q 3513 2838 3513 2113 
z
" transform="scale(0.015625)"/>
       <path id="DejaVuSans-72" d="M 2631 2963 
Q 2534 3019 2420 3045 
Q 2306 3072 2169 3072 
Q 1681 3072 1420 2755 
Q 1159 2438 1159 1844 
L 1159 0 
L 581 0 
L 581 3500 
L 1159 3500 
L 1159 2956 
Q 1341 3275 1631 3429 
Q 1922 3584 2338 3584 
Q 2397 3584 2469 3576 
Q 2541 3569 2628 3553 
L 2631 2963 
z
" transform="scale(0.015625)"/>
       <path id="DejaVuSans-6f" d="M 1959 3097 
Q 1497 3097 1228 2736 
Q 959 2375 959 1747 
Q 959 1119 1226 758 
Q 1494 397 1959 397 
Q 2419 397 2687 759 
Q 2956 1122 2956 1747 
Q 2956 2369 2687 2733 
Q 2419 3097 1959 3097 
z
M 1959 3584 
Q 2709 3584 3137 3096 
Q 3566 2609 3566 1747 
Q 3566 888 3137 398 
Q 2709 -91 1959 -91 
Q 1206 -91 779 398 
Q 353 888 353 1747 
Q 353 2609 779 3096 
Q 1206 3584 1959 3584 
z
" transform="scale(0.015625)"/>
       <path id="DejaVuSans-75" d="M 544 1381 
L 544 3500 
L 1119 3500 
L 1119 1403 
Q 1119 906 1312 657 
Q 1506 409 1894 409 
Q 2359 409 2629 706 
Q 2900 1003 2900 1516 
L 2900 3500 
L 3475 3500 
L 3475 0 
L 2900 0 
L 2900 538 
Q 2691 219 2414 64 
Q 2138 -91 1772 -91 
Q 1169 -91 856 284 
Q 544 659 544 1381 
z
M 1991 3584 
L 1991 3584 
z
" transform="scale(0.015625)"/>
       <path id="DejaVuSans-67" d="M 2906 1791 
Q 2906 2416 2648 2759 
Q 2391 3103 1925 3103 
Q 1463 3103 1205 2759 
Q 947 2416 947 1791 
Q 947 1169 1205 825 
Q 1463 481 1925 481 
Q 2391 481 2648 825 
Q 2906 1169 2906 1791 
z
M 3481 434 
Q 3481 -459 3084 -895 
Q 2688 -1331 1869 -1331 
Q 1566 -1331 1297 -1286 
Q 1028 -1241 775 -1147 
L 775 -588 
Q 1028 -725 1275 -790 
Q 1522 -856 1778 -856 
Q 2344 -856 2625 -561 
Q 2906 -266 2906 331 
L 2906 616 
Q 2728 306 2450 153 
Q 2172 0 1784 0 
Q 1141 0 747 490 
Q 353 981 353 1791 
Q 353 2603 747 3093 
Q 1141 3584 1784 3584 
Q 2172 3584 2450 3431 
Q 2728 3278 2906 2969 
L 2906 3500 
L 3481 3500 
L 3481 434 
z
" transform="scale(0.015625)"/>
       <path id="DejaVuSans-70" d="M 1159 525 
L 1159 -1331 
L 581 -1331 
L 581 3500 
L 1159 3500 
L 1159 2969 
Q 1341 3281 1617 3432 
Q 1894 3584 2278 3584 
Q 2916 3584 3314 3078 
Q 3713 2572 3713 1747 
Q 3713 922 3314 415 
Q 2916 -91 2278 -91 
Q 1894 -91 1617 61 
Q 1341 213 1159 525 
z
M 3116 1747 
Q 3116 2381 2855 2742 
Q 2594 3103 2138 3103 
Q 1681 3103 1420 2742 
Q 1159 2381 1159 1747 
Q 1159 1113 1420 752 
Q 1681 391 2138 391 
Q 2594 391 2855 752 
Q 3116 1113 3116 1747 
z
" transform="scale(0.015625)"/>
       <path id="DejaVuSans-74" d="M 1172 4494 
L 1172 3500 
L 2356 3500 
L 2356 3053 
L 1172 3053 
L 1172 1153 
Q 1172 725 1289 603 
Q 1406 481 1766 481 
L 2356 481 
L 2356 0 
L 1766 0 
Q 1100 0 847 248 
Q 594 497 594 1153 
L 594 3053 
L 172 3053 
L 172 3500 
L 594 3500 
L 594 4494 
L 1172 4494 
z
" transform="scale(0.015625)"/>
       <path id="DejaVuSans-4d" d="M 628 4666 
L 1569 4666 
L 2759 1491 
L 3956 4666 
L 4897 4666 
L 4897 0 
L 4281 0 
L 4281 4097 
L 3078 897 
L 2444 897 
L 1241 4097 
L 1241 0 
L 628 0 
L 628 4666 
z
" transform="scale(0.015625)"/>
       <path id="DejaVuSans-62" d="M 3116 1747 
Q 3116 2381 2855 2742 
Q 2594 3103 2138 3103 
Q 1681 3103 1420 2742 
Q 1159 2381 1159 1747 
Q 1159 1113 1420 752 
Q 1681 391 2138 391 
Q 2594 391 2855 752 
Q 3116 1113 3116 1747 
z
M 1159 2969 
Q 1341 3281 1617 3432 
Q 1894 3584 2278 3584 
Q 2916 3584 3314 3078 
Q 3713 2572 3713 1747 
Q 3713 922 3314 415 
Q 2916 -91 2278 -91 
Q 1894 -91 1617 61 
Q 1341 213 1159 525 
L 1159 0 
L 581 0 
L 581 4863 
L 1159 4863 
L 1159 2969 
z
" transform="scale(0.015625)"/>
      </defs>
      <use xlink:href="#DejaVuSans-54"/>
      <use xlink:href="#DejaVuSans-68" x="61.083984"/>
      <use xlink:href="#DejaVuSans-72" x="124.462891"/>
      <use xlink:href="#DejaVuSans-6f" x="163.326172"/>
      <use xlink:href="#DejaVuSans-75" x="224.507812"/>
      <use xlink:href="#DejaVuSans-67" x="287.886719"/>
      <use xlink:href="#DejaVuSans-68" x="351.363281"/>
      <use xlink:href="#DejaVuSans-70" x="414.742188"/>
      <use xlink:href="#DejaVuSans-75" x="478.21875"/>
      <use xlink:href="#DejaVuSans-74" x="541.597656"/>
      <use xlink:href="#DejaVuSans-20" x="580.806641"/>
      <use xlink:href="#DejaVuSans-28" x="612.59375"/>
      <use xlink:href="#DejaVuSans-4d" x="651.607422"/>
      <use xlink:href="#DejaVuSans-62" x="737.886719"/>
      <use xlink:href="#DejaVuSans-70" x="801.363281"/>
      <use xlink:href="#DejaVuSans-73" x="864.839844"/>
      <use xlink:href="#DejaVuSans-29" x="916.939453"/>
     </g>
    </g>
   </g>
   <g id="patch_3">
    <path d="M 108.01 331.64 
L 108.01 23.76 
" style="fill: none; stroke: #000000; stroke-width: 0.8; stroke-linejoin: miter; stroke-linecap: square"/>
   </g>
   <g id="patch_4">
    <path d="M 897.84 331.64 
L 897.84 23.76 
" style="fill: none; stroke: #000000; stroke-width: 0.8; stroke-linejoin: miter; stroke-linecap: square"/>
   </g>
   <g id="patch_5">
    <path d="M 108.01 331.64 
L 897.84 331.64 
" style="fill: none; stroke: #000000; stroke-width: 0.8; stroke-linejoin: miter; stroke-linecap: square"/>
   </g>
   <g id="patch_6">
    <path d="M 108.01 23.76 
L 897.84 23.76 
" style="fill: none; stroke: #000000; stroke-width: 0.8; stroke-linejoin: miter; stroke-linecap: square"/>
   </g>
   <g id="legend_1">
    <g id="patch_7">
     <path d="M 756.24 113.415 
L 881.04 113.415 
Q 885.84 113.415 885.84 108.615 
L 885.84 40.56 
Q 885.84 35.76 881.04 35.76 
L 756.24 35.76 
Q 751.44 35.76 751.44 40.56 
L 751.44 108.615 
Q 751.44 113.415 756.24 113.415 
z
" style="fill: #ffffff; opacity: 0.8; stroke: #cccccc; stroke-linejoin: miter"/>
    </g>
    <g id="patch_8">
     <path d="M 761.04 63.59625 
L 809.04 63.59625 
L 809.04 46.79625 
L 761.04 46.79625 
z
" style="fill: #1f77b4"/>
    </g>
    <g id="text_15">
     <!-- UE1 -->
     <g transform="translate(828.24 63.59625)scale(0.24 -0.24)">
      <defs>
       <path id="DejaVuSans-55" d="M 556 4666 
L 1191 4666 
L 1191 1831 
Q 1191 1081 1462 751 
Q 1734 422 2344 422 
Q 2950 422 3222 751 
Q 3494 1081 3494 1831 
L 3494 4666 
L 4128 4666 
L 4128 1753 
Q 4128 841 3676 375 
Q 3225 -91 2344 -91 
Q 1459 -91 1007 375 
Q 556 841 556 1753 
L 556 4666 
z
" transform="scale(0.015625)"/>
       <path id="DejaVuSans-45" d="M 628 4666 
L 3578 4666 
L 3578 4134 
L 1259 4134 
L 1259 2753 
L 3481 2753 
L 3481 2222 
L 1259 2222 
L 1259 531 
L 3634 531 
L 3634 0 
L 628 0 
L 628 4666 
z
" transform="scale(0.015625)"/>
      </defs>
      <use xlink:href="#DejaVuSans-55"/>
      <use xlink:href="#DejaVuSans-45" x="73.193359"/>
      <use xlink:href="#DejaVuSans-31" x="136.376953"/>
     </g>
    </g>
    <g id="patch_9">
     <path d="M 761.04 98.82375 
L 809.04 98.82375 
L 809.04 82.02375 
L 761.04 82.02375 
z
" style="fill: #ff7f0e"/>
    </g>
    <g id="text_16">
     <!-- UE2 -->
     <g transform="translate(828.24 98.82375)scale(0.24 -0.24)">
      <use xlink:href="#DejaVuSans-55"/>
      <use xlink:href="#DejaVuSans-45" x="73.193359"/>
      <use xlink:href="#DejaVuSans-32" x="136.376953"/>
     </g>
    </g>
   </g>
  </g>
 </g>
 <defs>
  <clipPath id="p8a94cbe9ec">
   <rect x="108.01" y="23.76" width="789.83" height="307.88"/>
  </clipPath>
 </defs>
</svg>
