<?xml version="1.0" encoding="utf-8" standalone="no"?>
<!DOCTYPE svg PUBLIC "-//W3C//DTD SVG 1.1//EN"
  "http://www.w3.org/Graphics/SVG/1.1/DTD/svg11.dtd">
<svg xmlns:xlink="http://www.w3.org/1999/xlink" width="921.6pt" height="410.4pt" viewBox="0 0 921.6 410.4" xmlns="http://www.w3.org/2000/svg" version="1.1">
 <metadata>
  <rdf:RDF xmlns:dc="http://purl.org/dc/elements/1.1/" xmlns:cc="http://creativecommons.org/ns#" xmlns:rdf="http://www.w3.org/1999/02/22-rdf-syntax-ns#">
   <cc:Work>
    <dc:type rdf:resource="http://purl.org/dc/dcmitype/StillImage"/>
    <dc:date>2023-04-11T15:18:59.429265</dc:date>
    <dc:format>image/svg+xml</dc:format>
    <dc:creator>
     <cc:Agent>
      <dc:title>Matplotlib v3.5.3, https://matplotlib.org/</dc:title>
     </cc:Agent>
    </dc:creator>
   </cc:Work>
  </rdf:RDF>
 </metadata>
 <defs>
  <style type="text/css">*{stroke-linejoin: round; stroke-linecap: butt}</style>
 </defs>
 <g id="figure_1">
  <g id="patch_1">
   <path d="M 0 410.4 
L 921.6 410.4 
L 921.6 0 
L 0 0 
L 0 410.4 
z
" style="fill: none"/>
  </g>
  <g id="axes_1">
   <g id="patch_2">
    <path d="M 101.01 331.64 
L 897.84 331.64 
L 897.84 23.76 
L 101.01 23.76 
z
" style="fill: #ffffff"/>
   </g>
   <g id="PolyCollection_1">
    <path d="M 137.229545 233.535271 
L 137.229545 331.64 
L 141.166453 331.64 
L 145.10336 331.64 
L 149.040267 331.64 
L 152.977174 331.64 
L 156.914081 331.64 
L 160.850988 331.64 
L 164.787895 331.64 
L 168.724802 331.64 
L 172.661709 331.64 
L 176.598617 331.64 
L 180.535524 331.64 
L 184.472431 331.64 
L 188.409338 331.64 
L 192.346245 331.64 
L 196.283152 331.64 
L 200.220059 331.64 
L 204.156966 331.64 
L 208.093874 331.64 
L 212.030781 331.64 
L 215.967688 331.64 
L 219.904595 331.64 
L 223.841502 331.64 
L 227.778409 331.64 
L 231.715316 331.64 
L 235.652223 331.64 
L 239.58913 331.64 
L 243.526038 331.64 
L 247.462945 331.64 
L 251.399852 331.64 
L 255.336759 331.64 
L 259.273666 331.64 
L 263.210573 331.64 
L 267.14748 331.64 
L 271.084387 331.64 
L 275.021294 331.64 
L 278.958202 331.64 
L 282.895109 331.64 
L 286.832016 331.64 
L 290.768923 331.64 
L 294.70583 331.64 
L 298.642737 331.64 
L 302.579644 331.64 
L 306.516551 331.64 
L 310.453458 331.64 
L 314.390366 331.64 
L 318.327273 331.64 
L 322.26418 331.64 
L 326.201087 331.64 
L 330.137994 331.64 
L 334.074901 331.64 
L 338.011808 331.64 
L 341.948715 331.64 
L 345.885623 331.64 
L 349.82253 331.64 
L 353.759437 331.64 
L 357.696344 331.64 
L 361.633251 331.64 
L 365.570158 331.64 
L 369.507065 331.64 
L 373.443972 331.64 
L 377.380879 331.64 
L 381.317787 331.64 
L 385.254694 331.64 
L 389.191601 331.64 
L 393.128508 331.64 
L 397.065415 331.64 
L 401.002322 331.64 
L 404.939229 331.64 
L 408.876136 331.64 
L 412.813043 331.64 
L 416.749951 331.64 
L 420.686858 331.64 
L 424.623765 331.64 
L 428.560672 331.64 
L 432.497579 331.64 
L 436.434486 331.64 
L 440.371393 331.64 
L 444.3083 331.64 
L 448.245208 331.64 
L 452.182115 331.64 
L 456.119022 331.64 
L 460.055929 331.64 
L 463.992836 331.64 
L 467.929743 331.64 
L 471.86665 331.64 
L 475.803557 331.64 
L 479.740464 331.64 
L 483.677372 331.64 
L 487.614279 331.64 
L 491.551186 331.64 
L 495.488093 331.64 
L 499.425 331.64 
L 503.361907 331.64 
L 507.298814 331.64 
L 511.235721 331.64 
L 515.172628 331.64 
L 519.109536 331.64 
L 523.046443 331.64 
L 526.98335 331.64 
L 530.920257 331.64 
L 534.857164 331.64 
L 538.794071 331.64 
L 542.730978 331.64 
L 546.667885 331.64 
L 550.604792 331.64 
L 554.5417 331.64 
L 558.478607 331.64 
L 562.415514 331.64 
L 566.352421 331.64 
L 570.289328 331.64 
L 574.226235 331.64 
L 578.163142 331.64 
L 582.100049 331.64 
L 586.036957 331.64 
L 589.973864 331.64 
L 593.910771 331.64 
L 597.847678 331.64 
L 601.784585 331.64 
L 605.721492 331.64 
L 609.658399 331.64 
L 613.595306 331.64 
L 617.532213 331.64 
L 621.469121 331.64 
L 625.406028 331.64 
L 629.342935 331.64 
L 633.279842 331.64 
L 637.216749 331.64 
L 641.153656 331.64 
L 645.090563 331.64 
L 649.02747 331.64 
L 652.964377 331.64 
L 656.901285 331.64 
L 660.838192 331.64 
L 664.775099 331.64 
L 668.712006 331.64 
L 672.648913 331.64 
L 676.58582 331.64 
L 680.522727 331.64 
L 684.459634 331.64 
L 688.396542 331.64 
L 692.333449 331.64 
L 696.270356 331.64 
L 700.207263 331.64 
L 704.14417 331.64 
L 708.081077 331.64 
L 712.017984 331.64 
L 715.954891 331.64 
L 719.891798 331.64 
L 723.828706 331.64 
L 727.765613 331.64 
L 731.70252 331.64 
L 735.639427 331.64 
L 739.576334 331.64 
L 743.513241 331.64 
L 747.450148 331.64 
L 751.387055 331.64 
L 755.323962 331.64 
L 759.26087 331.64 
L 763.197777 331.64 
L 767.134684 331.64 
L 771.071591 331.64 
L 775.008498 331.64 
L 778.945405 331.64 
L 782.882312 331.64 
L 786.819219 331.64 
L 790.756126 331.64 
L 794.693034 331.64 
L 798.629941 331.64 
L 802.566848 331.64 
L 806.503755 331.64 
L 810.440662 331.64 
L 814.377569 331.64 
L 818.314476 331.64 
L 822.251383 331.64 
L 826.188291 331.64 
L 830.125198 331.64 
L 834.062105 331.64 
L 837.999012 331.64 
L 841.935919 331.64 
L 845.872826 331.64 
L 849.809733 331.64 
L 853.74664 331.64 
L 857.683547 331.64 
L 861.620455 331.64 
L 861.620455 233.936206 
L 861.620455 233.936206 
L 857.683547 234.048167 
L 853.74664 233.849847 
L 849.809733 234.003942 
L 845.872826 233.789882 
L 841.935919 234.210457 
L 837.999012 233.729917 
L 834.062105 233.886216 
L 830.125198 233.859427 
L 826.188291 233.978552 
L 822.251383 233.969311 
L 818.314476 234.084974 
L 814.377569 233.892363 
L 810.440662 233.905913 
L 806.503755 233.93201 
L 802.566848 233.878318 
L 798.629941 233.933267 
L 794.693034 233.70252 
L 790.756126 234.151213 
L 786.819219 233.959604 
L 782.882312 233.876623 
L 778.945405 233.990802 
L 775.008498 233.737688 
L 771.071591 234.022522 
L 767.134684 233.806173 
L 763.197777 233.87699 
L 759.26087 233.812193 
L 755.323962 234.160213 
L 751.387055 233.796071 
L 747.450148 233.956623 
L 743.513241 233.924111 
L 739.576334 233.799391 
L 735.639427 234.033134 
L 731.70252 233.930639 
L 727.765613 233.993246 
L 723.828706 233.70731 
L 719.891798 234.099146 
L 715.954891 233.921893 
L 712.017984 233.779172 
L 708.081077 234.004027 
L 704.14417 233.900501 
L 700.207263 234.033628 
L 696.270356 233.842627 
L 692.333449 233.931162 
L 688.396542 233.946987 
L 684.459634 233.939569 
L 680.522727 233.879773 
L 676.58582 233.946789 
L 672.648913 233.833245 
L 668.712006 234.202856 
L 664.775099 233.962868 
L 660.838192 233.800508 
L 656.901285 233.857336 
L 652.964377 233.837413 
L 649.02747 234.2001 
L 645.090563 233.759448 
L 641.153656 233.868541 
L 637.216749 233.903299 
L 633.279842 233.954998 
L 629.342935 234.145547 
L 625.406028 233.832242 
L 621.469121 233.70139 
L 617.532213 234.057987 
L 613.595306 233.97882 
L 609.658399 233.795506 
L 605.721492 234.040636 
L 601.784585 233.875916 
L 597.847678 233.853394 
L 593.910771 233.948541 
L 589.973864 233.872582 
L 586.036957 233.793782 
L 582.100049 234.046994 
L 578.163142 233.848802 
L 574.226235 233.830349 
L 570.289328 234.499134 
L 566.352421 233.812857 
L 562.415514 234.158701 
L 558.478607 233.813394 
L 554.5417 233.703905 
L 550.604792 234.130513 
L 546.667885 233.998517 
L 542.730978 233.699059 
L 538.794071 234.105024 
L 534.857164 233.903694 
L 530.920257 233.951042 
L 526.98335 233.717526 
L 523.046443 233.933861 
L 519.109536 234.027694 
L 515.172628 233.91918 
L 511.235721 233.94255 
L 507.298814 234.066804 
L 503.361907 233.866831 
L 499.425 234.18891 
L 495.488093 233.917894 
L 491.551186 233.92746 
L 487.614279 233.959265 
L 483.677372 234.22282 
L 479.740464 233.959265 
L 475.803557 234.034631 
L 471.86665 234.026888 
L 467.929743 233.835774 
L 463.992836 234.091968 
L 460.055929 233.933677 
L 456.119022 233.992794 
L 452.182115 233.997697 
L 448.245208 233.813351 
L 444.3083 234.137465 
L 440.371393 234.1743 
L 436.434486 233.894312 
L 432.497579 234.011106 
L 428.560672 233.87374 
L 424.623765 233.947453 
L 420.686858 234.029361 
L 416.749951 233.960466 
L 412.813043 234.025334 
L 408.876136 233.983596 
L 404.939229 233.950971 
L 401.002322 234.17673 
L 397.065415 233.839787 
L 393.128508 234.134837 
L 389.191601 233.802316 
L 385.254694 234.120397 
L 381.317787 233.976418 
L 377.380879 234.073699 
L 373.443972 233.809508 
L 369.507065 234.13755 
L 365.570158 233.879434 
L 361.633251 233.941123 
L 357.696344 234.066931 
L 353.759437 233.800592 
L 349.82253 234.214555 
L 345.885623 233.968492 
L 341.948715 234.058835 
L 338.011808 233.910024 
L 334.074901 233.917372 
L 330.137994 234.05543 
L 326.201087 233.984896 
L 322.26418 233.91244 
L 318.327273 234.216971 
L 314.390366 233.782337 
L 310.453458 234.182184 
L 306.516551 233.901702 
L 302.579644 234.03692 
L 298.642737 233.937803 
L 294.70583 234.06378 
L 290.768923 233.950703 
L 286.832016 234.191015 
L 282.895109 233.764718 
L 278.958202 234.22754 
L 275.021294 233.745516 
L 271.084387 234.142226 
L 267.14748 233.948795 
L 263.210573 234.126246 
L 259.273666 233.891119 
L 255.336759 234.057337 
L 251.399852 234.014087 
L 247.462945 233.83398 
L 243.526038 233.91894 
L 239.58913 234.170867 
L 235.652223 233.982395 
L 231.715316 234.057832 
L 227.778409 233.918883 
L 223.841502 233.994433 
L 219.904595 234.026676 
L 215.967688 234.027807 
L 212.030781 234.00089 
L 208.093874 233.975429 
L 204.156966 234.102481 
L 200.220059 233.86539 
L 196.283152 233.824174 
L 192.346245 234.101166 
L 188.409338 233.942776 
L 184.472431 234.051247 
L 180.535524 233.984627 
L 176.598617 234.033642 
L 172.661709 233.919858 
L 168.724802 233.988697 
L 164.787895 234.157684 
L 160.850988 233.96989 
L 156.914081 233.979173 
L 152.977174 233.967333 
L 149.040267 234.001328 
L 145.10336 233.895485 
L 141.166453 234.007079 
L 137.229545 233.535271 
z
" clip-path="url(#p502ac84490)" style="fill: #1f77b4"/>
   </g>
   <g id="PolyCollection_2">
    <path d="M 137.229545 136.009451 
L 137.229545 233.535271 
L 141.166453 234.007079 
L 145.10336 233.895485 
L 149.040267 234.001328 
L 152.977174 233.967333 
L 156.914081 233.979173 
L 160.850988 233.96989 
L 164.787895 234.157684 
L 168.724802 233.988697 
L 172.661709 233.919858 
L 176.598617 234.033642 
L 180.535524 233.984627 
L 184.472431 234.051247 
L 188.409338 233.942776 
L 192.346245 234.101166 
L 196.283152 233.824174 
L 200.220059 233.86539 
L 204.156966 234.102481 
L 208.093874 233.975429 
L 212.030781 234.00089 
L 215.967688 234.027807 
L 219.904595 234.026676 
L 223.841502 233.994433 
L 227.778409 233.918883 
L 231.715316 234.057832 
L 235.652223 233.982395 
L 239.58913 234.170867 
L 243.526038 233.91894 
L 247.462945 233.83398 
L 251.399852 234.014087 
L 255.336759 234.057337 
L 259.273666 233.891119 
L 263.210573 234.126246 
L 267.14748 233.948795 
L 271.084387 234.142226 
L 275.021294 233.745516 
L 278.958202 234.22754 
L 282.895109 233.764718 
L 286.832016 234.191015 
L 290.768923 233.950703 
L 294.70583 234.06378 
L 298.642737 233.937803 
L 302.579644 234.03692 
L 306.516551 233.901702 
L 310.453458 234.182184 
L 314.390366 233.782337 
L 318.327273 234.216971 
L 322.26418 233.91244 
L 326.201087 233.984896 
L 330.137994 234.05543 
L 334.074901 233.917372 
L 338.011808 233.910024 
L 341.948715 234.058835 
L 345.885623 233.968492 
L 349.82253 234.214555 
L 353.759437 233.800592 
L 357.696344 234.066931 
L 361.633251 233.941123 
L 365.570158 233.879434 
L 369.507065 234.13755 
L 373.443972 233.809508 
L 377.380879 234.073699 
L 381.317787 233.976418 
L 385.254694 234.120397 
L 389.191601 233.802316 
L 393.128508 234.134837 
L 397.065415 233.839787 
L 401.002322 234.17673 
L 404.939229 233.950971 
L 408.876136 233.983596 
L 412.813043 234.025334 
L 416.749951 233.960466 
L 420.686858 234.029361 
L 424.623765 233.947453 
L 428.560672 233.87374 
L 432.497579 234.011106 
L 436.434486 233.894312 
L 440.371393 234.1743 
L 444.3083 234.137465 
L 448.245208 233.813351 
L 452.182115 233.997697 
L 456.119022 233.992794 
L 460.055929 233.933677 
L 463.992836 234.091968 
L 467.929743 233.835774 
L 471.86665 234.026888 
L 475.803557 234.034631 
L 479.740464 233.959265 
L 483.677372 234.22282 
L 487.614279 233.959265 
L 491.551186 233.92746 
L 495.488093 233.917894 
L 499.425 234.18891 
L 503.361907 233.866831 
L 507.298814 234.066804 
L 511.235721 233.94255 
L 515.172628 233.91918 
L 519.109536 234.027694 
L 523.046443 233.933861 
L 526.98335 233.717526 
L 530.920257 233.951042 
L 534.857164 233.903694 
L 538.794071 234.105024 
L 542.730978 233.699059 
L 546.667885 233.998517 
L 550.604792 234.130513 
L 554.5417 233.703905 
L 558.478607 233.813394 
L 562.415514 234.158701 
L 566.352421 233.812857 
L 570.289328 234.499134 
L 574.226235 233.830349 
L 578.163142 233.848802 
L 582.100049 234.046994 
L 586.036957 233.793782 
L 589.973864 233.872582 
L 593.910771 233.948541 
L 597.847678 233.853394 
L 601.784585 233.875916 
L 605.721492 234.040636 
L 609.658399 233.795506 
L 613.595306 233.97882 
L 617.532213 234.057987 
L 621.469121 233.70139 
L 625.406028 233.832242 
L 629.342935 234.145547 
L 633.279842 233.954998 
L 637.216749 233.903299 
L 641.153656 233.868541 
L 645.090563 233.759448 
L 649.02747 234.2001 
L 652.964377 233.837413 
L 656.901285 233.857336 
L 660.838192 233.800508 
L 664.775099 233.962868 
L 668.712006 234.202856 
L 672.648913 233.833245 
L 676.58582 233.946789 
L 680.522727 233.879773 
L 684.459634 233.939569 
L 688.396542 233.946987 
L 692.333449 233.931162 
L 696.270356 233.842627 
L 700.207263 234.033628 
L 704.14417 233.900501 
L 708.081077 234.004027 
L 712.017984 233.779172 
L 715.954891 233.921893 
L 719.891798 234.099146 
L 723.828706 233.70731 
L 727.765613 233.993246 
L 731.70252 233.930639 
L 735.639427 234.033134 
L 739.576334 233.799391 
L 743.513241 233.924111 
L 747.450148 233.956623 
L 751.387055 233.796071 
L 755.323962 234.160213 
L 759.26087 233.812193 
L 763.197777 233.87699 
L 767.134684 233.806173 
L 771.071591 234.022522 
L 775.008498 233.737688 
L 778.945405 233.990802 
L 782.882312 233.876623 
L 786.819219 233.959604 
L 790.756126 234.151213 
L 794.693034 233.70252 
L 798.629941 233.933267 
L 802.566848 233.878318 
L 806.503755 233.93201 
L 810.440662 233.905913 
L 814.377569 233.892363 
L 818.314476 234.084974 
L 822.251383 233.969311 
L 826.188291 233.978552 
L 830.125198 233.859427 
L 834.062105 233.886216 
L 837.999012 233.729917 
L 841.935919 234.210457 
L 845.872826 233.789882 
L 849.809733 234.003942 
L 853.74664 233.849847 
L 857.683547 234.048167 
L 861.620455 233.936206 
L 861.620455 136.195323 
L 861.620455 136.195323 
L 857.683547 136.323603 
L 853.74664 136.11097 
L 849.809733 136.363123 
L 845.872826 135.832339 
L 841.935919 136.481103 
L 837.999012 136.139836 
L 834.062105 136.123234 
L 830.125198 136.352922 
L 826.188291 136.255485 
L 822.251383 136.188668 
L 818.314476 136.471947 
L 814.377569 135.93205 
L 810.440662 136.426013 
L 806.503755 136.230985 
L 802.566848 136.029712 
L 798.629941 136.334553 
L 794.693034 135.986307 
L 790.756126 136.423498 
L 786.819219 136.044082 
L 782.882312 136.380064 
L 778.945405 136.16452 
L 775.008498 136.203447 
L 771.071591 136.185587 
L 767.134684 136.27887 
L 763.197777 136.10245 
L 759.26087 136.123461 
L 755.323962 136.394504 
L 751.387055 135.966413 
L 747.450148 136.340954 
L 743.513241 136.164068 
L 739.576334 136.086809 
L 735.639427 136.379739 
L 731.70252 136.187537 
L 727.765613 136.166781 
L 723.828706 135.893053 
L 719.891798 136.41697 
L 715.954891 135.990206 
L 712.017984 136.273755 
L 708.081077 136.32089 
L 704.14417 136.242939 
L 700.207263 136.06399 
L 696.270356 136.211557 
L 692.333449 136.141221 
L 688.396542 136.270194 
L 684.459634 136.341689 
L 680.522727 136.031648 
L 676.58582 136.38289 
L 672.648913 135.992057 
L 668.712006 136.465194 
L 664.775099 136.356666 
L 660.838192 135.852417 
L 656.901285 136.111832 
L 652.964377 135.981799 
L 649.02747 136.635 
L 645.090563 135.924194 
L 641.153656 136.290569 
L 637.216749 135.94584 
L 633.279842 136.513714 
L 629.342935 136.282077 
L 625.406028 136.07901 
L 621.469121 135.982082 
L 617.532213 136.421689 
L 613.595306 136.303737 
L 609.658399 136.067254 
L 605.721492 136.339541 
L 601.784585 136.182154 
L 597.847678 136.094001 
L 593.910771 136.33444 
L 589.973864 136.086654 
L 586.036957 136.115407 
L 582.100049 136.534597 
L 578.163142 136.218608 
L 574.226235 136.075816 
L 570.289328 137.16659 
L 566.352421 135.940542 
L 562.415514 136.611249 
L 558.478607 136.117131 
L 554.5417 135.829584 
L 550.604792 136.544488 
L 546.667885 136.210031 
L 542.730978 135.858323 
L 538.794071 136.487193 
L 534.857164 135.939115 
L 530.920257 136.460107 
L 526.98335 136.012757 
L 523.046443 136.344175 
L 519.109536 136.319689 
L 515.172628 136.266379 
L 511.235721 136.312229 
L 507.298814 136.372434 
L 503.361907 135.947239 
L 499.425 136.690882 
L 495.488093 136.083192 
L 491.551186 136.436073 
L 487.614279 136.256997 
L 483.677372 136.689978 
L 479.740464 136.434815 
L 475.803557 136.322812 
L 471.86665 136.363646 
L 467.929743 136.233656 
L 463.992836 136.431057 
L 460.055929 136.273995 
L 456.119022 136.158516 
L 452.182115 136.520411 
L 448.245208 136.117484 
L 444.3083 136.356722 
L 440.371393 136.539472 
L 436.434486 136.328308 
L 432.497579 136.153443 
L 428.560672 136.447885 
L 424.623765 136.084944 
L 420.686858 136.656209 
L 416.749951 136.237004 
L 412.813043 136.44862 
L 408.876136 136.112666 
L 404.939229 136.39384 
L 401.002322 136.606911 
L 397.065415 136.218452 
L 393.128508 136.517444 
L 389.191601 135.959913 
L 385.254694 136.491121 
L 381.317787 136.390124 
L 377.380879 136.418143 
L 373.443972 136.221561 
L 369.507065 136.482064 
L 365.570158 136.382833 
L 361.633251 136.188272 
L 357.696344 136.284352 
L 353.759437 136.035053 
L 349.82253 136.759198 
L 345.885623 136.231268 
L 341.948715 136.517939 
L 338.011808 136.018748 
L 334.074901 136.595127 
L 330.137994 136.110278 
L 326.201087 136.558688 
L 322.26418 135.996296 
L 318.327273 136.855108 
L 314.390366 135.850269 
L 310.453458 136.70422 
L 306.516551 136.317033 
L 302.579644 136.361894 
L 298.642737 136.362261 
L 294.70583 136.389601 
L 290.768923 136.309742 
L 286.832016 136.573283 
L 282.895109 136.088137 
L 278.958202 136.460955 
L 275.021294 136.160041 
L 271.084387 136.468175 
L 267.14748 136.328351 
L 263.210573 136.530429 
L 259.273666 135.962442 
L 255.336759 136.667625 
L 251.399852 136.111168 
L 247.462945 136.376179 
L 243.526038 136.340332 
L 239.58913 136.598914 
L 235.652223 136.060641 
L 231.715316 136.671595 
L 227.778409 136.107876 
L 223.841502 136.321583 
L 219.904595 136.379824 
L 215.967688 136.501958 
L 212.030781 136.095626 
L 208.093874 136.573495 
L 204.156966 136.432145 
L 200.220059 136.309869 
L 196.283152 136.027988 
L 192.346245 136.493707 
L 188.409338 136.297619 
L 184.472431 136.391085 
L 180.535524 136.167869 
L 176.598617 136.481951 
L 172.661709 136.270547 
L 168.724802 136.25923 
L 164.787895 136.539896 
L 160.850988 136.4207 
L 156.914081 136.095541 
L 152.977174 136.52985 
L 149.040267 136.164365 
L 145.10336 136.401442 
L 141.166453 136.434914 
L 137.229545 136.009451 
z
" clip-path="url(#p502ac84490)" style="fill: #ff7f0e"/>
   </g>
   <g id="PolyCollection_3">
    <path d="M 137.229545 52.480272 
L 137.229545 136.009451 
L 141.166453 136.434914 
L 145.10336 136.401442 
L 149.040267 136.164365 
L 152.977174 136.52985 
L 156.914081 136.095541 
L 160.850988 136.4207 
L 164.787895 136.539896 
L 168.724802 136.25923 
L 172.661709 136.270547 
L 176.598617 136.481951 
L 180.535524 136.167869 
L 184.472431 136.391085 
L 188.409338 136.297619 
L 192.346245 136.493707 
L 196.283152 136.027988 
L 200.220059 136.309869 
L 204.156966 136.432145 
L 208.093874 136.573495 
L 212.030781 136.095626 
L 215.967688 136.501958 
L 219.904595 136.379824 
L 223.841502 136.321583 
L 227.778409 136.107876 
L 231.715316 136.671595 
L 235.652223 136.060641 
L 239.58913 136.598914 
L 243.526038 136.340332 
L 247.462945 136.376179 
L 251.399852 136.111168 
L 255.336759 136.667625 
L 259.273666 135.962442 
L 263.210573 136.530429 
L 267.14748 136.328351 
L 271.084387 136.468175 
L 275.021294 136.160041 
L 278.958202 136.460955 
L 282.895109 136.088137 
L 286.832016 136.573283 
L 290.768923 136.309742 
L 294.70583 136.389601 
L 298.642737 136.362261 
L 302.579644 136.361894 
L 306.516551 136.317033 
L 310.453458 136.70422 
L 314.390366 135.850269 
L 318.327273 136.855108 
L 322.26418 135.996296 
L 326.201087 136.558688 
L 330.137994 136.110278 
L 334.074901 136.595127 
L 338.011808 136.018748 
L 341.948715 136.517939 
L 345.885623 136.231268 
L 349.82253 136.759198 
L 353.759437 136.035053 
L 357.696344 136.284352 
L 361.633251 136.188272 
L 365.570158 136.382833 
L 369.507065 136.482064 
L 373.443972 136.221561 
L 377.380879 136.418143 
L 381.317787 136.390124 
L 385.254694 136.491121 
L 389.191601 135.959913 
L 393.128508 136.517444 
L 397.065415 136.218452 
L 401.002322 136.606911 
L 404.939229 136.39384 
L 408.876136 136.112666 
L 412.813043 136.44862 
L 416.749951 136.237004 
L 420.686858 136.656209 
L 424.623765 136.084944 
L 428.560672 136.447885 
L 432.497579 136.153443 
L 436.434486 136.328308 
L 440.371393 136.539472 
L 444.3083 136.356722 
L 448.245208 136.117484 
L 452.182115 136.520411 
L 456.119022 136.158516 
L 460.055929 136.273995 
L 463.992836 136.431057 
L 467.929743 136.233656 
L 471.86665 136.363646 
L 475.803557 136.322812 
L 479.740464 136.434815 
L 483.677372 136.689978 
L 487.614279 136.256997 
L 491.551186 136.436073 
L 495.488093 136.083192 
L 499.425 136.690882 
L 503.361907 135.947239 
L 507.298814 136.372434 
L 511.235721 136.312229 
L 515.172628 136.266379 
L 519.109536 136.319689 
L 523.046443 136.344175 
L 526.98335 136.012757 
L 530.920257 136.460107 
L 534.857164 135.939115 
L 538.794071 136.487193 
L 542.730978 135.858323 
L 546.667885 136.210031 
L 550.604792 136.544488 
L 554.5417 135.829584 
L 558.478607 136.117131 
L 562.415514 136.611249 
L 566.352421 135.940542 
L 570.289328 137.16659 
L 574.226235 136.075816 
L 578.163142 136.218608 
L 582.100049 136.534597 
L 586.036957 136.115407 
L 589.973864 136.086654 
L 593.910771 136.33444 
L 597.847678 136.094001 
L 601.784585 136.182154 
L 605.721492 136.339541 
L 609.658399 136.067254 
L 613.595306 136.303737 
L 617.532213 136.421689 
L 621.469121 135.982082 
L 625.406028 136.07901 
L 629.342935 136.282077 
L 633.279842 136.513714 
L 637.216749 135.94584 
L 641.153656 136.290569 
L 645.090563 135.924194 
L 649.02747 136.635 
L 652.964377 135.981799 
L 656.901285 136.111832 
L 660.838192 135.852417 
L 664.775099 136.356666 
L 668.712006 136.465194 
L 672.648913 135.992057 
L 676.58582 136.38289 
L 680.522727 136.031648 
L 684.459634 136.341689 
L 688.396542 136.270194 
L 692.333449 136.141221 
L 696.270356 136.211557 
L 700.207263 136.06399 
L 704.14417 136.242939 
L 708.081077 136.32089 
L 712.017984 136.273755 
L 715.954891 135.990206 
L 719.891798 136.41697 
L 723.828706 135.893053 
L 727.765613 136.166781 
L 731.70252 136.187537 
L 735.639427 136.379739 
L 739.576334 136.086809 
L 743.513241 136.164068 
L 747.450148 136.340954 
L 751.387055 135.966413 
L 755.323962 136.394504 
L 759.26087 136.123461 
L 763.197777 136.10245 
L 767.134684 136.27887 
L 771.071591 136.185587 
L 775.008498 136.203447 
L 778.945405 136.16452 
L 782.882312 136.380064 
L 786.819219 136.044082 
L 790.756126 136.423498 
L 794.693034 135.986307 
L 798.629941 136.334553 
L 802.566848 136.029712 
L 806.503755 136.230985 
L 810.440662 136.426013 
L 814.377569 135.93205 
L 818.314476 136.471947 
L 822.251383 136.188668 
L 826.188291 136.255485 
L 830.125198 136.352922 
L 834.062105 136.123234 
L 837.999012 136.139836 
L 841.935919 136.481103 
L 845.872826 135.832339 
L 849.809733 136.363123 
L 853.74664 136.11097 
L 857.683547 136.323603 
L 861.620455 136.195323 
L 861.620455 38.560861 
L 861.620455 38.560861 
L 857.683547 38.982609 
L 853.74664 38.355477 
L 849.809733 39.117813 
L 845.872826 37.90328 
L 841.935919 39.176591 
L 837.999012 38.456883 
L 834.062105 38.647234 
L 830.125198 38.703483 
L 826.188291 39.000539 
L 822.251383 38.467636 
L 818.314476 39.268319 
L 814.377569 38.105415 
L 810.440662 38.999946 
L 806.503755 38.748118 
L 802.566848 38.479985 
L 798.629941 38.741336 
L 794.693034 38.533196 
L 790.756126 38.675394 
L 786.819219 38.887956 
L 782.882312 38.6413 
L 778.945405 38.733932 
L 775.008498 38.309373 
L 771.071591 38.856999 
L 767.134684 38.75555 
L 763.197777 38.811192 
L 759.26087 38.453422 
L 755.323962 38.988826 
L 751.387055 38.2772 
L 747.450148 38.872584 
L 743.513241 38.516001 
L 739.576334 38.821082 
L 735.639427 38.554687 
L 731.70252 38.694158 
L 727.765613 38.609777 
L 723.828706 38.521299 
L 719.891798 38.662876 
L 715.954891 38.820107 
L 712.017984 38.433895 
L 708.081077 38.910917 
L 704.14417 38.511564 
L 700.207263 38.934569 
L 696.270356 38.322202 
L 692.333449 38.872965 
L 688.396542 38.746211 
L 684.459634 38.760467 
L 680.522727 38.537138 
L 676.58582 39.025252 
L 672.648913 38.184413 
L 668.712006 39.029674 
L 664.775099 38.647715 
L 660.838192 38.469374 
L 656.901285 38.579385 
L 652.964377 38.533761 
L 649.02747 39.014838 
L 645.090563 38.456629 
L 641.153656 38.615909 
L 637.216749 38.611939 
L 633.279842 38.926077 
L 629.342935 38.846303 
L 625.406028 38.42837 
L 621.469121 38.550646 
L 617.532213 38.665602 
L 613.595306 39.040356 
L 609.658399 38.453393 
L 605.721492 38.835635 
L 601.784585 38.73567 
L 597.847678 38.534383 
L 593.910771 38.804409 
L 589.973864 38.651007 
L 586.036957 38.454269 
L 582.100049 39.113744 
L 578.163142 38.633656 
L 574.226235 38.702551 
L 570.289328 39.945512 
L 566.352421 38.377632 
L 562.415514 39.213751 
L 558.478607 38.763901 
L 554.5417 38.034712 
L 550.604792 39.035947 
L 546.667885 38.734624 
L 542.730978 38.598841 
L 538.794071 38.576291 
L 534.857164 38.725836 
L 530.920257 38.789701 
L 526.98335 38.472397 
L 523.046443 38.822848 
L 519.109536 38.867582 
L 515.172628 38.652024 
L 511.235721 38.827949 
L 507.298814 38.437865 
L 503.361907 38.464937 
L 499.425 38.938342 
L 495.488093 38.588244 
L 491.551186 38.562161 
L 487.614279 38.868161 
L 483.677372 38.928465 
L 479.740464 38.741774 
L 475.803557 38.691445 
L 471.86665 38.638389 
L 467.929743 38.446555 
L 463.992836 38.862877 
L 460.055929 38.512115 
L 456.119022 38.723787 
L 452.182115 38.800891 
L 448.245208 38.502309 
L 444.3083 38.652688 
L 440.371393 39.06836 
L 436.434486 38.468272 
L 432.497579 38.507989 
L 428.560672 38.690654 
L 424.623765 38.441454 
L 420.686858 38.927038 
L 416.749951 38.645765 
L 412.813043 38.727729 
L 408.876136 38.6181 
L 404.939229 38.435449 
L 401.002322 39.195256 
L 397.065415 38.155843 
L 393.128508 39.101635 
L 389.191601 38.20531 
L 385.254694 39.087435 
L 381.317787 38.557485 
L 377.380879 38.7575 
L 373.443972 38.439179 
L 369.507065 38.924989 
L 365.570158 38.612716 
L 361.633251 38.597598 
L 357.696344 38.565496 
L 353.759437 38.445354 
L 349.82253 39.031398 
L 345.885623 38.705136 
L 341.948715 38.619357 
L 338.011808 38.374283 
L 334.074901 38.977212 
L 330.137994 38.54765 
L 326.201087 38.64787 
L 322.26418 38.562034 
L 318.327273 39.068275 
L 314.390366 38.197864 
L 310.453458 38.976322 
L 306.516551 38.68106 
L 302.579644 38.598276 
L 298.642737 38.805356 
L 294.70583 38.645737 
L 290.768923 38.666535 
L 286.832016 38.764183 
L 282.895109 38.526358 
L 278.958202 38.591649 
L 275.021294 38.613804 
L 271.084387 38.635959 
L 267.14748 38.825533 
L 263.210573 38.783498 
L 259.273666 38.432694 
L 255.336759 38.846232 
L 251.399852 38.461334 
L 247.462945 38.712244 
L 243.526038 38.774356 
L 239.58913 38.777013 
L 235.652223 38.508978 
L 231.715316 38.879592 
L 227.778409 38.563772 
L 223.841502 38.470702 
L 219.904595 38.834547 
L 215.967688 38.746196 
L 212.030781 38.433005 
L 208.093874 38.813311 
L 204.156966 38.72448 
L 200.220059 38.710901 
L 196.283152 38.35388 
L 192.346245 38.81478 
L 188.409338 38.626733 
L 184.472431 38.679138 
L 180.535524 38.598714 
L 176.598617 38.773395 
L 172.661709 38.658439 
L 168.724802 38.468639 
L 164.787895 39.088297 
L 160.850988 38.715451 
L 156.914081 38.518247 
L 152.977174 38.765624 
L 149.040267 38.506958 
L 145.10336 38.679082 
L 141.166453 38.889807 
L 137.229545 52.480272 
z
" clip-path="url(#p502ac84490)" style="fill: #2ca02c"/>
   </g>
   <g id="matplotlib.axis_1">
    <g id="xtick_1">
     <g id="line2d_1">
      <path d="M 137.229545 331.64 
L 137.229545 23.76 
" clip-path="url(#p502ac84490)" style="fill: none; stroke-dasharray: 5.12,1.28,0.8,1.28; stroke-dashoffset: 0; stroke: #b0b0b0; stroke-width: 0.8"/>
     </g>
     <g id="line2d_2">
      <defs>
       <path id="mb39c32fe37" d="M 0 0 
L 0 3.5 
" style="stroke: #000000; stroke-width: 0.8"/>
      </defs>
      <g>
       <use xlink:href="#mb39c32fe37" x="137.229545" y="331.64" style="stroke: #000000; stroke-width: 0.8"/>
      </g>
     </g>
     <g id="text_1">
      <!-- 0 -->
      <g transform="translate(130.230795 355.356563)scale(0.22 -0.22)">
       <defs>
        <path id="DejaVuSans-30" d="M 2034 4250 
Q 1547 4250 1301 3770 
Q 1056 3291 1056 2328 
Q 1056 1369 1301 889 
Q 1547 409 2034 409 
Q 2525 409 2770 889 
Q 3016 1369 3016 2328 
Q 3016 3291 2770 3770 
Q 2525 4250 2034 4250 
z
M 2034 4750 
Q 2819 4750 3233 4129 
Q 3647 3509 3647 2328 
Q 3647 1150 3233 529 
Q 2819 -91 2034 -91 
Q 1250 -91 836 529 
Q 422 1150 422 2328 
Q 422 3509 836 4129 
Q 1250 4750 2034 4750 
z
" transform="scale(0.015625)"/>
       </defs>
       <use xlink:href="#DejaVuSans-30"/>
      </g>
     </g>
    </g>
    <g id="xtick_2">
     <g id="line2d_3">
      <path d="M 235.652223 331.64 
L 235.652223 23.76 
" clip-path="url(#p502ac84490)" style="fill: none; stroke-dasharray: 5.12,1.28,0.8,1.28; stroke-dashoffset: 0; stroke: #b0b0b0; stroke-width: 0.8"/>
     </g>
     <g id="line2d_4">
      <g>
       <use xlink:href="#mb39c32fe37" x="235.652223" y="331.64" style="stroke: #000000; stroke-width: 0.8"/>
      </g>
     </g>
     <g id="text_2">
      <!-- 25 -->
      <g transform="translate(221.654723 355.356563)scale(0.22 -0.22)">
       <defs>
        <path id="DejaVuSans-32" d="M 1228 531 
L 3431 531 
L 3431 0 
L 469 0 
L 469 531 
Q 828 903 1448 1529 
Q 2069 2156 2228 2338 
Q 2531 2678 2651 2914 
Q 2772 3150 2772 3378 
Q 2772 3750 2511 3984 
Q 2250 4219 1831 4219 
Q 1534 4219 1204 4116 
Q 875 4013 500 3803 
L 500 4441 
Q 881 4594 1212 4672 
Q 1544 4750 1819 4750 
Q 2544 4750 2975 4387 
Q 3406 4025 3406 3419 
Q 3406 3131 3298 2873 
Q 3191 2616 2906 2266 
Q 2828 2175 2409 1742 
Q 1991 1309 1228 531 
z
" transform="scale(0.015625)"/>
        <path id="DejaVuSans-35" d="M 691 4666 
L 3169 4666 
L 3169 4134 
L 1269 4134 
L 1269 2991 
Q 1406 3038 1543 3061 
Q 1681 3084 1819 3084 
Q 2600 3084 3056 2656 
Q 3513 2228 3513 1497 
Q 3513 744 3044 326 
Q 2575 -91 1722 -91 
Q 1428 -91 1123 -41 
Q 819 9 494 109 
L 494 744 
Q 775 591 1075 516 
Q 1375 441 1709 441 
Q 2250 441 2565 725 
Q 2881 1009 2881 1497 
Q 2881 1984 2565 2268 
Q 2250 2553 1709 2553 
Q 1456 2553 1204 2497 
Q 953 2441 691 2322 
L 691 4666 
z
" transform="scale(0.015625)"/>
       </defs>
       <use xlink:href="#DejaVuSans-32"/>
       <use xlink:href="#DejaVuSans-35" x="63.623047"/>
      </g>
     </g>
    </g>
    <g id="xtick_3">
     <g id="line2d_5">
      <path d="M 334.074901 331.64 
L 334.074901 23.76 
" clip-path="url(#p502ac84490)" style="fill: none; stroke-dasharray: 5.12,1.28,0.8,1.28; stroke-dashoffset: 0; stroke: #b0b0b0; stroke-width: 0.8"/>
     </g>
     <g id="line2d_6">
      <g>
       <use xlink:href="#mb39c32fe37" x="334.074901" y="331.64" style="stroke: #000000; stroke-width: 0.8"/>
      </g>
     </g>
     <g id="text_3">
      <!-- 50 -->
      <g transform="translate(320.077401 355.356563)scale(0.22 -0.22)">
       <use xlink:href="#DejaVuSans-35"/>
       <use xlink:href="#DejaVuSans-30" x="63.623047"/>
      </g>
     </g>
    </g>
    <g id="xtick_4">
     <g id="line2d_7">
      <path d="M 432.497579 331.64 
L 432.497579 23.76 
" clip-path="url(#p502ac84490)" style="fill: none; stroke-dasharray: 5.12,1.28,0.8,1.28; stroke-dashoffset: 0; stroke: #b0b0b0; stroke-width: 0.8"/>
     </g>
     <g id="line2d_8">
      <g>
       <use xlink:href="#mb39c32fe37" x="432.497579" y="331.64" style="stroke: #000000; stroke-width: 0.8"/>
      </g>
     </g>
     <g id="text_4">
      <!-- 75 -->
      <g transform="translate(418.500079 355.356563)scale(0.22 -0.22)">
       <defs>
        <path id="DejaVuSans-37" d="M 525 4666 
L 3525 4666 
L 3525 4397 
L 1831 0 
L 1172 0 
L 2766 4134 
L 525 4134 
L 525 4666 
z
" transform="scale(0.015625)"/>
       </defs>
       <use xlink:href="#DejaVuSans-37"/>
       <use xlink:href="#DejaVuSans-35" x="63.623047"/>
      </g>
     </g>
    </g>
    <g id="xtick_5">
     <g id="line2d_9">
      <path d="M 530.920257 331.64 
L 530.920257 23.76 
" clip-path="url(#p502ac84490)" style="fill: none; stroke-dasharray: 5.12,1.28,0.8,1.28; stroke-dashoffset: 0; stroke: #b0b0b0; stroke-width: 0.8"/>
     </g>
     <g id="line2d_10">
      <g>
       <use xlink:href="#mb39c32fe37" x="530.920257" y="331.64" style="stroke: #000000; stroke-width: 0.8"/>
      </g>
     </g>
     <g id="text_5">
      <!-- 100 -->
      <g transform="translate(509.924007 355.356563)scale(0.22 -0.22)">
       <defs>
        <path id="DejaVuSans-31" d="M 794 531 
L 1825 531 
L 1825 4091 
L 703 3866 
L 703 4441 
L 1819 4666 
L 2450 4666 
L 2450 531 
L 3481 531 
L 3481 0 
L 794 0 
L 794 531 
z
" transform="scale(0.015625)"/>
       </defs>
       <use xlink:href="#DejaVuSans-31"/>
       <use xlink:href="#DejaVuSans-30" x="63.623047"/>
       <use xlink:href="#DejaVuSans-30" x="127.246094"/>
      </g>
     </g>
    </g>
    <g id="xtick_6">
     <g id="line2d_11">
      <path d="M 629.342935 331.64 
L 629.342935 23.76 
" clip-path="url(#p502ac84490)" style="fill: none; stroke-dasharray: 5.12,1.28,0.8,1.28; stroke-dashoffset: 0; stroke: #b0b0b0; stroke-width: 0.8"/>
     </g>
     <g id="line2d_12">
      <g>
       <use xlink:href="#mb39c32fe37" x="629.342935" y="331.64" style="stroke: #000000; stroke-width: 0.8"/>
      </g>
     </g>
     <g id="text_6">
      <!-- 125 -->
      <g transform="translate(608.346685 355.356563)scale(0.22 -0.22)">
       <use xlink:href="#DejaVuSans-31"/>
       <use xlink:href="#DejaVuSans-32" x="63.623047"/>
       <use xlink:href="#DejaVuSans-35" x="127.246094"/>
      </g>
     </g>
    </g>
    <g id="xtick_7">
     <g id="line2d_13">
      <path d="M 727.765613 331.64 
L 727.765613 23.76 
" clip-path="url(#p502ac84490)" style="fill: none; stroke-dasharray: 5.12,1.28,0.8,1.28; stroke-dashoffset: 0; stroke: #b0b0b0; stroke-width: 0.8"/>
     </g>
     <g id="line2d_14">
      <g>
       <use xlink:href="#mb39c32fe37" x="727.765613" y="331.64" style="stroke: #000000; stroke-width: 0.8"/>
      </g>
     </g>
     <g id="text_7">
      <!-- 150 -->
      <g transform="translate(706.769363 355.356563)scale(0.22 -0.22)">
       <use xlink:href="#DejaVuSans-31"/>
       <use xlink:href="#DejaVuSans-35" x="63.623047"/>
       <use xlink:href="#DejaVuSans-30" x="127.246094"/>
      </g>
     </g>
    </g>
    <g id="xtick_8">
     <g id="line2d_15">
      <path d="M 826.188291 331.64 
L 826.188291 23.76 
" clip-path="url(#p502ac84490)" style="fill: none; stroke-dasharray: 5.12,1.28,0.8,1.28; stroke-dashoffset: 0; stroke: #b0b0b0; stroke-width: 0.8"/>
     </g>
     <g id="line2d_16">
      <g>
       <use xlink:href="#mb39c32fe37" x="826.188291" y="331.64" style="stroke: #000000; stroke-width: 0.8"/>
      </g>
     </g>
     <g id="text_8">
      <!-- 175 -->
      <g transform="translate(805.192041 355.356563)scale(0.22 -0.22)">
       <use xlink:href="#DejaVuSans-31"/>
       <use xlink:href="#DejaVuSans-37" x="63.623047"/>
       <use xlink:href="#DejaVuSans-35" x="127.246094"/>
      </g>
     </g>
    </g>
    <g id="text_9">
     <!-- Time (s) -->
     <g transform="translate(450.635625 382.168125)scale(0.24 -0.24)">
      <defs>
       <path id="DejaVuSans-54" d="M -19 4666 
L 3928 4666 
L 3928 4134 
L 2272 4134 
L 2272 0 
L 1638 0 
L 1638 4134 
L -19 4134 
L -19 4666 
z
" transform="scale(0.015625)"/>
       <path id="DejaVuSans-69" d="M 603 3500 
L 1178 3500 
L 1178 0 
L 603 0 
L 603 3500 
z
M 603 4863 
L 1178 4863 
L 1178 4134 
L 603 4134 
L 603 4863 
z
" transform="scale(0.015625)"/>
       <path id="DejaVuSans-6d" d="M 3328 2828 
Q 3544 3216 3844 3400 
Q 4144 3584 4550 3584 
Q 5097 3584 5394 3201 
Q 5691 2819 5691 2113 
L 5691 0 
L 5113 0 
L 5113 2094 
Q 5113 2597 4934 2840 
Q 4756 3084 4391 3084 
Q 3944 3084 3684 2787 
Q 3425 2491 3425 1978 
L 3425 0 
L 2847 0 
L 2847 2094 
Q 2847 2600 2669 2842 
Q 2491 3084 2119 3084 
Q 1678 3084 1418 2786 
Q 1159 2488 1159 1978 
L 1159 0 
L 581 0 
L 581 3500 
L 1159 3500 
L 1159 2956 
Q 1356 3278 1631 3431 
Q 1906 3584 2284 3584 
Q 2666 3584 2933 3390 
Q 3200 3197 3328 2828 
z
" transform="scale(0.015625)"/>
       <path id="DejaVuSans-65" d="M 3597 1894 
L 3597 1613 
L 953 1613 
Q 991 1019 1311 708 
Q 1631 397 2203 397 
Q 2534 397 2845 478 
Q 3156 559 3463 722 
L 3463 178 
Q 3153 47 2828 -22 
Q 2503 -91 2169 -91 
Q 1331 -91 842 396 
Q 353 884 353 1716 
Q 353 2575 817 3079 
Q 1281 3584 2069 3584 
Q 2775 3584 3186 3129 
Q 3597 2675 3597 1894 
z
M 3022 2063 
Q 3016 2534 2758 2815 
Q 2500 3097 2075 3097 
Q 1594 3097 1305 2825 
Q 1016 2553 972 2059 
L 3022 2063 
z
" transform="scale(0.015625)"/>
       <path id="DejaVuSans-20" transform="scale(0.015625)"/>
       <path id="DejaVuSans-28" d="M 1984 4856 
Q 1566 4138 1362 3434 
Q 1159 2731 1159 2009 
Q 1159 1288 1364 580 
Q 1569 -128 1984 -844 
L 1484 -844 
Q 1016 -109 783 600 
Q 550 1309 550 2009 
Q 550 2706 781 3412 
Q 1013 4119 1484 4856 
L 1984 4856 
z
" transform="scale(0.015625)"/>
       <path id="DejaVuSans-73" d="M 2834 3397 
L 2834 2853 
Q 2591 2978 2328 3040 
Q 2066 3103 1784 3103 
Q 1356 3103 1142 2972 
Q 928 2841 928 2578 
Q 928 2378 1081 2264 
Q 1234 2150 1697 2047 
L 1894 2003 
Q 2506 1872 2764 1633 
Q 3022 1394 3022 966 
Q 3022 478 2636 193 
Q 2250 -91 1575 -91 
Q 1294 -91 989 -36 
Q 684 19 347 128 
L 347 722 
Q 666 556 975 473 
Q 1284 391 1588 391 
Q 1994 391 2212 530 
Q 2431 669 2431 922 
Q 2431 1156 2273 1281 
Q 2116 1406 1581 1522 
L 1381 1569 
Q 847 1681 609 1914 
Q 372 2147 372 2553 
Q 372 3047 722 3315 
Q 1072 3584 1716 3584 
Q 2034 3584 2315 3537 
Q 2597 3491 2834 3397 
z
" transform="scale(0.015625)"/>
       <path id="DejaVuSans-29" d="M 513 4856 
L 1013 4856 
Q 1481 4119 1714 3412 
Q 1947 2706 1947 2009 
Q 1947 1309 1714 600 
Q 1481 -109 1013 -844 
L 513 -844 
Q 928 -128 1133 580 
Q 1338 1288 1338 2009 
Q 1338 2731 1133 3434 
Q 928 4138 513 4856 
z
" transform="scale(0.015625)"/>
      </defs>
      <use xlink:href="#DejaVuSans-54"/>
      <use xlink:href="#DejaVuSans-69" x="57.958984"/>
      <use xlink:href="#DejaVuSans-6d" x="85.742188"/>
      <use xlink:href="#DejaVuSans-65" x="183.154297"/>
      <use xlink:href="#DejaVuSans-20" x="244.677734"/>
      <use xlink:href="#DejaVuSans-28" x="276.464844"/>
      <use xlink:href="#DejaVuSans-73" x="315.478516"/>
      <use xlink:href="#DejaVuSans-29" x="367.578125"/>
     </g>
    </g>
   </g>
   <g id="matplotlib.axis_2">
    <g id="ytick_1">
     <g id="line2d_17">
      <path d="M 101.01 331.64 
L 897.84 331.64 
" clip-path="url(#p502ac84490)" style="fill: none; stroke-dasharray: 5.12,1.28,0.8,1.28; stroke-dashoffset: 0; stroke: #b0b0b0; stroke-width: 0.8"/>
     </g>
     <g id="line2d_18">
      <defs>
       <path id="mccd76c40f8" d="M 0 0 
L -3.5 0 
" style="stroke: #000000; stroke-width: 0.8"/>
      </defs>
      <g>
       <use xlink:href="#mccd76c40f8" x="101.01" y="331.64" style="stroke: #000000; stroke-width: 0.8"/>
      </g>
     </g>
     <g id="text_10">
      <!-- 0 -->
      <g transform="translate(80.0125 339.998281)scale(0.22 -0.22)">
       <use xlink:href="#DejaVuSans-30"/>
      </g>
     </g>
    </g>
    <g id="ytick_2">
     <g id="line2d_19">
      <path d="M 101.01 243.33142 
L 897.84 243.33142 
" clip-path="url(#p502ac84490)" style="fill: none; stroke-dasharray: 5.12,1.28,0.8,1.28; stroke-dashoffset: 0; stroke: #b0b0b0; stroke-width: 0.8"/>
     </g>
     <g id="line2d_20">
      <g>
       <use xlink:href="#mccd76c40f8" x="101.01" y="243.33142" style="stroke: #000000; stroke-width: 0.8"/>
      </g>
     </g>
     <g id="text_11">
      <!-- 50 -->
      <g transform="translate(66.015 251.689701)scale(0.22 -0.22)">
       <use xlink:href="#DejaVuSans-35"/>
       <use xlink:href="#DejaVuSans-30" x="63.623047"/>
      </g>
     </g>
    </g>
    <g id="ytick_3">
     <g id="line2d_21">
      <path d="M 101.01 155.022839 
L 897.84 155.022839 
" clip-path="url(#p502ac84490)" style="fill: none; stroke-dasharray: 5.12,1.28,0.8,1.28; stroke-dashoffset: 0; stroke: #b0b0b0; stroke-width: 0.8"/>
     </g>
     <g id="line2d_22">
      <g>
       <use xlink:href="#mccd76c40f8" x="101.01" y="155.022839" style="stroke: #000000; stroke-width: 0.8"/>
      </g>
     </g>
     <g id="text_12">
      <!-- 100 -->
      <g transform="translate(52.0175 163.38112)scale(0.22 -0.22)">
       <use xlink:href="#DejaVuSans-31"/>
       <use xlink:href="#DejaVuSans-30" x="63.623047"/>
       <use xlink:href="#DejaVuSans-30" x="127.246094"/>
      </g>
     </g>
    </g>
    <g id="ytick_4">
     <g id="line2d_23">
      <path d="M 101.01 66.714259 
L 897.84 66.714259 
" clip-path="url(#p502ac84490)" style="fill: none; stroke-dasharray: 5.12,1.28,0.8,1.28; stroke-dashoffset: 0; stroke: #b0b0b0; stroke-width: 0.8"/>
     </g>
     <g id="line2d_24">
      <g>
       <use xlink:href="#mccd76c40f8" x="101.01" y="66.714259" style="stroke: #000000; stroke-width: 0.8"/>
      </g>
     </g>
     <g id="text_13">
      <!-- 150 -->
      <g transform="translate(52.0175 75.07254)scale(0.22 -0.22)">
       <use xlink:href="#DejaVuSans-31"/>
       <use xlink:href="#DejaVuSans-35" x="63.623047"/>
       <use xlink:href="#DejaVuSans-30" x="127.246094"/>
      </g>
     </g>
    </g>
    <g id="text_14">
     <!-- Throughput (Mbps) -->
     <g transform="translate(43.02625 292.414375)rotate(-90)scale(0.24 -0.24)">
      <defs>
       <path id="DejaVuSans-68" d="M 3513 2113 
L 3513 0 
L 2938 0 
L 2938 2094 
Q 2938 2591 2744 2837 
Q 2550 3084 2163 3084 
Q 1697 3084 1428 2787 
Q 1159 2491 1159 1978 
L 1159 0 
L 581 0 
L 581 4863 
L 1159 4863 
L 1159 2956 
Q 1366 3272 1645 3428 
Q 1925 3584 2291 3584 
Q 2894 3584 3203 3211 
Q 3513 2838 3513 2113 
z
" transform="scale(0.015625)"/>
       <path id="DejaVuSans-72" d="M 2631 2963 
Q 2534 3019 2420 3045 
Q 2306 3072 2169 3072 
Q 1681 3072 1420 2755 
Q 1159 2438 1159 1844 
L 1159 0 
L 581 0 
L 581 3500 
L 1159 3500 
L 1159 2956 
Q 1341 3275 1631 3429 
Q 1922 3584 2338 3584 
Q 2397 3584 2469 3576 
Q 2541 3569 2628 3553 
L 2631 2963 
z
" transform="scale(0.015625)"/>
       <path id="DejaVuSans-6f" d="M 1959 3097 
Q 1497 3097 1228 2736 
Q 959 2375 959 1747 
Q 959 1119 1226 758 
Q 1494 397 1959 397 
Q 2419 397 2687 759 
Q 2956 1122 2956 1747 
Q 2956 2369 2687 2733 
Q 2419 3097 1959 3097 
z
M 1959 3584 
Q 2709 3584 3137 3096 
Q 3566 2609 3566 1747 
Q 3566 888 3137 398 
Q 2709 -91 1959 -91 
Q 1206 -91 779 398 
Q 353 888 353 1747 
Q 353 2609 779 3096 
Q 1206 3584 1959 3584 
z
" transform="scale(0.015625)"/>
       <path id="DejaVuSans-75" d="M 544 1381 
L 544 3500 
L 1119 3500 
L 1119 1403 
Q 1119 906 1312 657 
Q 1506 409 1894 409 
Q 2359 409 2629 706 
Q 2900 1003 2900 1516 
L 2900 3500 
L 3475 3500 
L 3475 0 
L 2900 0 
L 2900 538 
Q 2691 219 2414 64 
Q 2138 -91 1772 -91 
Q 1169 -91 856 284 
Q 544 659 544 1381 
z
M 1991 3584 
L 1991 3584 
z
" transform="scale(0.015625)"/>
       <path id="DejaVuSans-67" d="M 2906 1791 
Q 2906 2416 2648 2759 
Q 2391 3103 1925 3103 
Q 1463 3103 1205 2759 
Q 947 2416 947 1791 
Q 947 1169 1205 825 
Q 1463 481 1925 481 
Q 2391 481 2648 825 
Q 2906 1169 2906 1791 
z
M 3481 434 
Q 3481 -459 3084 -895 
Q 2688 -1331 1869 -1331 
Q 1566 -1331 1297 -1286 
Q 1028 -1241 775 -1147 
L 775 -588 
Q 1028 -725 1275 -790 
Q 1522 -856 1778 -856 
Q 2344 -856 2625 -561 
Q 2906 -266 2906 331 
L 2906 616 
Q 2728 306 2450 153 
Q 2172 0 1784 0 
Q 1141 0 747 490 
Q 353 981 353 1791 
Q 353 2603 747 3093 
Q 1141 3584 1784 3584 
Q 2172 3584 2450 3431 
Q 2728 3278 2906 2969 
L 2906 3500 
L 3481 3500 
L 3481 434 
z
" transform="scale(0.015625)"/>
       <path id="DejaVuSans-70" d="M 1159 525 
L 1159 -1331 
L 581 -1331 
L 581 3500 
L 1159 3500 
L 1159 2969 
Q 1341 3281 1617 3432 
Q 1894 3584 2278 3584 
Q 2916 3584 3314 3078 
Q 3713 2572 3713 1747 
Q 3713 922 3314 415 
Q 2916 -91 2278 -91 
Q 1894 -91 1617 61 
Q 1341 213 1159 525 
z
M 3116 1747 
Q 3116 2381 2855 2742 
Q 2594 3103 2138 3103 
Q 1681 3103 1420 2742 
Q 1159 2381 1159 1747 
Q 1159 1113 1420 752 
Q 1681 391 2138 391 
Q 2594 391 2855 752 
Q 3116 1113 3116 1747 
z
" transform="scale(0.015625)"/>
       <path id="DejaVuSans-74" d="M 1172 4494 
L 1172 3500 
L 2356 3500 
L 2356 3053 
L 1172 3053 
L 1172 1153 
Q 1172 725 1289 603 
Q 1406 481 1766 481 
L 2356 481 
L 2356 0 
L 1766 0 
Q 1100 0 847 248 
Q 594 497 594 1153 
L 594 3053 
L 172 3053 
L 172 3500 
L 594 3500 
L 594 4494 
L 1172 4494 
z
" transform="scale(0.015625)"/>
       <path id="DejaVuSans-4d" d="M 628 4666 
L 1569 4666 
L 2759 1491 
L 3956 4666 
L 4897 4666 
L 4897 0 
L 4281 0 
L 4281 4097 
L 3078 897 
L 2444 897 
L 1241 4097 
L 1241 0 
L 628 0 
L 628 4666 
z
" transform="scale(0.015625)"/>
       <path id="DejaVuSans-62" d="M 3116 1747 
Q 3116 2381 2855 2742 
Q 2594 3103 2138 3103 
Q 1681 3103 1420 2742 
Q 1159 2381 1159 1747 
Q 1159 1113 1420 752 
Q 1681 391 2138 391 
Q 2594 391 2855 752 
Q 3116 1113 3116 1747 
z
M 1159 2969 
Q 1341 3281 1617 3432 
Q 1894 3584 2278 3584 
Q 2916 3584 3314 3078 
Q 3713 2572 3713 1747 
Q 3713 922 3314 415 
Q 2916 -91 2278 -91 
Q 1894 -91 1617 61 
Q 1341 213 1159 525 
L 1159 0 
L 581 0 
L 581 4863 
L 1159 4863 
L 1159 2969 
z
" transform="scale(0.015625)"/>
      </defs>
      <use xlink:href="#DejaVuSans-54"/>
      <use xlink:href="#DejaVuSans-68" x="61.083984"/>
      <use xlink:href="#DejaVuSans-72" x="124.462891"/>
      <use xlink:href="#DejaVuSans-6f" x="163.326172"/>
      <use xlink:href="#DejaVuSans-75" x="224.507812"/>
      <use xlink:href="#DejaVuSans-67" x="287.886719"/>
      <use xlink:href="#DejaVuSans-68" x="351.363281"/>
      <use xlink:href="#DejaVuSans-70" x="414.742188"/>
      <use xlink:href="#DejaVuSans-75" x="478.21875"/>
      <use xlink:href="#DejaVuSans-74" x="541.597656"/>
      <use xlink:href="#DejaVuSans-20" x="580.806641"/>
      <use xlink:href="#DejaVuSans-28" x="612.59375"/>
      <use xlink:href="#DejaVuSans-4d" x="651.607422"/>
      <use xlink:href="#DejaVuSans-62" x="737.886719"/>
      <use xlink:href="#DejaVuSans-70" x="801.363281"/>
      <use xlink:href="#DejaVuSans-73" x="864.839844"/>
      <use xlink:href="#DejaVuSans-29" x="916.939453"/>
     </g>
    </g>
   </g>
   <g id="patch_3">
    <path d="M 101.01 331.64 
L 101.01 23.76 
" style="fill: none; stroke: #000000; stroke-width: 0.8; stroke-linejoin: miter; stroke-linecap: square"/>
   </g>
   <g id="patch_4">
    <path d="M 897.84 331.64 
L 897.84 23.76 
" style="fill: none; stroke: #000000; stroke-width: 0.8; stroke-linejoin: miter; stroke-linecap: square"/>
   </g>
   <g id="patch_5">
    <path d="M 101.01 331.64 
L 897.84 331.64 
" style="fill: none; stroke: #000000; stroke-width: 0.8; stroke-linejoin: miter; stroke-linecap: square"/>
   </g>
   <g id="patch_6">
    <path d="M 101.01 23.76 
L 897.84 23.76 
" style="fill: none; stroke: #000000; stroke-width: 0.8; stroke-linejoin: miter; stroke-linecap: square"/>
   </g>
   <g id="legend_1">
    <g id="patch_7">
     <path d="M 756.24 148.6425 
L 881.04 148.6425 
Q 885.84 148.6425 885.84 143.8425 
L 885.84 40.56 
Q 885.84 35.76 881.04 35.76 
L 756.24 35.76 
Q 751.44 35.76 751.44 40.56 
L 751.44 143.8425 
Q 751.44 148.6425 756.24 148.6425 
z
" style="fill: #ffffff; opacity: 0.8; stroke: #cccccc; stroke-linejoin: miter"/>
    </g>
    <g id="patch_8">
     <path d="M 761.04 63.59625 
L 809.04 63.59625 
L 809.04 46.79625 
L 761.04 46.79625 
z
" style="fill: #1f77b4"/>
    </g>
    <g id="text_15">
     <!-- UE1 -->
     <g transform="translate(828.24 63.59625)scale(0.24 -0.24)">
      <defs>
       <path id="DejaVuSans-55" d="M 556 4666 
L 1191 4666 
L 1191 1831 
Q 1191 1081 1462 751 
Q 1734 422 2344 422 
Q 2950 422 3222 751 
Q 3494 1081 3494 1831 
L 3494 4666 
L 4128 4666 
L 4128 1753 
Q 4128 841 3676 375 
Q 3225 -91 2344 -91 
Q 1459 -91 1007 375 
Q 556 841 556 1753 
L 556 4666 
z
" transform="scale(0.015625)"/>
       <path id="DejaVuSans-45" d="M 628 4666 
L 3578 4666 
L 3578 4134 
L 1259 4134 
L 1259 2753 
L 3481 2753 
L 3481 2222 
L 1259 2222 
L 1259 531 
L 3634 531 
L 3634 0 
L 628 0 
L 628 4666 
z
" transform="scale(0.015625)"/>
      </defs>
      <use xlink:href="#DejaVuSans-55"/>
      <use xlink:href="#DejaVuSans-45" x="73.193359"/>
      <use xlink:href="#DejaVuSans-31" x="136.376953"/>
     </g>
    </g>
    <g id="patch_9">
     <path d="M 761.04 98.82375 
L 809.04 98.82375 
L 809.04 82.02375 
L 761.04 82.02375 
z
" style="fill: #ff7f0e"/>
    </g>
    <g id="text_16">
     <!-- UE2 -->
     <g transform="translate(828.24 98.82375)scale(0.24 -0.24)">
      <use xlink:href="#DejaVuSans-55"/>
      <use xlink:href="#DejaVuSans-45" x="73.193359"/>
      <use xlink:href="#DejaVuSans-32" x="136.376953"/>
     </g>
    </g>
    <g id="patch_10">
     <path d="M 761.04 134.05125 
L 809.04 134.05125 
L 809.04 117.25125 
L 761.04 117.25125 
z
" style="fill: #2ca02c"/>
    </g>
    <g id="text_17">
     <!-- UE3 -->
     <g transform="translate(828.24 134.05125)scale(0.24 -0.24)">
      <defs>
       <path id="DejaVuSans-33" d="M 2597 2516 
Q 3050 2419 3304 2112 
Q 3559 1806 3559 1356 
Q 3559 666 3084 287 
Q 2609 -91 1734 -91 
Q 1441 -91 1130 -33 
Q 819 25 488 141 
L 488 750 
Q 750 597 1062 519 
Q 1375 441 1716 441 
Q 2309 441 2620 675 
Q 2931 909 2931 1356 
Q 2931 1769 2642 2001 
Q 2353 2234 1838 2234 
L 1294 2234 
L 1294 2753 
L 1863 2753 
Q 2328 2753 2575 2939 
Q 2822 3125 2822 3475 
Q 2822 3834 2567 4026 
Q 2313 4219 1838 4219 
Q 1578 4219 1281 4162 
Q 984 4106 628 3988 
L 628 4550 
Q 988 4650 1302 4700 
Q 1616 4750 1894 4750 
Q 2613 4750 3031 4423 
Q 3450 4097 3450 3541 
Q 3450 3153 3228 2886 
Q 3006 2619 2597 2516 
z
" transform="scale(0.015625)"/>
      </defs>
      <use xlink:href="#DejaVuSans-55"/>
      <use xlink:href="#DejaVuSans-45" x="73.193359"/>
      <use xlink:href="#DejaVuSans-33" x="136.376953"/>
     </g>
    </g>
   </g>
  </g>
 </g>
 <defs>
  <clipPath id="p502ac84490">
   <rect x="101.01" y="23.76" width="796.83" height="307.88"/>
  </clipPath>
 </defs>
</svg>
