<?xml version="1.0" encoding="utf-8" standalone="no"?>
<!DOCTYPE svg PUBLIC "-//W3C//DTD SVG 1.1//EN"
  "http://www.w3.org/Graphics/SVG/1.1/DTD/svg11.dtd">
<svg xmlns:xlink="http://www.w3.org/1999/xlink" width="921.6pt" height="410.4pt" viewBox="0 0 921.6 410.4" xmlns="http://www.w3.org/2000/svg" version="1.1">
 <metadata>
  <rdf:RDF xmlns:dc="http://purl.org/dc/elements/1.1/" xmlns:cc="http://creativecommons.org/ns#" xmlns:rdf="http://www.w3.org/1999/02/22-rdf-syntax-ns#">
   <cc:Work>
    <dc:type rdf:resource="http://purl.org/dc/dcmitype/StillImage"/>
    <dc:date>2023-04-11T15:20:48.964243</dc:date>
    <dc:format>image/svg+xml</dc:format>
    <dc:creator>
     <cc:Agent>
      <dc:title>Matplotlib v3.5.3, https://matplotlib.org/</dc:title>
     </cc:Agent>
    </dc:creator>
   </cc:Work>
  </rdf:RDF>
 </metadata>
 <defs>
  <style type="text/css">*{stroke-linejoin: round; stroke-linecap: butt}</style>
 </defs>
 <g id="figure_1">
  <g id="patch_1">
   <path d="M 0 410.4 
L 921.6 410.4 
L 921.6 0 
L 0 0 
L 0 410.4 
z
" style="fill: none"/>
  </g>
  <g id="axes_1">
   <g id="patch_2">
    <path d="M 101.01 331.64 
L 897.84 331.64 
L 897.84 23.76 
L 101.01 23.76 
z
" style="fill: #ffffff"/>
   </g>
   <g id="PolyCollection_1">
    <path d="M 137.229545 186.737903 
L 137.229545 331.64 
L 141.231705 331.64 
L 145.233865 331.64 
L 149.236025 331.64 
L 153.238184 331.64 
L 157.240344 331.64 
L 161.242504 331.64 
L 165.244663 331.64 
L 169.246823 331.64 
L 173.248983 331.64 
L 177.251143 331.64 
L 181.253302 331.64 
L 185.255462 331.64 
L 189.257622 331.64 
L 193.259782 331.64 
L 197.261941 331.64 
L 201.264101 331.64 
L 205.266261 331.64 
L 209.26842 331.64 
L 213.27058 331.64 
L 217.27274 331.64 
L 221.2749 331.64 
L 225.277059 331.64 
L 229.279219 331.64 
L 233.281379 331.64 
L 237.283538 331.64 
L 241.285698 331.64 
L 245.287858 331.64 
L 249.290018 331.64 
L 253.292177 331.64 
L 257.294337 331.64 
L 261.296497 331.64 
L 265.298656 331.64 
L 269.300816 331.64 
L 273.302976 331.64 
L 277.305136 331.64 
L 281.307295 331.64 
L 285.309455 331.64 
L 289.311615 331.64 
L 293.313774 331.64 
L 297.315934 331.64 
L 301.318094 331.64 
L 305.320254 331.64 
L 309.322413 331.64 
L 313.324573 331.64 
L 317.326733 331.64 
L 321.328893 331.64 
L 325.331052 331.64 
L 329.333212 331.64 
L 333.335372 331.64 
L 337.337531 331.64 
L 341.339691 331.64 
L 345.341851 331.64 
L 349.344011 331.64 
L 353.34617 331.64 
L 357.34833 331.64 
L 361.35049 331.64 
L 365.352649 331.64 
L 369.354809 331.64 
L 373.356969 331.64 
L 377.359129 331.64 
L 381.361288 331.64 
L 385.363448 331.64 
L 389.365608 331.64 
L 393.367767 331.64 
L 397.369927 331.64 
L 401.372087 331.64 
L 405.374247 331.64 
L 409.376406 331.64 
L 413.378566 331.64 
L 417.380726 331.64 
L 421.382885 331.64 
L 425.385045 331.64 
L 429.387205 331.64 
L 433.389365 331.64 
L 437.391524 331.64 
L 441.393684 331.64 
L 445.395844 331.64 
L 449.398004 331.64 
L 453.400163 331.64 
L 457.402323 331.64 
L 461.404483 331.64 
L 465.406642 331.64 
L 469.408802 331.64 
L 473.410962 331.64 
L 477.413122 331.64 
L 481.415281 331.64 
L 485.417441 331.64 
L 489.419601 331.64 
L 493.42176 331.64 
L 497.42392 331.64 
L 501.42608 331.64 
L 505.42824 331.64 
L 509.430399 331.64 
L 513.432559 331.64 
L 517.434719 331.64 
L 521.436878 331.64 
L 525.439038 331.64 
L 529.441198 331.64 
L 533.443358 331.64 
L 537.445517 331.64 
L 541.447677 331.64 
L 545.449837 331.64 
L 549.451996 331.64 
L 553.454156 331.64 
L 557.456316 331.64 
L 561.458476 331.64 
L 565.460635 331.64 
L 569.462795 331.64 
L 573.464955 331.64 
L 577.467115 331.64 
L 581.469274 331.64 
L 585.471434 331.64 
L 589.473594 331.64 
L 593.475753 331.64 
L 597.477913 331.64 
L 601.480073 331.64 
L 605.482233 331.64 
L 609.484392 331.64 
L 613.486552 331.64 
L 617.488712 331.64 
L 621.490871 331.64 
L 625.493031 331.64 
L 629.495191 331.64 
L 633.497351 331.64 
L 637.49951 331.64 
L 641.50167 331.64 
L 645.50383 331.64 
L 649.505989 331.64 
L 653.508149 331.64 
L 657.510309 331.64 
L 661.512469 331.64 
L 665.514628 331.64 
L 669.516788 331.64 
L 673.518948 331.64 
L 677.521107 331.64 
L 681.523267 331.64 
L 685.525427 331.64 
L 689.527587 331.64 
L 693.529746 331.64 
L 697.531906 331.64 
L 701.534066 331.64 
L 705.536226 331.64 
L 709.538385 331.64 
L 713.540545 331.64 
L 717.542705 331.64 
L 721.544864 331.64 
L 725.547024 331.64 
L 729.549184 331.64 
L 733.551344 331.64 
L 737.553503 331.64 
L 741.555663 331.64 
L 745.557823 331.64 
L 749.559982 331.64 
L 753.562142 331.64 
L 757.564302 331.64 
L 761.566462 331.64 
L 765.568621 331.64 
L 769.570781 331.64 
L 773.572941 331.64 
L 777.5751 331.64 
L 781.57726 331.64 
L 785.57942 331.64 
L 789.58158 331.64 
L 793.583739 331.64 
L 797.585899 331.64 
L 801.588059 331.64 
L 805.590218 331.64 
L 809.592378 331.64 
L 813.594538 331.64 
L 817.596698 331.64 
L 821.598857 331.64 
L 825.601017 331.64 
L 829.603177 331.64 
L 833.605337 331.64 
L 837.607496 331.64 
L 841.609656 331.64 
L 845.611816 331.64 
L 849.613975 331.64 
L 853.616135 331.64 
L 857.618295 331.64 
L 861.620455 331.64 
L 861.620455 186.011901 
L 861.620455 186.011901 
L 857.618295 185.62993 
L 853.616135 186.240587 
L 849.613975 186.48262 
L 845.611816 185.669201 
L 841.609656 185.623789 
L 837.607496 185.835917 
L 833.605337 186.21507 
L 829.603177 186.148964 
L 825.601017 186.206251 
L 821.598857 186.090793 
L 817.596698 185.842156 
L 813.594538 186.1697 
L 809.592378 185.81542 
L 805.590218 185.139737 
L 801.588059 185.817551 
L 797.585899 185.649531 
L 793.583739 185.901 
L 789.58158 185.893485 
L 785.57942 185.757319 
L 781.57726 185.868248 
L 777.5751 186.135504 
L 773.572941 186.155021 
L 769.570781 186.081133 
L 765.568621 186.07296 
L 761.566462 184.751373 
L 757.564302 186.124821 
L 753.562142 185.612545 
L 749.559982 186.181828 
L 745.557823 185.328044 
L 741.555663 185.837025 
L 737.553503 185.612377 
L 733.551344 185.621336 
L 729.549184 185.237206 
L 725.547024 186.242522 
L 721.544864 185.816822 
L 717.542705 185.636169 
L 713.540545 186.575084 
L 709.538385 186.035259 
L 705.536226 185.756352 
L 701.534066 186.416276 
L 697.531906 185.660831 
L 693.529746 186.929813 
L 689.527587 186.754909 
L 685.525427 186.166686 
L 681.523267 186.042437 
L 677.521107 185.389327 
L 673.518948 185.505738 
L 669.516788 186.227632 
L 665.514628 186.764135 
L 661.512469 185.519015 
L 657.510309 185.411311 
L 653.508149 185.17396 
L 649.505989 185.321917 
L 645.50383 186.184211 
L 641.50167 186.006826 
L 637.49951 186.753157 
L 633.497351 185.662668 
L 629.495191 186.896936 
L 625.493031 186.631124 
L 621.490871 186.510324 
L 617.488712 186.183496 
L 613.486552 186.628109 
L 609.484392 186.077138 
L 605.482233 187.435037 
L 601.480073 186.745193 
L 597.477913 186.007681 
L 593.475753 186.422879 
L 589.473594 185.862009 
L 585.471434 185.861897 
L 581.469274 185.627855 
L 577.467115 185.711234 
L 573.464955 185.331353 
L 569.462795 186.263833 
L 565.460635 186.655884 
L 561.458476 185.867547 
L 557.456316 186.387408 
L 553.454156 186.148277 
L 549.451996 186.774398 
L 545.449837 186.286532 
L 541.447677 185.779401 
L 537.445517 186.540594 
L 533.443358 185.349804 
L 529.441198 186.282858 
L 525.439038 185.478118 
L 521.436878 186.467282 
L 517.434719 185.530049 
L 513.432559 185.59094 
L 509.430399 185.320908 
L 505.42824 185.792805 
L 501.42608 186.105991 
L 497.42392 185.965886 
L 493.42176 186.511418 
L 489.419601 186.566238 
L 485.417441 185.522941 
L 481.415281 185.715525 
L 477.413122 186.211214 
L 473.410962 186.354544 
L 469.408802 186.307506 
L 465.406642 186.753129 
L 461.404483 185.904126 
L 457.402323 186.068249 
L 453.400163 186.893795 
L 449.398004 186.219108 
L 445.395844 185.747729 
L 441.393684 185.465556 
L 437.391524 185.826398 
L 433.389365 185.579653 
L 429.387205 185.389145 
L 425.385045 185.918609 
L 421.382885 185.875146 
L 417.380726 186.122031 
L 413.378566 185.517571 
L 409.376406 186.344099 
L 405.374247 186.308095 
L 401.372087 185.305289 
L 397.369927 186.590984 
L 393.367767 185.642969 
L 389.365608 185.880432 
L 385.363448 185.694494 
L 381.361288 185.984337 
L 377.359129 185.467463 
L 373.356969 186.142557 
L 369.354809 186.080881 
L 365.352649 185.648676 
L 361.35049 185.48231 
L 357.34833 185.560894 
L 353.34617 186.498926 
L 349.344011 185.568479 
L 345.341851 184.841482 
L 341.339691 185.799436 
L 337.337531 185.47272 
L 333.335372 186.198904 
L 329.333212 185.774452 
L 325.331052 185.221279 
L 321.328893 185.201048 
L 317.326733 186.00168 
L 313.324573 184.84559 
L 309.322413 186.467002 
L 305.320254 185.766937 
L 301.318094 185.631431 
L 297.315934 185.877179 
L 293.313774 185.945627 
L 289.311615 186.156815 
L 285.309455 186.31833 
L 281.307295 185.602254 
L 277.305136 185.282899 
L 273.302976 185.590505 
L 269.300816 186.074249 
L 265.298656 185.801161 
L 261.296497 185.543172 
L 257.294337 184.904251 
L 253.292177 185.490161 
L 249.290018 186.173289 
L 245.287858 185.739219 
L 241.285698 186.00154 
L 237.283538 185.287637 
L 233.281379 186.188838 
L 229.279219 185.952637 
L 225.277059 184.700227 
L 221.2749 185.894144 
L 217.27274 184.965352 
L 213.27058 186.319045 
L 209.26842 185.655896 
L 205.266261 186.045466 
L 201.264101 186.183818 
L 197.261941 185.485563 
L 193.259782 185.780747 
L 189.257622 187.255254 
L 185.255462 186.387338 
L 181.253302 185.829538 
L 177.251143 185.865641 
L 173.248983 186.509595 
L 169.246823 186.220243 
L 165.244663 186.001974 
L 161.242504 186.041876 
L 157.240344 185.998119 
L 153.238184 186.102753 
L 149.236025 185.870898 
L 145.233865 186.133724 
L 141.231705 185.58264 
L 137.229545 186.737903 
z
" clip-path="url(#peaeb672d6f)" style="fill: #1f77b4"/>
   </g>
   <g id="PolyCollection_2">
    <path d="M 137.229545 42.675723 
L 137.229545 186.737903 
L 141.231705 185.58264 
L 145.233865 186.133724 
L 149.236025 185.870898 
L 153.238184 186.102753 
L 157.240344 185.998119 
L 161.242504 186.041876 
L 165.244663 186.001974 
L 169.246823 186.220243 
L 173.248983 186.509595 
L 177.251143 185.865641 
L 181.253302 185.829538 
L 185.255462 186.387338 
L 189.257622 187.255254 
L 193.259782 185.780747 
L 197.261941 185.485563 
L 201.264101 186.183818 
L 205.266261 186.045466 
L 209.26842 185.655896 
L 213.27058 186.319045 
L 217.27274 184.965352 
L 221.2749 185.894144 
L 225.277059 184.700227 
L 229.279219 185.952637 
L 233.281379 186.188838 
L 237.283538 185.287637 
L 241.285698 186.00154 
L 245.287858 185.739219 
L 249.290018 186.173289 
L 253.292177 185.490161 
L 257.294337 184.904251 
L 261.296497 185.543172 
L 265.298656 185.801161 
L 269.300816 186.074249 
L 273.302976 185.590505 
L 277.305136 185.282899 
L 281.307295 185.602254 
L 285.309455 186.31833 
L 289.311615 186.156815 
L 293.313774 185.945627 
L 297.315934 185.877179 
L 301.318094 185.631431 
L 305.320254 185.766937 
L 309.322413 186.467002 
L 313.324573 184.84559 
L 317.326733 186.00168 
L 321.328893 185.201048 
L 325.331052 185.221279 
L 329.333212 185.774452 
L 333.335372 186.198904 
L 337.337531 185.47272 
L 341.339691 185.799436 
L 345.341851 184.841482 
L 349.344011 185.568479 
L 353.34617 186.498926 
L 357.34833 185.560894 
L 361.35049 185.48231 
L 365.352649 185.648676 
L 369.354809 186.080881 
L 373.356969 186.142557 
L 377.359129 185.467463 
L 381.361288 185.984337 
L 385.363448 185.694494 
L 389.365608 185.880432 
L 393.367767 185.642969 
L 397.369927 186.590984 
L 401.372087 185.305289 
L 405.374247 186.308095 
L 409.376406 186.344099 
L 413.378566 185.517571 
L 417.380726 186.122031 
L 421.382885 185.875146 
L 425.385045 185.918609 
L 429.387205 185.389145 
L 433.389365 185.579653 
L 437.391524 185.826398 
L 441.393684 185.465556 
L 445.395844 185.747729 
L 449.398004 186.219108 
L 453.400163 186.893795 
L 457.402323 186.068249 
L 461.404483 185.904126 
L 465.406642 186.753129 
L 469.408802 186.307506 
L 473.410962 186.354544 
L 477.413122 186.211214 
L 481.415281 185.715525 
L 485.417441 185.522941 
L 489.419601 186.566238 
L 493.42176 186.511418 
L 497.42392 185.965886 
L 501.42608 186.105991 
L 505.42824 185.792805 
L 509.430399 185.320908 
L 513.432559 185.59094 
L 517.434719 185.530049 
L 521.436878 186.467282 
L 525.439038 185.478118 
L 529.441198 186.282858 
L 533.443358 185.349804 
L 537.445517 186.540594 
L 541.447677 185.779401 
L 545.449837 186.286532 
L 549.451996 186.774398 
L 553.454156 186.148277 
L 557.456316 186.387408 
L 561.458476 185.867547 
L 565.460635 186.655884 
L 569.462795 186.263833 
L 573.464955 185.331353 
L 577.467115 185.711234 
L 581.469274 185.627855 
L 585.471434 185.861897 
L 589.473594 185.862009 
L 593.475753 186.422879 
L 597.477913 186.007681 
L 601.480073 186.745193 
L 605.482233 187.435037 
L 609.484392 186.077138 
L 613.486552 186.628109 
L 617.488712 186.183496 
L 621.490871 186.510324 
L 625.493031 186.631124 
L 629.495191 186.896936 
L 633.497351 185.662668 
L 637.49951 186.753157 
L 641.50167 186.006826 
L 645.50383 186.184211 
L 649.505989 185.321917 
L 653.508149 185.17396 
L 657.510309 185.411311 
L 661.512469 185.519015 
L 665.514628 186.764135 
L 669.516788 186.227632 
L 673.518948 185.505738 
L 677.521107 185.389327 
L 681.523267 186.042437 
L 685.525427 186.166686 
L 689.527587 186.754909 
L 693.529746 186.929813 
L 697.531906 185.660831 
L 701.534066 186.416276 
L 705.536226 185.756352 
L 709.538385 186.035259 
L 713.540545 186.575084 
L 717.542705 185.636169 
L 721.544864 185.816822 
L 725.547024 186.242522 
L 729.549184 185.237206 
L 733.551344 185.621336 
L 737.553503 185.612377 
L 741.555663 185.837025 
L 745.557823 185.328044 
L 749.559982 186.181828 
L 753.562142 185.612545 
L 757.564302 186.124821 
L 761.566462 184.751373 
L 765.568621 186.07296 
L 769.570781 186.081133 
L 773.572941 186.155021 
L 777.5751 186.135504 
L 781.57726 185.868248 
L 785.57942 185.757319 
L 789.58158 185.893485 
L 793.583739 185.901 
L 797.585899 185.649531 
L 801.588059 185.817551 
L 805.590218 185.139737 
L 809.592378 185.81542 
L 813.594538 186.1697 
L 817.596698 185.842156 
L 821.598857 186.090793 
L 825.601017 186.206251 
L 829.603177 186.148964 
L 833.605337 186.21507 
L 837.607496 185.835917 
L 841.609656 185.623789 
L 845.611816 185.669201 
L 849.613975 186.48262 
L 853.616135 186.240587 
L 857.618295 185.62993 
L 861.620455 186.011901 
L 861.620455 39.990741 
L 861.620455 39.990741 
L 857.618295 39.934463 
L 853.616135 40.566585 
L 849.613975 40.835159 
L 845.611816 39.591049 
L 841.609656 39.900674 
L 837.607496 40.615306 
L 833.605337 40.617661 
L 829.603177 40.636883 
L 825.601017 40.3122 
L 821.598857 40.567146 
L 817.596698 40.142469 
L 813.594538 40.535446 
L 809.592378 39.339117 
L 805.590218 38.865201 
L 801.588059 40.01459 
L 797.585899 39.956616 
L 793.583739 39.96807 
L 789.58158 40.355929 
L 785.57942 39.824572 
L 781.57726 40.208085 
L 777.5751 40.847062 
L 773.572941 40.202715 
L 769.570781 40.732474 
L 765.568621 39.449864 
L 761.566462 38.793277 
L 757.564302 40.194387 
L 753.562142 39.365644 
L 749.559982 40.340465 
L 745.557823 39.64277 
L 741.555663 40.07513 
L 737.553503 39.249513 
L 733.551344 39.243456 
L 729.549184 39.310039 
L 725.547024 40.450034 
L 721.544864 40.046023 
L 717.542705 40.443528 
L 713.540545 41.216218 
L 709.538385 39.754709 
L 705.536226 40.783802 
L 701.534066 40.360654 
L 697.531906 40.939498 
L 693.529746 41.518749 
L 689.527587 41.840699 
L 685.525427 40.552298 
L 681.523267 39.676839 
L 677.521107 39.359713 
L 673.518948 40.026787 
L 669.516788 41.070631 
L 665.514628 40.804034 
L 661.512469 39.284129 
L 657.510309 38.98802 
L 653.508149 38.648937 
L 649.505989 40.280654 
L 645.50383 40.711584 
L 641.50167 40.425036 
L 637.49951 41.112986 
L 633.497351 40.548541 
L 629.495191 41.783215 
L 625.493031 41.513323 
L 621.490871 41.566278 
L 617.488712 40.056244 
L 613.486552 42.644205 
L 609.484392 41.294564 
L 605.482233 42.067856 
L 601.480073 40.614128 
L 597.477913 40.380086 
L 593.475753 40.750644 
L 589.473594 39.736188 
L 585.471434 40.090748 
L 581.469274 39.341248 
L 577.467115 39.206064 
L 573.464955 39.767131 
L 569.462795 40.486683 
L 565.460635 40.738124 
L 561.458476 40.017436 
L 557.456316 41.162394 
L 553.454156 41.466299 
L 549.451996 41.389201 
L 545.449837 40.301054 
L 541.447677 40.478523 
L 537.445517 40.239869 
L 533.443358 39.947769 
L 529.441198 40.685141 
L 525.439038 39.668021 
L 521.436878 40.391078 
L 517.434719 39.708217 
L 513.432559 38.913081 
L 509.430399 39.413004 
L 505.42824 40.473995 
L 501.42608 40.323921 
L 497.42392 40.819498 
L 493.42176 41.19401 
L 489.419601 41.138363 
L 485.417441 39.625988 
L 481.415281 39.657267 
L 477.413122 41.151963 
L 473.410962 40.660115 
L 469.408802 40.783816 
L 465.406642 41.735364 
L 461.404483 40.289108 
L 457.402323 41.0715 
L 453.400163 41.897495 
L 449.398004 40.245253 
L 445.395844 39.325896 
L 441.393684 39.255486 
L 437.391524 40.041593 
L 433.389365 39.371252 
L 429.387205 39.613047 
L 425.385045 40.113349 
L 421.382885 40.601636 
L 417.380726 40.099203 
L 413.378566 40.109129 
L 409.376406 40.514163 
L 405.374247 40.379932 
L 401.372087 39.907755 
L 397.369927 40.817493 
L 393.367767 39.987629 
L 389.365608 39.853496 
L 385.363448 40.115719 
L 381.361288 39.709395 
L 377.359129 39.646906 
L 373.356969 40.566459 
L 369.354809 40.356953 
L 365.352649 39.559882 
L 361.35049 39.543366 
L 357.34833 40.072494 
L 353.34617 40.422316 
L 349.344011 39.161732 
L 345.341851 38.280721 
L 341.339691 39.855361 
L 337.337531 39.951947 
L 333.335372 40.28172 
L 329.333212 39.592787 
L 325.331052 38.666645 
L 321.328893 39.264557 
L 317.326733 39.781011 
L 313.324573 38.945692 
L 309.322413 40.65553 
L 305.320254 39.64664 
L 301.318094 39.768406 
L 297.315934 40.499666 
L 293.313774 40.402673 
L 289.311615 40.78634 
L 285.309455 40.502358 
L 281.307295 39.002278 
L 277.305136 39.042166 
L 273.302976 39.844747 
L 269.300816 40.524103 
L 265.298656 39.456734 
L 261.296497 39.244802 
L 257.294337 38.204015 
L 253.292177 40.150812 
L 249.290018 39.943058 
L 245.287858 40.656301 
L 241.285698 39.672521 
L 237.283538 39.750096 
L 233.281379 40.231555 
L 229.279219 39.492738 
L 225.277059 38.710304 
L 221.2749 39.185861 
L 217.27274 39.404845 
L 213.27058 40.872467 
L 209.26842 39.434063 
L 205.266261 40.544882 
L 201.264101 40.317878 
L 197.261941 39.79684 
L 193.259782 41.215181 
L 189.257622 42.32635 
L 185.255462 40.396967 
L 181.253302 39.942567 
L 177.251143 40.429522 
L 173.248983 41.072425 
L 169.246823 41.491508 
L 165.244663 40.277289 
L 161.242504 40.198831 
L 157.240344 40.614226 
L 153.238184 40.37424 
L 149.236025 39.955059 
L 145.233865 40.375291 
L 141.231705 39.660926 
L 137.229545 42.675723 
z
" clip-path="url(#peaeb672d6f)" style="fill: #ff7f0e"/>
   </g>
   <g id="matplotlib.axis_1">
    <g id="xtick_1">
     <g id="line2d_1">
      <path d="M 137.229545 331.64 
L 137.229545 23.76 
" clip-path="url(#peaeb672d6f)" style="fill: none; stroke-dasharray: 5.12,1.28,0.8,1.28; stroke-dashoffset: 0; stroke: #b0b0b0; stroke-width: 0.8"/>
     </g>
     <g id="line2d_2">
      <defs>
       <path id="me1ee4ceeb6" d="M 0 0 
L 0 3.5 
" style="stroke: #000000; stroke-width: 0.8"/>
      </defs>
      <g>
       <use xlink:href="#me1ee4ceeb6" x="137.229545" y="331.64" style="stroke: #000000; stroke-width: 0.8"/>
      </g>
     </g>
     <g id="text_1">
      <!-- 0 -->
      <g transform="translate(130.230795 355.356563)scale(0.22 -0.22)">
       <defs>
        <path id="DejaVuSans-30" d="M 2034 4250 
Q 1547 4250 1301 3770 
Q 1056 3291 1056 2328 
Q 1056 1369 1301 889 
Q 1547 409 2034 409 
Q 2525 409 2770 889 
Q 3016 1369 3016 2328 
Q 3016 3291 2770 3770 
Q 2525 4250 2034 4250 
z
M 2034 4750 
Q 2819 4750 3233 4129 
Q 3647 3509 3647 2328 
Q 3647 1150 3233 529 
Q 2819 -91 2034 -91 
Q 1250 -91 836 529 
Q 422 1150 422 2328 
Q 422 3509 836 4129 
Q 1250 4750 2034 4750 
z
" transform="scale(0.015625)"/>
       </defs>
       <use xlink:href="#DejaVuSans-30"/>
      </g>
     </g>
    </g>
    <g id="xtick_2">
     <g id="line2d_3">
      <path d="M 237.283538 331.64 
L 237.283538 23.76 
" clip-path="url(#peaeb672d6f)" style="fill: none; stroke-dasharray: 5.12,1.28,0.8,1.28; stroke-dashoffset: 0; stroke: #b0b0b0; stroke-width: 0.8"/>
     </g>
     <g id="line2d_4">
      <g>
       <use xlink:href="#me1ee4ceeb6" x="237.283538" y="331.64" style="stroke: #000000; stroke-width: 0.8"/>
      </g>
     </g>
     <g id="text_2">
      <!-- 25 -->
      <g transform="translate(223.286038 355.356563)scale(0.22 -0.22)">
       <defs>
        <path id="DejaVuSans-32" d="M 1228 531 
L 3431 531 
L 3431 0 
L 469 0 
L 469 531 
Q 828 903 1448 1529 
Q 2069 2156 2228 2338 
Q 2531 2678 2651 2914 
Q 2772 3150 2772 3378 
Q 2772 3750 2511 3984 
Q 2250 4219 1831 4219 
Q 1534 4219 1204 4116 
Q 875 4013 500 3803 
L 500 4441 
Q 881 4594 1212 4672 
Q 1544 4750 1819 4750 
Q 2544 4750 2975 4387 
Q 3406 4025 3406 3419 
Q 3406 3131 3298 2873 
Q 3191 2616 2906 2266 
Q 2828 2175 2409 1742 
Q 1991 1309 1228 531 
z
" transform="scale(0.015625)"/>
        <path id="DejaVuSans-35" d="M 691 4666 
L 3169 4666 
L 3169 4134 
L 1269 4134 
L 1269 2991 
Q 1406 3038 1543 3061 
Q 1681 3084 1819 3084 
Q 2600 3084 3056 2656 
Q 3513 2228 3513 1497 
Q 3513 744 3044 326 
Q 2575 -91 1722 -91 
Q 1428 -91 1123 -41 
Q 819 9 494 109 
L 494 744 
Q 775 591 1075 516 
Q 1375 441 1709 441 
Q 2250 441 2565 725 
Q 2881 1009 2881 1497 
Q 2881 1984 2565 2268 
Q 2250 2553 1709 2553 
Q 1456 2553 1204 2497 
Q 953 2441 691 2322 
L 691 4666 
z
" transform="scale(0.015625)"/>
       </defs>
       <use xlink:href="#DejaVuSans-32"/>
       <use xlink:href="#DejaVuSans-35" x="63.623047"/>
      </g>
     </g>
    </g>
    <g id="xtick_3">
     <g id="line2d_5">
      <path d="M 337.337531 331.64 
L 337.337531 23.76 
" clip-path="url(#peaeb672d6f)" style="fill: none; stroke-dasharray: 5.12,1.28,0.8,1.28; stroke-dashoffset: 0; stroke: #b0b0b0; stroke-width: 0.8"/>
     </g>
     <g id="line2d_6">
      <g>
       <use xlink:href="#me1ee4ceeb6" x="337.337531" y="331.64" style="stroke: #000000; stroke-width: 0.8"/>
      </g>
     </g>
     <g id="text_3">
      <!-- 50 -->
      <g transform="translate(323.340031 355.356563)scale(0.22 -0.22)">
       <use xlink:href="#DejaVuSans-35"/>
       <use xlink:href="#DejaVuSans-30" x="63.623047"/>
      </g>
     </g>
    </g>
    <g id="xtick_4">
     <g id="line2d_7">
      <path d="M 437.391524 331.64 
L 437.391524 23.76 
" clip-path="url(#peaeb672d6f)" style="fill: none; stroke-dasharray: 5.12,1.28,0.8,1.28; stroke-dashoffset: 0; stroke: #b0b0b0; stroke-width: 0.8"/>
     </g>
     <g id="line2d_8">
      <g>
       <use xlink:href="#me1ee4ceeb6" x="437.391524" y="331.64" style="stroke: #000000; stroke-width: 0.8"/>
      </g>
     </g>
     <g id="text_4">
      <!-- 75 -->
      <g transform="translate(423.394024 355.356563)scale(0.22 -0.22)">
       <defs>
        <path id="DejaVuSans-37" d="M 525 4666 
L 3525 4666 
L 3525 4397 
L 1831 0 
L 1172 0 
L 2766 4134 
L 525 4134 
L 525 4666 
z
" transform="scale(0.015625)"/>
       </defs>
       <use xlink:href="#DejaVuSans-37"/>
       <use xlink:href="#DejaVuSans-35" x="63.623047"/>
      </g>
     </g>
    </g>
    <g id="xtick_5">
     <g id="line2d_9">
      <path d="M 537.445517 331.64 
L 537.445517 23.76 
" clip-path="url(#peaeb672d6f)" style="fill: none; stroke-dasharray: 5.12,1.28,0.8,1.28; stroke-dashoffset: 0; stroke: #b0b0b0; stroke-width: 0.8"/>
     </g>
     <g id="line2d_10">
      <g>
       <use xlink:href="#me1ee4ceeb6" x="537.445517" y="331.64" style="stroke: #000000; stroke-width: 0.8"/>
      </g>
     </g>
     <g id="text_5">
      <!-- 100 -->
      <g transform="translate(516.449267 355.356563)scale(0.22 -0.22)">
       <defs>
        <path id="DejaVuSans-31" d="M 794 531 
L 1825 531 
L 1825 4091 
L 703 3866 
L 703 4441 
L 1819 4666 
L 2450 4666 
L 2450 531 
L 3481 531 
L 3481 0 
L 794 0 
L 794 531 
z
" transform="scale(0.015625)"/>
       </defs>
       <use xlink:href="#DejaVuSans-31"/>
       <use xlink:href="#DejaVuSans-30" x="63.623047"/>
       <use xlink:href="#DejaVuSans-30" x="127.246094"/>
      </g>
     </g>
    </g>
    <g id="xtick_6">
     <g id="line2d_11">
      <path d="M 637.49951 331.64 
L 637.49951 23.76 
" clip-path="url(#peaeb672d6f)" style="fill: none; stroke-dasharray: 5.12,1.28,0.8,1.28; stroke-dashoffset: 0; stroke: #b0b0b0; stroke-width: 0.8"/>
     </g>
     <g id="line2d_12">
      <g>
       <use xlink:href="#me1ee4ceeb6" x="637.49951" y="331.64" style="stroke: #000000; stroke-width: 0.8"/>
      </g>
     </g>
     <g id="text_6">
      <!-- 125 -->
      <g transform="translate(616.50326 355.356563)scale(0.22 -0.22)">
       <use xlink:href="#DejaVuSans-31"/>
       <use xlink:href="#DejaVuSans-32" x="63.623047"/>
       <use xlink:href="#DejaVuSans-35" x="127.246094"/>
      </g>
     </g>
    </g>
    <g id="xtick_7">
     <g id="line2d_13">
      <path d="M 737.553503 331.64 
L 737.553503 23.76 
" clip-path="url(#peaeb672d6f)" style="fill: none; stroke-dasharray: 5.12,1.28,0.8,1.28; stroke-dashoffset: 0; stroke: #b0b0b0; stroke-width: 0.8"/>
     </g>
     <g id="line2d_14">
      <g>
       <use xlink:href="#me1ee4ceeb6" x="737.553503" y="331.64" style="stroke: #000000; stroke-width: 0.8"/>
      </g>
     </g>
     <g id="text_7">
      <!-- 150 -->
      <g transform="translate(716.557253 355.356563)scale(0.22 -0.22)">
       <use xlink:href="#DejaVuSans-31"/>
       <use xlink:href="#DejaVuSans-35" x="63.623047"/>
       <use xlink:href="#DejaVuSans-30" x="127.246094"/>
      </g>
     </g>
    </g>
    <g id="xtick_8">
     <g id="line2d_15">
      <path d="M 837.607496 331.64 
L 837.607496 23.76 
" clip-path="url(#peaeb672d6f)" style="fill: none; stroke-dasharray: 5.12,1.28,0.8,1.28; stroke-dashoffset: 0; stroke: #b0b0b0; stroke-width: 0.8"/>
     </g>
     <g id="line2d_16">
      <g>
       <use xlink:href="#me1ee4ceeb6" x="837.607496" y="331.64" style="stroke: #000000; stroke-width: 0.8"/>
      </g>
     </g>
     <g id="text_8">
      <!-- 175 -->
      <g transform="translate(816.611246 355.356563)scale(0.22 -0.22)">
       <use xlink:href="#DejaVuSans-31"/>
       <use xlink:href="#DejaVuSans-37" x="63.623047"/>
       <use xlink:href="#DejaVuSans-35" x="127.246094"/>
      </g>
     </g>
    </g>
    <g id="text_9">
     <!-- Time (s) -->
     <g transform="translate(450.635625 382.168125)scale(0.24 -0.24)">
      <defs>
       <path id="DejaVuSans-54" d="M -19 4666 
L 3928 4666 
L 3928 4134 
L 2272 4134 
L 2272 0 
L 1638 0 
L 1638 4134 
L -19 4134 
L -19 4666 
z
" transform="scale(0.015625)"/>
       <path id="DejaVuSans-69" d="M 603 3500 
L 1178 3500 
L 1178 0 
L 603 0 
L 603 3500 
z
M 603 4863 
L 1178 4863 
L 1178 4134 
L 603 4134 
L 603 4863 
z
" transform="scale(0.015625)"/>
       <path id="DejaVuSans-6d" d="M 3328 2828 
Q 3544 3216 3844 3400 
Q 4144 3584 4550 3584 
Q 5097 3584 5394 3201 
Q 5691 2819 5691 2113 
L 5691 0 
L 5113 0 
L 5113 2094 
Q 5113 2597 4934 2840 
Q 4756 3084 4391 3084 
Q 3944 3084 3684 2787 
Q 3425 2491 3425 1978 
L 3425 0 
L 2847 0 
L 2847 2094 
Q 2847 2600 2669 2842 
Q 2491 3084 2119 3084 
Q 1678 3084 1418 2786 
Q 1159 2488 1159 1978 
L 1159 0 
L 581 0 
L 581 3500 
L 1159 3500 
L 1159 2956 
Q 1356 3278 1631 3431 
Q 1906 3584 2284 3584 
Q 2666 3584 2933 3390 
Q 3200 3197 3328 2828 
z
" transform="scale(0.015625)"/>
       <path id="DejaVuSans-65" d="M 3597 1894 
L 3597 1613 
L 953 1613 
Q 991 1019 1311 708 
Q 1631 397 2203 397 
Q 2534 397 2845 478 
Q 3156 559 3463 722 
L 3463 178 
Q 3153 47 2828 -22 
Q 2503 -91 2169 -91 
Q 1331 -91 842 396 
Q 353 884 353 1716 
Q 353 2575 817 3079 
Q 1281 3584 2069 3584 
Q 2775 3584 3186 3129 
Q 3597 2675 3597 1894 
z
M 3022 2063 
Q 3016 2534 2758 2815 
Q 2500 3097 2075 3097 
Q 1594 3097 1305 2825 
Q 1016 2553 972 2059 
L 3022 2063 
z
" transform="scale(0.015625)"/>
       <path id="DejaVuSans-20" transform="scale(0.015625)"/>
       <path id="DejaVuSans-28" d="M 1984 4856 
Q 1566 4138 1362 3434 
Q 1159 2731 1159 2009 
Q 1159 1288 1364 580 
Q 1569 -128 1984 -844 
L 1484 -844 
Q 1016 -109 783 600 
Q 550 1309 550 2009 
Q 550 2706 781 3412 
Q 1013 4119 1484 4856 
L 1984 4856 
z
" transform="scale(0.015625)"/>
       <path id="DejaVuSans-73" d="M 2834 3397 
L 2834 2853 
Q 2591 2978 2328 3040 
Q 2066 3103 1784 3103 
Q 1356 3103 1142 2972 
Q 928 2841 928 2578 
Q 928 2378 1081 2264 
Q 1234 2150 1697 2047 
L 1894 2003 
Q 2506 1872 2764 1633 
Q 3022 1394 3022 966 
Q 3022 478 2636 193 
Q 2250 -91 1575 -91 
Q 1294 -91 989 -36 
Q 684 19 347 128 
L 347 722 
Q 666 556 975 473 
Q 1284 391 1588 391 
Q 1994 391 2212 530 
Q 2431 669 2431 922 
Q 2431 1156 2273 1281 
Q 2116 1406 1581 1522 
L 1381 1569 
Q 847 1681 609 1914 
Q 372 2147 372 2553 
Q 372 3047 722 3315 
Q 1072 3584 1716 3584 
Q 2034 3584 2315 3537 
Q 2597 3491 2834 3397 
z
" transform="scale(0.015625)"/>
       <path id="DejaVuSans-29" d="M 513 4856 
L 1013 4856 
Q 1481 4119 1714 3412 
Q 1947 2706 1947 2009 
Q 1947 1309 1714 600 
Q 1481 -109 1013 -844 
L 513 -844 
Q 928 -128 1133 580 
Q 1338 1288 1338 2009 
Q 1338 2731 1133 3434 
Q 928 4138 513 4856 
z
" transform="scale(0.015625)"/>
      </defs>
      <use xlink:href="#DejaVuSans-54"/>
      <use xlink:href="#DejaVuSans-69" x="57.958984"/>
      <use xlink:href="#DejaVuSans-6d" x="85.742188"/>
      <use xlink:href="#DejaVuSans-65" x="183.154297"/>
      <use xlink:href="#DejaVuSans-20" x="244.677734"/>
      <use xlink:href="#DejaVuSans-28" x="276.464844"/>
      <use xlink:href="#DejaVuSans-73" x="315.478516"/>
      <use xlink:href="#DejaVuSans-29" x="367.578125"/>
     </g>
    </g>
   </g>
   <g id="matplotlib.axis_2">
    <g id="ytick_1">
     <g id="line2d_17">
      <path d="M 101.01 331.64 
L 897.84 331.64 
" clip-path="url(#peaeb672d6f)" style="fill: none; stroke-dasharray: 5.12,1.28,0.8,1.28; stroke-dashoffset: 0; stroke: #b0b0b0; stroke-width: 0.8"/>
     </g>
     <g id="line2d_18">
      <defs>
       <path id="m98939685a1" d="M 0 0 
L -3.5 0 
" style="stroke: #000000; stroke-width: 0.8"/>
      </defs>
      <g>
       <use xlink:href="#m98939685a1" x="101.01" y="331.64" style="stroke: #000000; stroke-width: 0.8"/>
      </g>
     </g>
     <g id="text_10">
      <!-- 0 -->
      <g transform="translate(80.0125 339.998281)scale(0.22 -0.22)">
       <use xlink:href="#DejaVuSans-30"/>
      </g>
     </g>
    </g>
    <g id="ytick_2">
     <g id="line2d_19">
      <path d="M 101.01 244.012796 
L 897.84 244.012796 
" clip-path="url(#peaeb672d6f)" style="fill: none; stroke-dasharray: 5.12,1.28,0.8,1.28; stroke-dashoffset: 0; stroke: #b0b0b0; stroke-width: 0.8"/>
     </g>
     <g id="line2d_20">
      <g>
       <use xlink:href="#m98939685a1" x="101.01" y="244.012796" style="stroke: #000000; stroke-width: 0.8"/>
      </g>
     </g>
     <g id="text_11">
      <!-- 50 -->
      <g transform="translate(66.015 252.371077)scale(0.22 -0.22)">
       <use xlink:href="#DejaVuSans-35"/>
       <use xlink:href="#DejaVuSans-30" x="63.623047"/>
      </g>
     </g>
    </g>
    <g id="ytick_3">
     <g id="line2d_21">
      <path d="M 101.01 156.385592 
L 897.84 156.385592 
" clip-path="url(#peaeb672d6f)" style="fill: none; stroke-dasharray: 5.12,1.28,0.8,1.28; stroke-dashoffset: 0; stroke: #b0b0b0; stroke-width: 0.8"/>
     </g>
     <g id="line2d_22">
      <g>
       <use xlink:href="#m98939685a1" x="101.01" y="156.385592" style="stroke: #000000; stroke-width: 0.8"/>
      </g>
     </g>
     <g id="text_12">
      <!-- 100 -->
      <g transform="translate(52.0175 164.743873)scale(0.22 -0.22)">
       <use xlink:href="#DejaVuSans-31"/>
       <use xlink:href="#DejaVuSans-30" x="63.623047"/>
       <use xlink:href="#DejaVuSans-30" x="127.246094"/>
      </g>
     </g>
    </g>
    <g id="ytick_4">
     <g id="line2d_23">
      <path d="M 101.01 68.758388 
L 897.84 68.758388 
" clip-path="url(#peaeb672d6f)" style="fill: none; stroke-dasharray: 5.12,1.28,0.8,1.28; stroke-dashoffset: 0; stroke: #b0b0b0; stroke-width: 0.8"/>
     </g>
     <g id="line2d_24">
      <g>
       <use xlink:href="#m98939685a1" x="101.01" y="68.758388" style="stroke: #000000; stroke-width: 0.8"/>
      </g>
     </g>
     <g id="text_13">
      <!-- 150 -->
      <g transform="translate(52.0175 77.116669)scale(0.22 -0.22)">
       <use xlink:href="#DejaVuSans-31"/>
       <use xlink:href="#DejaVuSans-35" x="63.623047"/>
       <use xlink:href="#DejaVuSans-30" x="127.246094"/>
      </g>
     </g>
    </g>
    <g id="text_14">
     <!-- Throughput (Mbps) -->
     <g transform="translate(43.02625 292.414375)rotate(-90)scale(0.24 -0.24)">
      <defs>
       <path id="DejaVuSans-68" d="M 3513 2113 
L 3513 0 
L 2938 0 
L 2938 2094 
Q 2938 2591 2744 2837 
Q 2550 3084 2163 3084 
Q 1697 3084 1428 2787 
Q 1159 2491 1159 1978 
L 1159 0 
L 581 0 
L 581 4863 
L 1159 4863 
L 1159 2956 
Q 1366 3272 1645 3428 
Q 1925 3584 2291 3584 
Q 2894 3584 3203 3211 
Q 3513 2838 3513 2113 
z
" transform="scale(0.015625)"/>
       <path id="DejaVuSans-72" d="M 2631 2963 
Q 2534 3019 2420 3045 
Q 2306 3072 2169 3072 
Q 1681 3072 1420 2755 
Q 1159 2438 1159 1844 
L 1159 0 
L 581 0 
L 581 3500 
L 1159 3500 
L 1159 2956 
Q 1341 3275 1631 3429 
Q 1922 3584 2338 3584 
Q 2397 3584 2469 3576 
Q 2541 3569 2628 3553 
L 2631 2963 
z
" transform="scale(0.015625)"/>
       <path id="DejaVuSans-6f" d="M 1959 3097 
Q 1497 3097 1228 2736 
Q 959 2375 959 1747 
Q 959 1119 1226 758 
Q 1494 397 1959 397 
Q 2419 397 2687 759 
Q 2956 1122 2956 1747 
Q 2956 2369 2687 2733 
Q 2419 3097 1959 3097 
z
M 1959 3584 
Q 2709 3584 3137 3096 
Q 3566 2609 3566 1747 
Q 3566 888 3137 398 
Q 2709 -91 1959 -91 
Q 1206 -91 779 398 
Q 353 888 353 1747 
Q 353 2609 779 3096 
Q 1206 3584 1959 3584 
z
" transform="scale(0.015625)"/>
       <path id="DejaVuSans-75" d="M 544 1381 
L 544 3500 
L 1119 3500 
L 1119 1403 
Q 1119 906 1312 657 
Q 1506 409 1894 409 
Q 2359 409 2629 706 
Q 2900 1003 2900 1516 
L 2900 3500 
L 3475 3500 
L 3475 0 
L 2900 0 
L 2900 538 
Q 2691 219 2414 64 
Q 2138 -91 1772 -91 
Q 1169 -91 856 284 
Q 544 659 544 1381 
z
M 1991 3584 
L 1991 3584 
z
" transform="scale(0.015625)"/>
       <path id="DejaVuSans-67" d="M 2906 1791 
Q 2906 2416 2648 2759 
Q 2391 3103 1925 3103 
Q 1463 3103 1205 2759 
Q 947 2416 947 1791 
Q 947 1169 1205 825 
Q 1463 481 1925 481 
Q 2391 481 2648 825 
Q 2906 1169 2906 1791 
z
M 3481 434 
Q 3481 -459 3084 -895 
Q 2688 -1331 1869 -1331 
Q 1566 -1331 1297 -1286 
Q 1028 -1241 775 -1147 
L 775 -588 
Q 1028 -725 1275 -790 
Q 1522 -856 1778 -856 
Q 2344 -856 2625 -561 
Q 2906 -266 2906 331 
L 2906 616 
Q 2728 306 2450 153 
Q 2172 0 1784 0 
Q 1141 0 747 490 
Q 353 981 353 1791 
Q 353 2603 747 3093 
Q 1141 3584 1784 3584 
Q 2172 3584 2450 3431 
Q 2728 3278 2906 2969 
L 2906 3500 
L 3481 3500 
L 3481 434 
z
" transform="scale(0.015625)"/>
       <path id="DejaVuSans-70" d="M 1159 525 
L 1159 -1331 
L 581 -1331 
L 581 3500 
L 1159 3500 
L 1159 2969 
Q 1341 3281 1617 3432 
Q 1894 3584 2278 3584 
Q 2916 3584 3314 3078 
Q 3713 2572 3713 1747 
Q 3713 922 3314 415 
Q 2916 -91 2278 -91 
Q 1894 -91 1617 61 
Q 1341 213 1159 525 
z
M 3116 1747 
Q 3116 2381 2855 2742 
Q 2594 3103 2138 3103 
Q 1681 3103 1420 2742 
Q 1159 2381 1159 1747 
Q 1159 1113 1420 752 
Q 1681 391 2138 391 
Q 2594 391 2855 752 
Q 3116 1113 3116 1747 
z
" transform="scale(0.015625)"/>
       <path id="DejaVuSans-74" d="M 1172 4494 
L 1172 3500 
L 2356 3500 
L 2356 3053 
L 1172 3053 
L 1172 1153 
Q 1172 725 1289 603 
Q 1406 481 1766 481 
L 2356 481 
L 2356 0 
L 1766 0 
Q 1100 0 847 248 
Q 594 497 594 1153 
L 594 3053 
L 172 3053 
L 172 3500 
L 594 3500 
L 594 4494 
L 1172 4494 
z
" transform="scale(0.015625)"/>
       <path id="DejaVuSans-4d" d="M 628 4666 
L 1569 4666 
L 2759 1491 
L 3956 4666 
L 4897 4666 
L 4897 0 
L 4281 0 
L 4281 4097 
L 3078 897 
L 2444 897 
L 1241 4097 
L 1241 0 
L 628 0 
L 628 4666 
z
" transform="scale(0.015625)"/>
       <path id="DejaVuSans-62" d="M 3116 1747 
Q 3116 2381 2855 2742 
Q 2594 3103 2138 3103 
Q 1681 3103 1420 2742 
Q 1159 2381 1159 1747 
Q 1159 1113 1420 752 
Q 1681 391 2138 391 
Q 2594 391 2855 752 
Q 3116 1113 3116 1747 
z
M 1159 2969 
Q 1341 3281 1617 3432 
Q 1894 3584 2278 3584 
Q 2916 3584 3314 3078 
Q 3713 2572 3713 1747 
Q 3713 922 3314 415 
Q 2916 -91 2278 -91 
Q 1894 -91 1617 61 
Q 1341 213 1159 525 
L 1159 0 
L 581 0 
L 581 4863 
L 1159 4863 
L 1159 2969 
z
" transform="scale(0.015625)"/>
      </defs>
      <use xlink:href="#DejaVuSans-54"/>
      <use xlink:href="#DejaVuSans-68" x="61.083984"/>
      <use xlink:href="#DejaVuSans-72" x="124.462891"/>
      <use xlink:href="#DejaVuSans-6f" x="163.326172"/>
      <use xlink:href="#DejaVuSans-75" x="224.507812"/>
      <use xlink:href="#DejaVuSans-67" x="287.886719"/>
      <use xlink:href="#DejaVuSans-68" x="351.363281"/>
      <use xlink:href="#DejaVuSans-70" x="414.742188"/>
      <use xlink:href="#DejaVuSans-75" x="478.21875"/>
      <use xlink:href="#DejaVuSans-74" x="541.597656"/>
      <use xlink:href="#DejaVuSans-20" x="580.806641"/>
      <use xlink:href="#DejaVuSans-28" x="612.59375"/>
      <use xlink:href="#DejaVuSans-4d" x="651.607422"/>
      <use xlink:href="#DejaVuSans-62" x="737.886719"/>
      <use xlink:href="#DejaVuSans-70" x="801.363281"/>
      <use xlink:href="#DejaVuSans-73" x="864.839844"/>
      <use xlink:href="#DejaVuSans-29" x="916.939453"/>
     </g>
    </g>
   </g>
   <g id="patch_3">
    <path d="M 101.01 331.64 
L 101.01 23.76 
" style="fill: none; stroke: #000000; stroke-width: 0.8; stroke-linejoin: miter; stroke-linecap: square"/>
   </g>
   <g id="patch_4">
    <path d="M 897.84 331.64 
L 897.84 23.76 
" style="fill: none; stroke: #000000; stroke-width: 0.8; stroke-linejoin: miter; stroke-linecap: square"/>
   </g>
   <g id="patch_5">
    <path d="M 101.01 331.64 
L 897.84 331.64 
" style="fill: none; stroke: #000000; stroke-width: 0.8; stroke-linejoin: miter; stroke-linecap: square"/>
   </g>
   <g id="patch_6">
    <path d="M 101.01 23.76 
L 897.84 23.76 
" style="fill: none; stroke: #000000; stroke-width: 0.8; stroke-linejoin: miter; stroke-linecap: square"/>
   </g>
   <g id="legend_1">
    <g id="patch_7">
     <path d="M 756.24 113.415 
L 881.04 113.415 
Q 885.84 113.415 885.84 108.615 
L 885.84 40.56 
Q 885.84 35.76 881.04 35.76 
L 756.24 35.76 
Q 751.44 35.76 751.44 40.56 
L 751.44 108.615 
Q 751.44 113.415 756.24 113.415 
z
" style="fill: #ffffff; opacity: 0.8; stroke: #cccccc; stroke-linejoin: miter"/>
    </g>
    <g id="patch_8">
     <path d="M 761.04 63.59625 
L 809.04 63.59625 
L 809.04 46.79625 
L 761.04 46.79625 
z
" style="fill: #1f77b4"/>
    </g>
    <g id="text_15">
     <!-- UE1 -->
     <g transform="translate(828.24 63.59625)scale(0.24 -0.24)">
      <defs>
       <path id="DejaVuSans-55" d="M 556 4666 
L 1191 4666 
L 1191 1831 
Q 1191 1081 1462 751 
Q 1734 422 2344 422 
Q 2950 422 3222 751 
Q 3494 1081 3494 1831 
L 3494 4666 
L 4128 4666 
L 4128 1753 
Q 4128 841 3676 375 
Q 3225 -91 2344 -91 
Q 1459 -91 1007 375 
Q 556 841 556 1753 
L 556 4666 
z
" transform="scale(0.015625)"/>
       <path id="DejaVuSans-45" d="M 628 4666 
L 3578 4666 
L 3578 4134 
L 1259 4134 
L 1259 2753 
L 3481 2753 
L 3481 2222 
L 1259 2222 
L 1259 531 
L 3634 531 
L 3634 0 
L 628 0 
L 628 4666 
z
" transform="scale(0.015625)"/>
      </defs>
      <use xlink:href="#DejaVuSans-55"/>
      <use xlink:href="#DejaVuSans-45" x="73.193359"/>
      <use xlink:href="#DejaVuSans-31" x="136.376953"/>
     </g>
    </g>
    <g id="patch_9">
     <path d="M 761.04 98.82375 
L 809.04 98.82375 
L 809.04 82.02375 
L 761.04 82.02375 
z
" style="fill: #ff7f0e"/>
    </g>
    <g id="text_16">
     <!-- UE2 -->
     <g transform="translate(828.24 98.82375)scale(0.24 -0.24)">
      <use xlink:href="#DejaVuSans-55"/>
      <use xlink:href="#DejaVuSans-45" x="73.193359"/>
      <use xlink:href="#DejaVuSans-32" x="136.376953"/>
     </g>
    </g>
   </g>
  </g>
 </g>
 <defs>
  <clipPath id="peaeb672d6f">
   <rect x="101.01" y="23.76" width="796.83" height="307.88"/>
  </clipPath>
 </defs>
</svg>
