<?xml version="1.0" encoding="utf-8" standalone="no"?>
<!DOCTYPE svg PUBLIC "-//W3C//DTD SVG 1.1//EN"
  "http://www.w3.org/Graphics/SVG/1.1/DTD/svg11.dtd">
<svg xmlns:xlink="http://www.w3.org/1999/xlink" width="921.6pt" height="410.4pt" viewBox="0 0 921.6 410.4" xmlns="http://www.w3.org/2000/svg" version="1.1">
 <metadata>
  <rdf:RDF xmlns:dc="http://purl.org/dc/elements/1.1/" xmlns:cc="http://creativecommons.org/ns#" xmlns:rdf="http://www.w3.org/1999/02/22-rdf-syntax-ns#">
   <cc:Work>
    <dc:type rdf:resource="http://purl.org/dc/dcmitype/StillImage"/>
    <dc:date>2023-04-11T17:41:06.664475</dc:date>
    <dc:format>image/svg+xml</dc:format>
    <dc:creator>
     <cc:Agent>
      <dc:title>Matplotlib v3.5.3, https://matplotlib.org/</dc:title>
     </cc:Agent>
    </dc:creator>
   </cc:Work>
  </rdf:RDF>
 </metadata>
 <defs>
  <style type="text/css">*{stroke-linejoin: round; stroke-linecap: butt}</style>
 </defs>
 <g id="figure_1">
  <g id="patch_1">
   <path d="M 0 410.4 
L 921.6 410.4 
L 921.6 0 
L 0 0 
L 0 410.4 
z
" style="fill: none"/>
  </g>
  <g id="axes_1">
   <g id="patch_2">
    <path d="M 108.01 331.64 
L 897.84 331.64 
L 897.84 23.76 
L 108.01 23.76 
z
" style="fill: #ffffff"/>
   </g>
   <g id="PolyCollection_1">
    <path d="M 143.911364 235.818184 
L 143.911364 331.64 
L 147.83501 331.64 
L 151.758656 331.64 
L 155.682303 331.64 
L 159.605949 331.64 
L 163.529595 331.64 
L 167.453241 331.64 
L 171.376888 331.64 
L 175.300534 331.64 
L 179.22418 331.64 
L 183.147827 331.64 
L 187.071473 331.64 
L 190.995119 331.64 
L 194.918766 331.64 
L 198.842412 331.64 
L 202.766058 331.64 
L 206.689704 331.64 
L 210.613351 331.64 
L 214.536997 331.64 
L 218.460643 331.64 
L 222.38429 331.64 
L 226.307936 331.64 
L 230.231582 331.64 
L 234.155229 331.64 
L 238.078875 331.64 
L 242.002521 331.64 
L 245.926167 331.64 
L 249.849814 331.64 
L 253.77346 331.64 
L 257.697106 331.64 
L 261.620753 331.64 
L 265.544399 331.64 
L 269.468045 331.64 
L 273.391692 331.64 
L 277.315338 331.64 
L 281.238984 331.64 
L 285.16263 331.64 
L 289.086277 331.64 
L 293.009923 331.64 
L 296.933569 331.64 
L 300.857216 331.64 
L 304.780862 331.64 
L 308.704508 331.64 
L 312.628154 331.64 
L 316.551801 331.64 
L 320.475447 331.64 
L 324.399093 331.64 
L 328.32274 331.64 
L 332.246386 331.64 
L 336.170032 331.64 
L 340.093679 331.64 
L 344.017325 331.64 
L 347.940971 331.64 
L 351.864617 331.64 
L 355.788264 331.64 
L 359.71191 331.64 
L 363.635556 331.64 
L 367.559203 331.64 
L 371.482849 331.64 
L 375.406495 331.64 
L 379.330142 331.64 
L 383.253788 331.64 
L 387.177434 331.64 
L 391.10108 331.64 
L 395.024727 331.64 
L 398.948373 331.64 
L 402.872019 331.64 
L 406.795666 331.64 
L 410.719312 331.64 
L 414.642958 331.64 
L 418.566605 331.64 
L 422.490251 331.64 
L 426.413897 331.64 
L 430.337543 331.64 
L 434.26119 331.64 
L 438.184836 331.64 
L 442.108482 331.64 
L 446.032129 331.64 
L 449.955775 331.64 
L 453.879421 331.64 
L 457.803068 331.64 
L 461.726714 331.64 
L 465.65036 331.64 
L 469.574006 331.64 
L 473.497653 331.64 
L 477.421299 331.64 
L 481.344945 331.64 
L 485.268592 331.64 
L 489.192238 331.64 
L 493.115884 331.64 
L 497.039531 331.64 
L 500.963177 331.64 
L 504.886823 331.64 
L 508.810469 331.64 
L 512.734116 331.64 
L 516.657762 331.64 
L 520.581408 331.64 
L 524.505055 331.64 
L 528.428701 331.64 
L 532.352347 331.64 
L 536.275994 331.64 
L 540.19964 331.64 
L 544.123286 331.64 
L 548.046932 331.64 
L 551.970579 331.64 
L 555.894225 331.64 
L 559.817871 331.64 
L 563.741518 331.64 
L 567.665164 331.64 
L 571.58881 331.64 
L 575.512457 331.64 
L 579.436103 331.64 
L 583.359749 331.64 
L 587.283395 331.64 
L 591.207042 331.64 
L 595.130688 331.64 
L 599.054334 331.64 
L 602.977981 331.64 
L 606.901627 331.64 
L 610.825273 331.64 
L 614.74892 331.64 
L 618.672566 331.64 
L 622.596212 331.64 
L 626.519858 331.64 
L 630.443505 331.64 
L 634.367151 331.64 
L 638.290797 331.64 
L 642.214444 331.64 
L 646.13809 331.64 
L 650.061736 331.64 
L 653.985383 331.64 
L 657.909029 331.64 
L 661.832675 331.64 
L 665.756321 331.64 
L 669.679968 331.64 
L 673.603614 331.64 
L 677.52726 331.64 
L 681.450907 331.64 
L 685.374553 331.64 
L 689.298199 331.64 
L 693.221846 331.64 
L 697.145492 331.64 
L 701.069138 331.64 
L 704.992784 331.64 
L 708.916431 331.64 
L 712.840077 331.64 
L 716.763723 331.64 
L 720.68737 331.64 
L 724.611016 331.64 
L 728.534662 331.64 
L 732.458308 331.64 
L 736.381955 331.64 
L 740.305601 331.64 
L 744.229247 331.64 
L 748.152894 331.64 
L 752.07654 331.64 
L 756.000186 331.64 
L 759.923833 331.64 
L 763.847479 331.64 
L 767.771125 331.64 
L 771.694771 331.64 
L 775.618418 331.64 
L 779.542064 331.64 
L 783.46571 331.64 
L 787.389357 331.64 
L 791.313003 331.64 
L 795.236649 331.64 
L 799.160296 331.64 
L 803.083942 331.64 
L 807.007588 331.64 
L 810.931234 331.64 
L 814.854881 331.64 
L 818.778527 331.64 
L 822.702173 331.64 
L 826.62582 331.64 
L 830.549466 331.64 
L 834.473112 331.64 
L 838.396759 331.64 
L 842.320405 331.64 
L 846.244051 331.64 
L 850.167697 331.64 
L 854.091344 331.64 
L 858.01499 331.64 
L 861.938636 331.64 
L 861.938636 236.923129 
L 861.938636 236.923129 
L 858.01499 237.279292 
L 854.091344 236.778661 
L 850.167697 237.327398 
L 846.244051 238.011042 
L 842.320405 236.585639 
L 838.396759 237.752584 
L 834.473112 236.076941 
L 830.549466 238.999307 
L 826.62582 238.779991 
L 822.702173 238.47014 
L 818.778527 238.489712 
L 814.854881 236.842753 
L 810.931234 238.538565 
L 807.007588 238.629996 
L 803.083942 237.939181 
L 799.160296 238.844531 
L 795.236649 239.521899 
L 791.313003 239.045471 
L 787.389357 238.106357 
L 783.46571 238.570834 
L 779.542064 237.646512 
L 775.618418 238.802849 
L 771.694771 238.818237 
L 767.771125 238.672275 
L 763.847479 240.480584 
L 759.923833 237.084478 
L 756.000186 237.962637 
L 752.07654 237.215948 
L 748.152894 239.587485 
L 744.229247 238.600266 
L 740.305601 235.407938 
L 736.381955 235.750955 
L 732.458308 238.363471 
L 728.534662 239.200695 
L 724.611016 238.306251 
L 720.68737 237.987138 
L 716.763723 238.140271 
L 712.840077 239.185157 
L 708.916431 238.985712 
L 704.992784 238.335384 
L 701.069138 238.57681 
L 697.145492 238.353013 
L 693.221846 237.845659 
L 689.298199 236.525432 
L 685.374553 235.229707 
L 681.450907 235.345789 
L 677.52726 237.621712 
L 673.603614 237.999687 
L 669.679968 237.036372 
L 665.756321 237.931114 
L 661.832675 237.883456 
L 657.909029 236.348097 
L 653.985383 237.791726 
L 650.061736 238.387075 
L 646.13809 237.379986 
L 642.214444 236.628516 
L 638.290797 235.381047 
L 634.367151 234.257129 
L 630.443505 236.769249 
L 626.519858 238.573524 
L 622.596212 233.967297 
L 618.672566 237.012319 
L 614.74892 238.770131 
L 610.825273 240.73456 
L 606.901627 238.804642 
L 602.977981 238.151177 
L 599.054334 237.477842 
L 595.130688 234.464791 
L 591.207042 234.681268 
L 587.283395 237.471119 
L 583.359749 236.970488 
L 579.436103 237.350704 
L 575.512457 237.514444 
L 571.58881 237.374309 
L 567.665164 237.623206 
L 563.741518 239.160806 
L 559.817871 239.18202 
L 555.894225 239.22654 
L 551.970579 237.244483 
L 548.046932 235.513712 
L 544.123286 235.404203 
L 540.19964 234.401746 
L 536.275994 235.875851 
L 532.352347 235.304555 
L 528.428701 234.29149 
L 524.505055 234.580126 
L 520.581408 236.850521 
L 516.657762 236.518859 
L 512.734116 235.535524 
L 508.810469 234.190049 
L 504.886823 236.172107 
L 500.963177 237.772603 
L 497.039531 237.559861 
L 493.115884 237.775442 
L 489.192238 236.435196 
L 485.268592 235.874059 
L 481.344945 235.382541 
L 477.421299 237.70896 
L 473.497653 237.4263 
L 469.574006 237.109278 
L 465.65036 236.794796 
L 461.726714 237.558218 
L 457.803068 235.250025 
L 453.879421 237.519374 
L 449.955775 236.314632 
L 446.032129 235.872864 
L 442.108482 234.060671 
L 438.184836 234.454184 
L 434.26119 236.244565 
L 430.337543 236.111601 
L 426.413897 236.952709 
L 422.490251 238.702902 
L 418.566605 237.263157 
L 414.642958 238.124733 
L 410.719312 233.432603 
L 406.795666 236.21603 
L 402.872019 236.462685 
L 398.948373 235.307991 
L 395.024727 234.272218 
L 391.10108 233.893047 
L 387.177434 234.035124 
L 383.253788 233.626671 
L 379.330142 234.182131 
L 375.406495 234.40324 
L 371.482849 234.592377 
L 367.559203 234.4379 
L 363.635556 234.993061 
L 359.71191 235.3431 
L 355.788264 234.426695 
L 351.864617 234.957505 
L 347.940971 234.741326 
L 344.017325 234.750888 
L 340.093679 234.654825 
L 336.170032 234.263553 
L 332.246386 234.283721 
L 328.32274 235.594685 
L 324.399093 234.177649 
L 320.475447 234.314946 
L 316.551801 234.240994 
L 312.628154 236.311794 
L 308.704508 236.708892 
L 304.780862 238.131456 
L 300.857216 236.18361 
L 296.933569 236.52842 
L 293.009923 236.430714 
L 289.086277 235.471283 
L 285.16263 235.272435 
L 281.238984 236.47882 
L 277.315338 236.113692 
L 273.391692 235.612762 
L 269.468045 236.068873 
L 265.544399 235.235832 
L 261.620753 234.960642 
L 257.697106 234.587447 
L 253.77346 235.756184 
L 249.849814 235.319047 
L 245.926167 234.75776 
L 242.002521 237.03189 
L 238.078875 235.709572 
L 234.155229 235.531639 
L 230.231582 236.103533 
L 226.307936 235.703297 
L 222.38429 235.627403 
L 218.460643 235.476811 
L 214.536997 235.728545 
L 210.613351 235.583929 
L 206.689704 235.266011 
L 202.766058 235.161133 
L 198.842412 234.97349 
L 194.918766 235.726454 
L 190.995119 235.537018 
L 187.071473 236.271008 
L 183.147827 234.621509 
L 179.22418 234.748497 
L 175.300534 234.754025 
L 171.376888 235.433635 
L 167.453241 234.510656 
L 163.529595 235.082401 
L 159.605949 235.056406 
L 155.682303 234.24697 
L 151.758656 234.674994 
L 147.83501 234.954815 
L 143.911364 235.818184 
z
" clip-path="url(#pd041b72619)" style="fill: #1f77b4"/>
   </g>
   <g id="PolyCollection_2">
    <path d="M 143.911364 140.370758 
L 143.911364 235.818184 
L 147.83501 234.954815 
L 151.758656 234.674994 
L 155.682303 234.24697 
L 159.605949 235.056406 
L 163.529595 235.082401 
L 167.453241 234.510656 
L 171.376888 235.433635 
L 175.300534 234.754025 
L 179.22418 234.748497 
L 183.147827 234.621509 
L 187.071473 236.271008 
L 190.995119 235.537018 
L 194.918766 235.726454 
L 198.842412 234.97349 
L 202.766058 235.161133 
L 206.689704 235.266011 
L 210.613351 235.583929 
L 214.536997 235.728545 
L 218.460643 235.476811 
L 222.38429 235.627403 
L 226.307936 235.703297 
L 230.231582 236.103533 
L 234.155229 235.531639 
L 238.078875 235.709572 
L 242.002521 237.03189 
L 245.926167 234.75776 
L 249.849814 235.319047 
L 253.77346 235.756184 
L 257.697106 234.587447 
L 261.620753 234.960642 
L 265.544399 235.235832 
L 269.468045 236.068873 
L 273.391692 235.612762 
L 277.315338 236.113692 
L 281.238984 236.47882 
L 285.16263 235.272435 
L 289.086277 235.471283 
L 293.009923 236.430714 
L 296.933569 236.52842 
L 300.857216 236.18361 
L 304.780862 238.131456 
L 308.704508 236.708892 
L 312.628154 236.311794 
L 316.551801 234.240994 
L 320.475447 234.314946 
L 324.399093 234.177649 
L 328.32274 235.594685 
L 332.246386 234.283721 
L 336.170032 234.263553 
L 340.093679 234.654825 
L 344.017325 234.750888 
L 347.940971 234.741326 
L 351.864617 234.957505 
L 355.788264 234.426695 
L 359.71191 235.3431 
L 363.635556 234.993061 
L 367.559203 234.4379 
L 371.482849 234.592377 
L 375.406495 234.40324 
L 379.330142 234.182131 
L 383.253788 233.626671 
L 387.177434 234.035124 
L 391.10108 233.893047 
L 395.024727 234.272218 
L 398.948373 235.307991 
L 402.872019 236.462685 
L 406.795666 236.21603 
L 410.719312 233.432603 
L 414.642958 238.124733 
L 418.566605 237.263157 
L 422.490251 238.702902 
L 426.413897 236.952709 
L 430.337543 236.111601 
L 434.26119 236.244565 
L 438.184836 234.454184 
L 442.108482 234.060671 
L 446.032129 235.872864 
L 449.955775 236.314632 
L 453.879421 237.519374 
L 457.803068 235.250025 
L 461.726714 237.558218 
L 465.65036 236.794796 
L 469.574006 237.109278 
L 473.497653 237.4263 
L 477.421299 237.70896 
L 481.344945 235.382541 
L 485.268592 235.874059 
L 489.192238 236.435196 
L 493.115884 237.775442 
L 497.039531 237.559861 
L 500.963177 237.772603 
L 504.886823 236.172107 
L 508.810469 234.190049 
L 512.734116 235.535524 
L 516.657762 236.518859 
L 520.581408 236.850521 
L 524.505055 234.580126 
L 528.428701 234.29149 
L 532.352347 235.304555 
L 536.275994 235.875851 
L 540.19964 234.401746 
L 544.123286 235.404203 
L 548.046932 235.513712 
L 551.970579 237.244483 
L 555.894225 239.22654 
L 559.817871 239.18202 
L 563.741518 239.160806 
L 567.665164 237.623206 
L 571.58881 237.374309 
L 575.512457 237.514444 
L 579.436103 237.350704 
L 583.359749 236.970488 
L 587.283395 237.471119 
L 591.207042 234.681268 
L 595.130688 234.464791 
L 599.054334 237.477842 
L 602.977981 238.151177 
L 606.901627 238.804642 
L 610.825273 240.73456 
L 614.74892 238.770131 
L 618.672566 237.012319 
L 622.596212 233.967297 
L 626.519858 238.573524 
L 630.443505 236.769249 
L 634.367151 234.257129 
L 638.290797 235.381047 
L 642.214444 236.628516 
L 646.13809 237.379986 
L 650.061736 238.387075 
L 653.985383 237.791726 
L 657.909029 236.348097 
L 661.832675 237.883456 
L 665.756321 237.931114 
L 669.679968 237.036372 
L 673.603614 237.999687 
L 677.52726 237.621712 
L 681.450907 235.345789 
L 685.374553 235.229707 
L 689.298199 236.525432 
L 693.221846 237.845659 
L 697.145492 238.353013 
L 701.069138 238.57681 
L 704.992784 238.335384 
L 708.916431 238.985712 
L 712.840077 239.185157 
L 716.763723 238.140271 
L 720.68737 237.987138 
L 724.611016 238.306251 
L 728.534662 239.200695 
L 732.458308 238.363471 
L 736.381955 235.750955 
L 740.305601 235.407938 
L 744.229247 238.600266 
L 748.152894 239.587485 
L 752.07654 237.215948 
L 756.000186 237.962637 
L 759.923833 237.084478 
L 763.847479 240.480584 
L 767.771125 238.672275 
L 771.694771 238.818237 
L 775.618418 238.802849 
L 779.542064 237.646512 
L 783.46571 238.570834 
L 787.389357 238.106357 
L 791.313003 239.045471 
L 795.236649 239.521899 
L 799.160296 238.844531 
L 803.083942 237.939181 
L 807.007588 238.629996 
L 810.931234 238.538565 
L 814.854881 236.842753 
L 818.778527 238.489712 
L 822.702173 238.47014 
L 826.62582 238.779991 
L 830.549466 238.999307 
L 834.473112 236.076941 
L 838.396759 237.752584 
L 842.320405 236.585639 
L 846.244051 238.011042 
L 850.167697 237.327398 
L 854.091344 236.778661 
L 858.01499 237.279292 
L 861.938636 236.923129 
L 861.938636 236.923129 
L 861.938636 236.923129 
L 858.01499 143.877867 
L 854.091344 143.273404 
L 850.167697 144.026816 
L 846.244051 144.037423 
L 842.320405 142.414667 
L 838.396759 145.169707 
L 834.473112 141.565192 
L 830.549466 147.151018 
L 826.62582 146.697298 
L 822.702173 146.125105 
L 818.778527 145.863211 
L 814.854881 143.175549 
L 810.931234 145.646734 
L 807.007588 146.960686 
L 803.083942 145.034054 
L 799.160296 146.395216 
L 795.236649 148.133158 
L 791.313003 147.451158 
L 787.389357 145.162088 
L 783.46571 146.522353 
L 779.542064 144.078657 
L 775.618418 146.233568 
L 771.694771 147.489254 
L 767.771125 146.843558 
L 763.847479 149.217336 
L 759.923833 143.876821 
L 756.000186 144.923948 
L 752.07654 144.555385 
L 748.152894 147.938792 
L 744.229247 145.95524 
L 740.305601 140.946985 
L 736.381955 140.880652 
L 732.458308 145.540512 
L 728.534662 147.378252 
L 724.611016 145.661524 
L 720.68737 144.912295 
L 716.763723 146.420464 
L 712.840077 147.151616 
L 708.916431 147.159833 
L 704.992784 146.41643 
L 701.069138 145.921028 
L 697.145492 145.758035 
L 693.221846 144.47725 
L 689.298199 143.311202 
L 685.374553 140.270513 
L 681.450907 139.77018 
L 677.52726 144.920214 
L 673.603614 144.183833 
L 669.679968 143.27684 
L 665.756321 144.329495 
L 661.832675 144.825346 
L 657.909029 142.295149 
L 653.985383 143.306122 
L 650.061736 145.640011 
L 646.13809 142.780093 
L 642.214444 142.836565 
L 638.290797 139.645583 
L 634.367151 139.338272 
L 630.443505 140.611587 
L 626.519858 145.406503 
L 622.596212 137.934681 
L 618.672566 143.801226 
L 614.74892 144.726744 
L 610.825273 149.296367 
L 606.901627 147.118001 
L 602.977981 145.230662 
L 599.054334 144.875245 
L 595.130688 139.010045 
L 591.207042 139.237279 
L 587.283395 142.738411 
L 583.359749 144.121833 
L 579.436103 144.094792 
L 575.512457 144.151264 
L 571.58881 144.299168 
L 567.665164 144.849399 
L 563.741518 146.608406 
L 559.817871 147.443987 
L 555.894225 146.818907 
L 551.970579 144.246132 
L 548.046932 140.953409 
L 544.123286 140.964166 
L 540.19964 138.724546 
L 536.275994 141.104749 
L 532.352347 140.282913 
L 528.428701 137.917351 
L 524.505055 139.444493 
L 520.581408 142.571684 
L 516.657762 141.825891 
L 512.734116 141.166898 
L 508.810469 139.327963 
L 504.886823 141.124469 
L 500.963177 143.842459 
L 497.039531 144.695968 
L 493.115884 145.20138 
L 489.192238 142.624421 
L 485.268592 142.085096 
L 481.344945 139.894329 
L 477.421299 145.347042 
L 473.497653 142.957727 
L 469.574006 143.130729 
L 465.65036 143.667664 
L 461.726714 144.129452 
L 457.803068 138.995404 
L 453.879421 143.965712 
L 449.955775 142.176228 
L 446.032129 140.820594 
L 442.108482 137.591515 
L 438.184836 137.099549 
L 434.26119 141.941823 
L 430.337543 142.212831 
L 426.413897 142.509235 
L 422.490251 146.324551 
L 418.566605 142.759476 
L 414.642958 145.400527 
L 410.719312 136.444889 
L 406.795666 141.137915 
L 402.872019 142.789057 
L 398.948373 140.573491 
L 395.024727 139.20232 
L 391.10108 136.693785 
L 387.177434 139.012286 
L 383.253788 136.457588 
L 379.330142 137.271804 
L 375.406495 138.655525 
L 371.482849 138.68884 
L 367.559203 137.545351 
L 363.635556 139.302566 
L 359.71191 140.000551 
L 355.788264 138.244383 
L 351.864617 139.410132 
L 347.940971 139.282397 
L 344.017325 138.43098 
L 340.093679 138.433669 
L 336.170032 136.808074 
L 332.246386 138.296672 
L 328.32274 139.769433 
L 324.399093 138.162961 
L 320.475447 138.478489 
L 316.551801 138.555428 
L 312.628154 142.66177 
L 308.704508 142.811765 
L 304.780862 144.99058 
L 300.857216 142.146946 
L 296.933569 142.70151 
L 293.009923 141.381732 
L 289.086277 139.788705 
L 285.16263 141.016754 
L 281.238984 142.757833 
L 277.315338 142.243905 
L 273.391692 140.800874 
L 269.468045 141.700546 
L 265.544399 139.749862 
L 261.620753 139.824262 
L 257.697106 139.411327 
L 253.77346 141.39966 
L 249.849814 139.624069 
L 245.926167 138.797004 
L 242.002521 143.169124 
L 238.078875 141.085925 
L 234.155229 140.807447 
L 230.231582 141.545621 
L 226.307936 141.078007 
L 222.38429 139.831284 
L 218.460643 140.49431 
L 214.536997 141.273269 
L 210.613351 140.782349 
L 206.689704 139.07593 
L 202.766058 140.352233 
L 198.842412 139.877746 
L 194.918766 141.257134 
L 190.995119 139.25685 
L 187.071473 141.920161 
L 183.147827 136.895024 
L 179.22418 139.331997 
L 175.300534 137.793351 
L 171.376888 141.128652 
L 167.453241 137.895091 
L 163.529595 140.533303 
L 159.605949 140.415578 
L 155.682303 138.321771 
L 151.758656 138.663592 
L 147.83501 139.149583 
L 143.911364 140.370758 
z
" clip-path="url(#pd041b72619)" style="fill: #ff7f0e"/>
   </g>
   <g id="PolyCollection_3">
    <path d="M 143.911364 44.353232 
L 143.911364 140.370758 
L 147.83501 139.149583 
L 151.758656 138.663592 
L 155.682303 138.321771 
L 159.605949 140.415578 
L 163.529595 140.533303 
L 167.453241 137.895091 
L 171.376888 141.128652 
L 175.300534 137.793351 
L 179.22418 139.331997 
L 183.147827 136.895024 
L 187.071473 141.920161 
L 190.995119 139.25685 
L 194.918766 141.257134 
L 198.842412 139.877746 
L 202.766058 140.352233 
L 206.689704 139.07593 
L 210.613351 140.782349 
L 214.536997 141.273269 
L 218.460643 140.49431 
L 222.38429 139.831284 
L 226.307936 141.078007 
L 230.231582 141.545621 
L 234.155229 140.807447 
L 238.078875 141.085925 
L 242.002521 143.169124 
L 245.926167 138.797004 
L 249.849814 139.624069 
L 253.77346 141.39966 
L 257.697106 139.411327 
L 261.620753 139.824262 
L 265.544399 139.749862 
L 269.468045 141.700546 
L 273.391692 140.800874 
L 277.315338 142.243905 
L 281.238984 142.757833 
L 285.16263 141.016754 
L 289.086277 139.788705 
L 293.009923 141.381732 
L 296.933569 142.70151 
L 300.857216 142.146946 
L 304.780862 144.99058 
L 308.704508 142.811765 
L 312.628154 142.66177 
L 316.551801 138.555428 
L 320.475447 138.478489 
L 324.399093 138.162961 
L 328.32274 139.769433 
L 332.246386 138.296672 
L 336.170032 136.808074 
L 340.093679 138.433669 
L 344.017325 138.43098 
L 347.940971 139.282397 
L 351.864617 139.410132 
L 355.788264 138.244383 
L 359.71191 140.000551 
L 363.635556 139.302566 
L 367.559203 137.545351 
L 371.482849 138.68884 
L 375.406495 138.655525 
L 379.330142 137.271804 
L 383.253788 136.457588 
L 387.177434 139.012286 
L 391.10108 136.693785 
L 395.024727 139.20232 
L 398.948373 140.573491 
L 402.872019 142.789057 
L 406.795666 141.137915 
L 410.719312 136.444889 
L 414.642958 145.400527 
L 418.566605 142.759476 
L 422.490251 146.324551 
L 426.413897 142.509235 
L 430.337543 142.212831 
L 434.26119 141.941823 
L 438.184836 137.099549 
L 442.108482 137.591515 
L 446.032129 140.820594 
L 449.955775 142.176228 
L 453.879421 143.965712 
L 457.803068 138.995404 
L 461.726714 144.129452 
L 465.65036 143.667664 
L 469.574006 143.130729 
L 473.497653 142.957727 
L 477.421299 145.347042 
L 481.344945 139.894329 
L 485.268592 142.085096 
L 489.192238 142.624421 
L 493.115884 145.20138 
L 497.039531 144.695968 
L 500.963177 143.842459 
L 504.886823 141.124469 
L 508.810469 139.327963 
L 512.734116 141.166898 
L 516.657762 141.825891 
L 520.581408 142.571684 
L 524.505055 139.444493 
L 528.428701 137.917351 
L 532.352347 140.282913 
L 536.275994 141.104749 
L 540.19964 138.724546 
L 544.123286 140.964166 
L 548.046932 140.953409 
L 551.970579 144.246132 
L 555.894225 146.818907 
L 559.817871 147.443987 
L 563.741518 146.608406 
L 567.665164 144.849399 
L 571.58881 144.299168 
L 575.512457 144.151264 
L 579.436103 144.094792 
L 583.359749 144.121833 
L 587.283395 142.738411 
L 591.207042 139.237279 
L 595.130688 139.010045 
L 599.054334 144.875245 
L 602.977981 145.230662 
L 606.901627 147.118001 
L 610.825273 149.296367 
L 614.74892 144.726744 
L 618.672566 143.801226 
L 622.596212 137.934681 
L 626.519858 145.406503 
L 630.443505 140.611587 
L 634.367151 139.338272 
L 638.290797 139.645583 
L 642.214444 142.836565 
L 646.13809 142.780093 
L 650.061736 145.640011 
L 653.985383 143.306122 
L 657.909029 142.295149 
L 661.832675 144.825346 
L 665.756321 144.329495 
L 669.679968 143.27684 
L 673.603614 144.183833 
L 677.52726 144.920214 
L 681.450907 139.77018 
L 685.374553 140.270513 
L 689.298199 143.311202 
L 693.221846 144.47725 
L 697.145492 145.758035 
L 701.069138 145.921028 
L 704.992784 146.41643 
L 708.916431 147.159833 
L 712.840077 147.151616 
L 716.763723 146.420464 
L 720.68737 144.912295 
L 724.611016 145.661524 
L 728.534662 147.378252 
L 732.458308 145.540512 
L 736.381955 140.880652 
L 740.305601 140.946985 
L 744.229247 145.95524 
L 748.152894 147.938792 
L 752.07654 144.555385 
L 756.000186 144.923948 
L 759.923833 143.876821 
L 763.847479 149.217336 
L 767.771125 146.843558 
L 771.694771 147.489254 
L 775.618418 146.233568 
L 779.542064 144.078657 
L 783.46571 146.522353 
L 787.389357 145.162088 
L 791.313003 147.451158 
L 795.236649 148.133158 
L 799.160296 146.395216 
L 803.083942 145.034054 
L 807.007588 146.960686 
L 810.931234 145.646734 
L 814.854881 143.175549 
L 818.778527 145.863211 
L 822.702173 146.125105 
L 826.62582 146.697298 
L 830.549466 147.151018 
L 834.473112 141.565192 
L 838.396759 145.169707 
L 842.320405 142.414667 
L 846.244051 144.037423 
L 850.167697 144.026816 
L 854.091344 143.273404 
L 858.01499 143.877867 
L 861.938636 236.923129 
L 861.938636 236.923129 
L 861.938636 236.923129 
L 858.01499 50.306875 
L 854.091344 49.307255 
L 850.167697 48.415651 
L 846.244051 50.493024 
L 842.320405 47.97433 
L 838.396759 50.601337 
L 834.473112 46.27299 
L 830.549466 54.088277 
L 826.62582 54.325371 
L 822.702173 53.036368 
L 818.778527 52.612677 
L 814.854881 49.722282 
L 810.931234 51.740344 
L 807.007588 54.585024 
L 803.083942 51.68686 
L 799.160296 52.926113 
L 795.236649 55.947828 
L 791.313003 55.132865 
L 787.389357 51.328007 
L 783.46571 53.782161 
L 779.542064 50.096822 
L 775.618418 53.328739 
L 771.694771 54.693636 
L 767.771125 54.319544 
L 763.847479 56.79058 
L 759.923833 50.26833 
L 756.000186 50.936137 
L 752.07654 50.820354 
L 748.152894 55.583149 
L 744.229247 52.792103 
L 740.305601 45.662253 
L 736.381955 44.972335 
L 732.458308 51.593935 
L 728.534662 54.374373 
L 724.611016 53.309019 
L 720.68737 50.942113 
L 716.763723 53.622156 
L 712.840077 54.4298 
L 708.916431 54.265462 
L 704.992784 53.536253 
L 701.069138 52.528865 
L 697.145492 52.181964 
L 693.221846 50.301795 
L 689.298199 48.648412 
L 685.374553 44.706258 
L 681.450907 43.400224 
L 677.52726 50.818561 
L 673.603614 49.925761 
L 669.679968 49.028629 
L 665.756321 50.346316 
L 661.832675 51.302311 
L 657.909029 46.929145 
L 653.985383 48.719973 
L 650.061736 52.086499 
L 646.13809 48.18752 
L 642.214444 48.094147 
L 638.290797 42.479935 
L 634.367151 44.491424 
L 630.443505 44.145569 
L 626.519858 51.632629 
L 622.596212 40.356398 
L 618.672566 49.565265 
L 614.74892 50.762537 
L 610.825273 56.762643 
L 606.901627 54.603549 
L 602.977981 51.956074 
L 599.054334 52.164932 
L 595.130688 41.982591 
L 591.207042 40.956827 
L 587.283395 47.787583 
L 583.359749 50.80646 
L 579.436103 48.845467 
L 575.512457 49.954595 
L 571.58881 50.333318 
L 567.665164 50.815723 
L 563.741518 53.680123 
L 559.817871 54.747419 
L 555.894225 53.764831 
L 551.970579 50.650489 
L 548.046932 45.791183 
L 544.123286 44.832648 
L 540.19964 41.500186 
L 536.275994 44.635444 
L 532.352347 44.600335 
L 528.428701 40.036538 
L 524.505055 43.230658 
L 520.581408 46.3078 
L 516.657762 46.694292 
L 512.734116 45.571718 
L 508.810469 42.340846 
L 504.886823 45.259178 
L 500.963177 49.530455 
L 497.039531 49.848373 
L 493.115884 51.614103 
L 489.192238 46.575371 
L 485.268592 46.589564 
L 481.344945 43.959569 
L 477.421299 50.830065 
L 473.497653 48.707424 
L 469.574006 47.794605 
L 465.65036 50.01525 
L 461.726714 49.927405 
L 457.803068 41.815116 
L 453.879421 50.024961 
L 449.955775 46.550123 
L 446.032129 45.292793 
L 442.108482 40.015323 
L 438.184836 39.098919 
L 434.26119 46.619742 
L 430.337543 46.680696 
L 426.413897 47.526137 
L 422.490251 52.645246 
L 418.566605 48.638402 
L 414.642958 51.470682 
L 410.719312 38.99449 
L 406.795666 43.717097 
L 402.872019 48.377853 
L 398.948373 44.609747 
L 395.024727 42.560759 
L 391.10108 39.471367 
L 387.177434 41.508552 
L 383.253788 38.826716 
L 379.330142 39.882061 
L 375.406495 41.523791 
L 371.482849 41.039145 
L 367.559203 40.815497 
L 363.635556 41.674981 
L 359.71191 42.616933 
L 355.788264 41.385598 
L 351.864617 43.261285 
L 347.940971 42.564644 
L 344.017325 41.849926 
L 340.093679 41.540224 
L 336.170032 38.853608 
L 332.246386 41.5214 
L 328.32274 43.392456 
L 324.399093 41.202138 
L 320.475447 42.077458 
L 316.551801 41.384104 
L 312.628154 47.081231 
L 308.704508 48.572518 
L 304.780862 50.767019 
L 300.857216 46.983227 
L 296.933569 47.653125 
L 293.009923 46.668446 
L 289.086277 43.350923 
L 285.16263 45.105747 
L 281.238984 47.871843 
L 277.315338 47.373453 
L 273.391692 44.428528 
L 269.468045 46.176778 
L 265.544399 43.434586 
L 261.620753 43.531545 
L 257.697106 42.645767 
L 253.77346 45.435617 
L 249.849814 42.926335 
L 245.926167 43.118759 
L 242.002521 47.348802 
L 238.078875 44.905554 
L 234.155229 45.167299 
L 230.231582 46.156759 
L 226.307936 44.976369 
L 222.38429 43.274133 
L 218.460643 44.561193 
L 214.536997 46.163034 
L 210.613351 44.371159 
L 206.689704 42.824595 
L 202.766058 44.343371 
L 198.842412 42.858509 
L 194.918766 45.283381 
L 190.995119 42.526249 
L 187.071473 46.801858 
L 183.147827 39.094138 
L 179.22418 43.284292 
L 175.300534 40.263025 
L 171.376888 44.950224 
L 167.453241 41.163892 
L 163.529595 43.958374 
L 159.605949 43.735024 
L 155.682303 42.024273 
L 151.758656 40.700311 
L 147.83501 42.327998 
L 143.911364 44.353232 
z
" clip-path="url(#pd041b72619)" style="fill: #2ca02c"/>
   </g>
   <g id="matplotlib.axis_1">
    <g id="xtick_1">
     <g id="line2d_1">
      <path d="M 143.911364 331.64 
L 143.911364 23.76 
" clip-path="url(#pd041b72619)" style="fill: none; stroke-dasharray: 5.12,1.28,0.8,1.28; stroke-dashoffset: 0; stroke: #b0b0b0; stroke-width: 0.8"/>
     </g>
     <g id="line2d_2">
      <defs>
       <path id="mb21fdb7eef" d="M 0 0 
L 0 3.5 
" style="stroke: #000000; stroke-width: 0.8"/>
      </defs>
      <g>
       <use xlink:href="#mb21fdb7eef" x="143.911364" y="331.64" style="stroke: #000000; stroke-width: 0.8"/>
      </g>
     </g>
     <g id="text_1">
      <!-- 0 -->
      <g transform="translate(136.912614 355.356563)scale(0.22 -0.22)">
       <defs>
        <path id="DejaVuSans-30" d="M 2034 4250 
Q 1547 4250 1301 3770 
Q 1056 3291 1056 2328 
Q 1056 1369 1301 889 
Q 1547 409 2034 409 
Q 2525 409 2770 889 
Q 3016 1369 3016 2328 
Q 3016 3291 2770 3770 
Q 2525 4250 2034 4250 
z
M 2034 4750 
Q 2819 4750 3233 4129 
Q 3647 3509 3647 2328 
Q 3647 1150 3233 529 
Q 2819 -91 2034 -91 
Q 1250 -91 836 529 
Q 422 1150 422 2328 
Q 422 3509 836 4129 
Q 1250 4750 2034 4750 
z
" transform="scale(0.015625)"/>
       </defs>
       <use xlink:href="#DejaVuSans-30"/>
      </g>
     </g>
    </g>
    <g id="xtick_2">
     <g id="line2d_3">
      <path d="M 242.002521 331.64 
L 242.002521 23.76 
" clip-path="url(#pd041b72619)" style="fill: none; stroke-dasharray: 5.12,1.28,0.8,1.28; stroke-dashoffset: 0; stroke: #b0b0b0; stroke-width: 0.8"/>
     </g>
     <g id="line2d_4">
      <g>
       <use xlink:href="#mb21fdb7eef" x="242.002521" y="331.64" style="stroke: #000000; stroke-width: 0.8"/>
      </g>
     </g>
     <g id="text_2">
      <!-- 25 -->
      <g transform="translate(228.005021 355.356563)scale(0.22 -0.22)">
       <defs>
        <path id="DejaVuSans-32" d="M 1228 531 
L 3431 531 
L 3431 0 
L 469 0 
L 469 531 
Q 828 903 1448 1529 
Q 2069 2156 2228 2338 
Q 2531 2678 2651 2914 
Q 2772 3150 2772 3378 
Q 2772 3750 2511 3984 
Q 2250 4219 1831 4219 
Q 1534 4219 1204 4116 
Q 875 4013 500 3803 
L 500 4441 
Q 881 4594 1212 4672 
Q 1544 4750 1819 4750 
Q 2544 4750 2975 4387 
Q 3406 4025 3406 3419 
Q 3406 3131 3298 2873 
Q 3191 2616 2906 2266 
Q 2828 2175 2409 1742 
Q 1991 1309 1228 531 
z
" transform="scale(0.015625)"/>
        <path id="DejaVuSans-35" d="M 691 4666 
L 3169 4666 
L 3169 4134 
L 1269 4134 
L 1269 2991 
Q 1406 3038 1543 3061 
Q 1681 3084 1819 3084 
Q 2600 3084 3056 2656 
Q 3513 2228 3513 1497 
Q 3513 744 3044 326 
Q 2575 -91 1722 -91 
Q 1428 -91 1123 -41 
Q 819 9 494 109 
L 494 744 
Q 775 591 1075 516 
Q 1375 441 1709 441 
Q 2250 441 2565 725 
Q 2881 1009 2881 1497 
Q 2881 1984 2565 2268 
Q 2250 2553 1709 2553 
Q 1456 2553 1204 2497 
Q 953 2441 691 2322 
L 691 4666 
z
" transform="scale(0.015625)"/>
       </defs>
       <use xlink:href="#DejaVuSans-32"/>
       <use xlink:href="#DejaVuSans-35" x="63.623047"/>
      </g>
     </g>
    </g>
    <g id="xtick_3">
     <g id="line2d_5">
      <path d="M 340.093679 331.64 
L 340.093679 23.76 
" clip-path="url(#pd041b72619)" style="fill: none; stroke-dasharray: 5.12,1.28,0.8,1.28; stroke-dashoffset: 0; stroke: #b0b0b0; stroke-width: 0.8"/>
     </g>
     <g id="line2d_6">
      <g>
       <use xlink:href="#mb21fdb7eef" x="340.093679" y="331.64" style="stroke: #000000; stroke-width: 0.8"/>
      </g>
     </g>
     <g id="text_3">
      <!-- 50 -->
      <g transform="translate(326.096179 355.356563)scale(0.22 -0.22)">
       <use xlink:href="#DejaVuSans-35"/>
       <use xlink:href="#DejaVuSans-30" x="63.623047"/>
      </g>
     </g>
    </g>
    <g id="xtick_4">
     <g id="line2d_7">
      <path d="M 438.184836 331.64 
L 438.184836 23.76 
" clip-path="url(#pd041b72619)" style="fill: none; stroke-dasharray: 5.12,1.28,0.8,1.28; stroke-dashoffset: 0; stroke: #b0b0b0; stroke-width: 0.8"/>
     </g>
     <g id="line2d_8">
      <g>
       <use xlink:href="#mb21fdb7eef" x="438.184836" y="331.64" style="stroke: #000000; stroke-width: 0.8"/>
      </g>
     </g>
     <g id="text_4">
      <!-- 75 -->
      <g transform="translate(424.187336 355.356563)scale(0.22 -0.22)">
       <defs>
        <path id="DejaVuSans-37" d="M 525 4666 
L 3525 4666 
L 3525 4397 
L 1831 0 
L 1172 0 
L 2766 4134 
L 525 4134 
L 525 4666 
z
" transform="scale(0.015625)"/>
       </defs>
       <use xlink:href="#DejaVuSans-37"/>
       <use xlink:href="#DejaVuSans-35" x="63.623047"/>
      </g>
     </g>
    </g>
    <g id="xtick_5">
     <g id="line2d_9">
      <path d="M 536.275994 331.64 
L 536.275994 23.76 
" clip-path="url(#pd041b72619)" style="fill: none; stroke-dasharray: 5.12,1.28,0.8,1.28; stroke-dashoffset: 0; stroke: #b0b0b0; stroke-width: 0.8"/>
     </g>
     <g id="line2d_10">
      <g>
       <use xlink:href="#mb21fdb7eef" x="536.275994" y="331.64" style="stroke: #000000; stroke-width: 0.8"/>
      </g>
     </g>
     <g id="text_5">
      <!-- 100 -->
      <g transform="translate(515.279744 355.356563)scale(0.22 -0.22)">
       <defs>
        <path id="DejaVuSans-31" d="M 794 531 
L 1825 531 
L 1825 4091 
L 703 3866 
L 703 4441 
L 1819 4666 
L 2450 4666 
L 2450 531 
L 3481 531 
L 3481 0 
L 794 0 
L 794 531 
z
" transform="scale(0.015625)"/>
       </defs>
       <use xlink:href="#DejaVuSans-31"/>
       <use xlink:href="#DejaVuSans-30" x="63.623047"/>
       <use xlink:href="#DejaVuSans-30" x="127.246094"/>
      </g>
     </g>
    </g>
    <g id="xtick_6">
     <g id="line2d_11">
      <path d="M 634.367151 331.64 
L 634.367151 23.76 
" clip-path="url(#pd041b72619)" style="fill: none; stroke-dasharray: 5.12,1.28,0.8,1.28; stroke-dashoffset: 0; stroke: #b0b0b0; stroke-width: 0.8"/>
     </g>
     <g id="line2d_12">
      <g>
       <use xlink:href="#mb21fdb7eef" x="634.367151" y="331.64" style="stroke: #000000; stroke-width: 0.8"/>
      </g>
     </g>
     <g id="text_6">
      <!-- 125 -->
      <g transform="translate(613.370901 355.356563)scale(0.22 -0.22)">
       <use xlink:href="#DejaVuSans-31"/>
       <use xlink:href="#DejaVuSans-32" x="63.623047"/>
       <use xlink:href="#DejaVuSans-35" x="127.246094"/>
      </g>
     </g>
    </g>
    <g id="xtick_7">
     <g id="line2d_13">
      <path d="M 732.458308 331.64 
L 732.458308 23.76 
" clip-path="url(#pd041b72619)" style="fill: none; stroke-dasharray: 5.12,1.28,0.8,1.28; stroke-dashoffset: 0; stroke: #b0b0b0; stroke-width: 0.8"/>
     </g>
     <g id="line2d_14">
      <g>
       <use xlink:href="#mb21fdb7eef" x="732.458308" y="331.64" style="stroke: #000000; stroke-width: 0.8"/>
      </g>
     </g>
     <g id="text_7">
      <!-- 150 -->
      <g transform="translate(711.462058 355.356563)scale(0.22 -0.22)">
       <use xlink:href="#DejaVuSans-31"/>
       <use xlink:href="#DejaVuSans-35" x="63.623047"/>
       <use xlink:href="#DejaVuSans-30" x="127.246094"/>
      </g>
     </g>
    </g>
    <g id="xtick_8">
     <g id="line2d_15">
      <path d="M 830.549466 331.64 
L 830.549466 23.76 
" clip-path="url(#pd041b72619)" style="fill: none; stroke-dasharray: 5.12,1.28,0.8,1.28; stroke-dashoffset: 0; stroke: #b0b0b0; stroke-width: 0.8"/>
     </g>
     <g id="line2d_16">
      <g>
       <use xlink:href="#mb21fdb7eef" x="830.549466" y="331.64" style="stroke: #000000; stroke-width: 0.8"/>
      </g>
     </g>
     <g id="text_8">
      <!-- 175 -->
      <g transform="translate(809.553216 355.356563)scale(0.22 -0.22)">
       <use xlink:href="#DejaVuSans-31"/>
       <use xlink:href="#DejaVuSans-37" x="63.623047"/>
       <use xlink:href="#DejaVuSans-35" x="127.246094"/>
      </g>
     </g>
    </g>
    <g id="text_9">
     <!-- Time (s) -->
     <g transform="translate(454.135625 382.168125)scale(0.24 -0.24)">
      <defs>
       <path id="DejaVuSans-54" d="M -19 4666 
L 3928 4666 
L 3928 4134 
L 2272 4134 
L 2272 0 
L 1638 0 
L 1638 4134 
L -19 4134 
L -19 4666 
z
" transform="scale(0.015625)"/>
       <path id="DejaVuSans-69" d="M 603 3500 
L 1178 3500 
L 1178 0 
L 603 0 
L 603 3500 
z
M 603 4863 
L 1178 4863 
L 1178 4134 
L 603 4134 
L 603 4863 
z
" transform="scale(0.015625)"/>
       <path id="DejaVuSans-6d" d="M 3328 2828 
Q 3544 3216 3844 3400 
Q 4144 3584 4550 3584 
Q 5097 3584 5394 3201 
Q 5691 2819 5691 2113 
L 5691 0 
L 5113 0 
L 5113 2094 
Q 5113 2597 4934 2840 
Q 4756 3084 4391 3084 
Q 3944 3084 3684 2787 
Q 3425 2491 3425 1978 
L 3425 0 
L 2847 0 
L 2847 2094 
Q 2847 2600 2669 2842 
Q 2491 3084 2119 3084 
Q 1678 3084 1418 2786 
Q 1159 2488 1159 1978 
L 1159 0 
L 581 0 
L 581 3500 
L 1159 3500 
L 1159 2956 
Q 1356 3278 1631 3431 
Q 1906 3584 2284 3584 
Q 2666 3584 2933 3390 
Q 3200 3197 3328 2828 
z
" transform="scale(0.015625)"/>
       <path id="DejaVuSans-65" d="M 3597 1894 
L 3597 1613 
L 953 1613 
Q 991 1019 1311 708 
Q 1631 397 2203 397 
Q 2534 397 2845 478 
Q 3156 559 3463 722 
L 3463 178 
Q 3153 47 2828 -22 
Q 2503 -91 2169 -91 
Q 1331 -91 842 396 
Q 353 884 353 1716 
Q 353 2575 817 3079 
Q 1281 3584 2069 3584 
Q 2775 3584 3186 3129 
Q 3597 2675 3597 1894 
z
M 3022 2063 
Q 3016 2534 2758 2815 
Q 2500 3097 2075 3097 
Q 1594 3097 1305 2825 
Q 1016 2553 972 2059 
L 3022 2063 
z
" transform="scale(0.015625)"/>
       <path id="DejaVuSans-20" transform="scale(0.015625)"/>
       <path id="DejaVuSans-28" d="M 1984 4856 
Q 1566 4138 1362 3434 
Q 1159 2731 1159 2009 
Q 1159 1288 1364 580 
Q 1569 -128 1984 -844 
L 1484 -844 
Q 1016 -109 783 600 
Q 550 1309 550 2009 
Q 550 2706 781 3412 
Q 1013 4119 1484 4856 
L 1984 4856 
z
" transform="scale(0.015625)"/>
       <path id="DejaVuSans-73" d="M 2834 3397 
L 2834 2853 
Q 2591 2978 2328 3040 
Q 2066 3103 1784 3103 
Q 1356 3103 1142 2972 
Q 928 2841 928 2578 
Q 928 2378 1081 2264 
Q 1234 2150 1697 2047 
L 1894 2003 
Q 2506 1872 2764 1633 
Q 3022 1394 3022 966 
Q 3022 478 2636 193 
Q 2250 -91 1575 -91 
Q 1294 -91 989 -36 
Q 684 19 347 128 
L 347 722 
Q 666 556 975 473 
Q 1284 391 1588 391 
Q 1994 391 2212 530 
Q 2431 669 2431 922 
Q 2431 1156 2273 1281 
Q 2116 1406 1581 1522 
L 1381 1569 
Q 847 1681 609 1914 
Q 372 2147 372 2553 
Q 372 3047 722 3315 
Q 1072 3584 1716 3584 
Q 2034 3584 2315 3537 
Q 2597 3491 2834 3397 
z
" transform="scale(0.015625)"/>
       <path id="DejaVuSans-29" d="M 513 4856 
L 1013 4856 
Q 1481 4119 1714 3412 
Q 1947 2706 1947 2009 
Q 1947 1309 1714 600 
Q 1481 -109 1013 -844 
L 513 -844 
Q 928 -128 1133 580 
Q 1338 1288 1338 2009 
Q 1338 2731 1133 3434 
Q 928 4138 513 4856 
z
" transform="scale(0.015625)"/>
      </defs>
      <use xlink:href="#DejaVuSans-54"/>
      <use xlink:href="#DejaVuSans-69" x="57.958984"/>
      <use xlink:href="#DejaVuSans-6d" x="85.742188"/>
      <use xlink:href="#DejaVuSans-65" x="183.154297"/>
      <use xlink:href="#DejaVuSans-20" x="244.677734"/>
      <use xlink:href="#DejaVuSans-28" x="276.464844"/>
      <use xlink:href="#DejaVuSans-73" x="315.478516"/>
      <use xlink:href="#DejaVuSans-29" x="367.578125"/>
     </g>
    </g>
   </g>
   <g id="matplotlib.axis_2">
    <g id="ytick_1">
     <g id="line2d_17">
      <path d="M 108.01 331.64 
L 897.84 331.64 
" clip-path="url(#pd041b72619)" style="fill: none; stroke-dasharray: 5.12,1.28,0.8,1.28; stroke-dashoffset: 0; stroke: #b0b0b0; stroke-width: 0.8"/>
     </g>
     <g id="line2d_18">
      <defs>
       <path id="ma895b4112a" d="M 0 0 
L -3.5 0 
" style="stroke: #000000; stroke-width: 0.8"/>
      </defs>
      <g>
       <use xlink:href="#ma895b4112a" x="108.01" y="331.64" style="stroke: #000000; stroke-width: 0.8"/>
      </g>
     </g>
     <g id="text_10">
      <!-- 0 -->
      <g transform="translate(87.0125 339.998281)scale(0.22 -0.22)">
       <use xlink:href="#DejaVuSans-30"/>
      </g>
     </g>
    </g>
    <g id="ytick_2">
     <g id="line2d_19">
      <path d="M 108.01 238.266512 
L 897.84 238.266512 
" clip-path="url(#pd041b72619)" style="fill: none; stroke-dasharray: 5.12,1.28,0.8,1.28; stroke-dashoffset: 0; stroke: #b0b0b0; stroke-width: 0.8"/>
     </g>
     <g id="line2d_20">
      <g>
       <use xlink:href="#ma895b4112a" x="108.01" y="238.266512" style="stroke: #000000; stroke-width: 0.8"/>
      </g>
     </g>
     <g id="text_11">
      <!-- 5 -->
      <g transform="translate(87.0125 246.624793)scale(0.22 -0.22)">
       <use xlink:href="#DejaVuSans-35"/>
      </g>
     </g>
    </g>
    <g id="ytick_3">
     <g id="line2d_21">
      <path d="M 108.01 144.893023 
L 897.84 144.893023 
" clip-path="url(#pd041b72619)" style="fill: none; stroke-dasharray: 5.12,1.28,0.8,1.28; stroke-dashoffset: 0; stroke: #b0b0b0; stroke-width: 0.8"/>
     </g>
     <g id="line2d_22">
      <g>
       <use xlink:href="#ma895b4112a" x="108.01" y="144.893023" style="stroke: #000000; stroke-width: 0.8"/>
      </g>
     </g>
     <g id="text_12">
      <!-- 10 -->
      <g transform="translate(73.015 153.251304)scale(0.22 -0.22)">
       <use xlink:href="#DejaVuSans-31"/>
       <use xlink:href="#DejaVuSans-30" x="63.623047"/>
      </g>
     </g>
    </g>
    <g id="ytick_4">
     <g id="line2d_23">
      <path d="M 108.01 51.519535 
L 897.84 51.519535 
" clip-path="url(#pd041b72619)" style="fill: none; stroke-dasharray: 5.12,1.28,0.8,1.28; stroke-dashoffset: 0; stroke: #b0b0b0; stroke-width: 0.8"/>
     </g>
     <g id="line2d_24">
      <g>
       <use xlink:href="#ma895b4112a" x="108.01" y="51.519535" style="stroke: #000000; stroke-width: 0.8"/>
      </g>
     </g>
     <g id="text_13">
      <!-- 15 -->
      <g transform="translate(73.015 59.877816)scale(0.22 -0.22)">
       <use xlink:href="#DejaVuSans-31"/>
       <use xlink:href="#DejaVuSans-35" x="63.623047"/>
      </g>
     </g>
    </g>
    <g id="text_14">
     <!-- Throughput (Mbps) -->
     <g transform="translate(64.02375 292.414375)rotate(-90)scale(0.24 -0.24)">
      <defs>
       <path id="DejaVuSans-68" d="M 3513 2113 
L 3513 0 
L 2938 0 
L 2938 2094 
Q 2938 2591 2744 2837 
Q 2550 3084 2163 3084 
Q 1697 3084 1428 2787 
Q 1159 2491 1159 1978 
L 1159 0 
L 581 0 
L 581 4863 
L 1159 4863 
L 1159 2956 
Q 1366 3272 1645 3428 
Q 1925 3584 2291 3584 
Q 2894 3584 3203 3211 
Q 3513 2838 3513 2113 
z
" transform="scale(0.015625)"/>
       <path id="DejaVuSans-72" d="M 2631 2963 
Q 2534 3019 2420 3045 
Q 2306 3072 2169 3072 
Q 1681 3072 1420 2755 
Q 1159 2438 1159 1844 
L 1159 0 
L 581 0 
L 581 3500 
L 1159 3500 
L 1159 2956 
Q 1341 3275 1631 3429 
Q 1922 3584 2338 3584 
Q 2397 3584 2469 3576 
Q 2541 3569 2628 3553 
L 2631 2963 
z
" transform="scale(0.015625)"/>
       <path id="DejaVuSans-6f" d="M 1959 3097 
Q 1497 3097 1228 2736 
Q 959 2375 959 1747 
Q 959 1119 1226 758 
Q 1494 397 1959 397 
Q 2419 397 2687 759 
Q 2956 1122 2956 1747 
Q 2956 2369 2687 2733 
Q 2419 3097 1959 3097 
z
M 1959 3584 
Q 2709 3584 3137 3096 
Q 3566 2609 3566 1747 
Q 3566 888 3137 398 
Q 2709 -91 1959 -91 
Q 1206 -91 779 398 
Q 353 888 353 1747 
Q 353 2609 779 3096 
Q 1206 3584 1959 3584 
z
" transform="scale(0.015625)"/>
       <path id="DejaVuSans-75" d="M 544 1381 
L 544 3500 
L 1119 3500 
L 1119 1403 
Q 1119 906 1312 657 
Q 1506 409 1894 409 
Q 2359 409 2629 706 
Q 2900 1003 2900 1516 
L 2900 3500 
L 3475 3500 
L 3475 0 
L 2900 0 
L 2900 538 
Q 2691 219 2414 64 
Q 2138 -91 1772 -91 
Q 1169 -91 856 284 
Q 544 659 544 1381 
z
M 1991 3584 
L 1991 3584 
z
" transform="scale(0.015625)"/>
       <path id="DejaVuSans-67" d="M 2906 1791 
Q 2906 2416 2648 2759 
Q 2391 3103 1925 3103 
Q 1463 3103 1205 2759 
Q 947 2416 947 1791 
Q 947 1169 1205 825 
Q 1463 481 1925 481 
Q 2391 481 2648 825 
Q 2906 1169 2906 1791 
z
M 3481 434 
Q 3481 -459 3084 -895 
Q 2688 -1331 1869 -1331 
Q 1566 -1331 1297 -1286 
Q 1028 -1241 775 -1147 
L 775 -588 
Q 1028 -725 1275 -790 
Q 1522 -856 1778 -856 
Q 2344 -856 2625 -561 
Q 2906 -266 2906 331 
L 2906 616 
Q 2728 306 2450 153 
Q 2172 0 1784 0 
Q 1141 0 747 490 
Q 353 981 353 1791 
Q 353 2603 747 3093 
Q 1141 3584 1784 3584 
Q 2172 3584 2450 3431 
Q 2728 3278 2906 2969 
L 2906 3500 
L 3481 3500 
L 3481 434 
z
" transform="scale(0.015625)"/>
       <path id="DejaVuSans-70" d="M 1159 525 
L 1159 -1331 
L 581 -1331 
L 581 3500 
L 1159 3500 
L 1159 2969 
Q 1341 3281 1617 3432 
Q 1894 3584 2278 3584 
Q 2916 3584 3314 3078 
Q 3713 2572 3713 1747 
Q 3713 922 3314 415 
Q 2916 -91 2278 -91 
Q 1894 -91 1617 61 
Q 1341 213 1159 525 
z
M 3116 1747 
Q 3116 2381 2855 2742 
Q 2594 3103 2138 3103 
Q 1681 3103 1420 2742 
Q 1159 2381 1159 1747 
Q 1159 1113 1420 752 
Q 1681 391 2138 391 
Q 2594 391 2855 752 
Q 3116 1113 3116 1747 
z
" transform="scale(0.015625)"/>
       <path id="DejaVuSans-74" d="M 1172 4494 
L 1172 3500 
L 2356 3500 
L 2356 3053 
L 1172 3053 
L 1172 1153 
Q 1172 725 1289 603 
Q 1406 481 1766 481 
L 2356 481 
L 2356 0 
L 1766 0 
Q 1100 0 847 248 
Q 594 497 594 1153 
L 594 3053 
L 172 3053 
L 172 3500 
L 594 3500 
L 594 4494 
L 1172 4494 
z
" transform="scale(0.015625)"/>
       <path id="DejaVuSans-4d" d="M 628 4666 
L 1569 4666 
L 2759 1491 
L 3956 4666 
L 4897 4666 
L 4897 0 
L 4281 0 
L 4281 4097 
L 3078 897 
L 2444 897 
L 1241 4097 
L 1241 0 
L 628 0 
L 628 4666 
z
" transform="scale(0.015625)"/>
       <path id="DejaVuSans-62" d="M 3116 1747 
Q 3116 2381 2855 2742 
Q 2594 3103 2138 3103 
Q 1681 3103 1420 2742 
Q 1159 2381 1159 1747 
Q 1159 1113 1420 752 
Q 1681 391 2138 391 
Q 2594 391 2855 752 
Q 3116 1113 3116 1747 
z
M 1159 2969 
Q 1341 3281 1617 3432 
Q 1894 3584 2278 3584 
Q 2916 3584 3314 3078 
Q 3713 2572 3713 1747 
Q 3713 922 3314 415 
Q 2916 -91 2278 -91 
Q 1894 -91 1617 61 
Q 1341 213 1159 525 
L 1159 0 
L 581 0 
L 581 4863 
L 1159 4863 
L 1159 2969 
z
" transform="scale(0.015625)"/>
      </defs>
      <use xlink:href="#DejaVuSans-54"/>
      <use xlink:href="#DejaVuSans-68" x="61.083984"/>
      <use xlink:href="#DejaVuSans-72" x="124.462891"/>
      <use xlink:href="#DejaVuSans-6f" x="163.326172"/>
      <use xlink:href="#DejaVuSans-75" x="224.507812"/>
      <use xlink:href="#DejaVuSans-67" x="287.886719"/>
      <use xlink:href="#DejaVuSans-68" x="351.363281"/>
      <use xlink:href="#DejaVuSans-70" x="414.742188"/>
      <use xlink:href="#DejaVuSans-75" x="478.21875"/>
      <use xlink:href="#DejaVuSans-74" x="541.597656"/>
      <use xlink:href="#DejaVuSans-20" x="580.806641"/>
      <use xlink:href="#DejaVuSans-28" x="612.59375"/>
      <use xlink:href="#DejaVuSans-4d" x="651.607422"/>
      <use xlink:href="#DejaVuSans-62" x="737.886719"/>
      <use xlink:href="#DejaVuSans-70" x="801.363281"/>
      <use xlink:href="#DejaVuSans-73" x="864.839844"/>
      <use xlink:href="#DejaVuSans-29" x="916.939453"/>
     </g>
    </g>
   </g>
   <g id="patch_3">
    <path d="M 108.01 331.64 
L 108.01 23.76 
" style="fill: none; stroke: #000000; stroke-width: 0.8; stroke-linejoin: miter; stroke-linecap: square"/>
   </g>
   <g id="patch_4">
    <path d="M 897.84 331.64 
L 897.84 23.76 
" style="fill: none; stroke: #000000; stroke-width: 0.8; stroke-linejoin: miter; stroke-linecap: square"/>
   </g>
   <g id="patch_5">
    <path d="M 108.01 331.64 
L 897.84 331.64 
" style="fill: none; stroke: #000000; stroke-width: 0.8; stroke-linejoin: miter; stroke-linecap: square"/>
   </g>
   <g id="patch_6">
    <path d="M 108.01 23.76 
L 897.84 23.76 
" style="fill: none; stroke: #000000; stroke-width: 0.8; stroke-linejoin: miter; stroke-linecap: square"/>
   </g>
   <g id="legend_1">
    <g id="patch_7">
     <path d="M 756.24 148.6425 
L 881.04 148.6425 
Q 885.84 148.6425 885.84 143.8425 
L 885.84 40.56 
Q 885.84 35.76 881.04 35.76 
L 756.24 35.76 
Q 751.44 35.76 751.44 40.56 
L 751.44 143.8425 
Q 751.44 148.6425 756.24 148.6425 
z
" style="fill: #ffffff; opacity: 0.8; stroke: #cccccc; stroke-linejoin: miter"/>
    </g>
    <g id="patch_8">
     <path d="M 761.04 63.59625 
L 809.04 63.59625 
L 809.04 46.79625 
L 761.04 46.79625 
z
" style="fill: #1f77b4"/>
    </g>
    <g id="text_15">
     <!-- UE1 -->
     <g transform="translate(828.24 63.59625)scale(0.24 -0.24)">
      <defs>
       <path id="DejaVuSans-55" d="M 556 4666 
L 1191 4666 
L 1191 1831 
Q 1191 1081 1462 751 
Q 1734 422 2344 422 
Q 2950 422 3222 751 
Q 3494 1081 3494 1831 
L 3494 4666 
L 4128 4666 
L 4128 1753 
Q 4128 841 3676 375 
Q 3225 -91 2344 -91 
Q 1459 -91 1007 375 
Q 556 841 556 1753 
L 556 4666 
z
" transform="scale(0.015625)"/>
       <path id="DejaVuSans-45" d="M 628 4666 
L 3578 4666 
L 3578 4134 
L 1259 4134 
L 1259 2753 
L 3481 2753 
L 3481 2222 
L 1259 2222 
L 1259 531 
L 3634 531 
L 3634 0 
L 628 0 
L 628 4666 
z
" transform="scale(0.015625)"/>
      </defs>
      <use xlink:href="#DejaVuSans-55"/>
      <use xlink:href="#DejaVuSans-45" x="73.193359"/>
      <use xlink:href="#DejaVuSans-31" x="136.376953"/>
     </g>
    </g>
    <g id="patch_9">
     <path d="M 761.04 98.82375 
L 809.04 98.82375 
L 809.04 82.02375 
L 761.04 82.02375 
z
" style="fill: #ff7f0e"/>
    </g>
    <g id="text_16">
     <!-- UE2 -->
     <g transform="translate(828.24 98.82375)scale(0.24 -0.24)">
      <use xlink:href="#DejaVuSans-55"/>
      <use xlink:href="#DejaVuSans-45" x="73.193359"/>
      <use xlink:href="#DejaVuSans-32" x="136.376953"/>
     </g>
    </g>
    <g id="patch_10">
     <path d="M 761.04 134.05125 
L 809.04 134.05125 
L 809.04 117.25125 
L 761.04 117.25125 
z
" style="fill: #2ca02c"/>
    </g>
    <g id="text_17">
     <!-- UE3 -->
     <g transform="translate(828.24 134.05125)scale(0.24 -0.24)">
      <defs>
       <path id="DejaVuSans-33" d="M 2597 2516 
Q 3050 2419 3304 2112 
Q 3559 1806 3559 1356 
Q 3559 666 3084 287 
Q 2609 -91 1734 -91 
Q 1441 -91 1130 -33 
Q 819 25 488 141 
L 488 750 
Q 750 597 1062 519 
Q 1375 441 1716 441 
Q 2309 441 2620 675 
Q 2931 909 2931 1356 
Q 2931 1769 2642 2001 
Q 2353 2234 1838 2234 
L 1294 2234 
L 1294 2753 
L 1863 2753 
Q 2328 2753 2575 2939 
Q 2822 3125 2822 3475 
Q 2822 3834 2567 4026 
Q 2313 4219 1838 4219 
Q 1578 4219 1281 4162 
Q 984 4106 628 3988 
L 628 4550 
Q 988 4650 1302 4700 
Q 1616 4750 1894 4750 
Q 2613 4750 3031 4423 
Q 3450 4097 3450 3541 
Q 3450 3153 3228 2886 
Q 3006 2619 2597 2516 
z
" transform="scale(0.015625)"/>
      </defs>
      <use xlink:href="#DejaVuSans-55"/>
      <use xlink:href="#DejaVuSans-45" x="73.193359"/>
      <use xlink:href="#DejaVuSans-33" x="136.376953"/>
     </g>
    </g>
   </g>
  </g>
 </g>
 <defs>
  <clipPath id="pd041b72619">
   <rect x="108.01" y="23.76" width="789.83" height="307.88"/>
  </clipPath>
 </defs>
</svg>
