<?xml version="1.0" encoding="utf-8" standalone="no"?>
<!DOCTYPE svg PUBLIC "-//W3C//DTD SVG 1.1//EN"
  "http://www.w3.org/Graphics/SVG/1.1/DTD/svg11.dtd">
<svg xmlns:xlink="http://www.w3.org/1999/xlink" width="921.6pt" height="410.4pt" viewBox="0 0 921.6 410.4" xmlns="http://www.w3.org/2000/svg" version="1.1">
 <metadata>
  <rdf:RDF xmlns:dc="http://purl.org/dc/elements/1.1/" xmlns:cc="http://creativecommons.org/ns#" xmlns:rdf="http://www.w3.org/1999/02/22-rdf-syntax-ns#">
   <cc:Work>
    <dc:type rdf:resource="http://purl.org/dc/dcmitype/StillImage"/>
    <dc:date>2023-04-11T17:41:07.110864</dc:date>
    <dc:format>image/svg+xml</dc:format>
    <dc:creator>
     <cc:Agent>
      <dc:title>Matplotlib v3.5.3, https://matplotlib.org/</dc:title>
     </cc:Agent>
    </dc:creator>
   </cc:Work>
  </rdf:RDF>
 </metadata>
 <defs>
  <style type="text/css">*{stroke-linejoin: round; stroke-linecap: butt}</style>
 </defs>
 <g id="figure_1">
  <g id="patch_1">
   <path d="M 0 410.4 
L 921.6 410.4 
L 921.6 0 
L 0 0 
L 0 410.4 
z
" style="fill: none"/>
  </g>
  <g id="axes_1">
   <g id="patch_2">
    <path d="M 108.01 331.64 
L 897.84 331.64 
L 897.84 23.76 
L 108.01 23.76 
z
" style="fill: #ffffff"/>
   </g>
   <g id="PolyCollection_1">
    <path d="M 143.911364 234.061801 
L 143.911364 331.64 
L 147.856568 331.64 
L 151.801773 331.64 
L 155.746978 331.64 
L 159.692183 331.64 
L 163.637388 331.64 
L 167.582592 331.64 
L 171.527797 331.64 
L 175.473002 331.64 
L 179.418207 331.64 
L 183.363412 331.64 
L 187.308616 331.64 
L 191.253821 331.64 
L 195.199026 331.64 
L 199.144231 331.64 
L 203.089436 331.64 
L 207.03464 331.64 
L 210.979845 331.64 
L 214.92505 331.64 
L 218.870255 331.64 
L 222.81546 331.64 
L 226.760664 331.64 
L 230.705869 331.64 
L 234.651074 331.64 
L 238.596279 331.64 
L 242.541484 331.64 
L 246.486688 331.64 
L 250.431893 331.64 
L 254.377098 331.64 
L 258.322303 331.64 
L 262.267507 331.64 
L 266.212712 331.64 
L 270.157917 331.64 
L 274.103122 331.64 
L 278.048327 331.64 
L 281.993531 331.64 
L 285.938736 331.64 
L 289.883941 331.64 
L 293.829146 331.64 
L 297.774351 331.64 
L 301.719555 331.64 
L 305.66476 331.64 
L 309.609965 331.64 
L 313.55517 331.64 
L 317.500375 331.64 
L 321.445579 331.64 
L 325.390784 331.64 
L 329.335989 331.64 
L 333.281194 331.64 
L 337.226399 331.64 
L 341.171603 331.64 
L 345.116808 331.64 
L 349.062013 331.64 
L 353.007218 331.64 
L 356.952423 331.64 
L 360.897627 331.64 
L 364.842832 331.64 
L 368.788037 331.64 
L 372.733242 331.64 
L 376.678447 331.64 
L 380.623651 331.64 
L 384.568856 331.64 
L 388.514061 331.64 
L 392.459266 331.64 
L 396.404471 331.64 
L 400.349675 331.64 
L 404.29488 331.64 
L 408.240085 331.64 
L 412.18529 331.64 
L 416.130495 331.64 
L 420.075699 331.64 
L 424.020904 331.64 
L 427.966109 331.64 
L 431.911314 331.64 
L 435.856518 331.64 
L 439.801723 331.64 
L 443.746928 331.64 
L 447.692133 331.64 
L 451.637338 331.64 
L 455.582542 331.64 
L 459.527747 331.64 
L 463.472952 331.64 
L 467.418157 331.64 
L 471.363362 331.64 
L 475.308566 331.64 
L 479.253771 331.64 
L 483.198976 331.64 
L 487.144181 331.64 
L 491.089386 331.64 
L 495.03459 331.64 
L 498.979795 331.64 
L 502.925 331.64 
L 506.870205 331.64 
L 510.81541 331.64 
L 514.760614 331.64 
L 518.705819 331.64 
L 522.651024 331.64 
L 526.596229 331.64 
L 530.541434 331.64 
L 534.486638 331.64 
L 538.431843 331.64 
L 542.377048 331.64 
L 546.322253 331.64 
L 550.267458 331.64 
L 554.212662 331.64 
L 558.157867 331.64 
L 562.103072 331.64 
L 566.048277 331.64 
L 569.993482 331.64 
L 573.938686 331.64 
L 577.883891 331.64 
L 581.829096 331.64 
L 585.774301 331.64 
L 589.719505 331.64 
L 593.66471 331.64 
L 597.609915 331.64 
L 601.55512 331.64 
L 605.500325 331.64 
L 609.445529 331.64 
L 613.390734 331.64 
L 617.335939 331.64 
L 621.281144 331.64 
L 625.226349 331.64 
L 629.171553 331.64 
L 633.116758 331.64 
L 637.061963 331.64 
L 641.007168 331.64 
L 644.952373 331.64 
L 648.897577 331.64 
L 652.842782 331.64 
L 656.787987 331.64 
L 660.733192 331.64 
L 664.678397 331.64 
L 668.623601 331.64 
L 672.568806 331.64 
L 676.514011 331.64 
L 680.459216 331.64 
L 684.404421 331.64 
L 688.349625 331.64 
L 692.29483 331.64 
L 696.240035 331.64 
L 700.18524 331.64 
L 704.130445 331.64 
L 708.075649 331.64 
L 712.020854 331.64 
L 715.966059 331.64 
L 719.911264 331.64 
L 723.856469 331.64 
L 727.801673 331.64 
L 731.746878 331.64 
L 735.692083 331.64 
L 739.637288 331.64 
L 743.582493 331.64 
L 747.527697 331.64 
L 751.472902 331.64 
L 755.418107 331.64 
L 759.363312 331.64 
L 763.308516 331.64 
L 767.253721 331.64 
L 771.198926 331.64 
L 775.144131 331.64 
L 779.089336 331.64 
L 783.03454 331.64 
L 786.979745 331.64 
L 790.92495 331.64 
L 794.870155 331.64 
L 798.81536 331.64 
L 802.760564 331.64 
L 806.705769 331.64 
L 810.650974 331.64 
L 814.596179 331.64 
L 818.541384 331.64 
L 822.486588 331.64 
L 826.431793 331.64 
L 830.376998 331.64 
L 834.322203 331.64 
L 838.267408 331.64 
L 842.212612 331.64 
L 846.157817 331.64 
L 850.103022 331.64 
L 854.048227 331.64 
L 857.993432 331.64 
L 861.938636 331.64 
L 861.938636 235.837416 
L 861.938636 235.837416 
L 857.993432 237.422369 
L 854.048227 237.582453 
L 850.103022 235.430011 
L 846.157817 234.752951 
L 842.212612 235.689923 
L 838.267408 236.23313 
L 834.322203 234.951407 
L 830.376998 234.922178 
L 826.431793 235.283567 
L 822.486588 236.369381 
L 818.541384 234.07694 
L 814.596179 234.096725 
L 810.650974 234.611003 
L 806.705769 233.768913 
L 802.760564 235.677032 
L 798.81536 234.281542 
L 794.870155 234.511475 
L 790.92495 234.013985 
L 786.979745 234.981085 
L 783.03454 233.536431 
L 779.089336 235.883882 
L 775.144131 235.81793 
L 771.198926 234.971942 
L 767.253721 235.354315 
L 763.308516 235.329883 
L 759.363312 235.244295 
L 755.418107 234.982884 
L 751.472902 235.041342 
L 747.527697 234.160429 
L 743.582493 233.9242 
L 739.637288 235.060978 
L 735.692083 234.882307 
L 731.746878 235.12753 
L 727.801673 234.886354 
L 723.856469 235.230355 
L 719.911264 234.110066 
L 715.966059 234.460362 
L 712.020854 235.395086 
L 708.075649 235.108194 
L 704.130445 235.692621 
L 700.18524 233.086306 
L 696.240035 234.548349 
L 692.29483 235.577954 
L 688.349625 234.996974 
L 684.404421 235.269477 
L 680.459216 234.85053 
L 676.514011 234.192656 
L 672.568806 235.27892 
L 668.623601 234.268051 
L 664.678397 236.597966 
L 660.733192 234.538006 
L 656.787987 235.110892 
L 652.842782 234.785177 
L 648.897577 236.634839 
L 644.952373 235.295558 
L 641.007168 236.182316 
L 637.061963 236.130454 
L 633.116758 235.431659 
L 629.171553 234.627791 
L 625.226349 235.206972 
L 621.281144 234.644129 
L 617.335939 233.765915 
L 613.390734 235.524892 
L 609.445529 234.635735 
L 605.500325 235.258984 
L 601.55512 234.503531 
L 597.609915 234.316466 
L 593.66471 233.933044 
L 589.719505 235.26483 
L 585.774301 233.913408 
L 581.829096 234.954255 
L 577.883891 234.436979 
L 573.938686 235.243396 
L 569.993482 235.893026 
L 566.048277 235.14042 
L 562.103072 234.721773 
L 558.157867 234.760895 
L 554.212662 235.578853 
L 550.267458 234.211242 
L 546.322253 234.912885 
L 542.377048 234.233277 
L 538.431843 235.032948 
L 534.486638 234.369978 
L 530.541434 235.592343 
L 526.596229 235.04374 
L 522.651024 235.73459 
L 518.705819 235.765168 
L 514.760614 235.730693 
L 510.81541 235.694269 
L 506.870205 234.773935 
L 502.925 235.615726 
L 498.979795 234.798967 
L 495.03459 234.630939 
L 491.089386 235.160056 
L 487.144181 234.17377 
L 483.198976 234.211992 
L 479.253771 235.110442 
L 475.308566 234.792222 
L 471.363362 235.22376 
L 467.418157 234.535908 
L 463.472952 235.61003 
L 459.527747 234.832243 
L 455.582542 235.335279 
L 451.637338 234.769439 
L 447.692133 234.893249 
L 443.746928 235.497462 
L 439.801723 236.285292 
L 435.856518 235.897522 
L 431.911314 234.162378 
L 427.966109 235.750928 
L 424.020904 235.08526 
L 420.075699 234.083535 
L 416.130495 234.574879 
L 412.18529 235.321639 
L 408.240085 235.291511 
L 404.29488 235.822876 
L 400.349675 236.255913 
L 396.404471 236.071247 
L 392.459266 234.124156 
L 388.514061 234.69794 
L 384.568856 234.628391 
L 380.623651 240.907947 
L 376.678447 235.263031 
L 372.733242 235.631615 
L 368.788037 235.242346 
L 364.842832 235.346521 
L 360.897627 235.521295 
L 356.952423 234.224733 
L 353.007218 235.788401 
L 349.062013 235.080763 
L 345.116808 235.125431 
L 341.171603 235.663542 
L 337.226399 233.778356 
L 333.281194 234.696441 
L 329.335989 233.627865 
L 325.390784 234.208095 
L 321.445579 234.458414 
L 317.500375 234.418992 
L 313.55517 233.612276 
L 309.609965 235.643756 
L 305.66476 234.724321 
L 301.719555 235.400182 
L 297.774351 234.829845 
L 293.829146 233.664438 
L 289.883941 234.287387 
L 285.938736 234.094777 
L 281.993531 234.391862 
L 278.048327 234.818453 
L 274.103122 235.076566 
L 270.157917 233.905314 
L 266.212712 233.529985 
L 262.267507 234.578027 
L 258.322303 234.784128 
L 254.377098 235.713755 
L 250.431893 234.482246 
L 246.486688 234.170022 
L 242.541484 235.98341 
L 238.596279 236.451522 
L 234.651074 235.656647 
L 230.705869 235.18239 
L 226.760664 236.604111 
L 222.81546 235.282967 
L 218.870255 236.042318 
L 214.92505 235.522794 
L 210.979845 235.122283 
L 207.03464 234.969094 
L 203.089436 234.669611 
L 199.144231 234.180365 
L 195.199026 235.081813 
L 191.253821 234.292334 
L 187.308616 235.399733 
L 183.363412 234.773336 
L 179.418207 234.898645 
L 175.473002 235.515899 
L 171.527797 234.14529 
L 167.582592 235.594891 
L 163.637388 235.225709 
L 159.692183 235.782106 
L 155.746978 236.119512 
L 151.801773 235.235152 
L 147.856568 234.906739 
L 143.911364 234.061801 
z
" clip-path="url(#pdb6a918c27)" style="fill: #1f77b4"/>
   </g>
   <g id="PolyCollection_2">
    <path d="M 143.911364 138.851738 
L 143.911364 234.061801 
L 147.856568 234.906739 
L 151.801773 235.235152 
L 155.746978 236.119512 
L 159.692183 235.782106 
L 163.637388 235.225709 
L 167.582592 235.594891 
L 171.527797 234.14529 
L 175.473002 235.515899 
L 179.418207 234.898645 
L 183.363412 234.773336 
L 187.308616 235.399733 
L 191.253821 234.292334 
L 195.199026 235.081813 
L 199.144231 234.180365 
L 203.089436 234.669611 
L 207.03464 234.969094 
L 210.979845 235.122283 
L 214.92505 235.522794 
L 218.870255 236.042318 
L 222.81546 235.282967 
L 226.760664 236.604111 
L 230.705869 235.18239 
L 234.651074 235.656647 
L 238.596279 236.451522 
L 242.541484 235.98341 
L 246.486688 234.170022 
L 250.431893 234.482246 
L 254.377098 235.713755 
L 258.322303 234.784128 
L 262.267507 234.578027 
L 266.212712 233.529985 
L 270.157917 233.905314 
L 274.103122 235.076566 
L 278.048327 234.818453 
L 281.993531 234.391862 
L 285.938736 234.094777 
L 289.883941 234.287387 
L 293.829146 233.664438 
L 297.774351 234.829845 
L 301.719555 235.400182 
L 305.66476 234.724321 
L 309.609965 235.643756 
L 313.55517 233.612276 
L 317.500375 234.418992 
L 321.445579 234.458414 
L 325.390784 234.208095 
L 329.335989 233.627865 
L 333.281194 234.696441 
L 337.226399 233.778356 
L 341.171603 235.663542 
L 345.116808 235.125431 
L 349.062013 235.080763 
L 353.007218 235.788401 
L 356.952423 234.224733 
L 360.897627 235.521295 
L 364.842832 235.346521 
L 368.788037 235.242346 
L 372.733242 235.631615 
L 376.678447 235.263031 
L 380.623651 240.907947 
L 384.568856 234.628391 
L 388.514061 234.69794 
L 392.459266 234.124156 
L 396.404471 236.071247 
L 400.349675 236.255913 
L 404.29488 235.822876 
L 408.240085 235.291511 
L 412.18529 235.321639 
L 416.130495 234.574879 
L 420.075699 234.083535 
L 424.020904 235.08526 
L 427.966109 235.750928 
L 431.911314 234.162378 
L 435.856518 235.897522 
L 439.801723 236.285292 
L 443.746928 235.497462 
L 447.692133 234.893249 
L 451.637338 234.769439 
L 455.582542 235.335279 
L 459.527747 234.832243 
L 463.472952 235.61003 
L 467.418157 234.535908 
L 471.363362 235.22376 
L 475.308566 234.792222 
L 479.253771 235.110442 
L 483.198976 234.211992 
L 487.144181 234.17377 
L 491.089386 235.160056 
L 495.03459 234.630939 
L 498.979795 234.798967 
L 502.925 235.615726 
L 506.870205 234.773935 
L 510.81541 235.694269 
L 514.760614 235.730693 
L 518.705819 235.765168 
L 522.651024 235.73459 
L 526.596229 235.04374 
L 530.541434 235.592343 
L 534.486638 234.369978 
L 538.431843 235.032948 
L 542.377048 234.233277 
L 546.322253 234.912885 
L 550.267458 234.211242 
L 554.212662 235.578853 
L 558.157867 234.760895 
L 562.103072 234.721773 
L 566.048277 235.14042 
L 569.993482 235.893026 
L 573.938686 235.243396 
L 577.883891 234.436979 
L 581.829096 234.954255 
L 585.774301 233.913408 
L 589.719505 235.26483 
L 593.66471 233.933044 
L 597.609915 234.316466 
L 601.55512 234.503531 
L 605.500325 235.258984 
L 609.445529 234.635735 
L 613.390734 235.524892 
L 617.335939 233.765915 
L 621.281144 234.644129 
L 625.226349 235.206972 
L 629.171553 234.627791 
L 633.116758 235.431659 
L 637.061963 236.130454 
L 641.007168 236.182316 
L 644.952373 235.295558 
L 648.897577 236.634839 
L 652.842782 234.785177 
L 656.787987 235.110892 
L 660.733192 234.538006 
L 664.678397 236.597966 
L 668.623601 234.268051 
L 672.568806 235.27892 
L 676.514011 234.192656 
L 680.459216 234.85053 
L 684.404421 235.269477 
L 688.349625 234.996974 
L 692.29483 235.577954 
L 696.240035 234.548349 
L 700.18524 233.086306 
L 704.130445 235.692621 
L 708.075649 235.108194 
L 712.020854 235.395086 
L 715.966059 234.460362 
L 719.911264 234.110066 
L 723.856469 235.230355 
L 727.801673 234.886354 
L 731.746878 235.12753 
L 735.692083 234.882307 
L 739.637288 235.060978 
L 743.582493 233.9242 
L 747.527697 234.160429 
L 751.472902 235.041342 
L 755.418107 234.982884 
L 759.363312 235.244295 
L 763.308516 235.329883 
L 767.253721 235.354315 
L 771.198926 234.971942 
L 775.144131 235.81793 
L 779.089336 235.883882 
L 783.03454 233.536431 
L 786.979745 234.981085 
L 790.92495 234.013985 
L 794.870155 234.511475 
L 798.81536 234.281542 
L 802.760564 235.677032 
L 806.705769 233.768913 
L 810.650974 234.611003 
L 814.596179 234.096725 
L 818.541384 234.07694 
L 822.486588 236.369381 
L 826.431793 235.283567 
L 830.376998 234.922178 
L 834.322203 234.951407 
L 838.267408 236.23313 
L 842.212612 235.689923 
L 846.157817 234.752951 
L 850.103022 235.430011 
L 854.048227 237.582453 
L 857.993432 237.422369 
L 861.938636 235.837416 
L 861.938636 140.696003 
L 861.938636 140.696003 
L 857.993432 142.350656 
L 854.048227 144.948277 
L 850.103022 142.557806 
L 846.157817 140.131812 
L 842.212612 140.565148 
L 838.267408 141.318803 
L 834.322203 139.932156 
L 830.376998 140.293695 
L 826.431793 140.031534 
L 822.486588 140.965808 
L 818.541384 138.414804 
L 814.596179 138.494696 
L 810.650974 138.540563 
L 806.705769 138.504439 
L 802.760564 140.116823 
L 798.81536 139.895583 
L 794.870155 138.949017 
L 790.92495 138.878568 
L 786.979745 139.677041 
L 783.03454 137.893031 
L 779.089336 140.547011 
L 775.144131 141.042852 
L 771.198926 140.488554 
L 767.253721 139.161114 
L 763.308516 140.757759 
L 759.363312 140.713541 
L 755.418107 139.422825 
L 751.472902 139.873399 
L 747.527697 139.278179 
L 743.582493 138.604866 
L 739.637288 138.983493 
L 735.692083 139.981021 
L 731.746878 139.932006 
L 727.801673 139.645713 
L 723.856469 140.491252 
L 719.911264 138.760004 
L 715.966059 138.358445 
L 712.020854 139.217024 
L 708.075649 140.356499 
L 704.130445 140.641443 
L 700.18524 137.901725 
L 696.240035 137.905772 
L 692.29483 139.110601 
L 688.349625 139.272483 
L 684.404421 139.072528 
L 680.459216 139.627427 
L 676.514011 138.944371 
L 672.568806 139.959137 
L 668.623601 139.426122 
L 664.678397 141.256898 
L 660.733192 140.132561 
L 656.787987 138.953514 
L 652.842782 140.185773 
L 648.897577 141.343985 
L 644.952373 140.904053 
L 641.007168 141.68154 
L 637.061963 142.213505 
L 633.116758 140.202111 
L 629.171553 140.255023 
L 625.226349 139.569419 
L 621.281144 140.173781 
L 617.335939 138.346903 
L 613.390734 138.649384 
L 609.445529 139.855562 
L 605.500325 139.971278 
L 601.55512 138.62705 
L 597.609915 138.690604 
L 593.66471 138.549856 
L 589.719505 139.172206 
L 585.774301 139.34623 
L 581.829096 139.234261 
L 577.883891 139.497621 
L 573.938686 140.846944 
L 569.993482 140.27181 
L 566.048277 140.302538 
L 562.103072 139.694728 
L 558.157867 138.502491 
L 554.212662 140.335964 
L 550.267458 139.597149 
L 546.322253 139.695627 
L 542.377048 139.13878 
L 538.431843 137.854659 
L 534.486638 139.872349 
L 530.541434 140.195965 
L 526.596229 139.946396 
L 522.651024 140.99144 
L 518.705819 141.432421 
L 514.760614 141.632826 
L 510.81541 140.470267 
L 506.870205 139.445758 
L 502.925 139.92676 
L 498.979795 140.504292 
L 495.03459 138.098833 
L 491.089386 140.080849 
L 487.144181 138.794329 
L 483.198976 139.314153 
L 479.253771 139.011372 
L 475.308566 139.772222 
L 471.363362 140.235387 
L 467.418157 139.320599 
L 463.472952 141.049448 
L 459.527747 139.100258 
L 455.582542 139.984768 
L 451.637338 140.212753 
L 447.692133 139.51186 
L 443.746928 140.375535 
L 439.801723 141.899932 
L 435.856518 142.053571 
L 431.911314 140.002755 
L 427.966109 140.836302 
L 424.020904 140.634998 
L 420.075699 139.593701 
L 416.130495 138.330565 
L 412.18529 140.224595 
L 408.240085 141.219425 
L 404.29488 140.142154 
L 400.349675 141.782268 
L 396.404471 142.12462 
L 392.459266 139.911321 
L 388.514061 139.483081 
L 384.568856 139.353125 
L 380.623651 144.328775 
L 376.678447 145.860217 
L 372.733242 139.702372 
L 368.788037 139.739845 
L 364.842832 141.036857 
L 360.897627 140.775446 
L 356.952423 139.771772 
L 353.007218 140.402216 
L 349.062013 139.651859 
L 345.116808 140.245429 
L 341.171603 140.937629 
L 337.226399 138.231487 
L 333.281194 137.83967 
L 329.335989 138.251872 
L 325.390784 138.483604 
L 321.445579 139.098909 
L 317.500375 138.597522 
L 313.55517 137.485326 
L 309.609965 140.152796 
L 305.66476 139.220771 
L 301.719555 140.048022 
L 297.774351 139.69128 
L 293.829146 138.458123 
L 289.883941 138.665872 
L 285.938736 138.217097 
L 281.993531 138.839147 
L 278.048327 139.286873 
L 274.103122 139.179101 
L 270.157917 139.47049 
L 266.212712 137.832625 
L 262.267507 138.333413 
L 258.322303 138.93178 
L 254.377098 141.003281 
L 250.431893 140.376734 
L 246.486688 138.163136 
L 242.541484 140.228642 
L 238.596279 142.118924 
L 234.651074 141.287476 
L 230.705869 140.826409 
L 226.760664 141.258846 
L 222.81546 141.396447 
L 218.870255 141.169811 
L 214.92505 141.246855 
L 210.979845 140.294444 
L 207.03464 139.938601 
L 203.089436 139.924212 
L 199.144231 139.013471 
L 195.199026 139.894683 
L 191.253821 139.67869 
L 187.308616 138.208403 
L 183.363412 139.088716 
L 179.418207 139.641966 
L 175.473002 140.028386 
L 171.527797 140.012948 
L 167.582592 139.658904 
L 163.637388 140.587482 
L 159.692183 140.74262 
L 155.746978 141.316554 
L 151.801773 142.772901 
L 147.856568 139.599996 
L 143.911364 138.851738 
z
" clip-path="url(#pdb6a918c27)" style="fill: #ff7f0e"/>
   </g>
   <g id="PolyCollection_3">
    <path d="M 143.911364 41.618139 
L 143.911364 138.851738 
L 147.856568 139.599996 
L 151.801773 142.772901 
L 155.746978 141.316554 
L 159.692183 140.74262 
L 163.637388 140.587482 
L 167.582592 139.658904 
L 171.527797 140.012948 
L 175.473002 140.028386 
L 179.418207 139.641966 
L 183.363412 139.088716 
L 187.308616 138.208403 
L 191.253821 139.67869 
L 195.199026 139.894683 
L 199.144231 139.013471 
L 203.089436 139.924212 
L 207.03464 139.938601 
L 210.979845 140.294444 
L 214.92505 141.246855 
L 218.870255 141.169811 
L 222.81546 141.396447 
L 226.760664 141.258846 
L 230.705869 140.826409 
L 234.651074 141.287476 
L 238.596279 142.118924 
L 242.541484 140.228642 
L 246.486688 138.163136 
L 250.431893 140.376734 
L 254.377098 141.003281 
L 258.322303 138.93178 
L 262.267507 138.333413 
L 266.212712 137.832625 
L 270.157917 139.47049 
L 274.103122 139.179101 
L 278.048327 139.286873 
L 281.993531 138.839147 
L 285.938736 138.217097 
L 289.883941 138.665872 
L 293.829146 138.458123 
L 297.774351 139.69128 
L 301.719555 140.048022 
L 305.66476 139.220771 
L 309.609965 140.152796 
L 313.55517 137.485326 
L 317.500375 138.597522 
L 321.445579 139.098909 
L 325.390784 138.483604 
L 329.335989 138.251872 
L 333.281194 137.83967 
L 337.226399 138.231487 
L 341.171603 140.937629 
L 345.116808 140.245429 
L 349.062013 139.651859 
L 353.007218 140.402216 
L 356.952423 139.771772 
L 360.897627 140.775446 
L 364.842832 141.036857 
L 368.788037 139.739845 
L 372.733242 139.702372 
L 376.678447 145.860217 
L 380.623651 144.328775 
L 384.568856 139.353125 
L 388.514061 139.483081 
L 392.459266 139.911321 
L 396.404471 142.12462 
L 400.349675 141.782268 
L 404.29488 140.142154 
L 408.240085 141.219425 
L 412.18529 140.224595 
L 416.130495 138.330565 
L 420.075699 139.593701 
L 424.020904 140.634998 
L 427.966109 140.836302 
L 431.911314 140.002755 
L 435.856518 142.053571 
L 439.801723 141.899932 
L 443.746928 140.375535 
L 447.692133 139.51186 
L 451.637338 140.212753 
L 455.582542 139.984768 
L 459.527747 139.100258 
L 463.472952 141.049448 
L 467.418157 139.320599 
L 471.363362 140.235387 
L 475.308566 139.772222 
L 479.253771 139.011372 
L 483.198976 139.314153 
L 487.144181 138.794329 
L 491.089386 140.080849 
L 495.03459 138.098833 
L 498.979795 140.504292 
L 502.925 139.92676 
L 506.870205 139.445758 
L 510.81541 140.470267 
L 514.760614 141.632826 
L 518.705819 141.432421 
L 522.651024 140.99144 
L 526.596229 139.946396 
L 530.541434 140.195965 
L 534.486638 139.872349 
L 538.431843 137.854659 
L 542.377048 139.13878 
L 546.322253 139.695627 
L 550.267458 139.597149 
L 554.212662 140.335964 
L 558.157867 138.502491 
L 562.103072 139.694728 
L 566.048277 140.302538 
L 569.993482 140.27181 
L 573.938686 140.846944 
L 577.883891 139.497621 
L 581.829096 139.234261 
L 585.774301 139.34623 
L 589.719505 139.172206 
L 593.66471 138.549856 
L 597.609915 138.690604 
L 601.55512 138.62705 
L 605.500325 139.971278 
L 609.445529 139.855562 
L 613.390734 138.649384 
L 617.335939 138.346903 
L 621.281144 140.173781 
L 625.226349 139.569419 
L 629.171553 140.255023 
L 633.116758 140.202111 
L 637.061963 142.213505 
L 641.007168 141.68154 
L 644.952373 140.904053 
L 648.897577 141.343985 
L 652.842782 140.185773 
L 656.787987 138.953514 
L 660.733192 140.132561 
L 664.678397 141.256898 
L 668.623601 139.426122 
L 672.568806 139.959137 
L 676.514011 138.944371 
L 680.459216 139.627427 
L 684.404421 139.072528 
L 688.349625 139.272483 
L 692.29483 139.110601 
L 696.240035 137.905772 
L 700.18524 137.901725 
L 704.130445 140.641443 
L 708.075649 140.356499 
L 712.020854 139.217024 
L 715.966059 138.358445 
L 719.911264 138.760004 
L 723.856469 140.491252 
L 727.801673 139.645713 
L 731.746878 139.932006 
L 735.692083 139.981021 
L 739.637288 138.983493 
L 743.582493 138.604866 
L 747.527697 139.278179 
L 751.472902 139.873399 
L 755.418107 139.422825 
L 759.363312 140.713541 
L 763.308516 140.757759 
L 767.253721 139.161114 
L 771.198926 140.488554 
L 775.144131 141.042852 
L 779.089336 140.547011 
L 783.03454 137.893031 
L 786.979745 139.677041 
L 790.92495 138.878568 
L 794.870155 138.949017 
L 798.81536 139.895583 
L 802.760564 140.116823 
L 806.705769 138.504439 
L 810.650974 138.540563 
L 814.596179 138.494696 
L 818.541384 138.414804 
L 822.486588 140.965808 
L 826.431793 140.031534 
L 830.376998 140.293695 
L 834.322203 139.932156 
L 838.267408 141.318803 
L 842.212612 140.565148 
L 846.157817 140.131812 
L 850.103022 142.557806 
L 854.048227 144.948277 
L 857.993432 142.350656 
L 861.938636 140.696003 
L 861.938636 44.124626 
L 861.938636 44.124626 
L 857.993432 48.419918 
L 854.048227 51.067452 
L 850.103022 46.974963 
L 846.157817 43.257953 
L 842.212612 44.135418 
L 838.267408 46.023002 
L 834.322203 43.315211 
L 830.376998 44.661237 
L 826.431793 43.725464 
L 822.486588 44.79599 
L 818.541384 42.047279 
L 814.596179 41.200092 
L 810.650974 41.082277 
L 806.705769 42.008157 
L 802.760564 43.715422 
L 798.81536 43.097719 
L 794.870155 42.923545 
L 790.92495 41.856916 
L 786.979745 42.742176 
L 783.03454 41.183004 
L 779.089336 45.021876 
L 775.144131 45.178813 
L 771.198926 44.117431 
L 767.253721 43.747349 
L 763.308516 44.94783 
L 759.363312 44.336422 
L 755.418107 43.498828 
L 751.472902 43.10896 
L 747.527697 43.1923 
L 743.582493 40.339115 
L 739.637288 41.860514 
L 735.692083 43.349387 
L 731.746878 44.242141 
L 727.801673 42.611021 
L 723.856469 43.679897 
L 719.911264 41.639574 
L 715.966059 40.631703 
L 712.020854 43.055599 
L 708.075649 44.003663 
L 704.130445 44.041286 
L 700.18524 40.081901 
L 696.240035 40.340164 
L 692.29483 43.214484 
L 688.349625 42.682969 
L 684.404421 42.228348 
L 680.459216 44.053127 
L 676.514011 42.069313 
L 672.568806 43.138339 
L 668.623601 42.162395 
L 664.678397 45.482493 
L 660.733192 44.025248 
L 656.787987 41.836381 
L 652.842782 43.93861 
L 648.897577 45.242817 
L 644.952373 45.911783 
L 641.007168 46.985156 
L 637.061963 46.478522 
L 633.116758 43.983578 
L 629.171553 44.487963 
L 625.226349 43.016927 
L 621.281144 43.836084 
L 617.335939 40.69076 
L 613.390734 41.770729 
L 609.445529 43.161572 
L 605.500325 43.433026 
L 601.55512 41.711671 
L 597.609915 41.24401 
L 593.66471 41.585463 
L 589.719505 42.447939 
L 585.774301 41.815396 
L 581.829096 42.767807 
L 577.883891 42.469373 
L 573.938686 44.015205 
L 569.993482 45.130398 
L 566.048277 43.258702 
L 562.103072 42.882774 
L 558.157867 41.740301 
L 554.212662 44.345416 
L 550.267458 43.205341 
L 546.322253 43.113757 
L 542.377048 41.081827 
L 538.431843 41.276536 
L 534.486638 42.718343 
L 530.541434 43.532104 
L 526.596229 43.218681 
L 522.651024 46.305847 
L 518.705819 45.121404 
L 514.760614 47.583073 
L 510.81541 43.172365 
L 506.870205 43.072387 
L 502.925 44.607876 
L 498.979795 43.185555 
L 495.03459 41.775375 
L 491.089386 44.847553 
L 487.144181 41.787966 
L 483.198976 42.573998 
L 479.253771 42.691063 
L 475.308566 43.248809 
L 471.363362 44.00786 
L 467.418157 42.559758 
L 463.472952 44.40912 
L 459.527747 42.689114 
L 455.582542 44.653443 
L 451.637338 43.020974 
L 447.692133 42.864337 
L 443.746928 44.341669 
L 439.801723 46.811132 
L 435.856518 46.263728 
L 431.911314 43.558635 
L 427.966109 45.227827 
L 424.020904 44.666034 
L 420.075699 42.331773 
L 416.130495 41.700729 
L 412.18529 43.916276 
L 408.240085 45.162025 
L 404.29488 43.318059 
L 400.349675 46.556316 
L 396.404471 46.906463 
L 392.459266 42.876928 
L 388.514061 42.479116 
L 384.568856 41.457605 
L 380.623651 54.374809 
L 376.678447 48.661393 
L 372.733242 43.129496 
L 368.788037 45.015581 
L 364.842832 44.738132 
L 360.897627 44.253233 
L 356.952423 43.422384 
L 353.007218 44.151606 
L 349.062013 43.570776 
L 345.116808 43.346539 
L 341.171603 45.488789 
L 337.226399 41.151976 
L 333.281194 40.603673 
L 329.335989 40.995789 
L 325.390784 41.206087 
L 321.445579 41.732057 
L 317.500375 41.136687 
L 313.55517 40.705749 
L 309.609965 43.27534 
L 305.66476 42.705902 
L 301.719555 43.327352 
L 297.774351 43.5387 
L 293.829146 41.486384 
L 289.883941 41.366621 
L 285.938736 41.013027 
L 281.993531 41.297521 
L 278.048327 42.112481 
L 274.103122 42.431451 
L 270.157917 42.177384 
L 266.212712 40.16599 
L 262.267507 41.707774 
L 258.322303 41.826488 
L 254.377098 46.250088 
L 250.431893 43.451912 
L 246.486688 40.208409 
L 242.541484 43.923321 
L 238.596279 47.326609 
L 234.651074 45.749 
L 230.705869 44.704256 
L 226.760664 46.140817 
L 222.81546 45.577674 
L 218.870255 44.83691 
L 214.92505 44.455286 
L 210.979845 43.640776 
L 207.03464 44.177837 
L 203.089436 43.293027 
L 199.144231 41.758737 
L 195.199026 43.915527 
L 191.253821 42.253679 
L 187.308616 41.336643 
L 183.363412 41.984324 
L 179.418207 43.094721 
L 175.473002 44.268072 
L 171.527797 43.126648 
L 167.582592 43.815549 
L 163.637388 44.452289 
L 159.692183 44.490361 
L 155.746978 46.368652 
L 151.801773 46.596937 
L 147.856568 43.319558 
L 143.911364 41.618139 
z
" clip-path="url(#pdb6a918c27)" style="fill: #2ca02c"/>
   </g>
   <g id="matplotlib.axis_1">
    <g id="xtick_1">
     <g id="line2d_1">
      <path d="M 143.911364 331.64 
L 143.911364 23.76 
" clip-path="url(#pdb6a918c27)" style="fill: none; stroke-dasharray: 5.12,1.28,0.8,1.28; stroke-dashoffset: 0; stroke: #b0b0b0; stroke-width: 0.8"/>
     </g>
     <g id="line2d_2">
      <defs>
       <path id="m177b18d6cc" d="M 0 0 
L 0 3.5 
" style="stroke: #000000; stroke-width: 0.8"/>
      </defs>
      <g>
       <use xlink:href="#m177b18d6cc" x="143.911364" y="331.64" style="stroke: #000000; stroke-width: 0.8"/>
      </g>
     </g>
     <g id="text_1">
      <!-- 0 -->
      <g transform="translate(136.912614 355.356563)scale(0.22 -0.22)">
       <defs>
        <path id="DejaVuSans-30" d="M 2034 4250 
Q 1547 4250 1301 3770 
Q 1056 3291 1056 2328 
Q 1056 1369 1301 889 
Q 1547 409 2034 409 
Q 2525 409 2770 889 
Q 3016 1369 3016 2328 
Q 3016 3291 2770 3770 
Q 2525 4250 2034 4250 
z
M 2034 4750 
Q 2819 4750 3233 4129 
Q 3647 3509 3647 2328 
Q 3647 1150 3233 529 
Q 2819 -91 2034 -91 
Q 1250 -91 836 529 
Q 422 1150 422 2328 
Q 422 3509 836 4129 
Q 1250 4750 2034 4750 
z
" transform="scale(0.015625)"/>
       </defs>
       <use xlink:href="#DejaVuSans-30"/>
      </g>
     </g>
    </g>
    <g id="xtick_2">
     <g id="line2d_3">
      <path d="M 242.541484 331.64 
L 242.541484 23.76 
" clip-path="url(#pdb6a918c27)" style="fill: none; stroke-dasharray: 5.12,1.28,0.8,1.28; stroke-dashoffset: 0; stroke: #b0b0b0; stroke-width: 0.8"/>
     </g>
     <g id="line2d_4">
      <g>
       <use xlink:href="#m177b18d6cc" x="242.541484" y="331.64" style="stroke: #000000; stroke-width: 0.8"/>
      </g>
     </g>
     <g id="text_2">
      <!-- 25 -->
      <g transform="translate(228.543984 355.356563)scale(0.22 -0.22)">
       <defs>
        <path id="DejaVuSans-32" d="M 1228 531 
L 3431 531 
L 3431 0 
L 469 0 
L 469 531 
Q 828 903 1448 1529 
Q 2069 2156 2228 2338 
Q 2531 2678 2651 2914 
Q 2772 3150 2772 3378 
Q 2772 3750 2511 3984 
Q 2250 4219 1831 4219 
Q 1534 4219 1204 4116 
Q 875 4013 500 3803 
L 500 4441 
Q 881 4594 1212 4672 
Q 1544 4750 1819 4750 
Q 2544 4750 2975 4387 
Q 3406 4025 3406 3419 
Q 3406 3131 3298 2873 
Q 3191 2616 2906 2266 
Q 2828 2175 2409 1742 
Q 1991 1309 1228 531 
z
" transform="scale(0.015625)"/>
        <path id="DejaVuSans-35" d="M 691 4666 
L 3169 4666 
L 3169 4134 
L 1269 4134 
L 1269 2991 
Q 1406 3038 1543 3061 
Q 1681 3084 1819 3084 
Q 2600 3084 3056 2656 
Q 3513 2228 3513 1497 
Q 3513 744 3044 326 
Q 2575 -91 1722 -91 
Q 1428 -91 1123 -41 
Q 819 9 494 109 
L 494 744 
Q 775 591 1075 516 
Q 1375 441 1709 441 
Q 2250 441 2565 725 
Q 2881 1009 2881 1497 
Q 2881 1984 2565 2268 
Q 2250 2553 1709 2553 
Q 1456 2553 1204 2497 
Q 953 2441 691 2322 
L 691 4666 
z
" transform="scale(0.015625)"/>
       </defs>
       <use xlink:href="#DejaVuSans-32"/>
       <use xlink:href="#DejaVuSans-35" x="63.623047"/>
      </g>
     </g>
    </g>
    <g id="xtick_3">
     <g id="line2d_5">
      <path d="M 341.171603 331.64 
L 341.171603 23.76 
" clip-path="url(#pdb6a918c27)" style="fill: none; stroke-dasharray: 5.12,1.28,0.8,1.28; stroke-dashoffset: 0; stroke: #b0b0b0; stroke-width: 0.8"/>
     </g>
     <g id="line2d_6">
      <g>
       <use xlink:href="#m177b18d6cc" x="341.171603" y="331.64" style="stroke: #000000; stroke-width: 0.8"/>
      </g>
     </g>
     <g id="text_3">
      <!-- 50 -->
      <g transform="translate(327.174103 355.356563)scale(0.22 -0.22)">
       <use xlink:href="#DejaVuSans-35"/>
       <use xlink:href="#DejaVuSans-30" x="63.623047"/>
      </g>
     </g>
    </g>
    <g id="xtick_4">
     <g id="line2d_7">
      <path d="M 439.801723 331.64 
L 439.801723 23.76 
" clip-path="url(#pdb6a918c27)" style="fill: none; stroke-dasharray: 5.12,1.28,0.8,1.28; stroke-dashoffset: 0; stroke: #b0b0b0; stroke-width: 0.8"/>
     </g>
     <g id="line2d_8">
      <g>
       <use xlink:href="#m177b18d6cc" x="439.801723" y="331.64" style="stroke: #000000; stroke-width: 0.8"/>
      </g>
     </g>
     <g id="text_4">
      <!-- 75 -->
      <g transform="translate(425.804223 355.356563)scale(0.22 -0.22)">
       <defs>
        <path id="DejaVuSans-37" d="M 525 4666 
L 3525 4666 
L 3525 4397 
L 1831 0 
L 1172 0 
L 2766 4134 
L 525 4134 
L 525 4666 
z
" transform="scale(0.015625)"/>
       </defs>
       <use xlink:href="#DejaVuSans-37"/>
       <use xlink:href="#DejaVuSans-35" x="63.623047"/>
      </g>
     </g>
    </g>
    <g id="xtick_5">
     <g id="line2d_9">
      <path d="M 538.431843 331.64 
L 538.431843 23.76 
" clip-path="url(#pdb6a918c27)" style="fill: none; stroke-dasharray: 5.12,1.28,0.8,1.28; stroke-dashoffset: 0; stroke: #b0b0b0; stroke-width: 0.8"/>
     </g>
     <g id="line2d_10">
      <g>
       <use xlink:href="#m177b18d6cc" x="538.431843" y="331.64" style="stroke: #000000; stroke-width: 0.8"/>
      </g>
     </g>
     <g id="text_5">
      <!-- 100 -->
      <g transform="translate(517.435593 355.356563)scale(0.22 -0.22)">
       <defs>
        <path id="DejaVuSans-31" d="M 794 531 
L 1825 531 
L 1825 4091 
L 703 3866 
L 703 4441 
L 1819 4666 
L 2450 4666 
L 2450 531 
L 3481 531 
L 3481 0 
L 794 0 
L 794 531 
z
" transform="scale(0.015625)"/>
       </defs>
       <use xlink:href="#DejaVuSans-31"/>
       <use xlink:href="#DejaVuSans-30" x="63.623047"/>
       <use xlink:href="#DejaVuSans-30" x="127.246094"/>
      </g>
     </g>
    </g>
    <g id="xtick_6">
     <g id="line2d_11">
      <path d="M 637.061963 331.64 
L 637.061963 23.76 
" clip-path="url(#pdb6a918c27)" style="fill: none; stroke-dasharray: 5.12,1.28,0.8,1.28; stroke-dashoffset: 0; stroke: #b0b0b0; stroke-width: 0.8"/>
     </g>
     <g id="line2d_12">
      <g>
       <use xlink:href="#m177b18d6cc" x="637.061963" y="331.64" style="stroke: #000000; stroke-width: 0.8"/>
      </g>
     </g>
     <g id="text_6">
      <!-- 125 -->
      <g transform="translate(616.065713 355.356563)scale(0.22 -0.22)">
       <use xlink:href="#DejaVuSans-31"/>
       <use xlink:href="#DejaVuSans-32" x="63.623047"/>
       <use xlink:href="#DejaVuSans-35" x="127.246094"/>
      </g>
     </g>
    </g>
    <g id="xtick_7">
     <g id="line2d_13">
      <path d="M 735.692083 331.64 
L 735.692083 23.76 
" clip-path="url(#pdb6a918c27)" style="fill: none; stroke-dasharray: 5.12,1.28,0.8,1.28; stroke-dashoffset: 0; stroke: #b0b0b0; stroke-width: 0.8"/>
     </g>
     <g id="line2d_14">
      <g>
       <use xlink:href="#m177b18d6cc" x="735.692083" y="331.64" style="stroke: #000000; stroke-width: 0.8"/>
      </g>
     </g>
     <g id="text_7">
      <!-- 150 -->
      <g transform="translate(714.695833 355.356563)scale(0.22 -0.22)">
       <use xlink:href="#DejaVuSans-31"/>
       <use xlink:href="#DejaVuSans-35" x="63.623047"/>
       <use xlink:href="#DejaVuSans-30" x="127.246094"/>
      </g>
     </g>
    </g>
    <g id="xtick_8">
     <g id="line2d_15">
      <path d="M 834.322203 331.64 
L 834.322203 23.76 
" clip-path="url(#pdb6a918c27)" style="fill: none; stroke-dasharray: 5.12,1.28,0.8,1.28; stroke-dashoffset: 0; stroke: #b0b0b0; stroke-width: 0.8"/>
     </g>
     <g id="line2d_16">
      <g>
       <use xlink:href="#m177b18d6cc" x="834.322203" y="331.64" style="stroke: #000000; stroke-width: 0.8"/>
      </g>
     </g>
     <g id="text_8">
      <!-- 175 -->
      <g transform="translate(813.325953 355.356563)scale(0.22 -0.22)">
       <use xlink:href="#DejaVuSans-31"/>
       <use xlink:href="#DejaVuSans-37" x="63.623047"/>
       <use xlink:href="#DejaVuSans-35" x="127.246094"/>
      </g>
     </g>
    </g>
    <g id="text_9">
     <!-- Time (s) -->
     <g transform="translate(454.135625 382.168125)scale(0.24 -0.24)">
      <defs>
       <path id="DejaVuSans-54" d="M -19 4666 
L 3928 4666 
L 3928 4134 
L 2272 4134 
L 2272 0 
L 1638 0 
L 1638 4134 
L -19 4134 
L -19 4666 
z
" transform="scale(0.015625)"/>
       <path id="DejaVuSans-69" d="M 603 3500 
L 1178 3500 
L 1178 0 
L 603 0 
L 603 3500 
z
M 603 4863 
L 1178 4863 
L 1178 4134 
L 603 4134 
L 603 4863 
z
" transform="scale(0.015625)"/>
       <path id="DejaVuSans-6d" d="M 3328 2828 
Q 3544 3216 3844 3400 
Q 4144 3584 4550 3584 
Q 5097 3584 5394 3201 
Q 5691 2819 5691 2113 
L 5691 0 
L 5113 0 
L 5113 2094 
Q 5113 2597 4934 2840 
Q 4756 3084 4391 3084 
Q 3944 3084 3684 2787 
Q 3425 2491 3425 1978 
L 3425 0 
L 2847 0 
L 2847 2094 
Q 2847 2600 2669 2842 
Q 2491 3084 2119 3084 
Q 1678 3084 1418 2786 
Q 1159 2488 1159 1978 
L 1159 0 
L 581 0 
L 581 3500 
L 1159 3500 
L 1159 2956 
Q 1356 3278 1631 3431 
Q 1906 3584 2284 3584 
Q 2666 3584 2933 3390 
Q 3200 3197 3328 2828 
z
" transform="scale(0.015625)"/>
       <path id="DejaVuSans-65" d="M 3597 1894 
L 3597 1613 
L 953 1613 
Q 991 1019 1311 708 
Q 1631 397 2203 397 
Q 2534 397 2845 478 
Q 3156 559 3463 722 
L 3463 178 
Q 3153 47 2828 -22 
Q 2503 -91 2169 -91 
Q 1331 -91 842 396 
Q 353 884 353 1716 
Q 353 2575 817 3079 
Q 1281 3584 2069 3584 
Q 2775 3584 3186 3129 
Q 3597 2675 3597 1894 
z
M 3022 2063 
Q 3016 2534 2758 2815 
Q 2500 3097 2075 3097 
Q 1594 3097 1305 2825 
Q 1016 2553 972 2059 
L 3022 2063 
z
" transform="scale(0.015625)"/>
       <path id="DejaVuSans-20" transform="scale(0.015625)"/>
       <path id="DejaVuSans-28" d="M 1984 4856 
Q 1566 4138 1362 3434 
Q 1159 2731 1159 2009 
Q 1159 1288 1364 580 
Q 1569 -128 1984 -844 
L 1484 -844 
Q 1016 -109 783 600 
Q 550 1309 550 2009 
Q 550 2706 781 3412 
Q 1013 4119 1484 4856 
L 1984 4856 
z
" transform="scale(0.015625)"/>
       <path id="DejaVuSans-73" d="M 2834 3397 
L 2834 2853 
Q 2591 2978 2328 3040 
Q 2066 3103 1784 3103 
Q 1356 3103 1142 2972 
Q 928 2841 928 2578 
Q 928 2378 1081 2264 
Q 1234 2150 1697 2047 
L 1894 2003 
Q 2506 1872 2764 1633 
Q 3022 1394 3022 966 
Q 3022 478 2636 193 
Q 2250 -91 1575 -91 
Q 1294 -91 989 -36 
Q 684 19 347 128 
L 347 722 
Q 666 556 975 473 
Q 1284 391 1588 391 
Q 1994 391 2212 530 
Q 2431 669 2431 922 
Q 2431 1156 2273 1281 
Q 2116 1406 1581 1522 
L 1381 1569 
Q 847 1681 609 1914 
Q 372 2147 372 2553 
Q 372 3047 722 3315 
Q 1072 3584 1716 3584 
Q 2034 3584 2315 3537 
Q 2597 3491 2834 3397 
z
" transform="scale(0.015625)"/>
       <path id="DejaVuSans-29" d="M 513 4856 
L 1013 4856 
Q 1481 4119 1714 3412 
Q 1947 2706 1947 2009 
Q 1947 1309 1714 600 
Q 1481 -109 1013 -844 
L 513 -844 
Q 928 -128 1133 580 
Q 1338 1288 1338 2009 
Q 1338 2731 1133 3434 
Q 928 4138 513 4856 
z
" transform="scale(0.015625)"/>
      </defs>
      <use xlink:href="#DejaVuSans-54"/>
      <use xlink:href="#DejaVuSans-69" x="57.958984"/>
      <use xlink:href="#DejaVuSans-6d" x="85.742188"/>
      <use xlink:href="#DejaVuSans-65" x="183.154297"/>
      <use xlink:href="#DejaVuSans-20" x="244.677734"/>
      <use xlink:href="#DejaVuSans-28" x="276.464844"/>
      <use xlink:href="#DejaVuSans-73" x="315.478516"/>
      <use xlink:href="#DejaVuSans-29" x="367.578125"/>
     </g>
    </g>
   </g>
   <g id="matplotlib.axis_2">
    <g id="ytick_1">
     <g id="line2d_17">
      <path d="M 108.01 331.64 
L 897.84 331.64 
" clip-path="url(#pdb6a918c27)" style="fill: none; stroke-dasharray: 5.12,1.28,0.8,1.28; stroke-dashoffset: 0; stroke: #b0b0b0; stroke-width: 0.8"/>
     </g>
     <g id="line2d_18">
      <defs>
       <path id="mdea6be379c" d="M 0 0 
L -3.5 0 
" style="stroke: #000000; stroke-width: 0.8"/>
      </defs>
      <g>
       <use xlink:href="#mdea6be379c" x="108.01" y="331.64" style="stroke: #000000; stroke-width: 0.8"/>
      </g>
     </g>
     <g id="text_10">
      <!-- 0 -->
      <g transform="translate(87.0125 339.998281)scale(0.22 -0.22)">
       <use xlink:href="#DejaVuSans-30"/>
      </g>
     </g>
    </g>
    <g id="ytick_2">
     <g id="line2d_19">
      <path d="M 108.01 237.957782 
L 897.84 237.957782 
" clip-path="url(#pdb6a918c27)" style="fill: none; stroke-dasharray: 5.12,1.28,0.8,1.28; stroke-dashoffset: 0; stroke: #b0b0b0; stroke-width: 0.8"/>
     </g>
     <g id="line2d_20">
      <g>
       <use xlink:href="#mdea6be379c" x="108.01" y="237.957782" style="stroke: #000000; stroke-width: 0.8"/>
      </g>
     </g>
     <g id="text_11">
      <!-- 5 -->
      <g transform="translate(87.0125 246.316063)scale(0.22 -0.22)">
       <use xlink:href="#DejaVuSans-35"/>
      </g>
     </g>
    </g>
    <g id="ytick_3">
     <g id="line2d_21">
      <path d="M 108.01 144.275564 
L 897.84 144.275564 
" clip-path="url(#pdb6a918c27)" style="fill: none; stroke-dasharray: 5.12,1.28,0.8,1.28; stroke-dashoffset: 0; stroke: #b0b0b0; stroke-width: 0.8"/>
     </g>
     <g id="line2d_22">
      <g>
       <use xlink:href="#mdea6be379c" x="108.01" y="144.275564" style="stroke: #000000; stroke-width: 0.8"/>
      </g>
     </g>
     <g id="text_12">
      <!-- 10 -->
      <g transform="translate(73.015 152.633845)scale(0.22 -0.22)">
       <use xlink:href="#DejaVuSans-31"/>
       <use xlink:href="#DejaVuSans-30" x="63.623047"/>
      </g>
     </g>
    </g>
    <g id="ytick_4">
     <g id="line2d_23">
      <path d="M 108.01 50.593345 
L 897.84 50.593345 
" clip-path="url(#pdb6a918c27)" style="fill: none; stroke-dasharray: 5.12,1.28,0.8,1.28; stroke-dashoffset: 0; stroke: #b0b0b0; stroke-width: 0.8"/>
     </g>
     <g id="line2d_24">
      <g>
       <use xlink:href="#mdea6be379c" x="108.01" y="50.593345" style="stroke: #000000; stroke-width: 0.8"/>
      </g>
     </g>
     <g id="text_13">
      <!-- 15 -->
      <g transform="translate(73.015 58.951627)scale(0.22 -0.22)">
       <use xlink:href="#DejaVuSans-31"/>
       <use xlink:href="#DejaVuSans-35" x="63.623047"/>
      </g>
     </g>
    </g>
    <g id="text_14">
     <!-- Throughput (Mbps) -->
     <g transform="translate(64.02375 292.414375)rotate(-90)scale(0.24 -0.24)">
      <defs>
       <path id="DejaVuSans-68" d="M 3513 2113 
L 3513 0 
L 2938 0 
L 2938 2094 
Q 2938 2591 2744 2837 
Q 2550 3084 2163 3084 
Q 1697 3084 1428 2787 
Q 1159 2491 1159 1978 
L 1159 0 
L 581 0 
L 581 4863 
L 1159 4863 
L 1159 2956 
Q 1366 3272 1645 3428 
Q 1925 3584 2291 3584 
Q 2894 3584 3203 3211 
Q 3513 2838 3513 2113 
z
" transform="scale(0.015625)"/>
       <path id="DejaVuSans-72" d="M 2631 2963 
Q 2534 3019 2420 3045 
Q 2306 3072 2169 3072 
Q 1681 3072 1420 2755 
Q 1159 2438 1159 1844 
L 1159 0 
L 581 0 
L 581 3500 
L 1159 3500 
L 1159 2956 
Q 1341 3275 1631 3429 
Q 1922 3584 2338 3584 
Q 2397 3584 2469 3576 
Q 2541 3569 2628 3553 
L 2631 2963 
z
" transform="scale(0.015625)"/>
       <path id="DejaVuSans-6f" d="M 1959 3097 
Q 1497 3097 1228 2736 
Q 959 2375 959 1747 
Q 959 1119 1226 758 
Q 1494 397 1959 397 
Q 2419 397 2687 759 
Q 2956 1122 2956 1747 
Q 2956 2369 2687 2733 
Q 2419 3097 1959 3097 
z
M 1959 3584 
Q 2709 3584 3137 3096 
Q 3566 2609 3566 1747 
Q 3566 888 3137 398 
Q 2709 -91 1959 -91 
Q 1206 -91 779 398 
Q 353 888 353 1747 
Q 353 2609 779 3096 
Q 1206 3584 1959 3584 
z
" transform="scale(0.015625)"/>
       <path id="DejaVuSans-75" d="M 544 1381 
L 544 3500 
L 1119 3500 
L 1119 1403 
Q 1119 906 1312 657 
Q 1506 409 1894 409 
Q 2359 409 2629 706 
Q 2900 1003 2900 1516 
L 2900 3500 
L 3475 3500 
L 3475 0 
L 2900 0 
L 2900 538 
Q 2691 219 2414 64 
Q 2138 -91 1772 -91 
Q 1169 -91 856 284 
Q 544 659 544 1381 
z
M 1991 3584 
L 1991 3584 
z
" transform="scale(0.015625)"/>
       <path id="DejaVuSans-67" d="M 2906 1791 
Q 2906 2416 2648 2759 
Q 2391 3103 1925 3103 
Q 1463 3103 1205 2759 
Q 947 2416 947 1791 
Q 947 1169 1205 825 
Q 1463 481 1925 481 
Q 2391 481 2648 825 
Q 2906 1169 2906 1791 
z
M 3481 434 
Q 3481 -459 3084 -895 
Q 2688 -1331 1869 -1331 
Q 1566 -1331 1297 -1286 
Q 1028 -1241 775 -1147 
L 775 -588 
Q 1028 -725 1275 -790 
Q 1522 -856 1778 -856 
Q 2344 -856 2625 -561 
Q 2906 -266 2906 331 
L 2906 616 
Q 2728 306 2450 153 
Q 2172 0 1784 0 
Q 1141 0 747 490 
Q 353 981 353 1791 
Q 353 2603 747 3093 
Q 1141 3584 1784 3584 
Q 2172 3584 2450 3431 
Q 2728 3278 2906 2969 
L 2906 3500 
L 3481 3500 
L 3481 434 
z
" transform="scale(0.015625)"/>
       <path id="DejaVuSans-70" d="M 1159 525 
L 1159 -1331 
L 581 -1331 
L 581 3500 
L 1159 3500 
L 1159 2969 
Q 1341 3281 1617 3432 
Q 1894 3584 2278 3584 
Q 2916 3584 3314 3078 
Q 3713 2572 3713 1747 
Q 3713 922 3314 415 
Q 2916 -91 2278 -91 
Q 1894 -91 1617 61 
Q 1341 213 1159 525 
z
M 3116 1747 
Q 3116 2381 2855 2742 
Q 2594 3103 2138 3103 
Q 1681 3103 1420 2742 
Q 1159 2381 1159 1747 
Q 1159 1113 1420 752 
Q 1681 391 2138 391 
Q 2594 391 2855 752 
Q 3116 1113 3116 1747 
z
" transform="scale(0.015625)"/>
       <path id="DejaVuSans-74" d="M 1172 4494 
L 1172 3500 
L 2356 3500 
L 2356 3053 
L 1172 3053 
L 1172 1153 
Q 1172 725 1289 603 
Q 1406 481 1766 481 
L 2356 481 
L 2356 0 
L 1766 0 
Q 1100 0 847 248 
Q 594 497 594 1153 
L 594 3053 
L 172 3053 
L 172 3500 
L 594 3500 
L 594 4494 
L 1172 4494 
z
" transform="scale(0.015625)"/>
       <path id="DejaVuSans-4d" d="M 628 4666 
L 1569 4666 
L 2759 1491 
L 3956 4666 
L 4897 4666 
L 4897 0 
L 4281 0 
L 4281 4097 
L 3078 897 
L 2444 897 
L 1241 4097 
L 1241 0 
L 628 0 
L 628 4666 
z
" transform="scale(0.015625)"/>
       <path id="DejaVuSans-62" d="M 3116 1747 
Q 3116 2381 2855 2742 
Q 2594 3103 2138 3103 
Q 1681 3103 1420 2742 
Q 1159 2381 1159 1747 
Q 1159 1113 1420 752 
Q 1681 391 2138 391 
Q 2594 391 2855 752 
Q 3116 1113 3116 1747 
z
M 1159 2969 
Q 1341 3281 1617 3432 
Q 1894 3584 2278 3584 
Q 2916 3584 3314 3078 
Q 3713 2572 3713 1747 
Q 3713 922 3314 415 
Q 2916 -91 2278 -91 
Q 1894 -91 1617 61 
Q 1341 213 1159 525 
L 1159 0 
L 581 0 
L 581 4863 
L 1159 4863 
L 1159 2969 
z
" transform="scale(0.015625)"/>
      </defs>
      <use xlink:href="#DejaVuSans-54"/>
      <use xlink:href="#DejaVuSans-68" x="61.083984"/>
      <use xlink:href="#DejaVuSans-72" x="124.462891"/>
      <use xlink:href="#DejaVuSans-6f" x="163.326172"/>
      <use xlink:href="#DejaVuSans-75" x="224.507812"/>
      <use xlink:href="#DejaVuSans-67" x="287.886719"/>
      <use xlink:href="#DejaVuSans-68" x="351.363281"/>
      <use xlink:href="#DejaVuSans-70" x="414.742188"/>
      <use xlink:href="#DejaVuSans-75" x="478.21875"/>
      <use xlink:href="#DejaVuSans-74" x="541.597656"/>
      <use xlink:href="#DejaVuSans-20" x="580.806641"/>
      <use xlink:href="#DejaVuSans-28" x="612.59375"/>
      <use xlink:href="#DejaVuSans-4d" x="651.607422"/>
      <use xlink:href="#DejaVuSans-62" x="737.886719"/>
      <use xlink:href="#DejaVuSans-70" x="801.363281"/>
      <use xlink:href="#DejaVuSans-73" x="864.839844"/>
      <use xlink:href="#DejaVuSans-29" x="916.939453"/>
     </g>
    </g>
   </g>
   <g id="patch_3">
    <path d="M 108.01 331.64 
L 108.01 23.76 
" style="fill: none; stroke: #000000; stroke-width: 0.8; stroke-linejoin: miter; stroke-linecap: square"/>
   </g>
   <g id="patch_4">
    <path d="M 897.84 331.64 
L 897.84 23.76 
" style="fill: none; stroke: #000000; stroke-width: 0.8; stroke-linejoin: miter; stroke-linecap: square"/>
   </g>
   <g id="patch_5">
    <path d="M 108.01 331.64 
L 897.84 331.64 
" style="fill: none; stroke: #000000; stroke-width: 0.8; stroke-linejoin: miter; stroke-linecap: square"/>
   </g>
   <g id="patch_6">
    <path d="M 108.01 23.76 
L 897.84 23.76 
" style="fill: none; stroke: #000000; stroke-width: 0.8; stroke-linejoin: miter; stroke-linecap: square"/>
   </g>
   <g id="legend_1">
    <g id="patch_7">
     <path d="M 756.24 148.6425 
L 881.04 148.6425 
Q 885.84 148.6425 885.84 143.8425 
L 885.84 40.56 
Q 885.84 35.76 881.04 35.76 
L 756.24 35.76 
Q 751.44 35.76 751.44 40.56 
L 751.44 143.8425 
Q 751.44 148.6425 756.24 148.6425 
z
" style="fill: #ffffff; opacity: 0.8; stroke: #cccccc; stroke-linejoin: miter"/>
    </g>
    <g id="patch_8">
     <path d="M 761.04 63.59625 
L 809.04 63.59625 
L 809.04 46.79625 
L 761.04 46.79625 
z
" style="fill: #1f77b4"/>
    </g>
    <g id="text_15">
     <!-- UE1 -->
     <g transform="translate(828.24 63.59625)scale(0.24 -0.24)">
      <defs>
       <path id="DejaVuSans-55" d="M 556 4666 
L 1191 4666 
L 1191 1831 
Q 1191 1081 1462 751 
Q 1734 422 2344 422 
Q 2950 422 3222 751 
Q 3494 1081 3494 1831 
L 3494 4666 
L 4128 4666 
L 4128 1753 
Q 4128 841 3676 375 
Q 3225 -91 2344 -91 
Q 1459 -91 1007 375 
Q 556 841 556 1753 
L 556 4666 
z
" transform="scale(0.015625)"/>
       <path id="DejaVuSans-45" d="M 628 4666 
L 3578 4666 
L 3578 4134 
L 1259 4134 
L 1259 2753 
L 3481 2753 
L 3481 2222 
L 1259 2222 
L 1259 531 
L 3634 531 
L 3634 0 
L 628 0 
L 628 4666 
z
" transform="scale(0.015625)"/>
      </defs>
      <use xlink:href="#DejaVuSans-55"/>
      <use xlink:href="#DejaVuSans-45" x="73.193359"/>
      <use xlink:href="#DejaVuSans-31" x="136.376953"/>
     </g>
    </g>
    <g id="patch_9">
     <path d="M 761.04 98.82375 
L 809.04 98.82375 
L 809.04 82.02375 
L 761.04 82.02375 
z
" style="fill: #ff7f0e"/>
    </g>
    <g id="text_16">
     <!-- UE2 -->
     <g transform="translate(828.24 98.82375)scale(0.24 -0.24)">
      <use xlink:href="#DejaVuSans-55"/>
      <use xlink:href="#DejaVuSans-45" x="73.193359"/>
      <use xlink:href="#DejaVuSans-32" x="136.376953"/>
     </g>
    </g>
    <g id="patch_10">
     <path d="M 761.04 134.05125 
L 809.04 134.05125 
L 809.04 117.25125 
L 761.04 117.25125 
z
" style="fill: #2ca02c"/>
    </g>
    <g id="text_17">
     <!-- UE3 -->
     <g transform="translate(828.24 134.05125)scale(0.24 -0.24)">
      <defs>
       <path id="DejaVuSans-33" d="M 2597 2516 
Q 3050 2419 3304 2112 
Q 3559 1806 3559 1356 
Q 3559 666 3084 287 
Q 2609 -91 1734 -91 
Q 1441 -91 1130 -33 
Q 819 25 488 141 
L 488 750 
Q 750 597 1062 519 
Q 1375 441 1716 441 
Q 2309 441 2620 675 
Q 2931 909 2931 1356 
Q 2931 1769 2642 2001 
Q 2353 2234 1838 2234 
L 1294 2234 
L 1294 2753 
L 1863 2753 
Q 2328 2753 2575 2939 
Q 2822 3125 2822 3475 
Q 2822 3834 2567 4026 
Q 2313 4219 1838 4219 
Q 1578 4219 1281 4162 
Q 984 4106 628 3988 
L 628 4550 
Q 988 4650 1302 4700 
Q 1616 4750 1894 4750 
Q 2613 4750 3031 4423 
Q 3450 4097 3450 3541 
Q 3450 3153 3228 2886 
Q 3006 2619 2597 2516 
z
" transform="scale(0.015625)"/>
      </defs>
      <use xlink:href="#DejaVuSans-55"/>
      <use xlink:href="#DejaVuSans-45" x="73.193359"/>
      <use xlink:href="#DejaVuSans-33" x="136.376953"/>
     </g>
    </g>
   </g>
  </g>
 </g>
 <defs>
  <clipPath id="pdb6a918c27">
   <rect x="108.01" y="23.76" width="789.83" height="307.88"/>
  </clipPath>
 </defs>
</svg>
