<?xml version="1.0" encoding="utf-8" standalone="no"?>
<!DOCTYPE svg PUBLIC "-//W3C//DTD SVG 1.1//EN"
  "http://www.w3.org/Graphics/SVG/1.1/DTD/svg11.dtd">
<svg xmlns:xlink="http://www.w3.org/1999/xlink" width="921.6pt" height="410.4pt" viewBox="0 0 921.6 410.4" xmlns="http://www.w3.org/2000/svg" version="1.1">
 <metadata>
  <rdf:RDF xmlns:dc="http://purl.org/dc/elements/1.1/" xmlns:cc="http://creativecommons.org/ns#" xmlns:rdf="http://www.w3.org/1999/02/22-rdf-syntax-ns#">
   <cc:Work>
    <dc:type rdf:resource="http://purl.org/dc/dcmitype/StillImage"/>
    <dc:date>2023-05-08T14:32:24.786576</dc:date>
    <dc:format>image/svg+xml</dc:format>
    <dc:creator>
     <cc:Agent>
      <dc:title>Matplotlib v3.7.1, https://matplotlib.org/</dc:title>
     </cc:Agent>
    </dc:creator>
   </cc:Work>
  </rdf:RDF>
 </metadata>
 <defs>
  <style type="text/css">*{stroke-linejoin: round; stroke-linecap: butt}</style>
 </defs>
 <g id="figure_1">
  <g id="patch_1">
   <path d="M 0 410.4 
L 921.6 410.4 
L 921.6 0 
L 0 0 
z
" style="fill: #ffffff"/>
  </g>
  <g id="axes_1">
   <g id="patch_2">
    <path d="M 92.974375 331.120625 
L 897.84 331.120625 
L 897.84 23.76 
L 92.974375 23.76 
z
" style="fill: #ffffff"/>
   </g>
   <g id="matplotlib.axis_1">
    <g id="xtick_1">
     <g id="line2d_1">
      <path d="M 92.974375 331.120625 
L 92.974375 23.76 
" clip-path="url(#pf36414f3b2)" style="fill: none; stroke: #b0b0b0; stroke-width: 0.8; stroke-linecap: square"/>
     </g>
     <g id="line2d_2">
      <defs>
       <path id="m06f4046386" d="M 0 0 
L 0 3.5 
" style="stroke: #000000; stroke-width: 0.8"/>
      </defs>
      <g>
       <use xlink:href="#m06f4046386" x="92.974375" y="331.120625" style="stroke: #000000; stroke-width: 0.8"/>
      </g>
     </g>
     <g id="text_1">
      <!-- 0.0 -->
      <g transform="translate(75.480938 354.837188) scale(0.22 -0.22)">
       <defs>
        <path id="DejaVuSans-30" d="M 2034 4250 
Q 1547 4250 1301 3770 
Q 1056 3291 1056 2328 
Q 1056 1369 1301 889 
Q 1547 409 2034 409 
Q 2525 409 2770 889 
Q 3016 1369 3016 2328 
Q 3016 3291 2770 3770 
Q 2525 4250 2034 4250 
z
M 2034 4750 
Q 2819 4750 3233 4129 
Q 3647 3509 3647 2328 
Q 3647 1150 3233 529 
Q 2819 -91 2034 -91 
Q 1250 -91 836 529 
Q 422 1150 422 2328 
Q 422 3509 836 4129 
Q 1250 4750 2034 4750 
z
" transform="scale(0.015625)"/>
        <path id="DejaVuSans-2e" d="M 684 794 
L 1344 794 
L 1344 0 
L 684 0 
L 684 794 
z
" transform="scale(0.015625)"/>
       </defs>
       <use xlink:href="#DejaVuSans-30"/>
       <use xlink:href="#DejaVuSans-2e" x="63.623047"/>
       <use xlink:href="#DejaVuSans-30" x="95.410156"/>
      </g>
     </g>
    </g>
    <g id="xtick_2">
     <g id="line2d_3">
      <path d="M 182.634215 331.120625 
L 182.634215 23.76 
" clip-path="url(#pf36414f3b2)" style="fill: none; stroke: #b0b0b0; stroke-width: 0.8; stroke-linecap: square"/>
     </g>
     <g id="line2d_4">
      <g>
       <use xlink:href="#m06f4046386" x="182.634215" y="331.120625" style="stroke: #000000; stroke-width: 0.8"/>
      </g>
     </g>
     <g id="text_2">
      <!-- 2.5 -->
      <g transform="translate(165.140778 354.837188) scale(0.22 -0.22)">
       <defs>
        <path id="DejaVuSans-32" d="M 1228 531 
L 3431 531 
L 3431 0 
L 469 0 
L 469 531 
Q 828 903 1448 1529 
Q 2069 2156 2228 2338 
Q 2531 2678 2651 2914 
Q 2772 3150 2772 3378 
Q 2772 3750 2511 3984 
Q 2250 4219 1831 4219 
Q 1534 4219 1204 4116 
Q 875 4013 500 3803 
L 500 4441 
Q 881 4594 1212 4672 
Q 1544 4750 1819 4750 
Q 2544 4750 2975 4387 
Q 3406 4025 3406 3419 
Q 3406 3131 3298 2873 
Q 3191 2616 2906 2266 
Q 2828 2175 2409 1742 
Q 1991 1309 1228 531 
z
" transform="scale(0.015625)"/>
        <path id="DejaVuSans-35" d="M 691 4666 
L 3169 4666 
L 3169 4134 
L 1269 4134 
L 1269 2991 
Q 1406 3038 1543 3061 
Q 1681 3084 1819 3084 
Q 2600 3084 3056 2656 
Q 3513 2228 3513 1497 
Q 3513 744 3044 326 
Q 2575 -91 1722 -91 
Q 1428 -91 1123 -41 
Q 819 9 494 109 
L 494 744 
Q 775 591 1075 516 
Q 1375 441 1709 441 
Q 2250 441 2565 725 
Q 2881 1009 2881 1497 
Q 2881 1984 2565 2268 
Q 2250 2553 1709 2553 
Q 1456 2553 1204 2497 
Q 953 2441 691 2322 
L 691 4666 
z
" transform="scale(0.015625)"/>
       </defs>
       <use xlink:href="#DejaVuSans-32"/>
       <use xlink:href="#DejaVuSans-2e" x="63.623047"/>
       <use xlink:href="#DejaVuSans-35" x="95.410156"/>
      </g>
     </g>
    </g>
    <g id="xtick_3">
     <g id="line2d_5">
      <path d="M 272.294055 331.120625 
L 272.294055 23.76 
" clip-path="url(#pf36414f3b2)" style="fill: none; stroke: #b0b0b0; stroke-width: 0.8; stroke-linecap: square"/>
     </g>
     <g id="line2d_6">
      <g>
       <use xlink:href="#m06f4046386" x="272.294055" y="331.120625" style="stroke: #000000; stroke-width: 0.8"/>
      </g>
     </g>
     <g id="text_3">
      <!-- 5.0 -->
      <g transform="translate(254.800618 354.837188) scale(0.22 -0.22)">
       <use xlink:href="#DejaVuSans-35"/>
       <use xlink:href="#DejaVuSans-2e" x="63.623047"/>
       <use xlink:href="#DejaVuSans-30" x="95.410156"/>
      </g>
     </g>
    </g>
    <g id="xtick_4">
     <g id="line2d_7">
      <path d="M 361.953895 331.120625 
L 361.953895 23.76 
" clip-path="url(#pf36414f3b2)" style="fill: none; stroke: #b0b0b0; stroke-width: 0.8; stroke-linecap: square"/>
     </g>
     <g id="line2d_8">
      <g>
       <use xlink:href="#m06f4046386" x="361.953895" y="331.120625" style="stroke: #000000; stroke-width: 0.8"/>
      </g>
     </g>
     <g id="text_4">
      <!-- 7.5 -->
      <g transform="translate(344.460458 354.837188) scale(0.22 -0.22)">
       <defs>
        <path id="DejaVuSans-37" d="M 525 4666 
L 3525 4666 
L 3525 4397 
L 1831 0 
L 1172 0 
L 2766 4134 
L 525 4134 
L 525 4666 
z
" transform="scale(0.015625)"/>
       </defs>
       <use xlink:href="#DejaVuSans-37"/>
       <use xlink:href="#DejaVuSans-2e" x="63.623047"/>
       <use xlink:href="#DejaVuSans-35" x="95.410156"/>
      </g>
     </g>
    </g>
    <g id="xtick_5">
     <g id="line2d_9">
      <path d="M 451.613735 331.120625 
L 451.613735 23.76 
" clip-path="url(#pf36414f3b2)" style="fill: none; stroke: #b0b0b0; stroke-width: 0.8; stroke-linecap: square"/>
     </g>
     <g id="line2d_10">
      <g>
       <use xlink:href="#m06f4046386" x="451.613735" y="331.120625" style="stroke: #000000; stroke-width: 0.8"/>
      </g>
     </g>
     <g id="text_5">
      <!-- 10.0 -->
      <g transform="translate(427.121548 354.837188) scale(0.22 -0.22)">
       <defs>
        <path id="DejaVuSans-31" d="M 794 531 
L 1825 531 
L 1825 4091 
L 703 3866 
L 703 4441 
L 1819 4666 
L 2450 4666 
L 2450 531 
L 3481 531 
L 3481 0 
L 794 0 
L 794 531 
z
" transform="scale(0.015625)"/>
       </defs>
       <use xlink:href="#DejaVuSans-31"/>
       <use xlink:href="#DejaVuSans-30" x="63.623047"/>
       <use xlink:href="#DejaVuSans-2e" x="127.246094"/>
       <use xlink:href="#DejaVuSans-30" x="159.033203"/>
      </g>
     </g>
    </g>
    <g id="xtick_6">
     <g id="line2d_11">
      <path d="M 541.273575 331.120625 
L 541.273575 23.76 
" clip-path="url(#pf36414f3b2)" style="fill: none; stroke: #b0b0b0; stroke-width: 0.8; stroke-linecap: square"/>
     </g>
     <g id="line2d_12">
      <g>
       <use xlink:href="#m06f4046386" x="541.273575" y="331.120625" style="stroke: #000000; stroke-width: 0.8"/>
      </g>
     </g>
     <g id="text_6">
      <!-- 12.5 -->
      <g transform="translate(516.781388 354.837188) scale(0.22 -0.22)">
       <use xlink:href="#DejaVuSans-31"/>
       <use xlink:href="#DejaVuSans-32" x="63.623047"/>
       <use xlink:href="#DejaVuSans-2e" x="127.246094"/>
       <use xlink:href="#DejaVuSans-35" x="159.033203"/>
      </g>
     </g>
    </g>
    <g id="xtick_7">
     <g id="line2d_13">
      <path d="M 630.933415 331.120625 
L 630.933415 23.76 
" clip-path="url(#pf36414f3b2)" style="fill: none; stroke: #b0b0b0; stroke-width: 0.8; stroke-linecap: square"/>
     </g>
     <g id="line2d_14">
      <g>
       <use xlink:href="#m06f4046386" x="630.933415" y="331.120625" style="stroke: #000000; stroke-width: 0.8"/>
      </g>
     </g>
     <g id="text_7">
      <!-- 15.0 -->
      <g transform="translate(606.441228 354.837188) scale(0.22 -0.22)">
       <use xlink:href="#DejaVuSans-31"/>
       <use xlink:href="#DejaVuSans-35" x="63.623047"/>
       <use xlink:href="#DejaVuSans-2e" x="127.246094"/>
       <use xlink:href="#DejaVuSans-30" x="159.033203"/>
      </g>
     </g>
    </g>
    <g id="xtick_8">
     <g id="line2d_15">
      <path d="M 720.593255 331.120625 
L 720.593255 23.76 
" clip-path="url(#pf36414f3b2)" style="fill: none; stroke: #b0b0b0; stroke-width: 0.8; stroke-linecap: square"/>
     </g>
     <g id="line2d_16">
      <g>
       <use xlink:href="#m06f4046386" x="720.593255" y="331.120625" style="stroke: #000000; stroke-width: 0.8"/>
      </g>
     </g>
     <g id="text_8">
      <!-- 17.5 -->
      <g transform="translate(696.101068 354.837188) scale(0.22 -0.22)">
       <use xlink:href="#DejaVuSans-31"/>
       <use xlink:href="#DejaVuSans-37" x="63.623047"/>
       <use xlink:href="#DejaVuSans-2e" x="127.246094"/>
       <use xlink:href="#DejaVuSans-35" x="159.033203"/>
      </g>
     </g>
    </g>
    <g id="xtick_9">
     <g id="line2d_17">
      <path d="M 810.253095 331.120625 
L 810.253095 23.76 
" clip-path="url(#pf36414f3b2)" style="fill: none; stroke: #b0b0b0; stroke-width: 0.8; stroke-linecap: square"/>
     </g>
     <g id="line2d_18">
      <g>
       <use xlink:href="#m06f4046386" x="810.253095" y="331.120625" style="stroke: #000000; stroke-width: 0.8"/>
      </g>
     </g>
     <g id="text_9">
      <!-- 20.0 -->
      <g transform="translate(785.760908 354.837188) scale(0.22 -0.22)">
       <use xlink:href="#DejaVuSans-32"/>
       <use xlink:href="#DejaVuSans-30" x="63.623047"/>
       <use xlink:href="#DejaVuSans-2e" x="127.246094"/>
       <use xlink:href="#DejaVuSans-30" x="159.033203"/>
      </g>
     </g>
    </g>
    <g id="text_10">
     <!-- RTT (ms) -->
     <g transform="translate(442.372812 381.64875) scale(0.24 -0.24)">
      <defs>
       <path id="DejaVuSans-52" d="M 2841 2188 
Q 3044 2119 3236 1894 
Q 3428 1669 3622 1275 
L 4263 0 
L 3584 0 
L 2988 1197 
Q 2756 1666 2539 1819 
Q 2322 1972 1947 1972 
L 1259 1972 
L 1259 0 
L 628 0 
L 628 4666 
L 2053 4666 
Q 2853 4666 3247 4331 
Q 3641 3997 3641 3322 
Q 3641 2881 3436 2590 
Q 3231 2300 2841 2188 
z
M 1259 4147 
L 1259 2491 
L 2053 2491 
Q 2509 2491 2742 2702 
Q 2975 2913 2975 3322 
Q 2975 3731 2742 3939 
Q 2509 4147 2053 4147 
L 1259 4147 
z
" transform="scale(0.015625)"/>
       <path id="DejaVuSans-54" d="M -19 4666 
L 3928 4666 
L 3928 4134 
L 2272 4134 
L 2272 0 
L 1638 0 
L 1638 4134 
L -19 4134 
L -19 4666 
z
" transform="scale(0.015625)"/>
       <path id="DejaVuSans-20" transform="scale(0.015625)"/>
       <path id="DejaVuSans-28" d="M 1984 4856 
Q 1566 4138 1362 3434 
Q 1159 2731 1159 2009 
Q 1159 1288 1364 580 
Q 1569 -128 1984 -844 
L 1484 -844 
Q 1016 -109 783 600 
Q 550 1309 550 2009 
Q 550 2706 781 3412 
Q 1013 4119 1484 4856 
L 1984 4856 
z
" transform="scale(0.015625)"/>
       <path id="DejaVuSans-6d" d="M 3328 2828 
Q 3544 3216 3844 3400 
Q 4144 3584 4550 3584 
Q 5097 3584 5394 3201 
Q 5691 2819 5691 2113 
L 5691 0 
L 5113 0 
L 5113 2094 
Q 5113 2597 4934 2840 
Q 4756 3084 4391 3084 
Q 3944 3084 3684 2787 
Q 3425 2491 3425 1978 
L 3425 0 
L 2847 0 
L 2847 2094 
Q 2847 2600 2669 2842 
Q 2491 3084 2119 3084 
Q 1678 3084 1418 2786 
Q 1159 2488 1159 1978 
L 1159 0 
L 581 0 
L 581 3500 
L 1159 3500 
L 1159 2956 
Q 1356 3278 1631 3431 
Q 1906 3584 2284 3584 
Q 2666 3584 2933 3390 
Q 3200 3197 3328 2828 
z
" transform="scale(0.015625)"/>
       <path id="DejaVuSans-73" d="M 2834 3397 
L 2834 2853 
Q 2591 2978 2328 3040 
Q 2066 3103 1784 3103 
Q 1356 3103 1142 2972 
Q 928 2841 928 2578 
Q 928 2378 1081 2264 
Q 1234 2150 1697 2047 
L 1894 2003 
Q 2506 1872 2764 1633 
Q 3022 1394 3022 966 
Q 3022 478 2636 193 
Q 2250 -91 1575 -91 
Q 1294 -91 989 -36 
Q 684 19 347 128 
L 347 722 
Q 666 556 975 473 
Q 1284 391 1588 391 
Q 1994 391 2212 530 
Q 2431 669 2431 922 
Q 2431 1156 2273 1281 
Q 2116 1406 1581 1522 
L 1381 1569 
Q 847 1681 609 1914 
Q 372 2147 372 2553 
Q 372 3047 722 3315 
Q 1072 3584 1716 3584 
Q 2034 3584 2315 3537 
Q 2597 3491 2834 3397 
z
" transform="scale(0.015625)"/>
       <path id="DejaVuSans-29" d="M 513 4856 
L 1013 4856 
Q 1481 4119 1714 3412 
Q 1947 2706 1947 2009 
Q 1947 1309 1714 600 
Q 1481 -109 1013 -844 
L 513 -844 
Q 928 -128 1133 580 
Q 1338 1288 1338 2009 
Q 1338 2731 1133 3434 
Q 928 4138 513 4856 
z
" transform="scale(0.015625)"/>
      </defs>
      <use xlink:href="#DejaVuSans-52"/>
      <use xlink:href="#DejaVuSans-54" x="62.232422"/>
      <use xlink:href="#DejaVuSans-54" x="121.566406"/>
      <use xlink:href="#DejaVuSans-20" x="182.650391"/>
      <use xlink:href="#DejaVuSans-28" x="214.4375"/>
      <use xlink:href="#DejaVuSans-6d" x="253.451172"/>
      <use xlink:href="#DejaVuSans-73" x="350.863281"/>
      <use xlink:href="#DejaVuSans-29" x="402.962891"/>
     </g>
    </g>
   </g>
   <g id="matplotlib.axis_2">
    <g id="ytick_1">
     <g id="line2d_19">
      <path d="M 92.974375 317.149688 
L 897.84 317.149688 
" clip-path="url(#pf36414f3b2)" style="fill: none; stroke: #b0b0b0; stroke-width: 0.8; stroke-linecap: square"/>
     </g>
     <g id="line2d_20">
      <defs>
       <path id="m14f73bb8c6" d="M 0 0 
L -3.5 0 
" style="stroke: #000000; stroke-width: 0.8"/>
      </defs>
      <g>
       <use xlink:href="#m14f73bb8c6" x="92.974375" y="317.149688" style="stroke: #000000; stroke-width: 0.8"/>
      </g>
     </g>
     <g id="text_11">
      <!-- 0.0 -->
      <g transform="translate(50.9875 325.507969) scale(0.22 -0.22)">
       <use xlink:href="#DejaVuSans-30"/>
       <use xlink:href="#DejaVuSans-2e" x="63.623047"/>
       <use xlink:href="#DejaVuSans-30" x="95.410156"/>
      </g>
     </g>
    </g>
    <g id="ytick_2">
     <g id="line2d_21">
      <path d="M 92.974375 261.265938 
L 897.84 261.265938 
" clip-path="url(#pf36414f3b2)" style="fill: none; stroke: #b0b0b0; stroke-width: 0.8; stroke-linecap: square"/>
     </g>
     <g id="line2d_22">
      <g>
       <use xlink:href="#m14f73bb8c6" x="92.974375" y="261.265938" style="stroke: #000000; stroke-width: 0.8"/>
      </g>
     </g>
     <g id="text_12">
      <!-- 0.2 -->
      <g transform="translate(50.9875 269.624219) scale(0.22 -0.22)">
       <use xlink:href="#DejaVuSans-30"/>
       <use xlink:href="#DejaVuSans-2e" x="63.623047"/>
       <use xlink:href="#DejaVuSans-32" x="95.410156"/>
      </g>
     </g>
    </g>
    <g id="ytick_3">
     <g id="line2d_23">
      <path d="M 92.974375 205.382188 
L 897.84 205.382188 
" clip-path="url(#pf36414f3b2)" style="fill: none; stroke: #b0b0b0; stroke-width: 0.8; stroke-linecap: square"/>
     </g>
     <g id="line2d_24">
      <g>
       <use xlink:href="#m14f73bb8c6" x="92.974375" y="205.382188" style="stroke: #000000; stroke-width: 0.8"/>
      </g>
     </g>
     <g id="text_13">
      <!-- 0.4 -->
      <g transform="translate(50.9875 213.740469) scale(0.22 -0.22)">
       <defs>
        <path id="DejaVuSans-34" d="M 2419 4116 
L 825 1625 
L 2419 1625 
L 2419 4116 
z
M 2253 4666 
L 3047 4666 
L 3047 1625 
L 3713 1625 
L 3713 1100 
L 3047 1100 
L 3047 0 
L 2419 0 
L 2419 1100 
L 313 1100 
L 313 1709 
L 2253 4666 
z
" transform="scale(0.015625)"/>
       </defs>
       <use xlink:href="#DejaVuSans-30"/>
       <use xlink:href="#DejaVuSans-2e" x="63.623047"/>
       <use xlink:href="#DejaVuSans-34" x="95.410156"/>
      </g>
     </g>
    </g>
    <g id="ytick_4">
     <g id="line2d_25">
      <path d="M 92.974375 149.498438 
L 897.84 149.498438 
" clip-path="url(#pf36414f3b2)" style="fill: none; stroke: #b0b0b0; stroke-width: 0.8; stroke-linecap: square"/>
     </g>
     <g id="line2d_26">
      <g>
       <use xlink:href="#m14f73bb8c6" x="92.974375" y="149.498438" style="stroke: #000000; stroke-width: 0.8"/>
      </g>
     </g>
     <g id="text_14">
      <!-- 0.6 -->
      <g transform="translate(50.9875 157.856719) scale(0.22 -0.22)">
       <defs>
        <path id="DejaVuSans-36" d="M 2113 2584 
Q 1688 2584 1439 2293 
Q 1191 2003 1191 1497 
Q 1191 994 1439 701 
Q 1688 409 2113 409 
Q 2538 409 2786 701 
Q 3034 994 3034 1497 
Q 3034 2003 2786 2293 
Q 2538 2584 2113 2584 
z
M 3366 4563 
L 3366 3988 
Q 3128 4100 2886 4159 
Q 2644 4219 2406 4219 
Q 1781 4219 1451 3797 
Q 1122 3375 1075 2522 
Q 1259 2794 1537 2939 
Q 1816 3084 2150 3084 
Q 2853 3084 3261 2657 
Q 3669 2231 3669 1497 
Q 3669 778 3244 343 
Q 2819 -91 2113 -91 
Q 1303 -91 875 529 
Q 447 1150 447 2328 
Q 447 3434 972 4092 
Q 1497 4750 2381 4750 
Q 2619 4750 2861 4703 
Q 3103 4656 3366 4563 
z
" transform="scale(0.015625)"/>
       </defs>
       <use xlink:href="#DejaVuSans-30"/>
       <use xlink:href="#DejaVuSans-2e" x="63.623047"/>
       <use xlink:href="#DejaVuSans-36" x="95.410156"/>
      </g>
     </g>
    </g>
    <g id="ytick_5">
     <g id="line2d_27">
      <path d="M 92.974375 93.614688 
L 897.84 93.614688 
" clip-path="url(#pf36414f3b2)" style="fill: none; stroke: #b0b0b0; stroke-width: 0.8; stroke-linecap: square"/>
     </g>
     <g id="line2d_28">
      <g>
       <use xlink:href="#m14f73bb8c6" x="92.974375" y="93.614688" style="stroke: #000000; stroke-width: 0.8"/>
      </g>
     </g>
     <g id="text_15">
      <!-- 0.8 -->
      <g transform="translate(50.9875 101.972969) scale(0.22 -0.22)">
       <defs>
        <path id="DejaVuSans-38" d="M 2034 2216 
Q 1584 2216 1326 1975 
Q 1069 1734 1069 1313 
Q 1069 891 1326 650 
Q 1584 409 2034 409 
Q 2484 409 2743 651 
Q 3003 894 3003 1313 
Q 3003 1734 2745 1975 
Q 2488 2216 2034 2216 
z
M 1403 2484 
Q 997 2584 770 2862 
Q 544 3141 544 3541 
Q 544 4100 942 4425 
Q 1341 4750 2034 4750 
Q 2731 4750 3128 4425 
Q 3525 4100 3525 3541 
Q 3525 3141 3298 2862 
Q 3072 2584 2669 2484 
Q 3125 2378 3379 2068 
Q 3634 1759 3634 1313 
Q 3634 634 3220 271 
Q 2806 -91 2034 -91 
Q 1263 -91 848 271 
Q 434 634 434 1313 
Q 434 1759 690 2068 
Q 947 2378 1403 2484 
z
M 1172 3481 
Q 1172 3119 1398 2916 
Q 1625 2713 2034 2713 
Q 2441 2713 2670 2916 
Q 2900 3119 2900 3481 
Q 2900 3844 2670 4047 
Q 2441 4250 2034 4250 
Q 1625 4250 1398 4047 
Q 1172 3844 1172 3481 
z
" transform="scale(0.015625)"/>
       </defs>
       <use xlink:href="#DejaVuSans-30"/>
       <use xlink:href="#DejaVuSans-2e" x="63.623047"/>
       <use xlink:href="#DejaVuSans-38" x="95.410156"/>
      </g>
     </g>
    </g>
    <g id="ytick_6">
     <g id="line2d_29">
      <path d="M 92.974375 37.730937 
L 897.84 37.730937 
" clip-path="url(#pf36414f3b2)" style="fill: none; stroke: #b0b0b0; stroke-width: 0.8; stroke-linecap: square"/>
     </g>
     <g id="line2d_30">
      <g>
       <use xlink:href="#m14f73bb8c6" x="92.974375" y="37.730937" style="stroke: #000000; stroke-width: 0.8"/>
      </g>
     </g>
     <g id="text_16">
      <!-- 1.0 -->
      <g transform="translate(50.9875 46.089219) scale(0.22 -0.22)">
       <use xlink:href="#DejaVuSans-31"/>
       <use xlink:href="#DejaVuSans-2e" x="63.623047"/>
       <use xlink:href="#DejaVuSans-30" x="95.410156"/>
      </g>
     </g>
    </g>
    <g id="text_17">
     <!-- Likelihood of occurrence -->
     <g transform="translate(41.99625 323.628438) rotate(-90) scale(0.24 -0.24)">
      <defs>
       <path id="DejaVuSans-4c" d="M 628 4666 
L 1259 4666 
L 1259 531 
L 3531 531 
L 3531 0 
L 628 0 
L 628 4666 
z
" transform="scale(0.015625)"/>
       <path id="DejaVuSans-69" d="M 603 3500 
L 1178 3500 
L 1178 0 
L 603 0 
L 603 3500 
z
M 603 4863 
L 1178 4863 
L 1178 4134 
L 603 4134 
L 603 4863 
z
" transform="scale(0.015625)"/>
       <path id="DejaVuSans-6b" d="M 581 4863 
L 1159 4863 
L 1159 1991 
L 2875 3500 
L 3609 3500 
L 1753 1863 
L 3688 0 
L 2938 0 
L 1159 1709 
L 1159 0 
L 581 0 
L 581 4863 
z
" transform="scale(0.015625)"/>
       <path id="DejaVuSans-65" d="M 3597 1894 
L 3597 1613 
L 953 1613 
Q 991 1019 1311 708 
Q 1631 397 2203 397 
Q 2534 397 2845 478 
Q 3156 559 3463 722 
L 3463 178 
Q 3153 47 2828 -22 
Q 2503 -91 2169 -91 
Q 1331 -91 842 396 
Q 353 884 353 1716 
Q 353 2575 817 3079 
Q 1281 3584 2069 3584 
Q 2775 3584 3186 3129 
Q 3597 2675 3597 1894 
z
M 3022 2063 
Q 3016 2534 2758 2815 
Q 2500 3097 2075 3097 
Q 1594 3097 1305 2825 
Q 1016 2553 972 2059 
L 3022 2063 
z
" transform="scale(0.015625)"/>
       <path id="DejaVuSans-6c" d="M 603 4863 
L 1178 4863 
L 1178 0 
L 603 0 
L 603 4863 
z
" transform="scale(0.015625)"/>
       <path id="DejaVuSans-68" d="M 3513 2113 
L 3513 0 
L 2938 0 
L 2938 2094 
Q 2938 2591 2744 2837 
Q 2550 3084 2163 3084 
Q 1697 3084 1428 2787 
Q 1159 2491 1159 1978 
L 1159 0 
L 581 0 
L 581 4863 
L 1159 4863 
L 1159 2956 
Q 1366 3272 1645 3428 
Q 1925 3584 2291 3584 
Q 2894 3584 3203 3211 
Q 3513 2838 3513 2113 
z
" transform="scale(0.015625)"/>
       <path id="DejaVuSans-6f" d="M 1959 3097 
Q 1497 3097 1228 2736 
Q 959 2375 959 1747 
Q 959 1119 1226 758 
Q 1494 397 1959 397 
Q 2419 397 2687 759 
Q 2956 1122 2956 1747 
Q 2956 2369 2687 2733 
Q 2419 3097 1959 3097 
z
M 1959 3584 
Q 2709 3584 3137 3096 
Q 3566 2609 3566 1747 
Q 3566 888 3137 398 
Q 2709 -91 1959 -91 
Q 1206 -91 779 398 
Q 353 888 353 1747 
Q 353 2609 779 3096 
Q 1206 3584 1959 3584 
z
" transform="scale(0.015625)"/>
       <path id="DejaVuSans-64" d="M 2906 2969 
L 2906 4863 
L 3481 4863 
L 3481 0 
L 2906 0 
L 2906 525 
Q 2725 213 2448 61 
Q 2172 -91 1784 -91 
Q 1150 -91 751 415 
Q 353 922 353 1747 
Q 353 2572 751 3078 
Q 1150 3584 1784 3584 
Q 2172 3584 2448 3432 
Q 2725 3281 2906 2969 
z
M 947 1747 
Q 947 1113 1208 752 
Q 1469 391 1925 391 
Q 2381 391 2643 752 
Q 2906 1113 2906 1747 
Q 2906 2381 2643 2742 
Q 2381 3103 1925 3103 
Q 1469 3103 1208 2742 
Q 947 2381 947 1747 
z
" transform="scale(0.015625)"/>
       <path id="DejaVuSans-66" d="M 2375 4863 
L 2375 4384 
L 1825 4384 
Q 1516 4384 1395 4259 
Q 1275 4134 1275 3809 
L 1275 3500 
L 2222 3500 
L 2222 3053 
L 1275 3053 
L 1275 0 
L 697 0 
L 697 3053 
L 147 3053 
L 147 3500 
L 697 3500 
L 697 3744 
Q 697 4328 969 4595 
Q 1241 4863 1831 4863 
L 2375 4863 
z
" transform="scale(0.015625)"/>
       <path id="DejaVuSans-63" d="M 3122 3366 
L 3122 2828 
Q 2878 2963 2633 3030 
Q 2388 3097 2138 3097 
Q 1578 3097 1268 2742 
Q 959 2388 959 1747 
Q 959 1106 1268 751 
Q 1578 397 2138 397 
Q 2388 397 2633 464 
Q 2878 531 3122 666 
L 3122 134 
Q 2881 22 2623 -34 
Q 2366 -91 2075 -91 
Q 1284 -91 818 406 
Q 353 903 353 1747 
Q 353 2603 823 3093 
Q 1294 3584 2113 3584 
Q 2378 3584 2631 3529 
Q 2884 3475 3122 3366 
z
" transform="scale(0.015625)"/>
       <path id="DejaVuSans-75" d="M 544 1381 
L 544 3500 
L 1119 3500 
L 1119 1403 
Q 1119 906 1312 657 
Q 1506 409 1894 409 
Q 2359 409 2629 706 
Q 2900 1003 2900 1516 
L 2900 3500 
L 3475 3500 
L 3475 0 
L 2900 0 
L 2900 538 
Q 2691 219 2414 64 
Q 2138 -91 1772 -91 
Q 1169 -91 856 284 
Q 544 659 544 1381 
z
M 1991 3584 
L 1991 3584 
z
" transform="scale(0.015625)"/>
       <path id="DejaVuSans-72" d="M 2631 2963 
Q 2534 3019 2420 3045 
Q 2306 3072 2169 3072 
Q 1681 3072 1420 2755 
Q 1159 2438 1159 1844 
L 1159 0 
L 581 0 
L 581 3500 
L 1159 3500 
L 1159 2956 
Q 1341 3275 1631 3429 
Q 1922 3584 2338 3584 
Q 2397 3584 2469 3576 
Q 2541 3569 2628 3553 
L 2631 2963 
z
" transform="scale(0.015625)"/>
       <path id="DejaVuSans-6e" d="M 3513 2113 
L 3513 0 
L 2938 0 
L 2938 2094 
Q 2938 2591 2744 2837 
Q 2550 3084 2163 3084 
Q 1697 3084 1428 2787 
Q 1159 2491 1159 1978 
L 1159 0 
L 581 0 
L 581 3500 
L 1159 3500 
L 1159 2956 
Q 1366 3272 1645 3428 
Q 1925 3584 2291 3584 
Q 2894 3584 3203 3211 
Q 3513 2838 3513 2113 
z
" transform="scale(0.015625)"/>
      </defs>
      <use xlink:href="#DejaVuSans-4c"/>
      <use xlink:href="#DejaVuSans-69" x="55.712891"/>
      <use xlink:href="#DejaVuSans-6b" x="83.496094"/>
      <use xlink:href="#DejaVuSans-65" x="137.78125"/>
      <use xlink:href="#DejaVuSans-6c" x="199.304688"/>
      <use xlink:href="#DejaVuSans-69" x="227.087891"/>
      <use xlink:href="#DejaVuSans-68" x="254.871094"/>
      <use xlink:href="#DejaVuSans-6f" x="318.25"/>
      <use xlink:href="#DejaVuSans-6f" x="379.431641"/>
      <use xlink:href="#DejaVuSans-64" x="440.613281"/>
      <use xlink:href="#DejaVuSans-20" x="504.089844"/>
      <use xlink:href="#DejaVuSans-6f" x="535.876953"/>
      <use xlink:href="#DejaVuSans-66" x="597.058594"/>
      <use xlink:href="#DejaVuSans-20" x="632.263672"/>
      <use xlink:href="#DejaVuSans-6f" x="664.050781"/>
      <use xlink:href="#DejaVuSans-63" x="725.232422"/>
      <use xlink:href="#DejaVuSans-63" x="780.212891"/>
      <use xlink:href="#DejaVuSans-75" x="835.193359"/>
      <use xlink:href="#DejaVuSans-72" x="898.572266"/>
      <use xlink:href="#DejaVuSans-72" x="937.935547"/>
      <use xlink:href="#DejaVuSans-65" x="976.798828"/>
      <use xlink:href="#DejaVuSans-6e" x="1038.322266"/>
      <use xlink:href="#DejaVuSans-63" x="1101.701172"/>
      <use xlink:href="#DejaVuSans-65" x="1156.681641"/>
     </g>
    </g>
   </g>
   <g id="line2d_31">
    <path d="M 92.974375 317.149688 
L 252.369646 317.0483 
L 253.007227 316.8752 
L 253.166623 316.635332 
L 253.24632 316.323751 
L 253.644808 313.400826 
L 253.963599 313.225253 
L 255.079366 313.156013 
L 269.265545 313.052153 
L 269.504638 312.926036 
L 269.664033 312.569944 
L 269.823428 311.212342 
L 270.142219 306.432297 
L 270.939195 304.127588 
L 271.098591 301.221973 
L 271.257986 288.536183 
L 271.497079 264.947537 
L 271.736172 262.358449 
L 271.975265 261.94548 
L 272.692543 261.591861 
L 274.764682 261.374249 
L 284.328398 261.267916 
L 286.320839 261.040412 
L 286.719327 260.862366 
L 287.117815 260.345538 
L 287.356908 259.314354 
L 287.436606 258.530456 
L 287.675699 250.567835 
L 287.835094 229.251751 
L 287.994489 207.107257 
L 288.233582 202.72287 
L 288.711768 201.508694 
L 288.871163 201.273772 
L 289.030559 200.336557 
L 289.189954 196.973462 
L 289.429047 190.26211 
L 289.66814 189.567236 
L 290.226023 189.361988 
L 292.457557 189.19136 
L 305.288876 188.743772 
L 305.448272 188.528633 
L 305.607667 187.692805 
L 305.767062 184.732787 
L 305.926457 181.278197 
L 306.16555 180.615469 
L 306.484341 180.494299 
L 307.121922 180.249486 
L 307.440712 179.955215 
L 309.353456 179.885975 
L 310.150432 179.757386 
L 311.027106 179.522464 
L 311.186501 179.097131 
L 311.345897 178.098094 
L 311.584989 177.865645 
L 312.621059 177.806296 
L 319.235962 177.69749 
L 327.444819 177.366127 
L 327.604214 177.202918 
L 327.683912 176.953158 
L 327.923005 175.385363 
L 328.162098 175.162805 
L 330.712422 174.878426 
L 337.407023 174.772093 
L 338.044604 174.648449 
L 341.391905 174.547062 
L 341.5513 174.445675 
L 341.790393 174.101947 
L 342.268579 174.037652 
L 342.90616 173.911536 
L 343.384346 173.533188 
L 350.955621 173.407072 
L 357.969013 173.298266 
L 359.244176 173.20677 
L 359.403571 172.994104 
L 359.562966 172.237407 
L 359.802059 171.362014 
L 360.280245 171.248262 
L 360.838128 171.094944 
L 361.316314 170.526186 
L 362.511779 170.489093 
L 376.379167 170.167621 
L 377.335539 170.088489 
L 377.734027 169.744761 
L 378.212213 169.697777 
L 378.531003 169.393614 
L 380.762537 169.156219 
L 388.333813 169.047413 
L 391.920206 168.829801 
L 392.398392 167.130944 
L 393.115671 166.955371 
L 395.984786 166.824309 
L 396.462971 166.463271 
L 399.332086 166.396504 
L 400.766644 166.292643 
L 401.962108 166.248132 
L 406.903362 166.139326 
L 409.852174 165.963753 
L 410.170965 165.343064 
L 410.808546 165.095777 
L 411.446127 165.038902 
L 413.597963 164.885584 
L 413.757358 164.759468 
L 413.837056 164.603678 
L 413.996451 163.139742 
L 414.315242 158.559999 
L 414.554335 158.253364 
L 415.191916 157.729117 
L 418.140728 157.558489 
L 418.539216 157.427427 
L 420.531657 157.167777 
L 427.465352 156.858669 
L 427.704445 156.599018 
L 427.86384 155.696423 
L 428.023235 154.633091 
L 428.262328 154.413007 
L 431.051745 154.00993 
L 431.450233 153.577179 
L 431.609629 153.09497 
L 431.769024 151.173555 
L 431.928419 141.146093 
L 432.24721 108.281736 
L 432.566 105.4874 
L 433.044186 101.956151 
L 433.442674 101.703919 
L 433.841162 101.595113 
L 434.717836 101.486307 
L 436.391487 101.332989 
L 444.680041 101.184618 
L 445.636413 101.105486 
L 446.353691 100.724665 
L 447.947644 100.620805 
L 448.983713 100.447704 
L 449.461899 99.85669 
L 449.621294 99.275567 
L 449.700992 98.558436 
L 449.860387 93.152757 
L 450.179178 76.354594 
L 450.497968 74.893132 
L 451.055852 72.95688 
L 451.613735 72.786252 
L 454.16406 72.454888 
L 454.403152 72.368338 
L 455.917408 72.289206 
L 464.126264 72.1804 
L 467.473565 71.975153 
L 467.712658 71.752595 
L 468.190843 69.146197 
L 468.908122 68.787631 
L 471.777237 68.555182 
L 471.936632 68.238656 
L 472.01633 67.892455 
L 472.175725 66.685697 
L 472.414818 66.430992 
L 473.929073 66.154032 
L 476.798188 66.047699 
L 481.420651 65.869652 
L 484.608556 65.760846 
L 489.709205 65.511087 
L 489.8686 65.313258 
L 490.107693 64.93491 
L 490.984367 64.803848 
L 493.375296 64.764282 
L 499.352619 64.660422 
L 502.69992 64.35626 
L 503.656291 64.274655 
L 504.054779 64.061989 
L 505.409639 64.005113 
L 511.227567 63.896307 
L 512.980915 63.841904 
L 516.328215 63.629238 
L 517.284587 63.530323 
L 518.639447 63.426463 
L 522.22584 63.104991 
L 522.783724 62.67224 
L 531.391068 62.513977 
L 538.643553 62.405171 
L 539.520227 62.296365 
L 539.918715 62.011985 
L 541.751761 61.838885 
L 548.446362 61.73997 
L 554.184592 61.63611 
L 555.380057 61.599017 
L 557.452195 61.51494 
L 558.010079 61.408607 
L 567.015912 61.237979 
L 571.319584 61.131646 
L 572.036863 60.614817 
L 572.435351 59.42537 
L 573.232327 59.333874 
L 574.427792 59.289362 
L 578.890859 59.183029 
L 582.556951 58.737914 
L 583.274229 58.265597 
L 583.752415 57.934233 
L 585.426065 57.578141 
L 586.62153 57.494063 
L 588.932761 57.385257 
L 589.889133 57.23194 
L 590.845505 57.001964 
L 593.236434 56.771987 
L 593.395829 56.386221 
L 593.634922 55.958415 
L 593.794317 55.787788 
L 593.953712 55.387184 
L 594.03341 54.867882 
L 594.272503 51.220408 
L 594.511596 50.706053 
L 595.069479 50.59972 
L 597.141618 50.515642 
L 602.879848 50.406836 
L 604.872288 50.391999 
L 607.980496 50.285666 
L 610.769914 49.951829 
L 611.009006 49.744109 
L 611.168402 49.435001 
L 611.327797 48.317267 
L 611.56689 46.022449 
L 612.443564 44.355739 
L 613.24054 44.291445 
L 622.086978 44.182639 
L 627.267324 44.130709 
L 628.861277 44.039213 
L 629.180067 43.841383 
L 629.658253 42.941261 
L 631.730392 42.731068 
L 634.121321 42.557967 
L 634.440111 42.407123 
L 636.591947 42.384867 
L 642.011387 42.281007 
L 644.721106 41.96448 
L 651.654801 41.640535 
L 653.408149 41.586132 
L 659.146378 41.516892 
L 669.746164 41.408086 
L 673.890441 41.388303 
L 676.679858 41.279497 
L 683.135367 41.188001 
L 689.909666 41.079195 
L 695.090012 41.027265 
L 711.109237 40.918459 
L 715.7317 40.668699 
L 717.883536 40.579676 
L 721.78872 40.47087 
L 727.686345 40.396684 
L 734.460644 40.305189 
L 735.098225 40.223584 
L 741.553734 40.132088 
L 746.176196 40.028228 
L 748.806218 39.64988 
L 749.842288 39.59795 
L 753.667774 39.469361 
L 773.193695 39.367973 
L 775.265833 39.219601 
L 790.488082 39.110795 
L 791.444453 38.851145 
L 793.516592 38.833835 
L 800.928472 38.725029 
L 803.478796 38.598913 
L 808.579445 38.361518 
L 809.057631 38.240347 
L 820.2153 38.136487 
L 822.128043 38.067247 
L 829.938411 37.933712 
L 851.855261 37.827379 
L 852.731935 37.765558 
L 857.354398 37.730938 
L 889.871033 37.730938 
L 889.871033 37.730938 
" clip-path="url(#pf36414f3b2)" style="fill: none; stroke: #1f77b4; stroke-width: 2; stroke-linecap: square"/>
   </g>
   <g id="line2d_32">
    <path d="M 92.974375 317.149688 
L 251.732065 317.044375 
L 253.405715 316.503183 
L 254.999668 316.084856 
L 255.716947 316.064379 
L 268.388871 315.967842 
L 268.548266 315.856678 
L 269.504638 314.759668 
L 269.664033 314.17167 
L 269.982824 312.173649 
L 270.700102 309.66369 
L 271.178288 306.946029 
L 271.975265 304.087952 
L 272.294055 303.593566 
L 272.772241 303.075777 
L 273.011334 302.859301 
L 273.569217 302.718883 
L 276.278937 302.528735 
L 283.372026 302.420497 
L 286.161444 302.008021 
L 286.480234 301.683306 
L 287.117815 300.744265 
L 287.596001 298.380573 
L 287.835094 294.788231 
L 288.074187 292.521076 
L 288.552373 290.151534 
L 289.030559 286.450953 
L 289.588442 283.733293 
L 289.907233 282.267687 
L 290.385418 281.425183 
L 290.624511 281.044886 
L 290.863604 280.5505 
L 291.182395 280.339874 
L 291.819976 280.176054 
L 292.298162 280.094144 
L 293.653021 280.003458 
L 299.072461 279.898145 
L 301.622785 279.599758 
L 302.100971 279.462266 
L 305.607667 278.874268 
L 306.085853 278.581732 
L 307.281317 278.125376 
L 308.476782 277.888422 
L 310.150432 277.715826 
L 312.700756 277.443767 
L 319.31566 277.335529 
L 320.909613 277.212664 
L 323.539635 277.116127 
L 324.735099 277.007888 
L 328.0824 276.650994 
L 329.995143 276.408189 
L 332.625165 276.326279 
L 336.370954 276.220966 
L 339.080674 275.910878 
L 339.718255 275.714879 
L 339.957348 275.571536 
L 340.515231 274.808017 
L 340.834022 274.129333 
L 341.312208 271.62815 
L 341.5513 267.968524 
L 341.870091 263.855467 
L 342.58737 258.56934 
L 342.985858 256.512811 
L 343.782834 253.757122 
L 344.101625 253.303691 
L 344.659508 252.718619 
L 345.297089 252.493366 
L 345.93467 252.414381 
L 354.223225 252.221307 
L 357.889316 252.115994 
L 358.526897 251.943398 
L 359.164478 251.522146 
L 359.323873 251.247162 
L 360.519338 248.731352 
L 360.838128 247.994161 
L 361.316314 246.446645 
L 361.635105 245.805991 
L 362.830569 244.793817 
L 363.229057 244.717757 
L 364.344824 244.583191 
L 369.604868 244.474952 
L 376.379167 244.126834 
L 376.777655 243.942537 
L 377.335539 243.100033 
L 377.734027 242.169768 
L 378.29191 241.028877 
L 378.531003 240.455507 
L 379.64677 239.162497 
L 381.718909 238.369725 
L 382.276792 238.027457 
L 382.67528 237.796354 
L 384.667721 237.392654 
L 389.848068 237.284416 
L 391.202927 237.138148 
L 391.840509 236.787104 
L 392.47809 236.283942 
L 393.514159 235.839288 
L 394.311135 235.719348 
L 408.895803 235.078694 
L 409.453686 234.876844 
L 410.170965 234.256667 
L 410.728848 233.850042 
L 411.764917 233.613088 
L 413.279172 233.297149 
L 413.916754 232.668197 
L 414.315242 231.831543 
L 415.112218 230.924682 
L 415.431009 230.790115 
L 415.829497 230.655548 
L 416.785868 230.456624 
L 421.80682 229.824746 
L 424.118051 229.716508 
L 426.429282 229.447375 
L 427.385654 229.023197 
L 428.740514 227.320637 
L 429.617188 226.700461 
L 430.334467 225.471809 
L 431.211141 221.592781 
L 431.450233 218.655719 
L 431.928419 207.38723 
L 432.24721 198.031926 
L 432.805093 188.805339 
L 433.203581 185.850724 
L 433.522372 184.692282 
L 433.681767 183.773718 
L 434.000558 182.161845 
L 434.478744 181.310565 
L 435.27572 180.731343 
L 436.869673 180.310091 
L 439.65909 180.108241 
L 443.325181 180.002928 
L 445.39732 179.754273 
L 446.194296 179.423707 
L 447.150668 179.049261 
L 447.788249 178.452487 
L 448.107039 177.952251 
L 448.346132 177.092195 
L 449.143109 172.440871 
L 449.382201 167.622802 
L 450.816759 121.943295 
L 451.055852 119.213934 
L 451.693433 114.782012 
L 452.171619 112.146262 
L 453.207688 110.677731 
L 455.439222 110.048779 
L 459.981987 109.823526 
L 463.010497 109.718213 
L 465.082636 109.381796 
L 465.879612 109.021977 
L 466.2781 108.548069 
L 466.676588 107.693863 
L 466.995379 107.018105 
L 467.234472 105.262889 
L 467.712658 99.728106 
L 468.031448 90.925696 
L 468.350239 86.37676 
L 468.509634 83.945785 
L 468.828425 80.736665 
L 469.226913 79.110164 
L 469.545703 78.244257 
L 470.103587 76.597279 
L 470.66147 76.137998 
L 471.458446 75.526597 
L 471.856935 75.193106 
L 472.255423 74.663616 
L 472.893004 74.277468 
L 475.363631 73.844515 
L 476.877886 73.730426 
L 478.790629 73.551979 
L 480.065791 73.470069 
L 482.695813 73.36183 
L 485.007045 73.171682 
L 485.644626 72.767982 
L 485.963416 72.34673 
L 486.441602 71.983986 
L 486.999485 71.787986 
L 489.071624 71.463271 
L 489.54981 71.176586 
L 489.948298 70.752409 
L 490.267088 70.500828 
L 490.824972 70.173187 
L 491.382855 70.062024 
L 492.57832 69.90698 
L 495.128644 69.83092 
L 499.352619 69.722682 
L 500.787176 69.672951 
L 505.489337 69.564712 
L 507.40208 69.395041 
L 507.880266 69.102505 
L 508.119359 68.93576 
L 509.394521 68.669552 
L 512.821519 68.529135 
L 515.451541 68.420896 
L 516.886099 68.160539 
L 517.683075 67.771466 
L 519.117633 67.464303 
L 521.428864 67.268304 
L 522.544631 67.119111 
L 527.246791 67.010872 
L 532.506835 66.928962 
L 537.846577 66.8295 
L 538.962344 66.572068 
L 539.599925 65.919713 
L 539.998413 65.536491 
L 540.875087 65.270283 
L 545.417852 65.047955 
L 551.395175 64.939717 
L 554.184592 64.734942 
L 555.698847 64.35757 
L 556.256731 63.836856 
L 556.575521 63.427306 
L 556.734917 63.152322 
L 557.372498 59.399084 
L 558.249172 53.138812 
L 558.64766 52.310935 
L 559.205543 51.65858 
L 559.444636 51.190522 
L 559.843124 50.906762 
L 561.915263 50.561569 
L 563.588913 50.48551 
L 570.363212 50.377272 
L 572.594746 50.23978 
L 579.129952 49.888736 
L 581.919369 49.482111 
L 582.477253 49.353395 
L 582.955439 49.131068 
L 583.832113 48.677637 
L 584.549391 48.464086 
L 586.94032 48.136445 
L 593.316131 47.791253 
L 594.352201 47.668388 
L 596.583734 47.489941 
L 598.257385 47.171076 
L 610.21203 46.662064 
L 611.248099 45.898544 
L 611.726285 45.152578 
L 612.045076 44.865892 
L 612.443564 44.225238 
L 612.762354 43.961956 
L 613.639028 43.505599 
L 614.515702 43.359331 
L 615.232981 43.3096 
L 619.616351 43.259869 
L 627.825208 43.151631 
L 628.940974 43.017064 
L 630.056741 42.642618 
L 631.650694 42.45247 
L 639.062574 42.350082 
L 640.337736 42.314978 
L 641.931689 42.218441 
L 643.92413 41.961009 
L 645.27899 41.920054 
L 654.125427 41.706503 
L 658.030611 41.60119 
L 660.262145 41.545608 
L 669.746164 41.437369 
L 673.651348 41.405191 
L 676.998649 41.296952 
L 678.592601 41.232594 
L 681.302321 41.127281 
L 682.736878 41.07755 
L 689.112689 40.969312 
L 691.264525 40.919581 
L 705.6101 40.811342 
L 710.31226 40.74991 
L 713.579863 40.641671 
L 728.084833 40.220419 
L 734.460644 40.123883 
L 735.895201 39.968838 
L 737.329759 39.916182 
L 743.386779 39.807944 
L 747.531056 39.398393 
L 748.965614 39.187767 
L 752.711403 39.021022 
L 772.237323 38.912783 
L 775.823717 38.892306 
L 797.102986 38.789918 
L 798.457845 38.751888 
L 802.203634 38.646575 
L 803.956982 38.56174 
L 813.520699 38.32186 
L 821.649857 38.213622 
L 827.388087 38.11416 
L 845.001265 38.005921 
L 848.587658 37.985444 
L 852.174052 37.883056 
L 853.528912 37.839176 
L 889.871033 37.730938 
L 889.871033 37.730938 
" clip-path="url(#pf36414f3b2)" style="fill: none; stroke: #ff7f0e; stroke-width: 2; stroke-linecap: square"/>
   </g>
   <g id="patch_3">
    <path d="M 92.974375 331.120625 
L 92.974375 23.76 
" style="fill: none; stroke: #000000; stroke-width: 0.8; stroke-linejoin: miter; stroke-linecap: square"/>
   </g>
   <g id="patch_4">
    <path d="M 897.84 331.120625 
L 897.84 23.76 
" style="fill: none; stroke: #000000; stroke-width: 0.8; stroke-linejoin: miter; stroke-linecap: square"/>
   </g>
   <g id="patch_5">
    <path d="M 92.974375 331.120625 
L 897.84 331.120625 
" style="fill: none; stroke: #000000; stroke-width: 0.8; stroke-linejoin: miter; stroke-linecap: square"/>
   </g>
   <g id="patch_6">
    <path d="M 92.974375 23.76 
L 897.84 23.76 
" style="fill: none; stroke: #000000; stroke-width: 0.8; stroke-linejoin: miter; stroke-linecap: square"/>
   </g>
   <g id="legend_1">
    <g id="patch_7">
     <path d="M 109.774375 114.75 
L 367.129375 114.75 
Q 371.929375 114.75 371.929375 109.95 
L 371.929375 40.56 
Q 371.929375 35.76 367.129375 35.76 
L 109.774375 35.76 
Q 104.974375 35.76 104.974375 40.56 
L 104.974375 109.95 
Q 104.974375 114.75 109.774375 114.75 
z
" style="fill: #ffffff; opacity: 0.8; stroke: #cccccc; stroke-linejoin: miter"/>
    </g>
    <g id="line2d_33">
     <path d="M 114.574375 55.19625 
L 138.574375 55.19625 
L 162.574375 55.19625 
" style="fill: none; stroke: #1f77b4; stroke-width: 2; stroke-linecap: square"/>
    </g>
    <g id="text_18">
     <!-- min_IBLER_7_3 -->
     <g transform="translate(181.774375 63.59625) scale(0.24 -0.24)">
      <defs>
       <path id="DejaVuSans-5f" d="M 3263 -1063 
L 3263 -1509 
L -63 -1509 
L -63 -1063 
L 3263 -1063 
z
" transform="scale(0.015625)"/>
       <path id="DejaVuSans-49" d="M 628 4666 
L 1259 4666 
L 1259 0 
L 628 0 
L 628 4666 
z
" transform="scale(0.015625)"/>
       <path id="DejaVuSans-42" d="M 1259 2228 
L 1259 519 
L 2272 519 
Q 2781 519 3026 730 
Q 3272 941 3272 1375 
Q 3272 1813 3026 2020 
Q 2781 2228 2272 2228 
L 1259 2228 
z
M 1259 4147 
L 1259 2741 
L 2194 2741 
Q 2656 2741 2882 2914 
Q 3109 3088 3109 3444 
Q 3109 3797 2882 3972 
Q 2656 4147 2194 4147 
L 1259 4147 
z
M 628 4666 
L 2241 4666 
Q 2963 4666 3353 4366 
Q 3744 4066 3744 3513 
Q 3744 3084 3544 2831 
Q 3344 2578 2956 2516 
Q 3422 2416 3680 2098 
Q 3938 1781 3938 1306 
Q 3938 681 3513 340 
Q 3088 0 2303 0 
L 628 0 
L 628 4666 
z
" transform="scale(0.015625)"/>
       <path id="DejaVuSans-45" d="M 628 4666 
L 3578 4666 
L 3578 4134 
L 1259 4134 
L 1259 2753 
L 3481 2753 
L 3481 2222 
L 1259 2222 
L 1259 531 
L 3634 531 
L 3634 0 
L 628 0 
L 628 4666 
z
" transform="scale(0.015625)"/>
       <path id="DejaVuSans-33" d="M 2597 2516 
Q 3050 2419 3304 2112 
Q 3559 1806 3559 1356 
Q 3559 666 3084 287 
Q 2609 -91 1734 -91 
Q 1441 -91 1130 -33 
Q 819 25 488 141 
L 488 750 
Q 750 597 1062 519 
Q 1375 441 1716 441 
Q 2309 441 2620 675 
Q 2931 909 2931 1356 
Q 2931 1769 2642 2001 
Q 2353 2234 1838 2234 
L 1294 2234 
L 1294 2753 
L 1863 2753 
Q 2328 2753 2575 2939 
Q 2822 3125 2822 3475 
Q 2822 3834 2567 4026 
Q 2313 4219 1838 4219 
Q 1578 4219 1281 4162 
Q 984 4106 628 3988 
L 628 4550 
Q 988 4650 1302 4700 
Q 1616 4750 1894 4750 
Q 2613 4750 3031 4423 
Q 3450 4097 3450 3541 
Q 3450 3153 3228 2886 
Q 3006 2619 2597 2516 
z
" transform="scale(0.015625)"/>
      </defs>
      <use xlink:href="#DejaVuSans-6d"/>
      <use xlink:href="#DejaVuSans-69" x="97.412109"/>
      <use xlink:href="#DejaVuSans-6e" x="125.195312"/>
      <use xlink:href="#DejaVuSans-5f" x="188.574219"/>
      <use xlink:href="#DejaVuSans-49" x="238.574219"/>
      <use xlink:href="#DejaVuSans-42" x="268.066406"/>
      <use xlink:href="#DejaVuSans-4c" x="336.669922"/>
      <use xlink:href="#DejaVuSans-45" x="392.382812"/>
      <use xlink:href="#DejaVuSans-52" x="455.566406"/>
      <use xlink:href="#DejaVuSans-5f" x="525.048828"/>
      <use xlink:href="#DejaVuSans-37" x="575.048828"/>
      <use xlink:href="#DejaVuSans-5f" x="638.671875"/>
      <use xlink:href="#DejaVuSans-33" x="688.671875"/>
     </g>
    </g>
    <g id="line2d_34">
     <path d="M 114.574375 91.09125 
L 138.574375 91.09125 
L 162.574375 91.09125 
" style="fill: none; stroke: #ff7f0e; stroke-width: 2; stroke-linecap: square"/>
    </g>
    <g id="text_19">
     <!-- SlotConf7_3 -->
     <g transform="translate(181.774375 99.49125) scale(0.24 -0.24)">
      <defs>
       <path id="DejaVuSans-53" d="M 3425 4513 
L 3425 3897 
Q 3066 4069 2747 4153 
Q 2428 4238 2131 4238 
Q 1616 4238 1336 4038 
Q 1056 3838 1056 3469 
Q 1056 3159 1242 3001 
Q 1428 2844 1947 2747 
L 2328 2669 
Q 3034 2534 3370 2195 
Q 3706 1856 3706 1288 
Q 3706 609 3251 259 
Q 2797 -91 1919 -91 
Q 1588 -91 1214 -16 
Q 841 59 441 206 
L 441 856 
Q 825 641 1194 531 
Q 1563 422 1919 422 
Q 2459 422 2753 634 
Q 3047 847 3047 1241 
Q 3047 1584 2836 1778 
Q 2625 1972 2144 2069 
L 1759 2144 
Q 1053 2284 737 2584 
Q 422 2884 422 3419 
Q 422 4038 858 4394 
Q 1294 4750 2059 4750 
Q 2388 4750 2728 4690 
Q 3069 4631 3425 4513 
z
" transform="scale(0.015625)"/>
       <path id="DejaVuSans-74" d="M 1172 4494 
L 1172 3500 
L 2356 3500 
L 2356 3053 
L 1172 3053 
L 1172 1153 
Q 1172 725 1289 603 
Q 1406 481 1766 481 
L 2356 481 
L 2356 0 
L 1766 0 
Q 1100 0 847 248 
Q 594 497 594 1153 
L 594 3053 
L 172 3053 
L 172 3500 
L 594 3500 
L 594 4494 
L 1172 4494 
z
" transform="scale(0.015625)"/>
       <path id="DejaVuSans-43" d="M 4122 4306 
L 4122 3641 
Q 3803 3938 3442 4084 
Q 3081 4231 2675 4231 
Q 1875 4231 1450 3742 
Q 1025 3253 1025 2328 
Q 1025 1406 1450 917 
Q 1875 428 2675 428 
Q 3081 428 3442 575 
Q 3803 722 4122 1019 
L 4122 359 
Q 3791 134 3420 21 
Q 3050 -91 2638 -91 
Q 1578 -91 968 557 
Q 359 1206 359 2328 
Q 359 3453 968 4101 
Q 1578 4750 2638 4750 
Q 3056 4750 3426 4639 
Q 3797 4528 4122 4306 
z
" transform="scale(0.015625)"/>
      </defs>
      <use xlink:href="#DejaVuSans-53"/>
      <use xlink:href="#DejaVuSans-6c" x="63.476562"/>
      <use xlink:href="#DejaVuSans-6f" x="91.259766"/>
      <use xlink:href="#DejaVuSans-74" x="152.441406"/>
      <use xlink:href="#DejaVuSans-43" x="191.650391"/>
      <use xlink:href="#DejaVuSans-6f" x="261.474609"/>
      <use xlink:href="#DejaVuSans-6e" x="322.65625"/>
      <use xlink:href="#DejaVuSans-66" x="386.035156"/>
      <use xlink:href="#DejaVuSans-37" x="421.240234"/>
      <use xlink:href="#DejaVuSans-5f" x="484.863281"/>
      <use xlink:href="#DejaVuSans-33" x="534.863281"/>
     </g>
    </g>
   </g>
  </g>
 </g>
 <defs>
  <clipPath id="pf36414f3b2">
   <rect x="92.974375" y="23.76" width="804.865625" height="307.360625"/>
  </clipPath>
 </defs>
</svg>
